G04*
G04 #@! TF.GenerationSoftware,Altium Limited,Altium Designer,19.1.6 (110)*
G04*
G04 Layer_Color=255*
%FSLAX44Y44*%
%MOMM*%
G71*
G01*
G75*
%ADD17R,0.3500X0.3000*%
%ADD18R,0.4400X0.6500*%
%ADD19R,0.3000X0.3500*%
G04:AMPARAMS|DCode=20|XSize=0.5mm|YSize=0.6mm|CornerRadius=0.05mm|HoleSize=0mm|Usage=FLASHONLY|Rotation=180.000|XOffset=0mm|YOffset=0mm|HoleType=Round|Shape=RoundedRectangle|*
%AMROUNDEDRECTD20*
21,1,0.5000,0.5000,0,0,180.0*
21,1,0.4000,0.6000,0,0,180.0*
1,1,0.1000,-0.2000,0.2500*
1,1,0.1000,0.2000,0.2500*
1,1,0.1000,0.2000,-0.2500*
1,1,0.1000,-0.2000,-0.2500*
%
%ADD20ROUNDEDRECTD20*%
%ADD21R,2.1000X2.1000*%
%ADD22R,0.8500X0.3000*%
%ADD23R,0.3000X0.8500*%
G04:AMPARAMS|DCode=24|XSize=1mm|YSize=1.55mm|CornerRadius=0.125mm|HoleSize=0mm|Usage=FLASHONLY|Rotation=270.000|XOffset=0mm|YOffset=0mm|HoleType=Round|Shape=RoundedRectangle|*
%AMROUNDEDRECTD24*
21,1,1.0000,1.3000,0,0,270.0*
21,1,0.7500,1.5500,0,0,270.0*
1,1,0.2500,-0.6500,-0.3750*
1,1,0.2500,-0.6500,0.3750*
1,1,0.2500,0.6500,0.3750*
1,1,0.2500,0.6500,-0.3750*
%
%ADD24ROUNDEDRECTD24*%
G04:AMPARAMS|DCode=25|XSize=1.2mm|YSize=1.6mm|CornerRadius=0.15mm|HoleSize=0mm|Usage=FLASHONLY|Rotation=0.000|XOffset=0mm|YOffset=0mm|HoleType=Round|Shape=RoundedRectangle|*
%AMROUNDEDRECTD25*
21,1,1.2000,1.3000,0,0,0.0*
21,1,0.9000,1.6000,0,0,0.0*
1,1,0.3000,0.4500,-0.6500*
1,1,0.3000,-0.4500,-0.6500*
1,1,0.3000,-0.4500,0.6500*
1,1,0.3000,0.4500,0.6500*
%
%ADD25ROUNDEDRECTD25*%
G04:AMPARAMS|DCode=26|XSize=1.2mm|YSize=1.2mm|CornerRadius=0.15mm|HoleSize=0mm|Usage=FLASHONLY|Rotation=180.000|XOffset=0mm|YOffset=0mm|HoleType=Round|Shape=RoundedRectangle|*
%AMROUNDEDRECTD26*
21,1,1.2000,0.9000,0,0,180.0*
21,1,0.9000,1.2000,0,0,180.0*
1,1,0.3000,-0.4500,0.4500*
1,1,0.3000,0.4500,0.4500*
1,1,0.3000,0.4500,-0.4500*
1,1,0.3000,-0.4500,-0.4500*
%
%ADD26ROUNDEDRECTD26*%
G04:AMPARAMS|DCode=27|XSize=1.2mm|YSize=2.15mm|CornerRadius=0.15mm|HoleSize=0mm|Usage=FLASHONLY|Rotation=0.000|XOffset=0mm|YOffset=0mm|HoleType=Round|Shape=RoundedRectangle|*
%AMROUNDEDRECTD27*
21,1,1.2000,1.8500,0,0,0.0*
21,1,0.9000,2.1500,0,0,0.0*
1,1,0.3000,0.4500,-0.9250*
1,1,0.3000,-0.4500,-0.9250*
1,1,0.3000,-0.4500,0.9250*
1,1,0.3000,0.4500,0.9250*
%
%ADD27ROUNDEDRECTD27*%
G04:AMPARAMS|DCode=28|XSize=0.5mm|YSize=0.6mm|CornerRadius=0.05mm|HoleSize=0mm|Usage=FLASHONLY|Rotation=90.000|XOffset=0mm|YOffset=0mm|HoleType=Round|Shape=RoundedRectangle|*
%AMROUNDEDRECTD28*
21,1,0.5000,0.5000,0,0,90.0*
21,1,0.4000,0.6000,0,0,90.0*
1,1,0.1000,0.2500,0.2000*
1,1,0.1000,0.2500,-0.2000*
1,1,0.1000,-0.2500,-0.2000*
1,1,0.1000,-0.2500,0.2000*
%
%ADD28ROUNDEDRECTD28*%
G04:AMPARAMS|DCode=29|XSize=1.1mm|YSize=2.15mm|CornerRadius=0.1375mm|HoleSize=0mm|Usage=FLASHONLY|Rotation=180.000|XOffset=0mm|YOffset=0mm|HoleType=Round|Shape=RoundedRectangle|*
%AMROUNDEDRECTD29*
21,1,1.1000,1.8750,0,0,180.0*
21,1,0.8250,2.1500,0,0,180.0*
1,1,0.2750,-0.4125,0.9375*
1,1,0.2750,0.4125,0.9375*
1,1,0.2750,0.4125,-0.9375*
1,1,0.2750,-0.4125,-0.9375*
%
%ADD29ROUNDEDRECTD29*%
G04:AMPARAMS|DCode=30|XSize=1.05mm|YSize=1.6mm|CornerRadius=0.1313mm|HoleSize=0mm|Usage=FLASHONLY|Rotation=180.000|XOffset=0mm|YOffset=0mm|HoleType=Round|Shape=RoundedRectangle|*
%AMROUNDEDRECTD30*
21,1,1.0500,1.3375,0,0,180.0*
21,1,0.7875,1.6000,0,0,180.0*
1,1,0.2625,-0.3938,0.6688*
1,1,0.2625,0.3938,0.6688*
1,1,0.2625,0.3938,-0.6688*
1,1,0.2625,-0.3938,-0.6688*
%
%ADD30ROUNDEDRECTD30*%
G04:AMPARAMS|DCode=31|XSize=0.6mm|YSize=0.6mm|CornerRadius=0.06mm|HoleSize=0mm|Usage=FLASHONLY|Rotation=180.000|XOffset=0mm|YOffset=0mm|HoleType=Round|Shape=RoundedRectangle|*
%AMROUNDEDRECTD31*
21,1,0.6000,0.4800,0,0,180.0*
21,1,0.4800,0.6000,0,0,180.0*
1,1,0.1200,-0.2400,0.2400*
1,1,0.1200,0.2400,0.2400*
1,1,0.1200,0.2400,-0.2400*
1,1,0.1200,-0.2400,-0.2400*
%
%ADD31ROUNDEDRECTD31*%
%ADD32R,0.4000X0.4000*%
%ADD33R,0.6000X0.6000*%
%ADD34R,0.4000X0.4000*%
%ADD35R,0.6000X0.6000*%
%ADD36R,0.9000X1.3000*%
%ADD37R,1.2000X1.5000*%
G04:AMPARAMS|DCode=38|XSize=0.6mm|YSize=0.6mm|CornerRadius=0.06mm|HoleSize=0mm|Usage=FLASHONLY|Rotation=90.000|XOffset=0mm|YOffset=0mm|HoleType=Round|Shape=RoundedRectangle|*
%AMROUNDEDRECTD38*
21,1,0.6000,0.4800,0,0,90.0*
21,1,0.4800,0.6000,0,0,90.0*
1,1,0.1200,0.2400,0.2400*
1,1,0.1200,0.2400,-0.2400*
1,1,0.1200,-0.2400,-0.2400*
1,1,0.1200,-0.2400,0.2400*
%
%ADD38ROUNDEDRECTD38*%
G04:AMPARAMS|DCode=39|XSize=1mm|YSize=0.9mm|CornerRadius=0.1125mm|HoleSize=0mm|Usage=FLASHONLY|Rotation=0.000|XOffset=0mm|YOffset=0mm|HoleType=Round|Shape=RoundedRectangle|*
%AMROUNDEDRECTD39*
21,1,1.0000,0.6750,0,0,0.0*
21,1,0.7750,0.9000,0,0,0.0*
1,1,0.2250,0.3875,-0.3375*
1,1,0.2250,-0.3875,-0.3375*
1,1,0.2250,-0.3875,0.3375*
1,1,0.2250,0.3875,0.3375*
%
%ADD39ROUNDEDRECTD39*%
G04:AMPARAMS|DCode=40|XSize=0.6mm|YSize=1mm|CornerRadius=0.075mm|HoleSize=0mm|Usage=FLASHONLY|Rotation=270.000|XOffset=0mm|YOffset=0mm|HoleType=Round|Shape=RoundedRectangle|*
%AMROUNDEDRECTD40*
21,1,0.6000,0.8500,0,0,270.0*
21,1,0.4500,1.0000,0,0,270.0*
1,1,0.1500,-0.4250,-0.2250*
1,1,0.1500,-0.4250,0.2250*
1,1,0.1500,0.4250,0.2250*
1,1,0.1500,0.4250,-0.2250*
%
%ADD40ROUNDEDRECTD40*%
%ADD41R,0.7000X4.4000*%
%ADD42R,3.8000X0.5000*%
%ADD43R,4.4000X0.7000*%
%ADD44R,0.7000X2.6500*%
%ADD45R,0.7000X3.5000*%
%ADD46R,0.5000X3.8000*%
%ADD47R,0.3000X0.6000*%
%ADD48R,1.6000X0.9500*%
G04:AMPARAMS|DCode=49|XSize=1mm|YSize=1mm|CornerRadius=0.25mm|HoleSize=0mm|Usage=FLASHONLY|Rotation=270.000|XOffset=0mm|YOffset=0mm|HoleType=Round|Shape=RoundedRectangle|*
%AMROUNDEDRECTD49*
21,1,1.0000,0.5000,0,0,270.0*
21,1,0.5000,1.0000,0,0,270.0*
1,1,0.5000,-0.2500,-0.2500*
1,1,0.5000,-0.2500,0.2500*
1,1,0.5000,0.2500,0.2500*
1,1,0.5000,0.2500,-0.2500*
%
%ADD49ROUNDEDRECTD49*%
%ADD50R,1.0000X1.0000*%
%ADD51R,1.0000X1.0000*%
%ADD52R,0.9500X1.0000*%
%ADD53C,0.2000*%
%ADD54R,1.7000X2.5000*%
%ADD55R,0.7000X0.5000*%
%ADD56R,0.3000X0.3100*%
G04:AMPARAMS|DCode=57|XSize=1mm|YSize=1.5mm|CornerRadius=0.125mm|HoleSize=0mm|Usage=FLASHONLY|Rotation=90.000|XOffset=0mm|YOffset=0mm|HoleType=Round|Shape=RoundedRectangle|*
%AMROUNDEDRECTD57*
21,1,1.0000,1.2500,0,0,90.0*
21,1,0.7500,1.5000,0,0,90.0*
1,1,0.2500,0.6250,0.3750*
1,1,0.2500,0.6250,-0.3750*
1,1,0.2500,-0.6250,-0.3750*
1,1,0.2500,-0.6250,0.3750*
%
%ADD57ROUNDEDRECTD57*%
G04:AMPARAMS|DCode=58|XSize=0.6mm|YSize=1.6mm|CornerRadius=0.075mm|HoleSize=0mm|Usage=FLASHONLY|Rotation=180.000|XOffset=0mm|YOffset=0mm|HoleType=Round|Shape=RoundedRectangle|*
%AMROUNDEDRECTD58*
21,1,0.6000,1.4500,0,0,180.0*
21,1,0.4500,1.6000,0,0,180.0*
1,1,0.1500,-0.2250,0.7250*
1,1,0.1500,0.2250,0.7250*
1,1,0.1500,0.2250,-0.7250*
1,1,0.1500,-0.2250,-0.7250*
%
%ADD58ROUNDEDRECTD58*%
G04:AMPARAMS|DCode=59|XSize=0.9mm|YSize=1.6mm|CornerRadius=0.1125mm|HoleSize=0mm|Usage=FLASHONLY|Rotation=180.000|XOffset=0mm|YOffset=0mm|HoleType=Round|Shape=RoundedRectangle|*
%AMROUNDEDRECTD59*
21,1,0.9000,1.3750,0,0,180.0*
21,1,0.6750,1.6000,0,0,180.0*
1,1,0.2250,-0.3375,0.6875*
1,1,0.2250,0.3375,0.6875*
1,1,0.2250,0.3375,-0.6875*
1,1,0.2250,-0.3375,-0.6875*
%
%ADD59ROUNDEDRECTD59*%
%ADD60R,0.3100X0.3000*%
G04:AMPARAMS|DCode=61|XSize=1.3mm|YSize=0.8mm|CornerRadius=0.1mm|HoleSize=0mm|Usage=FLASHONLY|Rotation=90.000|XOffset=0mm|YOffset=0mm|HoleType=Round|Shape=RoundedRectangle|*
%AMROUNDEDRECTD61*
21,1,1.3000,0.6000,0,0,90.0*
21,1,1.1000,0.8000,0,0,90.0*
1,1,0.2000,0.3000,0.5500*
1,1,0.2000,0.3000,-0.5500*
1,1,0.2000,-0.3000,-0.5500*
1,1,0.2000,-0.3000,0.5500*
%
%ADD61ROUNDEDRECTD61*%
%ADD62R,0.5000X0.7000*%
%ADD63R,2.5000X1.7000*%
%ADD64R,1.6500X0.9000*%
%ADD65R,1.6500X0.7600*%
G04:AMPARAMS|DCode=66|XSize=1mm|YSize=1mm|CornerRadius=0.15mm|HoleSize=0mm|Usage=FLASHONLY|Rotation=180.000|XOffset=0mm|YOffset=0mm|HoleType=Round|Shape=RoundedRectangle|*
%AMROUNDEDRECTD66*
21,1,1.0000,0.7000,0,0,180.0*
21,1,0.7000,1.0000,0,0,180.0*
1,1,0.3000,-0.3500,0.3500*
1,1,0.3000,0.3500,0.3500*
1,1,0.3000,0.3500,-0.3500*
1,1,0.3000,-0.3500,-0.3500*
%
%ADD66ROUNDEDRECTD66*%
%ADD67R,0.2000X0.3950*%
%ADD68R,0.3950X0.2000*%
G04:AMPARAMS|DCode=69|XSize=0.25mm|YSize=0.55mm|CornerRadius=0.0625mm|HoleSize=0mm|Usage=FLASHONLY|Rotation=0.000|XOffset=0mm|YOffset=0mm|HoleType=Round|Shape=RoundedRectangle|*
%AMROUNDEDRECTD69*
21,1,0.2500,0.4250,0,0,0.0*
21,1,0.1250,0.5500,0,0,0.0*
1,1,0.1250,0.0625,-0.2125*
1,1,0.1250,-0.0625,-0.2125*
1,1,0.1250,-0.0625,0.2125*
1,1,0.1250,0.0625,0.2125*
%
%ADD69ROUNDEDRECTD69*%
G04:AMPARAMS|DCode=70|XSize=1mm|YSize=0.9mm|CornerRadius=0.1125mm|HoleSize=0mm|Usage=FLASHONLY|Rotation=90.000|XOffset=0mm|YOffset=0mm|HoleType=Round|Shape=RoundedRectangle|*
%AMROUNDEDRECTD70*
21,1,1.0000,0.6750,0,0,90.0*
21,1,0.7750,0.9000,0,0,90.0*
1,1,0.2250,0.3375,0.3875*
1,1,0.2250,0.3375,-0.3875*
1,1,0.2250,-0.3375,-0.3875*
1,1,0.2250,-0.3375,0.3875*
%
%ADD70ROUNDEDRECTD70*%
G04:AMPARAMS|DCode=71|XSize=0.6mm|YSize=0.6mm|CornerRadius=0.06mm|HoleSize=0mm|Usage=FLASHONLY|Rotation=135.000|XOffset=0mm|YOffset=0mm|HoleType=Round|Shape=RoundedRectangle|*
%AMROUNDEDRECTD71*
21,1,0.6000,0.4800,0,0,135.0*
21,1,0.4800,0.6000,0,0,135.0*
1,1,0.1200,0.0000,0.3394*
1,1,0.1200,0.3394,0.0000*
1,1,0.1200,0.0000,-0.3394*
1,1,0.1200,-0.3394,0.0000*
%
%ADD71ROUNDEDRECTD71*%
G04:AMPARAMS|DCode=72|XSize=0.3mm|YSize=0.35mm|CornerRadius=0mm|HoleSize=0mm|Usage=FLASHONLY|Rotation=225.000|XOffset=0mm|YOffset=0mm|HoleType=Round|Shape=Rectangle|*
%AMROTATEDRECTD72*
4,1,4,-0.0177,0.2298,0.2298,-0.0177,0.0177,-0.2298,-0.2298,0.0177,-0.0177,0.2298,0.0*
%
%ADD72ROTATEDRECTD72*%

G04:AMPARAMS|DCode=73|XSize=0.3mm|YSize=0.35mm|CornerRadius=0mm|HoleSize=0mm|Usage=FLASHONLY|Rotation=315.000|XOffset=0mm|YOffset=0mm|HoleType=Round|Shape=Rectangle|*
%AMROTATEDRECTD73*
4,1,4,-0.2298,-0.0177,0.0177,0.2298,0.2298,0.0177,-0.0177,-0.2298,-0.2298,-0.0177,0.0*
%
%ADD73ROTATEDRECTD73*%

%ADD135R,5.5000X5.5000*%
%ADD137R,2.5000X0.6000*%
%ADD138C,1.0000*%
%ADD148C,0.8000*%
D17*
X148250Y192300D02*
D03*
Y186700D02*
D03*
X167750Y167950D02*
D03*
Y173550D02*
D03*
X177750Y154100D02*
D03*
Y148500D02*
D03*
X167250Y125800D02*
D03*
Y120200D02*
D03*
X93000Y180450D02*
D03*
Y186050D02*
D03*
X93550Y75061D02*
D03*
Y80661D02*
D03*
X99500Y191800D02*
D03*
Y186200D02*
D03*
X144000Y140950D02*
D03*
Y146550D02*
D03*
X116000Y132200D02*
D03*
Y137800D02*
D03*
X109500Y132200D02*
D03*
Y137800D02*
D03*
X109500Y126300D02*
D03*
Y120700D02*
D03*
X116000Y126300D02*
D03*
Y120700D02*
D03*
X125000Y143550D02*
D03*
Y137950D02*
D03*
X170250Y144050D02*
D03*
Y138450D02*
D03*
X155625Y178500D02*
D03*
Y184100D02*
D03*
X163375Y178500D02*
D03*
Y184100D02*
D03*
X169875Y178500D02*
D03*
Y184100D02*
D03*
X163505Y142900D02*
D03*
Y148500D02*
D03*
X147500Y163300D02*
D03*
Y157700D02*
D03*
X121500Y177050D02*
D03*
Y171450D02*
D03*
X137250Y173950D02*
D03*
Y179550D02*
D03*
X112500Y158800D02*
D03*
Y153200D02*
D03*
X293500Y253450D02*
D03*
Y259050D02*
D03*
X93000Y168700D02*
D03*
Y163100D02*
D03*
X73000Y185300D02*
D03*
Y179700D02*
D03*
X73000Y168700D02*
D03*
Y174300D02*
D03*
X279000Y236300D02*
D03*
X279000Y230700D02*
D03*
X286250Y236300D02*
D03*
Y230700D02*
D03*
X271750Y236300D02*
D03*
X271750Y230700D02*
D03*
X113000Y171450D02*
D03*
Y177050D02*
D03*
X86750Y161050D02*
D03*
Y155450D02*
D03*
X122750Y154200D02*
D03*
Y159800D02*
D03*
X111000Y142700D02*
D03*
Y148300D02*
D03*
X117500Y142700D02*
D03*
Y148300D02*
D03*
X153500Y127700D02*
D03*
Y133300D02*
D03*
X80000Y155450D02*
D03*
Y161050D02*
D03*
X73250Y161050D02*
D03*
Y155450D02*
D03*
X79750Y174300D02*
D03*
Y168700D02*
D03*
X86500D02*
D03*
Y174300D02*
D03*
X17000Y148450D02*
D03*
Y154050D02*
D03*
X86500Y179700D02*
D03*
Y185300D02*
D03*
X79750Y179700D02*
D03*
Y185300D02*
D03*
X12000Y196300D02*
D03*
Y190700D02*
D03*
X200250Y17550D02*
D03*
Y11950D02*
D03*
X237850Y162381D02*
D03*
Y156781D02*
D03*
X40500Y228300D02*
D03*
Y222700D02*
D03*
X181500Y66200D02*
D03*
Y71800D02*
D03*
X343750Y25300D02*
D03*
Y19700D02*
D03*
X3250Y209775D02*
D03*
Y215375D02*
D03*
X188000Y74646D02*
D03*
Y69046D02*
D03*
X358500Y56300D02*
D03*
Y50700D02*
D03*
X351750Y56300D02*
D03*
Y50700D02*
D03*
X9750Y209775D02*
D03*
Y215375D02*
D03*
X173750Y91104D02*
D03*
Y96704D02*
D03*
Y76754D02*
D03*
Y82354D02*
D03*
X188000Y85746D02*
D03*
Y80146D02*
D03*
X187500Y17550D02*
D03*
Y11950D02*
D03*
X118000Y31850D02*
D03*
Y26250D02*
D03*
X277250Y29400D02*
D03*
Y35000D02*
D03*
X55750Y13700D02*
D03*
Y19300D02*
D03*
X41500Y54150D02*
D03*
X41500Y48550D02*
D03*
X54550Y46050D02*
D03*
Y51650D02*
D03*
X48050Y48550D02*
D03*
Y54150D02*
D03*
X306500Y168800D02*
D03*
Y163200D02*
D03*
X255750Y182300D02*
D03*
Y176700D02*
D03*
X214205Y197000D02*
D03*
X214205Y202600D02*
D03*
X447250Y104550D02*
D03*
Y110150D02*
D03*
X445500Y93200D02*
D03*
X445500Y98800D02*
D03*
X158629Y23121D02*
D03*
Y17521D02*
D03*
X288000Y213750D02*
D03*
Y219350D02*
D03*
X280250Y117800D02*
D03*
Y112200D02*
D03*
X236500Y17400D02*
D03*
Y23000D02*
D03*
X393750Y117950D02*
D03*
Y123550D02*
D03*
X311500Y191200D02*
D03*
Y196800D02*
D03*
X311000Y185800D02*
D03*
Y180200D02*
D03*
X272500Y201950D02*
D03*
Y207550D02*
D03*
Y219300D02*
D03*
Y213700D02*
D03*
X276015Y92500D02*
D03*
Y86900D02*
D03*
X338200Y144800D02*
D03*
Y139200D02*
D03*
X279095Y213750D02*
D03*
Y219350D02*
D03*
X314250Y215950D02*
D03*
Y221550D02*
D03*
X285500Y169550D02*
D03*
Y163950D02*
D03*
X272750Y112200D02*
D03*
Y117800D02*
D03*
X324593Y148500D02*
D03*
Y142900D02*
D03*
X354275Y171650D02*
D03*
Y177250D02*
D03*
X317724Y172700D02*
D03*
Y167100D02*
D03*
X305500Y173950D02*
D03*
Y179550D02*
D03*
X317500Y185800D02*
D03*
Y180200D02*
D03*
X290500Y197550D02*
D03*
Y191950D02*
D03*
X304950Y188811D02*
D03*
Y194411D02*
D03*
X274250Y195800D02*
D03*
Y190200D02*
D03*
X242250Y118170D02*
D03*
Y112570D02*
D03*
X235750Y118170D02*
D03*
Y112570D02*
D03*
X214750Y133400D02*
D03*
Y139000D02*
D03*
X221301Y133400D02*
D03*
Y139000D02*
D03*
X228750Y125306D02*
D03*
Y130906D02*
D03*
X235750Y125306D02*
D03*
Y130906D02*
D03*
X324224Y170350D02*
D03*
Y175950D02*
D03*
X347250Y170200D02*
D03*
Y175800D02*
D03*
X307000Y221550D02*
D03*
Y215950D02*
D03*
X323000Y195050D02*
D03*
Y189450D02*
D03*
X334750Y178950D02*
D03*
Y184550D02*
D03*
X235644Y176295D02*
D03*
Y170695D02*
D03*
X228305Y176295D02*
D03*
Y170695D02*
D03*
X330224Y165450D02*
D03*
Y159850D02*
D03*
X263974Y190350D02*
D03*
Y195950D02*
D03*
X265245Y179405D02*
D03*
Y185005D02*
D03*
X246000Y165300D02*
D03*
Y159700D02*
D03*
D18*
X152500Y171500D02*
D03*
X160000D02*
D03*
D19*
X167750Y133500D02*
D03*
X162150D02*
D03*
X155050Y143250D02*
D03*
X149450D02*
D03*
X142800Y128500D02*
D03*
X137200D02*
D03*
X7050Y226000D02*
D03*
X1450D02*
D03*
X7050Y233250D02*
D03*
X1450D02*
D03*
X7050Y107468D02*
D03*
X1450D02*
D03*
X7050Y99026D02*
D03*
X1450D02*
D03*
X87950Y68000D02*
D03*
X93550D02*
D03*
X261300Y208250D02*
D03*
X255700D02*
D03*
X156950Y248750D02*
D03*
X162550D02*
D03*
X74950Y69000D02*
D03*
X80550D02*
D03*
X134300Y152000D02*
D03*
X128700D02*
D03*
X140200Y152000D02*
D03*
X145800D02*
D03*
X144800Y122000D02*
D03*
X139200D02*
D03*
X131600Y134700D02*
D03*
X137200D02*
D03*
X161700Y163000D02*
D03*
X167300D02*
D03*
X136450Y187500D02*
D03*
X142050D02*
D03*
X75950Y8500D02*
D03*
X81550D02*
D03*
X1450Y249250D02*
D03*
X7050D02*
D03*
X8200Y178500D02*
D03*
X13800D02*
D03*
X11950Y141000D02*
D03*
X17550D02*
D03*
X1450Y146000D02*
D03*
X7050D02*
D03*
X86550Y192000D02*
D03*
X80950D02*
D03*
X73200Y147750D02*
D03*
X78800D02*
D03*
X25400Y134500D02*
D03*
X31000D02*
D03*
X73200Y132750D02*
D03*
X78800D02*
D03*
X73200Y140250D02*
D03*
X78800Y140250D02*
D03*
X269300Y246250D02*
D03*
X263700D02*
D03*
X162550Y255250D02*
D03*
X156950D02*
D03*
X96930Y148500D02*
D03*
X91330D02*
D03*
X129710Y168500D02*
D03*
X135309D02*
D03*
X131450Y158500D02*
D03*
X137050D02*
D03*
X82050Y114750D02*
D03*
X76450D02*
D03*
X15050Y165500D02*
D03*
X9450D02*
D03*
X17250Y172000D02*
D03*
X11650D02*
D03*
X15050Y159000D02*
D03*
X9450D02*
D03*
X18550Y185000D02*
D03*
X12950D02*
D03*
X6300Y172000D02*
D03*
X700D02*
D03*
X7050Y131000D02*
D03*
X1450D02*
D03*
Y138500D02*
D03*
X7050D02*
D03*
X50200Y192500D02*
D03*
X55800D02*
D03*
X67800D02*
D03*
X62200D02*
D03*
X14650Y134500D02*
D03*
X20250D02*
D03*
X4150Y201875D02*
D03*
X9750D02*
D03*
X7024Y153468D02*
D03*
X1424D02*
D03*
X64700Y12000D02*
D03*
X70300D02*
D03*
X189146Y234750D02*
D03*
X183546D02*
D03*
X204246Y235000D02*
D03*
X198646D02*
D03*
X236800Y192254D02*
D03*
X231200D02*
D03*
X236800Y199567D02*
D03*
X231200D02*
D03*
X82100Y121250D02*
D03*
X76500D02*
D03*
X234800Y144750D02*
D03*
X229200D02*
D03*
X70800Y5250D02*
D03*
X65200D02*
D03*
X26900Y54700D02*
D03*
X32500D02*
D03*
X190950Y246500D02*
D03*
X196550D02*
D03*
X169950Y102750D02*
D03*
X175550D02*
D03*
X47150Y39950D02*
D03*
X52750D02*
D03*
X52050Y228000D02*
D03*
X46450D02*
D03*
X47200Y214853D02*
D03*
X41600Y214853D02*
D03*
X222800Y170500D02*
D03*
X217200D02*
D03*
X234800Y151250D02*
D03*
X229200D02*
D03*
X426800Y112250D02*
D03*
X421200D02*
D03*
X7050Y61276D02*
D03*
X1450D02*
D03*
X7050Y68718D02*
D03*
X1450D02*
D03*
X7043Y90497D02*
D03*
X1443D02*
D03*
X224500Y94455D02*
D03*
X218900Y94455D02*
D03*
X134000Y68045D02*
D03*
X139600D02*
D03*
X437800Y105250D02*
D03*
X432200Y105250D02*
D03*
X421200Y105250D02*
D03*
X426800Y105250D02*
D03*
X154500Y31000D02*
D03*
X160100Y31000D02*
D03*
X154500Y37750D02*
D03*
X160100D02*
D03*
X280265Y106750D02*
D03*
X285865D02*
D03*
X235150Y37750D02*
D03*
X240750D02*
D03*
X235150Y30500D02*
D03*
X240750D02*
D03*
X206200Y256750D02*
D03*
X211800D02*
D03*
X1450Y239987D02*
D03*
X7050D02*
D03*
X269800Y81750D02*
D03*
X264200D02*
D03*
X279800Y178250D02*
D03*
X274200D02*
D03*
X324800Y115250D02*
D03*
X319200D02*
D03*
X318800Y128750D02*
D03*
X313200D02*
D03*
X257524Y195950D02*
D03*
X251924D02*
D03*
X324274Y160650D02*
D03*
X318674D02*
D03*
X346550Y132000D02*
D03*
X340950D02*
D03*
X281615Y98750D02*
D03*
X276015D02*
D03*
X211855Y145411D02*
D03*
X217455D02*
D03*
X211855Y152581D02*
D03*
X217455D02*
D03*
X324900Y135250D02*
D03*
X330500D02*
D03*
X319174Y122400D02*
D03*
X324774D02*
D03*
X284695Y206250D02*
D03*
X279095D02*
D03*
X284695Y199750D02*
D03*
X279095D02*
D03*
X318800Y135250D02*
D03*
X313200D02*
D03*
X340800Y115000D02*
D03*
X335200D02*
D03*
X279800Y184750D02*
D03*
X274200D02*
D03*
X291355Y175280D02*
D03*
X285755D02*
D03*
X291355Y181805D02*
D03*
X285755D02*
D03*
X263074Y135400D02*
D03*
X257474D02*
D03*
X263074Y143100D02*
D03*
X257474D02*
D03*
X263074Y120150D02*
D03*
X257474D02*
D03*
X263074Y127850D02*
D03*
X257474D02*
D03*
D20*
X103250Y58500D02*
D03*
Y68500D02*
D03*
X187750Y143500D02*
D03*
Y153500D02*
D03*
X120000Y94500D02*
D03*
Y84500D02*
D03*
X215646Y225000D02*
D03*
Y215000D02*
D03*
X172505Y225000D02*
D03*
Y215000D02*
D03*
X364380Y141000D02*
D03*
Y131000D02*
D03*
X322000Y79750D02*
D03*
Y89750D02*
D03*
X364979Y165750D02*
D03*
Y155750D02*
D03*
X395979Y165750D02*
D03*
Y155750D02*
D03*
X398500Y205000D02*
D03*
X398500Y195000D02*
D03*
X367250Y194750D02*
D03*
Y204750D02*
D03*
D21*
X45250Y163750D02*
D03*
D22*
X64250Y173750D02*
D03*
Y168750D02*
D03*
Y163750D02*
D03*
Y158750D02*
D03*
Y153750D02*
D03*
X26250D02*
D03*
Y158750D02*
D03*
Y163750D02*
D03*
Y168750D02*
D03*
Y173750D02*
D03*
D23*
X55250Y144750D02*
D03*
X50250D02*
D03*
X45250D02*
D03*
X40250D02*
D03*
X35250D02*
D03*
Y182750D02*
D03*
X40250D02*
D03*
X45250D02*
D03*
X50250D02*
D03*
X55250D02*
D03*
D24*
X27250Y40750D02*
D03*
Y6750D02*
D03*
X223000Y290250D02*
D03*
X223000Y256250D02*
D03*
X270500Y290250D02*
D03*
Y256250D02*
D03*
X27250Y290250D02*
D03*
Y256250D02*
D03*
X316500Y6500D02*
D03*
Y40500D02*
D03*
X385500Y290250D02*
D03*
Y256250D02*
D03*
X385500Y6500D02*
D03*
Y40500D02*
D03*
X316500Y290250D02*
D03*
Y256250D02*
D03*
D25*
X10250Y23750D02*
D03*
X44250D02*
D03*
X158750Y273250D02*
D03*
X10250D02*
D03*
X44250D02*
D03*
X333500Y23500D02*
D03*
X299500D02*
D03*
X368500Y273250D02*
D03*
X402500D02*
D03*
X402500Y23500D02*
D03*
X368500D02*
D03*
X333500Y273250D02*
D03*
D26*
X27250Y7750D02*
D03*
Y39750D02*
D03*
X223000Y257250D02*
D03*
Y289250D02*
D03*
X175750Y289250D02*
D03*
Y257250D02*
D03*
X270500Y257250D02*
D03*
Y289250D02*
D03*
X27250Y257250D02*
D03*
Y289250D02*
D03*
X316500Y39500D02*
D03*
Y7500D02*
D03*
X385500Y257250D02*
D03*
Y289250D02*
D03*
X385500Y39500D02*
D03*
Y7500D02*
D03*
X316500Y257250D02*
D03*
Y289250D02*
D03*
D27*
X41250Y23750D02*
D03*
X13250D02*
D03*
X209000Y273250D02*
D03*
X161750Y273250D02*
D03*
X189750D02*
D03*
X284500Y273250D02*
D03*
X256500D02*
D03*
X41250Y273250D02*
D03*
X13250D02*
D03*
X302500Y23500D02*
D03*
X330500D02*
D03*
X399500Y273250D02*
D03*
X371500D02*
D03*
X371500Y23500D02*
D03*
X399500D02*
D03*
X330500Y273250D02*
D03*
X302500D02*
D03*
D28*
X100750Y120250D02*
D03*
X90750D02*
D03*
X100750Y130250D02*
D03*
X90750D02*
D03*
X100750Y140250D02*
D03*
X90750D02*
D03*
X354250Y239500D02*
D03*
X344250D02*
D03*
X404000Y52250D02*
D03*
X394000D02*
D03*
X32500Y234250D02*
D03*
X22500D02*
D03*
X162000Y66354D02*
D03*
X152000D02*
D03*
X162000Y111245D02*
D03*
X172000D02*
D03*
X388000Y204750D02*
D03*
X378000D02*
D03*
X384879Y141000D02*
D03*
X374879Y141000D02*
D03*
X384879Y131000D02*
D03*
X374879D02*
D03*
X342500Y89750D02*
D03*
X332500D02*
D03*
X342500Y79750D02*
D03*
X332500D02*
D03*
X385479Y155750D02*
D03*
X375479Y155750D02*
D03*
X385479Y165750D02*
D03*
X375479Y165750D02*
D03*
X387750Y194750D02*
D03*
X377750D02*
D03*
X196464Y97360D02*
D03*
X206464D02*
D03*
X196000Y53255D02*
D03*
X206000D02*
D03*
D29*
X237000Y273250D02*
D03*
D30*
X206000Y273250D02*
D03*
X240000Y273250D02*
D03*
X192750Y273250D02*
D03*
X253500Y273250D02*
D03*
D31*
X78235Y85475D02*
D03*
Y95475D02*
D03*
X44000Y246750D02*
D03*
Y236750D02*
D03*
X162005Y215000D02*
D03*
Y225000D02*
D03*
X356750Y194750D02*
D03*
Y184750D02*
D03*
Y204750D02*
D03*
Y214750D02*
D03*
X395879Y141000D02*
D03*
Y131000D02*
D03*
X353500Y79750D02*
D03*
Y89750D02*
D03*
D32*
X108250Y103000D02*
D03*
Y111000D02*
D03*
X101750Y94250D02*
D03*
Y86250D02*
D03*
X121250Y191500D02*
D03*
X121250Y183500D02*
D03*
D33*
X100250Y107000D02*
D03*
X116250D02*
D03*
X109750Y90250D02*
D03*
X93750D02*
D03*
X129250Y187500D02*
D03*
X113250D02*
D03*
D34*
X203500Y159500D02*
D03*
X195500D02*
D03*
X179500Y171250D02*
D03*
X187500D02*
D03*
D35*
X199500Y151500D02*
D03*
Y167500D02*
D03*
X183500Y179250D02*
D03*
Y163250D02*
D03*
D36*
X39640Y128850D02*
D03*
X39640Y64850D02*
D03*
D37*
X61640Y121350D02*
D03*
Y69350D02*
D03*
X17640D02*
D03*
X17640Y121350D02*
D03*
D03*
X17640Y69350D02*
D03*
X61640D02*
D03*
Y121350D02*
D03*
D38*
X88250Y106500D02*
D03*
X78250D02*
D03*
X377500Y52750D02*
D03*
X367500D02*
D03*
X332750Y50750D02*
D03*
X342750D02*
D03*
X17250Y223750D02*
D03*
X27250D02*
D03*
X141000Y110995D02*
D03*
X151000D02*
D03*
X208250Y129250D02*
D03*
X198250D02*
D03*
X195750Y42505D02*
D03*
X205750D02*
D03*
D39*
X102000Y156750D02*
D03*
Y173750D02*
D03*
X124000Y70750D02*
D03*
X124000Y53750D02*
D03*
D40*
X21500Y213500D02*
D03*
Y194500D02*
D03*
X44500Y204000D02*
D03*
D41*
X460592Y85750D02*
D03*
Y211250D02*
D03*
D42*
X379092Y67000D02*
D03*
Y230000D02*
D03*
D43*
X441842Y67000D02*
D03*
Y230000D02*
D03*
X316342D02*
D03*
Y67000D02*
D03*
D44*
X297592Y220250D02*
D03*
Y76750D02*
D03*
D45*
Y148500D02*
D03*
D46*
X460592D02*
D03*
D47*
X76500Y26500D02*
D03*
X71500D02*
D03*
X66500D02*
D03*
X61500D02*
D03*
Y46000D02*
D03*
X66500D02*
D03*
X71500D02*
D03*
X76500D02*
D03*
D48*
X69000Y36250D02*
D03*
D49*
X64500Y208500D02*
D03*
D50*
X101500D02*
D03*
X83000D02*
D03*
X120000D02*
D03*
X138500D02*
D03*
X120000Y282500D02*
D03*
X101500D02*
D03*
X83000D02*
D03*
X64500D02*
D03*
D51*
X138500Y227000D02*
D03*
Y245500D02*
D03*
Y264000D02*
D03*
X64500D02*
D03*
Y245500D02*
D03*
Y227000D02*
D03*
D52*
X138500Y282500D02*
D03*
D53*
X143750Y43000D02*
D03*
X127750Y19000D02*
D03*
X131750Y19000D02*
D03*
X135750Y19000D02*
D03*
X139750Y19000D02*
D03*
X143750D02*
D03*
X135750Y43000D02*
D03*
X139750D02*
D03*
X127750Y35000D02*
D03*
X131750D02*
D03*
X135750D02*
D03*
X139750D02*
D03*
X143750D02*
D03*
X127750Y43000D02*
D03*
X127750Y39000D02*
D03*
X131750D02*
D03*
X135750D02*
D03*
X139750D02*
D03*
X143750D02*
D03*
X127750Y23000D02*
D03*
X131750D02*
D03*
X135750D02*
D03*
X131750Y43000D02*
D03*
X139750Y23000D02*
D03*
X143750D02*
D03*
Y31000D02*
D03*
X139750D02*
D03*
X135750D02*
D03*
X131750Y31000D02*
D03*
X127750Y31000D02*
D03*
X143750Y27000D02*
D03*
X139750Y27000D02*
D03*
X135750Y27000D02*
D03*
X131750D02*
D03*
X127750D02*
D03*
X251500Y19000D02*
D03*
X267500Y43000D02*
D03*
X263500D02*
D03*
X259500D02*
D03*
X255500D02*
D03*
X251500D02*
D03*
X259500Y19000D02*
D03*
X255500D02*
D03*
X267500Y27000D02*
D03*
X263500D02*
D03*
X259500D02*
D03*
X255500D02*
D03*
X251500D02*
D03*
X267500Y19000D02*
D03*
Y23000D02*
D03*
X263500D02*
D03*
X259500D02*
D03*
X255500D02*
D03*
X251500D02*
D03*
X267500Y39000D02*
D03*
X263500D02*
D03*
X259500D02*
D03*
X263500Y19000D02*
D03*
X255500Y39000D02*
D03*
X251500D02*
D03*
Y31000D02*
D03*
X255500D02*
D03*
X259500D02*
D03*
X263500D02*
D03*
X267500D02*
D03*
X251500Y35000D02*
D03*
X255500D02*
D03*
X259500D02*
D03*
X263500D02*
D03*
X267500D02*
D03*
D54*
X148000Y88000D02*
D03*
X210500Y74750D02*
D03*
D55*
X162000Y97500D02*
D03*
Y88000D02*
D03*
Y78500D02*
D03*
X134000D02*
D03*
Y88000D02*
D03*
Y97500D02*
D03*
X224500Y65250D02*
D03*
Y74750D02*
D03*
Y84250D02*
D03*
X196500D02*
D03*
Y74750D02*
D03*
Y65250D02*
D03*
D56*
X32500Y242250D02*
D03*
Y246750D02*
D03*
X385750Y56750D02*
D03*
Y52250D02*
D03*
D57*
X175750Y256250D02*
D03*
Y290250D02*
D03*
D58*
X287500Y273250D02*
D03*
D59*
X299500Y273250D02*
D03*
D60*
X187750Y252750D02*
D03*
X192250D02*
D03*
X312000Y50750D02*
D03*
X316500D02*
D03*
X402000Y249000D02*
D03*
X397500D02*
D03*
X312000Y245250D02*
D03*
X316500D02*
D03*
D61*
X387500Y217500D02*
D03*
X367500D02*
D03*
X387500Y182000D02*
D03*
X367500D02*
D03*
D62*
X184500Y197000D02*
D03*
X194000D02*
D03*
X203500D02*
D03*
Y225000D02*
D03*
X194000D02*
D03*
X184500D02*
D03*
D63*
X194000Y211000D02*
D03*
D64*
X400400Y106700D02*
D03*
Y79800D02*
D03*
X368600D02*
D03*
Y106700D02*
D03*
X444150Y213450D02*
D03*
Y186550D02*
D03*
X412350D02*
D03*
Y213450D02*
D03*
X410479Y149450D02*
D03*
Y122550D02*
D03*
X442279D02*
D03*
Y149450D02*
D03*
D65*
X400400Y93250D02*
D03*
X444150Y200000D02*
D03*
X442279Y136000D02*
D03*
D66*
X427500Y88750D02*
D03*
D67*
X431500Y79225D02*
D03*
X427500D02*
D03*
X423500D02*
D03*
Y98275D02*
D03*
X427500D02*
D03*
X431500D02*
D03*
D68*
X417975Y82000D02*
D03*
Y86500D02*
D03*
Y91000D02*
D03*
Y95500D02*
D03*
X437025D02*
D03*
Y91000D02*
D03*
Y86500D02*
D03*
Y82000D02*
D03*
D69*
X411500Y159750D02*
D03*
X416500D02*
D03*
X411500Y168250D02*
D03*
X416500D02*
D03*
X406500D02*
D03*
Y159750D02*
D03*
D70*
X108250Y7750D02*
D03*
X125250D02*
D03*
X163250Y54250D02*
D03*
X146250Y54250D02*
D03*
Y7750D02*
D03*
X163250D02*
D03*
X249000Y54250D02*
D03*
X232000D02*
D03*
X270000Y7750D02*
D03*
X287000D02*
D03*
X270000Y54250D02*
D03*
X287000D02*
D03*
X249000Y7750D02*
D03*
X232000D02*
D03*
X214500Y111250D02*
D03*
X197500D02*
D03*
D71*
X251000Y106750D02*
D03*
X243929Y99679D02*
D03*
D72*
X255980Y93980D02*
D03*
X252020Y90020D02*
D03*
X305700Y200500D02*
D03*
X309660Y204460D02*
D03*
X328994Y193170D02*
D03*
X332954Y197130D02*
D03*
X261355Y88605D02*
D03*
X257395Y84645D02*
D03*
X342204Y161380D02*
D03*
X338244Y157420D02*
D03*
D73*
X344270Y191980D02*
D03*
X348230Y188020D02*
D03*
X263980Y94020D02*
D03*
X260020Y97980D02*
D03*
X344980Y182020D02*
D03*
X341020Y185980D02*
D03*
X271204Y104920D02*
D03*
X267244Y108880D02*
D03*
D135*
X437500Y30500D02*
D03*
Y266500D02*
D03*
D137*
X-25000Y266497D02*
D03*
Y258497D02*
D03*
Y250497D02*
D03*
Y242497D02*
D03*
Y234497D02*
D03*
Y226497D02*
D03*
Y218497D02*
D03*
Y210497D02*
D03*
X-25000Y170497D02*
D03*
Y162497D02*
D03*
Y154497D02*
D03*
Y146497D02*
D03*
Y138497D02*
D03*
Y130497D02*
D03*
Y122497D02*
D03*
Y114497D02*
D03*
Y106497D02*
D03*
Y98497D02*
D03*
Y90497D02*
D03*
Y82497D02*
D03*
Y74497D02*
D03*
X-25000Y66497D02*
D03*
Y58497D02*
D03*
Y50497D02*
D03*
X-25000Y42497D02*
D03*
Y34497D02*
D03*
D138*
X241000Y223500D02*
D03*
X30000Y357300D02*
D03*
X528250Y357300D02*
D03*
Y-60300D02*
D03*
X30050Y-60250D02*
D03*
D148*
X200375Y-0D02*
D03*
X188625D02*
D03*
Y297000D02*
D03*
X200375D02*
D03*
X468500Y154375D02*
D03*
Y142625D02*
D03*
M02*
