G04*
G04 #@! TF.GenerationSoftware,Altium Limited,Altium Designer,19.1.6 (110)*
G04*
G04 Layer_Physical_Order=4*
G04 Layer_Color=6736896*
%FSLAX44Y44*%
%MOMM*%
G71*
G01*
G75*
%ADD11C,0.3000*%
%ADD12C,0.1500*%
%ADD13C,0.1000*%
%ADD14C,0.2000*%
%ADD16C,0.2500*%
%ADD135R,5.5000X5.5000*%
%ADD139C,0.3500*%
%ADD140C,0.4000*%
%ADD141C,0.6000*%
%ADD142C,0.5000*%
%ADD147C,0.1100*%
%ADD149C,0.3500*%
%ADD150C,0.4000*%
%ADD151C,0.5000*%
%ADD152C,1.0000*%
%ADD154C,0.5500*%
%ADD155C,0.9500*%
G36*
X465961Y158692D02*
X464895Y157980D01*
X463790Y156326D01*
X463402Y154375D01*
X463790Y152424D01*
X464895Y150770D01*
X465961Y150058D01*
Y146942D01*
X464895Y146230D01*
X463790Y144576D01*
X463402Y142625D01*
X463790Y140674D01*
X464895Y139020D01*
X465961Y138308D01*
Y2039D01*
X376825D01*
X375966Y3309D01*
X376054Y3750D01*
X375883Y4606D01*
X376313Y5427D01*
X376664Y5876D01*
X387750D01*
X388898Y6352D01*
X400648Y18102D01*
X401124Y19250D01*
Y31077D01*
X404115Y34069D01*
X404121Y34072D01*
X404187Y34097D01*
X404264Y34121D01*
X404357Y34140D01*
X404464Y34156D01*
X404585Y34165D01*
X404752Y34168D01*
X404873Y34221D01*
X405823Y34410D01*
X406733Y35017D01*
X407340Y35927D01*
X407554Y37000D01*
X407340Y38073D01*
X406733Y38983D01*
X405823Y39590D01*
X404750Y39804D01*
X403677Y39590D01*
X402767Y38983D01*
X402160Y38073D01*
X401970Y37123D01*
X401918Y37002D01*
X401915Y36835D01*
X401906Y36713D01*
X401890Y36607D01*
X401870Y36514D01*
X401847Y36437D01*
X401822Y36371D01*
X401819Y36365D01*
X398352Y32898D01*
X397876Y31750D01*
Y19922D01*
X387077Y9124D01*
X371000D01*
X369852Y8648D01*
X368545Y7341D01*
X368540Y7342D01*
X368122Y8720D01*
X373534Y14132D01*
X384250D01*
X386591Y14598D01*
X388576Y15924D01*
X393326Y20674D01*
X394652Y22659D01*
X395118Y25000D01*
Y44000D01*
X394652Y46341D01*
X393326Y48326D01*
X387868Y53784D01*
Y58426D01*
X401074Y71632D01*
X413216D01*
X425174Y59674D01*
X427159Y58348D01*
X429500Y57882D01*
X442099D01*
X444440Y58348D01*
X446424Y59674D01*
X462326Y75576D01*
X463652Y77560D01*
X464118Y79901D01*
Y132250D01*
X463652Y134591D01*
X462326Y136576D01*
X462118Y136784D01*
Y162500D01*
X461652Y164841D01*
X460326Y166826D01*
X456867Y170284D01*
Y178500D01*
X456402Y180841D01*
X455076Y182826D01*
X448368Y189534D01*
Y208460D01*
X447902Y210801D01*
X446576Y212786D01*
X434036Y225326D01*
X432051Y226652D01*
X429710Y227118D01*
X422500D01*
X420159Y226652D01*
X418174Y225326D01*
X414216Y221367D01*
X411324D01*
X408618Y224074D01*
Y229790D01*
X408152Y232131D01*
X406826Y234116D01*
X398368Y242574D01*
Y244500D01*
X397902Y246841D01*
X397319Y247714D01*
X397355Y247960D01*
X397961Y249038D01*
X398573Y249160D01*
X399483Y249767D01*
X400090Y250677D01*
X400304Y251750D01*
X400090Y252823D01*
X399483Y253733D01*
X398573Y254340D01*
X397500Y254554D01*
X396427Y254340D01*
X395517Y253733D01*
X394910Y252823D01*
X394821Y252377D01*
X393462Y251939D01*
X380826Y264576D01*
X378841Y265902D01*
X376500Y266367D01*
X355826D01*
X355147Y267638D01*
X355340Y267927D01*
X355554Y269000D01*
X355340Y270073D01*
X354733Y270983D01*
X353823Y271590D01*
X352750Y271804D01*
X351677Y271590D01*
X350767Y270983D01*
X350160Y270073D01*
X349946Y269000D01*
X350160Y267927D01*
X350353Y267638D01*
X349674Y266367D01*
X299574D01*
X295366Y270576D01*
X293381Y271902D01*
X291040Y272367D01*
X231292D01*
X231211Y272458D01*
X230730Y273638D01*
X231090Y274177D01*
X231304Y275250D01*
X231133Y276106D01*
X231563Y276927D01*
X231914Y277376D01*
X351404D01*
X352552Y277852D01*
X354282Y279582D01*
X355796Y279323D01*
X355932Y278500D01*
X355790Y277642D01*
X355410Y277073D01*
X355196Y276000D01*
X355410Y274927D01*
X356017Y274017D01*
X356927Y273410D01*
X358000Y273196D01*
X359073Y273410D01*
X359982Y274017D01*
X360590Y274927D01*
X360804Y276000D01*
X360590Y277073D01*
X360210Y277642D01*
X360068Y278500D01*
X360210Y279358D01*
X360590Y279927D01*
X360804Y281000D01*
X360590Y282073D01*
X359982Y282983D01*
X359680Y283185D01*
X359418Y284718D01*
X363826Y289126D01*
X401077D01*
X402069Y288135D01*
X402072Y288129D01*
X402097Y288063D01*
X402121Y287985D01*
X402140Y287893D01*
X402156Y287787D01*
X402165Y287665D01*
X402168Y287498D01*
X402221Y287377D01*
X402410Y286427D01*
X403017Y285517D01*
X403927Y284910D01*
X405000Y284696D01*
X406073Y284910D01*
X406983Y285517D01*
X407590Y286427D01*
X407804Y287500D01*
X407590Y288573D01*
X406983Y289483D01*
X406073Y290090D01*
X405123Y290280D01*
X405002Y290332D01*
X404835Y290335D01*
X404713Y290345D01*
X404607Y290360D01*
X404515Y290380D01*
X404436Y290403D01*
X404371Y290428D01*
X404365Y290431D01*
X402898Y291898D01*
X401750Y292374D01*
X363154D01*
X362006Y291898D01*
X350731Y280624D01*
X319471D01*
X319157Y281120D01*
X318988Y281894D01*
X323545Y286451D01*
X346615D01*
X346677Y286410D01*
X347750Y286196D01*
X348823Y286410D01*
X349733Y287017D01*
X350340Y287927D01*
X350554Y289000D01*
X350340Y290073D01*
X349733Y290983D01*
X348823Y291590D01*
X347750Y291804D01*
X346677Y291590D01*
X346615Y291549D01*
X322490D01*
X321514Y291355D01*
X320687Y290802D01*
X315934Y286049D01*
X293556D01*
X291355Y288250D01*
X291340Y288323D01*
X290733Y289233D01*
X289823Y289840D01*
X288750Y290054D01*
X287677Y289840D01*
X286767Y289233D01*
X286160Y288323D01*
X286145Y288250D01*
X284194Y286299D01*
X262197D01*
X261518Y287569D01*
X261590Y287677D01*
X261804Y288750D01*
X261590Y289823D01*
X260983Y290733D01*
X260073Y291340D01*
X259000Y291554D01*
X257927Y291340D01*
X257017Y290733D01*
X256410Y289823D01*
X256196Y288750D01*
X256410Y287677D01*
X256482Y287569D01*
X255803Y286299D01*
X246044D01*
Y287733D01*
X246340Y288177D01*
X246554Y289250D01*
X246340Y290323D01*
X245733Y291233D01*
X244823Y291840D01*
X243750Y292054D01*
X242677Y291840D01*
X241767Y291233D01*
X241160Y290323D01*
X239956Y289815D01*
X239766Y289826D01*
X239752Y289832D01*
X239585Y289835D01*
X239463Y289844D01*
X239357Y289860D01*
X239265Y289879D01*
X239186Y289903D01*
X239121Y289928D01*
X239115Y289931D01*
X237648Y291398D01*
X236500Y291874D01*
X218251D01*
X216434Y293691D01*
X216659Y294669D01*
X216823Y294961D01*
X280070D01*
X280441Y293943D01*
X280490Y293691D01*
X279910Y292823D01*
X279696Y291750D01*
X279910Y290677D01*
X280518Y289767D01*
X281427Y289160D01*
X282500Y288946D01*
X283573Y289160D01*
X284483Y289767D01*
X285091Y290677D01*
X285304Y291750D01*
X285091Y292823D01*
X284511Y293691D01*
X284559Y293943D01*
X284930Y294961D01*
X465961D01*
Y158692D01*
D02*
G37*
G36*
X403538Y289679D02*
X403661Y289587D01*
X403793Y289506D01*
X403935Y289437D01*
X404086Y289378D01*
X404246Y289330D01*
X404416Y289293D01*
X404595Y289268D01*
X404784Y289253D01*
X404982Y289250D01*
X403250Y287518D01*
X403247Y287716D01*
X403232Y287905D01*
X403206Y288084D01*
X403170Y288254D01*
X403122Y288414D01*
X403064Y288565D01*
X402994Y288707D01*
X402913Y288839D01*
X402821Y288962D01*
X402718Y289075D01*
X403425Y289782D01*
X403538Y289679D01*
D02*
G37*
G36*
X238288Y289179D02*
X238411Y289087D01*
X238543Y289006D01*
X238685Y288937D01*
X238836Y288878D01*
X238996Y288830D01*
X239166Y288794D01*
X239345Y288768D01*
X239534Y288753D01*
X239732Y288750D01*
X238000Y287017D01*
X237997Y287216D01*
X237982Y287405D01*
X237957Y287584D01*
X237920Y287754D01*
X237872Y287914D01*
X237813Y288065D01*
X237744Y288207D01*
X237663Y288339D01*
X237571Y288462D01*
X237468Y288575D01*
X238175Y289282D01*
X238288Y289179D01*
D02*
G37*
G36*
X233250Y285775D02*
X233108Y285913D01*
X232964Y286036D01*
X232819Y286145D01*
X232673Y286239D01*
X232526Y286319D01*
X232377Y286384D01*
X232228Y286435D01*
X232077Y286471D01*
X231926Y286493D01*
X231773Y286500D01*
Y287500D01*
X231926Y287507D01*
X232077Y287529D01*
X232228Y287565D01*
X232377Y287616D01*
X232526Y287681D01*
X232673Y287761D01*
X232819Y287855D01*
X232964Y287964D01*
X233108Y288087D01*
X233250Y288225D01*
Y285775D01*
D02*
G37*
G36*
X189000Y285525D02*
X188857Y285663D01*
X188714Y285786D01*
X188569Y285895D01*
X188423Y285989D01*
X188276Y286069D01*
X188127Y286134D01*
X187978Y286185D01*
X187827Y286221D01*
X187676Y286243D01*
X187523Y286250D01*
Y287250D01*
X187676Y287257D01*
X187827Y287279D01*
X187978Y287315D01*
X188127Y287366D01*
X188276Y287431D01*
X188423Y287511D01*
X188569Y287605D01*
X188714Y287714D01*
X188857Y287837D01*
X189000Y287975D01*
Y285525D01*
D02*
G37*
G36*
X60907Y287297D02*
X60567Y285841D01*
X60102Y285648D01*
X59328Y284874D01*
X18892D01*
X18366Y286144D01*
X21349Y289126D01*
X59078D01*
X60907Y287297D01*
D02*
G37*
G36*
X71250Y283275D02*
X71108Y283413D01*
X70964Y283536D01*
X70819Y283645D01*
X70673Y283739D01*
X70526Y283819D01*
X70377Y283884D01*
X70228Y283935D01*
X70077Y283971D01*
X69926Y283993D01*
X69773Y284000D01*
Y285000D01*
X69926Y285007D01*
X70077Y285029D01*
X70228Y285065D01*
X70377Y285116D01*
X70526Y285181D01*
X70673Y285261D01*
X70819Y285355D01*
X70964Y285464D01*
X71108Y285587D01*
X71250Y285725D01*
Y283275D01*
D02*
G37*
G36*
X147483Y283500D02*
X147284Y283497D01*
X147095Y283482D01*
X146916Y283456D01*
X146746Y283420D01*
X146586Y283372D01*
X146435Y283314D01*
X146293Y283244D01*
X146161Y283163D01*
X146038Y283071D01*
X145925Y282968D01*
X145218Y283675D01*
X145321Y283788D01*
X145413Y283911D01*
X145494Y284043D01*
X145563Y284185D01*
X145622Y284336D01*
X145670Y284496D01*
X145707Y284666D01*
X145732Y284845D01*
X145747Y285034D01*
X145750Y285233D01*
X147483Y283500D01*
D02*
G37*
G36*
X132834Y283870D02*
X132599Y282398D01*
X131741Y281540D01*
X130363Y281958D01*
X130340Y282073D01*
X129733Y282983D01*
X128823Y283590D01*
X127750Y283804D01*
X126677Y283590D01*
X125767Y282983D01*
X125160Y282073D01*
X124946Y281000D01*
X125160Y279927D01*
X125767Y279017D01*
X126327Y278644D01*
X125941Y277374D01*
X117235D01*
X114460Y280148D01*
X113313Y280624D01*
X112882D01*
X111983Y281894D01*
X112054Y282250D01*
X111840Y283323D01*
X111233Y284233D01*
X110323Y284840D01*
X109250Y285054D01*
X108177Y284840D01*
X107371Y284302D01*
X107248Y284254D01*
X107129Y284138D01*
X107036Y284059D01*
X106950Y283994D01*
X106871Y283943D01*
X106799Y283904D01*
X106735Y283876D01*
X106728Y283874D01*
X97750D01*
X96602Y283398D01*
X96077Y282874D01*
X76132D01*
X75233Y284144D01*
X75304Y284500D01*
X75090Y285573D01*
X74483Y286483D01*
X73573Y287090D01*
X73493Y287106D01*
X73618Y288376D01*
X128328D01*
X132834Y283870D01*
D02*
G37*
G36*
X108000Y281025D02*
X107858Y281163D01*
X107714Y281286D01*
X107569Y281395D01*
X107423Y281489D01*
X107276Y281569D01*
X107127Y281634D01*
X106978Y281685D01*
X106827Y281721D01*
X106676Y281743D01*
X106523Y281750D01*
Y282750D01*
X106676Y282757D01*
X106827Y282779D01*
X106978Y282815D01*
X107127Y282866D01*
X107276Y282931D01*
X107423Y283011D01*
X107569Y283105D01*
X107714Y283214D01*
X107858Y283337D01*
X108000Y283475D01*
Y281025D01*
D02*
G37*
G36*
X3532Y277575D02*
X3429Y277462D01*
X3337Y277339D01*
X3256Y277207D01*
X3187Y277065D01*
X3128Y276914D01*
X3080Y276754D01*
X3043Y276584D01*
X3018Y276405D01*
X3003Y276216D01*
X3000Y276017D01*
X1268Y277750D01*
X1466Y277753D01*
X1655Y277768D01*
X1834Y277794D01*
X2004Y277830D01*
X2164Y277878D01*
X2315Y277937D01*
X2457Y278006D01*
X2589Y278087D01*
X2712Y278179D01*
X2825Y278282D01*
X3532Y277575D01*
D02*
G37*
G36*
X220937Y276927D02*
X221367Y276106D01*
X221196Y275250D01*
X221410Y274177D01*
X221770Y273638D01*
X221289Y272458D01*
X221207Y272367D01*
X184393D01*
X182052Y271902D01*
X180068Y270576D01*
X178818Y269326D01*
X178092Y268239D01*
X172854Y263002D01*
X171584Y261100D01*
X171137Y258857D01*
Y255532D01*
X170882Y254250D01*
Y246034D01*
X162894Y238045D01*
X161624Y238571D01*
Y257000D01*
X161148Y258148D01*
X156648Y262648D01*
X156006Y262914D01*
X155593Y264297D01*
X165923Y274626D01*
X173500D01*
X174648Y275102D01*
X175926Y276380D01*
X184831D01*
X185609Y275602D01*
X186757Y275126D01*
X206000D01*
X207148Y275602D01*
X208923Y277376D01*
X220586D01*
X220937Y276927D01*
D02*
G37*
G36*
X-2216Y276264D02*
X-1510Y275781D01*
X-1340Y274927D01*
X-1124Y274603D01*
X-1123Y274601D01*
X-967Y274204D01*
X-988Y273866D01*
X-992Y273842D01*
X-1199Y273416D01*
X-1491Y273041D01*
X-10083D01*
X-11231Y272565D01*
X-22898Y260898D01*
X-23374Y259750D01*
Y209671D01*
X-22898Y208524D01*
X-14226Y199852D01*
X-13079Y199376D01*
X6077D01*
X9837Y195617D01*
Y192443D01*
X8567Y192102D01*
X8113Y192890D01*
X7937Y193090D01*
X7789Y193312D01*
X6312Y194789D01*
X6090Y194937D01*
X5890Y195113D01*
X4081Y196157D01*
X3828Y196243D01*
X3589Y196361D01*
X1572Y196901D01*
X1372Y196914D01*
X1178Y196966D01*
X133Y197035D01*
X66Y197026D01*
X0Y197039D01*
X-35750D01*
Y274961D01*
X-8000Y274961D01*
X-7950Y274971D01*
X-7900Y274963D01*
X-7116Y275002D01*
X-6969Y275039D01*
X-6818D01*
X-5280Y275345D01*
X-5094Y275421D01*
X-4897Y275461D01*
X-3449Y276061D01*
X-3282Y276172D01*
X-3096Y276249D01*
X-2754Y276478D01*
X-2216Y276264D01*
D02*
G37*
G36*
X71038Y277054D02*
X71161Y276962D01*
X71293Y276881D01*
X71435Y276811D01*
X71586Y276753D01*
X71746Y276705D01*
X71916Y276668D01*
X72095Y276643D01*
X72284Y276628D01*
X72483Y276625D01*
X70750Y274892D01*
X70746Y275091D01*
X70732Y275280D01*
X70706Y275459D01*
X70670Y275629D01*
X70622Y275789D01*
X70563Y275940D01*
X70494Y276082D01*
X70413Y276214D01*
X70321Y276336D01*
X70218Y276450D01*
X70925Y277157D01*
X71038Y277054D01*
D02*
G37*
G36*
X146538Y276679D02*
X146661Y276587D01*
X146793Y276506D01*
X146935Y276437D01*
X147086Y276378D01*
X147246Y276330D01*
X147416Y276294D01*
X147595Y276268D01*
X147784Y276253D01*
X147983Y276250D01*
X146250Y274517D01*
X146247Y274716D01*
X146232Y274905D01*
X146207Y275084D01*
X146170Y275254D01*
X146122Y275414D01*
X146063Y275565D01*
X145994Y275707D01*
X145913Y275839D01*
X145821Y275962D01*
X145718Y276075D01*
X146425Y276782D01*
X146538Y276679D01*
D02*
G37*
G36*
X104032Y274825D02*
X103929Y274712D01*
X103837Y274589D01*
X103756Y274457D01*
X103687Y274315D01*
X103628Y274164D01*
X103580Y274004D01*
X103544Y273834D01*
X103518Y273655D01*
X103503Y273466D01*
X103500Y273267D01*
X101767Y275000D01*
X101966Y275003D01*
X102155Y275018D01*
X102334Y275044D01*
X102504Y275080D01*
X102664Y275128D01*
X102815Y275187D01*
X102957Y275256D01*
X103089Y275337D01*
X103212Y275429D01*
X103325Y275532D01*
X104032Y274825D01*
D02*
G37*
G36*
X95907Y269297D02*
X95421Y268124D01*
X93404D01*
X92256Y267648D01*
X90481Y265874D01*
X42000D01*
X40852Y265398D01*
X32078Y256624D01*
X25750D01*
X24602Y256148D01*
X17797Y249343D01*
X16624Y249829D01*
Y258328D01*
X28865Y270569D01*
X28871Y270572D01*
X28937Y270597D01*
X29014Y270620D01*
X29107Y270640D01*
X29214Y270656D01*
X29335Y270665D01*
X29502Y270668D01*
X29623Y270721D01*
X30573Y270910D01*
X31483Y271517D01*
X32090Y272427D01*
X32304Y273500D01*
X32134Y274356D01*
X32563Y275177D01*
X32914Y275626D01*
X64203D01*
X64276Y275547D01*
X64766Y274356D01*
X64410Y273823D01*
X64196Y272750D01*
X64410Y271677D01*
X65017Y270767D01*
X65927Y270160D01*
X67000Y269946D01*
X68073Y270160D01*
X68983Y270767D01*
X69590Y271677D01*
X69665Y272051D01*
X69671Y272057D01*
X71041Y272542D01*
X71427Y272285D01*
X72500Y272071D01*
X73573Y272285D01*
X74483Y272892D01*
X75090Y273802D01*
X75304Y274875D01*
X75090Y275948D01*
X74817Y276356D01*
X75444Y277626D01*
X87577D01*
X95907Y269297D01*
D02*
G37*
G36*
X3625Y272992D02*
X3522Y272879D01*
X3430Y272756D01*
X3350Y272624D01*
X3280Y272482D01*
X3221Y272331D01*
X3174Y272171D01*
X3137Y272001D01*
X3111Y271822D01*
X3097Y271633D01*
X3093Y271434D01*
X1361Y273167D01*
X1559Y273170D01*
X1748Y273185D01*
X1927Y273211D01*
X2097Y273247D01*
X2258Y273295D01*
X2409Y273354D01*
X2550Y273423D01*
X2682Y273504D01*
X2805Y273596D01*
X2918Y273699D01*
X3625Y272992D01*
D02*
G37*
G36*
X29483Y271750D02*
X29284Y271747D01*
X29095Y271732D01*
X28916Y271707D01*
X28746Y271670D01*
X28586Y271622D01*
X28435Y271563D01*
X28293Y271494D01*
X28161Y271413D01*
X28038Y271321D01*
X27925Y271218D01*
X27218Y271925D01*
X27321Y272038D01*
X27413Y272161D01*
X27494Y272293D01*
X27563Y272435D01*
X27622Y272586D01*
X27670Y272746D01*
X27706Y272916D01*
X27732Y273095D01*
X27747Y273284D01*
X27750Y273482D01*
X29483Y271750D01*
D02*
G37*
G36*
X94Y270192D02*
X-49Y270330D01*
X-193Y270453D01*
X-338Y270562D01*
X-484Y270656D01*
X-631Y270736D01*
X-779Y270801D01*
X-929Y270852D01*
X-1079Y270888D01*
X-1231Y270910D01*
X-1384Y270917D01*
Y271917D01*
X-1231Y271924D01*
X-1079Y271946D01*
X-929Y271982D01*
X-779Y272033D01*
X-631Y272098D01*
X-484Y272178D01*
X-338Y272272D01*
X-193Y272381D01*
X-49Y272504D01*
X94Y272642D01*
Y270192D01*
D02*
G37*
G36*
X106016Y263703D02*
X103448Y261135D01*
X102895Y260308D01*
X102701Y259333D01*
Y258056D01*
X102250Y257605D01*
X102177Y257590D01*
X102115Y257549D01*
X46912D01*
X46765Y257635D01*
X46001Y258617D01*
X45962Y258787D01*
X46054Y259250D01*
X45840Y260323D01*
X45233Y261233D01*
X45047Y261356D01*
X45433Y262626D01*
X91154D01*
X91508Y262437D01*
X91660Y261677D01*
X92267Y260767D01*
X93177Y260160D01*
X94250Y259946D01*
X95323Y260160D01*
X96233Y260767D01*
X96840Y261677D01*
X97054Y262750D01*
X96883Y263606D01*
X97313Y264427D01*
X97664Y264876D01*
X105529D01*
X106016Y263703D01*
D02*
G37*
G36*
X127481Y263431D02*
X112174Y248124D01*
X100422D01*
X99274Y247648D01*
X98523Y246897D01*
X97279Y246973D01*
X96506Y248009D01*
X96554Y248250D01*
X96340Y249323D01*
X95733Y250233D01*
X94823Y250840D01*
X93750Y251054D01*
X92677Y250840D01*
X91767Y250233D01*
X91160Y249323D01*
X90946Y248250D01*
X91017Y247894D01*
X90958Y247768D01*
X89864Y247183D01*
X87648Y249398D01*
X86500Y249874D01*
X52422D01*
X51273Y249398D01*
X41602Y239727D01*
X41126Y238578D01*
Y222648D01*
X39953Y222162D01*
X31299Y230816D01*
Y233228D01*
X31105Y234203D01*
X30552Y235030D01*
X25030Y240553D01*
X25053Y241948D01*
X29556Y246451D01*
X43000D01*
X43976Y246645D01*
X44802Y247198D01*
X47802Y250198D01*
X48355Y251025D01*
X48549Y252000D01*
Y252451D01*
X102115D01*
X102177Y252410D01*
X103250Y252196D01*
X104323Y252410D01*
X105233Y253017D01*
X105841Y253927D01*
X105855Y254000D01*
X107052Y255198D01*
X107605Y256024D01*
X107799Y257000D01*
Y258277D01*
X110711Y261189D01*
X112144Y260826D01*
X112517Y260267D01*
X113427Y259660D01*
X114500Y259446D01*
X115573Y259660D01*
X116483Y260267D01*
X117090Y261177D01*
X117304Y262250D01*
X117090Y263323D01*
X117018Y263431D01*
X117697Y264701D01*
X126955D01*
X127481Y263431D01*
D02*
G37*
G36*
X41946Y258083D02*
X41824Y258210D01*
X41698Y258323D01*
X41567Y258423D01*
X41432Y258510D01*
X41292Y258583D01*
X41147Y258643D01*
X40998Y258690D01*
X40844Y258723D01*
X40686Y258743D01*
X40523Y258750D01*
Y259750D01*
X40686Y259757D01*
X40844Y259777D01*
X40998Y259810D01*
X41147Y259857D01*
X41292Y259917D01*
X41432Y259990D01*
X41567Y260077D01*
X41698Y260177D01*
X41824Y260290D01*
X41946Y260417D01*
Y258083D01*
D02*
G37*
G36*
X3032Y259075D02*
X2929Y258962D01*
X2837Y258839D01*
X2756Y258707D01*
X2687Y258565D01*
X2628Y258414D01*
X2580Y258254D01*
X2544Y258084D01*
X2518Y257905D01*
X2503Y257716D01*
X2500Y257518D01*
X768Y259250D01*
X966Y259253D01*
X1155Y259268D01*
X1334Y259293D01*
X1504Y259330D01*
X1664Y259378D01*
X1815Y259436D01*
X1957Y259506D01*
X2089Y259587D01*
X2212Y259679D01*
X2325Y259782D01*
X3032Y259075D01*
D02*
G37*
G36*
X153333Y254258D02*
X153138Y254272D01*
X152766Y254271D01*
X152590Y254256D01*
X152420Y254231D01*
X152256Y254197D01*
X152099Y254152D01*
X151948Y254098D01*
X151804Y254034D01*
X151666Y253961D01*
X151010Y254738D01*
X151138Y254819D01*
X151253Y254913D01*
X151357Y255020D01*
X151450Y255140D01*
X151530Y255273D01*
X151599Y255419D01*
X151656Y255578D01*
X151701Y255749D01*
X151734Y255934D01*
X151755Y256132D01*
X153333Y254258D01*
D02*
G37*
G36*
X259733Y254500D02*
X259534Y254497D01*
X259345Y254482D01*
X259166Y254457D01*
X258996Y254420D01*
X258836Y254372D01*
X258685Y254314D01*
X258543Y254244D01*
X258411Y254163D01*
X258288Y254071D01*
X258175Y253968D01*
X257468Y254675D01*
X257571Y254788D01*
X257663Y254911D01*
X257744Y255043D01*
X257813Y255185D01*
X257872Y255336D01*
X257920Y255496D01*
X257957Y255666D01*
X257982Y255845D01*
X257997Y256034D01*
X258000Y256232D01*
X259733Y254500D01*
D02*
G37*
G36*
X11376Y259575D02*
Y245867D01*
X10106Y245742D01*
X10090Y245823D01*
X9482Y246733D01*
X8573Y247340D01*
X7500Y247554D01*
X6427Y247340D01*
X5517Y246733D01*
X4909Y245823D01*
X4696Y244750D01*
X4909Y243677D01*
X5517Y242767D01*
X6427Y242160D01*
X7500Y241946D01*
X8573Y242160D01*
X9482Y242767D01*
X10090Y243677D01*
X10106Y243758D01*
X11376Y243633D01*
Y236250D01*
X11852Y235102D01*
X18126Y228827D01*
Y225750D01*
X18602Y224602D01*
X30376Y212827D01*
Y206343D01*
X30852Y205195D01*
X32831Y203216D01*
X32427Y201840D01*
X31517Y201233D01*
X30910Y200323D01*
X30721Y199373D01*
X30668Y199252D01*
X30665Y199085D01*
X30656Y198963D01*
X30640Y198857D01*
X30621Y198764D01*
X30597Y198687D01*
X30572Y198621D01*
X30569Y198615D01*
X27297Y195343D01*
X26124Y195829D01*
Y206096D01*
X25648Y207244D01*
X16994Y215898D01*
X15846Y216374D01*
X-1828D01*
X-3376Y217922D01*
Y228374D01*
X1898Y233648D01*
X2374Y234796D01*
Y249693D01*
X3061Y250038D01*
X3644Y250183D01*
X4427Y249660D01*
X5500Y249446D01*
X6573Y249660D01*
X7483Y250267D01*
X8090Y251177D01*
X8304Y252250D01*
X8090Y253323D01*
X7483Y254233D01*
X6696Y254758D01*
X6539Y255027D01*
X6327Y256184D01*
X10203Y260061D01*
X11376Y259575D01*
D02*
G37*
G36*
X152750Y247525D02*
X152608Y247663D01*
X152464Y247786D01*
X152319Y247895D01*
X152173Y247989D01*
X152026Y248069D01*
X151877Y248134D01*
X151728Y248185D01*
X151578Y248221D01*
X151426Y248243D01*
X151273Y248250D01*
Y249250D01*
X151426Y249257D01*
X151578Y249279D01*
X151728Y249315D01*
X151877Y249366D01*
X152026Y249431D01*
X152173Y249511D01*
X152319Y249605D01*
X152464Y249714D01*
X152608Y249837D01*
X152750Y249975D01*
Y247525D01*
D02*
G37*
G36*
X87774Y241852D02*
X88922Y241376D01*
X99750D01*
X100898Y241852D01*
X101923Y242876D01*
X113069D01*
X113152Y241606D01*
X112356Y241502D01*
X110009Y240529D01*
X108108Y239071D01*
X107965Y239012D01*
X107700Y238746D01*
X106370Y239066D01*
X106297Y239139D01*
X105733Y239983D01*
X104823Y240590D01*
X103750Y240804D01*
X102677Y240590D01*
X101768Y239983D01*
X101160Y239073D01*
X100946Y238000D01*
X101122Y237116D01*
X100697Y236450D01*
X100256Y235994D01*
X99301Y236184D01*
X97694Y237258D01*
X97627Y237419D01*
X97624Y237421D01*
X97623Y237423D01*
X97443Y237498D01*
X95829Y238736D01*
X93783Y239583D01*
X91767Y239849D01*
X91586Y239924D01*
X85472D01*
X85465Y239926D01*
X85401Y239954D01*
X85329Y239993D01*
X85250Y240044D01*
X85164Y240109D01*
X85071Y240188D01*
X84951Y240304D01*
X84829Y240352D01*
X84023Y240890D01*
X82950Y241104D01*
X81877Y240890D01*
X80967Y240283D01*
X80360Y239373D01*
X80146Y238300D01*
X80326Y237394D01*
X80187Y236987D01*
X79569Y236124D01*
X77846D01*
X77703Y236064D01*
X75374Y236371D01*
X73071Y237325D01*
X71207Y238755D01*
X71148Y238898D01*
X71095Y238920D01*
X68506Y240907D01*
X65442Y242176D01*
X62207Y242602D01*
X62154Y242624D01*
X58000D01*
X57763Y242525D01*
X56289Y242331D01*
X54695Y241671D01*
X54266Y241342D01*
X53288Y240674D01*
X53283Y240672D01*
X53279Y240668D01*
X53279Y240668D01*
X50244Y237633D01*
X50242Y237630D01*
X50239Y237628D01*
X50222Y237587D01*
X48155Y234893D01*
X47644Y233659D01*
X46374Y233912D01*
Y237078D01*
X53923Y244626D01*
X84999D01*
X87774Y241852D01*
D02*
G37*
G36*
X84342Y239387D02*
X84486Y239264D01*
X84631Y239155D01*
X84777Y239061D01*
X84924Y238981D01*
X85073Y238916D01*
X85222Y238865D01*
X85373Y238829D01*
X85524Y238807D01*
X85677Y238800D01*
Y237800D01*
X85524Y237793D01*
X85373Y237771D01*
X85222Y237735D01*
X85073Y237684D01*
X84924Y237619D01*
X84777Y237539D01*
X84631Y237445D01*
X84486Y237336D01*
X84342Y237213D01*
X84200Y237075D01*
Y239525D01*
X84342Y239387D01*
D02*
G37*
G36*
X292714Y255924D02*
X294699Y254598D01*
X297040Y254132D01*
X340039D01*
X340818Y252862D01*
X340696Y252250D01*
X340910Y251177D01*
X341517Y250267D01*
X342427Y249660D01*
X343500Y249446D01*
X344573Y249660D01*
X345483Y250267D01*
X346091Y251177D01*
X346304Y252250D01*
X346182Y252862D01*
X346961Y254132D01*
X354872D01*
X355768Y252862D01*
X355696Y252500D01*
X355910Y251427D01*
X356517Y250517D01*
X357427Y249910D01*
X358500Y249696D01*
X359573Y249910D01*
X360483Y250517D01*
X361090Y251427D01*
X361304Y252500D01*
X361232Y252862D01*
X362128Y254132D01*
X373966D01*
X386133Y241966D01*
Y240040D01*
X386598Y237699D01*
X387924Y235714D01*
X390841Y232797D01*
X390355Y231624D01*
X373923D01*
X358148Y247398D01*
X357000Y247874D01*
X318673D01*
X316898Y249648D01*
X315750Y250124D01*
X290846D01*
X289732Y249662D01*
X289481Y249762D01*
X288785Y250129D01*
X288546Y250292D01*
X288475Y250645D01*
X288323Y251910D01*
X289233Y252518D01*
X289840Y253427D01*
X290054Y254500D01*
X289840Y255573D01*
X289233Y256483D01*
X288323Y257091D01*
X287250Y257304D01*
X286177Y257091D01*
X285267Y256483D01*
X284660Y255573D01*
X284446Y254500D01*
X284525Y254105D01*
X284677Y252840D01*
X283767Y252233D01*
X283160Y251323D01*
X282946Y250250D01*
X283160Y249177D01*
X283192Y249129D01*
X282633Y247822D01*
X281897Y247702D01*
X281830Y247716D01*
X270587Y258959D01*
X271073Y260132D01*
X288506D01*
X292714Y255924D01*
D02*
G37*
G36*
X144000Y247126D02*
X145392D01*
X145778Y245856D01*
X145517Y245683D01*
X144910Y244773D01*
X144696Y243700D01*
X144910Y242627D01*
X145517Y241717D01*
X146427Y241110D01*
X147500Y240896D01*
X148573Y241110D01*
X149483Y241717D01*
X150090Y242627D01*
X150304Y243700D01*
X150090Y244773D01*
X149483Y245683D01*
X149222Y245856D01*
X149608Y247126D01*
X151478D01*
X151485Y247124D01*
X151549Y247096D01*
X151621Y247057D01*
X151700Y247006D01*
X151786Y246941D01*
X151879Y246862D01*
X151999Y246746D01*
X152121Y246698D01*
X152927Y246159D01*
X153455Y246054D01*
X154120Y244892D01*
X154139Y244722D01*
X153946Y243750D01*
X154160Y242677D01*
X154767Y241767D01*
X155677Y241160D01*
X156750Y240946D01*
X157106Y241017D01*
X158376Y240118D01*
Y238423D01*
X151064Y231110D01*
X149794Y231636D01*
Y233250D01*
X149619Y234128D01*
X149122Y234872D01*
X142372Y241622D01*
X141628Y242120D01*
X140750Y242294D01*
X133000D01*
X133000Y242294D01*
X132122Y242120D01*
X131378Y241622D01*
X131378Y241622D01*
X113550Y223794D01*
X102464D01*
X102190Y224991D01*
X104463Y225932D01*
X106294Y227337D01*
X106446Y227400D01*
X107393Y228347D01*
X107447Y228477D01*
X109146Y229781D01*
X111246Y230651D01*
X113370Y230930D01*
X113500Y230876D01*
X115629D01*
X115864Y230974D01*
X117357Y231170D01*
X118968Y231838D01*
X120163Y232754D01*
X120398Y232852D01*
X127188Y239641D01*
X128077Y240531D01*
X128077Y240531D01*
X128085Y240539D01*
X128086Y240540D01*
X128086Y240541D01*
X128992Y241417D01*
X131431Y243419D01*
X135342Y245510D01*
X139586Y246797D01*
X143794Y247212D01*
X144000Y247126D01*
D02*
G37*
G36*
X280352Y244602D02*
X281500Y244126D01*
X288096D01*
X289244Y244602D01*
X289465Y244822D01*
X290819Y244381D01*
X290910Y243927D01*
X291518Y243018D01*
X292427Y242410D01*
X293500Y242196D01*
X294573Y242410D01*
X295142Y242790D01*
X296000Y242932D01*
X296858Y242790D01*
X297427Y242410D01*
X298500Y242196D01*
X299573Y242410D01*
X300483Y243017D01*
X301090Y243927D01*
X301304Y245000D01*
X301183Y245606D01*
X301965Y246876D01*
X315077D01*
X316852Y245102D01*
X318000Y244626D01*
X356328D01*
X372102Y228852D01*
X373250Y228376D01*
X391577D01*
X393808Y226146D01*
X393714Y225644D01*
X393670Y225604D01*
X392331Y225157D01*
X390841Y226152D01*
X388500Y226618D01*
X386159Y226152D01*
X384174Y224826D01*
X382848Y222841D01*
X382383Y220500D01*
Y213617D01*
X377784D01*
X368368Y223034D01*
Y225500D01*
X367902Y227841D01*
X366576Y229826D01*
X355076Y241326D01*
X353091Y242652D01*
X350750Y243118D01*
X312250D01*
X309909Y242652D01*
X307924Y241326D01*
X306933Y240334D01*
X305805Y240535D01*
X305504Y240702D01*
X304983Y241483D01*
X304073Y242090D01*
X303000Y242304D01*
X301927Y242090D01*
X301017Y241483D01*
X300410Y240573D01*
X300196Y239500D01*
X300410Y238427D01*
X300603Y238137D01*
X299924Y236868D01*
X296284D01*
X295576Y237576D01*
X293591Y238902D01*
X291250Y239368D01*
X255034D01*
X246795Y247606D01*
X247321Y248876D01*
X254000D01*
X255148Y249352D01*
X259115Y253319D01*
X259121Y253322D01*
X259187Y253347D01*
X259265Y253370D01*
X259357Y253390D01*
X259464Y253406D01*
X259585Y253415D01*
X259752Y253418D01*
X259873Y253471D01*
X260823Y253660D01*
X261733Y254267D01*
X262341Y255177D01*
X262554Y256250D01*
X262483Y256606D01*
X263382Y257876D01*
X267078D01*
X280352Y244602D01*
D02*
G37*
G36*
X48507Y226074D02*
X48529Y225923D01*
X48565Y225772D01*
X48616Y225623D01*
X48681Y225474D01*
X48761Y225327D01*
X48855Y225181D01*
X48964Y225036D01*
X49087Y224892D01*
X49225Y224750D01*
X46775D01*
X46913Y224892D01*
X47036Y225036D01*
X47145Y225181D01*
X47239Y225327D01*
X47319Y225474D01*
X47384Y225623D01*
X47435Y225772D01*
X47471Y225923D01*
X47493Y226074D01*
X47500Y226227D01*
X48500D01*
X48507Y226074D01*
D02*
G37*
G36*
X255209Y230275D02*
X254850Y229659D01*
X254534Y228974D01*
X254259Y228221D01*
X254027Y227398D01*
X253838Y226506D01*
X253690Y225546D01*
X253521Y223418D01*
X253500Y222250D01*
X250000D01*
X249979Y223418D01*
X249810Y225546D01*
X249662Y226506D01*
X249473Y227398D01*
X249241Y228221D01*
X248966Y228974D01*
X248650Y229659D01*
X248291Y230275D01*
X247891Y230821D01*
X255609D01*
X255209Y230275D01*
D02*
G37*
G36*
X338483Y222000D02*
X338284Y221997D01*
X338095Y221982D01*
X337916Y221957D01*
X337746Y221920D01*
X337586Y221872D01*
X337435Y221814D01*
X337293Y221744D01*
X337161Y221663D01*
X337038Y221571D01*
X336925Y221468D01*
X336218Y222175D01*
X336321Y222288D01*
X336413Y222411D01*
X336494Y222543D01*
X336563Y222685D01*
X336622Y222836D01*
X336670Y222996D01*
X336707Y223166D01*
X336732Y223345D01*
X336747Y223534D01*
X336750Y223732D01*
X338483Y222000D01*
D02*
G37*
G36*
X344087Y222358D02*
X343964Y222214D01*
X343855Y222069D01*
X343761Y221923D01*
X343681Y221776D01*
X343616Y221627D01*
X343565Y221478D01*
X343529Y221327D01*
X343507Y221176D01*
X343500Y221023D01*
X342500D01*
X342493Y221176D01*
X342471Y221327D01*
X342435Y221478D01*
X342384Y221627D01*
X342319Y221776D01*
X342239Y221923D01*
X342145Y222069D01*
X342036Y222214D01*
X341913Y222358D01*
X341775Y222500D01*
X344225D01*
X344087Y222358D01*
D02*
G37*
G36*
X360217Y215462D02*
X359922Y215659D01*
X359452Y215836D01*
X358809Y215991D01*
X357990Y216126D01*
X355831Y216334D01*
X351284Y216490D01*
X349420Y216500D01*
Y221500D01*
X351284Y221510D01*
X358809Y222008D01*
X359452Y222164D01*
X359922Y222341D01*
X360217Y222538D01*
Y215462D01*
D02*
G37*
G36*
X182876Y239209D02*
Y237500D01*
X183352Y236352D01*
X185376Y234328D01*
Y229562D01*
X168006Y212191D01*
X166832Y212677D01*
X166832Y217323D01*
X166868Y217500D01*
Y224716D01*
X181326Y239174D01*
X181606Y239594D01*
X182876Y239209D01*
D02*
G37*
G36*
X157750Y226000D02*
X165750Y218000D01*
X165750Y210500D01*
X162500Y207250D01*
X155000Y207250D01*
X153250Y209000D01*
X153250Y222250D01*
X157000Y226000D01*
X157750Y226000D01*
D02*
G37*
G36*
X21407Y280453D02*
X1385Y260431D01*
X1379Y260428D01*
X1313Y260403D01*
X1235Y260380D01*
X1143Y260360D01*
X1037Y260344D01*
X915Y260335D01*
X748Y260332D01*
X627Y260279D01*
X-323Y260090D01*
X-1233Y259483D01*
X-1840Y258573D01*
X-2054Y257500D01*
X-1840Y256427D01*
X-1233Y255517D01*
X-931Y255315D01*
X-459Y254195D01*
X-560Y253662D01*
X-874Y252904D01*
Y235469D01*
X-6148Y230194D01*
X-6624Y229046D01*
Y217250D01*
X-6148Y216102D01*
X-3648Y213602D01*
X-2500Y213126D01*
X15174D01*
X18582Y209718D01*
X18319Y208185D01*
X18017Y207983D01*
X17410Y207073D01*
X17196Y206000D01*
X17226Y205853D01*
X16055Y205227D01*
X11509Y209773D01*
X10351Y210547D01*
X8985Y210819D01*
X-9022D01*
X-12181Y213978D01*
Y255266D01*
X-8769Y258679D01*
X-6000D01*
X-4634Y258950D01*
X-3477Y259724D01*
X-2703Y260882D01*
X-2431Y262247D01*
X-2703Y263613D01*
X-3477Y264771D01*
X-3979Y265106D01*
X-3594Y266376D01*
X2750D01*
X3898Y266852D01*
X18672Y281626D01*
X20921D01*
X21407Y280453D01*
D02*
G37*
G36*
X21753Y205784D02*
X21768Y205595D01*
X21793Y205416D01*
X21830Y205246D01*
X21878Y205086D01*
X21937Y204935D01*
X22006Y204793D01*
X22087Y204661D01*
X22179Y204538D01*
X22282Y204425D01*
X21575Y203718D01*
X21462Y203821D01*
X21339Y203913D01*
X21207Y203994D01*
X21065Y204063D01*
X20914Y204122D01*
X20754Y204170D01*
X20584Y204207D01*
X20405Y204232D01*
X20216Y204247D01*
X20017Y204250D01*
X21750Y205982D01*
X21753Y205784D01*
D02*
G37*
G36*
X233158Y256606D02*
X233077Y256590D01*
X232167Y255982D01*
X231560Y255073D01*
X231346Y254000D01*
X231467Y253394D01*
X230685Y252124D01*
X214828D01*
X213680Y251648D01*
X202102Y240070D01*
X201626Y238922D01*
Y211000D01*
X202102Y209852D01*
X203626Y208328D01*
Y180598D01*
X202453Y180112D01*
X197833Y184733D01*
X196923Y185340D01*
X195850Y185554D01*
X154452D01*
X154086Y186500D01*
X154020Y186824D01*
X154590Y187677D01*
X154610Y187776D01*
X154881Y188747D01*
X155990Y188698D01*
X156000Y188696D01*
X157073Y188910D01*
X157983Y189517D01*
X158590Y190427D01*
X158804Y191500D01*
X158590Y192573D01*
X157983Y193483D01*
X157073Y194090D01*
X156000Y194304D01*
X154927Y194090D01*
X154017Y193483D01*
X153410Y192573D01*
X153390Y192474D01*
X153119Y191503D01*
X152010Y191552D01*
X152000Y191554D01*
X150927Y191340D01*
X150017Y190733D01*
X149410Y189823D01*
X149196Y188750D01*
X149404Y187703D01*
X149409Y187675D01*
X148793Y186313D01*
X148458Y186257D01*
X145304Y189411D01*
Y202656D01*
X146574Y203182D01*
X150628Y199128D01*
X151372Y198631D01*
X152250Y198456D01*
X162750D01*
X163628Y198631D01*
X164372Y199128D01*
X194122Y228878D01*
X194619Y229622D01*
X194794Y230500D01*
Y238983D01*
X195090Y239427D01*
X195304Y240500D01*
X195090Y241573D01*
X194483Y242483D01*
X193573Y243090D01*
X192500Y243304D01*
X191427Y243090D01*
X190517Y242483D01*
X190443Y242372D01*
X189073Y241840D01*
X188000Y242054D01*
X187591Y241973D01*
X186497Y242745D01*
X186404Y243858D01*
X200422Y257876D01*
X233033D01*
X233158Y256606D01*
D02*
G37*
G36*
X33482Y197500D02*
X33284Y197497D01*
X33095Y197482D01*
X32916Y197456D01*
X32746Y197420D01*
X32586Y197372D01*
X32435Y197313D01*
X32293Y197244D01*
X32161Y197163D01*
X32038Y197071D01*
X31925Y196968D01*
X31218Y197675D01*
X31321Y197788D01*
X31413Y197911D01*
X31494Y198043D01*
X31563Y198185D01*
X31622Y198336D01*
X31670Y198496D01*
X31707Y198666D01*
X31732Y198845D01*
X31747Y199034D01*
X31750Y199233D01*
X33482Y197500D01*
D02*
G37*
G36*
X35250Y193525D02*
X35108Y193663D01*
X34964Y193786D01*
X34819Y193895D01*
X34673Y193989D01*
X34526Y194069D01*
X34377Y194134D01*
X34228Y194185D01*
X34077Y194221D01*
X33926Y194243D01*
X33773Y194250D01*
Y195250D01*
X33926Y195257D01*
X34077Y195279D01*
X34228Y195315D01*
X34377Y195366D01*
X34526Y195431D01*
X34673Y195511D01*
X34819Y195605D01*
X34964Y195714D01*
X35108Y195837D01*
X35250Y195975D01*
Y193525D01*
D02*
G37*
G36*
X281425Y192186D02*
X281291Y192314D01*
X281155Y192429D01*
X281016Y192530D01*
X280874Y192618D01*
X280729Y192692D01*
X280581Y192753D01*
X280431Y192800D01*
X280278Y192834D01*
X280122Y192854D01*
X279963Y192861D01*
Y193961D01*
X280122Y193967D01*
X280278Y193988D01*
X280431Y194021D01*
X280581Y194069D01*
X280729Y194130D01*
X280874Y194204D01*
X281016Y194291D01*
X281155Y194393D01*
X281291Y194508D01*
X281425Y194636D01*
Y192186D01*
D02*
G37*
G36*
X275475Y198491D02*
X275005Y197985D01*
X274584Y197460D01*
X274213Y196914D01*
X273891Y196347D01*
X273619Y195760D01*
X273396Y195152D01*
X273223Y194524D01*
X273099Y193875D01*
X273025Y193206D01*
X273000Y192516D01*
X269500Y191491D01*
X269465Y192156D01*
X269361Y192751D01*
X269187Y193276D01*
X268944Y193731D01*
X268631Y194116D01*
X268249Y194431D01*
X267797Y194676D01*
X267276Y194851D01*
X266685Y194956D01*
X266025Y194991D01*
X267025Y198491D01*
X267715Y198515D01*
X268384Y198590D01*
X269033Y198713D01*
X269661Y198887D01*
X270269Y199109D01*
X270856Y199382D01*
X271423Y199703D01*
X271969Y200075D01*
X272495Y200495D01*
X273000Y200966D01*
X275475Y198491D01*
D02*
G37*
G36*
X62876Y198249D02*
Y190383D01*
X61606Y189997D01*
X61483Y190183D01*
X60573Y190790D01*
X59500Y191004D01*
X58427Y190790D01*
X57517Y190183D01*
X56910Y189273D01*
X56696Y188200D01*
X56910Y187127D01*
X57517Y186217D01*
X58427Y185610D01*
X59500Y185396D01*
X60573Y185610D01*
X61483Y186217D01*
X61606Y186403D01*
X62876Y186017D01*
Y172774D01*
X61606Y172248D01*
X51924Y181931D01*
Y203375D01*
X51730Y204350D01*
X51177Y205177D01*
X48799Y207556D01*
Y210530D01*
X50069Y211056D01*
X62876Y198249D01*
D02*
G37*
G36*
X38087Y188858D02*
X37964Y188714D01*
X37855Y188569D01*
X37761Y188423D01*
X37681Y188276D01*
X37616Y188127D01*
X37565Y187978D01*
X37529Y187827D01*
X37507Y187676D01*
X37500Y187523D01*
X36500D01*
X36493Y187676D01*
X36471Y187827D01*
X36435Y187978D01*
X36384Y188127D01*
X36319Y188276D01*
X36239Y188423D01*
X36145Y188569D01*
X36036Y188714D01*
X35913Y188858D01*
X35775Y189000D01*
X38225D01*
X38087Y188858D01*
D02*
G37*
G36*
X33337Y188358D02*
X33214Y188214D01*
X33105Y188069D01*
X33011Y187923D01*
X32931Y187776D01*
X32866Y187627D01*
X32815Y187478D01*
X32779Y187327D01*
X32757Y187176D01*
X32750Y187023D01*
X31750D01*
X31743Y187176D01*
X31721Y187327D01*
X31685Y187478D01*
X31634Y187627D01*
X31569Y187776D01*
X31489Y187923D01*
X31395Y188069D01*
X31286Y188214D01*
X31163Y188358D01*
X31025Y188500D01*
X33475D01*
X33337Y188358D01*
D02*
G37*
G36*
X347250Y215431D02*
X349381D01*
X349414Y215418D01*
X351263Y215407D01*
X355760Y215253D01*
X357851Y215053D01*
X358593Y214930D01*
X359133Y214799D01*
X359410Y214695D01*
X359424Y214674D01*
X370924Y203174D01*
X372909Y201848D01*
X375250Y201383D01*
X385966D01*
X386382Y200966D01*
Y185534D01*
X382764Y181915D01*
X377948Y186132D01*
X376646Y187420D01*
X376613Y187434D01*
X371023Y193023D01*
X369866Y193797D01*
X368500Y194069D01*
X351750D01*
X350384Y193797D01*
X349644Y193302D01*
X348384Y193854D01*
X348374Y193865D01*
Y208578D01*
X347898Y209727D01*
X344623Y213001D01*
Y215018D01*
X345884Y215703D01*
X347250Y215431D01*
D02*
G37*
G36*
X308867Y182075D02*
X308577Y182026D01*
X308295Y181958D01*
X308020Y181873D01*
X307753Y181770D01*
X307494Y181650D01*
X307242Y181512D01*
X306998Y181356D01*
X306761Y181183D01*
X306532Y180991D01*
X306311Y180783D01*
X304189Y182904D01*
X304398Y183125D01*
X304589Y183354D01*
X304763Y183591D01*
X304919Y183835D01*
X305057Y184087D01*
X305177Y184347D01*
X305280Y184614D01*
X305365Y184888D01*
X305432Y185170D01*
X305482Y185460D01*
X308867Y182075D01*
D02*
G37*
G36*
X404007Y180324D02*
X404029Y180173D01*
X404065Y180022D01*
X404116Y179873D01*
X404181Y179724D01*
X404261Y179577D01*
X404355Y179431D01*
X404464Y179286D01*
X404587Y179142D01*
X404725Y179000D01*
X402275D01*
X402413Y179142D01*
X402536Y179286D01*
X402645Y179431D01*
X402739Y179577D01*
X402819Y179724D01*
X402884Y179873D01*
X402935Y180022D01*
X402971Y180173D01*
X402993Y180324D01*
X403000Y180477D01*
X404000D01*
X404007Y180324D01*
D02*
G37*
G36*
X423007Y179574D02*
X423029Y179423D01*
X423065Y179272D01*
X423116Y179123D01*
X423181Y178974D01*
X423261Y178827D01*
X423355Y178681D01*
X423464Y178536D01*
X423587Y178392D01*
X423725Y178250D01*
X421275D01*
X421413Y178392D01*
X421536Y178536D01*
X421645Y178681D01*
X421739Y178827D01*
X421819Y178974D01*
X421884Y179123D01*
X421935Y179272D01*
X421971Y179423D01*
X421993Y179574D01*
X422000Y179727D01*
X423000D01*
X423007Y179574D01*
D02*
G37*
G36*
X401876Y203078D02*
Y180272D01*
X401874Y180266D01*
X401846Y180201D01*
X401807Y180129D01*
X401756Y180050D01*
X401691Y179964D01*
X401612Y179871D01*
X401496Y179752D01*
X401448Y179629D01*
X400910Y178823D01*
X400696Y177750D01*
X400910Y176677D01*
X401517Y175767D01*
X402427Y175160D01*
X403500Y174946D01*
X404710Y173927D01*
X405318Y173018D01*
X406227Y172410D01*
X407300Y172196D01*
X408373Y172410D01*
X409283Y173018D01*
X409891Y173927D01*
X410080Y174877D01*
X410132Y174998D01*
X410135Y175165D01*
X410145Y175287D01*
X410160Y175393D01*
X410180Y175486D01*
X410203Y175564D01*
X410229Y175629D01*
X410232Y175635D01*
X413148Y178552D01*
X413624Y179700D01*
Y183252D01*
X418703Y188332D01*
X419876Y187845D01*
Y182904D01*
X420352Y181756D01*
X420876Y181231D01*
Y179522D01*
X420874Y179515D01*
X420846Y179451D01*
X420807Y179379D01*
X420756Y179300D01*
X420691Y179214D01*
X420612Y179121D01*
X420496Y179002D01*
X420448Y178879D01*
X419910Y178073D01*
X419789Y177468D01*
X419696Y177000D01*
X418495Y176530D01*
X418250Y176578D01*
X416689Y176268D01*
X415366Y175384D01*
X414482Y174061D01*
X414172Y172500D01*
Y165189D01*
X374616Y125634D01*
X373732Y124311D01*
X373422Y122750D01*
X373422Y122750D01*
Y118308D01*
X337692Y82578D01*
X326250D01*
X326250Y82578D01*
X324689Y82268D01*
X323366Y81384D01*
X323366Y81384D01*
X318811Y76828D01*
X308000D01*
X308000Y76828D01*
X306439Y76518D01*
X305116Y75634D01*
X305116Y75634D01*
X302561Y73078D01*
X290000D01*
X288439Y72768D01*
X287116Y71884D01*
X286232Y70561D01*
X285922Y69000D01*
X286232Y67439D01*
X287116Y66116D01*
X288439Y65232D01*
X290000Y64922D01*
X304250D01*
X304250Y64922D01*
X305811Y65232D01*
X307134Y66116D01*
X309689Y68672D01*
X320500D01*
X320500Y68672D01*
X322061Y68982D01*
X323384Y69866D01*
X327939Y74422D01*
X339382D01*
X339382Y74422D01*
X340455Y74635D01*
X340844Y74190D01*
X341081Y73465D01*
X331405Y63789D01*
X310500D01*
X309720Y63634D01*
X309239Y63313D01*
X309038Y63233D01*
X308341Y62554D01*
X307779Y62047D01*
X307345Y61698D01*
X307207Y61603D01*
X307123Y61554D01*
X303000D01*
X301927Y61340D01*
X301017Y60733D01*
X300410Y59823D01*
X300196Y58750D01*
X300410Y57677D01*
X301017Y56767D01*
X301927Y56160D01*
X303000Y55946D01*
X307500D01*
X308573Y56160D01*
X309483Y56767D01*
X310090Y57677D01*
X310196Y58210D01*
X310211Y58231D01*
X310261Y58278D01*
X310286Y58335D01*
X310297Y58350D01*
X310302Y58370D01*
X310353Y58457D01*
X310434Y58574D01*
X311437Y59711D01*
X332250D01*
X333030Y59866D01*
X333692Y60308D01*
X381595Y108211D01*
X383141D01*
X383238Y108168D01*
X383579Y108160D01*
X383820Y108139D01*
X383885Y108129D01*
X383931Y108119D01*
X383941Y108116D01*
X383976Y108102D01*
X383989Y108102D01*
X383992Y108101D01*
X384001Y108102D01*
X384015Y108102D01*
X384677Y107660D01*
X385750Y107446D01*
X386823Y107660D01*
X387733Y108267D01*
X388340Y109177D01*
X388524Y110101D01*
X388582Y110225D01*
X388585Y110305D01*
X388589Y110333D01*
X388596Y110366D01*
X388610Y110406D01*
X388631Y110454D01*
X388661Y110510D01*
X388703Y110575D01*
X388757Y110648D01*
X388825Y110728D01*
X388926Y110835D01*
X388968Y110945D01*
X390262Y112238D01*
X390648Y112817D01*
X390784Y113500D01*
Y116011D01*
X393080Y118306D01*
X394156Y117587D01*
X393876Y116911D01*
Y114000D01*
X394352Y112852D01*
X396002Y111202D01*
X397150Y110726D01*
X401800D01*
X402948Y111202D01*
X403815Y112069D01*
X403821Y112072D01*
X403887Y112097D01*
X403965Y112121D01*
X404057Y112140D01*
X404164Y112156D01*
X404285Y112165D01*
X404452Y112168D01*
X404573Y112220D01*
X405523Y112410D01*
X406433Y113017D01*
X407040Y113927D01*
X407229Y114877D01*
X407282Y114998D01*
X407285Y115165D01*
X407294Y115287D01*
X407310Y115393D01*
X407329Y115485D01*
X407353Y115563D01*
X407378Y115629D01*
X407381Y115635D01*
X410373Y118626D01*
X419577D01*
X430602Y107602D01*
X431750Y107126D01*
X438577D01*
X439819Y105885D01*
X439822Y105879D01*
X439847Y105813D01*
X439871Y105735D01*
X439891Y105643D01*
X439906Y105536D01*
X439915Y105414D01*
X439918Y105248D01*
X439971Y105127D01*
X440160Y104177D01*
X440768Y103267D01*
X441677Y102659D01*
X442065Y102582D01*
X442788Y102246D01*
X442986Y101202D01*
X442946Y101000D01*
X443085Y100304D01*
X442202Y99299D01*
X429500D01*
X428525Y99105D01*
X427698Y98552D01*
X423944Y94799D01*
X410723D01*
X409970Y95552D01*
X409704Y95730D01*
X409534Y95843D01*
X410030Y97040D01*
X410209Y97004D01*
X410500Y96946D01*
X411573Y97160D01*
X412483Y97767D01*
X413090Y98677D01*
X413304Y99750D01*
X413090Y100823D01*
X412483Y101733D01*
X411573Y102340D01*
X410500Y102554D01*
X409427Y102340D01*
X408517Y101733D01*
X407910Y100823D01*
X407696Y99750D01*
X407910Y98677D01*
X408517Y97767D01*
X408865Y97535D01*
X409036Y97421D01*
X408540Y96225D01*
X408361Y96260D01*
X408167Y96299D01*
X390000D01*
X389025Y96105D01*
X388198Y95552D01*
X356069Y63424D01*
X354799Y63950D01*
Y72032D01*
X382718Y99951D01*
X401250D01*
X402225Y100145D01*
X403052Y100698D01*
X407306Y104951D01*
X410250D01*
X411226Y105145D01*
X412052Y105698D01*
X418000Y111645D01*
X418073Y111660D01*
X418983Y112267D01*
X419590Y113177D01*
X419804Y114250D01*
X419590Y115323D01*
X418983Y116233D01*
X418073Y116840D01*
X417000Y117054D01*
X415927Y116840D01*
X415017Y116233D01*
X414410Y115323D01*
X414395Y115250D01*
X409194Y110049D01*
X406250D01*
X405275Y109855D01*
X404448Y109302D01*
X400194Y105049D01*
X381662D01*
X380687Y104855D01*
X379860Y104302D01*
X350448Y74890D01*
X349895Y74063D01*
X349701Y73088D01*
Y48385D01*
X349660Y48323D01*
X349446Y47250D01*
X349660Y46177D01*
X350267Y45267D01*
X351177Y44660D01*
X352250Y44446D01*
X353323Y44660D01*
X354233Y45267D01*
X354767D01*
X355677Y44660D01*
X356750Y44446D01*
X357823Y44660D01*
X358733Y45267D01*
X359340Y46177D01*
X359554Y47250D01*
X359340Y48323D01*
X359299Y48385D01*
Y59444D01*
X391056Y91201D01*
X392381D01*
X392758Y90437D01*
X392826Y89931D01*
X363948Y61052D01*
X363395Y60226D01*
X363201Y59250D01*
Y36943D01*
X362218Y36268D01*
X361931Y36197D01*
X361000Y36382D01*
X359927Y36169D01*
X359017Y35561D01*
X358988Y35516D01*
X357483Y35483D01*
X356573Y36090D01*
X355500Y36304D01*
X354427Y36090D01*
X353621Y35552D01*
X353498Y35504D01*
X353379Y35388D01*
X353286Y35309D01*
X353200Y35244D01*
X353121Y35193D01*
X353049Y35154D01*
X352985Y35126D01*
X352978Y35124D01*
X339750D01*
X338602Y34648D01*
X337327Y33374D01*
X308969D01*
X308290Y34644D01*
X308325Y34696D01*
X332750D01*
X333823Y34910D01*
X334733Y35517D01*
X335340Y36427D01*
X335554Y37500D01*
X335340Y38573D01*
X334733Y39483D01*
X333823Y40090D01*
X332750Y40304D01*
X306000D01*
X304927Y40090D01*
X304017Y39483D01*
X290655Y26120D01*
X289257Y26374D01*
X288850Y27215D01*
X289057Y27627D01*
X289090Y27677D01*
X289304Y28750D01*
X289090Y29823D01*
X288483Y30733D01*
X287573Y31340D01*
X286500Y31554D01*
X286074Y31469D01*
X284804Y32335D01*
Y54500D01*
X284590Y55573D01*
X283983Y56483D01*
X280304Y60161D01*
Y68361D01*
X280090Y69434D01*
X279483Y70343D01*
X278332Y71494D01*
X278818Y72668D01*
X284000D01*
X284064Y72694D01*
X285366Y72953D01*
X286523Y73727D01*
X293728Y80931D01*
X319250D01*
X320616Y81203D01*
X321773Y81977D01*
X330273Y90477D01*
X331047Y91634D01*
X331319Y93000D01*
Y101522D01*
X335217Y105420D01*
X347239D01*
X348604Y105692D01*
X349762Y106465D01*
X369023Y125727D01*
X369797Y126884D01*
X370069Y128250D01*
Y134957D01*
X372440Y137225D01*
X374220Y138746D01*
X374944Y139298D01*
X375562Y139719D01*
X376051Y139998D01*
X376378Y140136D01*
X376664Y140192D01*
X376712Y140224D01*
X378591Y140598D01*
X380576Y141924D01*
X381902Y143909D01*
X382368Y146250D01*
Y154966D01*
X388576Y161174D01*
X389902Y163159D01*
X390368Y165500D01*
Y172216D01*
X396826Y178674D01*
X398152Y180659D01*
X398618Y183000D01*
Y203500D01*
X398359Y204799D01*
X399530Y205424D01*
X401876Y203078D01*
D02*
G37*
G36*
X409582Y176575D02*
X409479Y176462D01*
X409387Y176339D01*
X409307Y176207D01*
X409237Y176066D01*
X409178Y175914D01*
X409130Y175754D01*
X409094Y175584D01*
X409068Y175405D01*
X409054Y175216D01*
X409050Y175018D01*
X407318Y176750D01*
X407516Y176754D01*
X407705Y176768D01*
X407884Y176794D01*
X408054Y176830D01*
X408215Y176878D01*
X408366Y176937D01*
X408507Y177006D01*
X408639Y177087D01*
X408762Y177179D01*
X408875Y177282D01*
X409582Y176575D01*
D02*
G37*
G36*
X377211Y185340D02*
X382883Y180371D01*
X383448Y180026D01*
X383905Y179819D01*
X384253Y179750D01*
X379250Y174747D01*
X379181Y175095D01*
X378974Y175551D01*
X378629Y176117D01*
X378145Y176791D01*
X376765Y178464D01*
X373660Y181789D01*
X372349Y183115D01*
X375885Y186651D01*
X377211Y185340D01*
D02*
G37*
G36*
X341365Y172205D02*
X341232Y172334D01*
X341095Y172448D01*
X340956Y172550D01*
X340814Y172637D01*
X340669Y172712D01*
X340522Y172772D01*
X340371Y172820D01*
X340218Y172853D01*
X340062Y172874D01*
X339904Y172880D01*
Y173980D01*
X340062Y173987D01*
X340218Y174007D01*
X340371Y174041D01*
X340522Y174088D01*
X340669Y174149D01*
X340814Y174223D01*
X340956Y174311D01*
X341095Y174412D01*
X341232Y174527D01*
X341365Y174655D01*
Y172205D01*
D02*
G37*
G36*
X207997Y239577D02*
X207882Y239000D01*
Y234000D01*
X208348Y231659D01*
X209674Y229674D01*
X211659Y228348D01*
X212351Y228211D01*
X212427Y228160D01*
X213500Y227946D01*
X213590Y227964D01*
X214000Y227882D01*
X216341Y228348D01*
X218326Y229674D01*
X219652Y231659D01*
X219709Y231946D01*
X220717Y232536D01*
X221138Y232618D01*
X222000Y232446D01*
X223073Y232660D01*
X223983Y233267D01*
X224767D01*
X225677Y232660D01*
X226099Y232576D01*
X226804Y231506D01*
X226820Y231236D01*
X226644Y230352D01*
X226858Y229279D01*
X226897Y229220D01*
X226133Y228077D01*
X226000Y228104D01*
X224927Y227890D01*
X224017Y227283D01*
X223410Y226373D01*
X223265Y225649D01*
X222958Y225178D01*
X222020Y224700D01*
X221500Y224804D01*
X220427Y224590D01*
X219517Y223983D01*
X218910Y223073D01*
X218696Y222000D01*
X218910Y220927D01*
X219517Y220017D01*
X220427Y219410D01*
X221500Y219196D01*
X222573Y219410D01*
X223483Y220017D01*
X224090Y220927D01*
X224234Y221651D01*
X224542Y222122D01*
X225480Y222600D01*
X226000Y222496D01*
X227073Y222710D01*
X227983Y223317D01*
X228590Y224227D01*
X228804Y225300D01*
X228590Y226373D01*
X228551Y226432D01*
X229315Y227575D01*
X229448Y227548D01*
X230521Y227761D01*
X231431Y228369D01*
X232038Y229279D01*
X232252Y230352D01*
X232071Y231264D01*
X232059Y231457D01*
X232780Y232601D01*
X233073Y232660D01*
X233983Y233267D01*
X234590Y234177D01*
X234804Y235250D01*
X234590Y236323D01*
X234564Y236362D01*
X235243Y237633D01*
X239466D01*
X247293Y229805D01*
X247385Y229681D01*
X247689Y229158D01*
X247965Y228561D01*
X248210Y227888D01*
X248421Y227138D01*
X248597Y226311D01*
X248734Y225421D01*
X248897Y223365D01*
X248918Y222230D01*
X248977Y222094D01*
X249160Y221177D01*
X249767Y220267D01*
X258317Y211717D01*
X259227Y211110D01*
X260300Y210896D01*
X261983D01*
X262662Y209626D01*
X262460Y209323D01*
X262246Y208250D01*
X262460Y207177D01*
X263067Y206267D01*
X263977Y205660D01*
X265050Y205446D01*
X266123Y205660D01*
X267033Y206267D01*
X267640Y207177D01*
X267854Y208250D01*
X267640Y209323D01*
X267438Y209626D01*
X267613Y210240D01*
X268071Y210950D01*
X268873Y211110D01*
X269783Y211717D01*
X270390Y212627D01*
X270604Y213700D01*
X270390Y214773D01*
X269783Y215683D01*
X268873Y216290D01*
X267800Y216504D01*
X261461D01*
X254603Y223363D01*
X254603Y223365D01*
X254766Y225421D01*
X254903Y226311D01*
X255077Y227132D01*
X279122D01*
X280018Y225862D01*
X279946Y225500D01*
X280159Y224427D01*
X280767Y223517D01*
X281677Y222910D01*
X282750Y222696D01*
X283823Y222910D01*
X284733Y223517D01*
X284974Y223879D01*
X285432Y223831D01*
X286246Y223497D01*
X286410Y222677D01*
X287017Y221767D01*
X287927Y221160D01*
X289000Y220946D01*
X290073Y221160D01*
X290983Y221767D01*
X291590Y222677D01*
X291804Y223750D01*
X292889Y224804D01*
X293750Y224632D01*
X306000D01*
X308341Y225098D01*
X310326Y226424D01*
X314784Y230882D01*
X348216D01*
X354986Y224113D01*
X354495Y222808D01*
X351245Y222593D01*
X349414Y222582D01*
X349381Y222569D01*
X347250D01*
X346848Y222489D01*
X345768Y223569D01*
X345804Y223750D01*
X345590Y224823D01*
X344983Y225733D01*
X344073Y226340D01*
X343000Y226554D01*
X341927Y226340D01*
X341017Y225733D01*
X340483D01*
X339573Y226340D01*
X338500Y226554D01*
X337427Y226340D01*
X336517Y225733D01*
X335910Y224823D01*
X335720Y223873D01*
X335668Y223752D01*
X335665Y223585D01*
X335656Y223463D01*
X335640Y223357D01*
X335620Y223265D01*
X335597Y223186D01*
X335572Y223121D01*
X335569Y223115D01*
X333852Y221398D01*
X333376Y220250D01*
Y217500D01*
X333852Y216352D01*
X343126Y207078D01*
Y188243D01*
X343602Y187094D01*
X344876Y185820D01*
Y176754D01*
X343718Y176039D01*
X343606Y176037D01*
X342615Y176234D01*
X342089Y176760D01*
X341876Y177833D01*
X341268Y178743D01*
X340358Y179351D01*
X339895Y179443D01*
Y180738D01*
X340358Y180830D01*
X341268Y181438D01*
X341876Y182348D01*
X342089Y183421D01*
X341876Y184494D01*
X341268Y185403D01*
X340358Y186011D01*
X339285Y186224D01*
X338212Y186011D01*
X337303Y185403D01*
X336695Y184494D01*
X336603Y184030D01*
X335308D01*
X335215Y184493D01*
X334608Y185403D01*
X333698Y186011D01*
X333282Y186094D01*
X333235Y186103D01*
Y187398D01*
X333282Y187407D01*
X333698Y187490D01*
X334608Y188098D01*
X335215Y189007D01*
X335429Y190081D01*
X335215Y191154D01*
X334608Y192063D01*
X333698Y192671D01*
X332625Y192884D01*
X331552Y192671D01*
X330643Y192063D01*
X330035Y191154D01*
X329821Y190081D01*
X330035Y189007D01*
X330643Y188098D01*
X331552Y187490D01*
X331969Y187407D01*
X332015Y187398D01*
Y186103D01*
X331969Y186094D01*
X331552Y186011D01*
X330643Y185403D01*
X330035Y184493D01*
X329821Y183421D01*
X329295Y182894D01*
X328222Y182681D01*
X327313Y182073D01*
X326705Y181163D01*
X326491Y180090D01*
X326705Y179017D01*
X327313Y178108D01*
X328222Y177500D01*
X328685Y177408D01*
Y176113D01*
X328222Y176021D01*
X327313Y175413D01*
X326705Y174503D01*
X326491Y173430D01*
X326705Y172357D01*
X327313Y171448D01*
X328222Y170840D01*
X329295Y170627D01*
X329948Y169462D01*
X330035Y169027D01*
X330643Y168118D01*
X331552Y167510D01*
X332625Y167297D01*
X333151Y166770D01*
X333365Y165697D01*
X333973Y164788D01*
X334882Y164180D01*
X335345Y164088D01*
Y162793D01*
X334882Y162701D01*
X333973Y162093D01*
X333365Y161183D01*
X333151Y160110D01*
X333365Y159037D01*
X333973Y158128D01*
X334319Y157896D01*
X334599Y156380D01*
X331602Y153383D01*
X331126Y152235D01*
Y149500D01*
X331602Y148352D01*
X332461Y147493D01*
X332015Y146143D01*
X331552Y146051D01*
X330643Y145443D01*
X330035Y144533D01*
X329821Y143460D01*
X329295Y142934D01*
X328222Y142721D01*
X327313Y142113D01*
X326705Y141203D01*
X326491Y140130D01*
X326705Y139057D01*
X327313Y138148D01*
X328222Y137540D01*
X329295Y137326D01*
X330368Y137540D01*
X331278Y138148D01*
X331300Y138181D01*
X331385Y138218D01*
X331496Y138335D01*
X331579Y138413D01*
X331657Y138476D01*
X331728Y138524D01*
X331791Y138561D01*
X331847Y138587D01*
X335960D01*
X337108Y139062D01*
X338898Y140852D01*
X339374Y142000D01*
Y144500D01*
X338898Y145648D01*
X334374Y150173D01*
Y151563D01*
X341203Y158392D01*
X342376Y157906D01*
Y157343D01*
X342852Y156195D01*
X352195Y146852D01*
X353343Y146376D01*
X354478D01*
X354484Y146374D01*
X354549Y146346D01*
X354621Y146307D01*
X354700Y146256D01*
X354786Y146191D01*
X354879Y146112D01*
X354998Y145996D01*
X355121Y145948D01*
X355927Y145410D01*
X357000Y145196D01*
X358073Y145410D01*
X358983Y146017D01*
X359590Y146927D01*
X359804Y148000D01*
X359590Y149073D01*
X358983Y149983D01*
X358073Y150590D01*
X357000Y150804D01*
X355927Y150590D01*
X355121Y150052D01*
X354998Y150004D01*
X354879Y149888D01*
X354786Y149809D01*
X354700Y149744D01*
X354621Y149693D01*
X354549Y149654D01*
X354484Y149626D01*
X354478Y149624D01*
X354016D01*
X349381Y154258D01*
X349867Y155431D01*
X370132D01*
Y146370D01*
X369998Y146051D01*
X369719Y145562D01*
X369319Y144976D01*
X365166Y140249D01*
X363962Y139028D01*
X363934Y138959D01*
X363203Y137866D01*
X362931Y136500D01*
Y129728D01*
X345760Y112557D01*
X333739D01*
X332373Y112285D01*
X331215Y111512D01*
X325227Y105523D01*
X324453Y104366D01*
X324181Y103000D01*
Y94478D01*
X317772Y88069D01*
X292250D01*
X290884Y87797D01*
X289727Y87023D01*
X282536Y79832D01*
X279000D01*
X279000Y79833D01*
X278235Y79515D01*
X278235Y79515D01*
X277302Y78582D01*
X275750D01*
X275574Y78509D01*
X274304Y79244D01*
Y79750D01*
X274090Y80823D01*
X273483Y81733D01*
X269967Y85248D01*
X270453Y86422D01*
X278500D01*
X278500Y86422D01*
X280061Y86732D01*
X281384Y87616D01*
X284939Y91172D01*
X305867D01*
X305867Y91172D01*
X307427Y91482D01*
X308750Y92366D01*
X320134Y103749D01*
X320134Y103750D01*
X321018Y105073D01*
X321328Y106633D01*
Y176250D01*
X321328Y176250D01*
X321018Y177811D01*
X320134Y179134D01*
X320134Y179134D01*
X312328Y186939D01*
Y198293D01*
X313598Y198678D01*
X313992Y198088D01*
X314902Y197480D01*
X315975Y197267D01*
X317048Y197480D01*
X317958Y198088D01*
X318565Y198998D01*
X318779Y200071D01*
X319305Y200597D01*
X320378Y200810D01*
X321288Y201418D01*
X321895Y202328D01*
X322109Y203401D01*
X321895Y204474D01*
X321288Y205383D01*
X320378Y205991D01*
X319305Y206205D01*
X318232Y205991D01*
X317322Y205383D01*
X316715Y204474D01*
X316501Y203401D01*
X315975Y202875D01*
X314902Y202661D01*
X313992Y202053D01*
X313598Y201464D01*
X312328Y201848D01*
Y214311D01*
X315489Y217472D01*
X318437D01*
X334366Y201542D01*
X335689Y200658D01*
X337250Y200348D01*
X338811Y200658D01*
X340134Y201542D01*
X341018Y202865D01*
X341328Y204426D01*
X341018Y205987D01*
X340134Y207310D01*
X323010Y224434D01*
X321687Y225318D01*
X320126Y225628D01*
X320126Y225628D01*
X313800D01*
X312239Y225318D01*
X310916Y224434D01*
X310916Y224434D01*
X305366Y218884D01*
X304482Y217561D01*
X304172Y216000D01*
X304172Y216000D01*
Y186000D01*
X304329Y185210D01*
X304320Y185174D01*
X304257Y184969D01*
X304180Y184769D01*
X304090Y184576D01*
X303987Y184387D01*
X303869Y184203D01*
X303736Y184022D01*
X303588Y183844D01*
X303402Y183647D01*
X303341Y183486D01*
X302895Y182819D01*
X302874Y182711D01*
X300207Y180044D01*
X280700D01*
X278622Y182122D01*
X277878Y182619D01*
X277000Y182794D01*
X270069D01*
X269944Y184064D01*
X270428Y184160D01*
X271337Y184768D01*
X273233Y186663D01*
X273840Y187573D01*
X274054Y188646D01*
Y192416D01*
X274082Y192477D01*
X274105Y193127D01*
X274170Y193714D01*
X274278Y194278D01*
X274428Y194821D01*
X274620Y195345D01*
X274854Y195851D01*
X275133Y196341D01*
X275320Y196617D01*
X276012Y196554D01*
X276637Y196260D01*
X276754Y195668D01*
X277362Y194758D01*
X278272Y194150D01*
X278735Y194058D01*
Y192763D01*
X278272Y192671D01*
X277362Y192063D01*
X276754Y191154D01*
X276541Y190081D01*
X276754Y189008D01*
X277362Y188098D01*
X278272Y187490D01*
X278706Y187404D01*
X279871Y186751D01*
X280084Y185678D01*
X280692Y184768D01*
X281602Y184160D01*
X282675Y183947D01*
X283748Y184160D01*
X284657Y184768D01*
X285265Y185678D01*
X285357Y186141D01*
X286652D01*
X286744Y185678D01*
X287352Y184768D01*
X288262Y184160D01*
X289335Y183947D01*
X290408Y184160D01*
X291318Y184768D01*
X291876Y185604D01*
X291983Y185703D01*
X293309Y186126D01*
X293655Y185895D01*
X294631Y185701D01*
X297750D01*
X298725Y185895D01*
X299552Y186448D01*
X302052Y188948D01*
X302605Y189774D01*
X302799Y190750D01*
Y203000D01*
X302605Y203975D01*
X302052Y204802D01*
X295302Y211552D01*
X294475Y212105D01*
X293500Y212299D01*
X286306D01*
X276052Y222552D01*
X275226Y223105D01*
X274250Y223299D01*
X264635D01*
X264573Y223340D01*
X263500Y223554D01*
X262427Y223340D01*
X261517Y222733D01*
X260910Y221823D01*
X260696Y220750D01*
X260910Y219677D01*
X261517Y218767D01*
X262427Y218160D01*
X263500Y217946D01*
X264573Y218160D01*
X264635Y218201D01*
X273194D01*
X283448Y207948D01*
X284190Y207451D01*
X284288Y207335D01*
X284575Y206040D01*
X282839Y204304D01*
X276009D01*
X274936Y204090D01*
X274027Y203483D01*
X272325Y201781D01*
X272262Y201758D01*
X271787Y201315D01*
X271326Y200946D01*
X270851Y200623D01*
X270361Y200345D01*
X269854Y200110D01*
X269330Y199918D01*
X268787Y199769D01*
X268223Y199661D01*
X267636Y199596D01*
X266986Y199572D01*
X266925Y199545D01*
X266025D01*
X264952Y199331D01*
X264042Y198723D01*
X263434Y197814D01*
X263310Y197187D01*
X262117Y196691D01*
X262014Y196686D01*
X258828Y199872D01*
X258084Y200369D01*
X257206Y200544D01*
X256700D01*
X249372Y207872D01*
X248628Y208369D01*
X247921Y208510D01*
X247579Y208991D01*
X247265Y209814D01*
X247340Y209927D01*
X247554Y211000D01*
X247340Y212073D01*
X246733Y212983D01*
X245823Y213590D01*
X244750Y213804D01*
X243677Y213590D01*
X242767Y212983D01*
X242160Y212073D01*
X241946Y211000D01*
X242160Y209927D01*
X242767Y209017D01*
Y208233D01*
X242160Y207323D01*
X241946Y206250D01*
X242160Y205177D01*
X242767Y204267D01*
X243677Y203660D01*
X244750Y203446D01*
X245823Y203660D01*
X246266Y203956D01*
X246800D01*
X254128Y196628D01*
X254872Y196131D01*
X255750Y195956D01*
X256255D01*
X258335Y193876D01*
X257964Y192452D01*
X257382Y192063D01*
X256774Y191154D01*
X256688Y190720D01*
X256035Y189555D01*
X254962Y189341D01*
X254052Y188733D01*
X253444Y187824D01*
X253361Y187407D01*
X253352Y187360D01*
X252057D01*
X252048Y187407D01*
X251965Y187824D01*
X251357Y188733D01*
X250448Y189341D01*
X249375Y189555D01*
X248302Y189341D01*
X247392Y188733D01*
X246784Y187824D01*
X246571Y186751D01*
X246784Y185678D01*
X247392Y184768D01*
X248302Y184160D01*
X249375Y183947D01*
X250448Y184160D01*
X251357Y184768D01*
X251965Y185678D01*
X252048Y186094D01*
X252057Y186141D01*
X253352D01*
X253361Y186094D01*
X253444Y185678D01*
X254052Y184768D01*
X254962Y184160D01*
X256035Y183947D01*
X257108Y184160D01*
X258017Y184768D01*
X258625Y185678D01*
X258711Y186112D01*
X258842Y186344D01*
X259215Y186391D01*
X260401Y185555D01*
X260575Y184677D01*
X261073Y183933D01*
X266128Y178878D01*
X266872Y178381D01*
X267750Y178206D01*
X267750Y178206D01*
X276050D01*
X278128Y176128D01*
X278872Y175631D01*
X279750Y175456D01*
X279750Y175456D01*
X300250D01*
X300251Y175456D01*
X301157D01*
X302035Y175631D01*
X302779Y176128D01*
X306118Y179467D01*
X306225Y179488D01*
X306892Y179934D01*
X307053Y179995D01*
X307251Y180182D01*
X307414Y180318D01*
X313172Y174561D01*
Y108323D01*
X304177Y99328D01*
X283250D01*
X281689Y99018D01*
X280366Y98134D01*
X280366Y98134D01*
X276811Y94578D01*
X263439D01*
X261761Y96257D01*
X262386Y97428D01*
X262695Y97366D01*
X263768Y97580D01*
X264677Y98187D01*
X265285Y99097D01*
X265368Y99514D01*
X265377Y99560D01*
X266672D01*
X266681Y99514D01*
X266764Y99097D01*
X267372Y98187D01*
X268282Y97580D01*
X269355Y97366D01*
X270428Y97580D01*
X271337Y98187D01*
X271945Y99097D01*
X272159Y100170D01*
X271945Y101243D01*
X271337Y102153D01*
X270428Y102760D01*
X269355Y102974D01*
X268282Y102760D01*
X267372Y102153D01*
X266764Y101243D01*
X266681Y100827D01*
X266672Y100780D01*
X265377D01*
X265368Y100826D01*
X265285Y101243D01*
X264677Y102153D01*
X263768Y102760D01*
X262695Y102974D01*
X261622Y102760D01*
X261348Y102578D01*
X260078Y103257D01*
Y110561D01*
X261634Y112116D01*
X262518Y113439D01*
X262828Y115000D01*
X262828Y115000D01*
Y125750D01*
X262518Y127311D01*
X261634Y128634D01*
X261634Y128634D01*
X257134Y133134D01*
X255811Y134018D01*
X255650Y134050D01*
X255479Y134298D01*
X255111Y135452D01*
X255295Y135727D01*
X255508Y136800D01*
X255295Y137873D01*
X254687Y138783D01*
X253778Y139391D01*
X252705Y139604D01*
X251632Y139391D01*
X250722Y138783D01*
X250114Y137873D01*
X249901Y136800D01*
X250114Y135727D01*
X250200Y135598D01*
X249522Y134328D01*
X240689D01*
X235884Y139134D01*
X234561Y140018D01*
X233000Y140328D01*
X233000Y140328D01*
X217500D01*
X217500Y140328D01*
X215939Y140018D01*
X214616Y139134D01*
X207116Y131634D01*
X206232Y130311D01*
X205922Y128750D01*
X205922Y128750D01*
Y88750D01*
X205922Y88750D01*
X206232Y87189D01*
X207116Y85866D01*
X222356Y70626D01*
X222315Y67461D01*
X222129Y64206D01*
X222045Y63512D01*
X221955Y63012D01*
X221909Y62850D01*
X219218Y60159D01*
X217841Y60573D01*
X217233Y61483D01*
X216323Y62090D01*
X215250Y62304D01*
X214177Y62090D01*
X213268Y61483D01*
X212983D01*
X212073Y62090D01*
X211000Y62304D01*
X209927Y62090D01*
X209018Y61483D01*
X208410Y60573D01*
X208196Y59500D01*
X208410Y58427D01*
X209018Y57517D01*
X209667Y57083D01*
X209160Y56323D01*
X208946Y55250D01*
X209018Y54888D01*
X208122Y53618D01*
X194250D01*
X191909Y53152D01*
X189924Y51826D01*
X186413Y48314D01*
X185242Y48940D01*
X185304Y49250D01*
X185091Y50323D01*
X184483Y51233D01*
X183573Y51840D01*
X182500Y52054D01*
X181427Y51840D01*
X181377Y51807D01*
X180398Y51316D01*
X179374Y52033D01*
X179615Y52952D01*
X179829Y54025D01*
X179615Y55098D01*
X179008Y56008D01*
X178098Y56616D01*
X177025Y56829D01*
X175952Y56616D01*
X175042Y56008D01*
X174435Y55098D01*
X174221Y54025D01*
X174435Y52952D01*
X175042Y52042D01*
X175952Y51435D01*
X175660Y50323D01*
X175446Y49250D01*
X175516Y48899D01*
X175325Y48608D01*
X174420Y47921D01*
X173750Y48054D01*
X172677Y47840D01*
X171767Y47233D01*
X171160Y46323D01*
X170988Y45460D01*
X170339Y45096D01*
X169713Y44938D01*
X166868Y47784D01*
Y52250D01*
X166402Y54591D01*
X165076Y56576D01*
X164869Y56783D01*
X165355Y57956D01*
X171500D01*
X172378Y58131D01*
X173122Y58628D01*
X177050Y62555D01*
X177573Y62660D01*
X178483Y63267D01*
X179090Y64177D01*
X179304Y65250D01*
X179090Y66323D01*
X178483Y67233D01*
X177573Y67840D01*
X176500Y68054D01*
X175427Y67840D01*
X174590Y67281D01*
X174284Y67273D01*
X173206Y67556D01*
X173015Y68015D01*
X173015Y68015D01*
X169265Y71765D01*
X169265Y71765D01*
X169054Y71853D01*
X154704Y86204D01*
X153463Y87032D01*
X152000Y87323D01*
X138737D01*
X138548Y88276D01*
X138082Y88973D01*
Y89151D01*
X138323Y90363D01*
X138032Y91826D01*
X137204Y93066D01*
X131566Y98704D01*
X130326Y99532D01*
X128863Y99823D01*
X123732D01*
X123372Y100685D01*
X123284Y101093D01*
X123841Y101927D01*
X124500Y102946D01*
X125573Y103160D01*
X126483Y103767D01*
X127090Y104677D01*
X127304Y105750D01*
X127090Y106823D01*
X126483Y107733D01*
X125573Y108340D01*
X124500Y108554D01*
X123427Y108340D01*
X122517Y107733D01*
X121910Y106823D01*
X121250Y105804D01*
X120177Y105590D01*
X119268Y104983D01*
X118660Y104073D01*
X118446Y103000D01*
X118660Y101927D01*
X119268Y101017D01*
X119832Y100640D01*
X119834Y100635D01*
X119887Y99417D01*
X119832Y99229D01*
X119046Y98704D01*
X117666Y97323D01*
X115334D01*
X108704Y103954D01*
X107463Y104782D01*
X106000Y105073D01*
X90000D01*
X88537Y104782D01*
X87296Y103954D01*
X86468Y102713D01*
X86177Y101250D01*
X86462Y99814D01*
X86467Y99786D01*
X85771Y98544D01*
X83750D01*
X83750Y98544D01*
X82872Y98369D01*
X82128Y97872D01*
X82128Y97872D01*
X79300Y95044D01*
X61700D01*
X58622Y98122D01*
X57878Y98619D01*
X57000Y98794D01*
X31750D01*
X30872Y98619D01*
X30128Y98122D01*
X27550Y95544D01*
X25993D01*
X25798Y95794D01*
X25431Y96814D01*
X25840Y97427D01*
X26030Y98377D01*
X26082Y98498D01*
X26085Y98665D01*
X26095Y98787D01*
X26110Y98893D01*
X26130Y98986D01*
X26153Y99064D01*
X26178Y99129D01*
X26181Y99135D01*
X28423Y101376D01*
X36828D01*
X37977Y101852D01*
X42001Y105876D01*
X53499D01*
X62024Y97352D01*
X63172Y96876D01*
X76578D01*
X77726Y97352D01*
X84398Y104024D01*
X84874Y105172D01*
Y113077D01*
X89398Y117602D01*
X89874Y118750D01*
Y137750D01*
X89398Y138898D01*
X85556Y142740D01*
X85845Y143526D01*
X86122Y143970D01*
X87073Y144160D01*
X87983Y144768D01*
X88590Y145677D01*
X88804Y146750D01*
X88744Y147049D01*
X88805Y148059D01*
X89470Y148792D01*
X89733Y148967D01*
X90340Y149877D01*
X90554Y150950D01*
X90340Y152023D01*
X89733Y152933D01*
X88823Y153540D01*
X87750Y153754D01*
X86677Y153540D01*
X85767Y152933D01*
X85160Y152023D01*
X84946Y150950D01*
X85006Y150651D01*
X84927Y149340D01*
X84017Y148733D01*
X83894Y148547D01*
X82624Y148933D01*
Y157578D01*
X82148Y158727D01*
X68124Y172751D01*
Y199750D01*
X67648Y200898D01*
X48955Y219591D01*
X49000Y220096D01*
X49289Y221054D01*
X49983Y221517D01*
X50590Y222427D01*
X50804Y223500D01*
X50590Y224573D01*
X50052Y225378D01*
X50004Y225501D01*
X49888Y225621D01*
X49809Y225714D01*
X49744Y225800D01*
X49693Y225879D01*
X49654Y225951D01*
X49626Y226015D01*
X49624Y226022D01*
Y228297D01*
X49561Y228448D01*
X49883Y230895D01*
X50886Y233316D01*
X52386Y235270D01*
X52535Y235332D01*
X52537Y235336D01*
X52540Y235337D01*
X54492Y237289D01*
X54565Y237287D01*
X55788Y236789D01*
X55910Y236177D01*
X56206Y235734D01*
Y234750D01*
X56381Y233872D01*
X56878Y233128D01*
X60128Y229878D01*
X60128Y229878D01*
X60872Y229381D01*
X61750Y229206D01*
X68671D01*
X69533Y227936D01*
X69446Y227500D01*
X69660Y226427D01*
X70267Y225517D01*
X71177Y224910D01*
X72250Y224696D01*
X73323Y224910D01*
X74233Y225517D01*
X74840Y226427D01*
X75054Y227500D01*
X74967Y227936D01*
X75829Y229206D01*
X85050D01*
X90213Y224043D01*
X90132Y223569D01*
X89713Y222747D01*
X88927Y222590D01*
X88017Y221983D01*
X87410Y221073D01*
X87196Y220000D01*
X87387Y219039D01*
X87022Y218714D01*
X86835Y218611D01*
Y218611D01*
X86835D01*
X85620Y218809D01*
X85573Y218840D01*
X84500Y219054D01*
X83427Y218840D01*
X82517Y218233D01*
X81910Y217323D01*
X81696Y216250D01*
X81910Y215177D01*
X82517Y214267D01*
X83427Y213660D01*
X84500Y213446D01*
X85573Y213660D01*
X86483Y214267D01*
X87090Y215177D01*
X87304Y216250D01*
X87113Y217211D01*
X87478Y217536D01*
X87665Y217639D01*
Y217639D01*
X87665D01*
X88880Y217441D01*
X88927Y217410D01*
X90000Y217196D01*
X91073Y217410D01*
X91983Y218017D01*
X92590Y218927D01*
X92747Y219713D01*
X93569Y220132D01*
X94043Y220213D01*
X94378Y219878D01*
X95122Y219381D01*
X96000Y219206D01*
X112507D01*
X112702Y218956D01*
X113069Y217936D01*
X112660Y217323D01*
X112446Y216250D01*
X112660Y215177D01*
X113267Y214267D01*
X114177Y213660D01*
X115250Y213446D01*
X116323Y213660D01*
X117233Y214267D01*
X117840Y215177D01*
X118054Y216250D01*
X117840Y217323D01*
X117233Y218233D01*
X116589Y218662D01*
X116410Y219128D01*
X116350Y219578D01*
X116370Y220126D01*
X133377Y237132D01*
X134485Y236539D01*
X134533Y236436D01*
X134446Y236000D01*
X134660Y234927D01*
X135267Y234017D01*
X139696Y229589D01*
Y188250D01*
X139910Y187177D01*
X140517Y186267D01*
X146017Y180767D01*
X146927Y180160D01*
X148000Y179946D01*
X194689D01*
X199817Y174817D01*
X200511Y174354D01*
X200800Y173396D01*
X200845Y172891D01*
X198078Y170124D01*
X150164D01*
X149582Y171207D01*
X149599Y171384D01*
X149720Y171858D01*
X150100Y172427D01*
X150313Y173500D01*
X150100Y174573D01*
X149492Y175483D01*
X148582Y176090D01*
X147509Y176304D01*
X146437Y176090D01*
X145527Y175483D01*
X144919Y174573D01*
X144706Y173500D01*
X144919Y172427D01*
X145299Y171858D01*
X145441Y171000D01*
X145299Y170142D01*
X144919Y169573D01*
X144706Y168500D01*
X144919Y167427D01*
X145527Y166517D01*
X146437Y165910D01*
X147509Y165696D01*
X148582Y165910D01*
X149388Y166448D01*
X149511Y166496D01*
X149631Y166612D01*
X149723Y166691D01*
X149810Y166756D01*
X149889Y166807D01*
X149961Y166846D01*
X150025Y166874D01*
X150031Y166876D01*
X198750D01*
X199898Y167352D01*
X206398Y173852D01*
X206874Y175000D01*
Y209000D01*
X206398Y210148D01*
X204874Y211672D01*
Y238249D01*
X206827Y240202D01*
X207997Y239577D01*
D02*
G37*
G36*
X334931Y171629D02*
X334824Y171512D01*
X334728Y171387D01*
X334644Y171255D01*
X334571Y171115D01*
X334509Y170968D01*
X334459Y170813D01*
X334421Y170651D01*
X334394Y170481D01*
X334379Y170303D01*
X334375Y170118D01*
X332643Y171850D01*
X332828Y171854D01*
X333005Y171870D01*
X333176Y171896D01*
X333338Y171935D01*
X333493Y171985D01*
X333640Y172046D01*
X333780Y172119D01*
X333912Y172203D01*
X334036Y172299D01*
X334153Y172407D01*
X334931Y171629D01*
D02*
G37*
G36*
X148902Y169587D02*
X149046Y169464D01*
X149191Y169355D01*
X149337Y169261D01*
X149484Y169181D01*
X149632Y169116D01*
X149782Y169065D01*
X149932Y169029D01*
X150084Y169007D01*
X150237Y169000D01*
Y168000D01*
X150084Y167993D01*
X149932Y167971D01*
X149782Y167935D01*
X149632Y167884D01*
X149484Y167819D01*
X149337Y167739D01*
X149191Y167645D01*
X149046Y167536D01*
X148902Y167413D01*
X148759Y167275D01*
Y169725D01*
X148902Y169587D01*
D02*
G37*
G36*
X371566Y182387D02*
X371580Y182354D01*
X372880Y181040D01*
X375951Y177750D01*
X377287Y176130D01*
X377725Y175519D01*
X378015Y175044D01*
X378137Y174775D01*
X378133Y174750D01*
Y168034D01*
X372667Y162569D01*
X348000D01*
X347124Y163288D01*
Y168218D01*
X354648Y175743D01*
X355124Y176891D01*
Y182596D01*
X354648Y183744D01*
X352731Y185661D01*
X353257Y186931D01*
X367022D01*
X371566Y182387D01*
D02*
G37*
G36*
X76Y158281D02*
X90Y158092D01*
X116Y157913D01*
X152Y157743D01*
X200Y157583D01*
X259Y157432D01*
X328Y157290D01*
X409Y157158D01*
X501Y157036D01*
X604Y156922D01*
X-103Y156215D01*
X-216Y156318D01*
X-339Y156410D01*
X-471Y156491D01*
X-613Y156561D01*
X-763Y156619D01*
X-924Y156667D01*
X-1094Y156704D01*
X-1273Y156729D01*
X-1462Y156744D01*
X-1660Y156747D01*
X72Y158480D01*
X76Y158281D01*
D02*
G37*
G36*
X-3193Y163856D02*
X-3304Y163299D01*
X-3090Y162226D01*
X-2760Y161117D01*
X-3435Y160630D01*
X-3661Y160480D01*
X-4268Y159570D01*
X-4482Y158497D01*
X-4268Y157424D01*
X-3661Y156515D01*
X-3479Y156394D01*
X-3684Y155432D01*
X-3821Y155094D01*
X-4898Y154648D01*
X-6398Y153148D01*
X-6874Y152000D01*
Y151335D01*
X-8144Y150769D01*
X-8625Y151090D01*
X-9698Y151304D01*
X-10771Y151090D01*
X-11681Y150483D01*
X-12288Y149573D01*
X-12502Y148500D01*
X-12288Y147427D01*
X-11681Y146517D01*
X-10771Y145910D01*
X-9698Y145696D01*
X-9294Y145777D01*
X-8406Y145578D01*
X-7925Y144853D01*
X-7840Y144427D01*
X-7233Y143517D01*
X-6766Y143206D01*
X-6758Y143185D01*
Y141815D01*
X-6766Y141794D01*
X-7233Y141483D01*
X-7840Y140573D01*
X-8054Y139500D01*
X-7840Y138427D01*
X-7233Y137517D01*
X-7039Y137388D01*
X-6403Y136674D01*
X-6715Y135760D01*
X-6840Y135573D01*
X-7054Y134500D01*
X-6840Y133427D01*
X-6233Y132517D01*
X-5323Y131910D01*
X-4250Y131696D01*
X-3177Y131910D01*
X-2267Y132517D01*
X-1660Y133427D01*
X-1644Y133507D01*
X-374Y133382D01*
Y101576D01*
X102Y100428D01*
X4119Y96411D01*
X4122Y96405D01*
X4148Y96340D01*
X4171Y96262D01*
X4191Y96169D01*
X4206Y96063D01*
X4215Y95941D01*
X4218Y95774D01*
X4271Y95653D01*
X4460Y94703D01*
X5068Y93793D01*
X5897Y93239D01*
X5989Y93134D01*
X6284Y91830D01*
X2885Y88431D01*
X2879Y88428D01*
X2813Y88403D01*
X2736Y88379D01*
X2643Y88360D01*
X2537Y88344D01*
X2415Y88335D01*
X2248Y88332D01*
X2127Y88279D01*
X1177Y88090D01*
X267Y87483D01*
X-340Y86573D01*
X-554Y85500D01*
X-340Y84427D01*
X267Y83517D01*
X1177Y82910D01*
X2250Y82696D01*
X3034Y81557D01*
X3160Y80927D01*
X3424Y80531D01*
X3664Y79625D01*
X3424Y78719D01*
X3160Y78323D01*
X2946Y77250D01*
X3160Y76177D01*
X3767Y75267D01*
X4677Y74660D01*
X5750Y74446D01*
X6823Y74660D01*
X7733Y75267D01*
X8340Y76177D01*
X8554Y77250D01*
X8340Y78323D01*
X8076Y78719D01*
X7836Y79625D01*
X8076Y80531D01*
X8340Y80927D01*
X8554Y82000D01*
X8340Y83073D01*
X7733Y83982D01*
X6823Y84590D01*
X6193Y84716D01*
X5822Y84927D01*
X5650Y85059D01*
X5428Y86382D01*
X8006Y88960D01*
X9504Y88662D01*
X9767Y88267D01*
X10677Y87660D01*
X11750Y87446D01*
X12356Y87567D01*
X13626Y86785D01*
Y67923D01*
X11141Y65437D01*
X11129Y65443D01*
X11050Y65494D01*
X10964Y65559D01*
X10871Y65638D01*
X10752Y65754D01*
X10629Y65802D01*
X9823Y66340D01*
X8750Y66554D01*
X7677Y66340D01*
X6767Y65733D01*
X6160Y64823D01*
X5946Y63750D01*
X6160Y62677D01*
X6767Y61767D01*
X7677Y61160D01*
X8750Y60946D01*
X9823Y61160D01*
X10629Y61698D01*
X10752Y61746D01*
X10871Y61862D01*
X10964Y61941D01*
X11050Y62006D01*
X11129Y62057D01*
X11201Y62096D01*
X11265Y62124D01*
X11272Y62126D01*
X11750D01*
X12898Y62602D01*
X16398Y66102D01*
X16874Y67250D01*
Y93336D01*
X18144Y93862D01*
X20378Y91628D01*
X20378Y91628D01*
X21122Y91131D01*
X22000Y90956D01*
X28500D01*
X29378Y91131D01*
X30122Y91628D01*
X32700Y94206D01*
X56050D01*
X59128Y91128D01*
X59872Y90631D01*
X60750Y90456D01*
X60750Y90456D01*
X65078D01*
X65463Y89186D01*
X64924Y88826D01*
X59216Y83118D01*
X52750D01*
X50409Y82652D01*
X48424Y81326D01*
X20466Y53368D01*
X8250D01*
X5909Y52902D01*
X4042Y51654D01*
X3641Y51722D01*
X2740Y52187D01*
X2590Y52936D01*
X1983Y53846D01*
X1073Y54454D01*
X123Y54643D01*
X2Y54696D01*
X-165Y54698D01*
X-287Y54708D01*
X-393Y54723D01*
X-485Y54743D01*
X-564Y54766D01*
X-629Y54792D01*
X-635Y54795D01*
X-14376Y68536D01*
Y159827D01*
X-9078Y165126D01*
X-3998D01*
X-3193Y163856D01*
D02*
G37*
G36*
X66626Y157078D02*
Y149102D01*
X65356Y148690D01*
X62648Y151398D01*
X61500Y151874D01*
X46500D01*
X45352Y151398D01*
X31762Y137808D01*
X31283Y137973D01*
X30582Y138998D01*
X30585Y139165D01*
X30594Y139287D01*
X30610Y139393D01*
X30629Y139486D01*
X30653Y139564D01*
X30678Y139629D01*
X30681Y139635D01*
X47398Y156352D01*
X47874Y157500D01*
Y174034D01*
X48225Y174317D01*
X49047Y174657D01*
X66626Y157078D01*
D02*
G37*
G36*
X24532Y148825D02*
X24429Y148712D01*
X24337Y148589D01*
X24256Y148457D01*
X24187Y148315D01*
X24128Y148164D01*
X24080Y148004D01*
X24044Y147834D01*
X24018Y147655D01*
X24003Y147466D01*
X24000Y147268D01*
X22267Y149000D01*
X22466Y149003D01*
X22655Y149018D01*
X22834Y149044D01*
X23004Y149080D01*
X23164Y149128D01*
X23315Y149187D01*
X23457Y149256D01*
X23589Y149337D01*
X23712Y149429D01*
X23825Y149532D01*
X24532Y148825D01*
D02*
G37*
G36*
X355750Y146775D02*
X355607Y146913D01*
X355464Y147036D01*
X355319Y147145D01*
X355173Y147239D01*
X355025Y147319D01*
X354877Y147384D01*
X354728Y147435D01*
X354577Y147471D01*
X354426Y147493D01*
X354273Y147500D01*
Y148500D01*
X354426Y148507D01*
X354577Y148529D01*
X354728Y148565D01*
X354877Y148616D01*
X355025Y148681D01*
X355173Y148761D01*
X355319Y148855D01*
X355464Y148964D01*
X355607Y149087D01*
X355750Y149225D01*
Y146775D01*
D02*
G37*
G36*
X-4743Y148074D02*
X-4721Y147923D01*
X-4685Y147772D01*
X-4634Y147623D01*
X-4569Y147474D01*
X-4489Y147327D01*
X-4395Y147181D01*
X-4286Y147036D01*
X-4163Y146892D01*
X-4025Y146750D01*
X-6475D01*
X-6337Y146892D01*
X-6214Y147036D01*
X-6105Y147181D01*
X-6011Y147327D01*
X-5931Y147474D01*
X-5866Y147623D01*
X-5815Y147772D01*
X-5779Y147923D01*
X-5757Y148074D01*
X-5750Y148227D01*
X-4750D01*
X-4743Y148074D01*
D02*
G37*
G36*
X23337Y145858D02*
X23214Y145714D01*
X23105Y145569D01*
X23011Y145423D01*
X22931Y145276D01*
X22866Y145127D01*
X22815Y144978D01*
X22779Y144827D01*
X22757Y144676D01*
X22750Y144523D01*
X21750D01*
X21743Y144676D01*
X21721Y144827D01*
X21685Y144978D01*
X21634Y145127D01*
X21569Y145276D01*
X21489Y145423D01*
X21395Y145569D01*
X21286Y145714D01*
X21163Y145858D01*
X21025Y146000D01*
X23475D01*
X23337Y145858D01*
D02*
G37*
G36*
X59233Y143250D02*
X59034Y143247D01*
X58845Y143232D01*
X58666Y143207D01*
X58496Y143170D01*
X58336Y143122D01*
X58185Y143063D01*
X58043Y142994D01*
X57911Y142913D01*
X57788Y142821D01*
X57675Y142718D01*
X56968Y143425D01*
X57071Y143538D01*
X57163Y143661D01*
X57244Y143793D01*
X57313Y143935D01*
X57372Y144086D01*
X57420Y144246D01*
X57456Y144416D01*
X57482Y144595D01*
X57497Y144784D01*
X57500Y144983D01*
X59233Y143250D01*
D02*
G37*
G36*
X43102Y175023D02*
X44626Y173499D01*
Y158173D01*
X28385Y141931D01*
X28379Y141928D01*
X28313Y141903D01*
X28235Y141880D01*
X28143Y141860D01*
X28036Y141844D01*
X27915Y141835D01*
X27748Y141832D01*
X27627Y141779D01*
X26677Y141590D01*
X25767Y140983D01*
X25304Y140289D01*
X25144Y140240D01*
X23874Y141037D01*
Y144728D01*
X23876Y144734D01*
X23904Y144799D01*
X23943Y144871D01*
X23994Y144950D01*
X24059Y145036D01*
X24138Y145129D01*
X24254Y145248D01*
X24302Y145371D01*
X24840Y146177D01*
X25029Y147127D01*
X25082Y147248D01*
X25085Y147415D01*
X25094Y147537D01*
X25110Y147643D01*
X25129Y147736D01*
X25153Y147814D01*
X25178Y147879D01*
X25181Y147885D01*
X33398Y156102D01*
X33874Y157250D01*
Y167249D01*
X41889Y175265D01*
X43102Y175023D01*
D02*
G37*
G36*
X30032Y140575D02*
X29929Y140462D01*
X29837Y140339D01*
X29756Y140207D01*
X29687Y140065D01*
X29628Y139914D01*
X29580Y139754D01*
X29543Y139584D01*
X29518Y139405D01*
X29503Y139216D01*
X29500Y139017D01*
X27768Y140750D01*
X27966Y140753D01*
X28155Y140768D01*
X28334Y140794D01*
X28504Y140830D01*
X28664Y140878D01*
X28815Y140936D01*
X28957Y141006D01*
X29089Y141087D01*
X29212Y141179D01*
X29325Y141282D01*
X30032Y140575D01*
D02*
G37*
G36*
X330638Y141278D02*
X330789Y141159D01*
X330939Y141054D01*
X331090Y140962D01*
X331241Y140885D01*
X331392Y140822D01*
X331543Y140773D01*
X331694Y140738D01*
X331845Y140717D01*
X331996Y140710D01*
X332044Y139710D01*
X331890Y139703D01*
X331738Y139680D01*
X331588Y139643D01*
X331440Y139591D01*
X331295Y139524D01*
X331151Y139441D01*
X331010Y139344D01*
X330871Y139232D01*
X330734Y139106D01*
X330600Y138964D01*
X330488Y141411D01*
X330638Y141278D01*
D02*
G37*
G36*
X-3721Y140385D02*
X-3600Y140252D01*
X-3474Y140134D01*
X-3343Y140032D01*
X-3209Y139946D01*
X-3069Y139875D01*
X-2926Y139820D01*
X-2777Y139781D01*
X-2625Y139758D01*
X-2468Y139750D01*
X-2619Y138750D01*
X-2766Y138744D01*
X-2915Y138724D01*
X-3067Y138692D01*
X-3220Y138647D01*
X-3376Y138590D01*
X-3534Y138519D01*
X-3694Y138436D01*
X-3857Y138340D01*
X-4188Y138109D01*
X-3838Y140534D01*
X-3721Y140385D01*
D02*
G37*
G36*
X376454Y141254D02*
X376060Y141176D01*
X375571Y140971D01*
X374988Y140638D01*
X374311Y140177D01*
X373540Y139588D01*
X371714Y138029D01*
X368268Y134732D01*
X364732Y138268D01*
X365959Y139511D01*
X370177Y144311D01*
X370638Y144988D01*
X370971Y145571D01*
X371176Y146060D01*
X371254Y146454D01*
X376454Y141254D01*
D02*
G37*
G36*
X54795Y147356D02*
X54784Y147330D01*
X27891Y120437D01*
X27488Y120326D01*
X26277Y120619D01*
X26133Y120894D01*
X26304Y121750D01*
X26090Y122823D01*
X25483Y123733D01*
X24573Y124340D01*
X23500Y124554D01*
X22427Y124340D01*
X21517Y123733D01*
X20910Y122823D01*
X20696Y121750D01*
X20866Y120894D01*
X20437Y120073D01*
X20086Y119624D01*
X12281D01*
X11481Y120423D01*
X11478Y120429D01*
X11453Y120495D01*
X11430Y120573D01*
X11410Y120665D01*
X11394Y120772D01*
X11385Y120893D01*
X11382Y121060D01*
X11329Y121181D01*
X11141Y122131D01*
X10533Y123041D01*
Y124518D01*
X11141Y125427D01*
X11354Y126500D01*
X11141Y127573D01*
X10533Y128483D01*
X9623Y129091D01*
X8550Y129304D01*
X8194Y129233D01*
X6924Y130132D01*
Y131628D01*
X14365Y139069D01*
X14444Y139102D01*
X16398Y141056D01*
X16874Y142204D01*
Y144424D01*
X18490Y146040D01*
X19965Y145719D01*
X20198Y145371D01*
X20246Y145248D01*
X20362Y145129D01*
X20441Y145036D01*
X20506Y144950D01*
X20557Y144871D01*
X20596Y144799D01*
X20624Y144735D01*
X20626Y144728D01*
Y139250D01*
X21102Y138102D01*
X24852Y134352D01*
X26000Y133876D01*
X31750D01*
X32898Y134352D01*
X47172Y148626D01*
X54325D01*
X54795Y147356D01*
D02*
G37*
G36*
X55507Y134165D02*
X55528Y134090D01*
X55563Y134007D01*
X55613Y133916D01*
X55677Y133817D01*
X55756Y133709D01*
X55957Y133470D01*
X56215Y133199D01*
X54801Y131785D01*
X54661Y131921D01*
X54291Y132244D01*
X54183Y132323D01*
X54084Y132387D01*
X53993Y132437D01*
X53910Y132472D01*
X53835Y132493D01*
X53767Y132500D01*
X55500Y134233D01*
X55507Y134165D01*
D02*
G37*
G36*
X426376Y153944D02*
Y152048D01*
X423141Y148813D01*
X422666Y147665D01*
Y132212D01*
X416328Y125874D01*
X402839D01*
X402163Y125594D01*
X401444Y126670D01*
X402489Y127716D01*
X405950D01*
X406633Y127851D01*
X407211Y128238D01*
X409262Y130289D01*
X409649Y130868D01*
X409784Y131550D01*
Y139011D01*
X425203Y154430D01*
X426376Y153944D01*
D02*
G37*
G36*
X226003Y122284D02*
X226018Y122095D01*
X226043Y121916D01*
X226080Y121746D01*
X226128Y121586D01*
X226187Y121435D01*
X226256Y121293D01*
X226337Y121161D01*
X226429Y121038D01*
X226532Y120925D01*
X225825Y120218D01*
X225712Y120321D01*
X225589Y120413D01*
X225457Y120494D01*
X225315Y120563D01*
X225164Y120622D01*
X225004Y120670D01*
X224834Y120707D01*
X224655Y120732D01*
X224466Y120747D01*
X224268Y120750D01*
X226000Y122483D01*
X226003Y122284D01*
D02*
G37*
G36*
X48250Y119275D02*
X48108Y119413D01*
X47964Y119536D01*
X47819Y119645D01*
X47673Y119739D01*
X47526Y119819D01*
X47377Y119884D01*
X47228Y119935D01*
X47077Y119971D01*
X46926Y119993D01*
X46773Y120000D01*
Y121000D01*
X46926Y121007D01*
X47077Y121029D01*
X47228Y121065D01*
X47377Y121116D01*
X47526Y121181D01*
X47673Y121261D01*
X47819Y121355D01*
X47964Y121464D01*
X48108Y121587D01*
X48250Y121725D01*
Y119275D01*
D02*
G37*
G36*
X10303Y120842D02*
X10318Y120653D01*
X10344Y120474D01*
X10380Y120304D01*
X10428Y120144D01*
X10487Y119993D01*
X10556Y119851D01*
X10637Y119719D01*
X10729Y119597D01*
X10832Y119483D01*
X10125Y118776D01*
X10012Y118879D01*
X9889Y118971D01*
X9757Y119052D01*
X9615Y119122D01*
X9464Y119180D01*
X9304Y119228D01*
X9134Y119265D01*
X8955Y119290D01*
X8766Y119305D01*
X8568Y119308D01*
X10300Y121041D01*
X10303Y120842D01*
D02*
G37*
G36*
X230983Y119250D02*
X230784Y119247D01*
X230595Y119232D01*
X230416Y119206D01*
X230246Y119170D01*
X230086Y119122D01*
X229935Y119064D01*
X229793Y118994D01*
X229661Y118913D01*
X229538Y118821D01*
X229425Y118718D01*
X228718Y119425D01*
X228821Y119538D01*
X228913Y119661D01*
X228994Y119793D01*
X229063Y119935D01*
X229122Y120086D01*
X229170Y120246D01*
X229207Y120416D01*
X229232Y120595D01*
X229247Y120784D01*
X229250Y120983D01*
X230983Y119250D01*
D02*
G37*
G36*
X404464Y210924D02*
X406449Y209598D01*
X408790Y209132D01*
X416750D01*
X419091Y209598D01*
X421076Y210924D01*
X425034Y214883D01*
X427176D01*
X436133Y205926D01*
Y187000D01*
X436598Y184659D01*
X437924Y182674D01*
X444632Y175966D01*
Y167750D01*
X445098Y165409D01*
X446424Y163424D01*
X449883Y159966D01*
Y134250D01*
X450348Y131909D01*
X451674Y129924D01*
X451883Y129716D01*
Y116824D01*
X450612Y116438D01*
X450483Y116632D01*
X449573Y117240D01*
X448500Y117454D01*
X447427Y117240D01*
X446517Y116632D01*
X445910Y115723D01*
X445696Y114650D01*
X444826Y114144D01*
X444751Y114159D01*
X444374Y114433D01*
Y149500D01*
X443898Y150648D01*
X431624Y162922D01*
Y165921D01*
X433898Y168195D01*
X434374Y169343D01*
Y193675D01*
X433898Y194823D01*
X430573Y198148D01*
X429425Y198624D01*
X425075D01*
X423927Y198148D01*
X410852Y185073D01*
X410376Y183925D01*
Y180372D01*
X407935Y177931D01*
X407929Y177928D01*
X407864Y177903D01*
X407786Y177880D01*
X407694Y177860D01*
X407587Y177845D01*
X407483Y177836D01*
X407464Y177835D01*
X407299Y177832D01*
X406170Y178425D01*
X406090Y178823D01*
X405552Y179629D01*
X405504Y179751D01*
X405388Y179871D01*
X405309Y179964D01*
X405244Y180050D01*
X405193Y180129D01*
X405154Y180201D01*
X405126Y180265D01*
X405124Y180272D01*
Y203750D01*
X404648Y204898D01*
X397624Y211922D01*
Y215969D01*
X398894Y216495D01*
X404464Y210924D01*
D02*
G37*
G36*
X401067Y117175D02*
X400964Y117062D01*
X400872Y116939D01*
X400791Y116807D01*
X400722Y116665D01*
X400663Y116515D01*
X400615Y116354D01*
X400579Y116184D01*
X400553Y116005D01*
X400538Y115816D01*
X400535Y115618D01*
X398803Y117350D01*
X399001Y117353D01*
X399190Y117368D01*
X399369Y117394D01*
X399539Y117430D01*
X399700Y117478D01*
X399850Y117537D01*
X399992Y117606D01*
X400124Y117687D01*
X400247Y117779D01*
X400360Y117882D01*
X401067Y117175D01*
D02*
G37*
G36*
X236116Y127366D02*
X236116Y127366D01*
X237439Y126482D01*
X239000Y126172D01*
X239000Y126172D01*
X249671D01*
X250347Y124902D01*
X250114Y124553D01*
X249901Y123480D01*
X250114Y122407D01*
X250722Y121498D01*
X251632Y120890D01*
X252705Y120676D01*
X253402Y120815D01*
X254672Y120076D01*
Y116689D01*
X253116Y115134D01*
X253064Y115055D01*
X251586Y115130D01*
X251357Y115473D01*
X250448Y116081D01*
X249375Y116294D01*
X248302Y116081D01*
X247392Y115473D01*
X246784Y114563D01*
X246571Y113490D01*
X246784Y112417D01*
X247392Y111508D01*
X248302Y110900D01*
X249375Y110686D01*
X250448Y110900D01*
X250652Y111036D01*
X251922Y110357D01*
Y96590D01*
X251079Y96103D01*
X250682Y96033D01*
X248233Y98483D01*
X247323Y99090D01*
X246250Y99304D01*
X238750D01*
X237677Y99090D01*
X236767Y98483D01*
X236160Y97573D01*
X235946Y96500D01*
X236160Y95427D01*
X236767Y94517D01*
X237677Y93910D01*
X238750Y93696D01*
X245089D01*
X256017Y82767D01*
X256927Y82160D01*
X258000Y81946D01*
X265339D01*
X268696Y78589D01*
Y76234D01*
X267453Y75374D01*
X265501D01*
X263727Y77148D01*
X262578Y77624D01*
X253172D01*
X251374Y79422D01*
Y81500D01*
X250898Y82648D01*
X243648Y89898D01*
X242500Y90374D01*
X236501D01*
X229874Y97001D01*
Y100336D01*
X230323Y100687D01*
X231144Y101117D01*
X232000Y100946D01*
X233073Y101160D01*
X233983Y101767D01*
X234590Y102677D01*
X234804Y103750D01*
X234590Y104823D01*
X233983Y105733D01*
X233073Y106340D01*
X232000Y106554D01*
X231144Y106383D01*
X230323Y106813D01*
X229874Y107164D01*
Y117577D01*
X230365Y118069D01*
X230371Y118072D01*
X230437Y118097D01*
X230515Y118120D01*
X230607Y118140D01*
X230714Y118156D01*
X230835Y118165D01*
X231002Y118168D01*
X231123Y118221D01*
X232073Y118410D01*
X232983Y119017D01*
X233591Y119927D01*
X233804Y121000D01*
X233591Y122073D01*
X232983Y122983D01*
X232073Y123590D01*
X231000Y123804D01*
X229927Y123590D01*
X229017Y122983D01*
X228937Y122862D01*
X227395Y122671D01*
X226946Y123043D01*
X226840Y123573D01*
X226233Y124483D01*
X225323Y125091D01*
X224250Y125304D01*
X223177Y125091D01*
X222267Y124483D01*
X221660Y123573D01*
X221446Y122500D01*
X221660Y121427D01*
X222267Y120517D01*
X223177Y119910D01*
X224127Y119721D01*
X224248Y119668D01*
X224415Y119665D01*
X224537Y119656D01*
X224626Y119643D01*
Y95500D01*
X225102Y94352D01*
X233852Y85602D01*
X235000Y85126D01*
X240999D01*
X246126Y79999D01*
Y77922D01*
X246602Y76774D01*
X249084Y74291D01*
X248598Y73118D01*
X242750D01*
X240409Y72652D01*
X238424Y71326D01*
X232136Y65038D01*
X230852Y65244D01*
X230550Y70528D01*
X230543Y72294D01*
X230534Y72316D01*
X230228Y73850D01*
X229344Y75174D01*
X229344Y75174D01*
X214078Y90439D01*
Y127061D01*
X219189Y132172D01*
X231311D01*
X236116Y127366D01*
D02*
G37*
G36*
X406732Y116575D02*
X406629Y116462D01*
X406537Y116339D01*
X406456Y116207D01*
X406386Y116065D01*
X406328Y115914D01*
X406280Y115754D01*
X406244Y115584D01*
X406218Y115405D01*
X406203Y115216D01*
X406200Y115017D01*
X404468Y116750D01*
X404666Y116753D01*
X404855Y116768D01*
X405034Y116793D01*
X405204Y116830D01*
X405364Y116878D01*
X405515Y116937D01*
X405657Y117006D01*
X405789Y117087D01*
X405912Y117179D01*
X406025Y117282D01*
X406732Y116575D01*
D02*
G37*
G36*
X69788Y116179D02*
X69911Y116087D01*
X70043Y116006D01*
X70185Y115936D01*
X70336Y115878D01*
X70496Y115830D01*
X70666Y115794D01*
X70845Y115768D01*
X71034Y115753D01*
X71233Y115750D01*
X69500Y114017D01*
X69497Y114216D01*
X69482Y114405D01*
X69457Y114584D01*
X69420Y114754D01*
X69372Y114914D01*
X69314Y115065D01*
X69244Y115207D01*
X69163Y115339D01*
X69071Y115462D01*
X68968Y115575D01*
X69675Y116282D01*
X69788Y116179D01*
D02*
G37*
G36*
X404432Y113250D02*
X404234Y113247D01*
X404045Y113232D01*
X403866Y113207D01*
X403696Y113170D01*
X403536Y113122D01*
X403385Y113063D01*
X403243Y112994D01*
X403111Y112913D01*
X402988Y112821D01*
X402875Y112718D01*
X402168Y113425D01*
X402271Y113538D01*
X402363Y113661D01*
X402444Y113793D01*
X402513Y113935D01*
X402572Y114086D01*
X402620Y114246D01*
X402657Y114416D01*
X402682Y114595D01*
X402697Y114784D01*
X402700Y114983D01*
X404432Y113250D01*
D02*
G37*
G36*
X441127Y148827D02*
Y113522D01*
X441124Y113515D01*
X441096Y113451D01*
X441057Y113379D01*
X441006Y113300D01*
X440941Y113214D01*
X440862Y113121D01*
X440747Y113003D01*
X440629Y112888D01*
X440536Y112809D01*
X440450Y112744D01*
X440371Y112693D01*
X440299Y112654D01*
X440235Y112626D01*
X440228Y112623D01*
X433173D01*
X422398Y123398D01*
X421250Y123874D01*
X420579D01*
X420093Y125047D01*
X425437Y130391D01*
X425913Y131539D01*
Y146992D01*
X429148Y150227D01*
X429624Y151376D01*
Y158671D01*
X430797Y159157D01*
X441127Y148827D01*
D02*
G37*
G36*
X425267Y189767D02*
X426177Y189160D01*
X426716Y189053D01*
Y171989D01*
X424488Y169762D01*
X424101Y169183D01*
X423966Y168500D01*
Y158239D01*
X406738Y141012D01*
X406352Y140433D01*
X406216Y139750D01*
Y132289D01*
X405211Y131284D01*
X401750D01*
X401067Y131148D01*
X400488Y130762D01*
X387738Y118012D01*
X387351Y117433D01*
X387216Y116750D01*
Y114239D01*
X386445Y113468D01*
X386335Y113426D01*
X386228Y113325D01*
X386148Y113257D01*
X386075Y113202D01*
X386010Y113161D01*
X385954Y113131D01*
X385906Y113110D01*
X385866Y113096D01*
X385833Y113089D01*
X385805Y113085D01*
X385725Y113082D01*
X385601Y113024D01*
X384677Y112840D01*
X384015Y112398D01*
X384001Y112398D01*
X383992Y112399D01*
X383989Y112398D01*
X383976Y112398D01*
X383941Y112384D01*
X383931Y112381D01*
X383885Y112371D01*
X383830Y112363D01*
X383416Y112334D01*
X383251Y112332D01*
X383150Y112289D01*
X380750D01*
X380750Y112289D01*
X380731Y112285D01*
X380105Y113456D01*
X380384Y113734D01*
X380384Y113734D01*
X381268Y115058D01*
X381578Y116618D01*
X381578Y116618D01*
Y121061D01*
X421134Y160616D01*
X421134Y160616D01*
X422018Y161939D01*
X422328Y163500D01*
Y172500D01*
X422238Y172953D01*
X422495Y174172D01*
X423161Y174328D01*
X423573Y174410D01*
X424483Y175017D01*
X425090Y175927D01*
X425304Y177000D01*
X425090Y178073D01*
X424552Y178879D01*
X424504Y179002D01*
X424388Y179121D01*
X424309Y179214D01*
X424244Y179300D01*
X424193Y179379D01*
X424154Y179451D01*
X424126Y179515D01*
X424124Y179522D01*
Y181904D01*
X423648Y183052D01*
X423124Y183576D01*
Y189203D01*
X423907Y189883D01*
X425267Y189767D01*
D02*
G37*
G36*
X443257Y113574D02*
X443279Y113422D01*
X443315Y113272D01*
X443366Y113123D01*
X443431Y112974D01*
X443511Y112827D01*
X443605Y112681D01*
X443714Y112536D01*
X443837Y112392D01*
X443975Y112250D01*
X441525D01*
X441663Y112392D01*
X441786Y112536D01*
X441895Y112681D01*
X441989Y112827D01*
X442069Y112974D01*
X442134Y113123D01*
X442185Y113272D01*
X442221Y113422D01*
X442243Y113574D01*
X442250Y113727D01*
X443250D01*
X443257Y113574D01*
D02*
G37*
G36*
X388141Y111580D02*
X388018Y111451D01*
X387908Y111320D01*
X387811Y111190D01*
X387727Y111059D01*
X387657Y110928D01*
X387599Y110797D01*
X387555Y110665D01*
X387523Y110533D01*
X387505Y110400D01*
X387500Y110267D01*
X385768Y112000D01*
X385900Y112005D01*
X386033Y112023D01*
X386165Y112055D01*
X386297Y112099D01*
X386428Y112157D01*
X386559Y112227D01*
X386690Y112311D01*
X386820Y112408D01*
X386950Y112518D01*
X387080Y112641D01*
X388141Y111580D01*
D02*
G37*
G36*
X441500Y109775D02*
X441358Y109913D01*
X441214Y110036D01*
X441069Y110145D01*
X440923Y110239D01*
X440776Y110319D01*
X440628Y110384D01*
X440478Y110435D01*
X440327Y110471D01*
X440176Y110493D01*
X440023Y110500D01*
Y111500D01*
X440176Y111507D01*
X440327Y111529D01*
X440478Y111565D01*
X440628Y111616D01*
X440776Y111681D01*
X440923Y111761D01*
X441069Y111855D01*
X441214Y111964D01*
X441358Y112087D01*
X441500Y112225D01*
Y109775D01*
D02*
G37*
G36*
X384500Y109025D02*
X384448Y109068D01*
X384380Y109106D01*
X384296Y109140D01*
X384197Y109169D01*
X384081Y109194D01*
X383949Y109214D01*
X383638Y109241D01*
X383264Y109250D01*
Y111250D01*
X383459Y111252D01*
X383949Y111286D01*
X384081Y111306D01*
X384197Y111331D01*
X384296Y111360D01*
X384380Y111394D01*
X384448Y111432D01*
X384500Y111475D01*
Y109025D01*
D02*
G37*
G36*
X73532Y109575D02*
X73429Y109462D01*
X73337Y109339D01*
X73256Y109207D01*
X73186Y109065D01*
X73128Y108914D01*
X73080Y108754D01*
X73043Y108584D01*
X73018Y108405D01*
X73003Y108216D01*
X73000Y108018D01*
X71267Y109750D01*
X71466Y109753D01*
X71655Y109768D01*
X71834Y109794D01*
X72004Y109830D01*
X72164Y109878D01*
X72315Y109937D01*
X72457Y110006D01*
X72589Y110087D01*
X72712Y110179D01*
X72825Y110282D01*
X73532Y109575D01*
D02*
G37*
G36*
X69788Y110179D02*
X69911Y110087D01*
X70043Y110006D01*
X70185Y109937D01*
X70336Y109878D01*
X70496Y109830D01*
X70666Y109794D01*
X70845Y109768D01*
X71034Y109753D01*
X71233Y109750D01*
X69500Y108018D01*
X69497Y108216D01*
X69482Y108405D01*
X69457Y108584D01*
X69420Y108754D01*
X69372Y108914D01*
X69314Y109065D01*
X69244Y109207D01*
X69163Y109339D01*
X69071Y109462D01*
X68968Y109575D01*
X69675Y110282D01*
X69788Y110179D01*
D02*
G37*
G36*
X441288Y107429D02*
X441411Y107337D01*
X441543Y107256D01*
X441685Y107186D01*
X441836Y107128D01*
X441996Y107080D01*
X442166Y107043D01*
X442346Y107018D01*
X442534Y107003D01*
X442733Y107000D01*
X441000Y105267D01*
X440997Y105465D01*
X440982Y105654D01*
X440957Y105834D01*
X440920Y106004D01*
X440872Y106164D01*
X440814Y106315D01*
X440744Y106457D01*
X440663Y106589D01*
X440571Y106711D01*
X440468Y106825D01*
X441175Y107532D01*
X441288Y107429D01*
D02*
G37*
G36*
X5589Y106397D02*
X5711Y106305D01*
X5843Y106224D01*
X5985Y106154D01*
X6136Y106096D01*
X6296Y106048D01*
X6466Y106011D01*
X6646Y105986D01*
X6834Y105971D01*
X7033Y105968D01*
X5300Y104235D01*
X5297Y104434D01*
X5282Y104623D01*
X5257Y104802D01*
X5220Y104972D01*
X5172Y105132D01*
X5114Y105283D01*
X5044Y105425D01*
X4963Y105557D01*
X4871Y105680D01*
X4768Y105793D01*
X5476Y106500D01*
X5589Y106397D01*
D02*
G37*
G36*
X24642Y106087D02*
X24786Y105964D01*
X24931Y105855D01*
X25077Y105761D01*
X25224Y105681D01*
X25373Y105616D01*
X25522Y105565D01*
X25673Y105529D01*
X25824Y105507D01*
X25977Y105500D01*
Y104500D01*
X25824Y104493D01*
X25673Y104471D01*
X25522Y104435D01*
X25373Y104384D01*
X25224Y104319D01*
X25077Y104239D01*
X24931Y104145D01*
X24786Y104036D01*
X24642Y103913D01*
X24500Y103775D01*
Y106225D01*
X24642Y106087D01*
D02*
G37*
G36*
X25532Y100075D02*
X25429Y99962D01*
X25337Y99839D01*
X25256Y99707D01*
X25187Y99565D01*
X25128Y99414D01*
X25080Y99254D01*
X25043Y99084D01*
X25018Y98905D01*
X25003Y98716D01*
X25000Y98518D01*
X23268Y100250D01*
X23466Y100253D01*
X23655Y100268D01*
X23834Y100294D01*
X24004Y100330D01*
X24164Y100378D01*
X24315Y100437D01*
X24457Y100506D01*
X24589Y100587D01*
X24712Y100679D01*
X24825Y100782D01*
X25532Y100075D01*
D02*
G37*
G36*
X5589Y97955D02*
X5711Y97863D01*
X5843Y97782D01*
X5985Y97713D01*
X6136Y97654D01*
X6296Y97606D01*
X6466Y97570D01*
X6646Y97544D01*
X6834Y97529D01*
X7033Y97526D01*
X5300Y95794D01*
X5297Y95992D01*
X5282Y96181D01*
X5257Y96360D01*
X5220Y96530D01*
X5172Y96691D01*
X5114Y96841D01*
X5044Y96983D01*
X4963Y97115D01*
X4871Y97238D01*
X4768Y97351D01*
X5476Y98058D01*
X5589Y97955D01*
D02*
G37*
G36*
X4532Y87075D02*
X4429Y86962D01*
X4337Y86839D01*
X4256Y86707D01*
X4187Y86565D01*
X4128Y86414D01*
X4080Y86254D01*
X4044Y86084D01*
X4018Y85905D01*
X4003Y85716D01*
X4000Y85518D01*
X2268Y87250D01*
X2466Y87253D01*
X2655Y87268D01*
X2834Y87294D01*
X3004Y87330D01*
X3164Y87378D01*
X3315Y87437D01*
X3457Y87506D01*
X3589Y87587D01*
X3712Y87679D01*
X3825Y87782D01*
X4532Y87075D01*
D02*
G37*
G36*
X137000Y85500D02*
X132250D01*
Y89500D01*
X132750Y90000D01*
X137000D01*
Y85500D01*
D02*
G37*
G36*
X134356Y80682D02*
X134716Y80381D01*
X135080Y80116D01*
X135449Y79886D01*
X135821Y79692D01*
X136199Y79533D01*
X136580Y79409D01*
X136966Y79321D01*
X137356Y79268D01*
X137750Y79250D01*
Y76750D01*
X137356Y76732D01*
X136966Y76679D01*
X136580Y76591D01*
X136199Y76467D01*
X135821Y76308D01*
X135449Y76114D01*
X135080Y75884D01*
X134716Y75619D01*
X134356Y75318D01*
X134000Y74982D01*
X131714Y76232D01*
X132033Y76586D01*
X132280Y76939D01*
X132457Y77293D01*
X132563Y77646D01*
X132598Y78000D01*
X132563Y78354D01*
X132457Y78707D01*
X132280Y79061D01*
X132033Y79414D01*
X131714Y79768D01*
X134000Y81018D01*
X134356Y80682D01*
D02*
G37*
G36*
X284000Y73750D02*
X276000D01*
X275000Y74750D01*
Y76750D01*
X275750Y77500D01*
X277750D01*
X279000Y78750D01*
X284000D01*
Y73750D01*
D02*
G37*
G36*
X406208Y86448D02*
X407035Y85895D01*
X408010Y85701D01*
X426944D01*
X427948Y84698D01*
X428774Y84145D01*
X429750Y83951D01*
X447000D01*
X447976Y84145D01*
X448802Y84698D01*
X450612Y86508D01*
X451883Y85982D01*
Y82436D01*
X439565Y70118D01*
X432034D01*
X420076Y82076D01*
X418091Y83402D01*
X415750Y83868D01*
X398540D01*
X396199Y83402D01*
X394214Y82076D01*
X377424Y65286D01*
X376098Y63301D01*
X375632Y60960D01*
Y51250D01*
X376098Y48909D01*
X377424Y46924D01*
X382882Y41466D01*
Y27534D01*
X381716Y26367D01*
X371000D01*
X368659Y25902D01*
X366674Y24576D01*
X359466Y17368D01*
X332250D01*
X329909Y16902D01*
X327924Y15576D01*
X326598Y13591D01*
X326133Y11250D01*
X326598Y8909D01*
X327444Y7644D01*
X326765Y6374D01*
X308183D01*
X307797Y7644D01*
X307983Y7767D01*
X308590Y8677D01*
X308605Y8750D01*
X320306Y20451D01*
X343750D01*
X344725Y20645D01*
X345552Y21198D01*
X348556Y24201D01*
X360182D01*
X361157Y24395D01*
X361984Y24948D01*
X367552Y30516D01*
X368105Y31342D01*
X368299Y32318D01*
Y58194D01*
X395806Y85701D01*
X401490D01*
X402465Y85895D01*
X403292Y86448D01*
X404045Y87201D01*
X405455D01*
X406208Y86448D01*
D02*
G37*
G36*
X101128Y66628D02*
X101128Y66628D01*
X101872Y66131D01*
X102750Y65956D01*
X102750Y65956D01*
X119839D01*
X120325Y64783D01*
X119674Y64132D01*
X119240Y63483D01*
X118233D01*
X117323Y64091D01*
X116250Y64304D01*
X115177Y64091D01*
X114267Y63483D01*
X113660Y62573D01*
X113446Y61500D01*
X113660Y60427D01*
X114267Y59517D01*
X115177Y58910D01*
X116250Y58696D01*
X116874Y57526D01*
X107466Y48117D01*
X100074D01*
X92867Y55324D01*
Y59054D01*
X92402Y61395D01*
X91076Y63380D01*
X85630Y68826D01*
X83706Y70111D01*
X83645Y70152D01*
X83240Y71527D01*
X83341Y71677D01*
X83554Y72750D01*
X83418Y73436D01*
X84162Y74706D01*
X93050D01*
X101128Y66628D01*
D02*
G37*
G36*
X168500Y71000D02*
X172250Y67250D01*
Y64250D01*
X171000Y63000D01*
X164000Y63000D01*
X162500Y64500D01*
X162500Y69750D01*
X163750Y71000D01*
X168500Y71000D01*
D02*
G37*
G36*
X10142Y64837D02*
X10286Y64714D01*
X10431Y64605D01*
X10577Y64511D01*
X10724Y64431D01*
X10873Y64366D01*
X11022Y64315D01*
X11173Y64279D01*
X11324Y64257D01*
X11477Y64250D01*
Y63250D01*
X11324Y63243D01*
X11173Y63221D01*
X11022Y63185D01*
X10873Y63134D01*
X10724Y63069D01*
X10577Y62989D01*
X10431Y62895D01*
X10286Y62786D01*
X10142Y62663D01*
X10000Y62525D01*
Y64975D01*
X10142Y64837D01*
D02*
G37*
G36*
X229467Y70495D02*
X229910Y62765D01*
X230029Y62351D01*
X230163Y62110D01*
X222758D01*
X222891Y62351D01*
X223011Y62765D01*
X223116Y63351D01*
X223207Y64110D01*
X223397Y67423D01*
X223460Y72290D01*
X229460D01*
X229467Y70495D01*
D02*
G37*
G36*
X263000Y69500D02*
X266750D01*
X270000Y66250D01*
Y63500D01*
X267750Y61250D01*
X243750D01*
Y72000D01*
X260500D01*
X263000Y69500D01*
D02*
G37*
G36*
X311207Y61043D02*
X310842Y60673D01*
X309580Y59242D01*
X309440Y59039D01*
X309337Y58864D01*
X309271Y58717D01*
X309243Y58597D01*
X307347Y60493D01*
X307467Y60521D01*
X307614Y60587D01*
X307789Y60690D01*
X307992Y60830D01*
X308481Y61223D01*
X309081Y61765D01*
X309793Y62457D01*
X311207Y61043D01*
D02*
G37*
G36*
X-4345Y43298D02*
X-5652Y41341D01*
X-6118Y39000D01*
X-5939Y38102D01*
X-6118Y37204D01*
Y35438D01*
X-5652Y33097D01*
X-4326Y31113D01*
X-2341Y29787D01*
X0Y29321D01*
X2341Y29787D01*
X4326Y31113D01*
X5652Y33097D01*
X6118Y35438D01*
Y36466D01*
X7024Y37372D01*
X8546Y37099D01*
X8767Y36767D01*
X9677Y36160D01*
X10750Y35946D01*
X11823Y36160D01*
X11898Y36209D01*
X13168Y35531D01*
Y32750D01*
X13485Y31985D01*
X18235Y27235D01*
X19000Y26918D01*
X26750D01*
X27515Y27235D01*
X27515Y27235D01*
X29163Y28883D01*
X34250D01*
X36591Y29348D01*
X38576Y30674D01*
X66284Y58383D01*
X71192D01*
X71678Y57209D01*
X69735Y55265D01*
X69418Y54500D01*
Y53769D01*
X69256Y53633D01*
X68148Y53207D01*
X67573Y53590D01*
X66500Y53804D01*
X65427Y53590D01*
X64517Y52983D01*
X63910Y52073D01*
X63696Y51000D01*
X63910Y49927D01*
X64433Y49144D01*
X64480Y49015D01*
X64535Y48957D01*
X64552Y48934D01*
X64570Y48905D01*
X64588Y48868D01*
X64607Y48819D01*
X64625Y48758D01*
X64642Y48683D01*
X64655Y48593D01*
X64664Y48488D01*
X64668Y48340D01*
X64716Y48233D01*
Y32250D01*
X64852Y31567D01*
X65238Y30988D01*
X71716Y24511D01*
Y6767D01*
X71668Y6660D01*
X71664Y6512D01*
X71655Y6408D01*
X71642Y6317D01*
X71625Y6242D01*
X71607Y6181D01*
X71588Y6132D01*
X71570Y6095D01*
X71552Y6066D01*
X71535Y6043D01*
X71480Y5985D01*
X71433Y5856D01*
X70910Y5073D01*
X70696Y4000D01*
X70834Y3309D01*
X70092Y2039D01*
X62806D01*
X62421Y3309D01*
X62733Y3517D01*
X63340Y4427D01*
X63554Y5500D01*
X63340Y6573D01*
X62733Y7483D01*
X61823Y8090D01*
X60873Y8280D01*
X60752Y8332D01*
X60585Y8335D01*
X60464Y8345D01*
X60357Y8360D01*
X60265Y8379D01*
X60187Y8403D01*
X60121Y8428D01*
X60115Y8431D01*
X52148Y16398D01*
X51000Y16874D01*
X20422D01*
X10898Y26398D01*
X9750Y26874D01*
X-1518D01*
X-2992Y28384D01*
X-3002Y28388D01*
X-3006Y28398D01*
X-3571Y28632D01*
X-4134Y28874D01*
X-4144Y28870D01*
X-4154Y28874D01*
X-7999D01*
X-23126Y44001D01*
Y60284D01*
X-21856Y60810D01*
X-4345Y43298D01*
D02*
G37*
G36*
X-1462Y54042D02*
X-1339Y53951D01*
X-1207Y53870D01*
X-1065Y53800D01*
X-914Y53741D01*
X-754Y53693D01*
X-584Y53657D01*
X-405Y53631D01*
X-216Y53617D01*
X-18Y53613D01*
X-1750Y51881D01*
X-1753Y52079D01*
X-1768Y52268D01*
X-1794Y52447D01*
X-1830Y52617D01*
X-1878Y52778D01*
X-1937Y52929D01*
X-2006Y53070D01*
X-2087Y53202D01*
X-2179Y53325D01*
X-2282Y53438D01*
X-1575Y54145D01*
X-1462Y54042D01*
D02*
G37*
G36*
X139750Y49250D02*
X133750D01*
X130750Y52250D01*
Y57750D01*
X132250Y59250D01*
X139750D01*
Y49250D01*
D02*
G37*
G36*
X67635Y49653D02*
X67554Y49546D01*
X67483Y49430D01*
X67421Y49306D01*
X67369Y49172D01*
X67326Y49029D01*
X67293Y48878D01*
X67269Y48717D01*
X67255Y48548D01*
X67250Y48369D01*
X65750D01*
X65745Y48548D01*
X65731Y48717D01*
X65707Y48878D01*
X65674Y49029D01*
X65631Y49172D01*
X65579Y49306D01*
X65517Y49430D01*
X65446Y49546D01*
X65365Y49653D01*
X65275Y49750D01*
X67725D01*
X67635Y49653D01*
D02*
G37*
G36*
X236257Y52567D02*
X236876Y51810D01*
Y44422D01*
X226577Y34124D01*
X216500D01*
X215352Y33648D01*
X214034Y32330D01*
X213671Y32380D01*
X212738Y32830D01*
X212590Y33573D01*
X211983Y34483D01*
X211073Y35090D01*
X210000Y35304D01*
X208927Y35090D01*
X208017Y34483D01*
X206681Y34768D01*
X206573Y34840D01*
X205500Y35054D01*
X204427Y34840D01*
X203517Y34233D01*
X202910Y33323D01*
X202696Y32250D01*
X202910Y31177D01*
X203517Y30267D01*
X204427Y29660D01*
X205377Y29471D01*
X205498Y29418D01*
X205665Y29415D01*
X205787Y29406D01*
X205893Y29390D01*
X205986Y29371D01*
X206063Y29347D01*
X206129Y29322D01*
X206135Y29319D01*
X207852Y27602D01*
X209000Y27126D01*
X208973Y25868D01*
X187993D01*
X187314Y27137D01*
X187340Y27177D01*
X187554Y28250D01*
X187340Y29323D01*
X186733Y30233D01*
X186960Y31608D01*
X187340Y32177D01*
X187554Y33250D01*
X187382Y34112D01*
X187775Y34885D01*
X188160Y35382D01*
X188250D01*
X190591Y35848D01*
X192576Y37174D01*
X196784Y41382D01*
X198372D01*
X199268Y40112D01*
X199196Y39750D01*
X199410Y38677D01*
X200017Y37767D01*
X200927Y37160D01*
X202000Y36946D01*
X203073Y37160D01*
X203983Y37767D01*
X204017D01*
X204927Y37160D01*
X206000Y36946D01*
X207073Y37160D01*
X207983Y37767D01*
X208590Y38677D01*
X208804Y39750D01*
X208732Y40112D01*
X209628Y41382D01*
X215210D01*
X217551Y41848D01*
X219536Y43174D01*
X228994Y52632D01*
X234500D01*
X235851Y52901D01*
X236257Y52567D01*
D02*
G37*
G36*
X129886Y51723D02*
X129985Y51485D01*
X131181Y50288D01*
X131424Y49924D01*
X131788Y49681D01*
X131933Y49537D01*
X131874Y49141D01*
X131433Y48241D01*
X130677Y48091D01*
X129767Y47483D01*
X129160Y46573D01*
X128946Y45500D01*
X129160Y44427D01*
X129767Y43517D01*
X130234Y43206D01*
X130242Y43185D01*
Y41815D01*
X130234Y41795D01*
X129767Y41483D01*
X129160Y40573D01*
X128946Y39500D01*
X129160Y38427D01*
X129309Y38204D01*
X129667Y37250D01*
X129309Y36296D01*
X129160Y36073D01*
X128946Y35000D01*
X129160Y33927D01*
X129767Y33017D01*
X130677Y32410D01*
X131750Y32196D01*
X131895Y32225D01*
X132975Y31145D01*
X132946Y31000D01*
X132975Y30855D01*
X131895Y29775D01*
X131750Y29804D01*
X130677Y29590D01*
X129767Y28983D01*
X129160Y28073D01*
X128946Y27000D01*
X129160Y25927D01*
X129767Y25017D01*
Y24483D01*
X129160Y23573D01*
X128946Y22500D01*
X129160Y21427D01*
X129767Y20517D01*
X130234Y20206D01*
X130242Y20185D01*
Y18815D01*
X130234Y18794D01*
X129767Y18483D01*
X129546Y18152D01*
X128024Y17878D01*
X115826Y30076D01*
X113841Y31402D01*
X111500Y31868D01*
X95961D01*
X95182Y33138D01*
X95304Y33750D01*
X95090Y34823D01*
X94866Y35160D01*
X95660Y36256D01*
X97540Y35882D01*
X110000D01*
X112341Y36348D01*
X114326Y37674D01*
X128326Y51674D01*
X128494Y51926D01*
X129886Y51723D01*
D02*
G37*
G36*
X78500Y58500D02*
X80750Y56250D01*
Y35750D01*
X70500D01*
X70500Y54500D01*
X74500Y58500D01*
X78500Y58500D01*
D02*
G37*
G36*
X404733Y35250D02*
X404534Y35247D01*
X404345Y35232D01*
X404166Y35206D01*
X403996Y35170D01*
X403836Y35122D01*
X403685Y35064D01*
X403543Y34994D01*
X403411Y34913D01*
X403288Y34821D01*
X403175Y34718D01*
X402468Y35425D01*
X402571Y35538D01*
X402663Y35661D01*
X402744Y35793D01*
X402813Y35935D01*
X402872Y36086D01*
X402920Y36246D01*
X402957Y36416D01*
X402982Y36595D01*
X402997Y36784D01*
X403000Y36983D01*
X404733Y35250D01*
D02*
G37*
G36*
X354250Y32275D02*
X354108Y32413D01*
X353964Y32536D01*
X353819Y32645D01*
X353673Y32739D01*
X353526Y32819D01*
X353377Y32884D01*
X353228Y32935D01*
X353077Y32971D01*
X352926Y32993D01*
X352773Y33000D01*
Y34000D01*
X352926Y34007D01*
X353077Y34029D01*
X353228Y34065D01*
X353377Y34116D01*
X353526Y34181D01*
X353673Y34261D01*
X353819Y34355D01*
X353964Y34464D01*
X354108Y34587D01*
X354250Y34725D01*
Y32275D01*
D02*
G37*
G36*
X360983Y31828D02*
X360784Y31825D01*
X360595Y31811D01*
X360416Y31785D01*
X360246Y31748D01*
X360086Y31701D01*
X359935Y31642D01*
X359793Y31572D01*
X359661Y31491D01*
X359538Y31400D01*
X359425Y31297D01*
X358718Y32004D01*
X358821Y32117D01*
X358913Y32239D01*
X358994Y32371D01*
X359063Y32513D01*
X359122Y32664D01*
X359170Y32824D01*
X359207Y32994D01*
X359232Y33174D01*
X359247Y33363D01*
X359250Y33561D01*
X360983Y31828D01*
D02*
G37*
G36*
X207253Y32034D02*
X207268Y31845D01*
X207293Y31666D01*
X207330Y31496D01*
X207378Y31336D01*
X207437Y31185D01*
X207506Y31043D01*
X207587Y30911D01*
X207679Y30788D01*
X207782Y30675D01*
X207075Y29968D01*
X206962Y30071D01*
X206839Y30163D01*
X206707Y30244D01*
X206565Y30313D01*
X206414Y30372D01*
X206254Y30420D01*
X206084Y30457D01*
X205905Y30482D01*
X205716Y30497D01*
X205518Y30500D01*
X207250Y32232D01*
X207253Y32034D01*
D02*
G37*
G36*
X20500Y40000D02*
X22500Y38000D01*
Y33000D01*
X28500D01*
X29000Y32500D01*
Y30250D01*
X26750Y28000D01*
X19000D01*
X17000Y30000D01*
X14250Y32750D01*
Y38500D01*
X15750Y40000D01*
X20500Y40000D01*
D02*
G37*
G36*
X339151Y27841D02*
X339596Y26999D01*
X339631Y26819D01*
X339560Y26532D01*
X338886Y25549D01*
X319250D01*
X318275Y25355D01*
X317448Y24802D01*
X305000Y12355D01*
X304927Y12340D01*
X304865Y12299D01*
X302635D01*
X302573Y12341D01*
X301500Y12554D01*
X300427Y12341D01*
X299517Y11733D01*
X298910Y10823D01*
X298696Y9750D01*
X298910Y8677D01*
X299517Y7768D01*
X299703Y7644D01*
X299317Y6374D01*
X285422D01*
X279601Y12195D01*
X280320Y13272D01*
X280672Y13126D01*
X291078D01*
X292227Y13602D01*
X306751Y28126D01*
X338226D01*
X339151Y27841D01*
D02*
G37*
G36*
X244289Y3309D02*
X243763Y2039D01*
X205026Y2039D01*
X204057Y3489D01*
X204239Y4068D01*
X204602Y4716D01*
X205573Y4910D01*
X206483Y5517D01*
X207090Y6427D01*
X207304Y7500D01*
X207090Y8573D01*
X206483Y9483D01*
X205573Y10090D01*
X204500Y10304D01*
X203427Y10090D01*
X202517Y9483D01*
X202233D01*
X201323Y10090D01*
X200250Y10304D01*
X199177Y10090D01*
X198267Y9483D01*
X197983D01*
X197073Y10090D01*
X196000Y10304D01*
X194927Y10090D01*
X193557Y10622D01*
X193483Y10733D01*
X192573Y11340D01*
X191500Y11554D01*
X190427Y11340D01*
X189517Y10733D01*
X188910Y9823D01*
X188858Y9562D01*
X188323Y9340D01*
X187250Y9554D01*
X186177Y9340D01*
X185267Y8733D01*
X184660Y7823D01*
X184446Y6750D01*
X184660Y5677D01*
X185023Y5134D01*
X185020Y3605D01*
X183974Y2039D01*
X179740D01*
X179537Y2302D01*
X179177Y3309D01*
X179590Y3927D01*
X179804Y5000D01*
X179590Y6073D01*
X178983Y6983D01*
X178073Y7590D01*
X177000Y7804D01*
X175927Y7590D01*
X175017Y6983D01*
X174410Y6073D01*
X174196Y5000D01*
X174410Y3927D01*
X174823Y3309D01*
X174463Y2302D01*
X174260Y2039D01*
X159325D01*
X158466Y3309D01*
X158554Y3750D01*
X158340Y4823D01*
X157733Y5733D01*
X157402Y5954D01*
X157128Y7476D01*
X166784Y17133D01*
X170716D01*
X172424Y15424D01*
X174409Y14098D01*
X176750Y13633D01*
X176961D01*
X177794Y12362D01*
X177696Y11868D01*
X177910Y10795D01*
X178517Y9885D01*
X179427Y9277D01*
X180500Y9064D01*
X181573Y9277D01*
X182483Y9885D01*
X183090Y10795D01*
X183304Y11868D01*
X183205Y12362D01*
X184039Y13633D01*
X214750D01*
X217091Y14098D01*
X219076Y15424D01*
X222284Y18632D01*
X228966D01*
X244289Y3309D01*
D02*
G37*
G36*
X59288Y7679D02*
X59411Y7587D01*
X59543Y7506D01*
X59685Y7437D01*
X59836Y7378D01*
X59996Y7330D01*
X60166Y7293D01*
X60345Y7268D01*
X60534Y7253D01*
X60732Y7250D01*
X59000Y5518D01*
X58997Y5716D01*
X58982Y5905D01*
X58956Y6084D01*
X58920Y6254D01*
X58872Y6414D01*
X58814Y6565D01*
X58744Y6707D01*
X58663Y6839D01*
X58571Y6962D01*
X58468Y7075D01*
X59175Y7782D01*
X59288Y7679D01*
D02*
G37*
G36*
X74255Y6453D02*
X74269Y6283D01*
X74293Y6122D01*
X74326Y5971D01*
X74369Y5828D01*
X74421Y5694D01*
X74483Y5570D01*
X74554Y5454D01*
X74635Y5347D01*
X74725Y5250D01*
X72275D01*
X72365Y5347D01*
X72446Y5454D01*
X72517Y5570D01*
X72579Y5694D01*
X72631Y5828D01*
X72674Y5971D01*
X72707Y6122D01*
X72731Y6283D01*
X72745Y6453D01*
X72750Y6631D01*
X74250D01*
X74255Y6453D01*
D02*
G37*
G36*
X18602Y14102D02*
X19750Y13626D01*
X50328D01*
X57819Y6135D01*
X57822Y6129D01*
X57847Y6063D01*
X57870Y5986D01*
X57890Y5893D01*
X57906Y5787D01*
X57915Y5665D01*
X57918Y5498D01*
X57971Y5377D01*
X58160Y4427D01*
X58767Y3517D01*
X59079Y3309D01*
X58694Y2039D01*
X2039D01*
Y12000D01*
X2029Y12050D01*
X2037Y12100D01*
X1998Y12884D01*
X1961Y13031D01*
Y13182D01*
X1655Y14720D01*
X1578Y14906D01*
X1539Y15103D01*
X1017Y16363D01*
X1058Y17320D01*
X1553Y17990D01*
X1983Y18277D01*
X2590Y19187D01*
X2804Y20260D01*
X2590Y21333D01*
X1983Y22242D01*
X1812Y22356D01*
X2197Y23626D01*
X9078D01*
X18602Y14102D01*
D02*
G37*
G36*
X125289Y3309D02*
X125117Y2163D01*
X125080Y2039D01*
X91440D01*
X90762Y3309D01*
X90840Y3427D01*
X91054Y4500D01*
X90890Y5324D01*
X91323Y5410D01*
X92233Y6017D01*
X92840Y6927D01*
X93054Y8000D01*
X92840Y9073D01*
X92233Y9983D01*
X91323Y10590D01*
X90250Y10804D01*
X89177Y10590D01*
X88267Y9983D01*
X88233D01*
X87323Y10590D01*
X86273Y10799D01*
X86233Y10899D01*
X86025Y12045D01*
X86733Y12517D01*
X87340Y13427D01*
X87554Y14500D01*
X87390Y15323D01*
X87823Y15410D01*
X88733Y16017D01*
X89340Y16927D01*
X89554Y18000D01*
X89482Y18362D01*
X90378Y19633D01*
X108966D01*
X125289Y3309D01*
D02*
G37*
G36*
X271876Y49827D02*
Y16000D01*
X272352Y14852D01*
X283602Y3602D01*
X284309Y3309D01*
X284056Y2039D01*
X266113D01*
X265583Y3309D01*
X266652Y4909D01*
X267118Y7250D01*
X266652Y9591D01*
X265326Y11576D01*
X263955Y12492D01*
X264223Y13840D01*
X264573Y13910D01*
X265483Y14517D01*
X266090Y15427D01*
X266304Y16500D01*
X266090Y17573D01*
X265483Y18483D01*
X265016Y18794D01*
X265008Y18815D01*
Y20185D01*
X265016Y20206D01*
X265483Y20517D01*
X266090Y21427D01*
X266304Y22500D01*
X266090Y23573D01*
X265941Y23796D01*
X265583Y24750D01*
X265941Y25704D01*
X266090Y25927D01*
X266304Y27000D01*
X266090Y28073D01*
X265483Y28983D01*
X264573Y29590D01*
X263500Y29804D01*
X262968Y30928D01*
Y31072D01*
X263500Y32196D01*
X264573Y32410D01*
X265483Y33017D01*
X266090Y33927D01*
X266304Y35000D01*
X266090Y36073D01*
X265941Y36296D01*
X265583Y37250D01*
X265941Y38204D01*
X266090Y38427D01*
X266304Y39500D01*
X266090Y40573D01*
X265483Y41483D01*
X265016Y41794D01*
X265008Y41815D01*
Y43185D01*
X265016Y43206D01*
X265483Y43517D01*
X266090Y44427D01*
X266304Y45500D01*
X266090Y46573D01*
X265483Y47483D01*
X264820Y47926D01*
X264735Y48039D01*
X264467Y48934D01*
X264406Y49419D01*
X265402Y50909D01*
X265868Y53250D01*
X265671Y54236D01*
X266842Y54862D01*
X271876Y49827D01*
D02*
G37*
%LPC*%
G36*
X406000Y262554D02*
X404927Y262340D01*
X404017Y261733D01*
X403410Y260823D01*
X403196Y259750D01*
X403410Y258677D01*
X404017Y257767D01*
X404927Y257160D01*
X406000Y256946D01*
X407073Y257160D01*
X407983Y257767D01*
X408590Y258677D01*
X408804Y259750D01*
X408590Y260823D01*
X407983Y261733D01*
X407073Y262340D01*
X406000Y262554D01*
D02*
G37*
G36*
X413750Y234304D02*
X412677Y234090D01*
X411768Y233483D01*
X411160Y232573D01*
X410946Y231500D01*
X411160Y230427D01*
X411768Y229517D01*
X412677Y228910D01*
X413750Y228696D01*
X414823Y228910D01*
X415733Y229517D01*
X416341Y230427D01*
X416554Y231500D01*
X416341Y232573D01*
X415733Y233483D01*
X414823Y234090D01*
X413750Y234304D01*
D02*
G37*
G36*
X410000Y70054D02*
X408927Y69840D01*
X408017Y69233D01*
X407410Y68323D01*
X407196Y67250D01*
X407410Y66177D01*
X408017Y65267D01*
X408927Y64660D01*
X410000Y64446D01*
X411073Y64660D01*
X411983Y65267D01*
X412590Y66177D01*
X412804Y67250D01*
X412590Y68323D01*
X411983Y69233D01*
X411073Y69840D01*
X410000Y70054D01*
D02*
G37*
G36*
X403000Y12304D02*
X401927Y12091D01*
X401017Y11483D01*
X400410Y10573D01*
X400196Y9500D01*
X400410Y8427D01*
X401017Y7517D01*
X401927Y6910D01*
X403000Y6696D01*
X404073Y6910D01*
X404983Y7517D01*
X405590Y8427D01*
X405804Y9500D01*
X405590Y10573D01*
X404983Y11483D01*
X404073Y12091D01*
X403000Y12304D01*
D02*
G37*
G36*
X111500Y257054D02*
X110427Y256840D01*
X109517Y256233D01*
X108910Y255323D01*
X108696Y254250D01*
X108910Y253177D01*
X109517Y252267D01*
X110427Y251660D01*
X111500Y251446D01*
X112573Y251660D01*
X113483Y252267D01*
X114090Y253177D01*
X114304Y254250D01*
X114090Y255323D01*
X113483Y256233D01*
X112573Y256840D01*
X111500Y257054D01*
D02*
G37*
G36*
X7050Y233554D02*
X5977Y233340D01*
X5067Y232733D01*
X4460Y231823D01*
X4246Y230750D01*
X4460Y229677D01*
X5067Y228767D01*
X5977Y228160D01*
X7050Y227946D01*
X8123Y228160D01*
X9033Y228767D01*
X9640Y229677D01*
X9854Y230750D01*
X9640Y231823D01*
X9033Y232733D01*
X8123Y233340D01*
X7050Y233554D01*
D02*
G37*
G36*
X12500Y229304D02*
X11427Y229090D01*
X10517Y228483D01*
X9910Y227573D01*
X9696Y226500D01*
X9910Y225427D01*
X10517Y224517D01*
X11427Y223910D01*
X12500Y223696D01*
X13573Y223910D01*
X14483Y224517D01*
X15090Y225427D01*
X15304Y226500D01*
X15090Y227573D01*
X14483Y228483D01*
X13573Y229090D01*
X12500Y229304D01*
D02*
G37*
G36*
X1750Y223554D02*
X677Y223340D01*
X-233Y222733D01*
X-840Y221823D01*
X-1054Y220750D01*
X-840Y219677D01*
X-233Y218767D01*
X677Y218160D01*
X1750Y217946D01*
X2823Y218160D01*
X3733Y218767D01*
X4340Y219677D01*
X4554Y220750D01*
X4340Y221823D01*
X3733Y222733D01*
X2823Y223340D01*
X1750Y223554D01*
D02*
G37*
G36*
X381750Y242304D02*
X380677Y242090D01*
X379767Y241483D01*
X379160Y240573D01*
X378946Y239500D01*
X379160Y238427D01*
X379767Y237517D01*
X380677Y236910D01*
X381750Y236696D01*
X382823Y236910D01*
X383733Y237517D01*
X384340Y238427D01*
X384554Y239500D01*
X384340Y240573D01*
X383733Y241483D01*
X382823Y242090D01*
X381750Y242304D01*
D02*
G37*
G36*
X206200Y255854D02*
X205127Y255640D01*
X204217Y255033D01*
X203610Y254123D01*
X203396Y253050D01*
X203610Y251977D01*
X204217Y251067D01*
X205127Y250459D01*
X206200Y250246D01*
X207273Y250459D01*
X208183Y251067D01*
X208790Y251977D01*
X209004Y253050D01*
X208790Y254123D01*
X208183Y255033D01*
X207273Y255640D01*
X206200Y255854D01*
D02*
G37*
G36*
X178250Y209304D02*
X177177Y209090D01*
X176267Y208483D01*
X175660Y207573D01*
X175446Y206500D01*
X175660Y205427D01*
X176267Y204517D01*
X177177Y203910D01*
X178250Y203696D01*
X179323Y203910D01*
X180233Y204517D01*
X180840Y205427D01*
X181054Y206500D01*
X180840Y207573D01*
X180233Y208483D01*
X179323Y209090D01*
X178250Y209304D01*
D02*
G37*
G36*
X169010Y197554D02*
X167937Y197341D01*
X167027Y196733D01*
X166419Y195823D01*
X166206Y194750D01*
X166419Y193677D01*
X167027Y192767D01*
X167937Y192160D01*
X169010Y191946D01*
X170083Y192160D01*
X170992Y192767D01*
X171600Y193677D01*
X171813Y194750D01*
X171600Y195823D01*
X170992Y196733D01*
X170083Y197341D01*
X169010Y197554D01*
D02*
G37*
G36*
X175750Y193554D02*
X174677Y193340D01*
X173767Y192733D01*
X173160Y191823D01*
X172946Y190750D01*
X173160Y189677D01*
X173767Y188767D01*
X174677Y188160D01*
X175750Y187946D01*
X176823Y188160D01*
X177733Y188767D01*
X178340Y189677D01*
X178554Y190750D01*
X178340Y191823D01*
X177733Y192733D01*
X176823Y193340D01*
X175750Y193554D01*
D02*
G37*
G36*
X335955Y102974D02*
X334882Y102760D01*
X333973Y102153D01*
X333365Y101243D01*
X333151Y100170D01*
X333365Y99097D01*
X333973Y98187D01*
X334882Y97580D01*
X335955Y97366D01*
X336481Y96840D01*
X336695Y95767D01*
X337303Y94857D01*
X338212Y94250D01*
X339285Y94036D01*
X340358Y94250D01*
X341268Y94857D01*
X341876Y95767D01*
X342089Y96840D01*
X341876Y97913D01*
X341268Y98823D01*
X340358Y99430D01*
X339285Y99644D01*
X338759Y100170D01*
X338546Y101243D01*
X337938Y102153D01*
X337028Y102760D01*
X335955Y102974D01*
D02*
G37*
G36*
X329750Y53554D02*
X328677Y53341D01*
X327767Y52733D01*
X327160Y51823D01*
X326946Y50750D01*
X327160Y49677D01*
X327767Y48767D01*
X328677Y48160D01*
X329750Y47946D01*
X330823Y48160D01*
X331733Y48767D01*
X332340Y49677D01*
X332554Y50750D01*
X332340Y51823D01*
X331733Y52733D01*
X330823Y53341D01*
X329750Y53554D01*
D02*
G37*
G36*
X80000Y227654D02*
X78927Y227440D01*
X78017Y226833D01*
X77410Y225923D01*
X77196Y224850D01*
X77410Y223777D01*
X78017Y222867D01*
X78927Y222260D01*
X80000Y222046D01*
X81073Y222260D01*
X81983Y222867D01*
X82590Y223777D01*
X82804Y224850D01*
X82590Y225923D01*
X81983Y226833D01*
X81073Y227440D01*
X80000Y227654D01*
D02*
G37*
G36*
X224750Y210054D02*
X223677Y209841D01*
X222767Y209233D01*
X222159Y208323D01*
X222081Y207928D01*
X220703Y207510D01*
X219663Y208550D01*
X218671Y209213D01*
X217500Y209446D01*
X216329Y209213D01*
X215337Y208550D01*
X214674Y207557D01*
X214441Y206387D01*
X214674Y205216D01*
X215337Y204224D01*
X220941Y198620D01*
Y178710D01*
X220018Y178345D01*
X219671Y178274D01*
X218823Y178840D01*
X217750Y179054D01*
X216677Y178840D01*
X216615Y178799D01*
X215250D01*
X214275Y178605D01*
X213448Y178052D01*
X203198Y167802D01*
X202645Y166975D01*
X202451Y166000D01*
Y155250D01*
X202645Y154275D01*
X203198Y153448D01*
X209198Y147448D01*
X210025Y146895D01*
X211000Y146701D01*
X222000D01*
X222976Y146895D01*
X223802Y147448D01*
X224806Y148451D01*
X239106D01*
X239860Y147366D01*
X239278Y146243D01*
X238312Y146051D01*
X237402Y145443D01*
X236794Y144533D01*
X236581Y143460D01*
X236794Y142387D01*
X237402Y141478D01*
X238312Y140870D01*
X239385Y140657D01*
X240458Y140870D01*
X241367Y141478D01*
X241975Y142387D01*
X242067Y142851D01*
X243351D01*
X243368Y142822D01*
X243454Y142387D01*
X244062Y141478D01*
X244972Y140870D01*
X246045Y140657D01*
X247118Y140870D01*
X248027Y141478D01*
X248635Y142387D01*
X248848Y143460D01*
X248635Y144533D01*
X248027Y145443D01*
X247118Y146051D01*
X246654Y146143D01*
Y147438D01*
X247118Y147530D01*
X248027Y148138D01*
X248635Y149047D01*
X248718Y149464D01*
X248727Y149511D01*
X250022D01*
X250031Y149464D01*
X250114Y149047D01*
X250722Y148138D01*
X251632Y147530D01*
X252705Y147317D01*
X253778Y147530D01*
X254687Y148138D01*
X255295Y149047D01*
X255508Y150120D01*
X255295Y151193D01*
X254687Y152103D01*
X253778Y152711D01*
X253361Y152794D01*
X253314Y152803D01*
Y154098D01*
X253361Y154107D01*
X253778Y154190D01*
X254687Y154798D01*
X255295Y155708D01*
X255508Y156781D01*
X255295Y157853D01*
X254687Y158763D01*
X253778Y159371D01*
X252996Y159526D01*
X252987Y159536D01*
X252981Y159543D01*
X252978Y159545D01*
X252969Y159554D01*
X252935Y159569D01*
X252925Y159574D01*
X252886Y159599D01*
X252841Y159632D01*
X252528Y159905D01*
X252410Y160020D01*
X252309Y160061D01*
X249177Y163192D01*
X248515Y163634D01*
X247735Y163789D01*
X244750D01*
X244750Y163789D01*
X243970Y163634D01*
X243308Y163192D01*
X243308Y163192D01*
X240155Y160039D01*
X230609D01*
X230512Y160082D01*
X230171Y160090D01*
X229930Y160111D01*
X229865Y160121D01*
X229819Y160131D01*
X229809Y160134D01*
X229774Y160148D01*
X229761Y160148D01*
X229758Y160149D01*
X229749Y160148D01*
X229735Y160148D01*
X229073Y160590D01*
X228000Y160804D01*
X226927Y160590D01*
X226017Y159983D01*
X225410Y159073D01*
X225196Y158000D01*
X225410Y156927D01*
X226017Y156017D01*
X226927Y155410D01*
X228000Y155196D01*
X229073Y155410D01*
X229735Y155852D01*
X229749Y155852D01*
X229758Y155851D01*
X229761Y155852D01*
X229774Y155852D01*
X229809Y155866D01*
X229819Y155869D01*
X229865Y155879D01*
X229920Y155887D01*
X230334Y155916D01*
X230499Y155918D01*
X230599Y155961D01*
X241000D01*
X241780Y156116D01*
X242043Y156292D01*
X243185Y155968D01*
X243443Y155763D01*
X243454Y155708D01*
X244021Y154859D01*
X243949Y154513D01*
X243585Y153589D01*
X240954D01*
X240751Y153549D01*
X223750D01*
X222775Y153355D01*
X221948Y152802D01*
X221228Y152083D01*
X220477Y152193D01*
X220424Y152251D01*
X219945Y153510D01*
X220326Y154080D01*
X220559Y155250D01*
X220326Y156420D01*
X219663Y157413D01*
X218671Y158076D01*
X218432Y158123D01*
X218164Y159472D01*
X218233Y159517D01*
X218840Y160427D01*
X218855Y160500D01*
X220556Y162201D01*
X235500D01*
X236475Y162395D01*
X237302Y162948D01*
X248566Y174212D01*
X251570D01*
X251632Y174170D01*
X252705Y173957D01*
X253778Y174170D01*
X254687Y174778D01*
X255295Y175688D01*
X255508Y176761D01*
X255295Y177834D01*
X254687Y178743D01*
X253778Y179351D01*
X252705Y179564D01*
X251632Y179351D01*
X251570Y179310D01*
X247511D01*
X246535Y179116D01*
X245708Y178563D01*
X235271Y168126D01*
X235144Y168158D01*
X234564Y169577D01*
X234778Y170650D01*
X234564Y171723D01*
X233957Y172633D01*
X233047Y173240D01*
X231974Y173454D01*
X230901Y173240D01*
X229991Y172633D01*
X229384Y171723D01*
X229170Y170650D01*
X229384Y169577D01*
X229991Y168667D01*
X230139Y168569D01*
X229753Y167299D01*
X221349D01*
X221250Y167559D01*
X221137Y168569D01*
X221913Y169087D01*
X226163Y173337D01*
X226826Y174329D01*
X227059Y175500D01*
X227059Y175500D01*
Y199887D01*
X227059Y199887D01*
X226826Y201057D01*
X226163Y202050D01*
X225010Y203203D01*
X225428Y204581D01*
X225823Y204660D01*
X226733Y205268D01*
X227340Y206177D01*
X227554Y207250D01*
X227340Y208323D01*
X226733Y209233D01*
X225823Y209841D01*
X224750Y210054D01*
D02*
G37*
G36*
X111500Y203054D02*
X110427Y202840D01*
X109517Y202233D01*
X108910Y201323D01*
X108696Y200250D01*
X108910Y199177D01*
X109517Y198267D01*
X110427Y197660D01*
X111500Y197446D01*
X112573Y197660D01*
X113483Y198267D01*
X114090Y199177D01*
X114304Y200250D01*
X114090Y201323D01*
X113483Y202233D01*
X112573Y202840D01*
X111500Y203054D01*
D02*
G37*
G36*
X115500Y194804D02*
X114427Y194590D01*
X114376Y194557D01*
X113375Y194054D01*
X112374Y194557D01*
X112323Y194590D01*
X111250Y194804D01*
X110177Y194590D01*
X109267Y193983D01*
X108733D01*
X107823Y194590D01*
X106750Y194804D01*
X105677Y194590D01*
X104767Y193983D01*
X104160Y193073D01*
X103946Y192000D01*
X104160Y190927D01*
X104767Y190017D01*
X105677Y189410D01*
X106750Y189196D01*
X107823Y189410D01*
X108733Y190017D01*
X109267D01*
X110177Y189410D01*
X111250Y189196D01*
X112323Y189410D01*
X112374Y189443D01*
X113375Y189946D01*
X114376Y189443D01*
X114427Y189410D01*
X115500Y189196D01*
X116573Y189410D01*
X117483Y190017D01*
X118090Y190927D01*
X118304Y192000D01*
X118090Y193073D01*
X117483Y193983D01*
X116573Y194590D01*
X115500Y194804D01*
D02*
G37*
G36*
X90500Y191554D02*
X89427Y191340D01*
X88517Y190733D01*
X87910Y189823D01*
X87696Y188750D01*
X87910Y187677D01*
X88517Y186767D01*
X89427Y186160D01*
X90500Y185946D01*
X91573Y186160D01*
X92483Y186767D01*
X93090Y187677D01*
X93304Y188750D01*
X93090Y189823D01*
X92483Y190733D01*
X91573Y191340D01*
X90500Y191554D01*
D02*
G37*
G36*
X322635Y189555D02*
X321562Y189341D01*
X320652Y188733D01*
X320045Y187824D01*
X319831Y186751D01*
X320045Y185678D01*
X320652Y184768D01*
X321562Y184160D01*
X322635Y183947D01*
X323708Y184160D01*
X324618Y184768D01*
X325225Y185678D01*
X325439Y186751D01*
X325225Y187824D01*
X324618Y188733D01*
X323708Y189341D01*
X322635Y189555D01*
D02*
G37*
G36*
X137509Y171304D02*
X136437Y171090D01*
X135527Y170483D01*
X134919Y169573D01*
X134706Y168500D01*
X134919Y167427D01*
X135527Y166517D01*
X136437Y165910D01*
X137509Y165696D01*
X138582Y165910D01*
X139492Y166517D01*
X140100Y167427D01*
X140313Y168500D01*
X140100Y169573D01*
X139492Y170483D01*
X138582Y171090D01*
X137509Y171304D01*
D02*
G37*
G36*
X127509D02*
X126437Y171090D01*
X125527Y170483D01*
X124919Y169573D01*
X124706Y168500D01*
X124919Y167427D01*
X125527Y166517D01*
X126437Y165910D01*
X127509Y165696D01*
X128582Y165910D01*
X129492Y166517D01*
X130100Y167427D01*
X130313Y168500D01*
X130100Y169573D01*
X129492Y170483D01*
X128582Y171090D01*
X127509Y171304D01*
D02*
G37*
G36*
X99750Y168804D02*
X98677Y168590D01*
X97767Y167983D01*
X97160Y167073D01*
X96946Y166000D01*
X97160Y164927D01*
X97767Y164017D01*
X98677Y163410D01*
X99750Y163196D01*
X100823Y163410D01*
X101733Y164017D01*
X102340Y164927D01*
X102554Y166000D01*
X102340Y167073D01*
X101733Y167983D01*
X100823Y168590D01*
X99750Y168804D01*
D02*
G37*
G36*
X162509Y161304D02*
X161437Y161090D01*
X160527Y160483D01*
X159492D01*
X158582Y161090D01*
X157509Y161304D01*
X156437Y161090D01*
X155527Y160483D01*
X154919Y159573D01*
X154706Y158500D01*
X154919Y157427D01*
X155527Y156517D01*
X156437Y155910D01*
X157509Y155696D01*
X158582Y155910D01*
X159492Y156517D01*
X160527D01*
X161437Y155910D01*
X162509Y155696D01*
X163582Y155910D01*
X164492Y156517D01*
X165100Y157427D01*
X165313Y158500D01*
X165100Y159573D01*
X164492Y160483D01*
X163582Y161090D01*
X162509Y161304D01*
D02*
G37*
G36*
X172509D02*
X171437Y161090D01*
X170527Y160483D01*
X169919Y159573D01*
X169706Y158500D01*
X169919Y157427D01*
X170527Y156517D01*
X171437Y155910D01*
X172509Y155696D01*
X173582Y155910D01*
X174492Y156517D01*
X175100Y157427D01*
X175313Y158500D01*
X175100Y159573D01*
X174492Y160483D01*
X173582Y161090D01*
X172509Y161304D01*
D02*
G37*
G36*
X142509D02*
X141437Y161090D01*
X140527Y160483D01*
X139919Y159573D01*
X139706Y158500D01*
X139919Y157427D01*
X140527Y156517D01*
X141437Y155910D01*
X142509Y155696D01*
X143582Y155910D01*
X144492Y156517D01*
X145100Y157427D01*
X145313Y158500D01*
X145100Y159573D01*
X144492Y160483D01*
X143582Y161090D01*
X142509Y161304D01*
D02*
G37*
G36*
X123000Y166054D02*
X121927Y165840D01*
X121017Y165233D01*
X120410Y164323D01*
X120196Y163250D01*
X120410Y162177D01*
X121017Y161267D01*
X121927Y160660D01*
X123000Y160446D01*
X124073Y160660D01*
X124154Y160714D01*
X125069Y159798D01*
X124919Y159573D01*
X124706Y158500D01*
X124919Y157427D01*
X125527Y156517D01*
X126437Y155910D01*
X127509Y155696D01*
X128582Y155910D01*
X129492Y156517D01*
X130100Y157427D01*
X130313Y158500D01*
X130100Y159573D01*
X129492Y160483D01*
X128582Y161090D01*
X127509Y161304D01*
X126437Y161090D01*
X126356Y161036D01*
X125440Y161952D01*
X125590Y162177D01*
X125804Y163250D01*
X125590Y164323D01*
X124983Y165233D01*
X124073Y165840D01*
X123000Y166054D01*
D02*
G37*
G36*
X137509Y156304D02*
X136437Y156090D01*
X135527Y155483D01*
X134919Y154573D01*
X134706Y153500D01*
X134919Y152427D01*
X135527Y151517D01*
X136437Y150910D01*
X137509Y150696D01*
X138582Y150910D01*
X139492Y151517D01*
X140100Y152427D01*
X140313Y153500D01*
X140100Y154573D01*
X139492Y155483D01*
X138582Y156090D01*
X137509Y156304D01*
D02*
G37*
G36*
X152645Y151304D02*
X151572Y151090D01*
X150662Y150483D01*
X150054Y149573D01*
X149841Y148500D01*
X150054Y147427D01*
X150662Y146517D01*
X151572Y145910D01*
X152645Y145696D01*
X153718Y145910D01*
X154627Y146517D01*
X155235Y147427D01*
X155449Y148500D01*
X155235Y149573D01*
X154627Y150483D01*
X153718Y151090D01*
X152645Y151304D01*
D02*
G37*
G36*
X122509D02*
X121437Y151090D01*
X120527Y150483D01*
X119919Y149573D01*
X119706Y148500D01*
X119919Y147427D01*
X120527Y146517D01*
X121437Y145910D01*
X122509Y145696D01*
X123582Y145910D01*
X124492Y146517D01*
X125100Y147427D01*
X125313Y148500D01*
X125100Y149573D01*
X124492Y150483D01*
X123582Y151090D01*
X122509Y151304D01*
D02*
G37*
G36*
X127509Y146304D02*
X126437Y146090D01*
X125527Y145483D01*
X124919Y144573D01*
X124706Y143500D01*
X124919Y142427D01*
X125527Y141517D01*
X126437Y140910D01*
X127509Y140696D01*
X128582Y140910D01*
X129492Y141517D01*
X130100Y142427D01*
X130313Y143500D01*
X130100Y144573D01*
X129492Y145483D01*
X128582Y146090D01*
X127509Y146304D01*
D02*
G37*
G36*
X157509Y146304D02*
X156437Y146090D01*
X155527Y145483D01*
X154919Y144573D01*
X154706Y143500D01*
X154919Y142427D01*
X155527Y141517D01*
X156437Y140910D01*
X157509Y140696D01*
X158582Y140910D01*
X159492Y141517D01*
X160100Y142427D01*
X160313Y143500D01*
X160100Y144573D01*
X159492Y145483D01*
X158582Y146090D01*
X157509Y146304D01*
D02*
G37*
G36*
X137509D02*
X136437Y146090D01*
X135527Y145483D01*
X134919Y144573D01*
X134706Y143500D01*
X134919Y142427D01*
X135527Y141517D01*
X136437Y140910D01*
X137509Y140696D01*
X138582Y140910D01*
X139492Y141517D01*
X140100Y142427D01*
X140313Y143500D01*
X140100Y144573D01*
X139492Y145483D01*
X138582Y146090D01*
X137509Y146304D01*
D02*
G37*
G36*
X162509Y141304D02*
X161437Y141090D01*
X160527Y140483D01*
X159919Y139573D01*
X159706Y138500D01*
X159919Y137427D01*
X160527Y136517D01*
X161437Y135910D01*
X162509Y135696D01*
X163582Y135910D01*
X164492Y136517D01*
X165100Y137427D01*
X165313Y138500D01*
X165100Y139573D01*
X164492Y140483D01*
X163582Y141090D01*
X162509Y141304D01*
D02*
G37*
G36*
X142509D02*
X141437Y141090D01*
X140527Y140483D01*
X139919Y139573D01*
X139706Y138500D01*
X139919Y137427D01*
X140527Y136517D01*
X141437Y135910D01*
X142509Y135696D01*
X143582Y135910D01*
X144492Y136517D01*
X145100Y137427D01*
X145313Y138500D01*
X145100Y139573D01*
X144492Y140483D01*
X143582Y141090D01*
X142509Y141304D01*
D02*
G37*
G36*
X157509Y136304D02*
X156437Y136090D01*
X155527Y135483D01*
X154919Y134573D01*
X154706Y133500D01*
X154919Y132427D01*
X155527Y131517D01*
X156437Y130910D01*
X157509Y130696D01*
X158582Y130910D01*
X159492Y131517D01*
X160100Y132427D01*
X160313Y133500D01*
X160100Y134573D01*
X159492Y135483D01*
X158582Y136090D01*
X157509Y136304D01*
D02*
G37*
G36*
X147509Y136304D02*
X146437Y136090D01*
X145527Y135483D01*
X144919Y134573D01*
X144706Y133500D01*
X144919Y132427D01*
X145527Y131517D01*
X146437Y130910D01*
X147509Y130696D01*
X148582Y130910D01*
X149492Y131517D01*
X150100Y132427D01*
X150313Y133500D01*
X150100Y134573D01*
X149492Y135483D01*
X148582Y136090D01*
X147509Y136304D01*
D02*
G37*
G36*
X191000Y140054D02*
X189927Y139840D01*
X189017Y139233D01*
X188410Y138323D01*
X188196Y137250D01*
X188410Y136177D01*
X188559Y135954D01*
X188917Y135000D01*
X188559Y134046D01*
X188410Y133823D01*
X188196Y132750D01*
X188410Y131677D01*
X189017Y130767D01*
X189927Y130160D01*
X191000Y129946D01*
X192073Y130160D01*
X192983Y130767D01*
X193590Y131677D01*
X193804Y132750D01*
X193590Y133823D01*
X193441Y134046D01*
X193083Y135000D01*
X193441Y135954D01*
X193590Y136177D01*
X193804Y137250D01*
X193590Y138323D01*
X192983Y139233D01*
X192073Y139840D01*
X191000Y140054D01*
D02*
G37*
G36*
X335955Y136274D02*
X334882Y136061D01*
X333973Y135453D01*
X333365Y134543D01*
X333151Y133470D01*
X333365Y132397D01*
X333973Y131488D01*
X334882Y130880D01*
X335299Y130797D01*
X335345Y130788D01*
Y129493D01*
X335299Y129483D01*
X334882Y129401D01*
X333973Y128793D01*
X333365Y127883D01*
X333282Y127467D01*
X333273Y127420D01*
X331978D01*
X331968Y127467D01*
X331885Y127883D01*
X331278Y128793D01*
X330368Y129401D01*
X329295Y129614D01*
X328222Y129401D01*
X327313Y128793D01*
X326705Y127883D01*
X326491Y126810D01*
X326705Y125737D01*
X327313Y124827D01*
X328222Y124220D01*
X328639Y124137D01*
X328685Y124128D01*
Y122833D01*
X328639Y122823D01*
X328222Y122740D01*
X327313Y122133D01*
X326705Y121223D01*
X326491Y120150D01*
X326705Y119077D01*
X327313Y118167D01*
X328222Y117560D01*
X328656Y117473D01*
X329484Y117009D01*
X329948Y116181D01*
X330035Y115747D01*
X330643Y114838D01*
X331552Y114230D01*
X332625Y114016D01*
X333698Y114230D01*
X334608Y114838D01*
X335215Y115747D01*
X335429Y116820D01*
X335215Y117893D01*
X334608Y118803D01*
X333698Y119411D01*
X333264Y119497D01*
X332436Y119961D01*
X331972Y120789D01*
X331885Y121223D01*
X331278Y122133D01*
X330368Y122740D01*
X329952Y122823D01*
X329905Y122833D01*
Y124128D01*
X329952Y124137D01*
X330368Y124220D01*
X331278Y124827D01*
X331885Y125737D01*
X331968Y126154D01*
X331978Y126200D01*
X333273D01*
X333282Y126154D01*
X333365Y125737D01*
X333973Y124827D01*
X334882Y124220D01*
X335955Y124006D01*
X336481Y123480D01*
X336695Y122407D01*
X337303Y121497D01*
X338212Y120890D01*
X339285Y120676D01*
X339811Y120150D01*
X340025Y119077D01*
X340633Y118167D01*
X341542Y117560D01*
X342615Y117346D01*
X343688Y117560D01*
X344598Y118167D01*
X345206Y119077D01*
X345419Y120150D01*
X345206Y121223D01*
X344598Y122133D01*
X343688Y122740D01*
X342615Y122954D01*
X342089Y123480D01*
X341876Y124553D01*
X341268Y125463D01*
X340358Y126071D01*
X339285Y126284D01*
X338759Y126810D01*
X338546Y127883D01*
X337938Y128793D01*
X337028Y129401D01*
X336612Y129483D01*
X336565Y129493D01*
Y130788D01*
X336612Y130797D01*
X337028Y130880D01*
X337938Y131488D01*
X338546Y132397D01*
X338759Y133470D01*
X338546Y134543D01*
X337938Y135453D01*
X337028Y136061D01*
X335955Y136274D01*
D02*
G37*
G36*
X162509Y131304D02*
X161437Y131090D01*
X160527Y130483D01*
X159919Y129573D01*
X159706Y128500D01*
X159919Y127427D01*
X160527Y126517D01*
X161437Y125910D01*
X162509Y125696D01*
X163582Y125910D01*
X164492Y126517D01*
X165100Y127427D01*
X165313Y128500D01*
X165100Y129573D01*
X164492Y130483D01*
X163582Y131090D01*
X162509Y131304D01*
D02*
G37*
G36*
X122509D02*
X121437Y131090D01*
X120527Y130483D01*
X119919Y129573D01*
X119706Y128500D01*
X119919Y127427D01*
X120527Y126517D01*
X121437Y125910D01*
X122509Y125696D01*
X123582Y125910D01*
X124492Y126517D01*
X125100Y127427D01*
X125313Y128500D01*
X125100Y129573D01*
X124492Y130483D01*
X123582Y131090D01*
X122509Y131304D01*
D02*
G37*
G36*
X147509Y126304D02*
X146437Y126090D01*
X145527Y125483D01*
X144919Y124573D01*
X144706Y123500D01*
X144919Y122427D01*
X145527Y121517D01*
X146437Y120910D01*
X147509Y120696D01*
X148582Y120910D01*
X149492Y121517D01*
X150100Y122427D01*
X150313Y123500D01*
X150100Y124573D01*
X149492Y125483D01*
X148582Y126090D01*
X147509Y126304D01*
D02*
G37*
G36*
X266025Y112964D02*
X264952Y112751D01*
X264042Y112143D01*
X263434Y111233D01*
X263221Y110160D01*
X263434Y109087D01*
X264042Y108177D01*
X264952Y107570D01*
X266025Y107356D01*
X267098Y107570D01*
X268007Y108177D01*
X268615Y109087D01*
X268829Y110160D01*
X268615Y111233D01*
X268007Y112143D01*
X267098Y112751D01*
X266025Y112964D01*
D02*
G37*
G36*
X299325Y112964D02*
X298252Y112751D01*
X297342Y112143D01*
X296735Y111233D01*
X296521Y110160D01*
X296735Y109087D01*
X297342Y108177D01*
X298252Y107570D01*
X299325Y107356D01*
X299851Y106830D01*
X300065Y105757D01*
X300672Y104847D01*
X301582Y104240D01*
X302655Y104026D01*
X303728Y104240D01*
X304638Y104847D01*
X305245Y105757D01*
X305459Y106830D01*
X305245Y107903D01*
X304638Y108813D01*
X303728Y109420D01*
X302655Y109634D01*
X302129Y110160D01*
X301915Y111233D01*
X301308Y112143D01*
X300398Y112751D01*
X299325Y112964D01*
D02*
G37*
G36*
X138250Y110554D02*
X137177Y110340D01*
X136267Y109733D01*
X135660Y108823D01*
X135591Y108481D01*
X135149Y107601D01*
X134269Y107158D01*
X133927Y107090D01*
X133017Y106483D01*
X132410Y105573D01*
X132196Y104500D01*
X132410Y103427D01*
X133017Y102517D01*
X133927Y101910D01*
X135000Y101696D01*
X136073Y101910D01*
X136983Y102517D01*
X137590Y103427D01*
X137658Y103769D01*
X138101Y104649D01*
X138981Y105092D01*
X139323Y105160D01*
X140233Y105767D01*
X140840Y106677D01*
X141054Y107750D01*
X140840Y108823D01*
X140233Y109733D01*
X139323Y110340D01*
X138250Y110554D01*
D02*
G37*
G36*
X276015Y109634D02*
X274942Y109420D01*
X274032Y108813D01*
X273424Y107903D01*
X273211Y106830D01*
X273424Y105757D01*
X274032Y104847D01*
X274942Y104240D01*
X276015Y104026D01*
X276541Y103500D01*
X276754Y102427D01*
X277362Y101517D01*
X278272Y100910D01*
X279345Y100696D01*
X280418Y100910D01*
X281327Y101517D01*
X281935Y102427D01*
X282149Y103500D01*
X281935Y104573D01*
X281327Y105483D01*
X280418Y106090D01*
X279345Y106304D01*
X278819Y106830D01*
X278605Y107903D01*
X277997Y108813D01*
X277088Y109420D01*
X276015Y109634D01*
D02*
G37*
G36*
X198250Y94054D02*
X197177Y93840D01*
X196268Y93233D01*
X195483D01*
X194573Y93840D01*
X193500Y94054D01*
X192427Y93840D01*
X191517Y93233D01*
X190910Y92323D01*
X190696Y91250D01*
X190910Y90177D01*
X191517Y89267D01*
X192427Y88659D01*
X193293Y88487D01*
X193196Y88000D01*
X193410Y86927D01*
X194017Y86017D01*
X194927Y85410D01*
X196000Y85196D01*
X197073Y85410D01*
X197983Y86017D01*
X198591Y86927D01*
X198804Y88000D01*
X198697Y88535D01*
X199323Y88659D01*
X200233Y89267D01*
X200840Y90177D01*
X201054Y91250D01*
X200840Y92323D01*
X200233Y93233D01*
X199323Y93840D01*
X198250Y94054D01*
D02*
G37*
G36*
X319305Y99644D02*
X318232Y99430D01*
X317322Y98823D01*
X316715Y97913D01*
X316501Y96840D01*
X315975Y96314D01*
X314902Y96100D01*
X313992Y95493D01*
X313385Y94583D01*
X313171Y93510D01*
X313385Y92437D01*
X313992Y91527D01*
X314902Y90920D01*
X315975Y90706D01*
X317048Y90920D01*
X317958Y91527D01*
X318566Y92437D01*
X318779Y93510D01*
X319305Y94036D01*
X320378Y94250D01*
X321288Y94857D01*
X321895Y95767D01*
X322109Y96840D01*
X321895Y97913D01*
X321288Y98823D01*
X320378Y99430D01*
X319305Y99644D01*
D02*
G37*
%LPD*%
G36*
X251793Y159109D02*
X252164Y158786D01*
X252271Y158708D01*
X252371Y158643D01*
X252462Y158593D01*
X252545Y158558D01*
X252620Y158537D01*
X252687Y158530D01*
X250955Y156798D01*
X250948Y156865D01*
X250927Y156940D01*
X250892Y157023D01*
X250842Y157114D01*
X250778Y157214D01*
X250699Y157321D01*
X250498Y157560D01*
X250240Y157831D01*
X251654Y159246D01*
X251793Y159109D01*
D02*
G37*
G36*
X229302Y159182D02*
X229370Y159144D01*
X229454Y159110D01*
X229553Y159081D01*
X229669Y159056D01*
X229801Y159036D01*
X230112Y159009D01*
X230486Y159000D01*
Y157000D01*
X230291Y156998D01*
X229801Y156964D01*
X229669Y156944D01*
X229553Y156919D01*
X229454Y156890D01*
X229370Y156856D01*
X229302Y156818D01*
X229250Y156775D01*
Y159225D01*
X229302Y159182D01*
D02*
G37*
%LPC*%
G36*
X414750Y137054D02*
X413677Y136840D01*
X412767Y136233D01*
X412160Y135323D01*
X411946Y134250D01*
X412160Y133177D01*
X412767Y132267D01*
X413677Y131660D01*
X414750Y131446D01*
X415823Y131660D01*
X416733Y132267D01*
X417340Y133177D01*
X417554Y134250D01*
X417340Y135323D01*
X416733Y136233D01*
X415823Y136840D01*
X414750Y137054D01*
D02*
G37*
G36*
X237500Y83054D02*
X236427Y82840D01*
X235517Y82233D01*
X234910Y81323D01*
X234696Y80250D01*
X234910Y79177D01*
X235517Y78267D01*
X236427Y77660D01*
X237500Y77446D01*
X238573Y77660D01*
X239483Y78267D01*
X240090Y79177D01*
X240304Y80250D01*
X240090Y81323D01*
X239483Y82233D01*
X238573Y82840D01*
X237500Y83054D01*
D02*
G37*
G36*
X438250Y77554D02*
X437177Y77340D01*
X436268Y76733D01*
X435733D01*
X434823Y77340D01*
X433750Y77554D01*
X432677Y77340D01*
X431768Y76733D01*
X431160Y75823D01*
X430946Y74750D01*
X431160Y73677D01*
X431768Y72767D01*
X432677Y72160D01*
X433750Y71946D01*
X434823Y72160D01*
X435733Y72767D01*
X436268D01*
X437177Y72160D01*
X438250Y71946D01*
X439323Y72160D01*
X440233Y72767D01*
X440840Y73677D01*
X441054Y74750D01*
X440840Y75823D01*
X440233Y76733D01*
X439323Y77340D01*
X438250Y77554D01*
D02*
G37*
G36*
X218250Y12554D02*
X217177Y12340D01*
X216267Y11733D01*
X215660Y10823D01*
X215446Y9750D01*
X215660Y8677D01*
X216267Y7767D01*
X217177Y7160D01*
X218250Y6946D01*
X219323Y7160D01*
X220233Y7767D01*
X220840Y8677D01*
X221054Y9750D01*
X220840Y10823D01*
X220233Y11733D01*
X219323Y12340D01*
X218250Y12554D01*
D02*
G37*
G36*
X10000Y11804D02*
X8927Y11590D01*
X8017Y10983D01*
X7410Y10073D01*
X7196Y9000D01*
X7410Y7927D01*
X8017Y7017D01*
X8927Y6410D01*
X10000Y6196D01*
X11073Y6410D01*
X11983Y7017D01*
X12590Y7927D01*
X12804Y9000D01*
X12590Y10073D01*
X11983Y10983D01*
X11073Y11590D01*
X10000Y11804D01*
D02*
G37*
%LPD*%
D11*
X73500Y103750D02*
X78000Y108250D01*
X56875Y113625D02*
X66750Y103750D01*
X73500D01*
X49375Y180875D02*
Y203375D01*
X46250Y206500D02*
X49375Y203375D01*
X46250Y206500D02*
Y212260D01*
X28750Y229760D02*
X46250Y212260D01*
X74000Y135750D02*
X76500Y133250D01*
Y125661D02*
Y133250D01*
Y125661D02*
X78000Y124161D01*
X146760Y267250D02*
X152250Y272740D01*
X113167Y267250D02*
X146760D01*
X105250Y259333D02*
X113167Y267250D01*
X74000Y135750D02*
Y148490D01*
X78000Y108250D02*
Y124161D01*
X22250Y239728D02*
X28750Y233228D01*
Y229760D02*
Y233228D01*
X22250Y239728D02*
Y242750D01*
X360182Y26750D02*
X365750Y32318D01*
X347500Y26750D02*
X360182D01*
X408167Y93750D02*
X409667Y92250D01*
X390000Y93750D02*
X408167D01*
X409667Y92250D02*
X425000D01*
X406510Y89750D02*
X408010Y88250D01*
X402990Y89750D02*
X406510D01*
X401490Y88250D02*
X402990Y89750D01*
X448500Y104500D02*
X450000Y103000D01*
Y89500D02*
Y103000D01*
X447000Y86500D02*
X450000Y89500D01*
X235500Y164750D02*
X247511Y176761D01*
X219500Y164750D02*
X235500D01*
X216250Y161500D02*
X219500Y164750D01*
X247511Y176761D02*
X252705D01*
X343750Y23000D02*
X347500Y26750D01*
X319250Y23000D02*
X343750D01*
X46000Y252000D02*
Y254750D01*
X43000Y249000D02*
X46000Y252000D01*
X28500Y249000D02*
X43000D01*
X244000Y283750D02*
X285250D01*
X306000Y9750D02*
X319250Y23000D01*
X301500Y9750D02*
X306000D01*
X74000Y148490D02*
X76000Y150490D01*
X22250Y242750D02*
X28500Y249000D01*
X365750Y32318D02*
Y59250D01*
X217750Y282250D02*
X242500D01*
X212500Y287500D02*
X217750Y282250D01*
X168899Y283750D02*
X176351D01*
X166899Y281750D02*
X168899Y283750D01*
X156993Y281750D02*
X166899D01*
X152250Y277007D02*
X156993Y281750D01*
X429750Y86500D02*
X447000D01*
X428000Y88250D02*
X429750Y86500D01*
X381662Y102500D02*
X401250D01*
X352250Y47250D02*
Y73088D01*
X381662Y102500D01*
X292500Y283500D02*
X316990D01*
X288750Y287250D02*
X292500Y283500D01*
X176351Y283750D02*
X178351Y281750D01*
X215250Y176250D02*
X217750D01*
X205000Y166000D02*
X215250Y176250D01*
X205000Y155250D02*
Y166000D01*
X222000Y149250D02*
X223750Y151000D01*
X211000Y149250D02*
X222000D01*
X205000Y155250D02*
X211000Y149250D01*
X223750Y151000D02*
X240914D01*
X187750Y280000D02*
X205000D01*
X178351Y281750D02*
X179179D01*
X179179Y281750D01*
X186000D01*
X187750Y280000D01*
X152250Y272740D02*
Y277007D01*
X46000Y254750D02*
X46250Y255000D01*
X103250D01*
X49375Y180875D02*
X76000Y154250D01*
Y150490D02*
Y154250D01*
X103250Y255000D02*
X105250Y257000D01*
Y259333D01*
X274250Y220750D02*
X285250Y209750D01*
X263500Y220750D02*
X274250D01*
X356750Y60500D02*
X390000Y93750D01*
X356750Y47250D02*
Y60500D01*
X244515Y151000D02*
X245165D01*
X244475Y151040D02*
X244515Y151000D01*
X240954Y151040D02*
X244475D01*
X240914Y151000D02*
X240954Y151040D01*
X245165Y151000D02*
X246045Y150120D01*
X205000Y280000D02*
X212500Y287500D01*
X322490Y289000D02*
X347750D01*
X316990Y283500D02*
X322490Y289000D01*
X242500Y282250D02*
X244000Y283750D01*
X285250D02*
X288750Y287250D01*
X305250Y181843D02*
X308453Y185047D01*
X408010Y88250D02*
X428000D01*
X394750D02*
X401490D01*
X365750Y59250D02*
X394750Y88250D01*
X429500Y96750D02*
X443500D01*
X425000Y92250D02*
X429500Y96750D01*
X443500D02*
X445750Y99000D01*
Y101000D01*
X406250Y107500D02*
X410250D01*
X401250Y102500D02*
X406250Y107500D01*
X410250D02*
X417000Y114250D01*
X297750Y188250D02*
X300250Y190750D01*
X294631Y188250D02*
X297750D01*
X292800Y190081D02*
X294631Y188250D01*
X300250Y190750D02*
Y203000D01*
X293500Y209750D02*
X300250Y203000D01*
X285250Y209750D02*
X293500D01*
X448500Y104500D02*
Y114650D01*
X292665Y190081D02*
X292800D01*
D12*
X73500Y4000D02*
Y25250D01*
X66500Y32250D02*
X73500Y25250D01*
X66500Y32250D02*
Y51000D01*
X401750Y129500D02*
X405950D01*
X389000Y116750D02*
X401750Y129500D01*
X389000Y113500D02*
Y116750D01*
X408000Y139750D02*
X425750Y157500D01*
X408000Y131550D02*
Y139750D01*
X405950Y129500D02*
X408000Y131550D01*
X427250Y191209D02*
X428500Y189959D01*
Y171250D02*
Y189959D01*
X427250Y191209D02*
Y191750D01*
X425750Y168500D02*
X428500Y171250D01*
X425750Y157500D02*
Y168500D01*
X385750Y110250D02*
X389000Y113500D01*
D13*
X144000Y248750D02*
G03*
X126938Y241688I0J-24142D01*
G01*
X115629Y232500D02*
G03*
X119250Y234000I0J5121D01*
G01*
X113500Y232500D02*
G03*
X106245Y229495I0J-10260D01*
G01*
X90500Y232250D02*
G03*
X85068Y234500I-5432J-5432D01*
G01*
X94205Y228545D02*
G03*
X99750Y226250I5545J5551D01*
G01*
D02*
G03*
X105298Y228548I0J7846D01*
G01*
X70000Y237750D02*
G03*
X62154Y241000I-7846J-7846D01*
G01*
X58000D02*
G03*
X54431Y239524I0J-5053D01*
G01*
X70000Y237750D02*
G03*
X77846Y234500I7846J7846D01*
G01*
X51387Y236480D02*
G03*
X48000Y228297I8193J-8184D01*
G01*
X96475Y236275D02*
G03*
X91586Y238300I-4889J-4889D01*
G01*
X96479Y236271D02*
G03*
X101364Y234250I4885J4892D01*
G01*
X96475Y236275D02*
G03*
X96479Y236271I4889J4889D01*
G01*
X107974Y236724D02*
G03*
X107975Y236725I-5974J5976D01*
G01*
X102000Y234250D02*
G03*
X107974Y236724I0J8450D01*
G01*
X114875Y240250D02*
G03*
X109114Y237864I0J-8148D01*
G01*
X114875Y240250D02*
G03*
X120637Y242637I0J8148D01*
G01*
X140016Y253000D02*
G03*
X124625Y246625I0J-21766D01*
G01*
X153494Y255994D02*
G03*
X153500Y256000I-7236J7249D01*
G01*
X146258Y253000D02*
G03*
X153494Y255994I0J10243D01*
G01*
X126938Y241688D02*
G03*
X126929Y241679I17062J-17080D01*
G01*
X94202Y228548D02*
G03*
X94205Y228545I5548J5548D01*
G01*
X54431Y239524D02*
G03*
X54427Y239520I3569J-3577D01*
G01*
X51392Y236485D02*
G03*
X51387Y236480I8188J-8188D01*
G01*
X46250Y179750D02*
X68250Y157750D01*
Y122000D02*
Y157750D01*
Y122000D02*
X74750Y115500D01*
X77000Y136993D02*
X79500Y134493D01*
Y126904D02*
X81250Y125154D01*
X79500Y126904D02*
Y134493D01*
X81250Y106000D02*
Y125154D01*
X343000Y212328D02*
X346750Y208578D01*
Y189346D02*
Y208578D01*
Y189346D02*
X353500Y182596D01*
X335000Y217500D02*
X344750Y207750D01*
Y188243D02*
Y207750D01*
Y188243D02*
X346500Y186493D01*
X343000Y212328D02*
Y223750D01*
X353343Y148000D02*
X357000D01*
X345500Y168891D02*
X353500Y176891D01*
Y182596D01*
X343250Y169469D02*
X346500Y172719D01*
Y186493D01*
X335000Y220250D02*
X338500Y223750D01*
X335000Y217500D02*
Y220250D01*
X332750Y152235D02*
X343250Y162735D01*
X332750Y149500D02*
Y152235D01*
Y149500D02*
X337750Y144500D01*
Y142000D02*
Y144500D01*
X335960Y140210D02*
X337750Y142000D01*
X329375Y140210D02*
X335960D01*
X133747Y281250D02*
X149422D01*
X111846Y273000D02*
X128328D01*
X112675Y271000D02*
X129157D01*
X128328Y273000D02*
X130750Y275422D01*
X135154Y277000D02*
X145500D01*
X132750Y274596D02*
X135154Y277000D01*
X129157Y271000D02*
X132750Y274593D01*
X134575Y279250D02*
X150250D01*
X130750Y275425D02*
X134575Y279250D01*
X128750Y276253D02*
X133747Y281250D01*
X128750Y276250D02*
Y276253D01*
X128250Y275750D02*
X128750Y276250D01*
X130750Y275422D02*
Y275425D01*
X132750Y274593D02*
Y274596D01*
X116562Y275750D02*
X128250D01*
X107500Y279000D02*
X113313D01*
X116562Y275750D01*
X108175Y266500D02*
X112675Y271000D01*
X107346Y268500D02*
X111846Y273000D01*
X68750Y292000D02*
X129828D01*
X136328Y285500D02*
X143000D01*
X129828Y292000D02*
X136328Y285500D01*
X135750Y283250D02*
X145500D01*
X129000Y290000D02*
X135750Y283250D01*
X71000Y290000D02*
X129000D01*
X77000Y136993D02*
Y146750D01*
X97750Y282250D02*
X109250D01*
X96750Y281250D02*
X97750Y282250D01*
X395500Y116911D02*
X402839Y124250D01*
X395500Y114000D02*
Y116911D01*
X402839Y124250D02*
X417000D01*
X15250Y67250D02*
Y107922D01*
X20578Y113250D02*
X30328D01*
X15250Y107922D02*
X20578Y113250D01*
X19750Y115250D02*
X29500D01*
X13250Y108750D02*
X19750Y115250D01*
X13250Y91750D02*
Y108750D01*
X37578Y120500D02*
X49500D01*
X30328Y113250D02*
X37578Y120500D01*
X227250Y32500D02*
X238500Y43750D01*
X216500Y32500D02*
X227250D01*
X212750Y28750D02*
X216500Y32500D01*
X428000Y151376D02*
Y167422D01*
X424289Y147665D02*
X428000Y151376D01*
X424289Y131539D02*
Y147665D01*
X373250Y230000D02*
X392250D01*
X357000Y246250D02*
X373250Y230000D01*
X318000Y246250D02*
X357000D01*
X392250Y230000D02*
X396000Y226250D01*
X19000Y238735D02*
X25750Y231985D01*
X17000Y237907D02*
X23750Y231157D01*
X15000Y237078D02*
X21750Y230328D01*
X25750Y228235D02*
X38000Y215985D01*
X25750Y228235D02*
Y231985D01*
X23750Y227407D02*
Y231157D01*
Y227407D02*
X36000Y215157D01*
X21750Y226578D02*
X34000Y214328D01*
X21750Y226578D02*
Y230328D01*
X13000Y236250D02*
X19750Y229500D01*
Y225750D02*
Y229500D01*
Y225750D02*
X32000Y213500D01*
X38000Y208828D02*
X46250Y200578D01*
X38000Y208828D02*
Y215985D01*
X36000Y208000D02*
Y215157D01*
Y208000D02*
X44250Y199750D01*
X34000Y207172D02*
X42250Y198922D01*
X34000Y207172D02*
Y214328D01*
X32000Y206343D02*
Y213500D01*
Y206343D02*
X40250Y198093D01*
X98922Y245000D02*
X100422Y246500D01*
X112846D02*
X129846Y263500D01*
X100422Y246500D02*
X112846D01*
X113675Y244500D02*
X130675Y261500D01*
X101250Y244500D02*
X113675D01*
X99750Y243000D02*
X101250Y244500D01*
X290846Y248500D02*
X315750D01*
X288096Y245750D02*
X290846Y248500D01*
X315750D02*
X318000Y246250D01*
X209000Y28750D02*
X212750D01*
X205500Y32250D02*
X209000Y28750D01*
X238500Y52058D02*
X246192Y59750D01*
X238500Y43750D02*
Y52058D01*
X46250Y179750D02*
Y200578D01*
X44250Y176172D02*
Y199750D01*
X42250Y177922D02*
Y198922D01*
X30250Y168750D02*
X40250Y178750D01*
Y198093D01*
X32250Y167922D02*
X42250Y177922D01*
X44250Y176172D02*
X46250Y174172D01*
X37000Y178500D02*
Y190250D01*
X28250Y169750D02*
X37000Y178500D01*
X32250Y176578D02*
Y189750D01*
X26250Y170578D02*
X32250Y176578D01*
X27750Y118000D02*
X56000Y146250D01*
X11608Y118000D02*
X27750D01*
X8550Y121058D02*
X11608Y118000D01*
X41328Y107500D02*
X54172D01*
X36828Y103000D02*
X41328Y107500D01*
X27750Y103000D02*
X36828D01*
X23250Y98500D02*
X27750Y103000D01*
X40621Y109621D02*
X54879D01*
X36000Y105000D02*
X40621Y109621D01*
X23250Y105000D02*
X36000D01*
X83250Y113750D02*
X88250Y118750D01*
X83250Y105172D02*
Y113750D01*
X76578Y98500D02*
X83250Y105172D01*
X75750Y100500D02*
X81250Y106000D01*
X74750Y111500D02*
Y115500D01*
X71250Y108000D02*
X74750Y111500D01*
X228250Y96328D02*
Y118250D01*
X231000Y121000D01*
X224250Y122500D02*
X226250Y120500D01*
Y95500D02*
Y120500D01*
X228250Y96328D02*
X235828Y88750D01*
X226250Y95500D02*
X235000Y86750D01*
X27000Y192750D02*
X33500Y199250D01*
X27000Y177828D02*
Y192750D01*
X32654Y194750D02*
X36500D01*
X29000Y191096D02*
X32654Y194750D01*
X29000Y188404D02*
Y191096D01*
Y188404D02*
X29000Y188404D01*
Y177000D02*
Y188404D01*
X-5250Y145500D02*
Y152000D01*
X-3750Y153500D01*
X5114D01*
X2750Y142404D02*
Y148308D01*
X-5000Y139250D02*
X-404D01*
X2750Y142404D01*
Y148308D02*
X10911Y156468D01*
X5114Y153500D02*
X10082Y158468D01*
X17064D01*
X22250Y163654D01*
Y173078D01*
X27000Y177828D01*
X-5250Y139500D02*
X-5000Y139250D01*
X10911Y156468D02*
X18137D01*
X24250Y162581D01*
Y172250D01*
X29000Y177000D01*
X8500Y144646D02*
X10604Y146750D01*
X8500Y138922D02*
Y144646D01*
X3250Y133672D02*
X8500Y138922D01*
X3250Y108018D02*
Y133672D01*
X6500Y145475D02*
X9775Y148750D01*
X6500Y139750D02*
Y145475D01*
X1250Y134500D02*
X6500Y139750D01*
X1250Y101576D02*
Y134500D01*
X144000Y248750D02*
X154000D01*
X119250Y234000D02*
X126929Y241679D01*
X113500Y232500D02*
X115629D01*
X90500Y232250D02*
X94202Y228548D01*
X105298D02*
X106245Y229495D01*
X58000Y241000D02*
X62154D01*
X77846Y234500D02*
X85068D01*
X48000Y223500D02*
Y228297D01*
X1250Y101576D02*
X7050Y95776D01*
X9775Y148750D02*
X13247D01*
X26250Y161753D01*
Y170578D01*
X3250Y108018D02*
X7050Y104218D01*
X10604Y146750D02*
X14075D01*
X28250Y160925D01*
Y169750D01*
X19000Y238735D02*
Y245422D01*
X17000Y237907D02*
Y246250D01*
X15000Y237078D02*
Y259000D01*
X13000Y236250D02*
Y262172D01*
X-4154Y27250D02*
X-2202Y25250D01*
X-8672Y27250D02*
X-4154D01*
X-2202Y25250D02*
X9750D01*
X-24750Y43328D02*
X-8672Y27250D01*
X-26750Y42500D02*
X-8250Y24000D01*
X-26750Y42500D02*
Y167578D01*
X-24750Y43328D02*
Y166750D01*
X130675Y261500D02*
X155500D01*
X129846Y263500D02*
X152500D01*
X89750Y245000D02*
X98922D01*
X88922Y243000D02*
X99750D01*
X52422Y248250D02*
X86500D01*
X42750Y220672D02*
Y238578D01*
X52422Y248250D01*
X53250Y246250D02*
X85672D01*
X44750Y237750D02*
X53250Y246250D01*
X44750Y221500D02*
Y237750D01*
X85672Y246250D02*
X88922Y243000D01*
X86500Y248250D02*
X89750Y245000D01*
X82950Y238300D02*
X91586D01*
X101364Y234250D02*
X102000D01*
X107974Y236724D02*
X107975Y236725D01*
X109114Y237864D01*
X120637Y242637D02*
X124625Y246625D01*
X140016Y253000D02*
X146258D01*
X51392Y236485D02*
X54427Y239520D01*
X284750Y4750D02*
X368250D01*
X357172Y29750D02*
X361000Y33578D01*
X349000Y29750D02*
X357172D01*
X26078Y252500D02*
X33750D01*
X19000Y245422D02*
X26078Y252500D01*
X25750Y255000D02*
X32750D01*
X17000Y246250D02*
X25750Y255000D01*
X33750Y252500D02*
X40500Y259250D01*
X15846Y214750D02*
X24500Y206096D01*
Y179000D02*
Y206096D01*
X12000Y166500D02*
X24500Y179000D01*
X266625Y71750D02*
X272000Y66375D01*
Y56172D02*
Y66375D01*
Y56172D02*
X276250Y51922D01*
Y19172D02*
Y51922D01*
X274000Y57000D02*
Y67203D01*
X347250Y31500D02*
X349000Y29750D01*
X101750Y273250D02*
X107500Y279000D01*
X32750Y255000D02*
X42000Y264250D01*
X91154D01*
X40500Y259250D02*
X43250D01*
X267750Y259500D02*
X281500Y245750D01*
X199750Y259500D02*
X267750D01*
X281500Y245750D02*
X288096D01*
X91154Y264250D02*
X93404Y266500D01*
X155500Y261500D02*
X160000Y257000D01*
Y237750D02*
Y257000D01*
X152500Y263500D02*
X165250Y276250D01*
X18000Y283250D02*
X60000D01*
X2750Y268000D02*
X18000Y283250D01*
X60000D02*
X61250Y284500D01*
X-10672Y268000D02*
X2750D01*
X20676Y290750D02*
X59750D01*
X1343Y271417D02*
X20676Y290750D01*
X93404Y266500D02*
X108175D01*
X99000Y268500D02*
X107346D01*
X88250Y279250D02*
X99000Y268500D01*
X27096Y279250D02*
X88250D01*
X29500Y115250D02*
X59250Y145000D01*
X242500Y88750D02*
X249750Y81500D01*
X235828Y88750D02*
X242500D01*
X241672Y86750D02*
X247750Y80672D01*
X235000Y86750D02*
X241672D01*
X247750Y77922D02*
Y80672D01*
X249750Y78750D02*
Y81500D01*
X184500Y237500D02*
Y244250D01*
Y237500D02*
X187000Y235000D01*
X184500Y244250D02*
X199750Y259500D01*
X187000Y228889D02*
Y235000D01*
X162861Y204750D02*
X187000Y228889D01*
X153750Y204750D02*
X162861D01*
X306078Y29750D02*
X339000D01*
X291078Y14750D02*
X306078Y29750D01*
X339000D02*
X340750Y31500D01*
X338000Y31750D02*
X339750Y33500D01*
X305250Y31750D02*
X338000D01*
X274000Y57000D02*
X278250Y52750D01*
X267453Y73750D02*
X274000Y67203D01*
X278250Y20000D02*
Y52750D01*
X11750Y63750D02*
X15250Y67250D01*
X11750Y90250D02*
X13250Y91750D01*
X10300Y93550D02*
Y108950D01*
X2250Y85500D02*
X10300Y93550D01*
X42750Y220672D02*
X64500Y198922D01*
X44750Y221500D02*
X66500Y199750D01*
X59750Y134614D02*
X64500Y129864D01*
Y120750D02*
X71250Y114000D01*
X64500Y120750D02*
Y129864D01*
X57750Y133785D02*
X62500Y129036D01*
Y116750D02*
Y129036D01*
Y116750D02*
X71250Y108000D01*
X77000Y146750D02*
X79000Y148750D01*
X70125Y277250D02*
X72500Y274875D01*
X28078Y277250D02*
X70125D01*
X13000Y262172D02*
X28078Y277250D01*
X15000Y259000D02*
X29500Y273500D01*
X-2500Y214750D02*
X15846D01*
X-5000Y217250D02*
X-2500Y214750D01*
X-5000Y217250D02*
Y229046D01*
X750Y234796D02*
Y252904D01*
X-5000Y229046D02*
X750Y234796D01*
X22250Y147250D02*
X32250Y157250D01*
Y167922D01*
X30250Y160096D02*
Y168750D01*
X15250Y145096D02*
X30250Y160096D01*
X15250Y142204D02*
Y145096D01*
X13296Y140250D02*
X15250Y142204D01*
X13250Y140250D02*
X13296D01*
X5300Y132300D02*
X13250Y140250D01*
X56000Y146346D02*
X57904Y148250D01*
X56000Y146250D02*
Y146346D01*
X57904Y148250D02*
X60672D01*
X81000Y145000D02*
X88250Y137750D01*
Y118750D02*
Y137750D01*
X371000Y7500D02*
X387750D01*
X368250Y4750D02*
X371000Y7500D01*
X236500Y290250D02*
X239750Y287000D01*
X217578Y290250D02*
X236500D01*
X215078Y292750D02*
X217578Y290250D01*
X209922Y292750D02*
X215078D01*
X218000Y287000D02*
X234500D01*
X214250Y290750D02*
X218000Y287000D01*
X210750Y290750D02*
X214250D01*
X150250Y279250D02*
X155750Y284750D01*
X167657Y286750D02*
X177593D01*
X165657Y284750D02*
X167657Y286750D01*
X155750Y284750D02*
X165657D01*
X166828Y288750D02*
X178422D01*
X164828Y286750D02*
X166828Y288750D01*
X154922Y286750D02*
X164828D01*
X149422Y281250D02*
X154922Y286750D01*
X166000Y290750D02*
X179250D01*
X164000Y288750D02*
X166000Y290750D01*
X146250Y288750D02*
X164000D01*
X68000Y287000D02*
X71000Y290000D01*
X67250Y293500D02*
X68750Y292000D01*
X-19750Y258922D02*
X-10672Y268000D01*
X750Y252904D02*
X27096Y279250D01*
X24500Y281250D02*
X96750D01*
X750Y257500D02*
X24500Y281250D01*
X179250Y290750D02*
X181250Y288750D01*
X177593Y286750D02*
X179593Y284750D01*
X178422Y288750D02*
X180422Y286750D01*
X151000Y228750D02*
X160000Y237750D01*
X151000Y207500D02*
Y228750D01*
Y207500D02*
X153750Y204750D01*
X205250Y175000D02*
Y209000D01*
X198750Y168500D02*
X205250Y175000D01*
X147509Y168500D02*
X198750D01*
X46500Y150250D02*
X61500D01*
X31750Y135500D02*
X46500Y150250D01*
X26000Y135500D02*
X31750D01*
X61500Y150250D02*
X64500Y147250D01*
X60672Y148250D02*
X62500Y146422D01*
X188993Y283000D02*
X203000D01*
X173500Y276250D02*
X175254Y278004D01*
X165250Y276250D02*
X173500D01*
X175254Y278004D02*
X185504D01*
X186757Y276750D01*
X206000D01*
X187243Y284750D02*
X188993Y283000D01*
X180422Y284750D02*
X187243D01*
X180422Y284750D02*
X180422Y284750D01*
X179593Y284750D02*
X180422D01*
X181250Y286750D02*
X190250D01*
X180422Y286750D02*
X181250D01*
Y288750D02*
X187000D01*
X64500Y171250D02*
Y198922D01*
X66500Y172078D02*
Y199750D01*
X206000Y276750D02*
X208250Y279000D01*
X66500Y172078D02*
X81000Y157578D01*
Y145000D02*
Y157578D01*
X63172Y98500D02*
X76578D01*
X54172Y107500D02*
X63172Y98500D01*
X64000Y100500D02*
X75750D01*
X54879Y109621D02*
X64000Y100500D01*
X59750Y134614D02*
Y138075D01*
X64500Y142825D01*
X57750Y138904D02*
X62500Y143654D01*
X57750Y133785D02*
Y138904D01*
X64500Y142825D02*
Y147250D01*
X62500Y143654D02*
Y146422D01*
X79000Y148750D02*
Y156750D01*
X64500Y171250D02*
X79000Y156750D01*
X-1678Y158497D02*
X1069Y155750D01*
X9422Y166750D02*
X22250Y179578D01*
X-9750Y166750D02*
X9422D01*
X22250Y179578D02*
Y203750D01*
X12000Y163404D02*
Y166500D01*
X14250Y183000D02*
Y196328D01*
X6000Y174750D02*
X14250Y183000D01*
X-16750Y174750D02*
X6000D01*
X11461Y183211D02*
Y196289D01*
X5000Y176750D02*
X11461Y183211D01*
X-17578Y176750D02*
X5000D01*
X-26750Y167578D02*
X-17578Y176750D01*
X4346Y155750D02*
X12000Y163404D01*
X20000Y206000D02*
X22250Y203750D01*
X7578Y203000D02*
X14250Y196328D01*
X-13079Y201000D02*
X6750D01*
X11461Y196289D01*
X5300Y113950D02*
Y132300D01*
X27750Y139000D02*
X46250Y157500D01*
X22250Y139250D02*
Y147250D01*
Y139250D02*
X26000Y135500D01*
X203250Y238922D02*
X214828Y250500D01*
X203250Y211000D02*
Y238922D01*
Y211000D02*
X205250Y209000D01*
X407300Y175000D02*
X412000Y179700D01*
X8750Y63750D02*
X11750D01*
X143000Y285500D02*
X146250Y288750D01*
X187000D02*
X188250Y290000D01*
X207171D01*
X18750Y293500D02*
X66500D01*
X66500Y293500D02*
X66500Y293500D01*
X67250D01*
X145500Y283250D02*
X147500Y285250D01*
X339750Y33500D02*
X355500D01*
X340750Y31500D02*
X347250D01*
X290250Y16750D02*
X305250Y31750D01*
X280672Y14750D02*
X291078D01*
X281500Y16750D02*
X290250D01*
X276250Y19172D02*
X280672Y14750D01*
X278250Y20000D02*
X281500Y16750D01*
X264828Y73750D02*
X267453D01*
X264000Y71750D02*
X266625D01*
X262578Y76000D02*
X264828Y73750D01*
X261750Y74000D02*
X264000Y71750D01*
X251672Y74000D02*
X261750D01*
X252500Y76000D02*
X262578D01*
X247750Y77922D02*
X251672Y74000D01*
X249750Y78750D02*
X252500Y76000D01*
X264250Y59750D02*
X273500Y50500D01*
X246192Y59750D02*
X264250D01*
X273500Y16000D02*
Y50500D01*
Y16000D02*
X284750Y4750D01*
X208250Y279000D02*
X351404D01*
X203000Y283000D02*
X210750Y290750D01*
X145500Y277000D02*
X148000Y274500D01*
X63500Y287000D02*
X68000D01*
X59750Y290750D02*
X63500Y287000D01*
X-10083Y271417D02*
X1343D01*
X-21750Y259750D02*
X-10083Y271417D01*
X254000Y250500D02*
X259750Y256250D01*
X214828Y250500D02*
X254000D01*
X1250Y276000D02*
X18750Y293500D01*
X351404Y279000D02*
X363154Y290750D01*
X401750D01*
X405000Y287500D01*
X207171Y290000D02*
X209922Y292750D01*
X190452Y286952D02*
X190750Y287250D01*
X9750Y25250D02*
X19750Y15250D01*
X51000D01*
X343250Y162735D02*
Y169469D01*
X345500Y162157D02*
Y168891D01*
X344000Y160657D02*
X345500Y162157D01*
X396000Y211250D02*
Y226250D01*
Y211250D02*
X403500Y203750D01*
Y177750D02*
Y203750D01*
X329295Y140130D02*
X329375Y140210D01*
X344000Y157343D02*
Y160657D01*
Y157343D02*
X353343Y148000D01*
X61250Y284500D02*
X72500D01*
X417000Y124250D02*
X424289Y131539D01*
X405435Y122250D02*
X421250D01*
X398785Y115600D02*
X405435Y122250D01*
X5300Y113950D02*
X10300Y108950D01*
X46250Y157500D02*
Y174172D01*
X-16000Y160500D02*
X-9750Y166750D01*
X-16000Y67863D02*
Y160500D01*
Y67863D02*
X0Y51863D01*
X1069Y155750D02*
X4346D01*
X51000Y15250D02*
X60750Y5500D01*
X-21750Y209671D02*
Y259750D01*
Y209671D02*
X-13079Y201000D01*
X-12250Y203000D02*
X7578D01*
X-19750Y210500D02*
X-12250Y203000D01*
X-19750Y210500D02*
Y258922D01*
X-24750Y166750D02*
X-16750Y174750D01*
X428596Y195000D02*
X430750Y192846D01*
Y170172D02*
Y192846D01*
X428000Y167422D02*
X430750Y170172D01*
X429425Y197000D02*
X432750Y193675D01*
Y169343D02*
Y193675D01*
X430000Y166593D02*
X432750Y169343D01*
X421500Y190596D02*
X425904Y195000D01*
X421500Y182904D02*
Y190596D01*
Y182904D02*
X422500Y181904D01*
Y177000D02*
Y181904D01*
X425075Y197000D02*
X429425D01*
X412000Y179700D02*
Y183925D01*
X425075Y197000D01*
X425904Y195000D02*
X428596D01*
X421250Y122250D02*
X432500Y111000D01*
X420250Y120250D02*
X431750Y108750D01*
X409700Y120250D02*
X420250D01*
X404450Y115000D02*
X409700Y120250D01*
X439250Y108750D02*
X442750Y105250D01*
X431750Y108750D02*
X439250D01*
X432500Y111000D02*
X442750D01*
Y149500D01*
X430000Y162250D02*
X442750Y149500D01*
X430000Y162250D02*
Y166593D01*
X399500Y31750D02*
X404750Y37000D01*
X399500Y19250D02*
Y31750D01*
X387750Y7500D02*
X399500Y19250D01*
X395500Y114000D02*
X397150Y112350D01*
X401800D01*
X404450Y115000D01*
D14*
X332250Y61750D02*
X380750Y110250D01*
X310500Y61750D02*
X332250D01*
X380750Y110250D02*
X385750D01*
X307500Y58750D02*
X310500Y61750D01*
X244750Y161750D02*
X247735D01*
X241000Y158000D02*
X244750Y161750D01*
X228000Y158000D02*
X241000D01*
X56750Y113500D02*
Y131250D01*
X53750Y134250D02*
X56750Y131250D01*
X247735Y161750D02*
X252705Y156781D01*
X177000Y5000D02*
X177287Y5287D01*
D16*
X129885Y83365D02*
Y87907D01*
X124228Y90250D02*
X127542D01*
X129885Y87907D01*
X121478Y87500D02*
X124228Y90250D01*
X60750Y92750D02*
X80250D01*
X57000Y96500D02*
X60750Y92750D01*
X31750Y96500D02*
X57000D01*
X83750Y96250D02*
X93750D01*
X80250Y92750D02*
X83750Y96250D01*
X129885Y83365D02*
X135250Y78000D01*
X22593Y110000D02*
X34750D01*
X18750Y96500D02*
Y106157D01*
X22593Y110000D01*
X34750D02*
X38250Y113500D01*
X56750D01*
X93750Y96250D02*
X95750Y94250D01*
X112649Y87500D02*
X121478D01*
X105899Y94250D02*
X112649Y87500D01*
X244750Y206250D02*
X247750D01*
X255750Y198250D01*
X257206D01*
X95750Y94250D02*
X105899D01*
X102750Y68250D02*
X122000D01*
X94000Y77000D02*
X102750Y68250D01*
X77500Y77000D02*
X94000D01*
X61750Y231500D02*
X86000D01*
X58500Y234750D02*
X61750Y231500D01*
X58500Y234750D02*
Y237250D01*
X192500Y230500D02*
Y240500D01*
X162750Y200750D02*
X192500Y230500D01*
X152250Y200750D02*
X162750D01*
X150000Y73500D02*
X163250Y60250D01*
X142250Y73500D02*
X150000D01*
X137750Y78000D02*
X142250Y73500D01*
X163250Y60250D02*
X171500D01*
X28500Y93250D02*
X31750Y96500D01*
X279750Y177750D02*
X300250D01*
X277000Y180500D02*
X279750Y177750D01*
X267750Y180500D02*
X277000D01*
X86000Y231500D02*
X96000Y221500D01*
X114500D01*
X133000Y240000D01*
X122000Y68250D02*
X128000Y74250D01*
X140750Y240000D02*
X147500Y233250D01*
Y205500D02*
Y233250D01*
Y205500D02*
X152250Y200750D01*
X171500Y60250D02*
X176500Y65250D01*
X135250Y78000D02*
X137750D01*
X133000Y240000D02*
X140750D01*
X75861Y75361D02*
X77500Y77000D01*
X75861Y72889D02*
Y75361D01*
X128000Y74250D02*
X131500D01*
X135250Y78000D01*
X18750Y96500D02*
X22000Y93250D01*
X28500D01*
X243750Y284000D02*
X244000Y283750D01*
X243750Y284000D02*
Y289250D01*
X301157Y177750D02*
X305250Y181843D01*
X300250Y177750D02*
X301157D01*
X300250Y177750D02*
X300250Y177750D01*
X257206Y198250D02*
X262695Y192761D01*
Y185555D02*
Y187285D01*
Y185555D02*
X267750Y180500D01*
D135*
X437500Y30500D02*
D03*
Y266500D02*
D03*
D139*
X148000Y182750D02*
X195850D01*
X142500Y188250D02*
X148000Y182750D01*
X142500Y188250D02*
Y230750D01*
X251750Y222250D02*
Y234000D01*
X303000Y58750D02*
X307500D01*
X260300Y213700D02*
X267800D01*
X251750Y222250D02*
X260300Y213700D01*
X282675Y193411D02*
X289335Y200071D01*
X282000Y22636D02*
Y54500D01*
X277500Y59000D02*
X282000Y54500D01*
X277500Y59000D02*
Y68361D01*
X271500Y74361D02*
X277500Y68361D01*
X195850Y182750D02*
X201800Y176800D01*
X246250Y96500D02*
X258000Y84750D01*
X238750Y96500D02*
X246250D01*
X306000Y37500D02*
X332750D01*
X288500Y20000D02*
X306000Y37500D01*
X266500Y84750D02*
X271500Y79750D01*
X258000Y84750D02*
X266500D01*
X271500Y74361D02*
Y79750D01*
X137250Y236000D02*
X142500Y230750D01*
X284636Y20000D02*
X288500D01*
X282000Y22636D02*
X284636Y20000D01*
X287500Y205000D02*
X291066D01*
X284000Y201500D02*
X287500Y205000D01*
X276009Y201500D02*
X284000D01*
X271250Y196741D02*
X276009Y201500D01*
X291066Y205000D02*
X292665Y203401D01*
X271250Y188646D02*
Y196741D01*
X266025D02*
X271250D01*
X269355Y186751D02*
X271250Y188646D01*
D140*
X217250Y171250D02*
X219750D01*
X211000Y165000D02*
X217250Y171250D01*
X211000Y158000D02*
Y165000D01*
Y158000D02*
X213750Y155250D01*
X217500D01*
X219750Y171250D02*
X224000Y175500D01*
Y199887D01*
X217500Y206387D02*
X224000Y199887D01*
D141*
X210000Y88750D02*
X226460Y72290D01*
X377500Y122750D02*
X418250Y163500D01*
X217500Y136250D02*
X233000D01*
X210000Y128750D02*
X217500Y136250D01*
X210000Y88750D02*
Y128750D01*
X320500Y72750D02*
X326250Y78500D01*
X308000Y72750D02*
X320500D01*
X304250Y69000D02*
X308000Y72750D01*
X290000Y69000D02*
X304250D01*
X326250Y78500D02*
X339382D01*
X308250Y216000D02*
X313800Y221550D01*
X308250Y186000D02*
Y216000D01*
X313800Y221550D02*
X317250D01*
X226460Y58750D02*
Y72290D01*
X317250Y106633D02*
Y176250D01*
X283250Y95250D02*
X305867D01*
X317250Y106633D01*
X377500Y116618D02*
Y122750D01*
X339382Y78500D02*
X377500Y116618D01*
X233000Y136250D02*
X239000Y130250D01*
X254250D01*
X258750Y125750D01*
Y115000D02*
Y125750D01*
X256000Y112250D02*
X258750Y115000D01*
X256000Y96250D02*
Y112250D01*
X261750Y90500D02*
X278500D01*
X256000Y96250D02*
X261750Y90500D01*
X308453Y185047D02*
X317250Y176250D01*
X418250Y163500D02*
Y172500D01*
X278500Y90500D02*
X283250Y95250D01*
X317250Y221550D02*
X320126D01*
X337250Y204426D01*
D142*
X-9750Y262247D02*
X-6000D01*
X366500Y136500D02*
X376250Y146250D01*
X347250Y219000D02*
X363750D01*
X0Y37204D02*
Y39000D01*
X327750Y103000D02*
X333739Y108989D01*
X327750Y93000D02*
Y103000D01*
X319250Y84500D02*
X327750Y93000D01*
X333739Y108989D02*
X347239D01*
X366500Y128250D01*
X292250Y84500D02*
X319250D01*
X284000Y76250D02*
X292250Y84500D01*
X280500Y76250D02*
X284000D01*
X18250Y181250D02*
Y197985D01*
X7750Y170750D02*
X18250Y181250D01*
X-13000Y170750D02*
X7750D01*
X8985Y207250D02*
X18250Y197985D01*
X366500Y128250D02*
Y136500D01*
X351750Y190500D02*
X368500D01*
X0Y39000D02*
Y41689D01*
X-20250Y163500D02*
X-13000Y170750D01*
X-20250Y64250D02*
Y163500D01*
X0Y41689D02*
Y44000D01*
X-20250Y64250D02*
X0Y44000D01*
X-10500Y207250D02*
X8985D01*
X-15750Y212500D02*
X-10500Y207250D01*
X-15750Y212500D02*
Y256744D01*
X-10247Y262247D01*
X348000Y159000D02*
X375000D01*
X368500Y190500D02*
X384250Y174750D01*
D147*
X252705Y183955D02*
Y189431D01*
X277199Y193411D02*
X282675D01*
X332625Y170100D02*
X335955Y173430D01*
X342615D01*
X262695Y187285D02*
Y192761D01*
D149*
X357000Y148000D02*
D03*
X343000Y223750D02*
D03*
X182509Y148500D02*
D03*
X172509D02*
D03*
X433250Y205250D02*
D03*
X459250Y170750D02*
D03*
X464250Y211500D02*
D03*
X427250Y191750D02*
D03*
X122509Y118500D02*
D03*
X140000Y89750D02*
D03*
X330250Y72750D02*
D03*
X348750Y252250D02*
D03*
X238750Y96500D02*
D03*
X294750Y222750D02*
D03*
X331750Y8000D02*
D03*
X336000D02*
D03*
X340250Y8000D02*
D03*
X303000Y58750D02*
D03*
X307500D02*
D03*
X198500Y106000D02*
D03*
X36500Y194750D02*
D03*
X33500Y199250D02*
D03*
X7050Y104218D02*
D03*
Y95776D02*
D03*
X-5250Y145500D02*
D03*
X-5250Y139500D02*
D03*
X37000Y190250D02*
D03*
X32250Y189750D02*
D03*
X14000Y61250D02*
D03*
X347500Y269000D02*
D03*
X259750Y256250D02*
D03*
X93750Y214250D02*
D03*
X177509Y123500D02*
D03*
X347000Y70250D02*
D03*
X359250Y175750D02*
D03*
X165000Y64750D02*
D03*
X192500Y240500D02*
D03*
X43250Y259250D02*
D03*
X48000Y223500D02*
D03*
X154000Y248750D02*
D03*
X153500Y256000D02*
D03*
X82950Y238300D02*
D03*
X74750Y239250D02*
D03*
X75000Y211500D02*
D03*
X58500Y237250D02*
D03*
X75861Y72889D02*
D03*
X67250Y55750D02*
D03*
X407300Y175000D02*
D03*
X8750Y63750D02*
D03*
X53750Y134250D02*
D03*
X224250Y122500D02*
D03*
X231000Y121000D02*
D03*
X217750Y176250D02*
D03*
X22250Y242750D02*
D03*
X103250Y255000D02*
D03*
X46000Y254750D02*
D03*
X29500Y273500D02*
D03*
X222750Y228750D02*
D03*
X286250Y274000D02*
D03*
X137250Y236000D02*
D03*
X1250Y276000D02*
D03*
X127750Y214250D02*
D03*
X347750Y289000D02*
D03*
X138000Y219000D02*
D03*
X101750Y273250D02*
D03*
X111500Y286750D02*
D03*
X109250Y282250D02*
D03*
X243750Y289250D02*
D03*
X239750Y287000D02*
D03*
X234500Y287000D02*
D03*
X338500Y223750D02*
D03*
X251500Y230250D02*
D03*
X391500Y218000D02*
D03*
X409000Y234250D02*
D03*
X329295Y140130D02*
D03*
X332750Y37500D02*
D03*
X340000Y37250D02*
D03*
X331000Y43750D02*
D03*
X148250Y96000D02*
D03*
X116250Y100500D02*
D03*
X750Y257500D02*
D03*
X378500Y124750D02*
D03*
X381750Y244000D02*
D03*
X379250Y221750D02*
D03*
X352750Y285250D02*
D03*
X400250Y287500D02*
D03*
X405000D02*
D03*
X111500Y258750D02*
D03*
X210750Y275000D02*
D03*
X174750Y267250D02*
D03*
X212500Y287500D02*
D03*
X201500Y252750D02*
D03*
X261500Y274750D02*
D03*
X265000Y293250D02*
D03*
X250750Y289500D02*
D03*
X184250Y274500D02*
D03*
X41750Y20750D02*
D03*
X27250Y241000D02*
D03*
X11750Y232750D02*
D03*
X72500Y260750D02*
D03*
X175750Y195250D02*
D03*
X59250Y145000D02*
D03*
X2250Y85500D02*
D03*
X72500Y268250D02*
D03*
X72500Y274875D02*
D03*
X55000Y188350D02*
D03*
X27750Y139000D02*
D03*
X170000Y95500D02*
D03*
X204000Y119000D02*
D03*
X89000Y101250D02*
D03*
X20000Y206000D02*
D03*
X71250Y114000D02*
D03*
X0Y51863D02*
D03*
X148000Y274500D02*
D03*
X164250Y261750D02*
D03*
X147500Y285250D02*
D03*
X49500Y120500D02*
D03*
X126000Y78750D02*
D03*
X113000Y58250D02*
D03*
X115750Y73000D02*
D03*
Y77500D02*
D03*
X201800Y176800D02*
D03*
X0Y32688D02*
D03*
Y37204D02*
D03*
Y41689D02*
D03*
X228000Y158000D02*
D03*
X190250Y286750D02*
D03*
X191000Y172500D02*
D03*
X22250Y147250D02*
D03*
X11750Y90250D02*
D03*
X23250Y98500D02*
D03*
X23250Y105000D02*
D03*
X156500Y195975D02*
D03*
X216250Y161500D02*
D03*
X205250Y141250D02*
D03*
X217500Y206387D02*
D03*
X288750Y287250D02*
D03*
X1343Y271417D02*
D03*
X8550Y121058D02*
D03*
X-8250Y24000D02*
D03*
X72500Y284500D02*
D03*
X71250Y108000D02*
D03*
X162509Y118500D02*
D03*
X157509Y128500D02*
D03*
X28750Y204500D02*
D03*
X5750Y197250D02*
D03*
X105500Y49750D02*
D03*
X340500Y269000D02*
D03*
X332250D02*
D03*
X324000D02*
D03*
X315750D02*
D03*
X307500D02*
D03*
X299250D02*
D03*
X83100Y174200D02*
D03*
X213500Y230750D02*
D03*
X266025Y196741D02*
D03*
X252705Y156781D02*
D03*
X167509Y138500D02*
D03*
Y158500D02*
D03*
X177509Y128500D02*
D03*
X142509Y133500D02*
D03*
X108000Y176000D02*
D03*
X147509Y148500D02*
D03*
X132509Y118500D02*
D03*
X152509Y153500D02*
D03*
X147509Y168500D02*
D03*
X132509Y178500D02*
D03*
X108000Y165250D02*
D03*
X117509Y173500D02*
D03*
X112509Y118750D02*
D03*
X137509Y123500D02*
D03*
X117509Y153500D02*
D03*
X137509Y163500D02*
D03*
X122509Y138500D02*
D03*
X10000Y68750D02*
D03*
X14500Y131750D02*
D03*
X76500Y192000D02*
D03*
X159250Y213000D02*
D03*
X160750Y209250D02*
D03*
X156250D02*
D03*
X57750Y40500D02*
D03*
X66500Y51000D02*
D03*
X60750Y5500D02*
D03*
X73500Y4000D02*
D03*
X217500Y155250D02*
D03*
X218750Y129250D02*
D03*
X371750Y122500D02*
D03*
X348500Y226000D02*
D03*
X240500Y208000D02*
D03*
X383923Y114500D02*
D03*
X373673Y88500D02*
D03*
X215750Y234500D02*
D03*
X111500Y249750D02*
D03*
X152250Y243750D02*
D03*
X263500Y220750D02*
D03*
X292665Y203401D02*
D03*
X450000Y191750D02*
D03*
X368250Y147500D02*
D03*
X402750Y21750D02*
D03*
X463500Y63500D02*
D03*
X448500Y114650D02*
D03*
X329250Y18500D02*
D03*
X306000Y9750D02*
D03*
X301500Y9750D02*
D03*
X352250Y47250D02*
D03*
X356750Y47250D02*
D03*
X404750Y37000D02*
D03*
X445750Y101000D02*
D03*
X353500Y21000D02*
D03*
X375750Y11750D02*
D03*
X361000Y33578D02*
D03*
X355500Y33500D02*
D03*
X178146Y231500D02*
D03*
X183750Y231500D02*
D03*
X269355Y186751D02*
D03*
X422500Y177000D02*
D03*
X403500Y177750D02*
D03*
X404750Y70000D02*
D03*
X411750Y223500D02*
D03*
X400500Y211750D02*
D03*
X374500Y248250D02*
D03*
X306250Y287750D02*
D03*
X110000Y228250D02*
D03*
X187250Y217500D02*
D03*
X176500Y65250D02*
D03*
X177000Y5000D02*
D03*
X205500Y32250D02*
D03*
X-9750Y154250D02*
D03*
X391500Y222250D02*
D03*
X307000Y223000D02*
D03*
X347250Y213500D02*
D03*
X316750Y55500D02*
D03*
X375000Y45750D02*
D03*
X373500Y37000D02*
D03*
X400250Y38750D02*
D03*
X381250Y28750D02*
D03*
X444000Y155750D02*
D03*
X433250Y150750D02*
D03*
X-1678Y158497D02*
D03*
X385750Y110250D02*
D03*
X387500Y146250D02*
D03*
X252705Y176761D02*
D03*
X337500Y84750D02*
D03*
X312500Y89750D02*
D03*
X309315Y106830D02*
D03*
X211250Y234500D02*
D03*
X64250Y218250D02*
D03*
X-8654Y98497D02*
D03*
X-4000Y98500D02*
D03*
X-9500Y128747D02*
D03*
X-9500Y134494D02*
D03*
X-5000Y162500D02*
D03*
X-9250Y162500D02*
D03*
X-5250Y253997D02*
D03*
X-9750Y253995D02*
D03*
X-5250Y262247D02*
D03*
X-9750Y262244D02*
D03*
X-9250Y236750D02*
D03*
Y231250D02*
D03*
X-8750Y213000D02*
D03*
X-9000Y217250D02*
D03*
X155500Y89500D02*
D03*
X169250Y64750D02*
D03*
X181000Y210750D02*
D03*
X207250Y214750D02*
D03*
X-9500Y124000D02*
D03*
X-9250Y78497D02*
D03*
X347250Y219000D02*
D03*
X418250Y173750D02*
D03*
X373050Y148500D02*
D03*
X394500Y173500D02*
D03*
X404500Y133000D02*
D03*
Y140000D02*
D03*
X3750Y3750D02*
D03*
X26604Y30750D02*
D03*
X22104D02*
D03*
X308000Y245000D02*
D03*
X414500Y200500D02*
D03*
X394500Y186750D02*
D03*
Y182250D02*
D03*
X210250Y74750D02*
D03*
X214000Y69500D02*
D03*
X203000Y66750D02*
D03*
X79000Y53000D02*
D03*
X77000Y56750D02*
D03*
X74750Y53000D02*
D03*
X417000Y114250D02*
D03*
X64000Y17000D02*
D03*
X25500Y22500D02*
D03*
X41500Y3000D02*
D03*
X56750Y3250D02*
D03*
X52000Y27250D02*
D03*
X30750D02*
D03*
X-8750Y45000D02*
D03*
Y39750D02*
D03*
X34250Y269750D02*
D03*
X42500Y287500D02*
D03*
X258250Y202250D02*
D03*
X244750Y206250D02*
D03*
X268250Y204750D02*
D03*
X442750Y111000D02*
D03*
X374750Y174000D02*
D03*
X267800Y213700D02*
D03*
X290000Y69000D02*
D03*
X264200Y65250D02*
D03*
X268250D02*
D03*
X276750Y75750D02*
D03*
X304500Y79000D02*
D03*
X276000Y80250D02*
D03*
X266250Y77250D02*
D03*
X254000Y79750D02*
D03*
X243250D02*
D03*
X317250Y221550D02*
D03*
X345750Y116750D02*
D03*
X299500Y181750D02*
D03*
X349371Y167579D02*
D03*
X351601Y189891D02*
D03*
X337250Y204426D02*
D03*
X327000Y54750D02*
D03*
X347250Y159000D02*
D03*
X458750Y192000D02*
D03*
X424750Y184250D02*
D03*
X442750Y105250D02*
D03*
X440750Y101000D02*
D03*
X430925Y119000D02*
D03*
X401000Y136500D02*
D03*
X410000Y115000D02*
D03*
X404450Y115000D02*
D03*
X398785Y115600D02*
D03*
X391000Y123750D02*
D03*
X411500Y165000D02*
D03*
X416250Y178000D02*
D03*
X395250Y57750D02*
D03*
X389500D02*
D03*
X426500Y213250D02*
D03*
X390000Y282500D02*
D03*
X323750Y284250D02*
D03*
X339250Y283500D02*
D03*
X416750Y130000D02*
D03*
X400750Y65750D02*
D03*
X415000Y99250D02*
D03*
X404750Y85500D02*
D03*
X402000Y251750D02*
D03*
X342615Y180090D02*
D03*
X289335Y200071D02*
D03*
X246045Y183421D02*
D03*
X233250Y183369D02*
D03*
X325965Y196741D02*
D03*
X292665Y190081D02*
D03*
X282675Y193411D02*
D03*
X329295Y186751D02*
D03*
X305985Y103500D02*
D03*
X252705Y143460D02*
D03*
X249375Y146790D02*
D03*
X242715Y120150D02*
D03*
X286005Y110160D02*
D03*
X272685Y103500D02*
D03*
X266025Y96840D02*
D03*
X342615Y173430D02*
D03*
X332625Y170100D02*
D03*
X270000Y31000D02*
D03*
X262250Y54750D02*
D03*
X256750D02*
D03*
X256750Y4750D02*
D03*
X262250D02*
D03*
X292500Y11750D02*
D03*
X297000D02*
D03*
X294750Y49750D02*
D03*
X290000D02*
D03*
X228000Y49250D02*
D03*
X232000D02*
D03*
X223750Y12500D02*
D03*
X228500D02*
D03*
X168500Y49750D02*
D03*
X173250D02*
D03*
X168500Y12250D02*
D03*
X173250D02*
D03*
X104750D02*
D03*
X100000D02*
D03*
X100750Y49750D02*
D03*
X133000Y57250D02*
D03*
X138500D02*
D03*
Y4250D02*
D03*
X133000D02*
D03*
X125250Y31000D02*
D03*
X246045Y150120D02*
D03*
D150*
X41750Y102250D02*
D03*
Y91250D02*
D03*
X52750Y102250D02*
D03*
Y91250D02*
D03*
X290645Y133500D02*
D03*
Y123500D02*
D03*
Y153500D02*
D03*
Y143500D02*
D03*
Y163500D02*
D03*
Y173500D02*
D03*
X300645Y173400D02*
D03*
Y163400D02*
D03*
Y143400D02*
D03*
Y153400D02*
D03*
Y123400D02*
D03*
Y133400D02*
D03*
X310645Y163400D02*
D03*
Y143400D02*
D03*
Y153400D02*
D03*
Y133400D02*
D03*
X270645D02*
D03*
Y153400D02*
D03*
Y143400D02*
D03*
Y163400D02*
D03*
X280645Y133400D02*
D03*
Y123400D02*
D03*
Y153400D02*
D03*
Y143400D02*
D03*
Y163400D02*
D03*
Y173400D02*
D03*
D151*
X39750Y158250D02*
D03*
Y169250D02*
D03*
X50750Y158250D02*
D03*
Y169250D02*
D03*
X310645Y173400D02*
D03*
Y123400D02*
D03*
X270645D02*
D03*
Y173400D02*
D03*
D152*
X26604Y35000D02*
X34250D01*
X19500D02*
X26604D01*
X251000Y53250D02*
X259750D01*
X249000Y7250D02*
X261000D01*
X135750Y54250D02*
X143000D01*
X129750Y7500D02*
X148500D01*
X75500Y35540D02*
X85290Y25750D01*
X75500Y35540D02*
Y37000D01*
X75500Y37000D02*
X75500Y37000D01*
X75500Y37000D02*
Y50000D01*
X113646Y76250D02*
X119250D01*
X0Y39000D02*
X8250Y47250D01*
X23000D02*
X52750Y77000D01*
X61750D01*
X69250Y84500D01*
X105396D01*
X147250Y65750D02*
X160750Y52250D01*
X124000Y56000D02*
Y59806D01*
X110000Y42000D02*
X124000Y56000D01*
X97540Y42000D02*
X110000D01*
X340250Y11250D02*
X362000D01*
X332250D02*
X340250D01*
X376500Y260250D02*
X392250Y244500D01*
Y240040D02*
Y244500D01*
Y240040D02*
X402500Y229790D01*
X388500Y207500D02*
Y220500D01*
X392500Y183000D02*
Y203500D01*
X376250Y146250D02*
Y157500D01*
X214000Y234000D02*
Y239000D01*
X362250Y220500D02*
Y225500D01*
X350750Y237000D02*
X362250Y225500D01*
X312250Y237000D02*
X350750D01*
X363750Y219000D02*
X375250Y207500D01*
X297040Y260250D02*
X376500D01*
X375250Y207500D02*
X388500D01*
X306000Y230750D02*
X312250Y237000D01*
X293750Y230750D02*
X306000D01*
X291250Y233250D02*
X293750Y230750D01*
X169250Y36750D02*
X176210D01*
X180960Y41500D01*
X188250D01*
X215210Y47500D02*
X226460Y58750D01*
X194250Y47500D02*
X215210D01*
X188250Y41500D02*
X194250Y47500D01*
X0Y35438D02*
Y37204D01*
X124000Y59806D02*
X129944Y65750D01*
X226460Y58750D02*
X234500D01*
X381750Y51250D02*
X389000Y44000D01*
X384250Y20250D02*
X389000Y25000D01*
Y44000D01*
X86750Y52790D02*
Y59054D01*
Y52790D02*
X97540Y42000D01*
X429500Y64000D02*
X442099D01*
X415750Y77750D02*
X429500Y64000D01*
X398540Y77750D02*
X415750D01*
X442099Y64000D02*
X458000Y79901D01*
Y132250D01*
X362000Y11250D02*
X371000Y20250D01*
X384250D01*
X456000Y134250D02*
X458000Y132250D01*
X291040Y266250D02*
X297040Y260250D01*
X184393Y266250D02*
X291040D01*
X177000Y243500D02*
Y254250D01*
X160750Y227250D02*
X177000Y243500D01*
X129944Y65750D02*
X147250D01*
X143000Y54250D02*
X148000Y49250D01*
Y39500D02*
Y49250D01*
Y39500D02*
X164250Y23250D01*
X160750Y45250D02*
Y52250D01*
X105396Y84500D02*
X113646Y76250D01*
X81304Y64500D02*
X86750Y59054D01*
X8250Y47250D02*
X23000D01*
X183143Y265000D02*
X184393Y266250D01*
X160750Y217500D02*
Y227250D01*
X119250Y76250D02*
X122000Y79000D01*
X402500Y221540D02*
Y229790D01*
Y221540D02*
X408790Y215250D01*
X456000Y134250D02*
Y162500D01*
X450750Y167750D02*
X456000Y162500D01*
X450750Y167750D02*
Y178500D01*
X242000Y243750D02*
X251750Y234000D01*
X252500Y233250D02*
X291250D01*
X218750Y243750D02*
X242000D01*
X429710Y221000D02*
X442250Y208460D01*
Y187000D02*
Y208460D01*
Y187000D02*
X450750Y178500D01*
X214000Y239000D02*
X218750Y243750D01*
X246250Y48500D02*
X251000Y53250D01*
X246250Y39500D02*
Y48500D01*
X231500Y24750D02*
X246250Y39500D01*
X388500Y207500D02*
X392500Y203500D01*
X242750Y67000D02*
X257000D01*
X234500Y58750D02*
X242750Y67000D01*
X422500Y221000D02*
X429710D01*
X63750Y64500D02*
X81304D01*
X34250Y35000D02*
X63750Y64500D01*
X214750Y19750D02*
X219750Y24750D01*
X176750Y19750D02*
X214750D01*
X158250Y215000D02*
X160750Y217500D01*
X381750Y60960D02*
X398540Y77750D01*
X160750Y45250D02*
X169250Y36750D01*
X148500Y7500D02*
X164250Y23250D01*
X111500Y25750D02*
X129750Y7500D01*
X85290Y25750D02*
X111500D01*
X381750Y51250D02*
Y60960D01*
X173250Y23250D02*
X176750Y19750D01*
X416750Y215250D02*
X422500Y221000D01*
X408790Y215250D02*
X416750D01*
X384250Y174750D02*
X392500Y183000D01*
X219750Y24750D02*
X231500D01*
X249000Y7250D01*
X164250Y23250D02*
X173250D01*
X384250Y165500D02*
Y174750D01*
X376250Y157500D02*
X384250Y165500D01*
D154*
X121750Y96000D02*
X128863D01*
X134500Y90363D01*
X119250Y93500D02*
X121750Y96000D01*
X135016Y85484D02*
Y86812D01*
Y85484D02*
X137000Y83500D01*
X152000D01*
X167250Y68250D01*
X90000Y101250D02*
X106000D01*
X113750Y93500D01*
X119250D01*
D155*
X177000Y254250D02*
Y258857D01*
X183143Y265000D01*
M02*
