G04*
G04 #@! TF.GenerationSoftware,Altium Limited,Altium Designer,19.1.6 (110)*
G04*
G04 Layer_Color=8388736*
%FSLAX44Y44*%
%MOMM*%
G71*
G01*
G75*
%ADD75R,3.1250X26.2500*%
G04:AMPARAMS|DCode=76|XSize=0.55mm|YSize=1.1mm|CornerRadius=0.1625mm|HoleSize=0mm|Usage=FLASHONLY|Rotation=90.000|XOffset=0mm|YOffset=0mm|HoleType=Round|Shape=RoundedRectangle|*
%AMROUNDEDRECTD76*
21,1,0.5500,0.7750,0,0,90.0*
21,1,0.2250,1.1000,0,0,90.0*
1,1,0.3250,0.3875,0.1125*
1,1,0.3250,0.3875,-0.1125*
1,1,0.3250,-0.3875,-0.1125*
1,1,0.3250,-0.3875,0.1125*
%
%ADD76ROUNDEDRECTD76*%
%ADD77R,0.4000X0.4500*%
G04:AMPARAMS|DCode=78|XSize=0.625mm|YSize=0.35mm|CornerRadius=0mm|HoleSize=0mm|Usage=FLASHONLY|Rotation=135.000|XOffset=0mm|YOffset=0mm|HoleType=Round|Shape=Rectangle|*
%AMROTATEDRECTD78*
4,1,4,0.3447,-0.0972,0.0972,-0.3447,-0.3447,0.0972,-0.0972,0.3447,0.3447,-0.0972,0.0*
%
%ADD78ROTATEDRECTD78*%

%ADD79R,0.4500X0.4000*%
%ADD80R,0.5400X0.7500*%
G04:AMPARAMS|DCode=81|XSize=0.6mm|YSize=0.7mm|CornerRadius=0.1mm|HoleSize=0mm|Usage=FLASHONLY|Rotation=180.000|XOffset=0mm|YOffset=0mm|HoleType=Round|Shape=RoundedRectangle|*
%AMROUNDEDRECTD81*
21,1,0.6000,0.5000,0,0,180.0*
21,1,0.4000,0.7000,0,0,180.0*
1,1,0.2000,-0.2000,0.2500*
1,1,0.2000,0.2000,0.2500*
1,1,0.2000,0.2000,-0.2500*
1,1,0.2000,-0.2000,-0.2500*
%
%ADD81ROUNDEDRECTD81*%
%ADD82R,2.2000X2.2000*%
%ADD83R,0.9500X0.4000*%
%ADD84R,0.4000X0.9500*%
G04:AMPARAMS|DCode=85|XSize=1.1mm|YSize=1.65mm|CornerRadius=0.175mm|HoleSize=0mm|Usage=FLASHONLY|Rotation=270.000|XOffset=0mm|YOffset=0mm|HoleType=Round|Shape=RoundedRectangle|*
%AMROUNDEDRECTD85*
21,1,1.1000,1.3000,0,0,270.0*
21,1,0.7500,1.6500,0,0,270.0*
1,1,0.3500,-0.6500,-0.3750*
1,1,0.3500,-0.6500,0.3750*
1,1,0.3500,0.6500,0.3750*
1,1,0.3500,0.6500,-0.3750*
%
%ADD85ROUNDEDRECTD85*%
G04:AMPARAMS|DCode=86|XSize=1.3mm|YSize=1.7mm|CornerRadius=0.2mm|HoleSize=0mm|Usage=FLASHONLY|Rotation=0.000|XOffset=0mm|YOffset=0mm|HoleType=Round|Shape=RoundedRectangle|*
%AMROUNDEDRECTD86*
21,1,1.3000,1.3000,0,0,0.0*
21,1,0.9000,1.7000,0,0,0.0*
1,1,0.4000,0.4500,-0.6500*
1,1,0.4000,-0.4500,-0.6500*
1,1,0.4000,-0.4500,0.6500*
1,1,0.4000,0.4500,0.6500*
%
%ADD86ROUNDEDRECTD86*%
G04:AMPARAMS|DCode=87|XSize=1.3mm|YSize=1.3mm|CornerRadius=0.2mm|HoleSize=0mm|Usage=FLASHONLY|Rotation=180.000|XOffset=0mm|YOffset=0mm|HoleType=Round|Shape=RoundedRectangle|*
%AMROUNDEDRECTD87*
21,1,1.3000,0.9000,0,0,180.0*
21,1,0.9000,1.3000,0,0,180.0*
1,1,0.4000,-0.4500,0.4500*
1,1,0.4000,0.4500,0.4500*
1,1,0.4000,0.4500,-0.4500*
1,1,0.4000,-0.4500,-0.4500*
%
%ADD87ROUNDEDRECTD87*%
G04:AMPARAMS|DCode=88|XSize=1.3mm|YSize=2.25mm|CornerRadius=0.2mm|HoleSize=0mm|Usage=FLASHONLY|Rotation=0.000|XOffset=0mm|YOffset=0mm|HoleType=Round|Shape=RoundedRectangle|*
%AMROUNDEDRECTD88*
21,1,1.3000,1.8500,0,0,0.0*
21,1,0.9000,2.2500,0,0,0.0*
1,1,0.4000,0.4500,-0.9250*
1,1,0.4000,-0.4500,-0.9250*
1,1,0.4000,-0.4500,0.9250*
1,1,0.4000,0.4500,0.9250*
%
%ADD88ROUNDEDRECTD88*%
G04:AMPARAMS|DCode=89|XSize=0.6mm|YSize=0.7mm|CornerRadius=0.1mm|HoleSize=0mm|Usage=FLASHONLY|Rotation=90.000|XOffset=0mm|YOffset=0mm|HoleType=Round|Shape=RoundedRectangle|*
%AMROUNDEDRECTD89*
21,1,0.6000,0.5000,0,0,90.0*
21,1,0.4000,0.7000,0,0,90.0*
1,1,0.2000,0.2500,0.2000*
1,1,0.2000,0.2500,-0.2000*
1,1,0.2000,-0.2500,-0.2000*
1,1,0.2000,-0.2500,0.2000*
%
%ADD89ROUNDEDRECTD89*%
G04:AMPARAMS|DCode=90|XSize=1.2mm|YSize=2.25mm|CornerRadius=0.1875mm|HoleSize=0mm|Usage=FLASHONLY|Rotation=180.000|XOffset=0mm|YOffset=0mm|HoleType=Round|Shape=RoundedRectangle|*
%AMROUNDEDRECTD90*
21,1,1.2000,1.8750,0,0,180.0*
21,1,0.8250,2.2500,0,0,180.0*
1,1,0.3750,-0.4125,0.9375*
1,1,0.3750,0.4125,0.9375*
1,1,0.3750,0.4125,-0.9375*
1,1,0.3750,-0.4125,-0.9375*
%
%ADD90ROUNDEDRECTD90*%
G04:AMPARAMS|DCode=91|XSize=1.15mm|YSize=1.7mm|CornerRadius=0.1813mm|HoleSize=0mm|Usage=FLASHONLY|Rotation=180.000|XOffset=0mm|YOffset=0mm|HoleType=Round|Shape=RoundedRectangle|*
%AMROUNDEDRECTD91*
21,1,1.1500,1.3375,0,0,180.0*
21,1,0.7875,1.7000,0,0,180.0*
1,1,0.3625,-0.3938,0.6688*
1,1,0.3625,0.3938,0.6688*
1,1,0.3625,0.3938,-0.6688*
1,1,0.3625,-0.3938,-0.6688*
%
%ADD91ROUNDEDRECTD91*%
G04:AMPARAMS|DCode=92|XSize=0.7mm|YSize=0.7mm|CornerRadius=0.11mm|HoleSize=0mm|Usage=FLASHONLY|Rotation=180.000|XOffset=0mm|YOffset=0mm|HoleType=Round|Shape=RoundedRectangle|*
%AMROUNDEDRECTD92*
21,1,0.7000,0.4800,0,0,180.0*
21,1,0.4800,0.7000,0,0,180.0*
1,1,0.2200,-0.2400,0.2400*
1,1,0.2200,0.2400,0.2400*
1,1,0.2200,0.2400,-0.2400*
1,1,0.2200,-0.2400,-0.2400*
%
%ADD92ROUNDEDRECTD92*%
%ADD93R,0.5000X0.5000*%
%ADD94R,0.7000X0.7000*%
%ADD95R,0.5000X0.5000*%
%ADD96R,0.7000X0.7000*%
%ADD97R,1.0000X1.4000*%
%ADD98R,1.3000X1.6000*%
G04:AMPARAMS|DCode=99|XSize=0.7mm|YSize=0.7mm|CornerRadius=0.11mm|HoleSize=0mm|Usage=FLASHONLY|Rotation=90.000|XOffset=0mm|YOffset=0mm|HoleType=Round|Shape=RoundedRectangle|*
%AMROUNDEDRECTD99*
21,1,0.7000,0.4800,0,0,90.0*
21,1,0.4800,0.7000,0,0,90.0*
1,1,0.2200,0.2400,0.2400*
1,1,0.2200,0.2400,-0.2400*
1,1,0.2200,-0.2400,-0.2400*
1,1,0.2200,-0.2400,0.2400*
%
%ADD99ROUNDEDRECTD99*%
G04:AMPARAMS|DCode=100|XSize=1.1mm|YSize=1mm|CornerRadius=0.1625mm|HoleSize=0mm|Usage=FLASHONLY|Rotation=0.000|XOffset=0mm|YOffset=0mm|HoleType=Round|Shape=RoundedRectangle|*
%AMROUNDEDRECTD100*
21,1,1.1000,0.6750,0,0,0.0*
21,1,0.7750,1.0000,0,0,0.0*
1,1,0.3250,0.3875,-0.3375*
1,1,0.3250,-0.3875,-0.3375*
1,1,0.3250,-0.3875,0.3375*
1,1,0.3250,0.3875,0.3375*
%
%ADD100ROUNDEDRECTD100*%
G04:AMPARAMS|DCode=101|XSize=0.7mm|YSize=1.1mm|CornerRadius=0.125mm|HoleSize=0mm|Usage=FLASHONLY|Rotation=270.000|XOffset=0mm|YOffset=0mm|HoleType=Round|Shape=RoundedRectangle|*
%AMROUNDEDRECTD101*
21,1,0.7000,0.8500,0,0,270.0*
21,1,0.4500,1.1000,0,0,270.0*
1,1,0.2500,-0.4250,-0.2250*
1,1,0.2500,-0.4250,0.2250*
1,1,0.2500,0.4250,0.2250*
1,1,0.2500,0.4250,-0.2250*
%
%ADD101ROUNDEDRECTD101*%
%ADD102R,0.8000X4.5000*%
%ADD103R,3.9000X0.6000*%
%ADD104R,4.5000X0.8000*%
%ADD105R,0.8000X2.7500*%
%ADD106R,0.8000X3.6000*%
%ADD107R,0.6000X3.9000*%
%ADD108R,0.4000X0.7000*%
%ADD109R,1.7000X1.0500*%
G04:AMPARAMS|DCode=110|XSize=1.1mm|YSize=1.1mm|CornerRadius=0.3mm|HoleSize=0mm|Usage=FLASHONLY|Rotation=270.000|XOffset=0mm|YOffset=0mm|HoleType=Round|Shape=RoundedRectangle|*
%AMROUNDEDRECTD110*
21,1,1.1000,0.5000,0,0,270.0*
21,1,0.5000,1.1000,0,0,270.0*
1,1,0.6000,-0.2500,-0.2500*
1,1,0.6000,-0.2500,0.2500*
1,1,0.6000,0.2500,0.2500*
1,1,0.6000,0.2500,-0.2500*
%
%ADD110ROUNDEDRECTD110*%
%ADD111R,1.1000X1.1000*%
%ADD112R,1.1000X1.1000*%
%ADD113R,1.0500X1.1000*%
%ADD114R,2.6000X0.7000*%
%ADD115C,0.3000*%
%ADD116C,2.0000*%
%ADD117R,1.8000X2.6000*%
%ADD118R,0.8000X0.6000*%
%ADD119R,0.4000X0.4100*%
%ADD120C,3.0000*%
G04:AMPARAMS|DCode=121|XSize=1.1mm|YSize=1.6mm|CornerRadius=0.175mm|HoleSize=0mm|Usage=FLASHONLY|Rotation=90.000|XOffset=0mm|YOffset=0mm|HoleType=Round|Shape=RoundedRectangle|*
%AMROUNDEDRECTD121*
21,1,1.1000,1.2500,0,0,90.0*
21,1,0.7500,1.6000,0,0,90.0*
1,1,0.3500,0.6250,0.3750*
1,1,0.3500,0.6250,-0.3750*
1,1,0.3500,-0.6250,-0.3750*
1,1,0.3500,-0.6250,0.3750*
%
%ADD121ROUNDEDRECTD121*%
G04:AMPARAMS|DCode=122|XSize=0.7mm|YSize=1.7mm|CornerRadius=0.125mm|HoleSize=0mm|Usage=FLASHONLY|Rotation=180.000|XOffset=0mm|YOffset=0mm|HoleType=Round|Shape=RoundedRectangle|*
%AMROUNDEDRECTD122*
21,1,0.7000,1.4500,0,0,180.0*
21,1,0.4500,1.7000,0,0,180.0*
1,1,0.2500,-0.2250,0.7250*
1,1,0.2500,0.2250,0.7250*
1,1,0.2500,0.2250,-0.7250*
1,1,0.2500,-0.2250,-0.7250*
%
%ADD122ROUNDEDRECTD122*%
G04:AMPARAMS|DCode=123|XSize=1mm|YSize=1.7mm|CornerRadius=0.1625mm|HoleSize=0mm|Usage=FLASHONLY|Rotation=180.000|XOffset=0mm|YOffset=0mm|HoleType=Round|Shape=RoundedRectangle|*
%AMROUNDEDRECTD123*
21,1,1.0000,1.3750,0,0,180.0*
21,1,0.6750,1.7000,0,0,180.0*
1,1,0.3250,-0.3375,0.6875*
1,1,0.3250,0.3375,0.6875*
1,1,0.3250,0.3375,-0.6875*
1,1,0.3250,-0.3375,-0.6875*
%
%ADD123ROUNDEDRECTD123*%
%ADD124R,0.4100X0.4000*%
G04:AMPARAMS|DCode=125|XSize=1.4mm|YSize=0.9mm|CornerRadius=0.15mm|HoleSize=0mm|Usage=FLASHONLY|Rotation=90.000|XOffset=0mm|YOffset=0mm|HoleType=Round|Shape=RoundedRectangle|*
%AMROUNDEDRECTD125*
21,1,1.4000,0.6000,0,0,90.0*
21,1,1.1000,0.9000,0,0,90.0*
1,1,0.3000,0.3000,0.5500*
1,1,0.3000,0.3000,-0.5500*
1,1,0.3000,-0.3000,-0.5500*
1,1,0.3000,-0.3000,0.5500*
%
%ADD125ROUNDEDRECTD125*%
%ADD126R,0.6000X0.8000*%
%ADD127R,2.6000X1.8000*%
%ADD128R,1.7500X1.0000*%
%ADD129R,1.7500X0.8600*%
G04:AMPARAMS|DCode=130|XSize=1.1mm|YSize=1.1mm|CornerRadius=0.2mm|HoleSize=0mm|Usage=FLASHONLY|Rotation=180.000|XOffset=0mm|YOffset=0mm|HoleType=Round|Shape=RoundedRectangle|*
%AMROUNDEDRECTD130*
21,1,1.1000,0.7000,0,0,180.0*
21,1,0.7000,1.1000,0,0,180.0*
1,1,0.4000,-0.3500,0.3500*
1,1,0.4000,0.3500,0.3500*
1,1,0.4000,0.3500,-0.3500*
1,1,0.4000,-0.3500,-0.3500*
%
%ADD130ROUNDEDRECTD130*%
%ADD131R,0.3000X0.4950*%
%ADD132R,0.4950X0.3000*%
G04:AMPARAMS|DCode=133|XSize=0.33mm|YSize=0.63mm|CornerRadius=0.1025mm|HoleSize=0mm|Usage=FLASHONLY|Rotation=0.000|XOffset=0mm|YOffset=0mm|HoleType=Round|Shape=RoundedRectangle|*
%AMROUNDEDRECTD133*
21,1,0.3300,0.4250,0,0,0.0*
21,1,0.1250,0.6300,0,0,0.0*
1,1,0.2050,0.0625,-0.2125*
1,1,0.2050,-0.0625,-0.2125*
1,1,0.2050,-0.0625,0.2125*
1,1,0.2050,0.0625,0.2125*
%
%ADD133ROUNDEDRECTD133*%
G04:AMPARAMS|DCode=134|XSize=1.1mm|YSize=1mm|CornerRadius=0.1625mm|HoleSize=0mm|Usage=FLASHONLY|Rotation=90.000|XOffset=0mm|YOffset=0mm|HoleType=Round|Shape=RoundedRectangle|*
%AMROUNDEDRECTD134*
21,1,1.1000,0.6750,0,0,90.0*
21,1,0.7750,1.0000,0,0,90.0*
1,1,0.3250,0.3375,0.3875*
1,1,0.3250,0.3375,-0.3875*
1,1,0.3250,-0.3375,-0.3875*
1,1,0.3250,-0.3375,0.3875*
%
%ADD134ROUNDEDRECTD134*%
G04:AMPARAMS|DCode=135|XSize=0.7mm|YSize=0.7mm|CornerRadius=0.11mm|HoleSize=0mm|Usage=FLASHONLY|Rotation=135.000|XOffset=0mm|YOffset=0mm|HoleType=Round|Shape=RoundedRectangle|*
%AMROUNDEDRECTD135*
21,1,0.7000,0.4800,0,0,135.0*
21,1,0.4800,0.7000,0,0,135.0*
1,1,0.2200,0.0000,0.3394*
1,1,0.2200,0.3394,0.0000*
1,1,0.2200,0.0000,-0.3394*
1,1,0.2200,-0.3394,0.0000*
%
%ADD135ROUNDEDRECTD135*%
G04:AMPARAMS|DCode=136|XSize=0.4mm|YSize=0.45mm|CornerRadius=0mm|HoleSize=0mm|Usage=FLASHONLY|Rotation=225.000|XOffset=0mm|YOffset=0mm|HoleType=Round|Shape=Rectangle|*
%AMROTATEDRECTD136*
4,1,4,-0.0177,0.3005,0.3005,-0.0177,0.0177,-0.3005,-0.3005,0.0177,-0.0177,0.3005,0.0*
%
%ADD136ROTATEDRECTD136*%

G04:AMPARAMS|DCode=137|XSize=0.4mm|YSize=0.45mm|CornerRadius=0mm|HoleSize=0mm|Usage=FLASHONLY|Rotation=315.000|XOffset=0mm|YOffset=0mm|HoleType=Round|Shape=Rectangle|*
%AMROTATEDRECTD137*
4,1,4,-0.3005,-0.0177,0.0177,0.3005,0.3005,0.0177,-0.0177,-0.3005,-0.3005,-0.0177,0.0*
%
%ADD137ROTATEDRECTD137*%

%ADD138R,5.5000X5.5000*%
G36*
X231250Y282750D02*
X228750D01*
Y285250D01*
X231250D01*
Y282750D01*
D02*
G37*
G36*
X217250Y282750D02*
X214750D01*
Y285250D01*
X217250D01*
Y282750D01*
D02*
G37*
G36*
X231250Y261250D02*
X228750D01*
Y263750D01*
X231250D01*
Y261250D01*
D02*
G37*
G36*
X217250D02*
X214750D01*
Y263750D01*
X217250D01*
Y261250D01*
D02*
G37*
G36*
X194000Y250750D02*
X186000Y250750D01*
Y254750D01*
X194000D01*
Y250750D01*
D02*
G37*
G36*
X403750Y247000D02*
X395750D01*
Y251000D01*
X403750D01*
Y247000D01*
D02*
G37*
G36*
X318250Y243250D02*
X310250D01*
Y247250D01*
X318250D01*
Y243250D01*
D02*
G37*
G36*
X34500Y240500D02*
X30500D01*
Y248500D01*
X34500D01*
Y240500D01*
D02*
G37*
G36*
X387750Y50500D02*
X383750D01*
Y58500D01*
X387750D01*
Y50500D01*
D02*
G37*
G36*
X318250Y48750D02*
X310250D01*
Y52750D01*
X318250D01*
Y48750D01*
D02*
G37*
G36*
X35500Y33250D02*
X33000D01*
Y35750D01*
X35500D01*
Y33250D01*
D02*
G37*
G36*
X21500D02*
X19000D01*
Y35750D01*
X21500D01*
Y33250D01*
D02*
G37*
G36*
X35500Y11750D02*
X33000D01*
Y14250D01*
X35500D01*
Y11750D01*
D02*
G37*
G36*
X21500Y11750D02*
X19000D01*
Y14250D01*
X21500D01*
Y11750D01*
D02*
G37*
D75*
X-26875Y148250D02*
D03*
D76*
X82750Y293250D02*
D03*
X101250D02*
D03*
X120000Y293250D02*
D03*
D77*
X193200Y26250D02*
D03*
X198800D02*
D03*
X167750Y133500D02*
D03*
X162150D02*
D03*
X155050Y143250D02*
D03*
X149450D02*
D03*
X142800Y128500D02*
D03*
X137200D02*
D03*
X7050Y226000D02*
D03*
X1450D02*
D03*
X7050Y233250D02*
D03*
X1450D02*
D03*
X7050Y107468D02*
D03*
X1450D02*
D03*
X7050Y99026D02*
D03*
X1450D02*
D03*
X87950Y68000D02*
D03*
X93550D02*
D03*
X261300Y208250D02*
D03*
X255700D02*
D03*
X156950Y248750D02*
D03*
X162550D02*
D03*
X74950Y69000D02*
D03*
X80550D02*
D03*
X134300Y152000D02*
D03*
X128700D02*
D03*
X140200Y152000D02*
D03*
X145800D02*
D03*
X144800Y122000D02*
D03*
X139200D02*
D03*
X131600Y134700D02*
D03*
X137200D02*
D03*
X161700Y163000D02*
D03*
X167300D02*
D03*
X136450Y187500D02*
D03*
X142050D02*
D03*
X75950Y8500D02*
D03*
X81550D02*
D03*
X1450Y249250D02*
D03*
X7050D02*
D03*
X8200Y178500D02*
D03*
X13800D02*
D03*
X11950Y141000D02*
D03*
X17550D02*
D03*
X1450Y146000D02*
D03*
X7050D02*
D03*
X86550Y192000D02*
D03*
X80950D02*
D03*
X73200Y147750D02*
D03*
X78800D02*
D03*
X25400Y134500D02*
D03*
X31000D02*
D03*
X73200Y132750D02*
D03*
X78800D02*
D03*
X73200Y140250D02*
D03*
X78800Y140250D02*
D03*
X269300Y246250D02*
D03*
X263700D02*
D03*
X162550Y255250D02*
D03*
X156950D02*
D03*
X96930Y148500D02*
D03*
X91330D02*
D03*
X129710Y168500D02*
D03*
X135309D02*
D03*
X131450Y158500D02*
D03*
X137050D02*
D03*
X82050Y114750D02*
D03*
X76450D02*
D03*
X15050Y165500D02*
D03*
X9450D02*
D03*
X17250Y172000D02*
D03*
X11650D02*
D03*
X15050Y159000D02*
D03*
X9450D02*
D03*
X18550Y185000D02*
D03*
X12950D02*
D03*
X6300Y172000D02*
D03*
X700D02*
D03*
X7050Y131000D02*
D03*
X1450D02*
D03*
Y138500D02*
D03*
X7050D02*
D03*
X50200Y192500D02*
D03*
X55800D02*
D03*
X67800D02*
D03*
X62200D02*
D03*
X14650Y134500D02*
D03*
X20250D02*
D03*
X4150Y201875D02*
D03*
X9750D02*
D03*
X1424Y153468D02*
D03*
X7024D02*
D03*
X64700Y12000D02*
D03*
X70300D02*
D03*
X189146Y234750D02*
D03*
X183546D02*
D03*
X204246Y235000D02*
D03*
X198646D02*
D03*
X236800Y192254D02*
D03*
X231200D02*
D03*
X236800Y199567D02*
D03*
X231200D02*
D03*
X82100Y121250D02*
D03*
X76500D02*
D03*
X234800Y144750D02*
D03*
X229200D02*
D03*
X70800Y5250D02*
D03*
X65200D02*
D03*
X26900Y54700D02*
D03*
X32500D02*
D03*
X190950Y246500D02*
D03*
X196550D02*
D03*
X169950Y102750D02*
D03*
X175550D02*
D03*
X47150Y39950D02*
D03*
X52750D02*
D03*
X52050Y228000D02*
D03*
X46450D02*
D03*
X47200Y214853D02*
D03*
X41600Y214853D02*
D03*
X222800Y170500D02*
D03*
X217200D02*
D03*
X234800Y151250D02*
D03*
X229200D02*
D03*
X426800Y112250D02*
D03*
X421200D02*
D03*
X7050Y61276D02*
D03*
X1450D02*
D03*
X7050Y68718D02*
D03*
X1450D02*
D03*
X7043Y90497D02*
D03*
X1443D02*
D03*
X224500Y94455D02*
D03*
X218900Y94455D02*
D03*
X134000Y68045D02*
D03*
X139600D02*
D03*
X437800Y105250D02*
D03*
X432200Y105250D02*
D03*
X421200Y105250D02*
D03*
X426800Y105250D02*
D03*
X154500Y31000D02*
D03*
X160100Y31000D02*
D03*
X154500Y37750D02*
D03*
X160100D02*
D03*
X280265Y106750D02*
D03*
X285865D02*
D03*
X235150Y37750D02*
D03*
X240750D02*
D03*
X235150Y30500D02*
D03*
X240750D02*
D03*
X206200Y256750D02*
D03*
X211800D02*
D03*
X1450Y239987D02*
D03*
X7050D02*
D03*
X269800Y81750D02*
D03*
X264200D02*
D03*
X279800Y178250D02*
D03*
X274200D02*
D03*
X324800Y115250D02*
D03*
X319200D02*
D03*
X318800Y128750D02*
D03*
X313200D02*
D03*
X257524Y195950D02*
D03*
X251924D02*
D03*
X324274Y160650D02*
D03*
X318674D02*
D03*
X346550Y132000D02*
D03*
X340950D02*
D03*
X281615Y98750D02*
D03*
X276015D02*
D03*
X211855Y145411D02*
D03*
X217455D02*
D03*
X211855Y152581D02*
D03*
X217455D02*
D03*
X324900Y135250D02*
D03*
X330500D02*
D03*
X319174Y122400D02*
D03*
X324774D02*
D03*
X284695Y206250D02*
D03*
X279095D02*
D03*
X284695Y199750D02*
D03*
X279095D02*
D03*
X318800Y135250D02*
D03*
X313200D02*
D03*
X340800Y115000D02*
D03*
X335200D02*
D03*
X279800Y184750D02*
D03*
X274200D02*
D03*
X291355Y175280D02*
D03*
X285755D02*
D03*
X291355Y181805D02*
D03*
X285755D02*
D03*
X263074Y135400D02*
D03*
X257474D02*
D03*
X263074Y143100D02*
D03*
X257474D02*
D03*
X263074Y120150D02*
D03*
X257474D02*
D03*
X263074Y127850D02*
D03*
X257474D02*
D03*
D78*
X211778Y15401D02*
D03*
X215313Y18937D02*
D03*
X218849Y22472D02*
D03*
X213722Y27599D02*
D03*
X210187Y24063D02*
D03*
X206651Y20528D02*
D03*
D79*
X148250Y192300D02*
D03*
Y186700D02*
D03*
X167750Y167950D02*
D03*
Y173550D02*
D03*
X177750Y154100D02*
D03*
Y148500D02*
D03*
X167250Y125800D02*
D03*
Y120200D02*
D03*
X93000Y180450D02*
D03*
Y186050D02*
D03*
X93550Y75061D02*
D03*
Y80661D02*
D03*
X99500Y191800D02*
D03*
Y186200D02*
D03*
X144000Y140950D02*
D03*
Y146550D02*
D03*
X116000Y132200D02*
D03*
Y137800D02*
D03*
X109500Y132200D02*
D03*
Y137800D02*
D03*
X109500Y126300D02*
D03*
Y120700D02*
D03*
X116000Y126300D02*
D03*
Y120700D02*
D03*
X125000Y143550D02*
D03*
Y137950D02*
D03*
X170250Y144050D02*
D03*
Y138450D02*
D03*
X155625Y178500D02*
D03*
Y184100D02*
D03*
X163375Y178500D02*
D03*
Y184100D02*
D03*
X169875Y178500D02*
D03*
Y184100D02*
D03*
X163505Y142900D02*
D03*
Y148500D02*
D03*
X147500Y163300D02*
D03*
Y157700D02*
D03*
X121500Y177050D02*
D03*
Y171450D02*
D03*
X137250Y173950D02*
D03*
Y179550D02*
D03*
X112500Y158800D02*
D03*
Y153200D02*
D03*
X293500Y253450D02*
D03*
Y259050D02*
D03*
X93000Y168700D02*
D03*
Y163100D02*
D03*
X73000Y185300D02*
D03*
Y179700D02*
D03*
X73000Y168700D02*
D03*
Y174300D02*
D03*
X279000Y236300D02*
D03*
X279000Y230700D02*
D03*
X286250Y236300D02*
D03*
Y230700D02*
D03*
X271750Y236300D02*
D03*
X271750Y230700D02*
D03*
X113000Y171450D02*
D03*
Y177050D02*
D03*
X86750Y161050D02*
D03*
Y155450D02*
D03*
X122750Y154200D02*
D03*
Y159800D02*
D03*
X111000Y142700D02*
D03*
Y148300D02*
D03*
X117500Y142700D02*
D03*
Y148300D02*
D03*
X153500Y127700D02*
D03*
Y133300D02*
D03*
X80000Y155450D02*
D03*
Y161050D02*
D03*
X73250Y161050D02*
D03*
Y155450D02*
D03*
X79750Y174300D02*
D03*
Y168700D02*
D03*
X86500D02*
D03*
Y174300D02*
D03*
X17000Y148450D02*
D03*
Y154050D02*
D03*
X86500Y179700D02*
D03*
Y185300D02*
D03*
X79750Y179700D02*
D03*
Y185300D02*
D03*
X12000Y196300D02*
D03*
Y190700D02*
D03*
X199000Y18050D02*
D03*
Y12450D02*
D03*
X237850Y162381D02*
D03*
Y156781D02*
D03*
X40500Y228300D02*
D03*
Y222700D02*
D03*
X181500Y66200D02*
D03*
Y71800D02*
D03*
X343750Y25300D02*
D03*
Y19700D02*
D03*
X3250Y209775D02*
D03*
Y215375D02*
D03*
X188000Y74646D02*
D03*
Y69046D02*
D03*
X358500Y56300D02*
D03*
Y50700D02*
D03*
X351750Y56300D02*
D03*
Y50700D02*
D03*
X9750Y209775D02*
D03*
Y215375D02*
D03*
X173750Y91104D02*
D03*
Y96704D02*
D03*
Y76754D02*
D03*
Y82354D02*
D03*
X188000Y85746D02*
D03*
Y80146D02*
D03*
X187500Y18050D02*
D03*
Y12450D02*
D03*
X118000Y31850D02*
D03*
Y26250D02*
D03*
X277250Y29400D02*
D03*
Y35000D02*
D03*
X55750Y13700D02*
D03*
Y19300D02*
D03*
X41500Y54150D02*
D03*
X41500Y48550D02*
D03*
X54550Y46050D02*
D03*
Y51650D02*
D03*
X48050Y48550D02*
D03*
Y54150D02*
D03*
X306500Y168800D02*
D03*
Y163200D02*
D03*
X255750Y182300D02*
D03*
Y176700D02*
D03*
X214205Y197000D02*
D03*
X214205Y202600D02*
D03*
X447250Y104550D02*
D03*
Y110150D02*
D03*
X445500Y93200D02*
D03*
X445500Y98800D02*
D03*
X158629Y23121D02*
D03*
Y17521D02*
D03*
X288000Y213750D02*
D03*
Y219350D02*
D03*
X280250Y117800D02*
D03*
Y112200D02*
D03*
X236500Y17400D02*
D03*
Y23000D02*
D03*
X393750Y117950D02*
D03*
Y123550D02*
D03*
X311500Y191200D02*
D03*
Y196800D02*
D03*
X311000Y185800D02*
D03*
Y180200D02*
D03*
X272500Y201950D02*
D03*
Y207550D02*
D03*
Y219300D02*
D03*
Y213700D02*
D03*
X276015Y92500D02*
D03*
Y86900D02*
D03*
X338200Y144800D02*
D03*
Y139200D02*
D03*
X279095Y213750D02*
D03*
Y219350D02*
D03*
X314250Y215950D02*
D03*
Y221550D02*
D03*
X285500Y169550D02*
D03*
Y163950D02*
D03*
X272750Y112200D02*
D03*
Y117800D02*
D03*
X324593Y148500D02*
D03*
Y142900D02*
D03*
X354275Y171650D02*
D03*
Y177250D02*
D03*
X317724Y172700D02*
D03*
Y167100D02*
D03*
X305500Y173950D02*
D03*
Y179550D02*
D03*
X317500Y185800D02*
D03*
Y180200D02*
D03*
X290500Y197550D02*
D03*
Y191950D02*
D03*
X304950Y188811D02*
D03*
Y194411D02*
D03*
X274250Y195800D02*
D03*
Y190200D02*
D03*
X242250Y118170D02*
D03*
Y112570D02*
D03*
X235750Y118170D02*
D03*
Y112570D02*
D03*
X214750Y133400D02*
D03*
Y139000D02*
D03*
X221301Y133400D02*
D03*
Y139000D02*
D03*
X228750Y125306D02*
D03*
Y130906D02*
D03*
X235750Y125306D02*
D03*
Y130906D02*
D03*
X324224Y170350D02*
D03*
Y175950D02*
D03*
X347250Y170200D02*
D03*
Y175800D02*
D03*
X307000Y221550D02*
D03*
Y215950D02*
D03*
X323000Y195050D02*
D03*
Y189450D02*
D03*
X334750Y178950D02*
D03*
Y184550D02*
D03*
X235644Y176295D02*
D03*
Y170695D02*
D03*
X228305Y176295D02*
D03*
Y170695D02*
D03*
X330224Y165450D02*
D03*
Y159850D02*
D03*
X263974Y190350D02*
D03*
Y195950D02*
D03*
X265245Y179405D02*
D03*
Y185005D02*
D03*
X246000Y165300D02*
D03*
Y159700D02*
D03*
D80*
X152500Y171500D02*
D03*
X160000D02*
D03*
D81*
X103250Y58500D02*
D03*
Y68500D02*
D03*
X187750Y143500D02*
D03*
Y153500D02*
D03*
X120000Y94500D02*
D03*
Y84500D02*
D03*
X215646Y225000D02*
D03*
Y215000D02*
D03*
X172505Y225000D02*
D03*
Y215000D02*
D03*
X364380Y141000D02*
D03*
Y131000D02*
D03*
X322000Y79750D02*
D03*
Y89750D02*
D03*
X364979Y165750D02*
D03*
Y155750D02*
D03*
X395979Y165750D02*
D03*
Y155750D02*
D03*
X398500Y205000D02*
D03*
X398500Y195000D02*
D03*
X367250Y194750D02*
D03*
Y204750D02*
D03*
D82*
X45250Y163750D02*
D03*
D83*
X64250Y173750D02*
D03*
Y168750D02*
D03*
Y163750D02*
D03*
Y158750D02*
D03*
Y153750D02*
D03*
X26250D02*
D03*
Y158750D02*
D03*
Y163750D02*
D03*
Y168750D02*
D03*
Y173750D02*
D03*
D84*
X55250Y144750D02*
D03*
X50250D02*
D03*
X45250D02*
D03*
X40250D02*
D03*
X35250D02*
D03*
Y182750D02*
D03*
X40250D02*
D03*
X45250D02*
D03*
X50250D02*
D03*
X55250D02*
D03*
D85*
X27250Y40750D02*
D03*
Y6750D02*
D03*
X223000Y290250D02*
D03*
X223000Y256250D02*
D03*
X270500Y290250D02*
D03*
Y256250D02*
D03*
X27250Y290250D02*
D03*
Y256250D02*
D03*
X316500Y6500D02*
D03*
Y40500D02*
D03*
X385500Y290250D02*
D03*
Y256250D02*
D03*
X385500Y6500D02*
D03*
Y40500D02*
D03*
X316500Y290250D02*
D03*
Y256250D02*
D03*
D86*
X10250Y23750D02*
D03*
X44250D02*
D03*
X158750Y273250D02*
D03*
X10250D02*
D03*
X44250D02*
D03*
X333500Y23500D02*
D03*
X299500D02*
D03*
X368500Y273250D02*
D03*
X402500D02*
D03*
X402500Y23500D02*
D03*
X368500D02*
D03*
X333500Y273250D02*
D03*
D87*
X27250Y7750D02*
D03*
Y39750D02*
D03*
X223000Y257250D02*
D03*
Y289250D02*
D03*
X175750Y289250D02*
D03*
Y257250D02*
D03*
X270500Y257250D02*
D03*
Y289250D02*
D03*
X27250Y257250D02*
D03*
Y289250D02*
D03*
X316500Y39500D02*
D03*
Y7500D02*
D03*
X385500Y257250D02*
D03*
Y289250D02*
D03*
X385500Y39500D02*
D03*
Y7500D02*
D03*
X316500Y257250D02*
D03*
Y289250D02*
D03*
D88*
X41250Y23750D02*
D03*
X13250D02*
D03*
X209000Y273250D02*
D03*
X161750Y273250D02*
D03*
X189750D02*
D03*
X284500Y273250D02*
D03*
X256500D02*
D03*
X41250Y273250D02*
D03*
X13250D02*
D03*
X302500Y23500D02*
D03*
X330500D02*
D03*
X399500Y273250D02*
D03*
X371500D02*
D03*
X371500Y23500D02*
D03*
X399500D02*
D03*
X330500Y273250D02*
D03*
X302500D02*
D03*
D89*
X100750Y120250D02*
D03*
X90750D02*
D03*
X100750Y130250D02*
D03*
X90750D02*
D03*
X100750Y140250D02*
D03*
X90750D02*
D03*
X354250Y239500D02*
D03*
X344250D02*
D03*
X404000Y52250D02*
D03*
X394000D02*
D03*
X32500Y234250D02*
D03*
X22500D02*
D03*
X162000Y66354D02*
D03*
X152000D02*
D03*
X162000Y111245D02*
D03*
X172000D02*
D03*
X388000Y204750D02*
D03*
X378000D02*
D03*
X384879Y141000D02*
D03*
X374879Y141000D02*
D03*
X384879Y131000D02*
D03*
X374879D02*
D03*
X342500Y89750D02*
D03*
X332500D02*
D03*
X342500Y79750D02*
D03*
X332500D02*
D03*
X385479Y155750D02*
D03*
X375479Y155750D02*
D03*
X385479Y165750D02*
D03*
X375479Y165750D02*
D03*
X387750Y194750D02*
D03*
X377750D02*
D03*
X196464Y97360D02*
D03*
X206464D02*
D03*
X196000Y53255D02*
D03*
X206000D02*
D03*
D90*
X237000Y273250D02*
D03*
D91*
X206000Y273250D02*
D03*
X240000Y273250D02*
D03*
X192750Y273250D02*
D03*
X253500Y273250D02*
D03*
D92*
X78235Y85475D02*
D03*
Y95475D02*
D03*
X44000Y246750D02*
D03*
Y236750D02*
D03*
X162005Y215000D02*
D03*
Y225000D02*
D03*
X356750Y194750D02*
D03*
Y184750D02*
D03*
Y204750D02*
D03*
Y214750D02*
D03*
X395879Y141000D02*
D03*
Y131000D02*
D03*
X353500Y79750D02*
D03*
Y89750D02*
D03*
D93*
X108250Y103000D02*
D03*
Y111000D02*
D03*
X101750Y94250D02*
D03*
Y86250D02*
D03*
X121250Y191500D02*
D03*
X121250Y183500D02*
D03*
D94*
X100250Y107000D02*
D03*
X116250D02*
D03*
X109750Y90250D02*
D03*
X93750D02*
D03*
X129250Y187500D02*
D03*
X113250D02*
D03*
D95*
X203500Y159500D02*
D03*
X195500D02*
D03*
X179500Y171250D02*
D03*
X187500D02*
D03*
D96*
X199500Y151500D02*
D03*
Y167500D02*
D03*
X183500Y179250D02*
D03*
Y163250D02*
D03*
D97*
X39640Y128850D02*
D03*
X39640Y64850D02*
D03*
D98*
X61640Y121350D02*
D03*
Y69350D02*
D03*
X17640D02*
D03*
X17640Y121350D02*
D03*
D03*
X17640Y69350D02*
D03*
X61640D02*
D03*
Y121350D02*
D03*
D99*
X88250Y106500D02*
D03*
X78250D02*
D03*
X377500Y52750D02*
D03*
X367500D02*
D03*
X332750Y50750D02*
D03*
X342750D02*
D03*
X17250Y223750D02*
D03*
X27250D02*
D03*
X141000Y110995D02*
D03*
X151000D02*
D03*
X208250Y129250D02*
D03*
X198250D02*
D03*
X195750Y42505D02*
D03*
X205750D02*
D03*
D100*
X102000Y156750D02*
D03*
Y173750D02*
D03*
X124000Y70750D02*
D03*
X124000Y53750D02*
D03*
D101*
X21500Y213500D02*
D03*
Y194500D02*
D03*
X44500Y204000D02*
D03*
D102*
X460592Y85750D02*
D03*
Y211250D02*
D03*
D103*
X379092Y67000D02*
D03*
Y230000D02*
D03*
D104*
X441842Y67000D02*
D03*
Y230000D02*
D03*
X316342D02*
D03*
Y67000D02*
D03*
D105*
X297592Y220250D02*
D03*
Y76750D02*
D03*
D106*
Y148500D02*
D03*
D107*
X460592D02*
D03*
D108*
X76500Y26500D02*
D03*
X71500D02*
D03*
X66500D02*
D03*
X61500D02*
D03*
Y46000D02*
D03*
X66500D02*
D03*
X71500D02*
D03*
X76500D02*
D03*
D109*
X69000Y36250D02*
D03*
D110*
X64500Y208500D02*
D03*
D111*
X101500D02*
D03*
X83000D02*
D03*
X120000D02*
D03*
X138500D02*
D03*
X120000Y282500D02*
D03*
X101500D02*
D03*
X83000D02*
D03*
X64500D02*
D03*
D112*
X138500Y227000D02*
D03*
Y245500D02*
D03*
Y264000D02*
D03*
X64500D02*
D03*
Y245500D02*
D03*
Y227000D02*
D03*
D113*
X138500Y282500D02*
D03*
D114*
X-25000Y266497D02*
D03*
Y258497D02*
D03*
Y250497D02*
D03*
Y242497D02*
D03*
Y234497D02*
D03*
Y226497D02*
D03*
Y218497D02*
D03*
Y210497D02*
D03*
X-25000Y170497D02*
D03*
Y162497D02*
D03*
Y154497D02*
D03*
Y146497D02*
D03*
Y138497D02*
D03*
Y130497D02*
D03*
Y122497D02*
D03*
Y114497D02*
D03*
Y106497D02*
D03*
Y98497D02*
D03*
Y90497D02*
D03*
Y82497D02*
D03*
Y74497D02*
D03*
X-25000Y66497D02*
D03*
Y58497D02*
D03*
Y50497D02*
D03*
X-25000Y42497D02*
D03*
Y34497D02*
D03*
D115*
X143750Y43000D02*
D03*
X127750Y19000D02*
D03*
X131750Y19000D02*
D03*
X135750Y19000D02*
D03*
X139750Y19000D02*
D03*
X143750D02*
D03*
X135750Y43000D02*
D03*
X139750D02*
D03*
X127750Y35000D02*
D03*
X131750D02*
D03*
X135750D02*
D03*
X139750D02*
D03*
X143750D02*
D03*
X127750Y43000D02*
D03*
X127750Y39000D02*
D03*
X131750D02*
D03*
X135750D02*
D03*
X139750D02*
D03*
X143750D02*
D03*
X127750Y23000D02*
D03*
X131750D02*
D03*
X135750D02*
D03*
X131750Y43000D02*
D03*
X139750Y23000D02*
D03*
X143750D02*
D03*
Y31000D02*
D03*
X139750D02*
D03*
X135750D02*
D03*
X131750Y31000D02*
D03*
X127750Y31000D02*
D03*
X143750Y27000D02*
D03*
X139750Y27000D02*
D03*
X135750Y27000D02*
D03*
X131750D02*
D03*
X127750D02*
D03*
X251500Y19000D02*
D03*
X267500Y43000D02*
D03*
X263500D02*
D03*
X259500D02*
D03*
X255500D02*
D03*
X251500D02*
D03*
X259500Y19000D02*
D03*
X255500D02*
D03*
X267500Y27000D02*
D03*
X263500D02*
D03*
X259500D02*
D03*
X255500D02*
D03*
X251500D02*
D03*
X267500Y19000D02*
D03*
Y23000D02*
D03*
X263500D02*
D03*
X259500D02*
D03*
X255500D02*
D03*
X251500D02*
D03*
X267500Y39000D02*
D03*
X263500D02*
D03*
X259500D02*
D03*
X263500Y19000D02*
D03*
X255500Y39000D02*
D03*
X251500D02*
D03*
Y31000D02*
D03*
X255500D02*
D03*
X259500D02*
D03*
X263500D02*
D03*
X267500D02*
D03*
X251500Y35000D02*
D03*
X255500D02*
D03*
X259500D02*
D03*
X263500D02*
D03*
X267500D02*
D03*
D116*
X241000Y223500D02*
D03*
D117*
X148000Y88000D02*
D03*
X210500Y74750D02*
D03*
D118*
X162000Y97500D02*
D03*
Y88000D02*
D03*
Y78500D02*
D03*
X134000D02*
D03*
Y88000D02*
D03*
Y97500D02*
D03*
X224500Y65250D02*
D03*
Y74750D02*
D03*
Y84250D02*
D03*
X196500D02*
D03*
Y74750D02*
D03*
Y65250D02*
D03*
D119*
X32500Y242250D02*
D03*
Y246750D02*
D03*
X385750Y56750D02*
D03*
Y52250D02*
D03*
D120*
X30000Y357300D02*
D03*
X528250Y357300D02*
D03*
Y-60300D02*
D03*
X30050Y-60250D02*
D03*
D121*
X175750Y256250D02*
D03*
Y290250D02*
D03*
D122*
X287500Y273250D02*
D03*
D123*
X299500Y273250D02*
D03*
D124*
X187750Y252750D02*
D03*
X192250D02*
D03*
X312000Y50750D02*
D03*
X316500D02*
D03*
X402000Y249000D02*
D03*
X397500D02*
D03*
X312000Y245250D02*
D03*
X316500D02*
D03*
D125*
X387500Y217500D02*
D03*
X367500D02*
D03*
X387500Y182000D02*
D03*
X367500D02*
D03*
D126*
X184500Y197000D02*
D03*
X194000D02*
D03*
X203500D02*
D03*
Y225000D02*
D03*
X194000D02*
D03*
X184500D02*
D03*
D127*
X194000Y211000D02*
D03*
D128*
X400400Y106700D02*
D03*
Y79800D02*
D03*
X368600D02*
D03*
Y106700D02*
D03*
X444150Y213450D02*
D03*
Y186550D02*
D03*
X412350D02*
D03*
Y213450D02*
D03*
X410479Y149450D02*
D03*
Y122550D02*
D03*
X442279D02*
D03*
Y149450D02*
D03*
D129*
X400400Y93250D02*
D03*
X444150Y200000D02*
D03*
X442279Y136000D02*
D03*
D130*
X427500Y88750D02*
D03*
D131*
X431500Y79225D02*
D03*
X427500D02*
D03*
X423500D02*
D03*
Y98275D02*
D03*
X427500D02*
D03*
X431500D02*
D03*
D132*
X417975Y82000D02*
D03*
Y86500D02*
D03*
Y91000D02*
D03*
Y95500D02*
D03*
X437025D02*
D03*
Y91000D02*
D03*
Y86500D02*
D03*
Y82000D02*
D03*
D133*
X411500Y159750D02*
D03*
X416500D02*
D03*
X411500Y168250D02*
D03*
X416500D02*
D03*
X406500D02*
D03*
Y159750D02*
D03*
D134*
X108250Y7750D02*
D03*
X125250D02*
D03*
X163250Y54250D02*
D03*
X146250Y54250D02*
D03*
Y7750D02*
D03*
X163250D02*
D03*
X249000Y54250D02*
D03*
X232000D02*
D03*
X270000Y7750D02*
D03*
X287000D02*
D03*
X270000Y54250D02*
D03*
X287000D02*
D03*
X249000Y7750D02*
D03*
X232000D02*
D03*
X214500Y111250D02*
D03*
X197500D02*
D03*
D135*
X251000Y106750D02*
D03*
X243929Y99679D02*
D03*
D136*
X255980Y93980D02*
D03*
X252020Y90020D02*
D03*
X305700Y200500D02*
D03*
X309660Y204460D02*
D03*
X328994Y193170D02*
D03*
X332954Y197130D02*
D03*
X261355Y88605D02*
D03*
X257395Y84645D02*
D03*
X342204Y161380D02*
D03*
X338244Y157420D02*
D03*
D137*
X344270Y191980D02*
D03*
X348230Y188020D02*
D03*
X263980Y94020D02*
D03*
X260020Y97980D02*
D03*
X344980Y182020D02*
D03*
X341020Y185980D02*
D03*
X271204Y104920D02*
D03*
X267244Y108880D02*
D03*
D138*
X437500Y30500D02*
D03*
Y266500D02*
D03*
M02*
