G04*
G04 #@! TF.GenerationSoftware,Altium Limited,Altium Designer,19.1.6 (110)*
G04*
G04 Layer_Color=16711935*
%FSLAX44Y44*%
%MOMM*%
G71*
G01*
G75*
%ADD24R,0.3000X0.8500*%
%ADD75R,3.1250X26.2500*%
%ADD77R,0.4000X0.4500*%
%ADD79R,0.4500X0.4000*%
G04:AMPARAMS|DCode=81|XSize=0.6mm|YSize=0.7mm|CornerRadius=0.1mm|HoleSize=0mm|Usage=FLASHONLY|Rotation=180.000|XOffset=0mm|YOffset=0mm|HoleType=Round|Shape=RoundedRectangle|*
%AMROUNDEDRECTD81*
21,1,0.6000,0.5000,0,0,180.0*
21,1,0.4000,0.7000,0,0,180.0*
1,1,0.2000,-0.2000,0.2500*
1,1,0.2000,0.2000,0.2500*
1,1,0.2000,0.2000,-0.2500*
1,1,0.2000,-0.2000,-0.2500*
%
%ADD81ROUNDEDRECTD81*%
G04:AMPARAMS|DCode=89|XSize=0.6mm|YSize=0.7mm|CornerRadius=0.1mm|HoleSize=0mm|Usage=FLASHONLY|Rotation=90.000|XOffset=0mm|YOffset=0mm|HoleType=Round|Shape=RoundedRectangle|*
%AMROUNDEDRECTD89*
21,1,0.6000,0.5000,0,0,90.0*
21,1,0.4000,0.7000,0,0,90.0*
1,1,0.2000,0.2500,0.2000*
1,1,0.2000,0.2500,-0.2000*
1,1,0.2000,-0.2500,-0.2000*
1,1,0.2000,-0.2500,0.2000*
%
%ADD89ROUNDEDRECTD89*%
G04:AMPARAMS|DCode=92|XSize=0.7mm|YSize=0.7mm|CornerRadius=0.11mm|HoleSize=0mm|Usage=FLASHONLY|Rotation=180.000|XOffset=0mm|YOffset=0mm|HoleType=Round|Shape=RoundedRectangle|*
%AMROUNDEDRECTD92*
21,1,0.7000,0.4800,0,0,180.0*
21,1,0.4800,0.7000,0,0,180.0*
1,1,0.2200,-0.2400,0.2400*
1,1,0.2200,0.2400,0.2400*
1,1,0.2200,0.2400,-0.2400*
1,1,0.2200,-0.2400,-0.2400*
%
%ADD92ROUNDEDRECTD92*%
G04:AMPARAMS|DCode=100|XSize=1.1mm|YSize=1mm|CornerRadius=0.1625mm|HoleSize=0mm|Usage=FLASHONLY|Rotation=0.000|XOffset=0mm|YOffset=0mm|HoleType=Round|Shape=RoundedRectangle|*
%AMROUNDEDRECTD100*
21,1,1.1000,0.6750,0,0,0.0*
21,1,0.7750,1.0000,0,0,0.0*
1,1,0.3250,0.3875,-0.3375*
1,1,0.3250,-0.3875,-0.3375*
1,1,0.3250,-0.3875,0.3375*
1,1,0.3250,0.3875,0.3375*
%
%ADD100ROUNDEDRECTD100*%
G04:AMPARAMS|DCode=101|XSize=0.7mm|YSize=1.1mm|CornerRadius=0.125mm|HoleSize=0mm|Usage=FLASHONLY|Rotation=270.000|XOffset=0mm|YOffset=0mm|HoleType=Round|Shape=RoundedRectangle|*
%AMROUNDEDRECTD101*
21,1,0.7000,0.8500,0,0,270.0*
21,1,0.4500,1.1000,0,0,270.0*
1,1,0.2500,-0.4250,-0.2250*
1,1,0.2500,-0.4250,0.2250*
1,1,0.2500,0.4250,0.2250*
1,1,0.2500,0.4250,-0.2250*
%
%ADD101ROUNDEDRECTD101*%
%ADD114R,2.6000X0.7000*%
%ADD116C,2.0000*%
%ADD120C,3.0000*%
G04:AMPARAMS|DCode=125|XSize=1.4mm|YSize=0.9mm|CornerRadius=0.15mm|HoleSize=0mm|Usage=FLASHONLY|Rotation=90.000|XOffset=0mm|YOffset=0mm|HoleType=Round|Shape=RoundedRectangle|*
%AMROUNDEDRECTD125*
21,1,1.4000,0.6000,0,0,90.0*
21,1,1.1000,0.9000,0,0,90.0*
1,1,0.3000,0.3000,0.5500*
1,1,0.3000,0.3000,-0.5500*
1,1,0.3000,-0.3000,-0.5500*
1,1,0.3000,-0.3000,0.5500*
%
%ADD125ROUNDEDRECTD125*%
%ADD126R,0.6000X0.8000*%
%ADD127R,2.6000X1.8000*%
G04:AMPARAMS|DCode=130|XSize=1.1mm|YSize=1.1mm|CornerRadius=0.2mm|HoleSize=0mm|Usage=FLASHONLY|Rotation=180.000|XOffset=0mm|YOffset=0mm|HoleType=Round|Shape=RoundedRectangle|*
%AMROUNDEDRECTD130*
21,1,1.1000,0.7000,0,0,180.0*
21,1,0.7000,1.1000,0,0,180.0*
1,1,0.4000,-0.3500,0.3500*
1,1,0.4000,0.3500,0.3500*
1,1,0.4000,0.3500,-0.3500*
1,1,0.4000,-0.3500,-0.3500*
%
%ADD130ROUNDEDRECTD130*%
%ADD131R,0.3000X0.4950*%
%ADD132R,0.4950X0.3000*%
G04:AMPARAMS|DCode=133|XSize=0.33mm|YSize=0.63mm|CornerRadius=0.1025mm|HoleSize=0mm|Usage=FLASHONLY|Rotation=0.000|XOffset=0mm|YOffset=0mm|HoleType=Round|Shape=RoundedRectangle|*
%AMROUNDEDRECTD133*
21,1,0.3300,0.4250,0,0,0.0*
21,1,0.1250,0.6300,0,0,0.0*
1,1,0.2050,0.0625,-0.2125*
1,1,0.2050,-0.0625,-0.2125*
1,1,0.2050,-0.0625,0.2125*
1,1,0.2050,0.0625,0.2125*
%
%ADD133ROUNDEDRECTD133*%
G04:AMPARAMS|DCode=134|XSize=1.1mm|YSize=1mm|CornerRadius=0.1625mm|HoleSize=0mm|Usage=FLASHONLY|Rotation=90.000|XOffset=0mm|YOffset=0mm|HoleType=Round|Shape=RoundedRectangle|*
%AMROUNDEDRECTD134*
21,1,1.1000,0.6750,0,0,90.0*
21,1,0.7750,1.0000,0,0,90.0*
1,1,0.3250,0.3375,0.3875*
1,1,0.3250,0.3375,-0.3875*
1,1,0.3250,-0.3375,-0.3875*
1,1,0.3250,-0.3375,0.3875*
%
%ADD134ROUNDEDRECTD134*%
G04:AMPARAMS|DCode=136|XSize=0.4mm|YSize=0.45mm|CornerRadius=0mm|HoleSize=0mm|Usage=FLASHONLY|Rotation=225.000|XOffset=0mm|YOffset=0mm|HoleType=Round|Shape=Rectangle|*
%AMROTATEDRECTD136*
4,1,4,-0.0177,0.3005,0.3005,-0.0177,0.0177,-0.3005,-0.3005,0.0177,-0.0177,0.3005,0.0*
%
%ADD136ROTATEDRECTD136*%

G04:AMPARAMS|DCode=137|XSize=0.4mm|YSize=0.45mm|CornerRadius=0mm|HoleSize=0mm|Usage=FLASHONLY|Rotation=315.000|XOffset=0mm|YOffset=0mm|HoleType=Round|Shape=Rectangle|*
%AMROTATEDRECTD137*
4,1,4,-0.3005,-0.0177,0.0177,0.3005,0.3005,0.0177,-0.0177,-0.3005,-0.3005,-0.0177,0.0*
%
%ADD137ROTATEDRECTD137*%

%ADD138R,5.5000X5.5000*%
%ADD153C,0.3500*%
%ADD154C,0.4000*%
%ADD186R,7.0000X7.0000*%
%ADD187R,0.7500X0.3000*%
%ADD188R,0.3000X0.7500*%
%ADD189R,0.2100X0.2750*%
%ADD190R,1.1000X0.4500*%
%ADD191R,0.8000X0.4000*%
%ADD192R,0.6000X0.4000*%
%ADD193R,0.2750X0.2100*%
G04:AMPARAMS|DCode=194|XSize=0.4mm|YSize=0.8mm|CornerRadius=0.0995mm|HoleSize=0mm|Usage=FLASHONLY|Rotation=180.000|XOffset=0mm|YOffset=0mm|HoleType=Round|Shape=RoundedRectangle|*
%AMROUNDEDRECTD194*
21,1,0.4000,0.6010,0,0,180.0*
21,1,0.2010,0.8000,0,0,180.0*
1,1,0.1990,-0.1005,0.3005*
1,1,0.1990,0.1005,0.3005*
1,1,0.1990,0.1005,-0.3005*
1,1,0.1990,-0.1005,-0.3005*
%
%ADD194ROUNDEDRECTD194*%
%ADD195R,0.3500X0.6250*%
%ADD196R,0.6250X0.3500*%
G04:AMPARAMS|DCode=197|XSize=0.4mm|YSize=1.25mm|CornerRadius=0.125mm|HoleSize=0mm|Usage=FLASHONLY|Rotation=180.000|XOffset=0mm|YOffset=0mm|HoleType=Round|Shape=RoundedRectangle|*
%AMROUNDEDRECTD197*
21,1,0.4000,1.0000,0,0,180.0*
21,1,0.1500,1.2500,0,0,180.0*
1,1,0.2500,-0.0750,0.5000*
1,1,0.2500,0.0750,0.5000*
1,1,0.2500,0.0750,-0.5000*
1,1,0.2500,-0.0750,-0.5000*
%
%ADD197ROUNDEDRECTD197*%
G04:AMPARAMS|DCode=198|XSize=0.4mm|YSize=1.25mm|CornerRadius=0.125mm|HoleSize=0mm|Usage=FLASHONLY|Rotation=270.000|XOffset=0mm|YOffset=0mm|HoleType=Round|Shape=RoundedRectangle|*
%AMROUNDEDRECTD198*
21,1,0.4000,1.0000,0,0,270.0*
21,1,0.1500,1.2500,0,0,270.0*
1,1,0.2500,-0.5000,-0.0750*
1,1,0.2500,-0.5000,0.0750*
1,1,0.2500,0.5000,0.0750*
1,1,0.2500,0.5000,-0.0750*
%
%ADD198ROUNDEDRECTD198*%
%ADD199R,4.3000X4.3000*%
G04:AMPARAMS|DCode=200|XSize=0.6mm|YSize=0.7mm|CornerRadius=0.1125mm|HoleSize=0mm|Usage=FLASHONLY|Rotation=270.000|XOffset=0mm|YOffset=0mm|HoleType=Round|Shape=RoundedRectangle|*
%AMROUNDEDRECTD200*
21,1,0.6000,0.4750,0,0,270.0*
21,1,0.3750,0.7000,0,0,270.0*
1,1,0.2250,-0.2375,-0.1875*
1,1,0.2250,-0.2375,0.1875*
1,1,0.2250,0.2375,0.1875*
1,1,0.2250,0.2375,-0.1875*
%
%ADD200ROUNDEDRECTD200*%
G04:AMPARAMS|DCode=201|XSize=1.4mm|YSize=1.95mm|CornerRadius=0.375mm|HoleSize=0mm|Usage=FLASHONLY|Rotation=270.000|XOffset=0mm|YOffset=0mm|HoleType=Round|Shape=RoundedRectangle|*
%AMROUNDEDRECTD201*
21,1,1.4000,1.2000,0,0,270.0*
21,1,0.6500,1.9500,0,0,270.0*
1,1,0.7500,-0.6000,-0.3250*
1,1,0.7500,-0.6000,0.3250*
1,1,0.7500,0.6000,0.3250*
1,1,0.7500,0.6000,-0.3250*
%
%ADD201ROUNDEDRECTD201*%
%ADD202C,1.1000*%
%ADD203R,1.8000X1.8000*%
%ADD204R,0.7400X0.3900*%
G04:AMPARAMS|DCode=205|XSize=1.7mm|YSize=0.6mm|CornerRadius=0.125mm|HoleSize=0mm|Usage=FLASHONLY|Rotation=0.000|XOffset=0mm|YOffset=0mm|HoleType=Round|Shape=RoundedRectangle|*
%AMROUNDEDRECTD205*
21,1,1.7000,0.3500,0,0,0.0*
21,1,1.4500,0.6000,0,0,0.0*
1,1,0.2500,0.7250,-0.1750*
1,1,0.2500,-0.7250,-0.1750*
1,1,0.2500,-0.7250,0.1750*
1,1,0.2500,0.7250,0.1750*
%
%ADD205ROUNDEDRECTD205*%
G04:AMPARAMS|DCode=206|XSize=0.55mm|YSize=0.45mm|CornerRadius=0.1025mm|HoleSize=0mm|Usage=FLASHONLY|Rotation=180.000|XOffset=0mm|YOffset=0mm|HoleType=Round|Shape=RoundedRectangle|*
%AMROUNDEDRECTD206*
21,1,0.5500,0.2450,0,0,180.0*
21,1,0.3450,0.4500,0,0,180.0*
1,1,0.2050,-0.1725,0.1225*
1,1,0.2050,0.1725,0.1225*
1,1,0.2050,0.1725,-0.1225*
1,1,0.2050,-0.1725,-0.1225*
%
%ADD206ROUNDEDRECTD206*%
G04:AMPARAMS|DCode=207|XSize=0.4mm|YSize=0.8mm|CornerRadius=0.125mm|HoleSize=0mm|Usage=FLASHONLY|Rotation=180.000|XOffset=0mm|YOffset=0mm|HoleType=Round|Shape=RoundedRectangle|*
%AMROUNDEDRECTD207*
21,1,0.4000,0.5500,0,0,180.0*
21,1,0.1500,0.8000,0,0,180.0*
1,1,0.2500,-0.0750,0.2750*
1,1,0.2500,0.0750,0.2750*
1,1,0.2500,0.0750,-0.2750*
1,1,0.2500,-0.0750,-0.2750*
%
%ADD207ROUNDEDRECTD207*%
G04:AMPARAMS|DCode=208|XSize=0.9mm|YSize=0.9mm|CornerRadius=0.17mm|HoleSize=0mm|Usage=FLASHONLY|Rotation=0.000|XOffset=0mm|YOffset=0mm|HoleType=Round|Shape=RoundedRectangle|*
%AMROUNDEDRECTD208*
21,1,0.9000,0.5600,0,0,0.0*
21,1,0.5600,0.9000,0,0,0.0*
1,1,0.3400,0.2800,-0.2800*
1,1,0.3400,-0.2800,-0.2800*
1,1,0.3400,-0.2800,0.2800*
1,1,0.3400,0.2800,0.2800*
%
%ADD208ROUNDEDRECTD208*%
G04:AMPARAMS|DCode=209|XSize=0.3mm|YSize=0.55mm|CornerRadius=0.08mm|HoleSize=0mm|Usage=FLASHONLY|Rotation=0.000|XOffset=0mm|YOffset=0mm|HoleType=Round|Shape=RoundedRectangle|*
%AMROUNDEDRECTD209*
21,1,0.3000,0.3900,0,0,0.0*
21,1,0.1400,0.5500,0,0,0.0*
1,1,0.1600,0.0700,-0.1950*
1,1,0.1600,-0.0700,-0.1950*
1,1,0.1600,-0.0700,0.1950*
1,1,0.1600,0.0700,0.1950*
%
%ADD209ROUNDEDRECTD209*%
G04:AMPARAMS|DCode=210|XSize=0.3mm|YSize=0.55mm|CornerRadius=0.08mm|HoleSize=0mm|Usage=FLASHONLY|Rotation=90.000|XOffset=0mm|YOffset=0mm|HoleType=Round|Shape=RoundedRectangle|*
%AMROUNDEDRECTD210*
21,1,0.3000,0.3900,0,0,90.0*
21,1,0.1400,0.5500,0,0,90.0*
1,1,0.1600,0.1950,0.0700*
1,1,0.1600,0.1950,-0.0700*
1,1,0.1600,-0.1950,-0.0700*
1,1,0.1600,-0.1950,0.0700*
%
%ADD210ROUNDEDRECTD210*%
G36*
X145500Y265500D02*
X149000D01*
Y269000D01*
X145500Y272500D01*
X145500Y265500D01*
D02*
G37*
G36*
Y280500D02*
X149000D01*
Y277000D01*
X145500Y273500D01*
X145500Y280500D01*
D02*
G37*
G36*
X161500Y265500D02*
Y272500D01*
X158000D01*
Y265500D01*
X161500D01*
D02*
G37*
G36*
Y280500D02*
X158000D01*
Y277000D01*
X161500Y273500D01*
X161500Y280500D01*
D02*
G37*
G36*
X181250Y265500D02*
X184750D01*
Y269000D01*
X181250Y272500D01*
X181250Y265500D01*
D02*
G37*
G36*
Y280500D02*
X184750D01*
Y277000D01*
X181250Y273500D01*
X181250Y280500D01*
D02*
G37*
G36*
X197250Y265500D02*
Y272500D01*
X193750D01*
Y265500D01*
X197250D01*
D02*
G37*
G36*
Y280500D02*
X193750D01*
Y277000D01*
X197250Y273500D01*
X197250Y280500D01*
D02*
G37*
G36*
X221750Y265500D02*
X225250D01*
Y269000D01*
X221750Y272500D01*
X221750Y265500D01*
D02*
G37*
G36*
Y280500D02*
X225250D01*
Y277000D01*
X221750Y273500D01*
X221750Y280500D01*
D02*
G37*
G36*
X237750Y265500D02*
Y272500D01*
X234250D01*
Y265500D01*
X237750D01*
D02*
G37*
G36*
Y280500D02*
X234250D01*
Y277000D01*
X237750Y273500D01*
X237750Y280500D01*
D02*
G37*
G36*
X257750Y265500D02*
X261250D01*
Y269000D01*
X257750Y272500D01*
X257750Y265500D01*
D02*
G37*
G36*
Y280500D02*
X261250D01*
Y277000D01*
X257750Y273500D01*
X257750Y280500D01*
D02*
G37*
G36*
X273750Y265500D02*
Y272500D01*
X270250D01*
Y265500D01*
X273750D01*
D02*
G37*
G36*
Y280500D02*
X270250D01*
Y277000D01*
X273750Y273500D01*
X273750Y280500D01*
D02*
G37*
D24*
X235750Y265750D02*
D03*
X195250D02*
D03*
X271750D02*
D03*
X159500D02*
D03*
D75*
X-26875Y148250D02*
D03*
D77*
X182700Y241000D02*
D03*
X188300D02*
D03*
X26050Y224250D02*
D03*
X20450D02*
D03*
X22200Y217750D02*
D03*
X27800D02*
D03*
X175950Y256500D02*
D03*
X181550D02*
D03*
X321300Y227000D02*
D03*
X315700D02*
D03*
X315700Y234500D02*
D03*
X321300D02*
D03*
X308800Y230500D02*
D03*
X303200D02*
D03*
X291450D02*
D03*
X297050D02*
D03*
X352950Y257000D02*
D03*
X358550D02*
D03*
X41200Y193250D02*
D03*
X46800D02*
D03*
X36200Y199250D02*
D03*
X41800D02*
D03*
X143800Y255250D02*
D03*
X138200D02*
D03*
X7275Y115333D02*
D03*
X1675D02*
D03*
X80800Y135750D02*
D03*
X75200D02*
D03*
X74050Y45750D02*
D03*
X68450D02*
D03*
X86950Y215500D02*
D03*
X92550D02*
D03*
X78950Y190250D02*
D03*
X84550D02*
D03*
X68550Y174500D02*
D03*
X62950D02*
D03*
X54800D02*
D03*
X49200D02*
D03*
X36450Y205750D02*
D03*
X42050D02*
D03*
X63800Y231750D02*
D03*
X58200D02*
D03*
X74700Y197250D02*
D03*
X80300D02*
D03*
X13700Y211750D02*
D03*
X19300D02*
D03*
X154600Y224000D02*
D03*
X149000D02*
D03*
X154600Y239000D02*
D03*
X149000D02*
D03*
X154600Y231500D02*
D03*
X149000D02*
D03*
X371950Y32500D02*
D03*
X377550D02*
D03*
X7300Y137500D02*
D03*
X1700D02*
D03*
X239800Y256000D02*
D03*
X234200D02*
D03*
X164200Y250250D02*
D03*
X169800D02*
D03*
X263950Y255750D02*
D03*
X269550D02*
D03*
X274800Y249250D02*
D03*
X269200D02*
D03*
X123350Y216250D02*
D03*
X117750D02*
D03*
X53750Y137050D02*
D03*
X59350Y137050D02*
D03*
X107150Y216250D02*
D03*
X112750Y216250D02*
D03*
X297300Y285250D02*
D03*
X291700D02*
D03*
X143850Y247375D02*
D03*
X138250D02*
D03*
X312200Y284500D02*
D03*
X306600D02*
D03*
X218050Y291750D02*
D03*
X212450D02*
D03*
X166800D02*
D03*
X161200D02*
D03*
X252050D02*
D03*
X246450D02*
D03*
X170050Y256500D02*
D03*
X164450D02*
D03*
X43450Y54250D02*
D03*
X49050Y54250D02*
D03*
X28950Y50750D02*
D03*
X34550D02*
D03*
X320300Y7000D02*
D03*
X314700D02*
D03*
X398250Y4000D02*
D03*
X403850D02*
D03*
X35766Y43666D02*
D03*
X41366D02*
D03*
X23438D02*
D03*
X29038D02*
D03*
X333050Y30750D02*
D03*
X327450D02*
D03*
X29450Y211750D02*
D03*
X35050D02*
D03*
X201800Y173000D02*
D03*
X196200D02*
D03*
X406200Y179750D02*
D03*
X411800D02*
D03*
X418150Y187000D02*
D03*
X423750D02*
D03*
X406150D02*
D03*
X411750D02*
D03*
X224050Y211750D02*
D03*
X218450D02*
D03*
X101000Y226750D02*
D03*
X106600D02*
D03*
X216450Y146000D02*
D03*
X222050D02*
D03*
X257050Y65750D02*
D03*
X251450D02*
D03*
X364050Y120150D02*
D03*
X358450D02*
D03*
X7300Y131000D02*
D03*
X1700Y131000D02*
D03*
X7300Y121808D02*
D03*
X1700D02*
D03*
X17195Y6750D02*
D03*
X22795Y6750D02*
D03*
X7293Y144667D02*
D03*
X1693D02*
D03*
X393185Y119100D02*
D03*
X398785Y119100D02*
D03*
X410050Y118500D02*
D03*
X404450D02*
D03*
X364050Y127500D02*
D03*
X358450D02*
D03*
X257550Y214500D02*
D03*
X251950D02*
D03*
X224500Y192500D02*
D03*
X218900D02*
D03*
X224500Y200000D02*
D03*
X218900D02*
D03*
X292665Y84000D02*
D03*
X287065D02*
D03*
X281550D02*
D03*
X275950D02*
D03*
X270750D02*
D03*
X265150D02*
D03*
X297950D02*
D03*
X303550D02*
D03*
X259750D02*
D03*
X254150D02*
D03*
X248750D02*
D03*
X243150D02*
D03*
X371850Y165950D02*
D03*
X366250D02*
D03*
X367450Y152050D02*
D03*
X373050D02*
D03*
D79*
X-2250Y69000D02*
D03*
Y63400D02*
D03*
X222250Y134450D02*
D03*
Y140050D02*
D03*
X179500Y287200D02*
D03*
Y292800D02*
D03*
X82750Y162300D02*
D03*
Y156700D02*
D03*
X76250Y162300D02*
D03*
Y156700D02*
D03*
X20500Y236050D02*
D03*
Y230450D02*
D03*
X209500Y267050D02*
D03*
Y261450D02*
D03*
X315750Y246800D02*
D03*
Y241200D02*
D03*
X426250Y150450D02*
D03*
Y156050D02*
D03*
X352500Y272700D02*
D03*
Y278300D02*
D03*
X68750Y135450D02*
D03*
Y141050D02*
D03*
X74250Y145200D02*
D03*
Y150800D02*
D03*
X107000Y205800D02*
D03*
Y200200D02*
D03*
X86500Y221700D02*
D03*
X86500Y227300D02*
D03*
X64000Y203700D02*
D03*
Y209300D02*
D03*
X29500Y144450D02*
D03*
Y150050D02*
D03*
X86500Y232700D02*
D03*
X86500Y238300D02*
D03*
X45000Y162950D02*
D03*
Y168550D02*
D03*
X69250Y227450D02*
D03*
Y233050D02*
D03*
X80000Y227450D02*
D03*
Y233050D02*
D03*
X32800Y157400D02*
D03*
Y163000D02*
D03*
X358000Y265450D02*
D03*
Y271050D02*
D03*
X1830Y262497D02*
D03*
Y268097D02*
D03*
X2250Y239050D02*
D03*
Y233450D02*
D03*
X53250Y239500D02*
D03*
Y233900D02*
D03*
X46750D02*
D03*
Y239500D02*
D03*
X19750Y169200D02*
D03*
Y174800D02*
D03*
X12650Y169180D02*
D03*
Y174780D02*
D03*
X9900Y163850D02*
D03*
Y158250D02*
D03*
X149250Y247700D02*
D03*
Y253300D02*
D03*
X220750Y160700D02*
D03*
Y166300D02*
D03*
X381650Y261450D02*
D03*
Y267050D02*
D03*
X304000Y278300D02*
D03*
Y272700D02*
D03*
X295750D02*
D03*
Y278300D02*
D03*
X312250Y272700D02*
D03*
X312250Y278300D02*
D03*
X320500Y272700D02*
D03*
X320500Y278300D02*
D03*
X337000Y272700D02*
D03*
Y278300D02*
D03*
X328750Y272700D02*
D03*
Y278300D02*
D03*
X303250Y265550D02*
D03*
Y259950D02*
D03*
X295000D02*
D03*
Y265550D02*
D03*
X311500Y259950D02*
D03*
Y265550D02*
D03*
X319750Y259950D02*
D03*
Y265550D02*
D03*
X156500Y198950D02*
D03*
Y204550D02*
D03*
X336250Y259950D02*
D03*
Y265550D02*
D03*
X328000Y259950D02*
D03*
Y265550D02*
D03*
X196200Y179500D02*
D03*
X196200Y185100D02*
D03*
X140735Y199126D02*
D03*
Y204726D02*
D03*
Y227876D02*
D03*
Y233476D02*
D03*
X289250Y278300D02*
D03*
Y272700D02*
D03*
X61750Y48750D02*
D03*
Y54350D02*
D03*
X55000D02*
D03*
Y48750D02*
D03*
X14000Y18050D02*
D03*
Y12450D02*
D03*
X108500Y238300D02*
D03*
Y232700D02*
D03*
X100250Y232450D02*
D03*
Y238050D02*
D03*
X429500Y68850D02*
D03*
Y63250D02*
D03*
X437000Y68800D02*
D03*
Y63200D02*
D03*
X357300Y291000D02*
D03*
Y285400D02*
D03*
X66750Y5500D02*
D03*
Y11100D02*
D03*
X142550Y293000D02*
D03*
Y287400D02*
D03*
X338500Y18700D02*
D03*
Y24300D02*
D03*
X219500Y217700D02*
D03*
Y223300D02*
D03*
X226000Y217700D02*
D03*
Y223300D02*
D03*
X390250Y179200D02*
D03*
Y184800D02*
D03*
X399000D02*
D03*
Y179200D02*
D03*
X387250Y222700D02*
D03*
Y228300D02*
D03*
X393750D02*
D03*
Y222700D02*
D03*
X374250Y178950D02*
D03*
Y184550D02*
D03*
X367750D02*
D03*
Y178950D02*
D03*
X374500Y222300D02*
D03*
Y216700D02*
D03*
X368000Y216700D02*
D03*
Y222300D02*
D03*
X173000Y292800D02*
D03*
Y287200D02*
D03*
X209500Y145600D02*
D03*
Y151200D02*
D03*
X402000Y255700D02*
D03*
Y261300D02*
D03*
X241750Y77300D02*
D03*
Y71700D02*
D03*
X234000Y71707D02*
D03*
Y77307D02*
D03*
X228500Y140050D02*
D03*
Y134450D02*
D03*
X416750Y120450D02*
D03*
Y126050D02*
D03*
X358500Y135950D02*
D03*
Y141550D02*
D03*
X360000Y157850D02*
D03*
Y152250D02*
D03*
X450750Y228200D02*
D03*
X450750Y233800D02*
D03*
X444250Y228200D02*
D03*
Y233800D02*
D03*
X430200Y235350D02*
D03*
Y229750D02*
D03*
X402000Y272300D02*
D03*
Y266700D02*
D03*
X255750Y227300D02*
D03*
Y221700D02*
D03*
X290000Y71700D02*
D03*
Y77300D02*
D03*
X281500Y71700D02*
D03*
Y77300D02*
D03*
X270750Y71700D02*
D03*
Y77300D02*
D03*
X298000Y71700D02*
D03*
Y77300D02*
D03*
X259700Y71700D02*
D03*
Y77300D02*
D03*
X248750Y71700D02*
D03*
Y77300D02*
D03*
X360000Y168450D02*
D03*
Y162850D02*
D03*
D81*
X121750Y69000D02*
D03*
Y79000D02*
D03*
X317750Y47250D02*
D03*
Y37250D02*
D03*
X341475Y52535D02*
D03*
Y62535D02*
D03*
X63245Y24750D02*
D03*
Y34750D02*
D03*
X20104Y24750D02*
D03*
Y34750D02*
D03*
X359525Y73045D02*
D03*
Y83045D02*
D03*
X390525Y73045D02*
D03*
Y83045D02*
D03*
X400500Y205500D02*
D03*
Y195500D02*
D03*
X369500D02*
D03*
Y205500D02*
D03*
X359525Y104045D02*
D03*
Y94045D02*
D03*
D89*
X361771Y42000D02*
D03*
X351771D02*
D03*
X369500Y252750D02*
D03*
X379500D02*
D03*
X361975Y52535D02*
D03*
X351975D02*
D03*
X361975Y62535D02*
D03*
X351975D02*
D03*
X380025Y83045D02*
D03*
X370025D02*
D03*
X380025Y73045D02*
D03*
X370025D02*
D03*
X380000Y205500D02*
D03*
X390000D02*
D03*
Y195500D02*
D03*
X380000D02*
D03*
X370025Y94045D02*
D03*
X380025D02*
D03*
X370025Y104045D02*
D03*
X380025D02*
D03*
D92*
X391750Y251750D02*
D03*
Y261750D02*
D03*
X200750Y141250D02*
D03*
Y151250D02*
D03*
X390525Y104045D02*
D03*
Y94045D02*
D03*
X372475Y62535D02*
D03*
Y52535D02*
D03*
X317500Y26750D02*
D03*
X317500Y16750D02*
D03*
X73745Y19750D02*
D03*
Y29750D02*
D03*
X359000Y205500D02*
D03*
X359000Y215500D02*
D03*
Y195500D02*
D03*
Y185500D02*
D03*
X305750Y20500D02*
D03*
Y10500D02*
D03*
D100*
X226000Y24000D02*
D03*
Y7000D02*
D03*
X169250Y55000D02*
D03*
Y38000D02*
D03*
X102250Y55000D02*
D03*
Y38000D02*
D03*
X169250Y7000D02*
D03*
Y24000D02*
D03*
X102250D02*
D03*
Y7000D02*
D03*
X293000Y38000D02*
D03*
Y55000D02*
D03*
X226000Y55000D02*
D03*
Y38000D02*
D03*
X293000Y7000D02*
D03*
Y24000D02*
D03*
D101*
X11500Y220000D02*
D03*
X37500Y239000D02*
D03*
Y229500D02*
D03*
Y220000D02*
D03*
X11500Y239000D02*
D03*
X331000Y246750D02*
D03*
X357000Y227750D02*
D03*
Y237250D02*
D03*
Y246750D02*
D03*
X331000Y227750D02*
D03*
D114*
X-25000Y262497D02*
D03*
Y254497D02*
D03*
X-25000Y246497D02*
D03*
Y238497D02*
D03*
Y230497D02*
D03*
Y222497D02*
D03*
X-25000Y214497D02*
D03*
Y206497D02*
D03*
X-25000Y166497D02*
D03*
X-25000Y158497D02*
D03*
Y150497D02*
D03*
Y142497D02*
D03*
Y134497D02*
D03*
Y126497D02*
D03*
Y118497D02*
D03*
Y110497D02*
D03*
Y102497D02*
D03*
Y94497D02*
D03*
Y86497D02*
D03*
Y78497D02*
D03*
Y70497D02*
D03*
Y62497D02*
D03*
Y54497D02*
D03*
X-25000Y46497D02*
D03*
Y38497D02*
D03*
Y30497D02*
D03*
D116*
X241000Y223500D02*
D03*
D120*
X30000Y357300D02*
D03*
X528250Y357300D02*
D03*
Y-60300D02*
D03*
X30050Y-60250D02*
D03*
D125*
X111250Y80000D02*
D03*
X91250Y80000D02*
D03*
D126*
X51250Y34750D02*
D03*
X41750D02*
D03*
X32250D02*
D03*
Y6750D02*
D03*
X41750D02*
D03*
X51250D02*
D03*
D127*
X41750Y20750D02*
D03*
D130*
X401000Y136500D02*
D03*
D131*
X405000Y126975D02*
D03*
X401000Y126975D02*
D03*
X397000D02*
D03*
Y146025D02*
D03*
X401000Y146025D02*
D03*
X405000D02*
D03*
D132*
X410525Y143250D02*
D03*
X410525Y138750D02*
D03*
Y134250D02*
D03*
X410525Y129750D02*
D03*
X391475Y129750D02*
D03*
Y134250D02*
D03*
Y138750D02*
D03*
X391475Y143250D02*
D03*
D133*
X404827Y82295D02*
D03*
X409827D02*
D03*
X404827Y73795D02*
D03*
X409827D02*
D03*
X399827D02*
D03*
Y82295D02*
D03*
X419510Y196250D02*
D03*
X414510D02*
D03*
X419510Y204750D02*
D03*
X414510D02*
D03*
X409510D02*
D03*
Y196250D02*
D03*
D134*
X108250Y66250D02*
D03*
X91250D02*
D03*
D136*
X198480Y250480D02*
D03*
X194520Y246520D02*
D03*
D137*
X182770Y215480D02*
D03*
X186730Y211520D02*
D03*
D138*
X437500Y30500D02*
D03*
Y266500D02*
D03*
D153*
X329295Y93510D02*
D03*
X332625Y96840D02*
D03*
X335955Y100170D02*
D03*
X339285Y103500D02*
D03*
X342615Y106830D02*
D03*
X345945Y110160D02*
D03*
X342615Y113490D02*
D03*
X339285Y110160D02*
D03*
X332625Y103500D02*
D03*
X335955Y106830D02*
D03*
X325965Y96840D02*
D03*
X329295Y100170D02*
D03*
X325965Y103500D02*
D03*
X322635Y100170D02*
D03*
X332625Y110160D02*
D03*
X329295Y106830D02*
D03*
X335955Y113490D02*
D03*
X339285Y116820D02*
D03*
X322635Y106830D02*
D03*
X319305Y103500D02*
D03*
X325965Y110160D02*
D03*
X335955Y120150D02*
D03*
X332625Y116820D02*
D03*
X312645Y96840D02*
D03*
X315975Y100170D02*
D03*
Y93510D02*
D03*
X319305Y96840D02*
D03*
X342615Y126810D02*
D03*
X339285Y123480D02*
D03*
X345945D02*
D03*
X342615Y120150D02*
D03*
X335955Y126810D02*
D03*
X339285Y130140D02*
D03*
X329295Y120150D02*
D03*
X332625Y123480D02*
D03*
X315975Y106830D02*
D03*
X319305Y110160D02*
D03*
X309315Y100170D02*
D03*
X312645Y103500D02*
D03*
X309315Y106830D02*
D03*
X305985Y103500D02*
D03*
X312645Y110160D02*
D03*
X305985D02*
D03*
X302655Y106830D02*
D03*
X299325Y110160D02*
D03*
X345945Y136800D02*
D03*
X342615Y133470D02*
D03*
X339285Y136800D02*
D03*
X342615Y140130D02*
D03*
X329295Y126810D02*
D03*
X335955Y133470D02*
D03*
X332625Y130140D02*
D03*
X342615Y146790D02*
D03*
X332625Y136800D02*
D03*
X329295Y133470D02*
D03*
X339285Y143460D02*
D03*
X335955Y140130D02*
D03*
X329295D02*
D03*
X335955Y146790D02*
D03*
Y153450D02*
D03*
X339285Y156780D02*
D03*
X329295Y146790D02*
D03*
X332625Y150120D02*
D03*
X345945Y163440D02*
D03*
X342615Y160110D02*
D03*
X335955D02*
D03*
X339285Y163440D02*
D03*
X329295Y153450D02*
D03*
X332625Y156780D02*
D03*
X342615Y166770D02*
D03*
X335955D02*
D03*
X339285Y170100D02*
D03*
X345945Y176760D02*
D03*
X342615Y173430D02*
D03*
X335955D02*
D03*
X339285Y176760D02*
D03*
X329295Y166770D02*
D03*
X332625Y170100D02*
D03*
X345945Y183420D02*
D03*
X342615Y180090D02*
D03*
X339285Y183420D02*
D03*
X329295Y173430D02*
D03*
X332625Y176760D02*
D03*
X339285Y190081D02*
D03*
X329295Y180090D02*
D03*
X332625Y183420D02*
D03*
X345945Y196740D02*
D03*
X342615Y193410D02*
D03*
X335955D02*
D03*
X339285Y196740D02*
D03*
X332625Y190081D02*
D03*
X342615Y200070D02*
D03*
X335955D02*
D03*
X329295Y193410D02*
D03*
X332625Y196740D02*
D03*
X339285Y96840D02*
D03*
X286005Y110160D02*
D03*
X279345D02*
D03*
X282675Y106830D02*
D03*
X286005Y103500D02*
D03*
X289335Y100170D02*
D03*
X292665Y96840D02*
D03*
X276015Y106830D02*
D03*
X279345Y103500D02*
D03*
X276015Y100170D02*
D03*
X272685Y103500D02*
D03*
Y96840D02*
D03*
X269355Y100170D02*
D03*
X282675D02*
D03*
X266025Y96840D02*
D03*
X262695Y93510D02*
D03*
X259365Y96840D02*
D03*
X262695Y100170D02*
D03*
X266025Y110160D02*
D03*
X262695Y106830D02*
D03*
X259365Y103500D02*
D03*
X252705Y96840D02*
D03*
X256035Y100170D02*
D03*
X249375Y93510D02*
D03*
X242715D02*
D03*
X249375Y100170D02*
D03*
X246045Y96840D02*
D03*
X252705Y103500D02*
D03*
X256035Y106830D02*
D03*
X259365Y110160D02*
D03*
X246045Y103500D02*
D03*
X249375Y106830D02*
D03*
X252705Y110160D02*
D03*
X236054Y100170D02*
D03*
X242715Y106830D02*
D03*
X239385Y103500D02*
D03*
X246045Y110160D02*
D03*
X249375Y113490D02*
D03*
X252705Y116820D02*
D03*
X236054Y106830D02*
D03*
X242715Y113490D02*
D03*
X239385Y110160D02*
D03*
X246045Y116820D02*
D03*
X249375Y120150D02*
D03*
X252705Y123480D02*
D03*
X242715Y120150D02*
D03*
X239385Y116820D02*
D03*
X246045Y123480D02*
D03*
X249375Y126810D02*
D03*
X252705Y130140D02*
D03*
X236054Y120150D02*
D03*
X242715Y126810D02*
D03*
X239385Y123480D02*
D03*
X246045Y130140D02*
D03*
X249375Y133470D02*
D03*
X252705Y136800D02*
D03*
X242715Y133470D02*
D03*
X239385Y130140D02*
D03*
X246045Y136800D02*
D03*
X249375Y140130D02*
D03*
X252705Y143460D02*
D03*
X236054Y133470D02*
D03*
X242715Y140130D02*
D03*
X239385Y136800D02*
D03*
X246045Y143460D02*
D03*
X249375Y146790D02*
D03*
X252705Y150120D02*
D03*
X242715Y146790D02*
D03*
X239385Y143460D02*
D03*
X246045Y150120D02*
D03*
X249375Y153450D02*
D03*
X252705Y156781D02*
D03*
X236054Y146791D02*
D03*
X242715Y153450D02*
D03*
X239385Y150120D02*
D03*
X246045Y156781D02*
D03*
X249375Y160110D02*
D03*
X242715Y160111D02*
D03*
X239385Y156781D02*
D03*
X246045Y163441D02*
D03*
X249375Y166771D02*
D03*
X236054Y160111D02*
D03*
X242715Y166771D02*
D03*
X239385Y163441D02*
D03*
X246045Y170101D02*
D03*
X249375Y173431D02*
D03*
X239385Y170101D02*
D03*
X246045Y176761D02*
D03*
X242715Y173431D02*
D03*
X249375Y180091D02*
D03*
X252705Y183421D02*
D03*
X256035Y186751D02*
D03*
X236054Y173431D02*
D03*
X242715Y180091D02*
D03*
X239385Y176761D02*
D03*
X246045Y183421D02*
D03*
X249375Y186751D02*
D03*
X252705Y190081D02*
D03*
X259365Y196741D02*
D03*
X256035Y193411D02*
D03*
X262695D02*
D03*
X259365Y190081D02*
D03*
X252705Y196741D02*
D03*
X249375Y193411D02*
D03*
X246045Y190081D02*
D03*
X242715Y186751D02*
D03*
X246045Y196741D02*
D03*
X242715Y193411D02*
D03*
X262695Y186751D02*
D03*
X269355D02*
D03*
X276015D02*
D03*
X282675D02*
D03*
X289335D02*
D03*
X295995D02*
D03*
X302655D02*
D03*
X309315D02*
D03*
X315975D02*
D03*
X322635D02*
D03*
X329295D02*
D03*
X335955D02*
D03*
X342615D02*
D03*
X266025Y190081D02*
D03*
X272685D02*
D03*
X279345D02*
D03*
X286005D02*
D03*
X292665D02*
D03*
X299325D02*
D03*
X305985D02*
D03*
X319305D02*
D03*
X312645D02*
D03*
X322635Y193411D02*
D03*
X315975D02*
D03*
X309315D02*
D03*
X302655D02*
D03*
X295995D02*
D03*
X289335D02*
D03*
X282675D02*
D03*
X276015D02*
D03*
X269355D02*
D03*
X319305Y196741D02*
D03*
X312645D02*
D03*
X305985D02*
D03*
X299325D02*
D03*
X292665D02*
D03*
X286005D02*
D03*
X279345D02*
D03*
X272685D02*
D03*
X266025D02*
D03*
X325965D02*
D03*
X332625Y203400D02*
D03*
X322635Y200071D02*
D03*
X276015D02*
D03*
X282675D02*
D03*
X289335D02*
D03*
X295995D02*
D03*
X302655D02*
D03*
X309315D02*
D03*
X315975D02*
D03*
X325965Y203401D02*
D03*
X319305D02*
D03*
X305985D02*
D03*
X292665D02*
D03*
X279345D02*
D03*
X345945Y150120D02*
D03*
X339285D02*
D03*
D154*
X127509Y178500D02*
D03*
X117509Y173500D02*
D03*
Y168500D02*
D03*
X127509Y173500D02*
D03*
X137509Y168500D02*
D03*
Y173500D02*
D03*
X112509Y138500D02*
D03*
X127509D02*
D03*
X117509Y123500D02*
D03*
X177509Y183500D02*
D03*
X167509D02*
D03*
X162509D02*
D03*
X152509D02*
D03*
X147509D02*
D03*
X137509D02*
D03*
X127509D02*
D03*
X117509D02*
D03*
X182509Y178500D02*
D03*
X177509D02*
D03*
X172509D02*
D03*
X167509D02*
D03*
X162509D02*
D03*
X157509D02*
D03*
X152509D02*
D03*
X147509D02*
D03*
X142509D02*
D03*
X137509D02*
D03*
X132509D02*
D03*
X122509D02*
D03*
X117509D02*
D03*
X112509D02*
D03*
X172509Y173500D02*
D03*
X167509D02*
D03*
X157509D02*
D03*
X147509D02*
D03*
X112509D02*
D03*
X182509Y168500D02*
D03*
X177509D02*
D03*
X172509D02*
D03*
X167509D02*
D03*
X157509D02*
D03*
X147509D02*
D03*
X132509D02*
D03*
X127509D02*
D03*
X112509D02*
D03*
X172509Y163500D02*
D03*
X162509D02*
D03*
X157509D02*
D03*
X152509D02*
D03*
X142509D02*
D03*
X137509D02*
D03*
X122509D02*
D03*
X112509D02*
D03*
X182509Y158500D02*
D03*
X177509D02*
D03*
X172509D02*
D03*
X167509D02*
D03*
X162509D02*
D03*
X152509D02*
D03*
X147509D02*
D03*
X142509D02*
D03*
X132509D02*
D03*
X127509D02*
D03*
X117509D02*
D03*
X112509D02*
D03*
X172509Y153500D02*
D03*
X162509D02*
D03*
X157509D02*
D03*
X152509D02*
D03*
X142509D02*
D03*
X137509D02*
D03*
X132509D02*
D03*
X122509D02*
D03*
X117509D02*
D03*
X182509Y148500D02*
D03*
X177509D02*
D03*
X172509D02*
D03*
X167509D02*
D03*
X162509D02*
D03*
X152509D02*
D03*
X147509D02*
D03*
X142509D02*
D03*
X132509D02*
D03*
X122509D02*
D03*
X117509D02*
D03*
X112509D02*
D03*
X172509Y143500D02*
D03*
X162509D02*
D03*
X157509D02*
D03*
X152509D02*
D03*
X142509D02*
D03*
X137509D02*
D03*
X132509D02*
D03*
X122509D02*
D03*
X117509D02*
D03*
X182509Y138500D02*
D03*
X177509D02*
D03*
X172509D02*
D03*
X167509D02*
D03*
X162509D02*
D03*
X152509D02*
D03*
X147509D02*
D03*
X142509D02*
D03*
X132509D02*
D03*
X122509D02*
D03*
X117509D02*
D03*
X182509Y133500D02*
D03*
X167509D02*
D03*
X157509D02*
D03*
X152509D02*
D03*
X147509D02*
D03*
X142509D02*
D03*
X137509D02*
D03*
X127509D02*
D03*
X112509D02*
D03*
X182509Y128500D02*
D03*
X177509D02*
D03*
X172509D02*
D03*
X162509D02*
D03*
X157509D02*
D03*
X137509D02*
D03*
X132509D02*
D03*
X122509D02*
D03*
X117509D02*
D03*
X112509D02*
D03*
X182509Y123500D02*
D03*
X177509D02*
D03*
X167509D02*
D03*
X157509D02*
D03*
X152509D02*
D03*
X147509D02*
D03*
X142509D02*
D03*
X137509D02*
D03*
X127509D02*
D03*
X112509D02*
D03*
X182509Y118500D02*
D03*
X177509D02*
D03*
X172509D02*
D03*
X167509D02*
D03*
X162509D02*
D03*
X157509D02*
D03*
X152509D02*
D03*
X142509D02*
D03*
X137509D02*
D03*
X132509D02*
D03*
X127509D02*
D03*
X122509D02*
D03*
X117509D02*
D03*
X112509D02*
D03*
X177509Y113500D02*
D03*
X167509D02*
D03*
X157509D02*
D03*
X152509D02*
D03*
X142509D02*
D03*
X137509D02*
D03*
X127509D02*
D03*
X117509D02*
D03*
D186*
X290895Y148500D02*
D03*
D187*
X241500Y279000D02*
D03*
Y275000D02*
D03*
Y271000D02*
D03*
Y267000D02*
D03*
X218000D02*
D03*
Y271000D02*
D03*
Y275000D02*
D03*
Y279000D02*
D03*
X201000D02*
D03*
Y275000D02*
D03*
Y271000D02*
D03*
Y267000D02*
D03*
X177500D02*
D03*
Y271000D02*
D03*
Y275000D02*
D03*
Y279000D02*
D03*
X277500D02*
D03*
Y275000D02*
D03*
Y271000D02*
D03*
Y267000D02*
D03*
X254000D02*
D03*
Y271000D02*
D03*
Y275000D02*
D03*
Y279000D02*
D03*
X165250D02*
D03*
Y275000D02*
D03*
Y271000D02*
D03*
Y267000D02*
D03*
X141750D02*
D03*
Y271000D02*
D03*
Y275000D02*
D03*
Y279000D02*
D03*
D188*
X231750Y265250D02*
D03*
X227750D02*
D03*
X223750D02*
D03*
Y280750D02*
D03*
X227750D02*
D03*
X231750D02*
D03*
X235750D02*
D03*
X191250Y265250D02*
D03*
X187250D02*
D03*
X183250D02*
D03*
Y280750D02*
D03*
X187250D02*
D03*
X191250D02*
D03*
X195250D02*
D03*
X267750Y265250D02*
D03*
X263750D02*
D03*
X259750D02*
D03*
Y280750D02*
D03*
X263750D02*
D03*
X267750D02*
D03*
X271750D02*
D03*
X155500Y265250D02*
D03*
X151500D02*
D03*
X147500D02*
D03*
Y280750D02*
D03*
X151500D02*
D03*
X155500D02*
D03*
X159500D02*
D03*
D189*
X150350Y89750D02*
D03*
X153650D02*
D03*
X158850D02*
D03*
X162150D02*
D03*
X145400Y89250D02*
D03*
X142100D02*
D03*
X137900D02*
D03*
X134600D02*
D03*
X90200Y116000D02*
D03*
X86900D02*
D03*
X99150Y100000D02*
D03*
X95850D02*
D03*
X110750Y96500D02*
D03*
X114050D02*
D03*
Y91000D02*
D03*
X110750D02*
D03*
X97100Y94050D02*
D03*
X93800D02*
D03*
X117250Y91000D02*
D03*
X120550D02*
D03*
Y96500D02*
D03*
X117250D02*
D03*
X156850Y74150D02*
D03*
X160150D02*
D03*
X137900Y68650D02*
D03*
X134600D02*
D03*
X137900Y74150D02*
D03*
X134600D02*
D03*
X163350Y68650D02*
D03*
X166650D02*
D03*
X160150D02*
D03*
X156850D02*
D03*
X163350Y74150D02*
D03*
X166650D02*
D03*
X172100Y86350D02*
D03*
X175400D02*
D03*
X172100Y80850D02*
D03*
X175400D02*
D03*
X195100Y77850D02*
D03*
X198400D02*
D03*
Y72350D02*
D03*
X195100D02*
D03*
X204900Y79600D02*
D03*
X201600D02*
D03*
X204900Y74100D02*
D03*
X201600Y74100D02*
D03*
X198650Y95250D02*
D03*
X195350D02*
D03*
X198650Y100750D02*
D03*
X195350D02*
D03*
X174100Y100000D02*
D03*
X177400D02*
D03*
X174100Y94500D02*
D03*
X177400D02*
D03*
X205150Y100750D02*
D03*
X201850D02*
D03*
Y95250D02*
D03*
X205150D02*
D03*
X141650Y85500D02*
D03*
X138350D02*
D03*
X157900Y85500D02*
D03*
X154600D02*
D03*
X98839Y131300D02*
D03*
X95539D02*
D03*
X95589Y125750D02*
D03*
X98889D02*
D03*
X97800Y112000D02*
D03*
X94500D02*
D03*
Y117750D02*
D03*
X97800D02*
D03*
X197100Y112500D02*
D03*
X200400D02*
D03*
Y117500D02*
D03*
X197100D02*
D03*
X197950Y130500D02*
D03*
X201250D02*
D03*
Y125000D02*
D03*
X197950D02*
D03*
X134850Y99000D02*
D03*
X138150D02*
D03*
X141850D02*
D03*
X145150D02*
D03*
X158350Y99750D02*
D03*
X161650D02*
D03*
X150850D02*
D03*
X154150D02*
D03*
X90200Y110500D02*
D03*
X86900D02*
D03*
D190*
X459425Y161000D02*
D03*
Y222500D02*
D03*
X459425Y136000D02*
D03*
Y74500D02*
D03*
D191*
X462075Y170750D02*
D03*
Y176750D02*
D03*
Y182750D02*
D03*
Y212750D02*
D03*
Y206750D02*
D03*
Y200750D02*
D03*
Y194750D02*
D03*
X462075Y188750D02*
D03*
X462075Y102250D02*
D03*
X462075Y108250D02*
D03*
Y114250D02*
D03*
Y120250D02*
D03*
Y126250D02*
D03*
Y96250D02*
D03*
Y90250D02*
D03*
Y84250D02*
D03*
D192*
X431425Y209750D02*
D03*
Y203750D02*
D03*
Y197750D02*
D03*
Y191750D02*
D03*
Y173750D02*
D03*
Y179750D02*
D03*
Y185750D02*
D03*
X431425Y99250D02*
D03*
Y93250D02*
D03*
Y87250D02*
D03*
Y105250D02*
D03*
Y111250D02*
D03*
Y117250D02*
D03*
Y123250D02*
D03*
D193*
X189875Y96350D02*
D03*
Y93050D02*
D03*
X102500Y95100D02*
D03*
Y98400D02*
D03*
X100750Y88600D02*
D03*
Y91900D02*
D03*
X152500Y69750D02*
D03*
Y66450D02*
D03*
X152750Y76350D02*
D03*
Y73050D02*
D03*
X183750Y78500D02*
D03*
Y81800D02*
D03*
Y71900D02*
D03*
Y75200D02*
D03*
X184750Y94400D02*
D03*
Y91100D02*
D03*
Y103400D02*
D03*
Y100100D02*
D03*
X101250Y104200D02*
D03*
Y107500D02*
D03*
X95750D02*
D03*
Y104200D02*
D03*
X107000Y95100D02*
D03*
Y98400D02*
D03*
X124400Y95400D02*
D03*
Y92100D02*
D03*
X141500Y73050D02*
D03*
Y69750D02*
D03*
X147250Y76350D02*
D03*
Y73050D02*
D03*
Y66450D02*
D03*
Y69750D02*
D03*
X170250Y73050D02*
D03*
Y69750D02*
D03*
X210000Y81750D02*
D03*
Y78450D02*
D03*
X179250Y77600D02*
D03*
Y80900D02*
D03*
X189500Y76750D02*
D03*
Y80050D02*
D03*
X189500Y70150D02*
D03*
Y73450D02*
D03*
X189875Y102950D02*
D03*
Y99650D02*
D03*
X181000Y98900D02*
D03*
Y95600D02*
D03*
X209000Y99650D02*
D03*
Y96350D02*
D03*
X140000Y92600D02*
D03*
Y95900D02*
D03*
X134600Y85250D02*
D03*
Y81950D02*
D03*
X145400D02*
D03*
Y85250D02*
D03*
X156250Y96400D02*
D03*
Y93100D02*
D03*
X161650Y81950D02*
D03*
Y85250D02*
D03*
X150850D02*
D03*
Y81950D02*
D03*
X90050Y131300D02*
D03*
Y134600D02*
D03*
X90100Y122450D02*
D03*
Y125750D02*
D03*
X208650Y109500D02*
D03*
Y106200D02*
D03*
Y118300D02*
D03*
Y115000D02*
D03*
X206250Y130500D02*
D03*
Y133800D02*
D03*
Y121700D02*
D03*
Y125000D02*
D03*
D194*
X55750Y151750D02*
D03*
X60750D02*
D03*
X65750Y151750D02*
D03*
Y166750D02*
D03*
X60750D02*
D03*
X55750D02*
D03*
X90250Y192250D02*
D03*
X95250D02*
D03*
X100250Y192250D02*
D03*
Y207250D02*
D03*
X95250Y207250D02*
D03*
X90250D02*
D03*
X57500Y221500D02*
D03*
X52500D02*
D03*
X47500D02*
D03*
Y206500D02*
D03*
X52500Y206500D02*
D03*
X57500D02*
D03*
X80000Y220500D02*
D03*
X75000D02*
D03*
X70000Y220500D02*
D03*
Y205500D02*
D03*
X75000Y205500D02*
D03*
X80000D02*
D03*
D195*
X47500Y143625D02*
D03*
X42500D02*
D03*
X37500D02*
D03*
Y150875D02*
D03*
X42500D02*
D03*
X47500D02*
D03*
D196*
X181875Y225250D02*
D03*
Y230250D02*
D03*
Y235250D02*
D03*
X189125D02*
D03*
Y230250D02*
D03*
Y225250D02*
D03*
D197*
X27750Y126000D02*
D03*
X34250D02*
D03*
X40750D02*
D03*
X47250D02*
D03*
X53750D02*
D03*
X60250D02*
D03*
X66750D02*
D03*
Y67500D02*
D03*
X60250D02*
D03*
X53750D02*
D03*
X47250D02*
D03*
X40750D02*
D03*
X34250D02*
D03*
X27750D02*
D03*
D198*
X76500Y116250D02*
D03*
Y109750D02*
D03*
Y103250D02*
D03*
Y96750D02*
D03*
Y90250D02*
D03*
Y83750D02*
D03*
Y77250D02*
D03*
X18000D02*
D03*
Y83750D02*
D03*
Y90250D02*
D03*
Y96750D02*
D03*
Y103250D02*
D03*
Y109750D02*
D03*
Y116250D02*
D03*
D199*
X47250Y96750D02*
D03*
D200*
X118050Y230750D02*
D03*
X130950Y225850D02*
D03*
Y235650D02*
D03*
X118050Y202000D02*
D03*
X130950Y197100D02*
D03*
Y206900D02*
D03*
D201*
X17500Y285500D02*
D03*
Y253500D02*
D03*
Y269500D02*
D03*
X55500Y253500D02*
D03*
Y269500D02*
D03*
Y285500D02*
D03*
X123500D02*
D03*
Y269500D02*
D03*
Y253500D02*
D03*
X85500Y269500D02*
D03*
Y253500D02*
D03*
Y285500D02*
D03*
D202*
X200000Y194500D02*
D03*
D203*
X380250Y283500D02*
D03*
X360500Y16750D02*
D03*
D204*
X366250Y291000D02*
D03*
Y286000D02*
D03*
Y281000D02*
D03*
Y276000D02*
D03*
X394250D02*
D03*
Y281000D02*
D03*
Y286000D02*
D03*
Y291000D02*
D03*
X346500Y24250D02*
D03*
Y19250D02*
D03*
Y14250D02*
D03*
Y9250D02*
D03*
X374500D02*
D03*
Y14250D02*
D03*
Y19250D02*
D03*
Y24250D02*
D03*
D205*
X119250Y24000D02*
D03*
Y9000D02*
D03*
X152250Y38000D02*
D03*
X152250Y53000D02*
D03*
X119250Y38000D02*
D03*
Y53000D02*
D03*
X152250Y24000D02*
D03*
Y9000D02*
D03*
X276250Y53000D02*
D03*
Y38000D02*
D03*
X242750Y24000D02*
D03*
Y9000D02*
D03*
X276250Y24000D02*
D03*
Y9000D02*
D03*
X242750Y38000D02*
D03*
X242750Y53000D02*
D03*
D206*
X400845Y94145D02*
D03*
X400845Y103945D02*
D03*
X413845D02*
D03*
X407345D02*
D03*
Y94145D02*
D03*
X413845D02*
D03*
X395250Y52600D02*
D03*
X388750D02*
D03*
X382250D02*
D03*
X382250Y62400D02*
D03*
X388750D02*
D03*
X395250D02*
D03*
D207*
X388500Y28000D02*
D03*
X393500D02*
D03*
X398500D02*
D03*
Y13000D02*
D03*
X393500D02*
D03*
X388500D02*
D03*
D208*
X413750Y224750D02*
D03*
D209*
X408750Y214750D02*
D03*
X413750D02*
D03*
X418750Y214750D02*
D03*
Y234750D02*
D03*
X413750D02*
D03*
X408750D02*
D03*
D210*
X423750Y219750D02*
D03*
Y224750D02*
D03*
Y229750D02*
D03*
X403750D02*
D03*
Y224750D02*
D03*
Y219750D02*
D03*
M02*
