G04*
G04 #@! TF.GenerationSoftware,Altium Limited,Altium Designer,19.1.6 (110)*
G04*
G04 Layer_Color=65535*
%FSLAX44Y44*%
%MOMM*%
G71*
G01*
G75*
%ADD10C,0.1000*%
%ADD11C,0.2000*%
%ADD12C,0.1500*%
%ADD13C,0.2540*%
%ADD14C,0.3000*%
%ADD15C,0.0136*%
%ADD16C,0.0139*%
%ADD17C,0.1270*%
%ADD18C,0.2500*%
%ADD19C,0.1700*%
G36*
X108100Y-150D02*
Y4350D01*
X112500D01*
Y-150D01*
X108100D01*
D02*
G37*
G36*
X126475D02*
Y4350D01*
X155725D01*
Y-150D01*
X126475D01*
D02*
G37*
G36*
X83500Y145000D02*
X92500Y136000D01*
X92500Y145000D01*
X83500D01*
D02*
G37*
G36*
X148250Y125250D02*
Y127250D01*
X150250D01*
Y125250D01*
X148250D01*
D02*
G37*
G36*
X178250Y137500D02*
X180250D01*
Y135500D01*
X178250D01*
Y137500D01*
D02*
G37*
G36*
X182500Y119250D02*
X187500D01*
Y114250D01*
X182500Y119250D01*
D02*
G37*
G36*
X330000Y220000D02*
X317000Y220000D01*
X330000Y207000D01*
X330000Y220000D01*
D02*
G37*
G36*
X353170Y185780D02*
X358780D01*
X353170Y180170D01*
Y185780D01*
D02*
G37*
G36*
X433750Y5750D02*
X435750D01*
Y3750D01*
X433750D01*
Y5750D01*
D02*
G37*
G36*
X674033Y40500D02*
Y37750D01*
X668658D01*
X674033Y40500D01*
D02*
G37*
G36*
X599150Y204894D02*
X599263Y204885D01*
X599394Y204866D01*
X599534Y204838D01*
X599694Y204810D01*
X599853Y204772D01*
X600031Y204726D01*
X600209Y204669D01*
X600378Y204594D01*
X600556Y204510D01*
X600725Y204416D01*
X600884Y204304D01*
X601034Y204173D01*
X601043Y204163D01*
X601072Y204135D01*
X601109Y204098D01*
X601156Y204042D01*
X601212Y203967D01*
X601278Y203882D01*
X601343Y203779D01*
X601418Y203666D01*
X601493Y203535D01*
X601559Y203395D01*
X601624Y203245D01*
X601681Y203085D01*
X601728Y202907D01*
X601774Y202720D01*
X601793Y202523D01*
X601803Y202317D01*
Y202307D01*
Y202289D01*
Y202261D01*
Y202223D01*
X601793Y202167D01*
Y202111D01*
X601774Y201961D01*
X601746Y201792D01*
X601699Y201595D01*
X601643Y201389D01*
X601559Y201173D01*
Y201164D01*
X601549Y201145D01*
X601531Y201117D01*
X601512Y201070D01*
X601484Y201024D01*
X601456Y200958D01*
X601371Y200808D01*
X601268Y200630D01*
X601137Y200424D01*
X600978Y200208D01*
X600790Y199974D01*
Y199964D01*
X600772Y199955D01*
X600753Y199927D01*
X600715Y199889D01*
X600678Y199842D01*
X600622Y199786D01*
X600556Y199721D01*
X600490Y199646D01*
X600406Y199561D01*
X600312Y199468D01*
X600209Y199364D01*
X600097Y199252D01*
X599966Y199130D01*
X599834Y198999D01*
X599684Y198858D01*
X599525Y198708D01*
X599516Y198699D01*
X599488Y198671D01*
X599441Y198633D01*
X599384Y198577D01*
X599319Y198512D01*
X599235Y198437D01*
X599056Y198268D01*
X598860Y198081D01*
X598663Y197893D01*
X598494Y197724D01*
X598428Y197659D01*
X598363Y197593D01*
X598354Y197584D01*
X598316Y197537D01*
X598260Y197481D01*
X598194Y197406D01*
X598110Y197312D01*
X598016Y197199D01*
X597829Y196965D01*
X601147D01*
X600790Y195250D01*
X594961D01*
Y195259D01*
Y195278D01*
X594970Y195316D01*
X594979Y195372D01*
X594989Y195437D01*
X595008Y195503D01*
X595026Y195587D01*
X595045Y195681D01*
X595092Y195887D01*
X595167Y196112D01*
X595251Y196346D01*
X595364Y196590D01*
Y196600D01*
X595382Y196618D01*
X595401Y196656D01*
X595420Y196703D01*
X595457Y196759D01*
X595495Y196824D01*
X595589Y196984D01*
X595710Y197162D01*
X595851Y197368D01*
X596001Y197574D01*
X596179Y197781D01*
X596188Y197790D01*
X596207Y197809D01*
X596235Y197837D01*
X596273Y197884D01*
X596329Y197949D01*
X596404Y198024D01*
X596488Y198109D01*
X596582Y198212D01*
X596694Y198324D01*
X596826Y198455D01*
X596976Y198605D01*
X597135Y198765D01*
X597313Y198943D01*
X597510Y199130D01*
X597725Y199336D01*
X597960Y199561D01*
X597969Y199571D01*
X598007Y199599D01*
X598054Y199646D01*
X598119Y199711D01*
X598194Y199786D01*
X598279Y199871D01*
X598475Y200068D01*
X598681Y200274D01*
X598878Y200471D01*
X598972Y200564D01*
X599056Y200649D01*
X599122Y200724D01*
X599178Y200780D01*
X599188Y200789D01*
X599197Y200798D01*
X599225Y200827D01*
X599253Y200864D01*
X599328Y200958D01*
X599431Y201080D01*
X599534Y201220D01*
X599637Y201361D01*
X599731Y201520D01*
X599806Y201661D01*
X599816Y201680D01*
X599834Y201726D01*
X599863Y201792D01*
X599900Y201886D01*
X599928Y201989D01*
X599956Y202101D01*
X599975Y202223D01*
X599984Y202336D01*
Y202345D01*
Y202354D01*
Y202383D01*
Y202420D01*
X599966Y202504D01*
X599947Y202617D01*
X599909Y202739D01*
X599863Y202870D01*
X599787Y203001D01*
X599694Y203123D01*
X599684Y203132D01*
X599647Y203170D01*
X599581Y203217D01*
X599497Y203282D01*
X599394Y203339D01*
X599272Y203385D01*
X599131Y203423D01*
X598972Y203432D01*
X598953D01*
X598897Y203423D01*
X598813Y203414D01*
X598710Y203395D01*
X598578Y203348D01*
X598447Y203292D01*
X598316Y203207D01*
X598185Y203095D01*
X598166Y203076D01*
X598129Y203029D01*
X598100Y202992D01*
X598072Y202945D01*
X598035Y202889D01*
X597997Y202814D01*
X597960Y202739D01*
X597922Y202645D01*
X597876Y202551D01*
X597838Y202439D01*
X597800Y202317D01*
X597754Y202186D01*
X597725Y202036D01*
X597688Y201876D01*
X595851Y202148D01*
Y202167D01*
X595860Y202204D01*
X595879Y202279D01*
X595898Y202364D01*
X595926Y202476D01*
X595964Y202607D01*
X596010Y202748D01*
X596057Y202907D01*
X596123Y203067D01*
X596198Y203235D01*
X596282Y203404D01*
X596376Y203573D01*
X596488Y203741D01*
X596601Y203901D01*
X596732Y204051D01*
X596882Y204191D01*
X596891Y204201D01*
X596920Y204219D01*
X596966Y204257D01*
X597032Y204304D01*
X597107Y204360D01*
X597201Y204416D01*
X597313Y204482D01*
X597444Y204548D01*
X597585Y204613D01*
X597735Y204679D01*
X597904Y204735D01*
X598091Y204791D01*
X598279Y204838D01*
X598485Y204876D01*
X598700Y204894D01*
X598925Y204904D01*
X599056D01*
X599150Y204894D01*
D02*
G37*
G36*
X591690D02*
X591802Y204885D01*
X591933Y204866D01*
X592074Y204838D01*
X592233Y204810D01*
X592393Y204772D01*
X592571Y204726D01*
X592749Y204669D01*
X592917Y204594D01*
X593096Y204510D01*
X593264Y204416D01*
X593424Y204304D01*
X593573Y204173D01*
X593583Y204163D01*
X593611Y204135D01*
X593648Y204098D01*
X593695Y204042D01*
X593751Y203967D01*
X593817Y203882D01*
X593883Y203779D01*
X593958Y203666D01*
X594033Y203535D01*
X594098Y203395D01*
X594164Y203245D01*
X594220Y203085D01*
X594267Y202907D01*
X594314Y202720D01*
X594333Y202523D01*
X594342Y202317D01*
Y202307D01*
Y202289D01*
Y202261D01*
Y202223D01*
X594333Y202167D01*
Y202111D01*
X594314Y201961D01*
X594286Y201792D01*
X594239Y201595D01*
X594183Y201389D01*
X594098Y201173D01*
Y201164D01*
X594089Y201145D01*
X594070Y201117D01*
X594052Y201070D01*
X594023Y201024D01*
X593995Y200958D01*
X593911Y200808D01*
X593808Y200630D01*
X593677Y200424D01*
X593517Y200208D01*
X593330Y199974D01*
Y199964D01*
X593311Y199955D01*
X593292Y199927D01*
X593255Y199889D01*
X593217Y199842D01*
X593161Y199786D01*
X593096Y199721D01*
X593030Y199646D01*
X592946Y199561D01*
X592852Y199468D01*
X592749Y199364D01*
X592636Y199252D01*
X592505Y199130D01*
X592374Y198999D01*
X592224Y198858D01*
X592065Y198708D01*
X592055Y198699D01*
X592027Y198671D01*
X591980Y198633D01*
X591924Y198577D01*
X591858Y198512D01*
X591774Y198437D01*
X591596Y198268D01*
X591399Y198081D01*
X591202Y197893D01*
X591034Y197724D01*
X590968Y197659D01*
X590902Y197593D01*
X590893Y197584D01*
X590855Y197537D01*
X590799Y197481D01*
X590734Y197406D01*
X590649Y197312D01*
X590555Y197199D01*
X590368Y196965D01*
X593686D01*
X593330Y195250D01*
X587500D01*
Y195259D01*
Y195278D01*
X587509Y195316D01*
X587519Y195372D01*
X587528Y195437D01*
X587547Y195503D01*
X587566Y195587D01*
X587584Y195681D01*
X587631Y195887D01*
X587706Y196112D01*
X587791Y196346D01*
X587903Y196590D01*
Y196600D01*
X587922Y196618D01*
X587940Y196656D01*
X587959Y196703D01*
X587997Y196759D01*
X588034Y196824D01*
X588128Y196984D01*
X588250Y197162D01*
X588390Y197368D01*
X588540Y197574D01*
X588718Y197781D01*
X588728Y197790D01*
X588747Y197809D01*
X588775Y197837D01*
X588812Y197884D01*
X588868Y197949D01*
X588943Y198024D01*
X589028Y198109D01*
X589122Y198212D01*
X589234Y198324D01*
X589365Y198455D01*
X589515Y198605D01*
X589674Y198765D01*
X589852Y198943D01*
X590049Y199130D01*
X590265Y199336D01*
X590499Y199561D01*
X590509Y199571D01*
X590546Y199599D01*
X590593Y199646D01*
X590659Y199711D01*
X590734Y199786D01*
X590818Y199871D01*
X591015Y200068D01*
X591221Y200274D01*
X591418Y200471D01*
X591511Y200564D01*
X591596Y200649D01*
X591661Y200724D01*
X591718Y200780D01*
X591727Y200789D01*
X591736Y200798D01*
X591765Y200827D01*
X591793Y200864D01*
X591868Y200958D01*
X591971Y201080D01*
X592074Y201220D01*
X592177Y201361D01*
X592271Y201520D01*
X592346Y201661D01*
X592355Y201680D01*
X592374Y201726D01*
X592402Y201792D01*
X592439Y201886D01*
X592467Y201989D01*
X592496Y202101D01*
X592514Y202223D01*
X592524Y202336D01*
Y202345D01*
Y202354D01*
Y202383D01*
Y202420D01*
X592505Y202504D01*
X592486Y202617D01*
X592449Y202739D01*
X592402Y202870D01*
X592327Y203001D01*
X592233Y203123D01*
X592224Y203132D01*
X592186Y203170D01*
X592121Y203217D01*
X592036Y203282D01*
X591933Y203339D01*
X591811Y203385D01*
X591671Y203423D01*
X591511Y203432D01*
X591493D01*
X591437Y203423D01*
X591352Y203414D01*
X591249Y203395D01*
X591118Y203348D01*
X590987Y203292D01*
X590855Y203207D01*
X590724Y203095D01*
X590705Y203076D01*
X590668Y203029D01*
X590640Y202992D01*
X590612Y202945D01*
X590574Y202889D01*
X590537Y202814D01*
X590499Y202739D01*
X590462Y202645D01*
X590415Y202551D01*
X590377Y202439D01*
X590340Y202317D01*
X590293Y202186D01*
X590265Y202036D01*
X590227Y201876D01*
X588390Y202148D01*
Y202167D01*
X588400Y202204D01*
X588419Y202279D01*
X588437Y202364D01*
X588465Y202476D01*
X588503Y202607D01*
X588550Y202748D01*
X588597Y202907D01*
X588662Y203067D01*
X588737Y203235D01*
X588822Y203404D01*
X588915Y203573D01*
X589028Y203741D01*
X589140Y203901D01*
X589271Y204051D01*
X589421Y204191D01*
X589431Y204201D01*
X589459Y204219D01*
X589506Y204257D01*
X589571Y204304D01*
X589646Y204360D01*
X589740Y204416D01*
X589852Y204482D01*
X589984Y204548D01*
X590124Y204613D01*
X590274Y204679D01*
X590443Y204735D01*
X590630Y204791D01*
X590818Y204838D01*
X591024Y204876D01*
X591240Y204894D01*
X591465Y204904D01*
X591596D01*
X591690Y204894D01*
D02*
G37*
G36*
X614174D02*
X614259D01*
X614352Y204876D01*
X614465Y204857D01*
X614596Y204829D01*
X614737Y204801D01*
X614887Y204754D01*
X615037Y204697D01*
X615196Y204623D01*
X615355Y204548D01*
X615515Y204445D01*
X615674Y204332D01*
X615833Y204201D01*
X615974Y204051D01*
X615983Y204042D01*
X616012Y204013D01*
X616049Y203967D01*
X616096Y203892D01*
X616152Y203807D01*
X616218Y203695D01*
X616283Y203573D01*
X616358Y203432D01*
X616424Y203263D01*
X616489Y203085D01*
X616555Y202879D01*
X616611Y202664D01*
X616668Y202420D01*
X616705Y202167D01*
X616724Y201886D01*
X616733Y201595D01*
Y201576D01*
Y201530D01*
Y201445D01*
X616724Y201342D01*
X616714Y201202D01*
X616705Y201042D01*
X616686Y200855D01*
X616668Y200658D01*
X616639Y200433D01*
X616602Y200189D01*
X616555Y199927D01*
X616499Y199655D01*
X616433Y199374D01*
X616368Y199083D01*
X616274Y198783D01*
X616180Y198474D01*
X616171Y198455D01*
X616152Y198399D01*
X616124Y198315D01*
X616077Y198202D01*
X616030Y198071D01*
X615955Y197912D01*
X615880Y197734D01*
X615796Y197546D01*
X615693Y197349D01*
X615580Y197143D01*
X615458Y196928D01*
X615327Y196721D01*
X615187Y196515D01*
X615037Y196318D01*
X614868Y196131D01*
X614699Y195962D01*
X614690Y195953D01*
X614662Y195925D01*
X614606Y195878D01*
X614540Y195831D01*
X614446Y195756D01*
X614343Y195690D01*
X614221Y195606D01*
X614090Y195531D01*
X613940Y195447D01*
X613781Y195362D01*
X613612Y195297D01*
X613425Y195231D01*
X613237Y195175D01*
X613031Y195128D01*
X612825Y195100D01*
X612609Y195091D01*
X612562D01*
X612497Y195100D01*
X612412D01*
X612319Y195119D01*
X612197Y195138D01*
X612066Y195166D01*
X611925Y195194D01*
X611775Y195241D01*
X611625Y195297D01*
X611466Y195362D01*
X611297Y195447D01*
X611138Y195541D01*
X610978Y195653D01*
X610828Y195784D01*
X610678Y195934D01*
X610669Y195944D01*
X610650Y195972D01*
X610613Y196019D01*
X610566Y196094D01*
X610500Y196178D01*
X610444Y196290D01*
X610369Y196412D01*
X610304Y196553D01*
X610238Y196721D01*
X610163Y196900D01*
X610107Y197106D01*
X610051Y197321D01*
X609994Y197556D01*
X609957Y197818D01*
X609938Y198090D01*
X609929Y198380D01*
Y198399D01*
Y198446D01*
Y198521D01*
X609938Y198633D01*
X609947Y198765D01*
X609957Y198915D01*
X609966Y199093D01*
X609994Y199289D01*
X610013Y199505D01*
X610051Y199730D01*
X610088Y199974D01*
X610135Y200227D01*
X610191Y200489D01*
X610257Y200761D01*
X610332Y201033D01*
X610416Y201314D01*
Y201323D01*
X610425Y201333D01*
X610435Y201361D01*
X610444Y201398D01*
X610482Y201492D01*
X610528Y201614D01*
X610585Y201764D01*
X610660Y201933D01*
X610744Y202129D01*
X610838Y202336D01*
X610941Y202551D01*
X611053Y202776D01*
X611185Y203001D01*
X611325Y203217D01*
X611466Y203442D01*
X611625Y203648D01*
X611794Y203835D01*
X611963Y204013D01*
X611972Y204023D01*
X612009Y204051D01*
X612056Y204098D01*
X612131Y204154D01*
X612216Y204219D01*
X612319Y204294D01*
X612440Y204379D01*
X612581Y204463D01*
X612731Y204538D01*
X612890Y204623D01*
X613069Y204697D01*
X613247Y204763D01*
X613443Y204819D01*
X613640Y204866D01*
X613846Y204894D01*
X614062Y204904D01*
X614118D01*
X614174Y204894D01*
D02*
G37*
G36*
X606695D02*
X606798Y204885D01*
X606920Y204866D01*
X607061Y204848D01*
X607211Y204819D01*
X607370Y204782D01*
X607529Y204735D01*
X607698Y204688D01*
X607867Y204623D01*
X608035Y204538D01*
X608195Y204454D01*
X608345Y204351D01*
X608485Y204229D01*
X608495Y204219D01*
X608513Y204201D01*
X608551Y204163D01*
X608598Y204107D01*
X608654Y204042D01*
X608710Y203967D01*
X608776Y203873D01*
X608851Y203760D01*
X608916Y203648D01*
X608982Y203517D01*
X609038Y203376D01*
X609095Y203226D01*
X609141Y203067D01*
X609179Y202898D01*
X609198Y202720D01*
X609207Y202533D01*
Y202523D01*
Y202504D01*
Y202467D01*
X609198Y202411D01*
Y202345D01*
X609188Y202279D01*
X609160Y202101D01*
X609104Y201905D01*
X609029Y201698D01*
X608935Y201483D01*
X608870Y201380D01*
X608795Y201276D01*
Y201267D01*
X608776Y201258D01*
X608748Y201230D01*
X608720Y201192D01*
X608673Y201145D01*
X608626Y201089D01*
X608560Y201033D01*
X608495Y200967D01*
X608410Y200892D01*
X608317Y200827D01*
X608223Y200752D01*
X608110Y200677D01*
X607989Y200602D01*
X607867Y200527D01*
X607726Y200452D01*
X607576Y200386D01*
X607585D01*
X607604Y200367D01*
X607632Y200349D01*
X607670Y200320D01*
X607782Y200245D01*
X607904Y200142D01*
X608054Y200011D01*
X608195Y199861D01*
X608335Y199693D01*
X608457Y199505D01*
Y199496D01*
X608466Y199486D01*
X608485Y199449D01*
X608504Y199411D01*
X608523Y199364D01*
X608551Y199308D01*
X608607Y199168D01*
X608663Y198990D01*
X608710Y198793D01*
X608748Y198577D01*
X608757Y198333D01*
Y198324D01*
Y198287D01*
Y198230D01*
X608748Y198146D01*
X608738Y198052D01*
X608720Y197940D01*
X608701Y197818D01*
X608673Y197677D01*
X608635Y197528D01*
X608588Y197377D01*
X608532Y197209D01*
X608457Y197040D01*
X608382Y196871D01*
X608288Y196693D01*
X608176Y196525D01*
X608054Y196356D01*
X608045Y196337D01*
X608007Y196300D01*
X607951Y196234D01*
X607867Y196159D01*
X607773Y196056D01*
X607642Y195953D01*
X607501Y195831D01*
X607332Y195719D01*
X607145Y195597D01*
X606939Y195475D01*
X606714Y195372D01*
X606470Y195269D01*
X606208Y195194D01*
X605917Y195128D01*
X605617Y195091D01*
X605299Y195072D01*
X605242D01*
X605177Y195081D01*
X605092D01*
X604980Y195091D01*
X604858Y195109D01*
X604717Y195138D01*
X604567Y195166D01*
X604408Y195203D01*
X604240Y195259D01*
X604071Y195316D01*
X603902Y195390D01*
X603733Y195475D01*
X603565Y195578D01*
X603405Y195690D01*
X603255Y195822D01*
X603246Y195831D01*
X603227Y195859D01*
X603180Y195897D01*
X603134Y195953D01*
X603077Y196028D01*
X603012Y196122D01*
X602946Y196225D01*
X602871Y196337D01*
X602796Y196468D01*
X602730Y196618D01*
X602665Y196768D01*
X602609Y196937D01*
X602562Y197125D01*
X602524Y197312D01*
X602496Y197509D01*
X602487Y197724D01*
Y197734D01*
Y197771D01*
Y197818D01*
X602496Y197884D01*
X602506Y197968D01*
X602515Y198071D01*
X602534Y198184D01*
X602552Y198305D01*
X602618Y198568D01*
X602665Y198708D01*
X602712Y198858D01*
X602777Y199008D01*
X602843Y199158D01*
X602927Y199308D01*
X603021Y199449D01*
X603030Y199458D01*
X603049Y199486D01*
X603077Y199524D01*
X603115Y199571D01*
X603171Y199636D01*
X603237Y199711D01*
X603321Y199786D01*
X603405Y199871D01*
X603499Y199964D01*
X603611Y200049D01*
X603733Y200142D01*
X603865Y200227D01*
X604005Y200311D01*
X604155Y200396D01*
X604314Y200461D01*
X604483Y200527D01*
X604474D01*
X604464Y200546D01*
X604436Y200564D01*
X604399Y200583D01*
X604314Y200658D01*
X604202Y200752D01*
X604080Y200864D01*
X603949Y200995D01*
X603827Y201136D01*
X603724Y201295D01*
Y201305D01*
X603715Y201314D01*
X603686Y201370D01*
X603649Y201464D01*
X603602Y201586D01*
X603555Y201726D01*
X603518Y201895D01*
X603490Y202073D01*
X603480Y202270D01*
Y202279D01*
Y202298D01*
Y202336D01*
X603490Y202373D01*
Y202429D01*
X603499Y202504D01*
X603527Y202664D01*
X603565Y202851D01*
X603630Y203057D01*
X603715Y203292D01*
X603827Y203526D01*
Y203535D01*
X603846Y203554D01*
X603865Y203592D01*
X603893Y203629D01*
X603930Y203685D01*
X603977Y203751D01*
X604090Y203892D01*
X604240Y204051D01*
X604427Y204219D01*
X604642Y204379D01*
X604886Y204529D01*
X604896D01*
X604914Y204548D01*
X604961Y204566D01*
X605008Y204585D01*
X605074Y204613D01*
X605158Y204651D01*
X605242Y204679D01*
X605345Y204716D01*
X605458Y204754D01*
X605580Y204782D01*
X605852Y204848D01*
X606152Y204885D01*
X606479Y204904D01*
X606601D01*
X606695Y204894D01*
D02*
G37*
G36*
X570223Y195250D02*
X568433D01*
X570091Y203217D01*
X566530Y195250D01*
X564655D01*
X564299Y203273D01*
X562781Y195250D01*
X560991D01*
X562996Y204857D01*
X565817D01*
X566118Y198249D01*
X569135Y204857D01*
X571966D01*
X570223Y195250D01*
D02*
G37*
G36*
X580373Y204894D02*
X580486Y204885D01*
X580617Y204866D01*
X580757Y204838D01*
X580917Y204810D01*
X581076Y204772D01*
X581254Y204726D01*
X581432Y204669D01*
X581601Y204594D01*
X581779Y204510D01*
X581948Y204416D01*
X582107Y204304D01*
X582257Y204173D01*
X582267Y204163D01*
X582295Y204135D01*
X582332Y204098D01*
X582379Y204042D01*
X582435Y203967D01*
X582501Y203882D01*
X582566Y203779D01*
X582641Y203666D01*
X582716Y203535D01*
X582782Y203395D01*
X582848Y203245D01*
X582904Y203085D01*
X582951Y202907D01*
X582998Y202720D01*
X583016Y202523D01*
X583026Y202317D01*
Y202307D01*
Y202289D01*
Y202261D01*
Y202223D01*
X583016Y202167D01*
Y202111D01*
X582998Y201961D01*
X582969Y201792D01*
X582923Y201595D01*
X582866Y201389D01*
X582782Y201173D01*
Y201164D01*
X582773Y201145D01*
X582754Y201117D01*
X582735Y201070D01*
X582707Y201024D01*
X582679Y200958D01*
X582594Y200808D01*
X582491Y200630D01*
X582360Y200424D01*
X582201Y200208D01*
X582013Y199974D01*
Y199964D01*
X581995Y199955D01*
X581976Y199927D01*
X581938Y199889D01*
X581901Y199842D01*
X581845Y199786D01*
X581779Y199721D01*
X581713Y199646D01*
X581629Y199561D01*
X581535Y199468D01*
X581432Y199364D01*
X581320Y199252D01*
X581189Y199130D01*
X581057Y198999D01*
X580907Y198858D01*
X580748Y198708D01*
X580739Y198699D01*
X580711Y198671D01*
X580664Y198633D01*
X580607Y198577D01*
X580542Y198512D01*
X580457Y198437D01*
X580280Y198268D01*
X580083Y198081D01*
X579886Y197893D01*
X579717Y197724D01*
X579651Y197659D01*
X579586Y197593D01*
X579576Y197584D01*
X579539Y197537D01*
X579483Y197481D01*
X579417Y197406D01*
X579333Y197312D01*
X579239Y197199D01*
X579052Y196965D01*
X582369D01*
X582013Y195250D01*
X576184D01*
Y195259D01*
Y195278D01*
X576193Y195316D01*
X576202Y195372D01*
X576212Y195437D01*
X576231Y195503D01*
X576249Y195587D01*
X576268Y195681D01*
X576315Y195887D01*
X576390Y196112D01*
X576474Y196346D01*
X576587Y196590D01*
Y196600D01*
X576605Y196618D01*
X576624Y196656D01*
X576643Y196703D01*
X576680Y196759D01*
X576718Y196824D01*
X576812Y196984D01*
X576933Y197162D01*
X577074Y197368D01*
X577224Y197574D01*
X577402Y197781D01*
X577411Y197790D01*
X577430Y197809D01*
X577458Y197837D01*
X577496Y197884D01*
X577552Y197949D01*
X577627Y198024D01*
X577711Y198109D01*
X577805Y198212D01*
X577918Y198324D01*
X578049Y198455D01*
X578199Y198605D01*
X578358Y198765D01*
X578536Y198943D01*
X578733Y199130D01*
X578949Y199336D01*
X579183Y199561D01*
X579192Y199571D01*
X579230Y199599D01*
X579277Y199646D01*
X579342Y199711D01*
X579417Y199786D01*
X579501Y199871D01*
X579698Y200068D01*
X579905Y200274D01*
X580101Y200471D01*
X580195Y200564D01*
X580280Y200649D01*
X580345Y200724D01*
X580401Y200780D01*
X580411Y200789D01*
X580420Y200798D01*
X580448Y200827D01*
X580476Y200864D01*
X580551Y200958D01*
X580654Y201080D01*
X580757Y201220D01*
X580861Y201361D01*
X580954Y201520D01*
X581029Y201661D01*
X581039Y201680D01*
X581057Y201726D01*
X581086Y201792D01*
X581123Y201886D01*
X581151Y201989D01*
X581179Y202101D01*
X581198Y202223D01*
X581207Y202336D01*
Y202345D01*
Y202354D01*
Y202383D01*
Y202420D01*
X581189Y202504D01*
X581170Y202617D01*
X581132Y202739D01*
X581086Y202870D01*
X581011Y203001D01*
X580917Y203123D01*
X580907Y203132D01*
X580870Y203170D01*
X580804Y203217D01*
X580720Y203282D01*
X580617Y203339D01*
X580495Y203385D01*
X580354Y203423D01*
X580195Y203432D01*
X580176D01*
X580120Y203423D01*
X580036Y203414D01*
X579933Y203395D01*
X579801Y203348D01*
X579670Y203292D01*
X579539Y203207D01*
X579408Y203095D01*
X579389Y203076D01*
X579352Y203029D01*
X579324Y202992D01*
X579295Y202945D01*
X579258Y202889D01*
X579220Y202814D01*
X579183Y202739D01*
X579145Y202645D01*
X579099Y202551D01*
X579061Y202439D01*
X579024Y202317D01*
X578977Y202186D01*
X578949Y202036D01*
X578911Y201876D01*
X577074Y202148D01*
Y202167D01*
X577083Y202204D01*
X577102Y202279D01*
X577121Y202364D01*
X577149Y202476D01*
X577187Y202607D01*
X577233Y202748D01*
X577280Y202907D01*
X577346Y203067D01*
X577421Y203235D01*
X577505Y203404D01*
X577599Y203573D01*
X577711Y203741D01*
X577824Y203901D01*
X577955Y204051D01*
X578105Y204191D01*
X578114Y204201D01*
X578143Y204219D01*
X578189Y204257D01*
X578255Y204304D01*
X578330Y204360D01*
X578424Y204416D01*
X578536Y204482D01*
X578667Y204548D01*
X578808Y204613D01*
X578958Y204679D01*
X579127Y204735D01*
X579314Y204791D01*
X579501Y204838D01*
X579708Y204876D01*
X579923Y204894D01*
X580148Y204904D01*
X580280D01*
X580373Y204894D01*
D02*
G37*
G36*
X574084Y195250D02*
X572219D01*
X572603Y197068D01*
X574468D01*
X574084Y195250D01*
D02*
G37*
G36*
X625196Y215410D02*
X623322D01*
X623678Y217107D01*
X625552D01*
X625196Y215410D01*
D02*
G37*
G36*
X637971Y214614D02*
X638084Y214595D01*
X638215Y214576D01*
X638355Y214539D01*
X638524Y214482D01*
X638693Y214417D01*
X637971Y212880D01*
X637962D01*
X637924Y212899D01*
X637877Y212908D01*
X637802Y212927D01*
X637718Y212945D01*
X637624Y212955D01*
X637418Y212973D01*
X637371D01*
X637334Y212964D01*
X637240Y212955D01*
X637109Y212927D01*
X636959Y212880D01*
X636790Y212814D01*
X636612Y212720D01*
X636425Y212599D01*
X636415D01*
X636406Y212580D01*
X636378Y212561D01*
X636340Y212533D01*
X636256Y212449D01*
X636143Y212336D01*
X636012Y212196D01*
X635890Y212027D01*
X635759Y211830D01*
X635647Y211614D01*
Y211605D01*
X635637Y211586D01*
X635619Y211549D01*
X635600Y211502D01*
X635572Y211436D01*
X635544Y211352D01*
X635506Y211258D01*
X635469Y211146D01*
X635431Y211015D01*
X635384Y210874D01*
X635347Y210715D01*
X635290Y210537D01*
X635244Y210349D01*
X635197Y210143D01*
X635141Y209918D01*
X635094Y209674D01*
X634634Y207500D01*
X632760D01*
X634213Y214464D01*
X635965D01*
X635694Y213114D01*
X635703Y213133D01*
X635740Y213180D01*
X635797Y213255D01*
X635862Y213348D01*
X635956Y213461D01*
X636068Y213592D01*
X636190Y213733D01*
X636331Y213873D01*
X636481Y214014D01*
X636650Y214145D01*
X636818Y214276D01*
X637006Y214389D01*
X637202Y214482D01*
X637399Y214557D01*
X637606Y214604D01*
X637821Y214623D01*
X637896D01*
X637971Y214614D01*
D02*
G37*
G36*
X629854D02*
X629958Y214604D01*
X630079Y214586D01*
X630211Y214567D01*
X630351Y214539D01*
X630510Y214511D01*
X630670Y214464D01*
X630829Y214417D01*
X630989Y214351D01*
X631157Y214276D01*
X631316Y214192D01*
X631466Y214089D01*
X631607Y213976D01*
X631617Y213967D01*
X631635Y213948D01*
X631673Y213911D01*
X631729Y213864D01*
X631785Y213798D01*
X631851Y213723D01*
X631916Y213630D01*
X631991Y213526D01*
X632066Y213414D01*
X632132Y213283D01*
X632207Y213142D01*
X632272Y212992D01*
X632329Y212833D01*
X632376Y212664D01*
X632413Y212486D01*
X632441Y212289D01*
X630651Y212102D01*
Y212111D01*
Y212130D01*
X630642Y212158D01*
X630632Y212196D01*
X630614Y212299D01*
X630586Y212430D01*
X630529Y212561D01*
X630473Y212711D01*
X630389Y212842D01*
X630286Y212955D01*
X630276Y212964D01*
X630229Y213002D01*
X630173Y213048D01*
X630079Y213095D01*
X629976Y213152D01*
X629845Y213189D01*
X629695Y213227D01*
X629526Y213236D01*
X629470D01*
X629433Y213227D01*
X629330Y213217D01*
X629198Y213189D01*
X629039Y213133D01*
X628870Y213058D01*
X628683Y212964D01*
X628599Y212899D01*
X628505Y212824D01*
X628495D01*
X628486Y212805D01*
X628458Y212777D01*
X628430Y212749D01*
X628392Y212702D01*
X628345Y212655D01*
X628289Y212589D01*
X628242Y212524D01*
X628186Y212439D01*
X628120Y212346D01*
X628064Y212252D01*
X627999Y212139D01*
X627942Y212017D01*
X627886Y211896D01*
X627830Y211755D01*
X627783Y211605D01*
Y211596D01*
X627774Y211568D01*
X627764Y211530D01*
X627746Y211465D01*
X627727Y211399D01*
X627708Y211315D01*
X627680Y211221D01*
X627661Y211118D01*
X627614Y210883D01*
X627577Y210630D01*
X627549Y210359D01*
X627539Y210096D01*
Y210087D01*
Y210068D01*
Y210040D01*
X627549Y209993D01*
X627558Y209881D01*
X627577Y209749D01*
X627614Y209590D01*
X627671Y209431D01*
X627736Y209281D01*
X627839Y209140D01*
X627858Y209131D01*
X627896Y209093D01*
X627961Y209037D01*
X628046Y208981D01*
X628158Y208915D01*
X628280Y208868D01*
X628430Y208831D01*
X628589Y208812D01*
X628608D01*
X628664Y208821D01*
X628758Y208831D01*
X628870Y208850D01*
X629002Y208896D01*
X629151Y208953D01*
X629301Y209028D01*
X629461Y209140D01*
X629470D01*
X629479Y209159D01*
X629526Y209206D01*
X629611Y209281D01*
X629705Y209384D01*
X629808Y209524D01*
X629920Y209693D01*
X630033Y209890D01*
X630126Y210124D01*
X631954Y209824D01*
X631945Y209815D01*
X631935Y209768D01*
X631907Y209712D01*
X631870Y209627D01*
X631823Y209524D01*
X631766Y209403D01*
X631691Y209271D01*
X631617Y209140D01*
X631523Y208990D01*
X631420Y208840D01*
X631316Y208681D01*
X631195Y208531D01*
X631063Y208381D01*
X630914Y208231D01*
X630764Y208090D01*
X630604Y207969D01*
X630595Y207959D01*
X630567Y207940D01*
X630520Y207912D01*
X630445Y207875D01*
X630360Y207819D01*
X630267Y207772D01*
X630145Y207715D01*
X630023Y207659D01*
X629873Y207594D01*
X629723Y207537D01*
X629554Y207491D01*
X629367Y207444D01*
X629180Y207397D01*
X628983Y207369D01*
X628777Y207350D01*
X628561Y207341D01*
X628505D01*
X628430Y207350D01*
X628345D01*
X628233Y207369D01*
X628102Y207378D01*
X627952Y207406D01*
X627802Y207444D01*
X627633Y207481D01*
X627464Y207537D01*
X627286Y207594D01*
X627108Y207669D01*
X626940Y207762D01*
X626771Y207865D01*
X626602Y207987D01*
X626452Y208128D01*
X626443Y208137D01*
X626415Y208165D01*
X626377Y208212D01*
X626330Y208278D01*
X626274Y208353D01*
X626208Y208456D01*
X626133Y208568D01*
X626068Y208700D01*
X625993Y208850D01*
X625918Y209009D01*
X625852Y209187D01*
X625796Y209384D01*
X625749Y209599D01*
X625712Y209824D01*
X625684Y210059D01*
X625674Y210312D01*
Y210321D01*
Y210359D01*
Y210424D01*
X625684Y210508D01*
X625693Y210602D01*
X625702Y210724D01*
X625712Y210855D01*
X625731Y211005D01*
X625759Y211165D01*
X625787Y211333D01*
X625871Y211689D01*
X625927Y211877D01*
X625993Y212074D01*
X626059Y212261D01*
X626143Y212449D01*
X626152Y212458D01*
X626162Y212495D01*
X626190Y212542D01*
X626227Y212617D01*
X626283Y212702D01*
X626340Y212795D01*
X626415Y212908D01*
X626499Y213030D01*
X626593Y213152D01*
X626696Y213283D01*
X626808Y213414D01*
X626940Y213545D01*
X627080Y213676D01*
X627230Y213808D01*
X627389Y213930D01*
X627558Y214042D01*
X627567Y214051D01*
X627605Y214070D01*
X627652Y214098D01*
X627727Y214136D01*
X627811Y214173D01*
X627924Y214229D01*
X628046Y214276D01*
X628177Y214333D01*
X628327Y214389D01*
X628486Y214436D01*
X628664Y214492D01*
X628842Y214529D01*
X629039Y214567D01*
X629236Y214595D01*
X629442Y214614D01*
X629648Y214623D01*
X629770D01*
X629854Y214614D01*
D02*
G37*
G36*
X619723Y207500D02*
X617933D01*
X619591Y215467D01*
X616030Y207500D01*
X614155D01*
X613799Y215523D01*
X612281Y207500D01*
X610491D01*
X612496Y217107D01*
X615317D01*
X615617Y210499D01*
X618635Y217107D01*
X621466D01*
X619723Y207500D01*
D02*
G37*
G36*
X623547D02*
X621672D01*
X623125Y214464D01*
X624999D01*
X623547Y207500D01*
D02*
G37*
G36*
X642470Y214614D02*
X642573D01*
X642704Y214595D01*
X642854Y214576D01*
X643014Y214548D01*
X643201Y214520D01*
X643389Y214473D01*
X643585Y214417D01*
X643782Y214342D01*
X643979Y214267D01*
X644176Y214164D01*
X644373Y214051D01*
X644551Y213920D01*
X644719Y213770D01*
X644729Y213761D01*
X644757Y213733D01*
X644804Y213686D01*
X644860Y213620D01*
X644926Y213526D01*
X644991Y213423D01*
X645076Y213311D01*
X645160Y213170D01*
X645235Y213011D01*
X645319Y212842D01*
X645385Y212655D01*
X645460Y212458D01*
X645507Y212233D01*
X645554Y211999D01*
X645582Y211755D01*
X645591Y211493D01*
Y211474D01*
Y211418D01*
X645582Y211324D01*
X645572Y211211D01*
X645554Y211061D01*
X645535Y210893D01*
X645497Y210696D01*
X645460Y210490D01*
X645394Y210265D01*
X645329Y210030D01*
X645235Y209787D01*
X645132Y209543D01*
X645010Y209290D01*
X644860Y209046D01*
X644691Y208803D01*
X644504Y208568D01*
X644494Y208559D01*
X644457Y208512D01*
X644391Y208456D01*
X644307Y208381D01*
X644194Y208287D01*
X644063Y208184D01*
X643913Y208072D01*
X643735Y207959D01*
X643538Y207837D01*
X643323Y207725D01*
X643089Y207622D01*
X642826Y207537D01*
X642554Y207453D01*
X642254Y207397D01*
X641936Y207359D01*
X641608Y207341D01*
X641514D01*
X641439Y207350D01*
X641355D01*
X641261Y207359D01*
X641148Y207369D01*
X641017Y207387D01*
X640745Y207434D01*
X640455Y207500D01*
X640155Y207594D01*
X639864Y207725D01*
X639855Y207734D01*
X639827Y207744D01*
X639789Y207762D01*
X639743Y207800D01*
X639677Y207837D01*
X639602Y207884D01*
X639443Y208015D01*
X639255Y208175D01*
X639068Y208362D01*
X638890Y208587D01*
X638730Y208840D01*
Y208850D01*
X638712Y208878D01*
X638693Y208915D01*
X638674Y208962D01*
X638646Y209037D01*
X638618Y209112D01*
X638580Y209206D01*
X638552Y209309D01*
X638515Y209412D01*
X638477Y209534D01*
X638421Y209796D01*
X638383Y210087D01*
X638365Y210387D01*
Y210396D01*
Y210405D01*
Y210434D01*
Y210471D01*
X638374Y210574D01*
X638383Y210705D01*
X638402Y210874D01*
X638421Y211061D01*
X638459Y211268D01*
X638505Y211493D01*
X638562Y211736D01*
X638627Y211989D01*
X638721Y212242D01*
X638824Y212505D01*
X638946Y212758D01*
X639096Y213011D01*
X639264Y213245D01*
X639452Y213470D01*
X639461Y213480D01*
X639499Y213517D01*
X639564Y213573D01*
X639649Y213648D01*
X639761Y213742D01*
X639893Y213836D01*
X640042Y213939D01*
X640220Y214051D01*
X640417Y214154D01*
X640633Y214258D01*
X640867Y214361D01*
X641120Y214445D01*
X641392Y214520D01*
X641683Y214576D01*
X641992Y214614D01*
X642320Y214623D01*
X642386D01*
X642470Y214614D01*
D02*
G37*
G36*
X623259Y195250D02*
X621637D01*
X620250Y202214D01*
X622096D01*
X622584Y199168D01*
Y199158D01*
X622593Y199111D01*
X622603Y199055D01*
X622612Y198971D01*
X622631Y198868D01*
X622649Y198755D01*
X622668Y198633D01*
X622687Y198502D01*
X622734Y198230D01*
X622771Y197959D01*
X622790Y197837D01*
X622799Y197724D01*
X622818Y197621D01*
X622827Y197537D01*
Y197546D01*
X622846Y197565D01*
X622865Y197612D01*
X622912Y197677D01*
X622940Y197724D01*
X622968Y197790D01*
X623006Y197855D01*
X623052Y197931D01*
X623099Y198024D01*
X623156Y198127D01*
X623221Y198240D01*
X623287Y198371D01*
X623296Y198380D01*
X623306Y198399D01*
X623324Y198437D01*
X623352Y198493D01*
X623381Y198549D01*
X623418Y198615D01*
X623502Y198765D01*
X623587Y198915D01*
X623662Y199065D01*
X623699Y199130D01*
X623727Y199186D01*
X623755Y199233D01*
X623774Y199271D01*
X625508Y202214D01*
X627542D01*
X623259Y195250D01*
D02*
G37*
G36*
X642904Y204894D02*
X643016Y204885D01*
X643147Y204866D01*
X643288Y204838D01*
X643447Y204810D01*
X643606Y204772D01*
X643785Y204726D01*
X643963Y204669D01*
X644131Y204594D01*
X644309Y204510D01*
X644478Y204416D01*
X644638Y204304D01*
X644788Y204173D01*
X644797Y204163D01*
X644825Y204135D01*
X644863Y204098D01*
X644909Y204042D01*
X644966Y203967D01*
X645031Y203882D01*
X645097Y203779D01*
X645172Y203666D01*
X645247Y203535D01*
X645312Y203395D01*
X645378Y203245D01*
X645434Y203085D01*
X645481Y202907D01*
X645528Y202720D01*
X645547Y202523D01*
X645556Y202317D01*
Y202307D01*
Y202289D01*
Y202261D01*
Y202223D01*
X645547Y202167D01*
Y202111D01*
X645528Y201961D01*
X645500Y201792D01*
X645453Y201595D01*
X645397Y201389D01*
X645312Y201173D01*
Y201164D01*
X645303Y201145D01*
X645284Y201117D01*
X645266Y201070D01*
X645237Y201024D01*
X645209Y200958D01*
X645125Y200808D01*
X645022Y200630D01*
X644891Y200424D01*
X644731Y200208D01*
X644544Y199974D01*
Y199964D01*
X644525Y199955D01*
X644506Y199927D01*
X644469Y199889D01*
X644431Y199842D01*
X644375Y199786D01*
X644309Y199721D01*
X644244Y199646D01*
X644159Y199561D01*
X644066Y199468D01*
X643963Y199364D01*
X643850Y199252D01*
X643719Y199130D01*
X643588Y198999D01*
X643438Y198858D01*
X643279Y198708D01*
X643269Y198699D01*
X643241Y198671D01*
X643194Y198633D01*
X643138Y198577D01*
X643072Y198512D01*
X642988Y198437D01*
X642810Y198268D01*
X642613Y198081D01*
X642416Y197893D01*
X642247Y197724D01*
X642182Y197659D01*
X642116Y197593D01*
X642107Y197584D01*
X642069Y197537D01*
X642013Y197481D01*
X641948Y197406D01*
X641863Y197312D01*
X641769Y197199D01*
X641582Y196965D01*
X644900D01*
X644544Y195250D01*
X638714D01*
Y195259D01*
Y195278D01*
X638723Y195316D01*
X638733Y195372D01*
X638742Y195437D01*
X638761Y195503D01*
X638780Y195587D01*
X638798Y195681D01*
X638845Y195887D01*
X638920Y196112D01*
X639005Y196346D01*
X639117Y196590D01*
Y196600D01*
X639136Y196618D01*
X639155Y196656D01*
X639173Y196703D01*
X639211Y196759D01*
X639248Y196824D01*
X639342Y196984D01*
X639464Y197162D01*
X639604Y197368D01*
X639754Y197574D01*
X639933Y197781D01*
X639942Y197790D01*
X639961Y197809D01*
X639989Y197837D01*
X640026Y197884D01*
X640082Y197949D01*
X640157Y198024D01*
X640242Y198109D01*
X640335Y198212D01*
X640448Y198324D01*
X640579Y198455D01*
X640729Y198605D01*
X640889Y198765D01*
X641067Y198943D01*
X641263Y199130D01*
X641479Y199336D01*
X641713Y199561D01*
X641723Y199571D01*
X641760Y199599D01*
X641807Y199646D01*
X641873Y199711D01*
X641948Y199786D01*
X642032Y199871D01*
X642229Y200068D01*
X642435Y200274D01*
X642632Y200471D01*
X642726Y200564D01*
X642810Y200649D01*
X642876Y200724D01*
X642932Y200780D01*
X642941Y200789D01*
X642951Y200798D01*
X642979Y200827D01*
X643007Y200864D01*
X643082Y200958D01*
X643185Y201080D01*
X643288Y201220D01*
X643391Y201361D01*
X643485Y201520D01*
X643560Y201661D01*
X643569Y201680D01*
X643588Y201726D01*
X643616Y201792D01*
X643653Y201886D01*
X643681Y201989D01*
X643710Y202101D01*
X643728Y202223D01*
X643738Y202336D01*
Y202345D01*
Y202354D01*
Y202383D01*
Y202420D01*
X643719Y202504D01*
X643700Y202617D01*
X643663Y202739D01*
X643616Y202870D01*
X643541Y203001D01*
X643447Y203123D01*
X643438Y203132D01*
X643400Y203170D01*
X643335Y203217D01*
X643250Y203282D01*
X643147Y203339D01*
X643025Y203385D01*
X642885Y203423D01*
X642726Y203432D01*
X642707D01*
X642651Y203423D01*
X642566Y203414D01*
X642463Y203395D01*
X642332Y203348D01*
X642201Y203292D01*
X642069Y203207D01*
X641938Y203095D01*
X641919Y203076D01*
X641882Y203029D01*
X641854Y202992D01*
X641826Y202945D01*
X641788Y202889D01*
X641751Y202814D01*
X641713Y202739D01*
X641676Y202645D01*
X641629Y202551D01*
X641591Y202439D01*
X641554Y202317D01*
X641507Y202186D01*
X641479Y202036D01*
X641441Y201876D01*
X639604Y202148D01*
Y202167D01*
X639614Y202204D01*
X639633Y202279D01*
X639651Y202364D01*
X639679Y202476D01*
X639717Y202607D01*
X639764Y202748D01*
X639811Y202907D01*
X639876Y203067D01*
X639951Y203235D01*
X640036Y203404D01*
X640129Y203573D01*
X640242Y203741D01*
X640354Y203901D01*
X640486Y204051D01*
X640635Y204191D01*
X640645Y204201D01*
X640673Y204219D01*
X640720Y204257D01*
X640785Y204304D01*
X640860Y204360D01*
X640954Y204416D01*
X641067Y204482D01*
X641198Y204548D01*
X641338Y204613D01*
X641488Y204679D01*
X641657Y204735D01*
X641844Y204791D01*
X642032Y204838D01*
X642238Y204876D01*
X642454Y204894D01*
X642679Y204904D01*
X642810D01*
X642904Y204894D01*
D02*
G37*
G36*
X636615Y195250D02*
X634749D01*
X635134Y197068D01*
X636999D01*
X636615Y195250D01*
D02*
G37*
G36*
X631535D02*
X629641D01*
X631029Y201895D01*
X631019D01*
X631000Y201876D01*
X630972Y201858D01*
X630925Y201829D01*
X630869Y201801D01*
X630804Y201764D01*
X630729Y201717D01*
X630635Y201670D01*
X630438Y201558D01*
X630204Y201445D01*
X629951Y201323D01*
X629669Y201202D01*
X629660D01*
X629632Y201192D01*
X629594Y201173D01*
X629538Y201155D01*
X629473Y201127D01*
X629398Y201098D01*
X629304Y201061D01*
X629210Y201024D01*
X628995Y200958D01*
X628770Y200883D01*
X628535Y200817D01*
X628301Y200761D01*
X628657Y202439D01*
X628667D01*
X628685Y202448D01*
X628723Y202467D01*
X628760Y202486D01*
X628826Y202514D01*
X628892Y202542D01*
X628966Y202579D01*
X629060Y202626D01*
X629257Y202729D01*
X629491Y202851D01*
X629754Y202992D01*
X630035Y203142D01*
X630335Y203320D01*
X630644Y203507D01*
X630953Y203713D01*
X631263Y203929D01*
X631572Y204163D01*
X631872Y204398D01*
X632153Y204651D01*
X632416Y204913D01*
X633550D01*
X631535Y195250D01*
D02*
G37*
G36*
X556409Y215410D02*
X554535D01*
X554891Y217107D01*
X556766D01*
X556409Y215410D01*
D02*
G37*
G36*
X566148Y214614D02*
X566213D01*
X566298Y214604D01*
X566485Y214567D01*
X566691Y214511D01*
X566907Y214436D01*
X567122Y214323D01*
X567216Y214248D01*
X567310Y214173D01*
X567319Y214164D01*
X567329Y214154D01*
X567357Y214126D01*
X567385Y214089D01*
X567422Y214042D01*
X567460Y213995D01*
X567544Y213855D01*
X567629Y213686D01*
X567704Y213480D01*
X567760Y213245D01*
X567769Y213114D01*
X567779Y212983D01*
Y212964D01*
Y212917D01*
X567769Y212870D01*
Y212824D01*
X567760Y212767D01*
X567750Y212692D01*
X567741Y212617D01*
X567722Y212524D01*
X567713Y212421D01*
X567694Y212308D01*
X567666Y212186D01*
X567647Y212055D01*
X567619Y211905D01*
X567582Y211746D01*
X566673Y207500D01*
X564798D01*
X565698Y211746D01*
Y211755D01*
X565707Y211783D01*
X565717Y211821D01*
X565726Y211868D01*
X565735Y211933D01*
X565754Y212008D01*
X565782Y212158D01*
X565810Y212317D01*
X565838Y212458D01*
X565848Y212524D01*
X565857Y212580D01*
X565867Y212617D01*
Y212645D01*
Y212655D01*
Y212692D01*
X565857Y212749D01*
X565848Y212814D01*
X565820Y212889D01*
X565792Y212964D01*
X565745Y213039D01*
X565688Y213105D01*
X565679Y213114D01*
X565660Y213133D01*
X565613Y213161D01*
X565557Y213198D01*
X565482Y213227D01*
X565398Y213255D01*
X565285Y213273D01*
X565163Y213283D01*
X565098D01*
X565042Y213273D01*
X564985Y213264D01*
X564911Y213245D01*
X564742Y213189D01*
X564648Y213152D01*
X564545Y213105D01*
X564442Y213039D01*
X564339Y212964D01*
X564226Y212880D01*
X564123Y212777D01*
X564011Y212664D01*
X563908Y212533D01*
Y212524D01*
X563889Y212505D01*
X563870Y212477D01*
X563842Y212430D01*
X563805Y212374D01*
X563767Y212299D01*
X563720Y212205D01*
X563664Y212102D01*
X563617Y211980D01*
X563561Y211839D01*
X563495Y211689D01*
X563439Y211521D01*
X563383Y211324D01*
X563326Y211118D01*
X563270Y210893D01*
X563214Y210649D01*
X562558Y207500D01*
X560683D01*
X561555Y211708D01*
Y211718D01*
X561564Y211736D01*
X561574Y211774D01*
X561583Y211821D01*
X561593Y211886D01*
X561602Y211952D01*
X561630Y212092D01*
X561658Y212252D01*
X561686Y212411D01*
X561696Y212542D01*
X561705Y212599D01*
Y212645D01*
Y212655D01*
Y212692D01*
X561696Y212749D01*
X561686Y212805D01*
X561658Y212880D01*
X561630Y212955D01*
X561583Y213030D01*
X561518Y213105D01*
X561508Y213114D01*
X561480Y213133D01*
X561443Y213161D01*
X561386Y213198D01*
X561311Y213227D01*
X561218Y213255D01*
X561115Y213273D01*
X561002Y213283D01*
X560946D01*
X560890Y213273D01*
X560805Y213264D01*
X560712Y213236D01*
X560599Y213208D01*
X560487Y213161D01*
X560365Y213095D01*
X560346Y213086D01*
X560308Y213058D01*
X560252Y213020D01*
X560168Y212964D01*
X560084Y212889D01*
X559990Y212805D01*
X559887Y212702D01*
X559793Y212589D01*
X559784Y212570D01*
X559756Y212533D01*
X559709Y212458D01*
X559652Y212364D01*
X559587Y212252D01*
X559512Y212111D01*
X559437Y211943D01*
X559371Y211764D01*
Y211755D01*
X559352Y211718D01*
X559334Y211643D01*
X559324Y211596D01*
X559306Y211539D01*
X559287Y211474D01*
X559268Y211399D01*
X559249Y211315D01*
X559221Y211211D01*
X559202Y211108D01*
X559174Y210977D01*
X559137Y210846D01*
X559109Y210696D01*
X558443Y207500D01*
X556569D01*
X558022Y214464D01*
X559784D01*
X559615Y213611D01*
X559624Y213620D01*
X559662Y213658D01*
X559718Y213705D01*
X559793Y213770D01*
X559887Y213845D01*
X560009Y213930D01*
X560130Y214023D01*
X560280Y214117D01*
X560440Y214211D01*
X560608Y214304D01*
X560787Y214389D01*
X560974Y214464D01*
X561171Y214529D01*
X561377Y214576D01*
X561583Y214614D01*
X561799Y214623D01*
X561874D01*
X561930Y214614D01*
X561996D01*
X562071Y214604D01*
X562249Y214586D01*
X562436Y214539D01*
X562642Y214482D01*
X562839Y214408D01*
X563008Y214295D01*
X563017D01*
X563027Y214276D01*
X563073Y214239D01*
X563148Y214164D01*
X563242Y214061D01*
X563336Y213930D01*
X563420Y213770D01*
X563505Y213592D01*
X563561Y213386D01*
Y213395D01*
X563579Y213414D01*
X563598Y213433D01*
X563626Y213470D01*
X563711Y213573D01*
X563833Y213695D01*
X563973Y213836D01*
X564151Y213976D01*
X564367Y214126D01*
X564601Y214267D01*
X564610D01*
X564629Y214286D01*
X564667Y214304D01*
X564723Y214323D01*
X564779Y214351D01*
X564854Y214379D01*
X564939Y214408D01*
X565032Y214445D01*
X565238Y214511D01*
X565482Y214567D01*
X565735Y214604D01*
X566007Y214623D01*
X566091D01*
X566148Y214614D01*
D02*
G37*
G36*
X554760Y207500D02*
X552885D01*
X554338Y214464D01*
X556213D01*
X554760Y207500D01*
D02*
G37*
G36*
X547056Y209103D02*
X551958D01*
X551620Y207500D01*
X544750D01*
X546756Y217107D01*
X548724D01*
X547056Y209103D01*
D02*
G37*
G36*
X572783Y214614D02*
X572877D01*
X572980Y214595D01*
X573111Y214586D01*
X573243Y214557D01*
X573402Y214520D01*
X573561Y214482D01*
X573721Y214426D01*
X573889Y214361D01*
X574058Y214286D01*
X574227Y214192D01*
X574395Y214089D01*
X574546Y213967D01*
X574695Y213826D01*
X574705Y213817D01*
X574733Y213789D01*
X574770Y213742D01*
X574817Y213686D01*
X574874Y213601D01*
X574939Y213498D01*
X575005Y213386D01*
X575080Y213255D01*
X575145Y213105D01*
X575211Y212945D01*
X575276Y212758D01*
X575333Y212561D01*
X575389Y212346D01*
X575426Y212121D01*
X575445Y211877D01*
X575455Y211614D01*
Y211605D01*
Y211586D01*
Y211549D01*
Y211502D01*
Y211446D01*
X575445Y211371D01*
X575436Y211211D01*
X575426Y211024D01*
X575398Y210818D01*
X575370Y210602D01*
X575323Y210396D01*
X570609D01*
Y210377D01*
Y210330D01*
X570600Y210274D01*
Y210218D01*
Y210209D01*
Y210190D01*
Y210152D01*
X570609Y210105D01*
Y210040D01*
X570618Y209974D01*
X570647Y209815D01*
X570693Y209637D01*
X570768Y209459D01*
X570862Y209271D01*
X570993Y209103D01*
X571003D01*
X571012Y209084D01*
X571068Y209037D01*
X571153Y208971D01*
X571265Y208896D01*
X571406Y208812D01*
X571574Y208746D01*
X571753Y208700D01*
X571856Y208690D01*
X571959Y208681D01*
X571996D01*
X572052Y208690D01*
X572118Y208700D01*
X572193Y208709D01*
X572287Y208728D01*
X572390Y208765D01*
X572502Y208803D01*
X572615Y208850D01*
X572737Y208915D01*
X572858Y209000D01*
X572980Y209084D01*
X573102Y209196D01*
X573215Y209328D01*
X573327Y209478D01*
X573430Y209646D01*
X575117Y209365D01*
X575108Y209356D01*
X575098Y209318D01*
X575070Y209271D01*
X575023Y209196D01*
X574977Y209112D01*
X574920Y209018D01*
X574845Y208915D01*
X574770Y208793D01*
X574677Y208671D01*
X574574Y208550D01*
X574349Y208297D01*
X574086Y208053D01*
X573946Y207950D01*
X573796Y207847D01*
X573786Y207837D01*
X573758Y207828D01*
X573711Y207800D01*
X573655Y207772D01*
X573571Y207734D01*
X573477Y207687D01*
X573374Y207640D01*
X573252Y207594D01*
X573121Y207547D01*
X572980Y207500D01*
X572830Y207462D01*
X572671Y207416D01*
X572324Y207359D01*
X572137Y207350D01*
X571949Y207341D01*
X571884D01*
X571818Y207350D01*
X571715Y207359D01*
X571593Y207369D01*
X571462Y207387D01*
X571303Y207416D01*
X571134Y207453D01*
X570956Y207500D01*
X570778Y207556D01*
X570581Y207631D01*
X570393Y207715D01*
X570197Y207809D01*
X570019Y207931D01*
X569831Y208062D01*
X569662Y208222D01*
X569653Y208231D01*
X569625Y208259D01*
X569578Y208315D01*
X569531Y208381D01*
X569456Y208475D01*
X569391Y208578D01*
X569306Y208709D01*
X569231Y208850D01*
X569147Y209009D01*
X569062Y209187D01*
X568997Y209384D01*
X568931Y209590D01*
X568875Y209815D01*
X568828Y210049D01*
X568800Y210312D01*
X568791Y210574D01*
Y210593D01*
Y210640D01*
X568800Y210715D01*
Y210818D01*
X568819Y210940D01*
X568828Y211080D01*
X568856Y211249D01*
X568894Y211427D01*
X568931Y211614D01*
X568988Y211821D01*
X569044Y212027D01*
X569119Y212242D01*
X569212Y212467D01*
X569316Y212683D01*
X569437Y212899D01*
X569578Y213114D01*
X569587Y213133D01*
X569625Y213180D01*
X569691Y213255D01*
X569775Y213348D01*
X569887Y213461D01*
X570028Y213592D01*
X570187Y213733D01*
X570365Y213873D01*
X570572Y214014D01*
X570806Y214145D01*
X571059Y214276D01*
X571331Y214389D01*
X571631Y214482D01*
X571949Y214557D01*
X572296Y214604D01*
X572662Y214623D01*
X572718D01*
X572783Y214614D01*
D02*
G37*
G36*
X582261Y217266D02*
X582383D01*
X582524Y217247D01*
X582692Y217238D01*
X582870Y217210D01*
X583067Y217172D01*
X583274Y217135D01*
X583489Y217079D01*
X583705Y217013D01*
X583930Y216938D01*
X584136Y216844D01*
X584351Y216741D01*
X584548Y216619D01*
X584726Y216479D01*
X584736Y216469D01*
X584764Y216441D01*
X584811Y216395D01*
X584876Y216338D01*
X584942Y216254D01*
X585026Y216160D01*
X585111Y216048D01*
X585204Y215917D01*
X585298Y215776D01*
X585382Y215617D01*
X585467Y215438D01*
X585551Y215251D01*
X585617Y215054D01*
X585673Y214839D01*
X585720Y214614D01*
X585748Y214370D01*
X583855Y214286D01*
Y214295D01*
Y214314D01*
X583845Y214351D01*
X583836Y214398D01*
X583826Y214454D01*
X583808Y214520D01*
X583761Y214670D01*
X583695Y214839D01*
X583611Y215017D01*
X583498Y215185D01*
X583349Y215335D01*
X583330Y215354D01*
X583302Y215373D01*
X583274Y215392D01*
X583227Y215420D01*
X583170Y215457D01*
X583105Y215485D01*
X583030Y215523D01*
X582946Y215560D01*
X582861Y215588D01*
X582758Y215626D01*
X582645Y215654D01*
X582514Y215673D01*
X582383Y215692D01*
X582243Y215710D01*
X581961D01*
X581886Y215701D01*
X581811Y215692D01*
X581633Y215673D01*
X581446Y215635D01*
X581249Y215588D01*
X581071Y215513D01*
X580996Y215467D01*
X580921Y215420D01*
X580902Y215410D01*
X580865Y215364D01*
X580808Y215307D01*
X580752Y215223D01*
X580687Y215110D01*
X580630Y214989D01*
X580593Y214848D01*
X580574Y214689D01*
Y214670D01*
X580584Y214623D01*
X580593Y214548D01*
X580612Y214445D01*
X580649Y214342D01*
X580705Y214229D01*
X580790Y214108D01*
X580893Y214004D01*
X580912Y213995D01*
X580930Y213976D01*
X580959Y213958D01*
X580996Y213930D01*
X581052Y213892D01*
X581118Y213855D01*
X581193Y213808D01*
X581277Y213761D01*
X581380Y213705D01*
X581493Y213639D01*
X581624Y213573D01*
X581774Y213498D01*
X581933Y213423D01*
X582111Y213339D01*
X582308Y213255D01*
X582318D01*
X582327Y213245D01*
X582383Y213227D01*
X582467Y213189D01*
X582571Y213133D01*
X582711Y213077D01*
X582861Y213002D01*
X583020Y212927D01*
X583199Y212842D01*
X583555Y212655D01*
X583733Y212561D01*
X583901Y212467D01*
X584061Y212364D01*
X584201Y212271D01*
X584323Y212177D01*
X584426Y212092D01*
X584436Y212083D01*
X584454Y212064D01*
X584492Y212027D01*
X584529Y211971D01*
X584586Y211905D01*
X584642Y211830D01*
X584698Y211736D01*
X584764Y211633D01*
X584829Y211521D01*
X584886Y211390D01*
X584942Y211258D01*
X584998Y211108D01*
X585036Y210940D01*
X585073Y210771D01*
X585092Y210593D01*
X585101Y210405D01*
Y210387D01*
Y210349D01*
X585092Y210284D01*
X585082Y210190D01*
X585073Y210087D01*
X585045Y209956D01*
X585017Y209815D01*
X584979Y209665D01*
X584923Y209496D01*
X584857Y209318D01*
X584773Y209140D01*
X584670Y208962D01*
X584558Y208775D01*
X584426Y208596D01*
X584267Y208409D01*
X584089Y208240D01*
X584080Y208231D01*
X584042Y208203D01*
X583986Y208156D01*
X583901Y208100D01*
X583798Y208034D01*
X583676Y207959D01*
X583536Y207875D01*
X583367Y207790D01*
X583180Y207706D01*
X582964Y207622D01*
X582739Y207547D01*
X582486Y207481D01*
X582214Y207425D01*
X581933Y207378D01*
X581624Y207350D01*
X581296Y207341D01*
X581174D01*
X581090Y207350D01*
X580977D01*
X580855Y207359D01*
X580715Y207378D01*
X580565Y207397D01*
X580396Y207416D01*
X580227Y207444D01*
X579871Y207519D01*
X579506Y207622D01*
X579328Y207678D01*
X579150Y207753D01*
X579140Y207762D01*
X579112Y207772D01*
X579065Y207800D01*
X579000Y207828D01*
X578925Y207875D01*
X578840Y207922D01*
X578653Y208053D01*
X578437Y208212D01*
X578222Y208409D01*
X578025Y208643D01*
X577940Y208775D01*
X577865Y208906D01*
Y208915D01*
X577847Y208943D01*
X577828Y208981D01*
X577809Y209037D01*
X577781Y209103D01*
X577753Y209187D01*
X577716Y209290D01*
X577687Y209393D01*
X577650Y209515D01*
X577622Y209646D01*
X577594Y209787D01*
X577566Y209937D01*
X577537Y210265D01*
X577528Y210612D01*
X579412Y210715D01*
Y210705D01*
Y210677D01*
X579421Y210630D01*
Y210574D01*
X579431Y210499D01*
X579440Y210415D01*
X579468Y210227D01*
X579506Y210021D01*
X579553Y209824D01*
X579628Y209637D01*
X579665Y209562D01*
X579712Y209496D01*
X579721Y209487D01*
X579731Y209478D01*
X579759Y209449D01*
X579796Y209421D01*
X579852Y209384D01*
X579909Y209337D01*
X579984Y209290D01*
X580078Y209243D01*
X580181Y209196D01*
X580293Y209149D01*
X580424Y209112D01*
X580574Y209065D01*
X580733Y209037D01*
X580912Y209009D01*
X581108Y209000D01*
X581315Y208990D01*
X581408D01*
X581474Y209000D01*
X581549D01*
X581643Y209009D01*
X581746Y209018D01*
X581849Y209037D01*
X582083Y209074D01*
X582308Y209140D01*
X582524Y209224D01*
X582627Y209281D01*
X582711Y209337D01*
X582720D01*
X582730Y209356D01*
X582777Y209403D01*
X582852Y209468D01*
X582936Y209571D01*
X583011Y209693D01*
X583086Y209834D01*
X583133Y209993D01*
X583152Y210077D01*
Y210171D01*
Y210180D01*
Y210190D01*
X583142Y210246D01*
X583133Y210321D01*
X583105Y210424D01*
X583067Y210537D01*
X583002Y210658D01*
X582917Y210780D01*
X582795Y210893D01*
X582786Y210902D01*
X582767Y210912D01*
X582739Y210930D01*
X582702Y210958D01*
X582655Y210986D01*
X582599Y211024D01*
X582533Y211061D01*
X582449Y211108D01*
X582346Y211155D01*
X582233Y211221D01*
X582111Y211277D01*
X581961Y211352D01*
X581802Y211427D01*
X581615Y211511D01*
X581418Y211596D01*
X581408Y211605D01*
X581371Y211614D01*
X581315Y211643D01*
X581240Y211680D01*
X581146Y211718D01*
X581034Y211764D01*
X580921Y211821D01*
X580799Y211877D01*
X580527Y212008D01*
X580256Y212139D01*
X580003Y212280D01*
X579890Y212336D01*
X579787Y212402D01*
X579777D01*
X579768Y212421D01*
X579740Y212439D01*
X579702Y212458D01*
X579609Y212533D01*
X579496Y212627D01*
X579365Y212749D01*
X579234Y212899D01*
X579103Y213058D01*
X578981Y213245D01*
Y213255D01*
X578971Y213273D01*
X578953Y213302D01*
X578934Y213339D01*
X578915Y213386D01*
X578887Y213442D01*
X578840Y213592D01*
X578784Y213770D01*
X578737Y213976D01*
X578700Y214201D01*
X578690Y214454D01*
Y214473D01*
Y214511D01*
X578700Y214576D01*
Y214661D01*
X578718Y214764D01*
X578737Y214886D01*
X578765Y215017D01*
X578803Y215167D01*
X578850Y215317D01*
X578906Y215485D01*
X578971Y215654D01*
X579056Y215823D01*
X579159Y215991D01*
X579271Y216151D01*
X579412Y216320D01*
X579562Y216469D01*
X579571Y216479D01*
X579599Y216507D01*
X579656Y216544D01*
X579721Y216591D01*
X579815Y216657D01*
X579927Y216723D01*
X580059Y216798D01*
X580209Y216873D01*
X580377Y216947D01*
X580574Y217022D01*
X580780Y217088D01*
X581005Y217154D01*
X581249Y217201D01*
X581521Y217238D01*
X581802Y217266D01*
X582102Y217276D01*
X582177D01*
X582261Y217266D01*
D02*
G37*
G36*
X602450Y217097D02*
X602553D01*
X602675Y217088D01*
X602806Y217079D01*
X603078Y217051D01*
X603359Y217004D01*
X603640Y216947D01*
X603762Y216910D01*
X603884Y216873D01*
X603893D01*
X603912Y216863D01*
X603940Y216844D01*
X603987Y216826D01*
X604043Y216807D01*
X604099Y216769D01*
X604240Y216685D01*
X604399Y216573D01*
X604568Y216432D01*
X604727Y216254D01*
X604877Y216048D01*
Y216038D01*
X604896Y216020D01*
X604915Y215991D01*
X604934Y215945D01*
X604971Y215879D01*
X604999Y215813D01*
X605037Y215729D01*
X605074Y215645D01*
X605102Y215542D01*
X605140Y215429D01*
X605205Y215176D01*
X605243Y214895D01*
X605262Y214586D01*
Y214576D01*
Y214529D01*
Y214464D01*
X605252Y214379D01*
X605243Y214276D01*
X605224Y214154D01*
X605196Y214023D01*
X605168Y213873D01*
X605130Y213714D01*
X605084Y213555D01*
X605018Y213386D01*
X604952Y213217D01*
X604868Y213048D01*
X604765Y212880D01*
X604652Y212711D01*
X604521Y212561D01*
X604512Y212552D01*
X604484Y212524D01*
X604446Y212486D01*
X604381Y212430D01*
X604306Y212374D01*
X604212Y212299D01*
X604099Y212224D01*
X603968Y212139D01*
X603818Y212055D01*
X603659Y211971D01*
X603471Y211886D01*
X603275Y211811D01*
X603059Y211736D01*
X602825Y211671D01*
X602572Y211624D01*
X602300Y211577D01*
X602319Y211558D01*
X602365Y211511D01*
X602440Y211436D01*
X602534Y211343D01*
X602647Y211211D01*
X602759Y211052D01*
X602890Y210874D01*
X603012Y210677D01*
X603022Y210668D01*
X603040Y210621D01*
X603078Y210565D01*
X603125Y210471D01*
X603190Y210359D01*
X603265Y210218D01*
X603350Y210049D01*
X603443Y209862D01*
X603556Y209646D01*
X603668Y209412D01*
X603790Y209149D01*
X603921Y208859D01*
X604053Y208559D01*
X604193Y208222D01*
X604343Y207875D01*
X604493Y207500D01*
X602365D01*
Y207509D01*
X602356Y207537D01*
X602337Y207584D01*
X602309Y207650D01*
X602281Y207744D01*
X602244Y207847D01*
X602197Y207969D01*
X602141Y208118D01*
X602075Y208287D01*
X602009Y208475D01*
X601925Y208681D01*
X601831Y208906D01*
X601728Y209159D01*
X601616Y209431D01*
X601494Y209721D01*
X601363Y210030D01*
Y210040D01*
X601344Y210068D01*
X601325Y210115D01*
X601288Y210180D01*
X601250Y210255D01*
X601213Y210340D01*
X601100Y210537D01*
X600969Y210752D01*
X600819Y210958D01*
X600744Y211052D01*
X600660Y211146D01*
X600575Y211221D01*
X600491Y211286D01*
X600482Y211296D01*
X600435Y211315D01*
X600369Y211352D01*
X600266Y211390D01*
X600125Y211418D01*
X599966Y211455D01*
X599760Y211474D01*
X599638Y211483D01*
X598710D01*
X597876Y207500D01*
X595908D01*
X597914Y217107D01*
X602356D01*
X602450Y217097D01*
D02*
G37*
G36*
X591615D02*
X591840Y217088D01*
X591943D01*
X592037Y217079D01*
X592121D01*
X592187Y217069D01*
X592215D01*
X592243Y217060D01*
X592290D01*
X592337Y217051D01*
X592402Y217041D01*
X592543Y217022D01*
X592712Y216985D01*
X592890Y216947D01*
X593077Y216891D01*
X593255Y216826D01*
X593265D01*
X593274Y216816D01*
X593330Y216798D01*
X593424Y216751D01*
X593536Y216694D01*
X593668Y216619D01*
X593818Y216535D01*
X593958Y216432D01*
X594108Y216310D01*
X594127Y216291D01*
X594174Y216254D01*
X594249Y216179D01*
X594333Y216085D01*
X594436Y215973D01*
X594549Y215832D01*
X594661Y215682D01*
X594764Y215513D01*
Y215504D01*
X594774Y215495D01*
X594792Y215467D01*
X594811Y215429D01*
X594858Y215335D01*
X594924Y215204D01*
X594989Y215054D01*
X595064Y214867D01*
X595130Y214670D01*
X595196Y214445D01*
Y214436D01*
X595205Y214417D01*
X595214Y214389D01*
X595224Y214342D01*
X595233Y214286D01*
X595242Y214211D01*
X595261Y214136D01*
X595280Y214051D01*
X595308Y213855D01*
X595327Y213630D01*
X595345Y213377D01*
X595355Y213114D01*
Y213095D01*
Y213048D01*
Y212964D01*
X595345Y212852D01*
X595336Y212720D01*
X595327Y212561D01*
X595308Y212383D01*
X595280Y212186D01*
X595252Y211980D01*
X595205Y211764D01*
X595158Y211530D01*
X595102Y211296D01*
X595036Y211061D01*
X594952Y210827D01*
X594858Y210593D01*
X594755Y210359D01*
X594746Y210349D01*
X594727Y210302D01*
X594699Y210246D01*
X594652Y210162D01*
X594586Y210059D01*
X594521Y209946D01*
X594436Y209815D01*
X594352Y209674D01*
X594249Y209524D01*
X594136Y209365D01*
X594005Y209206D01*
X593874Y209046D01*
X593583Y208737D01*
X593433Y208596D01*
X593265Y208456D01*
X593255Y208447D01*
X593237Y208428D01*
X593199Y208400D01*
X593143Y208362D01*
X593077Y208315D01*
X592993Y208268D01*
X592899Y208212D01*
X592787Y208147D01*
X592665Y208081D01*
X592534Y208015D01*
X592384Y207950D01*
X592224Y207875D01*
X592056Y207809D01*
X591878Y207753D01*
X591681Y207697D01*
X591484Y207640D01*
X591474D01*
X591456Y207631D01*
X591418D01*
X591371Y207622D01*
X591306Y207612D01*
X591222Y207594D01*
X591128Y207584D01*
X591015Y207575D01*
X590893Y207556D01*
X590753Y207547D01*
X590603Y207537D01*
X590425Y207519D01*
X590247Y207509D01*
X590041D01*
X589825Y207500D01*
X586207D01*
X588213Y217107D01*
X591381D01*
X591615Y217097D01*
D02*
G37*
%LPC*%
G36*
X613996Y203404D02*
X613950D01*
X613912Y203395D01*
X613818Y203376D01*
X613696Y203348D01*
X613556Y203282D01*
X613406Y203198D01*
X613331Y203142D01*
X613256Y203076D01*
X613181Y203001D01*
X613106Y202917D01*
X613097Y202907D01*
X613078Y202879D01*
X613050Y202842D01*
X613012Y202785D01*
X612965Y202701D01*
X612900Y202607D01*
X612844Y202486D01*
X612769Y202354D01*
X612694Y202195D01*
X612619Y202017D01*
X612534Y201811D01*
X612450Y201595D01*
X612365Y201352D01*
X612281Y201080D01*
X612197Y200789D01*
X612122Y200471D01*
Y200452D01*
X612103Y200405D01*
X612094Y200320D01*
X612066Y200217D01*
X612038Y200086D01*
X612009Y199936D01*
X611981Y199777D01*
X611953Y199590D01*
X611916Y199402D01*
X611888Y199196D01*
X611831Y198783D01*
X611794Y198380D01*
X611775Y198184D01*
Y197996D01*
Y197987D01*
Y197959D01*
Y197921D01*
Y197874D01*
X611784Y197809D01*
Y197734D01*
X611803Y197565D01*
X611831Y197387D01*
X611878Y197209D01*
X611934Y197040D01*
X611972Y196965D01*
X612019Y196900D01*
X612028Y196890D01*
X612066Y196853D01*
X612122Y196806D01*
X612197Y196750D01*
X612290Y196684D01*
X612403Y196637D01*
X612525Y196600D01*
X612665Y196590D01*
X612712D01*
X612750Y196600D01*
X612853Y196618D01*
X612975Y196646D01*
X613125Y196703D01*
X613275Y196796D01*
X613359Y196843D01*
X613434Y196909D01*
X613518Y196984D01*
X613593Y197068D01*
X613603Y197078D01*
X613621Y197096D01*
X613650Y197143D01*
X613687Y197199D01*
X613734Y197274D01*
X613790Y197377D01*
X613846Y197499D01*
X613921Y197640D01*
X613987Y197799D01*
X614071Y197987D01*
X614146Y198193D01*
X614231Y198427D01*
X614315Y198690D01*
X614399Y198980D01*
X614474Y199289D01*
X614559Y199636D01*
Y199655D01*
X614577Y199702D01*
X614587Y199786D01*
X614615Y199889D01*
X614634Y200011D01*
X614662Y200161D01*
X614699Y200330D01*
X614727Y200508D01*
X614756Y200695D01*
X614793Y200892D01*
X614840Y201286D01*
X614877Y201680D01*
X614896Y201867D01*
Y202036D01*
Y202045D01*
Y202064D01*
Y202101D01*
Y202158D01*
X614887Y202214D01*
Y202289D01*
X614868Y202439D01*
X614831Y202617D01*
X614793Y202785D01*
X614727Y202945D01*
X614690Y203020D01*
X614643Y203085D01*
X614634Y203095D01*
X614596Y203132D01*
X614540Y203188D01*
X614465Y203245D01*
X614371Y203301D01*
X614268Y203357D01*
X614137Y203395D01*
X613996Y203404D01*
D02*
G37*
G36*
X606451Y203460D02*
X606405D01*
X606367Y203451D01*
X606273Y203442D01*
X606152Y203414D01*
X606011Y203367D01*
X605861Y203301D01*
X605711Y203207D01*
X605570Y203076D01*
X605552Y203057D01*
X605514Y203011D01*
X605458Y202926D01*
X605392Y202814D01*
X605317Y202682D01*
X605261Y202523D01*
X605224Y202336D01*
X605205Y202139D01*
Y202129D01*
Y202120D01*
Y202064D01*
X605224Y201980D01*
X605242Y201876D01*
X605271Y201764D01*
X605317Y201642D01*
X605383Y201520D01*
X605477Y201408D01*
X605486Y201398D01*
X605523Y201370D01*
X605589Y201323D01*
X605664Y201276D01*
X605767Y201220D01*
X605889Y201183D01*
X606030Y201145D01*
X606189Y201136D01*
X606236D01*
X606273Y201145D01*
X606367Y201155D01*
X606489Y201183D01*
X606620Y201230D01*
X606770Y201295D01*
X606920Y201389D01*
X607070Y201511D01*
X607089Y201530D01*
X607126Y201576D01*
X607192Y201661D01*
X607267Y201764D01*
X607332Y201895D01*
X607398Y202055D01*
X607435Y202223D01*
X607454Y202411D01*
Y202420D01*
Y202429D01*
Y202486D01*
X607435Y202570D01*
X607417Y202682D01*
X607389Y202804D01*
X607332Y202926D01*
X607267Y203057D01*
X607173Y203170D01*
X607164Y203179D01*
X607126Y203217D01*
X607061Y203263D01*
X606976Y203320D01*
X606873Y203367D01*
X606751Y203414D01*
X606611Y203451D01*
X606451Y203460D01*
D02*
G37*
G36*
X605852Y199693D02*
X605795D01*
X605758Y199683D01*
X605702Y199674D01*
X605645Y199664D01*
X605505Y199627D01*
X605345Y199561D01*
X605252Y199515D01*
X605167Y199458D01*
X605074Y199393D01*
X604989Y199327D01*
X604896Y199233D01*
X604811Y199140D01*
X604802Y199130D01*
X604793Y199111D01*
X604774Y199083D01*
X604746Y199037D01*
X604708Y198990D01*
X604671Y198924D01*
X604633Y198840D01*
X604586Y198755D01*
X604549Y198662D01*
X604502Y198549D01*
X604464Y198427D01*
X604436Y198305D01*
X604399Y198165D01*
X604380Y198015D01*
X604371Y197865D01*
X604361Y197696D01*
Y197687D01*
Y197668D01*
Y197640D01*
X604371Y197603D01*
X604380Y197509D01*
X604399Y197387D01*
X604436Y197246D01*
X604483Y197106D01*
X604558Y196965D01*
X604652Y196843D01*
X604661Y196834D01*
X604708Y196796D01*
X604774Y196750D01*
X604858Y196693D01*
X604971Y196637D01*
X605102Y196590D01*
X605252Y196553D01*
X605420Y196543D01*
X605486D01*
X605542Y196553D01*
X605598Y196562D01*
X605673Y196581D01*
X605833Y196628D01*
X606011Y196703D01*
X606105Y196750D01*
X606198Y196815D01*
X606283Y196890D01*
X606376Y196975D01*
X606461Y197068D01*
X606536Y197181D01*
X606545Y197190D01*
X606554Y197209D01*
X606573Y197246D01*
X606601Y197293D01*
X606629Y197349D01*
X606667Y197424D01*
X606704Y197509D01*
X606742Y197603D01*
X606808Y197809D01*
X606873Y198043D01*
X606920Y198305D01*
X606939Y198437D01*
Y198577D01*
Y198587D01*
Y198596D01*
Y198624D01*
Y198662D01*
X606920Y198746D01*
X606901Y198858D01*
X606864Y198990D01*
X606808Y199121D01*
X606733Y199252D01*
X606629Y199374D01*
X606620Y199383D01*
X606573Y199421D01*
X606508Y199477D01*
X606423Y199533D01*
X606311Y199590D01*
X606180Y199646D01*
X606020Y199683D01*
X605852Y199693D01*
D02*
G37*
G36*
X642432Y213208D02*
X642264D01*
X642217Y213198D01*
X642161D01*
X642104Y213189D01*
X641954Y213161D01*
X641786Y213114D01*
X641608Y213048D01*
X641420Y212955D01*
X641242Y212824D01*
X641233D01*
X641223Y212805D01*
X641167Y212758D01*
X641083Y212664D01*
X640980Y212542D01*
X640858Y212392D01*
X640736Y212205D01*
X640614Y211980D01*
X640511Y211727D01*
Y211718D01*
X640502Y211699D01*
X640483Y211661D01*
X640474Y211605D01*
X640455Y211539D01*
X640427Y211474D01*
X640408Y211390D01*
X640380Y211296D01*
X640333Y211090D01*
X640286Y210874D01*
X640258Y210640D01*
X640249Y210415D01*
Y210405D01*
Y210387D01*
Y210340D01*
X640258Y210293D01*
Y210227D01*
X640267Y210152D01*
X640295Y209984D01*
X640352Y209796D01*
X640417Y209599D01*
X640520Y209403D01*
X640577Y209309D01*
X640652Y209224D01*
X640661D01*
X640670Y209206D01*
X640727Y209159D01*
X640811Y209084D01*
X640933Y209009D01*
X641083Y208934D01*
X641252Y208859D01*
X641448Y208812D01*
X641561Y208803D01*
X641673Y208793D01*
X641748D01*
X641805Y208803D01*
X641870Y208812D01*
X641945Y208831D01*
X642132Y208878D01*
X642226Y208906D01*
X642329Y208953D01*
X642442Y209009D01*
X642554Y209074D01*
X642657Y209149D01*
X642770Y209234D01*
X642873Y209337D01*
X642976Y209449D01*
X642985Y209459D01*
X643004Y209496D01*
X643042Y209543D01*
X643098Y209618D01*
X643154Y209712D01*
X643210Y209815D01*
X643285Y209946D01*
X643351Y210087D01*
X643417Y210246D01*
X643492Y210415D01*
X643548Y210602D01*
X643613Y210808D01*
X643660Y211024D01*
X643698Y211249D01*
X643717Y211483D01*
X643726Y211727D01*
Y211736D01*
Y211755D01*
Y211793D01*
X643717Y211839D01*
Y211896D01*
X643707Y211961D01*
X643679Y212111D01*
X643632Y212289D01*
X643557Y212467D01*
X643463Y212645D01*
X643332Y212805D01*
Y212814D01*
X643314Y212824D01*
X643257Y212870D01*
X643173Y212936D01*
X643060Y213011D01*
X642910Y213077D01*
X642742Y213142D01*
X642545Y213189D01*
X642432Y213208D01*
D02*
G37*
G36*
X572465Y213283D02*
X572408D01*
X572371Y213273D01*
X572315D01*
X572259Y213264D01*
X572118Y213227D01*
X571949Y213170D01*
X571781Y213095D01*
X571593Y212983D01*
X571509Y212908D01*
X571415Y212833D01*
X571406Y212824D01*
X571396Y212814D01*
X571368Y212786D01*
X571340Y212749D01*
X571303Y212702D01*
X571265Y212645D01*
X571218Y212580D01*
X571162Y212505D01*
X571115Y212421D01*
X571059Y212327D01*
X571012Y212214D01*
X570965Y212102D01*
X570909Y211980D01*
X570871Y211839D01*
X570834Y211699D01*
X570796Y211539D01*
X573739D01*
Y211549D01*
Y211558D01*
Y211605D01*
Y211671D01*
Y211727D01*
Y211736D01*
Y211764D01*
Y211802D01*
X573730Y211858D01*
Y211924D01*
X573721Y211989D01*
X573693Y212167D01*
X573655Y212355D01*
X573590Y212542D01*
X573505Y212730D01*
X573393Y212889D01*
X573374Y212908D01*
X573327Y212955D01*
X573252Y213011D01*
X573149Y213086D01*
X573018Y213161D01*
X572858Y213217D01*
X572671Y213264D01*
X572465Y213283D01*
D02*
G37*
G36*
X601888Y215504D02*
X599544D01*
X599010Y212927D01*
X600313D01*
X600444Y212936D01*
X600594D01*
X600753Y212945D01*
X600922Y212955D01*
X601278Y212973D01*
X601447Y212992D01*
X601625Y213002D01*
X601784Y213030D01*
X601934Y213048D01*
X602056Y213086D01*
X602169Y213114D01*
X602178D01*
X602197Y213123D01*
X602215Y213133D01*
X602253Y213152D01*
X602347Y213198D01*
X602469Y213255D01*
X602600Y213339D01*
X602740Y213442D01*
X602872Y213564D01*
X602994Y213705D01*
Y213714D01*
X603003Y213723D01*
X603040Y213780D01*
X603087Y213855D01*
X603143Y213967D01*
X603200Y214098D01*
X603246Y214239D01*
X603284Y214398D01*
X603293Y214557D01*
Y214567D01*
Y214576D01*
Y214604D01*
X603284Y214642D01*
X603275Y214736D01*
X603237Y214857D01*
X603190Y214979D01*
X603115Y215110D01*
X603003Y215232D01*
X602937Y215289D01*
X602862Y215345D01*
X602853Y215354D01*
X602806Y215373D01*
X602731Y215392D01*
X602684Y215410D01*
X602619Y215429D01*
X602553Y215438D01*
X602469Y215457D01*
X602375Y215467D01*
X602272Y215476D01*
X602159Y215485D01*
X602028Y215495D01*
X601888Y215504D01*
D02*
G37*
G36*
X591156Y215523D02*
X589853D01*
X588494Y209046D01*
X589778D01*
X589872Y209056D01*
X589994D01*
X590116Y209065D01*
X590369Y209074D01*
X590631Y209103D01*
X590875Y209131D01*
X590987Y209159D01*
X591081Y209178D01*
X591090D01*
X591100Y209187D01*
X591128Y209196D01*
X591165Y209206D01*
X591259Y209243D01*
X591381Y209290D01*
X591512Y209356D01*
X591662Y209440D01*
X591821Y209552D01*
X591981Y209674D01*
X591990Y209684D01*
X592009Y209702D01*
X592037Y209731D01*
X592074Y209768D01*
X592131Y209824D01*
X592187Y209890D01*
X592253Y209965D01*
X592318Y210049D01*
X592393Y210152D01*
X592477Y210255D01*
X592562Y210368D01*
X592637Y210499D01*
X592805Y210780D01*
X592965Y211090D01*
X592974Y211099D01*
X592984Y211127D01*
X593002Y211183D01*
X593030Y211249D01*
X593059Y211333D01*
X593096Y211436D01*
X593134Y211549D01*
X593171Y211689D01*
X593209Y211830D01*
X593237Y211989D01*
X593274Y212167D01*
X593302Y212346D01*
X593330Y212542D01*
X593349Y212749D01*
X593368Y212955D01*
Y213180D01*
Y213189D01*
Y213227D01*
Y213273D01*
X593358Y213348D01*
Y213433D01*
X593349Y213526D01*
X593340Y213639D01*
X593330Y213751D01*
X593283Y214004D01*
X593227Y214258D01*
X593143Y214501D01*
X593087Y214614D01*
X593030Y214717D01*
Y214726D01*
X593012Y214736D01*
X592993Y214764D01*
X592974Y214801D01*
X592899Y214886D01*
X592805Y214998D01*
X592684Y215110D01*
X592552Y215223D01*
X592393Y215326D01*
X592215Y215401D01*
X592196Y215410D01*
X592149Y215420D01*
X592112Y215429D01*
X592056Y215438D01*
X591999Y215448D01*
X591934Y215467D01*
X591859Y215476D01*
X591765Y215485D01*
X591662Y215495D01*
X591559Y215504D01*
X591437Y215513D01*
X591297D01*
X591156Y215523D01*
D02*
G37*
%LPD*%
D10*
X217705Y202750D02*
G03*
X217705Y202750I-6500J0D01*
G01*
X199250D02*
G03*
X199250Y202750I-6500J0D01*
G01*
X339000Y146750D02*
G03*
X339000Y146750I-6500J0D01*
G01*
Y161000D02*
G03*
X339000Y161000I-6500J0D01*
G01*
X541103Y106803D02*
X545103D01*
X541103Y113303D02*
X545103D01*
X714550Y178100D02*
X718550D01*
X714550Y171600D02*
X718550D01*
X714550Y162700D02*
X718550D01*
X714550Y156200D02*
X718550D01*
X714550Y155000D02*
X718550D01*
X714550Y148500D02*
X718550D01*
X714550Y170400D02*
X718550D01*
X714550Y163900D02*
X718550D01*
X348750Y33250D02*
X352750D01*
X348750Y39750D02*
X352750D01*
X733250Y153251D02*
Y157250D01*
X726750Y153251D02*
Y157250D01*
X364950Y38500D02*
X368950D01*
X364950Y45000D02*
X368950D01*
X367000Y22500D02*
Y26500D01*
X373500Y22500D02*
Y26500D01*
X388500Y128250D02*
X392500D01*
X388500Y137250D02*
X392500D01*
X435750Y188500D02*
X439750D01*
X435750Y182000D02*
X439750D01*
X430500Y162500D02*
X434500D01*
X430500Y171500D02*
X434500D01*
X226750Y187250D02*
X229750Y187250D01*
X231500Y185250D02*
Y189250D01*
X225000Y185250D02*
Y189250D01*
X58450Y153000D02*
X62450D01*
X58450Y146500D02*
X62450D01*
X217500Y192250D02*
X221500D01*
X217500Y185750D02*
X221500D01*
X6950Y157000D02*
X10950D01*
X6950Y150500D02*
X10950D01*
X8950Y152250D02*
Y155250D01*
X6950Y134499D02*
X10950D01*
X6950Y127999D02*
X10950D01*
X8950Y129749D02*
Y132749D01*
X8950Y122250D02*
Y125250D01*
X6950Y120500D02*
X10950D01*
X6950Y127000D02*
X10950D01*
X8950Y117750D02*
X8950Y114750D01*
X6950Y113000D02*
X10950D01*
X6950Y119500D02*
X10950D01*
X6950Y141999D02*
X10950D01*
X6950Y135499D02*
X10950D01*
X8950Y137249D02*
Y140249D01*
X6950Y149500D02*
X10950D01*
X6950Y143000D02*
X10950D01*
X8950Y144750D02*
X8950Y147750D01*
X427250Y139700D02*
X430250Y139700D01*
X425500Y137700D02*
Y141700D01*
X432000Y137700D02*
Y141700D01*
X432708Y142350D02*
X432708Y146350D01*
X439208Y142350D02*
Y146350D01*
X223250Y131000D02*
Y134000D01*
X221250Y135750D02*
X225250D01*
X221250Y129250D02*
X225250D01*
X502000Y191250D02*
Y195250D01*
X495500Y191250D02*
Y195250D01*
X514750Y191250D02*
X514750Y195250D01*
X508250D02*
X508250Y191250D01*
X223000Y142500D02*
Y146500D01*
X229500Y146500D02*
X229500Y142500D01*
X227750Y177750D02*
X227750Y173750D01*
X234250D02*
X234250Y177750D01*
X226250Y157000D02*
X226250Y154000D01*
X224250Y158750D02*
X228250Y158750D01*
X224250Y152250D02*
X228250Y152250D01*
X90000Y150000D02*
Y154000D01*
X83500Y150000D02*
Y154000D01*
X15550Y93300D02*
X18550D01*
X20300Y91300D02*
Y95300D01*
X13800Y91300D02*
Y95300D01*
X13800Y80050D02*
X13800Y84050D01*
X20300Y80050D02*
Y84050D01*
X47950Y148200D02*
X47950Y151200D01*
X45950Y152950D02*
X49950D01*
X45950Y146450D02*
X49950D01*
X318250Y46000D02*
X321250Y46000D01*
X316500Y44000D02*
X316500Y48000D01*
X323000Y48000D02*
X323000Y44000D01*
X311750Y43750D02*
X314750D01*
X316500Y45750D02*
X316500Y41750D01*
X310000Y41750D02*
Y45750D01*
X306750Y88000D02*
X306750Y84000D01*
X313250Y84000D02*
X313250Y88000D01*
X285750Y63500D02*
Y67500D01*
X279250Y63500D02*
Y67500D01*
X295450Y90250D02*
Y94250D01*
X288950D02*
X288950Y90250D01*
X300950Y84750D02*
X300950Y81750D01*
X298950Y80000D02*
X302950Y80000D01*
X298950Y86500D02*
X302950Y86500D01*
X287950Y80000D02*
X291950Y80000D01*
X287950Y86500D02*
X291950Y86500D01*
X289950Y81750D02*
Y84750D01*
X301950Y94250D02*
X301950Y90250D01*
X295450Y94250D02*
X295450Y90250D01*
X277700Y84050D02*
Y88050D01*
X284200Y84050D02*
X284200Y88050D01*
X277000Y29750D02*
X277000Y25750D01*
X270500Y29750D02*
X270500Y25750D01*
X388250Y177000D02*
Y181000D01*
X394750Y177000D02*
Y181000D01*
X390000Y179000D02*
X393000D01*
X328000Y167750D02*
X332000D01*
X328000Y174250D02*
X332000D01*
X330000Y169500D02*
Y172500D01*
X394800Y162000D02*
X398800D01*
X394800Y168500D02*
X398800D01*
X381750Y172750D02*
X385750D01*
X381750Y166250D02*
X385750D01*
X381750Y158750D02*
X385750D01*
X381750Y165250D02*
X385750D01*
X398000Y182050D02*
X398000Y178050D01*
X404500D02*
X404500Y182050D01*
X463000Y42750D02*
X463000Y46750D01*
X456500D02*
X456500Y42750D01*
X449300Y38500D02*
X453300Y38500D01*
X449300Y45000D02*
X453300Y45000D01*
X468455Y8050D02*
X471455Y8050D01*
X466705Y6050D02*
X466705Y10050D01*
X473205Y10050D02*
X473205Y6050D01*
X448750Y59000D02*
X452750D01*
X448750Y52500D02*
X452750D01*
X433750Y3750D02*
Y35750D01*
X465750Y3750D02*
X465750Y35750D01*
X433750Y3750D02*
X435750D01*
Y5750D01*
X433750D02*
X435750D01*
X398658Y130250D02*
Y134250D01*
X405158Y130250D02*
Y134250D01*
X430500Y153000D02*
X434500D01*
X430500Y162000D02*
X434500D01*
X410408Y112800D02*
X413408D01*
X415158Y110800D02*
Y114800D01*
X408658Y110800D02*
Y114800D01*
X399108Y93500D02*
Y96500D01*
X397108Y91750D02*
X401108D01*
X397108Y98250D02*
X401108D01*
X386408Y103250D02*
Y106250D01*
X384408Y101500D02*
X388408D01*
X384408Y108000D02*
X388408D01*
X399908Y84500D02*
X402908D01*
X404658Y82500D02*
Y86500D01*
X398158Y82500D02*
Y86500D01*
X372158Y86750D02*
X376158D01*
X372158Y93250D02*
X376158D01*
X376658Y105250D02*
X379658D01*
X374908Y103250D02*
Y107250D01*
X381408Y103250D02*
Y107250D01*
X348658Y96500D02*
X351658D01*
X346908Y94500D02*
Y98500D01*
X353408Y94500D02*
Y98500D01*
X342158Y96500D02*
X345158D01*
X340408Y94500D02*
Y98500D01*
X346908Y94500D02*
Y98500D01*
X342158Y85000D02*
X345158D01*
X346908Y83000D02*
Y87000D01*
X340408Y83000D02*
Y87000D01*
X348658Y85000D02*
X351658D01*
X353408Y83000D02*
Y87000D01*
X346908Y83000D02*
Y87000D01*
X357658Y102250D02*
X360658D01*
X362408Y100250D02*
Y104250D01*
X355908Y100250D02*
Y104250D01*
X402908Y102750D02*
X405908D01*
X407658Y100750D02*
Y104750D01*
X401158Y100750D02*
Y104750D01*
X388283Y142800D02*
X391283D01*
X386533Y140800D02*
Y144800D01*
X393033Y140800D02*
Y144800D01*
X396033Y142800D02*
X399033D01*
X394283Y140800D02*
Y144800D01*
X400783Y140800D02*
Y144800D01*
X402533Y142800D02*
X405533D01*
X400783Y140800D02*
Y144800D01*
X407283Y140800D02*
Y144800D01*
X396162Y107200D02*
X399162D01*
X394412Y105200D02*
Y109200D01*
X400912Y105200D02*
Y109200D01*
X365658Y112000D02*
Y115000D01*
X363658Y110250D02*
X367658D01*
X363658Y116750D02*
X367658D01*
X377158Y112000D02*
Y115000D01*
X375158Y116750D02*
X379158D01*
X375158Y110250D02*
X379158D01*
X376158Y82000D02*
Y85000D01*
X374158Y80250D02*
X378158D01*
X374158Y86750D02*
X378158D01*
X368558Y94700D02*
Y97700D01*
X366558Y99450D02*
X370558D01*
X366558Y92950D02*
X370558D01*
X380158Y122000D02*
X383158D01*
X384908Y120000D02*
Y124000D01*
X378408Y120000D02*
Y124000D01*
X398658Y123000D02*
Y126000D01*
X396658Y127750D02*
X400658D01*
X396658Y121250D02*
X400658D01*
X354158Y135750D02*
X357158D01*
X358908Y133750D02*
Y137750D01*
X352408Y133750D02*
Y137750D01*
X369908Y138250D02*
X372908D01*
X368158Y136250D02*
Y140250D01*
X374658Y136250D02*
Y140250D01*
X373408Y147500D02*
Y150500D01*
X371408Y152250D02*
X375408D01*
X371408Y145750D02*
X375408D01*
X345158Y117500D02*
X348158D01*
X349908Y115500D02*
Y119500D01*
X343408Y115500D02*
Y119500D01*
X330908Y62000D02*
X338158D01*
X330908Y75000D02*
X338158D01*
X346658D02*
X353908D01*
X346658Y62000D02*
X353908D01*
Y64000D01*
Y73000D02*
Y75000D01*
X330908Y73000D02*
Y75000D01*
Y62000D02*
Y64000D01*
X440158Y109500D02*
Y116750D01*
X427158Y109500D02*
Y116750D01*
Y125250D02*
Y132500D01*
X440158Y125250D02*
Y132500D01*
X438158D02*
X440158D01*
X427158D02*
X429158D01*
X427158Y109500D02*
X429158D01*
X438158D02*
X440158D01*
X411158Y137000D02*
Y144250D01*
X424158Y137000D02*
Y144250D01*
Y121250D02*
Y128500D01*
X411158Y121250D02*
Y128500D01*
Y121250D02*
X413158D01*
X422158D02*
X424158D01*
X422158Y144250D02*
X424158D01*
X411158D02*
X413158D01*
X340158Y60500D02*
X347408D01*
X340158Y47500D02*
X347408D01*
X324408D02*
X331658D01*
X324408Y60500D02*
X331658D01*
X324408Y58500D02*
Y60500D01*
Y47500D02*
Y49500D01*
X347408Y47500D02*
Y49500D01*
Y58500D02*
Y60500D01*
X359658Y155500D02*
X366908D01*
X359658Y142500D02*
X366908Y142500D01*
X343908Y142500D02*
X351158Y142500D01*
X343908Y155500D02*
X351158D01*
X343908Y153500D02*
X343908Y155500D01*
X343908Y144500D02*
X343908Y142500D01*
X366908Y142500D02*
X366908Y144500D01*
X366908Y153500D02*
Y155500D01*
X191800Y49200D02*
X191800Y45200D01*
X185300Y49200D02*
X185300Y45200D01*
X160750Y136800D02*
X160750Y132800D01*
X167250D02*
X167250Y136800D01*
X216250Y96400D02*
Y100400D01*
X209750Y96400D02*
Y100400D01*
X132750Y76750D02*
X136750Y76750D01*
X132750Y70250D02*
X136750D01*
X196250Y113000D02*
Y117000D01*
X189750Y113000D02*
Y117000D01*
X132750Y80500D02*
Y84500D01*
X126250Y80500D02*
Y84500D01*
X189750Y102000D02*
Y106000D01*
X196250Y102000D02*
Y106000D01*
X201750Y121250D02*
X205750D01*
X201750Y127750D02*
X205750D01*
X194000Y83500D02*
X198000D01*
X194000Y77000D02*
X198000D01*
X179700Y66250D02*
X183700D01*
X179700Y59750D02*
X183700D01*
X194000Y68500D02*
X198000D01*
X194000Y62000D02*
X198000D01*
X194000Y76000D02*
X198000D01*
X194000Y69500D02*
X198000D01*
X326287Y106750D02*
X330287D01*
X326287Y113250D02*
X330287D01*
X343908Y133750D02*
Y137750D01*
X350408Y133750D02*
Y137750D01*
X364667Y133250D02*
X368667D01*
X364667Y126750D02*
X368667D01*
X366408Y123250D02*
X370408D01*
X366408Y116750D02*
X370408D01*
X210000Y90750D02*
Y94750D01*
X203500Y90750D02*
Y94750D01*
X355408Y118500D02*
X358408D01*
X353658Y116500D02*
Y120500D01*
X360158Y116500D02*
Y120500D01*
X343658Y107000D02*
X346658D01*
X341908Y105000D02*
Y109000D01*
X348408Y105000D02*
Y109000D01*
X350158Y107000D02*
X353158D01*
X348408Y105000D02*
Y109000D01*
X354908Y105000D02*
Y109000D01*
X386158Y92000D02*
X389158D01*
X384408Y90000D02*
Y94000D01*
X390908Y90000D02*
Y94000D01*
X306950Y100750D02*
X306950Y103750D01*
X304950Y99000D02*
X308950Y99000D01*
X304950Y105500D02*
X308950D01*
X132250Y96500D02*
Y99500D01*
X130250Y94750D02*
X134250D01*
X130250Y101250D02*
X134250D01*
X134450Y103000D02*
Y106000D01*
X132450Y101250D02*
X136450D01*
X132450Y107750D02*
X136450D01*
X132250Y90000D02*
Y93000D01*
X130250Y88250D02*
X134250D01*
X130250Y94750D02*
X134250D01*
X198500Y90750D02*
X201500D01*
X196750Y88750D02*
Y92750D01*
X203250Y88750D02*
Y92750D01*
X153750Y127250D02*
X156750Y127250D01*
X152000Y129250D02*
X152000Y125250D01*
X158500D02*
Y129250D01*
X173250Y130550D02*
Y133550D01*
X171250Y135300D02*
X175250D01*
X171250Y128800D02*
X175250D01*
X124300Y70700D02*
X127300Y70700D01*
X129050Y68700D02*
Y72700D01*
X122550Y68700D02*
Y72700D01*
X191750Y90750D02*
X194750D01*
X196500Y88750D02*
Y92750D01*
X190000Y88750D02*
Y92750D01*
X198250Y104000D02*
X201250D01*
X203000Y102000D02*
Y106000D01*
X196500Y102000D02*
Y106000D01*
X205000Y104000D02*
X208000D01*
X203250Y102000D02*
Y106000D01*
X209750Y102000D02*
Y106000D01*
X135500Y82500D02*
X138500D01*
X133750Y80500D02*
Y84500D01*
X140250Y80500D02*
Y84500D01*
X119200Y78950D02*
X119200Y81950D01*
X117200Y83700D02*
X121200Y83700D01*
X117200Y77200D02*
X121200Y77200D01*
X164000Y123500D02*
Y126500D01*
X162000Y128250D02*
X166000D01*
X162000Y121750D02*
X166000D01*
X216550Y126250D02*
X216550Y123250D01*
X214550Y128000D02*
X218550D01*
X214550Y121500D02*
X218550D01*
X205000Y115000D02*
X208000D01*
X203250Y113000D02*
Y117000D01*
X209750Y113000D02*
Y117000D01*
X198250Y115000D02*
X201250D01*
X196500Y113000D02*
Y117000D01*
X203000Y113000D02*
Y117000D01*
X171250Y60200D02*
X174250Y60200D01*
X169500Y58200D02*
Y62200D01*
X176000Y58200D02*
Y62200D01*
X155012Y67250D02*
X155013Y63250D01*
X161512D02*
Y67250D01*
X161313Y53625D02*
X165313Y53625D01*
X161313Y60125D02*
X165313D01*
X148250Y125250D02*
Y127250D01*
X150250D01*
Y125250D02*
Y127250D01*
X118250Y157250D02*
X150250D01*
X118250Y125250D02*
X150250D01*
X401500Y201250D02*
X401500Y205250D01*
X395000Y201250D02*
X395000Y205250D01*
X514750Y203700D02*
X514750Y207700D01*
X508250D02*
X508250Y203700D01*
X470508Y121081D02*
X473508D01*
X475258Y123081D02*
X475258Y119080D01*
X468758D02*
X468758Y123081D01*
X363200Y208550D02*
X367200D01*
X363200Y215050D02*
X367200D01*
X195750Y46750D02*
X199750Y46750D01*
X195750Y53250D02*
X199750Y53250D01*
X172262Y48175D02*
X172262Y44175D01*
X165763D02*
Y48175D01*
X709050Y81450D02*
Y84450D01*
X707050Y79700D02*
X711050D01*
X707050Y86200D02*
X711050D01*
X157012Y46175D02*
X160012Y46175D01*
X161762Y44175D02*
Y48175D01*
X155262Y44175D02*
Y48175D01*
X115000Y129096D02*
X115000Y133096D01*
X108500D02*
X108500Y129096D01*
X115000Y144196D02*
X115000Y148196D01*
X108500D02*
X108500Y144196D01*
X183846Y171000D02*
X187846Y171000D01*
X183846Y177500D02*
X187846Y177500D01*
X196446Y171000D02*
X200446Y171000D01*
X196446Y177500D02*
X200446Y177500D01*
X502000Y207700D02*
X502000Y203700D01*
X495500D02*
X495500Y207700D01*
X466158Y150504D02*
X470158D01*
X466158Y157004D02*
X470158D01*
X466158Y157817D02*
X470158D01*
X466158Y164317D02*
X470158D01*
X306950Y94300D02*
X306950Y97300D01*
X304950Y92550D02*
X308950D01*
X304950Y99050D02*
X308950Y99050D01*
X208000Y45500D02*
X211000Y45500D01*
X212750Y47500D02*
X212750Y43500D01*
X206250Y43500D02*
Y47500D01*
X222750Y10650D02*
X225750D01*
X221000Y8650D02*
Y12650D01*
X227500Y8650D02*
X227500Y12650D01*
X178250Y135500D02*
Y167500D01*
X210250Y135500D02*
Y167500D01*
X178250Y135500D02*
X180250D01*
Y137500D01*
X178250D02*
X180250D01*
X464158Y103000D02*
X468158D01*
X464158Y109500D02*
X468158D01*
X195750Y60000D02*
X199750D01*
X195750Y53500D02*
X199750D01*
X207950Y12650D02*
X207950Y8650D01*
X214450D02*
X214450Y12650D01*
X227500Y19750D02*
Y23750D01*
X221000D02*
X221000Y19750D01*
X220950Y8650D02*
X220950Y12650D01*
X214450Y12650D02*
X214450Y8650D01*
X192000Y184250D02*
X196000D01*
X192000Y177750D02*
X196000D01*
X102000Y139250D02*
Y143250D01*
X108500Y139250D02*
Y143250D01*
X213300Y27800D02*
X217300Y27800D01*
X213300Y34300D02*
X217300Y34300D01*
X376500Y209000D02*
X379500Y209000D01*
X374750Y207000D02*
X374750Y211000D01*
X381250Y207000D02*
Y211000D01*
X543908Y125500D02*
Y129500D01*
X537408Y125500D02*
Y129500D01*
X452158Y128750D02*
X456158D01*
X452158Y135250D02*
X456158D01*
X464158Y109500D02*
X468158D01*
X464158Y116000D02*
X468158D01*
X493158Y139000D02*
Y143000D01*
X486658Y139000D02*
Y143000D01*
X733250Y67250D02*
Y71250D01*
X726750Y67250D02*
Y71250D01*
X733250Y22250D02*
Y26250D01*
X726750Y22250D02*
Y26250D01*
X656158Y70500D02*
X660158Y70500D01*
X656158Y77000D02*
X660158Y77000D01*
X733250Y198250D02*
Y202250D01*
X726750Y198250D02*
Y202250D01*
X156750Y144950D02*
X159750Y144950D01*
X161500Y146950D02*
X161500Y142950D01*
X155000Y142950D02*
Y146950D01*
X212955Y140300D02*
X215955Y140300D01*
X211205Y142300D02*
X211205Y138300D01*
X217705D02*
Y142300D01*
X678158Y66850D02*
Y70850D01*
X684658Y70850D02*
X684658Y66850D01*
X678158Y57500D02*
X681158D01*
X676408Y55500D02*
Y59500D01*
X682908Y55500D02*
Y59500D01*
X669158Y65250D02*
X669158Y68250D01*
X667158Y63500D02*
X671158Y63500D01*
X667158Y70000D02*
X671158Y70000D01*
X658158Y65250D02*
X658158Y68250D01*
X656158Y70000D02*
X660158Y70000D01*
X656158Y63500D02*
X660158Y63500D01*
X518908Y176050D02*
Y180050D01*
X525408Y176050D02*
Y180050D01*
X520658Y178050D02*
X523658Y178050D01*
X515223Y71500D02*
X519223D01*
X515223Y65000D02*
X519223D01*
X517223Y66750D02*
Y69750D01*
X517658Y74500D02*
Y78500D01*
X511158Y74500D02*
Y78500D01*
X364950Y45000D02*
X368950Y45000D01*
X364950Y51500D02*
X368950Y51500D01*
X624658Y80250D02*
Y84250D01*
X631158Y80250D02*
Y84250D01*
X499158Y40000D02*
X503158D01*
X499158Y46500D02*
X503158D01*
X542408Y153500D02*
Y157500D01*
X548908Y153500D02*
Y157500D01*
X489042Y49788D02*
X491870Y52616D01*
X484445Y54384D02*
X487274Y57212D01*
X548408Y142500D02*
Y146500D01*
X541908Y142500D02*
Y146500D01*
X488500Y170550D02*
Y174550D01*
X495000Y170550D02*
Y174550D01*
X538125Y164864D02*
X540954Y167692D01*
X542721Y160268D02*
X545550Y163096D01*
X509908Y176000D02*
Y180000D01*
X503408Y176000D02*
Y180000D01*
X513423Y49200D02*
Y53200D01*
X506922Y49200D02*
Y53200D01*
X579108Y103750D02*
Y107750D01*
X572608Y103750D02*
Y107750D01*
X581292Y155212D02*
X584120Y152384D01*
X576695Y150616D02*
X579524Y147788D01*
X510003Y176050D02*
Y180050D01*
X516502Y176050D02*
Y180050D01*
X561419Y157534D02*
X564248Y160362D01*
X566016Y152938D02*
X568844Y155766D01*
X545158Y178250D02*
Y182250D01*
X551658Y178250D02*
Y182250D01*
X522908Y126250D02*
Y130250D01*
X516408Y126250D02*
Y130250D01*
X513250Y126800D02*
Y130800D01*
X506750Y126800D02*
Y130800D01*
X503658Y74500D02*
Y78500D01*
X510158Y74500D02*
Y78500D01*
X554158Y73500D02*
X558158D01*
X554158Y80000D02*
X558158D01*
X548158Y87000D02*
X552158D01*
X548158Y93500D02*
X552158D01*
X585183Y133950D02*
Y137950D01*
X591683Y133950D02*
Y137950D01*
X555132Y129400D02*
Y133400D01*
X548632Y129400D02*
Y133400D01*
X486882Y154200D02*
X490882D01*
X486882Y160700D02*
X490882D01*
X548250Y116500D02*
X552250D01*
X548250Y123000D02*
X552250D01*
X538158Y138250D02*
X541158D01*
X536408Y136250D02*
Y140250D01*
X542908Y136250D02*
Y140250D01*
X492472Y49186D02*
X494593Y47064D01*
X494417Y44413D02*
X497245Y47241D01*
X489820Y49009D02*
X492649Y51837D01*
X550158Y144500D02*
X553158D01*
X554908Y142500D02*
Y146500D01*
X548408Y142500D02*
Y146500D01*
X495097Y56439D02*
X497218Y58561D01*
X492445Y56616D02*
X495274Y53788D01*
X497042Y61212D02*
X499870Y58384D01*
X577908Y88000D02*
Y91000D01*
X575908Y86250D02*
X579908D01*
X575908Y92750D02*
X579908D01*
X512973Y58750D02*
X512973Y61750D01*
X510973Y57000D02*
X514972D01*
X510973Y63500D02*
X514973D01*
X523158Y156250D02*
X526158D01*
X527908Y154250D02*
Y158250D01*
X521408Y154250D02*
Y158250D01*
X537608Y153111D02*
X540608D01*
X535858Y151111D02*
Y155111D01*
X542358Y151111D02*
Y155111D01*
X494950Y162500D02*
X494950Y165500D01*
X492950Y167250D02*
X496950D01*
X492950Y160750D02*
X496950D01*
X576097Y144439D02*
X578218Y146561D01*
X573445Y144616D02*
X576274Y141788D01*
X578042Y149212D02*
X580870Y146384D01*
X474908Y76870D02*
X477908D01*
X479658Y74870D02*
Y78870D01*
X473158Y74870D02*
Y78870D01*
X468408Y76870D02*
X471408D01*
X473158Y74870D02*
Y78870D01*
X466658Y74870D02*
Y78870D01*
X447408Y97700D02*
X450408D01*
X445658Y95700D02*
Y99700D01*
X452158Y95700D02*
Y99700D01*
X453958Y97700D02*
X456958D01*
X452208Y95700D02*
Y99700D01*
X458708Y95700D02*
Y99700D01*
X448813Y105411D02*
Y108411D01*
X446813Y110161D02*
X450813Y110161D01*
X446813Y103661D02*
X450813D01*
X448813Y112580D02*
Y115581D01*
X446813Y117331D02*
X450813D01*
X446813Y110831D02*
X450813D01*
X461408Y89606D02*
X464408D01*
X459658Y87606D02*
Y91606D01*
X466158Y87606D02*
Y91606D01*
X468408Y89606D02*
X471408D01*
X466658Y87606D02*
Y91606D01*
X473158Y87606D02*
Y91606D01*
X561858Y95250D02*
Y98250D01*
X559858Y100000D02*
X563858Y100000D01*
X559858Y93500D02*
X563858D01*
X556132Y82400D02*
Y85400D01*
X554132Y87150D02*
X558132D01*
X554132Y80650D02*
X558132D01*
X516053Y166250D02*
Y169250D01*
X514053Y164500D02*
X518052D01*
X514053Y171000D02*
X518052D01*
X516053Y159750D02*
Y162750D01*
X514053Y158000D02*
X518052D01*
X514053Y164500D02*
X518052D01*
X556882Y134650D02*
X559882D01*
X555132Y132650D02*
Y136650D01*
X561632Y132650D02*
Y136650D01*
X579908Y134500D02*
X582908D01*
X578158Y132500D02*
Y136500D01*
X584658Y132500D02*
Y136500D01*
X550158Y98250D02*
X550158Y95250D01*
X548158Y93500D02*
X552158D01*
X548158Y100000D02*
X552158D01*
X572158Y75000D02*
Y78000D01*
X570158Y73250D02*
X574158D01*
X570158Y79750D02*
X574158D01*
X502321Y67339D02*
X504442Y69461D01*
X499669Y67516D02*
X502498Y64688D01*
X504266Y72112D02*
X507094Y69284D01*
X511158Y140750D02*
Y143750D01*
X509158Y139000D02*
X513158D01*
X509158Y145500D02*
X513158D01*
X522713Y135280D02*
X522713Y138280D01*
X520713Y133530D02*
X524712D01*
X520713Y140030D02*
X524713D01*
X522713Y141805D02*
Y144805D01*
X520713Y140055D02*
X524712D01*
X520713Y146555D02*
X524712D01*
X539658Y180250D02*
X542658D01*
X544408Y178250D02*
Y182250D01*
X537908Y178250D02*
Y182250D01*
X555658Y153750D02*
X558658D01*
X560408Y151750D02*
Y155750D01*
X553908Y151750D02*
Y155750D01*
X562750Y121000D02*
X562750Y124000D01*
X560750Y125750D02*
X564750D01*
X560750Y119250D02*
X564750D01*
X567408Y143250D02*
X570408D01*
X565658Y141250D02*
Y145250D01*
X572158Y141250D02*
Y145250D01*
X494432Y98400D02*
X494432Y95400D01*
X492432Y93650D02*
X496432Y93650D01*
X492432Y100150D02*
X496432D01*
X494432Y103100D02*
X494432Y106100D01*
X492432Y101350D02*
X496432D01*
X492432Y107850D02*
X496432D01*
X494432Y83150D02*
X494432Y80150D01*
X492432Y78400D02*
X496432Y78400D01*
X492432Y84900D02*
X496432D01*
X494432Y87850D02*
X494432Y90850D01*
X492432Y86100D02*
X496432D01*
X492432Y92600D02*
X496432D01*
X468301Y134995D02*
X471301D01*
X473051Y132995D02*
Y136995D01*
X466551Y132995D02*
Y136995D01*
X460962Y134995D02*
X463962D01*
X465712Y132995D02*
Y136995D01*
X459212Y132995D02*
Y136995D01*
X570439Y130811D02*
X572561Y128689D01*
X567788Y130634D02*
X570616Y133462D01*
X572384Y126038D02*
X575212Y128866D01*
X496632Y154650D02*
X499632D01*
X494882Y152650D02*
Y156650D01*
X501382Y152650D02*
Y156650D01*
X497902Y143705D02*
X500902Y143705D01*
X496152Y141705D02*
Y145705D01*
X502652Y141705D02*
Y145705D01*
X478658Y124000D02*
X481658Y124000D01*
X483408Y122000D02*
Y126000D01*
X476908Y122000D02*
Y126000D01*
D11*
X156076Y180500D02*
G03*
X156076Y180500I-327J0D01*
G01*
X347088Y188500D02*
G03*
X347088Y188500I-750J0D01*
G01*
X22500Y75000D02*
X33500Y75000D01*
X22500Y75000D02*
Y86000D01*
Y145000D02*
X33500Y145000D01*
X22500Y134000D02*
Y145000D01*
X81500Y75000D02*
X92500Y75000D01*
Y86000D01*
Y134000D02*
Y145000D01*
X81500Y145000D02*
X92500Y145000D01*
X406875Y43625D02*
X409125Y36875D01*
X404625D02*
X406875Y43625D01*
X404625Y36875D02*
X409125D01*
X382250Y130250D02*
Y135250D01*
X440750Y155000D02*
Y160000D01*
Y164500D02*
Y169500D01*
X308000Y40750D02*
X308000Y29750D01*
X308000Y40750D02*
X310250Y34000D01*
X305750D02*
X308000Y40750D01*
X305750Y34000D02*
X310250D01*
X404625Y32375D02*
X409125Y32375D01*
X406875Y25625D02*
X409125Y32375D01*
X404625Y32375D02*
X406875Y25625D01*
X406875Y41125D02*
X406875Y25625D01*
X325000Y41000D02*
X325000Y30000D01*
X322750Y36750D02*
X325000Y30000D01*
X327250Y36750D01*
X322750D02*
X327250D01*
X260250Y40500D02*
X260250Y29500D01*
X260250Y40500D02*
X262500Y33750D01*
X258000D02*
X260250Y40500D01*
X258000Y33750D02*
X262500D01*
X182250Y119250D02*
X187500D01*
Y114000D02*
Y119250D01*
X182250Y73250D02*
X187500D01*
Y78500D01*
X143000Y73250D02*
X148250D01*
X143000D02*
Y78500D01*
Y119250D02*
X148250D01*
X143000Y114000D02*
Y119250D01*
X182375Y119125D02*
X187500Y114000D01*
X612658Y34750D02*
X625658D01*
X612658Y74750D02*
X625658D01*
X656408Y141500D02*
X669408D01*
X656408Y181500D02*
X669408D01*
X654537Y117500D02*
X667537D01*
X654537Y77500D02*
X667537D01*
X680250Y23997D02*
Y16000D01*
X684249D01*
X685582Y17333D01*
Y18666D01*
X684249Y19999D01*
X680250D01*
X684249D01*
X685582Y21332D01*
Y22664D01*
X684249Y23997D01*
X680250D01*
X692246D02*
X689580D01*
X688247Y22664D01*
Y17333D01*
X689580Y16000D01*
X692246D01*
X693579Y17333D01*
Y22664D01*
X692246Y23997D01*
X700244D02*
X697578D01*
X696245Y22664D01*
Y17333D01*
X697578Y16000D01*
X700244D01*
X701576Y17333D01*
Y22664D01*
X700244Y23997D01*
X704242D02*
X709574D01*
X706908D01*
Y16000D01*
X2500Y67500D02*
X-5497D01*
Y71499D01*
X-4164Y72832D01*
X-1499D01*
X-166Y71499D01*
Y67500D01*
X-4164Y80829D02*
X-5497Y79496D01*
Y76830D01*
X-4164Y75497D01*
X1167D01*
X2500Y76830D01*
Y79496D01*
X1167Y80829D01*
X-5497Y83495D02*
Y86161D01*
Y84828D01*
X2500D01*
Y83495D01*
Y86161D01*
Y94158D02*
Y91492D01*
X1167Y90159D01*
X-1499D01*
X-2832Y91492D01*
Y94158D01*
X-1499Y95491D01*
X-166D01*
Y90159D01*
X2500Y106154D02*
X-5497D01*
X-2832Y108820D01*
X-5497Y111486D01*
X2500D01*
Y114151D02*
X1167D01*
Y115485D01*
X2500D01*
Y114151D01*
Y126148D02*
Y120816D01*
X-2832Y126148D01*
X-4164D01*
X-5497Y124815D01*
Y122149D01*
X-4164Y120816D01*
X-5497Y136811D02*
X2500D01*
Y140810D01*
X1167Y142142D01*
X-166D01*
X-1499Y140810D01*
Y136811D01*
Y140810D01*
X-2832Y142142D01*
X-4164D01*
X-5497Y140810D01*
Y136811D01*
X-1499Y144808D02*
Y150140D01*
X-4164Y147474D02*
X1167D01*
X2500Y152806D02*
X-5497D01*
X-2832Y155471D01*
X-5497Y158137D01*
X2500D01*
X-5247Y27000D02*
X2750D01*
Y30999D01*
X1417Y32332D01*
X84D01*
X-1249Y30999D01*
Y27000D01*
Y30999D01*
X-2582Y32332D01*
X-3914D01*
X-5247Y30999D01*
Y27000D01*
X439250Y191000D02*
Y196332D01*
X441916Y198997D01*
X444582Y196332D01*
Y191000D01*
Y194999D01*
X439250D01*
X447247Y191000D02*
Y198997D01*
X452579Y191000D01*
Y198997D01*
X455245D02*
X460576D01*
X457911D01*
Y191000D01*
X135582Y167164D02*
X134249Y168497D01*
X131583D01*
X130250Y167164D01*
Y161833D01*
X131583Y160500D01*
X134249D01*
X135582Y161833D01*
Y164499D01*
X132916D01*
X138247Y160500D02*
Y168497D01*
X142246D01*
X143579Y167164D01*
Y164499D01*
X142246Y163166D01*
X138247D01*
X146245Y168497D02*
X148911D01*
X147578D01*
Y160500D01*
X146245D01*
X148911D01*
X156908Y168497D02*
X154242D01*
X152909Y167164D01*
Y161833D01*
X154242Y160500D01*
X156908D01*
X158241Y161833D01*
Y167164D01*
X156908Y168497D01*
X313335Y15582D02*
X312003Y14249D01*
Y11583D01*
X313335Y10250D01*
X318667D01*
X320000Y11583D01*
Y14249D01*
X318667Y15582D01*
X312003Y18247D02*
X320000D01*
Y23579D01*
X312003Y26245D02*
X320000D01*
X317334D01*
X312003Y31576D01*
X316001Y27578D01*
X320000Y31576D01*
X440446Y210165D02*
X439113Y211497D01*
X436447D01*
X435114Y210165D01*
Y204833D01*
X436447Y203500D01*
X439113D01*
X440446Y204833D01*
Y207499D01*
X437780D01*
X443112Y203500D02*
Y211497D01*
X448443Y203500D01*
Y211497D01*
X456441Y210165D02*
X455108Y211497D01*
X452442D01*
X451109Y210165D01*
Y208832D01*
X452442Y207499D01*
X455108D01*
X456441Y206166D01*
Y204833D01*
X455108Y203500D01*
X452442D01*
X451109Y204833D01*
X464438Y210165D02*
X463105Y211497D01*
X460439D01*
X459106Y210165D01*
Y208832D01*
X460439Y207499D01*
X463105D01*
X464438Y206166D01*
Y204833D01*
X463105Y203500D01*
X460439D01*
X459106Y204833D01*
X1750Y190250D02*
X-6247D01*
X-3582Y192916D01*
X-6247Y195582D01*
X1750D01*
X685582Y9414D02*
X684249Y10747D01*
X681583D01*
X680250Y9414D01*
Y8082D01*
X681583Y6749D01*
X684249D01*
X685582Y5416D01*
Y4083D01*
X684249Y2750D01*
X681583D01*
X680250Y4083D01*
X688247Y2750D02*
Y10747D01*
X692246D01*
X693579Y9414D01*
Y6749D01*
X692246Y5416D01*
X688247D01*
X690913D02*
X693579Y2750D01*
X701576Y9414D02*
X700244Y10747D01*
X697578D01*
X696245Y9414D01*
Y4083D01*
X697578Y2750D01*
X700244D01*
X701576Y4083D01*
X704242Y9414D02*
X705575Y10747D01*
X708241D01*
X709574Y9414D01*
Y4083D01*
X708241Y2750D01*
X705575D01*
X704242Y4083D01*
Y9414D01*
X377750Y35500D02*
Y43497D01*
X381749D01*
X383082Y42165D01*
Y39499D01*
X381749Y38166D01*
X377750D01*
X385747Y35500D02*
Y43497D01*
X389746D01*
X391079Y42165D01*
Y39499D01*
X389746Y38166D01*
X385747D01*
X399076Y42165D02*
X397744Y43497D01*
X395078D01*
X393745Y42165D01*
Y40832D01*
X395078Y39499D01*
X397744D01*
X399076Y38166D01*
Y36833D01*
X397744Y35500D01*
X395078D01*
X393745Y36833D01*
X270500Y3750D02*
X265168D01*
X262503Y6416D01*
X265168Y9082D01*
X270500D01*
X266501D01*
Y3750D01*
X262503Y11747D02*
X270500D01*
Y15746D01*
X269167Y17079D01*
X263836D01*
X262503Y15746D01*
Y11747D01*
Y25076D02*
Y19745D01*
X266501D01*
Y22411D01*
Y19745D01*
X270500D01*
X518002Y192250D02*
X525000D01*
Y196915D01*
X518002Y203913D02*
Y199248D01*
X525000D01*
Y203913D01*
X521501Y199248D02*
Y201580D01*
X518002Y206245D02*
X525000D01*
Y209744D01*
X523834Y210911D01*
X519169D01*
X518002Y209744D01*
Y206245D01*
X525000Y217908D02*
Y213243D01*
X520335Y217908D01*
X519169D01*
X518002Y216742D01*
Y214410D01*
X519169Y213243D01*
X485002Y192250D02*
X492000D01*
Y196915D01*
X485002Y203913D02*
Y199248D01*
X492000D01*
Y203913D01*
X488501Y199248D02*
Y201580D01*
X485002Y206245D02*
X492000D01*
Y209744D01*
X490834Y210911D01*
X486169D01*
X485002Y209744D01*
Y206245D01*
X492000Y213243D02*
Y215576D01*
Y214410D01*
X485002D01*
X486169Y213243D01*
D12*
X745511Y137500D02*
G03*
X745511Y82500I11989J-27500D01*
G01*
X669950Y-1650D02*
Y25650D01*
X642050D02*
X669950D01*
X642050Y-1650D02*
Y25650D01*
Y-1650D02*
X669950D01*
X108250Y182500D02*
Y218500D01*
Y182500D02*
X117000D01*
X159500D02*
X168250D01*
Y218500D01*
X406750Y186000D02*
X431750D01*
X401750Y191000D02*
X406750Y186000D01*
X401750Y191000D02*
Y211000D01*
X406750Y216000D01*
X431750Y186000D02*
Y216000D01*
X406750D02*
X431750D01*
X738250Y7000D02*
X763250D01*
X733250Y12000D02*
X738250Y7000D01*
X733250Y12000D02*
Y32000D01*
X738250Y37000D01*
X763250Y7000D02*
Y37000D01*
X738250D02*
X763250D01*
X738250Y138000D02*
X763250D01*
X733250Y143000D02*
X738250Y138000D01*
X733250Y143000D02*
Y163000D01*
X738250Y168000D01*
X763250Y138000D02*
Y168000D01*
X738250D02*
X763250D01*
X738250Y52000D02*
X763250D01*
X733250Y57000D02*
X738250Y52000D01*
X733250Y57000D02*
Y77000D01*
X738250Y82000D01*
X763250Y52000D02*
Y82000D01*
X738250D02*
X763250D01*
X738250Y183000D02*
X763250D01*
X733250Y188000D02*
X738250Y183000D01*
X733250Y188000D02*
Y208000D01*
X738250Y213000D01*
X763250Y183000D02*
Y213000D01*
X738250D02*
X763250D01*
X373500Y1750D02*
Y26750D01*
X378500Y31750D01*
X398500D01*
X403500Y26750D01*
X373500Y1750D02*
X403500D01*
Y26750D01*
X229500Y1750D02*
Y26750D01*
X234500Y31750D01*
X254500D01*
X259500Y26750D01*
X229500Y1750D02*
X259500D01*
Y26750D01*
X325500Y1750D02*
Y26750D01*
X330500Y31750D01*
X350500D01*
X355500Y26750D01*
X325500Y1750D02*
X355500D01*
Y26750D01*
X277500Y1750D02*
Y26750D01*
X282500Y31750D01*
X302500D01*
X307500Y26750D01*
X277500Y1750D02*
X307500D01*
Y26750D01*
X174100Y-150D02*
Y39850D01*
X108100Y-150D02*
X174100D01*
X108100D02*
Y39850D01*
X174100D01*
X64750Y6250D02*
Y30250D01*
X84750D01*
Y6250D02*
Y30250D01*
X64750Y6250D02*
X84750D01*
Y35250D02*
Y59250D01*
X64750Y35250D02*
X84750D01*
X64750D02*
Y59250D01*
X84750Y59250D01*
X31750Y6250D02*
Y30250D01*
X51750D01*
Y6250D02*
Y30250D01*
X31750Y6250D02*
X51750Y6250D01*
Y35250D02*
Y59250D01*
X31750Y35250D02*
X51750D01*
X31750D02*
Y59250D01*
X51750Y59250D01*
X66000Y160750D02*
Y184750D01*
X86000D01*
Y160750D02*
Y184750D01*
X66000Y160750D02*
X86000D01*
X32500D02*
Y184750D01*
X52500D01*
Y160750D02*
Y184750D01*
X32500Y160750D02*
X52500D01*
X86000Y189750D02*
Y213750D01*
X66000Y189750D02*
X86000D01*
X66000D02*
Y213750D01*
X86000D01*
X32500D02*
X52500D01*
X32500Y189750D02*
Y213750D01*
Y189750D02*
X52500D01*
Y213750D01*
X185250Y40750D02*
X207250D01*
X207250Y10750D02*
X207250Y40750D01*
X185250Y10750D02*
X207250Y10750D01*
X185250Y10750D02*
Y40750D01*
X308750Y220000D02*
X330000D01*
Y198750D02*
Y220000D01*
Y120000D02*
Y141250D01*
X308750Y120000D02*
X330000D01*
X230000D02*
X251250D01*
X230000D02*
Y141250D01*
Y198750D02*
Y220000D01*
X251250D01*
X348908Y157000D02*
X364408D01*
X674033Y60000D02*
Y62750D01*
X668658D02*
X674033D01*
X649283D02*
X654658D01*
X649283Y60000D02*
Y62750D01*
Y37750D02*
Y40500D01*
Y37750D02*
X654658D01*
X668658D02*
X674033D01*
Y40500D01*
X668658Y37750D02*
X674033Y40500D01*
X636408Y120250D02*
X637658D01*
X636408D02*
Y130750D01*
X637658D01*
X653658Y120250D02*
X654908D01*
X653658Y130750D02*
X654908D01*
Y120250D02*
Y123000D01*
Y128000D02*
Y130750D01*
X-4500Y14250D02*
X-2667D01*
X-3584D01*
Y19748D01*
X-4500Y18832D01*
X-3835Y185498D02*
X-5667Y184582D01*
X-7500Y182749D01*
Y180916D01*
X-6584Y180000D01*
X-4751D01*
X-3835Y180916D01*
Y181833D01*
X-4751Y182749D01*
X-7500D01*
X-2002Y185498D02*
X1664D01*
Y184582D01*
X-2002Y180916D01*
Y180000D01*
X-6750Y39500D02*
X-4917D01*
X-5834D01*
Y44998D01*
X-6750Y44082D01*
X-2168Y39500D02*
X-335D01*
X-1252D01*
Y44998D01*
X-2168Y44082D01*
X36500Y71998D02*
X40166D01*
X38333D01*
Y66500D01*
X41998D02*
Y71998D01*
X44747D01*
X45664Y71082D01*
Y69249D01*
X44747Y68333D01*
X41998D01*
X47496Y71998D02*
X51162D01*
Y71082D01*
X47496Y67416D01*
Y66500D01*
X-7500Y205498D02*
X-3835D01*
Y204582D01*
X-7500Y200916D01*
Y200000D01*
X1664Y205498D02*
X-2002D01*
Y202749D01*
X-169Y203665D01*
X747D01*
X1664Y202749D01*
Y200916D01*
X747Y200000D01*
X-1085D01*
X-2002Y200916D01*
X288250Y40498D02*
X290083D01*
X289166D01*
Y35000D01*
X288250D01*
X290083D01*
X292832D02*
Y40498D01*
X296497Y35000D01*
Y40498D01*
X335249Y40998D02*
X333416D01*
X332500Y40082D01*
Y36416D01*
X333416Y35500D01*
X335249D01*
X336165Y36416D01*
Y40082D01*
X335249Y40998D01*
X337998D02*
Y36416D01*
X338915Y35500D01*
X340747D01*
X341664Y36416D01*
Y40998D01*
X343496D02*
X347162D01*
X345329D01*
Y35500D01*
X80500Y71998D02*
X84165D01*
X82333D01*
Y66500D01*
X85998D02*
Y71998D01*
X88747D01*
X89664Y71082D01*
Y69249D01*
X88747Y68333D01*
X85998D01*
X91496Y71082D02*
X92413Y71998D01*
X94246D01*
X95162Y71082D01*
Y70165D01*
X94246Y69249D01*
X95162Y68333D01*
Y67416D01*
X94246Y66500D01*
X92413D01*
X91496Y67416D01*
Y68333D01*
X92413Y69249D01*
X91496Y70165D01*
Y71082D01*
X92413Y69249D02*
X94246D01*
X7165Y59250D02*
X3500D01*
X7165Y62915D01*
Y63832D01*
X6249Y64748D01*
X4416D01*
X3500Y63832D01*
X8998Y59250D02*
X10831D01*
X9915D01*
Y64748D01*
X8998Y63832D01*
X7915Y166748D02*
X4250D01*
Y163999D01*
X6083Y164915D01*
X6999D01*
X7915Y163999D01*
Y162166D01*
X6999Y161250D01*
X5166D01*
X4250Y162166D01*
X9748Y166748D02*
X13414D01*
Y165832D01*
X9748Y162166D01*
Y161250D01*
X676516Y9350D02*
X672850D01*
X676516Y13016D01*
Y13932D01*
X675599Y14848D01*
X673766D01*
X672850Y13932D01*
X636050Y9350D02*
X637883D01*
X636966D01*
Y14848D01*
X636050Y13932D01*
X182000Y32750D02*
Y34583D01*
Y33666D01*
X176502D01*
X177418Y32750D01*
Y37332D02*
X176502Y38248D01*
Y40081D01*
X177418Y40997D01*
X181084D01*
X182000Y40081D01*
Y38248D01*
X181084Y37332D01*
X177418D01*
X181084Y2500D02*
X182000Y3416D01*
Y5249D01*
X181084Y6165D01*
X177418D01*
X176502Y5249D01*
Y3416D01*
X177418Y2500D01*
X178335D01*
X179251Y3416D01*
Y6165D01*
X105500Y43415D02*
Y39750D01*
X101834Y43415D01*
X100918D01*
X100002Y42499D01*
Y40666D01*
X100918Y39750D01*
X105500Y3250D02*
Y5083D01*
Y4166D01*
X100002D01*
X100918Y3250D01*
X713252Y4415D02*
Y2583D01*
Y3499D01*
X717834D01*
X718750Y2583D01*
Y1666D01*
X717834Y750D01*
X718750Y6248D02*
X713252D01*
Y8997D01*
X714168Y9914D01*
X716001D01*
X716917Y8997D01*
Y6248D01*
X718750Y11746D02*
Y13579D01*
Y12663D01*
X713252D01*
X714168Y11746D01*
X21750Y153498D02*
X23583D01*
X22666D01*
Y148000D01*
X21750D01*
X23583D01*
X29997Y152582D02*
X29081Y153498D01*
X27248D01*
X26332Y152582D01*
Y148916D01*
X27248Y148000D01*
X29081D01*
X29997Y148916D01*
X31830Y148000D02*
X33663D01*
X32746D01*
Y153498D01*
X31830Y152582D01*
X39161Y148000D02*
Y153498D01*
X36412Y150749D01*
X40077D01*
X199250Y193248D02*
X202915D01*
X201083D01*
Y187750D01*
X204748D02*
Y193248D01*
X207497D01*
X208414Y192332D01*
Y190499D01*
X207497Y189583D01*
X204748D01*
X212995Y187750D02*
Y193248D01*
X210246Y190499D01*
X213912D01*
X180000Y193248D02*
X183666D01*
X181833D01*
Y187750D01*
X185498D02*
Y193248D01*
X188247D01*
X189164Y192332D01*
Y190499D01*
X188247Y189583D01*
X185498D01*
X190996Y192332D02*
X191913Y193248D01*
X193745D01*
X194662Y192332D01*
Y191416D01*
X193745Y190499D01*
X192829D01*
X193745D01*
X194662Y189583D01*
Y188666D01*
X193745Y187750D01*
X191913D01*
X190996Y188666D01*
X322752Y125000D02*
Y128666D01*
Y126833D01*
X328250D01*
Y130498D02*
X322752D01*
Y133247D01*
X323668Y134164D01*
X325501D01*
X326417Y133247D01*
Y130498D01*
X322752Y139662D02*
Y135996D01*
X325501D01*
X324585Y137829D01*
Y138745D01*
X325501Y139662D01*
X327334D01*
X328250Y138745D01*
Y136913D01*
X327334Y135996D01*
X332002Y176250D02*
Y179916D01*
Y178083D01*
X337500D01*
Y181748D02*
X332002D01*
Y184497D01*
X332918Y185414D01*
X334751D01*
X335667Y184497D01*
Y181748D01*
X337500Y190912D02*
Y187246D01*
X333834Y190912D01*
X332918D01*
X332002Y189995D01*
Y188163D01*
X332918Y187246D01*
X129750Y178498D02*
X133415Y173000D01*
Y178498D02*
X129750Y173000D01*
X135248Y177582D02*
X136165Y178498D01*
X137997D01*
X138914Y177582D01*
Y176665D01*
X137997Y175749D01*
X138914Y174833D01*
Y173916D01*
X137997Y173000D01*
X136165D01*
X135248Y173916D01*
Y174833D01*
X136165Y175749D01*
X135248Y176665D01*
Y177582D01*
X136165Y175749D02*
X137997D01*
X110666Y56748D02*
X108833D01*
X109749D01*
Y52166D01*
X108833Y51250D01*
X107916D01*
X107000Y52166D01*
X112498Y51250D02*
X114331D01*
X113415D01*
Y56748D01*
X112498Y55832D01*
X412500Y182998D02*
X416166Y177500D01*
Y182998D02*
X412500Y177500D01*
X421664Y182998D02*
X417998D01*
Y180249D01*
X419831Y181166D01*
X420747D01*
X421664Y180249D01*
Y178416D01*
X420747Y177500D01*
X418915D01*
X417998Y178416D01*
X406252Y7416D02*
Y5583D01*
Y6499D01*
X410834D01*
X411750Y5583D01*
Y4666D01*
X410834Y3750D01*
X406252Y12914D02*
Y9248D01*
X409001D01*
X408084Y11081D01*
Y11997D01*
X409001Y12914D01*
X410834D01*
X411750Y11997D01*
Y10165D01*
X410834Y9248D01*
X358502Y7416D02*
Y5583D01*
Y6499D01*
X363084D01*
X364000Y5583D01*
Y4666D01*
X363084Y3750D01*
X359418Y9248D02*
X358502Y10165D01*
Y11997D01*
X359418Y12914D01*
X360335D01*
X361251Y11997D01*
Y11081D01*
Y11997D01*
X362167Y12914D01*
X363084D01*
X364000Y11997D01*
Y10165D01*
X363084Y9248D01*
X314916Y7248D02*
X313083D01*
X313999D01*
Y2666D01*
X313083Y1750D01*
X312166D01*
X311250Y2666D01*
X319497Y1750D02*
Y7248D01*
X316748Y4499D01*
X320414D01*
X232915Y39498D02*
X231083D01*
X231999D01*
Y34916D01*
X231083Y34000D01*
X230166D01*
X229250Y34916D01*
X238414Y39498D02*
X236581Y38582D01*
X234748Y36749D01*
Y34916D01*
X235665Y34000D01*
X237497D01*
X238414Y34916D01*
Y35833D01*
X237497Y36749D01*
X234748D01*
X730388Y11638D02*
X729092Y5158D01*
X732980Y9046D02*
X726500Y7750D01*
X732332Y1918D02*
X736219Y5806D01*
X732332D01*
X734924Y3214D01*
X725362Y81138D02*
X731842Y79842D01*
X727954Y83730D02*
X729250Y77250D01*
X735730Y83730D02*
X733138Y81138D01*
Y86322D01*
X732490Y86970D01*
X731194Y86969D01*
X729898Y85674D01*
X729898Y84378D01*
X731730Y140546D02*
X730434Y141842D01*
X731082Y141194D01*
X727842Y137954D01*
X726546D01*
X725898Y138602D01*
Y139898D01*
X731730Y132770D02*
X729138Y135362D01*
X734322D01*
X734970Y136010D01*
X734969Y137306D01*
X733674Y138602D01*
X732378Y138602D01*
X727112Y213638D02*
X733592Y212342D01*
X729704Y216230D02*
X731000Y209750D01*
X734888Y213638D02*
X736184Y214934D01*
X735536Y214286D01*
X731648Y218174D01*
X731648Y216878D01*
X316502Y59250D02*
Y61083D01*
Y60166D01*
X322000D01*
Y59250D01*
Y61083D01*
X317418Y67497D02*
X316502Y66581D01*
Y64748D01*
X317418Y63832D01*
X321084D01*
X322000Y64748D01*
Y66581D01*
X321084Y67497D01*
X316502Y69330D02*
Y72996D01*
X317418D01*
X321084Y69330D01*
X322000D01*
X350500Y193498D02*
X352333D01*
X351416D01*
Y188000D01*
X350500D01*
X352333D01*
X358747Y192582D02*
X357831Y193498D01*
X355998D01*
X355082Y192582D01*
Y188916D01*
X355998Y188000D01*
X357831D01*
X358747Y188916D01*
X360580Y192582D02*
X361497Y193498D01*
X363329D01*
X364246Y192582D01*
Y191665D01*
X363329Y190749D01*
X362413D01*
X363329D01*
X364246Y189833D01*
Y188916D01*
X363329Y188000D01*
X361497D01*
X360580Y188916D01*
X366078Y188000D02*
X367911D01*
X366995D01*
Y193498D01*
X366078Y192582D01*
X204750Y70498D02*
X208416Y65000D01*
Y70498D02*
X204750Y65000D01*
X212997Y70498D02*
X211165D01*
X210248Y69582D01*
Y65916D01*
X211165Y65000D01*
X212997D01*
X213914Y65916D01*
Y69582D01*
X212997Y70498D01*
X219412Y65000D02*
X215746D01*
X219412Y68665D01*
Y69582D01*
X218496Y70498D01*
X216663D01*
X215746Y69582D01*
X204750Y78998D02*
X208416Y73500D01*
Y78998D02*
X204750Y73500D01*
X212997Y78998D02*
X211165D01*
X210248Y78082D01*
Y74416D01*
X211165Y73500D01*
X212997D01*
X213914Y74416D01*
Y78082D01*
X212997Y78998D01*
X215746Y73500D02*
X217579D01*
X216663D01*
Y78998D01*
X215746Y78082D01*
X164000Y71748D02*
X165833D01*
X164916D01*
Y66250D01*
X164000D01*
X165833D01*
X172247Y70832D02*
X171331Y71748D01*
X169498D01*
X168582Y70832D01*
Y67166D01*
X169498Y66250D01*
X171331D01*
X172247Y67166D01*
X177745Y66250D02*
X174080D01*
X177745Y69915D01*
Y70832D01*
X176829Y71748D01*
X174996D01*
X174080Y70832D01*
X179578Y66250D02*
X181411D01*
X180495D01*
Y71748D01*
X179578Y70832D01*
X107750Y64998D02*
X109583D01*
X108666D01*
Y59500D01*
X107750D01*
X109583D01*
X115997Y64082D02*
X115081Y64998D01*
X113248D01*
X112332Y64082D01*
Y60416D01*
X113248Y59500D01*
X115081D01*
X115997Y60416D01*
X121496Y59500D02*
X117830D01*
X121496Y63165D01*
Y64082D01*
X120579Y64998D01*
X118746D01*
X117830Y64082D01*
X126994Y64998D02*
X123328D01*
Y62249D01*
X125161Y63165D01*
X126077D01*
X126994Y62249D01*
Y60416D01*
X126077Y59500D01*
X124245D01*
X123328Y60416D01*
X93750Y157498D02*
X95583D01*
X94666D01*
Y152000D01*
X93750D01*
X95583D01*
X101997Y156582D02*
X101081Y157498D01*
X99248D01*
X98332Y156582D01*
Y152916D01*
X99248Y152000D01*
X101081D01*
X101997Y152916D01*
X107495Y152000D02*
X103830D01*
X107495Y155666D01*
Y156582D01*
X106579Y157498D01*
X104747D01*
X103830Y156582D01*
X109328Y152916D02*
X110245Y152000D01*
X112077D01*
X112994Y152916D01*
Y156582D01*
X112077Y157498D01*
X110245D01*
X109328Y156582D01*
Y155666D01*
X110245Y154749D01*
X112994D01*
X179000Y131248D02*
X180833D01*
X179916D01*
Y125750D01*
X179000D01*
X180833D01*
X187247Y130332D02*
X186331Y131248D01*
X184498D01*
X183582Y130332D01*
Y126666D01*
X184498Y125750D01*
X186331D01*
X187247Y126666D01*
X192745Y125750D02*
X189080D01*
X192745Y129416D01*
Y130332D01*
X191829Y131248D01*
X189996D01*
X189080Y130332D01*
X194578D02*
X195495Y131248D01*
X197327D01*
X198244Y130332D01*
Y129416D01*
X197327Y128499D01*
X198244Y127583D01*
Y126666D01*
X197327Y125750D01*
X195495D01*
X194578Y126666D01*
Y127583D01*
X195495Y128499D01*
X194578Y129416D01*
Y130332D01*
X195495Y128499D02*
X197327D01*
X658000Y127998D02*
X661665D01*
X659833D01*
Y122500D01*
X667164Y127998D02*
X663498D01*
Y125249D01*
X665331Y126166D01*
X666247D01*
X667164Y125249D01*
Y123416D01*
X666247Y122500D01*
X664415D01*
X663498Y123416D01*
X676000Y45748D02*
X677833D01*
X676916D01*
Y40250D01*
X676000D01*
X677833D01*
X684247Y44832D02*
X683331Y45748D01*
X681498D01*
X680582Y44832D01*
Y41166D01*
X681498Y40250D01*
X683331D01*
X684247Y41166D01*
X686080Y44832D02*
X686996Y45748D01*
X688829D01*
X689745Y44832D01*
Y43916D01*
X688829Y42999D01*
X687913D01*
X688829D01*
X689745Y42083D01*
Y41166D01*
X688829Y40250D01*
X686996D01*
X686080Y41166D01*
X472573Y172901D02*
X468908D01*
Y170152D01*
X470741D01*
X468908D01*
Y167403D01*
X474406Y172901D02*
Y167403D01*
X478071D01*
X479904D02*
X481737D01*
X480821D01*
Y172901D01*
X479904Y171985D01*
X674250Y123498D02*
X677915D01*
X676083D01*
Y118000D01*
X679748Y123498D02*
X683414D01*
Y122582D01*
X679748Y118916D01*
Y118000D01*
X594658Y81498D02*
X598323D01*
X596490D01*
Y76000D01*
X600156Y80582D02*
X601072Y81498D01*
X602905D01*
X603821Y80582D01*
Y79665D01*
X602905Y78749D01*
X603821Y77833D01*
Y76916D01*
X602905Y76000D01*
X601072D01*
X600156Y76916D01*
Y77833D01*
X601072Y78749D01*
X600156Y79665D01*
Y80582D01*
X601072Y78749D02*
X602905D01*
X674158Y140748D02*
X677823D01*
X675990D01*
Y135250D01*
X683321D02*
X679656D01*
X683321Y138915D01*
Y139832D01*
X682405Y140748D01*
X680572D01*
X679656Y139832D01*
X256250Y123248D02*
X258083D01*
X257166D01*
Y117750D01*
X256250D01*
X258083D01*
X264497Y122332D02*
X263581Y123248D01*
X261748D01*
X260832Y122332D01*
Y118666D01*
X261748Y117750D01*
X263581D01*
X264497Y118666D01*
X266330Y117750D02*
X268163D01*
X267246D01*
Y123248D01*
X266330Y122332D01*
X270912Y117750D02*
X272745D01*
X271828D01*
Y123248D01*
X270912Y122332D01*
X177127Y9875D02*
Y11708D01*
Y10791D01*
X182625D01*
Y9875D01*
Y11708D01*
X178043Y18122D02*
X177127Y17206D01*
Y15373D01*
X178043Y14457D01*
X181709D01*
X182625Y15373D01*
Y17206D01*
X181709Y18122D01*
X182625Y19955D02*
Y21788D01*
Y20872D01*
X177127D01*
X178043Y19955D01*
Y24537D02*
X177127Y25453D01*
Y27286D01*
X178043Y28202D01*
X178960D01*
X179876Y27286D01*
X180792Y28202D01*
X181709D01*
X182625Y27286D01*
Y25453D01*
X181709Y24537D01*
X180792D01*
X179876Y25453D01*
X178960Y24537D01*
X178043D01*
X179876Y25453D02*
Y27286D01*
X456002Y50750D02*
Y52583D01*
Y51666D01*
X461500D01*
Y50750D01*
Y52583D01*
X456918Y58997D02*
X456002Y58081D01*
Y56248D01*
X456918Y55332D01*
X460584D01*
X461500Y56248D01*
Y58081D01*
X460584Y58997D01*
X461500Y64496D02*
Y60830D01*
X457835Y64496D01*
X456918D01*
X456002Y63579D01*
Y61746D01*
X456918Y60830D01*
Y66328D02*
X456002Y67245D01*
Y69077D01*
X456918Y69994D01*
X457835D01*
X458751Y69077D01*
Y68161D01*
Y69077D01*
X459667Y69994D01*
X460584D01*
X461500Y69077D01*
Y67245D01*
X460584Y66328D01*
D13*
X308952Y49700D02*
G03*
X308952Y49700I-552J0D01*
G01*
X152290Y51250D02*
G03*
X152290Y51250I-277J0D01*
G01*
D14*
X211604Y35750D02*
G03*
X211604Y35750I-354J0D01*
G01*
X746375Y44250D02*
X763250D01*
X756625Y40833D02*
Y47667D01*
X746375Y44250D02*
X756625Y47667D01*
X746375Y44250D02*
X756625Y40833D01*
X717625Y130875D02*
X727875Y127458D01*
X717625Y124042D02*
X727875Y127458D01*
X717625Y124042D02*
Y130875D01*
X711000Y127458D02*
X727875D01*
X693000Y204708D02*
X709875D01*
X699625Y208125D02*
X699625Y201292D01*
X709875Y204708D01*
X699625Y208125D02*
X709875Y204708D01*
X715004Y181250D02*
Y187915D01*
Y184582D01*
X725000D01*
X715004Y191247D02*
X725000Y197911D01*
X715004D02*
X725000Y191247D01*
X724250Y206750D02*
X717586D01*
X714254Y210082D01*
X717586Y213414D01*
X724250D01*
X719252D01*
Y206750D01*
X710200Y132350D02*
X700204D01*
Y137348D01*
X701870Y139015D01*
X705202D01*
X706868Y137348D01*
Y132350D01*
X710200Y142347D02*
X703536D01*
X700204Y145679D01*
X703536Y149011D01*
X710200D01*
X705202D01*
Y142347D01*
X724250Y64500D02*
X717586D01*
X714254Y67832D01*
X717586Y71164D01*
X724250D01*
X719252D01*
Y64500D01*
X700204Y162015D02*
Y155350D01*
X710200D01*
Y162015D01*
X705202Y155350D02*
Y158682D01*
X710200Y165347D02*
X700204D01*
X710200Y172011D01*
X700204D01*
X725000Y35750D02*
X714004D01*
Y41248D01*
X715836Y43081D01*
X719502D01*
X721335Y41248D01*
Y35750D01*
Y39415D02*
X725000Y43081D01*
X714004Y46746D02*
X725000Y54077D01*
X714004D02*
X725000Y46746D01*
X714504Y19000D02*
X724500D01*
Y23998D01*
X722834Y25665D01*
X721168D01*
X719502Y23998D01*
Y19000D01*
Y23998D01*
X717836Y25665D01*
X716170D01*
X714504Y23998D01*
Y19000D01*
D15*
X497551Y16571D02*
X499448D01*
X568053Y13574D02*
X571441D01*
X555792D02*
X559180D01*
X578216D02*
X581739D01*
X587971D02*
X591359D01*
X611375D02*
X614393D01*
X481020Y27410D02*
X486576D01*
X529063Y13575D02*
X536109Y13574D01*
X537218Y12995D02*
X537797Y13574D01*
X540623D01*
X543598D02*
X546985D01*
X547934D02*
X551185D01*
X552270D02*
X555521D01*
X564602Y13575D02*
X567508Y13574D01*
X564620D02*
X567508D01*
X559550D02*
X562938Y13575D01*
X574015Y13574D02*
X577403D01*
X582010D02*
X586074D01*
X592578D02*
X595966D01*
X596237D02*
X600437D01*
X602199D02*
X605722D01*
X606633Y13575D02*
X609840Y13574D01*
X614664D02*
X618052D01*
X619000Y13575D02*
X622117Y13574D01*
X623336D02*
X630924Y13575D01*
X474110Y49090D02*
X475194Y49090D01*
X473703Y38250D02*
X476549D01*
X481156D02*
X484272Y38250D01*
X488202D02*
X490912Y38250D01*
X583093Y11407D02*
X591088D01*
X583093Y11271D02*
X591088D01*
X583364Y11135D02*
X590817D01*
X583500Y11000D02*
X590817Y11000D01*
X583635Y10864D02*
X590817Y10864D01*
X583635Y10729D02*
X590817D01*
X583821Y10594D02*
X590817Y10594D01*
X583834Y10458D02*
X590817D01*
X583788Y10323D02*
X590952Y10323D01*
X583635Y10187D02*
X591088D01*
X583635Y10051D02*
X595153D01*
X583500Y9916D02*
X595153D01*
X573473Y9510D02*
X587294D01*
X573473Y9374D02*
X587294D01*
X573473Y9238D02*
X587158D01*
X573473Y9103D02*
X587158D01*
X622252Y8968D02*
X631872Y8967D01*
X622252Y8832D02*
X631872D01*
X622252Y8697D02*
X631601D01*
X622252Y8561D02*
X631601D01*
X621981Y8426D02*
X631872D01*
X621981Y8290D02*
X631737D01*
X568324Y15336D02*
X588107D01*
X568324Y15200D02*
X588107D01*
X568189Y15065D02*
X588107D01*
X568189Y14929D02*
X588107D01*
X568189Y14794D02*
X587971D01*
X578758Y14658D02*
X585532D01*
X578758Y14523D02*
X585532Y14523D01*
X578758Y14387D02*
X585532Y14387D01*
X578758Y14252D02*
X585532D01*
X578622Y14116D02*
X585532D01*
X578622Y13981D02*
X585803Y13981D01*
X578758Y13845D02*
X585803Y13845D01*
X578487Y13710D02*
X586074Y13710D01*
X614935Y15065D02*
X632956D01*
X614935Y14929D02*
X632956D01*
X614935Y14794D02*
X632957D01*
X493893Y31340D02*
X505545D01*
X494028Y31204D02*
X505545D01*
X494164Y31069D02*
X505545D01*
X494164Y30933D02*
X505545D01*
X494164Y30798D02*
X505274Y30798D01*
X494299Y30662D02*
X505139Y30662D01*
X494570Y30527D02*
X503919D01*
X494706Y30391D02*
X503784D01*
X534119Y7342D02*
X537371Y10594D01*
X529063Y13439D02*
X540580D01*
X529063Y13304D02*
X540580D01*
X532629Y13168D02*
X540623D01*
X532629Y13032D02*
X540623D01*
X532629Y12897D02*
X540623D01*
X529063Y12761D02*
X540309D01*
X528928Y12626D02*
X540309Y12626D01*
X528792Y12490D02*
X540309D01*
X528792Y12355D02*
X540309Y12355D01*
X528792Y12220D02*
X540309D01*
X532358Y12084D02*
X540352D01*
X532358Y11948D02*
X540352D01*
X532358Y11813D02*
X540217D01*
X528792Y11678D02*
X540038Y11678D01*
X528792Y11542D02*
X540038D01*
X528792Y11407D02*
X540038D01*
X528792Y11271D02*
X540038D01*
X528521Y11135D02*
X540038D01*
X536287Y9916D02*
X539810D01*
X532087Y9780D02*
X539810D01*
X532087Y9645D02*
X539675Y9645D01*
X532087Y9510D02*
X539539Y9510D01*
X532087Y9374D02*
X539539D01*
X532358Y9239D02*
X539539Y9238D01*
X532358Y9103D02*
X539539Y9103D01*
X532358Y8967D02*
X539268D01*
X532358Y8832D02*
X539268D01*
X532358Y8697D02*
X539133D01*
X532493Y8561D02*
X539133Y8561D01*
X532629Y8426D02*
X539133Y8426D01*
X532764Y8290D02*
X538862D01*
X532900Y8155D02*
X538591D01*
X533035Y8019D02*
X538455D01*
X533306Y7884D02*
X538320Y7884D01*
X533306Y7748D02*
X538184D01*
X533577Y7613D02*
X537778D01*
X533713Y7477D02*
X537642Y7477D01*
X534255Y7342D02*
X537100D01*
X534526Y7206D02*
X536829D01*
X567931Y13439D02*
X571318D01*
X555792D02*
X559180Y13439D01*
X578216Y13439D02*
X581739Y13439D01*
X555792Y13304D02*
X559044D01*
X567782Y13304D02*
X571170Y13304D01*
X578216D02*
X581739Y13304D01*
X555792Y13168D02*
X559044D01*
X567782D02*
X571170D01*
X578351D02*
X581739D01*
X555792Y13032D02*
X559044D01*
X567782D02*
X571170Y13032D01*
X578351Y13032D02*
X581739D01*
X555792Y12897D02*
X559044D01*
X567782D02*
X571170Y12897D01*
X578351Y12897D02*
X581739Y12897D01*
X555792Y12761D02*
X559044D01*
X567782D02*
X571170D01*
X578351D02*
X581739D01*
X555657Y12626D02*
X559044Y12626D01*
X567647Y12626D02*
X571170Y12626D01*
X578351Y12626D02*
X581739Y12626D01*
X555521Y12491D02*
X558909Y12491D01*
X567511Y12490D02*
X571170Y12491D01*
X578487Y12490D02*
X581603Y12491D01*
X555521Y12355D02*
X558909D01*
X567511D02*
X571170D01*
X578351D02*
X581603D01*
X555521Y12220D02*
X558909D01*
X567511D02*
X570899D01*
X578216Y12220D02*
X581603Y12220D01*
X555521Y12084D02*
X558909D01*
X567511D02*
X570899D01*
X578216Y12084D02*
X581603Y12084D01*
X555521Y11948D02*
X558773D01*
X567511D02*
X570899Y11948D01*
X578216Y11948D02*
X581468D01*
X555521Y11813D02*
X558773D01*
X567511D02*
X571034D01*
X578216Y11813D02*
X581468Y11813D01*
X555521Y11678D02*
X558773D01*
X567511D02*
X571034D01*
X578080Y11678D02*
X581468Y11678D01*
X555521Y11542D02*
X558773Y11542D01*
X567511Y11542D02*
X570899D01*
X578080D02*
X581468D01*
X555521Y11407D02*
X558638D01*
X567511Y11407D02*
X570899Y11407D01*
X578080D02*
X581468Y11407D01*
X555386Y11271D02*
X558638Y11271D01*
X567511D02*
X570899D01*
X578080D02*
X581468D01*
X555250Y11135D02*
X558638D01*
X567240D02*
X570899D01*
X577945D02*
X581332D01*
X555250Y11000D02*
X558638D01*
X567240Y11000D02*
X570899Y11000D01*
X577945D02*
X581197Y11000D01*
X555250Y10864D02*
X558502Y10864D01*
X567240D02*
X570628D01*
X577945Y10864D02*
X581197Y10864D01*
X555250Y10729D02*
X558502D01*
X567240Y10729D02*
X570628D01*
X577945Y10729D02*
X581197Y10729D01*
X555250Y10594D02*
X558502D01*
X567376D02*
X570628D01*
X577945Y10594D02*
X581739Y10594D01*
X555250Y10458D02*
X558502D01*
X567376D02*
X570628Y10458D01*
X577945Y10458D02*
X581874D01*
X555250Y10323D02*
X558502Y10323D01*
X567240Y10323D02*
X570628D01*
X577945D02*
X582010D01*
X555115Y10187D02*
X558502D01*
X567240D02*
X570628D01*
X577809D02*
X582145D01*
X547121Y10051D02*
X550373D01*
X554979D02*
X558367D01*
X567240D02*
X570628D01*
X577674D02*
X582281Y10051D01*
X547121Y9916D02*
X550373D01*
X554979D02*
X558367D01*
X567240D02*
X570628D01*
X577674Y9916D02*
X582416Y9916D01*
X547121Y9780D02*
X550373D01*
X554979D02*
X558367D01*
X563582D02*
X570628D01*
X577403D02*
X582551D01*
X547121Y9645D02*
X550373Y9645D01*
X554979D02*
X558367D01*
X563446D02*
X570628D01*
X577267D02*
X582687D01*
X547121Y9510D02*
X550102D01*
X554979D02*
X558367D01*
X566969Y9510D02*
X570357Y9510D01*
X547121Y9374D02*
X550237D01*
X554979D02*
X558231D01*
X566969D02*
X570357D01*
X547121Y9238D02*
X550237D01*
X554979D02*
X558367D01*
X566969D02*
X570357D01*
X547121Y9103D02*
X550102D01*
X554979D02*
X558367D01*
X566969D02*
X570357D01*
X547121Y8967D02*
X550102Y8968D01*
X554979Y8967D02*
X558367D01*
X566969D02*
X570357D01*
X573609D02*
X580654Y8968D01*
X546985Y8832D02*
X550102D01*
X554844Y8832D02*
X558231Y8832D01*
X566969D02*
X570357D01*
X573609D02*
X580654D01*
X546850Y8697D02*
X549966Y8697D01*
X554708Y8697D02*
X558096D01*
X566969Y8697D02*
X570357D01*
X573744D02*
X580383D01*
X546850Y8561D02*
X549966D01*
X554708D02*
X558096D01*
X566563D02*
X570357D01*
X573744D02*
X580383D01*
X546850Y8426D02*
X549831D01*
X554708D02*
X558096Y8425D01*
X566563Y8426D02*
X570357Y8425D01*
X573744Y8426D02*
X580383Y8425D01*
X546850Y8290D02*
X549831D01*
X554708D02*
X558096D01*
X566563D02*
X570357D01*
X573744D02*
X580384D01*
X546850Y8155D02*
X549831D01*
X554708D02*
X558096D01*
X566698D02*
X570086D01*
X574151D02*
X580113D01*
X546850Y8019D02*
X549966Y8019D01*
X554708Y8019D02*
X558096D01*
X566698D02*
X570086D01*
X574151Y8019D02*
X580113D01*
X546714Y7884D02*
X549966D01*
X554708D02*
X558096D01*
X566698Y7884D02*
X570086D01*
X574422Y7884D02*
X579842D01*
X546714Y7748D02*
X549831D01*
X554573D02*
X557960D01*
X566698D02*
X570086D01*
X574422D02*
X579842D01*
X546308Y7613D02*
X549831Y7613D01*
X566698Y7613D02*
X570086D01*
X546308Y7477D02*
X549831D01*
X566698D02*
X570086D01*
X546308Y7342D02*
X549831D01*
X566698D02*
X570086D01*
X546308Y7206D02*
X549831D01*
X566698D02*
X570086D01*
X586729Y5309D02*
X593391D01*
X587971Y13439D02*
X591359Y13439D01*
X611233Y13439D02*
X614393D01*
X587971Y13304D02*
X591359Y13304D01*
X611141D02*
X614393D01*
X587971Y13168D02*
X591359D01*
X606535D02*
X614393D01*
X587971Y13032D02*
X591359D01*
X606399D02*
X614258D01*
X587971Y12897D02*
X591359Y12897D01*
X606399D02*
X614258D01*
X587971Y12761D02*
X591359D01*
X606535D02*
X614258D01*
X587836Y12626D02*
X591359Y12626D01*
X596704Y12626D02*
X601284D01*
X606264D02*
X614258D01*
X587700Y12491D02*
X591088D01*
X596791D02*
X601464D01*
X606264D02*
X614258D01*
X587700Y12355D02*
X591088D01*
X596779Y12355D02*
X601521Y12355D01*
X606264D02*
X614258D01*
X622930Y12355D02*
X626453Y12355D01*
X587700Y12220D02*
X591088D01*
X596914D02*
X601386D01*
X606264D02*
X614122Y12220D01*
X622794Y12220D02*
X626453D01*
X587700Y12084D02*
X591088D01*
X597050D02*
X601521D01*
X606264Y12084D02*
X614122D01*
X622794Y12084D02*
X626453D01*
X587700Y11948D02*
X591088Y11948D01*
X597120D02*
X601657Y11948D01*
X606264D02*
X614122Y11948D01*
X622794D02*
X626182D01*
X587700Y11813D02*
X591088D01*
X597256D02*
X601657D01*
X606264D02*
X614122D01*
X622794D02*
X626182Y11813D01*
X587700Y11678D02*
X591088D01*
X597321D02*
X601657Y11678D01*
X606128D02*
X613987D01*
X622794Y11678D02*
X626182Y11678D01*
X587565Y11542D02*
X591088Y11542D01*
X597321Y11542D02*
X601657D01*
X606128D02*
X613987D01*
X622794D02*
X626182D01*
X597456Y11407D02*
X601657Y11407D01*
X606264D02*
X613987D01*
X622794D02*
X626182D01*
X597592Y11271D02*
X601657D01*
X606128D02*
X613987D01*
X622794D02*
X626182D01*
X597727Y11135D02*
X605179D01*
X605993D02*
X613851Y11135D01*
X622794Y11135D02*
X626182D01*
X597727Y11000D02*
X605179D01*
X605993D02*
X613851Y11000D01*
X622794D02*
X626182D01*
X597727Y10864D02*
X604908Y10864D01*
X622523D02*
X625911Y10864D01*
X597727Y10729D02*
X604908D01*
X622523Y10729D02*
X626453Y10729D01*
X597998Y10594D02*
X605044Y10594D01*
X622523D02*
X626724Y10594D01*
X598134Y10458D02*
X604908Y10458D01*
X622523Y10458D02*
X625911Y10458D01*
X598134Y10323D02*
X604908Y10323D01*
X610599Y10323D02*
X613716D01*
X622523D02*
X626859Y10323D01*
X598134Y10187D02*
X604909D01*
X610464D02*
X613716D01*
X622523D02*
X626995D01*
X598134Y10051D02*
X604909Y10051D01*
X610328D02*
X613716D01*
X622523D02*
X627266Y10051D01*
X597998Y9916D02*
X604908Y9916D01*
X610328Y9916D02*
X613716D01*
X622523D02*
X627266D01*
X587429Y9780D02*
X595153D01*
X597863D02*
X604908D01*
X610057D02*
X613580D01*
X622523D02*
X627537Y9780D01*
X587429Y9645D02*
X595153D01*
X597456D02*
X604908D01*
X609922Y9645D02*
X613580D01*
X622523Y9645D02*
X627672D01*
X587429Y9510D02*
X595153Y9510D01*
X595288Y9510D02*
X604908D01*
X605857D02*
X613445D01*
X622252D02*
X625640D01*
X587429Y9374D02*
X595153D01*
X595288D02*
X605722D01*
X605857D02*
X613309D01*
X622252D02*
X625640D01*
X587429Y9238D02*
X594882D01*
X595153D02*
X605722Y9239D01*
X606264Y9238D02*
X613309D01*
X622252D02*
X625640D01*
X587429Y9103D02*
X594882D01*
X595017D02*
X605722D01*
X606264D02*
X613309D01*
X622252D02*
X625640D01*
X587429Y8967D02*
X594882D01*
X595017D02*
X605857D01*
X606264Y8968D02*
X613309D01*
X587429Y8832D02*
X594882D01*
X595153D02*
X605652D01*
X606264D02*
X613309D01*
X587700Y8697D02*
X594882D01*
X606448Y8697D02*
X613174D01*
X587700Y8561D02*
X594882D01*
X606472Y8561D02*
X613038Y8561D01*
X587872Y8426D02*
X594882D01*
X606535D02*
X612903D01*
X587986Y8290D02*
X594882Y8290D01*
X606535Y8290D02*
X613038D01*
X587971Y8155D02*
X594611D01*
X606805D02*
X612632D01*
X621981D02*
X625369D01*
X588107Y8019D02*
X594611Y8019D01*
X606805Y8019D02*
X612496Y8019D01*
X621981D02*
X625369D01*
X588513Y7884D02*
X591088Y7884D01*
X606805Y7884D02*
X612361D01*
X621981Y7884D02*
X625369Y7884D01*
X588513Y7748D02*
X590952D01*
X606805D02*
X612225D01*
X621981D02*
X625369D01*
X589326Y7613D02*
X590546Y7613D01*
X621981D02*
X625369D01*
X621981Y7477D02*
X625369D01*
X621981Y7342D02*
X625369D01*
X621981Y7206D02*
X625369Y7206D01*
X590004Y6800D02*
X594340D01*
X586632Y6664D02*
X594340D01*
X586614Y6529D02*
X594069Y6529D01*
X586639Y6393D02*
X594069D01*
X586637Y6258D02*
X594069D01*
X586672Y6122D02*
X594069D01*
X586670Y5987D02*
X593798D01*
X586646Y5851D02*
X593798Y5851D01*
X586740Y5716D02*
X593798D01*
X586717Y5580D02*
X593798Y5580D01*
X586768Y5445D02*
X593391D01*
X586764Y5174D02*
X592985D01*
X586804Y5038D02*
X592849Y5038D01*
X586797Y4903D02*
X592714Y4903D01*
X586887Y4767D02*
X592578D01*
X587429Y4632D02*
X591901Y4632D01*
X587429Y4496D02*
X591765D01*
X588784Y4361D02*
X590817D01*
X588920Y4225D02*
X590681D01*
X533035Y15065D02*
X540623D01*
X497687Y16435D02*
X499448D01*
X497687Y16300D02*
X499583D01*
X497687Y16164D02*
X499719D01*
X497822Y16029D02*
X499719Y16029D01*
X498093Y15893D02*
X499854D01*
X498093Y15758D02*
X499990D01*
X498364Y15622D02*
X500125D01*
X536152Y17775D02*
X538184D01*
X536016Y17639D02*
X538320D01*
X535339Y17504D02*
X538997D01*
X535203Y17368D02*
X539133D01*
X534661Y17233D02*
X539539Y17233D01*
X534526Y17097D02*
X539675Y17097D01*
X522830Y16962D02*
X532044D01*
X534255D02*
X539810D01*
X522695Y16826D02*
X532180D01*
X534119D02*
X539946D01*
X522424Y16691D02*
X532180D01*
X533984D02*
X540081D01*
X522288Y16555D02*
X532315D01*
X533848D02*
X540352Y16555D01*
X521475Y16420D02*
X532315Y16420D01*
X533713Y16420D02*
X540352D01*
X521069Y16284D02*
X532451D01*
X533577D02*
X540352D01*
X520933Y16149D02*
X532451D01*
X533442Y16149D02*
X540352Y16149D01*
X520933Y16013D02*
X532451Y16013D01*
X533442D02*
X540623D01*
X520933Y15878D02*
X532586Y15878D01*
X533306Y15878D02*
X540623Y15878D01*
X520933Y15742D02*
X532586D01*
X533171D02*
X540623Y15742D01*
X520933Y15607D02*
X532722D01*
X533171D02*
X540623D01*
X520933Y15471D02*
X532722D01*
X533171D02*
X540623D01*
X520933Y15336D02*
X532722D01*
X533035D02*
X540623D01*
X520933Y15200D02*
X532722D01*
X533035D02*
X540623D01*
X520933Y15065D02*
X532722D01*
X532900Y14929D02*
X536694D01*
X532900Y14794D02*
X536558D01*
X532900Y14658D02*
X536423D01*
X532900Y14523D02*
X536423Y14523D01*
X532900Y14387D02*
X536287D01*
X532900Y14252D02*
X536287D01*
X529334Y14116D02*
X536245Y14116D01*
X529199Y13981D02*
X536245D01*
X529063Y13845D02*
X536245D01*
X568053Y13710D02*
X571441Y13710D01*
X557960Y19943D02*
X559722Y19943D01*
X557825Y19807D02*
X559857D01*
X557283Y19672D02*
X560128D01*
X557283Y19536D02*
X560128Y19536D01*
X557012Y19401D02*
X560399D01*
X556876Y19265D02*
X560399D01*
X556876Y19130D02*
X560399Y19130D01*
X556876Y18994D02*
X560535Y18994D01*
X556876Y18859D02*
X560535D01*
X556876Y18723D02*
X560535Y18723D01*
X556741Y18588D02*
X560535D01*
X556605Y18452D02*
X560399D01*
X556605Y18317D02*
X560399Y18317D01*
X556605Y18181D02*
X560399D01*
X556741Y18046D02*
X560399Y18046D01*
X556876Y17910D02*
X560128D01*
X556876Y17775D02*
X560128D01*
X557147Y17639D02*
X559857D01*
X557147Y17504D02*
X559857Y17504D01*
X577538Y17504D02*
X579706D01*
X557283Y17368D02*
X559451D01*
X577403Y17368D02*
X579842Y17368D01*
X546714Y17233D02*
X549564Y17233D01*
X557418D02*
X559315D01*
X576454D02*
X580519D01*
X546579Y17097D02*
X549831D01*
X557825D02*
X558773Y17097D01*
X576319Y17097D02*
X580654D01*
X546172Y16962D02*
X550237D01*
X556605Y16962D02*
X560128D01*
X575777D02*
X580790Y16962D01*
X546037Y16826D02*
X554708D01*
X556605D02*
X559993D01*
X575777D02*
X580925D01*
X545495Y16691D02*
X554979Y16691D01*
X556605D02*
X559993Y16691D01*
X575641D02*
X581072D01*
X545495Y16555D02*
X554979Y16555D01*
X556605D02*
X559857D01*
X575506D02*
X581197D01*
X545359Y16420D02*
X555115D01*
X556334D02*
X559857Y16420D01*
X569815Y16420D02*
X581468D01*
X545224Y16284D02*
X555250D01*
X556334Y16284D02*
X559722Y16284D01*
X575099D02*
X581468D01*
X544004Y16149D02*
X555250Y16149D01*
X556334D02*
X559722Y16149D01*
X568324D02*
X581874Y16149D01*
X543869Y16013D02*
X555386Y16013D01*
X556334Y16013D02*
X559722D01*
X568189D02*
X581874D01*
X543869Y15878D02*
X555521Y15878D01*
X556334Y15878D02*
X559722D01*
X568189D02*
X581874Y15878D01*
X543869Y15742D02*
X555521Y15742D01*
X556334D02*
X559722Y15742D01*
X568189D02*
X581874Y15742D01*
X544004Y15607D02*
X555521D01*
X556334D02*
X559722D01*
X568324D02*
X581874D01*
X544004Y15471D02*
X555521D01*
X556334Y15471D02*
X559722D01*
X568324D02*
X581739Y15471D01*
X543869Y15336D02*
X555521Y15336D01*
X556334Y15336D02*
X559586Y15336D01*
X543869Y15200D02*
X555521D01*
X556334D02*
X559586D01*
X543869Y15065D02*
X555521D01*
X556199D02*
X559586D01*
X543869Y14929D02*
X555521Y14929D01*
X556063Y14929D02*
X559451Y14929D01*
X543869Y14794D02*
X555521D01*
X556063D02*
X559451D01*
X543869Y14658D02*
X547392D01*
X556063Y14658D02*
X559315Y14658D01*
X568189D02*
X577945D01*
X543869Y14523D02*
X547392D01*
X556063Y14523D02*
X559315Y14523D01*
X568189Y14523D02*
X577945D01*
X543733Y14387D02*
X547121Y14387D01*
X556063D02*
X559315D01*
X568189Y14387D02*
X571576Y14387D01*
X543733Y14252D02*
X547121Y14252D01*
X556063D02*
X559315D01*
X568189Y14252D02*
X571576Y14252D01*
X543733Y14116D02*
X547121Y14116D01*
X556063D02*
X559315D01*
X568053Y14116D02*
X571441Y14116D01*
X543598Y13981D02*
X547121D01*
X556063D02*
X559315Y13981D01*
X568053Y13981D02*
X571441D01*
X556063Y13845D02*
X559180Y13845D01*
X568053Y13845D02*
X571441Y13845D01*
X555928Y13710D02*
X559180D01*
X609922Y17504D02*
X612225D01*
X622930D02*
X624691D01*
X609786Y17368D02*
X612225Y17368D01*
X622930D02*
X624827D01*
X588784Y17233D02*
X592128Y17233D01*
X598405Y17233D02*
X602876D01*
X608838D02*
X613038Y17233D01*
X621846Y17233D02*
X625504D01*
X588784Y17097D02*
X592172D01*
X598405D02*
X602741D01*
X608703D02*
X613038Y17097D01*
X621846Y17097D02*
X625640D01*
X588784Y16962D02*
X592172Y16962D01*
X597592D02*
X602741Y16962D01*
X608567Y16962D02*
X613580D01*
X621304Y16962D02*
X625775Y16962D01*
X588784Y16826D02*
X592172D01*
X597592D02*
X602741D01*
X608431D02*
X613580D01*
X617103D02*
X625911D01*
X588784Y16691D02*
X592172D01*
X597050Y16691D02*
X602741Y16691D01*
X608025D02*
X613851D01*
X616697D02*
X626031D01*
X588784Y16555D02*
X592172Y16555D01*
X597050Y16555D02*
X602741D01*
X607890Y16555D02*
X613851Y16555D01*
X616697D02*
X626050D01*
X588649Y16420D02*
X592131D01*
X596643D02*
X602741D01*
X607618D02*
X614122D01*
X616426Y16420D02*
X626182Y16420D01*
X588513Y16284D02*
X592124D01*
X596643D02*
X602741Y16284D01*
X607618Y16284D02*
X614122Y16284D01*
X616290Y16284D02*
X626182D01*
X588513Y16149D02*
X592036Y16149D01*
X596643Y16149D02*
X607212D01*
X607347D02*
X614122Y16149D01*
X615206Y16149D02*
X626453D01*
X588513Y16013D02*
X591901D01*
X596643D02*
X602470D01*
X607347D02*
X614258D01*
X615206D02*
X626453D01*
X588513Y15878D02*
X591901D01*
X592985D02*
X602470D01*
X607347D02*
X614393D01*
X614935D02*
X626453D01*
X588513Y15742D02*
X591901D01*
X592849D02*
X602470D01*
X607347D02*
X614393D01*
X614935D02*
X626453D01*
X588513Y15607D02*
X591901D01*
X596508D02*
X602470D01*
X602741D02*
X614529D01*
X614935D02*
X626724D01*
X588513Y15471D02*
X591901D01*
X596372Y15471D02*
X602470D01*
X607076Y15471D02*
X614529D01*
X614935D02*
X626724D01*
X588513Y15336D02*
X591901Y15336D01*
X596372Y15336D02*
X602470D01*
X607076D02*
X614529D01*
X614935D02*
X626724D01*
X588513Y15200D02*
X591901D01*
X592849D02*
X602470D01*
X607076D02*
X614529D01*
X614935D02*
X626724D01*
X588242Y15065D02*
X591765D01*
X592849D02*
X602470D01*
X607076Y15065D02*
X614529Y15065D01*
X588242Y14929D02*
X591630Y14929D01*
X592849Y14929D02*
X602470D01*
X607076Y14929D02*
X614529Y14929D01*
X588242Y14794D02*
X591630D01*
X592849D02*
X614529Y14794D01*
X588242Y14658D02*
X591630D01*
X611141Y14658D02*
X614529D01*
X588242Y14523D02*
X591630Y14523D01*
X611277D02*
X614529Y14523D01*
X588242Y14387D02*
X591630D01*
X611412D02*
X614529D01*
X588242Y14252D02*
X591630D01*
X611412D02*
X614529D01*
X588242Y14116D02*
X591630Y14116D01*
X611412D02*
X614529D01*
X588107Y13981D02*
X591630Y13981D01*
X611459Y13981D02*
X614393D01*
X587971Y13845D02*
X591630Y13845D01*
X611398D02*
X614393Y13845D01*
X587971Y13710D02*
X591630Y13710D01*
X611421D02*
X614393Y13710D01*
X485763Y25920D02*
X487660D01*
X485898Y25784D02*
X487795Y25784D01*
X486169Y25649D02*
X487931D01*
X486169Y25513D02*
X488066D01*
X486440Y25378D02*
X488202D01*
X486440Y25242D02*
X488202D01*
X486576Y25107D02*
X488202Y25107D01*
X486576Y24971D02*
X488337D01*
X486711Y24836D02*
X488473Y24836D01*
X497416Y24836D02*
X498364Y24836D01*
X486847Y24700D02*
X488473D01*
X497416D02*
X498499D01*
X486847Y24565D02*
X488744D01*
X497416D02*
X499041D01*
X486982Y24429D02*
X488744Y24429D01*
X497416D02*
X499177D01*
X487118Y24294D02*
X488879D01*
X497687D02*
X499448D01*
X487118Y24158D02*
X489015D01*
X497687D02*
X499583D01*
X487118Y24023D02*
X489286Y24023D01*
X497957D02*
X499990D01*
X487253Y23887D02*
X489286D01*
X498093D02*
X500125D01*
X487389Y23752D02*
X489286D01*
X498228Y23752D02*
X500396D01*
X487389Y23616D02*
X489421D01*
X498364D02*
X500532D01*
X487389Y23481D02*
X489557D01*
X487389Y23345D02*
X489692D01*
X487389Y23210D02*
X489828Y23210D01*
X487389Y23075D02*
X489828Y23074D01*
X496331Y18061D02*
X498499Y18061D01*
X496467Y17925D02*
X498499D01*
X496603Y17790D02*
X498499Y17790D01*
X496738Y17655D02*
X498635D01*
X496874Y17519D02*
X498770D01*
X496874Y17384D02*
X498906D01*
X497009Y17248D02*
X499041D01*
X497009Y17112D02*
X499041D01*
X497144Y16977D02*
X499177D01*
X497280Y16841D02*
X499177D01*
X497416Y16706D02*
X499312D01*
X507713Y18061D02*
X509339Y18061D01*
X507849Y17925D02*
X509475D01*
X508255Y17790D02*
X509746D01*
X508391Y17655D02*
X509746D01*
X508797Y17519D02*
X510017D01*
X508933Y17384D02*
X510017Y17384D01*
X509204Y17248D02*
X510017Y17248D01*
X474110Y38115D02*
X476684D01*
X474245Y37979D02*
X477091D01*
X474516Y37844D02*
X477226D01*
X474652Y37708D02*
X477633Y37708D01*
X474923Y37573D02*
X477768D01*
X475058Y37437D02*
X478175D01*
X475329Y37302D02*
X478310Y37302D01*
X475329Y37166D02*
X478717D01*
X475736Y37031D02*
X478852Y37031D01*
X487524D02*
X491183Y37031D01*
X475871Y36895D02*
X479259D01*
X487253D02*
X491183Y36895D01*
X476142Y36760D02*
X479394D01*
X487253Y36760D02*
X491183D01*
X476142Y36624D02*
X479801D01*
X486847Y36624D02*
X491454Y36624D01*
X476549Y36489D02*
X479936D01*
X486711D02*
X491454D01*
X476684Y36353D02*
X480343D01*
X481969D02*
X491454D01*
X481969Y36218D02*
X491454D01*
X476955Y36082D02*
X491454Y36082D01*
X477362Y35947D02*
X491454D01*
X477497Y35811D02*
X491454D01*
X477633Y35676D02*
X491589D01*
X477768Y35540D02*
X491725D01*
X477904Y35405D02*
X491725D01*
X478039Y35269D02*
X491725D01*
X478446Y35134D02*
X491860D01*
X478446Y34998D02*
X491860Y34998D01*
X493350Y31746D02*
X499719D01*
X493621Y31611D02*
X501751D01*
X493757Y31475D02*
X503648Y31475D01*
X494841Y30256D02*
X503106D01*
X494977Y30120D02*
X502971D01*
X495112Y29985D02*
X502293Y29985D01*
X495247Y29849D02*
X502158Y29849D01*
X495247Y29714D02*
X501209D01*
X495383Y29578D02*
X501074D01*
X495654Y29443D02*
X500396D01*
X495654Y29307D02*
X500261D01*
X495925Y29172D02*
X499583D01*
X476684Y29036D02*
X485356D01*
X496060Y29036D02*
X499448Y29036D01*
X475329Y28901D02*
X485492Y28901D01*
X496196D02*
X498499D01*
X475194Y28765D02*
X485492Y28765D01*
X496331D02*
X498364D01*
X473703Y28630D02*
X485763D01*
X473568Y28494D02*
X485763D01*
X473297Y28359D02*
X485763D01*
X473297Y28223D02*
X485898D01*
X473297Y28088D02*
X486034D01*
X473297Y27952D02*
X486034D01*
X476549Y27817D02*
X486169D01*
X476684Y27681D02*
X486305D01*
X475465Y47193D02*
X476684Y47193D01*
X475465Y47057D02*
X476820D01*
X475465Y46922D02*
X476955D01*
X475465Y46786D02*
X477091D01*
X475736Y46651D02*
X477091D01*
X475736Y46515D02*
X477226D01*
X475871Y46380D02*
X477497D01*
X475871Y46245D02*
X477497D01*
X476007Y46109D02*
X477768Y46109D01*
X476007Y45974D02*
X477904D01*
X476278Y45838D02*
X477904D01*
X476278Y45703D02*
X477904Y45703D01*
X476413Y45567D02*
X478039D01*
X476413Y45431D02*
X478175D01*
X476549Y45296D02*
X478310D01*
X476549Y45160D02*
X478446D01*
X532087Y11000D02*
X535474D01*
X528538Y10999D02*
X531660D01*
X529063Y13168D02*
X532451D01*
X529063Y13032D02*
X532315D01*
X529063Y12897D02*
X532315Y12897D01*
X528792Y12084D02*
X532180Y12084D01*
X528792Y11948D02*
X532180D01*
X528792Y11813D02*
X532044D01*
X528521Y10864D02*
X535432D01*
X528521Y10729D02*
X535432D01*
X528521Y10594D02*
X531773D01*
X532087D02*
X535474D01*
X528521Y10458D02*
X531773Y10458D01*
X532087D02*
X535474D01*
X528521Y10323D02*
X531773D01*
X532087D02*
X535474D01*
X528521Y10187D02*
X531773D01*
X532087D02*
X535474D01*
X528250Y10051D02*
X531773Y10052D01*
X532087Y10051D02*
X535610D01*
X528250Y9916D02*
X531773Y9916D01*
X532087Y9916D02*
X535610Y9916D01*
X528250Y9780D02*
X531773D01*
X528250Y9645D02*
X531773Y9645D01*
X528250Y9510D02*
X531638D01*
X528250Y9374D02*
X531638D01*
X528250Y9238D02*
X531638D01*
X528250Y9103D02*
X531638D01*
X528250Y8967D02*
X531638D01*
X528250Y8832D02*
X531502D01*
X527979Y8697D02*
X531502D01*
X527979Y8561D02*
X531502Y8561D01*
X527979Y8426D02*
X531502D01*
X527979Y8290D02*
X531502D01*
X527844Y8155D02*
X531367D01*
X527844Y8019D02*
X531367D01*
X527844Y7884D02*
X531502D01*
X527979Y7748D02*
X531502D01*
X527979Y7613D02*
X531502Y7613D01*
X527979Y7477D02*
X531367D01*
X533984Y7342D02*
X534119D01*
X542514Y8423D02*
X545838Y8423D01*
X543598Y13439D02*
X546850D01*
X543462Y13304D02*
X546850Y13304D01*
X543462Y13168D02*
X546850D01*
X543462Y13032D02*
X546850Y13032D01*
X543327Y12897D02*
X546850Y12897D01*
X543327Y12761D02*
X546850D01*
X543327Y12626D02*
X546850Y12626D01*
X543327Y12491D02*
X546579Y12490D01*
X543327Y12355D02*
X546579Y12355D01*
X543327Y12220D02*
X546579D01*
X543327Y12084D02*
X546579D01*
X543191Y11948D02*
X546579Y11948D01*
X543191Y11813D02*
X546579Y11813D01*
X543191Y11678D02*
X546579Y11678D01*
X543191Y11542D02*
X546579Y11542D01*
X543056Y11407D02*
X546308Y11407D01*
X543056Y11271D02*
X546308D01*
X543056Y11135D02*
X546308D01*
X543056Y11000D02*
X546308Y11000D01*
X542920Y10864D02*
X546308D01*
X542920Y10729D02*
X546308Y10729D01*
X537371Y10594D02*
X539810D01*
X542920D02*
X546308D01*
X537380Y10458D02*
X539810D01*
X542920D02*
X546308Y10458D01*
X537159Y10323D02*
X539810D01*
X542785D02*
X546308Y10323D01*
X536767Y10187D02*
X539810D01*
X542785D02*
X546308D01*
X536423Y10051D02*
X539810D01*
X542785D02*
X546037Y10051D01*
X542785Y9916D02*
X546037D01*
X542785Y9780D02*
X546037D01*
X542785Y9645D02*
X546037Y9645D01*
X542649Y9510D02*
X546037Y9510D01*
X542649Y9374D02*
X546037D01*
X542649Y9238D02*
X546037D01*
X542649Y9103D02*
X546037D01*
X542514Y8967D02*
X546037Y8968D01*
X542378Y8832D02*
X546037D01*
X542378Y8697D02*
X545766D01*
X542514Y8561D02*
X545766Y8561D01*
X542514Y8290D02*
X545766Y8290D01*
X542378Y8155D02*
X545766D01*
X542378Y8019D02*
X545766D01*
X542107Y7884D02*
X545766D01*
X541972Y7748D02*
X545766D01*
X541972Y7613D02*
X545766Y7613D01*
X541972Y7477D02*
X545766D01*
X541972Y7342D02*
X545495D01*
X541972Y7206D02*
X545495D01*
X550779Y7884D02*
X550914Y8019D01*
X549966Y8697D02*
X550102Y8832D01*
X547934Y13439D02*
X551035D01*
X552270D02*
X555521D01*
X547934Y13304D02*
X550914D01*
X552270D02*
X555521Y13304D01*
X547934Y13168D02*
X550914D01*
X552134D02*
X555521D01*
X547934Y13032D02*
X550914D01*
X551998D02*
X555386D01*
X547663Y12897D02*
X550914D01*
X551998D02*
X555386D01*
X547663Y12761D02*
X550914D01*
X551998D02*
X555386D01*
X547663Y12626D02*
X550914Y12626D01*
X551998Y12626D02*
X555386D01*
X547663Y12491D02*
X550914Y12491D01*
X551998Y12490D02*
X555250Y12491D01*
X547663Y12355D02*
X550914D01*
X551998D02*
X555250D01*
X547663Y12220D02*
X550914Y12220D01*
X551998D02*
X555250D01*
X547663Y12084D02*
X550914Y12084D01*
X551863Y12084D02*
X555250Y12084D01*
X547527Y11948D02*
X550644D01*
X551727D02*
X555250Y11948D01*
X547527Y11813D02*
X550779D01*
X551727D02*
X555250D01*
X547527Y11678D02*
X550779D01*
X551727Y11678D02*
X555115D01*
X547527Y11542D02*
X550644Y11542D01*
X551727Y11542D02*
X555115D01*
X547392Y11407D02*
X550644D01*
X551727D02*
X555115D01*
X547392Y11271D02*
X550644Y11271D01*
X551727D02*
X555115D01*
X547392Y11135D02*
X550644D01*
X551727D02*
X554979D01*
X547392Y11000D02*
X550644Y11000D01*
X551592Y11000D02*
X554979Y11000D01*
X547392Y10864D02*
X550508D01*
X551727D02*
X554979D01*
X547392Y10729D02*
X550508D01*
X551592D02*
X554979D01*
X547256Y10594D02*
X550508D01*
X551456Y10594D02*
X554844Y10594D01*
X547256Y10458D02*
X550373Y10458D01*
X551456Y10458D02*
X554844D01*
X547256Y10323D02*
X550373Y10323D01*
X551456Y10323D02*
X554844D01*
X547256Y10187D02*
X550373D01*
X551456D02*
X554844D01*
X551456Y10051D02*
X554708D01*
X551456Y9916D02*
X554708D01*
X551456Y9780D02*
X554708D01*
X551321Y9645D02*
X554708D01*
X551185Y9510D02*
X554708Y9510D01*
X551185Y9374D02*
X554708D01*
X551185Y9238D02*
X554573D01*
X551185Y9103D02*
X554437D01*
X551185Y8967D02*
X554437Y8968D01*
X551185Y8832D02*
X554437D01*
X551185Y8697D02*
X554437D01*
X551185Y8561D02*
X554437D01*
X551185Y8426D02*
X554437D01*
X551013Y8290D02*
X554437Y8290D01*
X550914Y8155D02*
X554302D01*
X550914Y8019D02*
X554302Y8019D01*
X550779Y7884D02*
X554302Y7884D01*
X550779Y7748D02*
X554302D01*
X550779Y7613D02*
X554166D01*
X554437D02*
X557825Y7613D01*
X550779Y7477D02*
X554166Y7477D01*
X554302D02*
X557825D01*
X550914Y7342D02*
X554166D01*
X554302D02*
X557825D01*
X550914Y7206D02*
X554166D01*
X554437D02*
X557825D01*
X564602Y13439D02*
X567490D01*
X564448Y13168D02*
X567273D01*
X559550Y13439D02*
X562938Y13439D01*
X559550Y13304D02*
X562938D01*
X564467D02*
X567273D01*
X559550Y13168D02*
X562938D01*
X559550Y13032D02*
X562938D01*
X559550Y12897D02*
X562938D01*
X559550Y12761D02*
X562938D01*
X559415Y12626D02*
X562938D01*
X559279Y12491D02*
X562667Y12490D01*
X559279Y12355D02*
X562667Y12355D01*
X559279Y12220D02*
X562667D01*
X559279Y12084D02*
X562667D01*
X559279Y11948D02*
X562667D01*
X559279Y11813D02*
X562667D01*
X559279Y11678D02*
X562667D01*
X559279Y11542D02*
X562667D01*
X559279Y11407D02*
X562667Y11407D01*
X559144Y11271D02*
X562667D01*
X559008Y11135D02*
X562396D01*
X559008Y11000D02*
X562396D01*
X559008Y10864D02*
X562396Y10864D01*
X563615Y10864D02*
X566731Y10864D01*
X559008Y10729D02*
X562396Y10729D01*
X563479D02*
X566731D01*
X559008Y10594D02*
X562396D01*
X563344D02*
X566731Y10594D01*
X559008Y10458D02*
X562396Y10458D01*
X563344Y10458D02*
X566731Y10458D01*
X559008Y10323D02*
X562396D01*
X563344D02*
X566731Y10323D01*
X559008Y10187D02*
X562396D01*
X563344D02*
X566731D01*
X559008Y10051D02*
X562396D01*
X563344Y10051D02*
X566731D01*
X559008Y9916D02*
X562396Y9916D01*
X563344D02*
X566731D01*
X559008Y9780D02*
X562396D01*
X559008Y9645D02*
X562396Y9645D01*
X559008Y9510D02*
X566460Y9510D01*
X559008Y9374D02*
X566460D01*
X559008Y9238D02*
X566460D01*
X559008Y9103D02*
X566460D01*
X559008Y8967D02*
X566460Y8968D01*
X559008Y8832D02*
X566460D01*
X559279Y8697D02*
X566460Y8697D01*
X559279Y8561D02*
X566054Y8561D01*
X559396Y8426D02*
X565918D01*
X559495Y8290D02*
X565783D01*
X559550Y8155D02*
X565647D01*
X559686Y8019D02*
X565647D01*
X559821Y7884D02*
X565376D01*
X559957Y7748D02*
X565512D01*
X560092Y7613D02*
X564970Y7613D01*
X560228Y7477D02*
X564970Y7477D01*
X560634Y7342D02*
X564292D01*
X560770Y7206D02*
X564157D01*
X561447Y7071D02*
X563209Y7071D01*
X563479D02*
X563750Y7071D01*
X561582Y6935D02*
X563073Y6935D01*
X573880Y13439D02*
X577403Y13439D01*
X573880Y13304D02*
X577403Y13304D01*
X573880Y13168D02*
X577403Y13168D01*
X573880Y13032D02*
X577403Y13032D01*
X573880Y12897D02*
X577403Y12897D01*
X573880Y12761D02*
X577132D01*
X573880Y12626D02*
X577132Y12626D01*
X573744Y12491D02*
X577132D01*
X573744Y12355D02*
X577132D01*
X573744Y12220D02*
X577132D01*
X573609Y12084D02*
X577132D01*
X573609Y11948D02*
X577132D01*
X573609Y11813D02*
X577132Y11813D01*
X573609Y11678D02*
X576861Y11678D01*
X573609Y11542D02*
X576861D01*
X573609Y11407D02*
X576861D01*
X573609Y11271D02*
X576861D01*
X573473Y11135D02*
X576861D01*
X573473Y11000D02*
X576861D01*
X573473Y10864D02*
X576861D01*
X573473Y10729D02*
X576861D01*
X573338Y10594D02*
X576861D01*
X573338Y10458D02*
X576861D01*
X573338Y10323D02*
X576590D01*
X573338Y10187D02*
X576590D01*
X573338Y10051D02*
X576590D01*
X573338Y9916D02*
X576725Y9916D01*
X573338Y9780D02*
X576861D01*
X573338Y9645D02*
X576996D01*
X574693Y7613D02*
X579300D01*
X574693Y7477D02*
X579300D01*
X575235Y7342D02*
X578758D01*
X575235Y7206D02*
X578758D01*
X569408Y7071D02*
X570086D01*
X576048D02*
X577674D01*
X576048Y6935D02*
X577674D01*
X582010Y13439D02*
X586210D01*
X582010Y13304D02*
X586345D01*
X582010Y13168D02*
X586481D01*
X582010Y13032D02*
X586616D01*
X582010Y12897D02*
X586616Y12897D01*
X582281Y12761D02*
X586616D01*
X582281Y12626D02*
X586752D01*
X582281Y12491D02*
X586887D01*
X582281Y12355D02*
X587023Y12355D01*
X582551Y12220D02*
X587158D01*
X582551Y12084D02*
X587294D01*
X582822Y11948D02*
X587294D01*
X582822Y11813D02*
X587158D01*
X583093Y11678D02*
X587294D01*
X583093Y11542D02*
X587294Y11542D01*
X581332Y10729D02*
X581739Y10729D01*
X583500Y9780D02*
X587294D01*
X583364Y9645D02*
X587294D01*
X580925Y8967D02*
X587023D01*
X580925Y8832D02*
X586887D01*
X580654Y8697D02*
X586887Y8697D01*
X580654Y8561D02*
X586887D01*
X580654Y8426D02*
X586752D01*
X580654Y8290D02*
X586685D01*
X580926Y8155D02*
X586597D01*
X580925Y8019D02*
X586345D01*
X581197Y7884D02*
X586210D01*
X581197Y7748D02*
X586074D01*
X581468Y7613D02*
X585803Y7613D01*
X581468Y7477D02*
X585803D01*
X586616D02*
X587158Y7477D01*
X581739Y7342D02*
X585261D01*
X586616D02*
X587429D01*
X581739Y7206D02*
X585261D01*
X586616D02*
X587700D01*
X582551Y7071D02*
X584584D01*
X584720D02*
X584855D01*
X586596D02*
X588242D01*
X582551Y6935D02*
X584449D01*
X586621D02*
X588378Y6935D01*
X586693Y6800D02*
X589326D01*
X588242Y4361D02*
X588649D01*
X592443Y13439D02*
X595966D01*
X596237D02*
X600708D01*
X592307Y13304D02*
X595966Y13304D01*
X596237Y13304D02*
X600852D01*
X592307Y13168D02*
X595966D01*
X596237D02*
X600844D01*
X592307Y13032D02*
X595695D01*
X596508D02*
X600844Y13032D01*
X592307Y12897D02*
X595695Y12897D01*
X596508Y12897D02*
X600979D01*
X592307Y12761D02*
X595695D01*
X596611D02*
X601115D01*
X592307Y12626D02*
X595695D01*
X592307Y12491D02*
X595695D01*
X592307Y12355D02*
X595695D01*
X592307Y12220D02*
X595602D01*
X592172Y12084D02*
X595514Y12084D01*
X592036Y11948D02*
X595424D01*
X592036Y11813D02*
X595424D01*
X592036Y11678D02*
X595424Y11678D01*
X592036Y11542D02*
X595424D01*
X592036Y11407D02*
X595424Y11407D01*
X592036Y11271D02*
X595424D01*
X592036Y11135D02*
X595424D01*
X592036Y11000D02*
X595424Y11000D01*
X591765Y10864D02*
X595424Y10864D01*
X591765Y10729D02*
X595966D01*
X591765Y10594D02*
X595153D01*
X595424D02*
X595966Y10594D01*
X591765Y10458D02*
X595153D01*
X595288D02*
X595966D01*
X591630Y10323D02*
X595153D01*
X595288D02*
X596237D01*
X591494Y10187D02*
X595153D01*
X595424D02*
X596237D01*
X595424Y10051D02*
X596508D01*
X595288Y9916D02*
X596508D01*
X595288Y9780D02*
X596914D01*
X595288Y9645D02*
X597050D01*
X595017Y8697D02*
X601115D01*
X595017Y8561D02*
X601115D01*
X595017Y8426D02*
X601115Y8425D01*
X595017Y8290D02*
X601115D01*
X595017Y8155D02*
X600844Y8155D01*
X595153Y8019D02*
X600708Y8019D01*
X591223Y7884D02*
X594611Y7884D01*
X595288Y7884D02*
X600573Y7884D01*
X591223Y7748D02*
X594611D01*
X595424D02*
X600573D01*
X591223Y7613D02*
X594611D01*
X595695Y7613D02*
X600031Y7613D01*
X591093Y7477D02*
X594611D01*
X595695D02*
X599895D01*
X591143Y7342D02*
X594611D01*
X596101D02*
X599760D01*
X590952Y7206D02*
X594611Y7206D01*
X596237D02*
X599624D01*
X590817Y7071D02*
X594340D01*
X596914D02*
X598676D01*
X590681Y6935D02*
X594340Y6935D01*
X597050Y6935D02*
X598676Y6935D01*
X590952Y4361D02*
X591088D01*
X601386Y8697D02*
X605451Y8697D01*
X602199Y13439D02*
X605722Y13439D01*
X606535Y13439D02*
X609838Y13439D01*
X602199Y13304D02*
X605451D01*
X606535D02*
X609786Y13304D01*
X602199Y13168D02*
X605451D01*
X602199Y13032D02*
X605586D01*
X602199Y12897D02*
X605451D01*
X602063Y12761D02*
X605451D01*
X602063Y12626D02*
X605451Y12626D01*
X602063Y12491D02*
X605451Y12490D01*
X601928Y12355D02*
X605451D01*
X601928Y12220D02*
X605451D01*
X601928Y12084D02*
X605451D01*
X601928Y11948D02*
X605179D01*
X601928Y11813D02*
X605179D01*
X601792Y11678D02*
X605179D01*
X601792Y11542D02*
X605179Y11542D01*
X601928Y11407D02*
X605179Y11407D01*
X601792Y11271D02*
X605180Y11271D01*
X605993Y10864D02*
X609515Y10864D01*
X605993Y10729D02*
X609515D01*
X605993Y10594D02*
X609380Y10594D01*
X605993Y10458D02*
X609244D01*
X605993Y10323D02*
X609244D01*
X605993Y10187D02*
X609244D01*
X605993Y10051D02*
X609244D01*
X605993Y9916D02*
X609380D01*
X605315Y9780D02*
X605586D01*
X605857D02*
X609515D01*
X605179Y9645D02*
X605722D01*
X605857D02*
X609515Y9645D01*
X605179Y9510D02*
X605722Y9510D01*
X601386Y8561D02*
X605451D01*
X601386Y8426D02*
X605451D01*
X601386Y8290D02*
X605451D01*
X601386Y8155D02*
X605451D01*
X601386Y8019D02*
X605451D01*
X601596Y7884D02*
X605179D01*
X601657Y7748D02*
X605179D01*
X601928Y7613D02*
X605179D01*
X606805D02*
X611954D01*
X601928Y7477D02*
X605179Y7477D01*
X606805Y7477D02*
X611680D01*
X601928Y7342D02*
X604638D01*
X607618D02*
X611412D01*
X601928Y7206D02*
X604638D01*
X607754Y7206D02*
X611412D01*
X602741Y7071D02*
X603825Y7071D01*
X608432Y7071D02*
X610464D01*
X602741Y6935D02*
X603825Y6935D01*
X608432Y6935D02*
X610328Y6935D01*
X614664Y13439D02*
X618052D01*
X619000D02*
X622117D01*
X614664Y13304D02*
X618052D01*
X619000D02*
X622117D01*
X614529Y13168D02*
X618052D01*
X619000D02*
X622117D01*
X614393Y13032D02*
X618052Y13032D01*
X619000Y13032D02*
X622117D01*
X614393Y12897D02*
X617916Y12897D01*
X618865Y12897D02*
X622117D01*
X614393Y12761D02*
X617781D01*
X618729D02*
X622117D01*
X614393Y12626D02*
X617781D01*
X618729D02*
X622117D01*
X614393Y12490D02*
X617781Y12491D01*
X618729Y12490D02*
X622117Y12491D01*
X614393Y12355D02*
X617781D01*
X618729Y12355D02*
X622117D01*
X614393Y12220D02*
X617781D01*
X618729D02*
X621846D01*
X614393Y12084D02*
X617781D01*
X618729D02*
X621846D01*
X614393Y11948D02*
X617781D01*
X618729D02*
X621846D01*
X614258Y11813D02*
X617645D01*
X618594D02*
X621846D01*
X614122Y11678D02*
X617510D01*
X618458Y11678D02*
X621846D01*
X614122Y11542D02*
X617510D01*
X618458D02*
X621846D01*
X614122Y11407D02*
X617510Y11407D01*
X618458Y11407D02*
X621846D01*
X614122Y11271D02*
X617510D01*
X618458D02*
X621846Y11271D01*
X614122Y11135D02*
X617510D01*
X618458D02*
X621575D01*
X614122Y11000D02*
X617510D01*
X618458D02*
X621575D01*
X613309Y10864D02*
X613851Y10864D01*
X614122Y10864D02*
X617510D01*
X618458D02*
X621575Y10864D01*
X613445Y10729D02*
X613851D01*
X613987D02*
X617510D01*
X618458D02*
X621575D01*
X613445Y10594D02*
X617510D01*
X618458D02*
X621575D01*
X613445Y10458D02*
X617374D01*
X618458Y10458D02*
X621575Y10458D01*
X613851Y10323D02*
X617239D01*
X618187D02*
X621575D01*
X613851Y10187D02*
X617239D01*
X618187D02*
X621575D01*
X613851Y10051D02*
X617239D01*
X618187Y10051D02*
X621575Y10051D01*
X613851Y9916D02*
X617239D01*
X618187D02*
X621575D01*
X613851Y9780D02*
X617239D01*
X618187D02*
X621304D01*
X613851Y9645D02*
X617239D01*
X618187Y9645D02*
X621304Y9645D01*
X613851Y9510D02*
X617239D01*
X618187D02*
X621304D01*
X613851Y9374D02*
X617239D01*
X618187D02*
X621304D01*
X613580Y9238D02*
X617239D01*
X618187D02*
X621304D01*
X613580Y9103D02*
X617103D01*
X618187D02*
X621304D01*
X613580Y8967D02*
X616968D01*
X617916D02*
X621304Y8968D01*
X613580Y8832D02*
X616968D01*
X617916D02*
X621304D01*
X613580Y8697D02*
X616968Y8697D01*
X617916Y8697D02*
X621033Y8697D01*
X613580Y8561D02*
X616968D01*
X617916Y8561D02*
X621033Y8561D01*
X613580Y8426D02*
X616968D01*
X617916D02*
X621033D01*
X613580Y8290D02*
X616968D01*
X617916D02*
X621033D01*
X613580Y8155D02*
X616887D01*
X617916D02*
X621033D01*
X613580Y8019D02*
X616927Y8019D01*
X617916Y8019D02*
X621033D01*
X613433Y7884D02*
X616877Y7884D01*
X617916D02*
X621033Y7884D01*
X613393Y7748D02*
X616832D01*
X617916D02*
X621033D01*
X613309Y7613D02*
X616697Y7613D01*
X617916D02*
X621033D01*
X613309Y7477D02*
X616697D01*
X617916D02*
X621033Y7477D01*
X613309Y7342D02*
X616697D01*
X617916D02*
X620762D01*
X613309Y7206D02*
X616697D01*
X617916D02*
X620762D01*
X623201Y13439D02*
X631195D01*
X623065Y13304D02*
X626724D01*
X626859D02*
X631330D01*
X623065Y13168D02*
X626724D01*
X626995D02*
X631330D01*
X623065Y13032D02*
X626453Y13032D01*
X626995D02*
X631330D01*
X623065Y12897D02*
X626453Y12897D01*
X626995Y12897D02*
X631466Y12897D01*
X623065Y12761D02*
X626453D01*
X626995D02*
X631601D01*
X623065Y12626D02*
X626453Y12626D01*
X626995D02*
X631737Y12626D01*
X623065Y12491D02*
X626453Y12490D01*
X627130Y12491D02*
X631872D01*
X627266Y12355D02*
X631872D01*
X627537Y12220D02*
X631872D01*
X627537Y12084D02*
X632008Y12084D01*
X627808Y11948D02*
X632144D01*
X627808Y11813D02*
X632144Y11813D01*
X627808Y11678D02*
X632144Y11678D01*
X627808Y11542D02*
X632279D01*
X628079Y11407D02*
X632144Y11407D01*
X628079Y11271D02*
X632279D01*
X628350Y11135D02*
X632415D01*
X628350Y11000D02*
X632415D01*
X626046Y10864D02*
X626182Y10864D01*
X628349D02*
X632415D01*
X628349Y10729D02*
X632415D01*
X628621Y10594D02*
X632415D01*
X626046Y10458D02*
X626724Y10458D01*
X628621D02*
X632415D01*
X628621Y10323D02*
X632144Y10323D01*
X628648Y10187D02*
X632144D01*
X628620Y10051D02*
X632279Y10051D01*
X628485Y9916D02*
X632279Y9916D01*
X628350Y9780D02*
X632279D01*
X628214Y9645D02*
X632144D01*
X625775Y9510D02*
X632144D01*
X625775Y9374D02*
X632144D01*
X625775Y9239D02*
X632144Y9238D01*
X625775Y9103D02*
X632144Y9103D01*
X625640Y8155D02*
X631330D01*
X625640Y8019D02*
X631330D01*
X625775Y7884D02*
X631059D01*
X625911Y7748D02*
X631059D01*
X626182Y7613D02*
X630518Y7613D01*
X626182Y7477D02*
X630518D01*
X626588Y7342D02*
X630247D01*
X626724Y7206D02*
X630247D01*
X627537Y7071D02*
X629162D01*
X627537Y6935D02*
X629162Y6935D01*
X529063Y17775D02*
X530554D01*
X528928Y17639D02*
X530689D01*
X527979Y17504D02*
X531231Y17504D01*
X527708Y17368D02*
X531502Y17368D01*
X527573Y17233D02*
X531773D01*
X527437Y17097D02*
X531773D01*
X529199Y14929D02*
X532722Y14929D01*
X529334Y14794D02*
X532586Y14794D01*
X529334Y14658D02*
X532586D01*
X529334Y14523D02*
X532586Y14523D01*
X529334Y14387D02*
X532586Y14387D01*
X529334Y14252D02*
X532586D01*
X529063Y13710D02*
X536109Y13710D01*
X538036Y14532D02*
X540610Y14532D01*
X538049Y14668D02*
X540623D01*
X538049Y14805D02*
X540623D01*
X538184Y14932D02*
X540623Y14932D01*
X538049Y13710D02*
X540623D01*
X538049Y13845D02*
X540623D01*
X538049Y13981D02*
X540623Y13981D01*
X538049Y14116D02*
X540623Y14116D01*
X538049Y14252D02*
X540623D01*
X498499Y15487D02*
X500261D01*
X498499Y15351D02*
X500261D01*
X498635Y15216D02*
X500396D01*
X498770Y15080D02*
X500532D01*
X498906Y14945D02*
X500532D01*
X499041Y14809D02*
X500667D01*
X499177Y14674D02*
X500803Y14674D01*
X499312Y14538D02*
X500938Y14538D01*
X499312Y14403D02*
X500938D01*
X499448Y14267D02*
X501209D01*
X499448Y14132D02*
X501209D01*
X499719Y13996D02*
X501345Y13996D01*
X499854Y13861D02*
X501345D01*
X499990Y13725D02*
X501480D01*
X500125Y13590D02*
X501616D01*
X500261Y13454D02*
X501616D01*
X500396Y13319D02*
X501751D01*
X500396Y13183D02*
X501887Y13183D01*
X500532Y13048D02*
X501887Y13048D01*
X500667Y12912D02*
X502022D01*
X500803Y12777D02*
X502158D01*
X500938Y12641D02*
X502293Y12641D01*
X501074Y12506D02*
X502293Y12506D01*
X501074Y12370D02*
X502564D01*
X501345Y12235D02*
X502564D01*
X501345Y12099D02*
X502700D01*
X501616Y11964D02*
X502700D01*
X501616Y11828D02*
X502835D01*
X501751Y11693D02*
X502971Y11693D01*
X501887Y11557D02*
X502971Y11557D01*
X502158Y11422D02*
X503106D01*
X502158Y11286D02*
X503377Y11286D01*
X502293Y11151D02*
X503513D01*
X502429Y11015D02*
X503513D01*
X502429Y10880D02*
X503513D01*
X502564Y10744D02*
X503648D01*
X502700Y10609D02*
X503784Y10609D01*
X502835Y10473D02*
X504055Y10473D01*
X502971Y10338D02*
X504055Y10338D01*
X503106Y10202D02*
X504055D01*
X503242Y10067D02*
X504055D01*
X503377Y9931D02*
X504055D01*
X503648Y9796D02*
X504055D01*
X543598Y13845D02*
X546850Y13845D01*
X543598Y13710D02*
X546850Y13710D01*
X555115Y16420D02*
X555250Y16284D01*
X554302Y17233D02*
X554437Y17097D01*
X556876Y17775D02*
X557147Y17504D01*
X556876Y17910D02*
X557147Y17639D01*
X547392Y17504D02*
X549153D01*
X551863Y17504D02*
X553895D01*
X547392Y17368D02*
X549288D01*
X551727Y17368D02*
X553895D01*
X550779Y17233D02*
X554302D01*
X550644Y17097D02*
X554437Y17097D01*
X550508Y16962D02*
X554708D01*
X548204Y14658D02*
X551456Y14658D01*
X552270D02*
X555521D01*
X548069Y14523D02*
X551456Y14523D01*
X552270Y14523D02*
X555521Y14523D01*
X548069Y14387D02*
X551456D01*
X552270Y14387D02*
X555521Y14387D01*
X547934Y14252D02*
X551456D01*
X552270D02*
X555521D01*
X547934Y14116D02*
X551185Y14116D01*
X552270D02*
X555521D01*
X547934Y13981D02*
X551185D01*
X552270Y13981D02*
X555521D01*
X547934Y13845D02*
X551185Y13845D01*
X552270Y13845D02*
X555521Y13845D01*
X547934Y13710D02*
X551157Y13710D01*
X552270D02*
X555521D01*
X564620D02*
X567526D01*
X564638Y13710D02*
X567526Y13710D01*
X564638Y13845D02*
X567544Y13845D01*
X559857Y16555D02*
X559993Y16691D01*
X562938Y17504D02*
X565241D01*
X562802Y17368D02*
X565376D01*
X561853Y17233D02*
X566054D01*
X559586Y17097D02*
X560128D01*
X561853D02*
X566189D01*
X561582Y16962D02*
X566325D01*
X561447Y16826D02*
X566460D01*
X561040Y16691D02*
X566867Y16691D01*
X561040Y16555D02*
X567002D01*
X560770Y16420D02*
X567002D01*
X560770Y16284D02*
X567002Y16284D01*
X560550Y16149D02*
X567129D01*
X560363Y16013D02*
X567273Y16013D01*
X560363Y15878D02*
X567273D01*
X560363Y15742D02*
X567273D01*
X560092Y15607D02*
X567680D01*
X560092Y15471D02*
X567680Y15471D01*
X560092Y15336D02*
X567680Y15336D01*
X560092Y15200D02*
X567544D01*
X559957Y15065D02*
X567544D01*
X559821Y14929D02*
X567544Y14929D01*
X559821Y14794D02*
X567544D01*
X559821Y14658D02*
X563479D01*
X564521D02*
X567544D01*
X559821Y14523D02*
X563344D01*
X564742Y14523D02*
X567544Y14523D01*
X559821Y14387D02*
X563209D01*
X564686D02*
X567544D01*
X559821Y14252D02*
X563209D01*
X564645D02*
X567544D01*
X559821Y14116D02*
X563209D01*
X564588D02*
X567544D01*
X559686Y13981D02*
X563190Y13981D01*
X564638Y13981D02*
X567544D01*
X559550Y13845D02*
X563114Y13845D01*
X564656Y13845D02*
X567544Y13845D01*
X559550Y13710D02*
X563042Y13710D01*
X571983Y17504D02*
X573744Y17504D01*
X570899Y17368D02*
X571305D01*
X571983Y17368D02*
X573880D01*
X570899Y17233D02*
X574286D01*
X570899Y17097D02*
X574422D01*
X570899Y16962D02*
X574693Y16962D01*
X570899Y16826D02*
X574693D01*
X570357Y16691D02*
X574693D01*
X570357Y16555D02*
X574693D01*
X569815Y16284D02*
X574964Y16284D01*
X571983Y14387D02*
X577674D01*
X571983Y14252D02*
X577674D01*
X572254Y14116D02*
X577403Y14116D01*
X572254Y13981D02*
X574015D01*
X574151D02*
X577403D01*
X574151Y13845D02*
X577403D01*
X574151Y13710D02*
X577403Y13710D01*
X584042Y17233D02*
X588649D01*
X583907Y17097D02*
X588649D01*
X583390Y16962D02*
X588649Y16962D01*
X583093Y16826D02*
X588649Y16826D01*
X582958Y16691D02*
X588649Y16691D01*
X582822Y16555D02*
X588378Y16555D01*
X582687Y16420D02*
X588378Y16420D01*
X582551Y16284D02*
X588378D01*
X582281Y16149D02*
X588242D01*
X582281Y16013D02*
X588242D01*
X582010Y15878D02*
X588242Y15878D01*
X582010Y15742D02*
X588242Y15742D01*
X582010Y15607D02*
X588242D01*
X582010Y15471D02*
X588107Y15471D01*
X593256Y17233D02*
X596508D01*
X593120Y17097D02*
X596508Y17097D01*
X593120Y16962D02*
X596508D01*
X593120Y16826D02*
X596508D01*
X593120Y16691D02*
X596508Y16691D01*
X593120Y16555D02*
X596508D01*
X593120Y16420D02*
X596508D01*
X593120Y16284D02*
X596508D01*
X593120Y16149D02*
X596508D01*
X593120Y16013D02*
X596508D01*
X592849Y15607D02*
X596372D01*
X592849Y15471D02*
X596237D01*
X592849Y15336D02*
X596237D01*
X592849Y14658D02*
X600031D01*
X592714Y14523D02*
X599895Y14523D01*
X592578Y14387D02*
X595966Y14387D01*
X596237D02*
X599760D01*
X592578Y14252D02*
X595966D01*
X596237D02*
X599895D01*
X592578Y14116D02*
X595966D01*
X596237Y14116D02*
X600031D01*
X592578Y13981D02*
X595966D01*
X596237D02*
X600166D01*
X592578Y13845D02*
X595966D01*
X596237Y13845D02*
X600302Y13845D01*
X592578Y13710D02*
X595966D01*
X596237Y13710D02*
X600437Y13710D01*
X603554Y19672D02*
X606805D01*
X603554Y19536D02*
X606805Y19536D01*
X603554Y19401D02*
X606805Y19401D01*
X603554Y19265D02*
X606805D01*
X603554Y19130D02*
X606805D01*
X603418Y18994D02*
X606805Y18994D01*
X603418Y18859D02*
X606805D01*
X603418Y18723D02*
X606805D01*
X603283Y18588D02*
X606805Y18588D01*
X603283Y18452D02*
X606805Y18452D01*
X603283Y18317D02*
X606805Y18317D01*
X603283Y18181D02*
X606535D01*
X603283Y18046D02*
X606535Y18046D01*
X603283Y17910D02*
X606535D01*
X603283Y17775D02*
X606535D01*
X603283Y17639D02*
X606535D01*
X602470Y17504D02*
X606535D01*
X602470Y17368D02*
X606535D01*
X603012Y17233D02*
X607465D01*
X603012Y17097D02*
X607393Y17097D01*
X603012Y16962D02*
X607212D01*
X603012Y16826D02*
X607212Y16826D01*
X603012Y16691D02*
X607184Y16691D01*
X603012Y16555D02*
X607129D01*
X603012Y16420D02*
X607076D01*
X603012Y16284D02*
X607212D01*
X602741Y16013D02*
X607212D01*
X602741Y15878D02*
X607076Y15878D01*
X602741Y15742D02*
X607076D01*
X602741Y15471D02*
X606805D01*
X602741Y15336D02*
X606805D01*
X602605Y15200D02*
X606805D01*
X602605Y15065D02*
X606805D01*
X602741Y14929D02*
X606805Y14929D01*
X602063Y14658D02*
X605993D01*
X606535Y14658D02*
X610328Y14658D01*
X602199Y14523D02*
X602334Y14523D01*
X602470Y14523D02*
X605993Y14523D01*
X606805D02*
X610328Y14523D01*
X602470Y14387D02*
X605722D01*
X606805Y14387D02*
X610189D01*
X602470Y14252D02*
X605722D01*
X606805D02*
X610128D01*
X602334Y14116D02*
X605722Y14116D01*
X606670D02*
X610057Y14116D01*
X602334Y13981D02*
X605722D01*
X606670Y13981D02*
X610057D01*
X602334Y13845D02*
X605722D01*
X606805Y13845D02*
X610020Y13845D01*
X602199Y13710D02*
X605722Y13710D01*
X606673D02*
X609906D01*
X618594Y17504D02*
X620355D01*
X618458Y17368D02*
X620491D01*
X617781Y17233D02*
X620897D01*
X617645Y17097D02*
X621033Y17097D01*
X617239Y16962D02*
X621168Y16962D01*
X614935Y14658D02*
X618458D01*
X619136D02*
X622659Y14658D01*
X614935Y14523D02*
X618458Y14523D01*
X619136Y14523D02*
X622523Y14523D01*
X614935Y14387D02*
X618187Y14387D01*
X619000Y14387D02*
X622388Y14387D01*
X614800Y14252D02*
X618187D01*
X619000D02*
X622388D01*
X614664Y14116D02*
X618052Y14116D01*
X619000Y14116D02*
X622388D01*
X614664Y13981D02*
X618052D01*
X619000D02*
X622388D01*
X614664Y13845D02*
X618052D01*
X619000Y13845D02*
X622388D01*
X614664Y13710D02*
X618052Y13710D01*
X619000Y13710D02*
X622388D01*
X628892Y17233D02*
X633228D01*
X628892Y17097D02*
X633228Y17097D01*
X628079Y16962D02*
X633228Y16962D01*
X628079Y16826D02*
X633228Y16826D01*
X627672Y16691D02*
X633228Y16691D01*
X627401Y16555D02*
X633228D01*
X627266Y16420D02*
X633228D01*
X627266Y16284D02*
X633228D01*
X627266Y16149D02*
X633228D01*
X627266Y16013D02*
X632957D01*
X626859Y15878D02*
X632957D01*
X626859Y15742D02*
X633092D01*
X626859Y15607D02*
X632957D01*
X626859Y15471D02*
X632957D01*
X626859Y15336D02*
X632957D01*
X626995Y15200D02*
X632957D01*
X623336Y14658D02*
X630518D01*
X623336Y14523D02*
X630518Y14523D01*
X623336Y14387D02*
X630518D01*
X623336Y14252D02*
X630518D01*
X623336Y14116D02*
X630518D01*
X623336Y13981D02*
X630653D01*
X623336Y13845D02*
X630788Y13845D01*
X623336Y13710D02*
X630924D01*
X483324Y27275D02*
X486576D01*
X483459Y27139D02*
X486576Y27139D01*
X484137Y27004D02*
X486847D01*
X484272Y26868D02*
X486847D01*
X484679Y26733D02*
X486982D01*
X484814Y26597D02*
X487118Y26597D01*
X485221Y26462D02*
X487118Y26462D01*
X485221Y26326D02*
X487253D01*
X485492Y26191D02*
X487389D01*
X485627Y26055D02*
X487389D01*
X497416Y25107D02*
X497686Y25107D01*
X497416Y24971D02*
X497957D01*
X487660Y22939D02*
X490099D01*
X487660Y22803D02*
X490234D01*
X487660Y22668D02*
X490234Y22668D01*
X487660Y22532D02*
X490370D01*
X487660Y22397D02*
X490641D01*
X487660Y22261D02*
X490641D01*
X487660Y22126D02*
X490641Y22126D01*
X487660Y21990D02*
X490776Y21990D01*
X494706Y20771D02*
X496603D01*
X494706Y20635D02*
X496603D01*
X494706Y20500D02*
X496874D01*
X494706Y20364D02*
X496874Y20364D01*
X494706Y20229D02*
X497009Y20229D01*
X494706Y20094D02*
X497009D01*
X494977Y19958D02*
X497144D01*
X494977Y19822D02*
X497280D01*
X494977Y19687D02*
X497280Y19687D01*
X495112Y19552D02*
X497280Y19552D01*
X495247Y19416D02*
X497416D01*
X495383Y19281D02*
X497416D01*
X495518Y19145D02*
X497686Y19145D01*
X495518Y19009D02*
X497822Y19009D01*
X495789Y18874D02*
X497822D01*
X495789Y18738D02*
X497822D01*
X495925Y18603D02*
X497957D01*
X495925Y18468D02*
X498093D01*
X496060Y18332D02*
X498228D01*
X496196Y18197D02*
X498228D01*
X503919Y19958D02*
X506629D01*
X498499Y23481D02*
X500938D01*
X498635Y23345D02*
X501074D01*
X498770Y23210D02*
X501480D01*
X498906Y23074D02*
X501480D01*
X499041Y22939D02*
X501887D01*
X499177Y22803D02*
X502022Y22803D01*
X499448Y22668D02*
X502293Y22668D01*
X499583Y22532D02*
X502429D01*
X499854Y22397D02*
X502835Y22397D01*
X499990Y22261D02*
X502971Y22261D01*
X500261Y22126D02*
X503377D01*
X500396Y21990D02*
X503513D01*
X500667Y21855D02*
X503648D01*
X500803Y21720D02*
X503784Y21719D01*
X501074Y21584D02*
X504190D01*
X501209Y21448D02*
X504326D01*
X501480Y21313D02*
X504597D01*
X501616Y21177D02*
X504597D01*
X501887Y21042D02*
X504868D01*
X502022Y20907D02*
X505003D01*
X502429Y20771D02*
X505274Y20771D01*
X502564Y20635D02*
X505410D01*
X502971Y20500D02*
X505681D01*
X503106Y20364D02*
X505816D01*
X503377Y20229D02*
X506087D01*
X503513Y20094D02*
X506223D01*
X504055Y19822D02*
X506629D01*
X504461Y19687D02*
X506900D01*
X504597Y19552D02*
X507036D01*
X505003Y19416D02*
X507442D01*
X505139Y19281D02*
X507713D01*
X505545Y19145D02*
X507713D01*
X505681Y19009D02*
X507849D01*
X506087Y18874D02*
X508255D01*
X506223Y18738D02*
X508391Y18738D01*
X506629Y18603D02*
X508526D01*
X506765Y18468D02*
X508526D01*
X507307Y18332D02*
X508933Y18332D01*
X507307Y18197D02*
X508933Y18197D01*
X509475Y17112D02*
X510017D01*
X481156Y38115D02*
X484408Y38115D01*
X481291Y37979D02*
X484543D01*
X481427Y37844D02*
X484679D01*
X481562Y37708D02*
X484814Y37708D01*
X481698Y37573D02*
X484950D01*
X481698Y37437D02*
X484950D01*
X481698Y37302D02*
X485085Y37302D01*
X481969Y37166D02*
X485356Y37166D01*
X481969Y37031D02*
X485492D01*
X481969Y36895D02*
X485627D01*
X482240Y36760D02*
X485763D01*
X482240Y36624D02*
X485898Y36624D01*
X481969Y36489D02*
X486034D01*
X476955Y36218D02*
X480478Y36218D01*
X478852Y34863D02*
X485221Y34863D01*
X478852Y34727D02*
X485085D01*
X479259Y34592D02*
X484950Y34592D01*
X479259Y34456D02*
X484814Y34456D01*
X479530Y34321D02*
X484543Y34321D01*
X479530Y34185D02*
X484543D01*
X479801Y34050D02*
X484408D01*
X479801Y33914D02*
X484408Y33914D01*
X480207Y33779D02*
X484137Y33779D01*
X480207Y33643D02*
X484137D01*
X480343Y33508D02*
X484137Y33508D01*
X480478Y33372D02*
X484137D01*
X480614Y33237D02*
X484137D01*
X480749Y33101D02*
X484137Y33101D01*
X481020Y32966D02*
X484137D01*
X481020Y32830D02*
X484137D01*
X481291Y32695D02*
X484137Y32695D01*
X481291Y32559D02*
X484137Y32559D01*
X481560Y32424D02*
X483999D01*
X481560Y32288D02*
X483999Y32288D01*
X481562Y32153D02*
X484137D01*
X481698Y32017D02*
X484137Y32017D01*
X481698Y31882D02*
X484137Y31882D01*
X481698Y31746D02*
X484137D01*
X481698Y31611D02*
X484137D01*
X481698Y31475D02*
X484137Y31475D01*
X481698Y31340D02*
X484137D01*
X481562Y31204D02*
X484272D01*
X481562Y31069D02*
X484408D01*
X481427Y30933D02*
X484408D01*
X481291Y30798D02*
X484408Y30798D01*
X481156Y30662D02*
X484408D01*
X480885Y30527D02*
X484679Y30527D01*
X480749Y30391D02*
X484679D01*
X480343Y30256D02*
X484679Y30256D01*
X480207Y30120D02*
X484679D01*
X479801Y29985D02*
X484950Y29985D01*
X479530Y29849D02*
X484950D01*
X478988Y29714D02*
X484950Y29714D01*
X478852Y29578D02*
X484950D01*
X478039Y29443D02*
X485221Y29443D01*
X477768Y29307D02*
X485221D01*
X476955Y29172D02*
X485221Y29172D01*
X480885Y27546D02*
X486576D01*
X492267Y32695D02*
X493350Y32695D01*
X488202Y38115D02*
X490912Y38115D01*
X488066Y37979D02*
X490912D01*
X487931Y37844D02*
X491047D01*
X487931Y37708D02*
X491183D01*
X487931Y37573D02*
X491183D01*
X487795Y37437D02*
X491183D01*
X487660Y37302D02*
X491183Y37302D01*
X487660Y37166D02*
X491183D01*
X487795Y34863D02*
X491996D01*
X487931Y34727D02*
X491996Y34727D01*
X488608Y34592D02*
X492131Y34592D01*
X488744Y34456D02*
X492131D01*
X489421Y34321D02*
X492210D01*
X489421Y34185D02*
X492267D01*
X489828Y34050D02*
X492402D01*
X490099Y33914D02*
X492402Y33914D01*
X490370Y33779D02*
X492537D01*
X490641Y33643D02*
X492673D01*
X491047Y33508D02*
X492808D01*
X491183Y33372D02*
X492808Y33372D01*
X491589Y33237D02*
X492944D01*
X491725Y33101D02*
X493079D01*
X491996Y32966D02*
X493215D01*
X492131Y32830D02*
X493215Y32830D01*
X492402Y32559D02*
X493350D01*
X492537Y32424D02*
X493350D01*
X492673Y32288D02*
X493215D01*
X493350D02*
X494299Y32288D01*
X493350Y32153D02*
X494706D01*
X493350Y32017D02*
X495383D01*
X495518D02*
X496060D01*
X493350Y31882D02*
X497415D01*
X496874Y28630D02*
X497416Y28630D01*
X497009Y28494D02*
X497280Y28494D01*
X504597Y31475D02*
X505410D01*
X474110Y48954D02*
X475194D01*
X474245Y48819D02*
X475465Y48819D01*
X474381Y48683D02*
X475465D01*
X474516Y48548D02*
X475600Y48548D01*
X474652Y48412D02*
X475736D01*
X474652Y48277D02*
X475736D01*
X474652Y48141D02*
X475871D01*
X474787Y48006D02*
X476007Y48006D01*
X474787Y47870D02*
X476142D01*
X475058Y47735D02*
X476413Y47735D01*
X475194Y47599D02*
X476549Y47599D01*
X475194Y47464D02*
X476549D01*
X475194Y47328D02*
X476549Y47328D01*
X466387Y43128D02*
X467200D01*
X466387Y42993D02*
X467335D01*
X466387Y42857D02*
X467606D01*
X466387Y42722D02*
X467742D01*
X466522Y42586D02*
X468148Y42586D01*
X466793Y42450D02*
X468284D01*
X466929Y42315D02*
X468690Y42315D01*
X467200Y42179D02*
X468825D01*
X467200Y42044D02*
X469232D01*
X467742Y41909D02*
X469367Y41908D01*
X467877Y41773D02*
X469774Y41773D01*
X468148Y41638D02*
X469910D01*
X468284Y41502D02*
X470316D01*
X468690Y41367D02*
X470452D01*
X468825Y41231D02*
X470858D01*
X469232Y41096D02*
X470993D01*
X469367Y40960D02*
X471264D01*
X469638Y40825D02*
X471264Y40824D01*
X469774Y40689D02*
X471806D01*
X470045Y40554D02*
X471806D01*
X470181Y40418D02*
X472349D01*
X470587Y40283D02*
X472349D01*
X470723Y40147D02*
X472891Y40147D01*
X470993Y40012D02*
X472891Y40012D01*
X471129Y39876D02*
X473432D01*
X471400Y39741D02*
X473432D01*
X471535Y39605D02*
X473974D01*
X471671Y39470D02*
X473974D01*
X471942Y39334D02*
X474516Y39334D01*
X472349Y39199D02*
X474516D01*
X472484Y39063D02*
X475058D01*
X472755Y38928D02*
X475058D01*
X472891Y38792D02*
X475600D01*
X473162Y38657D02*
X475600D01*
X473297Y38521D02*
X476142D01*
X473568Y38386D02*
X476142D01*
X476820Y45025D02*
X478446Y45025D01*
X476820Y44889D02*
X478581D01*
X476955Y44754D02*
X478852D01*
X477091Y44619D02*
X478852D01*
X477091Y44483D02*
X479123D01*
X477091Y44348D02*
X479259D01*
X477362Y44212D02*
X479259D01*
X477362Y44076D02*
X479259D01*
X477497Y43941D02*
X479394D01*
X477633Y43805D02*
X479530D01*
X477633Y43670D02*
X479665D01*
X477633Y43534D02*
X479801Y43534D01*
X477904Y43399D02*
X479801Y43399D01*
X477904Y43264D02*
X479936D01*
X478039Y43128D02*
X480207D01*
X478175Y42993D02*
X480343Y42993D01*
X478175Y42857D02*
X480343D01*
X478175Y42722D02*
X480343D01*
X478446Y42586D02*
X480614D01*
X478446Y42450D02*
X480614D01*
X478581Y42315D02*
X480749Y42315D01*
X478717Y42179D02*
X480885Y42179D01*
X478717Y42044D02*
X481020Y42044D01*
X478717Y41908D02*
X481156D01*
X478852Y41773D02*
X481156D01*
X478988Y41638D02*
X481291Y41638D01*
X478988Y41502D02*
X481562D01*
X478988Y41367D02*
X481698D01*
X479259Y41231D02*
X481698D01*
X479259Y41096D02*
X481698Y41095D01*
X479394Y40960D02*
X481833Y40960D01*
X479530Y40825D02*
X481969D01*
X479530Y40689D02*
X482240Y40689D01*
X479530Y40554D02*
X482240Y40554D01*
X479665Y40418D02*
X482375D01*
X479801Y40283D02*
X482511Y40283D01*
X479936Y40147D02*
X482646Y40147D01*
X480072Y40012D02*
X482782Y40012D01*
X480072Y39876D02*
X482782D01*
X480072Y39741D02*
X482917D01*
X480207Y39605D02*
X483188Y39605D01*
X480207Y39470D02*
X483188D01*
X480343Y39334D02*
X483459D01*
X480614Y39199D02*
X483595D01*
X480614Y39063D02*
X483595Y39063D01*
X480614Y38928D02*
X483595D01*
X480885Y38792D02*
X483866D01*
X480885Y38657D02*
X483866Y38657D01*
X481020Y38521D02*
X484001Y38521D01*
X481156Y38386D02*
X484137D01*
X490099Y44889D02*
X490370D01*
X489557Y44754D02*
X490370Y44754D01*
X489557Y44619D02*
X490370D01*
X489557Y44483D02*
X490370D01*
X489557Y44348D02*
X490370D01*
X489557Y44212D02*
X490370D01*
X489557Y44076D02*
X490505Y44076D01*
X489421Y43941D02*
X490641D01*
X489286Y43805D02*
X490641D01*
X489286Y43670D02*
X490641Y43670D01*
X489286Y43534D02*
X490641Y43534D01*
X489286Y43399D02*
X490641D01*
X489286Y43264D02*
X490641D01*
X489286Y43128D02*
X490641Y43128D01*
X489286Y42993D02*
X490641D01*
X489015Y42857D02*
X490641D01*
X489015Y42722D02*
X490641Y42722D01*
X489015Y42586D02*
X490641D01*
X489015Y42450D02*
X490641D01*
X489015Y42315D02*
X490641D01*
X489015Y42179D02*
X490641Y42179D01*
X489015Y42044D02*
X490641Y42044D01*
X489015Y41908D02*
X490641D01*
X489015Y41773D02*
X490641D01*
X489015Y41638D02*
X490641D01*
X489015Y41502D02*
X490641D01*
X489015Y41367D02*
X490776D01*
X489015Y41231D02*
X490912D01*
X489015Y41095D02*
X490912D01*
X488744Y40960D02*
X490912D01*
X488744Y40825D02*
X490912D01*
X488744Y40689D02*
X490912Y40689D01*
X488744Y40554D02*
X490912D01*
X488744Y40418D02*
X490912D01*
X488744Y40283D02*
X490912D01*
X488744Y40147D02*
X490912Y40147D01*
X488744Y40012D02*
X490912Y40012D01*
X488744Y39876D02*
X490912D01*
X488744Y39741D02*
X490912D01*
X488608Y39605D02*
X490912D01*
X488473Y39470D02*
X490912D01*
X488473Y39334D02*
X490912D01*
X488473Y39199D02*
X490912D01*
X488473Y39063D02*
X490912D01*
X488473Y38928D02*
X490912D01*
X488202Y38792D02*
X490912D01*
X488202Y38657D02*
X490912Y38657D01*
X488202Y38521D02*
X490912D01*
X488202Y38386D02*
X490912Y38386D01*
X473297Y50445D02*
X474110D01*
X473297Y50309D02*
X474245D01*
X473297Y50174D02*
X474245Y50174D01*
X473297Y50038D02*
X474381Y50038D01*
X473432Y49903D02*
X474516D01*
X473568Y49767D02*
X474516Y49767D01*
X473703Y49632D02*
X474787D01*
X473839Y49496D02*
X474923D01*
X473974Y49361D02*
X474923Y49361D01*
X474110Y49225D02*
X474923D01*
X488202Y16706D02*
X489828Y16706D01*
X488202Y16841D02*
X489828D01*
X488202Y16977D02*
X489828D01*
X488202Y17112D02*
X489828Y17113D01*
X488202Y17248D02*
X489828D01*
X488202Y17384D02*
X490099D01*
X488202Y17519D02*
X490099D01*
X488202Y17655D02*
X490099D01*
X488202Y17790D02*
X490099D01*
X487931Y17925D02*
X490234D01*
X487931Y18061D02*
X490234Y18061D01*
X487931Y18197D02*
X490234Y18197D01*
X487931Y18332D02*
X490234Y18332D01*
X487931Y18468D02*
X490370D01*
X487931Y18603D02*
X490370D01*
X487931Y18738D02*
X490370D01*
X487931Y18874D02*
X490370D01*
X487931Y19009D02*
X490370D01*
X487931Y19145D02*
X490370Y19145D01*
X487931Y19281D02*
X490505D01*
X487931Y19416D02*
X490505Y19416D01*
X487931Y19552D02*
X490505Y19552D01*
X487931Y19687D02*
X490505Y19687D01*
X487931Y19822D02*
X490641D01*
X487931Y19958D02*
X490641D01*
X487931Y20094D02*
X490641D01*
X487931Y20229D02*
X490641D01*
X487931Y20364D02*
X490641D01*
X487931Y20500D02*
X490641D01*
X487931Y20635D02*
X490641D01*
X487931Y20771D02*
X490641Y20771D01*
X487931Y20907D02*
X490776D01*
X487931Y21042D02*
X490776Y21042D01*
X487931Y21177D02*
X490912Y21177D01*
X487931Y21313D02*
X490912D01*
X487931Y21449D02*
X490912Y21448D01*
X487931Y21584D02*
X490912Y21584D01*
X487931Y21720D02*
X490912Y21720D01*
X487931Y21855D02*
X490912D01*
X488473Y14403D02*
X489015D01*
X488473Y14538D02*
X489015Y14538D01*
X488473Y14674D02*
X489150Y14674D01*
X488473Y14809D02*
X489150D01*
X488473Y14945D02*
X489286D01*
X488473Y15080D02*
X489286Y15080D01*
X488202Y15216D02*
X489286D01*
X488202Y15351D02*
X489286D01*
X488202Y15487D02*
X489286D01*
X488202Y15622D02*
X489421D01*
X488202Y15758D02*
X489557D01*
X488202Y15893D02*
X489557Y15893D01*
X488202Y16028D02*
X489557Y16029D01*
X488202Y16164D02*
X489557D01*
X488202Y16300D02*
X489557Y16300D01*
X488202Y16435D02*
X489692D01*
X520662Y13710D02*
X523914D01*
X516735D02*
X519987Y13710D01*
X520662Y13845D02*
X523914Y13845D01*
X516735Y13845D02*
X519987D01*
X520662Y13981D02*
X523914D01*
X516735D02*
X520258Y13981D01*
X520662Y14116D02*
X523914D01*
X516735D02*
X520258Y14116D01*
X520662Y14252D02*
X524050D01*
X516870D02*
X520258D01*
X520662Y14387D02*
X524185Y14388D01*
X516870Y14387D02*
X520258Y14387D01*
X520662Y14523D02*
X524185Y14523D01*
X516870Y14523D02*
X520258D01*
X520662Y14658D02*
X524185Y14658D01*
X516870D02*
X520258D01*
X520798Y14794D02*
X524456D01*
X517006D02*
X520258D01*
X520933Y14929D02*
X524456D01*
X517006D02*
X520258D01*
X517006Y15065D02*
X520258D01*
X517006Y15200D02*
X520258D01*
X517006Y15336D02*
X520393D01*
X517006Y15471D02*
X520529D01*
X517006Y15607D02*
X520529D01*
X517277Y15742D02*
X520529D01*
X517277Y15878D02*
X520529D01*
X517277Y16013D02*
X520529D01*
X517277Y16149D02*
X520529D01*
X517277Y16284D02*
X520529D01*
X517277Y16420D02*
X520664D01*
X517277Y16555D02*
X520800Y16555D01*
X517277Y16691D02*
X520936Y16691D01*
X517413Y16826D02*
X521071D01*
X517413Y16962D02*
X521071D01*
X517413Y17097D02*
X521071Y17097D01*
X517277Y17233D02*
X520936D01*
X518226Y17648D02*
X520258D01*
X518090Y17783D02*
X520529D01*
X517819Y17919D02*
X520664D01*
X517819Y18054D02*
X520800D01*
X517819Y18190D02*
X521071D01*
X517683Y18325D02*
X521207D01*
X517683Y18461D02*
X521207D01*
X517683Y18596D02*
X521251D01*
X517683Y18732D02*
X521342D01*
X517683Y18867D02*
X521478D01*
X517683Y19003D02*
X521613D01*
X517683Y19138D02*
X521613D01*
X517683Y19274D02*
X521613D01*
X517819Y19409D02*
X521613Y19409D01*
X517819Y19545D02*
X521478Y19545D01*
X518090Y19680D02*
X521263D01*
X518090Y19816D02*
X521180D01*
X518361Y19951D02*
X521071D01*
X518361Y20087D02*
X521071D01*
X518903Y20222D02*
X520529Y20222D01*
X518903Y20358D02*
X520529D01*
X519172Y7477D02*
X522559Y7477D01*
X519172Y7613D02*
X522559D01*
X519172Y7748D02*
X522830D01*
X519172Y7884D02*
X522830D01*
X519307Y8019D02*
X522830Y8019D01*
X519307Y8155D02*
X522830D01*
X519307Y8290D02*
X522830Y8290D01*
X519307Y8426D02*
X522830D01*
X519443Y8561D02*
X522830Y8561D01*
X519578Y8697D02*
X522830D01*
X519578Y8832D02*
X522830D01*
X519578Y8967D02*
X522830D01*
X519578Y9103D02*
X523101D01*
X519578Y9238D02*
X523101D01*
X519578Y9374D02*
X523101D01*
X519578Y9510D02*
X523101Y9510D01*
X519578Y9645D02*
X523101Y9645D01*
X519578Y9780D02*
X523101Y9780D01*
X519849Y9916D02*
X523237D01*
X519849Y10051D02*
X523237Y10051D01*
X519849Y10187D02*
X523237D01*
X515922D02*
X519445D01*
X519849Y10323D02*
X523237D01*
X515922D02*
X519445D01*
X519849Y10458D02*
X523372D01*
X515922D02*
X519445D01*
X519849Y10594D02*
X523372D01*
X515922Y10594D02*
X519445Y10594D01*
X519849Y10729D02*
X523372Y10729D01*
X516058Y10729D02*
X519445D01*
X516193Y10864D02*
X519445D01*
X516058Y11000D02*
X519445D01*
X520120Y11135D02*
X523372D01*
X515922D02*
X519445D01*
X520120Y11271D02*
X523372D01*
X515922Y11271D02*
X519445Y11271D01*
X520120Y11407D02*
X523372D01*
X515922Y11407D02*
X519445Y11407D01*
X520120Y11542D02*
X523643D01*
X516193D02*
X519716D01*
X520120Y11678D02*
X523643D01*
X516193D02*
X519716Y11678D01*
X520120Y11813D02*
X523643D01*
X516329D02*
X519716D01*
X520120Y11948D02*
X523643Y11948D01*
X516329D02*
X519716D01*
X520120Y12084D02*
X523643Y12084D01*
X516464D02*
X519716D01*
X520120Y12220D02*
X523643Y12220D01*
X516464D02*
X519716D01*
X520256Y12355D02*
X523643D01*
X516464D02*
X519716D01*
X520391Y12490D02*
X523643Y12491D01*
X516464Y12490D02*
X519716Y12491D01*
X520391Y12626D02*
X523643D01*
X516464Y12626D02*
X519716Y12626D01*
X520391Y12761D02*
X523643D01*
X516464D02*
X519716D01*
X520391Y12897D02*
X523914Y12897D01*
X516464Y12897D02*
X519987Y12897D01*
X520391Y13032D02*
X523914D01*
X516464D02*
X519987Y13032D01*
X520391Y13168D02*
X523914D01*
X516600D02*
X519987D01*
X520391Y13304D02*
X523914Y13304D01*
X516735Y13304D02*
X519987D01*
X520527Y13439D02*
X523914D01*
X516735D02*
X519987D01*
X519985Y11000D02*
X523237D01*
X519849Y10864D02*
X523101Y10864D01*
X519849Y10864D02*
X523372Y10864D01*
X524727Y13032D02*
X524863Y13168D01*
X524998Y13304D01*
X524998Y13710D02*
X528250Y13710D01*
X524998Y13845D02*
X528250D01*
X524998Y13981D02*
X528250D01*
X524998Y14116D02*
X528250Y14116D01*
X524998Y14252D02*
X528250D01*
X524998Y14387D02*
X528386Y14387D01*
X524998Y14523D02*
X528386Y14523D01*
X524998Y14658D02*
X528521D01*
X524998Y14794D02*
X528657D01*
X524998Y14929D02*
X528792D01*
X523237Y17097D02*
X527166D01*
X523237Y17233D02*
X527166Y17233D01*
X523643Y17368D02*
X526760Y17368D01*
X523779Y17504D02*
X526624Y17504D01*
X524592Y17639D02*
X526218D01*
X524727Y17775D02*
X526082D01*
X523643Y7477D02*
X527031Y7477D01*
X509012D02*
X518632Y7477D01*
X523643Y7613D02*
X527166Y7613D01*
X509012D02*
X518632D01*
X523643Y7748D02*
X527166D01*
X509012D02*
X518903D01*
X523643Y7884D02*
X527166D01*
X509012Y7884D02*
X518903D01*
X523643Y8019D02*
X527031Y8019D01*
X509012D02*
X518903Y8019D01*
X523643Y8155D02*
X527031D01*
X509012D02*
X518903D01*
X523914Y8290D02*
X527031D01*
X509012D02*
X518903Y8290D01*
X523914Y8426D02*
X526895D01*
X509012D02*
X518903D01*
X523914Y8561D02*
X527166Y8561D01*
X509012D02*
X518903D01*
X523914Y8697D02*
X527166Y8697D01*
X509147D02*
X518903Y8697D01*
X523914Y8832D02*
X527166D01*
X509283D02*
X518903D01*
X523914Y8967D02*
X527166Y8968D01*
X509283D02*
X518903Y8967D01*
X523914Y9103D02*
X527166Y9103D01*
X509283D02*
X519174D01*
X523914Y9239D02*
X527166Y9238D01*
X509283D02*
X519174D01*
X523914Y9374D02*
X527166D01*
X509283D02*
X519174D01*
X523914Y9510D02*
X527166Y9510D01*
X509283Y9510D02*
X519174Y9510D01*
X524050Y9645D02*
X527166Y9645D01*
X509283D02*
X519174D01*
X524185Y9780D02*
X527302D01*
X509418D02*
X519174D01*
X524185Y9916D02*
X527437D01*
X509554D02*
X519174D01*
X524185Y10051D02*
X527437Y10051D01*
X509554D02*
X519174D01*
X524185Y10187D02*
X527437D01*
X524185Y10323D02*
X527437D01*
X524185Y10458D02*
X527437Y10458D01*
X524185Y10594D02*
X527437Y10594D01*
X524321Y10729D02*
X527437D01*
X524456Y10864D02*
X527437D01*
X524456Y11000D02*
X527437D01*
X524456Y11135D02*
X527573D01*
X524456Y11271D02*
X527708Y11271D01*
X524456Y11407D02*
X527708D01*
X524456Y11542D02*
X527708D01*
X524456Y11678D02*
X527708D01*
X524456Y11813D02*
X527708D01*
X524456Y11948D02*
X527708Y11948D01*
X524592Y12084D02*
X527708D01*
X524727Y12220D02*
X527844D01*
X524727Y12355D02*
X527979Y12355D01*
X524727Y12490D02*
X527979Y12491D01*
X524727Y12626D02*
X527979D01*
X524727Y12761D02*
X527979D01*
X524727Y12897D02*
X527979Y12897D01*
X524727Y13032D02*
X527979D01*
X524863Y13168D02*
X527979D01*
X524998Y13304D02*
X527979Y13304D01*
X524863Y13439D02*
X527979D01*
X488202Y16571D02*
X489828Y16571D01*
X520662Y13574D02*
X523914D01*
X516735D02*
X519987D01*
X524998Y13575D02*
X528115Y13574D01*
X510231D02*
X513754Y13575D01*
X511993Y19943D02*
X514974D01*
X511857Y19807D02*
X514974D01*
X511586Y19672D02*
X514974D01*
X511451Y19536D02*
X514974Y19536D01*
X511451Y19401D02*
X514838D01*
X511451Y19265D02*
X514838D01*
X511451Y19130D02*
X514974Y19130D01*
X511451Y18994D02*
X514974D01*
X511315Y18859D02*
X514974Y18859D01*
X511315Y18723D02*
X514974Y18723D01*
X511315Y18588D02*
X514838D01*
X511180Y18452D02*
X514838D01*
X511180Y18317D02*
X514703Y18317D01*
X511180Y18181D02*
X514567D01*
X511180Y18046D02*
X514567D01*
X511180Y17910D02*
X514567D01*
X511180Y17775D02*
X514567D01*
X511180Y17639D02*
X514567D01*
X511044Y17504D02*
X514567Y17504D01*
X511044Y17368D02*
X514567D01*
X511044Y17233D02*
X514567Y17233D01*
X510909Y17097D02*
X514567D01*
X510231Y13439D02*
X513754Y13439D01*
X510096Y13304D02*
X513754Y13304D01*
X510096Y13168D02*
X513619D01*
X510096Y13032D02*
X513483D01*
X510096Y12897D02*
X513483D01*
X510096Y12761D02*
X513483D01*
X510096Y12626D02*
X513483D01*
X509960Y12491D02*
X513483Y12491D01*
X509960Y12355D02*
X513483D01*
X509960Y12220D02*
X513483D01*
X509960Y12084D02*
X513483D01*
X509825Y11948D02*
X513483D01*
X509825Y11813D02*
X513348D01*
X509825Y11678D02*
X513212D01*
X509825Y11542D02*
X513212Y11542D01*
X509825Y11407D02*
X513212D01*
X509825Y11271D02*
X513212Y11271D01*
X509689Y11135D02*
X513212D01*
X509689Y11000D02*
X513212D01*
X509554Y10864D02*
X513212Y10864D01*
X509554Y10729D02*
X513077Y10729D01*
X509554Y10594D02*
X512941D01*
X509554Y10458D02*
X512941D01*
X509554Y10323D02*
X512941Y10323D01*
X509554Y10187D02*
X512941D01*
X510909Y16962D02*
X514432D01*
X510909Y16826D02*
X514296D01*
X510909Y16691D02*
X514296D01*
X510909Y16555D02*
X514296D01*
X510773Y16420D02*
X514296Y16420D01*
X510773Y16284D02*
X514296Y16284D01*
X510773Y16149D02*
X514296Y16149D01*
X510638Y16013D02*
X514296D01*
X510638Y15878D02*
X514296Y15878D01*
X510638Y15742D02*
X514296Y15742D01*
X510638Y15607D02*
X514161D01*
X510638Y15471D02*
X514025D01*
X510638Y15336D02*
X514025D01*
X510638Y15200D02*
X514025D01*
X510502Y15065D02*
X514025D01*
X510502Y14929D02*
X514025D01*
X510502Y14794D02*
X514025D01*
X510367Y14658D02*
X514025D01*
X510367Y14523D02*
X513890Y14523D01*
X510367Y14387D02*
X513754D01*
X510367Y14252D02*
X513754D01*
X510367Y14116D02*
X513754Y14116D01*
X510367Y13981D02*
X513754D01*
X510367Y13845D02*
X513754D01*
X510367Y13710D02*
X513754Y13710D01*
D16*
X538046Y14391D02*
X540620Y14391D01*
D17*
X97250Y37000D02*
X108250D01*
Y29000D02*
Y37000D01*
Y16000D02*
Y24000D01*
X97250Y16000D02*
X108250D01*
X97250D02*
Y24000D01*
Y29000D02*
Y37000D01*
X419000Y49250D02*
X429000D01*
X419000D02*
Y57250D01*
Y62250D02*
Y70250D01*
X429000D01*
Y62250D02*
Y70250D01*
Y49250D02*
Y57250D01*
X438750Y82500D02*
X449750D01*
Y74500D02*
Y82500D01*
Y61500D02*
Y69500D01*
X438750Y61500D02*
X449750D01*
X438750D02*
Y69500D01*
Y74500D02*
Y82500D01*
X353170Y158780D02*
X353170Y185780D01*
X353170Y158780D02*
X363330D01*
X363330Y185780D02*
X363330Y158780D01*
X353170Y185780D02*
X363330D01*
X423255Y39250D02*
X433255D01*
Y31250D02*
Y39250D01*
Y18250D02*
Y26250D01*
X423255Y18250D02*
X433255D01*
X423255D02*
Y26250D01*
Y31250D02*
Y39250D01*
X466396Y39250D02*
X476396D01*
Y31250D02*
Y39250D01*
Y18250D02*
Y26250D01*
X466396Y18250D02*
X476396D01*
X466396D02*
Y26250D01*
Y31250D02*
Y39250D01*
X412250Y39250D02*
X423250Y39250D01*
Y31250D02*
Y39250D01*
Y18250D02*
Y26250D01*
X412250Y18250D02*
X423250Y18250D01*
X412250Y18250D02*
Y26250D01*
Y31250D02*
Y39250D01*
X19988Y50028D02*
X29512Y50028D01*
X19988Y46472D02*
X29512D01*
X19988Y15472D02*
X29512D01*
X19988Y19028D02*
X29512D01*
X86988Y50028D02*
X96512D01*
X86988Y46472D02*
X96512D01*
X86988Y19028D02*
X96512D01*
X86988Y15472D02*
X96512D01*
X87988Y173528D02*
X97512D01*
X87988Y169972D02*
X97512D01*
X20988Y200972D02*
X30512Y200972D01*
X20988Y204528D02*
X30512Y204528D01*
X20988Y169972D02*
X30512D01*
X20988Y173528D02*
X30512D01*
X87988Y204528D02*
X97512D01*
X87988Y200972D02*
X97512D01*
X340408Y76750D02*
Y86750D01*
X332408Y76750D02*
X340408D01*
X319408D02*
X327408D01*
X319408D02*
Y86750D01*
X327408D01*
X332408D02*
X340408D01*
Y86750D02*
Y96750D01*
X332408Y86750D02*
X340408D01*
X319408D02*
X327408D01*
X319408D02*
Y96750D01*
X327408D01*
X332408D02*
X340408D01*
X416908Y99500D02*
X426908D01*
X416908D02*
Y107500D01*
Y112500D02*
Y120500D01*
X426908D01*
Y112500D02*
Y120500D01*
Y99500D02*
Y107500D01*
X348658Y51000D02*
Y61000D01*
X356658D01*
X361658D02*
X369658D01*
Y51000D02*
Y61000D01*
X361658Y51000D02*
X369658D01*
X348658D02*
X356658D01*
X340408Y96750D02*
Y106750D01*
X332408Y96750D02*
X340408D01*
X319408D02*
X327408D01*
X319408D02*
Y106750D01*
X327408D01*
X332408D02*
X340408D01*
X290500Y119000D02*
X298500D01*
X277500D02*
X285500D01*
X277500Y108000D02*
X277500Y119000D01*
X277500Y108000D02*
X285500Y108000D01*
X290500Y108000D02*
X298500Y108000D01*
Y119000D01*
X319750Y108750D02*
Y119750D01*
X311750Y108750D02*
X319750Y108750D01*
X298750Y108750D02*
X306750Y108750D01*
X298750Y108750D02*
X298750Y119750D01*
X306750D01*
X311750D02*
X319750D01*
X331396Y128528D02*
X340920D01*
X331396Y124972D02*
X340920D01*
X141073Y69250D02*
X141073Y40250D01*
X133453Y69250D02*
X141073D01*
X133453Y40250D02*
Y69250D01*
Y40250D02*
X141073Y40250D01*
X382750Y208500D02*
Y216500D01*
Y195500D02*
Y203500D01*
Y195500D02*
X393750D01*
Y203500D01*
Y208500D02*
Y216500D01*
X382750D02*
X393750D01*
X607848Y172650D02*
X615468D01*
X607848Y185350D02*
X615468D01*
X607848Y137150D02*
X615468D01*
X607848Y149850D02*
X615468D01*
X700750Y70000D02*
Y78000D01*
Y57000D02*
Y65000D01*
Y57000D02*
X711750D01*
Y65000D01*
Y70000D02*
Y78000D01*
X700750D02*
X711750D01*
X341250Y212000D02*
X349250D01*
X328250D02*
X336250D01*
X328250Y201000D02*
Y212000D01*
Y201000D02*
X336250D01*
X341250D02*
X349250D01*
Y212000D01*
X656500Y201500D02*
Y211500D01*
X664500D01*
X669500D02*
X677500D01*
Y201500D02*
Y211500D01*
X669500Y201500D02*
X677500D01*
X656500D02*
X664500D01*
X701250Y36000D02*
X711250D01*
X701250D02*
Y44000D01*
Y49000D02*
Y57000D01*
X711250D01*
Y49000D02*
Y57000D01*
Y36000D02*
Y44000D01*
X349200Y217300D02*
X359200D01*
Y209300D02*
Y217300D01*
Y196300D02*
Y204300D01*
X349200Y196300D02*
X359200D01*
X349200D02*
Y204300D01*
Y209300D02*
Y217300D01*
X114750Y105005D02*
Y113005D01*
Y92005D02*
Y100005D01*
Y92005D02*
X125750D01*
Y100005D01*
Y105005D02*
Y113005D01*
X114750D02*
X125750D01*
X162750Y182250D02*
X170750D01*
X149750D02*
X157750D01*
X149750Y171250D02*
Y182250D01*
Y171250D02*
X157750D01*
X162750D02*
X170750D01*
Y182250D01*
X115250Y157396D02*
X125250D01*
X115250D02*
Y165396D01*
Y170396D02*
Y178396D01*
X125250D01*
Y170396D02*
Y178396D01*
Y157396D02*
Y165396D01*
X114750Y113005D02*
Y123005D01*
X122750D01*
X127750D02*
X135750D01*
Y113005D02*
Y123005D01*
X127750Y113005D02*
X135750D01*
X114750D02*
X122750D01*
X210896Y171000D02*
X220896D01*
Y163000D02*
Y171000D01*
Y150000D02*
Y158000D01*
X210896Y150000D02*
X220896D01*
X210896D02*
Y158000D01*
Y163000D02*
Y171000D01*
X167755Y171000D02*
X177755D01*
Y163000D02*
Y171000D01*
Y150000D02*
Y158000D01*
X167755Y150000D02*
X177755D01*
X167755D02*
Y158000D01*
Y163000D02*
Y171000D01*
X606658Y161250D02*
X614658D01*
X619658D02*
X627658D01*
Y171250D01*
X619658D02*
X627658D01*
X606658D02*
X614658D01*
X606658Y161250D02*
Y171250D01*
X596408Y140750D02*
Y148750D01*
Y153750D02*
Y161750D01*
X585408D02*
X596408D01*
X585408Y153750D02*
Y161750D01*
Y140750D02*
Y148750D01*
Y140750D02*
X596408Y140750D01*
X585408Y173750D02*
Y181750D01*
Y160750D02*
Y168750D01*
Y160750D02*
X596408D01*
Y168750D01*
Y173750D02*
Y181750D01*
X585408Y181750D02*
X596408Y181750D01*
X603537Y87000D02*
Y95000D01*
Y100000D02*
Y108000D01*
X593537D02*
X603537D01*
X593537Y100000D02*
Y108000D01*
Y87000D02*
Y95000D01*
Y87000D02*
X603537D01*
X635537Y87000D02*
Y95000D01*
Y100000D02*
Y108000D01*
X624537D02*
X635537D01*
X624537Y100000D02*
X624537Y108000D01*
X624537Y87000D02*
X624537Y95000D01*
X624537Y87000D02*
X635537Y87000D01*
X603537Y97500D02*
X611537D01*
X616537D02*
X624537Y97500D01*
Y107500D01*
X616537D02*
X624537D01*
X603537D02*
X611537D01*
X603537Y97500D02*
Y107500D01*
Y87500D02*
X611537D01*
X616537D02*
X624537D01*
Y97500D01*
X616537D02*
X624537D01*
X603537D02*
X611537D01*
X603537Y87500D02*
Y97500D01*
X551158Y48750D02*
Y56750D01*
Y35750D02*
Y43750D01*
Y35750D02*
X561158D01*
Y43750D01*
Y48750D02*
Y56750D01*
X551158D02*
X561158D01*
Y46250D02*
X569158D01*
X574158D02*
X582158D01*
Y56250D01*
X574158D02*
X582158D01*
X561158D02*
X569158D01*
X561158Y46250D02*
Y56250D01*
X561158Y36250D02*
X569158D01*
X574158D02*
X582158D01*
Y46250D01*
X574158D02*
X582158D01*
X561158D02*
X569158D01*
X561158Y36250D02*
Y46250D01*
X582158Y48750D02*
Y56750D01*
Y43750D02*
X582158Y35750D01*
X593158Y35750D01*
X593158Y43750D02*
X593158Y35750D01*
Y48750D02*
Y56750D01*
X582158D02*
X593158D01*
X604137Y111750D02*
Y119750D01*
Y124750D02*
Y132750D01*
X594137D02*
X604137D01*
X594137Y124750D02*
Y132750D01*
Y111750D02*
Y119750D01*
Y111750D02*
X604137D01*
X604137Y112250D02*
X612137D01*
X617137D02*
X625137D01*
X625137Y122250D01*
X617137Y122250D02*
X625137Y122250D01*
X604137Y122250D02*
X612137Y122250D01*
X604137Y112250D02*
Y122250D01*
X604137Y122250D02*
X612137D01*
X617137D02*
X625137D01*
Y132250D01*
X617137D02*
X625137D01*
X604137D02*
X612137D01*
X604137D02*
X604137Y122250D01*
X635137Y111750D02*
Y119750D01*
Y124750D02*
Y132750D01*
X625137Y132750D02*
X635137Y132750D01*
X625137Y124750D02*
Y132750D01*
Y111750D02*
Y119750D01*
Y111750D02*
X635137D01*
X447908Y85250D02*
Y96250D01*
X439908Y85250D02*
X447908D01*
X426908D02*
X434908D01*
X426908D02*
Y96250D01*
X434908D01*
X439908D02*
X447908D01*
X485158Y76028D02*
X492936Y68250D01*
X487279Y62593D02*
X492936Y68250D01*
X478087Y53401D02*
X483744Y59058D01*
X470308Y61179D02*
X478087Y53401D01*
X470308Y61179D02*
X475965Y66836D01*
X479501Y70371D02*
X485158Y76028D01*
X418472Y72988D02*
Y82512D01*
X422028Y72988D02*
Y82512D01*
X627408Y151250D02*
Y161250D01*
X619408Y151250D02*
X627408D01*
X606408D02*
X614408D01*
X606408D02*
Y161250D01*
X614408D01*
X619408D02*
X627408D01*
X627658Y172000D02*
X637658Y172000D01*
X637658Y164000D01*
X637658Y159000D02*
X637658Y151000D01*
X627658D02*
X637658D01*
X627658D02*
Y159000D01*
Y164000D02*
Y172000D01*
X596408Y150750D02*
X606408D01*
X596408D02*
Y158750D01*
Y163750D02*
Y171750D01*
X606408Y171750D01*
X606408Y163750D01*
Y150750D02*
Y158750D01*
D18*
X382500Y189000D02*
X397750Y189000D01*
X382500Y189000D02*
X391000Y186167D01*
X382500Y189000D02*
X391000Y191833D01*
X391000Y186167D02*
X391000Y191833D01*
D19*
X176552Y194950D02*
Y199282D01*
Y197116D01*
X183050D01*
X176552Y201448D02*
X183050Y205780D01*
X176552D02*
X183050Y201448D01*
X176552Y207946D02*
X183050D01*
Y211195D01*
X181967Y212278D01*
X177635D01*
X176552Y211195D01*
Y207946D01*
X111879Y48698D02*
X109713D01*
X110796D01*
Y43283D01*
X109713Y42200D01*
X108630D01*
X107547Y43283D01*
X114045Y48698D02*
X118377D01*
X116211D01*
Y42200D01*
X120543D02*
Y46532D01*
X122709Y48698D01*
X124875Y46532D01*
Y42200D01*
Y45449D01*
X120543D01*
X131373Y47615D02*
X130290Y48698D01*
X128124D01*
X127041Y47615D01*
Y43283D01*
X128124Y42200D01*
X130290D01*
X131373Y43283D01*
Y45449D01*
X129207D01*
X227300Y195700D02*
X220802D01*
Y198949D01*
X221885Y200032D01*
X224051D01*
X225134Y198949D01*
Y195700D01*
Y197866D02*
X227300Y200032D01*
X220802Y202198D02*
X227300Y206530D01*
X220802D02*
X227300Y202198D01*
X220802Y208696D02*
X227300D01*
Y211945D01*
X226217Y213028D01*
X221885D01*
X220802Y211945D01*
Y208696D01*
M02*
