G04*
G04 #@! TF.GenerationSoftware,Altium Limited,Altium Designer,19.1.6 (110)*
G04*
G04 Layer_Color=8388736*
%FSLAX44Y44*%
%MOMM*%
G71*
G01*
G75*
%ADD80R,2.5500X20.0000*%
%ADD81R,0.4000X0.4500*%
G04:AMPARAMS|DCode=82|XSize=0.4mm|YSize=1.25mm|CornerRadius=0.125mm|HoleSize=0mm|Usage=FLASHONLY|Rotation=0.000|XOffset=0mm|YOffset=0mm|HoleType=Round|Shape=RoundedRectangle|*
%AMROUNDEDRECTD82*
21,1,0.4000,1.0000,0,0,0.0*
21,1,0.1500,1.2500,0,0,0.0*
1,1,0.2500,0.0750,-0.5000*
1,1,0.2500,-0.0750,-0.5000*
1,1,0.2500,-0.0750,0.5000*
1,1,0.2500,0.0750,0.5000*
%
%ADD82ROUNDEDRECTD82*%
G04:AMPARAMS|DCode=83|XSize=0.4mm|YSize=1.25mm|CornerRadius=0.125mm|HoleSize=0mm|Usage=FLASHONLY|Rotation=270.000|XOffset=0mm|YOffset=0mm|HoleType=Round|Shape=RoundedRectangle|*
%AMROUNDEDRECTD83*
21,1,0.4000,1.0000,0,0,270.0*
21,1,0.1500,1.2500,0,0,270.0*
1,1,0.2500,-0.5000,-0.0750*
1,1,0.2500,-0.5000,0.0750*
1,1,0.2500,0.5000,0.0750*
1,1,0.2500,0.5000,-0.0750*
%
%ADD83ROUNDEDRECTD83*%
%ADD84R,4.3000X4.3000*%
G04:AMPARAMS|DCode=85|XSize=0.75mm|YSize=1.2mm|CornerRadius=0.2125mm|HoleSize=0mm|Usage=FLASHONLY|Rotation=270.000|XOffset=0mm|YOffset=0mm|HoleType=Round|Shape=RoundedRectangle|*
%AMROUNDEDRECTD85*
21,1,0.7500,0.7750,0,0,270.0*
21,1,0.3250,1.2000,0,0,270.0*
1,1,0.4250,-0.3875,-0.1625*
1,1,0.4250,-0.3875,0.1625*
1,1,0.4250,0.3875,0.1625*
1,1,0.4250,0.3875,-0.1625*
%
%ADD85ROUNDEDRECTD85*%
%ADD86R,1.0000X1.5000*%
%ADD87R,1.3000X1.6000*%
%ADD88R,0.4100X0.4000*%
%ADD89R,0.4000X0.4100*%
%ADD90C,1.1000*%
%ADD91R,0.4000X0.8000*%
%ADD92R,0.5000X1.1000*%
G04:AMPARAMS|DCode=93|XSize=0.7mm|YSize=0.7mm|CornerRadius=0.11mm|HoleSize=0mm|Usage=FLASHONLY|Rotation=180.000|XOffset=0mm|YOffset=0mm|HoleType=Round|Shape=RoundedRectangle|*
%AMROUNDEDRECTD93*
21,1,0.7000,0.4800,0,0,180.0*
21,1,0.4800,0.7000,0,0,180.0*
1,1,0.2200,-0.2400,0.2400*
1,1,0.2200,0.2400,0.2400*
1,1,0.2200,0.2400,-0.2400*
1,1,0.2200,-0.2400,-0.2400*
%
%ADD93ROUNDEDRECTD93*%
%ADD94R,0.5000X0.7500*%
%ADD95R,2.1000X0.4500*%
%ADD96R,0.6500X0.6000*%
%ADD97R,1.6000X0.7000*%
%ADD98R,0.6000X0.6500*%
%ADD99R,0.7000X1.6000*%
%ADD100R,0.4500X0.4000*%
%ADD101R,0.8000X3.5000*%
G04:AMPARAMS|DCode=102|XSize=1.1mm|YSize=1mm|CornerRadius=0.275mm|HoleSize=0mm|Usage=FLASHONLY|Rotation=270.000|XOffset=0mm|YOffset=0mm|HoleType=Round|Shape=RoundedRectangle|*
%AMROUNDEDRECTD102*
21,1,1.1000,0.4500,0,0,270.0*
21,1,0.5500,1.0000,0,0,270.0*
1,1,0.5500,-0.2250,-0.2750*
1,1,0.5500,-0.2250,0.2750*
1,1,0.5500,0.2250,0.2750*
1,1,0.5500,0.2250,-0.2750*
%
%ADD102ROUNDEDRECTD102*%
G04:AMPARAMS|DCode=103|XSize=1.1mm|YSize=1.1mm|CornerRadius=0.3mm|HoleSize=0mm|Usage=FLASHONLY|Rotation=270.000|XOffset=0mm|YOffset=0mm|HoleType=Round|Shape=RoundedRectangle|*
%AMROUNDEDRECTD103*
21,1,1.1000,0.5000,0,0,270.0*
21,1,0.5000,1.1000,0,0,270.0*
1,1,0.6000,-0.2500,-0.2500*
1,1,0.6000,-0.2500,0.2500*
1,1,0.6000,0.2500,0.2500*
1,1,0.6000,0.2500,-0.2500*
%
%ADD103ROUNDEDRECTD103*%
G04:AMPARAMS|DCode=104|XSize=0.7mm|YSize=1.1mm|CornerRadius=0.125mm|HoleSize=0mm|Usage=FLASHONLY|Rotation=90.000|XOffset=0mm|YOffset=0mm|HoleType=Round|Shape=RoundedRectangle|*
%AMROUNDEDRECTD104*
21,1,0.7000,0.8500,0,0,90.0*
21,1,0.4500,1.1000,0,0,90.0*
1,1,0.2500,0.4250,0.2250*
1,1,0.2500,0.4250,-0.2250*
1,1,0.2500,-0.4250,-0.2250*
1,1,0.2500,-0.4250,0.2250*
%
%ADD104ROUNDEDRECTD104*%
G04:AMPARAMS|DCode=105|XSize=0.6mm|YSize=0.7mm|CornerRadius=0.1mm|HoleSize=0mm|Usage=FLASHONLY|Rotation=0.000|XOffset=0mm|YOffset=0mm|HoleType=Round|Shape=RoundedRectangle|*
%AMROUNDEDRECTD105*
21,1,0.6000,0.5000,0,0,0.0*
21,1,0.4000,0.7000,0,0,0.0*
1,1,0.2000,0.2000,-0.2500*
1,1,0.2000,-0.2000,-0.2500*
1,1,0.2000,-0.2000,0.2500*
1,1,0.2000,0.2000,0.2500*
%
%ADD105ROUNDEDRECTD105*%
%ADD106R,0.6000X0.8000*%
%ADD107R,2.6000X1.8000*%
G04:AMPARAMS|DCode=108|XSize=1.7mm|YSize=0.6mm|CornerRadius=0.125mm|HoleSize=0mm|Usage=FLASHONLY|Rotation=180.000|XOffset=0mm|YOffset=0mm|HoleType=Round|Shape=RoundedRectangle|*
%AMROUNDEDRECTD108*
21,1,1.7000,0.3500,0,0,180.0*
21,1,1.4500,0.6000,0,0,180.0*
1,1,0.2500,-0.7250,0.1750*
1,1,0.2500,0.7250,0.1750*
1,1,0.2500,0.7250,-0.1750*
1,1,0.2500,-0.7250,-0.1750*
%
%ADD108ROUNDEDRECTD108*%
G04:AMPARAMS|DCode=109|XSize=1.1mm|YSize=1mm|CornerRadius=0.1625mm|HoleSize=0mm|Usage=FLASHONLY|Rotation=0.000|XOffset=0mm|YOffset=0mm|HoleType=Round|Shape=RoundedRectangle|*
%AMROUNDEDRECTD109*
21,1,1.1000,0.6750,0,0,0.0*
21,1,0.7750,1.0000,0,0,0.0*
1,1,0.3250,0.3875,-0.3375*
1,1,0.3250,-0.3875,-0.3375*
1,1,0.3250,-0.3875,0.3375*
1,1,0.3250,0.3875,0.3375*
%
%ADD109ROUNDEDRECTD109*%
%ADD110R,0.5400X0.7500*%
%ADD111R,2.2000X2.2000*%
%ADD112R,0.9500X0.4000*%
%ADD113R,0.4000X0.9500*%
G04:AMPARAMS|DCode=114|XSize=0.6mm|YSize=0.7mm|CornerRadius=0.1mm|HoleSize=0mm|Usage=FLASHONLY|Rotation=90.000|XOffset=0mm|YOffset=0mm|HoleType=Round|Shape=RoundedRectangle|*
%AMROUNDEDRECTD114*
21,1,0.6000,0.5000,0,0,90.0*
21,1,0.4000,0.7000,0,0,90.0*
1,1,0.2000,0.2500,0.2000*
1,1,0.2000,0.2500,-0.2000*
1,1,0.2000,-0.2500,-0.2000*
1,1,0.2000,-0.2500,0.2000*
%
%ADD114ROUNDEDRECTD114*%
G04:AMPARAMS|DCode=115|XSize=0.7mm|YSize=0.7mm|CornerRadius=0.11mm|HoleSize=0mm|Usage=FLASHONLY|Rotation=90.000|XOffset=0mm|YOffset=0mm|HoleType=Round|Shape=RoundedRectangle|*
%AMROUNDEDRECTD115*
21,1,0.7000,0.4800,0,0,90.0*
21,1,0.4800,0.7000,0,0,90.0*
1,1,0.2200,0.2400,0.2400*
1,1,0.2200,0.2400,-0.2400*
1,1,0.2200,-0.2400,-0.2400*
1,1,0.2200,-0.2400,0.2400*
%
%ADD115ROUNDEDRECTD115*%
%ADD116R,0.5000X0.5000*%
%ADD117R,0.7000X0.7000*%
%ADD118R,0.5000X0.5000*%
%ADD119R,0.7000X0.7000*%
%ADD120R,0.8000X1.1000*%
%ADD121R,3.9000X0.6000*%
%ADD122R,4.5000X0.8000*%
%ADD123R,0.8000X2.7500*%
%ADD124R,0.8000X3.6000*%
%ADD125R,0.6000X3.9000*%
%ADD126R,0.8000X4.5000*%
%ADD127R,0.4000X0.7000*%
%ADD128R,1.7000X1.0500*%
%ADD129R,1.1000X1.1000*%
%ADD130R,1.1000X1.1000*%
%ADD131R,1.0500X1.1000*%
%ADD132C,2.0000*%
%ADD133R,1.8000X2.6000*%
%ADD134R,0.8000X0.6000*%
%ADD135C,3.0000*%
G04:AMPARAMS|DCode=136|XSize=1.4mm|YSize=0.9mm|CornerRadius=0.15mm|HoleSize=0mm|Usage=FLASHONLY|Rotation=90.000|XOffset=0mm|YOffset=0mm|HoleType=Round|Shape=RoundedRectangle|*
%AMROUNDEDRECTD136*
21,1,1.4000,0.6000,0,0,90.0*
21,1,1.1000,0.9000,0,0,90.0*
1,1,0.3000,0.3000,0.5500*
1,1,0.3000,0.3000,-0.5500*
1,1,0.3000,-0.3000,-0.5500*
1,1,0.3000,-0.3000,0.5500*
%
%ADD136ROUNDEDRECTD136*%
%ADD137R,1.7500X1.0000*%
%ADD138R,1.7500X0.8600*%
G04:AMPARAMS|DCode=139|XSize=1.1mm|YSize=1.1mm|CornerRadius=0.2mm|HoleSize=0mm|Usage=FLASHONLY|Rotation=180.000|XOffset=0mm|YOffset=0mm|HoleType=Round|Shape=RoundedRectangle|*
%AMROUNDEDRECTD139*
21,1,1.1000,0.7000,0,0,180.0*
21,1,0.7000,1.1000,0,0,180.0*
1,1,0.4000,-0.3500,0.3500*
1,1,0.4000,0.3500,0.3500*
1,1,0.4000,0.3500,-0.3500*
1,1,0.4000,-0.3500,-0.3500*
%
%ADD139ROUNDEDRECTD139*%
%ADD140R,0.3000X0.4950*%
%ADD141R,0.4950X0.3000*%
G04:AMPARAMS|DCode=142|XSize=0.33mm|YSize=0.63mm|CornerRadius=0.1025mm|HoleSize=0mm|Usage=FLASHONLY|Rotation=0.000|XOffset=0mm|YOffset=0mm|HoleType=Round|Shape=RoundedRectangle|*
%AMROUNDEDRECTD142*
21,1,0.3300,0.4250,0,0,0.0*
21,1,0.1250,0.6300,0,0,0.0*
1,1,0.2050,0.0625,-0.2125*
1,1,0.2050,-0.0625,-0.2125*
1,1,0.2050,-0.0625,0.2125*
1,1,0.2050,0.0625,0.2125*
%
%ADD142ROUNDEDRECTD142*%
G04:AMPARAMS|DCode=143|XSize=0.7mm|YSize=0.7mm|CornerRadius=0.11mm|HoleSize=0mm|Usage=FLASHONLY|Rotation=135.000|XOffset=0mm|YOffset=0mm|HoleType=Round|Shape=RoundedRectangle|*
%AMROUNDEDRECTD143*
21,1,0.7000,0.4800,0,0,135.0*
21,1,0.4800,0.7000,0,0,135.0*
1,1,0.2200,0.0000,0.3394*
1,1,0.2200,0.3394,0.0000*
1,1,0.2200,0.0000,-0.3394*
1,1,0.2200,-0.3394,0.0000*
%
%ADD143ROUNDEDRECTD143*%
G04:AMPARAMS|DCode=144|XSize=0.4mm|YSize=0.45mm|CornerRadius=0mm|HoleSize=0mm|Usage=FLASHONLY|Rotation=225.000|XOffset=0mm|YOffset=0mm|HoleType=Round|Shape=Rectangle|*
%AMROTATEDRECTD144*
4,1,4,-0.0177,0.3005,0.3005,-0.0177,0.0177,-0.3005,-0.3005,0.0177,-0.0177,0.3005,0.0*
%
%ADD144ROTATEDRECTD144*%

G04:AMPARAMS|DCode=145|XSize=0.4mm|YSize=0.45mm|CornerRadius=0mm|HoleSize=0mm|Usage=FLASHONLY|Rotation=315.000|XOffset=0mm|YOffset=0mm|HoleType=Round|Shape=Rectangle|*
%AMROTATEDRECTD145*
4,1,4,-0.3005,-0.0177,0.0177,0.3005,0.3005,0.0177,-0.0177,-0.3005,-0.3005,-0.0177,0.0*
%
%ADD145ROTATEDRECTD145*%

G04:AMPARAMS|DCode=146|XSize=1.1mm|YSize=1mm|CornerRadius=0.1625mm|HoleSize=0mm|Usage=FLASHONLY|Rotation=90.000|XOffset=0mm|YOffset=0mm|HoleType=Round|Shape=RoundedRectangle|*
%AMROUNDEDRECTD146*
21,1,1.1000,0.6750,0,0,90.0*
21,1,0.7750,1.0000,0,0,90.0*
1,1,0.3250,0.3375,0.3875*
1,1,0.3250,0.3375,-0.3875*
1,1,0.3250,-0.3375,-0.3875*
1,1,0.3250,-0.3375,0.3875*
%
%ADD146ROUNDEDRECTD146*%
%ADD147C,5.6001*%
G36*
X275750Y31750D02*
X271750Y31750D01*
X271750Y23750D01*
X275750Y23750D01*
Y31750D01*
D02*
G37*
G36*
X372250Y28500D02*
X368250D01*
Y20500D01*
X372250D01*
Y28500D01*
D02*
G37*
G36*
X346750Y38500D02*
Y34500D01*
X354750D01*
Y38500D01*
X346750D01*
D02*
G37*
G36*
X396250Y199250D02*
X400250D01*
Y207250D01*
X396250D01*
Y199250D01*
D02*
G37*
G36*
X728000Y20250D02*
X732000D01*
Y28250D01*
X728000D01*
Y20250D01*
D02*
G37*
G36*
Y65250D02*
X732000D01*
Y73250D01*
X728000D01*
Y65250D01*
D02*
G37*
G36*
Y151250D02*
X732000D01*
Y159250D01*
X728000D01*
Y151250D01*
D02*
G37*
G36*
Y196250D02*
X732000D01*
Y204250D01*
X728000D01*
Y196250D01*
D02*
G37*
D80*
X-20750Y110000D02*
D03*
D81*
X545903Y110053D02*
D03*
X540303D02*
D03*
X713750Y174850D02*
D03*
X719350D02*
D03*
X713750Y159450D02*
D03*
X719350D02*
D03*
X713750Y151750D02*
D03*
X719350D02*
D03*
X713750Y167150D02*
D03*
X719350D02*
D03*
X369750Y41750D02*
D03*
X364150D02*
D03*
X434950Y185250D02*
D03*
X440550D02*
D03*
X57650Y149750D02*
D03*
X63250D02*
D03*
X216700Y189000D02*
D03*
X222300D02*
D03*
X6150Y153750D02*
D03*
X11750D02*
D03*
X6150Y131249D02*
D03*
X11750D02*
D03*
X11750Y123750D02*
D03*
X6150D02*
D03*
X11750Y116250D02*
D03*
X6150D02*
D03*
Y138749D02*
D03*
X11750D02*
D03*
X6150Y146250D02*
D03*
X11750D02*
D03*
X220450Y132500D02*
D03*
X226050D02*
D03*
X223450Y155500D02*
D03*
X229050D02*
D03*
X45150Y149700D02*
D03*
X50750Y149700D02*
D03*
X303750Y83250D02*
D03*
X298150D02*
D03*
X292750Y83250D02*
D03*
X287150Y83250D02*
D03*
X332800Y171000D02*
D03*
X327200D02*
D03*
X399600Y165250D02*
D03*
X394000D02*
D03*
X380950Y169500D02*
D03*
X386550D02*
D03*
X386550Y162000D02*
D03*
X380950D02*
D03*
X454100Y41750D02*
D03*
X448500D02*
D03*
X447950Y55750D02*
D03*
X453550D02*
D03*
X401908Y95000D02*
D03*
X396308D02*
D03*
X389208Y104750D02*
D03*
X383608D02*
D03*
X376958Y90000D02*
D03*
X371358D02*
D03*
X368458Y113500D02*
D03*
X362858D02*
D03*
X374358Y113500D02*
D03*
X379958D02*
D03*
X378958Y83500D02*
D03*
X373358D02*
D03*
X365758Y96200D02*
D03*
X371358D02*
D03*
X395858Y124500D02*
D03*
X401458D02*
D03*
X370608Y149000D02*
D03*
X376208D02*
D03*
X131950Y73500D02*
D03*
X137550D02*
D03*
X206550Y124500D02*
D03*
X200950D02*
D03*
X193200Y80250D02*
D03*
X198800D02*
D03*
X178900Y63000D02*
D03*
X184500D02*
D03*
X193200Y65250D02*
D03*
X198800D02*
D03*
X193200Y72750D02*
D03*
X198800Y72750D02*
D03*
X331087Y110000D02*
D03*
X325487D02*
D03*
X363867Y130000D02*
D03*
X369467D02*
D03*
X365608Y120000D02*
D03*
X371208D02*
D03*
X309750Y102250D02*
D03*
X304150D02*
D03*
X135050Y98000D02*
D03*
X129450D02*
D03*
X137250Y104500D02*
D03*
X131650D02*
D03*
X135050Y91500D02*
D03*
X129450D02*
D03*
X170450Y132050D02*
D03*
X176050D02*
D03*
X116400Y80450D02*
D03*
X122000D02*
D03*
X161200Y125000D02*
D03*
X166800D02*
D03*
X213750Y124750D02*
D03*
X219350D02*
D03*
X166112Y56875D02*
D03*
X160513D02*
D03*
X368000Y211800D02*
D03*
X362400D02*
D03*
X200550Y50000D02*
D03*
X194950D02*
D03*
X711850Y82950D02*
D03*
X706250D02*
D03*
X188646Y174250D02*
D03*
X183046D02*
D03*
X201246D02*
D03*
X195646D02*
D03*
X470958Y153754D02*
D03*
X465358D02*
D03*
X470958Y161067D02*
D03*
X465358D02*
D03*
X309750Y95800D02*
D03*
X304150D02*
D03*
X468958Y106250D02*
D03*
X463358D02*
D03*
X194950Y56750D02*
D03*
X200550Y56750D02*
D03*
X191200Y181000D02*
D03*
X196800D02*
D03*
X218100Y31050D02*
D03*
X212500D02*
D03*
X456958Y132000D02*
D03*
X451358D02*
D03*
X468958Y112750D02*
D03*
X463358D02*
D03*
X660958Y73750D02*
D03*
X655358D02*
D03*
X671958Y66750D02*
D03*
X666358Y66750D02*
D03*
X655358Y66750D02*
D03*
X660958Y66750D02*
D03*
X514422Y68250D02*
D03*
X520023D02*
D03*
X369750Y48250D02*
D03*
X364150D02*
D03*
X503958Y43250D02*
D03*
X498358D02*
D03*
X558958Y76750D02*
D03*
X553358D02*
D03*
X552958Y90250D02*
D03*
X547358D02*
D03*
X491682Y157450D02*
D03*
X486082D02*
D03*
X553050Y119750D02*
D03*
X547450D02*
D03*
X580708Y89500D02*
D03*
X575108D02*
D03*
X515773Y60250D02*
D03*
X510173D02*
D03*
X492150Y164000D02*
D03*
X497750D02*
D03*
X446013Y106911D02*
D03*
X451613D02*
D03*
X446013Y114080D02*
D03*
X451613D02*
D03*
X559058Y96750D02*
D03*
X564658D02*
D03*
X553332Y83900D02*
D03*
X558932D02*
D03*
X518853Y167750D02*
D03*
X513252D02*
D03*
X518853Y161250D02*
D03*
X513252D02*
D03*
X552958Y96750D02*
D03*
X547358D02*
D03*
X574958Y76500D02*
D03*
X569358D02*
D03*
X513958Y142250D02*
D03*
X508358D02*
D03*
X525513Y136780D02*
D03*
X519912D02*
D03*
X525513Y143305D02*
D03*
X519912D02*
D03*
X559950Y122500D02*
D03*
X565550D02*
D03*
X497232Y96900D02*
D03*
X491632D02*
D03*
X497232Y104600D02*
D03*
X491632D02*
D03*
X497232Y81650D02*
D03*
X491632D02*
D03*
X497232Y89350D02*
D03*
X491632D02*
D03*
D82*
X77000Y139250D02*
D03*
X70500D02*
D03*
X64000D02*
D03*
X57500Y139250D02*
D03*
X51000Y139250D02*
D03*
X44500D02*
D03*
X38000D02*
D03*
Y80750D02*
D03*
X44500D02*
D03*
X51000D02*
D03*
X57500Y80750D02*
D03*
X64000Y80750D02*
D03*
X70500D02*
D03*
X77000D02*
D03*
D83*
X28250Y129500D02*
D03*
Y123000D02*
D03*
Y116500D02*
D03*
X28250Y110000D02*
D03*
X28250Y103500D02*
D03*
Y97000D02*
D03*
Y90500D02*
D03*
X86750D02*
D03*
Y97000D02*
D03*
Y103500D02*
D03*
X86750Y110000D02*
D03*
X86750Y116500D02*
D03*
Y123000D02*
D03*
Y129500D02*
D03*
D84*
X57500Y110000D02*
D03*
D85*
X58750Y69500D02*
D03*
X72750D02*
D03*
D86*
X247000Y108500D02*
D03*
Y44500D02*
D03*
D87*
X269000Y101000D02*
D03*
Y49000D02*
D03*
X225000D02*
D03*
Y101000D02*
D03*
X225000Y101000D02*
D03*
X225000Y49000D02*
D03*
X269000D02*
D03*
Y101000D02*
D03*
D88*
X353000Y36500D02*
D03*
X348500D02*
D03*
D89*
X730000Y157500D02*
D03*
Y153000D02*
D03*
X370250Y22250D02*
D03*
Y26750D02*
D03*
X273750Y30000D02*
D03*
Y25500D02*
D03*
X398250Y205500D02*
D03*
Y201000D02*
D03*
X730000Y71500D02*
D03*
Y67000D02*
D03*
Y26500D02*
D03*
Y22000D02*
D03*
Y202500D02*
D03*
Y198000D02*
D03*
D90*
X211205Y202750D02*
D03*
X192750D02*
D03*
X332500Y146750D02*
D03*
Y161000D02*
D03*
X649650Y12000D02*
D03*
X662350D02*
D03*
X115700Y13500D02*
D03*
Y26200D02*
D03*
X128400Y13500D02*
D03*
Y26200D02*
D03*
X141100Y13500D02*
D03*
Y26200D02*
D03*
X153800Y13500D02*
D03*
Y26200D02*
D03*
X166500Y13500D02*
D03*
Y26200D02*
D03*
D91*
X130750Y187250D02*
D03*
X135750D02*
D03*
X155750D02*
D03*
X150750D02*
D03*
X140750D02*
D03*
X145750D02*
D03*
X125750D02*
D03*
X120750D02*
D03*
D92*
X112450Y213750D02*
D03*
X164050D02*
D03*
D93*
X102750Y31500D02*
D03*
Y21500D02*
D03*
X444250Y77000D02*
D03*
X444250Y67000D02*
D03*
X417750Y33750D02*
D03*
Y23750D02*
D03*
X388250Y201000D02*
D03*
Y211000D02*
D03*
X706250Y62500D02*
D03*
Y72500D02*
D03*
X120250Y97505D02*
D03*
Y107505D02*
D03*
X590908Y156250D02*
D03*
Y146250D02*
D03*
Y166250D02*
D03*
Y176250D02*
D03*
X630037Y102500D02*
D03*
Y92500D02*
D03*
X587658Y41250D02*
D03*
Y51250D02*
D03*
D94*
X394250Y132750D02*
D03*
X386750D02*
D03*
X436250Y167000D02*
D03*
X428750D02*
D03*
D95*
X-19501Y202499D02*
D03*
Y197500D02*
D03*
Y192499D02*
D03*
Y187500D02*
D03*
Y182499D02*
D03*
Y157500D02*
D03*
Y152499D02*
D03*
Y147500D02*
D03*
Y142499D02*
D03*
Y137501D02*
D03*
Y132499D02*
D03*
Y127501D02*
D03*
Y122499D02*
D03*
Y117501D02*
D03*
Y112499D02*
D03*
Y107501D02*
D03*
Y102499D02*
D03*
Y97501D02*
D03*
Y92499D02*
D03*
Y87501D02*
D03*
Y82499D02*
D03*
Y77501D02*
D03*
Y72499D02*
D03*
Y67501D02*
D03*
Y42499D02*
D03*
Y37501D02*
D03*
Y32499D02*
D03*
Y27501D02*
D03*
Y22499D02*
D03*
Y17501D02*
D03*
D96*
X427250Y201000D02*
D03*
X406750D02*
D03*
X758750Y22000D02*
D03*
X738250D02*
D03*
X758750Y153000D02*
D03*
X738250D02*
D03*
X758750Y67000D02*
D03*
X738250D02*
D03*
X758750Y198000D02*
D03*
X738250D02*
D03*
D97*
X417000Y191000D02*
D03*
Y211000D02*
D03*
X748500Y12000D02*
D03*
Y32000D02*
D03*
Y143000D02*
D03*
Y163000D02*
D03*
Y57000D02*
D03*
Y77000D02*
D03*
Y188000D02*
D03*
Y208000D02*
D03*
D98*
X388500Y6250D02*
D03*
Y26750D02*
D03*
X244500Y6250D02*
D03*
Y26750D02*
D03*
X340500Y6250D02*
D03*
Y26750D02*
D03*
X292500Y6250D02*
D03*
Y26750D02*
D03*
D99*
X378500Y16500D02*
D03*
X398500D02*
D03*
X234500D02*
D03*
X254500D02*
D03*
X330500D02*
D03*
X350500D02*
D03*
X282500D02*
D03*
X302500D02*
D03*
D100*
X228250Y190050D02*
D03*
Y184450D02*
D03*
X428750Y136900D02*
D03*
Y142500D02*
D03*
X435958Y141550D02*
D03*
Y147150D02*
D03*
X498750Y196050D02*
D03*
Y190450D02*
D03*
X511500Y196050D02*
D03*
Y190450D02*
D03*
X226250Y141700D02*
D03*
Y147300D02*
D03*
X231000Y172950D02*
D03*
Y178550D02*
D03*
X86750Y154800D02*
D03*
Y149200D02*
D03*
X17050Y96100D02*
D03*
Y90500D02*
D03*
Y79250D02*
D03*
Y84850D02*
D03*
X319750Y43200D02*
D03*
Y48800D02*
D03*
X313250Y46550D02*
D03*
Y40950D02*
D03*
X310000Y83200D02*
D03*
Y88800D02*
D03*
X282500Y68300D02*
D03*
Y62700D02*
D03*
X292200Y95050D02*
D03*
Y89450D02*
D03*
X298700Y95050D02*
D03*
Y89450D02*
D03*
X280950Y83250D02*
D03*
Y88850D02*
D03*
X391500Y176200D02*
D03*
Y181800D02*
D03*
X401250Y177250D02*
D03*
Y182850D02*
D03*
X459750Y47550D02*
D03*
X459750Y41950D02*
D03*
X469955Y5250D02*
D03*
X469955Y10850D02*
D03*
X401908Y129450D02*
D03*
Y135050D02*
D03*
X411908Y115600D02*
D03*
Y110000D02*
D03*
X401408Y87300D02*
D03*
Y81700D02*
D03*
X378158Y102450D02*
D03*
Y108050D02*
D03*
X350158Y93700D02*
D03*
Y99300D02*
D03*
X343658Y93700D02*
D03*
Y99300D02*
D03*
X343658Y87800D02*
D03*
Y82200D02*
D03*
X350158Y87800D02*
D03*
Y82200D02*
D03*
X359158Y105050D02*
D03*
Y99450D02*
D03*
X404408Y105550D02*
D03*
Y99950D02*
D03*
X389783Y140000D02*
D03*
Y145600D02*
D03*
X397533Y140000D02*
D03*
Y145600D02*
D03*
X404033Y140000D02*
D03*
Y145600D02*
D03*
X397663Y104400D02*
D03*
Y110000D02*
D03*
X381658Y124800D02*
D03*
Y119200D02*
D03*
X355658Y138550D02*
D03*
Y132950D02*
D03*
X371408Y135450D02*
D03*
Y141050D02*
D03*
X346658Y120300D02*
D03*
Y114700D02*
D03*
X188550Y50000D02*
D03*
Y44400D02*
D03*
X164000Y132000D02*
D03*
Y137600D02*
D03*
X213000Y101200D02*
D03*
Y95600D02*
D03*
X193000Y117800D02*
D03*
Y112200D02*
D03*
X129500Y85300D02*
D03*
Y79700D02*
D03*
X193000Y101200D02*
D03*
Y106800D02*
D03*
X347158Y132950D02*
D03*
Y138550D02*
D03*
X206750Y95550D02*
D03*
Y89950D02*
D03*
X356908Y115700D02*
D03*
Y121300D02*
D03*
X345158Y104200D02*
D03*
Y109800D02*
D03*
X351658Y104200D02*
D03*
Y109800D02*
D03*
X387658Y89200D02*
D03*
Y94800D02*
D03*
X200000Y87950D02*
D03*
Y93550D02*
D03*
X155250Y124450D02*
D03*
Y130050D02*
D03*
X125800Y73500D02*
D03*
Y67900D02*
D03*
X193250Y93550D02*
D03*
Y87950D02*
D03*
X199750Y106800D02*
D03*
Y101200D02*
D03*
X206500D02*
D03*
Y106800D02*
D03*
X137000Y79700D02*
D03*
Y85300D02*
D03*
X206500Y112200D02*
D03*
Y117800D02*
D03*
X199750Y112200D02*
D03*
Y117800D02*
D03*
X172750Y57400D02*
D03*
Y63000D02*
D03*
X158262Y62450D02*
D03*
Y68050D02*
D03*
X511500Y208500D02*
D03*
Y202900D02*
D03*
X472008Y123881D02*
D03*
Y118280D02*
D03*
X169013Y48975D02*
D03*
Y43375D02*
D03*
X158512Y48975D02*
D03*
Y43375D02*
D03*
X111750Y133896D02*
D03*
Y128296D02*
D03*
Y148996D02*
D03*
Y143396D02*
D03*
X498750Y208500D02*
D03*
Y202900D02*
D03*
X209500Y48300D02*
D03*
Y42700D02*
D03*
X224250Y7850D02*
D03*
X224250Y13450D02*
D03*
X211200Y7850D02*
D03*
Y13450D02*
D03*
X224250Y24550D02*
D03*
Y18950D02*
D03*
X217700Y13450D02*
D03*
Y7850D02*
D03*
X105250Y138450D02*
D03*
X105250Y144050D02*
D03*
X378000Y206200D02*
D03*
Y211800D02*
D03*
X540658Y130300D02*
D03*
Y124700D02*
D03*
X489908Y143800D02*
D03*
Y138200D02*
D03*
X158250Y147750D02*
D03*
Y142150D02*
D03*
X214455Y137500D02*
D03*
X214455Y143100D02*
D03*
X681408Y66050D02*
D03*
Y71650D02*
D03*
X679658Y54700D02*
D03*
X679658Y60300D02*
D03*
X522158Y175250D02*
D03*
Y180850D02*
D03*
X514408Y79300D02*
D03*
Y73700D02*
D03*
X627908Y79450D02*
D03*
Y85050D02*
D03*
X545658Y152700D02*
D03*
Y158300D02*
D03*
X545158Y147300D02*
D03*
Y141700D02*
D03*
X491750Y169750D02*
D03*
Y175350D02*
D03*
X506658Y180800D02*
D03*
Y175200D02*
D03*
X510173Y54000D02*
D03*
Y48400D02*
D03*
X575858Y108550D02*
D03*
Y102950D02*
D03*
X513252Y175250D02*
D03*
Y180850D02*
D03*
X548408Y177450D02*
D03*
Y183050D02*
D03*
X519658Y131050D02*
D03*
Y125450D02*
D03*
X510000Y131600D02*
D03*
Y126000D02*
D03*
X506908Y73700D02*
D03*
Y79300D02*
D03*
X588433Y133150D02*
D03*
Y138750D02*
D03*
X551882Y134200D02*
D03*
Y128600D02*
D03*
X539658Y135450D02*
D03*
Y141050D02*
D03*
X551658Y147300D02*
D03*
Y141700D02*
D03*
X524658Y159050D02*
D03*
Y153450D02*
D03*
X539108Y150311D02*
D03*
Y155911D02*
D03*
X476408Y79670D02*
D03*
Y74070D02*
D03*
X469908Y79670D02*
D03*
Y74070D02*
D03*
X448908Y94900D02*
D03*
Y100500D02*
D03*
X455458Y94900D02*
D03*
Y100500D02*
D03*
X462908Y86806D02*
D03*
Y92406D02*
D03*
X469908Y86806D02*
D03*
Y92406D02*
D03*
X558382Y131850D02*
D03*
Y137450D02*
D03*
X581408Y131700D02*
D03*
Y137300D02*
D03*
X541158Y183050D02*
D03*
Y177450D02*
D03*
X557158Y156550D02*
D03*
Y150950D02*
D03*
X568908Y140450D02*
D03*
Y146050D02*
D03*
X469801Y137795D02*
D03*
Y132195D02*
D03*
X462462Y137795D02*
D03*
Y132195D02*
D03*
X498132Y151850D02*
D03*
Y157450D02*
D03*
X499402Y140905D02*
D03*
Y146505D02*
D03*
X480158Y126800D02*
D03*
Y121200D02*
D03*
D101*
X694750Y59000D02*
D03*
D102*
X116200Y28200D02*
D03*
D103*
X166500D02*
D03*
X128400D02*
D03*
X141100D02*
D03*
X153800D02*
D03*
X166500Y11500D02*
D03*
X153800D02*
D03*
X141100D02*
D03*
X128400D02*
D03*
X115700D02*
D03*
X317000Y207000D02*
D03*
D104*
X282450Y75000D02*
D03*
X308450Y56000D02*
D03*
Y65500D02*
D03*
Y75000D02*
D03*
X282450Y56000D02*
D03*
X371250Y162750D02*
D03*
X345250Y181750D02*
D03*
Y172250D02*
D03*
Y162750D02*
D03*
X371250Y181750D02*
D03*
X148763Y45250D02*
D03*
Y64250D02*
D03*
X125763Y54750D02*
D03*
D105*
X424000D02*
D03*
Y64750D02*
D03*
X428255Y33750D02*
D03*
Y23750D02*
D03*
X471396Y33750D02*
D03*
Y23750D02*
D03*
X421908Y105000D02*
D03*
Y115000D02*
D03*
X706250Y41500D02*
D03*
Y51500D02*
D03*
X354200Y211800D02*
D03*
Y201800D02*
D03*
X120250Y162896D02*
D03*
Y172896D02*
D03*
X215896Y165500D02*
D03*
Y155500D02*
D03*
X172755Y165500D02*
D03*
Y155500D02*
D03*
X598537Y102500D02*
D03*
Y92500D02*
D03*
X556158Y41250D02*
D03*
Y51250D02*
D03*
X599137Y127250D02*
D03*
Y117250D02*
D03*
X630137Y127250D02*
D03*
Y117250D02*
D03*
X632658Y166500D02*
D03*
X632658Y156500D02*
D03*
X601408Y156250D02*
D03*
Y166250D02*
D03*
D106*
X440250Y5750D02*
D03*
X449750Y5750D02*
D03*
X459250D02*
D03*
Y33750D02*
D03*
X449750D02*
D03*
X440250Y33750D02*
D03*
X184750Y137500D02*
D03*
X194250D02*
D03*
X203750D02*
D03*
Y165500D02*
D03*
X194250D02*
D03*
X184750D02*
D03*
D107*
X449750Y19750D02*
D03*
X194250Y151500D02*
D03*
D108*
X74750Y10750D02*
D03*
Y25750D02*
D03*
X74750Y54750D02*
D03*
Y39750D02*
D03*
X41750Y10750D02*
D03*
Y25750D02*
D03*
X41750Y54750D02*
D03*
X41750Y39750D02*
D03*
X76000Y165250D02*
D03*
Y180250D02*
D03*
X42500Y165250D02*
D03*
Y180250D02*
D03*
X76000Y209250D02*
D03*
X76000Y194250D02*
D03*
X42500D02*
D03*
Y209250D02*
D03*
D109*
X24750Y39750D02*
D03*
Y56750D02*
D03*
X24750Y25750D02*
D03*
Y8750D02*
D03*
X91750Y39750D02*
D03*
Y56750D02*
D03*
Y8750D02*
D03*
Y25750D02*
D03*
X92750Y163250D02*
D03*
Y180250D02*
D03*
X25750Y211250D02*
D03*
Y194250D02*
D03*
Y180250D02*
D03*
Y163250D02*
D03*
X92750Y194250D02*
D03*
Y211250D02*
D03*
X336158Y118250D02*
D03*
Y135250D02*
D03*
D110*
X436250Y157500D02*
D03*
X428750D02*
D03*
D111*
X165250Y96250D02*
D03*
D112*
X184250Y106250D02*
D03*
Y101250D02*
D03*
Y96250D02*
D03*
Y91250D02*
D03*
Y86250D02*
D03*
X146250D02*
D03*
Y91250D02*
D03*
Y96250D02*
D03*
Y101250D02*
D03*
Y106250D02*
D03*
D113*
X175250Y77250D02*
D03*
X170250D02*
D03*
X165250D02*
D03*
X160250D02*
D03*
X155250D02*
D03*
Y115250D02*
D03*
X160250D02*
D03*
X165250D02*
D03*
X170250D02*
D03*
X175250D02*
D03*
D114*
X334908Y81750D02*
D03*
X324908D02*
D03*
X334908Y91750D02*
D03*
X324908D02*
D03*
X354158Y56000D02*
D03*
X364158D02*
D03*
X334908Y101750D02*
D03*
X324908D02*
D03*
X662000Y206500D02*
D03*
X672000D02*
D03*
X120250Y118005D02*
D03*
X130250D02*
D03*
X622158Y166250D02*
D03*
X612158D02*
D03*
X619037Y102500D02*
D03*
X609037Y102500D02*
D03*
X619037Y92500D02*
D03*
X609037D02*
D03*
X576658Y51250D02*
D03*
X566658D02*
D03*
X576658Y41250D02*
D03*
X566658D02*
D03*
X619637Y117250D02*
D03*
X609637Y117250D02*
D03*
X619637Y127250D02*
D03*
X609637Y127250D02*
D03*
X621908Y156250D02*
D03*
X611908D02*
D03*
D115*
X283000Y113500D02*
D03*
X293000D02*
D03*
X314250Y114250D02*
D03*
X304250D02*
D03*
X333750Y206500D02*
D03*
X343750D02*
D03*
X155250Y176750D02*
D03*
X165250D02*
D03*
X442408Y90750D02*
D03*
X432408D02*
D03*
D116*
X342408Y64500D02*
D03*
Y72500D02*
D03*
X335908Y58000D02*
D03*
Y50000D02*
D03*
X355408Y153000D02*
D03*
X355408Y145000D02*
D03*
D117*
X334408Y68500D02*
D03*
X350408D02*
D03*
X343908Y54000D02*
D03*
X327908D02*
D03*
X363408Y149000D02*
D03*
X347408D02*
D03*
D118*
X437658Y121000D02*
D03*
X429658D02*
D03*
X413658Y132750D02*
D03*
X421658D02*
D03*
D119*
X433658Y113000D02*
D03*
Y129000D02*
D03*
X417658Y140750D02*
D03*
Y124750D02*
D03*
D120*
X694750Y47250D02*
D03*
D121*
X613250Y28500D02*
D03*
Y191500D02*
D03*
D122*
X676000Y28500D02*
D03*
Y191500D02*
D03*
X550500D02*
D03*
Y28500D02*
D03*
D123*
X531750Y181750D02*
D03*
Y38250D02*
D03*
D124*
Y110000D02*
D03*
D125*
X694750D02*
D03*
D126*
Y172750D02*
D03*
D127*
X188750Y35500D02*
D03*
X193750D02*
D03*
X198750D02*
D03*
X203750D02*
D03*
Y16000D02*
D03*
X198750D02*
D03*
X193750D02*
D03*
X188750D02*
D03*
D128*
X196250Y25750D02*
D03*
D129*
X280000Y207000D02*
D03*
X298500Y207000D02*
D03*
X261500D02*
D03*
X243000D02*
D03*
X261500Y133000D02*
D03*
X280000Y133000D02*
D03*
X298500D02*
D03*
X317000Y133000D02*
D03*
D130*
X243000Y188500D02*
D03*
Y170000D02*
D03*
Y151500D02*
D03*
X317000D02*
D03*
Y170000D02*
D03*
Y188500D02*
D03*
D131*
X243000Y133000D02*
D03*
D132*
X475158Y185000D02*
D03*
D133*
X134250Y141250D02*
D03*
D134*
X120250Y131750D02*
D03*
Y141250D02*
D03*
Y150750D02*
D03*
X148250D02*
D03*
Y141250D02*
D03*
Y131750D02*
D03*
D135*
X33000Y280300D02*
D03*
X827750Y280300D02*
D03*
Y-60300D02*
D03*
X33050Y-60250D02*
D03*
D136*
X621658Y179000D02*
D03*
X601658D02*
D03*
X621658Y143500D02*
D03*
X601658D02*
D03*
D137*
X634558Y68200D02*
D03*
Y41300D02*
D03*
X602758D02*
D03*
Y68200D02*
D03*
X678308Y174950D02*
D03*
Y148050D02*
D03*
X646508D02*
D03*
Y174950D02*
D03*
X644637Y110950D02*
D03*
Y84050D02*
D03*
X676437D02*
D03*
Y110950D02*
D03*
D138*
X634558Y54750D02*
D03*
X678308Y161500D02*
D03*
X676437Y97500D02*
D03*
D139*
X661658Y50250D02*
D03*
D140*
X665658Y40725D02*
D03*
X661658D02*
D03*
X657658D02*
D03*
Y59775D02*
D03*
X661658D02*
D03*
X665658D02*
D03*
D141*
X652133Y43500D02*
D03*
Y48000D02*
D03*
Y52500D02*
D03*
Y57000D02*
D03*
X671183D02*
D03*
Y52500D02*
D03*
Y48000D02*
D03*
Y43500D02*
D03*
D142*
X645658Y121250D02*
D03*
X650658D02*
D03*
X645658Y129750D02*
D03*
X650658D02*
D03*
X640658D02*
D03*
Y121250D02*
D03*
D143*
X485158Y68250D02*
D03*
X478087Y61179D02*
D03*
D144*
X490138Y55480D02*
D03*
X486178Y51520D02*
D03*
X539858Y162000D02*
D03*
X543818Y165960D02*
D03*
X563152Y154670D02*
D03*
X567112Y158630D02*
D03*
X495513Y50105D02*
D03*
X491553Y46145D02*
D03*
X569520Y127770D02*
D03*
X573480Y131730D02*
D03*
D145*
X578428Y153480D02*
D03*
X582388Y149520D02*
D03*
X498138Y55520D02*
D03*
X494178Y59480D02*
D03*
X579138Y143520D02*
D03*
X575178Y147480D02*
D03*
X505362Y66420D02*
D03*
X501402Y70380D02*
D03*
D146*
X428750Y77750D02*
D03*
X411750D02*
D03*
D147*
X767500Y110000D02*
D03*
M02*
