G04*
G04 #@! TF.GenerationSoftware,Altium Limited,Altium Designer,19.1.6 (110)*
G04*
G04 Layer_Physical_Order=2*
G04 Layer_Color=36540*
%FSLAX44Y44*%
%MOMM*%
G71*
G01*
G75*
%ADD150C,1.0000*%
%ADD157C,0.1100*%
%ADD166C,0.3500*%
%ADD167C,0.4000*%
%ADD168C,0.5000*%
G36*
X186974Y217962D02*
X188020Y216395D01*
X189674Y215290D01*
X191625Y214902D01*
X193576Y215290D01*
X195230Y216395D01*
X196276Y217962D01*
X198724D01*
X199770Y216395D01*
X201424Y215290D01*
X203375Y214902D01*
X205326Y215290D01*
X206980Y216395D01*
X208027Y217962D01*
X259241Y217961D01*
X260194Y216691D01*
X260146Y216450D01*
X260359Y215377D01*
X260967Y214467D01*
X261877Y213860D01*
X262950Y213646D01*
X264023Y213860D01*
X264932Y214467D01*
X265540Y215377D01*
X265754Y216450D01*
X265706Y216691D01*
X266658Y217961D01*
X391260Y217961D01*
X391464Y217698D01*
X391823Y216691D01*
X391410Y216073D01*
X391196Y215000D01*
X391410Y213927D01*
X392017Y213017D01*
X392927Y212410D01*
X394000Y212196D01*
X395073Y212410D01*
X395983Y213017D01*
X396590Y213927D01*
X397850Y213750D01*
X398750Y213571D01*
X399823Y213785D01*
X400733Y214392D01*
X401340Y215302D01*
X401554Y216375D01*
X401491Y216691D01*
X402409Y217961D01*
X526974Y217961D01*
X528020Y216395D01*
X529674Y215290D01*
X531625Y214902D01*
X533576Y215290D01*
X535230Y216395D01*
X536276Y217961D01*
X538724D01*
X539770Y216395D01*
X541424Y215290D01*
X543375Y214902D01*
X545326Y215290D01*
X546980Y216395D01*
X548026Y217961D01*
X765461Y217961D01*
Y2039D01*
X548026Y2039D01*
X546980Y3605D01*
X545326Y4710D01*
X543375Y5098D01*
X541424Y4710D01*
X539770Y3605D01*
X538724Y2039D01*
X536276D01*
X535230Y3605D01*
X533576Y4710D01*
X531625Y5098D01*
X529674Y4710D01*
X528020Y3605D01*
X526974Y2039D01*
X208026Y2039D01*
X206980Y3605D01*
X205326Y4710D01*
X203375Y5098D01*
X201424Y4710D01*
X199770Y3605D01*
X198724Y2039D01*
X196276D01*
X195230Y3605D01*
X193576Y4710D01*
X191625Y5098D01*
X189674Y4710D01*
X188020Y3605D01*
X186974Y2039D01*
X9539Y2039D01*
Y5750D01*
X9519Y5849D01*
X9529Y5950D01*
X9433Y6926D01*
X9346Y7212D01*
X9288Y7506D01*
X8541Y9308D01*
X8099Y9970D01*
X6720Y11349D01*
X6720Y11349D01*
X6058Y11791D01*
X4256Y12538D01*
X3962Y12596D01*
X3675Y12683D01*
X2700Y12779D01*
X2599Y12769D01*
X2500Y12789D01*
X-30461D01*
Y45711D01*
X-3500D01*
X-3401Y45731D01*
X-3300Y45721D01*
X-2130Y45836D01*
X-1843Y45923D01*
X-1549Y45981D01*
X614Y46877D01*
X1275Y47319D01*
X2931Y48975D01*
X3373Y49636D01*
X4269Y51799D01*
X4424Y52579D01*
Y54921D01*
X4269Y55701D01*
X3373Y57864D01*
X2931Y58525D01*
X1275Y60181D01*
X614Y60623D01*
X-588Y61121D01*
X-1410Y62177D01*
X-1196Y63250D01*
X-1410Y64323D01*
X-2017Y65233D01*
X-2927Y65840D01*
X-4000Y66054D01*
X-5073Y65840D01*
X-5983Y65233D01*
X-6590Y64323D01*
X-6804Y63250D01*
X-6766Y63059D01*
X-7742Y61789D01*
X-30461D01*
Y163211D01*
X-3500D01*
X-3401Y163231D01*
X-3300Y163221D01*
X-2130Y163336D01*
X-1843Y163423D01*
X-1549Y163481D01*
X614Y164377D01*
X1275Y164819D01*
X2931Y166475D01*
X3373Y167136D01*
X4269Y169299D01*
X4424Y170079D01*
Y172421D01*
X4269Y173201D01*
X3373Y175364D01*
X2931Y176025D01*
X1275Y177681D01*
X1019Y177852D01*
X872Y178500D01*
X866Y178971D01*
X977Y179347D01*
X1233Y179517D01*
X1840Y180427D01*
X2054Y181500D01*
X1840Y182573D01*
X1233Y183483D01*
X323Y184090D01*
X-750Y184304D01*
X-1823Y184090D01*
X-2733Y183483D01*
X-3340Y182573D01*
X-3554Y181500D01*
X-3360Y180523D01*
X-3361Y180487D01*
X-3364Y180458D01*
X-3387Y180357D01*
X-4108Y179289D01*
X-30461Y179289D01*
Y207211D01*
X2500Y207211D01*
X2599Y207231D01*
X2700Y207221D01*
X3675Y207317D01*
X3962Y207404D01*
X4256Y207462D01*
X6058Y208209D01*
X6720Y208651D01*
X8099Y210030D01*
X8099Y210030D01*
X8541Y210692D01*
X9288Y212494D01*
X9346Y212788D01*
X9433Y213075D01*
X9529Y214050D01*
X9519Y214151D01*
X9539Y214250D01*
Y217962D01*
X186974Y217962D01*
D02*
G37*
%LPC*%
G36*
X62000Y213554D02*
X60927Y213340D01*
X60017Y212733D01*
X60014Y212727D01*
X58486D01*
X58483Y212733D01*
X57573Y213340D01*
X56500Y213554D01*
X55427Y213340D01*
X54517Y212733D01*
X53910Y211823D01*
X53696Y210750D01*
X53910Y209677D01*
X54517Y208768D01*
X55427Y208160D01*
X56500Y207946D01*
X57573Y208160D01*
X58483Y208768D01*
X58486Y208773D01*
X60014D01*
X60017Y208768D01*
X60927Y208160D01*
X62000Y207946D01*
X63073Y208160D01*
X63983Y208768D01*
X64590Y209677D01*
X64804Y210750D01*
X64590Y211823D01*
X63983Y212733D01*
X63073Y213340D01*
X62000Y213554D01*
D02*
G37*
G36*
X119000Y216354D02*
X117927Y216140D01*
X117017Y215533D01*
X116410Y214623D01*
X116196Y213550D01*
X116410Y212477D01*
X117017Y211567D01*
X117927Y210960D01*
X119000Y210746D01*
X120073Y210960D01*
X120983Y211567D01*
X121590Y212477D01*
X121804Y213550D01*
X121590Y214623D01*
X120983Y215533D01*
X120073Y216140D01*
X119000Y216354D01*
D02*
G37*
G36*
X515750Y215804D02*
X514677Y215590D01*
X513767Y214983D01*
X513160Y214073D01*
X512946Y213000D01*
X513160Y211927D01*
X513767Y211017D01*
X514677Y210410D01*
X515750Y210196D01*
X516823Y210410D01*
X517733Y211017D01*
X518340Y211927D01*
X518554Y213000D01*
X518340Y214073D01*
X517733Y214983D01*
X516823Y215590D01*
X515750Y215804D01*
D02*
G37*
G36*
X217500Y215304D02*
X216427Y215090D01*
X215517Y214483D01*
X214910Y213573D01*
X214696Y212500D01*
X214910Y211427D01*
X215517Y210517D01*
X216427Y209909D01*
X217500Y209696D01*
X218573Y209909D01*
X219483Y210517D01*
X220090Y211427D01*
X220304Y212500D01*
X220090Y213573D01*
X219483Y214483D01*
X218573Y215090D01*
X217500Y215304D01*
D02*
G37*
G36*
X504750Y213304D02*
X503677Y213090D01*
X502767Y212483D01*
X502160Y211573D01*
X501946Y210500D01*
X502160Y209427D01*
X502767Y208517D01*
X503677Y207910D01*
X504750Y207696D01*
X505823Y207910D01*
X506733Y208517D01*
X507340Y209427D01*
X507554Y210500D01*
X507340Y211573D01*
X506733Y212483D01*
X505823Y213090D01*
X504750Y213304D01*
D02*
G37*
G36*
X484250Y213054D02*
X483177Y212840D01*
X482267Y212233D01*
X481660Y211323D01*
X481446Y210250D01*
X481660Y209177D01*
X482267Y208267D01*
X483177Y207660D01*
X484250Y207446D01*
X485323Y207660D01*
X486233Y208267D01*
X486840Y209177D01*
X487054Y210250D01*
X486840Y211323D01*
X486233Y212233D01*
X485323Y212840D01*
X484250Y213054D01*
D02*
G37*
G36*
X492000Y212804D02*
X490927Y212590D01*
X490017Y211983D01*
X489410Y211073D01*
X489196Y210000D01*
X489410Y208927D01*
X490017Y208017D01*
X490927Y207410D01*
X492000Y207196D01*
X493073Y207410D01*
X493983Y208017D01*
X494590Y208927D01*
X494804Y210000D01*
X494590Y211073D01*
X493983Y211983D01*
X493073Y212590D01*
X492000Y212804D01*
D02*
G37*
G36*
X106250Y210804D02*
X105177Y210590D01*
X104267Y209983D01*
X103660Y209073D01*
X103446Y208000D01*
X103660Y206927D01*
X104267Y206017D01*
X105177Y205410D01*
X106250Y205196D01*
X107323Y205410D01*
X108233Y206017D01*
X108840Y206927D01*
X109054Y208000D01*
X108840Y209073D01*
X108233Y209983D01*
X107323Y210590D01*
X106250Y210804D01*
D02*
G37*
G36*
X270750Y209804D02*
X269677Y209590D01*
X268768Y208983D01*
X268160Y208073D01*
X267946Y207000D01*
X268160Y205927D01*
X268768Y205017D01*
X269677Y204410D01*
X270750Y204196D01*
X271823Y204410D01*
X272733Y205017D01*
X273340Y205927D01*
X273554Y207000D01*
X273340Y208073D01*
X272733Y208983D01*
X271823Y209590D01*
X270750Y209804D01*
D02*
G37*
G36*
X675150Y209102D02*
X668900D01*
Y203852D01*
X675150D01*
Y209102D01*
D02*
G37*
G36*
X665150D02*
X658900D01*
Y203852D01*
X665150D01*
Y209102D01*
D02*
G37*
G36*
X231750Y208754D02*
X230677Y208540D01*
X229767Y207933D01*
X229160Y207023D01*
X228946Y205950D01*
X229160Y204877D01*
X229767Y203967D01*
X230677Y203360D01*
X231750Y203146D01*
X232823Y203360D01*
X233733Y203967D01*
X234340Y204877D01*
X234554Y205950D01*
X234340Y207023D01*
X233733Y207933D01*
X232823Y208540D01*
X231750Y208754D01*
D02*
G37*
G36*
X281500Y202054D02*
X280427Y201840D01*
X279517Y201233D01*
X279305Y200915D01*
X277819Y200854D01*
X277733Y200983D01*
X276823Y201590D01*
X275750Y201804D01*
X274677Y201590D01*
X273767Y200983D01*
X273160Y200073D01*
X272946Y199000D01*
X273160Y197927D01*
X273767Y197017D01*
X274677Y196409D01*
X275750Y196196D01*
X276823Y196409D01*
X277733Y197017D01*
X277945Y197335D01*
X279431Y197396D01*
X279517Y197267D01*
X280427Y196660D01*
X281500Y196446D01*
X282573Y196660D01*
X283483Y197267D01*
X284090Y198177D01*
X284304Y199250D01*
X284090Y200323D01*
X283483Y201233D01*
X282573Y201840D01*
X281500Y202054D01*
D02*
G37*
G36*
X463000Y201554D02*
X461927Y201340D01*
X461358Y200960D01*
X460500Y200818D01*
X459642Y200960D01*
X459073Y201340D01*
X458000Y201554D01*
X456927Y201340D01*
X456017Y200733D01*
X455410Y199823D01*
X455196Y198750D01*
X455198Y198739D01*
X454677Y197340D01*
X453767Y196733D01*
X453160Y195823D01*
X452946Y194750D01*
X453160Y193677D01*
X453452Y193240D01*
X453038Y191927D01*
X452970Y191849D01*
X452927Y191840D01*
X452017Y191233D01*
X451409Y190323D01*
X451196Y189250D01*
X451281Y188825D01*
X450267Y187775D01*
X449869Y187854D01*
X448796Y187640D01*
X447887Y187033D01*
X447853Y186983D01*
X446983D01*
X446073Y187590D01*
X445000Y187804D01*
X443927Y187590D01*
X443017Y186983D01*
X442410Y186073D01*
X442196Y185000D01*
X442410Y183927D01*
X443017Y183017D01*
X443927Y182410D01*
X445000Y182196D01*
X446073Y182410D01*
X446983Y183017D01*
X447016Y183067D01*
X447887D01*
X448796Y182460D01*
X449869Y182246D01*
X450942Y182460D01*
X451852Y183067D01*
X452459Y183977D01*
X452673Y185050D01*
X452589Y185474D01*
X453602Y186525D01*
X454000Y186446D01*
X455073Y186660D01*
X455983Y187267D01*
X456590Y188177D01*
X456804Y189250D01*
X456590Y190323D01*
X456298Y190760D01*
X456712Y192073D01*
X456780Y192151D01*
X456823Y192160D01*
X457733Y192767D01*
X458340Y193677D01*
X458554Y194750D01*
X458552Y194761D01*
X458921Y195751D01*
X460238Y196409D01*
X460513Y196305D01*
X460948Y195837D01*
X460910Y195323D01*
X460696Y194250D01*
X460910Y193177D01*
X461517Y192267D01*
X462427Y191660D01*
X463500Y191446D01*
X464573Y191660D01*
X465483Y192267D01*
X466090Y193177D01*
X466304Y194250D01*
X466090Y195323D01*
X465483Y196233D01*
X465590Y197677D01*
X465804Y198750D01*
X465590Y199823D01*
X464983Y200733D01*
X464073Y201340D01*
X463000Y201554D01*
D02*
G37*
G36*
X680000Y200804D02*
X678927Y200590D01*
X678704Y200441D01*
X677750Y200083D01*
X676796Y200441D01*
X676573Y200590D01*
X675500Y200804D01*
X674427Y200590D01*
X673517Y199983D01*
X672983D01*
X672073Y200590D01*
X671000Y200804D01*
X669927Y200590D01*
X669017Y199983D01*
X668410Y199073D01*
X668196Y198000D01*
X668410Y196927D01*
X669017Y196017D01*
X669927Y195410D01*
X671000Y195196D01*
X672073Y195410D01*
X672983Y196017D01*
X673517D01*
X674427Y195410D01*
X675500Y195196D01*
X676573Y195410D01*
X676796Y195559D01*
X677750Y195917D01*
X678704Y195559D01*
X678927Y195410D01*
X680000Y195196D01*
X681073Y195410D01*
X681983Y196017D01*
X682590Y196927D01*
X682804Y198000D01*
X682590Y199073D01*
X681983Y199983D01*
X681073Y200590D01*
X680000Y200804D01*
D02*
G37*
G36*
X539250Y205554D02*
X538177Y205340D01*
X537267Y204733D01*
X536660Y203823D01*
X536446Y202750D01*
X536660Y201677D01*
X537267Y200767D01*
X538177Y200160D01*
X539250Y199946D01*
X540323Y200160D01*
X541233Y200767D01*
X541840Y201677D01*
X542054Y202750D01*
X541840Y203823D01*
X541233Y204733D01*
X540323Y205340D01*
X539250Y205554D01*
D02*
G37*
G36*
X444750Y201804D02*
X443677Y201590D01*
X442767Y200983D01*
X442330Y200328D01*
X442063Y200062D01*
X440834Y199916D01*
X440573Y200090D01*
X439500Y200304D01*
X438427Y200090D01*
X437517Y199483D01*
X436910Y198573D01*
X436696Y197500D01*
X436910Y196427D01*
X437517Y195517D01*
X438427Y194909D01*
X439500Y194696D01*
X440573Y194909D01*
X441483Y195517D01*
X441920Y196172D01*
X442187Y196438D01*
X443416Y196584D01*
X443677Y196410D01*
X444750Y196196D01*
X445823Y196410D01*
X446733Y197017D01*
X447340Y197927D01*
X447554Y199000D01*
X447340Y200073D01*
X446733Y200983D01*
X445823Y201590D01*
X444750Y201804D01*
D02*
G37*
G36*
X157500Y205054D02*
X156427Y204840D01*
X155517Y204233D01*
X154910Y203323D01*
X154696Y202250D01*
X154910Y201177D01*
X155517Y200267D01*
X156427Y199660D01*
X157500Y199446D01*
X158573Y199660D01*
X159483Y200267D01*
X160090Y201177D01*
X160304Y202250D01*
X160090Y203323D01*
X159483Y204233D01*
X158573Y204840D01*
X157500Y205054D01*
D02*
G37*
G36*
X530375Y204429D02*
X529302Y204215D01*
X528392Y203608D01*
X527785Y202698D01*
X527571Y201625D01*
X527785Y200552D01*
X528392Y199642D01*
X529302Y199035D01*
X530375Y198821D01*
X531448Y199035D01*
X532358Y199642D01*
X532965Y200552D01*
X533179Y201625D01*
X532965Y202698D01*
X532358Y203608D01*
X531448Y204215D01*
X530375Y204429D01*
D02*
G37*
G36*
X632908Y203054D02*
X631835Y202840D01*
X630925Y202233D01*
X630317Y201323D01*
X630104Y200250D01*
X630317Y199177D01*
X630925Y198267D01*
X631835Y197660D01*
X632908Y197446D01*
X633981Y197660D01*
X634890Y198267D01*
X635498Y199177D01*
X635712Y200250D01*
X635498Y201323D01*
X634890Y202233D01*
X633981Y202840D01*
X632908Y203054D01*
D02*
G37*
G36*
X110697Y202054D02*
X109624Y201840D01*
X108714Y201233D01*
X108106Y200323D01*
X107893Y199250D01*
X108106Y198177D01*
X108714Y197267D01*
X109624Y196660D01*
X110697Y196446D01*
X111770Y196660D01*
X112679Y197267D01*
X113287Y198177D01*
X113500Y199250D01*
X113287Y200323D01*
X112679Y201233D01*
X111770Y201840D01*
X110697Y202054D01*
D02*
G37*
G36*
X135750Y206304D02*
X134677Y206090D01*
X133767Y205483D01*
X133160Y204573D01*
X132946Y203500D01*
X133160Y202427D01*
X133309Y202204D01*
X133767Y200983D01*
X133160Y200073D01*
X132946Y199000D01*
X133160Y197927D01*
X133767Y197017D01*
X134677Y196410D01*
X135750Y196196D01*
X136823Y196410D01*
X137733Y197017D01*
X138340Y197927D01*
X138554Y199000D01*
X138340Y200073D01*
X138191Y200296D01*
X137733Y201517D01*
X138340Y202427D01*
X138554Y203500D01*
X138340Y204573D01*
X137733Y205483D01*
X136823Y206090D01*
X135750Y206304D01*
D02*
G37*
G36*
X432750Y201804D02*
X431677Y201590D01*
X430767Y200983D01*
X430160Y200073D01*
X429946Y199000D01*
X430160Y197927D01*
X430767Y197017D01*
X431677Y196410D01*
X432750Y196196D01*
X433823Y196410D01*
X434733Y197017D01*
X435340Y197927D01*
X435554Y199000D01*
X435340Y200073D01*
X434733Y200983D01*
X433823Y201590D01*
X432750Y201804D01*
D02*
G37*
G36*
X472000Y201554D02*
X470927Y201340D01*
X470017Y200733D01*
X469409Y199823D01*
X469196Y198750D01*
X469409Y197677D01*
X470017Y196767D01*
X470927Y196160D01*
X472000Y195946D01*
X473073Y196160D01*
X473983Y196767D01*
X474590Y197677D01*
X474804Y198750D01*
X474590Y199823D01*
X473983Y200733D01*
X473073Y201340D01*
X472000Y201554D01*
D02*
G37*
G36*
X101000Y205304D02*
X99927Y205090D01*
X99017Y204483D01*
X98410Y203573D01*
X98196Y202500D01*
X98370Y201628D01*
X97552Y201465D01*
X96642Y200858D01*
X96034Y199948D01*
X95821Y198875D01*
X96034Y197802D01*
X96642Y196892D01*
X97552Y196285D01*
X98625Y196071D01*
X99698Y196285D01*
X99950Y196453D01*
X101267Y196767D01*
X102177Y196160D01*
X103250Y195946D01*
X104323Y196160D01*
X105233Y196767D01*
X105840Y197677D01*
X106054Y198750D01*
X105840Y199823D01*
X105233Y200733D01*
X104323Y201340D01*
X103602Y201484D01*
X103804Y202500D01*
X103590Y203573D01*
X102983Y204483D01*
X102073Y205090D01*
X101000Y205304D01*
D02*
G37*
G36*
X165500Y201304D02*
X164427Y201090D01*
X163517Y200483D01*
X162910Y199573D01*
X162696Y198500D01*
X162910Y197427D01*
X163517Y196517D01*
X164427Y195910D01*
X165500Y195696D01*
X166573Y195910D01*
X167483Y196517D01*
X168090Y197427D01*
X168304Y198500D01*
X168090Y199573D01*
X167483Y200483D01*
X166573Y201090D01*
X165500Y201304D01*
D02*
G37*
G36*
X150750Y201054D02*
X149677Y200840D01*
X148767Y200233D01*
X148159Y199323D01*
X147946Y198250D01*
X148159Y197177D01*
X148767Y196267D01*
X149677Y195660D01*
X150750Y195446D01*
X151823Y195660D01*
X152732Y196267D01*
X153340Y197177D01*
X153554Y198250D01*
X153340Y199323D01*
X152732Y200233D01*
X151823Y200840D01*
X150750Y201054D01*
D02*
G37*
G36*
X3500Y196054D02*
X2427Y195840D01*
X1858Y195460D01*
X1000Y195318D01*
X142Y195460D01*
X-427Y195840D01*
X-1500Y196054D01*
X-2573Y195840D01*
X-3483Y195233D01*
X-4090Y194323D01*
X-4304Y193250D01*
X-4090Y192177D01*
X-3483Y191267D01*
X-2573Y190660D01*
X-1804Y189250D01*
X-1590Y188177D01*
X-983Y187267D01*
X-73Y186660D01*
X1000Y186446D01*
X2073Y186660D01*
X2983Y187267D01*
X3590Y188177D01*
X3804Y189250D01*
X4573Y190660D01*
X5483Y191267D01*
X6090Y192177D01*
X6304Y193250D01*
X6090Y194323D01*
X5483Y195233D01*
X4573Y195840D01*
X3500Y196054D01*
D02*
G37*
G36*
X128500Y200054D02*
X127427Y199840D01*
X126517Y199233D01*
X125910Y198323D01*
X125696Y197250D01*
X125910Y196177D01*
X126517Y195267D01*
X127427Y194660D01*
X128500Y194446D01*
X129573Y194660D01*
X130483Y195267D01*
X131090Y196177D01*
X131304Y197250D01*
X131090Y198323D01*
X130483Y199233D01*
X129573Y199840D01*
X128500Y200054D01*
D02*
G37*
G36*
X247250Y199804D02*
X246177Y199590D01*
X245267Y198983D01*
X244660Y198073D01*
X244446Y197000D01*
X244660Y195927D01*
X245267Y195017D01*
X246177Y194410D01*
X247250Y194196D01*
X248323Y194410D01*
X249233Y195017D01*
X249840Y195927D01*
X250054Y197000D01*
X249840Y198073D01*
X249233Y198983D01*
X248323Y199590D01*
X247250Y199804D01*
D02*
G37*
G36*
X617250Y206804D02*
X616177Y206590D01*
X615267Y205983D01*
X614660Y205073D01*
X614496Y204250D01*
X614000Y203054D01*
X612927Y202840D01*
X612017Y202233D01*
X611410Y201323D01*
X611294Y200741D01*
X610750Y199554D01*
X609677Y199340D01*
X608767Y198733D01*
X608160Y197823D01*
X607946Y196750D01*
X608160Y195677D01*
X608767Y194767D01*
X609677Y194160D01*
X610750Y193946D01*
X611823Y194160D01*
X612733Y194767D01*
X613340Y195677D01*
X613456Y196259D01*
X614000Y197446D01*
X615073Y197660D01*
X615983Y198267D01*
X616590Y199177D01*
X616754Y200000D01*
X617250Y201196D01*
X618323Y201410D01*
X619233Y202017D01*
X619840Y202927D01*
X620054Y204000D01*
X619840Y205073D01*
X619233Y205983D01*
X618323Y206590D01*
X617250Y206804D01*
D02*
G37*
G36*
X144250Y198054D02*
X143177Y197840D01*
X142267Y197232D01*
X141659Y196323D01*
X141446Y195250D01*
X141659Y194177D01*
X142267Y193267D01*
X143177Y192659D01*
X144250Y192446D01*
X145323Y192659D01*
X146233Y193267D01*
X146840Y194177D01*
X147054Y195250D01*
X146840Y196323D01*
X146233Y197232D01*
X145323Y197840D01*
X144250Y198054D01*
D02*
G37*
G36*
X265720Y197304D02*
X264647Y197090D01*
X263737Y196483D01*
X263130Y195573D01*
X262916Y194500D01*
X263130Y193427D01*
X263737Y192517D01*
X264647Y191910D01*
X265720Y191696D01*
X266793Y191910D01*
X267703Y192517D01*
X268310Y193427D01*
X268524Y194500D01*
X268310Y195573D01*
X267703Y196483D01*
X266793Y197090D01*
X265720Y197304D01*
D02*
G37*
G36*
X35250Y192304D02*
X34177Y192090D01*
X34127Y192057D01*
X33125Y191554D01*
X32123Y192057D01*
X32073Y192090D01*
X31000Y192304D01*
X29927Y192090D01*
X29876Y192057D01*
X28875Y191554D01*
X27873Y192057D01*
X27823Y192090D01*
X26750Y192304D01*
X25677Y192090D01*
X24767Y191483D01*
X24160Y190573D01*
X23946Y189500D01*
X24160Y188427D01*
X24767Y187517D01*
X25677Y186910D01*
X26750Y186696D01*
X27823Y186910D01*
X27873Y186943D01*
X28875Y187446D01*
X29876Y186943D01*
X29927Y186910D01*
X31000Y186696D01*
X32073Y186910D01*
X32123Y186943D01*
X33125Y187446D01*
X34127Y186943D01*
X34177Y186910D01*
X35250Y186696D01*
X36323Y186910D01*
X37233Y187517D01*
X37840Y188427D01*
X38054Y189500D01*
X37840Y190573D01*
X37233Y191483D01*
X36323Y192090D01*
X35250Y192304D01*
D02*
G37*
G36*
X228500Y197104D02*
X227427Y196890D01*
X226517Y196283D01*
X225910Y195373D01*
X225696Y194300D01*
X225910Y193227D01*
X226517Y192317D01*
X227427Y191710D01*
X228500Y191496D01*
X229573Y191710D01*
X230483Y192317D01*
X231090Y193227D01*
X231304Y194300D01*
X231090Y195373D01*
X230483Y196283D01*
X229573Y196890D01*
X228500Y197104D01*
D02*
G37*
G36*
X647908Y195804D02*
X646835Y195590D01*
X645925Y194983D01*
X645318Y194073D01*
X645104Y193000D01*
X645318Y191927D01*
X645925Y191017D01*
X646835Y190410D01*
X647908Y190196D01*
X648981Y190410D01*
X649891Y191017D01*
X650498Y191927D01*
X650712Y193000D01*
X650498Y194073D01*
X649891Y194983D01*
X648981Y195590D01*
X647908Y195804D01*
D02*
G37*
G36*
X108000Y194804D02*
X106927Y194590D01*
X106017Y193983D01*
X105409Y193073D01*
X105196Y192000D01*
X105409Y190927D01*
X106017Y190018D01*
X106927Y189410D01*
X108000Y189196D01*
X109073Y189410D01*
X109983Y190018D01*
X110590Y190927D01*
X110804Y192000D01*
X110590Y193073D01*
X109983Y193983D01*
X109073Y194590D01*
X108000Y194804D01*
D02*
G37*
G36*
X171750Y194804D02*
X170677Y194590D01*
X169767Y193983D01*
X169160Y193073D01*
X168946Y192000D01*
X169160Y190927D01*
X169767Y190017D01*
X170677Y189410D01*
X171750Y189196D01*
X172823Y189410D01*
X173733Y190017D01*
X174340Y190927D01*
X174554Y192000D01*
X174340Y193073D01*
X173733Y193983D01*
X172823Y194590D01*
X171750Y194804D01*
D02*
G37*
G36*
X114999Y194553D02*
X113926Y194340D01*
X113017Y193732D01*
X112409Y192822D01*
X112195Y191749D01*
X112409Y190676D01*
X113017Y189767D01*
X113926Y189159D01*
X114999Y188945D01*
X116072Y189159D01*
X116982Y189767D01*
X117590Y190676D01*
X117803Y191749D01*
X117590Y192822D01*
X116982Y193732D01*
X116072Y194340D01*
X114999Y194553D01*
D02*
G37*
G36*
X63250Y204554D02*
X62177Y204340D01*
X61267Y203733D01*
X60659Y202823D01*
X60446Y201750D01*
X60659Y200677D01*
X61267Y199767D01*
X61734Y199456D01*
X61742Y199435D01*
Y198065D01*
X61734Y198044D01*
X61267Y197733D01*
X60659Y196823D01*
X60446Y195750D01*
X60659Y194677D01*
X60809Y194454D01*
X61167Y193500D01*
X60809Y192546D01*
X60659Y192323D01*
X60446Y191250D01*
X60659Y190177D01*
X61267Y189267D01*
X62177Y188660D01*
X63250Y188446D01*
X64323Y188660D01*
X65233Y189267D01*
X65840Y190177D01*
X66054Y191250D01*
X65840Y192323D01*
X65691Y192546D01*
X65333Y193500D01*
X65691Y194454D01*
X65840Y194677D01*
X66054Y195750D01*
X65840Y196823D01*
X65233Y197733D01*
X64766Y198044D01*
X64758Y198065D01*
Y199435D01*
X64766Y199456D01*
X65233Y199767D01*
X65840Y200677D01*
X66054Y201750D01*
X65840Y202823D01*
X65233Y203733D01*
X64323Y204340D01*
X63250Y204554D01*
D02*
G37*
G36*
X55250D02*
X54177Y204340D01*
X53267Y203733D01*
X52660Y202823D01*
X52446Y201750D01*
X52660Y200677D01*
X53267Y199767D01*
X53734Y199456D01*
X53742Y199435D01*
Y198065D01*
X53734Y198044D01*
X53267Y197733D01*
X52660Y196823D01*
X52446Y195750D01*
X52660Y194677D01*
X52809Y194454D01*
X53167Y193500D01*
X52809Y192546D01*
X52660Y192323D01*
X52446Y191250D01*
X52660Y190177D01*
X53267Y189267D01*
X54177Y188660D01*
X55250Y188446D01*
X56323Y188660D01*
X57233Y189267D01*
X57840Y190177D01*
X58054Y191250D01*
X57840Y192323D01*
X57691Y192546D01*
X57333Y193500D01*
X57691Y194454D01*
X57840Y194677D01*
X58054Y195750D01*
X57840Y196823D01*
X57233Y197733D01*
X56766Y198044D01*
X56758Y198065D01*
Y199435D01*
X56766Y199456D01*
X57233Y199767D01*
X57840Y200677D01*
X58054Y201750D01*
X57840Y202823D01*
X57233Y203733D01*
X56323Y204340D01*
X55250Y204554D01*
D02*
G37*
G36*
X485908Y194054D02*
X484835Y193840D01*
X483925Y193233D01*
X483317Y192323D01*
X483104Y191250D01*
X483317Y190177D01*
X483925Y189267D01*
X484835Y188659D01*
X485908Y188446D01*
X486981Y188659D01*
X487890Y189267D01*
X488498Y190177D01*
X488712Y191250D01*
X488498Y192323D01*
X487890Y193233D01*
X486981Y193840D01*
X485908Y194054D01*
D02*
G37*
G36*
X182750Y194054D02*
X181677Y193840D01*
X180767Y193232D01*
X180159Y192323D01*
X179946Y191250D01*
X180159Y190177D01*
X180767Y189267D01*
X181677Y188659D01*
X182750Y188446D01*
X183823Y188659D01*
X184732Y189267D01*
X184819Y189396D01*
X186305Y189335D01*
X186517Y189017D01*
X187427Y188410D01*
X188500Y188196D01*
X189573Y188410D01*
X190483Y189017D01*
X191090Y189927D01*
X191304Y191000D01*
X191090Y192073D01*
X190483Y192983D01*
X189573Y193590D01*
X188500Y193804D01*
X187427Y193590D01*
X186517Y192983D01*
X186431Y192854D01*
X184945Y192915D01*
X184732Y193232D01*
X183823Y193840D01*
X182750Y194054D01*
D02*
G37*
G36*
X268250Y188804D02*
X267177Y188590D01*
X266267Y187983D01*
X266264Y187977D01*
X264736D01*
X264733Y187983D01*
X263823Y188590D01*
X262750Y188804D01*
X261677Y188590D01*
X260767Y187983D01*
X260160Y187073D01*
X259946Y186000D01*
X260160Y184927D01*
X260767Y184017D01*
X261677Y183410D01*
X262750Y183196D01*
X263823Y183410D01*
X264733Y184017D01*
X264736Y184023D01*
X266264D01*
X266267Y184017D01*
X267177Y183410D01*
X268250Y183196D01*
X269323Y183410D01*
X270233Y184017D01*
X270840Y184927D01*
X271054Y186000D01*
X270840Y187073D01*
X270233Y187983D01*
X269323Y188590D01*
X268250Y188804D01*
D02*
G37*
G36*
X306750Y193304D02*
X305677Y193090D01*
X304767Y192483D01*
X304160Y191573D01*
X303946Y190500D01*
X304160Y189427D01*
X304767Y188517D01*
X305677Y187910D01*
X306750Y187696D01*
X307823Y187910D01*
X308733Y188517D01*
X309340Y189427D01*
X309554Y190500D01*
X309340Y191573D01*
X308733Y192483D01*
X307823Y193090D01*
X306750Y193304D01*
D02*
G37*
G36*
X577158Y188054D02*
X576085Y187840D01*
X575175Y187233D01*
X574640D01*
X573731Y187840D01*
X572658Y188054D01*
X571585Y187840D01*
X570675Y187233D01*
X570067Y186323D01*
X569854Y185250D01*
X570067Y184177D01*
X570675Y183267D01*
X571585Y182660D01*
X572658Y182446D01*
X573731Y182660D01*
X574640Y183267D01*
X575175D01*
X576085Y182660D01*
X577158Y182446D01*
X577983Y182610D01*
X578592Y182002D01*
X578823Y181581D01*
X578817Y181573D01*
X578604Y180500D01*
X578817Y179427D01*
X579425Y178517D01*
X580335Y177910D01*
X581408Y177696D01*
X582481Y177910D01*
X583390Y178517D01*
X583998Y179427D01*
X584212Y180500D01*
X583998Y181573D01*
X583390Y182483D01*
X582481Y183090D01*
X581408Y183304D01*
X580582Y183140D01*
X579974Y183748D01*
X579743Y184169D01*
X579748Y184177D01*
X579962Y185250D01*
X579748Y186323D01*
X579140Y187233D01*
X578231Y187840D01*
X577158Y188054D01*
D02*
G37*
G36*
X197250Y191804D02*
X196177Y191590D01*
X195267Y190983D01*
X194660Y190073D01*
X194446Y189000D01*
X194660Y187927D01*
X195267Y187017D01*
X196177Y186410D01*
X197250Y186196D01*
X198323Y186410D01*
X199233Y187017D01*
X199840Y187927D01*
X200054Y189000D01*
X199840Y190073D01*
X199233Y190983D01*
X198323Y191590D01*
X197250Y191804D01*
D02*
G37*
G36*
X17250Y199804D02*
X16177Y199590D01*
X15267Y198983D01*
X14660Y198073D01*
X14446Y197000D01*
X14660Y195927D01*
X14693Y195877D01*
X15196Y194875D01*
X14693Y193874D01*
X14660Y193823D01*
X14446Y192750D01*
X14660Y191677D01*
X14693Y191626D01*
X15196Y190625D01*
X14693Y189624D01*
X14660Y189573D01*
X14446Y188500D01*
X14660Y187427D01*
X15267Y186517D01*
X16177Y185910D01*
X17250Y185696D01*
X18323Y185910D01*
X19233Y186517D01*
X19840Y187427D01*
X20054Y188500D01*
X19840Y189573D01*
X19807Y189624D01*
X19304Y190625D01*
X19807Y191626D01*
X19840Y191677D01*
X20054Y192750D01*
X19840Y193823D01*
X19807Y193874D01*
X19304Y194875D01*
X19807Y195877D01*
X19840Y195927D01*
X20054Y197000D01*
X19840Y198073D01*
X19233Y198983D01*
X18323Y199590D01*
X17250Y199804D01*
D02*
G37*
G36*
X371408Y190304D02*
X370335Y190090D01*
X369425Y189483D01*
X368817Y188573D01*
X368604Y187500D01*
X368817Y186427D01*
X369425Y185517D01*
X370335Y184910D01*
X371408Y184696D01*
X372481Y184910D01*
X373390Y185517D01*
X373998Y186427D01*
X374212Y187500D01*
X373998Y188573D01*
X373390Y189483D01*
X372481Y190090D01*
X371408Y190304D01*
D02*
G37*
G36*
X516908Y189804D02*
X515835Y189590D01*
X514925Y188983D01*
X514317Y188073D01*
X514104Y187000D01*
X514317Y185927D01*
X514925Y185017D01*
X515835Y184410D01*
X516908Y184196D01*
X517981Y184410D01*
X518720Y184904D01*
X519523Y184759D01*
X520090Y184527D01*
X520160Y184177D01*
X520767Y183267D01*
X521677Y182660D01*
X522750Y182446D01*
X523823Y182660D01*
X524733Y183267D01*
X525340Y184177D01*
X525554Y185250D01*
X525340Y186323D01*
X524733Y187233D01*
X523823Y187840D01*
X522750Y188054D01*
X521677Y187840D01*
X520938Y187346D01*
X520135Y187491D01*
X519568Y187723D01*
X519498Y188073D01*
X518890Y188983D01*
X517981Y189590D01*
X516908Y189804D01*
D02*
G37*
G36*
X427000Y188054D02*
X425927Y187840D01*
X425017Y187233D01*
X424409Y186323D01*
X424196Y185250D01*
X424409Y184177D01*
X425017Y183267D01*
X425927Y182660D01*
X427000Y182446D01*
X428073Y182660D01*
X428983Y183267D01*
X429590Y184177D01*
X429804Y185250D01*
X429590Y186323D01*
X428983Y187233D01*
X428073Y187840D01*
X427000Y188054D01*
D02*
G37*
G36*
X720500Y186804D02*
X719427Y186590D01*
X718517Y185983D01*
X717910Y185073D01*
X717696Y184000D01*
X717910Y182927D01*
X718517Y182017D01*
X719427Y181410D01*
X720500Y181196D01*
X721573Y181410D01*
X722483Y182017D01*
X723090Y182927D01*
X723304Y184000D01*
X723090Y185073D01*
X722483Y185983D01*
X721573Y186590D01*
X720500Y186804D01*
D02*
G37*
G36*
X141000Y181304D02*
X139927Y181090D01*
X139876Y181057D01*
X138875Y180554D01*
X137873Y181057D01*
X137823Y181090D01*
X136750Y181304D01*
X135677Y181090D01*
X135626Y181057D01*
X134625Y180554D01*
X133623Y181057D01*
X133573Y181090D01*
X132500Y181304D01*
X131427Y181090D01*
X130517Y180483D01*
X129909Y179573D01*
X129696Y178500D01*
X129909Y177427D01*
X130517Y176517D01*
X131427Y175910D01*
X132500Y175696D01*
X133573Y175910D01*
X133623Y175943D01*
X134625Y176446D01*
X135626Y175943D01*
X135677Y175910D01*
X136750Y175696D01*
X137823Y175910D01*
X137873Y175943D01*
X138875Y176446D01*
X139876Y175943D01*
X139927Y175910D01*
X141000Y175696D01*
X142073Y175910D01*
X142983Y176517D01*
X143590Y177427D01*
X143804Y178500D01*
X143590Y179573D01*
X142983Y180483D01*
X142073Y181090D01*
X141000Y181304D01*
D02*
G37*
G36*
X551408Y185854D02*
X550335Y185640D01*
X549425Y185033D01*
X548817Y184123D01*
X548604Y183050D01*
X548817Y181977D01*
X549425Y181067D01*
X550335Y180460D01*
X551408Y180246D01*
X552481Y180460D01*
X553391Y181067D01*
X553998Y181977D01*
X554212Y183050D01*
X553998Y184123D01*
X553391Y185033D01*
X552481Y185640D01*
X551408Y185854D01*
D02*
G37*
G36*
X235250Y185554D02*
X234177Y185340D01*
X233267Y184732D01*
X232660Y183823D01*
X232446Y182750D01*
X232660Y181677D01*
X233267Y180767D01*
X234177Y180159D01*
X235250Y179946D01*
X236323Y180159D01*
X237233Y180767D01*
X237840Y181677D01*
X238054Y182750D01*
X237840Y183823D01*
X237233Y184732D01*
X236323Y185340D01*
X235250Y185554D01*
D02*
G37*
G36*
X497658Y185054D02*
X496585Y184840D01*
X495675Y184233D01*
X495067Y183323D01*
X494854Y182250D01*
X495067Y181177D01*
X495675Y180267D01*
X496585Y179660D01*
X497658Y179446D01*
X498731Y179660D01*
X499640Y180267D01*
X500248Y181177D01*
X500462Y182250D01*
X500248Y183323D01*
X499640Y184233D01*
X498731Y184840D01*
X497658Y185054D01*
D02*
G37*
G36*
X355750Y182804D02*
X354677Y182590D01*
X353767Y181983D01*
X353160Y181073D01*
X352946Y180000D01*
X353160Y178927D01*
X353767Y178017D01*
X354677Y177410D01*
X355750Y177196D01*
X356823Y177410D01*
X357733Y178017D01*
X358340Y178927D01*
X358554Y180000D01*
X358340Y181073D01*
X357733Y181983D01*
X356823Y182590D01*
X355750Y182804D01*
D02*
G37*
G36*
X625658Y186554D02*
X624585Y186340D01*
X623675Y185733D01*
X623067Y184823D01*
X622854Y183750D01*
X623067Y182677D01*
X623101Y182626D01*
X623604Y181625D01*
X623101Y180623D01*
X623067Y180573D01*
X622854Y179500D01*
X623067Y178427D01*
X623675Y177517D01*
X624585Y176910D01*
X625658Y176696D01*
X626731Y176910D01*
X627640Y177517D01*
X628248Y178427D01*
X628462Y179500D01*
X628248Y180573D01*
X628214Y180623D01*
X627712Y181625D01*
X628214Y182626D01*
X628248Y182677D01*
X628462Y183750D01*
X628248Y184823D01*
X627640Y185733D01*
X626731Y186340D01*
X625658Y186554D01*
D02*
G37*
G36*
X402250Y188304D02*
X401177Y188090D01*
X400267Y187483D01*
X399660Y186573D01*
X399446Y185500D01*
X399660Y184427D01*
X400267Y183517D01*
X401177Y182910D01*
X402250Y182696D01*
X403418Y182505D01*
X403592Y181767D01*
X403660Y181427D01*
X404267Y180517D01*
X405177Y179910D01*
X406190Y179708D01*
X406250Y179696D01*
X407196Y178750D01*
X407208Y178690D01*
X407410Y177677D01*
X407552Y177464D01*
X406637Y176548D01*
X406573Y176590D01*
X405500Y176804D01*
X404427Y176590D01*
X403517Y175983D01*
X402910Y175073D01*
X402696Y174000D01*
X402910Y172927D01*
X403517Y172017D01*
Y171900D01*
X403267Y171733D01*
X402660Y170823D01*
X402446Y169750D01*
X402660Y168677D01*
X403267Y167767D01*
X404177Y167160D01*
X405250Y166946D01*
X406323Y167160D01*
X406373Y167193D01*
X407375Y167696D01*
X408377Y167193D01*
X408427Y167160D01*
X409500Y166946D01*
X410573Y167160D01*
X411483Y167767D01*
X412090Y168677D01*
X412304Y169750D01*
X412090Y170823D01*
X411483Y171733D01*
X410573Y172340D01*
X409500Y172554D01*
X409214Y172497D01*
X408223Y173595D01*
X408304Y174000D01*
X408090Y175073D01*
X407948Y175286D01*
X408863Y176202D01*
X408927Y176160D01*
X410000Y175946D01*
X411073Y176160D01*
X411983Y176767D01*
X412590Y177677D01*
X412804Y178750D01*
X412590Y179823D01*
X411983Y180733D01*
X411073Y181340D01*
X410060Y181542D01*
X410000Y181554D01*
X409054Y182500D01*
X409042Y182560D01*
X408840Y183573D01*
X408233Y184483D01*
X407323Y185090D01*
X406250Y185304D01*
X405082Y185495D01*
X404908Y186233D01*
X404840Y186573D01*
X404233Y187483D01*
X403323Y188090D01*
X402250Y188304D01*
D02*
G37*
G36*
X95500Y177304D02*
X94427Y177090D01*
X93517Y176483D01*
X92983D01*
X92073Y177090D01*
X91000Y177304D01*
X89927Y177090D01*
X89017Y176483D01*
X88583Y175833D01*
X87823Y176340D01*
X86750Y176554D01*
X85677Y176340D01*
X84767Y175732D01*
X84159Y174823D01*
X83946Y173750D01*
X84159Y172677D01*
X84767Y171767D01*
X85677Y171159D01*
X86750Y170946D01*
X87823Y171159D01*
X88733Y171767D01*
X89167Y172417D01*
X89927Y171910D01*
X91000Y171696D01*
X92073Y171910D01*
X92983Y172517D01*
X93517D01*
X94427Y171910D01*
X95500Y171696D01*
X96573Y171910D01*
X97449Y172495D01*
X97767Y172017D01*
X98677Y171410D01*
X99750Y171196D01*
X100823Y171410D01*
X101733Y172017D01*
X102340Y172927D01*
X102554Y174000D01*
X102340Y175073D01*
X101733Y175983D01*
X100823Y176590D01*
X99750Y176804D01*
X98677Y176590D01*
X97801Y176005D01*
X97483Y176483D01*
X96573Y177090D01*
X95500Y177304D01*
D02*
G37*
G36*
X30750Y176804D02*
X29677Y176590D01*
X29454Y176441D01*
X28500Y176083D01*
X27546Y176441D01*
X27323Y176590D01*
X26250Y176804D01*
X25177Y176590D01*
X24954Y176441D01*
X24000Y176083D01*
X23046Y176441D01*
X22823Y176590D01*
X21750Y176804D01*
X20677Y176590D01*
X19767Y175982D01*
X19160Y175073D01*
X18946Y174000D01*
X17711Y173697D01*
X17177Y173590D01*
X16267Y172983D01*
X15660Y172073D01*
X15446Y171000D01*
X15660Y169927D01*
X16267Y169017D01*
X17177Y168410D01*
X18250Y168196D01*
X19323Y168410D01*
X20233Y169017D01*
X20840Y169927D01*
X21054Y171000D01*
X22288Y171303D01*
X22823Y171409D01*
X23046Y171559D01*
X24000Y171917D01*
X24954Y171559D01*
X25177Y171409D01*
X26250Y171196D01*
X27323Y171409D01*
X27546Y171559D01*
X28500Y171917D01*
X29454Y171559D01*
X29677Y171409D01*
X30750Y171196D01*
X31823Y171409D01*
X32733Y172017D01*
X33340Y172927D01*
X33554Y174000D01*
X33340Y175073D01*
X32733Y175982D01*
X31823Y176590D01*
X30750Y176804D01*
D02*
G37*
G36*
X418750Y177804D02*
X417677Y177590D01*
X416767Y176983D01*
X416160Y176073D01*
X415946Y175000D01*
X416160Y173927D01*
X416767Y173017D01*
X417677Y172410D01*
X418750Y172196D01*
X419823Y172410D01*
X420733Y173017D01*
X421340Y173927D01*
X421554Y175000D01*
X421340Y176073D01*
X420733Y176983D01*
X419823Y177590D01*
X418750Y177804D01*
D02*
G37*
G36*
X337000Y173804D02*
X335927Y173590D01*
X335017Y172983D01*
X334410Y172073D01*
X333123Y171779D01*
X333000Y171804D01*
X331927Y171590D01*
X331017Y170982D01*
X330410Y170073D01*
X330196Y169000D01*
X330410Y167927D01*
X331017Y167017D01*
X331927Y166409D01*
X333000Y166196D01*
X334073Y166409D01*
X334983Y167017D01*
X335591Y167927D01*
X336877Y168221D01*
X337000Y168196D01*
X338073Y168410D01*
X338983Y169017D01*
X339590Y169927D01*
X339804Y171000D01*
X339590Y172073D01*
X338983Y172983D01*
X338073Y173590D01*
X337000Y173804D01*
D02*
G37*
G36*
X63250Y186054D02*
X62177Y185840D01*
X61267Y185233D01*
X60659Y184323D01*
X60446Y183250D01*
X60659Y182177D01*
X61267Y181267D01*
Y180733D01*
X60659Y179823D01*
X60446Y178750D01*
X60659Y177677D01*
X61267Y176767D01*
X61734Y176456D01*
X61742Y176435D01*
Y175065D01*
X61734Y175044D01*
X61267Y174733D01*
X60659Y173823D01*
X60446Y172750D01*
X60659Y171677D01*
X61267Y170767D01*
X62177Y170160D01*
X63250Y169946D01*
X64323Y170160D01*
X65233Y170767D01*
X65840Y171677D01*
X66054Y172750D01*
X65840Y173823D01*
X65233Y174733D01*
X64766Y175044D01*
X64758Y175065D01*
Y176435D01*
X64766Y176456D01*
X65233Y176767D01*
X65840Y177677D01*
X66054Y178750D01*
X65840Y179823D01*
X65233Y180733D01*
Y181267D01*
X65840Y182177D01*
X66054Y183250D01*
X65840Y184323D01*
X65233Y185233D01*
X64323Y185840D01*
X63250Y186054D01*
D02*
G37*
G36*
X55250D02*
X54177Y185840D01*
X53267Y185233D01*
X52660Y184323D01*
X52446Y183250D01*
X52660Y182177D01*
X53267Y181267D01*
Y180733D01*
X52660Y179823D01*
X52446Y178750D01*
X52660Y177677D01*
X53267Y176767D01*
X53734Y176456D01*
X53742Y176435D01*
Y175065D01*
X53734Y175044D01*
X53267Y174733D01*
X52660Y173823D01*
X52446Y172750D01*
X52660Y171677D01*
X53267Y170767D01*
X54177Y170160D01*
X55250Y169946D01*
X56323Y170160D01*
X57233Y170767D01*
X57840Y171677D01*
X58054Y172750D01*
X57840Y173823D01*
X57233Y174733D01*
X56766Y175044D01*
X56758Y175065D01*
Y176435D01*
X56766Y176456D01*
X57233Y176767D01*
X57840Y177677D01*
X58054Y178750D01*
X57840Y179823D01*
X57233Y180733D01*
Y181267D01*
X57840Y182177D01*
X58054Y183250D01*
X57840Y184323D01*
X57233Y185233D01*
X56323Y185840D01*
X55250Y186054D01*
D02*
G37*
G36*
X371250Y173304D02*
X370177Y173090D01*
X369267Y172483D01*
X368660Y171573D01*
X368446Y170500D01*
X368660Y169427D01*
X369267Y168517D01*
X370177Y167910D01*
X371250Y167696D01*
X372323Y167910D01*
X372719Y168174D01*
X373625Y168414D01*
X374531Y168174D01*
X374927Y167910D01*
X376000Y167696D01*
X377073Y167910D01*
X377983Y168517D01*
X378590Y169427D01*
X378804Y170500D01*
X378590Y171573D01*
X377983Y172483D01*
X377073Y173090D01*
X376000Y173304D01*
X374927Y173090D01*
X374531Y172826D01*
X373625Y172586D01*
X372719Y172826D01*
X372323Y173090D01*
X371250Y173304D01*
D02*
G37*
G36*
X501958Y178004D02*
X500885Y177790D01*
X499975Y177183D01*
X499367Y176273D01*
X499154Y175200D01*
X499367Y174127D01*
X499606Y173769D01*
X499452Y173298D01*
X498937Y172500D01*
X498135Y172340D01*
X497225Y171733D01*
X496617Y170823D01*
X496404Y169750D01*
X496617Y168677D01*
X497225Y167767D01*
X498135Y167160D01*
X499208Y166946D01*
X500281Y167160D01*
X501190Y167767D01*
X501798Y168677D01*
X502011Y169750D01*
X501798Y170823D01*
X501559Y171180D01*
X501714Y171652D01*
X502229Y172450D01*
X503031Y172610D01*
X503940Y173217D01*
X504548Y174127D01*
X504762Y175200D01*
X504548Y176273D01*
X503940Y177183D01*
X503031Y177790D01*
X501958Y178004D01*
D02*
G37*
G36*
X465750Y171804D02*
X464677Y171590D01*
X463767Y170983D01*
X463160Y170073D01*
X462946Y169000D01*
X463160Y167927D01*
X463767Y167017D01*
X464677Y166410D01*
X465750Y166196D01*
X466823Y166410D01*
X467733Y167017D01*
X468340Y167927D01*
X468554Y169000D01*
X468340Y170073D01*
X467733Y170983D01*
X466823Y171590D01*
X465750Y171804D01*
D02*
G37*
G36*
X638308Y181750D02*
X638308Y166150D01*
X657158Y166150D01*
X657158Y180250D01*
X655658Y181750D01*
X638308Y181750D01*
D02*
G37*
G36*
X670108Y183650D02*
X670108Y166150D01*
X690909Y166150D01*
X690909Y183650D01*
X670108Y183650D01*
D02*
G37*
G36*
X478908Y170554D02*
X477835Y170340D01*
X476925Y169733D01*
X476317Y168823D01*
X476104Y167750D01*
X476317Y166677D01*
X476925Y165767D01*
X477835Y165160D01*
X478908Y164946D01*
X479981Y165160D01*
X480890Y165767D01*
X481498Y166677D01*
X481712Y167750D01*
X481498Y168823D01*
X480890Y169733D01*
X479981Y170340D01*
X478908Y170554D01*
D02*
G37*
G36*
X353208Y170012D02*
X352135Y169798D01*
X351225Y169190D01*
X350617Y168281D01*
X350404Y167208D01*
X350617Y166135D01*
X351225Y165225D01*
X352135Y164617D01*
X353208Y164404D01*
X354281Y164617D01*
X355190Y165225D01*
X355798Y166135D01*
X356012Y167208D01*
X355798Y168281D01*
X355190Y169190D01*
X354281Y169798D01*
X353208Y170012D01*
D02*
G37*
G36*
X710000Y169954D02*
X708927Y169740D01*
X708017Y169132D01*
X707410Y168223D01*
X707196Y167150D01*
X707410Y166077D01*
X708017Y165167D01*
X708927Y164559D01*
X710000Y164346D01*
X711073Y164559D01*
X711983Y165167D01*
X712590Y166077D01*
X712804Y167150D01*
X712590Y168223D01*
X711983Y169132D01*
X711073Y169740D01*
X710000Y169954D01*
D02*
G37*
G36*
X274700Y170791D02*
X273627Y170578D01*
X272717Y169970D01*
X272110Y169060D01*
X271896Y167987D01*
X272110Y166915D01*
X272717Y166005D01*
X273627Y165397D01*
X274700Y165184D01*
X275773Y165397D01*
X276683Y166005D01*
X276734Y166082D01*
X278083Y165814D01*
X278160Y165427D01*
X278768Y164517D01*
X279677Y163910D01*
X280750Y163696D01*
X281823Y163910D01*
X282733Y164517D01*
X283340Y165427D01*
X283554Y166500D01*
X283340Y167573D01*
X282733Y168483D01*
X281823Y169090D01*
X280750Y169304D01*
X279677Y169090D01*
X278768Y168483D01*
X278716Y168405D01*
X277367Y168673D01*
X277290Y169060D01*
X276683Y169970D01*
X275773Y170578D01*
X274700Y170791D01*
D02*
G37*
G36*
X159250Y169304D02*
X158177Y169090D01*
X157267Y168483D01*
X156660Y167573D01*
X156446Y166500D01*
X156660Y165427D01*
X157267Y164517D01*
X158177Y163909D01*
X159250Y163696D01*
X160323Y163909D01*
X161233Y164517D01*
X161840Y165427D01*
X162054Y166500D01*
X161840Y167573D01*
X161233Y168483D01*
X160323Y169090D01*
X159250Y169304D01*
D02*
G37*
G36*
X625008Y168898D02*
X618758D01*
Y163648D01*
X625008D01*
Y168898D01*
D02*
G37*
G36*
X615058D02*
X608808D01*
Y163648D01*
X615058D01*
Y168898D01*
D02*
G37*
G36*
X454408Y168941D02*
X453335Y168727D01*
X452425Y168119D01*
X451818Y167210D01*
X451604Y166137D01*
X451818Y165064D01*
X452425Y164154D01*
X453335Y163546D01*
X454408Y163333D01*
X455481Y163546D01*
X456390Y164154D01*
X456998Y165064D01*
X457212Y166137D01*
X456998Y167210D01*
X456390Y168119D01*
X455481Y168727D01*
X454408Y168941D01*
D02*
G37*
G36*
X571408Y168730D02*
X570335Y168517D01*
X569425Y167909D01*
X568817Y166999D01*
X568604Y165926D01*
X568817Y164853D01*
X569425Y163943D01*
X570335Y163336D01*
X571408Y163122D01*
X572481Y163336D01*
X573390Y163943D01*
X573998Y164853D01*
X574212Y165926D01*
X573998Y166999D01*
X573390Y167909D01*
X572481Y168517D01*
X571408Y168730D01*
D02*
G37*
G36*
X635010Y169350D02*
X629760D01*
Y163100D01*
X635010D01*
Y169350D01*
D02*
G37*
G36*
X587760Y169350D02*
Y163100D01*
X594028Y163100D01*
Y169350D01*
X587760Y169350D01*
D02*
G37*
G36*
X604010Y169350D02*
X598760D01*
Y163100D01*
X604010D01*
Y169350D01*
D02*
G37*
G36*
X62000Y163804D02*
X60927Y163590D01*
X60017Y162983D01*
X60014Y162977D01*
X58486D01*
X58483Y162983D01*
X57573Y163590D01*
X56500Y163804D01*
X55427Y163590D01*
X54517Y162983D01*
X53910Y162073D01*
X53696Y161000D01*
X53910Y159927D01*
X54517Y159017D01*
X55427Y158410D01*
X56500Y158196D01*
X57573Y158410D01*
X58483Y159017D01*
X58486Y159023D01*
X60014D01*
X60017Y159017D01*
X60927Y158410D01*
X62000Y158196D01*
X63073Y158410D01*
X63983Y159017D01*
X64590Y159927D01*
X64804Y161000D01*
X64590Y162073D01*
X63983Y162983D01*
X63073Y163590D01*
X62000Y163804D01*
D02*
G37*
G36*
X224750Y168804D02*
X223677Y168590D01*
X222767Y167983D01*
X222160Y167073D01*
X221946Y166000D01*
X222160Y164927D01*
X222282Y164744D01*
X221517Y164233D01*
X220910Y163323D01*
X220696Y162250D01*
X220910Y161177D01*
X221517Y160267D01*
X222427Y159660D01*
X223500Y159446D01*
X224573Y159660D01*
X225483Y160267D01*
X225517D01*
X226427Y159660D01*
X227500Y159446D01*
X228573Y159660D01*
X229482Y160267D01*
X230090Y161177D01*
X230304Y162250D01*
X230090Y163323D01*
X229482Y164233D01*
X228573Y164840D01*
X227554Y166000D01*
X227341Y167073D01*
X226733Y167983D01*
X225823Y168590D01*
X224750Y168804D01*
D02*
G37*
G36*
X128250Y164804D02*
X127177Y164590D01*
X126267Y163983D01*
X125660Y163073D01*
X125446Y162000D01*
X125660Y160927D01*
X126267Y160017D01*
X127177Y159410D01*
X128250Y159196D01*
X129323Y159410D01*
X130232Y160017D01*
X130840Y160927D01*
X131054Y162000D01*
X130840Y163073D01*
X130232Y163983D01*
X129323Y164590D01*
X128250Y164804D01*
D02*
G37*
G36*
X553463Y167705D02*
X552390Y167491D01*
X551480Y166883D01*
X550872Y165974D01*
X550659Y164901D01*
X550133Y164375D01*
X549060Y164161D01*
X548150Y163553D01*
X547542Y162644D01*
X547329Y161571D01*
X547542Y160498D01*
X548150Y159588D01*
X549060Y158980D01*
X550133Y158767D01*
X551206Y158980D01*
X552115Y159588D01*
X552723Y160498D01*
X552937Y161571D01*
X553463Y162097D01*
X554536Y162310D01*
X555445Y162918D01*
X556053Y163828D01*
X556267Y164901D01*
X556053Y165974D01*
X555445Y166883D01*
X554536Y167491D01*
X553463Y167705D01*
D02*
G37*
G36*
X253000Y164304D02*
X251927Y164090D01*
X251017Y163483D01*
X250410Y162573D01*
X250196Y161500D01*
X250410Y160427D01*
X251017Y159517D01*
X251927Y158910D01*
X253000Y158696D01*
X254073Y158910D01*
X254983Y159517D01*
X255590Y160427D01*
X255804Y161500D01*
X255590Y162573D01*
X254983Y163483D01*
X254073Y164090D01*
X253000Y164304D01*
D02*
G37*
G36*
X242750Y164054D02*
X241677Y163840D01*
X240767Y163233D01*
X240160Y162323D01*
X239946Y161250D01*
X240160Y160177D01*
X240767Y159267D01*
X241677Y158660D01*
X242750Y158446D01*
X243823Y158660D01*
X244733Y159267D01*
X245340Y160177D01*
X245554Y161250D01*
X245340Y162323D01*
X244733Y163233D01*
X243823Y163840D01*
X242750Y164054D01*
D02*
G37*
G36*
X350158Y157304D02*
X349085Y157090D01*
X349034Y157057D01*
X348033Y156554D01*
X347031Y157057D01*
X346981Y157090D01*
X345908Y157304D01*
X344835Y157090D01*
X344611Y156941D01*
X343658Y156583D01*
X342704Y156941D01*
X342481Y157090D01*
X341408Y157304D01*
X340335Y157090D01*
X339425Y156482D01*
X338817Y155573D01*
X338604Y154500D01*
X338817Y153427D01*
X339425Y152517D01*
X340335Y151909D01*
X341408Y151696D01*
X342481Y151909D01*
X342704Y152059D01*
X343658Y152417D01*
X344611Y152059D01*
X344835Y151909D01*
X345908Y151696D01*
X346981Y151909D01*
X347031Y151943D01*
X348033Y152446D01*
X349034Y151943D01*
X349085Y151909D01*
X350158Y151696D01*
X351231Y151909D01*
X352140Y152517D01*
X352748Y153427D01*
X352962Y154500D01*
X352748Y155573D01*
X352140Y156482D01*
X351231Y157090D01*
X350158Y157304D01*
D02*
G37*
G36*
X403167Y161554D02*
X402094Y161340D01*
X401185Y160733D01*
X400577Y159823D01*
X400363Y158750D01*
X400577Y157677D01*
X401185Y156767D01*
X402094Y156160D01*
X403167Y155946D01*
X404240Y156160D01*
X405150Y156767D01*
X405758Y157677D01*
X405971Y158750D01*
X405758Y159823D01*
X405150Y160733D01*
X404240Y161340D01*
X403167Y161554D01*
D02*
G37*
G36*
X500182Y161045D02*
X499109Y160831D01*
X498200Y160223D01*
X497592Y159314D01*
X497379Y158241D01*
X497592Y157168D01*
X498200Y156258D01*
X499109Y155650D01*
X500182Y155437D01*
X501255Y155650D01*
X502165Y156258D01*
X502773Y157168D01*
X502986Y158241D01*
X502773Y159314D01*
X502165Y160223D01*
X501255Y160831D01*
X500182Y161045D01*
D02*
G37*
G36*
X423750Y160804D02*
X422677Y160590D01*
X421767Y159983D01*
X421160Y159073D01*
X420946Y158000D01*
X421160Y156927D01*
X421767Y156017D01*
X422677Y155409D01*
X423750Y155196D01*
X424823Y155409D01*
X425733Y156017D01*
X426340Y156927D01*
X426554Y158000D01*
X426340Y159073D01*
X425733Y159983D01*
X424823Y160590D01*
X423750Y160804D01*
D02*
G37*
G36*
X271000Y160054D02*
X269927Y159840D01*
X269017Y159233D01*
X268410Y158323D01*
X268196Y157250D01*
X268410Y156177D01*
X269017Y155267D01*
X269927Y154660D01*
X271000Y154446D01*
X272073Y154660D01*
X272983Y155267D01*
X273590Y156177D01*
X273804Y157250D01*
X273590Y158323D01*
X272983Y159233D01*
X272073Y159840D01*
X271000Y160054D01*
D02*
G37*
G36*
X587760Y159400D02*
Y154889D01*
X587475Y154611D01*
X586490Y154050D01*
X585759Y154195D01*
X584686Y153982D01*
X583777Y153374D01*
X583169Y152465D01*
X582955Y151391D01*
X583169Y150318D01*
X583777Y149409D01*
X584686Y148801D01*
X585759Y148588D01*
X586832Y148801D01*
X587742Y149409D01*
X588349Y150318D01*
X588563Y151391D01*
X588466Y151880D01*
X589302Y153150D01*
X594028Y153150D01*
Y159400D01*
X587760Y159400D01*
D02*
G37*
G36*
X711098Y159602D02*
X710025Y159389D01*
X709116Y158781D01*
X708508Y157871D01*
X708295Y156798D01*
X708508Y155725D01*
X709116Y154816D01*
X710025Y154208D01*
X711098Y153994D01*
X712171Y154208D01*
X713081Y154816D01*
X713689Y155725D01*
X713902Y156798D01*
X713689Y157871D01*
X713081Y158781D01*
X712171Y159389D01*
X711098Y159602D01*
D02*
G37*
G36*
X625008Y158898D02*
X618758D01*
Y153648D01*
X625008D01*
Y158898D01*
D02*
G37*
G36*
X615058D02*
X608808D01*
Y153648D01*
X615058D01*
Y158898D01*
D02*
G37*
G36*
X324750Y158804D02*
X323677Y158590D01*
X322767Y157983D01*
X322160Y157073D01*
X321946Y156000D01*
X322160Y154927D01*
X322767Y154017D01*
X323677Y153410D01*
X324750Y153196D01*
X325823Y153410D01*
X326733Y154017D01*
X327340Y154927D01*
X327554Y156000D01*
X327340Y157073D01*
X326733Y157983D01*
X325823Y158590D01*
X324750Y158804D01*
D02*
G37*
G36*
X635010Y159400D02*
X629760D01*
Y153150D01*
X635010D01*
Y159400D01*
D02*
G37*
G36*
X604010Y159400D02*
X598760D01*
Y153150D01*
X604010D01*
Y159400D01*
D02*
G37*
G36*
X154800Y160304D02*
X153727Y160090D01*
X152817Y159483D01*
X152210Y158573D01*
X151996Y157500D01*
X152210Y156427D01*
X152817Y155517D01*
X153727Y154910D01*
X154800Y154696D01*
X155873Y154910D01*
X156783Y155517D01*
X157084Y155969D01*
X158281Y155473D01*
X158246Y155300D01*
X158460Y154227D01*
X159067Y153317D01*
X159977Y152710D01*
X161050Y152496D01*
X162123Y152710D01*
X163033Y153317D01*
X163640Y154227D01*
X163854Y155300D01*
X163640Y156373D01*
X163033Y157283D01*
X162123Y157890D01*
X161050Y158104D01*
X159977Y157890D01*
X159067Y157283D01*
X158766Y156831D01*
X157569Y157326D01*
X157604Y157500D01*
X157390Y158573D01*
X156783Y159483D01*
X155873Y160090D01*
X154800Y160304D01*
D02*
G37*
G36*
X80750Y158054D02*
X79677Y157840D01*
X78767Y157233D01*
X78159Y156323D01*
X77946Y155250D01*
X78159Y154177D01*
X78767Y153267D01*
X79677Y152660D01*
X80750Y152446D01*
X81823Y152660D01*
X82732Y153267D01*
X83340Y154177D01*
X83554Y155250D01*
X83340Y156323D01*
X82732Y157233D01*
X81823Y157840D01*
X80750Y158054D01*
D02*
G37*
G36*
X526823Y167705D02*
X525750Y167491D01*
X524840Y166883D01*
X524232Y165974D01*
X524019Y164901D01*
X524232Y163828D01*
X524840Y162918D01*
X525750Y162310D01*
X526823Y162097D01*
X527349Y161571D01*
X527562Y160498D01*
X528170Y159588D01*
X529080Y158980D01*
X529496Y158897D01*
X529543Y158888D01*
Y157593D01*
X529496Y157584D01*
X529080Y157501D01*
X528170Y156893D01*
X527562Y155984D01*
X527476Y155549D01*
X527012Y154722D01*
X526184Y154257D01*
X525750Y154171D01*
X524840Y153563D01*
X524232Y152654D01*
X524146Y152219D01*
X524129Y152190D01*
X522845D01*
X522753Y152654D01*
X522145Y153563D01*
X521236Y154171D01*
X520163Y154384D01*
X519090Y154171D01*
X518180Y153563D01*
X517572Y152654D01*
X517480Y152190D01*
X516185D01*
X516093Y152654D01*
X515485Y153563D01*
X514576Y154171D01*
X514112Y154263D01*
Y155558D01*
X514576Y155650D01*
X515485Y156258D01*
X516093Y157168D01*
X516306Y158241D01*
X516093Y159314D01*
X515485Y160223D01*
X514576Y160831D01*
X513503Y161045D01*
X512430Y160831D01*
X511520Y160223D01*
X510912Y159314D01*
X510699Y158241D01*
X510173Y157715D01*
X509100Y157501D01*
X508190Y156893D01*
X507582Y155984D01*
X507369Y154911D01*
X507582Y153838D01*
X508190Y152928D01*
X509100Y152320D01*
X509563Y152228D01*
Y150944D01*
X509534Y150927D01*
X509100Y150841D01*
X508190Y150233D01*
X507582Y149324D01*
X507499Y148907D01*
X507490Y148860D01*
X506195D01*
X506186Y148907D01*
X506103Y149324D01*
X505495Y150233D01*
X504585Y150841D01*
X503512Y151054D01*
X502439Y150841D01*
X501530Y150233D01*
X500922Y149324D01*
X500709Y148251D01*
X500922Y147178D01*
X501530Y146268D01*
X502439Y145660D01*
X503512Y145447D01*
X504585Y145660D01*
X505495Y146268D01*
X506103Y147178D01*
X506186Y147594D01*
X506195Y147641D01*
X507490D01*
X507499Y147594D01*
X507582Y147178D01*
X508190Y146268D01*
X509100Y145660D01*
X510173Y145447D01*
X511245Y145660D01*
X512155Y146268D01*
X512763Y147178D01*
X512855Y147641D01*
X514150D01*
X514242Y147178D01*
X514850Y146268D01*
X515760Y145660D01*
X516833Y145447D01*
X517906Y145660D01*
X518815Y146268D01*
X519423Y147178D01*
X519515Y147641D01*
X520810D01*
X520902Y147178D01*
X521510Y146268D01*
X522420Y145660D01*
X523493Y145447D01*
X524566Y145660D01*
X525475Y146268D01*
X526083Y147178D01*
X526169Y147612D01*
X526634Y148440D01*
X527461Y148904D01*
X527896Y148990D01*
X528805Y149598D01*
X529413Y150508D01*
X529499Y150942D01*
X529964Y151770D01*
X530791Y152234D01*
X531226Y152320D01*
X532135Y152928D01*
X532743Y153838D01*
X532956Y154911D01*
X532743Y155984D01*
X532135Y156893D01*
X531226Y157501D01*
X530809Y157584D01*
X530762Y157593D01*
Y158888D01*
X530809Y158897D01*
X531226Y158980D01*
X532135Y159588D01*
X532743Y160498D01*
X532956Y161571D01*
X532743Y162644D01*
X532135Y163553D01*
X531226Y164161D01*
X530153Y164375D01*
X529626Y164901D01*
X529413Y165974D01*
X528805Y166883D01*
X527896Y167491D01*
X526823Y167705D01*
D02*
G37*
G36*
X307250Y155804D02*
X306177Y155590D01*
X305267Y154983D01*
X304660Y154073D01*
X304446Y153000D01*
X304660Y151927D01*
X305267Y151017D01*
X306177Y150410D01*
X307250Y150196D01*
X308323Y150410D01*
X309233Y151017D01*
X309840Y151927D01*
X310054Y153000D01*
X309840Y154073D01*
X309233Y154983D01*
X308323Y155590D01*
X307250Y155804D01*
D02*
G37*
G36*
X493522Y154384D02*
X492449Y154171D01*
X491540Y153563D01*
X490932Y152654D01*
X490718Y151581D01*
X489554Y150927D01*
X489119Y150841D01*
X488210Y150233D01*
X487602Y149324D01*
X487519Y148907D01*
X487510Y148860D01*
X486215D01*
X486206Y148907D01*
X486123Y149324D01*
X485515Y150233D01*
X484605Y150841D01*
X483532Y151054D01*
X482459Y150841D01*
X481550Y150233D01*
X480942Y149324D01*
X480728Y148251D01*
X480942Y147178D01*
X481550Y146268D01*
X482459Y145660D01*
X483532Y145447D01*
X484605Y145660D01*
X485515Y146268D01*
X486123Y147178D01*
X486206Y147594D01*
X486215Y147641D01*
X487510D01*
X487519Y147594D01*
X487602Y147178D01*
X488210Y146268D01*
X489119Y145660D01*
X490192Y145447D01*
X491265Y145660D01*
X492175Y146268D01*
X492783Y147178D01*
X492996Y148251D01*
X494161Y148904D01*
X494595Y148990D01*
X495505Y149598D01*
X496113Y150508D01*
X496326Y151581D01*
X496113Y152654D01*
X495505Y153563D01*
X494595Y154171D01*
X493522Y154384D01*
D02*
G37*
G36*
X386500Y154304D02*
X385427Y154090D01*
X384517Y153483D01*
X383909Y152573D01*
X383696Y151500D01*
X383909Y150427D01*
X384517Y149517D01*
X385427Y148910D01*
X386500Y148696D01*
X387573Y148910D01*
X388483Y149517D01*
X389090Y150427D01*
X389304Y151500D01*
X389090Y152573D01*
X388483Y153483D01*
X387573Y154090D01*
X386500Y154304D01*
D02*
G37*
G36*
X111750Y159054D02*
X110677Y158840D01*
X109767Y158233D01*
X109160Y157323D01*
X108946Y156250D01*
X109160Y155177D01*
X109424Y154781D01*
X109664Y153875D01*
X109424Y152969D01*
X109160Y152573D01*
X108946Y151500D01*
X109160Y150427D01*
X109767Y149517D01*
X110677Y148910D01*
X111750Y148696D01*
X112823Y148910D01*
X113733Y149517D01*
X114340Y150427D01*
X114554Y151500D01*
X114340Y152573D01*
X114076Y152969D01*
X113836Y153875D01*
X114076Y154781D01*
X114340Y155177D01*
X114554Y156250D01*
X114340Y157323D01*
X113733Y158233D01*
X112823Y158840D01*
X111750Y159054D01*
D02*
G37*
G36*
X556793Y151054D02*
X555720Y150841D01*
X554810Y150233D01*
X554202Y149324D01*
X553989Y148251D01*
X554202Y147178D01*
X554810Y146268D01*
X555720Y145660D01*
X556793Y145447D01*
X557866Y145660D01*
X558775Y146268D01*
X559383Y147178D01*
X559597Y148251D01*
X559383Y149324D01*
X558775Y150233D01*
X557866Y150841D01*
X556793Y151054D01*
D02*
G37*
G36*
X209500Y150804D02*
X208427Y150590D01*
X207517Y149983D01*
X206910Y149073D01*
X206696Y148000D01*
X206910Y146927D01*
X207517Y146017D01*
X208427Y145410D01*
X209500Y145196D01*
X210573Y145410D01*
X211483Y146017D01*
X212090Y146927D01*
X212304Y148000D01*
X212090Y149073D01*
X211483Y149983D01*
X210573Y150590D01*
X209500Y150804D01*
D02*
G37*
G36*
X425750Y147054D02*
X424677Y146840D01*
X423767Y146233D01*
X423160Y145323D01*
X422946Y144250D01*
X423160Y143177D01*
X423767Y142267D01*
X424677Y141660D01*
X425750Y141446D01*
X426823Y141660D01*
X427733Y142267D01*
X428340Y143177D01*
X428554Y144250D01*
X428340Y145323D01*
X427733Y146233D01*
X426823Y146840D01*
X425750Y147054D01*
D02*
G37*
G36*
X628658Y151054D02*
X627585Y150840D01*
X626675Y150233D01*
X626067Y149323D01*
X625854Y148250D01*
X626067Y147177D01*
X626217Y146954D01*
X626575Y146000D01*
X626217Y145046D01*
X626067Y144823D01*
X625854Y143750D01*
X626067Y142677D01*
X626675Y141767D01*
X627585Y141159D01*
X628658Y140946D01*
X629731Y141159D01*
X630640Y141767D01*
X631248Y142677D01*
X631462Y143750D01*
X631248Y144823D01*
X631099Y145046D01*
X630741Y146000D01*
X631099Y146954D01*
X631248Y147177D01*
X631462Y148250D01*
X631248Y149323D01*
X630640Y150233D01*
X629731Y150840D01*
X628658Y151054D01*
D02*
G37*
G36*
X711098Y151902D02*
X710025Y151689D01*
X709116Y151081D01*
X708508Y150171D01*
X708295Y149098D01*
X708508Y148025D01*
X709116Y147116D01*
X709732Y146704D01*
X709739Y146685D01*
X709806Y145598D01*
X709732Y145293D01*
X709267Y144983D01*
X708660Y144073D01*
X708446Y143000D01*
X708660Y141927D01*
X709267Y141017D01*
X710177Y140410D01*
X711250Y140196D01*
X712323Y140410D01*
X713233Y141017D01*
X713840Y141927D01*
X714054Y143000D01*
X713840Y144073D01*
X713233Y144983D01*
X712617Y145394D01*
X712609Y145413D01*
X712543Y146500D01*
X712617Y146805D01*
X713081Y147116D01*
X713689Y148025D01*
X713902Y149098D01*
X713689Y150171D01*
X713081Y151081D01*
X712171Y151689D01*
X711098Y151902D01*
D02*
G37*
G36*
X584408Y145554D02*
X583335Y145340D01*
X582425Y144733D01*
X581817Y143823D01*
X581604Y142750D01*
X581817Y141677D01*
X582425Y140767D01*
X583335Y140160D01*
X584408Y139946D01*
X585481Y140160D01*
X586390Y140767D01*
X586998Y141677D01*
X587212Y142750D01*
X586998Y143823D01*
X586390Y144733D01*
X585481Y145340D01*
X584408Y145554D01*
D02*
G37*
G36*
X166000Y145304D02*
X164927Y145090D01*
X164017Y144483D01*
X163410Y143573D01*
X163196Y142500D01*
X163410Y141427D01*
X164017Y140517D01*
X164927Y139909D01*
X166000Y139696D01*
X167073Y139909D01*
X167983Y140517D01*
X168590Y141427D01*
X168804Y142500D01*
X168590Y143573D01*
X167983Y144483D01*
X167073Y145090D01*
X166000Y145304D01*
D02*
G37*
G36*
X158000Y140054D02*
X156927Y139840D01*
X156017Y139233D01*
X154573Y139090D01*
X153500Y139304D01*
X152427Y139090D01*
X151517Y138483D01*
X150910Y137573D01*
X150696Y136500D01*
X150910Y135427D01*
X151517Y134517D01*
X152427Y133910D01*
X153500Y133696D01*
X154573Y133910D01*
X155483Y134517D01*
X156927Y134660D01*
X158000Y134446D01*
X159073Y134660D01*
X159983Y135267D01*
X160590Y136177D01*
X160804Y137250D01*
X160590Y138323D01*
X159983Y139233D01*
X159073Y139840D01*
X158000Y140054D01*
D02*
G37*
G36*
X307938Y148853D02*
X306865Y148640D01*
X305956Y148032D01*
X305348Y147122D01*
X305134Y146049D01*
X305348Y144976D01*
X305956Y144066D01*
X306865Y143459D01*
X307410Y142323D01*
X307196Y141250D01*
X307410Y140177D01*
X308017Y139267D01*
X308927Y138660D01*
X310000Y138446D01*
X311073Y138660D01*
X311983Y139267D01*
X312590Y140177D01*
X312804Y141250D01*
X312590Y142323D01*
X311983Y143233D01*
X311073Y143840D01*
X310529Y144976D01*
X310742Y146049D01*
X310529Y147122D01*
X309921Y148032D01*
X309011Y148640D01*
X307938Y148853D01*
D02*
G37*
G36*
X29500Y145804D02*
X28427Y145590D01*
X27517Y144983D01*
X26910Y144073D01*
X26696Y143000D01*
X26910Y141927D01*
X27517Y141017D01*
X28427Y140410D01*
X29500Y140196D01*
X30611Y139126D01*
X31219Y138216D01*
X32128Y137608D01*
X33201Y137395D01*
X34274Y137608D01*
X35184Y138216D01*
X35792Y139126D01*
X36005Y140199D01*
X35792Y141272D01*
X35184Y142181D01*
X34274Y142789D01*
X33201Y143003D01*
X32090Y144073D01*
X31483Y144983D01*
X30573Y145590D01*
X29500Y145804D01*
D02*
G37*
G36*
X287700Y141504D02*
X286627Y141290D01*
X285717Y140683D01*
X285110Y139773D01*
X284896Y138700D01*
X285110Y137627D01*
X285717Y136717D01*
X286627Y136110D01*
X287700Y135896D01*
X288773Y136110D01*
X289683Y136717D01*
X290290Y137627D01*
X290504Y138700D01*
X290290Y139773D01*
X289683Y140683D01*
X288773Y141290D01*
X287700Y141504D01*
D02*
G37*
G36*
X638308Y156750D02*
X638308Y139376D01*
X637354Y138485D01*
X636823Y138840D01*
X635750Y139054D01*
X634677Y138840D01*
X633767Y138233D01*
X633160Y137323D01*
X632946Y136250D01*
X633160Y135177D01*
X633767Y134267D01*
X634677Y133660D01*
X635750Y133446D01*
X636823Y133660D01*
X637733Y134267D01*
X637924Y134553D01*
X639422Y134598D01*
X639475Y134517D01*
X640385Y133910D01*
X641458Y133696D01*
X642531Y133910D01*
X643441Y134517D01*
X644048Y135427D01*
X644262Y136500D01*
X644048Y137573D01*
X643776Y137980D01*
X644404Y139250D01*
X651911Y139250D01*
X652036Y137980D01*
X651335Y137840D01*
X650425Y137233D01*
X649817Y136323D01*
X649604Y135250D01*
X649817Y134177D01*
X650425Y133267D01*
X651335Y132660D01*
X652408Y132446D01*
X653481Y132660D01*
X654390Y133267D01*
X654998Y134177D01*
X655123Y134805D01*
X655329Y135299D01*
X656408Y135746D01*
X656658Y135696D01*
X657731Y135910D01*
X658640Y136517D01*
X659248Y137427D01*
X659462Y138500D01*
X659248Y139573D01*
X659109Y139781D01*
X659109Y156750D01*
X638308Y156750D01*
D02*
G37*
G36*
X435958Y141104D02*
X434885Y140890D01*
X433975Y140283D01*
X433367Y139373D01*
X433154Y138300D01*
X433367Y137227D01*
X433975Y136317D01*
X434885Y135709D01*
X435958Y135496D01*
X437031Y135709D01*
X437940Y136317D01*
X438548Y137227D01*
X438762Y138300D01*
X438548Y139373D01*
X437940Y140283D01*
X437031Y140890D01*
X435958Y141104D01*
D02*
G37*
G36*
X486862Y141064D02*
X485789Y140851D01*
X484880Y140243D01*
X484272Y139334D01*
X484058Y138261D01*
X484272Y137188D01*
X484880Y136278D01*
X485789Y135670D01*
X486862Y135457D01*
X487935Y135670D01*
X488845Y136278D01*
X489453Y137188D01*
X489666Y138261D01*
X489453Y139334D01*
X488845Y140243D01*
X487935Y140851D01*
X486862Y141064D01*
D02*
G37*
G36*
X454658Y143146D02*
X453585Y142933D01*
X452675Y142325D01*
X452067Y141415D01*
X451854Y140342D01*
X450685Y139710D01*
X450085Y139590D01*
X449175Y138983D01*
X448567Y138073D01*
X448354Y137000D01*
X448567Y135927D01*
X449175Y135017D01*
X450085Y134410D01*
X451158Y134196D01*
X452231Y134410D01*
X453140Y135017D01*
X453748Y135927D01*
X453961Y137000D01*
X455131Y137633D01*
X455731Y137752D01*
X456640Y138360D01*
X457248Y139269D01*
X457462Y140342D01*
X457248Y141415D01*
X456640Y142325D01*
X455731Y142933D01*
X454658Y143146D01*
D02*
G37*
G36*
X566783Y154384D02*
X565710Y154171D01*
X564800Y153563D01*
X564192Y152653D01*
X563979Y151580D01*
X564192Y150507D01*
X564800Y149598D01*
X565710Y148990D01*
X566126Y148907D01*
X566173Y148898D01*
Y147603D01*
X566126Y147594D01*
X565710Y147511D01*
X564800Y146903D01*
X564192Y145993D01*
X563979Y144920D01*
X563453Y144394D01*
X562380Y144181D01*
X561470Y143573D01*
X560862Y142663D01*
X560649Y141590D01*
X560862Y140517D01*
X561470Y139608D01*
X562380Y139000D01*
X562796Y138917D01*
X562843Y138908D01*
Y137613D01*
X562796Y137604D01*
X562380Y137521D01*
X561470Y136913D01*
X560862Y136003D01*
X560649Y134930D01*
X560862Y133857D01*
X561470Y132948D01*
X562380Y132340D01*
X563453Y132127D01*
X564106Y130962D01*
X564192Y130527D01*
X564800Y129618D01*
X565710Y129010D01*
X566783Y128797D01*
X567309Y128270D01*
X567522Y127197D01*
X568130Y126288D01*
X569040Y125680D01*
X569456Y125597D01*
X569503Y125588D01*
Y124293D01*
X569456Y124284D01*
X569040Y124201D01*
X568130Y123593D01*
X567522Y122683D01*
X567309Y121610D01*
X567522Y120537D01*
X568130Y119628D01*
X569040Y119020D01*
X570113Y118806D01*
X571186Y119020D01*
X572095Y119628D01*
X572703Y120537D01*
X572917Y121610D01*
X572703Y122683D01*
X572095Y123593D01*
X571186Y124201D01*
X570769Y124284D01*
X570723Y124293D01*
Y125588D01*
X570769Y125597D01*
X571186Y125680D01*
X572095Y126288D01*
X572703Y127197D01*
X572917Y128270D01*
X572703Y129343D01*
X572095Y130253D01*
X571186Y130861D01*
X570113Y131074D01*
X569587Y131600D01*
X569373Y132673D01*
X568765Y133583D01*
X567856Y134191D01*
X566783Y134404D01*
X566130Y135569D01*
X566043Y136003D01*
X565435Y136913D01*
X564526Y137521D01*
X564109Y137604D01*
X564063Y137613D01*
Y138908D01*
X564109Y138917D01*
X564526Y139000D01*
X565435Y139608D01*
X566043Y140517D01*
X566257Y141590D01*
X566783Y142117D01*
X567856Y142330D01*
X568765Y142938D01*
X569373Y143847D01*
X569456Y144264D01*
X569465Y144311D01*
X570760D01*
X570770Y144264D01*
X570852Y143847D01*
X571460Y142938D01*
X572370Y142330D01*
X572786Y142247D01*
X572833Y142238D01*
Y140943D01*
X572786Y140934D01*
X572370Y140851D01*
X571460Y140243D01*
X570852Y139333D01*
X570639Y138260D01*
X570852Y137187D01*
X571460Y136278D01*
X572370Y135670D01*
X573443Y135456D01*
X573969Y134930D01*
X574182Y133857D01*
X574790Y132948D01*
X575700Y132340D01*
X576773Y132127D01*
X577846Y132340D01*
X578755Y132948D01*
X579363Y133857D01*
X579577Y134930D01*
X579363Y136003D01*
X578755Y136913D01*
X577846Y137521D01*
X576773Y137734D01*
X576247Y138260D01*
X576033Y139333D01*
X575425Y140243D01*
X574516Y140851D01*
X574099Y140934D01*
X574053Y140943D01*
Y142238D01*
X574099Y142247D01*
X574516Y142330D01*
X575425Y142938D01*
X576033Y143847D01*
X576247Y144920D01*
X576033Y145993D01*
X575425Y146903D01*
X574516Y147511D01*
X573443Y147724D01*
X572370Y147511D01*
X571460Y146903D01*
X570852Y145993D01*
X570770Y145577D01*
X570760Y145530D01*
X569465D01*
X569456Y145577D01*
X569373Y145993D01*
X568765Y146903D01*
X567856Y147511D01*
X567439Y147594D01*
X567393Y147603D01*
Y148898D01*
X567439Y148907D01*
X567856Y148990D01*
X568765Y149598D01*
X569373Y150507D01*
X569587Y151580D01*
X569373Y152653D01*
X568765Y153563D01*
X567856Y154171D01*
X566783Y154384D01*
D02*
G37*
G36*
X21750Y141054D02*
X20677Y140841D01*
X19767Y140233D01*
X19160Y139323D01*
X18946Y138250D01*
X18177Y136838D01*
X17267Y136230D01*
X16659Y135320D01*
X16446Y134247D01*
X16659Y133174D01*
X17267Y132265D01*
X18177Y131657D01*
X19250Y131444D01*
X20323Y131657D01*
X21233Y132265D01*
X21840Y133174D01*
X22054Y134247D01*
X22823Y135660D01*
X23733Y136267D01*
X24341Y137177D01*
X24554Y138250D01*
X24341Y139323D01*
X23733Y140233D01*
X22823Y140841D01*
X21750Y141054D01*
D02*
G37*
G36*
X27250Y136554D02*
X26177Y136340D01*
X25267Y135733D01*
X24660Y134823D01*
X24446Y133750D01*
X24660Y132677D01*
X25267Y131767D01*
X26177Y131160D01*
X27250Y130946D01*
X28323Y131160D01*
X29233Y131767D01*
X29840Y132677D01*
X30054Y133750D01*
X29840Y134823D01*
X29233Y135733D01*
X28323Y136340D01*
X27250Y136554D01*
D02*
G37*
G36*
X466132Y134954D02*
X465059Y134740D01*
X464149Y134133D01*
X463541Y133223D01*
X463328Y132150D01*
X463541Y131077D01*
X464149Y130167D01*
X465059Y129559D01*
X466132Y129346D01*
X467205Y129559D01*
X468114Y130167D01*
X468722Y131077D01*
X468936Y132150D01*
X468722Y133223D01*
X468114Y134133D01*
X467205Y134740D01*
X466132Y134954D01*
D02*
G37*
G36*
X696250Y134554D02*
X695177Y134340D01*
X694267Y133733D01*
X693660Y132823D01*
X693446Y131750D01*
X693660Y130677D01*
X694267Y129768D01*
X695177Y129160D01*
X696250Y128946D01*
X697323Y129160D01*
X698233Y129768D01*
X698840Y130677D01*
X699054Y131750D01*
X698840Y132823D01*
X698233Y133733D01*
X697323Y134340D01*
X696250Y134554D01*
D02*
G37*
G36*
X381667Y137804D02*
X380594Y137590D01*
X379685Y136983D01*
X379077Y136073D01*
X378863Y135000D01*
X379077Y133927D01*
X379457Y133358D01*
X379599Y132500D01*
X379457Y131642D01*
X379077Y131073D01*
X378863Y130000D01*
X379077Y128927D01*
X379685Y128017D01*
X380594Y127410D01*
X381667Y127196D01*
X382740Y127410D01*
X383650Y128017D01*
X384258Y128927D01*
X384471Y130000D01*
X384258Y131073D01*
X383877Y131642D01*
X383736Y132500D01*
X383877Y133358D01*
X384258Y133927D01*
X384471Y135000D01*
X384258Y136073D01*
X383650Y136983D01*
X382740Y137590D01*
X381667Y137804D01*
D02*
G37*
G36*
X371667Y132804D02*
X370594Y132590D01*
X369685Y131983D01*
X369077Y131073D01*
X368863Y130000D01*
X369077Y128927D01*
X369685Y128017D01*
X370594Y127410D01*
X371667Y127196D01*
X372740Y127410D01*
X373650Y128017D01*
X374258Y128927D01*
X374471Y130000D01*
X374258Y131073D01*
X373650Y131983D01*
X372740Y132590D01*
X371667Y132804D01*
D02*
G37*
G36*
X361750Y127554D02*
X360677Y127340D01*
X359767Y126733D01*
X359140D01*
X358231Y127340D01*
X357158Y127554D01*
X356085Y127340D01*
X355175Y126733D01*
X354567Y125823D01*
X354354Y124750D01*
X354567Y123677D01*
X355175Y122767D01*
X356085Y122160D01*
X357158Y121946D01*
X358231Y122160D01*
X358311Y122213D01*
X359227Y121298D01*
X359077Y121073D01*
X358863Y120000D01*
X359077Y118927D01*
X359685Y118017D01*
X360594Y117410D01*
X361667Y117196D01*
X362740Y117410D01*
X363650Y118017D01*
X364258Y118927D01*
X364471Y120000D01*
X364258Y121073D01*
X363925Y121571D01*
X363733Y122767D01*
X364340Y123677D01*
X364554Y124750D01*
X364340Y125823D01*
X363733Y126733D01*
X362823Y127340D01*
X361750Y127554D01*
D02*
G37*
G36*
X589000Y130804D02*
X587927Y130590D01*
X587017Y129983D01*
X586410Y129073D01*
X586196Y128000D01*
X586410Y126927D01*
X587017Y126017D01*
X587927Y125410D01*
X589000Y125196D01*
X590073Y125410D01*
X590983Y126017D01*
X591590Y126927D01*
X591804Y128000D01*
X591590Y129073D01*
X590983Y129983D01*
X590073Y130590D01*
X589000Y130804D01*
D02*
G37*
G36*
X622737Y129898D02*
X616487D01*
Y124648D01*
X622737D01*
Y129898D01*
D02*
G37*
G36*
X612787D02*
X606537D01*
Y124648D01*
X612787D01*
Y129898D01*
D02*
G37*
G36*
X632740Y130350D02*
X627490D01*
Y124100D01*
X632740D01*
Y130350D01*
D02*
G37*
G36*
X601740Y130350D02*
X596490D01*
Y124100D01*
X601740D01*
Y130350D01*
D02*
G37*
G36*
X139375Y128679D02*
X138302Y128465D01*
X137392Y127858D01*
X136785Y126948D01*
X136571Y125875D01*
X136785Y124802D01*
X137392Y123892D01*
X138302Y123285D01*
X139375Y123071D01*
X140448Y123285D01*
X141358Y123892D01*
X141966Y124802D01*
X142179Y125875D01*
X141966Y126948D01*
X141358Y127858D01*
X140448Y128465D01*
X139375Y128679D01*
D02*
G37*
G36*
X396667Y122804D02*
X395594Y122590D01*
X394685Y121983D01*
X393650D01*
X392740Y122590D01*
X391667Y122804D01*
X390594Y122590D01*
X389685Y121983D01*
X389077Y121073D01*
X388863Y120000D01*
X389077Y118927D01*
X389685Y118017D01*
X390594Y117410D01*
X391667Y117196D01*
X392740Y117410D01*
X393650Y118017D01*
X394685D01*
X395594Y117410D01*
X396667Y117196D01*
X397740Y117410D01*
X398650Y118017D01*
X399258Y118927D01*
X399471Y120000D01*
X399258Y121073D01*
X398650Y121983D01*
X397740Y122590D01*
X396667Y122804D01*
D02*
G37*
G36*
X20000Y123304D02*
X18927Y123090D01*
X18017Y122483D01*
X17410Y121573D01*
X17384Y121445D01*
X16923Y121254D01*
X15850Y121467D01*
X14777Y121254D01*
X13867Y120646D01*
X13260Y119736D01*
X13046Y118663D01*
X13260Y117590D01*
X13867Y116681D01*
X14777Y116073D01*
X15850Y115859D01*
X16923Y116073D01*
X17833Y116681D01*
X18440Y117590D01*
X18466Y117718D01*
X18927Y117909D01*
X20000Y117696D01*
X21073Y117909D01*
X21983Y118517D01*
X22590Y119427D01*
X22804Y120500D01*
X22590Y121573D01*
X21983Y122483D01*
X21073Y123090D01*
X20000Y123304D01*
D02*
G37*
G36*
X33750Y130304D02*
X32677Y130090D01*
X31767Y129483D01*
X31160Y128573D01*
X30946Y127500D01*
X31160Y126427D01*
X31540Y125858D01*
X31682Y125000D01*
X31540Y124142D01*
X31160Y123573D01*
X30946Y122500D01*
X31160Y121427D01*
X31767Y120517D01*
X32677Y119910D01*
X33750Y119696D01*
X34823Y119910D01*
X35733Y120517D01*
X36340Y121427D01*
X36554Y122500D01*
X36340Y123573D01*
X35960Y124142D01*
X35818Y125000D01*
X35960Y125858D01*
X36340Y126427D01*
X36554Y127500D01*
X36340Y128573D01*
X35733Y129483D01*
X34823Y130090D01*
X33750Y130304D01*
D02*
G37*
G36*
X95500Y125304D02*
X94427Y125090D01*
X93517Y124483D01*
X92909Y123573D01*
X92696Y122500D01*
X92909Y121427D01*
X93517Y120517D01*
X94427Y119910D01*
X95500Y119696D01*
X96573Y119910D01*
X97483Y120517D01*
X98090Y121427D01*
X98304Y122500D01*
X98090Y123573D01*
X97483Y124483D01*
X96573Y125090D01*
X95500Y125304D01*
D02*
G37*
G36*
X87250Y130054D02*
X86177Y129840D01*
X85267Y129233D01*
X84660Y128323D01*
X84446Y127250D01*
X84660Y126177D01*
X85267Y125267D01*
X85976Y124794D01*
X85982Y123970D01*
X85842Y123473D01*
X85177Y123340D01*
X84267Y122733D01*
X83660Y121823D01*
X83446Y120750D01*
X83660Y119677D01*
X84267Y118767D01*
X85177Y118160D01*
X86250Y117946D01*
X87323Y118160D01*
X88233Y118767D01*
X88841Y119677D01*
X89054Y120750D01*
X88841Y121823D01*
X88233Y122733D01*
X87524Y123206D01*
X87518Y124030D01*
X87659Y124527D01*
X88323Y124660D01*
X89233Y125267D01*
X89840Y126177D01*
X90054Y127250D01*
X89840Y128323D01*
X89233Y129233D01*
X88323Y129840D01*
X87250Y130054D01*
D02*
G37*
G36*
X581408Y123304D02*
X580335Y123090D01*
X579425Y122483D01*
X578817Y121573D01*
X578604Y120500D01*
X578817Y119427D01*
X579425Y118517D01*
X580335Y117909D01*
X581408Y117696D01*
X582481Y117909D01*
X583390Y118517D01*
X583998Y119427D01*
X584212Y120500D01*
X583998Y121573D01*
X583390Y122483D01*
X582481Y123090D01*
X581408Y123304D01*
D02*
G37*
G36*
X406667Y122804D02*
X405594Y122590D01*
X404685Y121983D01*
X404077Y121073D01*
X403863Y120000D01*
X404077Y118927D01*
X404685Y118017D01*
X405594Y117410D01*
X406667Y117196D01*
X407740Y117410D01*
X408650Y118017D01*
X409258Y118927D01*
X409471Y120000D01*
X409258Y121073D01*
X408650Y121983D01*
X407740Y122590D01*
X406667Y122804D01*
D02*
G37*
G36*
X376667D02*
X375594Y122590D01*
X374685Y121983D01*
X374077Y121073D01*
X373863Y120000D01*
X374077Y118927D01*
X374685Y118017D01*
X375594Y117410D01*
X376667Y117196D01*
X377740Y117410D01*
X378650Y118017D01*
X379258Y118927D01*
X379471Y120000D01*
X379258Y121073D01*
X378650Y121983D01*
X377740Y122590D01*
X376667Y122804D01*
D02*
G37*
G36*
X462158Y122304D02*
X461085Y122090D01*
X460175Y121483D01*
X459567Y120573D01*
X459354Y119500D01*
X459567Y118427D01*
X460175Y117517D01*
X461085Y116910D01*
X462158Y116696D01*
X463231Y116910D01*
X464140Y117517D01*
X464748Y118427D01*
X464962Y119500D01*
X464748Y120573D01*
X464140Y121483D01*
X463231Y122090D01*
X462158Y122304D01*
D02*
G37*
G36*
X632740Y120400D02*
X627490D01*
Y116421D01*
X626220Y115742D01*
X626073Y115840D01*
X625000Y116054D01*
X624007Y115856D01*
X623899Y115858D01*
X622737Y116573D01*
Y119898D01*
X616487D01*
Y114648D01*
X621215D01*
X622221Y113378D01*
X622196Y113250D01*
X622410Y112177D01*
X623017Y111267D01*
X623927Y110660D01*
X625000Y110446D01*
X626073Y110660D01*
X626983Y111267D01*
X627590Y112177D01*
X627804Y113250D01*
X628543Y114150D01*
X632740D01*
Y120400D01*
D02*
G37*
G36*
X612787Y119898D02*
X606537D01*
Y114648D01*
X612787D01*
Y119898D01*
D02*
G37*
G36*
X601740Y120400D02*
X596490D01*
Y114150D01*
X601740D01*
Y120400D01*
D02*
G37*
G36*
X450408Y125804D02*
X449335Y125590D01*
X448425Y124983D01*
X447817Y124073D01*
X447604Y123000D01*
X447817Y121927D01*
X448425Y121017D01*
X449335Y120410D01*
X449769Y120323D01*
X450038Y118975D01*
X449675Y118733D01*
X449067Y117823D01*
X448854Y116750D01*
X449067Y115677D01*
X449675Y114767D01*
X450585Y114160D01*
X451658Y113946D01*
X452731Y114160D01*
X453640Y114767D01*
X454248Y115677D01*
X454462Y116750D01*
X454248Y117823D01*
X453640Y118733D01*
X452731Y119340D01*
X452296Y119427D01*
X452028Y120775D01*
X452390Y121017D01*
X452998Y121927D01*
X453212Y123000D01*
X452998Y124073D01*
X452390Y124983D01*
X451481Y125590D01*
X450408Y125804D01*
D02*
G37*
G36*
X325500Y119054D02*
X324427Y118841D01*
X323517Y118233D01*
X322910Y117323D01*
X322696Y116250D01*
X322910Y115177D01*
X323517Y114267D01*
X324427Y113660D01*
X325500Y113446D01*
X326573Y113660D01*
X327483Y114267D01*
X328090Y115177D01*
X328304Y116250D01*
X328090Y117323D01*
X327483Y118233D01*
X326573Y118841D01*
X325500Y119054D01*
D02*
G37*
G36*
X709250Y119054D02*
X708177Y118840D01*
X707267Y118233D01*
X706660Y117323D01*
X706446Y116250D01*
X706660Y115177D01*
X707267Y114267D01*
X708177Y113660D01*
X709250Y113446D01*
X710323Y113660D01*
X711233Y114267D01*
X711840Y115177D01*
X712054Y116250D01*
X711840Y117323D01*
X711233Y118233D01*
X710323Y118840D01*
X709250Y119054D01*
D02*
G37*
G36*
X371667Y117804D02*
X370594Y117590D01*
X369685Y116983D01*
X369077Y116073D01*
X368863Y115000D01*
X369077Y113927D01*
X369685Y113017D01*
X370594Y112410D01*
X371667Y112196D01*
X372740Y112410D01*
X373650Y113017D01*
X374258Y113927D01*
X374471Y115000D01*
X374258Y116073D01*
X373650Y116983D01*
X372740Y117590D01*
X371667Y117804D01*
D02*
G37*
G36*
X221818Y114772D02*
X220745Y114558D01*
X219835Y113950D01*
X219227Y113041D01*
X219014Y111968D01*
X219227Y110895D01*
X219835Y109985D01*
X220745Y109377D01*
X221818Y109164D01*
X222891Y109377D01*
X223800Y109985D01*
X224408Y110895D01*
X224622Y111968D01*
X224408Y113041D01*
X223800Y113950D01*
X222891Y114558D01*
X221818Y114772D01*
D02*
G37*
G36*
X184750Y114554D02*
X183677Y114340D01*
X182767Y113733D01*
X182160Y112823D01*
X181946Y111750D01*
X182160Y110677D01*
X182767Y109767D01*
X183677Y109160D01*
X184750Y108946D01*
X185823Y109160D01*
X186733Y109767D01*
X187340Y110677D01*
X187554Y111750D01*
X187340Y112823D01*
X186733Y113733D01*
X185823Y114340D01*
X184750Y114554D01*
D02*
G37*
G36*
X480202Y121084D02*
X479129Y120871D01*
X478220Y120263D01*
X477612Y119354D01*
X477398Y118280D01*
X477612Y117207D01*
X478220Y116298D01*
X479129Y115690D01*
X479546Y115607D01*
X479593Y115598D01*
Y114303D01*
X479546Y114294D01*
X479129Y114211D01*
X478220Y113603D01*
X477612Y112693D01*
X477398Y111621D01*
X476872Y111094D01*
X475799Y110881D01*
X474890Y110273D01*
X474282Y109363D01*
X474068Y108291D01*
X473542Y107764D01*
X472469Y107551D01*
X471560Y106943D01*
X470952Y106033D01*
X470738Y104960D01*
X470952Y103887D01*
X471560Y102978D01*
X472469Y102370D01*
X473542Y102156D01*
X474615Y102370D01*
X475525Y102978D01*
X476133Y103887D01*
X476225Y104351D01*
X477509D01*
X477525Y104322D01*
X477612Y103887D01*
X478220Y102978D01*
X479129Y102370D01*
X480202Y102156D01*
X481275Y102370D01*
X482185Y102978D01*
X482793Y103887D01*
X483006Y104960D01*
X482793Y106033D01*
X482185Y106943D01*
X481275Y107551D01*
X480812Y107643D01*
Y108938D01*
X481275Y109030D01*
X482185Y109638D01*
X482793Y110548D01*
X482876Y110964D01*
X482885Y111011D01*
X484180D01*
X484189Y110964D01*
X484272Y110547D01*
X484880Y109638D01*
X485789Y109030D01*
X486862Y108816D01*
X487935Y109030D01*
X488845Y109638D01*
X489453Y110547D01*
X489666Y111620D01*
X489453Y112693D01*
X488845Y113603D01*
X487935Y114211D01*
X487519Y114294D01*
X487472Y114303D01*
Y115598D01*
X487519Y115607D01*
X487935Y115690D01*
X488845Y116298D01*
X489453Y117207D01*
X489666Y118280D01*
X489453Y119354D01*
X488845Y120263D01*
X487935Y120871D01*
X486862Y121084D01*
X485789Y120871D01*
X484880Y120263D01*
X484272Y119354D01*
X484189Y118937D01*
X484180Y118890D01*
X482885D01*
X482876Y118937D01*
X482793Y119354D01*
X482185Y120263D01*
X481275Y120871D01*
X480202Y121084D01*
D02*
G37*
G36*
X607208Y112804D02*
X606135Y112590D01*
X605225Y111983D01*
X604617Y111073D01*
X604404Y110000D01*
X604617Y108927D01*
X605225Y108017D01*
X606135Y107410D01*
X607208Y107196D01*
X608281Y107410D01*
X609190Y108017D01*
X609798Y108927D01*
X610012Y110000D01*
X609798Y111073D01*
X609190Y111983D01*
X608281Y112590D01*
X607208Y112804D01*
D02*
G37*
G36*
X386802D02*
X385729Y112590D01*
X384820Y111983D01*
X384212Y111073D01*
X383999Y110000D01*
X384212Y108927D01*
X384820Y108017D01*
X385729Y107410D01*
X386802Y107196D01*
X387876Y107410D01*
X388785Y108017D01*
X389393Y108927D01*
X389606Y110000D01*
X389393Y111073D01*
X388785Y111983D01*
X387876Y112590D01*
X386802Y112804D01*
D02*
G37*
G36*
X356667D02*
X355594Y112590D01*
X354685Y111983D01*
X354077Y111073D01*
X353863Y110000D01*
X354077Y108927D01*
X354685Y108017D01*
X355594Y107410D01*
X356667Y107196D01*
X357740Y107410D01*
X358650Y108017D01*
X359258Y108927D01*
X359471Y110000D01*
X359258Y111073D01*
X358650Y111983D01*
X357740Y112590D01*
X356667Y112804D01*
D02*
G37*
G36*
X97250Y116804D02*
X96177Y116590D01*
X95267Y115983D01*
X94660Y115073D01*
X94446Y114000D01*
X94465Y113907D01*
X93500Y112804D01*
X92427Y112590D01*
X91517Y111983D01*
X90910Y111073D01*
X90696Y110000D01*
X90910Y108927D01*
X91517Y108017D01*
X92427Y107410D01*
X93500Y107196D01*
X94573Y107410D01*
X95483Y108017D01*
X96090Y108927D01*
X96304Y110000D01*
X96285Y110093D01*
X97250Y111196D01*
X98323Y111410D01*
X99233Y112017D01*
X99840Y112927D01*
X100054Y114000D01*
X99840Y115073D01*
X99233Y115983D01*
X98323Y116590D01*
X97250Y116804D01*
D02*
G37*
G36*
X234000Y112554D02*
X232927Y112340D01*
X232017Y111733D01*
X231410Y110823D01*
X231196Y109750D01*
X231410Y108677D01*
X232017Y107767D01*
X232927Y107160D01*
X234000Y106946D01*
X235073Y107160D01*
X235983Y107767D01*
X236590Y108677D01*
X236804Y109750D01*
X236590Y110823D01*
X235983Y111733D01*
X235073Y112340D01*
X234000Y112554D01*
D02*
G37*
G36*
X18000Y112304D02*
X16927Y112090D01*
X16017Y111483D01*
X15410Y110573D01*
X15196Y109500D01*
X15410Y108427D01*
X16017Y107517D01*
X16927Y106910D01*
X18000Y106696D01*
X19073Y106910D01*
X19983Y107517D01*
X20590Y108427D01*
X20804Y109500D01*
X20590Y110573D01*
X19983Y111483D01*
X19073Y112090D01*
X18000Y112304D01*
D02*
G37*
G36*
X317125Y114179D02*
X316052Y113965D01*
X315142Y113358D01*
X314535Y112448D01*
X314321Y111375D01*
X314535Y110302D01*
X315142Y109392D01*
X316052Y108785D01*
X317196Y108500D01*
X317410Y107427D01*
X318017Y106517D01*
X318927Y105910D01*
X320000Y105696D01*
X321073Y105910D01*
X321983Y106517D01*
X322590Y107427D01*
X322804Y108500D01*
X322590Y109573D01*
X321983Y110483D01*
X321073Y111090D01*
X319929Y111375D01*
X319715Y112448D01*
X319108Y113358D01*
X318198Y113965D01*
X317125Y114179D01*
D02*
G37*
G36*
X300000Y111304D02*
X298927Y111090D01*
X298017Y110483D01*
X297410Y109573D01*
X297196Y108500D01*
X297410Y107427D01*
X297430Y107396D01*
X297618Y106200D01*
X297095Y105785D01*
X296717Y105533D01*
X296110Y104623D01*
X296097Y104562D01*
X294802D01*
X294790Y104623D01*
X294182Y105533D01*
X293273Y106140D01*
X292200Y106354D01*
X291127Y106140D01*
X290217Y105533D01*
X289610Y104623D01*
X289396Y103550D01*
X289610Y102477D01*
X290217Y101567D01*
X291127Y100960D01*
X292200Y100746D01*
X293273Y100960D01*
X294182Y101567D01*
X294790Y102477D01*
X294802Y102538D01*
X296097D01*
X296110Y102477D01*
X296717Y101567D01*
X297627Y100960D01*
X298700Y100746D01*
X299773Y100960D01*
X300683Y101567D01*
X301290Y102477D01*
X301504Y103550D01*
X301290Y104623D01*
X301270Y104654D01*
X301082Y105850D01*
X301604Y106265D01*
X301983Y106517D01*
X302590Y107427D01*
X302804Y108500D01*
X302590Y109573D01*
X301983Y110483D01*
X301073Y111090D01*
X300000Y111304D01*
D02*
G37*
G36*
X126000Y108554D02*
X124927Y108341D01*
X124017Y107733D01*
X123410Y106823D01*
X123196Y105750D01*
X123410Y104677D01*
X124017Y103767D01*
X124927Y103160D01*
X126000Y102946D01*
X127073Y103160D01*
X127983Y103767D01*
X128590Y104677D01*
X128804Y105750D01*
X128590Y106823D01*
X127983Y107733D01*
X127073Y108341D01*
X126000Y108554D01*
D02*
G37*
G36*
X260250Y108554D02*
X259177Y108340D01*
X258267Y107733D01*
X257660Y106823D01*
X257446Y105750D01*
X257660Y104677D01*
X258267Y103767D01*
X259177Y103160D01*
X260250Y102946D01*
X261323Y103160D01*
X262233Y103767D01*
X262840Y104677D01*
X263054Y105750D01*
X262840Y106823D01*
X262233Y107733D01*
X261323Y108340D01*
X260250Y108554D01*
D02*
G37*
G36*
X361667Y107804D02*
X360594Y107590D01*
X359685Y106983D01*
X359077Y106073D01*
X358863Y105000D01*
X359077Y103927D01*
X359685Y103017D01*
X360594Y102410D01*
X361667Y102196D01*
X362740Y102410D01*
X363650Y103017D01*
X364258Y103927D01*
X364471Y105000D01*
X364258Y106073D01*
X363650Y106983D01*
X362740Y107590D01*
X361667Y107804D01*
D02*
G37*
G36*
X391667Y107804D02*
X390594Y107590D01*
X389685Y106983D01*
X389077Y106073D01*
X388863Y105000D01*
X389077Y103927D01*
X389685Y103017D01*
X390594Y102410D01*
X391667Y102196D01*
X392740Y102410D01*
X393650Y103017D01*
X394258Y103927D01*
X394471Y105000D01*
X394258Y106073D01*
X393650Y106983D01*
X392740Y107590D01*
X391667Y107804D01*
D02*
G37*
G36*
X371667D02*
X370594Y107590D01*
X369685Y106983D01*
X369077Y106073D01*
X368863Y105000D01*
X369077Y103927D01*
X369685Y103017D01*
X370594Y102410D01*
X371667Y102196D01*
X372740Y102410D01*
X373650Y103017D01*
X374258Y103927D01*
X374471Y105000D01*
X374258Y106073D01*
X373650Y106983D01*
X372740Y107590D01*
X371667Y107804D01*
D02*
G37*
G36*
X636437Y117250D02*
Y102150D01*
X657238Y102150D01*
Y117250D01*
X636437Y117250D01*
D02*
G37*
G36*
X93500Y105804D02*
X92427Y105590D01*
X91517Y104983D01*
X90910Y104073D01*
X90696Y103000D01*
X90910Y101927D01*
X91517Y101017D01*
X92427Y100410D01*
X93500Y100196D01*
X94573Y100410D01*
X95483Y101017D01*
X96090Y101927D01*
X96304Y103000D01*
X96090Y104073D01*
X95483Y104983D01*
X94573Y105590D01*
X93500Y105804D01*
D02*
G37*
G36*
X622137Y105147D02*
X615887D01*
Y99897D01*
X622137D01*
Y105147D01*
D02*
G37*
G36*
X612187D02*
X605937D01*
Y99897D01*
X612187D01*
Y105147D01*
D02*
G37*
G36*
X595250Y111804D02*
X594177Y111590D01*
X593267Y110983D01*
X592660Y110073D01*
X592446Y109000D01*
X592660Y107927D01*
X593267Y107017D01*
X594177Y106410D01*
X594896Y106267D01*
X595395Y105932D01*
X595890Y105028D01*
Y99350D01*
X601140D01*
Y105600D01*
X597397D01*
X597012Y106870D01*
X597233Y107017D01*
X597840Y107927D01*
X598054Y109000D01*
X597840Y110073D01*
X597233Y110983D01*
X596323Y111590D01*
X595250Y111804D01*
D02*
G37*
G36*
X626890Y105600D02*
Y99350D01*
X633158Y99350D01*
Y105600D01*
X626890Y105600D01*
D02*
G37*
G36*
X278250Y103554D02*
X277177Y103340D01*
X276267Y102733D01*
X275660Y101823D01*
X275446Y100750D01*
X275660Y99677D01*
X276267Y98767D01*
X277177Y98160D01*
X278250Y97946D01*
X279323Y98160D01*
X280233Y98767D01*
X280840Y99677D01*
X281054Y100750D01*
X280840Y101823D01*
X280233Y102733D01*
X279323Y103340D01*
X278250Y103554D01*
D02*
G37*
G36*
X396667Y102804D02*
X395594Y102590D01*
X394685Y101983D01*
X394077Y101073D01*
X393863Y100000D01*
X394077Y98927D01*
X394685Y98017D01*
X395594Y97410D01*
X396667Y97196D01*
X397740Y97410D01*
X398650Y98017D01*
X399258Y98927D01*
X399471Y100000D01*
X399258Y101073D01*
X398650Y101983D01*
X397740Y102590D01*
X396667Y102804D01*
D02*
G37*
G36*
X376667D02*
X375594Y102590D01*
X374685Y101983D01*
X374077Y101073D01*
X373863Y100000D01*
X374077Y98927D01*
X374685Y98017D01*
X375594Y97410D01*
X376667Y97196D01*
X377740Y97410D01*
X378650Y98017D01*
X379258Y98927D01*
X379471Y100000D01*
X379258Y101073D01*
X378650Y101983D01*
X377740Y102590D01*
X376667Y102804D01*
D02*
G37*
G36*
X110125Y101554D02*
X109052Y101340D01*
X108142Y100733D01*
X107535Y99823D01*
X107321Y98750D01*
X107535Y97677D01*
X108142Y96767D01*
X109052Y96160D01*
X110125Y95946D01*
X111198Y96160D01*
X112108Y96767D01*
X112715Y97677D01*
X112929Y98750D01*
X112715Y99823D01*
X112108Y100733D01*
X111198Y101340D01*
X110125Y101554D01*
D02*
G37*
G36*
X486862Y101104D02*
X485789Y100891D01*
X484880Y100283D01*
X484272Y99373D01*
X484058Y98300D01*
X484272Y97227D01*
X484880Y96318D01*
X485789Y95710D01*
X486862Y95496D01*
X487935Y95710D01*
X488845Y96318D01*
X489453Y97227D01*
X489666Y98300D01*
X489453Y99373D01*
X488845Y100283D01*
X487935Y100891D01*
X486862Y101104D01*
D02*
G37*
G36*
X563453Y117754D02*
X562380Y117541D01*
X561470Y116933D01*
X560862Y116023D01*
X560649Y114950D01*
X560862Y113877D01*
X561470Y112968D01*
X562380Y112360D01*
X562843Y112268D01*
Y110973D01*
X562380Y110881D01*
X561470Y110273D01*
X560862Y109363D01*
X560649Y108290D01*
X560862Y107217D01*
X561470Y106308D01*
X562380Y105700D01*
X562843Y105608D01*
Y104313D01*
X562380Y104221D01*
X561470Y103613D01*
X560862Y102703D01*
X560649Y101630D01*
X560862Y100557D01*
X561470Y99648D01*
X562380Y99040D01*
X563453Y98826D01*
X564526Y99040D01*
X565435Y99648D01*
X566043Y100557D01*
X566135Y101020D01*
X567430D01*
X567522Y100557D01*
X568130Y99648D01*
X569040Y99040D01*
X569503Y98948D01*
Y97653D01*
X569040Y97561D01*
X568130Y96953D01*
X567522Y96043D01*
X567309Y94970D01*
X567522Y93897D01*
X568130Y92987D01*
X569040Y92380D01*
X569456Y92297D01*
X569503Y92288D01*
Y90993D01*
X569456Y90983D01*
X569040Y90901D01*
X568130Y90293D01*
X567522Y89383D01*
X567440Y88967D01*
X567430Y88920D01*
X566135D01*
X566126Y88967D01*
X566043Y89383D01*
X565435Y90293D01*
X564526Y90901D01*
X563453Y91114D01*
X562380Y90901D01*
X561470Y90293D01*
X560862Y89383D01*
X560649Y88310D01*
X560862Y87237D01*
X561470Y86327D01*
X562380Y85720D01*
X562796Y85637D01*
X562843Y85627D01*
Y84333D01*
X562796Y84323D01*
X562380Y84241D01*
X561470Y83633D01*
X560862Y82723D01*
X560649Y81650D01*
X560862Y80577D01*
X561470Y79668D01*
X562380Y79060D01*
X562814Y78973D01*
X563642Y78509D01*
X564106Y77681D01*
X564192Y77247D01*
X564800Y76337D01*
X565710Y75730D01*
X566783Y75516D01*
X567856Y75730D01*
X568765Y76337D01*
X569373Y77247D01*
X569587Y78320D01*
X569373Y79393D01*
X568765Y80303D01*
X567856Y80911D01*
X567422Y80997D01*
X566594Y81461D01*
X566130Y82289D01*
X566043Y82723D01*
X565435Y83633D01*
X564526Y84241D01*
X564109Y84323D01*
X564063Y84333D01*
Y85627D01*
X564109Y85637D01*
X564526Y85720D01*
X565435Y86327D01*
X566043Y87237D01*
X566126Y87654D01*
X566135Y87700D01*
X567430D01*
X567440Y87654D01*
X567522Y87237D01*
X568130Y86327D01*
X569040Y85720D01*
X570113Y85506D01*
X570639Y84980D01*
X570852Y83907D01*
X571460Y82998D01*
X572370Y82390D01*
X573443Y82176D01*
X573969Y81650D01*
X574182Y80577D01*
X574790Y79668D01*
X575700Y79060D01*
X576773Y78846D01*
X577846Y79060D01*
X578755Y79668D01*
X579363Y80577D01*
X579577Y81650D01*
X579363Y82723D01*
X578755Y83633D01*
X577846Y84241D01*
X576773Y84454D01*
X576247Y84980D01*
X576033Y86053D01*
X575425Y86963D01*
X574516Y87570D01*
X573443Y87784D01*
X572917Y88310D01*
X572703Y89383D01*
X572095Y90293D01*
X571186Y90901D01*
X570769Y90983D01*
X570723Y90993D01*
Y92288D01*
X570769Y92297D01*
X571186Y92380D01*
X572095Y92987D01*
X572703Y93897D01*
X572917Y94970D01*
X573443Y95496D01*
X574516Y95710D01*
X575425Y96318D01*
X576033Y97227D01*
X576116Y97644D01*
X576125Y97690D01*
X577420D01*
X577430Y97644D01*
X577513Y97227D01*
X578120Y96318D01*
X579030Y95710D01*
X580103Y95496D01*
X581176Y95710D01*
X582085Y96318D01*
X582693Y97227D01*
X582907Y98300D01*
X582693Y99373D01*
X582085Y100283D01*
X581176Y100891D01*
X580103Y101104D01*
X579030Y100891D01*
X578120Y100283D01*
X577513Y99373D01*
X577430Y98957D01*
X577420Y98910D01*
X576125D01*
X576116Y98957D01*
X576033Y99373D01*
X575425Y100283D01*
X574516Y100891D01*
X573443Y101104D01*
X572917Y101630D01*
X572703Y102703D01*
X572095Y103613D01*
X571186Y104221D01*
X570723Y104313D01*
Y105608D01*
X571186Y105700D01*
X572095Y106308D01*
X572703Y107217D01*
X572917Y108290D01*
X572703Y109363D01*
X572095Y110273D01*
X571186Y110881D01*
X570113Y111094D01*
X569587Y111620D01*
X569373Y112693D01*
X568765Y113603D01*
X567856Y114211D01*
X566783Y114424D01*
X566257Y114950D01*
X566043Y116023D01*
X565435Y116933D01*
X564526Y117541D01*
X563453Y117754D01*
D02*
G37*
G36*
X138750Y100054D02*
X137677Y99840D01*
X136767Y99233D01*
X136160Y98323D01*
X135946Y97250D01*
X136160Y96177D01*
X136767Y95267D01*
X137677Y94660D01*
X138750Y94446D01*
X139823Y94660D01*
X140733Y95267D01*
X141341Y96177D01*
X141554Y97250D01*
X141341Y98323D01*
X140733Y99233D01*
X139823Y99840D01*
X138750Y100054D01*
D02*
G37*
G36*
X648908Y98554D02*
X647835Y98340D01*
X646925Y97733D01*
X646317Y96823D01*
X646104Y95750D01*
X646317Y94677D01*
X646756Y94020D01*
X646457Y93117D01*
X646194Y92750D01*
X636437Y92750D01*
X636437Y79106D01*
X635167Y78721D01*
X634925Y79083D01*
X634016Y79690D01*
X632943Y79904D01*
X631870Y79690D01*
X630960Y79083D01*
X630352Y78173D01*
X630139Y77100D01*
X630057Y77000D01*
X621956D01*
X621956Y59500D01*
X642520Y59500D01*
X642675Y59267D01*
X643585Y58660D01*
X644658Y58446D01*
X645731Y58660D01*
X646640Y59267D01*
X647248Y60177D01*
X647462Y61250D01*
X647248Y62323D01*
X646640Y63233D01*
X645731Y63840D01*
X644658Y64054D01*
X644028Y63928D01*
X642758Y64699D01*
X642758Y75250D01*
X648453Y75250D01*
X648567Y74677D01*
X649175Y73767D01*
X650085Y73159D01*
X651158Y72946D01*
X652231Y73159D01*
X653140Y73767D01*
X653748Y74677D01*
X653862Y75250D01*
X657238D01*
X657238Y92750D01*
X651622Y92750D01*
X651358Y93117D01*
X651059Y94020D01*
X651498Y94677D01*
X651712Y95750D01*
X651498Y96823D01*
X650890Y97733D01*
X649981Y98340D01*
X648908Y98554D01*
D02*
G37*
G36*
X391667Y97804D02*
X390594Y97590D01*
X389685Y96983D01*
X389077Y96073D01*
X388863Y95000D01*
X389077Y93927D01*
X389685Y93017D01*
X390594Y92410D01*
X391667Y92196D01*
X392740Y92410D01*
X393650Y93017D01*
X394258Y93927D01*
X394471Y95000D01*
X394258Y96073D01*
X393650Y96983D01*
X392740Y97590D01*
X391667Y97804D01*
D02*
G37*
G36*
X381667Y97804D02*
X380594Y97590D01*
X379685Y96983D01*
X379077Y96073D01*
X378863Y95000D01*
X379077Y93927D01*
X379685Y93017D01*
X380594Y92409D01*
X381667Y92196D01*
X382740Y92409D01*
X383650Y93017D01*
X384258Y93927D01*
X384471Y95000D01*
X384258Y96073D01*
X383650Y96983D01*
X382740Y97590D01*
X381667Y97804D01*
D02*
G37*
G36*
X238750Y96804D02*
X237677Y96590D01*
X236767Y95983D01*
X236160Y95073D01*
X235946Y94000D01*
X236160Y92927D01*
X236767Y92017D01*
X237677Y91410D01*
X238750Y91196D01*
X239823Y91410D01*
X240733Y92017D01*
X241340Y92927D01*
X241554Y94000D01*
X241340Y95073D01*
X240733Y95983D01*
X239823Y96590D01*
X238750Y96804D01*
D02*
G37*
G36*
X314500Y95554D02*
X313427Y95340D01*
X312517Y94733D01*
X311910Y93823D01*
X311696Y92750D01*
X311910Y91677D01*
X312517Y90767D01*
X313427Y90160D01*
X314500Y89946D01*
X315573Y90160D01*
X316483Y90767D01*
X317090Y91677D01*
X317304Y92750D01*
X317090Y93823D01*
X316483Y94733D01*
X315573Y95340D01*
X314500Y95554D01*
D02*
G37*
G36*
X622137Y95147D02*
X615887D01*
Y89897D01*
X622137D01*
Y95147D01*
D02*
G37*
G36*
X601140Y95650D02*
X595890D01*
Y89400D01*
X601140D01*
Y95650D01*
D02*
G37*
G36*
X626890Y95650D02*
Y89400D01*
X633158Y89400D01*
Y95650D01*
X626890Y95650D01*
D02*
G37*
G36*
X68250Y89054D02*
X67177Y88840D01*
X66267Y88233D01*
X65660Y87323D01*
X65390Y87211D01*
X64823Y87590D01*
X63750Y87804D01*
X62677Y87590D01*
X61767Y86983D01*
X61160Y86073D01*
X60946Y85000D01*
X61160Y83927D01*
X61767Y83017D01*
X62677Y82410D01*
X63750Y82196D01*
X64823Y82410D01*
X65733Y83017D01*
X66340Y83927D01*
X66610Y84039D01*
X67177Y83660D01*
X68250Y83446D01*
X69323Y83660D01*
X70233Y84267D01*
X70840Y85177D01*
X71054Y86250D01*
X70840Y87323D01*
X70233Y88233D01*
X69323Y88840D01*
X68250Y89054D01*
D02*
G37*
G36*
X204500Y92804D02*
X203427Y92591D01*
X202517Y91983D01*
X201910Y91073D01*
X201696Y90000D01*
X201910Y88927D01*
X202517Y88018D01*
X203427Y87410D01*
X204500Y87196D01*
X205573Y87410D01*
X206483Y88018D01*
X207090Y88927D01*
X207304Y90000D01*
X207090Y91073D01*
X206483Y91983D01*
X205573Y92591D01*
X204500Y92804D01*
D02*
G37*
G36*
X396667Y92804D02*
X395594Y92590D01*
X394685Y91983D01*
X394077Y91073D01*
X393863Y90000D01*
X394077Y88927D01*
X394685Y88017D01*
X395594Y87410D01*
X396667Y87196D01*
X397740Y87410D01*
X398650Y88017D01*
X399258Y88927D01*
X399471Y90000D01*
X399258Y91073D01*
X398650Y91983D01*
X397740Y92590D01*
X396667Y92804D01*
D02*
G37*
G36*
X356667D02*
X355594Y92590D01*
X354685Y91983D01*
X354077Y91073D01*
X353863Y90000D01*
X354077Y88927D01*
X354685Y88017D01*
X355594Y87410D01*
X356667Y87196D01*
X357740Y87410D01*
X358650Y88017D01*
X359258Y88927D01*
X359471Y90000D01*
X359258Y91073D01*
X358650Y91983D01*
X357740Y92590D01*
X356667Y92804D01*
D02*
G37*
G36*
X180000Y91419D02*
X178927Y91205D01*
X178017Y90597D01*
X177409Y89688D01*
X177196Y88615D01*
X177409Y87542D01*
X178017Y86632D01*
X178927Y86024D01*
X180000Y85811D01*
X181073Y86024D01*
X181982Y86632D01*
X182590Y87542D01*
X182804Y88615D01*
X182590Y89688D01*
X181982Y90597D01*
X181073Y91205D01*
X180000Y91419D01*
D02*
G37*
G36*
X706250Y90554D02*
X705177Y90340D01*
X704268Y89733D01*
X703660Y88823D01*
X703446Y87750D01*
X703660Y86677D01*
X704268Y85767D01*
X705177Y85160D01*
X706250Y84946D01*
X707323Y85160D01*
X708233Y85767D01*
X708840Y86677D01*
X709054Y87750D01*
X708840Y88823D01*
X708233Y89733D01*
X707323Y90340D01*
X706250Y90554D01*
D02*
G37*
G36*
X612187Y95147D02*
X605937D01*
Y89897D01*
X610885D01*
X611266Y88628D01*
X610675Y88233D01*
X610067Y87323D01*
X609854Y86250D01*
X610067Y85177D01*
X610675Y84267D01*
X611585Y83659D01*
X612658Y83446D01*
X613731Y83659D01*
X614640Y84267D01*
X615248Y85177D01*
X615462Y86250D01*
X615248Y87323D01*
X614640Y88233D01*
X613731Y88840D01*
X613035Y88979D01*
X612431Y89634D01*
X612187Y90255D01*
Y95147D01*
D02*
G37*
G36*
X98750Y88554D02*
X97677Y88340D01*
X96767Y87733D01*
X96160Y86823D01*
X95946Y85750D01*
X96160Y84677D01*
X96767Y83767D01*
X97677Y83160D01*
X98750Y82946D01*
X99823Y83160D01*
X100733Y83767D01*
X101340Y84677D01*
X101554Y85750D01*
X101340Y86823D01*
X100733Y87733D01*
X99823Y88340D01*
X98750Y88554D01*
D02*
G37*
G36*
X381667Y87804D02*
X380594Y87590D01*
X379685Y86983D01*
X379077Y86073D01*
X378863Y85000D01*
X379077Y83927D01*
X379685Y83017D01*
X380594Y82410D01*
X381667Y82196D01*
X382740Y82410D01*
X383650Y83017D01*
X384258Y83927D01*
X384471Y85000D01*
X384258Y86073D01*
X383650Y86983D01*
X382740Y87590D01*
X381667Y87804D01*
D02*
G37*
G36*
X486862Y87784D02*
X485789Y87571D01*
X484880Y86963D01*
X484272Y86053D01*
X484058Y84980D01*
X484272Y83907D01*
X484880Y82998D01*
X485789Y82390D01*
X486862Y82176D01*
X487935Y82390D01*
X488845Y82998D01*
X489453Y83907D01*
X489666Y84980D01*
X489453Y86053D01*
X488845Y86963D01*
X487935Y87571D01*
X486862Y87784D01*
D02*
G37*
G36*
X458408Y86804D02*
X457335Y86590D01*
X456425Y85983D01*
X455817Y85073D01*
X455604Y84000D01*
X455817Y82927D01*
X456425Y82017D01*
X457335Y81410D01*
X458408Y81196D01*
X459481Y81410D01*
X460390Y82017D01*
X460998Y82927D01*
X461212Y84000D01*
X460998Y85073D01*
X460390Y85983D01*
X459481Y86590D01*
X458408Y86804D01*
D02*
G37*
G36*
X465158Y85304D02*
X464085Y85090D01*
X463175Y84483D01*
X462567Y83573D01*
X462354Y82500D01*
X462567Y81427D01*
X463175Y80517D01*
X464085Y79910D01*
X465158Y79696D01*
X466231Y79910D01*
X467140Y80517D01*
X467748Y81427D01*
X467962Y82500D01*
X467748Y83573D01*
X467140Y84483D01*
X466231Y85090D01*
X465158Y85304D01*
D02*
G37*
G36*
X150250Y84804D02*
X149177Y84590D01*
X148267Y83983D01*
X147660Y83073D01*
X147446Y82000D01*
X147660Y80927D01*
X148267Y80017D01*
X149177Y79410D01*
X150250Y79196D01*
X151323Y79410D01*
X152233Y80017D01*
X152840Y80927D01*
X153054Y82000D01*
X152840Y83073D01*
X152233Y83983D01*
X151323Y84590D01*
X150250Y84804D01*
D02*
G37*
G36*
X668237Y92750D02*
X668237Y78000D01*
X679272Y78000D01*
X679657Y76730D01*
X679425Y76575D01*
X678999Y75937D01*
X677981Y75090D01*
X676908Y75304D01*
X675835Y75090D01*
X674925Y74482D01*
X674317Y73573D01*
X674104Y72500D01*
X674317Y71427D01*
X674925Y70517D01*
X675118Y70388D01*
Y68861D01*
X674925Y68732D01*
X674317Y67823D01*
X674104Y66750D01*
X674317Y65677D01*
X674925Y64767D01*
X675835Y64159D01*
X676222Y64082D01*
X676946Y63746D01*
X677144Y62702D01*
X677104Y62500D01*
X677317Y61427D01*
X677925Y60517D01*
X678835Y59910D01*
X679908Y59696D01*
X680981Y59910D01*
X681890Y60517D01*
X682498Y61427D01*
X682711Y62500D01*
X682498Y63573D01*
X681890Y64483D01*
X680981Y65090D01*
X680593Y65167D01*
X679870Y65504D01*
X679671Y66547D01*
X679712Y66750D01*
X679498Y67823D01*
X678890Y68732D01*
X678698Y68861D01*
Y70388D01*
X678891Y70517D01*
X679316Y71155D01*
X680335Y72002D01*
X681408Y71788D01*
X682481Y72002D01*
X683390Y72610D01*
X683998Y73519D01*
X684212Y74592D01*
X683998Y75665D01*
X683390Y76575D01*
X683158Y76730D01*
X683543Y78000D01*
X685408D01*
X685408Y92750D01*
X668237Y92750D01*
D02*
G37*
G36*
X605550Y80004D02*
X604477Y79790D01*
X603567Y79183D01*
X602960Y78273D01*
X602746Y77200D01*
X602500Y76900D01*
X594558Y76900D01*
X594558Y59400D01*
X615359Y59400D01*
X615359Y76900D01*
X608600Y76900D01*
X608354Y77200D01*
X608140Y78273D01*
X607533Y79183D01*
X606623Y79790D01*
X605550Y80004D01*
D02*
G37*
G36*
X290000Y81804D02*
X288927Y81590D01*
X288017Y80983D01*
X287410Y80073D01*
X287196Y79000D01*
X287410Y77927D01*
X288017Y77017D01*
X288927Y76410D01*
X290000Y76196D01*
X291073Y76410D01*
X291983Y77017D01*
X292590Y77927D01*
X292804Y79000D01*
X292590Y80073D01*
X291983Y80983D01*
X291073Y81590D01*
X290000Y81804D01*
D02*
G37*
G36*
X297375Y81179D02*
X296302Y80965D01*
X295392Y80358D01*
X294785Y79448D01*
X294571Y78375D01*
X294785Y77302D01*
X295392Y76392D01*
X296302Y75785D01*
X297375Y75571D01*
X298448Y75785D01*
X299358Y76392D01*
X299965Y77302D01*
X300179Y78375D01*
X299965Y79448D01*
X299358Y80358D01*
X298448Y80965D01*
X297375Y81179D01*
D02*
G37*
G36*
X190450Y80804D02*
X189377Y80590D01*
X188467Y79983D01*
X187860Y79073D01*
X187646Y78000D01*
X187860Y76927D01*
X188467Y76017D01*
X189377Y75410D01*
X190450Y75196D01*
X191523Y75410D01*
X192433Y76017D01*
X193040Y76927D01*
X193254Y78000D01*
X193040Y79073D01*
X192433Y79983D01*
X191523Y80590D01*
X190450Y80804D01*
D02*
G37*
G36*
X74750Y80554D02*
X73677Y80340D01*
X72767Y79733D01*
X72160Y78823D01*
X71946Y77750D01*
X72160Y76677D01*
X72767Y75767D01*
X73677Y75160D01*
X74750Y74946D01*
X75823Y75160D01*
X76733Y75767D01*
X77340Y76677D01*
X77554Y77750D01*
X77340Y78823D01*
X76733Y79733D01*
X75823Y80340D01*
X74750Y80554D01*
D02*
G37*
G36*
X255250Y80304D02*
X254177Y80090D01*
X253267Y79483D01*
X252660Y78573D01*
X252446Y77500D01*
X252660Y76427D01*
X253267Y75517D01*
X254177Y74910D01*
X255250Y74696D01*
X256323Y74910D01*
X257233Y75517D01*
X257840Y76427D01*
X258054Y77500D01*
X257840Y78573D01*
X257233Y79483D01*
X256323Y80090D01*
X255250Y80304D01*
D02*
G37*
G36*
X45500Y75054D02*
X44427Y74840D01*
X44204Y74691D01*
X43250Y74333D01*
X42296Y74691D01*
X42073Y74840D01*
X41000Y75054D01*
X39927Y74840D01*
X39704Y74691D01*
X38750Y74333D01*
X37796Y74691D01*
X37573Y74840D01*
X36500Y75054D01*
X35427Y74840D01*
X34517Y74233D01*
X33910Y73323D01*
X32823Y72590D01*
X31750Y72804D01*
X30677Y72590D01*
X29767Y71983D01*
X29160Y71073D01*
X28946Y70000D01*
X29160Y68927D01*
X29767Y68017D01*
X30677Y67410D01*
X31750Y67196D01*
X32823Y67410D01*
X33733Y68017D01*
X34340Y68927D01*
X35427Y69660D01*
X36500Y69446D01*
X37573Y69660D01*
X37796Y69809D01*
X38750Y70167D01*
X39704Y69809D01*
X39927Y69660D01*
X41000Y69446D01*
X42073Y69660D01*
X42296Y69809D01*
X43250Y70167D01*
X44204Y69809D01*
X44427Y69660D01*
X45500Y69446D01*
X46573Y69660D01*
X47483Y70267D01*
X48090Y71177D01*
X48304Y72250D01*
X48090Y73323D01*
X47483Y74233D01*
X46573Y74840D01*
X45500Y75054D01*
D02*
G37*
G36*
X198500Y78304D02*
X197427Y78090D01*
X196517Y77483D01*
X195910Y76573D01*
X195696Y75500D01*
X195910Y74427D01*
X196517Y73517D01*
X197427Y72910D01*
X198500Y72696D01*
X199573Y72910D01*
X200483Y73517D01*
X201588Y72886D01*
X201927Y72660D01*
X203000Y72446D01*
X204073Y72660D01*
X204983Y73267D01*
X205590Y74177D01*
X205804Y75250D01*
X205590Y76323D01*
X204983Y77233D01*
X204073Y77840D01*
X203000Y78054D01*
X201927Y77840D01*
X201017Y77233D01*
X199912Y77864D01*
X199573Y78090D01*
X198500Y78304D01*
D02*
G37*
G36*
X483532Y77794D02*
X482459Y77580D01*
X481550Y76973D01*
X480942Y76063D01*
X480728Y74990D01*
X480942Y73917D01*
X481550Y73007D01*
X482459Y72400D01*
X483532Y72186D01*
X484605Y72400D01*
X485515Y73007D01*
X486123Y73917D01*
X486336Y74990D01*
X486123Y76063D01*
X485515Y76973D01*
X484605Y77580D01*
X483532Y77794D01*
D02*
G37*
G36*
X5000Y79804D02*
X3927Y79590D01*
X3017Y78983D01*
X2410Y78073D01*
X2196Y77000D01*
X2410Y75927D01*
X3017Y75017D01*
Y74733D01*
X2410Y73823D01*
X2196Y72750D01*
X2410Y71677D01*
X3017Y70767D01*
X3927Y70160D01*
X5000Y69946D01*
X6073Y70160D01*
X6983Y70767D01*
X7590Y71677D01*
X7804Y72750D01*
X7590Y73823D01*
X6983Y74733D01*
Y75017D01*
X7590Y75927D01*
X7804Y77000D01*
X7590Y78073D01*
X6983Y78983D01*
X6073Y79590D01*
X5000Y79804D01*
D02*
G37*
G36*
X-2750Y74804D02*
X-3823Y74590D01*
X-4733Y73983D01*
X-5340Y73073D01*
X-5554Y72000D01*
X-5340Y70927D01*
X-4733Y70017D01*
X-3823Y69410D01*
X-2750Y69196D01*
X-1677Y69410D01*
X-767Y70017D01*
X-160Y70927D01*
X54Y72000D01*
X-160Y73073D01*
X-767Y73983D01*
X-1677Y74590D01*
X-2750Y74804D01*
D02*
G37*
G36*
X500182Y74464D02*
X499109Y74250D01*
X498200Y73643D01*
X497592Y72733D01*
X497379Y71660D01*
X497592Y70587D01*
X498200Y69678D01*
X499109Y69070D01*
X500182Y68856D01*
X501255Y69070D01*
X502165Y69678D01*
X502773Y70587D01*
X502986Y71660D01*
X502773Y72733D01*
X502165Y73643D01*
X501255Y74250D01*
X500182Y74464D01*
D02*
G37*
G36*
X92250Y74054D02*
X91177Y73840D01*
X90268Y73232D01*
X89660Y72323D01*
X89446Y71250D01*
X89660Y70177D01*
X90268Y69267D01*
X91177Y68659D01*
X92250Y68446D01*
X93323Y68659D01*
X94233Y69267D01*
X94841Y70177D01*
X95054Y71250D01*
X94841Y72323D01*
X94233Y73232D01*
X93323Y73840D01*
X92250Y74054D01*
D02*
G37*
G36*
X12000Y82304D02*
X10927Y82090D01*
X10017Y81483D01*
X9410Y80573D01*
X9196Y79500D01*
X9410Y78427D01*
X10017Y77517D01*
Y77233D01*
X9410Y76323D01*
X9196Y75250D01*
X9410Y74177D01*
X10017Y73267D01*
Y72983D01*
X9410Y72073D01*
X9196Y71000D01*
X9410Y69927D01*
X10017Y69017D01*
X10927Y68410D01*
X12000Y68196D01*
X13073Y68410D01*
X13983Y69017D01*
X14590Y69927D01*
X14804Y71000D01*
X14590Y72073D01*
X13983Y72983D01*
Y73267D01*
X14590Y74177D01*
X14804Y75250D01*
X14590Y76323D01*
X13983Y77233D01*
Y77517D01*
X14590Y78427D01*
X14804Y79500D01*
X14590Y80573D01*
X13983Y81483D01*
X13073Y82090D01*
X12000Y82304D01*
D02*
G37*
G36*
X182750Y73554D02*
X181677Y73340D01*
X180767Y72733D01*
X180160Y71823D01*
X179946Y70750D01*
X180160Y69677D01*
X180767Y68767D01*
X181677Y68160D01*
X182750Y67946D01*
X183823Y68160D01*
X184733Y68767D01*
X185340Y69677D01*
X185554Y70750D01*
X185340Y71823D01*
X184733Y72733D01*
X183823Y73340D01*
X182750Y73554D01*
D02*
G37*
G36*
X358408Y69054D02*
X357335Y68840D01*
X356425Y68233D01*
X355817Y67323D01*
X355722Y66842D01*
X354658Y67054D01*
X353585Y66840D01*
X352675Y66233D01*
X352067Y65323D01*
X351854Y64250D01*
X352067Y63177D01*
X352675Y62267D01*
X353585Y61659D01*
X354658Y61446D01*
X355731Y61659D01*
X356640Y62267D01*
X357248Y63177D01*
X357344Y63658D01*
X358408Y63446D01*
X359481Y63660D01*
X360390Y64267D01*
X360998Y65177D01*
X361212Y66250D01*
X360998Y67323D01*
X360390Y68233D01*
X359481Y68840D01*
X358408Y69054D01*
D02*
G37*
G36*
X322658Y67304D02*
X321585Y67091D01*
X321425Y66984D01*
X320454Y66576D01*
X319482Y66984D01*
X319323Y67090D01*
X318250Y67304D01*
X317177Y67090D01*
X316267Y66483D01*
X315660Y65573D01*
X315446Y64500D01*
X315660Y63427D01*
X316267Y62517D01*
X317177Y61910D01*
X318250Y61696D01*
X319323Y61910D01*
X319482Y62016D01*
X320454Y62424D01*
X321425Y62016D01*
X321585Y61910D01*
X322658Y61696D01*
X323731Y61910D01*
X324640Y62517D01*
X325248Y63427D01*
X325462Y64500D01*
X325248Y65573D01*
X324640Y66483D01*
X323731Y67091D01*
X322658Y67304D01*
D02*
G37*
G36*
X458000Y71804D02*
X456927Y71590D01*
X456017Y70983D01*
X455410Y70073D01*
X455196Y69000D01*
X455410Y67927D01*
X456017Y67017D01*
X456927Y66410D01*
X458000Y66196D01*
X459073Y66410D01*
X459983Y67017D01*
X460590Y67927D01*
X460804Y69000D01*
X460590Y70073D01*
X459983Y70983D01*
X459073Y71590D01*
X458000Y71804D01*
D02*
G37*
G36*
X130875Y72804D02*
X129802Y72590D01*
X128892Y71982D01*
X128285Y71073D01*
X128071Y70000D01*
X128285Y68927D01*
X128892Y68017D01*
X129802Y67409D01*
X130875Y67196D01*
X131948Y67409D01*
X133137Y66963D01*
X133267Y66767D01*
X134177Y66160D01*
X135250Y65946D01*
X136323Y66160D01*
X137233Y66767D01*
X137840Y67677D01*
X138054Y68750D01*
X137840Y69823D01*
X137233Y70733D01*
X136323Y71340D01*
X135250Y71554D01*
X134177Y71340D01*
X132858Y71982D01*
X131948Y72590D01*
X130875Y72804D01*
D02*
G37*
G36*
X533483Y74464D02*
X532410Y74250D01*
X531500Y73643D01*
X530892Y72733D01*
X530679Y71660D01*
X530892Y70587D01*
X531500Y69677D01*
X532410Y69070D01*
X533483Y68856D01*
X534009Y68330D01*
X534222Y67257D01*
X534830Y66347D01*
X535740Y65740D01*
X536813Y65526D01*
X537886Y65740D01*
X538795Y66347D01*
X539403Y67257D01*
X539617Y68330D01*
X539403Y69403D01*
X538795Y70313D01*
X537886Y70921D01*
X536813Y71134D01*
X536287Y71660D01*
X536073Y72733D01*
X535465Y73643D01*
X534556Y74250D01*
X533483Y74464D01*
D02*
G37*
G36*
X100500Y71054D02*
X99427Y70840D01*
X98517Y70233D01*
X97910Y69323D01*
X97696Y68250D01*
X97910Y67177D01*
X98517Y66267D01*
X99427Y65660D01*
X100500Y65446D01*
X101573Y65660D01*
X102483Y66267D01*
X103090Y67177D01*
X103304Y68250D01*
X103090Y69323D01*
X102483Y70233D01*
X101573Y70840D01*
X100500Y71054D01*
D02*
G37*
G36*
X120500Y70304D02*
X119427Y70090D01*
X118517Y69482D01*
X117910Y68573D01*
X117696Y67500D01*
X117910Y66427D01*
X118517Y65517D01*
X119427Y64910D01*
X120500Y64696D01*
X121573Y64910D01*
X122483Y65517D01*
X123090Y66427D01*
X123304Y67500D01*
X123090Y68573D01*
X122483Y69482D01*
X121573Y70090D01*
X120500Y70304D01*
D02*
G37*
G36*
X372000Y68804D02*
X370927Y68590D01*
X370017Y67983D01*
X369410Y67073D01*
X369196Y66000D01*
X369410Y64927D01*
X370017Y64017D01*
X370927Y63410D01*
X372000Y63196D01*
X373073Y63410D01*
X373983Y64017D01*
X374590Y64927D01*
X374804Y66000D01*
X374590Y67073D01*
X373983Y67983D01*
X373073Y68590D01*
X372000Y68804D01*
D02*
G37*
G36*
X60500Y63804D02*
X59427Y63590D01*
X58517Y62983D01*
X57983D01*
X57073Y63590D01*
X56000Y63804D01*
X54927Y63590D01*
X54017Y62983D01*
X53410Y62073D01*
X53196Y61000D01*
X53410Y59927D01*
X53559Y59704D01*
X53917Y58750D01*
X53559Y57796D01*
X53410Y57573D01*
X53196Y56500D01*
X53410Y55427D01*
X54017Y54517D01*
X54927Y53910D01*
X56000Y53696D01*
X57073Y53910D01*
X57983Y54517D01*
X58517D01*
X59427Y53910D01*
X60500Y53696D01*
X61573Y53910D01*
X62483Y54517D01*
X63090Y55427D01*
X63304Y56500D01*
X63090Y57573D01*
X62941Y57796D01*
X62583Y58750D01*
X62941Y59704D01*
X63090Y59927D01*
X63304Y61000D01*
X63090Y62073D01*
X62483Y62983D01*
X61573Y63590D01*
X60500Y63804D01*
D02*
G37*
G36*
X503512Y64474D02*
X502439Y64260D01*
X501530Y63653D01*
X500922Y62743D01*
X500839Y62326D01*
X500830Y62280D01*
X499535D01*
X499526Y62326D01*
X499443Y62743D01*
X498835Y63653D01*
X497925Y64260D01*
X496852Y64474D01*
X495779Y64260D01*
X494870Y63653D01*
X494262Y62743D01*
X494049Y61670D01*
X494262Y60597D01*
X494870Y59687D01*
X495779Y59080D01*
X496852Y58866D01*
X497925Y59080D01*
X498835Y59687D01*
X499443Y60597D01*
X499526Y61013D01*
X499535Y61060D01*
X500830D01*
X500839Y61014D01*
X500922Y60597D01*
X501530Y59687D01*
X502439Y59080D01*
X503512Y58866D01*
X504585Y59080D01*
X505495Y59687D01*
X506103Y60597D01*
X506316Y61670D01*
X506103Y62743D01*
X505495Y63653D01*
X504585Y64260D01*
X503512Y64474D01*
D02*
G37*
G36*
X510173Y71134D02*
X509100Y70921D01*
X508190Y70313D01*
X507582Y69403D01*
X507369Y68330D01*
X507582Y67257D01*
X508190Y66347D01*
X509100Y65740D01*
X510173Y65526D01*
X510699Y65000D01*
X510912Y63927D01*
X511520Y63017D01*
X512430Y62410D01*
X513503Y62196D01*
X514576Y62410D01*
X515485Y63017D01*
X516093Y63927D01*
X516306Y65000D01*
X516093Y66073D01*
X515485Y66983D01*
X514576Y67590D01*
X513503Y67804D01*
X512976Y68330D01*
X512763Y69403D01*
X512155Y70313D01*
X511245Y70921D01*
X510173Y71134D01*
D02*
G37*
G36*
X204250Y66804D02*
X203177Y66590D01*
X202267Y65983D01*
X201660Y65073D01*
X201446Y64000D01*
X201660Y62927D01*
X202267Y62017D01*
X203177Y61410D01*
X204250Y61196D01*
X205323Y61410D01*
X206233Y62017D01*
X206840Y62927D01*
X207054Y64000D01*
X206840Y65073D01*
X206233Y65983D01*
X205323Y66590D01*
X204250Y66804D01*
D02*
G37*
G36*
X78500Y66054D02*
X77427Y65840D01*
X76517Y65233D01*
X75910Y64323D01*
X75696Y63250D01*
X75910Y62177D01*
X76517Y61267D01*
X77427Y60660D01*
X78500Y60446D01*
X79573Y60660D01*
X80483Y61267D01*
X81090Y62177D01*
X81304Y63250D01*
X81090Y64323D01*
X80483Y65233D01*
X79573Y65840D01*
X78500Y66054D01*
D02*
G37*
G36*
X708853Y65600D02*
X703603D01*
Y59350D01*
X708853D01*
Y65600D01*
D02*
G37*
G36*
X268250Y64804D02*
X267177Y64590D01*
X266267Y63983D01*
X265660Y63073D01*
X265446Y62000D01*
X265660Y60927D01*
X266267Y60017D01*
X267177Y59410D01*
X268250Y59196D01*
X269323Y59410D01*
X270233Y60017D01*
X270840Y60927D01*
X271054Y62000D01*
X270840Y63073D01*
X270233Y63983D01*
X269323Y64590D01*
X268250Y64804D01*
D02*
G37*
G36*
X187500Y64054D02*
X186427Y63840D01*
X185517Y63232D01*
X184910Y62323D01*
X184696Y61250D01*
X184910Y60177D01*
X185517Y59267D01*
X186427Y58660D01*
X187500Y58446D01*
X188573Y58660D01*
X189483Y59267D01*
X190091Y60177D01*
X190304Y61250D01*
X190091Y62323D01*
X189483Y63232D01*
X188573Y63840D01*
X187500Y64054D01*
D02*
G37*
G36*
X126250Y63304D02*
X125177Y63090D01*
X124267Y62483D01*
X123660Y61573D01*
X123446Y60500D01*
X123660Y59427D01*
X124267Y58517D01*
X125177Y57909D01*
X126250Y57696D01*
X127323Y57909D01*
X128233Y58517D01*
X128840Y59427D01*
X129054Y60500D01*
X128840Y61573D01*
X128233Y62483D01*
X127323Y63090D01*
X126250Y63304D01*
D02*
G37*
G36*
X312000Y62554D02*
X310927Y62340D01*
X310017Y61733D01*
X309410Y60823D01*
X309196Y59750D01*
X309410Y58677D01*
X310017Y57767D01*
X310927Y57160D01*
X312000Y56946D01*
X313073Y57160D01*
X313983Y57767D01*
X314590Y58677D01*
X314804Y59750D01*
X314590Y60823D01*
X313983Y61733D01*
X313073Y62340D01*
X312000Y62554D01*
D02*
G37*
G36*
X216250Y61304D02*
X215177Y61090D01*
X214267Y60483D01*
X213660Y59573D01*
X213446Y58500D01*
X213660Y57427D01*
X214267Y56517D01*
X215177Y55910D01*
X216250Y55696D01*
X217323Y55910D01*
X218233Y56517D01*
X218840Y57427D01*
X219054Y58500D01*
X218840Y59573D01*
X218233Y60483D01*
X217323Y61090D01*
X216250Y61304D01*
D02*
G37*
G36*
X144500D02*
X143427Y61090D01*
X142517Y60483D01*
X141910Y59573D01*
X141696Y58500D01*
X141910Y57427D01*
X142517Y56517D01*
X143427Y55910D01*
X144500Y55696D01*
X145573Y55910D01*
X146483Y56517D01*
X147091Y57427D01*
X147304Y58500D01*
X147091Y59573D01*
X146483Y60483D01*
X145573Y61090D01*
X144500Y61304D01*
D02*
G37*
G36*
X570113Y64474D02*
X569040Y64260D01*
X568130Y63653D01*
X567522Y62743D01*
X567309Y61670D01*
X567522Y60597D01*
X568130Y59687D01*
X569040Y59080D01*
X570113Y58866D01*
X570639Y58340D01*
X570852Y57267D01*
X571460Y56357D01*
X572370Y55750D01*
X573443Y55536D01*
X574516Y55750D01*
X575425Y56357D01*
X576033Y57267D01*
X576247Y58340D01*
X576033Y59413D01*
X575425Y60323D01*
X574516Y60930D01*
X573443Y61144D01*
X572917Y61670D01*
X572703Y62743D01*
X572095Y63653D01*
X571186Y64260D01*
X570113Y64474D01*
D02*
G37*
G36*
X294250Y60054D02*
X293177Y59840D01*
X292267Y59233D01*
X291660Y58323D01*
X291446Y57250D01*
X291660Y56177D01*
X292267Y55267D01*
X293177Y54660D01*
X294250Y54446D01*
X295323Y54660D01*
X296233Y55267D01*
X296840Y56177D01*
X297054Y57250D01*
X296840Y58323D01*
X296233Y59233D01*
X295323Y59840D01*
X294250Y60054D01*
D02*
G37*
G36*
X432250Y55054D02*
X431177Y54840D01*
X430267Y54233D01*
X429733D01*
X428823Y54840D01*
X427750Y55054D01*
X426677Y54840D01*
X425767Y54233D01*
X425160Y53323D01*
X424946Y52250D01*
X425160Y51177D01*
X425767Y50267D01*
X426677Y49660D01*
X427750Y49446D01*
X428823Y49660D01*
X429733Y50267D01*
X430267D01*
X431177Y49660D01*
X432250Y49446D01*
X433323Y49660D01*
X434233Y50267D01*
X434840Y51177D01*
X435054Y52250D01*
X434840Y53323D01*
X434233Y54233D01*
X433323Y54840D01*
X432250Y55054D01*
D02*
G37*
G36*
X721100Y56804D02*
X720027Y56590D01*
X719117Y55983D01*
X718510Y55073D01*
X718296Y54000D01*
X718510Y52927D01*
X719117Y52017D01*
X720027Y51410D01*
X721100Y51196D01*
X722173Y51410D01*
X723083Y52017D01*
X723690Y52927D01*
X723904Y54000D01*
X723690Y55073D01*
X723083Y55983D01*
X722173Y56590D01*
X721100Y56804D01*
D02*
G37*
G36*
X674908Y55304D02*
X673835Y55090D01*
X672925Y54483D01*
X672317Y53573D01*
X672104Y52500D01*
X672317Y51427D01*
X672925Y50517D01*
X673835Y49910D01*
X674908Y49696D01*
X675981Y49910D01*
X676890Y50517D01*
X677498Y51427D01*
X677711Y52500D01*
X677498Y53573D01*
X676890Y54483D01*
X675981Y55090D01*
X674908Y55304D01*
D02*
G37*
G36*
X579757Y53898D02*
X573507D01*
Y48647D01*
X579757D01*
Y53898D01*
D02*
G37*
G36*
X569808D02*
X563558D01*
Y48647D01*
X569808D01*
Y53898D01*
D02*
G37*
G36*
X708853Y54600D02*
X703603D01*
Y48350D01*
X708853D01*
Y54600D01*
D02*
G37*
G36*
X751750Y53804D02*
X750677Y53590D01*
X749767Y52983D01*
X749160Y52073D01*
X748946Y51000D01*
X749160Y49927D01*
X749767Y49017D01*
X750677Y48410D01*
X751750Y48196D01*
X752823Y48410D01*
X753733Y49017D01*
X754341Y49927D01*
X754554Y51000D01*
X754341Y52073D01*
X753733Y52983D01*
X752823Y53590D01*
X751750Y53804D01*
D02*
G37*
G36*
X353250Y53304D02*
X352177Y53090D01*
X351267Y52483D01*
X350660Y51573D01*
X350446Y50500D01*
X350660Y49427D01*
X350902Y49064D01*
X350190Y48228D01*
X350018Y48101D01*
X349000Y48304D01*
X347927Y48090D01*
X347017Y47483D01*
X346410Y46573D01*
X346196Y45500D01*
X346410Y44427D01*
X347017Y43517D01*
X347927Y42910D01*
X349000Y42696D01*
X350073Y42910D01*
X350983Y43517D01*
X351590Y44427D01*
X351804Y45500D01*
X351590Y46573D01*
X351348Y46936D01*
X352060Y47772D01*
X352232Y47899D01*
X353250Y47696D01*
X354323Y47910D01*
X355233Y48517D01*
X355840Y49427D01*
X356054Y50500D01*
X355840Y51573D01*
X355233Y52483D01*
X354323Y53090D01*
X353250Y53304D01*
D02*
G37*
G36*
X553463Y61144D02*
X552390Y60930D01*
X551480Y60323D01*
X550872Y59413D01*
X550659Y58340D01*
X550133Y57814D01*
X549060Y57600D01*
X548150Y56993D01*
X547542Y56083D01*
X547329Y55010D01*
X547542Y53937D01*
X548150Y53027D01*
X549060Y52420D01*
X550133Y52206D01*
X551206Y52420D01*
X552115Y53027D01*
X552240Y53214D01*
X553510Y52829D01*
Y48100D01*
X558760D01*
Y54350D01*
X554100D01*
X554003Y54405D01*
X553884Y55620D01*
X554536Y55750D01*
X555445Y56357D01*
X556053Y57267D01*
X556267Y58340D01*
X556053Y59413D01*
X555445Y60323D01*
X554536Y60930D01*
X553463Y61144D01*
D02*
G37*
G36*
X584510Y54350D02*
Y48100D01*
X590778Y48100D01*
Y54350D01*
X584510Y54350D01*
D02*
G37*
G36*
X179500Y53054D02*
X178427Y52840D01*
X177517Y52233D01*
X176910Y51323D01*
X176696Y50250D01*
X176910Y49177D01*
X177517Y48267D01*
X178427Y47660D01*
X179500Y47446D01*
X180573Y47660D01*
X181483Y48267D01*
X182090Y49177D01*
X182304Y50250D01*
X182090Y51323D01*
X181483Y52233D01*
X180573Y52840D01*
X179500Y53054D01*
D02*
G37*
G36*
X261750Y51804D02*
X260677Y51590D01*
X259767Y50983D01*
X259160Y50073D01*
X258946Y49000D01*
X259160Y47927D01*
X259767Y47017D01*
X260677Y46410D01*
X261750Y46196D01*
X262823Y46410D01*
X263733Y47017D01*
X264340Y47927D01*
X264554Y49000D01*
X264340Y50073D01*
X263733Y50983D01*
X262823Y51590D01*
X261750Y51804D01*
D02*
G37*
G36*
X141250Y51804D02*
X140177Y51590D01*
X139267Y50983D01*
X138660Y50073D01*
X138446Y49000D01*
X138660Y47927D01*
X139267Y47017D01*
X140177Y46410D01*
X141250Y46196D01*
X142323Y46410D01*
X143233Y47017D01*
X143840Y47927D01*
X144054Y49000D01*
X143840Y50073D01*
X143233Y50983D01*
X142323Y51590D01*
X141250Y51804D01*
D02*
G37*
G36*
X163750Y49804D02*
X162677Y49590D01*
X161767Y48983D01*
X161159Y48073D01*
X160946Y47000D01*
X161159Y45927D01*
X161767Y45017D01*
X162677Y44410D01*
X163750Y44196D01*
X164823Y44410D01*
X165733Y45017D01*
X166340Y45927D01*
X166554Y47000D01*
X166340Y48073D01*
X165733Y48983D01*
X164823Y49590D01*
X163750Y49804D01*
D02*
G37*
G36*
X430500Y48304D02*
X429427Y48090D01*
X428517Y47483D01*
X427910Y46573D01*
X427696Y45500D01*
X427910Y44427D01*
X428517Y43517D01*
X429427Y42910D01*
X430500Y42696D01*
X431573Y42910D01*
X432483Y43517D01*
X433090Y44427D01*
X433304Y45500D01*
X433090Y46573D01*
X432483Y47483D01*
X431573Y48090D01*
X430500Y48304D01*
D02*
G37*
G36*
X579757Y43898D02*
X573507D01*
Y38647D01*
X579757D01*
Y43898D01*
D02*
G37*
G36*
X569808D02*
X563558D01*
Y38647D01*
X569808D01*
Y43898D01*
D02*
G37*
G36*
X708853Y44600D02*
X703603D01*
Y38350D01*
X708853D01*
Y44600D01*
D02*
G37*
G36*
X558760Y44400D02*
X553510D01*
Y38150D01*
X558760D01*
Y44400D01*
D02*
G37*
G36*
X584510Y44400D02*
Y38150D01*
X590778Y38150D01*
Y44400D01*
X584510Y44400D01*
D02*
G37*
G36*
X470454Y43350D02*
X469381Y43137D01*
X468471Y42529D01*
X467863Y41619D01*
X467650Y40546D01*
X467863Y39473D01*
X468471Y38563D01*
X469381Y37956D01*
X470454Y37742D01*
X471527Y37956D01*
X472436Y38563D01*
X473044Y39473D01*
X473258Y40546D01*
X473044Y41619D01*
X472436Y42529D01*
X471527Y43137D01*
X470454Y43350D01*
D02*
G37*
G36*
X330125Y41179D02*
X329052Y40965D01*
X328142Y40358D01*
X327535Y39448D01*
X327321Y38375D01*
X327535Y37302D01*
X328142Y36392D01*
X329052Y35785D01*
X330125Y35571D01*
X331198Y35785D01*
X332108Y36392D01*
X332715Y37302D01*
X332929Y38375D01*
X332715Y39448D01*
X332108Y40358D01*
X331198Y40965D01*
X330125Y41179D01*
D02*
G37*
G36*
X62250Y50054D02*
X61177Y49840D01*
X60267Y49233D01*
X59660Y48323D01*
X59446Y47250D01*
X59660Y46177D01*
X60267Y45267D01*
X60734Y44956D01*
X60742Y44935D01*
Y43565D01*
X60734Y43544D01*
X60267Y43233D01*
X59660Y42323D01*
X59446Y41250D01*
X59660Y40177D01*
X60267Y39267D01*
Y38733D01*
X59660Y37823D01*
X59446Y36750D01*
X59475Y36605D01*
X58395Y35525D01*
X58250Y35554D01*
X58105Y35525D01*
X57025Y36605D01*
X57054Y36750D01*
X56840Y37823D01*
X56691Y38046D01*
X56333Y39000D01*
X56691Y39954D01*
X56840Y40177D01*
X57054Y41250D01*
X56840Y42323D01*
X56233Y43233D01*
X55766Y43544D01*
X55758Y43565D01*
Y44935D01*
X55766Y44956D01*
X56233Y45267D01*
X56840Y46177D01*
X57054Y47250D01*
X56840Y48323D01*
X56233Y49233D01*
X55323Y49840D01*
X54250Y50054D01*
X53177Y49840D01*
X52267Y49233D01*
X51660Y48323D01*
X51446Y47250D01*
X51660Y46177D01*
X52267Y45267D01*
X52734Y44956D01*
X52742Y44935D01*
Y43565D01*
X52734Y43544D01*
X52267Y43233D01*
X51660Y42323D01*
X51446Y41250D01*
X51660Y40177D01*
X52267Y39267D01*
Y38733D01*
X51660Y37823D01*
X51446Y36750D01*
X51660Y35677D01*
X52267Y34767D01*
X53177Y34160D01*
X54250Y33946D01*
X54395Y33975D01*
X55475Y32895D01*
X55446Y32750D01*
X55475Y32605D01*
X54395Y31525D01*
X54250Y31554D01*
X53177Y31340D01*
X52267Y30733D01*
X51660Y29823D01*
X51446Y28750D01*
X51660Y27677D01*
X51809Y27454D01*
X52167Y26500D01*
X51809Y25546D01*
X51660Y25323D01*
X51446Y24250D01*
X51660Y23177D01*
X52267Y22267D01*
X52734Y21956D01*
X52742Y21935D01*
Y20565D01*
X52734Y20544D01*
X52267Y20233D01*
X51660Y19323D01*
X51446Y18250D01*
X51660Y17177D01*
X52267Y16267D01*
X53177Y15660D01*
X54250Y15446D01*
X55323Y15660D01*
X56233Y16267D01*
X56840Y17177D01*
X57054Y18250D01*
X56840Y19323D01*
X56233Y20233D01*
X55766Y20544D01*
X55758Y20565D01*
Y21935D01*
X55766Y21956D01*
X56233Y22267D01*
X56840Y23177D01*
X57054Y24250D01*
X56840Y25323D01*
X56691Y25546D01*
X56333Y26500D01*
X56691Y27454D01*
X56840Y27677D01*
X57054Y28750D01*
X58178Y29282D01*
X58322D01*
X59446Y28750D01*
X59660Y27677D01*
X60267Y26767D01*
Y26233D01*
X59660Y25323D01*
X59446Y24250D01*
X59660Y23177D01*
X60267Y22267D01*
X60734Y21956D01*
X60742Y21935D01*
Y20565D01*
X60734Y20544D01*
X60267Y20233D01*
X59660Y19323D01*
X59446Y18250D01*
X59660Y17177D01*
X60267Y16267D01*
X61177Y15660D01*
X62250Y15446D01*
X63323Y15660D01*
X64233Y16267D01*
X64840Y17177D01*
X65054Y18250D01*
X64840Y19323D01*
X64233Y20233D01*
X63766Y20544D01*
X63758Y20565D01*
Y21935D01*
X63766Y21956D01*
X64233Y22267D01*
X64840Y23177D01*
X65054Y24250D01*
X64840Y25323D01*
X64233Y26233D01*
Y26767D01*
X64840Y27677D01*
X65054Y28750D01*
X64840Y29823D01*
X64233Y30733D01*
X63323Y31340D01*
X62250Y31554D01*
X62105Y31525D01*
X61025Y32605D01*
X61054Y32750D01*
X61025Y32895D01*
X62105Y33975D01*
X62250Y33946D01*
X63323Y34160D01*
X64233Y34767D01*
X64840Y35677D01*
X65054Y36750D01*
X64840Y37823D01*
X64233Y38733D01*
Y39267D01*
X64840Y40177D01*
X65054Y41250D01*
X64840Y42323D01*
X64233Y43233D01*
X63766Y43544D01*
X63758Y43565D01*
Y44935D01*
X63766Y44956D01*
X64233Y45267D01*
X64840Y46177D01*
X65054Y47250D01*
X64840Y48323D01*
X64233Y49233D01*
X63323Y49840D01*
X62250Y50054D01*
D02*
G37*
G36*
X345000Y40804D02*
X343927Y40590D01*
X343017Y39983D01*
X342410Y39073D01*
X342196Y38000D01*
X342410Y36927D01*
X343017Y36017D01*
X343927Y35410D01*
X345000Y35196D01*
X346073Y35410D01*
X346983Y36017D01*
X347590Y36927D01*
X347804Y38000D01*
X347590Y39073D01*
X346983Y39983D01*
X346073Y40590D01*
X345000Y40804D01*
D02*
G37*
G36*
X85500Y45304D02*
X84427Y45090D01*
X83517Y44483D01*
X82910Y43573D01*
X82696Y42500D01*
X82910Y41427D01*
X83517Y40517D01*
X83174Y39219D01*
X82910Y38823D01*
X82696Y37750D01*
X82910Y36677D01*
X83517Y35767D01*
X84427Y35160D01*
X85500Y34946D01*
X86573Y35160D01*
X87483Y35767D01*
X88090Y36677D01*
X88304Y37750D01*
X88090Y38823D01*
X87826Y39219D01*
X87483Y40517D01*
X88090Y41427D01*
X88304Y42500D01*
X88090Y43573D01*
X87483Y44483D01*
X86573Y45090D01*
X85500Y45304D01*
D02*
G37*
G36*
X97000Y45304D02*
X95927Y45090D01*
X95017Y44483D01*
X94410Y43573D01*
X94196Y42500D01*
X94410Y41427D01*
X94674Y41031D01*
X94914Y40125D01*
X94674Y39219D01*
X94410Y38823D01*
X94196Y37750D01*
X94410Y36677D01*
X95017Y35767D01*
X95927Y35160D01*
X97000Y34946D01*
X98073Y35160D01*
X98983Y35767D01*
X99590Y36677D01*
X99804Y37750D01*
X99590Y38823D01*
X99326Y39219D01*
X99086Y40125D01*
X99326Y41031D01*
X99590Y41427D01*
X99804Y42500D01*
X99590Y43573D01*
X98983Y44483D01*
X98073Y45090D01*
X97000Y45304D01*
D02*
G37*
G36*
X31250Y42554D02*
X30177Y42340D01*
X29267Y41733D01*
X28660Y40823D01*
X28446Y39750D01*
X28660Y38677D01*
X28693Y38626D01*
X29196Y37625D01*
X28693Y36623D01*
X28660Y36573D01*
X28446Y35500D01*
X28660Y34427D01*
X29267Y33517D01*
X30177Y32910D01*
X31250Y32696D01*
X32323Y32910D01*
X33233Y33517D01*
X33840Y34427D01*
X33936Y34908D01*
X35000Y34696D01*
X36073Y34910D01*
X36983Y35517D01*
X37590Y36427D01*
X37804Y37500D01*
X37590Y38573D01*
X36983Y39483D01*
X36073Y40090D01*
X35000Y40304D01*
X33984Y40102D01*
X33840Y40823D01*
X33233Y41733D01*
X32323Y42340D01*
X31250Y42554D01*
D02*
G37*
G36*
X510908Y40054D02*
X509835Y39840D01*
X508925Y39233D01*
X508317Y38323D01*
X508104Y37250D01*
X508317Y36177D01*
X508925Y35267D01*
X509835Y34660D01*
X510908Y34446D01*
X511981Y34660D01*
X512890Y35267D01*
X513498Y36177D01*
X513712Y37250D01*
X513498Y38323D01*
X512890Y39233D01*
X511981Y39840D01*
X510908Y40054D01*
D02*
G37*
G36*
X538750Y39054D02*
X537677Y38840D01*
X536767Y38233D01*
X536160Y37323D01*
X535946Y36250D01*
X536160Y35177D01*
X536767Y34267D01*
X537677Y33660D01*
X538750Y33446D01*
X539823Y33660D01*
X540733Y34267D01*
X541340Y35177D01*
X541554Y36250D01*
X541340Y37323D01*
X540733Y38233D01*
X539823Y38840D01*
X538750Y39054D01*
D02*
G37*
G36*
X724175Y38804D02*
X723102Y38591D01*
X722192Y37983D01*
X721585Y37073D01*
X721371Y36000D01*
X721585Y34927D01*
X722192Y34017D01*
X723102Y33410D01*
X724175Y33196D01*
X725248Y33410D01*
X726158Y34017D01*
X726765Y34927D01*
X726979Y36000D01*
X726765Y37073D01*
X726158Y37983D01*
X725248Y38591D01*
X724175Y38804D01*
D02*
G37*
G36*
X594558Y49950D02*
X594558Y32450D01*
X615359Y32450D01*
X615359Y49950D01*
X594558Y49950D01*
D02*
G37*
G36*
X272750Y37304D02*
X271677Y37090D01*
X270767Y36483D01*
X270160Y35573D01*
X269946Y34500D01*
X270160Y33427D01*
X270767Y32517D01*
X271677Y31910D01*
X272750Y31696D01*
X273823Y31910D01*
X274733Y32517D01*
X275340Y33427D01*
X275554Y34500D01*
X275340Y35573D01*
X274733Y36483D01*
X273823Y37090D01*
X272750Y37304D01*
D02*
G37*
G36*
X106000Y32054D02*
X104927Y31840D01*
X104017Y31233D01*
X103483D01*
X102573Y31840D01*
X101500Y32054D01*
X100427Y31840D01*
X99517Y31233D01*
X98910Y30323D01*
X98696Y29250D01*
X98910Y28177D01*
X99517Y27267D01*
X100427Y26660D01*
X101500Y26446D01*
X102573Y26660D01*
X102796Y26809D01*
X103750Y27167D01*
X104704Y26809D01*
X104927Y26660D01*
X106000Y26446D01*
X107073Y26660D01*
X107983Y27267D01*
X108590Y28177D01*
X108804Y29250D01*
X108590Y30323D01*
X107983Y31233D01*
X107073Y31840D01*
X106000Y32054D01*
D02*
G37*
G36*
X16500Y33054D02*
X15427Y32840D01*
X14517Y32233D01*
X13909Y31323D01*
X12559Y31042D01*
X12500Y31054D01*
X11427Y30840D01*
X10517Y30233D01*
X9909Y29323D01*
X9696Y28250D01*
X9909Y27177D01*
X10517Y26267D01*
X11427Y25660D01*
X12500Y25446D01*
X13614Y24658D01*
X13659Y24427D01*
X14267Y23517D01*
X15177Y22910D01*
X16250Y22696D01*
X17323Y22910D01*
X18233Y23517D01*
X18840Y24427D01*
X19054Y25500D01*
X18840Y26573D01*
X18653Y26854D01*
X18503Y28101D01*
X18749Y28665D01*
X19090Y29177D01*
X19304Y30250D01*
X19090Y31323D01*
X18483Y32233D01*
X17573Y32840D01*
X16500Y33054D01*
D02*
G37*
G36*
X223250Y35304D02*
X222177Y35090D01*
X221267Y34483D01*
X220660Y33573D01*
X220446Y32500D01*
X220660Y31427D01*
X221267Y30517D01*
X222177Y29910D01*
X223250Y29696D01*
X224323Y29910D01*
X225233Y30517D01*
X225840Y31427D01*
X226054Y32500D01*
X225840Y33573D01*
X225233Y34483D01*
X224323Y35090D01*
X223250Y35304D01*
D02*
G37*
G36*
X166500Y32318D02*
X164159Y31852D01*
X162174Y30526D01*
X160848Y28541D01*
X160797Y28286D01*
X159502D01*
X159452Y28541D01*
X158125Y30526D01*
X156141Y31852D01*
X153800Y32318D01*
X151459Y31852D01*
X149474Y30526D01*
X148148Y28541D01*
X148097Y28286D01*
X146802D01*
X146752Y28541D01*
X145426Y30526D01*
X143441Y31852D01*
X141100Y32318D01*
X138759Y31852D01*
X136774Y30526D01*
X135448Y28541D01*
X135397Y28286D01*
X134102D01*
X134052Y28541D01*
X132726Y30526D01*
X130741Y31852D01*
X128400Y32318D01*
X126059Y31852D01*
X124074Y30526D01*
X122748Y28541D01*
X122697Y28286D01*
X121402D01*
X121352Y28541D01*
X120026Y30526D01*
X118041Y31852D01*
X115700Y32318D01*
X113359Y31852D01*
X111374Y30526D01*
X110048Y28541D01*
X109582Y26200D01*
X110048Y23859D01*
X111374Y21874D01*
X113359Y20548D01*
X113614Y20497D01*
Y19203D01*
X113359Y19152D01*
X111374Y17826D01*
X110048Y15841D01*
X109582Y13500D01*
X110048Y11159D01*
X111374Y9174D01*
X113359Y7848D01*
X115700Y7383D01*
X118041Y7848D01*
X120026Y9174D01*
X121352Y11159D01*
X121817Y13500D01*
X121352Y15841D01*
X120026Y17826D01*
X118041Y19152D01*
X117786Y19203D01*
Y20497D01*
X118041Y20548D01*
X120026Y21874D01*
X121352Y23859D01*
X121402Y24114D01*
X122697D01*
X122748Y23859D01*
X124074Y21874D01*
X126059Y20548D01*
X128400Y20082D01*
X130741Y20548D01*
X132726Y21874D01*
X134052Y23859D01*
X134102Y24114D01*
X135397D01*
X135448Y23859D01*
X136774Y21874D01*
X138759Y20548D01*
X141100Y20082D01*
X143441Y20548D01*
X145426Y21874D01*
X146752Y23859D01*
X146802Y24114D01*
X148097D01*
X148148Y23859D01*
X149474Y21874D01*
X151459Y20548D01*
X151713Y20497D01*
Y19203D01*
X151459Y19152D01*
X149474Y17826D01*
X148148Y15841D01*
X147682Y13500D01*
X148148Y11159D01*
X149474Y9174D01*
X151459Y7848D01*
X153800Y7383D01*
X156141Y7848D01*
X158125Y9174D01*
X159452Y11159D01*
X159917Y13500D01*
X159452Y15841D01*
X158125Y17826D01*
X156141Y19152D01*
X155886Y19203D01*
Y20497D01*
X156141Y20548D01*
X158125Y21874D01*
X159452Y23859D01*
X159502Y24114D01*
X160797D01*
X160848Y23859D01*
X162174Y21874D01*
X164159Y20548D01*
X166500Y20082D01*
X168841Y20548D01*
X170826Y21874D01*
X172152Y23859D01*
X172617Y26200D01*
X172152Y28541D01*
X170826Y30526D01*
X168841Y31852D01*
X166500Y32318D01*
D02*
G37*
G36*
X524158Y33304D02*
X523085Y33090D01*
X522175Y32483D01*
X521567Y31573D01*
X521354Y30500D01*
X521567Y29427D01*
X522175Y28517D01*
X523085Y27910D01*
X524158Y27696D01*
X525231Y27910D01*
X526140Y28517D01*
X526748Y29427D01*
X526962Y30500D01*
X526748Y31573D01*
X526140Y32483D01*
X525231Y33090D01*
X524158Y33304D01*
D02*
G37*
G36*
X644158Y31554D02*
X643085Y31340D01*
X642175Y30733D01*
X641567Y29823D01*
X641354Y28750D01*
X641567Y27677D01*
X642175Y26767D01*
X643085Y26160D01*
X644158Y25946D01*
X645231Y26160D01*
X646140Y26767D01*
X646748Y27677D01*
X646962Y28750D01*
X646748Y29823D01*
X646140Y30733D01*
X645231Y31340D01*
X644158Y31554D01*
D02*
G37*
G36*
X434250Y30304D02*
X433177Y30090D01*
X432267Y29483D01*
X431660Y28573D01*
X431446Y27500D01*
X431660Y26427D01*
X432267Y25517D01*
X433177Y24910D01*
X434250Y24696D01*
X435323Y24910D01*
X436233Y25517D01*
X436840Y26427D01*
X437054Y27500D01*
X436840Y28573D01*
X436233Y29483D01*
X435323Y30090D01*
X434250Y30304D01*
D02*
G37*
G36*
X178750Y29554D02*
X177677Y29341D01*
X176767Y28733D01*
X176160Y27823D01*
X175946Y26750D01*
X176160Y25677D01*
X176767Y24767D01*
X177677Y24160D01*
X178750Y23946D01*
X179823Y24160D01*
X180733Y24767D01*
X181341Y25677D01*
X181554Y26750D01*
X181341Y27823D01*
X180733Y28733D01*
X179823Y29341D01*
X178750Y29554D01*
D02*
G37*
G36*
X252000Y29554D02*
X250927Y29340D01*
X250017Y28733D01*
X249410Y27823D01*
X249196Y26750D01*
X249410Y25677D01*
X250017Y24767D01*
X250927Y24160D01*
X252000Y23946D01*
X253073Y24160D01*
X253983Y24767D01*
X254590Y25677D01*
X254804Y26750D01*
X254590Y27823D01*
X253983Y28733D01*
X253073Y29340D01*
X252000Y29554D01*
D02*
G37*
G36*
X500250Y33554D02*
X499177Y33340D01*
X498267Y32733D01*
X497660Y31823D01*
X497446Y30750D01*
X497660Y29677D01*
X496643Y28912D01*
X496375Y28733D01*
X495767Y27823D01*
X495554Y26750D01*
X495767Y25677D01*
X496375Y24767D01*
X497285Y24160D01*
X498358Y23946D01*
X499431Y24160D01*
X500383Y24741D01*
X501335Y24160D01*
X502408Y23946D01*
X503481Y24160D01*
X504390Y24767D01*
X504998Y25677D01*
X505212Y26750D01*
X504998Y27823D01*
X504390Y28733D01*
X503481Y29340D01*
X502935Y29449D01*
X502840Y29677D01*
X503054Y30750D01*
X502840Y31823D01*
X502233Y32733D01*
X501323Y33340D01*
X500250Y33554D01*
D02*
G37*
G36*
X419250Y19554D02*
X418177Y19340D01*
X417954Y19191D01*
X417000Y18833D01*
X416046Y19191D01*
X415823Y19340D01*
X414750Y19554D01*
X413677Y19340D01*
X413454Y19191D01*
X412500Y18833D01*
X411546Y19191D01*
X411323Y19340D01*
X410250Y19554D01*
X409177Y19340D01*
X408267Y18733D01*
X407659Y17823D01*
X407446Y16750D01*
X407659Y15677D01*
X408267Y14767D01*
X409177Y14160D01*
X410250Y13946D01*
X411323Y14160D01*
X411546Y14309D01*
X412500Y14667D01*
X413454Y14309D01*
X413677Y14160D01*
X414750Y13946D01*
X415823Y14160D01*
X416046Y14309D01*
X417000Y14667D01*
X417954Y14309D01*
X418177Y14160D01*
X419250Y13946D01*
X420323Y14160D01*
X421233Y14767D01*
X421840Y15677D01*
X422054Y16750D01*
X421840Y17823D01*
X421233Y18733D01*
X420323Y19340D01*
X419250Y19554D01*
D02*
G37*
G36*
X244250Y23554D02*
X243177Y23340D01*
X242267Y22733D01*
X241660Y21823D01*
X241446Y20750D01*
X241660Y19677D01*
X242267Y18767D01*
X243177Y18160D01*
X244250Y17946D01*
X245323Y18160D01*
X246233Y18767D01*
X246840Y19677D01*
X247054Y20750D01*
X246840Y21823D01*
X246233Y22733D01*
X245323Y23340D01*
X244250Y23554D01*
D02*
G37*
G36*
X710000Y22304D02*
X708927Y22091D01*
X708017Y21483D01*
X707410Y20573D01*
X707196Y19500D01*
X707410Y18427D01*
X708017Y17518D01*
X708927Y16910D01*
X710000Y16696D01*
X711073Y16910D01*
X711983Y17518D01*
X712590Y18427D01*
X712804Y19500D01*
X712590Y20573D01*
X711983Y21483D01*
X711073Y22091D01*
X710000Y22304D01*
D02*
G37*
G36*
X0Y27804D02*
X-1073Y27590D01*
X-1983Y26983D01*
X-2590Y26073D01*
X-4000Y25304D01*
X-5073Y25090D01*
X-5983Y24483D01*
X-6590Y23573D01*
X-6804Y22500D01*
X-6590Y21427D01*
X-5983Y20517D01*
X-5073Y19910D01*
X-4000Y19696D01*
X-2590Y18927D01*
X-1983Y18017D01*
X-1073Y17410D01*
X0Y17196D01*
X1073Y17410D01*
X1983Y18017D01*
X1994Y18034D01*
X3342Y17766D01*
X3410Y17427D01*
X4017Y16517D01*
X4927Y15910D01*
X6000Y15696D01*
X7073Y15910D01*
X7983Y16517D01*
X8590Y17427D01*
X8804Y18500D01*
X8590Y19573D01*
X7983Y20483D01*
X7073Y21091D01*
X6000Y21304D01*
X4927Y21091D01*
X4017Y20483D01*
X4006Y20466D01*
X2658Y20734D01*
X2590Y21073D01*
X2210Y21642D01*
X2068Y22500D01*
X2210Y23358D01*
X2590Y23927D01*
X2804Y25000D01*
X2590Y26073D01*
X1983Y26983D01*
X1073Y27590D01*
X0Y27804D01*
D02*
G37*
G36*
X469550Y20604D02*
X468477Y20390D01*
X467567Y19783D01*
X466960Y18873D01*
X466746Y17800D01*
X466960Y16727D01*
X467567Y15817D01*
X468477Y15209D01*
X469550Y14996D01*
X470623Y15209D01*
X471533Y15817D01*
X472113Y16686D01*
X472326Y16720D01*
X473297Y16681D01*
X473422Y16659D01*
X474017Y15767D01*
X474927Y15160D01*
X476000Y14946D01*
X477073Y15160D01*
X477840Y15672D01*
X479017Y15767D01*
X479927Y15159D01*
X481000Y14946D01*
X482073Y15159D01*
X482983Y15767D01*
X483590Y16677D01*
X483804Y17750D01*
X483590Y18823D01*
X482983Y19733D01*
X482073Y20340D01*
X481000Y20554D01*
X479927Y20340D01*
X479160Y19828D01*
X477983Y19733D01*
X477073Y20340D01*
X476000Y20554D01*
X474927Y20340D01*
X474017Y19733D01*
X473437Y18864D01*
X473224Y18830D01*
X472253Y18868D01*
X472128Y18891D01*
X471533Y19783D01*
X470623Y20390D01*
X469550Y20604D01*
D02*
G37*
G36*
X208154Y20399D02*
X207081Y20186D01*
X206172Y19578D01*
X205564Y18669D01*
X205350Y17596D01*
X205564Y16523D01*
X206172Y15613D01*
X207081Y15005D01*
X208154Y14792D01*
X209227Y15005D01*
X210137Y15613D01*
X210745Y16523D01*
X210958Y17596D01*
X210745Y18669D01*
X210137Y19578D01*
X209227Y20186D01*
X208154Y20399D01*
D02*
G37*
G36*
X662350Y18118D02*
X660009Y17652D01*
X658024Y16326D01*
X656698Y14341D01*
X656647Y14086D01*
X655353D01*
X655302Y14341D01*
X653976Y16326D01*
X651991Y17652D01*
X649650Y18118D01*
X647309Y17652D01*
X645324Y16326D01*
X643998Y14341D01*
X643532Y12000D01*
X643998Y9659D01*
X645324Y7674D01*
X647309Y6348D01*
X649650Y5882D01*
X651991Y6348D01*
X653976Y7674D01*
X655302Y9659D01*
X655353Y9914D01*
X656647D01*
X656698Y9659D01*
X658024Y7674D01*
X660009Y6348D01*
X662350Y5882D01*
X664691Y6348D01*
X666676Y7674D01*
X668002Y9659D01*
X668467Y12000D01*
X668002Y14341D01*
X666676Y16326D01*
X664691Y17652D01*
X662350Y18118D01*
D02*
G37*
G36*
X428750Y18554D02*
X427677Y18341D01*
X426767Y17733D01*
X426160Y16823D01*
X425946Y15750D01*
X426160Y14677D01*
X426767Y13767D01*
X427677Y13160D01*
X428750Y12946D01*
X429823Y13160D01*
X430733Y13767D01*
X431340Y14677D01*
X431554Y15750D01*
X431340Y16823D01*
X430733Y17733D01*
X429823Y18341D01*
X428750Y18554D01*
D02*
G37*
G36*
X15000Y16804D02*
X13927Y16590D01*
X13017Y15983D01*
X12410Y15073D01*
X12196Y14000D01*
X12410Y12927D01*
X13017Y12017D01*
X13927Y11410D01*
X15000Y11196D01*
X16073Y11410D01*
X16983Y12017D01*
X17590Y12927D01*
X17804Y14000D01*
X17590Y15073D01*
X16983Y15983D01*
X16073Y16590D01*
X15000Y16804D01*
D02*
G37*
G36*
X61000Y11804D02*
X59927Y11590D01*
X59017Y10983D01*
X59014Y10977D01*
X57486D01*
X57483Y10983D01*
X56573Y11590D01*
X55500Y11804D01*
X54427Y11590D01*
X53517Y10983D01*
X52910Y10073D01*
X52696Y9000D01*
X52910Y7927D01*
X53517Y7017D01*
X54427Y6410D01*
X55500Y6196D01*
X56573Y6410D01*
X57483Y7017D01*
X57486Y7023D01*
X59014D01*
X59017Y7017D01*
X59927Y6410D01*
X61000Y6196D01*
X62073Y6410D01*
X62983Y7017D01*
X63590Y7927D01*
X63804Y9000D01*
X63590Y10073D01*
X62983Y10983D01*
X62073Y11590D01*
X61000Y11804D01*
D02*
G37*
G36*
X198750Y16304D02*
X197677Y16090D01*
X196767Y15483D01*
X196160Y14573D01*
X195946Y13500D01*
X196160Y12427D01*
X196767Y11517D01*
X197677Y10910D01*
X198750Y10696D01*
X199823Y10910D01*
X200733Y11517D01*
X201340Y12427D01*
X201554Y13500D01*
X201340Y14573D01*
X200733Y15483D01*
X199823Y16090D01*
X198750Y16304D01*
D02*
G37*
G36*
X183000Y20554D02*
X181927Y20340D01*
X181017Y19733D01*
X180410Y18823D01*
X180196Y17750D01*
X180410Y16677D01*
X181017Y15767D01*
Y14483D01*
X180410Y13573D01*
X180196Y12500D01*
X180410Y11427D01*
X181017Y10517D01*
X181927Y9910D01*
X183000Y9696D01*
X184073Y9910D01*
X184983Y10517D01*
X185590Y11427D01*
X185804Y12500D01*
X185590Y13573D01*
X184983Y14483D01*
Y15767D01*
X185590Y16677D01*
X185804Y17750D01*
X185590Y18823D01*
X184983Y19733D01*
X184073Y20340D01*
X183000Y20554D01*
D02*
G37*
G36*
X322360Y23268D02*
X321287Y23055D01*
X320378Y22447D01*
X319770Y21537D01*
X319557Y20464D01*
X319770Y19391D01*
X319869Y19244D01*
X320267Y17983D01*
X319660Y17073D01*
X319446Y16000D01*
X319660Y14927D01*
X320267Y14017D01*
Y13483D01*
X319660Y12573D01*
X319446Y11500D01*
X319660Y10427D01*
X320267Y9517D01*
X321177Y8910D01*
X322250Y8696D01*
X323323Y8910D01*
X324233Y9517D01*
X324840Y10427D01*
X325054Y11500D01*
X324840Y12573D01*
X324233Y13483D01*
Y14017D01*
X324840Y14927D01*
X325054Y16000D01*
X324840Y17073D01*
X324742Y17221D01*
X324343Y18482D01*
X324951Y19391D01*
X325164Y20464D01*
X324951Y21537D01*
X324343Y22447D01*
X323433Y23055D01*
X322360Y23268D01*
D02*
G37*
G36*
X259000Y9054D02*
X257927Y8840D01*
X257704Y8691D01*
X256750Y8333D01*
X255796Y8691D01*
X255573Y8840D01*
X254500Y9054D01*
X253427Y8840D01*
X253204Y8691D01*
X252250Y8333D01*
X251296Y8691D01*
X251073Y8840D01*
X250000Y9054D01*
X248927Y8840D01*
X248017Y8233D01*
X247410Y7323D01*
X247196Y6250D01*
X247410Y5177D01*
X248017Y4267D01*
X248927Y3660D01*
X250000Y3446D01*
X251073Y3660D01*
X251296Y3809D01*
X252250Y4167D01*
X253204Y3809D01*
X253427Y3660D01*
X254500Y3446D01*
X255573Y3660D01*
X255796Y3809D01*
X256750Y4167D01*
X257704Y3809D01*
X257927Y3660D01*
X259000Y3446D01*
X260073Y3660D01*
X260983Y4267D01*
X261590Y5177D01*
X261804Y6250D01*
X261590Y7323D01*
X260983Y8233D01*
X260073Y8840D01*
X259000Y9054D01*
D02*
G37*
G36*
X694775Y12304D02*
X693702Y12091D01*
X692792Y11483D01*
X692185Y10573D01*
X691971Y9500D01*
X692185Y8427D01*
X692792Y7518D01*
X693702Y6910D01*
X694775Y6696D01*
X695848Y6910D01*
X696758Y7518D01*
X697365Y8427D01*
X697579Y9500D01*
X697365Y10573D01*
X696758Y11483D01*
X695848Y12091D01*
X694775Y12304D01*
D02*
G37*
G36*
X364500Y9054D02*
X363427Y8840D01*
X362517Y8233D01*
X361910Y7323D01*
X361696Y6250D01*
X361910Y5177D01*
X362517Y4267D01*
X363427Y3660D01*
X364500Y3446D01*
X365573Y3660D01*
X366483Y4267D01*
X367090Y5177D01*
X367304Y6250D01*
X367090Y7323D01*
X366483Y8233D01*
X365573Y8840D01*
X364500Y9054D01*
D02*
G37*
%LPD*%
D150*
X128400Y13500D02*
D03*
X141100D02*
D03*
X166500D02*
D03*
D157*
X486862Y145455D02*
Y150931D01*
D166*
X688250Y185750D02*
D03*
X382258Y39250D02*
D03*
X573443Y124940D02*
D03*
X411667Y92500D02*
D03*
X390408Y52000D02*
D03*
X335250Y38000D02*
D03*
X341000Y46750D02*
D03*
X197000Y23000D02*
D03*
X666750Y196250D02*
D03*
X163000Y63750D02*
D03*
X268250Y69750D02*
D03*
X288250Y50000D02*
D03*
X229250Y112000D02*
D03*
X278000Y66000D02*
D03*
X255250Y72500D02*
D03*
X230750Y42500D02*
D03*
X274250Y85250D02*
D03*
X209500Y52750D02*
D03*
X158250Y215500D02*
D03*
X177500Y215250D02*
D03*
X124250Y195750D02*
D03*
X235250Y191250D02*
D03*
X293250Y75500D02*
D03*
X74750Y92500D02*
D03*
X652908Y200500D02*
D03*
X714000Y51500D02*
D03*
X714500Y41000D02*
D03*
X698750Y67750D02*
D03*
X258000Y161500D02*
D03*
X287500Y173750D02*
D03*
X235250Y209500D02*
D03*
X262250Y199250D02*
D03*
X-4500Y184250D02*
D03*
X690750Y42750D02*
D03*
X676000D02*
D03*
X649500Y26000D02*
D03*
X702000Y28500D02*
D03*
X-4750Y44000D02*
D03*
X-4000Y160501D02*
D03*
X224750Y213250D02*
D03*
X110000Y204250D02*
D03*
X326000Y165250D02*
D03*
X317500Y159000D02*
D03*
X304500Y181750D02*
D03*
X257890Y186000D02*
D03*
X20750Y97750D02*
D03*
X161600Y140000D02*
D03*
X83750Y79250D02*
D03*
X163250Y188000D02*
D03*
X357500Y186000D02*
D03*
X369250Y6250D02*
D03*
X134750Y126000D02*
D03*
X255500Y104250D02*
D03*
X190250Y23000D02*
D03*
X463750Y69500D02*
D03*
X30750Y106750D02*
D03*
X7500Y198500D02*
D03*
X-1500Y202499D02*
D03*
X2750D02*
D03*
X250Y160501D02*
D03*
X-4000Y142499D02*
D03*
X250D02*
D03*
X-4000Y127501D02*
D03*
X250D02*
D03*
X-4500Y112499D02*
D03*
X-250D02*
D03*
X-4000Y93000D02*
D03*
X-500Y82500D02*
D03*
X250Y65250D02*
D03*
X83000Y70500D02*
D03*
X99000Y73000D02*
D03*
X106250Y107250D02*
D03*
X19250Y129500D02*
D03*
X42250Y139000D02*
D03*
X25500Y140750D02*
D03*
X724175Y48000D02*
D03*
X754825Y15000D02*
D03*
X754825Y33000D02*
D03*
X754825Y39000D02*
D03*
Y57000D02*
D03*
X749750Y62250D02*
D03*
X739500Y80000D02*
D03*
X285250Y28250D02*
D03*
X522250Y213250D02*
D03*
X722587Y72738D02*
D03*
X754825Y163000D02*
D03*
X754825Y181000D02*
D03*
X754825Y187000D02*
D03*
Y205000D02*
D03*
X744750Y211750D02*
D03*
X730000Y207000D02*
D03*
X722750Y189250D02*
D03*
X738000Y174500D02*
D03*
X744500Y146750D02*
D03*
X230750Y19500D02*
D03*
X120000Y75750D02*
D03*
X120750Y52500D02*
D03*
X134500Y53500D02*
D03*
X509250Y7250D02*
D03*
X289200Y183000D02*
D03*
Y191250D02*
D03*
X289450Y199250D02*
D03*
X289200Y207750D02*
D03*
X304500Y206250D02*
D03*
X309750Y104750D02*
D03*
X423408Y48750D02*
D03*
X423500Y44500D02*
D03*
X418750Y46750D02*
D03*
X176250Y176500D02*
D03*
X206250Y159250D02*
D03*
X350000Y3250D02*
D03*
X398500Y5750D02*
D03*
X258250Y22000D02*
D03*
X254500Y37250D02*
D03*
X180250Y111750D02*
D03*
X143750Y142500D02*
D03*
X113500Y124500D02*
D03*
X132250Y153000D02*
D03*
X134500Y142750D02*
D03*
X665000Y97500D02*
D03*
X422750Y187250D02*
D03*
X432000Y194500D02*
D03*
X407500Y209000D02*
D03*
X295500Y107000D02*
D03*
X283250Y100750D02*
D03*
X281000Y92750D02*
D03*
X197050Y83500D02*
D03*
X312500Y38500D02*
D03*
X313750Y28250D02*
D03*
X198250Y150250D02*
D03*
X175500Y153500D02*
D03*
X190250Y153750D02*
D03*
X301750Y63500D02*
D03*
X294000Y39500D02*
D03*
X683250Y42750D02*
D03*
X665000Y47000D02*
D03*
X625158Y85250D02*
D03*
X644158Y76500D02*
D03*
X650908Y91500D02*
D03*
X638658Y94500D02*
D03*
Y101500D02*
D03*
X635158Y98000D02*
D03*
X710000Y24250D02*
D03*
Y14750D02*
D03*
X294250Y61750D02*
D03*
X289296Y12000D02*
D03*
X637565Y200250D02*
D03*
X296635Y146250D02*
D03*
X527250Y183250D02*
D03*
X535000Y201250D02*
D03*
X431750Y19500D02*
D03*
X457500Y18000D02*
D03*
X439500D02*
D03*
X449000Y18250D02*
D03*
X403250Y26500D02*
D03*
X623658Y19250D02*
D03*
X550908Y17000D02*
D03*
X319000Y75500D02*
D03*
X319250Y92250D02*
D03*
X202563Y189119D02*
D03*
X540658Y184500D02*
D03*
X667908Y167250D02*
D03*
X701250Y121500D02*
D03*
X406667Y110000D02*
D03*
X356667Y80000D02*
D03*
X374408Y51250D02*
D03*
X564408Y34250D02*
D03*
X430000Y69250D02*
D03*
X411667Y87000D02*
D03*
X581158Y31750D02*
D03*
X593408Y137250D02*
D03*
X451500Y193000D02*
D03*
X160000Y185000D02*
D03*
X360500Y163250D02*
D03*
X643158Y195750D02*
D03*
X565158Y5250D02*
D03*
X382408Y57500D02*
D03*
X350408Y62000D02*
D03*
X628250Y200250D02*
D03*
X613408Y183250D02*
D03*
X159250Y171250D02*
D03*
X410250Y156250D02*
D03*
X172750Y124600D02*
D03*
X437658Y82500D02*
D03*
X129450Y92750D02*
D03*
X149750Y168250D02*
D03*
X425158Y134000D02*
D03*
X390658Y156725D02*
D03*
X440658Y103250D02*
D03*
X396667Y80000D02*
D03*
X391667Y90000D02*
D03*
X359750Y47250D02*
D03*
X87250Y51500D02*
D03*
X209500Y106750D02*
D03*
X193000Y86000D02*
D03*
X401667Y100000D02*
D03*
Y120000D02*
D03*
X376667Y95000D02*
D03*
X342158Y137500D02*
D03*
X381667Y110000D02*
D03*
X366667Y80000D02*
D03*
X386667Y115000D02*
D03*
X366667Y139750D02*
D03*
X337408Y126750D02*
D03*
X351667Y135000D02*
D03*
X346667Y80250D02*
D03*
X371667Y85000D02*
D03*
X351667Y115000D02*
D03*
X371667Y125000D02*
D03*
X356667Y100000D02*
D03*
X196500Y124500D02*
D03*
X452908Y90750D02*
D03*
X605500Y81750D02*
D03*
X582750Y186000D02*
D03*
X474658Y169500D02*
D03*
X618000Y72750D02*
D03*
X607830Y50000D02*
D03*
X684158Y153250D02*
D03*
X602408Y109000D02*
D03*
X679658Y53000D02*
D03*
X638908Y31500D02*
D03*
X645908Y185000D02*
D03*
X634658Y173250D02*
D03*
X581408Y175000D02*
D03*
X609158Y7250D02*
D03*
X678158Y117250D02*
D03*
X667408Y112250D02*
D03*
X621658Y107750D02*
D03*
X665158Y53000D02*
D03*
X571658Y46250D02*
D03*
X546658Y51250D02*
D03*
X543473Y68330D02*
D03*
X628658Y135000D02*
D03*
X648658Y162000D02*
D03*
X454500Y39000D02*
D03*
X454250Y44250D02*
D03*
X412000Y33750D02*
D03*
X492408Y163750D02*
D03*
X502408Y166250D02*
D03*
X608908Y135500D02*
D03*
X536658Y40500D02*
D03*
X510158Y41750D02*
D03*
X500408Y38750D02*
D03*
X488408Y41250D02*
D03*
X475750D02*
D03*
X579908Y78250D02*
D03*
X533658Y143250D02*
D03*
X583529Y129079D02*
D03*
X561158Y16250D02*
D03*
X696908Y151500D02*
D03*
X658908Y145750D02*
D03*
X674908Y62500D02*
D03*
X665083Y80500D02*
D03*
X645658Y126500D02*
D03*
X650408Y139500D02*
D03*
X629408Y19250D02*
D03*
X660658Y174750D02*
D03*
X634908Y27250D02*
D03*
X649158Y60750D02*
D03*
X638908Y47000D02*
D03*
X576773Y141590D02*
D03*
X523493Y161571D02*
D03*
X480202Y144921D02*
D03*
X467408Y144869D02*
D03*
X560123Y158241D02*
D03*
X500182Y151581D02*
D03*
X516833Y154911D02*
D03*
X563453Y148251D02*
D03*
X540143Y65000D02*
D03*
X486862Y104960D02*
D03*
X483532Y108290D02*
D03*
X476872Y81650D02*
D03*
X520163Y71660D02*
D03*
X506842Y65000D02*
D03*
X500182Y58340D02*
D03*
X573443Y131600D02*
D03*
X48750Y187250D02*
D03*
X59250Y199250D02*
D03*
Y175250D02*
D03*
Y193500D02*
D03*
Y181000D02*
D03*
X26250Y168000D02*
D03*
X21750D02*
D03*
X24000Y206000D02*
D03*
X28750D02*
D03*
X90750Y205500D02*
D03*
X86750D02*
D03*
X95000Y168750D02*
D03*
X90250D02*
D03*
X36000Y62000D02*
D03*
X31250D02*
D03*
X35250Y5000D02*
D03*
X18750Y8250D02*
D03*
X89250Y14000D02*
D03*
X94000D02*
D03*
X92000Y51500D02*
D03*
X58250Y39000D02*
D03*
X58250Y26500D02*
D03*
X58250Y44750D02*
D03*
Y20750D02*
D03*
X68750Y32750D02*
D03*
D167*
X63000Y115500D02*
D03*
Y104500D02*
D03*
X52000Y115500D02*
D03*
X52000Y104500D02*
D03*
X524803Y95000D02*
D03*
Y85000D02*
D03*
Y115000D02*
D03*
Y105000D02*
D03*
Y125000D02*
D03*
Y135000D02*
D03*
X534803Y134900D02*
D03*
Y124900D02*
D03*
Y104900D02*
D03*
Y114900D02*
D03*
Y84900D02*
D03*
Y94900D02*
D03*
X544803Y124900D02*
D03*
Y104900D02*
D03*
Y114900D02*
D03*
Y94900D02*
D03*
X504803D02*
D03*
Y114900D02*
D03*
Y104900D02*
D03*
Y124900D02*
D03*
X514803Y94900D02*
D03*
Y84900D02*
D03*
Y114900D02*
D03*
Y104900D02*
D03*
Y124900D02*
D03*
Y134900D02*
D03*
D168*
X230750Y69500D02*
D03*
X241750D02*
D03*
X230750Y80500D02*
D03*
X241750D02*
D03*
X159750Y90750D02*
D03*
Y101750D02*
D03*
X170750Y90750D02*
D03*
Y101750D02*
D03*
X544803Y134900D02*
D03*
Y84900D02*
D03*
X504803D02*
D03*
Y134900D02*
D03*
M02*
