G04*
G04 #@! TF.GenerationSoftware,Altium Limited,Altium Designer,19.1.6 (110)*
G04*
G04 Layer_Physical_Order=4*
G04 Layer_Color=6736896*
%FSLAX44Y44*%
%MOMM*%
G71*
G01*
G75*
%ADD10C,0.1000*%
%ADD11C,0.2000*%
%ADD12C,0.1500*%
%ADD14C,0.3000*%
%ADD18C,0.2500*%
%ADD150C,1.0000*%
%ADD153C,0.3500*%
%ADD155C,0.4500*%
%ADD156C,0.5000*%
%ADD157C,0.1100*%
%ADD160C,0.4000*%
%ADD161C,0.6000*%
%ADD162C,1.0000*%
%ADD166C,0.3500*%
%ADD167C,0.4000*%
%ADD168C,0.5000*%
%ADD169C,0.8000*%
%ADD170C,1.1000*%
%ADD171C,1.2000*%
G36*
X23256Y217962D02*
X23742Y216788D01*
X10352Y203398D01*
X9876Y202250D01*
Y180672D01*
X4852Y175648D01*
X4741Y175380D01*
X3373Y175364D01*
X2931Y176025D01*
X1275Y177681D01*
X1019Y177852D01*
X872Y178500D01*
X866Y178971D01*
X977Y179347D01*
X1233Y179517D01*
X1840Y180427D01*
X2054Y181500D01*
X1840Y182573D01*
X1233Y183483D01*
X323Y184090D01*
X-750Y184304D01*
X-1823Y184090D01*
X-2733Y183483D01*
X-3340Y182573D01*
X-3554Y181500D01*
X-3360Y180523D01*
X-3361Y180487D01*
X-3364Y180458D01*
X-3387Y180357D01*
X-4108Y179289D01*
X-30461Y179289D01*
Y207211D01*
X2500Y207211D01*
X2599Y207231D01*
X2700Y207221D01*
X3675Y207317D01*
X3962Y207404D01*
X4256Y207462D01*
X6058Y208209D01*
X6720Y208651D01*
X8099Y210030D01*
X8099Y210030D01*
X8541Y210692D01*
X9288Y212494D01*
X9346Y212788D01*
X9433Y213075D01*
X9529Y214050D01*
X9519Y214151D01*
X9539Y214250D01*
Y217962D01*
X23256Y217962D01*
D02*
G37*
G36*
X186974Y217962D02*
X188020Y216395D01*
X189674Y215290D01*
X191625Y214902D01*
X193576Y215290D01*
X195230Y216395D01*
X196276Y217962D01*
X198724D01*
X199770Y216395D01*
X201424Y215290D01*
X203375Y214902D01*
X205326Y215290D01*
X206980Y216395D01*
X208027Y217962D01*
X259241Y217961D01*
X260194Y216691D01*
X260146Y216450D01*
X260359Y215377D01*
X260967Y214467D01*
X261877Y213860D01*
X262619Y213712D01*
X263069Y212778D01*
X263119Y212416D01*
X261522Y210819D01*
X241200D01*
X239834Y210547D01*
X238677Y209773D01*
X235684Y206780D01*
X234541Y206987D01*
X234256Y207149D01*
X233733Y207933D01*
X232823Y208540D01*
X231750Y208754D01*
X230677Y208540D01*
X229767Y207933D01*
X229160Y207023D01*
X228946Y205950D01*
X229160Y204877D01*
X229767Y203967D01*
X230551Y203444D01*
X230713Y203159D01*
X230920Y202016D01*
X225727Y196823D01*
X224953Y195666D01*
X224869Y195245D01*
X195683Y166059D01*
X187750D01*
X186579Y165826D01*
X185587Y165163D01*
X183733Y163309D01*
X161710D01*
X161345Y164232D01*
X161274Y164579D01*
X161840Y165427D01*
X162054Y166500D01*
X161970Y166923D01*
X163648Y168602D01*
X164124Y169750D01*
Y173846D01*
X163648Y174994D01*
X155422Y183221D01*
Y190606D01*
X154946Y191754D01*
X152168Y194532D01*
X152430Y196066D01*
X152732Y196267D01*
X153340Y197177D01*
X153554Y198250D01*
X153340Y199323D01*
X152732Y200233D01*
X151823Y200840D01*
X150750Y201054D01*
X149677Y200840D01*
X148767Y200233D01*
X148565Y199930D01*
X147032Y199668D01*
X141343Y205356D01*
X141869Y206626D01*
X177327D01*
X188943Y195011D01*
X188654Y194224D01*
X188378Y193780D01*
X187427Y193590D01*
X186517Y192983D01*
X186431Y192854D01*
X184945Y192915D01*
X184732Y193232D01*
X183823Y193840D01*
X182750Y194054D01*
X181677Y193840D01*
X180767Y193232D01*
X180159Y192323D01*
X179946Y191250D01*
X180159Y190177D01*
X180767Y189267D01*
X181677Y188659D01*
X182750Y188446D01*
X183823Y188659D01*
X184732Y189267D01*
X184819Y189396D01*
X186305Y189335D01*
X186517Y189017D01*
X187427Y188410D01*
X188500Y188196D01*
X189573Y188410D01*
X190483Y189017D01*
X191090Y189927D01*
X191280Y190878D01*
X191724Y191154D01*
X192511Y191443D01*
X194530Y189424D01*
X194446Y189000D01*
X194660Y187927D01*
X195267Y187017D01*
X196177Y186410D01*
X197250Y186196D01*
X198323Y186410D01*
X199233Y187017D01*
X199840Y187927D01*
X200054Y189000D01*
X199840Y190073D01*
X199233Y190983D01*
X198323Y191590D01*
X197250Y191804D01*
X196826Y191720D01*
X179148Y209398D01*
X178000Y209874D01*
X141173D01*
X140148Y210898D01*
X139000Y211374D01*
X122381D01*
X121763Y212237D01*
X121624Y212644D01*
X121804Y213550D01*
X121590Y214623D01*
X120983Y215533D01*
X120073Y216140D01*
X119000Y216354D01*
X117927Y216140D01*
X117017Y215533D01*
X116410Y214623D01*
X115034Y214216D01*
X112461Y216788D01*
X112947Y217962D01*
X186974Y217962D01*
D02*
G37*
G36*
X388816Y207388D02*
X388290Y206117D01*
X334663D01*
X333765Y207015D01*
X333765Y207015D01*
X333000Y207332D01*
X307304Y207332D01*
X307012Y207212D01*
X306702Y207150D01*
X306641Y207058D01*
X306538Y207015D01*
X306418Y206724D01*
X306242Y206461D01*
X306071Y205599D01*
X305702Y205048D01*
X305151Y204679D01*
X304500Y204550D01*
X303849Y204679D01*
X303298Y205048D01*
X302929Y205599D01*
X302758Y206461D01*
X302582Y206724D01*
X302461Y207015D01*
X302359Y207058D01*
X302297Y207150D01*
X301988Y207212D01*
X301696Y207332D01*
X291505Y207332D01*
X291403Y207290D01*
X291294Y207312D01*
X291031Y207136D01*
X290740Y207015D01*
X290697Y206913D01*
X290605Y206851D01*
X290402Y206548D01*
X289851Y206179D01*
X289200Y206050D01*
X288549Y206179D01*
X287819Y206667D01*
X287558Y206719D01*
X287324Y206845D01*
X286686Y206907D01*
X286632Y206891D01*
X286580Y206913D01*
X286243Y206773D01*
X285893Y206667D01*
X285867Y206617D01*
X285815Y206595D01*
X282375Y203156D01*
X282354Y203104D01*
X282304Y203078D01*
X282198Y202728D01*
X282058Y202391D01*
X280885Y201931D01*
X280427Y201840D01*
X279517Y201233D01*
X279305Y200915D01*
X277819Y200854D01*
X277733Y200983D01*
X276823Y201590D01*
X275750Y201804D01*
X274677Y201590D01*
X273767Y200983D01*
X273160Y200073D01*
X272946Y199000D01*
X273160Y197927D01*
X273767Y197017D01*
X274171Y196748D01*
X274473Y195254D01*
X269125Y189906D01*
X269104Y189854D01*
X269054Y189827D01*
X268948Y189478D01*
X268808Y189141D01*
X267635Y188682D01*
X267177Y188590D01*
X266267Y187983D01*
X266264Y187977D01*
X264736D01*
X264733Y187983D01*
X263823Y188590D01*
X262750Y188804D01*
X261677Y188590D01*
X260767Y187983D01*
X260160Y187073D01*
X259946Y186000D01*
X259968Y185888D01*
X259058Y184775D01*
X258541Y184429D01*
X257890Y184300D01*
X257239Y184429D01*
X256688Y184798D01*
X256199Y185528D01*
X256129Y185575D01*
X256050Y185765D01*
X255948Y185808D01*
X255886Y185900D01*
X255577Y185962D01*
X255285Y186082D01*
X238257D01*
X238113Y186023D01*
X237958Y186040D01*
X237744Y185870D01*
X237491Y185765D01*
X236323Y185340D01*
X235250Y185554D01*
X234177Y185340D01*
X233267Y184732D01*
X233027Y184373D01*
X228750D01*
X227602Y183898D01*
X215852Y172148D01*
X215376Y171000D01*
Y157000D01*
X215852Y155852D01*
X220810Y150894D01*
X220284Y149624D01*
X211723D01*
X211483Y149983D01*
X210573Y150590D01*
X209500Y150804D01*
X208427Y150590D01*
X207517Y149983D01*
X206910Y149073D01*
X206696Y148000D01*
X206879Y147079D01*
X206785Y146749D01*
X206129Y145809D01*
X192267D01*
X188059Y150017D01*
Y158983D01*
X189017Y159941D01*
X196950D01*
X196950Y159941D01*
X198120Y160174D01*
X199113Y160837D01*
X229195Y190919D01*
X229616Y191003D01*
X230773Y191777D01*
X242678Y203681D01*
X263000D01*
X264366Y203953D01*
X265523Y204727D01*
X266841Y206045D01*
X267346Y206000D01*
X268304Y205711D01*
X268768Y205017D01*
X269677Y204410D01*
X270750Y204196D01*
X271823Y204410D01*
X272733Y205017D01*
X273340Y205927D01*
X273554Y207000D01*
X273340Y208073D01*
X273281Y208161D01*
X273960Y209431D01*
X386772D01*
X388816Y207388D01*
D02*
G37*
G36*
X334750Y204500D02*
Y195124D01*
X328750D01*
X328451Y195000D01*
X326750D01*
X299737Y167987D01*
X283064Y167987D01*
X282733Y168483D01*
X281823Y169090D01*
X280750Y169304D01*
X279677Y169090D01*
X278768Y168483D01*
X278450Y168007D01*
X277499Y168011D01*
X277290Y169060D01*
X276683Y169970D01*
X275773Y170578D01*
X274700Y170791D01*
X273627Y170578D01*
X272717Y169970D01*
X272110Y169060D01*
X271896Y167987D01*
X271896Y167987D01*
X271487D01*
X257000Y153500D01*
X225000Y153500D01*
X219500Y159000D01*
X219500Y171000D01*
X226750Y178250D01*
X231000D01*
X233417Y180667D01*
X234177Y180159D01*
X235250Y179946D01*
X236323Y180159D01*
X237233Y180767D01*
X237840Y181677D01*
X238054Y182750D01*
X237840Y183823D01*
X237711Y184016D01*
X238257Y185000D01*
X255285D01*
X255299Y184927D01*
X255907Y184017D01*
X256817Y183410D01*
X257890Y183196D01*
X258963Y183410D01*
X259660Y183875D01*
X260320Y183960D01*
X260980Y183875D01*
X261677Y183410D01*
X262750Y183196D01*
X263823Y183410D01*
X264733Y184017D01*
X264899Y184266D01*
X266101D01*
X266267Y184017D01*
X267177Y183410D01*
X268250Y183196D01*
X269323Y183410D01*
X270233Y184017D01*
X270840Y184927D01*
X271054Y186000D01*
X270840Y187073D01*
X270233Y187983D01*
X269989Y188146D01*
X269891Y189141D01*
X278359Y197609D01*
X279354Y197511D01*
X279517Y197267D01*
X280427Y196660D01*
X281500Y196446D01*
X282573Y196660D01*
X283483Y197267D01*
X284090Y198177D01*
X284304Y199250D01*
X284090Y200323D01*
X283483Y201233D01*
X283239Y201396D01*
X283141Y202391D01*
X286580Y205830D01*
X287218Y205767D01*
X288127Y205160D01*
X289200Y204946D01*
X290273Y205160D01*
X291183Y205767D01*
X291505Y206250D01*
X301696Y206250D01*
X301909Y205177D01*
X302517Y204267D01*
X303427Y203660D01*
X304500Y203446D01*
X305573Y203660D01*
X306483Y204267D01*
X307090Y205177D01*
X307304Y206250D01*
X333000Y206250D01*
X334750Y204500D01*
D02*
G37*
G36*
X42922Y212203D02*
X33235Y202515D01*
X32918Y201750D01*
Y193075D01*
X32939Y193023D01*
X32913Y192958D01*
X32610Y192646D01*
X31938Y192117D01*
X31000Y192304D01*
X29927Y192090D01*
X29876Y192057D01*
X28875Y191554D01*
X27873Y192057D01*
X27823Y192090D01*
X26750Y192304D01*
X25677Y192090D01*
X24767Y191483D01*
X24160Y190573D01*
X23946Y189500D01*
X24160Y188427D01*
X24767Y187517D01*
X25677Y186910D01*
X26750Y186696D01*
X27823Y186910D01*
X27873Y186943D01*
X28875Y187446D01*
X29876Y186943D01*
X29927Y186910D01*
X31000Y186696D01*
X31938Y186883D01*
X32610Y186354D01*
X32913Y186042D01*
X32939Y185977D01*
X32918Y185925D01*
Y177386D01*
X32109Y176798D01*
X31648Y176625D01*
X30750Y176804D01*
X29677Y176590D01*
X29454Y176441D01*
X28500Y176083D01*
X27546Y176441D01*
X27323Y176590D01*
X26250Y176804D01*
X25177Y176590D01*
X24954Y176441D01*
X24000Y176083D01*
X23046Y176441D01*
X22823Y176590D01*
X21750Y176804D01*
X21240Y176702D01*
X20842Y176886D01*
X20147Y177503D01*
X20054Y177663D01*
Y192750D01*
Y197000D01*
X20054Y197000D01*
X19840Y198073D01*
X19233Y198983D01*
X18323Y199590D01*
X17250Y199804D01*
X16394Y199634D01*
X15997Y199841D01*
X15714Y200867D01*
X15814Y201440D01*
X27751Y213376D01*
X42436D01*
X42922Y212203D01*
D02*
G37*
G36*
X469318Y199363D02*
X469196Y198750D01*
X469409Y197677D01*
X470017Y196767D01*
X470927Y196160D01*
X472000Y195946D01*
X473073Y196160D01*
X473983Y196767D01*
X474407Y197403D01*
X475475Y197702D01*
X475892Y197713D01*
X480208Y193397D01*
X480256Y193159D01*
X481582Y191174D01*
X482032Y190874D01*
X482332Y190424D01*
X483104Y189909D01*
Y187342D01*
X483317Y186269D01*
X483925Y185360D01*
X496067Y173217D01*
X496614Y172852D01*
X496968Y172203D01*
X496950Y171320D01*
X496617Y170823D01*
X496404Y169750D01*
X496617Y168677D01*
X497225Y167767D01*
X498135Y167160D01*
X499208Y166946D01*
X500281Y167160D01*
X501190Y167767D01*
X501798Y168677D01*
X502011Y169750D01*
X501798Y170823D01*
X501595Y171126D01*
X501771Y171740D01*
X502229Y172450D01*
X503031Y172610D01*
X503940Y173217D01*
X504548Y174127D01*
X504762Y175200D01*
X504548Y176273D01*
X503940Y177183D01*
X503031Y177790D01*
X501958Y178004D01*
X499974D01*
X499675Y178431D01*
X500336Y179701D01*
X507352D01*
X517605Y169448D01*
X518348Y168951D01*
X518446Y168835D01*
X518733Y167540D01*
X516996Y165804D01*
X510167D01*
X509094Y165590D01*
X508184Y164983D01*
X504246Y161045D01*
X500182D01*
X499109Y160831D01*
X498200Y160223D01*
X497592Y159314D01*
X497467Y158687D01*
X496275Y158191D01*
X496171Y158186D01*
X492986Y161372D01*
X492241Y161869D01*
X491363Y162044D01*
X490858D01*
X483530Y169372D01*
X482786Y169869D01*
X481908Y170044D01*
X480424D01*
X479981Y170340D01*
X478908Y170554D01*
X477835Y170340D01*
X476925Y169733D01*
X476317Y168823D01*
X476104Y167750D01*
X476317Y166677D01*
X476925Y165767D01*
X477835Y165160D01*
X478908Y164946D01*
X479981Y165160D01*
X480424Y165456D01*
X480957D01*
X488286Y158128D01*
X489030Y157631D01*
X489908Y157456D01*
X490413D01*
X492493Y155376D01*
X492121Y153952D01*
X491540Y153563D01*
X490932Y152654D01*
X490718Y151581D01*
X489554Y150927D01*
X489119Y150841D01*
X488210Y150233D01*
X487602Y149324D01*
X487519Y148907D01*
X487510Y148860D01*
X486215D01*
X486206Y148907D01*
X486123Y149324D01*
X485515Y150233D01*
X484605Y150841D01*
X483532Y151054D01*
X482459Y150841D01*
X481550Y150233D01*
X480942Y149324D01*
X480728Y148251D01*
X480942Y147178D01*
X481550Y146268D01*
X482459Y145660D01*
X483532Y145447D01*
X484605Y145660D01*
X485515Y146268D01*
X486123Y147178D01*
X486206Y147594D01*
X486215Y147641D01*
X487510D01*
X487519Y147594D01*
X487602Y147178D01*
X488210Y146268D01*
X489119Y145660D01*
X490192Y145447D01*
X491265Y145660D01*
X492175Y146268D01*
X492783Y147178D01*
X492871Y147619D01*
X493315Y147751D01*
X494170Y147272D01*
X494606Y146814D01*
X494733Y146177D01*
X495230Y145433D01*
X500286Y140378D01*
X501030Y139881D01*
X501908Y139706D01*
X501908Y139706D01*
X510207D01*
X512285Y137628D01*
X513030Y137131D01*
X513908Y136956D01*
X513908Y136956D01*
X534408D01*
X534408Y136956D01*
X535315D01*
X536193Y137131D01*
X536937Y137628D01*
X540276Y140967D01*
X540383Y140988D01*
X541210Y141541D01*
X541530Y141860D01*
X547224Y136166D01*
Y82992D01*
X546561Y82328D01*
X531250D01*
X531250Y82328D01*
X529689Y82018D01*
X528366Y81134D01*
X524116Y76884D01*
X523232Y75561D01*
X522922Y74000D01*
X522922Y74000D01*
Y68260D01*
X522804Y68187D01*
X521652Y67871D01*
X511624Y77899D01*
Y86500D01*
X511148Y87648D01*
X507648Y91148D01*
X506500Y91624D01*
X503423D01*
X496124Y98923D01*
Y104000D01*
X495648Y105148D01*
X493124Y107673D01*
Y138219D01*
X492648Y139367D01*
X489357Y142659D01*
X488209Y143134D01*
X478912D01*
X470624Y151423D01*
Y170346D01*
X470148Y171494D01*
X464244Y177398D01*
X463096Y177874D01*
X448347D01*
X445266Y180954D01*
X445684Y182332D01*
X446073Y182410D01*
X446983Y183017D01*
X447016Y183067D01*
X447887D01*
X448796Y182460D01*
X449869Y182246D01*
X450942Y182460D01*
X451852Y183067D01*
X452459Y183977D01*
X452673Y185050D01*
X452589Y185474D01*
X453602Y186525D01*
X454000Y186446D01*
X455073Y186660D01*
X455983Y187267D01*
X456590Y188177D01*
X456804Y189250D01*
X456590Y190323D01*
X456298Y190760D01*
X456712Y192073D01*
X456780Y192151D01*
X456823Y192160D01*
X457733Y192767D01*
X458340Y193677D01*
X458554Y194750D01*
X458552Y194761D01*
X458921Y195751D01*
X460238Y196409D01*
X460513Y196305D01*
X460948Y195837D01*
X460910Y195323D01*
X460696Y194250D01*
X460910Y193177D01*
X461517Y192267D01*
X462427Y191660D01*
X463500Y191446D01*
X464573Y191660D01*
X465483Y192267D01*
X466090Y193177D01*
X466304Y194250D01*
X466090Y195323D01*
X465483Y196233D01*
X465590Y197677D01*
X465804Y198750D01*
X465682Y199363D01*
X466461Y200632D01*
X468539D01*
X469318Y199363D01*
D02*
G37*
G36*
X74000Y203250D02*
Y130250D01*
X62137Y118387D01*
X61830Y118326D01*
X60837Y117663D01*
X60174Y116671D01*
X59941Y115500D01*
X60174Y114330D01*
X60250Y114216D01*
Y105784D01*
X60174Y105671D01*
X59941Y104500D01*
X60174Y103329D01*
X60250Y103216D01*
X60250Y84500D01*
X46000Y70250D01*
X34504D01*
X34340Y71073D01*
X33733Y71983D01*
X32823Y72590D01*
X31750Y72804D01*
X31500Y73769D01*
X31500Y104095D01*
X31823Y104160D01*
X32733Y104767D01*
X33340Y105677D01*
X33554Y106750D01*
X33340Y107823D01*
X32733Y108733D01*
X31823Y109340D01*
X31500Y109405D01*
Y113750D01*
X37250Y119500D01*
Y143250D01*
X34000Y146500D01*
Y185925D01*
X35000Y186746D01*
X35250Y186696D01*
X36323Y186910D01*
X37233Y187517D01*
X37840Y188427D01*
X38054Y189500D01*
X37840Y190573D01*
X37233Y191483D01*
X36323Y192090D01*
X35250Y192304D01*
X35000Y192254D01*
X34000Y193075D01*
Y201750D01*
X45000Y212750D01*
X64500D01*
X74000Y203250D01*
D02*
G37*
G36*
X571696Y187862D02*
X571585Y187840D01*
X570675Y187233D01*
X570067Y186323D01*
X569854Y185250D01*
X569938Y184827D01*
X568010Y182898D01*
X567534Y181750D01*
Y179000D01*
X568010Y177852D01*
X577284Y168577D01*
Y149743D01*
X577760Y148595D01*
X579034Y147320D01*
Y138254D01*
X577876Y137539D01*
X577764Y137537D01*
X576773Y137734D01*
X576247Y138260D01*
X576033Y139333D01*
X575425Y140243D01*
X574516Y140851D01*
X574053Y140943D01*
Y142238D01*
X574516Y142330D01*
X575425Y142938D01*
X576033Y143847D01*
X576247Y144920D01*
X576033Y145993D01*
X575425Y146903D01*
X574516Y147511D01*
X573443Y147724D01*
X572370Y147511D01*
X571460Y146903D01*
X570852Y145993D01*
X570760Y145530D01*
X569465D01*
X569373Y145993D01*
X568765Y146903D01*
X567856Y147511D01*
X567439Y147594D01*
X567393Y147603D01*
Y148898D01*
X567439Y148907D01*
X567856Y148990D01*
X568765Y149598D01*
X569373Y150507D01*
X569587Y151580D01*
X569373Y152653D01*
X568765Y153563D01*
X567856Y154171D01*
X566783Y154384D01*
X565710Y154171D01*
X564800Y153563D01*
X564192Y152653D01*
X563979Y151580D01*
X564192Y150507D01*
X564800Y149598D01*
X565710Y148990D01*
X566126Y148907D01*
X566173Y148898D01*
Y147603D01*
X566126Y147594D01*
X565710Y147511D01*
X564800Y146903D01*
X564192Y145993D01*
X563979Y144920D01*
X563453Y144394D01*
X562380Y144181D01*
X561470Y143573D01*
X560862Y142663D01*
X560649Y141590D01*
X560862Y140517D01*
X561470Y139608D01*
X562380Y139000D01*
X562843Y138908D01*
Y137613D01*
X562380Y137521D01*
X561470Y136913D01*
X560862Y136003D01*
X560649Y134930D01*
X560862Y133857D01*
X561470Y132948D01*
X562380Y132340D01*
X563453Y132127D01*
X564106Y130962D01*
X564192Y130527D01*
X564800Y129618D01*
X565710Y129010D01*
X566783Y128797D01*
X567309Y128270D01*
X567522Y127197D01*
X568130Y126288D01*
X568512Y126033D01*
X568722Y124621D01*
X568687Y124505D01*
X568288Y124159D01*
X561274D01*
X560299Y123965D01*
X559472Y123413D01*
X556651Y120592D01*
X555381Y121118D01*
Y137855D01*
X555381Y137855D01*
X555071Y139416D01*
X554187Y140739D01*
X554187Y140739D01*
X546486Y148439D01*
Y159793D01*
X547756Y160178D01*
X548150Y159588D01*
X549060Y158980D01*
X550133Y158767D01*
X551206Y158980D01*
X552115Y159588D01*
X552723Y160498D01*
X552937Y161571D01*
X553463Y162097D01*
X554536Y162310D01*
X555445Y162918D01*
X556053Y163828D01*
X556267Y164901D01*
X556053Y165974D01*
X555445Y166883D01*
X554536Y167491D01*
X553463Y167705D01*
X552390Y167491D01*
X551480Y166883D01*
X550872Y165974D01*
X550659Y164901D01*
X550133Y164375D01*
X549060Y164161D01*
X548150Y163553D01*
X547756Y162964D01*
X546486Y163348D01*
Y172360D01*
X552846Y178720D01*
X568524Y163042D01*
X569847Y162158D01*
X571408Y161848D01*
X572968Y162158D01*
X574291Y163042D01*
X575176Y164365D01*
X575486Y165926D01*
X575176Y167487D01*
X574291Y168810D01*
X557168Y185934D01*
X555844Y186818D01*
X554284Y187128D01*
X554283Y187128D01*
X551408D01*
X549847Y186818D01*
X548524Y185934D01*
X548524Y185934D01*
X539524Y176934D01*
X538640Y175611D01*
X538329Y174050D01*
X538329Y174050D01*
Y147500D01*
X538600Y146140D01*
X537605Y145146D01*
X537053Y144319D01*
X537031Y144211D01*
X534364Y141544D01*
X514858D01*
X512780Y143622D01*
X512036Y144119D01*
X511158Y144294D01*
X510887D01*
X510762Y145564D01*
X511245Y145660D01*
X512155Y146268D01*
X512763Y147178D01*
X512855Y147641D01*
X514150D01*
X514242Y147178D01*
X514850Y146268D01*
X515760Y145660D01*
X516833Y145447D01*
X517906Y145660D01*
X518815Y146268D01*
X519423Y147178D01*
X519515Y147641D01*
X520810D01*
X520902Y147178D01*
X521510Y146268D01*
X522420Y145660D01*
X523493Y145447D01*
X524566Y145660D01*
X525475Y146268D01*
X526034Y147104D01*
X526141Y147203D01*
X527467Y147626D01*
X527813Y147395D01*
X528789Y147201D01*
X531908D01*
X532883Y147395D01*
X533710Y147948D01*
X536210Y150448D01*
X536763Y151274D01*
X536957Y152250D01*
Y164500D01*
X536763Y165475D01*
X536210Y166302D01*
X529460Y173052D01*
X528633Y173605D01*
X527658Y173799D01*
X520463D01*
X510210Y184052D01*
X509383Y184605D01*
X508408Y184799D01*
X498793D01*
X498731Y184840D01*
X497658Y185054D01*
X496585Y184840D01*
X495675Y184233D01*
X495316Y183695D01*
X493875Y183341D01*
X489853Y187362D01*
X490379Y188632D01*
X513280D01*
X514176Y187362D01*
X514104Y187000D01*
X514317Y185927D01*
X514925Y185017D01*
X515835Y184410D01*
X516908Y184196D01*
X517981Y184410D01*
X518720Y184904D01*
X519523Y184759D01*
X520090Y184527D01*
X520160Y184177D01*
X520767Y183267D01*
X521677Y182660D01*
X522750Y182446D01*
X523823Y182660D01*
X524733Y183267D01*
X525340Y184177D01*
X525554Y185250D01*
X525542Y185308D01*
X526622Y186388D01*
X527908Y186132D01*
X543750D01*
X546091Y186598D01*
X548076Y187924D01*
X549284Y189132D01*
X571571D01*
X571696Y187862D01*
D02*
G37*
G36*
X430018Y199363D02*
X429946Y199000D01*
X430160Y197927D01*
X430767Y197017D01*
X431677Y196410D01*
X432750Y196196D01*
X433823Y196410D01*
X434733Y197017D01*
X435340Y197927D01*
X435554Y199000D01*
X436366Y199785D01*
X436953Y198683D01*
X436949Y198632D01*
X436910Y198573D01*
X436696Y197500D01*
X436910Y196427D01*
X437517Y195517D01*
X438427Y194909D01*
X439500Y194696D01*
X440573Y194909D01*
X441483Y195517D01*
X441856Y196077D01*
X443126Y195692D01*
Y190173D01*
X440102Y187148D01*
X439626Y186000D01*
Y185425D01*
X438453Y184939D01*
X428744Y194648D01*
X427596Y195124D01*
X415571D01*
X415045Y196394D01*
X419284Y200632D01*
X429122D01*
X430018Y199363D01*
D02*
G37*
G36*
X115226Y206602D02*
X116375Y206126D01*
X132670D01*
X133349Y204856D01*
X133160Y204573D01*
X132946Y203500D01*
X133160Y202427D01*
X133309Y202204D01*
X133767Y200983D01*
X133160Y200073D01*
X132946Y199000D01*
X133160Y197927D01*
X133767Y197017D01*
X134677Y196410D01*
X135750Y196196D01*
X136823Y196410D01*
X137733Y197017D01*
X138340Y197927D01*
X138554Y199000D01*
X138340Y200073D01*
X138191Y200296D01*
X137927Y201000D01*
X138523Y202101D01*
X139804Y202304D01*
X143089Y199019D01*
X142754Y197558D01*
X142267Y197232D01*
X141659Y196323D01*
X141446Y195250D01*
X141659Y194177D01*
X142267Y193267D01*
X143177Y192659D01*
X144250Y192446D01*
X145323Y192659D01*
X146233Y193267D01*
X146558Y193754D01*
X148019Y194088D01*
X152175Y189933D01*
Y184311D01*
X151001Y183825D01*
X146163Y188663D01*
X145170Y189326D01*
X144000Y189559D01*
X144000Y189559D01*
X125767D01*
X122809Y192517D01*
Y193750D01*
X122576Y194921D01*
X121913Y195913D01*
X116413Y201413D01*
X115421Y202076D01*
X114250Y202309D01*
X114250Y202309D01*
X110697D01*
X109526Y202076D01*
X109131Y201812D01*
X108697Y201857D01*
X107697Y202273D01*
X107178Y203528D01*
X106806Y204012D01*
X107323Y205409D01*
X107331Y205415D01*
X108233Y206017D01*
X108840Y206927D01*
X109054Y208000D01*
X108840Y209073D01*
X108233Y209983D01*
X107323Y210590D01*
X106250Y210804D01*
X105177Y210590D01*
X104267Y209983D01*
X103660Y209073D01*
X103446Y208000D01*
X103492Y207767D01*
X102413Y206686D01*
X101500Y206806D01*
X99803Y206583D01*
X98222Y205928D01*
X96864Y204886D01*
X94114Y202136D01*
X93072Y200778D01*
X92417Y199197D01*
X92194Y197500D01*
Y187250D01*
X92417Y185553D01*
X93072Y183972D01*
X93356Y183602D01*
X92730Y182332D01*
X82000D01*
X81235Y182015D01*
X76352Y177133D01*
X75082Y177659D01*
Y203250D01*
X74765Y204015D01*
X66578Y212203D01*
X67064Y213376D01*
X108452D01*
X115226Y206602D01*
D02*
G37*
G36*
X24954Y171559D02*
X25177Y171409D01*
X26250Y171196D01*
X27323Y171409D01*
X27546Y171559D01*
X28500Y171917D01*
X29454Y171559D01*
X29677Y171409D01*
X30750Y171196D01*
X31648Y171375D01*
X32109Y171202D01*
X32918Y170613D01*
Y146500D01*
X33235Y145735D01*
X33235Y145735D01*
X35415Y143554D01*
X34605Y142568D01*
X34274Y142789D01*
X33201Y143003D01*
X32146Y143796D01*
X32090Y144073D01*
X31483Y144983D01*
X30573Y145590D01*
X29500Y145804D01*
X28427Y145590D01*
X27517Y144983D01*
X26910Y144073D01*
X26696Y143000D01*
X26910Y141927D01*
X27517Y141017D01*
X28427Y140410D01*
X29500Y140196D01*
X30611Y139126D01*
X31219Y138216D01*
X32128Y137608D01*
X33201Y137395D01*
X34274Y137608D01*
X34898Y138025D01*
X35891Y137674D01*
X36168Y137462D01*
Y130719D01*
X34898Y130041D01*
X34823Y130090D01*
X33750Y130304D01*
X32677Y130090D01*
X31767Y129483D01*
X31160Y128573D01*
X30946Y127500D01*
X31160Y126427D01*
X31540Y125858D01*
X31682Y125000D01*
X31540Y124142D01*
X31160Y123573D01*
X30946Y122500D01*
X31160Y121427D01*
X31767Y120517D01*
X32677Y119910D01*
X33750Y119696D01*
X34211Y119788D01*
X34837Y118617D01*
X30735Y114515D01*
X30418Y113750D01*
Y109405D01*
X30538Y109113D01*
X30600Y108803D01*
X30692Y108742D01*
X30735Y108639D01*
X31026Y108518D01*
X31289Y108343D01*
X31401Y108321D01*
X31952Y107952D01*
X32321Y107401D01*
X32450Y106750D01*
X32321Y106099D01*
X31952Y105548D01*
X31401Y105179D01*
X31289Y105157D01*
X31026Y104982D01*
X30735Y104861D01*
X30692Y104758D01*
X30600Y104697D01*
X30538Y104387D01*
X30418Y104095D01*
X30418Y75425D01*
X29148Y74899D01*
X26624Y77422D01*
Y121250D01*
X26148Y122398D01*
X21148Y127398D01*
X20000Y127874D01*
X17923D01*
X16124Y129672D01*
Y131691D01*
X16810Y132035D01*
X17394Y132180D01*
X18177Y131657D01*
X19250Y131444D01*
X20323Y131657D01*
X21233Y132265D01*
X21840Y133174D01*
X22054Y134247D01*
X22053Y134251D01*
X22823Y135660D01*
X23733Y136267D01*
X24341Y137177D01*
X24554Y138250D01*
X24341Y139323D01*
X23733Y140233D01*
X22823Y140841D01*
X21750Y141054D01*
X20677Y140841D01*
X19767Y140233D01*
X19160Y139323D01*
X18946Y138250D01*
X18177Y136838D01*
X17394Y136314D01*
X16810Y136459D01*
X16124Y136804D01*
Y166577D01*
X17826Y168280D01*
X18250Y168196D01*
X19323Y168410D01*
X20233Y169017D01*
X20840Y169927D01*
X21054Y171000D01*
X22288Y171303D01*
X22823Y171409D01*
X23046Y171559D01*
X24000Y171917D01*
X24954Y171559D01*
D02*
G37*
G36*
X370458Y190606D02*
X370232Y190561D01*
X369157Y189843D01*
X368439Y188768D01*
X368186Y187500D01*
X368439Y186232D01*
X369157Y185157D01*
X370232Y184439D01*
X371500Y184186D01*
X376878D01*
X399657Y161407D01*
X399969Y161199D01*
X400573Y159831D01*
X400501Y159440D01*
X400363Y158750D01*
X400577Y157677D01*
X401185Y156767D01*
X402094Y156160D01*
X403167Y155946D01*
X404240Y156160D01*
X405150Y156767D01*
X405758Y157677D01*
X405971Y158750D01*
X405888Y159166D01*
X406759Y160436D01*
X409378D01*
X420657Y149157D01*
X421732Y148439D01*
X423000Y148186D01*
X424934D01*
X425059Y146916D01*
X424677Y146840D01*
X423767Y146233D01*
X423160Y145323D01*
X422946Y144250D01*
X422993Y144016D01*
X415761Y136784D01*
X383782D01*
X383650Y136983D01*
X382740Y137590D01*
X381667Y137804D01*
X380594Y137590D01*
X379685Y136983D01*
X379321Y136438D01*
X377882Y136081D01*
X348374Y165590D01*
Y173441D01*
X348538Y173591D01*
X349492Y174119D01*
X350759Y172852D01*
X351907Y172376D01*
X367785D01*
X368567Y171106D01*
X368446Y170500D01*
X368660Y169427D01*
X369267Y168517D01*
X370177Y167910D01*
X371250Y167696D01*
X372323Y167910D01*
X373233Y168517D01*
X374017D01*
X374927Y167910D01*
X376000Y167696D01*
X377073Y167910D01*
X377983Y168517D01*
X378590Y169427D01*
X378804Y170500D01*
X378590Y171573D01*
X377983Y172483D01*
X377073Y173090D01*
X376000Y173304D01*
X375577Y173220D01*
X373648Y175148D01*
X372500Y175624D01*
X352579D01*
X343055Y185148D01*
X341907Y185624D01*
X325172D01*
X324820Y185478D01*
X324101Y186555D01*
X329423Y191876D01*
X370333D01*
X370458Y190606D01*
D02*
G37*
G36*
X4166Y166048D02*
X4376Y165884D01*
Y94500D01*
X4376Y94500D01*
Y94269D01*
X-7898Y81994D01*
X-8374Y80846D01*
Y66000D01*
X-7898Y64852D01*
X-6720Y63674D01*
X-6804Y63250D01*
X-6766Y63059D01*
X-7742Y61789D01*
X-30461D01*
Y163211D01*
X-3500D01*
X-3401Y163231D01*
X-3300Y163221D01*
X-2130Y163336D01*
X-1843Y163423D01*
X-1549Y163481D01*
X614Y164377D01*
X1275Y164819D01*
X2931Y166475D01*
X4166Y166048D01*
D02*
G37*
G36*
X345126Y172827D02*
Y164917D01*
X345602Y163769D01*
X350925Y158446D01*
X350299Y157275D01*
X350158Y157304D01*
X349085Y157090D01*
X349034Y157057D01*
X348033Y156554D01*
X347031Y157057D01*
X346981Y157090D01*
X345908Y157304D01*
X344835Y157090D01*
X344611Y156941D01*
X343658Y156583D01*
X342704Y156941D01*
X342481Y157090D01*
X341408Y157304D01*
X340618Y157147D01*
X339698Y157650D01*
X339348Y157958D01*
Y167357D01*
X339386Y167395D01*
X340491Y169049D01*
X340879Y171000D01*
X340491Y172951D01*
X339386Y174605D01*
X337732Y175710D01*
X335781Y176098D01*
X333830Y175710D01*
X332177Y174605D01*
X330645Y173074D01*
X329540Y171420D01*
X329152Y169469D01*
Y150112D01*
X314998Y135958D01*
X314250Y136056D01*
X290768D01*
X290089Y137326D01*
X290290Y137627D01*
X290504Y138700D01*
X290290Y139773D01*
X289683Y140683D01*
X288773Y141290D01*
X287700Y141504D01*
X286627Y141290D01*
X285717Y140683D01*
X285128Y139801D01*
X285106Y139772D01*
X283717Y139283D01*
X283528Y139428D01*
X281947Y140083D01*
X280250Y140306D01*
X261928D01*
X261402Y141576D01*
X267767Y147941D01*
X274750D01*
X274750Y147941D01*
X275921Y148174D01*
X276913Y148837D01*
X278017Y149941D01*
X306900D01*
X307025Y148671D01*
X306865Y148640D01*
X305956Y148032D01*
X305348Y147122D01*
X305134Y146049D01*
X305348Y144976D01*
X305956Y144066D01*
X306865Y143459D01*
X307410Y142323D01*
X307196Y141250D01*
X307410Y140177D01*
X308017Y139267D01*
X308927Y138660D01*
X310000Y138446D01*
X311073Y138660D01*
X311983Y139267D01*
X312590Y140177D01*
X312804Y141250D01*
X312590Y142323D01*
X311983Y143233D01*
X311073Y143840D01*
X310529Y144976D01*
X310742Y146049D01*
X310529Y147122D01*
X309921Y148032D01*
X309011Y148640D01*
X308852Y148671D01*
X308977Y149941D01*
X321750D01*
X321750Y149941D01*
X322921Y150174D01*
X323913Y150837D01*
X326913Y153837D01*
X327576Y154830D01*
X327809Y156000D01*
X327576Y157170D01*
X326913Y158163D01*
X325920Y158826D01*
X324750Y159059D01*
X323579Y158826D01*
X322587Y158163D01*
X320483Y156059D01*
X307151D01*
X306625Y157329D01*
X327673Y178376D01*
X339577D01*
X345126Y172827D01*
D02*
G37*
G36*
X114194Y148298D02*
Y140000D01*
X114417Y138303D01*
X115072Y136722D01*
X116114Y135364D01*
X118944Y132534D01*
Y123000D01*
X119167Y121303D01*
X119822Y119722D01*
X120864Y118364D01*
X126239Y112989D01*
X127597Y111947D01*
X129178Y111292D01*
X128927Y110082D01*
X127886D01*
X126999Y110223D01*
X126338Y110692D01*
X114519Y122512D01*
X114416Y122554D01*
X114355Y122647D01*
X114045Y122708D01*
X113753Y122829D01*
X113651Y122787D01*
X113542Y122808D01*
X113500Y122800D01*
X112849Y122929D01*
X112298Y123298D01*
X111929Y123849D01*
X111800Y124500D01*
X111808Y124542D01*
X111786Y124651D01*
X111829Y124753D01*
X111708Y125045D01*
X111647Y125355D01*
X111554Y125416D01*
X111512Y125519D01*
X110082Y126948D01*
Y147896D01*
X111352Y148775D01*
X111750Y148696D01*
X112823Y148910D01*
X112924Y148977D01*
X114194Y148298D01*
D02*
G37*
G36*
X581408Y176931D02*
X593076D01*
X593582Y176174D01*
X606832Y162924D01*
X608817Y161598D01*
X611158Y161133D01*
X619466D01*
X620540Y160058D01*
Y147034D01*
X616605Y143099D01*
X605181Y154523D01*
X604023Y155297D01*
X602658Y155569D01*
X585908D01*
X584542Y155297D01*
X583801Y154802D01*
X582542Y155354D01*
X582531Y155365D01*
Y170078D01*
X582056Y171226D01*
X578781Y174501D01*
Y176518D01*
X580042Y177203D01*
X581408Y176931D01*
D02*
G37*
G36*
X108586Y197052D02*
X109526Y196424D01*
X110697Y196191D01*
X112744D01*
X113628Y195188D01*
X113394Y193984D01*
X113017Y193732D01*
X112409Y192822D01*
X112195Y191749D01*
X112409Y190676D01*
X113017Y189767D01*
X113926Y189159D01*
X114999Y188945D01*
X116072Y189159D01*
X117587Y189087D01*
X122337Y184337D01*
X123329Y183674D01*
X124500Y183441D01*
X124500Y183441D01*
X142733D01*
X151441Y174733D01*
Y164500D01*
X151441Y164500D01*
X151674Y163330D01*
X152337Y162337D01*
X153444Y161230D01*
X153164Y159714D01*
X152817Y159483D01*
X152210Y158573D01*
X151996Y157500D01*
X152210Y156427D01*
X152817Y155517D01*
X153727Y154910D01*
X154800Y154696D01*
X155873Y154910D01*
X156783Y155517D01*
X157084Y155969D01*
X158281Y155473D01*
X158246Y155300D01*
X158460Y154227D01*
X159067Y153317D01*
X159977Y152710D01*
X161050Y152496D01*
X162123Y152710D01*
X163033Y153317D01*
X163640Y154227D01*
X163854Y155300D01*
X163730Y155921D01*
X164505Y157191D01*
X181941D01*
Y148750D01*
X181941Y148750D01*
X182174Y147579D01*
X182837Y146587D01*
X187848Y141576D01*
X187322Y140306D01*
X170000D01*
X169308Y140215D01*
X168572Y141399D01*
X168590Y141427D01*
X168804Y142500D01*
X168590Y143573D01*
X167983Y144483D01*
X167073Y145090D01*
X166000Y145304D01*
X164927Y145090D01*
X164017Y144483D01*
X163410Y143573D01*
X163196Y142500D01*
X163410Y141427D01*
X164017Y140517D01*
X164927Y139909D01*
X165194Y139856D01*
X165511Y138498D01*
X165364Y138386D01*
X151159Y124181D01*
X142962D01*
X142095Y125451D01*
X142179Y125875D01*
X141966Y126948D01*
X141358Y127858D01*
X140999Y128098D01*
Y157375D01*
X140523Y158523D01*
X110325Y188721D01*
X109983Y190018D01*
X110590Y190927D01*
X110804Y192000D01*
X110590Y193073D01*
X109983Y193983D01*
X109073Y194590D01*
X108000Y194804D01*
X106927Y194590D01*
X106870Y194553D01*
X106061Y195539D01*
X106136Y195614D01*
X107127Y196906D01*
X107193Y196973D01*
X108517Y197086D01*
X108586Y197052D01*
D02*
G37*
G36*
X653647Y141056D02*
X653852Y140852D01*
X654067Y139573D01*
X653947Y138968D01*
X653854Y138500D01*
X652653Y138030D01*
X652408Y138078D01*
X650847Y137768D01*
X649524Y136884D01*
X648640Y135561D01*
X648329Y134000D01*
Y125097D01*
X614030Y90798D01*
X613443Y90847D01*
X612961Y92161D01*
X636898Y116098D01*
X637374Y117246D01*
Y134028D01*
X637733Y134267D01*
X637924Y134553D01*
X639422Y134598D01*
X639475Y134517D01*
X640385Y133910D01*
X641458Y133696D01*
X642531Y133910D01*
X643441Y134517D01*
X644048Y135427D01*
X644262Y136500D01*
X644178Y136924D01*
X649130Y141876D01*
X652828D01*
X653647Y141056D01*
D02*
G37*
G36*
X445698Y173102D02*
X446846Y172626D01*
X459827D01*
X463030Y169424D01*
X462946Y169000D01*
X463160Y167927D01*
X463767Y167017D01*
X464677Y166410D01*
X465750Y166196D01*
X466106Y166267D01*
X467376Y165368D01*
Y150750D01*
X467852Y149602D01*
X477091Y140363D01*
X478239Y139887D01*
X483088D01*
X483614Y138617D01*
X472546Y127549D01*
X455317D01*
X454638Y128819D01*
X454887Y129191D01*
X455000D01*
X455000Y129191D01*
X456171Y129424D01*
X457163Y130087D01*
X461663Y134587D01*
X461663Y134587D01*
X462326Y135579D01*
X462559Y136750D01*
Y161045D01*
X462326Y162215D01*
X461663Y163207D01*
X461663Y163207D01*
X456571Y168300D01*
X455578Y168963D01*
X454408Y169195D01*
X453237Y168963D01*
X452245Y168300D01*
X451582Y167307D01*
X451349Y166137D01*
X451582Y164966D01*
X452245Y163974D01*
X456441Y159778D01*
Y143869D01*
X455171Y143044D01*
X454658Y143146D01*
X453585Y142933D01*
X452675Y142325D01*
X452067Y141415D01*
X451854Y140342D01*
X450685Y139710D01*
X450085Y139590D01*
X449175Y138983D01*
X448567Y138073D01*
X448553Y138000D01*
X438448Y127895D01*
X437895Y127068D01*
X437701Y126092D01*
Y117250D01*
X437895Y116274D01*
X438448Y115448D01*
X444948Y108948D01*
X445775Y108395D01*
X446750Y108201D01*
X456158D01*
X457133Y108395D01*
X457960Y108948D01*
X459004Y109992D01*
X473290D01*
X474062Y108857D01*
X473490Y107754D01*
X472469Y107551D01*
X471560Y106943D01*
X470952Y106033D01*
X470738Y104960D01*
X470952Y103887D01*
X471560Y102978D01*
X472469Y102370D01*
X473542Y102156D01*
X474615Y102370D01*
X475525Y102978D01*
X476133Y103887D01*
X476225Y104351D01*
X477509D01*
X477525Y104322D01*
X477612Y103887D01*
X478220Y102978D01*
X479129Y102370D01*
X480202Y102156D01*
X481275Y102370D01*
X482185Y102978D01*
X482793Y103887D01*
X483006Y104960D01*
X482793Y106033D01*
X482185Y106943D01*
X481275Y107551D01*
X480812Y107643D01*
Y108938D01*
X481275Y109030D01*
X482185Y109638D01*
X482793Y110548D01*
X482885Y111011D01*
X484180D01*
X484272Y110547D01*
X484880Y109638D01*
X485789Y109030D01*
X486862Y108816D01*
X487935Y109030D01*
X488606Y109478D01*
X489470Y109200D01*
X489876Y108916D01*
Y107000D01*
X490352Y105852D01*
X492876Y103328D01*
Y98250D01*
X493352Y97102D01*
X501602Y88852D01*
X502750Y88376D01*
X505827D01*
X508376Y85828D01*
Y77226D01*
X508852Y76078D01*
X519126Y65804D01*
Y62673D01*
X516328Y59874D01*
X513136D01*
X511988Y59398D01*
X510463Y57874D01*
X505453D01*
X504671Y59052D01*
X504681Y59144D01*
X505495Y59687D01*
X506103Y60597D01*
X506316Y61670D01*
X506103Y62743D01*
X505495Y63653D01*
X504585Y64260D01*
X503512Y64474D01*
X502439Y64260D01*
X501530Y63653D01*
X500922Y62743D01*
X500839Y62326D01*
X500830Y62280D01*
X499535D01*
X499526Y62326D01*
X499443Y62743D01*
X498835Y63653D01*
X497925Y64260D01*
X496852Y64474D01*
X495779Y64260D01*
X494870Y63653D01*
X494262Y62743D01*
X494049Y61670D01*
X494262Y60597D01*
X494870Y59687D01*
X495779Y59080D01*
X496852Y58866D01*
X497925Y59080D01*
X498835Y59687D01*
X499443Y60597D01*
X499526Y61013D01*
X499535Y61060D01*
X500830D01*
X500839Y61014D01*
X500922Y60597D01*
X501530Y59687D01*
X502439Y59080D01*
X502503Y59067D01*
X502563Y58682D01*
X502463Y57780D01*
X501541Y57398D01*
X500856Y56714D01*
X497651D01*
X496503Y56238D01*
X484010Y43744D01*
X483534Y42596D01*
Y34830D01*
X479852Y31148D01*
X479376Y30000D01*
Y19972D01*
X479358Y19960D01*
X477983Y19733D01*
X477073Y20340D01*
X476000Y20554D01*
X475577Y20470D01*
X468827Y27219D01*
Y36914D01*
X470098Y37813D01*
X470454Y37742D01*
X471527Y37956D01*
X472436Y38563D01*
X473044Y39473D01*
X473258Y40546D01*
X473044Y41619D01*
X472436Y42529D01*
X471527Y43137D01*
X471487Y43144D01*
X471069Y44523D01*
X471398Y44852D01*
X471874Y46000D01*
Y82004D01*
X471398Y83152D01*
X467652Y86898D01*
X466504Y87374D01*
X460243D01*
X459095Y86898D01*
X458903Y86705D01*
X458408Y86804D01*
X457335Y86590D01*
X456425Y85983D01*
X455817Y85073D01*
X455604Y84000D01*
X455817Y82927D01*
X456425Y82017D01*
X457335Y81410D01*
X458408Y81196D01*
X459481Y81410D01*
X460390Y82017D01*
X460911Y82797D01*
X461129Y82851D01*
X461394Y82775D01*
X462429Y82121D01*
X462567Y81427D01*
X463175Y80517D01*
X464085Y79910D01*
X465158Y79696D01*
X465581Y79780D01*
X466626Y78735D01*
Y47501D01*
X464056Y44930D01*
X463580Y43782D01*
Y22146D01*
X464056Y20998D01*
X466145Y18909D01*
X466172Y18836D01*
X466101Y18491D01*
X464721Y18075D01*
X449898Y32898D01*
X448750Y33374D01*
X429673D01*
X410648Y52398D01*
X409500Y52874D01*
X398423D01*
X393898Y57398D01*
X392750Y57874D01*
X388750D01*
X387602Y57398D01*
X386077Y55874D01*
X383750D01*
X383750Y55874D01*
X378423D01*
X372329Y61967D01*
X372747Y63345D01*
X373073Y63410D01*
X373983Y64017D01*
X374590Y64927D01*
X374804Y66000D01*
X374590Y67073D01*
X373983Y67983D01*
X373073Y68590D01*
X372000Y68804D01*
X370927Y68590D01*
X370644Y68401D01*
X369374Y69080D01*
Y73250D01*
X368898Y74398D01*
X365398Y77898D01*
X364250Y78374D01*
X344500D01*
X343352Y77898D01*
X334000Y68547D01*
X333015Y69235D01*
X333332Y70000D01*
Y71672D01*
X333348Y71750D01*
Y112250D01*
X332960Y114201D01*
X331855Y115855D01*
X329105Y118605D01*
X329105Y118605D01*
X320585Y127125D01*
X337855Y144395D01*
X338960Y146049D01*
X339348Y148000D01*
Y151041D01*
X339698Y151349D01*
X340618Y151853D01*
X341408Y151696D01*
X342481Y151909D01*
X342704Y152059D01*
X343658Y152417D01*
X344611Y152059D01*
X344835Y151909D01*
X345908Y151696D01*
X346981Y151909D01*
X347031Y151943D01*
X348033Y152446D01*
X349034Y151943D01*
X349085Y151909D01*
X350158Y151696D01*
X351231Y151909D01*
X352140Y152517D01*
X352748Y153427D01*
X352962Y154500D01*
X352933Y154642D01*
X354104Y155267D01*
X378948Y130423D01*
X378863Y130000D01*
X379077Y128927D01*
X379685Y128017D01*
X380594Y127410D01*
X381667Y127196D01*
X382740Y127410D01*
X383650Y128017D01*
X384258Y128927D01*
X384471Y130000D01*
X384258Y131073D01*
X383877Y131642D01*
X383808Y132063D01*
X384637Y133216D01*
X416500D01*
X417183Y133351D01*
X417762Y133738D01*
X425516Y141493D01*
X425750Y141446D01*
X426823Y141660D01*
X427733Y142267D01*
X428340Y143177D01*
X428554Y144250D01*
X428340Y145323D01*
X427733Y146233D01*
X426823Y146840D01*
X426441Y146916D01*
X426566Y148186D01*
X431628D01*
X432644Y147170D01*
Y138800D01*
X432896Y137532D01*
X433615Y136457D01*
X434690Y135739D01*
X435958Y135486D01*
X437226Y135739D01*
X438301Y136457D01*
X439019Y137532D01*
X439271Y138800D01*
Y148542D01*
X439019Y149810D01*
X438301Y150885D01*
X435343Y153843D01*
X434268Y154561D01*
X433000Y154814D01*
X426217D01*
X425854Y155716D01*
X425777Y156084D01*
X426340Y156927D01*
X426554Y158000D01*
X426470Y158423D01*
X428148Y160102D01*
X428624Y161250D01*
Y183027D01*
X428983Y183267D01*
X429590Y184177D01*
X429804Y185250D01*
X429590Y186323D01*
X428983Y187233D01*
X428073Y187840D01*
X427000Y188054D01*
X425927Y187840D01*
X425017Y187233D01*
X424409Y186323D01*
X424196Y185250D01*
X424409Y184177D01*
X425017Y183267D01*
X425376Y183027D01*
Y161922D01*
X424174Y160720D01*
X423750Y160804D01*
X422677Y160590D01*
X421767Y159983D01*
X421460Y159522D01*
X419988Y159198D01*
X413093Y166093D01*
X412178Y166705D01*
X411940Y167069D01*
X411771Y167622D01*
X411745Y168160D01*
X412090Y168677D01*
X412304Y169750D01*
X412090Y170823D01*
X411483Y171733D01*
X410573Y172340D01*
X409500Y172554D01*
X409214Y172497D01*
X408223Y173595D01*
X408304Y174000D01*
X408090Y175073D01*
X407948Y175286D01*
X408863Y176202D01*
X408927Y176160D01*
X410000Y175946D01*
X411073Y176160D01*
X411983Y176767D01*
X412590Y177677D01*
X412804Y178750D01*
X412590Y179823D01*
X411983Y180733D01*
X411073Y181340D01*
X410060Y181542D01*
X410000Y181554D01*
X409054Y182500D01*
X409042Y182560D01*
X408840Y183573D01*
X408233Y184483D01*
X407323Y185090D01*
X406250Y185304D01*
X405082Y185495D01*
X404908Y186233D01*
X404840Y186573D01*
X404233Y187483D01*
X403323Y188090D01*
X402250Y188304D01*
X401177Y188090D01*
X400267Y187483D01*
X399660Y186573D01*
X399446Y185500D01*
X399660Y184427D01*
X400267Y183517D01*
X401177Y182910D01*
X402250Y182696D01*
X403418Y182505D01*
X403592Y181767D01*
X403660Y181427D01*
X404267Y180517D01*
X405177Y179910D01*
X406190Y179708D01*
X406250Y179696D01*
X407196Y178750D01*
X407208Y178690D01*
X407410Y177677D01*
X407552Y177464D01*
X406637Y176548D01*
X406573Y176590D01*
X405500Y176804D01*
X404427Y176590D01*
X403517Y175983D01*
X402910Y175073D01*
X402696Y174000D01*
X402910Y172927D01*
X403517Y172017D01*
Y171900D01*
X403267Y171733D01*
X402660Y170823D01*
X402452Y169780D01*
X402315Y169686D01*
X401267Y169170D01*
X380593Y189843D01*
X379518Y190561D01*
X379292Y190606D01*
X379417Y191876D01*
X426923D01*
X445698Y173102D01*
D02*
G37*
G36*
X137752Y156702D02*
Y128098D01*
X137392Y127858D01*
X136785Y126948D01*
X136571Y125875D01*
X136656Y125451D01*
X135788Y124181D01*
X133591D01*
X132056Y125716D01*
Y135250D01*
X131833Y136947D01*
X131178Y138528D01*
X130136Y139886D01*
X127306Y142716D01*
Y158431D01*
X128250D01*
X129615Y158703D01*
X130773Y159477D01*
X131547Y160634D01*
X131626Y161032D01*
X133004Y161450D01*
X137752Y156702D01*
D02*
G37*
G36*
X612468Y137143D02*
X612290Y136250D01*
Y129534D01*
X606825Y124068D01*
X589841D01*
X589716Y125338D01*
X590073Y125410D01*
X590983Y126017D01*
X591590Y126927D01*
X591804Y128000D01*
X591590Y129073D01*
X590983Y129983D01*
X590073Y130590D01*
X589000Y130804D01*
X587927Y130590D01*
X587017Y129983D01*
X586410Y129073D01*
X586196Y128000D01*
X586410Y126927D01*
X587017Y126017D01*
X587927Y125410D01*
X588284Y125338D01*
X588159Y124068D01*
X582158D01*
X581281Y124788D01*
Y129718D01*
X588806Y137242D01*
X589281Y138391D01*
Y144096D01*
X588806Y145244D01*
X586889Y147161D01*
X587415Y148431D01*
X601180D01*
X612468Y137143D01*
D02*
G37*
G36*
X23376Y118317D02*
Y76750D01*
X23852Y75602D01*
X29030Y70423D01*
X28946Y70000D01*
X28193Y69082D01*
X24750D01*
X24750Y69082D01*
X23985Y68765D01*
X19235Y64015D01*
X18918Y63250D01*
Y40500D01*
X18917Y40500D01*
X19235Y39735D01*
X19235Y39734D01*
X27985Y30985D01*
X28750Y30668D01*
X35500D01*
X35500Y30668D01*
X36265Y30985D01*
X36265Y30985D01*
X50198Y44918D01*
X50675D01*
X50727Y44939D01*
X50781Y44923D01*
X51103Y45095D01*
X51441Y45235D01*
X52635Y45021D01*
X52734Y44956D01*
X52742Y44935D01*
Y43565D01*
X52734Y43544D01*
X52267Y43233D01*
X51660Y42323D01*
X51446Y41250D01*
X51660Y40177D01*
X52267Y39267D01*
Y38733D01*
X51660Y37823D01*
X51446Y36750D01*
X51660Y35677D01*
X52267Y34767D01*
X53177Y34160D01*
X54250Y33946D01*
X54395Y33975D01*
X55475Y32895D01*
X55446Y32750D01*
X55475Y32605D01*
X54395Y31525D01*
X54250Y31554D01*
X53177Y31340D01*
X52267Y30733D01*
X51660Y29823D01*
X51446Y28750D01*
X51660Y27677D01*
X51809Y27454D01*
X52167Y26500D01*
X51809Y25546D01*
X51660Y25323D01*
X51446Y24250D01*
X51660Y23177D01*
X52267Y22267D01*
X52734Y21956D01*
X52742Y21935D01*
Y20565D01*
X52734Y20544D01*
X52267Y20233D01*
X51660Y19323D01*
X51446Y18250D01*
X51660Y17177D01*
X52267Y16267D01*
X53177Y15660D01*
X54250Y15446D01*
X55323Y15660D01*
X56233Y16267D01*
X56840Y17177D01*
X57054Y18250D01*
X56840Y19323D01*
X56233Y20233D01*
X55766Y20544D01*
X55758Y20565D01*
Y21935D01*
X55766Y21956D01*
X56233Y22267D01*
X56840Y23177D01*
X57054Y24250D01*
X56840Y25323D01*
X56691Y25546D01*
X56333Y26500D01*
X56691Y27454D01*
X56840Y27677D01*
X57054Y28750D01*
X58178Y29282D01*
X58322D01*
X59446Y28750D01*
X59660Y27677D01*
X60267Y26767D01*
Y26233D01*
X59660Y25323D01*
X59446Y24250D01*
X59660Y23177D01*
X60267Y22267D01*
X60734Y21956D01*
X60742Y21935D01*
Y20565D01*
X60734Y20544D01*
X60267Y20233D01*
X59660Y19323D01*
X59446Y18250D01*
X59660Y17177D01*
X60267Y16267D01*
X61177Y15660D01*
X62250Y15446D01*
X63323Y15660D01*
X64233Y16267D01*
X64840Y17177D01*
X65054Y18250D01*
X64840Y19323D01*
X64233Y20233D01*
X63766Y20544D01*
X63758Y20565D01*
Y21935D01*
X63766Y21956D01*
X64233Y22267D01*
X64840Y23177D01*
X65054Y24250D01*
X64840Y25323D01*
X64233Y26233D01*
Y26767D01*
X64840Y27677D01*
X65054Y28750D01*
X64840Y29823D01*
X64233Y30733D01*
X63323Y31340D01*
X62250Y31554D01*
X62105Y31525D01*
X61025Y32605D01*
X61054Y32750D01*
X61025Y32895D01*
X62105Y33975D01*
X62250Y33946D01*
X63323Y34160D01*
X64233Y34767D01*
X64840Y35677D01*
X65054Y36750D01*
X64840Y37823D01*
X64233Y38733D01*
Y39267D01*
X64840Y40177D01*
X65054Y41250D01*
X64840Y42323D01*
X64233Y43233D01*
X63766Y43544D01*
X63758Y43565D01*
Y44935D01*
X63766Y44956D01*
X63864Y45021D01*
X65059Y45235D01*
X65397Y45095D01*
X65719Y44923D01*
X65773Y44939D01*
X65825Y44918D01*
X80604D01*
X81036Y43648D01*
X80508Y43243D01*
X79385Y41780D01*
X78680Y40077D01*
X78440Y38250D01*
X78680Y36423D01*
X79385Y34720D01*
X80508Y33258D01*
X81970Y32136D01*
X83673Y31430D01*
X85500Y31190D01*
X98077D01*
X98829Y29920D01*
X98696Y29250D01*
X98910Y28177D01*
X99517Y27267D01*
X100427Y26660D01*
X101500Y26446D01*
X102573Y26660D01*
X102796Y26809D01*
X103750Y27167D01*
X104704Y26809D01*
X104927Y26660D01*
X106000Y26446D01*
X107073Y26660D01*
X107983Y27267D01*
X108590Y28177D01*
X108804Y29250D01*
X108725Y29647D01*
X109538Y30734D01*
X110066Y30727D01*
X110704Y29523D01*
X110048Y28541D01*
X109582Y26200D01*
X110048Y23859D01*
X111374Y21874D01*
X113359Y20548D01*
X113614Y20497D01*
Y19203D01*
X113359Y19152D01*
X111374Y17826D01*
X110048Y15841D01*
X109582Y13500D01*
X110048Y11159D01*
X111374Y9174D01*
X113359Y7848D01*
X115700Y7383D01*
X118041Y7848D01*
X120026Y9174D01*
X121352Y11159D01*
X121817Y13500D01*
X121352Y15841D01*
X120026Y17826D01*
X118041Y19152D01*
X117786Y19203D01*
Y20497D01*
X118041Y20548D01*
X120026Y21874D01*
X121352Y23859D01*
X121402Y24114D01*
X122697D01*
X122748Y23859D01*
X124074Y21874D01*
X126059Y20548D01*
X128400Y20082D01*
X130741Y20548D01*
X132726Y21874D01*
X134052Y23859D01*
X134102Y24114D01*
X135397D01*
X135448Y23859D01*
X136774Y21874D01*
X138759Y20548D01*
X141100Y20082D01*
X143441Y20548D01*
X145426Y21874D01*
X146752Y23859D01*
X146802Y24114D01*
X148097D01*
X148148Y23859D01*
X149474Y21874D01*
X151459Y20548D01*
X151713Y20497D01*
Y19203D01*
X151459Y19152D01*
X149474Y17826D01*
X148148Y15841D01*
X147682Y13500D01*
X148148Y11159D01*
X149474Y9174D01*
X151459Y7848D01*
X153800Y7383D01*
X156141Y7848D01*
X158125Y9174D01*
X159452Y11159D01*
X159917Y13500D01*
X159452Y15841D01*
X158125Y17826D01*
X156141Y19152D01*
X155886Y19203D01*
Y20497D01*
X156141Y20548D01*
X158125Y21874D01*
X159452Y23859D01*
X159502Y24114D01*
X160797D01*
X160848Y23859D01*
X162174Y21874D01*
X164159Y20548D01*
X166500Y20082D01*
X168841Y20548D01*
X170826Y21874D01*
X172152Y23859D01*
X172617Y26200D01*
X172152Y28541D01*
X171231Y29920D01*
X171909Y31190D01*
X199076D01*
X208674Y21591D01*
X208275Y20675D01*
X208084Y20385D01*
X207081Y20186D01*
X206172Y19578D01*
X205564Y18669D01*
X205350Y17596D01*
X205564Y16523D01*
X206172Y15613D01*
X207081Y15005D01*
X208154Y14792D01*
X209227Y15005D01*
X210137Y15613D01*
X210745Y16523D01*
X210944Y17525D01*
X211234Y17716D01*
X212150Y18115D01*
X215023Y15242D01*
X215180Y14048D01*
X215886Y12345D01*
X217008Y10883D01*
X222633Y5257D01*
X224095Y4135D01*
X225798Y3430D01*
X226717Y3309D01*
X226634Y2039D01*
X208026D01*
X206980Y3605D01*
X205326Y4710D01*
X203375Y5098D01*
X201424Y4710D01*
X199770Y3605D01*
X198724Y2039D01*
X196276D01*
X195230Y3605D01*
X193576Y4710D01*
X191625Y5098D01*
X189674Y4710D01*
X188020Y3605D01*
X186974Y2039D01*
X9539Y2039D01*
Y5750D01*
X9519Y5849D01*
X9529Y5950D01*
X9433Y6926D01*
X9346Y7212D01*
X9288Y7506D01*
X8541Y9308D01*
X8099Y9970D01*
X6720Y11349D01*
X6720Y11349D01*
X6058Y11791D01*
X4256Y12538D01*
X3962Y12596D01*
X3675Y12683D01*
X2700Y12779D01*
X2599Y12769D01*
X2500Y12789D01*
X-30461D01*
Y45711D01*
X-3500D01*
X-3401Y45731D01*
X-3300Y45721D01*
X-2130Y45836D01*
X-1843Y45923D01*
X-1549Y45981D01*
X614Y46877D01*
X1275Y47319D01*
X2931Y48975D01*
X3373Y49636D01*
X4269Y51799D01*
X4424Y52579D01*
Y54921D01*
X4269Y55701D01*
X3373Y57864D01*
X2931Y58525D01*
X1275Y60181D01*
X614Y60623D01*
X-588Y61121D01*
X-1410Y62177D01*
X-1196Y63250D01*
X-1410Y64323D01*
X-2017Y65233D01*
X-2927Y65840D01*
X-4000Y66054D01*
X-4123Y66029D01*
X-5126Y66911D01*
Y68753D01*
X-3856Y69432D01*
X-3823Y69410D01*
X-2750Y69196D01*
X-1677Y69410D01*
X-767Y70017D01*
X-160Y70927D01*
X54Y72000D01*
X-160Y73073D01*
X-767Y73983D01*
X-633Y75321D01*
X988Y76942D01*
X2303Y76461D01*
X2410Y75927D01*
X3017Y75017D01*
Y74733D01*
X2410Y73823D01*
X2196Y72750D01*
X2410Y71677D01*
X3017Y70767D01*
X3927Y70160D01*
X5000Y69946D01*
X6073Y70160D01*
X6983Y70767D01*
X7590Y71677D01*
X7804Y72750D01*
X7590Y73823D01*
X6983Y74733D01*
Y75017D01*
X7590Y75927D01*
X7804Y77000D01*
X7590Y78073D01*
X6983Y78983D01*
X6073Y79590D01*
X5234Y79757D01*
X4621Y80498D01*
X4362Y80972D01*
X4374Y81000D01*
Y86578D01*
X9148Y91352D01*
X9438Y92051D01*
X10797Y92488D01*
X15196Y88089D01*
Y81952D01*
X14250Y81586D01*
X13926Y81520D01*
X13073Y82090D01*
X12000Y82304D01*
X10927Y82090D01*
X10017Y81483D01*
X9410Y80573D01*
X9196Y79500D01*
X9410Y78427D01*
X10017Y77517D01*
Y77233D01*
X9410Y76323D01*
X9196Y75250D01*
X9410Y74177D01*
X10017Y73267D01*
Y72983D01*
X9410Y72073D01*
X9196Y71000D01*
X9410Y69927D01*
X10017Y69017D01*
X10927Y68410D01*
X11320Y68331D01*
X11738Y66953D01*
X10267Y65483D01*
X9660Y64573D01*
X9446Y63500D01*
Y40161D01*
X4017Y34733D01*
X3410Y33823D01*
X3196Y32750D01*
Y27452D01*
X2250Y27086D01*
X1926Y27020D01*
X1073Y27590D01*
X0Y27804D01*
X-1073Y27590D01*
X-1983Y26983D01*
X-2590Y26073D01*
X-4000Y25304D01*
X-5073Y25090D01*
X-5983Y24483D01*
X-6590Y23573D01*
X-6804Y22500D01*
X-6590Y21427D01*
X-5983Y20517D01*
X-5073Y19910D01*
X-4000Y19696D01*
X-2590Y18927D01*
X-1983Y18017D01*
X-1073Y17410D01*
X0Y17196D01*
X1073Y17410D01*
X1983Y18017D01*
X1994Y18034D01*
X3342Y17766D01*
X3410Y17427D01*
X4017Y16517D01*
X4927Y15910D01*
X6000Y15696D01*
X7073Y15910D01*
X7983Y16517D01*
X8590Y17427D01*
X8804Y18500D01*
Y26720D01*
X8809Y26722D01*
X10074Y26931D01*
X10517Y26267D01*
X11427Y25660D01*
X12500Y25446D01*
X13614Y24658D01*
X13659Y24427D01*
X14267Y23517D01*
X15177Y22910D01*
X16250Y22696D01*
X17323Y22910D01*
X18233Y23517D01*
X18840Y24427D01*
X19054Y25500D01*
X18840Y26573D01*
X18653Y26854D01*
X18503Y28101D01*
X18749Y28665D01*
X19090Y29177D01*
X19304Y30250D01*
X19090Y31323D01*
X18483Y32233D01*
X17573Y32840D01*
X16500Y33054D01*
X15427Y32840D01*
X14517Y32233D01*
X13909Y31323D01*
X12559Y31042D01*
X12500Y31054D01*
X11427Y30840D01*
X10517Y30233D01*
X10074Y29569D01*
X8809Y29778D01*
X8804Y29780D01*
Y31589D01*
X14233Y37017D01*
X14840Y37927D01*
X15054Y39000D01*
Y62339D01*
X19983Y67267D01*
X20590Y68177D01*
X20804Y69250D01*
Y89250D01*
X20590Y90323D01*
X19983Y91233D01*
X14054Y97161D01*
Y108733D01*
X15324Y108858D01*
X15410Y108427D01*
X16017Y107517D01*
X16927Y106910D01*
X18000Y106696D01*
X19073Y106910D01*
X19983Y107517D01*
X20590Y108427D01*
X20804Y109500D01*
X20590Y110573D01*
X19983Y111483D01*
X19073Y112090D01*
X18000Y112304D01*
X16927Y112090D01*
X16017Y111483D01*
X15410Y110573D01*
X15324Y110142D01*
X14054Y110267D01*
Y115145D01*
X15324Y115964D01*
X15850Y115859D01*
X16923Y116073D01*
X17833Y116681D01*
X18440Y117590D01*
X18466Y117718D01*
X18927Y117909D01*
X20000Y117696D01*
X21073Y117909D01*
X21983Y118517D01*
X22106Y118703D01*
X23376Y118317D01*
D02*
G37*
G36*
X279864Y124864D02*
X281222Y123822D01*
X282803Y123167D01*
X284500Y122944D01*
X310347D01*
X317988Y115302D01*
X317363Y114132D01*
X317125Y114179D01*
X316052Y113965D01*
X315142Y113358D01*
X314535Y112448D01*
X314321Y111375D01*
X314535Y110302D01*
X315142Y109392D01*
X316052Y108785D01*
X317196Y108500D01*
X317410Y107427D01*
X318017Y106517D01*
X318927Y105910D01*
X320000Y105696D01*
X321073Y105910D01*
X321882Y106450D01*
X322383Y106334D01*
X323152Y105982D01*
Y75183D01*
X320802Y72832D01*
X319000D01*
X319000Y72832D01*
X318235Y72515D01*
X318235Y72515D01*
X315485Y69765D01*
X315168Y69000D01*
Y66038D01*
X313994Y65552D01*
X308148Y71398D01*
X307000Y71874D01*
X291423D01*
X287381Y75915D01*
X288190Y76902D01*
X288927Y76410D01*
X290000Y76196D01*
X291073Y76410D01*
X291983Y77017D01*
X292590Y77927D01*
X292804Y79000D01*
X292590Y80073D01*
X291983Y80983D01*
X291073Y81590D01*
X290000Y81804D01*
X288927Y81590D01*
X288144Y81067D01*
X287561Y81212D01*
X286874Y81557D01*
Y92577D01*
X288398Y94102D01*
X288874Y95250D01*
Y101292D01*
X290144Y101678D01*
X290217Y101567D01*
X291127Y100960D01*
X292200Y100746D01*
X293273Y100960D01*
X294182Y101567D01*
X294790Y102477D01*
X294802Y102538D01*
X296097D01*
X296110Y102477D01*
X296717Y101567D01*
X297627Y100960D01*
X298700Y100746D01*
X299773Y100960D01*
X300683Y101567D01*
X301290Y102477D01*
X301504Y103550D01*
X301290Y104623D01*
X301270Y104654D01*
X301082Y105850D01*
X301604Y106265D01*
X301983Y106517D01*
X302590Y107427D01*
X302804Y108500D01*
X302590Y109573D01*
X301983Y110483D01*
X301073Y111090D01*
X300000Y111304D01*
X299505Y111205D01*
X299312Y111398D01*
X298164Y111874D01*
X292750D01*
X291602Y111398D01*
X286102Y105898D01*
X285626Y104750D01*
Y95922D01*
X284102Y94398D01*
X283626Y93250D01*
Y78314D01*
X282453Y77828D01*
X280082Y80198D01*
X280082Y90793D01*
X279962Y91085D01*
X279900Y91395D01*
X279429Y92099D01*
X279300Y92750D01*
X279429Y93401D01*
X279900Y94105D01*
X279962Y94415D01*
X280082Y94707D01*
Y97331D01*
X280061Y97383D01*
X280077Y97437D01*
X279905Y97759D01*
X279765Y98096D01*
X280233Y98767D01*
X280840Y99677D01*
X281054Y100750D01*
X280840Y101823D01*
X280233Y102733D01*
X279765Y103404D01*
X279905Y103741D01*
X280077Y104063D01*
X280061Y104117D01*
X280082Y104169D01*
X280082Y118000D01*
X279765Y118766D01*
X272511Y126021D01*
X272997Y127194D01*
X277534D01*
X279864Y124864D01*
D02*
G37*
G36*
X205990Y126021D02*
X190052Y110082D01*
X188354D01*
X187475Y111352D01*
X187554Y111750D01*
X187340Y112823D01*
X186733Y113733D01*
X185823Y114340D01*
X184750Y114554D01*
X183677Y114340D01*
X182767Y113733D01*
X182160Y112823D01*
X181946Y111750D01*
X182025Y111352D01*
X181146Y110082D01*
X180521D01*
X180418Y110040D01*
X180310Y110062D01*
X180250Y110050D01*
X180190Y110062D01*
X180082Y110040D01*
X179979Y110082D01*
X155823D01*
X155572Y111292D01*
X157153Y111947D01*
X158511Y112989D01*
X172716Y127194D01*
X205504D01*
X205990Y126021D01*
D02*
G37*
G36*
X576534Y119406D02*
Y118843D01*
X577010Y117695D01*
X586853Y107852D01*
X588001Y107376D01*
X593027D01*
X593267Y107017D01*
X594177Y106410D01*
X595250Y106196D01*
X596323Y106410D01*
X597233Y107017D01*
X597840Y107927D01*
X598054Y109000D01*
X597840Y110073D01*
X597233Y110983D01*
X596323Y111590D01*
X595250Y111804D01*
X594177Y111590D01*
X593267Y110983D01*
X593027Y110624D01*
X588673D01*
X583539Y115758D01*
X584025Y116931D01*
X604290D01*
Y107750D01*
X604468Y106857D01*
X598477Y100866D01*
X597703Y99708D01*
X597431Y98342D01*
Y93396D01*
X578093Y74057D01*
X567896D01*
X566531Y73786D01*
X565373Y73012D01*
X559384Y67023D01*
X558611Y65866D01*
X558339Y64500D01*
Y59886D01*
X557434Y58981D01*
X556056Y59399D01*
X556053Y59413D01*
X555445Y60323D01*
X554536Y60930D01*
X553463Y61144D01*
X552390Y60930D01*
X551480Y60323D01*
X550872Y59413D01*
X550659Y58340D01*
X550133Y57814D01*
X549060Y57600D01*
X548150Y56993D01*
X547542Y56083D01*
X547329Y55010D01*
X547542Y53937D01*
X548150Y53027D01*
X549060Y52420D01*
X549074Y52417D01*
X549492Y51039D01*
X548022Y49569D01*
X534469D01*
X533943Y50839D01*
X537556Y54451D01*
X541750D01*
X542725Y54645D01*
X543552Y55198D01*
X559005Y70650D01*
X559558Y71477D01*
X559752Y72453D01*
Y80127D01*
X559827Y80158D01*
X561022Y80339D01*
X561470Y79668D01*
X562380Y79060D01*
X562814Y78973D01*
X563642Y78509D01*
X564106Y77681D01*
X564192Y77247D01*
X564800Y76337D01*
X565710Y75730D01*
X566783Y75516D01*
X567856Y75730D01*
X568765Y76337D01*
X569373Y77247D01*
X569587Y78320D01*
X569373Y79393D01*
X568765Y80303D01*
X567856Y80911D01*
X567422Y80997D01*
X566594Y81461D01*
X566130Y82289D01*
X566043Y82723D01*
X565435Y83633D01*
X564526Y84241D01*
X564062Y84333D01*
Y85628D01*
X564526Y85720D01*
X565435Y86327D01*
X566043Y87237D01*
X566135Y87700D01*
X567430D01*
X567522Y87237D01*
X568130Y86327D01*
X569040Y85720D01*
X570113Y85506D01*
X570639Y84980D01*
X570852Y83907D01*
X571460Y82998D01*
X572370Y82390D01*
X573443Y82176D01*
X573969Y81650D01*
X574182Y80577D01*
X574790Y79668D01*
X575700Y79060D01*
X576773Y78846D01*
X577846Y79060D01*
X578755Y79668D01*
X579363Y80577D01*
X579577Y81650D01*
X579363Y82723D01*
X578755Y83633D01*
X577846Y84241D01*
X576773Y84454D01*
X576247Y84980D01*
X576033Y86053D01*
X575425Y86963D01*
X574516Y87570D01*
X573443Y87784D01*
X572917Y88310D01*
X572703Y89383D01*
X572095Y90293D01*
X571186Y90901D01*
X570723Y90993D01*
Y92288D01*
X571186Y92380D01*
X572095Y92987D01*
X572703Y93897D01*
X572917Y94970D01*
X573443Y95496D01*
X574516Y95710D01*
X575425Y96318D01*
X576033Y97227D01*
X576116Y97644D01*
X576125Y97690D01*
X577420D01*
X577430Y97644D01*
X577513Y97227D01*
X578120Y96318D01*
X579030Y95710D01*
X580103Y95496D01*
X581176Y95710D01*
X582085Y96318D01*
X582693Y97227D01*
X582907Y98300D01*
X582693Y99373D01*
X582085Y100283D01*
X581176Y100891D01*
X580103Y101104D01*
X579030Y100891D01*
X578120Y100283D01*
X577513Y99373D01*
X577430Y98957D01*
X577420Y98910D01*
X576125D01*
X576116Y98957D01*
X576033Y99373D01*
X575425Y100283D01*
X574516Y100891D01*
X573443Y101104D01*
X572917Y101630D01*
X572703Y102703D01*
X572095Y103613D01*
X571186Y104221D01*
X570723Y104313D01*
Y105608D01*
X571186Y105700D01*
X572095Y106308D01*
X572703Y107217D01*
X572917Y108290D01*
X572703Y109363D01*
X572095Y110273D01*
X571186Y110881D01*
X570113Y111094D01*
X569587Y111620D01*
X569373Y112693D01*
X568765Y113603D01*
X567856Y114211D01*
X566869Y114407D01*
X566290Y115522D01*
X567051Y116626D01*
X571423D01*
X572571Y117102D01*
X575361Y119892D01*
X576534Y119406D01*
D02*
G37*
G36*
X242418Y109021D02*
X242418Y95672D01*
X241148Y95362D01*
X240733Y95983D01*
X239823Y96590D01*
X238750Y96804D01*
X237677Y96590D01*
X236767Y95983D01*
X236160Y95073D01*
X235946Y94000D01*
X236160Y92927D01*
X236767Y92017D01*
X237677Y91410D01*
X238750Y91196D01*
X239823Y91410D01*
X240733Y92017D01*
X241148Y92639D01*
X242418Y92328D01*
Y83540D01*
X242460Y83438D01*
X242438Y83329D01*
X242614Y83066D01*
X242735Y82775D01*
X242837Y82732D01*
X242899Y82640D01*
X243493Y82243D01*
X244027Y81443D01*
X244215Y80500D01*
X244027Y79557D01*
X243493Y78757D01*
X242899Y78360D01*
X242837Y78268D01*
X242735Y78225D01*
X242614Y77934D01*
X242438Y77671D01*
X242460Y77562D01*
X242418Y77460D01*
Y74250D01*
X242735Y73485D01*
X263662Y52558D01*
X262852Y51571D01*
X262823Y51590D01*
X261750Y51804D01*
X260677Y51590D01*
X259767Y50983D01*
X259160Y50073D01*
X258946Y49000D01*
X259160Y47927D01*
X259767Y47017D01*
X260677Y46410D01*
X260965Y46352D01*
X260840Y45082D01*
X247448D01*
X216765Y75765D01*
X216000Y76082D01*
X210068D01*
X209582Y77256D01*
X213163Y80837D01*
X213163Y80837D01*
X213826Y81829D01*
X214059Y83000D01*
Y85483D01*
X236163Y107587D01*
X236826Y108580D01*
X237059Y109750D01*
X236980Y110148D01*
X237905Y111418D01*
X240021D01*
X242418Y109021D01*
D02*
G37*
G36*
X665284Y132670D02*
Y121000D01*
X665760Y119852D01*
X675284Y110327D01*
Y74722D01*
X674925Y74482D01*
X674685Y74123D01*
X666751D01*
X655976Y84898D01*
X654828Y85374D01*
X640712D01*
X640186Y86644D01*
X643056Y89513D01*
X643531Y90661D01*
Y94985D01*
X644936Y96390D01*
X646107Y95765D01*
X646104Y95750D01*
X646317Y94677D01*
X646925Y93767D01*
X647835Y93160D01*
X648908Y92946D01*
X649981Y93160D01*
X650890Y93767D01*
X651498Y94677D01*
X651712Y95750D01*
X651498Y96823D01*
X650890Y97733D01*
X649981Y98340D01*
X648908Y98554D01*
X648893Y98551D01*
X648268Y99721D01*
X660398Y111852D01*
X660874Y113000D01*
Y135284D01*
X662144Y135810D01*
X665284Y132670D01*
D02*
G37*
G36*
X75418Y128341D02*
Y107000D01*
X75735Y106235D01*
X95092Y86878D01*
X95144Y86856D01*
X95170Y86806D01*
X95520Y86700D01*
X95857Y86561D01*
X95946Y85750D01*
X96160Y84677D01*
X96767Y83767D01*
X97677Y83160D01*
X98750Y82946D01*
X99561Y82857D01*
X99700Y82520D01*
X99806Y82170D01*
X99856Y82144D01*
X99878Y82092D01*
X103735Y78235D01*
X104500Y77918D01*
X147990D01*
X148236Y78019D01*
X148500Y78045D01*
X148604Y78172D01*
X148755Y78235D01*
X148857Y78480D01*
X149026Y78686D01*
X149242Y79397D01*
X150250Y79196D01*
X151258Y79397D01*
X151474Y78686D01*
X151643Y78480D01*
X151745Y78235D01*
X151896Y78172D01*
X152000Y78045D01*
X152264Y78019D01*
X152510Y77918D01*
X186633D01*
X186953Y77352D01*
X186213Y76082D01*
X122655D01*
X122363Y75962D01*
X122053Y75900D01*
X121992Y75808D01*
X121889Y75765D01*
X121768Y75474D01*
X121593Y75211D01*
X121571Y75099D01*
X121202Y74548D01*
X120651Y74179D01*
X120000Y74050D01*
X119349Y74179D01*
X118798Y74548D01*
X118429Y75099D01*
X118407Y75211D01*
X118232Y75474D01*
X118111Y75765D01*
X118008Y75808D01*
X117947Y75900D01*
X117637Y75962D01*
X117345Y76082D01*
X109750D01*
X109750Y76082D01*
X108985Y75765D01*
X103365Y70146D01*
X102483Y70233D01*
X101573Y70840D01*
X100500Y71054D01*
X99427Y70840D01*
X98517Y70233D01*
X97910Y69323D01*
X97696Y68250D01*
X97458Y67960D01*
X95887Y67894D01*
X94345Y69435D01*
X94841Y70177D01*
X95054Y71250D01*
X94841Y72323D01*
X94233Y73232D01*
X93323Y73840D01*
X92250Y74054D01*
X91177Y73840D01*
X90436Y73345D01*
X86048Y77732D01*
X85757Y77853D01*
X85494Y78029D01*
X85386Y78007D01*
X85283Y78049D01*
X84991Y77929D01*
X84682Y77867D01*
X84401Y77679D01*
X83750Y77550D01*
X83099Y77679D01*
X82548Y78048D01*
X82512Y78101D01*
X82420Y78163D01*
X82377Y78265D01*
X82086Y78386D01*
X81823Y78562D01*
X81714Y78540D01*
X81612Y78582D01*
X77504Y78582D01*
X77375Y78652D01*
X77340Y78823D01*
X76733Y79733D01*
X75823Y80340D01*
X74750Y80554D01*
X73677Y80340D01*
X72767Y79733D01*
X72160Y78823D01*
X72126Y78652D01*
X71996Y78582D01*
X57659Y78582D01*
X57133Y79852D01*
X60263Y82983D01*
X61767Y83017D01*
X62677Y82410D01*
X63750Y82196D01*
X64823Y82410D01*
X65733Y83017D01*
X66340Y83927D01*
X66610Y84039D01*
X67177Y83660D01*
X68250Y83446D01*
X69323Y83660D01*
X70233Y84267D01*
X70840Y85177D01*
X71054Y86250D01*
X70840Y87323D01*
X70233Y88233D01*
X69323Y88840D01*
X68250Y89054D01*
X67177Y88840D01*
X66267Y88233D01*
X65660Y87323D01*
X65390Y87211D01*
X64823Y87590D01*
X63750Y87804D01*
X62677Y87590D01*
X62602Y87541D01*
X61332Y88219D01*
X61332Y103216D01*
X61223Y103479D01*
X61236Y103541D01*
X61045Y104500D01*
X61236Y105459D01*
X61223Y105521D01*
X61332Y105784D01*
Y114216D01*
X61223Y114479D01*
X61236Y114541D01*
X61045Y115500D01*
X61194Y116248D01*
X61617Y116882D01*
X62252Y117306D01*
X62348Y117325D01*
X62611Y117501D01*
X62902Y117622D01*
X74148Y128867D01*
X75418Y128341D01*
D02*
G37*
G36*
X657626Y122631D02*
Y113673D01*
X640760Y96806D01*
X640284Y95658D01*
Y91334D01*
X628930Y79980D01*
X628505Y79866D01*
X627533Y79887D01*
X627303Y79965D01*
X621018Y86250D01*
X655292Y120524D01*
X655292Y120524D01*
X656176Y121847D01*
X656356Y122756D01*
X657626Y122631D01*
D02*
G37*
G36*
X81767Y77267D02*
X82677Y76660D01*
X83750Y76446D01*
X84823Y76660D01*
X85283Y76967D01*
X89767Y72483D01*
X89660Y72323D01*
X89446Y71250D01*
X89660Y70177D01*
X90268Y69267D01*
X91177Y68659D01*
X92250Y68446D01*
X93323Y68659D01*
X93483Y68766D01*
X96000Y66250D01*
X98543D01*
X99427Y65660D01*
X100500Y65446D01*
X101573Y65660D01*
X102483Y66267D01*
X103090Y67177D01*
X103304Y68250D01*
X103253Y68503D01*
X109750Y75000D01*
X117345D01*
X117410Y74677D01*
X118017Y73767D01*
X118927Y73160D01*
X120000Y72946D01*
X121073Y73160D01*
X121983Y73767D01*
X122590Y74677D01*
X122655Y75000D01*
X195796D01*
X195910Y74427D01*
X196517Y73517D01*
X197427Y72910D01*
X198500Y72696D01*
X199573Y72910D01*
X199870Y73108D01*
X201087Y73087D01*
X202080Y72424D01*
X203250Y72191D01*
X204421Y72424D01*
X205413Y73087D01*
X207326Y75000D01*
X216000D01*
X247000Y44000D01*
X340729D01*
X341000Y43946D01*
X341271Y44000D01*
X346695D01*
X347017Y43517D01*
X347927Y42910D01*
X349000Y42696D01*
X350073Y42910D01*
X350983Y43517D01*
X351305Y44000D01*
X411000D01*
X426500Y28500D01*
X426500Y17333D01*
X426160Y16823D01*
X426119Y16619D01*
X423750Y14250D01*
X410151D01*
X404076Y20326D01*
X403619Y20631D01*
X400750Y23500D01*
X260555Y23500D01*
X260233Y23983D01*
X259323Y24590D01*
X258250Y24804D01*
X257177Y24590D01*
X256267Y23983D01*
X255945Y23500D01*
X253886D01*
X253582Y24500D01*
X253983Y24767D01*
X254590Y25677D01*
X254804Y26750D01*
X254590Y27823D01*
X253983Y28733D01*
X253073Y29340D01*
X252000Y29554D01*
X250927Y29340D01*
X250017Y28733D01*
X249410Y27823D01*
X249196Y26750D01*
X249410Y25677D01*
X250017Y24767D01*
X250418Y24500D01*
X250114Y23500D01*
X244521D01*
X244250Y23554D01*
X243979Y23500D01*
X226750D01*
X204250Y46000D01*
X167143D01*
X166509Y46773D01*
X166554Y47000D01*
X166340Y48073D01*
X165733Y48983D01*
X164823Y49590D01*
X163750Y49804D01*
X162677Y49590D01*
X161767Y48983D01*
X161159Y48073D01*
X160946Y47000D01*
X160991Y46773D01*
X160357Y46000D01*
X143510D01*
X143207Y47000D01*
X143233Y47017D01*
X143840Y47927D01*
X144054Y49000D01*
X143840Y50073D01*
X143233Y50983D01*
X142323Y51590D01*
X141250Y51804D01*
X140177Y51590D01*
X139267Y50983D01*
X138660Y50073D01*
X138446Y49000D01*
X138660Y47927D01*
X139267Y47017D01*
X139293Y47000D01*
X138990Y46000D01*
X65825D01*
X65004Y47000D01*
X65054Y47250D01*
X64840Y48323D01*
X64233Y49233D01*
X63323Y49840D01*
X62250Y50054D01*
X61177Y49840D01*
X60267Y49233D01*
X59660Y48323D01*
X59643Y48238D01*
X58478Y47509D01*
X58250Y47554D01*
X58022Y47509D01*
X56857Y48238D01*
X56840Y48323D01*
X56233Y49233D01*
X55323Y49840D01*
X54250Y50054D01*
X53177Y49840D01*
X52267Y49233D01*
X51660Y48323D01*
X51446Y47250D01*
X51496Y47000D01*
X50675Y46000D01*
X49750D01*
X35500Y31750D01*
X28750D01*
X20000Y40500D01*
Y63250D01*
X24750Y68000D01*
X29794D01*
X30677Y67410D01*
X31750Y67196D01*
X32823Y67410D01*
X33707Y68000D01*
X47000Y68000D01*
X56500Y77500D01*
X71996Y77500D01*
X72160Y76677D01*
X72767Y75767D01*
X73677Y75160D01*
X74750Y74946D01*
X75823Y75160D01*
X76733Y75767D01*
X77340Y76677D01*
X77504Y77500D01*
X81612Y77500D01*
X81767Y77267D01*
D02*
G37*
G36*
X554654Y77090D02*
Y73509D01*
X540694Y59549D01*
X536500D01*
X535524Y59355D01*
X534698Y58802D01*
X526199Y50304D01*
X523368D01*
X522842Y51574D01*
X529884Y58616D01*
X529884Y58616D01*
X530768Y59939D01*
X531078Y61500D01*
X531078Y61500D01*
Y68432D01*
X532348Y69111D01*
X532410Y69070D01*
X533483Y68856D01*
X534009Y68330D01*
X534222Y67257D01*
X534830Y66347D01*
X535740Y65740D01*
X536813Y65526D01*
X537886Y65740D01*
X538795Y66347D01*
X539403Y67257D01*
X539617Y68330D01*
X539403Y69403D01*
X538795Y70313D01*
X537886Y70921D01*
X536813Y71134D01*
X536287Y71660D01*
X536073Y72733D01*
X535960Y72902D01*
X536639Y74172D01*
X548250D01*
X548250Y74172D01*
X549811Y74482D01*
X551134Y75366D01*
X553384Y77616D01*
X554654Y77090D01*
D02*
G37*
G36*
X332250Y70000D02*
X324750Y62500D01*
X317500D01*
X316250Y63750D01*
Y69000D01*
X319000Y71750D01*
X321250D01*
X327500Y78000D01*
X332250D01*
Y70000D01*
D02*
G37*
G36*
X109000Y167250D02*
Y156521D01*
X108946Y156250D01*
X109000Y155979D01*
Y151771D01*
X108946Y151500D01*
X109000Y151229D01*
Y126500D01*
X110747Y124753D01*
X110696Y124500D01*
X110910Y123427D01*
X111517Y122517D01*
X112427Y121910D01*
X113500Y121696D01*
X113753Y121747D01*
X126003Y109497D01*
X126003Y109490D01*
X125610Y108476D01*
X124927Y108341D01*
X124017Y107733D01*
X123410Y106823D01*
X123196Y105750D01*
X123410Y104677D01*
X124017Y103767D01*
X124927Y103160D01*
X126000Y102946D01*
X127073Y103160D01*
X127983Y103767D01*
X128590Y104677D01*
X128804Y105750D01*
X128590Y106823D01*
X127983Y107733D01*
X127583Y108000D01*
X127886Y109000D01*
X179979D01*
X180250Y108946D01*
X180521Y109000D01*
X184479D01*
X184750Y108946D01*
X185021Y109000D01*
X190500D01*
X208694Y127194D01*
X269806D01*
X279000Y118000D01*
X279000Y104169D01*
X278250Y103554D01*
X277177Y103340D01*
X276267Y102733D01*
X275660Y101823D01*
X275446Y100750D01*
X275660Y99677D01*
X276267Y98767D01*
X277177Y98160D01*
X278250Y97946D01*
X279000Y97331D01*
Y94707D01*
X278410Y93823D01*
X278196Y92750D01*
X278410Y91677D01*
X279000Y90793D01*
X279000Y79750D01*
X284069Y74681D01*
X284102Y74602D01*
X289602Y69102D01*
X289681Y69069D01*
X290250Y68500D01*
X305000D01*
X310345Y63155D01*
X310219Y61867D01*
X310017Y61733D01*
X309410Y60823D01*
X309196Y59750D01*
X309410Y58677D01*
X310017Y57767D01*
X310927Y57160D01*
X312000Y56946D01*
X313073Y57160D01*
X313983Y57767D01*
X314140Y58003D01*
X314750Y58750D01*
X331000Y58750D01*
X347376Y75126D01*
X362624D01*
X365500Y72250D01*
Y59000D01*
X356996Y50497D01*
X356990Y50497D01*
X355976Y50890D01*
X355840Y51573D01*
X355233Y52483D01*
X354323Y53090D01*
X353250Y53304D01*
X352177Y53090D01*
X351267Y52483D01*
X350660Y51573D01*
X350446Y50500D01*
X350660Y49427D01*
X351267Y48517D01*
X352177Y47910D01*
X352715Y47803D01*
X353046Y46869D01*
X352568Y46373D01*
X351589Y46576D01*
X350983Y47483D01*
X350073Y48090D01*
X349000Y48304D01*
X347927Y48090D01*
X347017Y47483D01*
X346410Y46573D01*
X346196Y45500D01*
X345991Y45250D01*
X344416D01*
X343704Y46250D01*
X343804Y46750D01*
X343590Y47823D01*
X342983Y48733D01*
X342073Y49340D01*
X341000Y49554D01*
X339927Y49340D01*
X339017Y48733D01*
X338410Y47823D01*
X338196Y46750D01*
X338296Y46250D01*
X337584Y45250D01*
X272500Y45250D01*
X243500Y74250D01*
Y77460D01*
X244273Y77977D01*
X245047Y79134D01*
X245319Y80500D01*
X245047Y81866D01*
X244273Y83023D01*
X243500Y83540D01*
X243500Y109469D01*
X240469Y112500D01*
X235284D01*
X235170Y112576D01*
X234000Y112809D01*
X232954Y112601D01*
X232581Y112639D01*
X231868Y112934D01*
X231840Y113073D01*
X231233Y113983D01*
X230323Y114590D01*
X229250Y114804D01*
X228177Y114590D01*
X227267Y113983D01*
X226660Y113073D01*
X226446Y112000D01*
X226660Y110927D01*
X227267Y110017D01*
X228023Y109513D01*
X228356Y108432D01*
X208837Y88913D01*
X208181Y87931D01*
X199250Y79000D01*
X193055D01*
X193040Y79073D01*
X192433Y79983D01*
X191523Y80590D01*
X190450Y80804D01*
X189377Y80590D01*
X188467Y79983D01*
X187860Y79073D01*
X187845Y79000D01*
X152510D01*
X152207Y80000D01*
X152233Y80017D01*
X152840Y80927D01*
X153054Y82000D01*
X152840Y83073D01*
X152233Y83983D01*
X151323Y84590D01*
X150250Y84804D01*
X149177Y84590D01*
X148267Y83983D01*
X147660Y83073D01*
X147446Y82000D01*
X147660Y80927D01*
X148267Y80017D01*
X148293Y80000D01*
X147990Y79000D01*
X104500D01*
X100643Y82857D01*
X100733Y83767D01*
X101340Y84677D01*
X101554Y85750D01*
X101340Y86823D01*
X100733Y87733D01*
X99823Y88340D01*
X98750Y88554D01*
X97677Y88340D01*
X96767Y87733D01*
X95857Y87643D01*
X76500Y107000D01*
Y175750D01*
X82000Y181250D01*
X95000D01*
X109000Y167250D01*
D02*
G37*
G36*
X376602Y53102D02*
X377750Y52626D01*
X383750D01*
X383750Y52626D01*
X386750D01*
X387898Y53102D01*
X389422Y54626D01*
X392077D01*
X396602Y50102D01*
X397750Y49626D01*
X408828D01*
X427852Y30602D01*
X429000Y30126D01*
X431170D01*
X431849Y28856D01*
X431660Y28573D01*
X431446Y27500D01*
X431660Y26427D01*
X432267Y25517D01*
X433177Y24910D01*
X434250Y24696D01*
X435323Y24910D01*
X436233Y25517D01*
X436840Y26427D01*
X437054Y27500D01*
X436840Y28573D01*
X436651Y28856D01*
X437330Y30126D01*
X448078D01*
X462913Y15291D01*
X462427Y14117D01*
X432378D01*
X431482Y15388D01*
X431554Y15750D01*
X431340Y16823D01*
X430733Y17733D01*
X429823Y18341D01*
X428750Y18554D01*
X427582Y19617D01*
X427582Y28500D01*
X427265Y29265D01*
X427265Y29265D01*
X411765Y44765D01*
X411000Y45082D01*
X354591D01*
X354222Y45582D01*
X353976Y46104D01*
X353967Y46352D01*
X354024Y46404D01*
X354037Y46655D01*
X354129Y46888D01*
X354323Y47910D01*
X355233Y48517D01*
X355840Y49427D01*
X356986Y49414D01*
X356986Y49414D01*
X356986Y49414D01*
X356992Y49414D01*
X356992Y49414D01*
X356996Y49414D01*
X357207Y49501D01*
X357427Y49506D01*
X357562Y49647D01*
X357736Y49719D01*
X357759Y49728D01*
X357760Y49730D01*
X357762Y49731D01*
X366265Y58235D01*
X366582Y59000D01*
Y61325D01*
X367852Y61852D01*
X376602Y53102D01*
D02*
G37*
G36*
X518158Y38408D02*
X515000Y35250D01*
X510158Y35250D01*
X509158Y36250D01*
Y38250D01*
X509908Y39000D01*
X511908D01*
X513158Y40250D01*
X518158D01*
X518158Y38408D01*
D02*
G37*
G36*
X526974Y217961D02*
X528020Y216395D01*
X529674Y215290D01*
X531625Y214902D01*
X533576Y215290D01*
X535230Y216395D01*
X536276Y217961D01*
X538724D01*
X539770Y216395D01*
X541424Y215290D01*
X543375Y214902D01*
X545326Y215290D01*
X546980Y216395D01*
X548026Y217961D01*
X765461Y217961D01*
Y2039D01*
X548026Y2039D01*
X546980Y3605D01*
X545326Y4710D01*
X543375Y5098D01*
X541424Y4710D01*
X539770Y3605D01*
X538724Y2039D01*
X536276D01*
X535230Y3605D01*
X533576Y4710D01*
X531625Y5098D01*
X529674Y4710D01*
X528020Y3605D01*
X526974Y2039D01*
X496915D01*
X496529Y3309D01*
X497076Y3674D01*
X502284Y8882D01*
X512500D01*
X514841Y9348D01*
X516826Y10674D01*
X525728Y19576D01*
X526866Y19866D01*
X528189Y18982D01*
X529750Y18672D01*
X529750Y18672D01*
X561039D01*
X561039Y18672D01*
X562600Y18982D01*
X563923Y19866D01*
X597979Y53922D01*
X612750D01*
X612750Y53922D01*
X614311Y54232D01*
X615634Y55116D01*
X627634Y67116D01*
X627634Y67116D01*
X628518Y68439D01*
X628828Y70000D01*
Y72374D01*
X630002Y72860D01*
X630159Y72702D01*
X631308Y72227D01*
X635958D01*
X637106Y72702D01*
X638184Y73780D01*
X638608Y73696D01*
X639681Y73910D01*
X640590Y74517D01*
X641198Y75427D01*
X641412Y76500D01*
X641327Y76923D01*
X644530Y80126D01*
X653327D01*
X664352Y69102D01*
X665500Y68626D01*
X672735D01*
X674188Y67173D01*
X674104Y66750D01*
X674317Y65677D01*
X674925Y64767D01*
X675835Y64159D01*
X676222Y64082D01*
X676946Y63746D01*
X677144Y62702D01*
X677104Y62500D01*
X677317Y61427D01*
X677925Y60517D01*
X678835Y59910D01*
X679908Y59696D01*
X680981Y59910D01*
X681890Y60517D01*
X682498Y61427D01*
X682513Y61500D01*
X706007Y84994D01*
X706250Y84946D01*
X707323Y85160D01*
X708233Y85767D01*
X708840Y86677D01*
X709054Y87750D01*
X708840Y88823D01*
X708233Y89733D01*
X707323Y90340D01*
X706250Y90554D01*
X705177Y90340D01*
X705097Y90287D01*
X704182Y90105D01*
X703355Y89552D01*
X680931Y67128D01*
X679553Y67546D01*
X679498Y67823D01*
X678890Y68732D01*
X678698Y68861D01*
Y70388D01*
X678891Y70517D01*
X679316Y71155D01*
X680335Y72002D01*
X681408Y71788D01*
X682481Y72002D01*
X683390Y72610D01*
X683998Y73519D01*
X684013Y73592D01*
X698052Y87632D01*
X698605Y88459D01*
X698799Y89434D01*
Y130615D01*
X698840Y130677D01*
X699054Y131750D01*
X698840Y132823D01*
X698233Y133733D01*
X697323Y134340D01*
X696250Y134554D01*
X695177Y134340D01*
X694267Y133733D01*
X693660Y132823D01*
X693446Y131750D01*
X693660Y130677D01*
X693701Y130615D01*
Y90490D01*
X680408Y77197D01*
X680335Y77183D01*
X679801Y76826D01*
X678611Y77317D01*
X678531Y77389D01*
Y111000D01*
X678056Y112148D01*
X668531Y121672D01*
Y133342D01*
X668056Y134490D01*
X659398Y143148D01*
X658250Y143624D01*
X655673D01*
X654648Y144648D01*
X653500Y145124D01*
X648458D01*
X647310Y144648D01*
X641881Y139220D01*
X641458Y139304D01*
X640385Y139090D01*
X639475Y138483D01*
X639284Y138196D01*
X637786Y138152D01*
X637733Y138233D01*
X636823Y138840D01*
X635750Y139054D01*
X634677Y138840D01*
X633767Y138233D01*
X633160Y137323D01*
X632946Y136250D01*
X633160Y135177D01*
X633767Y134267D01*
X634126Y134028D01*
Y117919D01*
X629010Y112802D01*
X628216Y113097D01*
X627780Y113369D01*
X627590Y114323D01*
X626983Y115233D01*
X626073Y115840D01*
X625000Y116054D01*
X623927Y115840D01*
X623017Y115233D01*
X622725Y114795D01*
X622483D01*
X621335Y114319D01*
X617795Y110780D01*
X616525Y111306D01*
Y116466D01*
X622733Y122674D01*
X624060Y124659D01*
X624525Y127000D01*
Y133716D01*
X630983Y140174D01*
X632310Y142159D01*
X632775Y144500D01*
Y162592D01*
X632310Y164933D01*
X630983Y166918D01*
X630519Y167383D01*
X631310Y168567D01*
X631775Y170908D01*
Y182000D01*
X631310Y184341D01*
X629984Y186326D01*
X627999Y187652D01*
X625658Y188118D01*
X623317Y187652D01*
X621332Y186326D01*
X620006Y184341D01*
X619540Y182000D01*
Y173442D01*
X619466Y173368D01*
X613692D01*
X602525Y184534D01*
Y187000D01*
X602060Y189341D01*
X600733Y191326D01*
X592483Y199576D01*
X590499Y200902D01*
X588158Y201367D01*
X546750D01*
X544409Y200902D01*
X542424Y199576D01*
X541216Y198368D01*
X532736D01*
X532350Y199638D01*
X532358Y199642D01*
X532965Y200552D01*
X533179Y201625D01*
X532965Y202698D01*
X532358Y203608D01*
X531448Y204215D01*
X530612Y204382D01*
X530086Y205125D01*
X529878Y205625D01*
X530062Y205931D01*
X536776D01*
X537137Y205050D01*
X537220Y204661D01*
X536660Y203823D01*
X536446Y202750D01*
X536660Y201677D01*
X537267Y200767D01*
X538177Y200160D01*
X539250Y199946D01*
X540323Y200160D01*
X541233Y200767D01*
X541840Y201677D01*
X542054Y202750D01*
X541840Y203823D01*
X541280Y204661D01*
X541363Y205050D01*
X541724Y205931D01*
X562188D01*
X563553Y206203D01*
X564711Y206977D01*
X566416Y208681D01*
X732522D01*
X741181Y200022D01*
Y191728D01*
X737022Y187569D01*
X720500D01*
X719134Y187297D01*
X717977Y186523D01*
X717203Y185366D01*
X716931Y184000D01*
X717203Y182634D01*
X717977Y181477D01*
X719134Y180703D01*
X720500Y180431D01*
X737022D01*
X739931Y177522D01*
Y166900D01*
X740203Y165535D01*
X740977Y164377D01*
X746431Y158922D01*
Y146304D01*
X739697Y139569D01*
X729000D01*
X727634Y139297D01*
X726477Y138523D01*
X706727Y118773D01*
X705953Y117616D01*
X705681Y116250D01*
X705953Y114884D01*
X706727Y113727D01*
X731727Y88727D01*
X732884Y87953D01*
X734250Y87681D01*
X737022D01*
X742431Y82272D01*
Y80554D01*
X741227Y79349D01*
X740453Y78191D01*
X740181Y76825D01*
Y57053D01*
X721652Y38523D01*
X720878Y37366D01*
X720606Y36000D01*
X720878Y34634D01*
X721652Y33477D01*
X722809Y32703D01*
X724175Y32431D01*
X725541Y32703D01*
X726698Y33477D01*
X746273Y53052D01*
X747047Y54209D01*
X747319Y55575D01*
Y75347D01*
X748523Y76552D01*
X749297Y77710D01*
X749569Y79075D01*
Y83750D01*
X749297Y85116D01*
X748523Y86273D01*
X741023Y93773D01*
X739866Y94547D01*
X738500Y94819D01*
X735728D01*
X714297Y116250D01*
X730478Y132431D01*
X741175D01*
X742540Y132703D01*
X743698Y133477D01*
X752523Y142302D01*
X753297Y143460D01*
X753569Y144825D01*
Y160400D01*
X753297Y161766D01*
X752523Y162924D01*
X747069Y168379D01*
Y179000D01*
X746797Y180366D01*
X746023Y181523D01*
X743547Y184000D01*
X747273Y187727D01*
X748047Y188884D01*
X748319Y190250D01*
Y201500D01*
X748047Y202866D01*
X747273Y204023D01*
X736523Y214773D01*
X735366Y215547D01*
X734000Y215819D01*
X564938D01*
X563572Y215547D01*
X562414Y214773D01*
X560709Y213069D01*
X528000D01*
X526634Y212797D01*
X525477Y212023D01*
X522772Y209319D01*
X517352D01*
X517091Y210589D01*
X517733Y211017D01*
X518340Y211927D01*
X518554Y213000D01*
X518340Y214073D01*
X517733Y214983D01*
X516823Y215590D01*
X515750Y215804D01*
X514677Y215590D01*
X513767Y214983D01*
X513160Y214073D01*
X512946Y213000D01*
X513160Y211927D01*
X513767Y211017D01*
X514409Y210589D01*
X514148Y209319D01*
X510978D01*
X503509Y216788D01*
X503995Y217961D01*
X526974Y217961D01*
D02*
G37*
G36*
X612658Y82172D02*
X613561D01*
X620672Y75061D01*
Y71689D01*
X611061Y62078D01*
X596289D01*
X594729Y61768D01*
X593406Y60884D01*
X593406Y60884D01*
X559350Y26828D01*
X551534D01*
X551460Y26946D01*
X551144Y28098D01*
X571423Y48376D01*
X577500D01*
X578648Y48852D01*
X601922Y72126D01*
X608000D01*
X609148Y72602D01*
X610648Y74102D01*
X611124Y75250D01*
Y81476D01*
X612105Y82282D01*
X612658Y82172D01*
D02*
G37*
G36*
X252850Y23186D02*
X253019Y22980D01*
X253120Y22735D01*
X253272Y22672D01*
X253376Y22545D01*
X253640Y22519D01*
X253886Y22418D01*
X255945D01*
X256047Y22460D01*
X256156Y22438D01*
X256419Y22614D01*
X256710Y22735D01*
X256753Y22837D01*
X256845Y22899D01*
X257048Y23202D01*
X257599Y23571D01*
X258250Y23700D01*
X258901Y23571D01*
X259452Y23202D01*
X259655Y22899D01*
X259747Y22837D01*
X259790Y22735D01*
X260082Y22614D01*
X260344Y22438D01*
X260453Y22460D01*
X260555Y22418D01*
X317227D01*
X317714Y21244D01*
X317485Y21015D01*
X317168Y20250D01*
Y11750D01*
X317485Y10985D01*
X319485Y8985D01*
X320250Y8668D01*
X328750D01*
X328750Y8668D01*
X329515Y8985D01*
X329515Y8985D01*
X330413Y9882D01*
X362701D01*
X363086Y8612D01*
X362517Y8233D01*
X361910Y7323D01*
X361696Y6250D01*
X361910Y5177D01*
X362517Y4267D01*
X363427Y3660D01*
X364500Y3446D01*
X365573Y3660D01*
X366483Y4267D01*
X367090Y5177D01*
X367304Y6250D01*
X367090Y7323D01*
X366483Y8233D01*
X365914Y8612D01*
X366300Y9882D01*
X397216D01*
X403424Y3674D01*
X403971Y3309D01*
X403585Y2039D01*
X259242Y2039D01*
X259158Y3309D01*
X260077Y3430D01*
X261780Y4135D01*
X263242Y5257D01*
X264364Y6720D01*
X265070Y8423D01*
X265310Y10250D01*
X265070Y12077D01*
X264364Y13780D01*
X263242Y15242D01*
X261780Y16365D01*
X260077Y17070D01*
X258250Y17310D01*
X246338D01*
X245953Y18580D01*
X246233Y18767D01*
X246840Y19677D01*
X247054Y20750D01*
X246975Y21148D01*
X247854Y22418D01*
X250114D01*
X250360Y22519D01*
X250624Y22545D01*
X250728Y22672D01*
X250880Y22735D01*
X250981Y22980D01*
X251150Y23186D01*
X251400Y24010D01*
X251681D01*
X252000Y23946D01*
X252319Y24010D01*
X252600D01*
X252850Y23186D01*
D02*
G37*
G36*
X498856Y53169D02*
X499332Y51849D01*
X491366Y43884D01*
X490482Y42561D01*
X490172Y41000D01*
X490172Y41000D01*
Y38396D01*
X489540Y37451D01*
X489152Y35500D01*
Y32250D01*
X489540Y30299D01*
X490645Y28645D01*
X494395Y24895D01*
X494542Y24797D01*
X494390Y23371D01*
X493852Y23148D01*
X486828Y16124D01*
X484632D01*
X483733Y17394D01*
X483804Y17750D01*
X483590Y18823D01*
X482983Y19733D01*
X482624Y19972D01*
Y29327D01*
X486306Y33010D01*
X486781Y34158D01*
Y41924D01*
X498116Y53258D01*
X498856Y53169D01*
D02*
G37*
G36*
X331750Y19250D02*
X328500Y16000D01*
X331750Y12750D01*
X328750Y9750D01*
X320250D01*
X318250Y11750D01*
Y16000D01*
Y20250D01*
X320250Y22250D01*
X328750D01*
X331750Y19250D01*
D02*
G37*
%LPC*%
G36*
X3500Y196054D02*
X2427Y195840D01*
X1858Y195460D01*
X1000Y195318D01*
X142Y195460D01*
X-427Y195840D01*
X-1500Y196054D01*
X-2573Y195840D01*
X-3483Y195233D01*
X-4090Y194323D01*
X-4304Y193250D01*
X-4090Y192177D01*
X-3483Y191267D01*
X-2573Y190660D01*
X-1804Y189250D01*
X-1590Y188177D01*
X-983Y187267D01*
X-73Y186660D01*
X1000Y186446D01*
X2073Y186660D01*
X2983Y187267D01*
X3590Y188177D01*
X3804Y189250D01*
X4573Y190660D01*
X5483Y191267D01*
X6090Y192177D01*
X6304Y193250D01*
X6090Y194323D01*
X5483Y195233D01*
X4573Y195840D01*
X3500Y196054D01*
D02*
G37*
G36*
X217500Y215304D02*
X216427Y215090D01*
X215517Y214483D01*
X214910Y213573D01*
X214696Y212500D01*
X214910Y211427D01*
X215517Y210517D01*
X216427Y209909D01*
X217500Y209696D01*
X218573Y209909D01*
X219483Y210517D01*
X220090Y211427D01*
X220304Y212500D01*
X220090Y213573D01*
X219483Y214483D01*
X218573Y215090D01*
X217500Y215304D01*
D02*
G37*
G36*
X157500Y205054D02*
X156427Y204840D01*
X155517Y204233D01*
X154910Y203323D01*
X154696Y202250D01*
X154910Y201177D01*
X155517Y200267D01*
X156427Y199660D01*
X157500Y199446D01*
X158573Y199660D01*
X159483Y200267D01*
X160090Y201177D01*
X160304Y202250D01*
X160090Y203323D01*
X159483Y204233D01*
X158573Y204840D01*
X157500Y205054D01*
D02*
G37*
G36*
X165500Y201304D02*
X164427Y201090D01*
X163517Y200483D01*
X162910Y199573D01*
X162696Y198500D01*
X162910Y197427D01*
X163517Y196517D01*
X164427Y195910D01*
X165500Y195696D01*
X166573Y195910D01*
X167483Y196517D01*
X168090Y197427D01*
X168304Y198500D01*
X168090Y199573D01*
X167483Y200483D01*
X166573Y201090D01*
X165500Y201304D01*
D02*
G37*
G36*
X171750Y194804D02*
X170677Y194590D01*
X169767Y193983D01*
X169160Y193073D01*
X168946Y192000D01*
X169160Y190927D01*
X169767Y190017D01*
X170677Y189410D01*
X171750Y189196D01*
X172823Y189410D01*
X173733Y190017D01*
X174340Y190927D01*
X174554Y192000D01*
X174340Y193073D01*
X173733Y193983D01*
X172823Y194590D01*
X171750Y194804D01*
D02*
G37*
G36*
X247250Y199804D02*
X246177Y199590D01*
X245267Y198983D01*
X244660Y198073D01*
X244446Y197000D01*
X244660Y195927D01*
X245267Y195017D01*
X246177Y194410D01*
X247250Y194196D01*
X248323Y194410D01*
X249233Y195017D01*
X249840Y195927D01*
X250054Y197000D01*
X249840Y198073D01*
X249233Y198983D01*
X248323Y199590D01*
X247250Y199804D01*
D02*
G37*
G36*
X265720Y197304D02*
X264647Y197090D01*
X263737Y196483D01*
X263130Y195573D01*
X262916Y194500D01*
X263130Y193427D01*
X263737Y192517D01*
X264647Y191910D01*
X265720Y191696D01*
X266793Y191910D01*
X267703Y192517D01*
X268310Y193427D01*
X268524Y194500D01*
X268310Y195573D01*
X267703Y196483D01*
X266793Y197090D01*
X265720Y197304D01*
D02*
G37*
G36*
X289450Y202054D02*
X288377Y201840D01*
X287467Y201233D01*
X286860Y200323D01*
X286646Y199250D01*
X286860Y198177D01*
X287467Y197267D01*
X288377Y196660D01*
X289450Y196446D01*
X290523Y196660D01*
X291433Y197267D01*
X292041Y198177D01*
X292254Y199250D01*
X292041Y200323D01*
X291433Y201233D01*
X290523Y201840D01*
X289450Y202054D01*
D02*
G37*
G36*
X289200Y194054D02*
X288127Y193840D01*
X287218Y193233D01*
X286610Y192323D01*
X286396Y191250D01*
X286610Y190177D01*
X287218Y189267D01*
X288127Y188659D01*
X289200Y188446D01*
X290273Y188659D01*
X291183Y189267D01*
X291791Y190177D01*
X292004Y191250D01*
X291791Y192323D01*
X291183Y193233D01*
X290273Y193840D01*
X289200Y194054D01*
D02*
G37*
G36*
X306750Y193304D02*
X305677Y193090D01*
X304767Y192483D01*
X304160Y191573D01*
X303946Y190500D01*
X304160Y189427D01*
X304767Y188517D01*
X305677Y187910D01*
X306750Y187696D01*
X307823Y187910D01*
X308733Y188517D01*
X309340Y189427D01*
X309554Y190500D01*
X309340Y191573D01*
X308733Y192483D01*
X307823Y193090D01*
X306750Y193304D01*
D02*
G37*
G36*
X289200Y185804D02*
X288127Y185590D01*
X287218Y184983D01*
X286610Y184073D01*
X286396Y183000D01*
X286610Y181927D01*
X287218Y181017D01*
X288127Y180410D01*
X289200Y180196D01*
X290273Y180410D01*
X291183Y181017D01*
X291791Y181927D01*
X292004Y183000D01*
X291791Y184073D01*
X291183Y184983D01*
X290273Y185590D01*
X289200Y185804D01*
D02*
G37*
G36*
X304500Y184554D02*
X303427Y184340D01*
X302517Y183733D01*
X301910Y182823D01*
X301696Y181750D01*
X301910Y180677D01*
X302517Y179767D01*
X303427Y179160D01*
X304500Y178946D01*
X305573Y179160D01*
X306483Y179767D01*
X307090Y180677D01*
X307304Y181750D01*
X307090Y182823D01*
X306483Y183733D01*
X305573Y184340D01*
X304500Y184554D01*
D02*
G37*
G36*
X287500Y176554D02*
X286427Y176340D01*
X285517Y175733D01*
X284910Y174823D01*
X284696Y173750D01*
X284910Y172677D01*
X285517Y171767D01*
X286427Y171160D01*
X287500Y170946D01*
X288573Y171160D01*
X289483Y171767D01*
X290090Y172677D01*
X290304Y173750D01*
X290090Y174823D01*
X289483Y175733D01*
X288573Y176340D01*
X287500Y176554D01*
D02*
G37*
G36*
X258000Y164304D02*
X256927Y164090D01*
X256133Y163560D01*
X255750Y163457D01*
X255250D01*
X254867Y163560D01*
X254073Y164090D01*
X253000Y164304D01*
X251927Y164090D01*
X251017Y163483D01*
X250410Y162573D01*
X250196Y161500D01*
X250410Y160427D01*
X251017Y159517D01*
X251927Y158910D01*
X253000Y158696D01*
X254073Y158910D01*
X254867Y159440D01*
X255250Y159543D01*
X255750D01*
X256133Y159440D01*
X256927Y158910D01*
X258000Y158696D01*
X259073Y158910D01*
X259983Y159517D01*
X260590Y160427D01*
X260804Y161500D01*
X260590Y162573D01*
X259983Y163483D01*
X259073Y164090D01*
X258000Y164304D01*
D02*
G37*
G36*
X242750Y164054D02*
X241677Y163840D01*
X240767Y163233D01*
X240160Y162323D01*
X239946Y161250D01*
X240160Y160177D01*
X240767Y159267D01*
X241677Y158660D01*
X242750Y158446D01*
X243823Y158660D01*
X244733Y159267D01*
X245340Y160177D01*
X245554Y161250D01*
X245340Y162323D01*
X244733Y163233D01*
X243823Y163840D01*
X242750Y164054D01*
D02*
G37*
G36*
X63250Y204554D02*
X62177Y204340D01*
X61267Y203733D01*
X60659Y202823D01*
X60643Y202738D01*
X59478Y202009D01*
X59250Y202054D01*
X59022Y202009D01*
X57857Y202738D01*
X57840Y202823D01*
X57233Y203733D01*
X56323Y204340D01*
X55250Y204554D01*
X54177Y204340D01*
X53267Y203733D01*
X52660Y202823D01*
X52446Y201750D01*
X52660Y200677D01*
X53267Y199767D01*
X53959Y199306D01*
X54035Y198966D01*
Y198534D01*
X53959Y198194D01*
X53267Y197733D01*
X52660Y196823D01*
X52446Y195750D01*
X52660Y194677D01*
X53267Y193767D01*
Y193233D01*
X52660Y192323D01*
X52446Y191250D01*
X52660Y190177D01*
X53267Y189267D01*
X54177Y188660D01*
X55250Y188446D01*
X56323Y188660D01*
X57233Y189267D01*
X57840Y190177D01*
X58974Y190751D01*
X59250Y190696D01*
X60323Y190910D01*
X60644Y190254D01*
X60659Y190177D01*
X61267Y189267D01*
X62177Y188660D01*
X63250Y188446D01*
X64323Y188660D01*
X65233Y189267D01*
X65840Y190177D01*
X66054Y191250D01*
X65840Y192323D01*
X65541Y192771D01*
X65315Y193500D01*
X65541Y194229D01*
X65840Y194677D01*
X66054Y195750D01*
X65840Y196823D01*
X65233Y197733D01*
X64542Y198194D01*
X64465Y198534D01*
Y198966D01*
X64542Y199306D01*
X65233Y199767D01*
X65840Y200677D01*
X66054Y201750D01*
X65840Y202823D01*
X65233Y203733D01*
X64323Y204340D01*
X63250Y204554D01*
D02*
G37*
G36*
X48750Y190054D02*
X47677Y189840D01*
X46767Y189233D01*
X46160Y188323D01*
X45946Y187250D01*
X46160Y186177D01*
X46767Y185267D01*
X47677Y184660D01*
X48750Y184446D01*
X49823Y184660D01*
X50733Y185267D01*
X51340Y186177D01*
X51554Y187250D01*
X51340Y188323D01*
X50733Y189233D01*
X49823Y189840D01*
X48750Y190054D01*
D02*
G37*
G36*
X63250Y186054D02*
X62177Y185840D01*
X61267Y185233D01*
X60659Y184323D01*
X60644Y184246D01*
X60323Y183590D01*
X59250Y183804D01*
X58974Y183749D01*
X57840Y184323D01*
X57233Y185233D01*
X56323Y185840D01*
X55250Y186054D01*
X54177Y185840D01*
X53267Y185233D01*
X52660Y184323D01*
X52446Y183250D01*
X52660Y182177D01*
X52959Y181729D01*
X53185Y181000D01*
X52959Y180271D01*
X52660Y179823D01*
X52446Y178750D01*
X52660Y177677D01*
X53267Y176767D01*
X53959Y176306D01*
X54035Y175966D01*
Y175534D01*
X53959Y175194D01*
X53267Y174733D01*
X52660Y173823D01*
X52446Y172750D01*
X52660Y171677D01*
X53267Y170767D01*
X54177Y170160D01*
X55250Y169946D01*
X56323Y170160D01*
X57233Y170767D01*
X57840Y171677D01*
X57857Y171762D01*
X59022Y172491D01*
X59250Y172446D01*
X59478Y172491D01*
X60643Y171762D01*
X60659Y171677D01*
X61267Y170767D01*
X62177Y170160D01*
X63250Y169946D01*
X64323Y170160D01*
X65233Y170767D01*
X65840Y171677D01*
X66054Y172750D01*
X65840Y173823D01*
X65233Y174733D01*
X64542Y175194D01*
X64465Y175534D01*
Y175966D01*
X64542Y176306D01*
X65233Y176767D01*
X65840Y177677D01*
X66054Y178750D01*
X65840Y179823D01*
X65233Y180733D01*
Y181267D01*
X65840Y182177D01*
X66054Y183250D01*
X65840Y184323D01*
X65233Y185233D01*
X64323Y185840D01*
X63250Y186054D01*
D02*
G37*
G36*
X42250Y141804D02*
X41177Y141590D01*
X40267Y140983D01*
X39660Y140073D01*
X39446Y139000D01*
X39660Y137927D01*
X40267Y137017D01*
X41177Y136410D01*
X42250Y136196D01*
X43323Y136410D01*
X44233Y137017D01*
X44840Y137927D01*
X45054Y139000D01*
X44840Y140073D01*
X44233Y140983D01*
X43323Y141590D01*
X42250Y141804D01*
D02*
G37*
G36*
X52000Y118559D02*
X50830Y118326D01*
X49837Y117663D01*
X49174Y116671D01*
X48941Y115500D01*
X49174Y114330D01*
X49837Y113337D01*
X50830Y112674D01*
X52000Y112441D01*
X53171Y112674D01*
X54163Y113337D01*
X54826Y114330D01*
X55059Y115500D01*
X54826Y116671D01*
X54163Y117663D01*
X53171Y118326D01*
X52000Y118559D01*
D02*
G37*
G36*
X52000Y107559D02*
X50830Y107326D01*
X49837Y106663D01*
X49174Y105671D01*
X48941Y104500D01*
X49174Y103329D01*
X49837Y102337D01*
X50830Y101674D01*
X52000Y101441D01*
X53171Y101674D01*
X54163Y102337D01*
X54826Y103329D01*
X55059Y104500D01*
X54826Y105671D01*
X54163Y106663D01*
X53171Y107326D01*
X52000Y107559D01*
D02*
G37*
G36*
X556793Y151054D02*
X555720Y150841D01*
X554810Y150233D01*
X554202Y149324D01*
X553989Y148251D01*
X554202Y147178D01*
X554810Y146268D01*
X555720Y145660D01*
X556793Y145447D01*
X557866Y145660D01*
X558775Y146268D01*
X559383Y147178D01*
X559597Y148251D01*
X559383Y149324D01*
X558775Y150233D01*
X557866Y150841D01*
X556793Y151054D01*
D02*
G37*
G36*
X128500Y200054D02*
X127427Y199840D01*
X126517Y199233D01*
X125910Y198323D01*
X125696Y197250D01*
X125910Y196177D01*
X126517Y195267D01*
X127427Y194660D01*
X128500Y194446D01*
X129573Y194660D01*
X130483Y195267D01*
X131090Y196177D01*
X131304Y197250D01*
X131090Y198323D01*
X130483Y199233D01*
X129573Y199840D01*
X128500Y200054D01*
D02*
G37*
G36*
X27250Y136554D02*
X26177Y136340D01*
X25267Y135733D01*
X24660Y134823D01*
X24446Y133750D01*
X24660Y132677D01*
X25267Y131767D01*
X26177Y131160D01*
X27250Y130946D01*
X28323Y131160D01*
X29233Y131767D01*
X29840Y132677D01*
X30054Y133750D01*
X29840Y134823D01*
X29233Y135733D01*
X28323Y136340D01*
X27250Y136554D01*
D02*
G37*
G36*
X355750Y182804D02*
X354677Y182590D01*
X353767Y181983D01*
X353160Y181073D01*
X352946Y180000D01*
X353160Y178927D01*
X353767Y178017D01*
X354677Y177410D01*
X355750Y177196D01*
X356823Y177410D01*
X357733Y178017D01*
X358340Y178927D01*
X358554Y180000D01*
X358340Y181073D01*
X357733Y181983D01*
X356823Y182590D01*
X355750Y182804D01*
D02*
G37*
G36*
X353208Y170012D02*
X352135Y169798D01*
X351225Y169190D01*
X350617Y168281D01*
X350404Y167208D01*
X350617Y166135D01*
X351225Y165225D01*
X352135Y164617D01*
X353208Y164404D01*
X354281Y164617D01*
X355190Y165225D01*
X355798Y166135D01*
X356012Y167208D01*
X355798Y168281D01*
X355190Y169190D01*
X354281Y169798D01*
X353208Y170012D01*
D02*
G37*
G36*
X386500Y154304D02*
X385427Y154090D01*
X384517Y153483D01*
X383909Y152573D01*
X383696Y151500D01*
X383909Y150427D01*
X384517Y149517D01*
X385427Y148910D01*
X386500Y148696D01*
X387573Y148910D01*
X388483Y149517D01*
X389090Y150427D01*
X389304Y151500D01*
X389090Y152573D01*
X388483Y153483D01*
X387573Y154090D01*
X386500Y154304D01*
D02*
G37*
G36*
X141000Y181304D02*
X139927Y181090D01*
X139876Y181057D01*
X138875Y180554D01*
X137873Y181057D01*
X137823Y181090D01*
X136750Y181304D01*
X135677Y181090D01*
X135626Y181057D01*
X134625Y180554D01*
X133623Y181057D01*
X133573Y181090D01*
X132500Y181304D01*
X131427Y181090D01*
X130517Y180483D01*
X129909Y179573D01*
X129696Y178500D01*
X129909Y177427D01*
X130517Y176517D01*
X131427Y175910D01*
X132500Y175696D01*
X133573Y175910D01*
X133623Y175943D01*
X134625Y176446D01*
X135626Y175943D01*
X135677Y175910D01*
X136750Y175696D01*
X137823Y175910D01*
X137873Y175943D01*
X138875Y176446D01*
X139876Y175943D01*
X139927Y175910D01*
X141000Y175696D01*
X142073Y175910D01*
X142983Y176517D01*
X143590Y177427D01*
X143804Y178500D01*
X143590Y179573D01*
X142983Y180483D01*
X142073Y181090D01*
X141000Y181304D01*
D02*
G37*
G36*
X158000Y140054D02*
X156927Y139840D01*
X156017Y139233D01*
X154573Y139090D01*
X153500Y139304D01*
X152427Y139090D01*
X151517Y138483D01*
X150910Y137573D01*
X150696Y136500D01*
X150910Y135427D01*
X151517Y134517D01*
X152427Y133910D01*
X153500Y133696D01*
X154573Y133910D01*
X155483Y134517D01*
X156927Y134660D01*
X158000Y134446D01*
X159073Y134660D01*
X159983Y135267D01*
X160590Y136177D01*
X160804Y137250D01*
X160590Y138323D01*
X159983Y139233D01*
X159073Y139840D01*
X158000Y140054D01*
D02*
G37*
G36*
X418750Y177804D02*
X417677Y177590D01*
X416767Y176983D01*
X416160Y176073D01*
X415946Y175000D01*
X416160Y173927D01*
X416767Y173017D01*
X417677Y172410D01*
X418750Y172196D01*
X419823Y172410D01*
X420733Y173017D01*
X421340Y173927D01*
X421554Y175000D01*
X421340Y176073D01*
X420733Y176983D01*
X419823Y177590D01*
X418750Y177804D01*
D02*
G37*
G36*
X466132Y134954D02*
X465059Y134740D01*
X464149Y134133D01*
X463541Y133223D01*
X463328Y132150D01*
X463541Y131077D01*
X464149Y130167D01*
X465059Y129559D01*
X466132Y129346D01*
X467205Y129559D01*
X468114Y130167D01*
X468722Y131077D01*
X468936Y132150D01*
X468722Y133223D01*
X468114Y134133D01*
X467205Y134740D01*
X466132Y134954D01*
D02*
G37*
G36*
X371667Y132804D02*
X370594Y132590D01*
X369685Y131983D01*
X369077Y131073D01*
X368863Y130000D01*
X369077Y128927D01*
X369685Y128017D01*
X370594Y127410D01*
X371667Y127196D01*
X372740Y127410D01*
X373650Y128017D01*
X374258Y128927D01*
X374471Y130000D01*
X374258Y131073D01*
X373650Y131983D01*
X372740Y132590D01*
X371667Y132804D01*
D02*
G37*
G36*
X361750Y127554D02*
X360677Y127340D01*
X359767Y126733D01*
X359140D01*
X358231Y127340D01*
X357158Y127554D01*
X356085Y127340D01*
X355175Y126733D01*
X354567Y125823D01*
X354354Y124750D01*
X354567Y123677D01*
X355175Y122767D01*
X356085Y122160D01*
X357158Y121946D01*
X358231Y122160D01*
X358311Y122213D01*
X359227Y121298D01*
X359077Y121073D01*
X358863Y120000D01*
X359077Y118927D01*
X359685Y118017D01*
X360594Y117410D01*
X361667Y117196D01*
X362740Y117410D01*
X363650Y118017D01*
X364258Y118927D01*
X364471Y120000D01*
X364258Y121073D01*
X363925Y121571D01*
X363733Y122767D01*
X364340Y123677D01*
X364554Y124750D01*
X364340Y125823D01*
X363733Y126733D01*
X362823Y127340D01*
X361750Y127554D01*
D02*
G37*
G36*
X396667Y122804D02*
X395594Y122590D01*
X394685Y121983D01*
X393650D01*
X392740Y122590D01*
X391667Y122804D01*
X390594Y122590D01*
X389685Y121983D01*
X389077Y121073D01*
X388863Y120000D01*
X389077Y118927D01*
X389685Y118017D01*
X390594Y117410D01*
X391667Y117196D01*
X392740Y117410D01*
X393650Y118017D01*
X394685D01*
X395594Y117410D01*
X396667Y117196D01*
X397740Y117410D01*
X398650Y118017D01*
X399258Y118927D01*
X399471Y120000D01*
X399258Y121073D01*
X398650Y121983D01*
X397740Y122590D01*
X396667Y122804D01*
D02*
G37*
G36*
X406667D02*
X405594Y122590D01*
X404685Y121983D01*
X404077Y121073D01*
X403863Y120000D01*
X404077Y118927D01*
X404685Y118017D01*
X405594Y117410D01*
X406667Y117196D01*
X407740Y117410D01*
X408650Y118017D01*
X409258Y118927D01*
X409471Y120000D01*
X409258Y121073D01*
X408650Y121983D01*
X407740Y122590D01*
X406667Y122804D01*
D02*
G37*
G36*
X376667D02*
X375594Y122590D01*
X374685Y121983D01*
X374077Y121073D01*
X373863Y120000D01*
X374077Y118927D01*
X374685Y118017D01*
X375594Y117410D01*
X376667Y117196D01*
X377740Y117410D01*
X378650Y118017D01*
X379258Y118927D01*
X379471Y120000D01*
X379258Y121073D01*
X378650Y121983D01*
X377740Y122590D01*
X376667Y122804D01*
D02*
G37*
G36*
X371667Y117804D02*
X370594Y117590D01*
X369685Y116983D01*
X369077Y116073D01*
X368863Y115000D01*
X369077Y113927D01*
X369685Y113017D01*
X370594Y112410D01*
X371667Y112196D01*
X372740Y112410D01*
X373650Y113017D01*
X374258Y113927D01*
X374471Y115000D01*
X374258Y116073D01*
X373650Y116983D01*
X372740Y117590D01*
X371667Y117804D01*
D02*
G37*
G36*
X386802Y112804D02*
X385729Y112590D01*
X384820Y111983D01*
X384212Y111073D01*
X383999Y110000D01*
X384212Y108927D01*
X384820Y108017D01*
X385729Y107410D01*
X386802Y107196D01*
X387876Y107410D01*
X388785Y108017D01*
X389393Y108927D01*
X389606Y110000D01*
X389393Y111073D01*
X388785Y111983D01*
X387876Y112590D01*
X386802Y112804D01*
D02*
G37*
G36*
X356667D02*
X355594Y112590D01*
X354685Y111983D01*
X354077Y111073D01*
X353863Y110000D01*
X354077Y108927D01*
X354685Y108017D01*
X355594Y107410D01*
X356667Y107196D01*
X357740Y107410D01*
X358650Y108017D01*
X359258Y108927D01*
X359471Y110000D01*
X359258Y111073D01*
X358650Y111983D01*
X357740Y112590D01*
X356667Y112804D01*
D02*
G37*
G36*
X361667Y107804D02*
X360594Y107590D01*
X359685Y106983D01*
X359077Y106073D01*
X358863Y105000D01*
X359077Y103927D01*
X359685Y103017D01*
X360594Y102410D01*
X361667Y102196D01*
X362740Y102410D01*
X363650Y103017D01*
X364258Y103927D01*
X364471Y105000D01*
X364258Y106073D01*
X363650Y106983D01*
X362740Y107590D01*
X361667Y107804D01*
D02*
G37*
G36*
X391667Y107804D02*
X390594Y107590D01*
X389685Y106983D01*
X389077Y106073D01*
X388863Y105000D01*
X389077Y103927D01*
X389685Y103017D01*
X390594Y102410D01*
X391667Y102196D01*
X392740Y102410D01*
X393650Y103017D01*
X394258Y103927D01*
X394471Y105000D01*
X394258Y106073D01*
X393650Y106983D01*
X392740Y107590D01*
X391667Y107804D01*
D02*
G37*
G36*
X371667D02*
X370594Y107590D01*
X369685Y106983D01*
X369077Y106073D01*
X368863Y105000D01*
X369077Y103927D01*
X369685Y103017D01*
X370594Y102410D01*
X371667Y102196D01*
X372740Y102410D01*
X373650Y103017D01*
X374258Y103927D01*
X374471Y105000D01*
X374258Y106073D01*
X373650Y106983D01*
X372740Y107590D01*
X371667Y107804D01*
D02*
G37*
G36*
X396667Y102804D02*
X395594Y102590D01*
X394685Y101983D01*
X394077Y101073D01*
X393863Y100000D01*
X394077Y98927D01*
X394685Y98017D01*
X395594Y97410D01*
X396667Y97196D01*
X397740Y97410D01*
X398650Y98017D01*
X399258Y98927D01*
X399471Y100000D01*
X399258Y101073D01*
X398650Y101983D01*
X397740Y102590D01*
X396667Y102804D01*
D02*
G37*
G36*
X376667D02*
X375594Y102590D01*
X374685Y101983D01*
X374077Y101073D01*
X373863Y100000D01*
X374077Y98927D01*
X374685Y98017D01*
X375594Y97410D01*
X376667Y97196D01*
X377740Y97410D01*
X378650Y98017D01*
X379258Y98927D01*
X379471Y100000D01*
X379258Y101073D01*
X378650Y101983D01*
X377740Y102590D01*
X376667Y102804D01*
D02*
G37*
G36*
X486862Y101104D02*
X485789Y100891D01*
X484880Y100283D01*
X484272Y99373D01*
X484058Y98300D01*
X484272Y97227D01*
X484880Y96318D01*
X485789Y95710D01*
X486862Y95496D01*
X487935Y95710D01*
X488845Y96318D01*
X489453Y97227D01*
X489666Y98300D01*
X489453Y99373D01*
X488845Y100283D01*
X487935Y100891D01*
X486862Y101104D01*
D02*
G37*
G36*
X391667Y97804D02*
X390594Y97590D01*
X389685Y96983D01*
X389077Y96073D01*
X388863Y95000D01*
X389077Y93927D01*
X389685Y93017D01*
X390594Y92410D01*
X391667Y92196D01*
X392740Y92410D01*
X393650Y93017D01*
X394258Y93927D01*
X394471Y95000D01*
X394258Y96073D01*
X393650Y96983D01*
X392740Y97590D01*
X391667Y97804D01*
D02*
G37*
G36*
X381667Y97804D02*
X380594Y97590D01*
X379685Y96983D01*
X379077Y96073D01*
X378863Y95000D01*
X379077Y93927D01*
X379685Y93017D01*
X380594Y92409D01*
X381667Y92196D01*
X382740Y92409D01*
X383650Y93017D01*
X384258Y93927D01*
X384471Y95000D01*
X384258Y96073D01*
X383650Y96983D01*
X382740Y97590D01*
X381667Y97804D01*
D02*
G37*
G36*
X396667Y92804D02*
X395594Y92590D01*
X394685Y91983D01*
X394077Y91073D01*
X393863Y90000D01*
X394077Y88927D01*
X394685Y88017D01*
X395594Y87410D01*
X396667Y87196D01*
X397740Y87410D01*
X398650Y88017D01*
X399258Y88927D01*
X399471Y90000D01*
X399258Y91073D01*
X398650Y91983D01*
X397740Y92590D01*
X396667Y92804D01*
D02*
G37*
G36*
X356667D02*
X355594Y92590D01*
X354685Y91983D01*
X354077Y91073D01*
X353863Y90000D01*
X354077Y88927D01*
X354685Y88017D01*
X355594Y87410D01*
X356667Y87196D01*
X357740Y87410D01*
X358650Y88017D01*
X359258Y88927D01*
X359471Y90000D01*
X359258Y91073D01*
X358650Y91983D01*
X357740Y92590D01*
X356667Y92804D01*
D02*
G37*
G36*
X381667Y87804D02*
X380594Y87590D01*
X379685Y86983D01*
X379077Y86073D01*
X378863Y85000D01*
X379077Y83927D01*
X379685Y83017D01*
X380594Y82410D01*
X381667Y82196D01*
X382740Y82410D01*
X383650Y83017D01*
X384258Y83927D01*
X384471Y85000D01*
X384258Y86073D01*
X383650Y86983D01*
X382740Y87590D01*
X381667Y87804D01*
D02*
G37*
G36*
X486862Y87784D02*
X485789Y87571D01*
X484880Y86963D01*
X484272Y86053D01*
X484058Y84980D01*
X484272Y83907D01*
X484880Y82998D01*
X485789Y82390D01*
X486862Y82176D01*
X487935Y82390D01*
X488845Y82998D01*
X489453Y83907D01*
X489666Y84980D01*
X489453Y86053D01*
X488845Y86963D01*
X487935Y87571D01*
X486862Y87784D01*
D02*
G37*
G36*
X483532Y77794D02*
X482459Y77580D01*
X481550Y76973D01*
X480942Y76063D01*
X480728Y74990D01*
X480942Y73917D01*
X481550Y73007D01*
X482459Y72400D01*
X483532Y72186D01*
X484605Y72400D01*
X485515Y73007D01*
X486123Y73917D01*
X486336Y74990D01*
X486123Y76063D01*
X485515Y76973D01*
X484605Y77580D01*
X483532Y77794D01*
D02*
G37*
G36*
X500182Y74464D02*
X499109Y74250D01*
X498200Y73643D01*
X497592Y72733D01*
X497379Y71660D01*
X497592Y70587D01*
X498200Y69678D01*
X499109Y69070D01*
X500182Y68856D01*
X501255Y69070D01*
X502165Y69678D01*
X502773Y70587D01*
X502986Y71660D01*
X502773Y72733D01*
X502165Y73643D01*
X501255Y74250D01*
X500182Y74464D01*
D02*
G37*
G36*
X458000Y71804D02*
X456927Y71590D01*
X456017Y70983D01*
X455410Y70073D01*
X455196Y69000D01*
X455410Y67927D01*
X456017Y67017D01*
X456927Y66410D01*
X458000Y66196D01*
X459073Y66410D01*
X459983Y67017D01*
X460590Y67927D01*
X460804Y69000D01*
X460590Y70073D01*
X459983Y70983D01*
X459073Y71590D01*
X458000Y71804D01*
D02*
G37*
G36*
X510173Y71134D02*
X509100Y70921D01*
X508190Y70313D01*
X507582Y69403D01*
X507369Y68330D01*
X507582Y67257D01*
X508190Y66347D01*
X509100Y65740D01*
X510173Y65526D01*
X510699Y65000D01*
X510912Y63927D01*
X511520Y63017D01*
X512430Y62410D01*
X513503Y62196D01*
X514576Y62410D01*
X515485Y63017D01*
X516093Y63927D01*
X516306Y65000D01*
X516093Y66073D01*
X515485Y66983D01*
X514576Y67590D01*
X513503Y67804D01*
X512976Y68330D01*
X512763Y69403D01*
X512155Y70313D01*
X511245Y70921D01*
X510173Y71134D01*
D02*
G37*
G36*
X432250Y55054D02*
X431177Y54840D01*
X430267Y54233D01*
X429733D01*
X428823Y54840D01*
X427750Y55054D01*
X426677Y54840D01*
X425767Y54233D01*
X425160Y53323D01*
X424946Y52250D01*
X425160Y51177D01*
X425767Y50267D01*
X426677Y49660D01*
X427750Y49446D01*
X428823Y49660D01*
X429733Y50267D01*
X430267D01*
X431177Y49660D01*
X432250Y49446D01*
X433323Y49660D01*
X434233Y50267D01*
X434840Y51177D01*
X435054Y52250D01*
X434840Y53323D01*
X434233Y54233D01*
X433323Y54840D01*
X432250Y55054D01*
D02*
G37*
G36*
X430500Y48304D02*
X429427Y48090D01*
X428517Y47483D01*
X427910Y46573D01*
X427696Y45500D01*
X427910Y44427D01*
X428517Y43517D01*
X429427Y42910D01*
X430500Y42696D01*
X431573Y42910D01*
X432483Y43517D01*
X433090Y44427D01*
X433304Y45500D01*
X433090Y46573D01*
X432483Y47483D01*
X431573Y48090D01*
X430500Y48304D01*
D02*
G37*
G36*
X178750Y29554D02*
X177677Y29341D01*
X176767Y28733D01*
X176160Y27823D01*
X175946Y26750D01*
X176160Y25677D01*
X176767Y24767D01*
X177677Y24160D01*
X178750Y23946D01*
X179823Y24160D01*
X180733Y24767D01*
X181341Y25677D01*
X181554Y26750D01*
X181341Y27823D01*
X180733Y28733D01*
X179823Y29341D01*
X178750Y29554D01*
D02*
G37*
G36*
X15000Y16804D02*
X13927Y16590D01*
X13017Y15983D01*
X12410Y15073D01*
X12196Y14000D01*
X12410Y12927D01*
X13017Y12017D01*
X13927Y11410D01*
X15000Y11196D01*
X16073Y11410D01*
X16983Y12017D01*
X17590Y12927D01*
X17804Y14000D01*
X17590Y15073D01*
X16983Y15983D01*
X16073Y16590D01*
X15000Y16804D01*
D02*
G37*
G36*
X61000Y11804D02*
X59927Y11590D01*
X59017Y10983D01*
X59014Y10977D01*
X57486D01*
X57483Y10983D01*
X56573Y11590D01*
X55500Y11804D01*
X54427Y11590D01*
X53517Y10983D01*
X52910Y10073D01*
X52696Y9000D01*
X52910Y7927D01*
X53517Y7017D01*
X54427Y6410D01*
X55500Y6196D01*
X56573Y6410D01*
X57483Y7017D01*
X57486Y7023D01*
X59014D01*
X59017Y7017D01*
X59927Y6410D01*
X61000Y6196D01*
X62073Y6410D01*
X62983Y7017D01*
X63590Y7927D01*
X63804Y9000D01*
X63590Y10073D01*
X62983Y10983D01*
X62073Y11590D01*
X61000Y11804D01*
D02*
G37*
G36*
X198750Y16304D02*
X197677Y16090D01*
X196767Y15483D01*
X196160Y14573D01*
X195946Y13500D01*
X196160Y12427D01*
X196767Y11517D01*
X197677Y10910D01*
X198750Y10696D01*
X199823Y10910D01*
X200733Y11517D01*
X201340Y12427D01*
X201554Y13500D01*
X201340Y14573D01*
X200733Y15483D01*
X199823Y16090D01*
X198750Y16304D01*
D02*
G37*
G36*
X183000Y20554D02*
X181927Y20340D01*
X181017Y19733D01*
X180410Y18823D01*
X180196Y17750D01*
X180410Y16677D01*
X181017Y15767D01*
Y14483D01*
X180410Y13573D01*
X180196Y12500D01*
X180410Y11427D01*
X181017Y10517D01*
X181927Y9910D01*
X183000Y9696D01*
X184073Y9910D01*
X184983Y10517D01*
X185590Y11427D01*
X185804Y12500D01*
X185590Y13573D01*
X184983Y14483D01*
Y15767D01*
X185590Y16677D01*
X185804Y17750D01*
X185590Y18823D01*
X184983Y19733D01*
X184073Y20340D01*
X183000Y20554D01*
D02*
G37*
G36*
X314500Y95554D02*
X313427Y95340D01*
X312517Y94733D01*
X311910Y93823D01*
X311696Y92750D01*
X311910Y91677D01*
X312517Y90767D01*
X313427Y90160D01*
X314500Y89946D01*
X315573Y90160D01*
X316483Y90767D01*
X317090Y91677D01*
X317304Y92750D01*
X317090Y93823D01*
X316483Y94733D01*
X315573Y95340D01*
X314500Y95554D01*
D02*
G37*
G36*
X297375Y81179D02*
X296302Y80965D01*
X295392Y80358D01*
X294785Y79448D01*
X294571Y78375D01*
X294785Y77302D01*
X295392Y76392D01*
X296302Y75785D01*
X297375Y75571D01*
X298448Y75785D01*
X299358Y76392D01*
X299965Y77302D01*
X300179Y78375D01*
X299965Y79448D01*
X299358Y80358D01*
X298448Y80965D01*
X297375Y81179D01*
D02*
G37*
G36*
X182750Y73554D02*
X181677Y73340D01*
X180767Y72733D01*
X180160Y71823D01*
X179946Y70750D01*
X180160Y69677D01*
X180767Y68767D01*
X181677Y68160D01*
X182750Y67946D01*
X183823Y68160D01*
X184733Y68767D01*
X185340Y69677D01*
X185554Y70750D01*
X185340Y71823D01*
X184733Y72733D01*
X183823Y73340D01*
X182750Y73554D01*
D02*
G37*
G36*
X83000Y73304D02*
X81927Y73090D01*
X81017Y72483D01*
X80410Y71573D01*
X80196Y70500D01*
X80410Y69427D01*
X81017Y68517D01*
X81927Y67910D01*
X83000Y67696D01*
X84073Y67910D01*
X84983Y68517D01*
X85590Y69427D01*
X85804Y70500D01*
X85590Y71573D01*
X84983Y72483D01*
X84073Y73090D01*
X83000Y73304D01*
D02*
G37*
G36*
X130875Y72804D02*
X129802Y72590D01*
X128892Y71982D01*
X128285Y71073D01*
X128071Y70000D01*
X128285Y68927D01*
X128892Y68017D01*
X129802Y67409D01*
X130875Y67196D01*
X131948Y67409D01*
X132030Y67464D01*
X132660Y67677D01*
X133267Y66767D01*
X134177Y66160D01*
X135250Y65946D01*
X136323Y66160D01*
X137233Y66767D01*
X137840Y67677D01*
X138054Y68750D01*
X137840Y69823D01*
X137233Y70733D01*
X136323Y71340D01*
X135250Y71554D01*
X134177Y71340D01*
X134095Y71286D01*
X133465Y71073D01*
X132858Y71982D01*
X131948Y72590D01*
X130875Y72804D01*
D02*
G37*
G36*
X120500Y70304D02*
X119427Y70090D01*
X118517Y69482D01*
X117910Y68573D01*
X117696Y67500D01*
X117910Y66427D01*
X118517Y65517D01*
X119427Y64910D01*
X120500Y64696D01*
X121573Y64910D01*
X122483Y65517D01*
X123090Y66427D01*
X123304Y67500D01*
X123090Y68573D01*
X122483Y69482D01*
X121573Y70090D01*
X120500Y70304D01*
D02*
G37*
G36*
X36000Y64804D02*
X34927Y64590D01*
X34017Y63983D01*
X33233D01*
X32323Y64590D01*
X31250Y64804D01*
X30177Y64590D01*
X29267Y63983D01*
X28660Y63073D01*
X28446Y62000D01*
X28660Y60927D01*
X29267Y60017D01*
X30177Y59410D01*
X31250Y59196D01*
X32323Y59410D01*
X33233Y60017D01*
X34017D01*
X34927Y59410D01*
X36000Y59196D01*
X37073Y59410D01*
X37983Y60017D01*
X38590Y60927D01*
X38804Y62000D01*
X38590Y63073D01*
X37983Y63983D01*
X37073Y64590D01*
X36000Y64804D01*
D02*
G37*
G36*
X60500Y63804D02*
X59427Y63590D01*
X58517Y62983D01*
X57983D01*
X57073Y63590D01*
X56000Y63804D01*
X54927Y63590D01*
X54017Y62983D01*
X53410Y62073D01*
X53196Y61000D01*
X53410Y59927D01*
X54017Y59017D01*
Y58483D01*
X53410Y57573D01*
X53196Y56500D01*
X53410Y55427D01*
X54017Y54517D01*
X54927Y53910D01*
X56000Y53696D01*
X57073Y53910D01*
X57983Y54517D01*
X58517D01*
X59427Y53910D01*
X60500Y53696D01*
X61573Y53910D01*
X62483Y54517D01*
X63090Y55427D01*
X63304Y56500D01*
X63090Y57573D01*
X62791Y58021D01*
X62565Y58750D01*
X62791Y59479D01*
X63090Y59927D01*
X63304Y61000D01*
X63090Y62073D01*
X62483Y62983D01*
X61573Y63590D01*
X60500Y63804D01*
D02*
G37*
G36*
X204250Y66804D02*
X203177Y66590D01*
X202267Y65983D01*
X201660Y65073D01*
X201446Y64000D01*
X201660Y62927D01*
X202267Y62017D01*
X203177Y61410D01*
X204250Y61196D01*
X205323Y61410D01*
X206233Y62017D01*
X206840Y62927D01*
X207054Y64000D01*
X206840Y65073D01*
X206233Y65983D01*
X205323Y66590D01*
X204250Y66804D01*
D02*
G37*
G36*
X163000Y66554D02*
X161927Y66340D01*
X161017Y65733D01*
X160410Y64823D01*
X160196Y63750D01*
X160410Y62677D01*
X161017Y61767D01*
X161927Y61160D01*
X163000Y60946D01*
X164073Y61160D01*
X164983Y61767D01*
X165590Y62677D01*
X165804Y63750D01*
X165590Y64823D01*
X164983Y65733D01*
X164073Y66340D01*
X163000Y66554D01*
D02*
G37*
G36*
X78500Y66054D02*
X77427Y65840D01*
X76517Y65233D01*
X75910Y64323D01*
X75696Y63250D01*
X75910Y62177D01*
X76517Y61267D01*
X77427Y60660D01*
X78500Y60446D01*
X79573Y60660D01*
X80483Y61267D01*
X81090Y62177D01*
X81304Y63250D01*
X81090Y64323D01*
X80483Y65233D01*
X79573Y65840D01*
X78500Y66054D01*
D02*
G37*
G36*
X187500Y64054D02*
X186427Y63840D01*
X185517Y63232D01*
X184910Y62323D01*
X184696Y61250D01*
X184910Y60177D01*
X185517Y59267D01*
X186427Y58660D01*
X187500Y58446D01*
X188573Y58660D01*
X189483Y59267D01*
X190091Y60177D01*
X190304Y61250D01*
X190091Y62323D01*
X189483Y63232D01*
X188573Y63840D01*
X187500Y64054D01*
D02*
G37*
G36*
X126250Y63304D02*
X125177Y63090D01*
X124267Y62483D01*
X123660Y61573D01*
X123446Y60500D01*
X123660Y59427D01*
X124267Y58517D01*
X125177Y57909D01*
X126250Y57696D01*
X127323Y57909D01*
X128233Y58517D01*
X128840Y59427D01*
X129054Y60500D01*
X128840Y61573D01*
X128233Y62483D01*
X127323Y63090D01*
X126250Y63304D01*
D02*
G37*
G36*
X216250Y61304D02*
X215177Y61090D01*
X214267Y60483D01*
X213660Y59573D01*
X213446Y58500D01*
X213660Y57427D01*
X214267Y56517D01*
X215177Y55910D01*
X216250Y55696D01*
X217323Y55910D01*
X218233Y56517D01*
X218840Y57427D01*
X219054Y58500D01*
X218840Y59573D01*
X218233Y60483D01*
X217323Y61090D01*
X216250Y61304D01*
D02*
G37*
G36*
X144500D02*
X143427Y61090D01*
X142517Y60483D01*
X141910Y59573D01*
X141696Y58500D01*
X141910Y57427D01*
X142517Y56517D01*
X143427Y55910D01*
X144500Y55696D01*
X145573Y55910D01*
X146483Y56517D01*
X147091Y57427D01*
X147304Y58500D01*
X147091Y59573D01*
X146483Y60483D01*
X145573Y61090D01*
X144500Y61304D01*
D02*
G37*
G36*
X92000Y54304D02*
X90927Y54090D01*
X90306Y53676D01*
X89625Y53553D01*
X88944Y53676D01*
X88323Y54090D01*
X87250Y54304D01*
X86177Y54090D01*
X85267Y53483D01*
X84660Y52573D01*
X84446Y51500D01*
X84660Y50427D01*
X85267Y49517D01*
X86177Y48910D01*
X87250Y48696D01*
X88323Y48910D01*
X88944Y49324D01*
X89625Y49447D01*
X90306Y49324D01*
X90927Y48910D01*
X92000Y48696D01*
X93073Y48910D01*
X93982Y49517D01*
X94590Y50427D01*
X94804Y51500D01*
X94590Y52573D01*
X93982Y53483D01*
X93073Y54090D01*
X92000Y54304D01*
D02*
G37*
G36*
X134500Y56304D02*
X133427Y56090D01*
X132517Y55483D01*
X131910Y54573D01*
X131696Y53500D01*
X131910Y52427D01*
X132517Y51517D01*
X133427Y50910D01*
X134500Y50696D01*
X135573Y50910D01*
X136483Y51517D01*
X137090Y52427D01*
X137304Y53500D01*
X137090Y54573D01*
X136483Y55483D01*
X135573Y56090D01*
X134500Y56304D01*
D02*
G37*
G36*
X209500Y55554D02*
X208427Y55340D01*
X207517Y54733D01*
X206910Y53823D01*
X206696Y52750D01*
X206910Y51677D01*
X207517Y50767D01*
X208427Y50160D01*
X209500Y49946D01*
X210573Y50160D01*
X211483Y50767D01*
X212090Y51677D01*
X212304Y52750D01*
X212090Y53823D01*
X211483Y54733D01*
X210573Y55340D01*
X209500Y55554D01*
D02*
G37*
G36*
X120750Y55304D02*
X119677Y55090D01*
X118767Y54483D01*
X118160Y53573D01*
X117946Y52500D01*
X118160Y51427D01*
X118767Y50517D01*
X119677Y49910D01*
X120750Y49696D01*
X121823Y49910D01*
X122733Y50517D01*
X123340Y51427D01*
X123554Y52500D01*
X123340Y53573D01*
X122733Y54483D01*
X121823Y55090D01*
X120750Y55304D01*
D02*
G37*
G36*
X179500Y53054D02*
X178427Y52840D01*
X177517Y52233D01*
X176910Y51323D01*
X176696Y50250D01*
X176910Y49177D01*
X177517Y48267D01*
X178427Y47660D01*
X179500Y47446D01*
X180573Y47660D01*
X181483Y48267D01*
X182090Y49177D01*
X182304Y50250D01*
X182090Y51323D01*
X181483Y52233D01*
X180573Y52840D01*
X179500Y53054D01*
D02*
G37*
G36*
X230750Y45304D02*
X229677Y45090D01*
X228767Y44483D01*
X228160Y43573D01*
X227946Y42500D01*
X228160Y41427D01*
X228767Y40517D01*
X229677Y39910D01*
X230750Y39696D01*
X231823Y39910D01*
X232733Y40517D01*
X233340Y41427D01*
X233554Y42500D01*
X233340Y43573D01*
X232733Y44483D01*
X231823Y45090D01*
X230750Y45304D01*
D02*
G37*
G36*
X294000Y42304D02*
X292927Y42090D01*
X292017Y41483D01*
X291410Y40573D01*
X291196Y39500D01*
X291410Y38427D01*
X292017Y37517D01*
X292927Y36910D01*
X294000Y36696D01*
X295073Y36910D01*
X295983Y37517D01*
X296590Y38427D01*
X296804Y39500D01*
X296590Y40573D01*
X295983Y41483D01*
X295073Y42090D01*
X294000Y42304D01*
D02*
G37*
G36*
X382258Y42054D02*
X381185Y41840D01*
X380275Y41233D01*
X379667Y40323D01*
X379454Y39250D01*
X379667Y38177D01*
X380275Y37267D01*
X381185Y36660D01*
X382258Y36446D01*
X383331Y36660D01*
X384240Y37267D01*
X384848Y38177D01*
X385062Y39250D01*
X384848Y40323D01*
X384240Y41233D01*
X383331Y41840D01*
X382258Y42054D01*
D02*
G37*
G36*
X312500Y41304D02*
X311427Y41090D01*
X310517Y40483D01*
X309910Y39573D01*
X309696Y38500D01*
X309910Y37427D01*
X310517Y36517D01*
X311427Y35910D01*
X312500Y35696D01*
X313573Y35910D01*
X314483Y36517D01*
X315090Y37427D01*
X315304Y38500D01*
X315090Y39573D01*
X314483Y40483D01*
X313573Y41090D01*
X312500Y41304D01*
D02*
G37*
G36*
X345000Y40804D02*
X343927Y40590D01*
X343017Y39983D01*
X342410Y39073D01*
X342196Y38000D01*
X342410Y36927D01*
X343017Y36017D01*
X343927Y35410D01*
X345000Y35196D01*
X346073Y35410D01*
X346983Y36017D01*
X347590Y36927D01*
X347804Y38000D01*
X347590Y39073D01*
X346983Y39983D01*
X346073Y40590D01*
X345000Y40804D01*
D02*
G37*
G36*
X330125Y41179D02*
X329052Y40965D01*
X328142Y40358D01*
X327535Y39448D01*
X327321Y38375D01*
X327535Y37302D01*
X328142Y36392D01*
X329052Y35785D01*
X330125Y35571D01*
X331198Y35785D01*
X332108Y36392D01*
X333164Y36173D01*
X333267Y36017D01*
X334177Y35410D01*
X335250Y35196D01*
X336323Y35410D01*
X337233Y36017D01*
X337840Y36927D01*
X338054Y38000D01*
X337840Y39073D01*
X337233Y39983D01*
X336323Y40590D01*
X335250Y40804D01*
X334177Y40590D01*
X333267Y39983D01*
X332211Y40202D01*
X332108Y40358D01*
X331198Y40965D01*
X330125Y41179D01*
D02*
G37*
G36*
X254500Y40054D02*
X253427Y39840D01*
X252517Y39233D01*
X251910Y38323D01*
X251696Y37250D01*
X251910Y36177D01*
X252517Y35267D01*
X253427Y34660D01*
X254500Y34446D01*
X255573Y34660D01*
X256483Y35267D01*
X257090Y36177D01*
X257304Y37250D01*
X257090Y38323D01*
X256483Y39233D01*
X255573Y39840D01*
X254500Y40054D01*
D02*
G37*
G36*
X272750Y37304D02*
X271677Y37090D01*
X270767Y36483D01*
X270160Y35573D01*
X269946Y34500D01*
X270160Y33427D01*
X270767Y32517D01*
X271677Y31910D01*
X272750Y31696D01*
X273823Y31910D01*
X274733Y32517D01*
X275340Y33427D01*
X275554Y34500D01*
X275340Y35573D01*
X274733Y36483D01*
X273823Y37090D01*
X272750Y37304D01*
D02*
G37*
G36*
X412000Y36554D02*
X410927Y36340D01*
X410017Y35733D01*
X409410Y34823D01*
X409196Y33750D01*
X409410Y32677D01*
X410017Y31767D01*
X410927Y31160D01*
X412000Y30946D01*
X413073Y31160D01*
X413983Y31767D01*
X414590Y32677D01*
X414804Y33750D01*
X414590Y34823D01*
X413983Y35733D01*
X413073Y36340D01*
X412000Y36554D01*
D02*
G37*
G36*
X223250Y35304D02*
X222177Y35090D01*
X221267Y34483D01*
X220660Y33573D01*
X220446Y32500D01*
X220660Y31427D01*
X221267Y30517D01*
X222177Y29910D01*
X223250Y29696D01*
X224323Y29910D01*
X225233Y30517D01*
X225840Y31427D01*
X226054Y32500D01*
X225840Y33573D01*
X225233Y34483D01*
X224323Y35090D01*
X223250Y35304D01*
D02*
G37*
G36*
X285250Y31054D02*
X284177Y30840D01*
X283267Y30233D01*
X282660Y29323D01*
X282446Y28250D01*
X282660Y27177D01*
X283267Y26267D01*
X284177Y25660D01*
X285250Y25446D01*
X286323Y25660D01*
X287233Y26267D01*
X287840Y27177D01*
X288054Y28250D01*
X287840Y29323D01*
X287233Y30233D01*
X286323Y30840D01*
X285250Y31054D01*
D02*
G37*
G36*
X313750Y31054D02*
X312677Y30840D01*
X311767Y30233D01*
X311160Y29323D01*
X310946Y28250D01*
X311160Y27177D01*
X311767Y26267D01*
X312677Y25660D01*
X313750Y25446D01*
X314823Y25660D01*
X315733Y26267D01*
X316340Y27177D01*
X316554Y28250D01*
X316340Y29323D01*
X315733Y30233D01*
X314823Y30840D01*
X313750Y31054D01*
D02*
G37*
G36*
X403250Y29304D02*
X402177Y29090D01*
X401267Y28483D01*
X400660Y27573D01*
X400446Y26500D01*
X400660Y25427D01*
X401267Y24517D01*
X402177Y23910D01*
X403250Y23696D01*
X404323Y23910D01*
X405233Y24517D01*
X405840Y25427D01*
X406054Y26500D01*
X405840Y27573D01*
X405233Y28483D01*
X404323Y29090D01*
X403250Y29304D01*
D02*
G37*
G36*
X95000Y171554D02*
X93927Y171340D01*
X93306Y170926D01*
X92625Y170803D01*
X91944Y170926D01*
X91323Y171340D01*
X90250Y171554D01*
X89177Y171340D01*
X88267Y170733D01*
X87659Y169823D01*
X87446Y168750D01*
X87659Y167677D01*
X88267Y166767D01*
X89177Y166160D01*
X90250Y165946D01*
X91323Y166160D01*
X91944Y166574D01*
X92625Y166697D01*
X93306Y166574D01*
X93927Y166160D01*
X95000Y165946D01*
X96073Y166160D01*
X96982Y166767D01*
X97590Y167677D01*
X97804Y168750D01*
X97590Y169823D01*
X96982Y170733D01*
X96073Y171340D01*
X95000Y171554D01*
D02*
G37*
G36*
X80750Y158054D02*
X79677Y157840D01*
X78767Y157233D01*
X78159Y156323D01*
X77946Y155250D01*
X78159Y154177D01*
X78767Y153267D01*
X79677Y152660D01*
X80750Y152446D01*
X81823Y152660D01*
X82732Y153267D01*
X83340Y154177D01*
X83554Y155250D01*
X83340Y156323D01*
X82732Y157233D01*
X81823Y157840D01*
X80750Y158054D01*
D02*
G37*
G36*
X87250Y130054D02*
X86177Y129840D01*
X85267Y129233D01*
X84660Y128323D01*
X84446Y127250D01*
X84660Y126177D01*
X85267Y125267D01*
X86177Y124660D01*
X87250Y124446D01*
X88323Y124660D01*
X89233Y125267D01*
X89840Y126177D01*
X90054Y127250D01*
X89840Y128323D01*
X89233Y129233D01*
X88323Y129840D01*
X87250Y130054D01*
D02*
G37*
G36*
X95500Y125304D02*
X94427Y125090D01*
X93517Y124483D01*
X92909Y123573D01*
X92696Y122500D01*
X92909Y121427D01*
X93517Y120517D01*
X94427Y119910D01*
X95500Y119696D01*
X96573Y119910D01*
X97483Y120517D01*
X98090Y121427D01*
X98304Y122500D01*
X98090Y123573D01*
X97483Y124483D01*
X96573Y125090D01*
X95500Y125304D01*
D02*
G37*
G36*
X86250Y123554D02*
X85177Y123340D01*
X84267Y122733D01*
X83660Y121823D01*
X83446Y120750D01*
X83660Y119677D01*
X84267Y118767D01*
X85177Y118160D01*
X86250Y117946D01*
X87323Y118160D01*
X88233Y118767D01*
X88841Y119677D01*
X89054Y120750D01*
X88841Y121823D01*
X88233Y122733D01*
X87323Y123340D01*
X86250Y123554D01*
D02*
G37*
G36*
X97250Y116804D02*
X96177Y116590D01*
X95267Y115983D01*
X94660Y115073D01*
X94446Y114000D01*
X94522Y113620D01*
X93671Y112770D01*
X93500Y112804D01*
X92427Y112590D01*
X91517Y111983D01*
X90910Y111073D01*
X90696Y110000D01*
X90910Y108927D01*
X91517Y108017D01*
X92427Y107410D01*
X93500Y107196D01*
X94573Y107410D01*
X95483Y108017D01*
X96090Y108927D01*
X96304Y110000D01*
X96228Y110380D01*
X97079Y111230D01*
X97250Y111196D01*
X98323Y111410D01*
X99233Y112017D01*
X99840Y112927D01*
X100054Y114000D01*
X99840Y115073D01*
X99233Y115983D01*
X98323Y116590D01*
X97250Y116804D01*
D02*
G37*
G36*
X221818Y114772D02*
X220745Y114558D01*
X219835Y113950D01*
X219227Y113041D01*
X219014Y111968D01*
X219227Y110895D01*
X219835Y109985D01*
X220745Y109377D01*
X221818Y109164D01*
X222891Y109377D01*
X223800Y109985D01*
X224408Y110895D01*
X224622Y111968D01*
X224408Y113041D01*
X223800Y113950D01*
X222891Y114558D01*
X221818Y114772D01*
D02*
G37*
G36*
X260250Y108554D02*
X259177Y108340D01*
X258267Y107733D01*
X257846Y107101D01*
X257660Y106823D01*
X256635Y106799D01*
X256573Y106840D01*
X255500Y107054D01*
X254427Y106840D01*
X253517Y106233D01*
X252910Y105323D01*
X252696Y104250D01*
X252910Y103177D01*
X253517Y102267D01*
X254427Y101660D01*
X255500Y101446D01*
X256573Y101660D01*
X257483Y102267D01*
X257904Y102899D01*
X258090Y103177D01*
X259115Y103201D01*
X259177Y103160D01*
X260250Y102946D01*
X261323Y103160D01*
X262233Y103767D01*
X262840Y104677D01*
X263054Y105750D01*
X262840Y106823D01*
X262233Y107733D01*
X261323Y108340D01*
X260250Y108554D01*
D02*
G37*
G36*
X106250Y110054D02*
X105177Y109840D01*
X104267Y109233D01*
X103660Y108323D01*
X103446Y107250D01*
X103660Y106177D01*
X104267Y105267D01*
X105177Y104660D01*
X106250Y104446D01*
X107323Y104660D01*
X108233Y105267D01*
X108840Y106177D01*
X109054Y107250D01*
X108840Y108323D01*
X108233Y109233D01*
X107323Y109840D01*
X106250Y110054D01*
D02*
G37*
G36*
X209500Y109554D02*
X208427Y109340D01*
X207517Y108733D01*
X206910Y107823D01*
X206696Y106750D01*
X206910Y105677D01*
X207517Y104767D01*
X208427Y104160D01*
X209500Y103946D01*
X210573Y104160D01*
X211483Y104767D01*
X212090Y105677D01*
X212304Y106750D01*
X212090Y107823D01*
X211483Y108733D01*
X210573Y109340D01*
X209500Y109554D01*
D02*
G37*
G36*
X93500Y105804D02*
X92427Y105590D01*
X91517Y104983D01*
X90910Y104073D01*
X90696Y103000D01*
X90910Y101927D01*
X91517Y101017D01*
X92427Y100410D01*
X93500Y100196D01*
X94573Y100410D01*
X95483Y101017D01*
X96090Y101927D01*
X96304Y103000D01*
X96090Y104073D01*
X95483Y104983D01*
X94573Y105590D01*
X93500Y105804D01*
D02*
G37*
G36*
X170750Y105319D02*
X169384Y105047D01*
X168227Y104273D01*
X167453Y103116D01*
X167181Y101750D01*
X167453Y100384D01*
X168227Y99227D01*
X169384Y98453D01*
X170750Y98181D01*
X172116Y98453D01*
X173273Y99227D01*
X174047Y100384D01*
X174319Y101750D01*
X174047Y103116D01*
X173273Y104273D01*
X172116Y105047D01*
X170750Y105319D01*
D02*
G37*
G36*
X159750D02*
X158384Y105047D01*
X157227Y104273D01*
X156453Y103116D01*
X156181Y101750D01*
X156453Y100384D01*
X157227Y99227D01*
X158384Y98453D01*
X159750Y98181D01*
X161116Y98453D01*
X162273Y99227D01*
X163047Y100384D01*
X163319Y101750D01*
X163047Y103116D01*
X162273Y104273D01*
X161116Y105047D01*
X159750Y105319D01*
D02*
G37*
G36*
X110125Y101554D02*
X109052Y101340D01*
X108142Y100733D01*
X107535Y99823D01*
X107321Y98750D01*
X107535Y97677D01*
X108142Y96767D01*
X109052Y96160D01*
X110125Y95946D01*
X111198Y96160D01*
X112108Y96767D01*
X112715Y97677D01*
X112929Y98750D01*
X112715Y99823D01*
X112108Y100733D01*
X111198Y101340D01*
X110125Y101554D01*
D02*
G37*
G36*
X138750Y100054D02*
X137677Y99840D01*
X136767Y99233D01*
X136160Y98323D01*
X135946Y97250D01*
X136160Y96177D01*
X136767Y95267D01*
X137677Y94660D01*
X138750Y94446D01*
X139823Y94660D01*
X140733Y95267D01*
X141341Y96177D01*
X141554Y97250D01*
X141341Y98323D01*
X140733Y99233D01*
X139823Y99840D01*
X138750Y100054D01*
D02*
G37*
G36*
X129450Y95554D02*
X128377Y95340D01*
X127467Y94733D01*
X126860Y93823D01*
X126646Y92750D01*
X126860Y91677D01*
X127467Y90767D01*
X128377Y90160D01*
X129450Y89946D01*
X130523Y90160D01*
X131433Y90767D01*
X132040Y91677D01*
X132254Y92750D01*
X132040Y93823D01*
X131433Y94733D01*
X130523Y95340D01*
X129450Y95554D01*
D02*
G37*
G36*
X204500Y92804D02*
X203427Y92591D01*
X202517Y91983D01*
X201910Y91073D01*
X201696Y90000D01*
X201910Y88927D01*
X202517Y88018D01*
X203427Y87410D01*
X204500Y87196D01*
X205573Y87410D01*
X206483Y88018D01*
X207090Y88927D01*
X207304Y90000D01*
X207090Y91073D01*
X206483Y91983D01*
X205573Y92591D01*
X204500Y92804D01*
D02*
G37*
G36*
X170750Y94319D02*
X169384Y94047D01*
X168227Y93273D01*
X167453Y92116D01*
X167181Y90750D01*
X167453Y89384D01*
X168227Y88227D01*
X169384Y87453D01*
X170750Y87181D01*
X172116Y87453D01*
X173273Y88227D01*
X174047Y89384D01*
X174319Y90750D01*
X174047Y92116D01*
X173273Y93273D01*
X172116Y94047D01*
X170750Y94319D01*
D02*
G37*
G36*
X159750D02*
X158384Y94047D01*
X157227Y93273D01*
X156453Y92116D01*
X156181Y90750D01*
X156453Y89384D01*
X157227Y88227D01*
X158384Y87453D01*
X159750Y87181D01*
X161116Y87453D01*
X162273Y88227D01*
X163047Y89384D01*
X163319Y90750D01*
X163047Y92116D01*
X162273Y93273D01*
X161116Y94047D01*
X159750Y94319D01*
D02*
G37*
G36*
X180000Y91419D02*
X178927Y91205D01*
X178017Y90597D01*
X177409Y89688D01*
X177196Y88615D01*
X177409Y87542D01*
X178017Y86632D01*
X178927Y86024D01*
X180000Y85811D01*
X181073Y86024D01*
X181982Y86632D01*
X182590Y87542D01*
X182804Y88615D01*
X182590Y89688D01*
X181982Y90597D01*
X181073Y91205D01*
X180000Y91419D01*
D02*
G37*
G36*
X274250Y88054D02*
X273177Y87840D01*
X272267Y87233D01*
X271660Y86323D01*
X271446Y85250D01*
X271660Y84177D01*
X272267Y83267D01*
X273177Y82660D01*
X274250Y82446D01*
X275323Y82660D01*
X276233Y83267D01*
X276840Y84177D01*
X277054Y85250D01*
X276840Y86323D01*
X276233Y87233D01*
X275323Y87840D01*
X274250Y88054D01*
D02*
G37*
G36*
X193000Y88804D02*
X191927Y88590D01*
X191017Y87983D01*
X190410Y87073D01*
X190196Y86000D01*
X190410Y84927D01*
X191017Y84017D01*
X191927Y83410D01*
X193000Y83196D01*
X194073Y83410D01*
X194437Y82540D01*
X194459Y82427D01*
X195067Y81517D01*
X195977Y80910D01*
X197050Y80696D01*
X198123Y80910D01*
X199032Y81517D01*
X199640Y82427D01*
X199854Y83500D01*
X199640Y84573D01*
X199032Y85483D01*
X198123Y86090D01*
X197050Y86304D01*
X195977Y86090D01*
X195613Y86960D01*
X195590Y87073D01*
X194983Y87983D01*
X194073Y88590D01*
X193000Y88804D01*
D02*
G37*
G36*
X255250Y80304D02*
X254177Y80090D01*
X253267Y79483D01*
X252660Y78573D01*
X252446Y77500D01*
X252660Y76427D01*
X253190Y75634D01*
X253293Y75250D01*
Y74750D01*
X253190Y74366D01*
X252660Y73573D01*
X252446Y72500D01*
X252660Y71427D01*
X253267Y70517D01*
X254177Y69910D01*
X255250Y69696D01*
X256323Y69910D01*
X257233Y70517D01*
X257840Y71427D01*
X258054Y72500D01*
X257840Y73573D01*
X257310Y74366D01*
X257207Y74750D01*
Y75250D01*
X257310Y75634D01*
X257840Y76427D01*
X258054Y77500D01*
X257840Y78573D01*
X257233Y79483D01*
X256323Y80090D01*
X255250Y80304D01*
D02*
G37*
G36*
X268250Y72554D02*
X267177Y72340D01*
X266267Y71733D01*
X265660Y70823D01*
X265446Y69750D01*
X265660Y68677D01*
X266267Y67767D01*
X267177Y67160D01*
X268250Y66946D01*
X269323Y67160D01*
X270233Y67767D01*
X270840Y68677D01*
X271054Y69750D01*
X270840Y70823D01*
X270233Y71733D01*
X269323Y72340D01*
X268250Y72554D01*
D02*
G37*
G36*
X278000Y68804D02*
X276927Y68590D01*
X276017Y67983D01*
X275410Y67073D01*
X275196Y66000D01*
X275410Y64927D01*
X276017Y64017D01*
X276927Y63410D01*
X278000Y63196D01*
X279073Y63410D01*
X279982Y64017D01*
X280590Y64927D01*
X280804Y66000D01*
X280590Y67073D01*
X279982Y67983D01*
X279073Y68590D01*
X278000Y68804D01*
D02*
G37*
G36*
X301750Y66304D02*
X300677Y66090D01*
X299767Y65483D01*
X299160Y64573D01*
X298946Y63500D01*
X299160Y62427D01*
X299767Y61517D01*
X300677Y60910D01*
X301750Y60696D01*
X302823Y60910D01*
X303733Y61517D01*
X304340Y62427D01*
X304554Y63500D01*
X304340Y64573D01*
X303733Y65483D01*
X302823Y66090D01*
X301750Y66304D01*
D02*
G37*
G36*
X268250Y64804D02*
X267177Y64590D01*
X266267Y63983D01*
X265660Y63073D01*
X265446Y62000D01*
X265660Y60927D01*
X266267Y60017D01*
X267177Y59410D01*
X268250Y59196D01*
X269323Y59410D01*
X270233Y60017D01*
X270840Y60927D01*
X271054Y62000D01*
X270840Y63073D01*
X270233Y63983D01*
X269323Y64590D01*
X268250Y64804D01*
D02*
G37*
G36*
X350408Y64804D02*
X349335Y64590D01*
X348425Y63983D01*
X347817Y63073D01*
X347604Y62000D01*
X347817Y60927D01*
X348425Y60017D01*
X349335Y59409D01*
X350408Y59196D01*
X351481Y59409D01*
X352390Y60017D01*
X352998Y60927D01*
X353212Y62000D01*
X352998Y63073D01*
X352390Y63983D01*
X351481Y64590D01*
X350408Y64804D01*
D02*
G37*
G36*
X294250Y64554D02*
X293177Y64340D01*
X292267Y63733D01*
X291660Y62823D01*
X291446Y61750D01*
X291660Y60677D01*
X292267Y59767D01*
Y59233D01*
X291660Y58323D01*
X291446Y57250D01*
X291660Y56177D01*
X292267Y55267D01*
X293177Y54660D01*
X294250Y54446D01*
X295323Y54660D01*
X296233Y55267D01*
X296840Y56177D01*
X297054Y57250D01*
X296840Y58323D01*
X296233Y59233D01*
Y59767D01*
X296840Y60677D01*
X297054Y61750D01*
X296840Y62823D01*
X296233Y63733D01*
X295323Y64340D01*
X294250Y64554D01*
D02*
G37*
G36*
X288250Y52804D02*
X287177Y52590D01*
X286267Y51983D01*
X285660Y51073D01*
X285446Y50000D01*
X285660Y48927D01*
X286267Y48017D01*
X287177Y47410D01*
X288250Y47196D01*
X289323Y47410D01*
X290233Y48017D01*
X290840Y48927D01*
X291054Y50000D01*
X290840Y51073D01*
X290233Y51983D01*
X289323Y52590D01*
X288250Y52804D01*
D02*
G37*
G36*
X680000Y200804D02*
X678927Y200590D01*
X678704Y200441D01*
X677750Y200083D01*
X676796Y200441D01*
X676573Y200590D01*
X675500Y200804D01*
X674427Y200590D01*
X673517Y199983D01*
X672983D01*
X672073Y200590D01*
X671000Y200804D01*
X669927Y200590D01*
X669017Y199983D01*
X668410Y199073D01*
X668196Y198000D01*
X668410Y196927D01*
X669017Y196017D01*
X669927Y195410D01*
X671000Y195196D01*
X672073Y195410D01*
X672983Y196017D01*
X673517D01*
X674427Y195410D01*
X675500Y195196D01*
X676573Y195410D01*
X676796Y195559D01*
X677750Y195917D01*
X678704Y195559D01*
X678927Y195410D01*
X680000Y195196D01*
X681073Y195410D01*
X681983Y196017D01*
X682590Y196927D01*
X682804Y198000D01*
X682590Y199073D01*
X681983Y199983D01*
X681073Y200590D01*
X680000Y200804D01*
D02*
G37*
G36*
X632908Y203054D02*
X631835Y202840D01*
X630925Y202233D01*
X630317Y201323D01*
X630104Y200250D01*
X630317Y199177D01*
X630925Y198267D01*
X631835Y197660D01*
X632908Y197446D01*
X633981Y197660D01*
X634890Y198267D01*
X635498Y199177D01*
X635712Y200250D01*
X635498Y201323D01*
X634890Y202233D01*
X633981Y202840D01*
X632908Y203054D01*
D02*
G37*
G36*
X617250Y206804D02*
X616177Y206590D01*
X615267Y205983D01*
X614660Y205073D01*
X614496Y204250D01*
X614000Y203054D01*
X612927Y202840D01*
X612017Y202233D01*
X611410Y201323D01*
X611294Y200741D01*
X610750Y199554D01*
X609677Y199340D01*
X608767Y198733D01*
X608160Y197823D01*
X607946Y196750D01*
X608160Y195677D01*
X608767Y194767D01*
X609677Y194160D01*
X610750Y193946D01*
X611823Y194160D01*
X612733Y194767D01*
X613340Y195677D01*
X613456Y196259D01*
X614000Y197446D01*
X615073Y197660D01*
X615983Y198267D01*
X616590Y199177D01*
X616754Y200000D01*
X617250Y201196D01*
X618323Y201410D01*
X619233Y202017D01*
X619840Y202927D01*
X620054Y204000D01*
X619840Y205073D01*
X619233Y205983D01*
X618323Y206590D01*
X617250Y206804D01*
D02*
G37*
G36*
X647908Y195804D02*
X646835Y195590D01*
X645925Y194983D01*
X645318Y194073D01*
X645104Y193000D01*
X645318Y191927D01*
X645925Y191017D01*
X646835Y190410D01*
X647908Y190196D01*
X648981Y190410D01*
X649891Y191017D01*
X650498Y191927D01*
X650712Y193000D01*
X650498Y194073D01*
X649891Y194983D01*
X648981Y195590D01*
X647908Y195804D01*
D02*
G37*
G36*
X710000Y169954D02*
X708927Y169740D01*
X708017Y169132D01*
X707410Y168223D01*
X707196Y167150D01*
X707410Y166077D01*
X708017Y165167D01*
X708927Y164559D01*
X710000Y164346D01*
X711073Y164559D01*
X711983Y165167D01*
X712590Y166077D01*
X712804Y167150D01*
X712590Y168223D01*
X711983Y169132D01*
X711073Y169740D01*
X710000Y169954D01*
D02*
G37*
G36*
X711098Y159602D02*
X710025Y159389D01*
X709116Y158781D01*
X708508Y157871D01*
X708295Y156798D01*
X708508Y155725D01*
X709116Y154816D01*
X710025Y154208D01*
X711098Y153994D01*
X712171Y154208D01*
X713081Y154816D01*
X713689Y155725D01*
X713902Y156798D01*
X713689Y157871D01*
X713081Y158781D01*
X712171Y159389D01*
X711098Y159602D01*
D02*
G37*
G36*
X711098Y151902D02*
X710025Y151689D01*
X709116Y151081D01*
X708508Y150171D01*
X708295Y149098D01*
X708508Y148025D01*
X709116Y147116D01*
X709732Y146704D01*
X709739Y146685D01*
X709806Y145598D01*
X709732Y145293D01*
X709267Y144983D01*
X708660Y144073D01*
X708446Y143000D01*
X708660Y141927D01*
X709267Y141017D01*
X710177Y140410D01*
X711250Y140196D01*
X712323Y140410D01*
X713233Y141017D01*
X713840Y141927D01*
X714054Y143000D01*
X713840Y144073D01*
X713233Y144983D01*
X712617Y145394D01*
X712609Y145413D01*
X712543Y146500D01*
X712617Y146805D01*
X713081Y147116D01*
X713689Y148025D01*
X713902Y149098D01*
X713689Y150171D01*
X713081Y151081D01*
X712171Y151689D01*
X711098Y151902D01*
D02*
G37*
G36*
X644658Y64054D02*
X643585Y63840D01*
X642675Y63233D01*
X642067Y62323D01*
X641854Y61250D01*
X642067Y60177D01*
X642675Y59267D01*
X643585Y58660D01*
X644658Y58446D01*
X645731Y58660D01*
X646640Y59267D01*
X647248Y60177D01*
X647462Y61250D01*
X647248Y62323D01*
X646640Y63233D01*
X645731Y63840D01*
X644658Y64054D01*
D02*
G37*
G36*
X721100Y56804D02*
X720027Y56590D01*
X719117Y55983D01*
X718510Y55073D01*
X718296Y54000D01*
X718510Y52927D01*
X719117Y52017D01*
X720027Y51410D01*
X721100Y51196D01*
X722173Y51410D01*
X723083Y52017D01*
X723690Y52927D01*
X723904Y54000D01*
X723690Y55073D01*
X723083Y55983D01*
X722173Y56590D01*
X721100Y56804D01*
D02*
G37*
G36*
X674908Y55304D02*
X673835Y55090D01*
X672925Y54483D01*
X672317Y53573D01*
X672104Y52500D01*
X672317Y51427D01*
X672925Y50517D01*
X673835Y49910D01*
X674908Y49696D01*
X675981Y49910D01*
X676890Y50517D01*
X677498Y51427D01*
X677711Y52500D01*
X677498Y53573D01*
X676890Y54483D01*
X675981Y55090D01*
X674908Y55304D01*
D02*
G37*
G36*
X751750Y53804D02*
X750677Y53590D01*
X749767Y52983D01*
X749160Y52073D01*
X748946Y51000D01*
X749160Y49927D01*
X749767Y49017D01*
X750677Y48410D01*
X751750Y48196D01*
X752823Y48410D01*
X753733Y49017D01*
X754341Y49927D01*
X754554Y51000D01*
X754341Y52073D01*
X753733Y52983D01*
X752823Y53590D01*
X751750Y53804D01*
D02*
G37*
G36*
X644158Y31554D02*
X643085Y31340D01*
X642175Y30733D01*
X641567Y29823D01*
X641354Y28750D01*
X641567Y27677D01*
X642175Y26767D01*
X643085Y26160D01*
X644158Y25946D01*
X645231Y26160D01*
X646140Y26767D01*
X646748Y27677D01*
X646962Y28750D01*
X646748Y29823D01*
X646140Y30733D01*
X645231Y31340D01*
X644158Y31554D01*
D02*
G37*
G36*
X710000Y22304D02*
X708927Y22091D01*
X708017Y21483D01*
X707410Y20573D01*
X707196Y19500D01*
X707410Y18427D01*
X708017Y17518D01*
X708927Y16910D01*
X710000Y16696D01*
X711073Y16910D01*
X711983Y17518D01*
X712590Y18427D01*
X712804Y19500D01*
X712590Y20573D01*
X711983Y21483D01*
X711073Y22091D01*
X710000Y22304D01*
D02*
G37*
G36*
X662350Y18118D02*
X660009Y17652D01*
X658024Y16326D01*
X656698Y14341D01*
X656647Y14086D01*
X655353D01*
X655302Y14341D01*
X653976Y16326D01*
X651991Y17652D01*
X649650Y18118D01*
X647309Y17652D01*
X645324Y16326D01*
X643998Y14341D01*
X643532Y12000D01*
X643998Y9659D01*
X645324Y7674D01*
X647309Y6348D01*
X649650Y5882D01*
X651991Y6348D01*
X653976Y7674D01*
X655302Y9659D01*
X655353Y9914D01*
X656647D01*
X656698Y9659D01*
X658024Y7674D01*
X660009Y6348D01*
X662350Y5882D01*
X664691Y6348D01*
X666676Y7674D01*
X668002Y9659D01*
X668467Y12000D01*
X668002Y14341D01*
X666676Y16326D01*
X664691Y17652D01*
X662350Y18118D01*
D02*
G37*
G36*
X651158Y78554D02*
X650085Y78340D01*
X649175Y77733D01*
X648567Y76823D01*
X648553Y76750D01*
X643852Y72049D01*
X640250D01*
X639274Y71855D01*
X638448Y71302D01*
X634448Y67302D01*
X633895Y66476D01*
X633701Y65500D01*
Y56500D01*
X633895Y55525D01*
X634448Y54698D01*
X645198Y43948D01*
X646024Y43395D01*
X647000Y43201D01*
X657469D01*
X692170Y8500D01*
X692185Y8427D01*
X692792Y7518D01*
X693702Y6910D01*
X694775Y6696D01*
X695848Y6910D01*
X696758Y7518D01*
X697365Y8427D01*
X697579Y9500D01*
X697365Y10573D01*
X696758Y11483D01*
X695848Y12091D01*
X695775Y12105D01*
X660328Y47552D01*
X659501Y48105D01*
X658525Y48299D01*
X648056D01*
X638799Y57556D01*
Y64444D01*
X641306Y66951D01*
X644908D01*
X645883Y67145D01*
X646710Y67698D01*
X652158Y73145D01*
X652231Y73159D01*
X653140Y73767D01*
X653748Y74677D01*
X653962Y75750D01*
X653748Y76823D01*
X653140Y77733D01*
X652231Y78340D01*
X651158Y78554D01*
D02*
G37*
%LPD*%
D10*
X444750Y189500D02*
Y199000D01*
X441250Y186000D02*
X444750Y189500D01*
X441250Y182675D02*
Y186000D01*
X427596Y193500D02*
X446846Y174250D01*
X328750Y193500D02*
X427596D01*
X140500Y208250D02*
X178000D01*
X139000Y209750D02*
X140500Y208250D01*
X302421Y161250D02*
X325172Y184000D01*
X209500Y148000D02*
X256828D01*
X270078Y161250D02*
X302421D01*
X256828Y148000D02*
X270078Y161250D01*
X269250Y163250D02*
X298500D01*
X257500Y151500D02*
X269250Y163250D01*
X222500Y151500D02*
X257500D01*
X607750Y84500D02*
X609500Y82750D01*
Y75250D02*
Y82750D01*
X608000Y73750D02*
X609500Y75250D01*
X601250Y73750D02*
X608000D01*
X577500Y50000D02*
X601250Y73750D01*
X605750Y92500D02*
X618408Y105158D01*
X605750Y89500D02*
Y92500D01*
X494500Y98250D02*
X502750Y90000D01*
X494500Y98250D02*
Y104000D01*
X491500Y107000D02*
X494500Y104000D01*
X491500Y107000D02*
Y138219D01*
X502750Y90000D02*
X506500D01*
X510000Y86500D01*
Y77226D02*
Y86500D01*
Y77226D02*
X520750Y66476D01*
Y62000D02*
Y66476D01*
X517000Y58250D02*
X520750Y62000D01*
X513136Y58250D02*
X517000D01*
X511136Y56250D02*
X513136Y58250D01*
X502689Y56250D02*
X511136D01*
X501529Y55090D02*
X502689Y56250D01*
X497651Y55090D02*
X501529D01*
X485158Y42596D02*
X497651Y55090D01*
X485158Y34158D02*
Y42596D01*
X481000Y30000D02*
X485158Y34158D01*
X466000Y14500D02*
X487500D01*
X448750Y31750D02*
X466000Y14500D01*
X429000Y31750D02*
X448750D01*
X538750Y36250D02*
X542750Y40250D01*
X549750Y29000D02*
X570750Y50000D01*
X528000Y34250D02*
X533250Y29000D01*
X549750D01*
X542750Y40250D02*
X550250D01*
X565908Y55908D01*
Y62061D01*
X569597Y65750D01*
X582000D01*
X605750Y89500D01*
X618408Y105158D02*
Y109096D01*
X622483Y113171D01*
X624921D01*
X625000Y113250D01*
X562156Y118250D02*
X571423D01*
X560203Y116296D02*
X562156Y118250D01*
X560203Y104880D02*
Y116296D01*
Y104880D02*
X563453Y101630D01*
X522558Y34250D02*
X528000D01*
X510308Y22000D02*
X522558Y34250D01*
X495000Y22000D02*
X510308D01*
X570750Y50000D02*
X577500D01*
X607750Y84500D02*
Y89246D01*
X571423Y118250D02*
X577408Y124235D01*
X588001Y109000D02*
X595250D01*
X578158Y118843D02*
X588001Y109000D01*
X271000Y157250D02*
X304250D01*
X423750Y158000D02*
X427000Y161250D01*
X304250Y157250D02*
X327000Y180000D01*
X325172Y184000D02*
X341907D01*
X351907Y174000D01*
X372500D01*
X376000Y170500D01*
X481000Y17750D02*
Y30000D01*
X488209Y141511D02*
X491500Y138219D01*
X478239Y141511D02*
X488209D01*
X469000Y150750D02*
X478239Y141511D01*
X469000Y150750D02*
Y170346D01*
X463096Y176250D02*
X469000Y170346D01*
X447674Y176250D02*
X463096D01*
X441250Y182675D02*
X447674Y176250D01*
X446846Y174250D02*
X460500D01*
X465750Y169000D01*
X298500Y163250D02*
X328750Y193500D01*
X217000Y157000D02*
X222500Y151500D01*
X153798Y182548D02*
X162500Y173846D01*
X153798Y182548D02*
Y190606D01*
X136654Y207750D02*
X153798Y190606D01*
X116375Y207750D02*
X136654D01*
X228750Y182750D02*
X235250D01*
X217000Y171000D02*
X228750Y182750D01*
X217000Y157000D02*
Y171000D01*
X340250Y180000D02*
X346750Y173500D01*
Y164917D02*
Y173500D01*
Y164917D02*
X381667Y130000D01*
X327000Y180000D02*
X340250D01*
X292750Y110250D02*
X298164D01*
X287250Y104750D02*
X292750Y110250D01*
X287250Y95250D02*
Y104750D01*
X285250Y93250D02*
X287250Y95250D01*
X285250Y75750D02*
Y93250D01*
X383750Y54250D02*
X386750D01*
X388750Y56250D01*
X117203Y209750D02*
X139000D01*
X178000Y208250D02*
X197250Y189000D01*
X307000Y70250D02*
X316250Y61000D01*
X290750Y70250D02*
X307000D01*
X285250Y75750D02*
X290750Y70250D01*
X298164Y110250D02*
X299914Y108500D01*
X300000D01*
X409500Y51250D02*
X429000Y31750D01*
X397750Y51250D02*
X409500D01*
X639593Y83750D02*
X654828D01*
X666079Y72500D02*
X676908D01*
X654828Y83750D02*
X666079Y72500D01*
X665500Y70250D02*
X673408D01*
X654000Y81750D02*
X665500Y70250D01*
X643858Y81750D02*
X654000D01*
X26250Y217000D02*
X109953D01*
X117203Y209750D01*
X109125Y215000D02*
X116375Y207750D01*
X27078Y215000D02*
X109125D01*
X162500Y169750D02*
Y173846D01*
X159250Y166500D02*
X162500Y169750D01*
X13500Y179172D02*
Y201422D01*
X8000Y92500D02*
Y173672D01*
X13500Y179172D01*
X11500Y180000D02*
Y202250D01*
X6000Y174500D02*
X11500Y180000D01*
X6000Y94500D02*
Y174500D01*
X11500Y202250D02*
X26250Y217000D01*
X13500Y201422D02*
X27078Y215000D01*
X-2750Y75500D02*
X2750Y81000D01*
Y87250D01*
X8000Y92500D01*
X6000Y93596D02*
Y94500D01*
X-6750Y80846D02*
X6000Y93596D01*
X139375Y125875D02*
Y157375D01*
X108000Y188750D02*
X139375Y157375D01*
X108000Y188750D02*
Y192000D01*
X377750Y54250D02*
X383750D01*
X388750Y56250D02*
X392750D01*
X397750Y51250D01*
X6000Y94500D02*
X6000Y94500D01*
X17250Y126250D02*
X20000D01*
X14500Y129000D02*
X17250Y126250D01*
X14500Y129000D02*
Y167250D01*
X25000Y76750D02*
Y121250D01*
X20000Y126250D02*
X25000Y121250D01*
X14500Y167250D02*
X18250Y171000D01*
X367750Y64250D02*
Y73250D01*
X364250Y76750D02*
X367750Y73250D01*
X344500Y76750D02*
X364250D01*
X328750Y61000D02*
X344500Y76750D01*
X-6750Y66000D02*
Y80846D01*
Y66000D02*
X-4000Y63250D01*
X25000Y76750D02*
X31750Y70000D01*
X-2750Y72000D02*
Y75500D01*
X367750Y64250D02*
X377750Y54250D01*
X487500Y14500D02*
X495000Y22000D01*
X316250Y61000D02*
X328750D01*
X607750Y89246D02*
X635750Y117246D01*
Y136250D01*
X427000Y161250D02*
Y185250D01*
X467204Y26546D02*
X476000Y17750D01*
X467204Y26546D02*
Y42954D01*
X465204Y22146D02*
Y43782D01*
Y22146D02*
X469550Y17800D01*
X465204Y43782D02*
X468250Y46828D01*
Y79408D01*
X465158Y82500D02*
X468250Y79408D01*
X466504Y85750D02*
X470250Y82004D01*
Y46000D02*
Y82004D01*
X467204Y42954D02*
X470250Y46000D01*
X656658Y138453D02*
X659250Y135861D01*
Y113000D02*
Y135861D01*
X641908Y95658D02*
X659250Y113000D01*
X629658Y78411D02*
X641908Y90661D01*
Y95658D01*
X641458Y136500D02*
X648458Y143500D01*
X653500D01*
X655000Y142000D01*
X658250D01*
X666908Y133342D01*
Y121000D02*
Y133342D01*
X656658Y138453D02*
Y138500D01*
X460243Y85750D02*
X466504D01*
X458493Y84000D02*
X460243Y85750D01*
X458408Y84000D02*
X458493D01*
X666908Y121000D02*
X676908Y111000D01*
X577158Y173828D02*
X580908Y170078D01*
Y150846D02*
Y170078D01*
Y150846D02*
X587658Y144096D01*
X569158Y179000D02*
X578908Y169250D01*
Y149743D02*
Y169250D01*
Y149743D02*
X580658Y147993D01*
X577158Y173828D02*
Y185250D01*
X579658Y130391D02*
X587658Y138391D01*
Y144096D01*
X577408Y130969D02*
X580658Y134219D01*
Y147993D01*
X569158Y181750D02*
X572658Y185250D01*
X569158Y179000D02*
Y181750D01*
X629658Y75500D02*
Y78411D01*
X577408Y124235D02*
Y130969D01*
X579658Y123657D02*
Y130391D01*
X578158Y122157D02*
X579658Y123657D01*
X578158Y118843D02*
Y122157D01*
X632943Y77100D02*
X639593Y83750D01*
X638608Y76500D02*
X643858Y81750D01*
X673408Y70250D02*
X676908Y66750D01*
X676908Y72500D02*
Y111000D01*
X629658Y75500D02*
X631308Y73850D01*
X635958D01*
X638608Y76500D01*
D11*
X482643Y122500D02*
X486862Y118280D01*
X478158Y122500D02*
X482643D01*
X475158Y119500D02*
X478158Y122500D01*
X462158Y119500D02*
X475158D01*
D12*
X381667Y135000D02*
X416500D01*
X425750Y144250D01*
D14*
X473602Y125000D02*
X486862Y138261D01*
X452408Y125000D02*
X473602D01*
X450408Y123000D02*
X452408Y125000D01*
X516783Y47755D02*
X527255D01*
X515278Y46250D02*
X516783Y47755D01*
X508647Y46250D02*
X515278D01*
X505908Y43510D02*
X508647Y46250D01*
X505908Y35965D02*
Y43510D01*
X536500Y57000D02*
X541750D01*
X527255Y47755D02*
X536500Y57000D01*
X548000Y32000D02*
X570090Y54090D01*
X534493Y32000D02*
X548000D01*
X529243Y37250D02*
X534493Y32000D01*
X570090Y54090D02*
X576840D01*
X557203Y117539D02*
X561274Y121610D01*
X541750Y57000D02*
X557203Y72453D01*
Y117539D01*
X561274Y121610D02*
X570113D01*
X521000Y37250D02*
X529243D01*
X516500Y32750D02*
X521000Y37250D01*
X505908Y35965D02*
X509122Y32750D01*
X516500D01*
X576840Y54090D02*
X599950Y77200D01*
X605550D01*
X539408Y143343D02*
X542611Y146547D01*
X647000Y45750D02*
X658525D01*
X636250Y56500D02*
X647000Y45750D01*
X636250Y56500D02*
Y65500D01*
X640250Y69500D02*
X644908D01*
X636250Y65500D02*
X640250Y69500D01*
X644908D02*
X651158Y75750D01*
X479282Y112540D02*
X480202Y111621D01*
X457948Y112540D02*
X479282D01*
X456158Y110750D02*
X457948Y112540D01*
X446750Y110750D02*
X456158D01*
X440250Y117250D02*
X446750Y110750D01*
X440250Y126092D02*
X451158Y137000D01*
X440250Y117250D02*
Y126092D01*
X705158Y87750D02*
X706250D01*
X679908Y62500D02*
X705158Y87750D01*
X681408Y74592D02*
X696250Y89434D01*
Y131750D01*
X658525Y45750D02*
X694775Y9500D01*
X508408Y182250D02*
X519408Y171250D01*
X497658Y182250D02*
X508408D01*
X531908Y149750D02*
X534408Y152250D01*
X528789Y149750D02*
X531908D01*
X526958Y151581D02*
X528789Y149750D01*
X534408Y152250D02*
Y164500D01*
X527658Y171250D02*
X534408Y164500D01*
X519408Y171250D02*
X527658D01*
X526823Y151581D02*
X526958D01*
D18*
X478908Y167750D02*
X481908D01*
X489908Y159750D01*
X491363D01*
X513908Y139250D02*
X534408D01*
X511158Y142000D02*
X513908Y139250D01*
X501908Y142000D02*
X511158D01*
X535315Y139250D02*
X539408Y143343D01*
X534408Y139250D02*
X535315D01*
X534408Y139250D02*
X534408Y139250D01*
X491363Y159750D02*
X496852Y154261D01*
Y147055D02*
Y148785D01*
Y147055D02*
X501908Y142000D01*
D150*
X128400Y13500D02*
D03*
X141100D02*
D03*
X166500D02*
D03*
D153*
X17250Y177250D02*
Y192750D01*
X485908Y187342D02*
Y195500D01*
X498050Y175200D02*
X501958D01*
X485908Y187342D02*
X498050Y175200D01*
X17250Y192750D02*
Y197000D01*
X11250Y171250D02*
X17250Y177250D01*
X11250Y96000D02*
Y171250D01*
Y96000D02*
X18000Y89250D01*
X6000Y18500D02*
Y32750D01*
X18000Y69250D02*
Y89250D01*
X12250Y63500D02*
X18000Y69250D01*
X12250Y39000D02*
Y63500D01*
X6000Y32750D02*
X12250Y39000D01*
X516833Y154911D02*
X523493Y161571D01*
X521658Y166500D02*
X525223D01*
X518158Y163000D02*
X521658Y166500D01*
X510167Y163000D02*
X518158D01*
X505408Y158241D02*
X510167Y163000D01*
X525223Y166500D02*
X526823Y164901D01*
X505408Y150146D02*
Y158241D01*
X500182D02*
X505408D01*
X503512Y148251D02*
X505408Y150146D01*
D155*
X433000Y151500D02*
X435958Y148542D01*
X423000Y151500D02*
X433000D01*
X410750Y163750D02*
X423000Y151500D01*
X435958Y138800D02*
Y148542D01*
X378250Y187500D02*
X402000Y163750D01*
X371500Y187500D02*
X378250D01*
X402000Y163750D02*
X410750D01*
D156*
X228250Y194300D02*
X241200Y207250D01*
X391750Y209500D02*
X400000D01*
X388250Y213000D02*
X391750Y209500D01*
X268750Y213000D02*
X388250D01*
X601000Y98342D02*
X610408Y107750D01*
X601000Y91918D02*
Y98342D01*
X579571Y70489D02*
X601000Y91918D01*
X533750Y46000D02*
X549500D01*
X530000Y42250D02*
X533750Y46000D01*
X518408Y42250D02*
X530000D01*
X513908Y37750D02*
X518408Y42250D01*
X561908Y58408D02*
Y64500D01*
X549500Y46000D02*
X561908Y58408D01*
X562188Y209500D02*
X564938Y212250D01*
X528000Y209500D02*
X562188D01*
X524250Y205750D02*
X528000Y209500D01*
X263000Y207250D02*
X268750Y213000D01*
X241200Y207250D02*
X263000D01*
X750000Y144825D02*
Y160400D01*
X729000Y136000D02*
X741175D01*
X750000Y144825D01*
X720500Y184000D02*
X738500D01*
X400000Y209500D02*
X406000Y215500D01*
X499750D02*
X504750Y210500D01*
X406000Y215500D02*
X499750D01*
X567896Y70489D02*
X579571D01*
X734000Y212250D02*
X744750Y201500D01*
X564938Y212250D02*
X734000D01*
X509500Y205750D02*
X524250D01*
X504750Y210500D02*
X509500Y205750D01*
X738500Y184000D02*
X744750Y190250D01*
X738500Y184000D02*
X743500Y179000D01*
Y166900D02*
Y179000D01*
Y166900D02*
X750000Y160400D01*
X744750Y190250D02*
Y201500D01*
X746000Y79075D02*
Y83750D01*
X738500Y91250D02*
X746000Y83750D01*
X734250Y91250D02*
X738500D01*
X709250Y116250D02*
X734250Y91250D01*
X743750Y76825D02*
X746000Y79075D01*
X743750Y55575D02*
Y76825D01*
X724175Y36000D02*
X743750Y55575D01*
X120750Y162000D02*
X128250D01*
X119500D02*
X120750D01*
X709250Y116250D02*
X729000Y136000D01*
X581408Y180500D02*
X597908D01*
X561908Y64500D02*
X567896Y70489D01*
X585908Y152000D02*
X602658D01*
X582158Y120500D02*
X609158D01*
X602658Y152000D02*
X618408Y136250D01*
D157*
X564598Y148251D02*
X569307D01*
X486862Y145455D02*
Y150931D01*
X566783Y131600D02*
X570113Y134930D01*
X576773D01*
X496852Y148785D02*
Y154261D01*
D160*
X455000Y132250D02*
X459500Y136750D01*
X452772Y132250D02*
X455000D01*
X266500Y151000D02*
X274750D01*
X258250Y142750D02*
X266500Y151000D01*
X191000Y142750D02*
X258250D01*
X274750Y151000D02*
X276750Y153000D01*
X454408Y166137D02*
X459500Y161045D01*
X185000Y148750D02*
Y160250D01*
X158767D02*
X185000D01*
X187750Y163000D01*
X196950D01*
X228250Y194300D01*
X185000Y148750D02*
X191000Y142750D01*
X276750Y153000D02*
X307250D01*
X119750Y191250D02*
X124500Y186500D01*
X119750Y191250D02*
Y193750D01*
X124500Y186500D02*
X144000D01*
X114250Y199250D02*
X119750Y193750D01*
X110697Y199250D02*
X114250D01*
X445158Y124636D02*
X452772Y132250D01*
X203250Y75250D02*
X211000Y83000D01*
X307250Y153000D02*
X321750D01*
X324750Y156000D01*
X459500Y136750D02*
Y161045D01*
X211000Y83000D02*
Y86750D01*
X234000Y109750D01*
X154500Y164500D02*
Y176000D01*
X144000Y186500D02*
X154500Y176000D01*
X156768Y162250D02*
X158767Y160250D01*
X156750Y162250D02*
X156768D01*
X154500Y164500D02*
X156750Y162250D01*
X445158Y119500D02*
X447908Y116750D01*
X445158Y119500D02*
Y124636D01*
X447908Y116750D02*
X451658D01*
D161*
X515000Y53750D02*
X519250D01*
X513000Y51750D02*
X515000Y53750D01*
X505000Y51750D02*
X513000D01*
X494250Y41000D02*
X505000Y51750D01*
X494250Y36000D02*
Y41000D01*
X527000Y61500D02*
Y74000D01*
X519250Y53750D02*
X527000Y61500D01*
X548250Y78250D02*
X551303Y81303D01*
X531250Y78250D02*
X548250D01*
X551303Y81303D02*
Y137855D01*
X525000Y27500D02*
X529750Y22750D01*
X561039D01*
X596289Y58000D01*
X624750Y70000D02*
Y76750D01*
X612750Y58000D02*
X624750Y70000D01*
X596289Y58000D02*
X612750D01*
X527000Y74000D02*
X531250Y78250D01*
X542611Y146547D02*
X551303Y137855D01*
X615250Y86250D02*
X624750Y76750D01*
X612658Y86250D02*
X615250D01*
X652408Y123408D01*
X542408Y174050D02*
X551408Y183050D01*
X542408Y147500D02*
Y174050D01*
X652408Y123408D02*
Y134000D01*
X551408Y183050D02*
X554284D01*
X571408Y165926D01*
D162*
X625658Y170908D02*
Y182000D01*
X626658Y144500D02*
Y162592D01*
X610408Y107750D02*
Y119000D01*
X512500Y15000D02*
X525000Y27500D01*
X546750Y195250D02*
X588158D01*
X543750Y192250D02*
X546750Y195250D01*
X527908Y192250D02*
X543750D01*
X588158Y195250D02*
X596408Y187000D01*
X410000Y200000D02*
X416750Y206750D01*
X332250Y200000D02*
X410000D01*
X475507Y206750D02*
X485908Y196350D01*
X416750Y206750D02*
X475507D01*
X492750Y8000D02*
X499750Y15000D01*
X407750Y8000D02*
X492750D01*
X399750Y16000D02*
X407750Y8000D01*
X328500Y16000D02*
X399750D01*
X485908Y195500D02*
Y196350D01*
X499750Y15000D02*
X512500D01*
X611158Y167250D02*
X622000D01*
X625658Y170908D01*
X622000Y167250D02*
X626658Y162592D01*
X597908Y180500D02*
X611158Y167250D01*
X596408Y182000D02*
Y187000D01*
X525408Y194750D02*
X527908Y192250D01*
X486658Y194750D02*
X525408D01*
X618408Y136250D02*
X626658Y144500D01*
X618408Y127000D02*
Y136250D01*
X610408Y119000D02*
X618408Y127000D01*
D166*
X688250Y185750D02*
D03*
X538750Y36250D02*
D03*
X625000Y113250D02*
D03*
X570113Y121610D02*
D03*
X605550Y77200D02*
D03*
X612658Y86250D02*
D03*
X595250Y109000D02*
D03*
X209500Y148000D02*
D03*
X271000Y157250D02*
D03*
X376000Y170500D02*
D03*
X481000Y17750D02*
D03*
X720500Y184000D02*
D03*
X444750Y199000D02*
D03*
X411667Y92500D02*
D03*
X425750Y144250D02*
D03*
X390408Y52000D02*
D03*
X197000Y23000D02*
D03*
X454408Y166137D02*
D03*
X696250Y131750D02*
D03*
X666750Y196250D02*
D03*
X307250Y153000D02*
D03*
X465750Y169000D02*
D03*
X158250Y215500D02*
D03*
X177500Y215250D02*
D03*
X124250Y195750D02*
D03*
X17250Y197000D02*
D03*
X17250Y192750D02*
D03*
X17250Y188500D02*
D03*
X103250Y198750D02*
D03*
X98625Y198875D02*
D03*
X101000Y202500D02*
D03*
X235250Y191250D02*
D03*
X293250Y75500D02*
D03*
X74750Y92500D02*
D03*
X381667Y135000D02*
D03*
X-4000Y63250D02*
D03*
X197250Y189000D02*
D03*
X652908Y200500D02*
D03*
X714000Y51500D02*
D03*
X714500Y41000D02*
D03*
X698750Y67750D02*
D03*
X18250Y171000D02*
D03*
X31750Y70000D02*
D03*
X159250Y166500D02*
D03*
X235250Y209500D02*
D03*
X262250Y199250D02*
D03*
X235250Y182750D02*
D03*
X-4500Y184250D02*
D03*
X690750Y42750D02*
D03*
X676000D02*
D03*
X649500Y26000D02*
D03*
X702000Y28500D02*
D03*
X-2750Y72000D02*
D03*
X-4750Y44000D02*
D03*
X-4000Y160501D02*
D03*
X224750Y213250D02*
D03*
X110000Y204250D02*
D03*
X110697Y199250D02*
D03*
X203000Y75250D02*
D03*
X45500Y72250D02*
D03*
X41000D02*
D03*
X36500D02*
D03*
X318250Y64500D02*
D03*
X300000Y108500D02*
D03*
X326000Y165250D02*
D03*
X317500Y159000D02*
D03*
X139375Y125875D02*
D03*
X99750Y174000D02*
D03*
X86750Y173750D02*
D03*
X95500Y174500D02*
D03*
X91000D02*
D03*
X35000Y37500D02*
D03*
X31250Y35500D02*
D03*
Y39750D02*
D03*
X257890Y186000D02*
D03*
X20750Y97750D02*
D03*
X410250Y16750D02*
D03*
X414750D02*
D03*
X419250D02*
D03*
X324750Y156000D02*
D03*
X161600Y140000D02*
D03*
X83750Y79250D02*
D03*
X163250Y188000D02*
D03*
X423750Y158000D02*
D03*
X427000Y185250D02*
D03*
X357500Y186000D02*
D03*
X337000Y171000D02*
D03*
X333000Y169000D02*
D03*
X369250Y6250D02*
D03*
X134750Y126000D02*
D03*
X234000Y109750D02*
D03*
X190250Y23000D02*
D03*
X463750Y69500D02*
D03*
X635750Y136250D02*
D03*
X6000Y18500D02*
D03*
X108000Y192000D02*
D03*
X30750Y106750D02*
D03*
X7500Y198500D02*
D03*
X-1500Y202499D02*
D03*
X2750D02*
D03*
X250Y160501D02*
D03*
X-4000Y142499D02*
D03*
X250D02*
D03*
X-4000Y127501D02*
D03*
X250D02*
D03*
X-4500Y112499D02*
D03*
X-250D02*
D03*
X-4000Y93000D02*
D03*
X250Y65250D02*
D03*
X99000Y73000D02*
D03*
X19250Y129500D02*
D03*
X25500Y140750D02*
D03*
X504750Y210500D02*
D03*
X709250Y116250D02*
D03*
X724175Y36000D02*
D03*
Y48000D02*
D03*
X754825Y15000D02*
D03*
X754825Y33000D02*
D03*
X754825Y39000D02*
D03*
Y57000D02*
D03*
X749750Y62250D02*
D03*
X739500Y80000D02*
D03*
X522250Y213250D02*
D03*
X722587Y72738D02*
D03*
X706250Y87750D02*
D03*
X754825Y163000D02*
D03*
X754825Y181000D02*
D03*
X754825Y187000D02*
D03*
Y205000D02*
D03*
X744750Y211750D02*
D03*
X730000Y207000D02*
D03*
X722750Y189250D02*
D03*
X738000Y174500D02*
D03*
X744500Y146750D02*
D03*
X322250Y11500D02*
D03*
Y16000D02*
D03*
X322360Y20464D02*
D03*
X259000Y6250D02*
D03*
X254500Y6250D02*
D03*
X250000D02*
D03*
X476000Y17750D02*
D03*
X469550Y17800D02*
D03*
X120000Y75750D02*
D03*
X97000Y42500D02*
D03*
Y37750D02*
D03*
X85500Y42500D02*
D03*
Y37750D02*
D03*
X509250Y7250D02*
D03*
X289200Y207750D02*
D03*
X304500Y206250D02*
D03*
X309750Y104750D02*
D03*
X423408Y48750D02*
D03*
X423500Y44500D02*
D03*
X418750Y46750D02*
D03*
X228500Y194300D02*
D03*
X176250Y176500D02*
D03*
X206250Y159250D02*
D03*
X524158Y30500D02*
D03*
X350000Y3250D02*
D03*
X398500Y5750D02*
D03*
X227500Y162250D02*
D03*
X224750Y166000D02*
D03*
X223500Y162250D02*
D03*
X258250Y22000D02*
D03*
X180250Y111750D02*
D03*
X143750Y142500D02*
D03*
X113500Y124500D02*
D03*
X132250Y153000D02*
D03*
X134500Y142750D02*
D03*
X128250Y162000D02*
D03*
X681408Y74592D02*
D03*
X665000Y97500D02*
D03*
X422750Y187250D02*
D03*
X432000Y194500D02*
D03*
X283250Y100750D02*
D03*
X281000Y92750D02*
D03*
X198250Y150250D02*
D03*
X175500Y153500D02*
D03*
X190250Y153750D02*
D03*
X325500Y116250D02*
D03*
X694775Y9500D02*
D03*
X683250Y42750D02*
D03*
X665000Y47000D02*
D03*
X625158Y85250D02*
D03*
X632943Y77100D02*
D03*
X638608Y76500D02*
D03*
X644158Y76500D02*
D03*
X651158Y75750D02*
D03*
X650908Y91500D02*
D03*
X638658Y94500D02*
D03*
Y101500D02*
D03*
X635158Y98000D02*
D03*
X710000Y24250D02*
D03*
Y14750D02*
D03*
X289296Y12000D02*
D03*
X637565Y200250D02*
D03*
X296635Y146250D02*
D03*
X450408Y123000D02*
D03*
X322658Y64500D02*
D03*
X527250Y183250D02*
D03*
X535000Y201250D02*
D03*
X500250Y30750D02*
D03*
X431750Y19500D02*
D03*
X457500Y18000D02*
D03*
X439500D02*
D03*
X449000Y18250D02*
D03*
X623658Y19250D02*
D03*
X550908Y17000D02*
D03*
X319000Y75500D02*
D03*
X319250Y92250D02*
D03*
X202563Y189119D02*
D03*
X540658Y184500D02*
D03*
X667908Y167250D02*
D03*
X701250Y121500D02*
D03*
X577158Y185250D02*
D03*
X406667Y110000D02*
D03*
X356667Y80000D02*
D03*
X374408Y51250D02*
D03*
X564408Y34250D02*
D03*
X430000Y69250D02*
D03*
X411667Y87000D02*
D03*
X581158Y31750D02*
D03*
X593408Y137250D02*
D03*
X641458Y136500D02*
D03*
X458408Y84000D02*
D03*
X465158Y82500D02*
D03*
X451158Y137000D02*
D03*
X160000Y185000D02*
D03*
X371408Y187500D02*
D03*
X360500Y163250D02*
D03*
X572658Y185250D02*
D03*
X485908Y191250D02*
D03*
X625658Y179500D02*
D03*
X643158Y195750D02*
D03*
X563453Y101630D02*
D03*
X565158Y5250D02*
D03*
X382408Y57500D02*
D03*
X628250Y200250D02*
D03*
X613408Y183250D02*
D03*
X410250Y156250D02*
D03*
X172750Y124600D02*
D03*
X437658Y82500D02*
D03*
X358408Y66250D02*
D03*
X354658Y64250D02*
D03*
X149750Y168250D02*
D03*
X435958Y138300D02*
D03*
X462158Y119500D02*
D03*
X425158Y134000D02*
D03*
X390658Y156725D02*
D03*
X440658Y103250D02*
D03*
X396667Y80000D02*
D03*
X391667Y90000D02*
D03*
X359750Y47250D02*
D03*
X500182Y158241D02*
D03*
X486862Y118280D02*
D03*
X401667Y100000D02*
D03*
Y120000D02*
D03*
X376667Y95000D02*
D03*
X342158Y137500D02*
D03*
X381667Y110000D02*
D03*
X366667Y80000D02*
D03*
X386667Y115000D02*
D03*
X381667Y130000D02*
D03*
X366667Y139750D02*
D03*
X337408Y126750D02*
D03*
X351667Y135000D02*
D03*
X346667Y80250D02*
D03*
X371667Y85000D02*
D03*
X351667Y115000D02*
D03*
X371667Y125000D02*
D03*
X356667Y100000D02*
D03*
X196500Y124500D02*
D03*
X451658Y116750D02*
D03*
X452908Y90750D02*
D03*
X474658Y169500D02*
D03*
X618000Y72750D02*
D03*
X607830Y50000D02*
D03*
X497658Y182250D02*
D03*
X526823Y164901D02*
D03*
X684158Y153250D02*
D03*
X602408Y109000D02*
D03*
X679658Y53000D02*
D03*
X679908Y62500D02*
D03*
X503512Y148251D02*
D03*
X656658Y138500D02*
D03*
X638908Y31500D02*
D03*
X645908Y185000D02*
D03*
X634658Y173250D02*
D03*
X625658Y183750D02*
D03*
X581408Y175000D02*
D03*
X609158Y7250D02*
D03*
X678158Y117250D02*
D03*
X667408Y112250D02*
D03*
X665158Y53000D02*
D03*
X486862Y138261D02*
D03*
X571658Y46250D02*
D03*
X546658Y51250D02*
D03*
X543473Y68330D02*
D03*
X581408Y180500D02*
D03*
X652408Y135250D02*
D03*
X607208Y110000D02*
D03*
X628658Y135000D02*
D03*
X648658Y162000D02*
D03*
X628658Y148250D02*
D03*
Y143750D02*
D03*
X454500Y39000D02*
D03*
X454250Y44250D02*
D03*
X492408Y163750D02*
D03*
X478908Y167750D02*
D03*
X502408Y166250D02*
D03*
X676908Y72500D02*
D03*
X608908Y135500D02*
D03*
X501958Y175200D02*
D03*
X498358Y26750D02*
D03*
X502408D02*
D03*
X510908Y37250D02*
D03*
X488408Y41250D02*
D03*
X475750D02*
D03*
X551408Y183050D02*
D03*
X579908Y78250D02*
D03*
X533658Y143250D02*
D03*
X583529Y129079D02*
D03*
X585759Y151391D02*
D03*
X571408Y165926D02*
D03*
X561158Y16250D02*
D03*
X581408Y120500D02*
D03*
X696908Y151500D02*
D03*
X658908Y145750D02*
D03*
X676908Y66750D02*
D03*
X674908Y62500D02*
D03*
X665083Y80500D02*
D03*
X645658Y126500D02*
D03*
X650408Y139500D02*
D03*
X629408Y19250D02*
D03*
X660658Y174750D02*
D03*
X634908Y27250D02*
D03*
X649158Y60750D02*
D03*
X638908Y47000D02*
D03*
X576773Y141590D02*
D03*
X523493Y161571D02*
D03*
X480202Y144921D02*
D03*
X467408Y144869D02*
D03*
X560123Y158241D02*
D03*
X526823Y151581D02*
D03*
X516833Y154911D02*
D03*
X563453Y148251D02*
D03*
X540143Y65000D02*
D03*
X486862Y104960D02*
D03*
X483532Y108290D02*
D03*
X476872Y81650D02*
D03*
X520163Y71660D02*
D03*
X506842Y65000D02*
D03*
X500182Y58340D02*
D03*
X576773Y134930D02*
D03*
X566783Y131600D02*
D03*
X56500Y210750D02*
D03*
X62000D02*
D03*
X62000Y161000D02*
D03*
X56500D02*
D03*
X26250Y168000D02*
D03*
X21750D02*
D03*
X24000Y206000D02*
D03*
X28750D02*
D03*
X90750Y205500D02*
D03*
X86750D02*
D03*
X35250Y5000D02*
D03*
X18750Y8250D02*
D03*
X89250Y14000D02*
D03*
X94000D02*
D03*
X58250Y26500D02*
D03*
X58250Y20750D02*
D03*
X68750Y32750D02*
D03*
X480202Y111621D02*
D03*
D167*
X63000Y115500D02*
D03*
Y104500D02*
D03*
X524803Y95000D02*
D03*
Y85000D02*
D03*
Y115000D02*
D03*
Y105000D02*
D03*
Y125000D02*
D03*
Y135000D02*
D03*
X534803Y134900D02*
D03*
Y124900D02*
D03*
Y104900D02*
D03*
Y114900D02*
D03*
Y84900D02*
D03*
Y94900D02*
D03*
X544803Y124900D02*
D03*
Y104900D02*
D03*
Y114900D02*
D03*
Y94900D02*
D03*
X504803D02*
D03*
Y114900D02*
D03*
Y104900D02*
D03*
Y124900D02*
D03*
X514803Y94900D02*
D03*
Y84900D02*
D03*
Y114900D02*
D03*
Y104900D02*
D03*
Y124900D02*
D03*
Y134900D02*
D03*
D168*
X230750Y69500D02*
D03*
X241750D02*
D03*
X230750Y80500D02*
D03*
X241750D02*
D03*
X544803Y134900D02*
D03*
Y84900D02*
D03*
X504803D02*
D03*
Y134900D02*
D03*
D169*
X494250Y32250D02*
X498000Y28500D01*
X501250D01*
X334250Y148000D02*
Y169469D01*
X313375Y127125D02*
X325500Y115000D01*
X334250Y169469D02*
X335781Y171000D01*
X315750Y129500D02*
X334250Y148000D01*
X325500Y115000D02*
X328250Y112250D01*
Y71750D02*
Y112250D01*
X325000Y68500D02*
X328250Y71750D01*
X494250Y32250D02*
Y35500D01*
D170*
X98750Y197500D02*
X101500Y200250D01*
X280250Y133750D02*
X284500Y129500D01*
X170000Y133750D02*
X280250D01*
X153875Y117625D02*
X170000Y133750D01*
X120750Y162000D02*
Y165250D01*
X98750Y187250D02*
X120750Y165250D01*
X98750Y187250D02*
Y197500D01*
X130875Y117625D02*
X153875D01*
X284500Y129500D02*
X314250D01*
X120750Y140000D02*
Y162000D01*
Y140000D02*
X125500Y135250D01*
Y123000D02*
Y135250D01*
Y123000D02*
X130875Y117625D01*
D171*
X227626Y10250D02*
X258250D01*
X85500Y38250D02*
X202000D01*
X222000Y18250D01*
Y15876D02*
Y18250D01*
Y15876D02*
X227626Y10250D01*
M02*
