G04*
G04 #@! TF.GenerationSoftware,Altium Limited,Altium Designer,19.1.6 (110)*
G04*
G04 Layer_Physical_Order=6*
G04 Layer_Color=6759642*
%FSLAX44Y44*%
%MOMM*%
G71*
G01*
G75*
%ADD10C,0.1000*%
%ADD11C,0.2000*%
%ADD12C,0.1500*%
%ADD14C,0.3000*%
%ADD18C,0.2500*%
%ADD150C,1.0000*%
%ADD153C,0.3500*%
%ADD155C,0.4500*%
%ADD156C,0.5000*%
%ADD160C,0.4000*%
%ADD166C,0.3500*%
%ADD167C,0.4000*%
%ADD168C,0.5000*%
%ADD170C,1.1000*%
%ADD172C,0.2200*%
G36*
X186974Y217962D02*
X188020Y216395D01*
X189674Y215290D01*
X191625Y214902D01*
X193576Y215290D01*
X195230Y216395D01*
X196276Y217962D01*
X198724D01*
X199770Y216395D01*
X201424Y215290D01*
X203375Y214902D01*
X205326Y215290D01*
X206980Y216395D01*
X208027Y217962D01*
X213619Y217962D01*
X214145Y216691D01*
X210828Y213374D01*
X147751D01*
X146227Y214898D01*
X145078Y215374D01*
X124750D01*
X123602Y214898D01*
X122959Y214255D01*
X121595Y214622D01*
X121567Y214659D01*
X120983Y215533D01*
X120073Y216140D01*
X119000Y216354D01*
X117927Y216140D01*
X117017Y215533D01*
X116410Y214623D01*
X116196Y213550D01*
X116410Y212477D01*
X116465Y212394D01*
X115874Y211288D01*
X114613Y211183D01*
X109648Y216148D01*
X108500Y216624D01*
X24500D01*
X23352Y216148D01*
X14577Y207373D01*
X7093D01*
X6708Y208643D01*
X6720Y208651D01*
X8099Y210030D01*
X8099Y210030D01*
X8541Y210692D01*
X9288Y212494D01*
X9346Y212788D01*
X9433Y213075D01*
X9529Y214050D01*
X9519Y214151D01*
X9539Y214250D01*
Y217962D01*
X186974Y217962D01*
D02*
G37*
G36*
X756451Y207003D02*
Y196497D01*
X753492Y193538D01*
X752114Y193956D01*
X752090Y194073D01*
X751483Y194983D01*
X750573Y195590D01*
X749500Y195804D01*
X748427Y195590D01*
X748031Y195326D01*
X746733Y194982D01*
X745823Y195590D01*
X745146Y195725D01*
X744663Y196812D01*
X744646Y197021D01*
X747898Y200273D01*
X748374Y201421D01*
Y202589D01*
X749377Y203470D01*
X749500Y203446D01*
X750573Y203659D01*
X751483Y204267D01*
X752090Y205177D01*
X752304Y206250D01*
X752090Y207323D01*
X751483Y208232D01*
X750573Y208840D01*
X749500Y209054D01*
X748427Y208840D01*
X748031Y208576D01*
X746733Y208232D01*
X745823Y208840D01*
X744750Y209054D01*
X743677Y208840D01*
X742767Y208232D01*
X742160Y207323D01*
X741946Y206250D01*
X742160Y205177D01*
X742767Y204267D01*
X742974Y204129D01*
X743050Y202846D01*
X740578Y200374D01*
X723172D01*
X722023Y199898D01*
X718499Y196374D01*
X687829D01*
X686681Y195898D01*
X659657Y168874D01*
X628659D01*
X620281Y177251D01*
Y185425D01*
X619895Y186356D01*
X620411Y187626D01*
X624540D01*
X624665Y186356D01*
X624585Y186340D01*
X623675Y185733D01*
X623067Y184823D01*
X622854Y183750D01*
X623067Y182677D01*
X623101Y182626D01*
X623604Y181625D01*
X623101Y180623D01*
X623067Y180573D01*
X622854Y179500D01*
X623067Y178427D01*
X623675Y177517D01*
X624585Y176910D01*
X625658Y176696D01*
X626731Y176910D01*
X627640Y177517D01*
X628248Y178427D01*
X628462Y179500D01*
X628248Y180573D01*
X628214Y180623D01*
X627712Y181625D01*
X628214Y182626D01*
X628248Y182677D01*
X628453Y183705D01*
X628649Y183838D01*
X629645Y184308D01*
X638352Y175602D01*
X639500Y175126D01*
X655500D01*
X656648Y175602D01*
X661423Y180376D01*
X666750D01*
X667898Y180852D01*
X681148Y194102D01*
X681624Y195250D01*
Y195777D01*
X681983Y196017D01*
X682590Y196927D01*
X682804Y198000D01*
X682590Y199073D01*
X681983Y199983D01*
X681073Y200590D01*
X680000Y200804D01*
X678927Y200590D01*
X678704Y200441D01*
X677750Y200083D01*
X676796Y200441D01*
X676573Y200590D01*
X675500Y200804D01*
X674427Y200590D01*
X673517Y199983D01*
X672983D01*
X672073Y200590D01*
X671000Y200804D01*
X669927Y200590D01*
X669017Y199983D01*
X668410Y199073D01*
X668196Y198000D01*
X668410Y196927D01*
X669017Y196017D01*
X669376Y195777D01*
Y193829D01*
X663171Y187624D01*
X659093D01*
X657945Y187148D01*
X653171Y182374D01*
X641829D01*
X629805Y194398D01*
X628657Y194874D01*
X624501D01*
X618874Y200501D01*
Y201777D01*
X619233Y202017D01*
X619840Y202927D01*
X620054Y204000D01*
X619840Y205073D01*
X619233Y205983D01*
X618323Y206590D01*
X617250Y206804D01*
X616177Y206590D01*
X615267Y205983D01*
X614660Y205073D01*
X614496Y204250D01*
X614000Y203054D01*
X612927Y202840D01*
X612017Y202233D01*
X611410Y201323D01*
X611294Y200741D01*
X610750Y199554D01*
X609677Y199340D01*
X608767Y198733D01*
X608298Y198030D01*
X607359Y197744D01*
X606839Y197693D01*
X596829Y207703D01*
X597315Y208876D01*
X738904Y208876D01*
X740052Y209352D01*
X744076Y213376D01*
X750078D01*
X756451Y207003D01*
D02*
G37*
G36*
X112852Y208352D02*
X114000Y207876D01*
X120500D01*
X121648Y208352D01*
X124998Y211702D01*
X125533Y211625D01*
X125982Y210278D01*
X114740Y199036D01*
X114262Y199118D01*
X113444Y199536D01*
X113287Y200323D01*
X112679Y201233D01*
X111770Y201840D01*
X110697Y202054D01*
X109624Y201840D01*
X109394Y201687D01*
X108124Y202366D01*
Y205944D01*
X108233Y206017D01*
X108840Y206927D01*
X109054Y208000D01*
X108840Y209073D01*
X108233Y209983D01*
X107323Y210590D01*
X106250Y210804D01*
X105177Y210590D01*
X104267Y209983D01*
X103660Y209073D01*
X103446Y208000D01*
X103660Y206927D01*
X103925Y206530D01*
X103198Y205332D01*
X98250Y205332D01*
X97485Y205015D01*
X97485Y205015D01*
X93383Y200914D01*
X74470D01*
X67692Y207692D01*
X67030Y208134D01*
X66250Y208289D01*
X65191D01*
X64512Y209559D01*
X64590Y209677D01*
X64804Y210750D01*
X64590Y211823D01*
X64401Y212106D01*
X65080Y213376D01*
X107828D01*
X112852Y208352D01*
D02*
G37*
G36*
X105000Y203000D02*
Y197250D01*
X104000Y196250D01*
X95250D01*
X92750Y198750D01*
X98250Y204250D01*
X103750Y204250D01*
X105000Y203000D01*
D02*
G37*
G36*
X143445Y204602D02*
X144593Y204126D01*
X154035D01*
X154817Y202856D01*
X154696Y202250D01*
X154910Y201177D01*
X155517Y200267D01*
X156427Y199660D01*
X157500Y199446D01*
X158573Y199660D01*
X159483Y200267D01*
X160090Y201177D01*
X160304Y202250D01*
X160183Y202856D01*
X160965Y204126D01*
X195327D01*
X210788Y188666D01*
X210302Y187492D01*
X201054D01*
X199970Y188577D01*
X200054Y189000D01*
X199840Y190073D01*
X199233Y190983D01*
X198323Y191590D01*
X197250Y191804D01*
X196177Y191590D01*
X195267Y190983D01*
X194660Y190073D01*
X194078Y189124D01*
X193274Y189124D01*
X191965D01*
X191183Y190394D01*
X191304Y191000D01*
X191090Y192073D01*
X190483Y192983D01*
X189573Y193590D01*
X188500Y193804D01*
X187427Y193590D01*
X186517Y192983D01*
X186431Y192854D01*
X184945Y192915D01*
X184732Y193232D01*
X183823Y193840D01*
X182750Y194054D01*
X181677Y193840D01*
X180767Y193232D01*
X180159Y192323D01*
X179946Y191250D01*
X180116Y190394D01*
X179687Y189573D01*
X179336Y189124D01*
X174547D01*
X174474Y189203D01*
X173984Y190394D01*
X174340Y190927D01*
X174554Y192000D01*
X174340Y193073D01*
X173733Y193983D01*
X172823Y194590D01*
X171750Y194804D01*
X170677Y194590D01*
X169767Y193983D01*
X169374Y193393D01*
X167952Y193018D01*
X166573Y194398D01*
X166219Y194544D01*
X166350Y195865D01*
X166573Y195910D01*
X167483Y196517D01*
X168090Y197427D01*
X168304Y198500D01*
X168090Y199573D01*
X167483Y200483D01*
X166573Y201090D01*
X165500Y201304D01*
X164427Y201090D01*
X163517Y200483D01*
X162910Y199573D01*
X162696Y198500D01*
X162387Y198124D01*
X160000D01*
X158852Y197648D01*
X157828Y196624D01*
X154382D01*
X153483Y197894D01*
X153554Y198250D01*
X153340Y199323D01*
X152732Y200233D01*
X151823Y200840D01*
X150750Y201054D01*
X149677Y200840D01*
X148767Y200233D01*
X148442Y199746D01*
X146981Y199412D01*
X146744Y199648D01*
X145596Y200124D01*
X140200D01*
X139669Y199904D01*
X138583Y200042D01*
X138150Y200407D01*
X137733Y201517D01*
X138340Y202427D01*
X138554Y203500D01*
X138384Y204356D01*
X138813Y205177D01*
X139164Y205626D01*
X142421D01*
X143445Y204602D01*
D02*
G37*
G36*
X611760Y185352D02*
X612908Y184876D01*
X614081D01*
X615034Y183924D01*
Y175750D01*
X615510Y174602D01*
X626010Y164102D01*
X627158Y163626D01*
X661158D01*
X662306Y164102D01*
X689330Y191126D01*
X720000D01*
X721148Y191602D01*
X724672Y195126D01*
X741336D01*
X741701Y194659D01*
X742120Y193874D01*
X741946Y193000D01*
X742160Y191927D01*
X742767Y191017D01*
X742974Y190879D01*
X743050Y189596D01*
X742078Y188624D01*
X728250D01*
X727102Y188148D01*
X724244Y185290D01*
X722746Y185588D01*
X722483Y185983D01*
X721573Y186590D01*
X720500Y186804D01*
X719427Y186590D01*
X718517Y185983D01*
X717910Y185073D01*
X717696Y184000D01*
X717910Y182927D01*
X718517Y182017D01*
X718912Y181754D01*
X719210Y180256D01*
X717077Y178124D01*
X682172D01*
X681023Y177648D01*
X663499Y160124D01*
X626909D01*
X613531Y173501D01*
Y179907D01*
X613056Y181055D01*
X610306Y183805D01*
X610306Y183805D01*
X604806Y189305D01*
X604806Y189305D01*
X604806Y189305D01*
X596486Y197625D01*
X596486Y197625D01*
X590504Y203606D01*
X591030Y204876D01*
X592235D01*
X611760Y185352D01*
D02*
G37*
G36*
X360311Y186143D02*
Y183816D01*
X360786Y182668D01*
X362657Y180797D01*
X362171Y179624D01*
X358863D01*
X358554Y180000D01*
X358340Y181073D01*
X357733Y181983D01*
X356823Y182590D01*
X355750Y182804D01*
X354677Y182590D01*
X353767Y181983D01*
X353160Y181073D01*
X352946Y180000D01*
X353160Y178927D01*
X353182Y178894D01*
X352503Y177624D01*
X347673D01*
X344148Y181148D01*
X343000Y181624D01*
X338423D01*
X328593Y191453D01*
X329079Y192626D01*
X353828D01*
X360311Y186143D01*
D02*
G37*
G36*
X592089Y179039D02*
Y169750D01*
X592361Y168384D01*
X593134Y167227D01*
X616339Y144022D01*
Y139449D01*
X616180Y139352D01*
X615069Y139059D01*
X612230Y141898D01*
X612195Y141913D01*
X577160Y176948D01*
X576012Y177424D01*
X564674D01*
X564147Y178694D01*
X564763Y179309D01*
X565238Y180457D01*
Y183827D01*
X566287Y184876D01*
X569928D01*
X570067Y184177D01*
X570675Y183267D01*
X571585Y182660D01*
X572658Y182446D01*
X573731Y182660D01*
X574640Y183267D01*
X575175D01*
X576085Y182660D01*
X577158Y182446D01*
X577983Y182610D01*
X578592Y182002D01*
X578823Y181581D01*
X578817Y181573D01*
X578604Y180500D01*
X578817Y179427D01*
X579425Y178517D01*
X580335Y177910D01*
X581408Y177696D01*
X582481Y177910D01*
X583390Y178517D01*
X583998Y179427D01*
X584212Y180500D01*
X583998Y181573D01*
X583390Y182483D01*
X582481Y183090D01*
X581408Y183304D01*
X580582Y183140D01*
X579974Y183748D01*
X579743Y184169D01*
X579748Y184177D01*
X579962Y185250D01*
X579748Y186323D01*
X579140Y187233D01*
X578231Y187840D01*
X577873Y187911D01*
X577999Y189181D01*
X581946D01*
X592089Y179039D01*
D02*
G37*
G36*
X526974Y217961D02*
X528020Y216395D01*
X529674Y215290D01*
X531625Y214902D01*
X533576Y215290D01*
X535230Y216395D01*
X536276Y217961D01*
X538724D01*
X539770Y216395D01*
X541424Y215290D01*
X543375Y214902D01*
X545326Y215290D01*
X546980Y216395D01*
X548026Y217961D01*
X765461Y217961D01*
Y2039D01*
X548026Y2039D01*
X546980Y3605D01*
X545326Y4710D01*
X543375Y5098D01*
X541424Y4710D01*
X539770Y3605D01*
X538724Y2039D01*
X536276D01*
X535230Y3605D01*
X533576Y4710D01*
X531625Y5098D01*
X529674Y4710D01*
X528020Y3605D01*
X526974Y2039D01*
X208026Y2039D01*
X206980Y3605D01*
X205326Y4710D01*
X203375Y5098D01*
X201424Y4710D01*
X199770Y3605D01*
X198724Y2039D01*
X196276D01*
X195230Y3605D01*
X193576Y4710D01*
X191625Y5098D01*
X189674Y4710D01*
X188020Y3605D01*
X186974Y2039D01*
X174210D01*
X173684Y3309D01*
X180903Y10529D01*
X181017Y10517D01*
X181927Y9910D01*
X183000Y9696D01*
X184073Y9910D01*
X184983Y10517D01*
X185590Y11427D01*
X185804Y12500D01*
X185590Y13573D01*
X184983Y14483D01*
Y15767D01*
X185590Y16677D01*
X185804Y17750D01*
X186113Y18126D01*
X198856D01*
X200004Y18602D01*
X200624Y19222D01*
X204523D01*
X205421Y17952D01*
X205350Y17596D01*
X205564Y16523D01*
X206172Y15613D01*
X207081Y15005D01*
X208154Y14792D01*
X209227Y15005D01*
X210137Y15613D01*
X210377Y15972D01*
X222982D01*
X227852Y11102D01*
X229000Y10626D01*
X279578D01*
X283352Y6852D01*
X284500Y6376D01*
X361592D01*
X361696Y6250D01*
X361910Y5177D01*
X362517Y4267D01*
X363427Y3660D01*
X364500Y3446D01*
X365573Y3660D01*
X366483Y4267D01*
X367090Y5177D01*
X367304Y6250D01*
X367133Y7106D01*
X367563Y7927D01*
X367914Y8376D01*
X427464D01*
X428738Y7102D01*
X429886Y6626D01*
X464596D01*
X465744Y7102D01*
X474253Y15610D01*
X474927Y15160D01*
X476000Y14946D01*
X477073Y15160D01*
X477840Y15672D01*
X479017Y15767D01*
X479927Y15159D01*
X481000Y14946D01*
X482073Y15159D01*
X482983Y15767D01*
X483511Y16559D01*
X483754Y16708D01*
X484936Y16930D01*
X491308Y10558D01*
X491308Y10558D01*
X491970Y10116D01*
X492750Y9961D01*
X492750Y9961D01*
X633750D01*
X634530Y10116D01*
X635192Y10558D01*
X642345Y17711D01*
X645111D01*
X645496Y16441D01*
X645324Y16326D01*
X643998Y14341D01*
X643532Y12000D01*
X643998Y9659D01*
X645324Y7674D01*
X647309Y6348D01*
X649650Y5882D01*
X651991Y6348D01*
X653976Y7674D01*
X655302Y9659D01*
X655353Y9914D01*
X656647D01*
X656698Y9659D01*
X658024Y7674D01*
X660009Y6348D01*
X662350Y5882D01*
X664691Y6348D01*
X666676Y7674D01*
X668002Y9659D01*
X668467Y12000D01*
X668002Y14341D01*
X666676Y16326D01*
X664691Y17652D01*
X662350Y18118D01*
X660009Y17652D01*
X659753Y17481D01*
X656042Y21192D01*
X655380Y21634D01*
X654600Y21789D01*
X641500D01*
X640720Y21634D01*
X640058Y21192D01*
X632905Y14039D01*
X544323D01*
X543837Y15213D01*
X556001Y27376D01*
X571578D01*
X572727Y27852D01*
X596648Y51774D01*
X597124Y52922D01*
Y53750D01*
X597124Y53750D01*
Y63999D01*
X603148Y70023D01*
X603624Y71172D01*
Y73769D01*
X604894Y74527D01*
X605550Y74396D01*
X606623Y74610D01*
X607533Y75217D01*
X608140Y76127D01*
X608354Y77200D01*
X608140Y78273D01*
X607533Y79183D01*
X606623Y79790D01*
X605550Y80004D01*
X604894Y79873D01*
X603624Y80631D01*
Y88499D01*
X615148Y100023D01*
X615624Y101172D01*
Y104421D01*
X616797Y104907D01*
X620102Y101602D01*
X621250Y101126D01*
X626000D01*
X627148Y101602D01*
X629673Y104126D01*
X659235D01*
X661260Y102102D01*
X662408Y101626D01*
X663185D01*
X663425Y101267D01*
X664335Y100660D01*
X665408Y100446D01*
X666481Y100660D01*
X667390Y101267D01*
X667998Y102177D01*
X668128Y102832D01*
X677622D01*
X704523Y75930D01*
X705672Y75455D01*
X722171D01*
X729876Y67749D01*
Y61922D01*
X724340Y56386D01*
X723083Y55983D01*
X722173Y56590D01*
X721100Y56804D01*
X720027Y56590D01*
X719117Y55983D01*
X718510Y55073D01*
X718296Y54000D01*
X718510Y52927D01*
X719117Y52017D01*
X720027Y51410D01*
X721100Y51196D01*
X722173Y51410D01*
X723083Y52017D01*
X723323Y52376D01*
X724250D01*
X725398Y52852D01*
X732648Y60102D01*
X733124Y61250D01*
Y65671D01*
X734297Y66157D01*
X749030Y51424D01*
X748946Y51000D01*
X749160Y49927D01*
X749767Y49017D01*
X750677Y48410D01*
X751750Y48196D01*
X752823Y48410D01*
X753733Y49017D01*
X754341Y49927D01*
X754554Y51000D01*
X754341Y52073D01*
X753733Y52983D01*
X752823Y53590D01*
X751750Y53804D01*
X751327Y53720D01*
X724820Y80226D01*
X723671Y80702D01*
X707172D01*
X680271Y107603D01*
X680264Y107606D01*
X680516Y108876D01*
X685000D01*
X686148Y109352D01*
X690148Y113352D01*
X690624Y114500D01*
Y125750D01*
X690148Y126898D01*
X679624Y137423D01*
Y152577D01*
X686923Y159876D01*
X694827D01*
X698626Y156077D01*
Y134997D01*
X697356Y134318D01*
X697323Y134340D01*
X696250Y134554D01*
X695177Y134340D01*
X694267Y133733D01*
X693660Y132823D01*
X693446Y131750D01*
X693660Y130677D01*
X694267Y129768D01*
X695177Y129160D01*
X696250Y128946D01*
X697323Y129160D01*
X697839Y129504D01*
X698576Y129662D01*
X699499Y129377D01*
X704827Y124049D01*
X705975Y123573D01*
X713197D01*
X714345Y124049D01*
X724201Y133905D01*
X724677Y135053D01*
Y138134D01*
X730398Y143856D01*
X730874Y145004D01*
Y148274D01*
X730398Y149423D01*
X724677Y155144D01*
Y161631D01*
X730673Y167626D01*
X731765D01*
X733039Y166352D01*
X734187Y165876D01*
X735562D01*
X736711Y166352D01*
X737859Y167501D01*
X739203D01*
X742030Y164674D01*
X741946Y164250D01*
X742160Y163177D01*
X742767Y162267D01*
X743677Y161660D01*
X744750Y161446D01*
X745823Y161660D01*
X746219Y161924D01*
X747517Y162267D01*
X748427Y161660D01*
X749500Y161446D01*
X750573Y161660D01*
X751483Y162267D01*
X752090Y163177D01*
X752304Y164250D01*
X752090Y165323D01*
X751483Y166233D01*
X750573Y166840D01*
X749500Y167054D01*
X749077Y166970D01*
X745079Y170967D01*
X745497Y172345D01*
X745823Y172409D01*
X746219Y172674D01*
X747517Y173017D01*
X748427Y172409D01*
X749500Y172196D01*
X750573Y172409D01*
X751483Y173017D01*
X752090Y173927D01*
X752304Y175000D01*
X752206Y175492D01*
X752624Y176500D01*
Y179750D01*
X752148Y180898D01*
X750898Y182148D01*
X749750Y182624D01*
X748829D01*
X748343Y183797D01*
X759223Y194677D01*
X759699Y195825D01*
Y207675D01*
X759223Y208823D01*
X751898Y216148D01*
X750750Y216624D01*
X743404D01*
X742256Y216148D01*
X738231Y212124D01*
X537750Y212124D01*
X527422D01*
X526273Y211648D01*
X523249Y208624D01*
X508215D01*
X507433Y209894D01*
X507554Y210500D01*
X507340Y211573D01*
X506733Y212483D01*
X505823Y213090D01*
X504750Y213304D01*
X503677Y213090D01*
X502767Y212483D01*
X502160Y211573D01*
X501946Y210500D01*
X502067Y209894D01*
X501285Y208624D01*
X495672D01*
X494720Y209576D01*
X494804Y210000D01*
X494590Y211073D01*
X493983Y211983D01*
X493073Y212590D01*
X492000Y212804D01*
X490927Y212590D01*
X490017Y211983D01*
X489410Y211073D01*
X489196Y210000D01*
X489410Y208927D01*
X490017Y208017D01*
X490203Y207894D01*
X489817Y206624D01*
X486058D01*
X485673Y207894D01*
X486233Y208267D01*
X486840Y209177D01*
X487054Y210250D01*
X486840Y211323D01*
X486233Y212233D01*
X485323Y212840D01*
X484250Y213054D01*
X483177Y212840D01*
X482267Y212233D01*
X482027Y211874D01*
X470423D01*
X468093Y214203D01*
X468579Y215376D01*
X511077D01*
X513030Y213424D01*
X512946Y213000D01*
X513160Y211927D01*
X513767Y211017D01*
X514677Y210410D01*
X515750Y210196D01*
X516823Y210410D01*
X517733Y211017D01*
X518340Y211927D01*
X518554Y213000D01*
X518340Y214073D01*
X517733Y214983D01*
X516823Y215590D01*
X515750Y215804D01*
X515326Y215720D01*
X514258Y216788D01*
X514744Y217961D01*
X526974D01*
D02*
G37*
G36*
X344195Y170852D02*
X345343Y170376D01*
X350714D01*
X351072Y169547D01*
X351169Y169106D01*
X350617Y168281D01*
X350404Y167208D01*
X350130Y166874D01*
X338596D01*
X337448Y166398D01*
X328468Y157418D01*
X326935Y157681D01*
X326733Y157983D01*
X325823Y158590D01*
X324750Y158804D01*
X323677Y158590D01*
X322767Y157983D01*
X322160Y157073D01*
X321946Y156000D01*
X322160Y154927D01*
X322767Y154017D01*
X323069Y153815D01*
X323332Y152282D01*
X318723Y147673D01*
X310161D01*
X309921Y148032D01*
X309011Y148640D01*
X307938Y148853D01*
X306865Y148640D01*
X305956Y148032D01*
X305348Y147122D01*
X305134Y146049D01*
X305219Y145626D01*
X296852Y137259D01*
X296376Y136111D01*
Y120751D01*
X291297Y115671D01*
X290124Y116158D01*
Y133577D01*
X292898Y136352D01*
X293374Y137500D01*
Y145577D01*
X322173Y174376D01*
X334817D01*
X335203Y173106D01*
X335017Y172983D01*
X334410Y172073D01*
X333123Y171779D01*
X333000Y171804D01*
X331927Y171590D01*
X331017Y170982D01*
X330410Y170073D01*
X330196Y169000D01*
X330410Y167927D01*
X331017Y167017D01*
X331927Y166409D01*
X333000Y166196D01*
X334073Y166409D01*
X334983Y167017D01*
X335591Y167927D01*
X336877Y168221D01*
X337000Y168196D01*
X338073Y168410D01*
X338983Y169017D01*
X339590Y169927D01*
X339804Y171000D01*
X339590Y172073D01*
X338983Y172983D01*
X338797Y173106D01*
X339183Y174376D01*
X340671D01*
X344195Y170852D01*
D02*
G37*
G36*
X54099Y212106D02*
X53910Y211823D01*
X53696Y210750D01*
X53910Y209677D01*
X53988Y209559D01*
X53309Y208289D01*
X50750D01*
X49970Y208134D01*
X49308Y207692D01*
X49308Y207692D01*
X40808Y199192D01*
X40366Y198530D01*
X40211Y197750D01*
Y177095D01*
X29405Y166289D01*
X20197D01*
X19416Y166134D01*
X18755Y165692D01*
X17729Y164667D01*
X16556Y165153D01*
Y167413D01*
X17826Y168281D01*
X18250Y168196D01*
X19323Y168410D01*
X20233Y169017D01*
X20840Y169927D01*
X21054Y171000D01*
X22288Y171303D01*
X22823Y171409D01*
X23046Y171559D01*
X24000Y171917D01*
X24954Y171559D01*
X25177Y171409D01*
X26250Y171196D01*
X27323Y171409D01*
X27546Y171559D01*
X28500Y171917D01*
X29454Y171559D01*
X29677Y171409D01*
X30750Y171196D01*
X31823Y171409D01*
X32733Y172017D01*
X33340Y172927D01*
X33554Y174000D01*
X33340Y175073D01*
X32733Y175982D01*
X31823Y176590D01*
X30750Y176804D01*
X29677Y176590D01*
X29454Y176441D01*
X28500Y176083D01*
X27546Y176441D01*
X27323Y176590D01*
X26250Y176804D01*
X25177Y176590D01*
X24954Y176441D01*
X24000Y176083D01*
X23046Y176441D01*
X22823Y176590D01*
X21750Y176804D01*
X20677Y176590D01*
X19767Y175982D01*
X19160Y175073D01*
X18968Y174112D01*
X17802Y173736D01*
X16556Y174587D01*
Y183000D01*
X16348Y184581D01*
X16436Y184809D01*
X17247Y185693D01*
X17290Y185704D01*
X18323Y185910D01*
X19233Y186517D01*
X19840Y187427D01*
X20054Y188500D01*
X19840Y189573D01*
X19807Y189624D01*
X19304Y190625D01*
X19807Y191626D01*
X19840Y191677D01*
X20054Y192750D01*
X19840Y193823D01*
X19807Y193874D01*
X19304Y194875D01*
X19807Y195877D01*
X19840Y195927D01*
X20054Y197000D01*
X19840Y198073D01*
X19233Y198983D01*
X18323Y199590D01*
X17250Y199804D01*
X16177Y199590D01*
X15267Y198983D01*
X14660Y198073D01*
X14446Y197000D01*
X14660Y195927D01*
X14693Y195877D01*
X15196Y194875D01*
X14693Y193874D01*
X14660Y193823D01*
X14446Y192750D01*
X14660Y191677D01*
X14693Y191626D01*
X15196Y190625D01*
X14693Y189624D01*
X14660Y189573D01*
X14632Y189436D01*
X13254Y189018D01*
X5636Y196636D01*
X4278Y197678D01*
X2697Y198333D01*
X1000Y198556D01*
X-697Y198333D01*
X-2278Y197678D01*
X-3636Y196636D01*
X-4678Y195278D01*
X-4856Y194847D01*
X-6126Y195099D01*
Y200173D01*
X-2174Y204126D01*
X15249D01*
X16397Y204601D01*
X25173Y213376D01*
X53420D01*
X54099Y212106D01*
D02*
G37*
G36*
X143250Y179250D02*
Y175500D01*
X138500Y170750D01*
X131000D01*
Y181750D01*
X140750D01*
X143250Y179250D01*
D02*
G37*
G36*
X481284Y177363D02*
Y170997D01*
X480014Y170318D01*
X479981Y170340D01*
X478908Y170554D01*
X477835Y170340D01*
X476925Y169733D01*
X476317Y168823D01*
X476104Y167750D01*
X476317Y166677D01*
X476925Y165767D01*
X477835Y165160D01*
X478908Y164946D01*
X479822Y165128D01*
X480948Y164395D01*
X481051Y163347D01*
X470827Y153124D01*
X466486D01*
X465338Y152648D01*
X459510Y146820D01*
X459034Y145672D01*
Y126173D01*
X454260Y121398D01*
X453971Y120700D01*
X452957Y120366D01*
X452796Y121625D01*
X452998Y121927D01*
X453212Y123000D01*
X452998Y124073D01*
X452390Y124983D01*
X451481Y125590D01*
X450408Y125804D01*
X449335Y125590D01*
X448425Y124983D01*
X447817Y124073D01*
X447604Y123000D01*
X447817Y121927D01*
X448425Y121017D01*
X449335Y120410D01*
X449769Y120323D01*
X450038Y118975D01*
X449675Y118733D01*
X449067Y117823D01*
X448854Y116750D01*
X449067Y115677D01*
X449675Y114767D01*
X450585Y114160D01*
X451658Y113946D01*
X452514Y114116D01*
X452624Y114059D01*
X453065Y112703D01*
X438260Y97898D01*
X437784Y96750D01*
Y89750D01*
X438260Y88602D01*
X443688Y83174D01*
X443604Y82750D01*
X443817Y81677D01*
X444007Y81394D01*
X443328Y80124D01*
X434654D01*
X433506Y79648D01*
X423231Y69374D01*
X418216D01*
X417690Y70644D01*
X434648Y87602D01*
X435124Y88750D01*
Y96827D01*
X436148Y97852D01*
X436624Y99000D01*
Y115077D01*
X455806Y134260D01*
X456281Y135408D01*
Y138120D01*
X456640Y138360D01*
X457248Y139269D01*
X457462Y140342D01*
X457248Y141415D01*
X456640Y142325D01*
X455731Y142933D01*
X454658Y143146D01*
X453585Y142933D01*
X452675Y142325D01*
X452067Y141415D01*
X451854Y140342D01*
X450685Y139710D01*
X450085Y139590D01*
X449394Y139129D01*
X448590Y139377D01*
X448124Y139691D01*
Y141171D01*
X456079Y149126D01*
X458250D01*
X459398Y149602D01*
X472398Y162602D01*
X472874Y163750D01*
Y170749D01*
X480047Y177922D01*
X481284Y177363D01*
D02*
G37*
G36*
X592533Y191329D02*
X592533Y191329D01*
X606034Y177827D01*
Y170250D01*
X606510Y169102D01*
X622760Y152852D01*
X623908Y152376D01*
X631885D01*
X635338Y148924D01*
X635254Y148500D01*
X635467Y147427D01*
X636075Y146517D01*
X636985Y145910D01*
X638058Y145696D01*
X639131Y145910D01*
X640040Y146517D01*
X640648Y147427D01*
X640861Y148500D01*
X640648Y149573D01*
X640040Y150483D01*
X639131Y151090D01*
X638058Y151304D01*
X637634Y151220D01*
X635151Y153703D01*
X635637Y154876D01*
X665000D01*
X666148Y155352D01*
X683672Y172876D01*
X715828D01*
X716314Y171703D01*
X713413Y168802D01*
X712156Y168874D01*
X711983Y169132D01*
X711073Y169740D01*
X710000Y169954D01*
X708927Y169740D01*
X708017Y169132D01*
X707410Y168223D01*
X707196Y167150D01*
X707302Y166619D01*
X706131Y165993D01*
X702173Y169951D01*
X701025Y170427D01*
X684553D01*
X683405Y169951D01*
X669352Y155898D01*
X668876Y154750D01*
Y131423D01*
X655827Y118374D01*
X651799D01*
X651273Y119644D01*
X654931Y123302D01*
X655705Y124460D01*
X655976Y125825D01*
Y134500D01*
X655969Y134538D01*
X656177Y134889D01*
X657019Y135768D01*
X657731Y135910D01*
X658640Y136517D01*
X659248Y137427D01*
X659462Y138500D01*
X659248Y139573D01*
X658640Y140483D01*
X657731Y141090D01*
X656658Y141304D01*
X655585Y141090D01*
X654675Y140483D01*
X654067Y139573D01*
X653964Y139054D01*
X652887Y138113D01*
X652654Y138019D01*
X652408Y138069D01*
X651042Y137797D01*
X649884Y137023D01*
X649111Y135866D01*
X648839Y134500D01*
Y127303D01*
X646354Y124818D01*
X641886D01*
X634681Y132023D01*
X633523Y132797D01*
X632158Y133069D01*
X628136D01*
X623476Y137728D01*
Y145500D01*
X623205Y146866D01*
X622431Y148023D01*
X599226Y171228D01*
Y180517D01*
X598955Y181882D01*
X598181Y183040D01*
X585948Y195273D01*
X584790Y196047D01*
X583425Y196319D01*
X548390D01*
X547716Y197589D01*
X547910Y197876D01*
X585985D01*
X592533Y191329D01*
D02*
G37*
G36*
X165631Y176227D02*
X166779Y175751D01*
X170125D01*
X171273Y176227D01*
X173923Y178876D01*
X191327D01*
X193483Y176721D01*
X194631Y176245D01*
X229206D01*
X232349Y173102D01*
X233497Y172626D01*
X282869D01*
X284017Y173102D01*
X287041Y176126D01*
X291578D01*
X292356Y176449D01*
X293076Y175372D01*
X285828Y168124D01*
X282973D01*
X282733Y168483D01*
X281823Y169090D01*
X280750Y169304D01*
X279677Y169090D01*
X278933Y168593D01*
X278141Y168735D01*
X277564Y168967D01*
X277526Y169158D01*
X276863Y170150D01*
X275870Y170813D01*
X274700Y171046D01*
X257237D01*
X256067Y170813D01*
X255075Y170150D01*
X255075Y170150D01*
X250837Y165913D01*
X250519Y165437D01*
X250357Y165359D01*
X249105Y165257D01*
X249008Y165288D01*
X246148Y168148D01*
X245000Y168624D01*
X234701D01*
X228926Y174398D01*
X227778Y174874D01*
X218750D01*
X217602Y174398D01*
X216077Y172874D01*
X166423D01*
X163648Y175648D01*
X162500Y176124D01*
X157904D01*
X156756Y175648D01*
X152352Y171244D01*
X151876Y170096D01*
Y167673D01*
X141827Y157624D01*
X138370D01*
X137752Y158802D01*
X151898Y172948D01*
X152374Y174096D01*
Y179876D01*
X161981D01*
X165631Y176227D01*
D02*
G37*
G36*
X304366Y189117D02*
X304767Y188517D01*
X305677Y187910D01*
X306626Y187721D01*
Y181576D01*
X280674Y155624D01*
X274632D01*
X273733Y156894D01*
X273804Y157250D01*
X273590Y158323D01*
X272983Y159233D01*
X272073Y159840D01*
X271000Y160054D01*
X269927Y159840D01*
X269017Y159233D01*
X268410Y158323D01*
X268196Y157250D01*
X268267Y156894D01*
X267368Y155624D01*
X255672D01*
X253959Y157337D01*
X254116Y158327D01*
X254319Y158773D01*
X255163Y159337D01*
X255826Y160329D01*
X256059Y161500D01*
Y162483D01*
X258504Y164929D01*
X274700D01*
X275870Y165161D01*
X276863Y165825D01*
X278152Y165467D01*
X278160Y165427D01*
X278768Y164517D01*
X279677Y163910D01*
X280750Y163696D01*
X281823Y163910D01*
X282733Y164517D01*
X282973Y164876D01*
X286500D01*
X287648Y165352D01*
X297648Y175352D01*
X298124Y176500D01*
Y184671D01*
X302949Y189496D01*
X304366Y189117D01*
D02*
G37*
G36*
X3444Y165192D02*
Y161299D01*
X451Y158306D01*
X-8000D01*
X-9697Y158083D01*
X-11278Y157428D01*
X-12636Y156386D01*
X-23886Y145136D01*
X-24928Y143778D01*
X-25583Y142197D01*
X-25806Y140500D01*
Y113250D01*
X-25583Y111553D01*
X-24928Y109972D01*
X-23886Y108614D01*
X-12886Y97614D01*
X-11528Y96572D01*
X-9947Y95917D01*
X-8250Y95694D01*
X-4298D01*
X-2056Y93452D01*
Y90250D01*
X-1833Y88553D01*
X-1178Y86972D01*
X-136Y85614D01*
X2194Y83284D01*
Y81725D01*
X-765Y78765D01*
X-1082Y78000D01*
Y75604D01*
X-2352Y74725D01*
X-2750Y74804D01*
X-3823Y74590D01*
X-4733Y73983D01*
X-5340Y73073D01*
X-5554Y72000D01*
X-5340Y70927D01*
X-4733Y70017D01*
X-3823Y69410D01*
X-2750Y69196D01*
X-1677Y69410D01*
X-767Y70017D01*
X343Y70127D01*
X2168Y68302D01*
Y64000D01*
X2194Y63936D01*
Y60918D01*
X924Y60415D01*
X614Y60623D01*
X-588Y61121D01*
X-1410Y62177D01*
X-1196Y63250D01*
X-1410Y64323D01*
X-2017Y65233D01*
X-2927Y65840D01*
X-4000Y66054D01*
X-5073Y65840D01*
X-5983Y65233D01*
X-6590Y64323D01*
X-6804Y63250D01*
X-6766Y63059D01*
X-7742Y61789D01*
X-30461D01*
Y163211D01*
X-3500D01*
X-3401Y163231D01*
X-3300Y163221D01*
X-2130Y163336D01*
X-1843Y163423D01*
X-1549Y163481D01*
X614Y164377D01*
X1275Y164819D01*
X2174Y165718D01*
X3444Y165192D01*
D02*
G37*
G36*
X164602Y170102D02*
X165750Y169626D01*
X214325D01*
X214811Y168453D01*
X212102Y165744D01*
X211626Y164596D01*
Y163329D01*
X210453Y162843D01*
X205648Y167648D01*
X204500Y168123D01*
X161472D01*
X161233Y168483D01*
X160323Y169090D01*
X159250Y169304D01*
X158177Y169090D01*
X157267Y168483D01*
X156660Y167573D01*
X156446Y166500D01*
X156660Y165427D01*
X157267Y164517D01*
X158177Y163909D01*
X159250Y163696D01*
X160323Y163909D01*
X161233Y164517D01*
X161472Y164876D01*
X203827D01*
X214602Y154102D01*
X215750Y153626D01*
X227327D01*
X231352Y149602D01*
X232500Y149126D01*
X241359D01*
X248438Y142047D01*
X247952Y140874D01*
X169632D01*
X168733Y142144D01*
X168804Y142500D01*
X168733Y142856D01*
X169632Y144126D01*
X207250D01*
X208398Y144602D01*
X209076Y145280D01*
X209500Y145196D01*
X210573Y145410D01*
X211483Y146017D01*
X212090Y146927D01*
X212304Y148000D01*
X212090Y149073D01*
X211483Y149983D01*
X210573Y150590D01*
X209500Y150804D01*
X208427Y150590D01*
X207517Y149983D01*
X206910Y149073D01*
X206696Y148000D01*
X205526Y147374D01*
X158000D01*
X156852Y146898D01*
X152352Y142398D01*
X151876Y141250D01*
Y138722D01*
X151517Y138483D01*
X150910Y137573D01*
X150696Y136500D01*
X150910Y135427D01*
X151517Y134517D01*
X152427Y133910D01*
X152507Y133894D01*
X152382Y132624D01*
X110750D01*
X109602Y132148D01*
X101578Y124124D01*
X97723D01*
X97483Y124483D01*
X96639Y125047D01*
X96566Y125120D01*
X96246Y126450D01*
X110422Y140626D01*
X115750D01*
X116898Y141102D01*
X118923Y143126D01*
X124346D01*
X125494Y143602D01*
X128148Y146256D01*
X128624Y147404D01*
Y151827D01*
X131841Y155045D01*
X132346Y155000D01*
X133304Y154711D01*
X133767Y154017D01*
X134677Y153410D01*
X135750Y153196D01*
X136823Y153410D01*
X137733Y154017D01*
X137972Y154376D01*
X142500D01*
X143648Y154852D01*
X154648Y165852D01*
X155124Y167000D01*
Y169424D01*
X158576Y172876D01*
X161828D01*
X164602Y170102D01*
D02*
G37*
G36*
X229250Y164000D02*
X229250Y160250D01*
X223000D01*
X221750Y161500D01*
X221750Y166250D01*
X223250Y167750D01*
X225500D01*
X229250Y164000D01*
D02*
G37*
G36*
X568791Y167041D02*
X568799Y166906D01*
X568604Y165926D01*
X568817Y164853D01*
X569425Y163943D01*
X570335Y163336D01*
X570408Y163321D01*
X578359Y155370D01*
Y148693D01*
X577089Y148167D01*
X575937Y149319D01*
X574789Y149794D01*
X572097D01*
X570949Y149319D01*
X568885Y147255D01*
X568466Y147128D01*
X568079Y147362D01*
X567856Y147511D01*
X567822Y147518D01*
X567579Y147664D01*
X567582Y148936D01*
X567856Y148990D01*
X568765Y149598D01*
X569373Y150507D01*
X569587Y151580D01*
X569373Y152653D01*
X568765Y153563D01*
X567856Y154171D01*
X566783Y154384D01*
X565710Y154171D01*
X564800Y153563D01*
X564560Y153204D01*
X550310D01*
X550171Y153146D01*
X547909Y153444D01*
X545673Y154371D01*
X543863Y155759D01*
X543806Y155898D01*
X543786Y155906D01*
X540942Y158089D01*
X537611Y159468D01*
X534057Y159936D01*
X534037Y159944D01*
X533784D01*
X532886Y161214D01*
X532956Y161571D01*
X532743Y162644D01*
X532135Y163553D01*
X531226Y164161D01*
X530153Y164375D01*
X529626Y164901D01*
X529413Y165974D01*
X528805Y166883D01*
X528771Y166906D01*
X529156Y168176D01*
X551129D01*
X551515Y166906D01*
X551480Y166883D01*
X550872Y165974D01*
X550659Y164901D01*
X550133Y164375D01*
X549060Y164161D01*
X548150Y163553D01*
X547542Y162644D01*
X547329Y161571D01*
X547542Y160498D01*
X548150Y159588D01*
X549060Y158980D01*
X550133Y158767D01*
X551206Y158980D01*
X552115Y159588D01*
X552723Y160498D01*
X552937Y161571D01*
X553463Y162097D01*
X554536Y162310D01*
X555445Y162918D01*
X556053Y163828D01*
X556267Y164901D01*
X556053Y165974D01*
X555445Y166883D01*
X555411Y166906D01*
X555796Y168176D01*
X568077D01*
X568791Y167041D01*
D02*
G37*
G36*
X596034Y144996D02*
Y128750D01*
X596510Y127602D01*
X597315Y126797D01*
X596829Y125624D01*
X593672D01*
X591720Y127577D01*
X591804Y128000D01*
X591590Y129073D01*
X590983Y129983D01*
X590073Y130590D01*
X589000Y130804D01*
X587927Y130590D01*
X587017Y129983D01*
X586410Y129073D01*
X586196Y128000D01*
X586410Y126927D01*
X587017Y126017D01*
X587927Y125410D01*
X589000Y125196D01*
X589423Y125280D01*
X591852Y122852D01*
X592355Y122644D01*
X592102Y121374D01*
X589500D01*
X588352Y120898D01*
X580698Y113244D01*
X573691D01*
X572918Y114385D01*
X573488Y115485D01*
X574516Y115690D01*
X575425Y116298D01*
X576033Y117207D01*
X576247Y118280D01*
X576773Y118806D01*
X577846Y119020D01*
X578817Y119427D01*
X579425Y118517D01*
X580335Y117909D01*
X581408Y117696D01*
X582481Y117909D01*
X583390Y118517D01*
X583998Y119427D01*
X584212Y120500D01*
X583998Y121573D01*
X583390Y122483D01*
X582481Y123090D01*
X581408Y123304D01*
X580335Y123090D01*
X579363Y122683D01*
X578755Y123593D01*
X578396Y123833D01*
Y129662D01*
X581171Y132436D01*
X581646Y133584D01*
Y139821D01*
X582916Y140439D01*
X583335Y140160D01*
X584408Y139946D01*
X585481Y140160D01*
X586390Y140767D01*
X586998Y141677D01*
X587212Y142750D01*
X586998Y143823D01*
X586957Y143885D01*
Y144500D01*
X586763Y145475D01*
X586210Y146302D01*
X585086Y147427D01*
X585711Y148597D01*
X585759Y148588D01*
X586832Y148801D01*
X587742Y149409D01*
X588349Y150318D01*
X588443Y150791D01*
X589789Y151241D01*
X596034Y144996D01*
D02*
G37*
G36*
X536795Y156422D02*
X539365Y155357D01*
X541443Y153763D01*
X541510Y153602D01*
X541571Y153577D01*
X544096Y151639D01*
X547093Y150398D01*
X550248Y149982D01*
X550310Y149957D01*
X553214D01*
X554076Y148687D01*
X553989Y148251D01*
X554202Y147178D01*
X554810Y146268D01*
X555720Y145660D01*
X556793Y145447D01*
X557866Y145660D01*
X558775Y146268D01*
X559383Y147178D01*
X559597Y148251D01*
X559510Y148687D01*
X560371Y149957D01*
X564560D01*
X564800Y149598D01*
X565710Y148990D01*
X566173Y148898D01*
Y147603D01*
X565710Y147511D01*
X564800Y146903D01*
X564192Y145993D01*
X563979Y144920D01*
X563453Y144394D01*
X562380Y144181D01*
X561470Y143573D01*
X560862Y142663D01*
X560649Y141590D01*
X560752Y141074D01*
X559928Y139804D01*
X555338D01*
X554190Y139328D01*
X544985Y130124D01*
X543453D01*
X542305Y129648D01*
X535280Y122624D01*
X500579D01*
X499431Y122148D01*
X491510Y114227D01*
X491510Y114226D01*
X490538Y113254D01*
X489122Y113312D01*
X488998Y113374D01*
X488845Y113603D01*
X487935Y114211D01*
X487472Y114303D01*
Y115598D01*
X487935Y115690D01*
X488845Y116298D01*
X489453Y117207D01*
X489666Y118280D01*
X489453Y119354D01*
X488845Y120263D01*
X487935Y120871D01*
X486862Y121084D01*
X486614Y121035D01*
X485581Y121806D01*
X485505Y123055D01*
X507910Y145460D01*
X508934Y145771D01*
X509100Y145660D01*
X510173Y145447D01*
X511245Y145660D01*
X512155Y146268D01*
X512763Y147178D01*
X512855Y147641D01*
X514150D01*
X514242Y147178D01*
X514850Y146268D01*
X515760Y145660D01*
X516833Y145447D01*
X517906Y145660D01*
X518815Y146268D01*
X519423Y147178D01*
X519515Y147641D01*
X520810D01*
X520902Y147178D01*
X521510Y146268D01*
X522420Y145660D01*
X523493Y145447D01*
X524566Y145660D01*
X525475Y146268D01*
X526083Y147178D01*
X526169Y147612D01*
X526634Y148440D01*
X527461Y148904D01*
X527896Y148990D01*
X528805Y149598D01*
X529413Y150508D01*
X529499Y150942D01*
X529964Y151770D01*
X530791Y152234D01*
X531226Y152320D01*
X532135Y152928D01*
X532743Y153838D01*
X532956Y154911D01*
X532854Y155427D01*
X533677Y156697D01*
X534037D01*
X534198Y156764D01*
X536795Y156422D01*
D02*
G37*
G36*
X379102Y137102D02*
X379309Y136420D01*
X379077Y136073D01*
X378863Y135000D01*
X379077Y133927D01*
X377985Y133403D01*
X374240Y137148D01*
X373092Y137624D01*
X371071D01*
X371071Y137624D01*
X369000D01*
X367852Y137148D01*
X362827Y132124D01*
X355500D01*
X354352Y131648D01*
X353864Y131160D01*
X353835Y131148D01*
X350760Y128073D01*
X350284Y126925D01*
Y123338D01*
X344602Y117655D01*
X344126Y116507D01*
Y102172D01*
X342352Y100398D01*
X341876Y99250D01*
Y89423D01*
X331077Y78623D01*
X328730D01*
X328490Y78983D01*
X327581Y79590D01*
X326508Y79804D01*
X325435Y79590D01*
X324525Y78983D01*
X323917Y78073D01*
X323704Y77000D01*
X323917Y75927D01*
X324067Y75704D01*
X324525Y74483D01*
X323917Y73573D01*
X323704Y72500D01*
X323825Y71894D01*
X323043Y70624D01*
X315796D01*
X314648Y70148D01*
X303374Y58874D01*
X296473D01*
X296233Y59233D01*
X295323Y59840D01*
X294250Y60054D01*
X293177Y59840D01*
X292267Y59233D01*
X291660Y58323D01*
X291446Y57250D01*
X291567Y56644D01*
X290785Y55374D01*
X287233D01*
X286747Y56547D01*
X294076Y63876D01*
X298250D01*
X299398Y64352D01*
X300422Y65376D01*
X305985D01*
X307133Y65852D01*
X316898Y75617D01*
X316956Y75756D01*
X322326Y81126D01*
X331000D01*
X332148Y81602D01*
X339898Y89352D01*
X340374Y90500D01*
Y119827D01*
X347148Y126602D01*
X347624Y127750D01*
Y132577D01*
X349565Y134519D01*
X350041Y135667D01*
Y137495D01*
X351887Y139341D01*
X356214D01*
X357363Y139816D01*
X358923Y141376D01*
X374827D01*
X379102Y137102D01*
D02*
G37*
G36*
X51596Y203488D02*
X51730Y203404D01*
X52526Y202153D01*
X52446Y201750D01*
X52660Y200677D01*
X53267Y199767D01*
X53734Y199456D01*
X53742Y199435D01*
Y198065D01*
X53734Y198044D01*
X53267Y197733D01*
X52660Y196823D01*
X52446Y195750D01*
X52660Y194677D01*
X52809Y194454D01*
X53167Y193500D01*
X52809Y192546D01*
X52660Y192323D01*
X52446Y191250D01*
X52660Y190177D01*
X53267Y189267D01*
X54177Y188660D01*
X55250Y188446D01*
X55782Y187322D01*
Y187178D01*
X55250Y186054D01*
X54177Y185840D01*
X53267Y185233D01*
X52660Y184323D01*
X52446Y183250D01*
X52660Y182177D01*
X53267Y181267D01*
Y180733D01*
X52660Y179823D01*
X52446Y178750D01*
X52660Y177677D01*
X53267Y176767D01*
X53734Y176456D01*
X53742Y176435D01*
Y175065D01*
X53734Y175044D01*
X53267Y174733D01*
X52660Y173823D01*
X52446Y172750D01*
X52660Y171677D01*
X53267Y170767D01*
X54177Y170160D01*
X55250Y169946D01*
X56323Y170160D01*
X57233Y170767D01*
X57840Y171677D01*
X58054Y172750D01*
X57840Y173823D01*
X57233Y174733D01*
X56766Y175044D01*
X56758Y175065D01*
Y176435D01*
X56766Y176456D01*
X57233Y176767D01*
X57840Y177677D01*
X58054Y178750D01*
X57840Y179823D01*
X57233Y180733D01*
Y181267D01*
X57840Y182177D01*
X58054Y183250D01*
X59178Y183782D01*
X59322D01*
X60446Y183250D01*
X60659Y182177D01*
X61267Y181267D01*
Y180733D01*
X60659Y179823D01*
X60446Y178750D01*
X60659Y177677D01*
X61267Y176767D01*
X61734Y176456D01*
X61742Y176435D01*
Y175065D01*
X61734Y175044D01*
X61267Y174733D01*
X60659Y173823D01*
X60446Y172750D01*
X60659Y171677D01*
X61267Y170767D01*
X62177Y170160D01*
X63250Y169946D01*
X64323Y170160D01*
X65233Y170767D01*
X65840Y171677D01*
X66054Y172750D01*
X65840Y173823D01*
X65233Y174733D01*
X64766Y175044D01*
X64758Y175065D01*
Y176435D01*
X64766Y176456D01*
X65233Y176767D01*
X65840Y177677D01*
X66054Y178750D01*
X65840Y179823D01*
X65233Y180733D01*
Y181225D01*
X65949Y182229D01*
X67153Y182209D01*
X67160Y182177D01*
X67767Y181267D01*
X68677Y180660D01*
X69008Y180594D01*
X69376Y179904D01*
Y173031D01*
X62469Y166124D01*
X54750D01*
X53602Y165648D01*
X51852Y163898D01*
X51376Y162750D01*
Y147172D01*
X44352Y140148D01*
X43876Y139000D01*
Y136923D01*
X36930Y129976D01*
X35733Y129483D01*
X34823Y130090D01*
X33750Y130304D01*
X32677Y130090D01*
X31767Y129483D01*
X31404Y128939D01*
X29965Y128581D01*
X28540Y130006D01*
X28838Y131504D01*
X29233Y131767D01*
X29306Y131876D01*
X33927D01*
X35075Y132352D01*
X39599Y136876D01*
X40075Y138024D01*
Y143299D01*
X39599Y144447D01*
X24220Y159826D01*
X24304Y160250D01*
X24166Y160941D01*
X24908Y162211D01*
X30250D01*
X31030Y162366D01*
X31692Y162808D01*
X43692Y174808D01*
X43692Y174808D01*
X44134Y175470D01*
X44289Y176250D01*
Y196905D01*
X50959Y203575D01*
X51596Y203488D01*
D02*
G37*
G36*
X137765Y128106D02*
X137392Y127858D01*
X136785Y126948D01*
X136571Y125875D01*
X136785Y124802D01*
X137392Y123892D01*
X138087Y123429D01*
X138375Y122472D01*
X138420Y121966D01*
X137078Y120624D01*
X104466D01*
X103940Y121894D01*
X111423Y129376D01*
X137379D01*
X137765Y128106D01*
D02*
G37*
G36*
X338645Y152821D02*
X339097Y151885D01*
X338837Y151383D01*
X326102Y138648D01*
X325626Y137500D01*
Y126173D01*
X319102Y119648D01*
X318626Y118500D01*
Y115391D01*
X317356Y114388D01*
X317125Y114434D01*
X315954Y114201D01*
X314962Y113538D01*
X314299Y112545D01*
X314066Y111375D01*
X314299Y110204D01*
X314962Y109212D01*
X316941Y107233D01*
Y102517D01*
X312337Y97913D01*
X311674Y96920D01*
X311441Y95750D01*
X311441Y95750D01*
Y92750D01*
X311674Y91580D01*
X312337Y90587D01*
X313330Y89924D01*
X314500Y89691D01*
X315671Y89924D01*
X316663Y90587D01*
X317326Y91580D01*
X317559Y92750D01*
Y94483D01*
X322163Y99087D01*
X322826Y100079D01*
X323059Y101250D01*
Y106771D01*
X324329Y107297D01*
X327126Y104499D01*
Y99497D01*
X326952Y99354D01*
X325879Y99140D01*
X324969Y98532D01*
X324362Y97623D01*
X324148Y96550D01*
X324362Y95477D01*
X324549Y95196D01*
X325019Y93982D01*
X324412Y93073D01*
X324198Y92000D01*
X324269Y91644D01*
X323370Y90374D01*
X319169D01*
X318020Y89898D01*
X308602Y80479D01*
X308544Y80340D01*
X302827Y74624D01*
X298822D01*
X298619Y75256D01*
X298611Y75894D01*
X299358Y76392D01*
X299965Y77302D01*
X300179Y78375D01*
X299965Y79448D01*
X299358Y80358D01*
X298448Y80965D01*
X297375Y81179D01*
X296302Y80965D01*
X295392Y80358D01*
X294785Y79448D01*
X294571Y78375D01*
X294785Y77302D01*
X295392Y76392D01*
X296302Y75785D01*
X296604Y75725D01*
X296734Y74404D01*
X296117Y74148D01*
X295092Y73124D01*
X290750D01*
X289602Y72648D01*
X275447Y58493D01*
X275092Y58564D01*
X275005Y58636D01*
X274414Y59994D01*
X274624Y60500D01*
Y68078D01*
X278898Y72352D01*
X279374Y73500D01*
Y84078D01*
X289673Y94376D01*
X298000D01*
X299148Y94852D01*
X304898Y100602D01*
X305374Y101750D01*
Y111500D01*
X305288Y111708D01*
X305322Y111908D01*
X306100Y113066D01*
X306573Y113160D01*
X307483Y113767D01*
X308767D01*
X309677Y113160D01*
X310750Y112946D01*
X311823Y113160D01*
X312733Y113767D01*
X313340Y114677D01*
X313554Y115750D01*
X313340Y116823D01*
X312733Y117733D01*
X312374Y117972D01*
Y128171D01*
X337288Y153085D01*
X338645Y152821D01*
D02*
G37*
G36*
X548260Y115102D02*
X548548Y114983D01*
X548846Y113484D01*
X547510Y112148D01*
X547034Y111000D01*
Y104251D01*
X545657Y102874D01*
X544159D01*
X541926Y105106D01*
Y109605D01*
X541451Y110753D01*
X540056Y112148D01*
X538908Y112624D01*
X530658D01*
X529510Y112148D01*
X527760Y110398D01*
X527284Y109250D01*
Y104251D01*
X525657Y102624D01*
X523909D01*
X522781Y103751D01*
Y109750D01*
X522306Y110898D01*
X520806Y112398D01*
X519658Y112874D01*
X501623D01*
X501307Y113310D01*
X500963Y114144D01*
X501344Y115063D01*
Y116640D01*
X502080Y117376D01*
X504980D01*
X507254Y115102D01*
X508403Y114626D01*
X511158D01*
X512306Y115102D01*
X514580Y117376D01*
X515485D01*
X517760Y115102D01*
X518908Y114626D01*
X520868D01*
X522016Y115102D01*
X524291Y117376D01*
X525080D01*
X527355Y115102D01*
X528503Y114626D01*
X531203D01*
X532351Y115102D01*
X534626Y117376D01*
X534980D01*
X537507Y114849D01*
X538655Y114374D01*
X538661Y114376D01*
X540953D01*
X542101Y114852D01*
X544626Y117376D01*
X545985D01*
X548260Y115102D01*
D02*
G37*
G36*
X685376Y124249D02*
Y116001D01*
X683499Y114124D01*
X677251D01*
X672226Y119148D01*
X671078Y119624D01*
X666294D01*
X665768Y120894D01*
X673648Y128773D01*
X674124Y129922D01*
Y133706D01*
X675394Y134232D01*
X685376Y124249D01*
D02*
G37*
G36*
X432380Y138038D02*
X432389Y137976D01*
X422536Y128122D01*
X422038Y127378D01*
X421864Y126500D01*
Y113886D01*
X420594Y113360D01*
X406330Y127624D01*
X405806Y128148D01*
X406330Y129284D01*
X414422Y137376D01*
X429250D01*
X430398Y137852D01*
X431030Y138483D01*
X432380Y138038D01*
D02*
G37*
G36*
X64944Y124602D02*
Y103695D01*
X61805Y100556D01*
X58000D01*
X56303Y100333D01*
X54722Y99678D01*
X53364Y98636D01*
X44534Y89806D01*
X32750D01*
X31053Y89583D01*
X29472Y88928D01*
X28114Y87886D01*
X18894Y78665D01*
X17624Y79191D01*
Y90000D01*
X17148Y91148D01*
X16124Y92172D01*
Y93825D01*
X17297Y94311D01*
X18256Y93352D01*
X19404Y92876D01*
X26500D01*
X27648Y93352D01*
X35422Y101126D01*
X44200D01*
X45348Y101602D01*
X55000Y111254D01*
X56378Y110836D01*
X56410Y110677D01*
X57017Y109767D01*
X57927Y109160D01*
X59000Y108946D01*
X60073Y109160D01*
X60983Y109767D01*
X61590Y110677D01*
X61804Y111750D01*
X61590Y112823D01*
X60983Y113733D01*
X60624Y113973D01*
Y122078D01*
X63674Y125128D01*
X64944Y124602D01*
D02*
G37*
G36*
X604145Y111677D02*
X604574Y110856D01*
X604404Y110000D01*
X604617Y108927D01*
X605225Y108017D01*
X606135Y107410D01*
X607208Y107196D01*
X608281Y107410D01*
X609106Y107961D01*
X609546Y107864D01*
X610376Y107507D01*
Y102673D01*
X598852Y91148D01*
X598376Y90000D01*
Y72673D01*
X592352Y66648D01*
X591876Y65500D01*
Y54422D01*
X570078Y32624D01*
X556137D01*
X555610Y33894D01*
X558343Y36626D01*
X571250D01*
X572398Y37102D01*
X589898Y54602D01*
X590374Y55750D01*
Y67077D01*
X596148Y72852D01*
X596624Y74000D01*
Y91078D01*
X596148Y92226D01*
X593227Y95148D01*
X592078Y95624D01*
X587086D01*
X586173Y95245D01*
X585835Y95344D01*
X585459Y96610D01*
X585504Y96809D01*
X594951Y106256D01*
X595250Y106196D01*
X596323Y106410D01*
X597233Y107017D01*
X597840Y107927D01*
X598054Y109000D01*
X597840Y110073D01*
X597317Y110856D01*
X597462Y111440D01*
X597807Y112126D01*
X603794D01*
X604145Y111677D01*
D02*
G37*
G36*
X405578Y123784D02*
X405223Y122342D01*
X404685Y121983D01*
X404077Y121073D01*
X403863Y120000D01*
X404077Y118927D01*
X404685Y118017D01*
X405594Y117410D01*
X406667Y117196D01*
X407740Y117410D01*
X408650Y118017D01*
X409010Y118556D01*
X410451Y118911D01*
X418458Y110904D01*
X418382Y109621D01*
X418175Y109482D01*
X417567Y108573D01*
X417354Y107500D01*
X417436Y107089D01*
X416562Y105819D01*
X408320D01*
X399726Y114412D01*
Y119000D01*
X399455Y120366D01*
X399375Y120485D01*
X399258Y121073D01*
X398650Y121983D01*
X397740Y122590D01*
X397513Y122636D01*
X396523Y123297D01*
X395158Y123569D01*
X391667D01*
X390302Y123297D01*
X389144Y122523D01*
X388370Y121366D01*
X388099Y120000D01*
X388370Y118634D01*
X389144Y117477D01*
X390302Y116703D01*
X391667Y116431D01*
X392589D01*
Y112934D01*
X392861Y111568D01*
X393634Y110411D01*
X404089Y99956D01*
Y99636D01*
X403134Y98681D01*
X402361Y97523D01*
X402089Y96158D01*
Y91011D01*
X400688Y89610D01*
X399975Y89838D01*
X399440Y90157D01*
X399258Y91073D01*
X398650Y91983D01*
X397740Y92590D01*
X396667Y92804D01*
X395594Y92590D01*
X394685Y91983D01*
X394077Y91073D01*
X393863Y90000D01*
X393946Y89584D01*
X393075Y88314D01*
X392500D01*
X392388Y88291D01*
X392250Y88319D01*
X390884Y88047D01*
X389727Y87273D01*
X386341Y83888D01*
X385382Y83962D01*
X384471Y85000D01*
X384258Y86073D01*
X383979Y86490D01*
X384412Y87827D01*
X384461Y87881D01*
X384604Y87909D01*
X385514Y88517D01*
X388150Y91153D01*
X388758Y92063D01*
X388786Y92206D01*
X388840Y92255D01*
X390177Y92688D01*
X390594Y92410D01*
X391667Y92196D01*
X392740Y92410D01*
X393650Y93017D01*
X394258Y93927D01*
X394471Y95000D01*
X394386Y95426D01*
X395252Y96696D01*
X396167D01*
X397240Y96910D01*
X398150Y97517D01*
X398650Y98017D01*
X399258Y98927D01*
X399471Y100000D01*
X399258Y101073D01*
X398650Y101983D01*
X397740Y102590D01*
X396667Y102804D01*
X395594Y102590D01*
X394308Y103133D01*
X394181Y103440D01*
X394173Y103485D01*
X394490Y104250D01*
X394490Y106750D01*
X394490Y106750D01*
X394173Y107515D01*
X389173Y112515D01*
X388408Y112832D01*
X385658D01*
X385658Y112832D01*
X384892Y112515D01*
X384892Y112515D01*
X383892Y111515D01*
X383575Y110750D01*
Y108948D01*
X382946Y108319D01*
X380615D01*
X380273Y108547D01*
X378908Y108819D01*
X375226D01*
Y114250D01*
X374955Y115616D01*
X374181Y116773D01*
X373023Y117547D01*
X371658Y117819D01*
X370292Y117547D01*
X369134Y116773D01*
X368361Y115616D01*
X368089Y114250D01*
Y105250D01*
X368361Y103884D01*
X368684Y103400D01*
X368738Y102076D01*
X368473Y101641D01*
X365741Y98909D01*
X364471Y99435D01*
Y105000D01*
X364258Y106073D01*
X363650Y106983D01*
X362740Y107590D01*
X361667Y107804D01*
X360594Y107590D01*
X359685Y106983D01*
X359077Y106073D01*
X358863Y105000D01*
Y99797D01*
X357172Y98106D01*
X355252D01*
X354179Y97892D01*
X353269Y97284D01*
X351144Y95159D01*
X350028Y95621D01*
X349905Y96859D01*
X351898Y98852D01*
X352374Y100000D01*
Y107558D01*
X353279Y108356D01*
X354585Y108167D01*
X354685Y108017D01*
X355594Y107410D01*
X356667Y107196D01*
X357740Y107410D01*
X358650Y108017D01*
X359258Y108927D01*
X359471Y110000D01*
X359258Y111073D01*
X358650Y111983D01*
X358535Y113344D01*
X359215Y114126D01*
X363500D01*
X364648Y114602D01*
X369422Y119376D01*
X372263D01*
X372660Y119541D01*
X374073Y118929D01*
X374113Y118873D01*
X374685Y118017D01*
X375594Y117410D01*
X376667Y117196D01*
X377740Y117410D01*
X378650Y118017D01*
X379258Y118927D01*
X379471Y120000D01*
X380190Y120876D01*
X385000D01*
X386148Y121352D01*
X390173Y125376D01*
X403985D01*
X405578Y123784D01*
D02*
G37*
G36*
X-11192Y123272D02*
X-7775Y119856D01*
X-7114Y119414D01*
X-6333Y119259D01*
X-3643D01*
X9211Y106405D01*
Y104648D01*
X8660Y103823D01*
X8536Y103200D01*
X7336Y102703D01*
X7240Y102699D01*
X3053Y106886D01*
X1695Y107928D01*
X114Y108583D01*
X-1583Y108806D01*
X-5534D01*
X-12694Y115966D01*
Y123249D01*
X-11424Y123620D01*
X-11192Y123272D01*
D02*
G37*
G36*
X393408Y106750D02*
X393408Y104250D01*
X391408Y102250D01*
X383408D01*
X383408Y107250D01*
X384658Y108500D01*
Y110750D01*
X385658Y111750D01*
X388408D01*
X393408Y106750D01*
D02*
G37*
G36*
X484272Y110547D02*
X484880Y109638D01*
X485789Y109030D01*
X486862Y108816D01*
X487935Y109030D01*
X488356Y109311D01*
X489626Y108695D01*
Y101225D01*
X488356Y100609D01*
X487935Y100891D01*
X486862Y101104D01*
X485789Y100891D01*
X484880Y100283D01*
X484272Y99373D01*
X484058Y98300D01*
X484129Y97944D01*
X483231Y96674D01*
X481458D01*
X480310Y96198D01*
X469760Y85648D01*
X469284Y84500D01*
Y84190D01*
X468925Y83924D01*
X468845Y83900D01*
X467275Y84281D01*
X467140Y84483D01*
X466781Y84722D01*
Y102499D01*
X469493Y105211D01*
X470063Y105097D01*
X470788Y104710D01*
X470952Y103887D01*
X471560Y102978D01*
X472469Y102370D01*
X473542Y102156D01*
X474615Y102370D01*
X475525Y102978D01*
X476133Y103887D01*
X476219Y104322D01*
X476235Y104351D01*
X477509D01*
X477525Y104322D01*
X477612Y103887D01*
X478220Y102978D01*
X479129Y102370D01*
X480202Y102156D01*
X481275Y102370D01*
X482185Y102978D01*
X482793Y103887D01*
X483006Y104960D01*
X482793Y106033D01*
X482185Y106943D01*
X481275Y107551D01*
X480812Y107643D01*
Y108938D01*
X481275Y109030D01*
X482185Y109638D01*
X482793Y110548D01*
X482885Y111011D01*
X484180D01*
X484272Y110547D01*
D02*
G37*
G36*
X275490Y103681D02*
X276041Y103009D01*
X275698Y101881D01*
X275660Y101823D01*
X275446Y100750D01*
X275572Y100118D01*
X255674Y80220D01*
X255250Y80304D01*
X254177Y80090D01*
X253267Y79483D01*
X252660Y78573D01*
X252446Y77500D01*
X252660Y76427D01*
X253267Y75517D01*
X254177Y74910D01*
X255250Y74696D01*
X256323Y74910D01*
X257233Y75517D01*
X257840Y76427D01*
X258054Y77500D01*
X257970Y77923D01*
X278035Y97989D01*
X278250Y97946D01*
X279323Y98160D01*
X280233Y98767D01*
X280840Y99677D01*
X281054Y100750D01*
X280933Y101356D01*
X281715Y102626D01*
X288154D01*
X288275Y102677D01*
X289610Y102477D01*
X290217Y101567D01*
X291127Y100960D01*
X292200Y100746D01*
X293273Y100960D01*
X294182Y101567D01*
X294790Y102477D01*
X294802Y102538D01*
X296097D01*
X296110Y102477D01*
X296717Y101567D01*
X297627Y100960D01*
X298662Y100754D01*
X298778Y100583D01*
X299268Y99564D01*
X297327Y97624D01*
X289000D01*
X287852Y97148D01*
X276602Y85898D01*
X276126Y84750D01*
Y74173D01*
X271852Y69898D01*
X271376Y68750D01*
Y64557D01*
X270689Y64212D01*
X270106Y64067D01*
X269323Y64590D01*
X268250Y64804D01*
X267177Y64590D01*
X266267Y63983D01*
X266027Y63624D01*
X259172D01*
X250374Y72422D01*
Y84000D01*
X249898Y85148D01*
X241470Y93577D01*
X241554Y94000D01*
X241340Y95073D01*
X240733Y95983D01*
X239823Y96590D01*
X238750Y96804D01*
X237677Y96590D01*
X236767Y95983D01*
X236160Y95073D01*
X235946Y94000D01*
X236160Y92927D01*
X236767Y92017D01*
X237677Y91410D01*
X238750Y91196D01*
X239174Y91280D01*
X247126Y83328D01*
Y71750D01*
X247602Y70602D01*
X257060Y61144D01*
X256648Y59874D01*
X222423D01*
X217148Y65148D01*
X216000Y65624D01*
X207466D01*
X206944Y66884D01*
X206997Y66951D01*
X211148Y71102D01*
X211624Y72250D01*
Y79904D01*
X211148Y81052D01*
X205964Y86236D01*
X206311Y87685D01*
X206913Y88087D01*
X217017Y98191D01*
X250515D01*
X253120Y95587D01*
X253120Y95587D01*
X254112Y94924D01*
X255282Y94691D01*
X255283Y94691D01*
X263500D01*
X263500Y94691D01*
X264671Y94924D01*
X265663Y95587D01*
X269663Y99587D01*
X269663Y99587D01*
X270326Y100580D01*
X270559Y101750D01*
X270559Y101750D01*
Y106953D01*
X271732Y107439D01*
X275490Y103681D01*
D02*
G37*
G36*
X264441Y107483D02*
Y103017D01*
X262233Y100809D01*
X256549D01*
X253945Y103413D01*
X252953Y104076D01*
X251782Y104309D01*
X251782Y104309D01*
X215750D01*
X215750Y104309D01*
X214580Y104076D01*
X213587Y103413D01*
X204047Y93873D01*
X202874Y94359D01*
Y95250D01*
X202398Y96398D01*
X187470Y111327D01*
X187554Y111750D01*
X187340Y112823D01*
X187095Y113191D01*
X187755Y114461D01*
X216441D01*
X219034Y111868D01*
X219227Y110895D01*
X219835Y109985D01*
X220745Y109377D01*
X221818Y109164D01*
X222891Y109377D01*
X223800Y109985D01*
X224408Y110895D01*
X224622Y111968D01*
X224408Y113041D01*
X223800Y113950D01*
X222891Y114558D01*
X221918Y114752D01*
X220216Y116453D01*
X220702Y117626D01*
X246077D01*
X257530Y106173D01*
X257446Y105750D01*
X257660Y104677D01*
X258267Y103767D01*
X259177Y103160D01*
X260250Y102946D01*
X261323Y103160D01*
X262233Y103767D01*
X262840Y104677D01*
X263054Y105750D01*
X262840Y106823D01*
X262233Y107733D01*
X261323Y108340D01*
X260250Y108554D01*
X259827Y108469D01*
X247898Y120398D01*
X246750Y120874D01*
X171250D01*
X170102Y120398D01*
X140827Y91124D01*
X128423D01*
X114898Y104648D01*
X113750Y105124D01*
X103923D01*
X103575Y105471D01*
X103233Y106767D01*
X103840Y107677D01*
X104054Y108750D01*
X103840Y109823D01*
X103233Y110733D01*
X102323Y111340D01*
X101250Y111554D01*
X100328Y111370D01*
X99942Y111701D01*
X99488Y112400D01*
X99840Y112927D01*
X100054Y114000D01*
X99840Y115073D01*
X99233Y115983D01*
X99047Y116106D01*
X99433Y117376D01*
X137750D01*
X138898Y117852D01*
X146423Y125376D01*
X160823D01*
X161310Y124203D01*
X136587Y99481D01*
X135924Y98488D01*
X135691Y97318D01*
X135691Y97318D01*
Y97250D01*
X135924Y96080D01*
X136587Y95087D01*
X137579Y94424D01*
X138750Y94191D01*
X139921Y94424D01*
X140913Y95087D01*
X141050Y95292D01*
X172049Y126291D01*
X245633D01*
X264441Y107483D01*
D02*
G37*
G36*
X182405Y113191D02*
X182160Y112823D01*
X181946Y111750D01*
X182160Y110677D01*
X182767Y109767D01*
X183677Y109160D01*
X184750Y108946D01*
X185173Y109030D01*
X199627Y94577D01*
Y91347D01*
X199626Y91346D01*
Y90770D01*
X198453Y90284D01*
X193545Y95192D01*
X192884Y95634D01*
X192103Y95789D01*
X189595D01*
X177539Y107845D01*
Y112905D01*
X179095Y114461D01*
X181745D01*
X182405Y113191D01*
D02*
G37*
G36*
X175319Y116453D02*
X174058Y115192D01*
X173616Y114530D01*
X173461Y113750D01*
Y107000D01*
X173616Y106220D01*
X174058Y105558D01*
X187308Y92308D01*
X187970Y91866D01*
X188750Y91711D01*
X191259D01*
X200101Y82868D01*
X200082Y82720D01*
X199532Y81641D01*
X196250D01*
X195431Y81478D01*
X194736Y81014D01*
X193858Y80136D01*
X192458Y79985D01*
X192148Y80173D01*
X191523Y80590D01*
X190450Y80804D01*
X190026Y80720D01*
X188348Y82398D01*
X187200Y82874D01*
X176173D01*
X174123Y84923D01*
X172975Y85399D01*
X167525D01*
X166377Y84923D01*
X161828Y80374D01*
X153882D01*
X152983Y81644D01*
X153054Y82000D01*
X152840Y83073D01*
X152233Y83983D01*
X151323Y84590D01*
X150250Y84804D01*
X149177Y84590D01*
X148267Y83983D01*
X148027Y83624D01*
X122565D01*
X111221Y94968D01*
X111574Y96411D01*
X112108Y96767D01*
X112715Y97677D01*
X112929Y98750D01*
X112715Y99823D01*
X112788Y100396D01*
X113328Y101192D01*
X113760Y101194D01*
X126602Y88352D01*
X127750Y87876D01*
X141500D01*
X142648Y88352D01*
X171922Y117626D01*
X174833D01*
X175319Y116453D01*
D02*
G37*
G36*
X379313Y86426D02*
X379077Y86073D01*
X378863Y85000D01*
X378945Y84589D01*
X378072Y83319D01*
X374000D01*
X372634Y83047D01*
X371477Y82273D01*
X367522Y78319D01*
X348158D01*
X346792Y78047D01*
X345634Y77273D01*
X336430Y68069D01*
X333774D01*
X333288Y69242D01*
X349398Y85352D01*
X350732Y85253D01*
X352717Y83267D01*
X353627Y82660D01*
X354700Y82446D01*
X365553D01*
X366626Y82660D01*
X367536Y83267D01*
X371965Y87696D01*
X378640D01*
X379313Y86426D01*
D02*
G37*
G36*
X423876Y98330D02*
Y94909D01*
X411874Y82907D01*
X411853Y82898D01*
X399828Y70874D01*
X371784D01*
X371399Y72144D01*
X371523Y72227D01*
X375478Y76181D01*
X387250D01*
X388616Y76453D01*
X389773Y77227D01*
X394233Y81686D01*
X399843D01*
X401125Y81431D01*
X402491Y81703D01*
X403648Y82477D01*
X408181Y87009D01*
X408955Y88167D01*
X409226Y89533D01*
Y94679D01*
X410181Y95634D01*
X410955Y96792D01*
X411226Y98158D01*
Y98681D01*
X421158D01*
X422523Y98953D01*
X422606Y99009D01*
X423876Y98330D01*
D02*
G37*
G36*
X517284Y95327D02*
Y92351D01*
X517760Y91203D01*
X521361Y87602D01*
X522509Y87126D01*
X527679D01*
Y85223D01*
X527085Y84628D01*
X526609Y83480D01*
Y81175D01*
X525436Y80689D01*
X524726Y81398D01*
X523578Y81874D01*
X521578D01*
X521578Y81874D01*
X513751D01*
X512926Y82698D01*
Y88776D01*
X512451Y89924D01*
X509977Y92398D01*
X508829Y92874D01*
X503672D01*
X502874Y93673D01*
Y96327D01*
X504222Y97676D01*
X514935D01*
X517284Y95327D01*
D02*
G37*
G36*
X105126Y77077D02*
Y62904D01*
X103953Y62418D01*
X102124Y64248D01*
Y66027D01*
X102483Y66267D01*
X103090Y67177D01*
X103304Y68250D01*
X103090Y69323D01*
X102483Y70233D01*
X101573Y70840D01*
X100500Y71054D01*
X99427Y70840D01*
X98517Y70233D01*
X98054Y69539D01*
X97096Y69250D01*
X96591Y69205D01*
X94970Y70826D01*
X95054Y71250D01*
X94841Y72323D01*
X94233Y73232D01*
X93323Y73840D01*
X92250Y74054D01*
X91177Y73840D01*
X90268Y73232D01*
X89660Y72323D01*
X89446Y71250D01*
X89660Y70177D01*
X90268Y69267D01*
X91177Y68659D01*
X92250Y68446D01*
X92674Y68530D01*
X96876Y64328D01*
Y62747D01*
X96898Y62694D01*
X95822Y61974D01*
X90648Y67148D01*
X89500Y67624D01*
X88223D01*
X87983Y67983D01*
X87073Y68590D01*
X86000Y68804D01*
X84927Y68590D01*
X84017Y67983D01*
X83554Y67289D01*
X82597Y67000D01*
X82356Y66979D01*
X81374Y67904D01*
Y71174D01*
X84576Y74376D01*
X85096D01*
X86244Y74852D01*
X89273Y77881D01*
X89749Y79029D01*
Y79194D01*
X89892Y79290D01*
X91267Y79517D01*
X92177Y78909D01*
X93250Y78696D01*
X93343Y78714D01*
X94446Y77750D01*
X94660Y76677D01*
X95267Y75767D01*
X96177Y75160D01*
X97250Y74946D01*
X98323Y75160D01*
X99233Y75767D01*
X99840Y76677D01*
X100054Y77750D01*
X99840Y78823D01*
X99233Y79732D01*
X98874Y79972D01*
Y81534D01*
X100143Y82060D01*
X105126Y77077D01*
D02*
G37*
G36*
X61198Y86130D02*
X61160Y86073D01*
X60946Y85000D01*
X61160Y83927D01*
X61767Y83017D01*
X62677Y82410D01*
X63750Y82196D01*
X64173Y82280D01*
X64852Y81602D01*
X66000Y81126D01*
X69750D01*
X70898Y81602D01*
X72251Y82955D01*
X73327Y82235D01*
X73126Y81750D01*
Y79973D01*
X72767Y79733D01*
X72160Y78823D01*
X71946Y77750D01*
X72160Y76677D01*
X72669Y75914D01*
X72501Y75273D01*
X72162Y74644D01*
X54993D01*
X53844Y74169D01*
X37352Y57676D01*
X36876Y56528D01*
Y40965D01*
X35606Y40183D01*
X35000Y40304D01*
X33984Y40102D01*
X33840Y40823D01*
X33233Y41733D01*
X32323Y42340D01*
X31250Y42554D01*
X30826Y42470D01*
X29556Y43337D01*
Y66631D01*
X30508Y67293D01*
X30826Y67380D01*
X31750Y67196D01*
X32823Y67410D01*
X33733Y68017D01*
X34340Y68927D01*
X35427Y69660D01*
X36500Y69446D01*
X37573Y69660D01*
X37796Y69809D01*
X38750Y70167D01*
X39704Y69809D01*
X39927Y69660D01*
X41000Y69446D01*
X42073Y69660D01*
X42296Y69809D01*
X43250Y70167D01*
X44204Y69809D01*
X44427Y69660D01*
X45500Y69446D01*
X46573Y69660D01*
X47483Y70267D01*
X48090Y71177D01*
X48304Y72250D01*
X48090Y73323D01*
X47483Y74233D01*
X46573Y74840D01*
X45500Y75054D01*
X44427Y74840D01*
X44204Y74691D01*
X43250Y74333D01*
X42296Y74691D01*
X42073Y74840D01*
X41000Y75054D01*
X39927Y74840D01*
X39704Y74691D01*
X38750Y74333D01*
X37796Y74691D01*
X37573Y74840D01*
X36500Y75054D01*
X35427Y74840D01*
X35370Y74802D01*
X34561Y75789D01*
X35466Y76694D01*
X47250D01*
X48947Y76917D01*
X50528Y77572D01*
X51886Y78614D01*
X60211Y86939D01*
X61198Y86130D01*
D02*
G37*
G36*
X507425Y71279D02*
X507839Y70756D01*
X507679Y69549D01*
X507582Y69403D01*
X507369Y68330D01*
X507582Y67257D01*
X508190Y66347D01*
X509100Y65740D01*
X510173Y65526D01*
X510699Y65000D01*
X510912Y63927D01*
X511520Y63017D01*
X512430Y62410D01*
X513503Y62196D01*
X514106Y62316D01*
X515175Y61774D01*
X515459Y61472D01*
X515852Y60524D01*
X517873Y58502D01*
X517825Y56949D01*
X514249Y53374D01*
X493657D01*
X493172Y54547D01*
X494398Y55774D01*
X494874Y56922D01*
Y58274D01*
X496144Y59007D01*
X496852Y58866D01*
X497925Y59080D01*
X498835Y59687D01*
X499443Y60597D01*
X499526Y61013D01*
X499535Y61060D01*
X500830D01*
X500839Y61014D01*
X500922Y60597D01*
X501530Y59687D01*
X502439Y59080D01*
X503512Y58866D01*
X504585Y59080D01*
X505495Y59687D01*
X506103Y60597D01*
X506316Y61670D01*
X506103Y62743D01*
X505495Y63653D01*
X504585Y64260D01*
X503512Y64474D01*
X502439Y64260D01*
X501530Y63653D01*
X500922Y62743D01*
X500839Y62326D01*
X500830Y62280D01*
X499535D01*
X499526Y62326D01*
X499443Y62743D01*
X498835Y63653D01*
X497925Y64260D01*
X497656Y64314D01*
X497175Y65534D01*
X497189Y65702D01*
X497624Y66750D01*
Y68535D01*
X498894Y69214D01*
X499109Y69070D01*
X500182Y68856D01*
X501255Y69070D01*
X502165Y69678D01*
X502773Y70587D01*
X502986Y71660D01*
X502773Y72733D01*
X502165Y73643D01*
X501255Y74250D01*
X500182Y74464D01*
X499109Y74250D01*
X498200Y73643D01*
X497799Y73043D01*
X496675Y72743D01*
X496300Y72746D01*
X490624Y78422D01*
Y78577D01*
X495173Y83126D01*
X495578D01*
X507425Y71279D01*
D02*
G37*
G36*
X14250Y80250D02*
X14250Y64000D01*
X3250D01*
Y68750D01*
X0Y72000D01*
Y78000D01*
X4250Y82250D01*
X12250D01*
X14250Y80250D01*
D02*
G37*
G36*
X369033Y69925D02*
X362981Y63874D01*
X361655D01*
X360976Y65144D01*
X360998Y65177D01*
X361212Y66250D01*
X360998Y67323D01*
X360390Y68233D01*
X359481Y68840D01*
X358408Y69054D01*
X357335Y68840D01*
X356425Y68233D01*
X355817Y67323D01*
X355722Y66842D01*
X354658Y67054D01*
X353585Y66840D01*
X352675Y66233D01*
X352067Y65323D01*
X351854Y64250D01*
X352067Y63177D01*
X352675Y62267D01*
X353585Y61659D01*
X353959Y61585D01*
X354522Y60354D01*
X354480Y60284D01*
X353815Y59624D01*
X346500D01*
X345352Y59148D01*
X341577Y55374D01*
X306262D01*
X305736Y56644D01*
X308057Y58965D01*
X309329Y58694D01*
X309472Y58584D01*
X310017Y57767D01*
X310927Y57160D01*
X312000Y56946D01*
X313073Y57160D01*
X313983Y57767D01*
X314590Y58677D01*
X314804Y59750D01*
X314590Y60823D01*
X313983Y61733D01*
X313252Y62221D01*
X313044Y63499D01*
X313630Y64048D01*
X314852Y63644D01*
X314953Y63134D01*
X315727Y61977D01*
X316884Y61203D01*
X318250Y60931D01*
X337908D01*
X339273Y61203D01*
X340431Y61977D01*
X349636Y71181D01*
X368493D01*
X369033Y69925D01*
D02*
G37*
G36*
X435376Y57450D02*
Y54807D01*
X434690Y54462D01*
X434106Y54317D01*
X433323Y54840D01*
X432250Y55054D01*
X431177Y54840D01*
X430267Y54233D01*
X429733D01*
X428823Y54840D01*
X427750Y55054D01*
X426677Y54840D01*
X425767Y54233D01*
X425160Y53323D01*
X424946Y52250D01*
X425160Y51177D01*
X425767Y50267D01*
X426677Y49660D01*
X427750Y49446D01*
X428823Y49660D01*
X429733Y50267D01*
X430267D01*
X431177Y49660D01*
X432250Y49446D01*
X433323Y49660D01*
X434106Y50183D01*
X434690Y50038D01*
X435376Y49693D01*
Y45251D01*
X434344Y44218D01*
X433215Y44822D01*
X433183Y44894D01*
X433304Y45500D01*
X433090Y46573D01*
X432483Y47483D01*
X431573Y48090D01*
X430500Y48304D01*
X429427Y48090D01*
X428517Y47483D01*
X427910Y46573D01*
X427696Y45500D01*
X427817Y44894D01*
X427035Y43624D01*
X425578D01*
X424430Y43148D01*
X421852Y40570D01*
X421376Y39422D01*
Y37078D01*
X421376Y37078D01*
Y31195D01*
X420530Y30519D01*
X419374Y31023D01*
Y42828D01*
X418898Y43976D01*
X415226Y47648D01*
X414078Y48124D01*
X412939D01*
X412453Y49297D01*
X421282Y58126D01*
X434250D01*
X434320Y58156D01*
X435376Y57450D01*
D02*
G37*
G36*
X400188Y58856D02*
X400032Y58624D01*
X388500D01*
X387352Y58148D01*
X383828Y54624D01*
X379922D01*
X378898Y55648D01*
X377750Y56124D01*
X372985D01*
X371837Y55648D01*
X352313Y36124D01*
X348465D01*
X347683Y37394D01*
X347804Y38000D01*
X347590Y39073D01*
X346983Y39983D01*
X346073Y40590D01*
X345000Y40804D01*
X344576Y40720D01*
X342148Y43148D01*
X341000Y43624D01*
X332422D01*
X328648Y47398D01*
X327500Y47874D01*
X282561D01*
X282075Y49047D01*
X285155Y52126D01*
X342250D01*
X343398Y52602D01*
X347173Y56376D01*
X354908D01*
X356056Y56852D01*
X356646Y57442D01*
X357961Y56961D01*
X358067Y56427D01*
X358332Y56031D01*
X358571Y55125D01*
X358332Y54219D01*
X358067Y53823D01*
X357854Y52750D01*
X358067Y51677D01*
X358675Y50767D01*
X359585Y50160D01*
X360658Y49946D01*
X361731Y50160D01*
X362640Y50767D01*
X363248Y51677D01*
X363462Y52750D01*
X363454Y52789D01*
X369291Y58626D01*
X373828D01*
X374977Y59102D01*
X376001Y60126D01*
X399509D01*
X400188Y58856D01*
D02*
G37*
G36*
X2194Y46582D02*
Y43966D01*
X-5886Y35886D01*
X-6928Y34528D01*
X-7583Y32947D01*
X-7806Y31250D01*
Y22500D01*
X-7583Y20803D01*
X-6928Y19222D01*
X-5886Y17864D01*
X-4528Y16822D01*
X-2947Y16167D01*
X-1250Y15944D01*
X447Y16167D01*
X2028Y16822D01*
X2293Y17026D01*
X3916Y16670D01*
X4017Y16517D01*
X4927Y15910D01*
X6000Y15696D01*
X7073Y15910D01*
X7983Y16517D01*
X8590Y17427D01*
X8804Y18500D01*
X8590Y19573D01*
X7983Y20483D01*
X7073Y21091D01*
X6000Y21304D01*
X5242Y22014D01*
X5306Y22500D01*
Y24265D01*
X6576Y24518D01*
X6852Y23852D01*
X11954Y18750D01*
X10602Y17398D01*
X10126Y16250D01*
Y12654D01*
X10602Y11506D01*
X12506Y9602D01*
X13654Y9126D01*
X16654D01*
X17802Y9602D01*
X18076Y9876D01*
X43828D01*
X50395Y3309D01*
X49869Y2039D01*
X9539D01*
Y5750D01*
X9519Y5849D01*
X9529Y5950D01*
X9433Y6926D01*
X9346Y7212D01*
X9288Y7506D01*
X8541Y9308D01*
X8099Y9970D01*
X6720Y11349D01*
X6720Y11349D01*
X6058Y11791D01*
X4256Y12538D01*
X3962Y12596D01*
X3675Y12683D01*
X2700Y12779D01*
X2599Y12769D01*
X2500Y12789D01*
X-30461D01*
Y45711D01*
X-3500D01*
X-3401Y45731D01*
X-3300Y45721D01*
X-2130Y45836D01*
X-1843Y45923D01*
X-1549Y45981D01*
X614Y46877D01*
X924Y47085D01*
X2194Y46582D01*
D02*
G37*
G36*
X127102Y49102D02*
X128250Y48626D01*
X135846D01*
X136994Y49102D01*
X137215Y49323D01*
X137853Y49156D01*
X138486Y48798D01*
X138660Y47927D01*
X139267Y47017D01*
X140177Y46410D01*
X141250Y46196D01*
X142323Y46410D01*
X143233Y47017D01*
X143840Y47927D01*
X144054Y49000D01*
X144363Y49376D01*
X160503D01*
X161182Y48106D01*
X161159Y48073D01*
X160946Y47000D01*
X161116Y46144D01*
X160687Y45323D01*
X160336Y44874D01*
X121498D01*
X112918Y53453D01*
X113404Y54626D01*
X121578D01*
X127102Y49102D01*
D02*
G37*
G36*
X537179Y85177D02*
Y82415D01*
X537655Y81267D01*
X541570Y77352D01*
X542718Y76876D01*
X546235D01*
X546784Y76328D01*
Y67922D01*
X547260Y66774D01*
X550181Y63852D01*
X551329Y63376D01*
X557736D01*
X557764Y63388D01*
X559034Y62539D01*
Y52830D01*
X542783Y36579D01*
X541405Y36997D01*
X541340Y37323D01*
X540733Y38233D01*
X539823Y38840D01*
X538750Y39054D01*
X537677Y38840D01*
X536767Y38233D01*
X536160Y37323D01*
X535946Y36250D01*
X536160Y35177D01*
X536767Y34267D01*
X537677Y33660D01*
X538003Y33595D01*
X538421Y32217D01*
X533577Y27374D01*
X526714D01*
X526370Y28061D01*
X526225Y28644D01*
X526748Y29427D01*
X526962Y30500D01*
X526748Y31573D01*
X526140Y32483D01*
X525231Y33090D01*
X524158Y33304D01*
X523085Y33090D01*
X522205Y32502D01*
X522137Y32517D01*
X522050Y32545D01*
X521031Y33057D01*
Y35000D01*
X520556Y36148D01*
X519781Y36923D01*
Y38828D01*
X520556Y39602D01*
X521031Y40750D01*
Y45500D01*
X520556Y46648D01*
X519056Y48148D01*
X518479Y48387D01*
X518093Y49797D01*
X520923Y52626D01*
X525078D01*
X528102Y49602D01*
X528102Y49602D01*
X532602Y45102D01*
X533750Y44626D01*
X538078D01*
X539226Y45102D01*
X544398Y50273D01*
X544874Y51422D01*
Y56000D01*
X544398Y57148D01*
X539398Y62148D01*
X539398Y62148D01*
X537231Y64315D01*
X537649Y65693D01*
X537886Y65740D01*
X538795Y66347D01*
X539403Y67257D01*
X539617Y68330D01*
X539403Y69403D01*
X538795Y70313D01*
X537886Y70921D01*
X536813Y71134D01*
X536287Y71660D01*
X536073Y72733D01*
X535465Y73643D01*
X534556Y74250D01*
X533483Y74464D01*
X533126Y74393D01*
X531856Y75292D01*
Y81979D01*
X532451Y82574D01*
X532926Y83722D01*
Y85677D01*
X534026Y86776D01*
X535580D01*
X537179Y85177D01*
D02*
G37*
G36*
X591376Y89157D02*
Y75501D01*
X585602Y69727D01*
X585126Y68578D01*
Y66079D01*
X585126Y66078D01*
Y57251D01*
X569749Y41874D01*
X557294D01*
X556716Y43091D01*
X563806Y50181D01*
X564281Y51329D01*
Y63249D01*
X571909Y70876D01*
X581658D01*
X582806Y71352D01*
X586306Y74852D01*
X586781Y76000D01*
Y84500D01*
X586779Y84506D01*
X587323Y85910D01*
X588233Y86517D01*
X588840Y87427D01*
X589054Y88500D01*
X588975Y88897D01*
X589735Y90019D01*
X590324Y90104D01*
X591376Y89157D01*
D02*
G37*
G36*
X514046Y40237D02*
X513970Y39902D01*
X513649Y39703D01*
X512567Y39448D01*
X511981Y39840D01*
X510908Y40054D01*
X509835Y39840D01*
X508925Y39233D01*
X508317Y38323D01*
X508104Y37250D01*
X508317Y36177D01*
X508925Y35267D01*
X509835Y34660D01*
X510908Y34446D01*
X511981Y34660D01*
X512890Y35267D01*
X513264Y35827D01*
X514534Y35442D01*
Y28250D01*
X515010Y27102D01*
X518065Y24047D01*
X517579Y22874D01*
X503526D01*
X503400Y24144D01*
X503481Y24160D01*
X504390Y24767D01*
X504998Y25677D01*
X505212Y26750D01*
X504998Y27823D01*
X504390Y28733D01*
X503481Y29340D01*
X503048Y30721D01*
X503054Y30750D01*
X502840Y31823D01*
X502233Y32733D01*
X501323Y33340D01*
X500250Y33554D01*
X499177Y33340D01*
X498267Y32733D01*
X497660Y31823D01*
X497446Y30750D01*
X497660Y29677D01*
X496643Y28912D01*
X496375Y28733D01*
X495799Y27871D01*
X495756Y27820D01*
X494403Y27472D01*
X487477Y34398D01*
X487476Y34398D01*
X484726Y37148D01*
X483578Y37624D01*
X473220D01*
X473076Y37796D01*
X472657Y38894D01*
X473044Y39473D01*
X473258Y40546D01*
X473044Y41619D01*
X472719Y42106D01*
X473279Y43374D01*
X473281Y43376D01*
X510907D01*
X514046Y40237D01*
D02*
G37*
G36*
X50668Y59083D02*
X50668Y55500D01*
X50668Y55500D01*
X50985Y54735D01*
X53235Y52485D01*
X54000Y52168D01*
X61052Y52168D01*
X61933Y51286D01*
X61515Y49908D01*
X61177Y49840D01*
X60267Y49233D01*
X59660Y48323D01*
X59446Y47250D01*
X59660Y46177D01*
X60267Y45267D01*
X60734Y44956D01*
X60742Y44935D01*
Y43565D01*
X60734Y43544D01*
X60267Y43233D01*
X59660Y42323D01*
X59446Y41250D01*
X59660Y40177D01*
X59809Y39954D01*
X60167Y39000D01*
X59809Y38046D01*
X59660Y37823D01*
X59446Y36750D01*
X58322Y36218D01*
X58178D01*
X57054Y36750D01*
X56840Y37823D01*
X56691Y38046D01*
X56333Y39000D01*
X56691Y39954D01*
X56840Y40177D01*
X57054Y41250D01*
X56840Y42323D01*
X56233Y43233D01*
X55766Y43544D01*
X55758Y43565D01*
Y44935D01*
X55766Y44956D01*
X56233Y45267D01*
X56840Y46177D01*
X57054Y47250D01*
X56840Y48323D01*
X56233Y49233D01*
X55323Y49840D01*
X54250Y50054D01*
X53177Y49840D01*
X52267Y49233D01*
X51660Y48323D01*
X51446Y47250D01*
X51660Y46177D01*
X52267Y45267D01*
X52734Y44956D01*
X52742Y44935D01*
Y43565D01*
X52734Y43544D01*
X52267Y43233D01*
X51660Y42323D01*
X51446Y41250D01*
X51660Y40177D01*
X52267Y39267D01*
Y38733D01*
X51660Y37823D01*
X51578Y37414D01*
X51320Y37153D01*
X50256Y36744D01*
X50249Y36744D01*
X49734Y37100D01*
X49591Y37823D01*
X48983Y38733D01*
X48073Y39340D01*
X47000Y39554D01*
X46644Y39483D01*
X45374Y40382D01*
Y55449D01*
X49494Y59570D01*
X50668Y59083D01*
D02*
G37*
G36*
X443644Y59302D02*
X443651Y59173D01*
X443317Y58673D01*
X443104Y57600D01*
X443317Y56527D01*
X443925Y55617D01*
X444835Y55009D01*
X445908Y54796D01*
X446981Y55009D01*
X447689Y55483D01*
X448925Y55517D01*
X449835Y54910D01*
X450908Y54696D01*
X451981Y54910D01*
X452890Y55517D01*
X453944Y54810D01*
X454376Y54405D01*
Y52500D01*
X454852Y51352D01*
X457852Y48352D01*
X459000Y47876D01*
X460829D01*
X461315Y46703D01*
X461010Y46398D01*
X460534Y45250D01*
Y42659D01*
X452999Y35124D01*
X450598D01*
X450263Y36298D01*
X450282Y36394D01*
X451140Y36967D01*
X451748Y37877D01*
X451962Y38950D01*
X451748Y40023D01*
X451175Y40880D01*
X451140Y40932D01*
X451140Y42267D01*
X451175Y42320D01*
X451748Y43177D01*
X451962Y44250D01*
X451748Y45323D01*
X451140Y46233D01*
X450231Y46841D01*
X449158Y47054D01*
X448085Y46841D01*
X447175Y46233D01*
X446567Y45323D01*
X446378Y44374D01*
X441829D01*
X440624Y45249D01*
Y45828D01*
X440624Y45828D01*
Y58077D01*
X442347Y59801D01*
X443644Y59302D01*
D02*
G37*
G36*
X192271Y41102D02*
X193419Y40626D01*
X204234D01*
X207459Y37402D01*
X208607Y36926D01*
X232300D01*
X233448Y37402D01*
X235923Y39876D01*
X255267D01*
X256791Y38352D01*
X257939Y37876D01*
X265534D01*
X266682Y38352D01*
X270956Y42626D01*
X323577D01*
X327405Y38798D01*
X327321Y38375D01*
X327516Y37394D01*
X327509Y37261D01*
X326795Y36124D01*
X279672D01*
X278524Y35648D01*
X276718Y33842D01*
X275548Y34468D01*
X275554Y34500D01*
X275340Y35573D01*
X274733Y36483D01*
X273823Y37090D01*
X272750Y37304D01*
X271677Y37090D01*
X270767Y36483D01*
X269589Y35304D01*
X223250D01*
X222177Y35090D01*
X221267Y34483D01*
X220660Y33573D01*
X220446Y32500D01*
X220517Y32144D01*
X219618Y30874D01*
X206672D01*
X202648Y34898D01*
X201500Y35374D01*
X195751D01*
X183227Y47898D01*
X182864Y48048D01*
X182706Y48279D01*
X182860Y48717D01*
X184323Y49050D01*
X192271Y41102D01*
D02*
G37*
G36*
X84102Y60352D02*
X85250Y59876D01*
X89078D01*
X113852Y35102D01*
X115000Y34626D01*
X166990D01*
X168378Y33239D01*
X167752Y32068D01*
X166500Y32318D01*
X164159Y31852D01*
X162174Y30526D01*
X160848Y28541D01*
X160797Y28286D01*
X159502D01*
X159452Y28541D01*
X158125Y30526D01*
X156141Y31852D01*
X153800Y32318D01*
X151459Y31852D01*
X149474Y30526D01*
X148148Y28541D01*
X148097Y28286D01*
X146802D01*
X146752Y28541D01*
X145426Y30526D01*
X143441Y31852D01*
X141100Y32318D01*
X138759Y31852D01*
X136774Y30526D01*
X135448Y28541D01*
X135397Y28286D01*
X134102D01*
X134052Y28541D01*
X132726Y30526D01*
X130741Y31852D01*
X128400Y32318D01*
X126059Y31852D01*
X124074Y30526D01*
X122748Y28541D01*
X122697Y28286D01*
X121402D01*
X121352Y28541D01*
X120026Y30526D01*
X118041Y31852D01*
X115700Y32318D01*
X113359Y31852D01*
X111374Y30526D01*
X110048Y28541D01*
X109582Y26200D01*
X110048Y23859D01*
X111374Y21874D01*
X113359Y20548D01*
X113614Y20497D01*
Y19203D01*
X113359Y19152D01*
X111374Y17826D01*
X110048Y15841D01*
X109582Y13500D01*
X110048Y11159D01*
X111374Y9174D01*
X112542Y8394D01*
X112157Y7124D01*
X80814D01*
X80328Y8297D01*
X83015Y10985D01*
X83332Y11750D01*
Y34364D01*
X84141Y34952D01*
X84602Y35125D01*
X85500Y34946D01*
X86573Y35160D01*
X87483Y35767D01*
X88090Y36677D01*
X88304Y37750D01*
X88090Y38823D01*
X87826Y39219D01*
X87586Y40125D01*
X87826Y41031D01*
X88047Y41361D01*
X88120Y41434D01*
X89450Y41754D01*
X90376Y40827D01*
Y36750D01*
X90852Y35602D01*
X94102Y32352D01*
X95250Y31876D01*
X98420D01*
X99099Y30606D01*
X98910Y30323D01*
X98696Y29250D01*
X98910Y28177D01*
X99517Y27267D01*
X100427Y26660D01*
X101500Y26446D01*
X102573Y26660D01*
X102796Y26809D01*
X103750Y27167D01*
X104704Y26809D01*
X104927Y26660D01*
X106000Y26446D01*
X107073Y26660D01*
X107983Y27267D01*
X108590Y28177D01*
X108804Y29250D01*
X108590Y30323D01*
X107983Y31233D01*
X107073Y31840D01*
X106000Y32054D01*
X105755Y32005D01*
X105260Y33201D01*
X105733Y33517D01*
X106340Y34427D01*
X106554Y35500D01*
X106340Y36573D01*
X105733Y37483D01*
X104823Y38090D01*
X103750Y38304D01*
X102677Y38090D01*
X101767Y37483D01*
X101160Y36573D01*
X101064Y36094D01*
X100567Y35990D01*
X100334Y36154D01*
X99667Y37063D01*
X99804Y37750D01*
X99590Y38823D01*
X98983Y39733D01*
X99326Y41031D01*
X99590Y41427D01*
X99804Y42500D01*
X99590Y43573D01*
X98983Y44483D01*
X98073Y45090D01*
X97000Y45304D01*
X95927Y45090D01*
X95017Y44483D01*
X94410Y43573D01*
X94322Y43133D01*
X93787Y42912D01*
X92967Y42829D01*
X85624Y50173D01*
Y53154D01*
X85148Y54302D01*
X79918Y59532D01*
X80181Y61066D01*
X80483Y61267D01*
X80846Y61812D01*
X82285Y62169D01*
X84102Y60352D01*
D02*
G37*
G36*
X439102Y26352D02*
X440250Y25876D01*
X451670D01*
X452349Y24606D01*
X452160Y24323D01*
X451946Y23250D01*
X452160Y22177D01*
X452767Y21267D01*
X453677Y20660D01*
X454750Y20446D01*
X455173Y20530D01*
X455602Y20102D01*
X456750Y19626D01*
X461083D01*
X461569Y18453D01*
X457905Y14789D01*
X432595D01*
X431534Y15850D01*
X431340Y16823D01*
X430733Y17733D01*
X429823Y18341D01*
X428750Y18554D01*
X427677Y18341D01*
X426767Y17733D01*
X426160Y16823D01*
X425946Y15750D01*
X426116Y14894D01*
X425687Y14073D01*
X425336Y13624D01*
X421807D01*
X421462Y14311D01*
X421317Y14894D01*
X421840Y15677D01*
X422054Y16750D01*
X421840Y17823D01*
X421684Y18056D01*
X422269Y19305D01*
X422345Y19354D01*
X423426Y19802D01*
X430313Y26688D01*
X431519Y26454D01*
X431735Y26314D01*
X432267Y25517D01*
X433177Y24910D01*
X434250Y24696D01*
X435323Y24910D01*
X436233Y25517D01*
X436840Y26427D01*
X436905Y26753D01*
X438283Y27171D01*
X439102Y26352D01*
D02*
G37*
G36*
X401626Y36811D02*
Y33907D01*
X402102Y32759D01*
X404188Y30673D01*
X404104Y30250D01*
X404317Y29177D01*
X404925Y28267D01*
X405835Y27659D01*
X406908Y27446D01*
X407981Y27659D01*
X408890Y28267D01*
X409356Y28965D01*
X410327Y28866D01*
X410626Y28754D01*
Y26750D01*
X411002Y25844D01*
X410471Y24574D01*
X407450D01*
X406302Y24098D01*
X400327Y18124D01*
X351173D01*
X348374Y20923D01*
Y24578D01*
X350672Y26876D01*
X390827D01*
X392768Y24936D01*
X392767Y24932D01*
X392160Y24023D01*
X391946Y22950D01*
X392160Y21877D01*
X392767Y20967D01*
X393677Y20359D01*
X394750Y20146D01*
X395823Y20359D01*
X396733Y20967D01*
X397341Y21877D01*
X397554Y22950D01*
X397341Y24023D01*
X396733Y24933D01*
X396374Y25173D01*
Y25250D01*
X395898Y26398D01*
X395705Y26591D01*
X395750Y27096D01*
X396039Y28054D01*
X396733Y28517D01*
X397340Y29427D01*
X397554Y30500D01*
X397340Y31573D01*
X396733Y32483D01*
X395823Y33090D01*
X394750Y33304D01*
X393677Y33090D01*
X392767Y32483D01*
X392528Y32124D01*
X390028D01*
X390028Y32124D01*
X387374D01*
X386847Y33394D01*
X389380Y35926D01*
X398410D01*
X399558Y36402D01*
X400453Y37297D01*
X401626Y36811D01*
D02*
G37*
G36*
X82250Y52250D02*
Y11750D01*
X77500Y7000D01*
X54250D01*
X53000Y8250D01*
Y12750D01*
X55250Y15000D01*
X63750Y15000D01*
X71500Y22750D01*
X71500Y43250D01*
X61500Y53250D01*
X54000Y53250D01*
X51750Y55500D01*
X51750Y62000D01*
X55750Y66000D01*
X68500Y66000D01*
X82250Y52250D01*
D02*
G37*
G36*
X346079Y29703D02*
X343602Y27227D01*
X343126Y26078D01*
Y19422D01*
X343602Y18274D01*
X347079Y14797D01*
X346592Y13624D01*
X339922D01*
X325898Y27648D01*
X324750Y28124D01*
X319250D01*
X318102Y27648D01*
X317078Y26624D01*
X278579D01*
X278093Y27797D01*
X281173Y30876D01*
X345592D01*
X346079Y29703D01*
D02*
G37*
G36*
X318694Y21268D02*
X319548Y20472D01*
X319567Y20411D01*
X319770Y19391D01*
X319869Y19244D01*
X320267Y17983D01*
X319660Y17073D01*
X319446Y16000D01*
X319660Y14927D01*
X320267Y14017D01*
Y13483D01*
X319660Y12573D01*
X319446Y11500D01*
X319567Y10894D01*
X318785Y9624D01*
X285173D01*
X281398Y13398D01*
X280250Y13874D01*
X267079D01*
X266593Y15047D01*
X272922Y21376D01*
X318443D01*
X318694Y21268D01*
D02*
G37*
G36*
X160848Y23859D02*
X162174Y21874D01*
X164159Y20548D01*
X166500Y20082D01*
X168841Y20548D01*
X170826Y21874D01*
X171503Y22888D01*
X172767Y23013D01*
X175678Y20102D01*
X176826Y19626D01*
X179535D01*
X180317Y18356D01*
X180196Y17750D01*
X180280Y17327D01*
X170077Y7124D01*
X157343D01*
X156957Y8394D01*
X158125Y9174D01*
X159452Y11159D01*
X159917Y13500D01*
X159452Y15841D01*
X158125Y17826D01*
X156141Y19152D01*
X155886Y19203D01*
Y20497D01*
X156141Y20548D01*
X158125Y21874D01*
X159452Y23859D01*
X159502Y24114D01*
X160797D01*
X160848Y23859D01*
D02*
G37*
G36*
X122748D02*
X124074Y21874D01*
X126059Y20548D01*
X128400Y20082D01*
X130741Y20548D01*
X132726Y21874D01*
X134052Y23859D01*
X134102Y24114D01*
X135397D01*
X135448Y23859D01*
X136774Y21874D01*
X138759Y20548D01*
X141100Y20082D01*
X143441Y20548D01*
X145426Y21874D01*
X146752Y23859D01*
X146802Y24114D01*
X148097D01*
X148148Y23859D01*
X149474Y21874D01*
X151459Y20548D01*
X151713Y20497D01*
Y19203D01*
X151459Y19152D01*
X149474Y17826D01*
X148148Y15841D01*
X147682Y13500D01*
X148148Y11159D01*
X149474Y9174D01*
X150642Y8394D01*
X150257Y7124D01*
X119242D01*
X118857Y8394D01*
X120026Y9174D01*
X121352Y11159D01*
X121817Y13500D01*
X121352Y15841D01*
X120026Y17826D01*
X118041Y19152D01*
X117786Y19203D01*
Y20497D01*
X118041Y20548D01*
X120026Y21874D01*
X121352Y23859D01*
X121402Y24114D01*
X122697D01*
X122748Y23859D01*
D02*
G37*
%LPC*%
G36*
X632908Y203054D02*
X631835Y202840D01*
X630925Y202233D01*
X630317Y201323D01*
X630104Y200250D01*
X630317Y199177D01*
X630925Y198267D01*
X631835Y197660D01*
X632908Y197446D01*
X633981Y197660D01*
X634890Y198267D01*
X635498Y199177D01*
X635712Y200250D01*
X635498Y201323D01*
X634890Y202233D01*
X633981Y202840D01*
X632908Y203054D01*
D02*
G37*
G36*
X647908Y195804D02*
X646835Y195590D01*
X645925Y194983D01*
X645318Y194073D01*
X645104Y193000D01*
X645318Y191927D01*
X645925Y191017D01*
X646835Y190410D01*
X647908Y190196D01*
X648981Y190410D01*
X649891Y191017D01*
X650498Y191927D01*
X650712Y193000D01*
X650498Y194073D01*
X649891Y194983D01*
X648981Y195590D01*
X647908Y195804D01*
D02*
G37*
G36*
X709250Y119054D02*
X708177Y118840D01*
X707267Y118233D01*
X706660Y117323D01*
X706446Y116250D01*
X706660Y115177D01*
X707267Y114267D01*
X708177Y113660D01*
X709250Y113446D01*
X710323Y113660D01*
X711233Y114267D01*
X711840Y115177D01*
X712054Y116250D01*
X711840Y117323D01*
X711233Y118233D01*
X710323Y118840D01*
X709250Y119054D01*
D02*
G37*
G36*
X740915Y125748D02*
X730250D01*
Y125748D01*
X720250D01*
Y112750D01*
X725000D01*
Y108748D01*
X722750D01*
Y95750D01*
X733415D01*
Y95750D01*
X738915D01*
Y108748D01*
X735665D01*
Y112750D01*
X740915D01*
Y125748D01*
D02*
G37*
G36*
X648908Y98554D02*
X647835Y98340D01*
X646925Y97733D01*
X646317Y96823D01*
X646104Y95750D01*
X646317Y94677D01*
X646925Y93767D01*
X647835Y93160D01*
X648908Y92946D01*
X649981Y93160D01*
X650890Y93767D01*
X651498Y94677D01*
X651712Y95750D01*
X651498Y96823D01*
X650890Y97733D01*
X649981Y98340D01*
X648908Y98554D01*
D02*
G37*
G36*
X706250Y90554D02*
X705177Y90340D01*
X704268Y89733D01*
X703660Y88823D01*
X703446Y87750D01*
X703660Y86677D01*
X704268Y85767D01*
X705177Y85160D01*
X706250Y84946D01*
X707323Y85160D01*
X708233Y85767D01*
X708840Y86677D01*
X709054Y87750D01*
X708840Y88823D01*
X708233Y89733D01*
X707323Y90340D01*
X706250Y90554D01*
D02*
G37*
G36*
X612658Y89054D02*
X611585Y88840D01*
X610675Y88233D01*
X610067Y87323D01*
X609854Y86250D01*
X610067Y85177D01*
X610675Y84267D01*
X611585Y83659D01*
X612658Y83446D01*
X613731Y83659D01*
X614640Y84267D01*
X615248Y85177D01*
X615462Y86250D01*
X615248Y87323D01*
X614640Y88233D01*
X613731Y88840D01*
X612658Y89054D01*
D02*
G37*
G36*
X681408Y77396D02*
X680335Y77183D01*
X679425Y76575D01*
X678999Y75937D01*
X677981Y75090D01*
X676908Y75304D01*
X675835Y75090D01*
X674925Y74482D01*
X674317Y73573D01*
X674104Y72500D01*
X674317Y71427D01*
X674925Y70517D01*
X675118Y70388D01*
Y68861D01*
X674925Y68732D01*
X674317Y67823D01*
X674104Y66750D01*
X674317Y65677D01*
X674925Y64767D01*
X675835Y64159D01*
X676222Y64082D01*
X676946Y63746D01*
X677144Y62702D01*
X677104Y62500D01*
X677317Y61427D01*
X677925Y60517D01*
X678835Y59910D01*
X679908Y59696D01*
X680981Y59910D01*
X681890Y60517D01*
X682498Y61427D01*
X682711Y62500D01*
X682498Y63573D01*
X681890Y64483D01*
X680981Y65090D01*
X680593Y65167D01*
X679870Y65504D01*
X679671Y66547D01*
X679712Y66750D01*
X679498Y67823D01*
X678890Y68732D01*
X678698Y68861D01*
Y70388D01*
X678891Y70517D01*
X679316Y71155D01*
X680335Y72002D01*
X681408Y71788D01*
X682481Y72002D01*
X683390Y72610D01*
X683998Y73519D01*
X684212Y74592D01*
X683998Y75665D01*
X683390Y76575D01*
X682481Y77183D01*
X681408Y77396D01*
D02*
G37*
G36*
X632943Y79904D02*
X631870Y79690D01*
X630960Y79083D01*
X630352Y78173D01*
X630139Y77100D01*
X630352Y76027D01*
X630960Y75118D01*
X631870Y74510D01*
X632943Y74296D01*
X634016Y74510D01*
X634848Y75065D01*
X634990Y75110D01*
X636339Y74946D01*
X636625Y74517D01*
X637535Y73910D01*
X638608Y73696D01*
X639681Y73910D01*
X640590Y74517D01*
X641198Y75427D01*
X641412Y76500D01*
X641198Y77573D01*
X640590Y78483D01*
X639681Y79090D01*
X638608Y79304D01*
X637535Y79090D01*
X636703Y78534D01*
X636560Y78490D01*
X635212Y78654D01*
X634925Y79083D01*
X634016Y79690D01*
X632943Y79904D01*
D02*
G37*
G36*
X651158Y78554D02*
X650085Y78340D01*
X649175Y77733D01*
X648567Y76823D01*
X648354Y75750D01*
X648567Y74677D01*
X649175Y73767D01*
X650085Y73159D01*
X651158Y72946D01*
X652231Y73159D01*
X653140Y73767D01*
X653748Y74677D01*
X653962Y75750D01*
X653748Y76823D01*
X653140Y77733D01*
X652231Y78340D01*
X651158Y78554D01*
D02*
G37*
G36*
X644658Y64054D02*
X643585Y63840D01*
X642675Y63233D01*
X642067Y62323D01*
X641854Y61250D01*
X642067Y60177D01*
X642675Y59267D01*
X643585Y58660D01*
X644355Y58506D01*
X645510Y57352D01*
X645745Y57255D01*
X646940Y56338D01*
X648550Y55670D01*
X650044Y55474D01*
X650279Y55376D01*
X664544D01*
X664630Y55412D01*
X665665Y55206D01*
X666542Y54620D01*
X666578Y54534D01*
X666931Y54180D01*
X667028Y54140D01*
X669281Y52411D01*
X671995Y51287D01*
X672451Y51227D01*
X672925Y50517D01*
X673835Y49910D01*
X674908Y49696D01*
X675981Y49910D01*
X676890Y50517D01*
X677498Y51427D01*
X677711Y52500D01*
X677498Y53573D01*
X676890Y54483D01*
X675981Y55090D01*
X674908Y55304D01*
X673835Y55090D01*
X672925Y54483D01*
X672824Y54332D01*
X672812Y54334D01*
X670858Y55143D01*
X669277Y56356D01*
X669227Y56476D01*
X668874Y56830D01*
X668846Y56842D01*
X666885Y58152D01*
X664572Y58612D01*
X664544Y58624D01*
X650279D01*
X650173Y58580D01*
X648916Y58830D01*
X647850Y59542D01*
X647806Y59648D01*
X647253Y60201D01*
X647462Y61250D01*
X647248Y62323D01*
X646640Y63233D01*
X645731Y63840D01*
X644658Y64054D01*
D02*
G37*
G36*
X724175Y38804D02*
X723102Y38591D01*
X722192Y37983D01*
X721585Y37073D01*
X721371Y36000D01*
X721585Y34927D01*
X722192Y34017D01*
X723102Y33410D01*
X724175Y33196D01*
X725248Y33410D01*
X726158Y34017D01*
X726765Y34927D01*
X726979Y36000D01*
X726765Y37073D01*
X726158Y37983D01*
X725248Y38591D01*
X724175Y38804D01*
D02*
G37*
G36*
X644158Y31554D02*
X643085Y31340D01*
X642175Y30733D01*
X641567Y29823D01*
X641354Y28750D01*
X641567Y27677D01*
X642175Y26767D01*
X643085Y26160D01*
X644158Y25946D01*
X645231Y26160D01*
X646140Y26767D01*
X646748Y27677D01*
X646962Y28750D01*
X646748Y29823D01*
X646140Y30733D01*
X645231Y31340D01*
X644158Y31554D01*
D02*
G37*
G36*
X710000Y22304D02*
X708927Y22091D01*
X708017Y21483D01*
X707410Y20573D01*
X707196Y19500D01*
X707410Y18427D01*
X708017Y17518D01*
X708927Y16910D01*
X710000Y16696D01*
X711073Y16910D01*
X711983Y17518D01*
X712590Y18427D01*
X712804Y19500D01*
X712590Y20573D01*
X711983Y21483D01*
X711073Y22091D01*
X710000Y22304D01*
D02*
G37*
G36*
X198750Y16304D02*
X197677Y16090D01*
X196767Y15483D01*
X196160Y14573D01*
X195946Y13500D01*
X196160Y12427D01*
X196767Y11517D01*
X197677Y10910D01*
X198750Y10696D01*
X199823Y10910D01*
X200733Y11517D01*
X201340Y12427D01*
X201554Y13500D01*
X201340Y14573D01*
X200733Y15483D01*
X199823Y16090D01*
X198750Y16304D01*
D02*
G37*
G36*
X259000Y9054D02*
X257927Y8840D01*
X257704Y8691D01*
X256750Y8333D01*
X255796Y8691D01*
X255573Y8840D01*
X254500Y9054D01*
X253427Y8840D01*
X253204Y8691D01*
X252250Y8333D01*
X251296Y8691D01*
X251073Y8840D01*
X250000Y9054D01*
X248927Y8840D01*
X248017Y8233D01*
X247410Y7323D01*
X247196Y6250D01*
X247410Y5177D01*
X248017Y4267D01*
X248927Y3660D01*
X250000Y3446D01*
X251073Y3660D01*
X251296Y3809D01*
X252250Y4167D01*
X253204Y3809D01*
X253427Y3660D01*
X254500Y3446D01*
X255573Y3660D01*
X255796Y3809D01*
X256750Y4167D01*
X257704Y3809D01*
X257927Y3660D01*
X259000Y3446D01*
X260073Y3660D01*
X260983Y4267D01*
X261590Y5177D01*
X261804Y6250D01*
X261590Y7323D01*
X260983Y8233D01*
X260073Y8840D01*
X259000Y9054D01*
D02*
G37*
G36*
X694775Y12304D02*
X693702Y12091D01*
X692792Y11483D01*
X692185Y10573D01*
X691971Y9500D01*
X692185Y8427D01*
X692792Y7518D01*
X693702Y6910D01*
X694775Y6696D01*
X695848Y6910D01*
X696758Y7518D01*
X697365Y8427D01*
X697579Y9500D01*
X697365Y10573D01*
X696758Y11483D01*
X695848Y12091D01*
X694775Y12304D01*
D02*
G37*
G36*
X307250Y155804D02*
X306177Y155590D01*
X305267Y154983D01*
X304660Y154073D01*
X304446Y153000D01*
X304660Y151927D01*
X305267Y151017D01*
X306177Y150410D01*
X307250Y150196D01*
X308323Y150410D01*
X309233Y151017D01*
X309840Y151927D01*
X310054Y153000D01*
X309840Y154073D01*
X309233Y154983D01*
X308323Y155590D01*
X307250Y155804D01*
D02*
G37*
G36*
X35250Y192304D02*
X34177Y192090D01*
X34127Y192057D01*
X33125Y191554D01*
X32123Y192057D01*
X32073Y192090D01*
X31000Y192304D01*
X29927Y192090D01*
X29017Y191483D01*
X28733D01*
X27823Y192090D01*
X26750Y192304D01*
X25677Y192090D01*
X24767Y191483D01*
X24160Y190573D01*
X23946Y189500D01*
X24160Y188427D01*
X24767Y187517D01*
X25677Y186910D01*
X26750Y186696D01*
X27823Y186910D01*
X28733Y187517D01*
X29017D01*
X29927Y186910D01*
X31000Y186696D01*
X32073Y186910D01*
X32983Y187517D01*
X33267D01*
X34177Y186910D01*
X35250Y186696D01*
X36323Y186910D01*
X37233Y187517D01*
X37840Y188427D01*
X38054Y189500D01*
X37840Y190573D01*
X37233Y191483D01*
X36323Y192090D01*
X35250Y192304D01*
D02*
G37*
G36*
X628658Y151054D02*
X627585Y150840D01*
X626675Y150233D01*
X626067Y149323D01*
X625854Y148250D01*
X626067Y147177D01*
X626217Y146954D01*
X626575Y146000D01*
X626217Y145046D01*
X626067Y144823D01*
X625854Y143750D01*
X626067Y142677D01*
X626675Y141767D01*
X627585Y141159D01*
X628658Y140946D01*
X629731Y141159D01*
X630640Y141767D01*
X631248Y142677D01*
X631462Y143750D01*
X631248Y144823D01*
X631099Y145046D01*
X630741Y146000D01*
X631099Y146954D01*
X631248Y147177D01*
X631462Y148250D01*
X631248Y149323D01*
X630640Y150233D01*
X629731Y150840D01*
X628658Y151054D01*
D02*
G37*
G36*
X641458Y139304D02*
X640385Y139090D01*
X639475Y138483D01*
X639284Y138196D01*
X637786Y138152D01*
X637733Y138233D01*
X636823Y138840D01*
X635750Y139054D01*
X634677Y138840D01*
X633767Y138233D01*
X633160Y137323D01*
X632946Y136250D01*
X633160Y135177D01*
X633767Y134267D01*
X634677Y133660D01*
X635750Y133446D01*
X636823Y133660D01*
X637733Y134267D01*
X637924Y134553D01*
X639422Y134598D01*
X639475Y134517D01*
X640385Y133910D01*
X641458Y133696D01*
X642531Y133910D01*
X643441Y134517D01*
X644048Y135427D01*
X644262Y136500D01*
X644048Y137573D01*
X643441Y138483D01*
X642531Y139090D01*
X641458Y139304D01*
D02*
G37*
G36*
X154800Y160304D02*
X153727Y160090D01*
X152817Y159483D01*
X152210Y158573D01*
X151996Y157500D01*
X152210Y156427D01*
X152817Y155517D01*
X153727Y154910D01*
X154800Y154696D01*
X155873Y154910D01*
X156783Y155517D01*
X157084Y155969D01*
X158281Y155473D01*
X158246Y155300D01*
X158460Y154227D01*
X159067Y153317D01*
X159977Y152710D01*
X161050Y152496D01*
X162123Y152710D01*
X163033Y153317D01*
X163640Y154227D01*
X163854Y155300D01*
X163640Y156373D01*
X163033Y157283D01*
X162123Y157890D01*
X161050Y158104D01*
X159977Y157890D01*
X159067Y157283D01*
X158766Y156831D01*
X157569Y157326D01*
X157604Y157500D01*
X157390Y158573D01*
X156783Y159483D01*
X155873Y160090D01*
X154800Y160304D01*
D02*
G37*
G36*
X290000Y81804D02*
X288927Y81590D01*
X288017Y80983D01*
X287410Y80073D01*
X287196Y79000D01*
X287410Y77927D01*
X288017Y77017D01*
X288927Y76410D01*
X290000Y76196D01*
X291073Y76410D01*
X291983Y77017D01*
X292590Y77927D01*
X292804Y79000D01*
X292590Y80073D01*
X291983Y80983D01*
X291073Y81590D01*
X290000Y81804D01*
D02*
G37*
G36*
X234000Y112554D02*
X232927Y112340D01*
X232017Y111733D01*
X231410Y110823D01*
X231196Y109750D01*
X231410Y108677D01*
X232017Y107767D01*
X232927Y107160D01*
X234000Y106946D01*
X235073Y107160D01*
X235983Y107767D01*
X236590Y108677D01*
X236804Y109750D01*
X236590Y110823D01*
X235983Y111733D01*
X235073Y112340D01*
X234000Y112554D01*
D02*
G37*
G36*
X126000Y108554D02*
X124927Y108341D01*
X124017Y107733D01*
X123410Y106823D01*
X123196Y105750D01*
X123410Y104677D01*
X124017Y103767D01*
X124927Y103160D01*
X126000Y102946D01*
X127073Y103160D01*
X127983Y103767D01*
X128590Y104677D01*
X128804Y105750D01*
X128590Y106823D01*
X127983Y107733D01*
X127073Y108341D01*
X126000Y108554D01*
D02*
G37*
G36*
X180000Y91419D02*
X178927Y91205D01*
X178017Y90597D01*
X177409Y89688D01*
X177196Y88615D01*
X177409Y87542D01*
X178017Y86632D01*
X178927Y86024D01*
X180000Y85811D01*
X181073Y86024D01*
X181982Y86632D01*
X182590Y87542D01*
X182804Y88615D01*
X182590Y89688D01*
X181982Y90597D01*
X181073Y91205D01*
X180000Y91419D01*
D02*
G37*
G36*
X353250Y53304D02*
X352177Y53090D01*
X351267Y52483D01*
X350660Y51573D01*
X350446Y50500D01*
X350660Y49427D01*
X350902Y49064D01*
X350190Y48228D01*
X350018Y48101D01*
X349000Y48304D01*
X347927Y48090D01*
X347017Y47483D01*
X346410Y46573D01*
X346196Y45500D01*
X346410Y44427D01*
X347017Y43517D01*
X347927Y42910D01*
X349000Y42696D01*
X350073Y42910D01*
X350983Y43517D01*
X351590Y44427D01*
X351804Y45500D01*
X351590Y46573D01*
X351348Y46936D01*
X352060Y47772D01*
X352232Y47899D01*
X353250Y47696D01*
X354323Y47910D01*
X355233Y48517D01*
X355840Y49427D01*
X356054Y50500D01*
X355840Y51573D01*
X355233Y52483D01*
X354323Y53090D01*
X353250Y53304D01*
D02*
G37*
G36*
X553463Y61144D02*
X552390Y60930D01*
X551480Y60323D01*
X550872Y59413D01*
X550659Y58340D01*
X550133Y57814D01*
X549060Y57600D01*
X548150Y56993D01*
X547542Y56083D01*
X547329Y55010D01*
X547542Y53937D01*
X548150Y53027D01*
X549060Y52420D01*
X550133Y52206D01*
X551206Y52420D01*
X552115Y53027D01*
X552723Y53937D01*
X552937Y55010D01*
X553463Y55536D01*
X554536Y55750D01*
X555445Y56357D01*
X556053Y57267D01*
X556267Y58340D01*
X556053Y59413D01*
X555445Y60323D01*
X554536Y60930D01*
X553463Y61144D01*
D02*
G37*
G36*
X570113Y64474D02*
X569040Y64260D01*
X568130Y63653D01*
X567522Y62743D01*
X567309Y61670D01*
X567522Y60597D01*
X568130Y59687D01*
X569040Y59080D01*
X570113Y58866D01*
X570639Y58340D01*
X570852Y57267D01*
X571460Y56357D01*
X572370Y55750D01*
X573443Y55536D01*
X574516Y55750D01*
X575425Y56357D01*
X576033Y57267D01*
X576247Y58340D01*
X576033Y59413D01*
X575425Y60323D01*
X574516Y60930D01*
X573443Y61144D01*
X572917Y61670D01*
X572703Y62743D01*
X572095Y63653D01*
X571186Y64260D01*
X570113Y64474D01*
D02*
G37*
%LPD*%
D10*
X542658Y154750D02*
G03*
X534037Y158321I-8620J-8620D01*
G01*
X518908Y160000D02*
G03*
X522962Y158321I4054J4054D01*
G01*
X542658Y154750D02*
G03*
X550310Y151580I7652J7652D01*
G01*
X516017Y162891D02*
G03*
X499458Y169750I-16559J-16559D01*
G01*
X667726Y55682D02*
G03*
X664544Y57000I-3182J-3182D01*
G01*
X646658Y58500D02*
G03*
X650279Y57000I3621J3621D01*
G01*
X644408Y61000D02*
G03*
X644583Y60574I604J0D01*
G01*
X668079Y55328D02*
G03*
X674908Y52500I6828J6828D01*
G01*
X717750Y176500D02*
X728250Y187000D01*
X682172Y176500D02*
X717750D01*
X664172Y158500D02*
X682172Y176500D01*
X718578Y174500D02*
X729079Y185000D01*
X683000Y174500D02*
X718578D01*
X665000Y156500D02*
X683000Y174500D01*
X495000Y207000D02*
X523922D01*
X470672Y206500D02*
X476750D01*
X464172Y213000D02*
X470672Y206500D01*
X455907Y213000D02*
X464172D01*
X469750Y210250D02*
X484250D01*
X465000Y215000D02*
X469750Y210250D01*
X455078Y215000D02*
X465000D01*
X463250Y210750D02*
X472000Y202000D01*
X456500Y210750D02*
X463250D01*
X98750Y85750D02*
X106750Y77750D01*
Y60154D02*
Y77750D01*
Y60154D02*
X110654Y56250D01*
X44200Y102750D02*
X55500Y114050D01*
X34750Y102750D02*
X44200D01*
X26500Y94500D02*
X34750Y102750D01*
X19404Y94500D02*
X26500D01*
X30000Y101000D02*
X39000Y110000D01*
X23250Y101000D02*
X30000D01*
X377625Y214875D02*
X394000D01*
X216750Y171250D02*
X218750Y173250D01*
X165750Y171250D02*
X216750D01*
X162500Y174500D02*
X165750Y171250D01*
X300000Y131250D02*
X310000Y141250D01*
X300000Y119250D02*
Y131250D01*
X63750Y127500D02*
Y131623D01*
X59000Y122750D02*
X63750Y127500D01*
X59000Y111750D02*
Y122750D01*
X-7250Y125750D02*
X-5298Y123798D01*
X-7250Y125750D02*
Y132096D01*
X-3346Y136000D01*
X-5298Y123798D02*
X-1548D01*
X-3346Y136000D02*
X3750D01*
X92593Y130750D02*
X108093Y146250D01*
X89500Y124828D02*
X108922Y144250D01*
X113925Y146250D02*
X117750Y150075D01*
X108093Y146250D02*
X113925D01*
X114753Y144250D02*
X119750Y149247D01*
X108922Y144250D02*
X114753D01*
X115750Y142250D02*
X118250Y144750D01*
X109750Y142250D02*
X115750D01*
X91500Y124000D02*
X109750Y142250D01*
X113096Y148250D02*
X115750Y150904D01*
X107265Y148250D02*
X113096D01*
X91765Y132750D02*
X107265Y148250D01*
X130172Y158500D02*
X133422Y161750D01*
X120804Y158500D02*
X130172D01*
X355414Y149000D02*
X377985D01*
X356243Y147000D02*
X377157D01*
X357422Y145000D02*
X376328D01*
X381907Y142250D02*
X389013D01*
X381078Y140250D02*
X386417D01*
X384392Y148250D02*
X394074D01*
X379642Y153000D02*
X384392Y148250D01*
X353672Y153000D02*
X379642D01*
X383564Y146250D02*
X393246D01*
X378814Y151000D02*
X383564Y146250D01*
X354500Y151000D02*
X378814D01*
X382735Y144250D02*
X392417D01*
X377985Y149000D02*
X382735Y144250D01*
X377157Y147000D02*
X381907Y142250D01*
X376328Y145000D02*
X381078Y140250D01*
X380250Y138250D02*
X383417D01*
X375500Y143000D02*
X380250Y138250D01*
X358250Y143000D02*
X375500D01*
X595500Y53750D02*
X595500Y53750D01*
X595500Y52922D02*
Y53750D01*
X571578Y29000D02*
X595500Y52922D01*
X555328Y29000D02*
X571578D01*
X593500Y53750D02*
Y65500D01*
X570750Y31000D02*
X593500Y53750D01*
X554500Y31000D02*
X570750D01*
X586750Y56578D02*
Y66078D01*
X570422Y40250D02*
X586750Y56578D01*
X556842Y40250D02*
X570422D01*
X588750Y55750D02*
Y67750D01*
X571250Y38250D02*
X588750Y55750D01*
X557671Y38250D02*
X571250D01*
X593000Y74828D02*
Y90250D01*
X586750Y68578D02*
X593000Y74828D01*
X586750Y66079D02*
Y68578D01*
X586750Y66078D02*
X586750Y66079D01*
X595000Y74000D02*
Y91078D01*
X588750Y67750D02*
X595000Y74000D01*
X591250Y92000D02*
X593000Y90250D01*
X592078Y94000D02*
X595000Y91078D01*
X540500Y17000D02*
X554500Y31000D01*
X541328Y15000D02*
X555328Y29000D01*
X269456Y46250D02*
X327500D01*
X278154Y50250D02*
X293404Y65500D01*
X267799Y50250D02*
X278154D01*
X263299Y45750D02*
X267799Y50250D01*
X260175Y45750D02*
X263299D01*
X278982Y48250D02*
X284482Y53750D01*
X268627Y48250D02*
X278982D01*
X264127Y43750D02*
X268627Y48250D01*
X259346Y43750D02*
X264127D01*
X264706Y41500D02*
X269456Y46250D01*
X258768Y41500D02*
X264706D01*
X270284Y44250D02*
X324250D01*
X265534Y39500D02*
X270284Y44250D01*
X257939Y39500D02*
X265534D01*
X232300Y38550D02*
X235250Y41500D01*
X204907Y42250D02*
X208607Y38550D01*
X232300D01*
X235250Y41500D02*
X255939D01*
X257939Y39500D01*
X254518Y45750D02*
X258768Y41500D01*
X255346Y47750D02*
X259346Y43750D01*
X256175Y49750D02*
X260175Y45750D01*
X222250Y49750D02*
X256175D01*
X352985Y34500D02*
X372985Y54500D01*
X279672Y34500D02*
X352985D01*
X274172Y29000D02*
X279672Y34500D01*
X280500Y32500D02*
X354000D01*
X275000Y27000D02*
X280500Y32500D01*
X349172Y30500D02*
X390028D01*
X344750Y26078D02*
X349172Y30500D01*
X350000Y28500D02*
X391500D01*
X346750Y25250D02*
X350000Y28500D01*
X341000Y42000D02*
X345000Y38000D01*
X331750Y42000D02*
X341000D01*
X327500Y46250D02*
X331750Y42000D01*
X368750Y47250D02*
X390254D01*
X354000Y32500D02*
X368750Y47250D01*
X390254D02*
X398004Y55000D01*
X467328Y57000D02*
X469750Y59422D01*
X461922Y57000D02*
X467328D01*
X467750Y60250D02*
Y67828D01*
X466500Y59000D02*
X467750Y60250D01*
X462750Y59000D02*
X466500D01*
X470750Y56750D02*
X472828D01*
X465500Y51500D02*
X470750Y56750D01*
X471578Y54750D02*
X475500D01*
X466329Y49500D02*
X471578Y54750D01*
X454500Y67250D02*
X462750Y59000D01*
X464000Y49500D02*
X466329D01*
X464000Y49500D02*
X464000Y49500D01*
X459828Y51500D02*
X465500D01*
X481328Y51750D02*
X514922D01*
X476328Y56750D02*
X481328Y51750D01*
X472828Y56750D02*
X476328D01*
X472828Y56750D02*
X472828Y56750D01*
X480500Y49750D02*
X515750D01*
X475500Y54750D02*
X480500Y49750D01*
X469750Y62500D02*
X469750Y62500D01*
X469750Y59422D02*
Y62500D01*
X456172Y62750D02*
X461922Y57000D01*
X467750Y67828D02*
X470572Y70650D01*
X469750Y67000D02*
X471400Y68650D01*
X469750Y62500D02*
Y67000D01*
X456171Y62750D02*
X456172D01*
X471400Y68650D02*
X478100D01*
X470572Y70650D02*
X478928D01*
X456000Y52500D02*
Y56250D01*
X454750Y57500D02*
X456000Y56250D01*
X450908Y57500D02*
X454750D01*
X454500Y60750D02*
X458164Y57086D01*
Y53164D02*
Y57086D01*
Y53164D02*
X459828Y51500D01*
X456000Y52500D02*
X459000Y49500D01*
X464000D01*
X447000Y60750D02*
X454500D01*
X403250Y39421D02*
X410329Y46500D01*
X403250Y33907D02*
Y39421D01*
Y33907D02*
X406908Y30250D01*
X405250Y38592D02*
X411158Y44500D01*
X405250Y37208D02*
Y38592D01*
Y37208D02*
X406908Y35550D01*
X411158Y44500D02*
X413250D01*
X410329Y46500D02*
X414078D01*
X413250Y44500D02*
X415750Y42000D01*
X487000Y76922D02*
Y80078D01*
X489000Y79250D02*
X494500Y84750D01*
X489000Y77750D02*
Y79250D01*
Y77750D02*
X496000Y70750D01*
X493250Y56922D02*
Y64000D01*
X490578Y54250D02*
X493250Y56922D01*
X491250Y57750D02*
Y64828D01*
X489750Y56250D02*
X491250Y57750D01*
X483000Y56250D02*
X489750D01*
X493250Y64000D02*
X496000Y66750D01*
X491250Y64828D02*
X494000Y67578D01*
X517000Y61672D02*
Y67000D01*
Y61672D02*
X520172Y58500D01*
X519000Y62500D02*
X521000Y60500D01*
X520172Y58500D02*
X524828D01*
X521000Y60500D02*
X524000D01*
X524828Y58500D02*
X527750Y61421D01*
X524000Y60500D02*
X525750Y62250D01*
X514922Y51750D02*
X519422Y56250D01*
X526578D01*
X525750Y54250D02*
X529250Y50750D01*
X520250Y54250D02*
X525750D01*
X515750Y49750D02*
X520250Y54250D01*
X527078Y55750D02*
X527078D01*
X526578Y56250D02*
X527078Y55750D01*
X527078D02*
X534579Y48250D01*
X497078Y86750D02*
X509828Y74000D01*
X493672Y86750D02*
X497078D01*
X487000Y80078D02*
X493672Y86750D01*
X496250Y84750D02*
X509000Y72000D01*
X494500Y84750D02*
X496250D01*
X482172Y54250D02*
X490578D01*
X479500Y56922D02*
X482172Y54250D01*
X481500Y57750D02*
X483000Y56250D01*
X481500Y57750D02*
Y68078D01*
X463908Y47000D02*
X517908D01*
X468000Y45000D02*
X511579D01*
X516158Y40422D01*
X478928Y70650D02*
X481500Y68078D01*
X479500Y56922D02*
Y67250D01*
X478100Y68650D02*
X479500Y67250D01*
X417750Y29578D02*
Y42828D01*
X414078Y46500D02*
X417750Y42828D01*
X415750Y32904D02*
Y42000D01*
X447157Y67250D02*
X447157Y67250D01*
X444672Y67250D02*
X447157D01*
X437000Y59578D02*
X444672Y67250D01*
X437000Y45000D02*
Y59578D01*
Y45000D02*
X437000Y45000D01*
Y44578D02*
Y45000D01*
X445500Y65250D02*
X453672D01*
X439000Y58750D02*
X445500Y65250D01*
X439000Y45828D02*
Y58750D01*
X433422Y61750D02*
X442921Y71250D01*
X419781Y61750D02*
X433422D01*
X443750Y69250D02*
X449471D01*
X434250Y59750D02*
X443750Y69250D01*
X420610Y59750D02*
X434250D01*
X432408Y63750D02*
X442408Y73750D01*
X418953Y63750D02*
X432408D01*
X431579Y65750D02*
X441579Y75750D01*
X418124Y65750D02*
X431579D01*
X509000Y72000D02*
X512000D01*
X517000Y67000D01*
X509828Y74000D02*
X512828D01*
X529250Y50750D02*
X533750Y46250D01*
X529250Y50750D02*
X529250D01*
X499250Y97828D02*
X502721Y101300D01*
X501250Y97000D02*
X503550Y99300D01*
X499250Y92172D02*
Y97828D01*
X501250Y93000D02*
Y97000D01*
X495250Y95328D02*
Y103133D01*
X490972Y91050D02*
X495250Y95328D01*
X497250Y102305D02*
X504195Y109250D01*
X497250Y94500D02*
Y102305D01*
X491800Y89050D02*
X497250Y94500D01*
X493250Y96157D02*
Y110842D01*
X490143Y93050D02*
X493250Y96157D01*
X491250Y96985D02*
Y111671D01*
X489315Y95050D02*
X491250Y96985D01*
X482286Y93050D02*
X490143D01*
X481458Y95050D02*
X489315D01*
X485458Y91050D02*
X490972D01*
X486286Y89050D02*
X491800D01*
X499250Y92172D02*
X502172Y89250D01*
X501250Y93000D02*
X503000Y91250D01*
X502172Y89250D02*
X508000D01*
X503000Y91250D02*
X508829D01*
X511303Y88776D01*
X508000Y89250D02*
X509303Y87947D01*
X498158Y106041D02*
Y109000D01*
X495250Y103133D02*
X498158Y106041D01*
X492658Y113078D02*
Y113078D01*
X491250Y111671D02*
X492658Y113078D01*
X493250Y110842D02*
X496345Y113938D01*
X487000Y76922D02*
X488500Y75422D01*
Y75422D02*
Y75422D01*
X503550Y99300D02*
X515608D01*
X518908Y96000D01*
X502721Y101300D02*
X516507D01*
X520958Y96849D01*
X518908Y92351D02*
Y96000D01*
X511303Y82026D02*
Y88776D01*
X509303Y81197D02*
Y87947D01*
X525750Y76078D02*
X525750Y76078D01*
X525750Y76078D02*
Y78078D01*
X523578Y80250D02*
X525750Y78078D01*
X521578Y80250D02*
X523578D01*
X521578Y80250D02*
X521578Y80250D01*
X523750Y66922D02*
Y77250D01*
X522750Y78250D02*
X523750Y77250D01*
X512250Y78250D02*
X522750D01*
X523750Y66922D02*
X525750Y64922D01*
X525750Y67750D02*
X527750Y65750D01*
X525750Y62250D02*
Y64922D01*
X527750Y61421D02*
Y65750D01*
X519000Y62500D02*
Y67828D01*
X488500Y75422D02*
X494000Y69922D01*
Y67578D02*
Y69922D01*
X496000Y66750D02*
Y70750D01*
X525750Y67750D02*
Y76078D01*
X512828Y74000D02*
X519000Y67828D01*
X528233Y68189D02*
Y83480D01*
Y68189D02*
X528303Y68119D01*
Y68119D02*
Y68119D01*
X530233Y69017D02*
X538250Y61000D01*
X528233Y83480D02*
X529303Y84550D01*
X530233Y82652D02*
X531303Y83722D01*
X530233Y69017D02*
Y82652D01*
X528303Y68119D02*
X541250Y55172D01*
X513078Y80250D02*
X521578D01*
X511303Y82026D02*
X513078Y80250D01*
X509303Y81197D02*
X512250Y78250D01*
X538250Y61000D02*
X543250Y56000D01*
Y51422D02*
Y56000D01*
X538078Y46250D02*
X543250Y51422D01*
X541250Y52250D02*
Y55172D01*
X537250Y48250D02*
X541250Y52250D01*
X533750Y46250D02*
X538078D01*
X534579Y48250D02*
X537250D01*
X538250Y61000D02*
Y61000D01*
X447157Y67250D02*
X454500D01*
X453672Y65250D02*
X456171Y62750D01*
X412250Y29404D02*
X415750Y32904D01*
X412250Y26750D02*
Y29404D01*
Y26750D02*
X414050Y24950D01*
X420450D01*
X422250Y26750D02*
X422250D01*
X420450Y24950D02*
X422250Y26750D01*
X420672Y28000D02*
X423000Y30328D01*
X419328Y28000D02*
X420672D01*
X417750Y29578D02*
X419328Y28000D01*
X425578Y42000D02*
X434422D01*
X423000Y39422D02*
X425578Y42000D01*
X423000Y37078D02*
Y39422D01*
X423000Y37078D02*
X423000Y37078D01*
X426406Y40000D02*
X435250D01*
X425000Y38594D02*
X426406Y40000D01*
X425000Y29500D02*
Y38594D01*
X434422Y42000D02*
X437000Y44578D01*
X435250Y40000D02*
X439000Y43750D01*
X423000Y30328D02*
Y37078D01*
X422250Y26750D02*
X425000Y29500D01*
X439000Y45828D02*
X439000Y45828D01*
Y43750D02*
Y45828D01*
X531158Y92158D02*
Y96750D01*
X527750Y88750D02*
X531158Y92158D01*
X522509Y88750D02*
X527750D01*
X529108Y94028D02*
Y97599D01*
X525879Y90800D02*
X529108Y94028D01*
X523287Y90800D02*
X525879D01*
X532525Y90400D02*
X537882D01*
X529303Y87178D02*
X532525Y90400D01*
X529303Y84550D02*
Y87178D01*
X533353Y88400D02*
X536253D01*
X531303Y86350D02*
X533353Y88400D01*
X531303Y83722D02*
Y86350D01*
X555750Y106000D02*
X557883D01*
X554658Y104908D02*
X555750Y106000D01*
X554658Y100000D02*
Y104908D01*
X552658Y106172D02*
X554486Y108000D01*
X550658Y107000D02*
X561938Y118280D01*
X560203Y100284D02*
Y103680D01*
X557883Y106000D02*
X560203Y103680D01*
X562107Y98380D02*
X566703D01*
X560203Y100284D02*
X562107Y98380D01*
X550908Y96250D02*
X554658Y100000D01*
X548858Y97099D02*
X552658Y100899D01*
Y106172D01*
X561751Y104960D02*
X566783D01*
X554486Y108000D02*
X558711D01*
X561751Y104960D01*
X680000Y195250D02*
Y198000D01*
X666750Y182000D02*
X680000Y195250D01*
X660750Y182000D02*
X666750D01*
X671000Y193157D02*
Y198000D01*
X675500Y194828D02*
Y198000D01*
X663843Y186000D02*
X671000Y193157D01*
X664672Y184000D02*
X675500Y194828D01*
X659093Y186000D02*
X663843D01*
X659922Y184000D02*
X664672D01*
X653843Y180750D02*
X659093Y186000D01*
X654671Y178750D02*
X659922Y184000D01*
X655500Y176750D02*
X660750Y182000D01*
X641157Y180750D02*
X653843D01*
X628657Y193250D02*
X641157Y180750D01*
X623828Y193250D02*
X628657D01*
X617250Y199828D02*
X623828Y193250D01*
X617250Y199828D02*
Y204000D01*
X640328Y178750D02*
X654671D01*
X627828Y191250D02*
X640328Y178750D01*
X623000Y191250D02*
X627828D01*
X614000Y200250D02*
X623000Y191250D01*
X639500Y176750D02*
X655500D01*
X627000Y189250D02*
X639500Y176750D01*
X618250Y189250D02*
X627000D01*
X610750Y196750D02*
X618250Y189250D01*
X710000Y167150D02*
X714057D01*
X394750Y22950D02*
Y25250D01*
X391500Y28500D02*
X394750Y25250D01*
X344750Y19422D02*
Y26078D01*
Y19422D02*
X349672Y14500D01*
X346750Y20250D02*
Y25250D01*
Y20250D02*
X350500Y16500D01*
X390028Y30500D02*
X394750D01*
X390028Y30500D02*
X390028Y30500D01*
X352500Y14500D02*
X352500Y14500D01*
X349672Y14500D02*
X352500D01*
X350500Y16500D02*
X401000D01*
X352500Y14500D02*
X401828D01*
X408278Y20950D01*
X401000Y16500D02*
X407450Y22950D01*
X408278Y20950D02*
X422278D01*
X421450Y22950D02*
X431250Y32750D01*
X407450Y22950D02*
X421450D01*
X432078Y30750D02*
X437000D01*
X422278Y20950D02*
X432078Y30750D01*
X431250Y32750D02*
X437828D01*
X437000Y30750D02*
X440250Y27500D01*
X437828Y32750D02*
X441078Y29500D01*
X440250Y27500D02*
X457000D01*
X611407Y117750D02*
X616000Y113157D01*
X591750Y117750D02*
X611407D01*
X610578Y115750D02*
X614000Y112328D01*
X593172Y115750D02*
X610578D01*
X609750Y113750D02*
X612000Y111500D01*
X594000Y113750D02*
X609750D01*
X454750Y23250D02*
X456750Y21250D01*
X463000D01*
X460658Y24500D02*
X465158Y29000D01*
X463000Y21250D02*
X468750Y27000D01*
X453672Y33500D02*
X462158Y41986D01*
X443578Y33500D02*
X453672D01*
X441158Y35921D02*
X443578Y33500D01*
X454500Y31500D02*
X468000Y45000D01*
X442750Y31500D02*
X454500D01*
X439158Y35092D02*
X442750Y31500D01*
X456171Y29500D02*
X459922Y33250D01*
X441078Y29500D02*
X456171D01*
X457000Y27500D02*
X463500Y34000D01*
X486328Y33250D02*
X486328D01*
X483578Y36000D02*
X486328Y33250D01*
X462672Y36000D02*
X483578D01*
X459922Y33250D02*
X462672Y36000D01*
X459922Y33250D02*
X459922D01*
X482750Y34000D02*
X497500Y19250D01*
X463500Y34000D02*
X482750D01*
X354908Y58000D02*
X359158Y62250D01*
X346500Y58000D02*
X354908D01*
X342250Y53750D02*
X346500Y58000D01*
X284482Y53750D02*
X342250D01*
X464596Y8250D02*
X473750Y17404D01*
X462000Y10250D02*
X469550Y17800D01*
X430714Y10250D02*
X462000D01*
X429886Y8250D02*
X464596D01*
X428136Y10000D02*
X429886Y8250D01*
X338422Y10000D02*
X428136D01*
X428965Y12000D02*
X430714Y10250D01*
X339250Y12000D02*
X428965D01*
X462158Y41986D02*
Y45250D01*
X441158Y35921D02*
Y39250D01*
X439158Y35092D02*
Y40078D01*
X619236Y113250D02*
X625000D01*
X626000Y102750D02*
X629000Y105750D01*
X659908D01*
X621250Y102750D02*
X626000D01*
X616000Y108000D02*
X621250Y102750D01*
X616000Y108000D02*
Y113157D01*
X612736Y119750D02*
X619236Y113250D01*
X589500Y119750D02*
X612736D01*
X581370Y111620D02*
X589500Y119750D01*
X638314Y116750D02*
X656500D01*
X629564Y125500D02*
X638314Y116750D01*
X657328Y114750D02*
X672500Y129922D01*
X637485Y114750D02*
X657328D01*
X628735Y123500D02*
X637485Y114750D01*
X636657Y112750D02*
X660000D01*
X627907Y121500D02*
X636657Y112750D01*
X635828Y110750D02*
X660828D01*
X627078Y119500D02*
X635828Y110750D01*
X636000Y107750D02*
X665533D01*
X626250Y117500D02*
X636000Y107750D01*
X618250Y117500D02*
X626250D01*
X623486Y125500D02*
X629564D01*
X615408Y133578D02*
X623486Y125500D01*
X622658Y123500D02*
X628735D01*
X613408Y132750D02*
X622658Y123500D01*
X620236Y121500D02*
X627907D01*
X613236Y128500D02*
X620236Y121500D01*
X619408Y119500D02*
X627078D01*
X612408Y126500D02*
X619408Y119500D01*
X611750Y124000D02*
X618250Y117500D01*
X593000Y124000D02*
X611750D01*
X589000Y128000D02*
X593000Y124000D01*
X566783Y111620D02*
X581370D01*
X582290Y108290D02*
X591750Y117750D01*
X576773Y108290D02*
X582290D01*
X575040Y103040D02*
X583290D01*
X582462Y105040D02*
X593172Y115750D01*
X573523Y105040D02*
X582462D01*
X738904Y210500D02*
X743404Y215000D01*
X537750Y210500D02*
X738904Y210500D01*
X527422Y210500D02*
X537750D01*
X523922Y207000D02*
X527422Y210500D01*
X528250Y208500D02*
X593736D01*
X524750Y205000D02*
X528250Y208500D01*
X529078Y206500D02*
X592908D01*
X525578Y203000D02*
X529078Y206500D01*
X528578Y195750D02*
X539828D01*
X539000Y197750D02*
X544750Y203500D01*
X527750Y193750D02*
X540657D01*
X546407Y199500D01*
X586658D01*
X545578Y201500D02*
X587486D01*
X539828Y195750D02*
X545578Y201500D01*
X544750Y203500D02*
X588315D01*
X547408Y188500D02*
X574158D01*
X544658Y185750D02*
X547408Y188500D01*
X548236Y186500D02*
X554029D01*
X546658Y184921D02*
X548236Y186500D01*
X546658Y180750D02*
Y184921D01*
X524500Y197000D02*
X527750Y193750D01*
X525328Y199000D02*
X528578Y195750D01*
X529407Y197750D02*
X539000D01*
X526157Y201000D02*
X529407Y197750D01*
X492000Y210000D02*
X495000Y207000D01*
X483186Y205000D02*
X524750D01*
X471250Y193064D02*
X483186Y205000D01*
X484015Y203000D02*
X525578D01*
X473250Y192235D02*
X484015Y203000D01*
X484843Y201000D02*
X526157D01*
X475250Y191407D02*
X484843Y201000D01*
X485672Y199000D02*
X525328D01*
X477250Y190578D02*
X485672Y199000D01*
X486500Y197000D02*
X524500D01*
X479250Y189750D02*
X486500Y197000D01*
X576773Y94970D02*
X576853Y95050D01*
X578119Y91560D02*
X580023Y89656D01*
X578097Y91560D02*
X578119D01*
X578018Y91640D02*
X578097Y91560D01*
X573443Y91640D02*
X578018D01*
X581449Y95050D02*
X595250Y108851D01*
Y109000D01*
X576853Y95050D02*
X581449D01*
X587086Y94000D02*
X592078D01*
X585716Y92630D02*
X587086Y94000D01*
X587914Y92000D02*
X591250D01*
X586630Y90716D02*
X587914Y92000D01*
X573443Y101443D02*
X575040Y103040D01*
X573443Y98300D02*
Y101443D01*
X570113Y101630D02*
X573523Y105040D01*
X468750Y27000D02*
X483740D01*
X465158Y29000D02*
X484568D01*
X483740Y27000D02*
X495740Y15000D01*
X484568Y29000D02*
X496568Y17000D01*
X486328Y33250D02*
X498329Y21250D01*
X495740Y15000D02*
X541328D01*
X496568Y17000D02*
X540500D01*
X497500Y19250D02*
X538671D01*
X498329Y21250D02*
X537842D01*
X556842Y40250D01*
X538671Y19250D02*
X557671Y38250D01*
X602000Y89171D02*
X614000Y101172D01*
X602000Y71172D02*
Y89171D01*
X595500Y64672D02*
X602000Y71172D01*
X595500Y53750D02*
Y64672D01*
X593500Y65500D02*
X600000Y72000D01*
Y90000D01*
X612000Y102000D01*
X586630Y88880D02*
Y90716D01*
X586250Y88500D02*
X586630Y88880D01*
X583880Y92630D02*
X585716D01*
X583500Y92250D02*
X583880Y92630D01*
X614000Y101172D02*
Y112328D01*
X612000Y102000D02*
Y111500D01*
X583290Y103040D02*
X594000Y113750D01*
X566703Y98380D02*
X570113Y94970D01*
X387500Y155250D02*
X392500Y150250D01*
X357000Y155250D02*
X387500D01*
X359158Y62250D02*
X363654D01*
X472328Y149500D02*
X484908Y162079D01*
X482908Y162908D02*
Y177843D01*
X471500Y151500D02*
X482908Y162908D01*
X466486Y151500D02*
X471500D01*
X446500Y141843D02*
X455407Y150750D01*
X446500Y132422D02*
Y141843D01*
X433000Y118922D02*
X446500Y132422D01*
X444500Y133250D02*
Y142672D01*
X431000Y119750D02*
X444500Y133250D01*
X442500Y136671D02*
Y143500D01*
X429000Y123171D02*
X442500Y136671D01*
X440500Y137499D02*
Y144328D01*
X427000Y123999D02*
X440500Y137499D01*
Y144328D02*
X452921Y156750D01*
X442500Y143500D02*
X453750Y154750D01*
X455765Y156750D02*
X462500Y163485D01*
X452921Y156750D02*
X455765D01*
X456593Y154750D02*
X465750Y163907D01*
X453750Y154750D02*
X456593D01*
X457422Y152750D02*
X469250Y164578D01*
X454578Y152750D02*
X457422D01*
X444500Y142672D02*
X454578Y152750D01*
X458250Y150750D02*
X471250Y163750D01*
X455407Y150750D02*
X458250D01*
X454750Y159000D02*
X460500Y164750D01*
X449250Y159000D02*
X454750D01*
X453922Y161000D02*
X458500Y165578D01*
X448422Y161000D02*
X453922D01*
X462500Y163485D02*
Y170346D01*
X465750Y163907D02*
Y169000D01*
X469250Y164578D02*
Y172250D01*
X471250Y163750D02*
Y171422D01*
X460500Y164750D02*
Y171175D01*
X458500Y165578D02*
Y172003D01*
X325814Y217750D02*
X333064Y210500D01*
X271000Y217750D02*
X325814D01*
X333064Y210500D02*
X376500D01*
X432750Y163500D02*
X442000Y172750D01*
X416500Y163500D02*
X432750D01*
X442000Y172750D02*
Y174750D01*
X433494Y161250D02*
X463500Y191256D01*
X428572Y153500D02*
X466750Y191678D01*
X429400Y151500D02*
X468750Y190849D01*
X418154Y161250D02*
X433494D01*
X463500Y191256D02*
Y194250D01*
X420500Y153500D02*
X428572D01*
X466750Y191678D02*
Y199596D01*
X421328Y151500D02*
X429400D01*
X468750Y190849D02*
Y201175D01*
X430340Y149500D02*
X471250Y190410D01*
X431169Y147500D02*
X473250Y189582D01*
X428750Y166000D02*
X437500Y174750D01*
X414078Y166000D02*
X428750D01*
X412346Y171750D02*
X426672D01*
X413268Y168000D02*
X425750D01*
X426672Y171750D02*
X434922Y180000D01*
X442828D01*
X444578Y181750D01*
X443000Y183000D02*
X445000Y185000D01*
X435093Y183000D02*
X443000D01*
X436422Y185000D02*
X439672Y188250D01*
X434250Y185000D02*
X436422D01*
X435500Y187000D02*
X438750Y190250D01*
X433422Y187000D02*
X435500D01*
X434672Y189000D02*
X437922Y192250D01*
X430750Y189000D02*
X434672D01*
X434000Y191250D02*
X437000Y194250D01*
X414000Y191250D02*
X434000D01*
X435750Y178000D02*
X445500D01*
X425750Y168000D02*
X435750Y178000D01*
X444578Y181750D02*
X451165D01*
X428422Y141000D02*
X448422Y161000D01*
X429250Y139000D02*
X449250Y159000D01*
X412922Y141000D02*
X428422D01*
X413750Y139000D02*
X429250D01*
X167525Y83775D02*
X172975D01*
X175500Y81250D01*
X187200D01*
X190450Y78000D01*
X162500Y78750D02*
X167525Y83775D01*
X204500Y166500D02*
X215750Y155250D01*
X228000D01*
X232500Y150750D01*
X242031D01*
X216250Y216500D02*
X262950D01*
X132500Y200500D02*
X135625Y203625D01*
X118250Y144750D02*
X124346D01*
X119750Y149247D02*
Y152350D01*
X115750Y150904D02*
Y156275D01*
X117750Y150075D02*
Y155446D01*
X85325Y132750D02*
X91765D01*
X86154Y130750D02*
X92593D01*
X218750Y173250D02*
X227778D01*
X242031Y150750D02*
X280531Y112250D01*
X426750Y212000D02*
X438500D01*
X357078Y200250D02*
X368000Y189328D01*
X356250Y198250D02*
X366000Y188500D01*
X355328Y196250D02*
X360328Y191250D01*
X328108Y198250D02*
X356250D01*
X328936Y200250D02*
X357078D01*
X321561Y207625D02*
X328936Y200250D01*
X320733Y205625D02*
X328108Y198250D01*
X327280Y196250D02*
X355328D01*
X319905Y203625D02*
X327280Y196250D01*
X354500Y194250D02*
X361934Y186816D01*
X326451Y194250D02*
X354500D01*
X319076Y201625D02*
X326451Y194250D01*
X418749Y212250D02*
X424749Y206250D01*
X406154Y212250D02*
X418749D01*
X405325Y214250D02*
X419578D01*
X425578Y208250D01*
X421721Y206450D02*
X423921Y204250D01*
X418079Y205500D02*
X419029Y206450D01*
X424749Y206250D02*
X449157D01*
X419029Y206450D02*
X421721D01*
X425578Y208250D02*
X448328D01*
X402247Y214000D02*
X405247Y217000D01*
X511750D01*
X423921Y204250D02*
X450000D01*
X430750Y202250D02*
X464096D01*
X428750Y200250D02*
X430750Y202250D01*
X423325Y200250D02*
X428750D01*
X449157Y206250D02*
X455907Y213000D01*
X449325Y198750D02*
X458000D01*
X444825Y194250D02*
X449325Y198750D01*
X449904Y196500D02*
X454000D01*
X445654Y192250D02*
X449904Y196500D01*
X437000Y194250D02*
X444825D01*
X437922Y192250D02*
X445654D01*
X427000Y185250D02*
X430750Y189000D01*
X438750Y190250D02*
X448904D01*
X427672Y181250D02*
X433422Y187000D01*
X439672Y188250D02*
X446669D01*
X428500Y179250D02*
X434250Y185000D01*
X429343Y177250D02*
X435093Y183000D01*
X421000Y177250D02*
X429343D01*
X450000Y204250D02*
X456500Y210750D01*
X448328Y208250D02*
X455078Y215000D01*
X420375Y203200D02*
X423325Y200250D01*
X464096Y202250D02*
X466750Y199596D01*
X462425Y207500D02*
X468750Y201175D01*
X403904Y210000D02*
X406154Y212250D01*
X403075Y212000D02*
X405325Y214250D01*
X402657Y210000D02*
X403904D01*
X400282Y207625D02*
X402657Y210000D01*
X401828Y212000D02*
X403075D01*
X399453Y209625D02*
X401828Y212000D01*
X401000Y214000D02*
X402247D01*
X398625Y211625D02*
X401000Y214000D01*
X402404Y206750D02*
X405096D01*
X401154Y205500D02*
X402404Y206750D01*
X405846Y178250D02*
X412346Y171750D01*
X416672Y179250D02*
X428500D01*
X417500Y181250D02*
X427672D01*
X425000Y183250D02*
X427000Y185250D01*
X419000Y183250D02*
X425000D01*
X409467Y192783D02*
X419000Y183250D01*
X418750Y175000D02*
X421000Y177250D01*
X413259Y168009D02*
X413268Y168000D01*
X413259Y168009D02*
X413259D01*
X411750Y166500D02*
X413259Y168009D01*
X412578Y164500D02*
X414078Y166000D01*
X415000Y162000D02*
X416500Y163500D01*
X416404Y159500D02*
X418154Y161250D01*
X451165Y181750D02*
X460250Y190835D01*
X402648Y158773D02*
X403191D01*
X410467Y194783D02*
X414000Y191250D01*
X383798Y194783D02*
X410467D01*
X384626Y192783D02*
X409467D01*
X377625Y211625D02*
X398625D01*
X376500Y213750D02*
X377625Y214875D01*
X454000Y196500D02*
X455750Y194750D01*
X418157Y151157D02*
X420500Y153500D01*
X418157Y151157D02*
Y151157D01*
X417500Y150500D02*
X418157Y151157D01*
X420157Y150329D02*
X421328Y151500D01*
X420157Y150328D02*
Y150329D01*
X418328Y148500D02*
X420157Y150328D01*
X422157Y149500D02*
X430340D01*
X422985Y147500D02*
X431169D01*
X38451Y138024D02*
Y143299D01*
X21500Y160250D02*
X38451Y143299D01*
X33927Y133500D02*
X38451Y138024D01*
X27500Y133500D02*
X33927D01*
X27250Y133750D02*
X27500Y133500D01*
X33099Y135500D02*
X36451Y138853D01*
X30096Y135500D02*
X33099D01*
X28596Y137000D02*
X30096Y135500D01*
X25904Y137000D02*
X28596D01*
X24000Y135096D02*
X25904Y137000D01*
X3750Y136000D02*
X10748Y142998D01*
X23152D01*
X26404Y146250D01*
X31746D01*
X36451Y141545D01*
Y138853D02*
Y141545D01*
X24000Y132250D02*
Y135096D01*
X-2250Y132500D02*
X3154D01*
X5654Y135000D01*
X8346D01*
X17596Y125750D01*
X25578D01*
X32078Y119250D01*
X24750Y123750D02*
X31250Y117250D01*
X15000Y123750D02*
X24750D01*
X7000Y131750D02*
X15000Y123750D01*
X26500Y117750D02*
X29000Y115250D01*
X22750Y117750D02*
X26500D01*
X21000Y116000D02*
X22750Y117750D01*
X22750Y112750D02*
X24250Y111250D01*
X14500Y112750D02*
X22750D01*
X9366Y117884D02*
X14500Y112750D01*
X18000Y104114D02*
Y109500D01*
X29000Y115250D02*
X36828D01*
X24250Y111250D02*
X33625D01*
X82154Y161250D02*
X92272D01*
X77250Y150779D02*
Y156346D01*
X82154Y161250D01*
X92272D02*
X105250Y174228D01*
X63141Y164500D02*
X71000Y172359D01*
X54750Y164500D02*
X63141D01*
X53000Y162750D02*
X54750Y164500D01*
X45500Y136250D02*
Y139000D01*
X53000Y146500D01*
Y162750D01*
X80750Y151451D02*
Y155250D01*
X75250Y151608D02*
Y159500D01*
X73250Y152436D02*
Y160328D01*
X71250Y153265D02*
Y161157D01*
X69250Y154093D02*
Y161985D01*
X67250Y154922D02*
Y162814D01*
X61750Y132451D02*
X80750Y151451D01*
X55500Y131000D02*
Y134686D01*
X49500Y133578D02*
Y137172D01*
X79827Y147700D02*
X81550D01*
X63750Y131623D02*
X79827Y147700D01*
X61750Y128765D02*
Y132451D01*
X59500Y133029D02*
X77250Y150779D01*
X59500Y129343D02*
Y133029D01*
X57500Y133858D02*
X75250Y151608D01*
X57500Y130172D02*
Y133858D01*
X55500Y134686D02*
X73250Y152436D01*
X53500Y135515D02*
X71250Y153265D01*
X53500Y131922D02*
Y135515D01*
X51500Y136343D02*
X69250Y154093D01*
X51500Y132750D02*
Y136343D01*
X49500Y137172D02*
X67250Y154922D01*
X65250Y155750D02*
Y163642D01*
X47500Y138000D02*
X65250Y155750D01*
X47500Y134750D02*
Y138000D01*
X263328Y207250D02*
X271703Y215625D01*
X238172Y207250D02*
X263328D01*
X232852Y201930D02*
X238172Y207250D01*
X263907Y205000D02*
X272532Y213625D01*
X244500Y205000D02*
X263907D01*
X239250Y199750D02*
X244500Y205000D01*
X211500Y211750D02*
X216250Y216500D01*
X201000Y208750D02*
X225000D01*
X233596Y212750D02*
X266000D01*
X226026Y205180D02*
X233596Y212750D01*
X200000Y209750D02*
X201000Y208750D01*
X146250Y209750D02*
X200000D01*
X144250Y211750D02*
X146250Y209750D01*
X218441Y205180D02*
X226026D01*
X147078Y211750D02*
X211500D01*
X145078Y213750D02*
X147078Y211750D01*
X124750Y213750D02*
X145078D01*
X120500Y209500D02*
X124750Y213750D01*
X114000Y209500D02*
X120500D01*
X108500Y215000D02*
X114000Y209500D01*
X24500Y215000D02*
X108500D01*
X15249Y205749D02*
X24500Y215000D01*
X-2846Y205749D02*
X15249D01*
X-7750Y200845D02*
X-2846Y205749D01*
X-7750Y182904D02*
Y200845D01*
Y182904D02*
X-5846Y181000D01*
X-2586D01*
X-2564Y181022D01*
X-1228D01*
X-750Y181500D01*
X75250Y159500D02*
X83000Y167250D01*
X73250Y160328D02*
X81000Y168078D01*
X71250Y161157D02*
X79000Y168907D01*
X69250Y161985D02*
X77000Y169735D01*
X67250Y162814D02*
X75000Y170564D01*
X65250Y163642D02*
X73000Y171392D01*
Y179076D01*
X75000Y170564D02*
Y178247D01*
X77000Y169735D02*
Y177419D01*
X79000Y168907D02*
Y176590D01*
X81000Y168078D02*
Y175578D01*
X83000Y167250D02*
Y174750D01*
X89000Y180750D01*
X81000Y175578D02*
X88172Y182750D01*
X79000Y176590D02*
X87160Y184750D01*
X77000Y177419D02*
X86331Y186750D01*
X75000Y178247D02*
X85503Y188750D01*
X73000Y179076D02*
X85925Y192000D01*
X71000Y179904D02*
X85096Y194000D01*
X71000Y172359D02*
Y179904D01*
X207250Y145750D02*
X209500Y148000D01*
X158000Y145750D02*
X207250D01*
X153500Y141250D02*
X158000Y145750D01*
X153500Y136500D02*
Y141250D01*
X159250Y166500D02*
X204500D01*
X158000Y137250D02*
X159750Y135500D01*
X163422D01*
X114978Y179228D02*
X115000Y179250D01*
X119750Y152350D02*
X122650Y155250D01*
X115750Y156275D02*
X119975Y160500D01*
X117750Y155446D02*
X120804Y158500D01*
X119975Y160500D02*
X122154D01*
X126904Y165250D01*
X135750D01*
X116851Y175500D02*
X128500Y187150D01*
X112596Y175500D02*
X116851D01*
X16500Y97404D02*
Y102614D01*
X18000Y104114D01*
X250703Y139250D02*
X256874Y133078D01*
X167171Y139250D02*
X250703D01*
X163422Y135500D02*
X167171Y139250D01*
X250274Y136850D02*
X278874Y108250D01*
X161750Y131000D02*
X167600Y136850D01*
X248617Y132850D02*
X277218Y104250D01*
X169257Y132850D02*
X248617D01*
X163407Y127000D02*
X169257Y132850D01*
X249446Y134850D02*
X278046Y106250D01*
X168429Y134850D02*
X249446D01*
X162578Y129000D02*
X168429Y134850D01*
X167600Y136850D02*
X250274D01*
X145750Y127000D02*
X163407D01*
X142500Y129000D02*
X162578D01*
X110750Y131000D02*
X161750D01*
X16500Y97404D02*
X19404Y94500D01*
X55500Y122515D02*
X61750Y128765D01*
X55500Y114050D02*
Y122515D01*
X42500Y112343D02*
X59500Y129343D01*
X42500Y106250D02*
Y112343D01*
X79000Y126425D02*
X85325Y132750D01*
X79000Y92000D02*
Y126425D01*
X81000Y125596D02*
X86154Y130750D01*
X81000Y88000D02*
Y125596D01*
X83000Y123846D02*
X86404Y127250D01*
X83000Y95419D02*
Y123846D01*
X87750Y113172D02*
X89500Y114922D01*
X87750Y96325D02*
Y113172D01*
X89750Y112343D02*
X91500Y114093D01*
X89750Y97154D02*
Y112343D01*
X16000Y38000D02*
Y90000D01*
X14500Y91500D02*
X16000Y90000D01*
X14500Y91500D02*
Y107750D01*
X21250Y103000D02*
X23250Y101000D01*
X-1548Y123798D02*
X14500Y107750D01*
X299375Y209625D02*
X322625D01*
X292250Y202500D02*
X299375Y209625D01*
X322625D02*
X329750Y202500D01*
X298546Y211625D02*
X323453D01*
X272532Y213625D02*
X324282D01*
X271703Y215625D02*
X325110D01*
X291422Y204500D02*
X298546Y211625D01*
X323453D02*
X330578Y204500D01*
X324282Y213625D02*
X331407Y206500D01*
X325110Y215625D02*
X332235Y208500D01*
X311221Y207625D02*
X321561D01*
X305596Y202000D02*
X311221Y207625D01*
X312544Y205625D02*
X320733D01*
X306669Y199750D02*
X312544Y205625D01*
X313372Y203625D02*
X319905D01*
X307497Y197750D02*
X313372Y203625D01*
X314200Y201625D02*
X319076D01*
X308326Y195750D02*
X314200Y201625D01*
X318125Y199625D02*
X337750Y180000D01*
X315029Y199625D02*
X318125D01*
X309154Y193750D02*
X315029Y199625D01*
X301840Y202000D02*
X305596D01*
X337750Y180000D02*
X343000D01*
X276654Y204500D02*
X291422D01*
X288104Y202500D02*
X292250D01*
X460250Y196000D02*
X463000Y198750D01*
X460250Y190835D02*
Y196000D01*
X420250Y158000D02*
X423750D01*
X382250Y170250D02*
X397325D01*
X396404Y174000D02*
X403904Y166500D01*
X365735Y174000D02*
X396404D01*
X403075Y164500D02*
X412578D01*
X397325Y170250D02*
X403075Y164500D01*
X379250Y167250D02*
X382250Y170250D01*
X396000Y168250D02*
X402250Y162000D01*
X383500Y168250D02*
X396000D01*
X380500Y165250D02*
X383500Y168250D01*
X369078Y165250D02*
X380500D01*
X395172Y166250D02*
X402648Y158773D01*
X385500Y166250D02*
X395172D01*
X382500Y163250D02*
X385500Y166250D01*
X368250Y163250D02*
X382500D01*
X394343Y164250D02*
X398843Y159750D01*
X386328Y164250D02*
X394343D01*
X383328Y161250D02*
X386328Y164250D01*
X367422Y161250D02*
X383328D01*
X393515Y162250D02*
X395908Y159857D01*
X387157Y162250D02*
X393515D01*
X384157Y159250D02*
X387157Y162250D01*
X359904Y159250D02*
X384157D01*
X392686Y160250D02*
X393908Y159029D01*
X387985Y160250D02*
X392686D01*
X384985Y157250D02*
X387985Y160250D01*
X357828Y157250D02*
X384985D01*
X395908Y156921D02*
Y159857D01*
X393908Y156092D02*
Y159029D01*
X398843Y158478D02*
Y159750D01*
X402250Y162000D02*
X404514D01*
X398843Y158478D02*
X401821Y155500D01*
X404514D01*
X395500Y150250D02*
X397250Y148500D01*
X392500Y150250D02*
X395500D01*
X394074Y148250D02*
X395824Y146500D01*
X393246Y146250D02*
X394996Y144500D01*
X392417Y144250D02*
X401667Y135000D01*
X389013Y142250D02*
X396263Y135000D01*
X386417Y140250D02*
X391667Y135000D01*
X383417Y138250D02*
X386667Y135000D01*
X373092Y136000D02*
X376917Y132175D01*
X371071Y136000D02*
X373092D01*
X372263Y134000D02*
X374917Y131346D01*
X369828Y134000D02*
X372263D01*
X394996Y144500D02*
X419078D01*
X329750Y202500D02*
X379814D01*
X330578Y204500D02*
X378985D01*
X331407Y206500D02*
X378157D01*
X332235Y208500D02*
X377328D01*
X336750Y213750D02*
X376500D01*
X373081Y184066D02*
X383798Y194783D01*
X373909Y182066D02*
X384626Y192783D01*
X407967Y190783D02*
X417500Y181250D01*
X385454Y190783D02*
X407967D01*
X374672Y180000D02*
X385454Y190783D01*
X407139Y188783D02*
X416672Y179250D01*
X386283Y188783D02*
X407139D01*
X375500Y178000D02*
X386283Y188783D01*
X415000Y152750D02*
X420250Y158000D01*
X419985Y144500D02*
X422985Y147500D01*
X419157Y146500D02*
X422157Y149500D01*
X397250Y148500D02*
X416000D01*
X404514Y162000D02*
X415000D01*
X404514Y162000D02*
X404514Y162000D01*
X403904Y166500D02*
X411750D01*
X374500Y167250D02*
X379250D01*
X353000Y159250D02*
X357000Y155250D01*
X353828Y161250D02*
X357828Y157250D01*
X355904Y163250D02*
X359904Y159250D01*
X361464Y167208D02*
X367422Y161250D01*
X359500Y172000D02*
X368250Y163250D01*
X360328Y174000D02*
X369078Y165250D01*
X354243Y145000D02*
X356243Y147000D01*
X355386Y142964D02*
X357422Y145000D01*
X356214Y140964D02*
X358250Y143000D01*
X353414Y147000D02*
X355414Y149000D01*
X352500D02*
X354500Y151000D01*
X351672D02*
X353672Y153000D01*
X351214Y140964D02*
X356214D01*
X350214Y142964D02*
X355386D01*
X343828Y145000D02*
X354243D01*
X343000Y147000D02*
X353414D01*
X408513Y159500D02*
X416404D01*
X419078Y144500D02*
X419985D01*
X419078Y144500D02*
X419078Y144500D01*
X418250Y146500D02*
X419157D01*
X418250Y146500D02*
X418250Y146500D01*
X416000Y148500D02*
X418328D01*
X416000Y148500D02*
X416000Y148500D01*
X399500Y150500D02*
X417500D01*
X404514Y155500D02*
X408513Y159500D01*
X379250Y178250D02*
X405846D01*
X406346Y205500D02*
X418079D01*
X371250Y170500D02*
X374500Y167250D01*
X346172Y174000D02*
X360328D01*
X395079Y154921D02*
X399500Y150500D01*
X395079Y154921D02*
X395079D01*
X393908Y156092D02*
X395079Y154921D01*
X353208Y167208D02*
X361464D01*
X345343Y172000D02*
X359500D01*
X339500Y163250D02*
X355904D01*
X370169Y184066D02*
X373081D01*
X369341Y182066D02*
X373909D01*
X368578Y180000D02*
X374672D01*
X367750Y178000D02*
X375500D01*
X377000Y176000D02*
X379250Y178250D01*
X366922Y176000D02*
X377000D01*
X458500Y207500D02*
X462425D01*
X310750Y115750D02*
Y128843D01*
X341157Y159250D01*
X353000D01*
X283003Y150000D02*
X316375Y183372D01*
X244750Y158000D02*
X252750Y150000D01*
X282175Y152000D02*
X311750Y181575D01*
X246250Y159922D02*
X254172Y152000D01*
X252750Y150000D02*
X283003D01*
X254172Y152000D02*
X282175D01*
X281346Y154000D02*
X308250Y180904D01*
X255000Y154000D02*
X281346D01*
X248250Y160750D02*
X255000Y154000D01*
X357750Y178000D02*
X364922D01*
X355750Y180000D02*
X357750Y178000D01*
X364922D02*
X366922Y176000D01*
X363735D02*
X365735Y174000D01*
X361934Y183816D02*
X367750Y178000D01*
X363934Y184644D02*
X368578Y180000D01*
X366000Y185407D02*
X369341Y182066D01*
X368000Y186235D02*
X370169Y184066D01*
X347000Y176000D02*
X363735D01*
X378157Y206500D02*
X379282Y207625D01*
X378985Y204500D02*
X379985Y205500D01*
X379814Y202500D02*
X380814Y203500D01*
X377328Y208500D02*
X378453Y209625D01*
X376500Y210500D02*
X377625Y211625D01*
X433000Y99828D02*
Y118922D01*
X431000Y100657D02*
Y119750D01*
X427000Y102314D02*
Y123999D01*
X425500Y100814D02*
X427000Y102314D01*
X425500Y94237D02*
Y100814D01*
X413013Y81750D02*
X425500Y94237D01*
X429000Y101485D02*
Y123171D01*
X427500Y99985D02*
X429000Y101485D01*
X427500Y93408D02*
Y99985D01*
X400092Y66000D02*
X427500Y93408D01*
X429500Y99157D02*
X431000Y100657D01*
X429500Y91750D02*
Y99157D01*
X401500Y63750D02*
X429500Y91750D01*
X431500Y98328D02*
X433000Y99828D01*
X431500Y90922D02*
Y98328D01*
X402328Y61750D02*
X431500Y90922D01*
X435000Y99000D02*
Y115750D01*
X433500Y97500D02*
X435000Y99000D01*
X433500Y88750D02*
Y97500D01*
X401750Y57000D02*
X433500Y88750D01*
X163500Y196500D02*
X165500Y198500D01*
X160000Y196500D02*
X163500D01*
X158500Y195000D02*
X160000Y196500D01*
X161075Y193250D02*
X165425D01*
X159825Y192000D02*
X161075Y193250D01*
X161904Y191250D02*
X164596D01*
X159404Y188750D02*
X161904Y191250D01*
X102250Y122500D02*
X110750Y131000D01*
X95500Y122500D02*
X102250D01*
X124346Y144750D02*
X127000Y147404D01*
X115000Y36250D02*
X167663D01*
X89750Y61500D02*
X115000Y36250D01*
X85250Y61500D02*
X89750D01*
X138422Y66500D02*
X158325D01*
X137422Y65500D02*
X138422Y66500D01*
X158325D02*
X160825Y69000D01*
X139250Y64500D02*
X159154D01*
X138250Y63500D02*
X139250Y64500D01*
X151078Y61750D02*
X153328Y59500D01*
X143154Y61750D02*
X151078D01*
X141904Y60500D02*
X143154Y61750D01*
X160825Y69000D02*
X168750D01*
X159154Y64500D02*
X161654Y67000D01*
X167922D01*
X168750Y69000D02*
X172750Y65000D01*
X167922Y67000D02*
X171922Y63000D01*
X303000Y194675D02*
X304075Y195750D01*
X303000Y194672D02*
Y194675D01*
X294500Y186172D02*
X303000Y194672D01*
X153328Y59500D02*
X166172D01*
X167672Y61000D01*
X144500Y58500D02*
X151500D01*
X152500Y57500D01*
X167000D01*
X168500Y59000D01*
X141750Y55250D02*
X168250D01*
X139750Y57250D02*
X141750Y55250D01*
X168250D02*
X170000Y57000D01*
X138596Y53000D02*
X165750D01*
X143250Y51000D02*
X164922D01*
X170000Y57000D02*
X181497D01*
X289000Y96000D02*
X298000D01*
X277750Y84750D02*
X289000Y96000D01*
X277750Y73500D02*
Y84750D01*
X255250Y77500D02*
X278500Y100750D01*
X380814Y203500D02*
X403750D01*
X379985Y205500D02*
X401154D01*
X379282Y207625D02*
X400282D01*
X378453Y209625D02*
X399453D01*
X248750Y189750D02*
X259000D01*
X244000Y194500D02*
X248750Y189750D01*
X233904Y194500D02*
X244000D01*
X292500Y187000D02*
X301000Y195500D01*
X292500Y181500D02*
Y187000D01*
X290750Y179750D02*
X292500Y181500D01*
X294500Y180672D02*
Y186172D01*
X291578Y177750D02*
X294500Y180672D01*
X296500Y185343D02*
X304907Y193750D01*
X296500Y176500D02*
Y185343D01*
X286500Y166500D02*
X296500Y176500D01*
X266000Y212750D02*
X271000Y217750D01*
X294340Y194500D02*
X301840Y202000D01*
X302419Y199750D02*
X306669D01*
X289419Y186750D02*
X302419Y199750D01*
X303247Y197750D02*
X307497D01*
X301000Y195503D02*
X303247Y197750D01*
X304075Y195750D02*
X308326D01*
X304907Y193750D02*
X309154D01*
X316375Y183372D02*
Y196375D01*
X320672Y178000D02*
X342172D01*
X341343Y176000D02*
X345343Y172000D01*
X321500Y176000D02*
X341343D01*
X243204Y197550D02*
X248154Y202500D01*
X144593Y205750D02*
X196000D01*
X145422Y207750D02*
X196828D01*
X143922Y209250D02*
X145422Y207750D01*
X143093Y207250D02*
X144593Y205750D01*
X130907Y207250D02*
X143093D01*
X130078Y209250D02*
X143922D01*
X129750Y211750D02*
X144250D01*
X504800Y193500D02*
X518500Y179800D01*
X492898Y193500D02*
X504800D01*
X484858Y185460D02*
X492898Y193500D01*
X503971Y191500D02*
X517671Y177800D01*
X493726Y191500D02*
X503971D01*
X486858Y184631D02*
X493726Y191500D01*
X503143Y189500D02*
X516843Y175800D01*
X494555Y189500D02*
X503143D01*
X488858Y183803D02*
X494555Y189500D01*
X502314Y187500D02*
X516015Y173800D01*
X495383Y187500D02*
X502314D01*
X490858Y182975D02*
X495383Y187500D01*
X501486Y185500D02*
X515186Y171800D01*
X496212Y185500D02*
X501486D01*
X492858Y182146D02*
X496212Y185500D01*
X493250Y171750D02*
X496250Y174750D01*
X493250Y167504D02*
Y171750D01*
Y167504D02*
X499263Y161491D01*
X446669Y188250D02*
X449869Y185050D01*
X471250Y190410D02*
Y193064D01*
X473250Y189582D02*
Y192235D01*
X475250Y188753D02*
Y191407D01*
X458500Y172003D02*
X475250Y188753D01*
X477250Y187925D02*
Y190578D01*
X460500Y171175D02*
X477250Y187925D01*
X479250Y187096D02*
Y189750D01*
X462500Y170346D02*
X479250Y187096D01*
X484858Y185450D02*
Y185460D01*
X484158Y184750D02*
X484858Y185450D01*
X481750Y184750D02*
X484158D01*
X469250Y172250D02*
X481750Y184750D01*
X486858Y184622D02*
Y184631D01*
X484986Y182750D02*
X486858Y184622D01*
X482578Y182750D02*
X484986D01*
X471250Y171422D02*
X482578Y182750D01*
X488858Y183793D02*
Y183803D01*
X482908Y177843D02*
X488858Y183793D01*
X490858Y182965D02*
Y182975D01*
X484908Y177015D02*
X490858Y182965D01*
X484908Y162079D02*
Y177015D01*
X492858Y182136D02*
Y182146D01*
X486908Y176186D02*
X492858Y182136D01*
X486908Y159328D02*
Y176186D01*
X492000Y178450D02*
X505708D01*
X488908Y175358D02*
X492000Y178450D01*
X488908Y158500D02*
Y175358D01*
X405096Y206750D02*
X406346Y205500D01*
X287750Y194500D02*
X294340D01*
X301000Y195500D02*
Y195503D01*
X306750Y190500D02*
X308250Y189000D01*
X274654Y202500D02*
X276654Y204500D01*
X248154Y202500D02*
X274654D01*
X286200Y200596D02*
X288104Y202500D01*
X286200Y197950D02*
Y200596D01*
X270500Y182250D02*
X286200Y197950D01*
X273500Y180250D02*
X287750Y194500D01*
X244750Y182250D02*
X270500D01*
X259000Y189750D02*
X262750Y186000D01*
X222500Y199750D02*
X239250D01*
X216250Y193500D02*
X222500Y199750D01*
X219500Y190250D02*
X226800Y197550D01*
X243204D01*
X499263Y161491D02*
X501529D01*
X503592Y159427D01*
Y156895D02*
Y159427D01*
Y156895D02*
X506763Y153724D01*
Y146608D02*
Y153724D01*
X483612Y123458D02*
X506763Y146608D01*
X483612Y114870D02*
Y123458D01*
Y114870D02*
X486862Y111620D01*
X105250Y174228D02*
Y176346D01*
X107154Y178250D01*
X109846D01*
X112596Y175500D01*
X81550Y147700D02*
X108500Y174650D01*
Y175000D01*
X88172Y182750D02*
X113425D01*
X89000Y180750D02*
X112823D01*
X85096Y194000D02*
X104750D01*
X85925Y192000D02*
X108000D01*
X85503Y188750D02*
X110096D01*
X86331Y186750D02*
X110925D01*
X87160Y184750D02*
X112596D01*
X110096Y188750D02*
X111250Y189904D01*
X110925Y186750D02*
X113250Y189075D01*
X112596Y184750D02*
X118500Y190654D01*
X113425Y182750D02*
X121000Y190325D01*
X112823Y180750D02*
X114345Y179228D01*
X104750Y194000D02*
X106500Y195750D01*
X128500Y187150D02*
Y197250D01*
X130750Y189825D02*
Y194328D01*
X132500Y196078D01*
Y200500D01*
X134500Y195250D02*
X136950D01*
X132750Y193500D02*
X134500Y195250D01*
X132750Y190654D02*
Y193500D01*
X136950Y195250D02*
X140200Y198500D01*
X132750Y190654D02*
X136654Y186750D01*
X121000Y190325D02*
Y197343D01*
X118500Y190654D02*
Y197672D01*
X121000Y197343D02*
X130907Y207250D01*
X118500Y197672D02*
X130078Y209250D01*
X111250Y193250D02*
X129750Y211750D01*
X114345Y179228D02*
X114978D01*
X133422Y161750D02*
X135500D01*
X127000Y152500D02*
X133750Y159250D01*
X135904D01*
X150750Y174096D01*
X127000Y147404D02*
Y152500D01*
X130750Y189825D02*
X136575Y184000D01*
X39000Y110000D02*
Y111672D01*
X57500Y130172D01*
X35750Y111250D02*
X55500Y131000D01*
X36828Y115250D02*
X53500Y131922D01*
X36000Y117250D02*
X51500Y132750D01*
X31250Y117250D02*
X36000D01*
X35172Y119250D02*
X49500Y133578D01*
X32078Y119250D02*
X35172D01*
X35250Y122500D02*
X47500Y134750D01*
X33750Y122500D02*
X35250D01*
X36750Y127500D02*
X45500Y136250D01*
X33750Y127500D02*
X36750D01*
X33625Y111250D02*
X35750D01*
X68133Y69021D02*
X84000Y53154D01*
X280750Y166500D02*
X286500D01*
X215320Y201930D02*
X232852D01*
X215000Y202250D02*
X215320Y201930D01*
X214328Y190250D02*
X219500D01*
X592908Y206500D02*
X612908Y186500D01*
X593736Y208500D02*
X613736Y188500D01*
X593681Y192477D02*
X607658Y178500D01*
X593681Y192477D02*
X593681D01*
X591338Y194820D02*
X593681Y192477D01*
X586658Y199500D02*
X591338Y194820D01*
X594509Y194477D02*
X609908Y179078D01*
X594509Y194477D02*
X594509D01*
X593338Y195648D02*
X594509Y194477D01*
X587486Y201500D02*
X593338Y195648D01*
X588315Y203500D02*
X595338Y196477D01*
X743404Y215000D02*
X750750D01*
X758075Y207675D01*
Y195825D02*
Y207675D01*
X745250Y183000D02*
X758075Y195825D01*
X729907Y183000D02*
X745250D01*
X714057Y167150D02*
X729907Y183000D01*
X751000Y176500D02*
Y179750D01*
X749750Y181000D02*
X751000Y179750D01*
X736750Y181000D02*
X749750D01*
X749500Y175000D02*
X751000Y176500D01*
X736750Y181000D02*
X736750Y181000D01*
X732250Y181000D02*
X736750D01*
X715750Y164500D02*
X732250Y181000D01*
X717750Y163672D02*
X733078Y179000D01*
X740750D01*
X444533Y94125D02*
X447158Y96750D01*
X574158Y188500D02*
X577158Y185500D01*
X140200Y198500D02*
X145596D01*
X149096Y195000D01*
X196828Y207750D02*
X214328Y190250D01*
X213750Y188000D02*
X227404D01*
X196000Y205750D02*
X213750Y188000D01*
X181250Y44750D02*
X194250Y31750D01*
X200672D02*
X205507Y26914D01*
X194250Y31750D02*
X200672D01*
X201500Y33750D02*
X206000Y29250D01*
X195078Y33750D02*
X201500D01*
X182078Y46750D02*
X195078Y33750D01*
X205507Y26914D02*
X242682D01*
X206000Y29250D02*
X243175D01*
X323922Y24500D02*
X338422Y10000D01*
X320078Y24500D02*
X323922D01*
X324750Y26500D02*
X339250Y12000D01*
X319250Y26500D02*
X324750D01*
X447408Y78500D02*
X449658Y80750D01*
X434654Y78500D02*
X447408D01*
X423904Y67750D02*
X434654Y78500D01*
X441579Y75750D02*
X447486D01*
X442408Y73750D02*
X448315D01*
X442921Y71250D02*
X448643D01*
X435000Y115750D02*
X454658Y135408D01*
X420158Y107500D02*
Y111500D01*
X404658Y127000D02*
X420158Y111500D01*
X417158Y67750D02*
X423904D01*
X397581Y39550D02*
X419781Y61750D01*
X405953Y50750D02*
X418953Y63750D01*
X398410Y37550D02*
X420610Y59750D01*
X405374Y53000D02*
X418124Y65750D01*
X404408Y55000D02*
X417158Y67750D01*
X388500Y57000D02*
X401750D01*
X398004Y55000D02*
X404408D01*
X370654Y69250D02*
X400501D01*
X363654Y62250D02*
X370654Y69250D01*
X120825Y43250D02*
X167750D01*
X98500Y62747D02*
X119997Y41250D01*
X168578D01*
X116250Y39250D02*
X157000D01*
X167663Y36250D02*
X173000Y30913D01*
X169828Y42500D02*
X178596D01*
X168578Y41250D02*
X169828Y42500D01*
X167750Y43250D02*
X169250Y44750D01*
X157000Y39250D02*
X177250D01*
X157000Y39250D02*
X157000Y39250D01*
X178596Y42500D02*
X180500Y40596D01*
Y34250D02*
Y40596D01*
X175500Y29250D02*
X180500Y34250D01*
X169250Y44750D02*
X181250D01*
X168500Y50250D02*
X179500D01*
X175500Y25404D02*
X177654Y23250D01*
X175500Y25404D02*
Y29250D01*
X98500Y62747D02*
Y65000D01*
X92250Y71250D02*
X98500Y65000D01*
X169172Y46750D02*
X182078D01*
X89500Y66000D02*
X116250Y39250D01*
X86000Y66000D02*
X89500D01*
X173000Y25076D02*
Y30913D01*
Y25076D02*
X176826Y21250D01*
X79750Y67000D02*
X85250Y61500D01*
X79750Y67000D02*
Y71846D01*
X83904Y76000D01*
X85096D01*
X88125Y79029D01*
Y81375D01*
X88250Y81500D01*
X171750Y53750D02*
X181919D01*
X168500Y59000D02*
X182325D01*
X167672Y61000D02*
X183154D01*
X171922Y63000D02*
X185750D01*
X172750Y65000D02*
X189422D01*
X174250Y67000D02*
X190250D01*
X167750Y73500D02*
X174250Y67000D01*
X181919Y53750D02*
X193419Y42250D01*
X150750Y73500D02*
X167750D01*
X181497Y57000D02*
X192997Y45500D01*
X182325Y59000D02*
X193825Y47500D01*
X183154Y61000D02*
X194654Y49500D01*
X185750Y63000D02*
X187500Y61250D01*
X189422Y65000D02*
X198421Y56000D01*
X190250Y67000D02*
X199250Y58000D01*
X165750Y53000D02*
X168500Y50250D01*
X164922Y51000D02*
X169172Y46750D01*
X193419Y42250D02*
X204907D01*
X194654Y49500D02*
X219172D01*
X193825Y47500D02*
X220000D01*
X192997Y45500D02*
X220828D01*
X176826Y21250D02*
X184096D01*
X177654Y23250D02*
X185904D01*
X229000Y12250D02*
X280250D01*
X223654Y17596D02*
X229000Y12250D01*
X208154Y17596D02*
X223654D01*
X231250Y14250D02*
X263500D01*
X224654Y20846D02*
X231250Y14250D01*
X199952Y20846D02*
X224654D01*
X243500Y16250D02*
X262672D01*
X236904Y22846D02*
X243500Y16250D01*
X203326Y22846D02*
X236904D01*
X240086Y24914D02*
X244250Y20750D01*
X204086Y24914D02*
X240086D01*
X128250Y50250D02*
X135846D01*
X122250Y56250D02*
X128250Y50250D01*
X100500Y63575D02*
X120825Y43250D01*
X135846Y50250D02*
X138596Y53000D01*
X110654Y56250D02*
X122250D01*
Y59500D02*
X124500Y57250D01*
X139750D01*
X124500Y62250D02*
X126250Y60500D01*
X117672Y62250D02*
X124500D01*
X114750Y65172D02*
X117672Y62250D01*
X117593Y59500D02*
X122250D01*
X118500Y64250D02*
X127922D01*
X116750Y66000D02*
X118500Y64250D01*
X127922D02*
X128672Y63500D01*
X116750Y66000D02*
Y81485D01*
X112750Y64343D02*
X117593Y59500D01*
X141250Y49000D02*
X143250Y51000D01*
X122314Y78750D02*
X162500D01*
X198421Y56000D02*
X210846D01*
X199250Y58000D02*
X211675D01*
X324250Y44250D02*
X330125Y38375D01*
X256904Y25250D02*
X266015D01*
X255154Y23500D02*
X256904Y25250D01*
X248925Y23500D02*
X255154D01*
X243175Y29250D02*
X248925Y23500D01*
X266015Y25250D02*
X269765Y29000D01*
X274172D01*
X270593Y27000D02*
X275000D01*
X261843Y18250D02*
X270593Y27000D01*
X251346Y18250D02*
X261843D01*
X242682Y26914D02*
X251346Y18250D01*
X200750Y28250D02*
X204086Y24914D01*
X199922Y26250D02*
X203326Y22846D01*
X262672Y16250D02*
X271422Y25000D01*
X263500Y14250D02*
X272250Y23000D01*
X223907Y45750D02*
X254518D01*
X223078Y47750D02*
X255346D01*
X219957Y41800D02*
X223907Y45750D01*
X211050Y41800D02*
X219957D01*
X187500Y28250D02*
X200750D01*
X186000Y26750D02*
X187500Y28250D01*
X188904Y26250D02*
X199922D01*
X185904Y23250D02*
X188904Y26250D01*
X178750Y26750D02*
X186000D01*
X184096Y21250D02*
X185596Y19750D01*
X198856D01*
X199952Y20846D01*
X318578Y23000D02*
X320078Y24500D01*
X317750Y25000D02*
X319250Y26500D01*
X272250Y23000D02*
X318578D01*
X271422Y25000D02*
X317750D01*
X280250Y12250D02*
X284500Y8000D01*
X362750D01*
X364500Y6250D01*
X98064Y103000D02*
X122314Y78750D01*
X93500Y103000D02*
X98064D01*
X97250Y106672D02*
Y114000D01*
Y106672D02*
X103642Y100280D01*
Y100250D02*
Y100280D01*
X202904Y67250D02*
X205000D01*
X201000Y65346D02*
X202904Y67250D01*
X201000Y62654D02*
Y65346D01*
X454658Y135408D02*
Y140342D01*
X403422Y131500D02*
X412922Y141000D01*
X388329Y131500D02*
X403422D01*
X404250Y129500D02*
X413750Y139000D01*
X389158Y129500D02*
X404250D01*
X69750Y82750D02*
X79000Y92000D01*
X66000Y82750D02*
X69750D01*
X63750Y85000D02*
X66000Y82750D01*
X100500Y63575D02*
Y68250D01*
X400501Y69250D02*
X413001Y81750D01*
X372000Y66000D02*
X400092D01*
X375328Y61750D02*
X402328D01*
X373828Y60250D02*
X375328Y61750D01*
X374500Y63750D02*
X401500D01*
X373000Y62250D02*
X374500Y63750D01*
X384500Y53000D02*
X388500Y57000D01*
X315796Y69000D02*
X330750D01*
X304046Y57250D02*
X315796Y69000D01*
X294250Y57250D02*
X304046D01*
X322250Y117672D02*
X329250Y124672D01*
X322250Y114500D02*
Y117672D01*
X327250Y125500D02*
Y137500D01*
X320250Y118500D02*
X327250Y125500D01*
X320250Y113672D02*
Y118500D01*
X331250Y128000D02*
X332158Y128908D01*
Y128925D01*
X335233Y132000D01*
X335250D01*
X336750Y133500D01*
X336078Y130000D02*
X338750Y132672D01*
X336062Y130000D02*
X336078D01*
X334158Y128096D02*
X336062Y130000D01*
X334158Y128079D02*
Y128096D01*
X333250Y127172D02*
X334158Y128079D01*
X338750Y139922D02*
X343828Y145000D01*
X338750Y132672D02*
Y139922D01*
X333250Y109157D02*
Y127172D01*
X331250Y108328D02*
Y128000D01*
X336750Y133500D02*
Y140750D01*
X343000Y147000D01*
X343000Y180000D02*
X347000Y176000D01*
X342172Y178000D02*
X346172Y174000D01*
X287500Y186750D02*
X289419D01*
X233200Y165000D02*
X244172D01*
X237371Y158000D02*
X244750D01*
X226121Y169250D02*
X237371Y158000D01*
X226950Y171250D02*
X233200Y165000D01*
X234028Y167000D02*
X245000D01*
X227778Y173250D02*
X234028Y167000D01*
X219904Y171250D02*
X226950D01*
X244172Y165000D02*
X246250Y162922D01*
X245000Y167000D02*
X248250Y163750D01*
X222500Y169250D02*
X226121D01*
X233497Y174250D02*
X282869D01*
X195631Y179869D02*
X230707D01*
X196881Y181869D02*
X231535D01*
X235154Y178250D01*
X279000D01*
X234325Y176250D02*
X280500D01*
X230707Y179869D02*
X234325Y176250D01*
X229878Y177869D02*
X233497Y174250D01*
X194631Y177869D02*
X229878D01*
X197710Y183869D02*
X229869D01*
X229040Y185869D02*
X231171Y188000D01*
X200381Y185869D02*
X229040D01*
X192000Y180500D02*
X194631Y177869D01*
X197250Y189000D02*
X200381Y185869D01*
X194078Y187500D02*
X197710Y183869D01*
X193250Y185500D02*
X196881Y181869D01*
X192500Y183000D02*
X195631Y179869D01*
X227404Y188000D02*
X233904Y194500D01*
X229869Y183869D02*
X232000Y186000D01*
X173250Y180500D02*
X192000D01*
X170125Y177375D02*
X173250Y180500D01*
X166779Y177375D02*
X170125D01*
X162654Y181500D02*
X166779Y177375D01*
X170500Y183000D02*
X192500D01*
X168500Y181000D02*
X170500Y183000D01*
X171175Y187500D02*
X194078D01*
X165425Y193250D02*
X171175Y187500D01*
X164596Y191250D02*
X170346Y185500D01*
X193250D01*
X142500Y156000D02*
X153500Y167000D01*
Y170096D01*
X157904Y174500D01*
X162500D01*
X201250Y88654D02*
X210000Y79904D01*
Y72250D02*
Y79904D01*
X205000Y67250D02*
X210000Y72250D01*
X89419Y89000D02*
X100750D01*
X89750Y97154D02*
X91904Y95000D01*
X103235D01*
X91075Y93000D02*
X102407D01*
X87750Y96325D02*
X91075Y93000D01*
X85000Y96247D02*
Y113250D01*
Y96247D02*
X90247Y91000D01*
X101578D01*
X83000Y95419D02*
X89419Y89000D01*
X137750Y119000D02*
X145750Y127000D01*
X96750Y119000D02*
X137750D01*
X139375Y125875D02*
X142500Y129000D01*
X146000Y68750D02*
X150750Y73500D01*
X135250Y68750D02*
X146000D01*
X121892Y82000D02*
X150250D01*
X103642Y100250D02*
X121892Y82000D01*
X101250Y105500D02*
Y108750D01*
Y105500D02*
X103250Y103500D01*
X113750D01*
X127750Y89500D01*
X141500D01*
X93500Y115750D02*
X96750Y119000D01*
X93500Y110000D02*
Y115750D01*
X91500Y114093D02*
Y124000D01*
X89500Y114922D02*
Y124828D01*
X511750Y217000D02*
X515750Y213000D01*
X449904Y189250D02*
X454000D01*
X395824Y146500D02*
X418250D01*
X395908Y156921D02*
X400078Y152750D01*
X415000D01*
X719172Y194750D02*
X723172Y198750D01*
X687829Y194750D02*
X719172D01*
X660329Y167250D02*
X687829Y194750D01*
X720000Y192750D02*
X724000Y196750D01*
X688658Y192750D02*
X720000D01*
X661158Y165250D02*
X688658Y192750D01*
X308250Y180904D02*
Y189000D01*
X248250Y160750D02*
Y163750D01*
X135750Y156000D02*
X142500D01*
X338596Y165250D02*
X351250D01*
X319395Y146049D02*
X338596Y165250D01*
X303750Y101750D02*
Y111500D01*
X298000Y96000D02*
X303750Y101750D01*
X302000Y113250D02*
X303750Y111500D01*
X150750Y174096D02*
Y181404D01*
X147750Y174000D02*
Y181500D01*
X135500Y161750D02*
X147750Y174000D01*
X221750Y58250D02*
X270750D01*
X216000Y64000D02*
X221750Y58250D01*
X204250Y64000D02*
X216000D01*
X220000Y47500D02*
X222250Y49750D01*
X220828Y45500D02*
X223078Y47750D01*
X221922Y52250D02*
X277325D01*
X221093Y54250D02*
X276329D01*
X220265Y56250D02*
X275500D01*
X219172Y49500D02*
X221922Y52250D01*
X220093Y53250D02*
X221093Y54250D01*
X219265Y55250D02*
X220265Y56250D01*
X95250Y33500D02*
X101750D01*
X92000Y36750D02*
X95250Y33500D01*
X92000Y36750D02*
Y41500D01*
X277325Y52250D02*
X292575Y67500D01*
X276329Y54250D02*
X291578Y69500D01*
X275500Y56250D02*
X290750Y71500D01*
X270750Y58250D02*
X273000Y60500D01*
X246750Y119250D02*
X260250Y105750D01*
X171250Y119250D02*
X246750D01*
X141500Y89500D02*
X171250Y119250D01*
X256874Y133078D02*
X279703Y110250D01*
X256874Y133078D02*
Y133078D01*
X278046Y106250D02*
X287000D01*
X201250Y88654D02*
Y91346D01*
X201250Y91346D01*
Y95250D01*
X201000Y62654D02*
X202904Y60750D01*
X214000D01*
X103235Y95000D02*
X116750Y81485D01*
X114750Y65172D02*
Y80657D01*
X102407Y93000D02*
X114750Y80657D01*
X101578Y91000D02*
X112750Y79828D01*
Y64343D02*
Y79828D01*
X258500Y62000D02*
X268250D01*
X248750Y71750D02*
X258500Y62000D01*
X248750Y71750D02*
Y84000D01*
X238750Y94000D02*
X248750Y84000D01*
X273000Y60500D02*
Y68750D01*
X277750Y73500D01*
X291578Y69500D02*
X296593D01*
X290750Y71500D02*
X295765D01*
X292575Y67500D02*
X297422D01*
X293404Y65500D02*
X298250D01*
X305985Y67000D02*
X315750Y76765D01*
X305157Y69000D02*
X313750Y77593D01*
X304328Y71000D02*
X311750Y78422D01*
X299750Y67000D02*
X305985D01*
X298250Y65500D02*
X299750Y67000D01*
X298922Y69000D02*
X305157D01*
X297422Y67500D02*
X298922Y69000D01*
X298093Y71000D02*
X304328D01*
X296593Y69500D02*
X298093Y71000D01*
X303500Y73000D02*
X309750Y79250D01*
X297265Y73000D02*
X303500D01*
X295765Y71500D02*
X297265Y73000D01*
X319169Y88750D02*
X328515D01*
X321654Y82750D02*
X331000D01*
X315750Y76846D02*
X321654Y82750D01*
X320825Y84750D02*
X330172D01*
X313750Y77675D02*
X320825Y84750D01*
X319997Y86750D02*
X329343D01*
X311750Y78503D02*
X319997Y86750D01*
X309750Y79331D02*
X319169Y88750D01*
X309750Y79250D02*
Y79331D01*
X311750Y78422D02*
Y78503D01*
X313750Y77593D02*
Y77675D01*
X315750Y76765D02*
Y76846D01*
X110250Y61250D02*
Y79500D01*
X100750Y89000D02*
X110250Y79500D01*
X218436Y53250D02*
X220093D01*
X218436Y53250D02*
X218436Y53250D01*
X213596Y53250D02*
X218436D01*
X214000Y60750D02*
X216250Y58500D01*
X184750Y111750D02*
X201250Y95250D01*
X278500Y100750D02*
X278750D01*
X522962Y158321D02*
X534037D01*
X516017Y162891D02*
X518908Y160000D01*
X550310Y151580D02*
X566783D01*
X210846Y56000D02*
X213596Y53250D01*
X214425Y55250D02*
X219265D01*
X211675Y58000D02*
X214425Y55250D01*
X128672Y63500D02*
X138250D01*
X368619Y60250D02*
X373828D01*
X367790Y62250D02*
X373000D01*
X361119Y52750D02*
X368619Y60250D01*
X363040Y57500D02*
X367790Y62250D01*
X149096Y195000D02*
X158500D01*
X148000Y188750D02*
X159404D01*
X140750Y192000D02*
X159825D01*
X246250Y159922D02*
Y162922D01*
X136575Y184000D02*
X141500D01*
X136654Y186750D02*
X142500D01*
X54993Y73021D02*
X74617D01*
X38500Y35250D02*
Y56528D01*
X43750Y56121D02*
X56649Y69021D01*
X43750Y32250D02*
Y56121D01*
X56649Y69021D02*
X68133D01*
X40500Y55700D02*
X55821Y71021D01*
X40500Y18750D02*
Y55700D01*
X55821Y71021D02*
X75445D01*
X38500Y56528D02*
X54993Y73021D01*
X145500Y175000D02*
Y180000D01*
X141500Y184000D02*
X145500Y180000D01*
X142500Y186750D02*
X147750Y181500D01*
X143404Y188750D02*
X150750Y181404D01*
X139250Y188750D02*
X143404D01*
X135750Y165250D02*
X145500Y175000D01*
X136000Y192000D02*
X139250Y188750D01*
X74750Y81750D02*
X81000Y88000D01*
X74750Y77750D02*
Y81750D01*
X85000Y113250D02*
X86250Y114500D01*
Y120750D01*
X74617Y73021D02*
X78250Y76654D01*
X101750Y33500D02*
X103750Y35500D01*
X360658Y57500D02*
X363040D01*
X350750Y100000D02*
Y108679D01*
X348250Y97500D02*
X350750Y100000D01*
X348250Y86500D02*
Y97500D01*
X350750Y108679D02*
X357821Y115750D01*
X363500D02*
X368750Y121000D01*
X357821Y115750D02*
X363500D01*
X389500Y127000D02*
X404658D01*
X385000Y122500D02*
X389500Y127000D01*
X378914Y122500D02*
X385000D01*
X384158Y124500D02*
X389158Y129500D01*
X380158Y124500D02*
X384158D01*
X383329Y126500D02*
X388329Y131500D01*
X380571Y126500D02*
X383329D01*
X284450Y141778D02*
X320672Y178000D01*
X291750Y146250D02*
X321500Y176000D01*
X311750Y181575D02*
Y189500D01*
X472000Y198750D02*
Y202000D01*
X243922Y180250D02*
X273500D01*
X238172Y186000D02*
X243922Y180250D01*
X232000Y186000D02*
X238172D01*
X239000Y188000D02*
X244750Y182250D01*
X231171Y188000D02*
X239000D01*
X213250Y164596D02*
X219904Y171250D01*
X216500Y163250D02*
X222500Y169250D01*
X213250Y160750D02*
Y164596D01*
Y160750D02*
X215000Y159000D01*
X220250D01*
X113250Y190000D02*
X114999Y191749D01*
X113250Y189075D02*
Y190000D01*
X111250Y190828D02*
X111250Y190828D01*
X111250Y189904D02*
Y190828D01*
X111250Y190828D02*
Y193250D01*
X24000Y132250D02*
X33750Y122500D01*
X285343Y110250D02*
X288500Y113407D01*
Y134250D01*
X291750Y137500D01*
Y146250D01*
X284450Y137354D02*
Y141778D01*
Y137354D02*
X286500Y135304D01*
Y114235D02*
Y135304D01*
X284515Y112250D02*
X286500Y114235D01*
X379250Y53000D02*
X384500D01*
X377750Y54500D02*
X379250Y53000D01*
X372985Y54500D02*
X377750D01*
X413001Y81750D02*
X413013D01*
X384329Y36000D02*
X387879Y39550D01*
X385158Y34000D02*
X388708Y37550D01*
X392587Y46575D02*
X394325D01*
X389408Y43396D02*
X392587Y46575D01*
X394325D02*
X400750Y53000D01*
X405374D01*
X401358Y50750D02*
X405953D01*
X399501Y48894D02*
X401358Y50750D01*
X399501Y44299D02*
Y48894D01*
X340328Y161250D02*
X353828D01*
X305500Y126422D02*
X340328Y161250D01*
X302000Y125750D02*
X339500Y163250D01*
X302000Y113250D02*
Y125750D01*
X307938Y146049D02*
X319395D01*
X305500Y115750D02*
Y126422D01*
X277218Y104250D02*
X288154D01*
X278874Y108250D02*
X286172D01*
X279703Y110250D02*
X285343D01*
X280531Y112250D02*
X284515D01*
X86404Y127250D02*
X87250D01*
X92750Y86750D02*
X97250Y82250D01*
X78250Y82000D02*
X83000Y86750D01*
X90000Y84750D02*
X93250Y81500D01*
X83828Y84750D02*
X90000D01*
X80250Y81172D02*
X83828Y84750D01*
X83000Y86750D02*
X92750D01*
X80250Y75826D02*
Y81172D01*
X78250Y76654D02*
Y82000D01*
X97250Y77750D02*
Y82250D01*
X75445Y71021D02*
X80250Y75826D01*
X15000Y14000D02*
X35750D01*
X40375Y18625D02*
X40500Y18750D01*
X35750Y14000D02*
X40375Y18625D01*
X84000Y49500D02*
X92000Y41500D01*
X84000Y49500D02*
Y53154D01*
X40375Y18625D02*
X53500Y5500D01*
X22000Y18750D02*
X38500Y35250D01*
X360328Y191250D02*
X360328D01*
X363934Y187644D01*
X150750Y181500D02*
X162654D01*
X294154Y110250D02*
X298164D01*
X299914Y108500D01*
X300000D01*
X288154Y104250D02*
X294154Y110250D01*
X287000Y106250D02*
X300000Y119250D01*
X298000Y120078D02*
Y136111D01*
X286172Y108250D02*
X298000Y120078D01*
X120500Y67500D02*
X127500D01*
X129500Y65500D01*
X137422D01*
X126250Y60500D02*
X141904D01*
X9366Y117884D02*
Y121584D01*
X386954Y43396D02*
X389408D01*
X329250Y129500D02*
X329250Y129500D01*
X329250Y124672D02*
Y129500D01*
X52500Y3500D02*
X171578D01*
X44500Y11500D02*
X52500Y3500D01*
X17404Y11500D02*
X44500D01*
X336750Y91328D02*
Y121328D01*
X344000Y128578D02*
Y134250D01*
X336750Y121328D02*
X344000Y128578D01*
X346000Y127750D02*
Y133250D01*
X338750Y120500D02*
X346000Y127750D01*
X338750Y90500D02*
Y120500D01*
X345500Y98422D02*
X347750Y100672D01*
X345500Y87922D02*
Y98422D01*
X330078Y72500D02*
X345500Y87922D01*
X343500Y99250D02*
X345750Y101500D01*
X343500Y88750D02*
Y99250D01*
X331750Y77000D02*
X343500Y88750D01*
X326508Y72500D02*
X330078D01*
X326508Y77000D02*
X331750D01*
X347750Y115679D02*
X353908Y121837D01*
X347750Y100672D02*
Y115679D01*
X345750Y116507D02*
X351908Y122665D01*
X345750Y101500D02*
Y116507D01*
X721053Y135882D02*
Y157382D01*
X712368Y127197D02*
X721053Y135882D01*
X706803Y127197D02*
X712368D01*
X723053Y135053D02*
Y138807D01*
X713197Y125197D02*
X723053Y135053D01*
X705975Y125197D02*
X713197D01*
X672500Y129922D02*
Y153922D01*
X685382Y166803D02*
X700197D01*
X672500Y153922D02*
X685382Y166803D01*
X684553Y168803D02*
X701025D01*
X670500Y154750D02*
X684553Y168803D01*
X670500Y130750D02*
Y154750D01*
X685422Y163500D02*
X696328D01*
X676000Y154078D02*
X685422Y163500D01*
X676000Y135922D02*
Y154078D01*
X686250Y161500D02*
X695500D01*
X678000Y153250D02*
X686250Y161500D01*
X678000Y136750D02*
Y153250D01*
X626236Y158500D02*
X664172D01*
X625408Y156500D02*
X665000D01*
X723053Y154471D02*
X729250Y148274D01*
X723053Y154471D02*
Y162303D01*
X729250Y145004D02*
Y148274D01*
X723053Y138807D02*
X729250Y145004D01*
X737312Y169250D02*
X739750D01*
X735562Y167500D02*
X737312Y169250D01*
X730000D02*
X732438D01*
X734187Y167500D01*
X739750Y169250D02*
X744750Y164250D01*
X734187Y167500D02*
X735562D01*
X742500Y171250D02*
X749500Y164250D01*
X734922Y171250D02*
X742500D01*
X676000Y135922D02*
X687000Y124922D01*
Y115328D02*
Y124922D01*
X684172Y112500D02*
X687000Y115328D01*
X678000Y136750D02*
X689000Y125750D01*
Y114500D02*
Y125750D01*
X685000Y110500D02*
X689000Y114500D01*
X676578Y112500D02*
X684172D01*
X675750Y110500D02*
X685000D01*
X670250Y116000D02*
X675750Y110500D01*
X666078Y116000D02*
X670250D01*
X660828Y110750D02*
X666078Y116000D01*
X671078Y118000D02*
X676578Y112500D01*
X665250Y118000D02*
X671078D01*
X660000Y112750D02*
X665250Y118000D01*
X707553Y133947D02*
Y162275D01*
X701025Y168803D02*
X707553Y162275D01*
X705553Y133118D02*
Y161447D01*
X700197Y166803D02*
X705553Y161447D01*
X702250Y154328D02*
X702250Y154328D01*
X702250Y154328D02*
Y157578D01*
X696328Y163500D02*
X702250Y157578D01*
X700250Y130922D02*
Y156750D01*
X695500Y161500D02*
X700250Y156750D01*
X707553Y133947D02*
X709000Y132500D01*
X734922Y171250D02*
X734922Y171250D01*
X729172Y171250D02*
X734922D01*
X721053Y163132D02*
X729172Y171250D01*
X721053Y157382D02*
Y163132D01*
X721053Y157382D02*
X721053Y157382D01*
X723053Y162303D02*
X730000Y169250D01*
X715750Y162000D02*
Y164500D01*
X715750Y162000D02*
X715750Y162000D01*
X717750Y135922D02*
Y163672D01*
X715750Y136750D02*
Y162000D01*
X712328Y130500D02*
X717750Y135922D01*
X711500Y132500D02*
X715750Y136750D01*
X708172Y130500D02*
X712328D01*
X709000Y132500D02*
X711500D01*
X702250Y131750D02*
X706803Y127197D01*
X705553Y133118D02*
X708172Y130500D01*
X700250Y130922D02*
X705975Y125197D01*
X702250Y131750D02*
Y154328D01*
X595338Y196477D02*
X603658Y188157D01*
X595338Y196477D02*
X595338D01*
X603658Y188157D02*
X609158Y182657D01*
X603658Y188157D02*
X603658D01*
X611908Y172828D02*
X626236Y158500D01*
X656500Y116750D02*
X670500Y130750D01*
X740750Y179000D02*
X744750Y175000D01*
X351250Y165250D02*
X353208Y167208D01*
X106500Y195750D02*
Y207750D01*
X106250Y208000D02*
X106500Y207750D01*
X8000Y30000D02*
X16000Y38000D01*
X8000Y25000D02*
Y30000D01*
Y25000D02*
X14250Y18750D01*
X282869Y174250D02*
X286369Y177750D01*
X291578D01*
X280500Y176250D02*
X284000Y179750D01*
X279000Y178250D02*
X287500Y186750D01*
X298000Y136111D02*
X307938Y146049D01*
X284000Y179750D02*
X290750D01*
X346000Y138750D02*
X350214Y142964D01*
X346000Y136250D02*
Y138750D01*
X344000Y134250D02*
X346000Y136250D01*
X348417Y138167D02*
X351214Y140964D01*
X348417Y135667D02*
Y138167D01*
X346000Y133250D02*
X348417Y135667D01*
X368000Y186235D02*
Y189328D01*
X366000Y185407D02*
Y188500D01*
X363934Y184644D02*
Y187644D01*
X361934Y183816D02*
Y186816D01*
X11750Y12654D02*
Y16250D01*
Y12654D02*
X13654Y10750D01*
X16654D01*
X17404Y11500D01*
X330750Y69000D02*
X348250Y86500D01*
X341578Y149000D02*
X352500D01*
X329250Y136672D02*
X341578Y149000D01*
X329250Y129500D02*
Y136672D01*
X340750Y151000D02*
X351672D01*
X327250Y137500D02*
X340750Y151000D01*
X322250Y114500D02*
X330750Y106000D01*
X320250Y113672D02*
X328750Y105171D01*
Y98348D02*
Y105171D01*
X326952Y96550D02*
X328750Y98348D01*
X330750Y95748D02*
Y106000D01*
X327002Y92000D02*
X330750Y95748D01*
X331250Y108328D02*
X332750Y106828D01*
Y92985D02*
Y106828D01*
X328515Y88750D02*
X332750Y92985D01*
X333250Y109157D02*
X334750Y107657D01*
Y92157D02*
Y107657D01*
X329343Y86750D02*
X334750Y92157D01*
X330172Y84750D02*
X336750Y91328D01*
X331000Y82750D02*
X338750Y90500D01*
X353908Y121837D02*
Y126096D01*
X355000Y130000D02*
X355500Y130500D01*
X354983Y130000D02*
X355000D01*
X351908Y126925D02*
X354983Y130000D01*
X351908Y122665D02*
Y126925D01*
X355828Y128000D02*
X356328Y128500D01*
X355812Y128000D02*
X355828D01*
X353908Y126096D02*
X355812Y128000D01*
X356328Y128500D02*
X364328D01*
X355500Y130500D02*
X363500D01*
X364328Y128500D02*
X369828Y134000D01*
X363500Y130500D02*
X369000Y136000D01*
X371071D01*
X368750Y121000D02*
X372263D01*
X371071Y136000D02*
X371071Y136000D01*
X376917Y130154D02*
Y132175D01*
X374917Y129325D02*
X379743Y124500D01*
X374917Y129325D02*
Y131346D01*
X376917Y130154D02*
X380571Y126500D01*
X170750Y5500D02*
X183000Y17750D01*
X53500Y5500D02*
X170750D01*
X171578Y3500D02*
X180491Y12413D01*
X445908Y59658D02*
X447000Y60750D01*
X445908Y57600D02*
Y59658D01*
X11750Y16250D02*
X14250Y18750D01*
X22000D01*
X448904Y190250D02*
X449904Y189250D01*
X731500Y61250D02*
Y68422D01*
X724250Y54000D02*
X731500Y61250D01*
X721100Y54000D02*
X724250D01*
X722843Y77078D02*
X731500Y68422D01*
X705672Y77078D02*
X722843D01*
X678295Y104455D02*
X705672Y77078D01*
X706500Y79078D02*
X723671D01*
X751750Y51000D01*
X667243Y104455D02*
X678295D01*
X679123Y106455D02*
X706500Y79078D01*
X667368Y106455D02*
X679123D01*
X665533Y107750D02*
X666074D01*
X659908Y105750D02*
X662408Y103250D01*
X665408D01*
X666074Y107750D02*
X667368Y106455D01*
X665408Y103250D02*
X666038D01*
X667243Y104455D01*
X180491Y12413D02*
X182913D01*
X183000Y12500D01*
X473750Y17404D02*
X475654D01*
X476000Y17750D01*
X724000Y196750D02*
X742079D01*
X723172Y198750D02*
X741250D01*
X742079Y196750D02*
X746750Y201421D01*
X741250Y198750D02*
X744750Y202250D01*
Y206250D01*
X746750Y201421D02*
Y203500D01*
X749500Y206250D01*
X743579Y185000D02*
X746750Y188172D01*
X742750Y187000D02*
X744750Y189000D01*
Y193000D01*
X746750Y188172D02*
Y190250D01*
X749500Y193000D01*
X728250Y187000D02*
X742750D01*
X729079Y185000D02*
X743579D01*
X396263Y135000D02*
X396667D01*
X518500Y179800D02*
X541054D01*
X517671Y177800D02*
X543708D01*
X516843Y175800D02*
X576012D01*
X516015Y173800D02*
X575183D01*
X515186Y171800D02*
X574355D01*
X514358Y169800D02*
X573526D01*
X575183Y173800D02*
X610233Y138750D01*
X467315Y149500D02*
X472328D01*
X462658Y124672D02*
Y144843D01*
X610233Y138750D02*
X610254D01*
X612158Y136846D01*
Y136825D02*
Y136846D01*
Y136825D02*
X613408Y135575D01*
X476158Y72750D02*
X476658Y73250D01*
X452971Y72750D02*
X476158D01*
X475329Y74750D02*
X480908Y80328D01*
X452143Y74750D02*
X475329D01*
X471908Y76750D02*
X472908Y77750D01*
X451315Y76750D02*
X471908D01*
X550908Y86250D02*
X559658Y77500D01*
Y69750D02*
Y77500D01*
X556908Y67000D02*
X559658Y69750D01*
X552908Y87078D02*
X561658Y78328D01*
Y68922D02*
Y78328D01*
X557736Y65000D02*
X561658Y68922D01*
X520958Y93129D02*
Y96849D01*
Y93129D02*
X523287Y90800D01*
X462158Y45250D02*
X463908Y47000D01*
X537882Y90400D02*
X540803Y87479D01*
X538803Y82415D02*
Y85850D01*
X536253Y88400D02*
X538803Y85850D01*
X542718Y78500D02*
X546908D01*
X538803Y82415D02*
X542718Y78500D01*
X543546Y80500D02*
X547736D01*
X540803Y83243D02*
X543546Y80500D01*
X540803Y83243D02*
Y87479D01*
X476658Y73250D02*
X482908Y79500D01*
X476658Y73250D02*
X476658D01*
X472908Y77750D02*
Y83672D01*
X519408Y40750D02*
Y45500D01*
X517908Y47000D02*
X519408Y45500D01*
X518158Y29078D02*
Y31500D01*
X519408Y32750D01*
Y35000D01*
X518158Y36250D02*
X519408Y35000D01*
X518158Y36250D02*
Y39500D01*
X519408Y40750D01*
X573408Y80000D02*
X578908Y74500D01*
X571158Y80000D02*
X573408D01*
X570033Y78875D02*
X571158Y80000D01*
X570033Y74125D02*
Y78875D01*
X560658Y64750D02*
X570033Y74125D01*
X576773Y88310D02*
X579430Y85653D01*
X581176D01*
X583158Y83672D01*
Y76828D02*
Y83672D01*
X580023Y89635D02*
Y89656D01*
Y89635D02*
X585158Y84500D01*
X578908Y74500D02*
X580829D01*
X561938Y118280D02*
X566018D01*
X550658Y102750D02*
Y107000D01*
X580829Y74500D02*
X583158Y76828D01*
X581658Y72500D02*
X585158Y76000D01*
X571236Y72500D02*
X581658D01*
X562658Y63922D02*
X571236Y72500D01*
X609158Y182657D02*
X611908Y179907D01*
X600736Y128500D02*
X613236D01*
X599908Y126500D02*
X612408D01*
X599658Y129578D02*
X600736Y128500D01*
X597658Y128750D02*
X599908Y126500D01*
X599658Y129578D02*
Y146497D01*
X597658Y128750D02*
Y145668D01*
X538908Y92203D02*
X542210Y88900D01*
X538908Y92203D02*
Y97000D01*
X542210Y88900D02*
X546808D01*
X540958Y93052D02*
Y97849D01*
Y93052D02*
X543059Y90950D01*
X545959D01*
X574355Y171800D02*
X599658Y146497D01*
X573526Y169800D02*
X597658Y145668D01*
X614158Y137654D02*
X615408Y136404D01*
X614158Y137654D02*
Y137675D01*
X611082Y140750D02*
X614158Y137675D01*
X611062Y140750D02*
X611082D01*
X613408Y132750D02*
Y135575D01*
X615408Y133578D02*
Y136404D01*
X576012Y175800D02*
X611062Y140750D01*
X543708Y177800D02*
X546658Y180750D01*
X563615Y184500D02*
X565615Y186500D01*
X554029D02*
X556029Y184500D01*
X563615Y180457D02*
Y184500D01*
X562158Y179000D02*
X563615Y180457D01*
X557158Y179000D02*
X562158D01*
X556029Y180129D02*
X557158Y179000D01*
X556029Y180129D02*
Y184500D01*
X565615Y186500D02*
X571408D01*
X548658Y111000D02*
X559188Y121530D01*
X548658Y103578D02*
Y111000D01*
X571408Y186500D02*
X572658Y185250D01*
X544658Y183404D02*
Y185750D01*
X387879Y39550D02*
X397581D01*
X388708Y37550D02*
X398410D01*
X541054Y179800D02*
X544658Y183404D01*
X546329Y101250D02*
X548658Y103578D01*
X547158Y99250D02*
X550658Y102750D01*
X518908Y92351D02*
X522509Y88750D01*
X548858Y93849D02*
Y97099D01*
X550908Y93000D02*
Y96250D01*
X537757Y101050D02*
X540958Y97849D01*
X536908Y99000D02*
X538908Y97000D01*
X532559Y101050D02*
X537757D01*
X533408Y99000D02*
X536908D01*
X529108Y97599D02*
X532559Y101050D01*
X531158Y96750D02*
X533408Y99000D01*
X380786Y36000D02*
X384329D01*
X379958Y34000D02*
X385158D01*
X396953Y41750D02*
X399501Y44299D01*
X395508Y41750D02*
X396953D01*
X393933Y43325D02*
X395508Y41750D01*
X551329Y65000D02*
X557736D01*
X552158Y67000D02*
X556908D01*
X550408Y68750D02*
X552158Y67000D01*
X550908Y86250D02*
Y89828D01*
X552908Y89000D02*
X555548Y91640D01*
X552908Y87078D02*
Y89000D01*
X548408Y67922D02*
X551329Y65000D01*
X548408Y67922D02*
Y77000D01*
X550408Y68750D02*
Y77828D01*
X560658Y52158D02*
Y64750D01*
X562658Y51329D02*
Y63922D01*
X585158Y76000D02*
Y84500D01*
X534250Y25750D02*
X560658Y52158D01*
X535078Y23750D02*
X562658Y51329D01*
X556049Y94970D02*
X563453D01*
X550908Y89828D02*
X556049Y94970D01*
X555548Y91640D02*
X566783D01*
X546808Y88900D02*
X550908Y93000D01*
X545959Y90950D02*
X548858Y93849D01*
X547736Y80500D02*
X550408Y77828D01*
X546908Y78500D02*
X548408Y77000D01*
X521486Y25750D02*
X534250D01*
X518158Y29078D02*
X521486Y25750D01*
X520658Y23750D02*
X535078D01*
X516158Y28250D02*
X520658Y23750D01*
X516158Y28250D02*
Y40422D01*
X540303Y104433D02*
Y109605D01*
X538908Y111000D02*
X540303Y109605D01*
X530658Y111000D02*
X538908D01*
X528908Y109250D02*
X530658Y111000D01*
X528908Y103578D02*
Y109250D01*
X521158Y103078D02*
Y109750D01*
X519658Y111250D02*
X521158Y109750D01*
X500408Y111250D02*
X519658D01*
X498158Y109000D02*
X500408Y111250D01*
X521158Y103078D02*
X523236Y101000D01*
X526329D01*
X522408Y99000D02*
X527158D01*
X519158Y102250D02*
X522408Y99000D01*
X519158Y102250D02*
Y105672D01*
X526329Y101000D02*
X528908Y103578D01*
X530908Y102750D02*
Y106250D01*
X527158Y99000D02*
X530908Y102750D01*
X543486Y101250D02*
X546329D01*
X540303Y104433D02*
X543486Y101250D01*
X542658Y99250D02*
X547158D01*
X538303Y103605D02*
X542658Y99250D01*
X538303Y103605D02*
Y107355D01*
X515579Y109250D02*
X519158Y105672D01*
X504195Y109250D02*
X515579D01*
X530908Y106250D02*
X533658Y109000D01*
X536658D01*
X538303Y107355D01*
X479942Y90706D02*
X482286Y93050D01*
X479942Y88514D02*
Y90706D01*
X472908Y83672D02*
X475252Y86016D01*
X477444D01*
X558158Y135500D02*
X559908Y133750D01*
Y131250D02*
Y133750D01*
Y131250D02*
X562561Y128596D01*
X555908Y135500D02*
X558158D01*
X550908Y130500D02*
X555908Y135500D01*
X555338Y138180D02*
X564639D01*
X550908Y128000D02*
Y130500D01*
Y128000D02*
X555743Y123164D01*
X545658Y128500D02*
X555338Y138180D01*
X543453Y128500D02*
X545658D01*
X565062Y128596D02*
X566863Y126795D01*
X562561Y128596D02*
X565062D01*
X555743Y120914D02*
Y123164D01*
X535953Y121000D02*
X543453Y128500D01*
X500579Y121000D02*
X535953D01*
X543953Y119000D02*
X546658D01*
X549408Y116250D01*
X551079D01*
X555743Y120914D01*
X499720Y117312D02*
X501408Y119000D01*
X499720Y115063D02*
Y117312D01*
X496345Y113938D02*
X498595D01*
X501408Y119000D02*
X505653D01*
X508403Y116250D01*
X511158D01*
X513908Y119000D01*
X516158D01*
X518908Y116250D01*
X520868D01*
X523619Y119000D01*
X525753D01*
X528503Y116250D01*
X531203D01*
X533953Y119000D01*
X535653D01*
X538655Y115997D01*
X538658Y116000D02*
X540953D01*
X543953Y119000D01*
X372263Y121000D02*
X374513Y123250D01*
X486782Y145375D02*
Y151501D01*
X480158Y138750D02*
X486782Y145375D01*
X480158Y129750D02*
Y138750D01*
X471908Y121500D02*
X480158Y129750D01*
X475658Y145250D02*
X488908Y158500D01*
X475658Y132250D02*
Y145250D01*
X468908Y125500D02*
X475658Y132250D01*
X473658Y146078D02*
X486908Y159328D01*
X473658Y133078D02*
Y146078D01*
X466908Y126328D02*
X473658Y133078D01*
X650279Y57000D02*
X664544D01*
X644583Y60574D02*
X646658Y58500D01*
X566018Y118280D02*
X569113Y115186D01*
X569877D01*
X568767Y118360D02*
X573363D01*
X566863Y120264D02*
X568767Y118360D01*
X566863Y120264D02*
Y126795D01*
X559188Y121530D02*
X563533D01*
X444236Y87750D02*
X448408D01*
X441408Y90578D02*
X444236Y87750D01*
X448408D02*
X450408Y85750D01*
X470908Y84500D02*
X481458Y95050D01*
X470908Y82328D02*
Y84500D01*
X477444Y86016D02*
X479942Y88514D01*
X482908Y85672D02*
X486286Y89050D01*
X482908Y79500D02*
Y85672D01*
X480908Y86500D02*
X485458Y91050D01*
X480908Y80328D02*
Y86500D01*
X505708Y178450D02*
X514358Y169800D01*
X378164Y123250D02*
X378914Y122500D01*
X380158Y124500D02*
X380158Y124500D01*
X379743Y124500D02*
X380158D01*
X607658Y170250D02*
Y178500D01*
X441408Y90578D02*
Y95922D01*
X457408Y111922D01*
X439408Y96750D02*
X455408Y112750D01*
X439408Y89750D02*
Y96750D01*
Y89750D02*
X446408Y82750D01*
X467329Y78750D02*
X470908Y82328D01*
X450486Y78750D02*
X467329D01*
X449471Y69250D02*
X452971Y72750D01*
X448643Y71250D02*
X452143Y74750D01*
X459754Y80750D02*
X461908Y82904D01*
X449658Y80750D02*
X459754D01*
X461908Y82904D02*
Y102750D01*
X448315Y73750D02*
X451315Y76750D01*
X447486Y75750D02*
X450486Y78750D01*
X458408Y84000D02*
Y103250D01*
X461908Y102750D02*
X474908Y115750D01*
X462658Y144843D02*
X467315Y149500D01*
X460658Y145672D02*
X466486Y151500D01*
X374513Y123250D02*
X378164D01*
X618658Y176578D02*
Y185425D01*
Y176578D02*
X627986Y167250D01*
X660329D01*
X627158Y165250D02*
X661158D01*
X616658Y175750D02*
X627158Y165250D01*
X616658Y175750D02*
Y184596D01*
X615582Y188500D02*
X618658Y185425D01*
X614754Y186500D02*
X616658Y184596D01*
X611908Y172828D02*
Y179907D01*
X609908Y172000D02*
Y179078D01*
X613736Y188500D02*
X615582D01*
X612908Y186500D02*
X614754D01*
X460658Y125500D02*
Y145672D01*
X465158Y103172D02*
X476908Y114922D01*
X465158Y82500D02*
Y103172D01*
X474908Y115750D02*
Y120410D01*
X458408Y103250D02*
X471908Y116750D01*
Y121500D01*
X474908Y120410D02*
X493522Y139025D01*
Y151581D01*
X457408Y114671D02*
X457408Y114671D01*
X457408Y111922D02*
Y114671D01*
X447158Y98828D02*
X466908Y118578D01*
X447158Y96750D02*
Y98828D01*
X449158Y98000D02*
X468908Y117750D01*
X449158Y94000D02*
Y98000D01*
X609908Y172000D02*
X625408Y156500D01*
X569158Y148251D02*
X570408Y149500D01*
X563453Y148251D02*
X569158D01*
X632558Y154000D02*
X638058Y148500D01*
X623908Y154000D02*
X632558D01*
X607658Y170250D02*
X623908Y154000D01*
X476908Y114922D02*
Y119582D01*
X496852Y139527D01*
X441158Y39250D02*
X442658Y40750D01*
X439158Y40078D02*
X441829Y42750D01*
X486782Y151501D02*
X493522Y158241D01*
X466908Y118578D02*
Y126328D01*
X468908Y117750D02*
Y125500D01*
X496852Y139527D02*
Y154911D01*
X457408Y119422D02*
X462658Y124672D01*
X457408Y114671D02*
Y119422D01*
X455408Y120250D02*
X460658Y125500D01*
X455408Y112750D02*
Y120250D01*
X360658Y52750D02*
X361119D01*
X377683Y39103D02*
X380786Y36000D01*
X370633Y43325D02*
X379958Y34000D01*
X377683Y39103D02*
Y43325D01*
X386883Y43325D02*
X386954Y43396D01*
X447658Y42750D02*
X449158Y44250D01*
X441829Y42750D02*
X447658D01*
X447358Y40750D02*
X449158Y38950D01*
X442658Y40750D02*
X447358D01*
X667726Y55682D02*
X668079Y55328D01*
X492658Y113078D02*
X500579Y121000D01*
X498595Y113938D02*
X499720Y115063D01*
X564639Y138180D02*
X570033Y143574D01*
Y146107D01*
X572097Y148170D01*
X574789D01*
X580023Y142937D01*
Y133584D02*
Y142937D01*
X576773Y130334D02*
X580023Y133584D01*
X576773Y121610D02*
Y130334D01*
X573363Y118360D02*
X573443Y118280D01*
D11*
X-9750Y124714D02*
Y133132D01*
Y124714D02*
X-6333Y121298D01*
X-9750Y133132D02*
X-4382Y138500D01*
X458750Y12750D02*
X469250Y23250D01*
X431750Y12750D02*
X458750D01*
X428750Y15750D02*
X431750Y12750D01*
X492750Y12000D02*
X633750D01*
X481500Y23250D02*
X492750Y12000D01*
X469250Y23250D02*
X481500D01*
X641500Y19750D02*
X654600D01*
X662350Y12000D01*
X633750D02*
X641500Y19750D01*
X382158Y198250D02*
X419250D01*
X371408Y187500D02*
X382158Y198250D01*
X17500Y154446D02*
Y161553D01*
X20197Y164250D01*
X30250D01*
X1554Y138500D02*
X17500Y154446D01*
X30250Y164250D02*
X42250Y176250D01*
Y197750D01*
X203803Y70750D02*
X206750Y73697D01*
X182750Y70750D02*
X203803D01*
X206750Y73697D02*
Y79103D01*
X188750Y93750D02*
X192103D01*
X175500Y107000D02*
X188750Y93750D01*
X175500Y107000D02*
Y113750D01*
X217286Y116500D02*
X221818Y111968D01*
X178250Y116500D02*
X217286D01*
X175500Y113750D02*
X178250Y116500D01*
X192103Y93750D02*
X206750Y79103D01*
X73625Y198875D02*
X98625D01*
X-4382Y138500D02*
X1554D01*
X11250Y102750D02*
Y107250D01*
X-2798Y121298D02*
X11250Y107250D01*
X-6333Y121298D02*
X-2798D01*
X66250Y206250D02*
X73625Y198875D01*
X50750Y206250D02*
X66250D01*
X42250Y197750D02*
X50750Y206250D01*
X733250Y122748D02*
Y118083D01*
X735583Y115750D01*
X737915Y118083D01*
Y122748D01*
X731250Y98750D02*
Y105748D01*
X734749D01*
X735915Y104581D01*
Y102249D01*
X734749Y101082D01*
X731250D01*
X733583D02*
X735915Y98750D01*
X728000Y116998D02*
Y110000D01*
X732665D01*
X723250Y115750D02*
Y120415D01*
X725583Y122748D01*
X727915Y120415D01*
Y115750D01*
Y119249D01*
X723250D01*
X725750Y105747D02*
Y98750D01*
X729249D01*
X730415Y99916D01*
Y104581D01*
X729249Y105747D01*
X725750D01*
D12*
X65750Y187250D02*
X69750Y183250D01*
X47000Y36750D02*
X51000Y32750D01*
X59250Y187250D02*
X65750D01*
X51000Y32750D02*
X58250D01*
D14*
X281404Y199165D02*
X281500Y199260D01*
X274257Y190250D02*
X281404Y197397D01*
Y199165D01*
X262743Y190250D02*
X274257D01*
X260243Y192750D02*
X262743Y190250D01*
X251500Y192750D02*
X260243D01*
X247250Y197000D02*
X251500Y192750D01*
X281500Y199250D02*
Y199260D01*
X571408Y165926D02*
X580908Y156426D01*
Y148000D02*
Y156426D01*
Y148000D02*
X584408Y144500D01*
Y142750D02*
Y144500D01*
D18*
X424158Y105250D02*
Y126500D01*
X421158Y102250D02*
X424158Y105250D01*
Y126500D02*
X435958Y138300D01*
D150*
X662350Y12000D02*
D03*
X128400Y13500D02*
D03*
X141100D02*
D03*
X166500D02*
D03*
D153*
X223250Y32500D02*
X270750D01*
X272750Y34500D01*
X227500Y162250D02*
X235500Y154250D01*
X243750D01*
X282500Y115500D01*
X351917Y91967D02*
X355252Y95302D01*
X351917Y88033D02*
Y91967D01*
X355252Y95302D02*
X358333D01*
X386167Y95864D02*
X389803Y99500D01*
X396167D01*
X396667Y100000D01*
X386167Y93136D02*
Y95864D01*
X383531Y90500D02*
X386167Y93136D01*
X370803Y90500D02*
X383531D01*
X365553Y85250D02*
X370803Y90500D01*
X354700Y85250D02*
X365553D01*
X351917Y88033D02*
X354700Y85250D01*
X358333Y95302D02*
X361667Y98636D01*
Y105000D01*
D155*
X392500Y85000D02*
X401125D01*
X275750Y208250D02*
X289200D01*
D156*
X318250Y64500D02*
X337908D01*
X640408Y121250D02*
X647832D01*
X632158Y129500D02*
X640408Y121250D01*
X626658Y129500D02*
X632158D01*
X619908Y136250D02*
X626658Y129500D01*
X545408Y192750D02*
X583425D01*
X542408Y189750D02*
X545408Y192750D01*
X525675Y189750D02*
X542408D01*
X524925Y190500D02*
X525675Y189750D01*
X520575Y190500D02*
X524925D01*
X519825Y189750D02*
X520575Y190500D01*
X519658Y189750D02*
X519825D01*
X517158Y187250D02*
X519658Y189750D01*
X583425Y192750D02*
X595658Y180517D01*
X406842Y102250D02*
X421158D01*
X407658Y98158D02*
Y101434D01*
X405658Y96158D02*
X407658Y98158D01*
X405658Y89533D02*
Y96158D01*
X374000Y79750D02*
X387250D01*
X369000Y74750D02*
X374000Y79750D01*
X348158Y74750D02*
X369000D01*
X387250Y79750D02*
X392250Y84750D01*
X401125Y85000D02*
X405658Y89533D01*
X647832Y121250D02*
X652408Y125825D01*
X595658Y169750D02*
Y180517D01*
X337908Y64500D02*
X348158Y74750D01*
X595658Y169750D02*
X619908Y145500D01*
Y136250D02*
Y145500D01*
X406842Y102250D02*
X407658Y101434D01*
X396158Y112934D02*
X406842Y102250D01*
X396158Y112934D02*
Y119000D01*
X371658Y105250D02*
Y114250D01*
X372158Y105250D02*
X378908D01*
X386158Y104750D02*
X388658Y107250D01*
X378908Y105250D02*
X379408Y104750D01*
X386158D01*
X391667Y120000D02*
X395158D01*
X652408Y125825D02*
Y134500D01*
D160*
X246900Y129350D02*
X267500Y108750D01*
X170782Y129350D02*
X246900D01*
X138750Y97318D02*
X170782Y129350D01*
X267500Y101750D02*
Y108750D01*
X263500Y97750D02*
X267500Y101750D01*
X255282Y97750D02*
X263500D01*
X251782Y101250D02*
X255282Y97750D01*
X215750Y101250D02*
X251782D01*
X204750Y90250D02*
X215750Y101250D01*
X138750Y97250D02*
Y97318D01*
X314500Y92750D02*
Y95750D01*
X317125Y111375D02*
X320000Y108500D01*
X314500Y95750D02*
X320000Y101250D01*
Y108500D01*
X257237Y167987D02*
X274700D01*
X253000Y163750D02*
X257237Y167987D01*
X253000Y161500D02*
Y163750D01*
X370908Y99750D02*
X376417D01*
X361158Y90000D02*
X370908Y99750D01*
X356667Y90000D02*
X361158D01*
X376417Y99750D02*
X376417Y99750D01*
D166*
X688250Y185750D02*
D03*
X671000Y198000D02*
D03*
X675500D02*
D03*
X680000D02*
D03*
X610750Y196750D02*
D03*
X614000Y200250D02*
D03*
X617250Y204000D02*
D03*
X454750Y23250D02*
D03*
X460658Y24500D02*
D03*
X394750Y22950D02*
D03*
X394750Y30500D02*
D03*
X625000Y113250D02*
D03*
X589000Y128000D02*
D03*
X566783Y111620D02*
D03*
X586250Y88500D02*
D03*
X583500Y92250D02*
D03*
X595250Y109000D02*
D03*
X573443Y98300D02*
D03*
X570113Y101630D02*
D03*
X428750Y15750D02*
D03*
X438500Y212000D02*
D03*
X426750D02*
D03*
X437500Y174750D02*
D03*
X442000D02*
D03*
X445500Y178000D02*
D03*
X21500Y160250D02*
D03*
X21000Y116000D02*
D03*
X262950Y216450D02*
D03*
X225000Y208750D02*
D03*
X-750Y181500D02*
D03*
X209500Y148000D02*
D03*
X153500Y136500D02*
D03*
X158000Y137250D02*
D03*
X122650Y155250D02*
D03*
X80750D02*
D03*
X59000Y111750D02*
D03*
X42500Y106250D02*
D03*
X21250Y103000D02*
D03*
X18000Y109500D02*
D03*
X445000Y185000D02*
D03*
X336750Y213750D02*
D03*
X458500Y207500D02*
D03*
X27250Y133750D02*
D03*
X310750Y115750D02*
D03*
X371250Y170500D02*
D03*
X476750Y206500D02*
D03*
X496250Y174750D02*
D03*
X128500Y197250D02*
D03*
X82000Y60000D02*
D03*
X216250Y193500D02*
D03*
X492000Y210000D02*
D03*
X710000Y167150D02*
D03*
X394000Y215000D02*
D03*
X420158Y107500D02*
D03*
X411667Y92500D02*
D03*
X177250Y39250D02*
D03*
X86000Y66000D02*
D03*
X171750Y53750D02*
D03*
X223250Y32500D02*
D03*
X345000Y38000D02*
D03*
X341000Y46750D02*
D03*
X330125Y38375D02*
D03*
X211050Y41800D02*
D03*
X208154Y17596D02*
D03*
X364500Y6250D02*
D03*
X168500Y181000D02*
D03*
X147750Y75250D02*
D03*
X101250Y108750D02*
D03*
X97250Y114000D02*
D03*
X306750Y190500D02*
D03*
X515750Y213000D02*
D03*
X463000Y198750D02*
D03*
X463500Y194250D02*
D03*
X355750Y180000D02*
D03*
X484250Y210250D02*
D03*
X666750Y196250D02*
D03*
X135750Y156000D02*
D03*
X150250Y82000D02*
D03*
X182750Y70750D02*
D03*
X268250Y69750D02*
D03*
X238750Y94000D02*
D03*
X314500Y92750D02*
D03*
X288250Y50000D02*
D03*
X268250Y62000D02*
D03*
X98750Y85750D02*
D03*
X179500Y50250D02*
D03*
X229250Y112000D02*
D03*
X221818Y111968D02*
D03*
X278000Y66000D02*
D03*
X278250Y100750D02*
D03*
X255250Y72500D02*
D03*
Y77500D02*
D03*
X216250Y58500D02*
D03*
X260250Y105750D02*
D03*
X274250Y85250D02*
D03*
X465750Y169000D02*
D03*
X158250Y215500D02*
D03*
X177500Y215250D02*
D03*
X165500Y198500D02*
D03*
X218441Y205180D02*
D03*
X215000Y202250D02*
D03*
X135750Y203500D02*
D03*
X63750Y85000D02*
D03*
X103750Y35500D02*
D03*
X472000Y198750D02*
D03*
X316375Y196375D02*
D03*
X220250Y159000D02*
D03*
X115500Y178750D02*
D03*
X103250Y198750D02*
D03*
X98625Y198875D02*
D03*
X101000Y202500D02*
D03*
X420375Y203200D02*
D03*
X454658Y140342D02*
D03*
X141250Y49000D02*
D03*
X309000Y111500D02*
D03*
X305500Y115750D02*
D03*
X87250Y127250D02*
D03*
X88250Y81500D02*
D03*
X97250Y77750D02*
D03*
X93250Y81500D02*
D03*
X110250Y61250D02*
D03*
X43750Y32250D02*
D03*
X216500Y163250D02*
D03*
X311750Y189500D02*
D03*
X282500Y115500D02*
D03*
X7000Y131750D02*
D03*
X11250Y102750D02*
D03*
X204500Y90000D02*
D03*
X293250Y75500D02*
D03*
X272750Y34500D02*
D03*
X92250Y71250D02*
D03*
X102750Y41750D02*
D03*
X120500Y67500D02*
D03*
X108500Y175000D02*
D03*
X403750Y203500D02*
D03*
X197250Y189000D02*
D03*
X499208Y169750D02*
D03*
X566783Y151580D02*
D03*
X652908Y200500D02*
D03*
X714000Y51500D02*
D03*
X714500Y41000D02*
D03*
X698750Y67750D02*
D03*
X275750Y208250D02*
D03*
X258000Y161500D02*
D03*
X281500Y199250D02*
D03*
X253000Y161500D02*
D03*
X159250Y166500D02*
D03*
X247250Y197000D02*
D03*
X280750Y166500D02*
D03*
X287500Y173750D02*
D03*
X262750Y186000D02*
D03*
X274700Y167987D02*
D03*
X690750Y42750D02*
D03*
X676000D02*
D03*
X649500Y26000D02*
D03*
X702000Y28500D02*
D03*
X9366Y121584D02*
D03*
X33625Y111250D02*
D03*
X-2250Y132500D02*
D03*
X-4750Y44000D02*
D03*
X-4000Y160501D02*
D03*
X665408Y103250D02*
D03*
X665533Y107750D02*
D03*
X69750Y183250D02*
D03*
X110000Y204250D02*
D03*
X95500Y122500D02*
D03*
X106250Y208000D02*
D03*
X114999Y191749D02*
D03*
X203000Y75250D02*
D03*
X318250Y64500D02*
D03*
X300000Y108500D02*
D03*
X419250Y198250D02*
D03*
X372000Y66000D02*
D03*
X326000Y165250D02*
D03*
X317500Y159000D02*
D03*
X304500Y181750D02*
D03*
X139375Y125875D02*
D03*
X74750Y77750D02*
D03*
X56000Y61000D02*
D03*
X60500D02*
D03*
X47000Y36750D02*
D03*
X100500Y68250D02*
D03*
X423750Y158000D02*
D03*
X427000Y185250D02*
D03*
X357500Y186000D02*
D03*
X369250Y6250D02*
D03*
X134750Y126000D02*
D03*
X255500Y104250D02*
D03*
X178750Y26750D02*
D03*
X86250Y120750D02*
D03*
X317125Y111375D02*
D03*
X320000Y108500D02*
D03*
X33750Y122500D02*
D03*
Y127500D02*
D03*
X108000Y192000D02*
D03*
X353208Y167208D02*
D03*
X310000Y141250D02*
D03*
X307938Y146049D02*
D03*
X204250Y64000D02*
D03*
X93500Y110000D02*
D03*
Y103000D02*
D03*
X15000Y14000D02*
D03*
X12000Y71000D02*
D03*
Y75250D02*
D03*
Y79500D02*
D03*
X5000Y72750D02*
D03*
Y77000D02*
D03*
X1000Y189250D02*
D03*
X-1500Y193250D02*
D03*
X3500D02*
D03*
X7500Y198500D02*
D03*
X-1500Y202499D02*
D03*
X2750D02*
D03*
X250Y160501D02*
D03*
X-4500Y112499D02*
D03*
X-250D02*
D03*
X-4000Y93000D02*
D03*
X-500Y82500D02*
D03*
X250Y65250D02*
D03*
X0Y20000D02*
D03*
Y25000D02*
D03*
X-4000Y22500D02*
D03*
X12500Y28250D02*
D03*
X16500Y30250D02*
D03*
X16250Y25500D02*
D03*
X141000Y178500D02*
D03*
X136750D02*
D03*
X132500D02*
D03*
X83000Y70500D02*
D03*
X99000Y73000D02*
D03*
X106250Y107250D02*
D03*
X42250Y139000D02*
D03*
X721100Y54000D02*
D03*
X751750Y51000D02*
D03*
X724175Y48000D02*
D03*
X754825Y15000D02*
D03*
X754825Y33000D02*
D03*
X754825Y39000D02*
D03*
Y57000D02*
D03*
X749750Y62250D02*
D03*
X739500Y80000D02*
D03*
X576773Y108290D02*
D03*
X285250Y28250D02*
D03*
X522250Y213250D02*
D03*
X722587Y72738D02*
D03*
X754825Y163000D02*
D03*
X754825Y181000D02*
D03*
X754825Y187000D02*
D03*
Y205000D02*
D03*
X744750Y211750D02*
D03*
X730000Y207000D02*
D03*
X722750Y189250D02*
D03*
X744500Y146750D02*
D03*
X744750Y164250D02*
D03*
X749500Y164250D02*
D03*
X744750Y175000D02*
D03*
X749500Y175000D02*
D03*
Y193000D02*
D03*
X744750Y193000D02*
D03*
X749500Y206250D02*
D03*
X744750Y206250D02*
D03*
X418750Y175000D02*
D03*
X244250Y20750D02*
D03*
X476000Y17750D02*
D03*
X469550Y17800D02*
D03*
X183000Y17750D02*
D03*
Y12500D02*
D03*
X187500Y61250D02*
D03*
X144500Y58500D02*
D03*
X120750Y52500D02*
D03*
X135250Y68750D02*
D03*
X126250Y60500D02*
D03*
X136000Y192000D02*
D03*
X59250Y187250D02*
D03*
X58250Y32750D02*
D03*
X509250Y7250D02*
D03*
X289200Y207750D02*
D03*
X309750Y104750D02*
D03*
X423408Y48750D02*
D03*
X423500Y44500D02*
D03*
X418750Y46750D02*
D03*
X176250Y176500D02*
D03*
X206250Y159250D02*
D03*
X350000Y3250D02*
D03*
X398500Y5750D02*
D03*
X227500Y162250D02*
D03*
X224750Y166000D02*
D03*
X223500Y162250D02*
D03*
X254500Y37250D02*
D03*
X180250Y111750D02*
D03*
X184750D02*
D03*
X143750Y142500D02*
D03*
X113500Y124500D02*
D03*
X132250Y153000D02*
D03*
X134500Y142750D02*
D03*
X665000Y97500D02*
D03*
X283250Y100750D02*
D03*
X281000Y92750D02*
D03*
X197050Y83500D02*
D03*
X130875Y70000D02*
D03*
X312500Y38500D02*
D03*
X313750Y28250D02*
D03*
X198250Y150250D02*
D03*
X175500Y153500D02*
D03*
X190250Y153750D02*
D03*
X301750Y63500D02*
D03*
X294000Y39500D02*
D03*
X683250Y42750D02*
D03*
X665000Y47000D02*
D03*
X625158Y85250D02*
D03*
X644158Y76500D02*
D03*
X650908Y91500D02*
D03*
X638658Y94500D02*
D03*
Y101500D02*
D03*
X635158Y98000D02*
D03*
X710000Y24250D02*
D03*
Y14750D02*
D03*
X294250Y61750D02*
D03*
Y57250D02*
D03*
X289296Y12000D02*
D03*
X637565Y200250D02*
D03*
X296635Y146250D02*
D03*
X322658Y64500D02*
D03*
X431750Y19500D02*
D03*
X457500Y18000D02*
D03*
X439500D02*
D03*
X449000Y18250D02*
D03*
X403250Y26500D02*
D03*
X623658Y19250D02*
D03*
X550908Y17000D02*
D03*
X319000Y75500D02*
D03*
X319250Y92250D02*
D03*
X202563Y189119D02*
D03*
X667908Y167250D02*
D03*
X701250Y121500D02*
D03*
X577158Y185250D02*
D03*
X442408Y54000D02*
D03*
X406667Y110000D02*
D03*
X396667Y100000D02*
D03*
X356667Y80000D02*
D03*
X564408Y34250D02*
D03*
X406908Y35550D02*
D03*
X411667Y87000D02*
D03*
X581158Y31750D02*
D03*
X593408Y137250D02*
D03*
X458408Y84000D02*
D03*
X446408Y82750D02*
D03*
X465158Y82500D02*
D03*
X458000Y198750D02*
D03*
X371408Y187500D02*
D03*
X138750Y97250D02*
D03*
X396667Y135000D02*
D03*
X327002Y92000D02*
D03*
X326952Y96550D02*
D03*
X326508Y72500D02*
D03*
Y77000D02*
D03*
X572658Y185250D02*
D03*
X643158Y195750D02*
D03*
X584408Y142750D02*
D03*
X576773Y94970D02*
D03*
X360658Y52750D02*
D03*
Y57500D02*
D03*
X565158Y5250D02*
D03*
X382408Y57500D02*
D03*
X450408Y85750D02*
D03*
X444658Y94000D02*
D03*
X449158D02*
D03*
X450908Y57500D02*
D03*
X445908Y57600D02*
D03*
X449158Y44250D02*
D03*
Y38950D02*
D03*
X406908Y30250D02*
D03*
X350408Y62000D02*
D03*
X370633Y43325D02*
D03*
X377683D02*
D03*
X386883Y43325D02*
D03*
X393933D02*
D03*
X628250Y200250D02*
D03*
X613408Y183250D02*
D03*
X159250Y171250D02*
D03*
X190450Y78000D02*
D03*
X172750Y124600D02*
D03*
X437658Y82500D02*
D03*
X129450Y92750D02*
D03*
X148000Y188750D02*
D03*
X140750Y192000D02*
D03*
X149750Y168250D02*
D03*
X435958Y138300D02*
D03*
X391667Y135000D02*
D03*
X401667D02*
D03*
X455750Y194750D02*
D03*
X425158Y134000D02*
D03*
X440658Y103250D02*
D03*
X454000Y189250D02*
D03*
X449869Y185050D02*
D03*
X403167Y158750D02*
D03*
X361667Y105000D02*
D03*
X396667Y80000D02*
D03*
X391667Y90000D02*
D03*
X359750Y47250D02*
D03*
X576773Y88310D02*
D03*
X573443Y91640D02*
D03*
X566783D02*
D03*
X570113Y94970D02*
D03*
X566783Y104960D02*
D03*
X563453Y94970D02*
D03*
X573443Y118280D02*
D03*
X576773Y121610D02*
D03*
X570113Y114950D02*
D03*
X563533Y121530D02*
D03*
X87250Y51500D02*
D03*
X209500Y106750D02*
D03*
X193000Y86000D02*
D03*
X401667Y100000D02*
D03*
X396667Y120000D02*
D03*
X401667D02*
D03*
X381667Y110000D02*
D03*
X366667Y80000D02*
D03*
X386667Y115000D02*
D03*
Y135000D02*
D03*
X391667Y120000D02*
D03*
X366667Y139750D02*
D03*
X351667Y135000D02*
D03*
X346667Y80250D02*
D03*
X371667Y85000D02*
D03*
X356667Y90000D02*
D03*
X376667Y100000D02*
D03*
X356667D02*
D03*
X371667Y105000D02*
D03*
Y115000D02*
D03*
X386802Y110000D02*
D03*
X391667Y105000D02*
D03*
X196500Y124500D02*
D03*
X605500Y81750D02*
D03*
X582750Y186000D02*
D03*
X474658Y169500D02*
D03*
X618000Y72750D02*
D03*
X607830Y50000D02*
D03*
X684158Y153250D02*
D03*
X602408Y109000D02*
D03*
X679658Y53000D02*
D03*
X522408Y50750D02*
D03*
X638058Y148500D02*
D03*
X638908Y31500D02*
D03*
X645908Y185000D02*
D03*
X634658Y173250D02*
D03*
X581408Y175000D02*
D03*
X609158Y7250D02*
D03*
X678158Y117250D02*
D03*
X493522Y158241D02*
D03*
X496852Y154911D02*
D03*
X665158Y53000D02*
D03*
X571658Y46250D02*
D03*
X546658Y51250D02*
D03*
X543473Y68330D02*
D03*
X652408Y135250D02*
D03*
X628658Y135000D02*
D03*
X644658Y61250D02*
D03*
X648658Y162000D02*
D03*
X454500Y39000D02*
D03*
X454250Y44250D02*
D03*
X516908Y187000D02*
D03*
X536658Y40500D02*
D03*
X510158Y41750D02*
D03*
X500408Y38750D02*
D03*
X488408Y41250D02*
D03*
X475750D02*
D03*
X533658Y143250D02*
D03*
X583529Y129079D02*
D03*
X571408Y165926D02*
D03*
X561158Y16250D02*
D03*
X696908Y151500D02*
D03*
X658908Y145750D02*
D03*
X674908Y62500D02*
D03*
X642908Y172500D02*
D03*
X665083Y80500D02*
D03*
X645658Y126500D02*
D03*
X650408Y139500D02*
D03*
X629408Y19250D02*
D03*
X660658Y174750D02*
D03*
X674908Y52500D02*
D03*
X634908Y27250D02*
D03*
X649158Y60750D02*
D03*
X638908Y47000D02*
D03*
X560123Y158241D02*
D03*
X563453Y148251D02*
D03*
X540143Y65000D02*
D03*
X493522Y151581D02*
D03*
X486862Y104960D02*
D03*
Y111620D02*
D03*
X483532Y108290D02*
D03*
X506842Y65000D02*
D03*
X500182Y58340D02*
D03*
X48750Y187250D02*
D03*
X59250Y175250D02*
D03*
Y181000D02*
D03*
X26250Y168000D02*
D03*
X21750D02*
D03*
X24000Y206000D02*
D03*
X28750D02*
D03*
X90750Y205500D02*
D03*
X86750D02*
D03*
X36000Y62000D02*
D03*
X31250D02*
D03*
X35250Y5000D02*
D03*
X18750Y8250D02*
D03*
X89250Y14000D02*
D03*
X94000D02*
D03*
X92000Y51500D02*
D03*
X60500Y56500D02*
D03*
X56000D02*
D03*
X55500Y9000D02*
D03*
X61000D02*
D03*
X58250Y39000D02*
D03*
Y44750D02*
D03*
D167*
X63000Y115500D02*
D03*
Y104500D02*
D03*
X52000Y104500D02*
D03*
X524803Y85000D02*
D03*
Y115000D02*
D03*
Y105000D02*
D03*
Y125000D02*
D03*
Y135000D02*
D03*
X534803Y134900D02*
D03*
Y124900D02*
D03*
Y114900D02*
D03*
Y84900D02*
D03*
X544803Y104900D02*
D03*
Y114900D02*
D03*
X504803Y94900D02*
D03*
Y114900D02*
D03*
Y124900D02*
D03*
X514803Y94900D02*
D03*
Y84900D02*
D03*
Y114900D02*
D03*
Y124900D02*
D03*
Y134900D02*
D03*
D168*
X230750Y69500D02*
D03*
X241750D02*
D03*
X230750Y80500D02*
D03*
X241750D02*
D03*
X159750Y90750D02*
D03*
Y101750D02*
D03*
X170750Y90750D02*
D03*
Y101750D02*
D03*
X544803Y134900D02*
D03*
X504803D02*
D03*
D170*
X3167Y151750D02*
X10000Y158583D01*
Y183000D01*
X1000Y192000D02*
X10000Y183000D01*
X82277Y140250D02*
X84000D01*
X71500Y129473D02*
X82277Y140250D01*
X71500Y100979D02*
Y129473D01*
X118750Y167500D02*
X127500Y176250D01*
X117076Y167500D02*
X118750D01*
X127500Y176250D02*
X135000D01*
X116326Y166750D02*
X117076Y167500D01*
X110500Y166750D02*
X116326D01*
X47250Y83250D02*
X58000Y94000D01*
X32750Y83250D02*
X47250D01*
X58000Y94000D02*
X64521D01*
X71500Y100979D01*
X8750Y75750D02*
Y86000D01*
X-1250Y22500D02*
Y31250D01*
X4500Y90250D02*
X8750Y86000D01*
X4500Y90250D02*
Y96167D01*
X-1583Y102250D02*
X4500Y96167D01*
X15750Y27500D02*
X23000Y34750D01*
X84000Y140250D02*
X110500Y166750D01*
X23000Y73500D02*
X32750Y83250D01*
X23000Y34750D02*
Y73500D01*
X-19250Y140500D02*
X-8000Y151750D01*
X-19250Y113250D02*
Y140500D01*
Y113250D02*
X-8250Y102250D01*
X-1250Y31250D02*
X8750Y41250D01*
Y64000D01*
X-8250Y102250D02*
X-1583D01*
X-8000Y151750D02*
X3167D01*
D172*
X186600Y76150D02*
X188625Y74125D01*
X149002Y76150D02*
X186600D01*
X188650Y74150D02*
X192045D01*
X188625Y74125D02*
X188650Y74150D01*
X192045D02*
X194750Y76855D01*
X136125Y75250D02*
X147750D01*
X130875Y70000D02*
X136125Y75250D01*
X148102D02*
X149002Y76150D01*
X147750Y75250D02*
X148102D01*
X194750Y78000D02*
X196250Y79500D01*
X194750Y76855D02*
Y78000D01*
X196250Y79500D02*
X199945D01*
X202751Y76694D01*
Y75499D02*
Y76694D01*
Y75499D02*
X203000Y75250D01*
M02*
