G04*
G04 #@! TF.GenerationSoftware,Altium Limited,Altium Designer,19.1.6 (110)*
G04*
G04 Layer_Physical_Order=4*
G04 Layer_Color=6736896*
%FSLAX44Y44*%
%MOMM*%
G71*
G01*
G75*
%ADD10C,0.1000*%
%ADD11C,0.1500*%
%ADD13C,0.3000*%
%ADD15C,0.2000*%
%ADD16C,0.2500*%
%ADD145R,5.5000X5.5000*%
%ADD151C,0.4000*%
%ADD152C,0.3500*%
%ADD153C,0.5000*%
%ADD158C,0.6000*%
%ADD159C,0.1100*%
%ADD161C,0.3500*%
%ADD162C,0.5000*%
%ADD163C,0.4000*%
%ADD164C,1.0000*%
%ADD166C,0.5500*%
G36*
X465961Y158692D02*
X464895Y157980D01*
X463790Y156326D01*
X463402Y154375D01*
X463790Y152424D01*
X464895Y150770D01*
X465961Y150058D01*
Y146942D01*
X464895Y146230D01*
X463790Y144576D01*
X463402Y142625D01*
X463790Y140674D01*
X464895Y139020D01*
X465961Y138308D01*
Y2039D01*
X376825D01*
X375966Y3309D01*
X376054Y3750D01*
X375883Y4606D01*
X376313Y5427D01*
X376664Y5876D01*
X387750D01*
X388898Y6352D01*
X400648Y18102D01*
X401124Y19250D01*
Y31077D01*
X404115Y34069D01*
X404121Y34072D01*
X404187Y34097D01*
X404264Y34121D01*
X404357Y34140D01*
X404464Y34156D01*
X404585Y34165D01*
X404752Y34168D01*
X404873Y34221D01*
X405823Y34410D01*
X406733Y35017D01*
X407340Y35927D01*
X407554Y37000D01*
X407340Y38073D01*
X406733Y38983D01*
X405823Y39590D01*
X404750Y39804D01*
X403677Y39590D01*
X402767Y38983D01*
X402160Y38073D01*
X401970Y37123D01*
X401918Y37002D01*
X401915Y36835D01*
X401906Y36713D01*
X401890Y36607D01*
X401870Y36514D01*
X401847Y36437D01*
X401822Y36371D01*
X401819Y36365D01*
X398352Y32898D01*
X397876Y31750D01*
Y19922D01*
X387077Y9124D01*
X371000D01*
X369852Y8648D01*
X368545Y7341D01*
X368540Y7342D01*
X368122Y8720D01*
X373534Y14132D01*
X384250D01*
X386591Y14598D01*
X388576Y15924D01*
X393326Y20674D01*
X394652Y22659D01*
X395118Y25000D01*
Y44000D01*
X394652Y46341D01*
X393326Y48326D01*
X387868Y53784D01*
Y58426D01*
X401074Y71632D01*
X413216D01*
X425174Y59674D01*
X427159Y58348D01*
X429500Y57882D01*
X442099D01*
X444440Y58348D01*
X446424Y59674D01*
X462326Y75576D01*
X463652Y77560D01*
X464118Y79901D01*
Y132250D01*
X463652Y134591D01*
X462326Y136576D01*
X462118Y136784D01*
Y162500D01*
X461652Y164841D01*
X460326Y166826D01*
X456867Y170284D01*
Y178500D01*
X456402Y180841D01*
X455076Y182826D01*
X448368Y189534D01*
Y208460D01*
X447902Y210801D01*
X446576Y212786D01*
X434036Y225326D01*
X432051Y226652D01*
X429710Y227118D01*
X422500D01*
X420159Y226652D01*
X418174Y225326D01*
X414216Y221367D01*
X411324D01*
X408618Y224074D01*
Y229790D01*
X408152Y232131D01*
X406826Y234116D01*
X398368Y242574D01*
Y244500D01*
X397902Y246841D01*
X396576Y248826D01*
X380826Y264576D01*
X378841Y265902D01*
X376500Y266367D01*
X361660D01*
X361275Y266865D01*
X360882Y267638D01*
X361054Y268500D01*
X360840Y269573D01*
X360233Y270483D01*
X359323Y271091D01*
X358250Y271304D01*
X357177Y271091D01*
X356267Y270483D01*
X355659Y269573D01*
X355446Y268500D01*
X355618Y267638D01*
X355225Y266865D01*
X354840Y266367D01*
X299574D01*
X295366Y270576D01*
X293381Y271902D01*
X291040Y272367D01*
X231292D01*
X231211Y272458D01*
X230730Y273638D01*
X231090Y274177D01*
X231304Y275250D01*
X231090Y276323D01*
X230483Y277233D01*
X229573Y277840D01*
X228500Y278054D01*
X227427Y277840D01*
X226517Y277233D01*
X225399Y277623D01*
X225073Y277840D01*
X224000Y278054D01*
X222927Y277840D01*
X222017Y277233D01*
X221410Y276323D01*
X221196Y275250D01*
X221410Y274177D01*
X221770Y273638D01*
X221289Y272458D01*
X221207Y272367D01*
X204000D01*
X201659Y271902D01*
X199674Y270576D01*
X192424Y263326D01*
X192181Y262962D01*
X189985Y260765D01*
X189668Y260000D01*
Y256738D01*
X189487Y256618D01*
X174500D01*
X172159Y256152D01*
X170174Y254826D01*
X162924Y247576D01*
X162839Y247448D01*
X161624Y247817D01*
Y257000D01*
X161148Y258148D01*
X157148Y262148D01*
X156000Y262624D01*
X139250D01*
X138102Y262148D01*
X134578Y258624D01*
X126175D01*
X125027Y258148D01*
X113502Y246624D01*
X97382D01*
X96483Y247894D01*
X96554Y248250D01*
X96340Y249323D01*
X95733Y250233D01*
X94823Y250840D01*
X93750Y251054D01*
X92677Y250840D01*
X91767Y250233D01*
X91160Y249323D01*
X90946Y248250D01*
X91017Y247894D01*
X90118Y246624D01*
X84672D01*
X82898Y248398D01*
X81750Y248874D01*
X77500D01*
X76352Y248398D01*
X73078Y245124D01*
X69138D01*
X68652Y246297D01*
X74806Y252451D01*
X102115D01*
X102177Y252410D01*
X103250Y252196D01*
X104323Y252410D01*
X105233Y253017D01*
X105841Y253927D01*
X105855Y254000D01*
X107266Y255412D01*
X108739Y255088D01*
X108832Y254931D01*
X108696Y254250D01*
X108910Y253177D01*
X109517Y252267D01*
X110427Y251660D01*
X111500Y251446D01*
X112573Y251660D01*
X113483Y252267D01*
X114090Y253177D01*
X114304Y254250D01*
X114168Y254931D01*
X114915Y256201D01*
X118250D01*
X119226Y256395D01*
X120052Y256948D01*
X127056Y263951D01*
X166694D01*
X169948Y260698D01*
X170775Y260145D01*
X171750Y259951D01*
X181250D01*
X182225Y260145D01*
X183052Y260698D01*
X201056Y278701D01*
X206250D01*
X207225Y278895D01*
X208052Y279448D01*
X212500Y283895D01*
X215948Y280448D01*
X216775Y279895D01*
X217750Y279701D01*
X242500D01*
X243475Y279895D01*
X244302Y280448D01*
X245056Y281201D01*
X285250D01*
X286225Y281395D01*
X287052Y281948D01*
X288750Y283645D01*
X290698Y281698D01*
X291525Y281145D01*
X292500Y280951D01*
X316990D01*
X317965Y281145D01*
X318792Y281698D01*
X323545Y286451D01*
X346615D01*
X346677Y286410D01*
X347750Y286196D01*
X348823Y286410D01*
X349733Y287017D01*
X350340Y287927D01*
X350554Y289000D01*
X350340Y290073D01*
X349733Y290983D01*
X348823Y291590D01*
X347750Y291804D01*
X346677Y291590D01*
X346615Y291549D01*
X322490D01*
X321514Y291355D01*
X320687Y290802D01*
X315934Y286049D01*
X293556D01*
X291355Y288250D01*
X291340Y288323D01*
X290733Y289233D01*
X289823Y289840D01*
X288750Y290054D01*
X287677Y289840D01*
X286767Y289233D01*
X286160Y288323D01*
X286145Y288250D01*
X284194Y286299D01*
X246044D01*
Y287733D01*
X246340Y288177D01*
X246554Y289250D01*
X246340Y290323D01*
X245733Y291233D01*
X244823Y291840D01*
X243750Y292054D01*
X242677Y291840D01*
X241767Y291233D01*
X241160Y290323D01*
X239956Y289815D01*
X239766Y289826D01*
X239752Y289832D01*
X239585Y289835D01*
X239463Y289844D01*
X239357Y289860D01*
X239265Y289879D01*
X239186Y289903D01*
X239121Y289928D01*
X239115Y289931D01*
X237648Y291398D01*
X236500Y291874D01*
X218251D01*
X216434Y293691D01*
X216659Y294669D01*
X216823Y294961D01*
X280070D01*
X280441Y293943D01*
X280490Y293691D01*
X279910Y292823D01*
X279696Y291750D01*
X279910Y290677D01*
X280518Y289767D01*
X281427Y289160D01*
X282500Y288946D01*
X283573Y289160D01*
X284483Y289767D01*
X285091Y290677D01*
X285304Y291750D01*
X285091Y292823D01*
X284511Y293691D01*
X284559Y293943D01*
X284930Y294961D01*
X465961D01*
Y158692D01*
D02*
G37*
G36*
X238288Y289179D02*
X238411Y289087D01*
X238543Y289006D01*
X238685Y288937D01*
X238836Y288878D01*
X238996Y288830D01*
X239166Y288794D01*
X239345Y288768D01*
X239534Y288753D01*
X239732Y288750D01*
X238000Y287017D01*
X237997Y287216D01*
X237982Y287405D01*
X237957Y287584D01*
X237920Y287754D01*
X237872Y287914D01*
X237813Y288065D01*
X237744Y288207D01*
X237663Y288339D01*
X237571Y288462D01*
X237468Y288575D01*
X238175Y289282D01*
X238288Y289179D01*
D02*
G37*
G36*
X188588Y285966D02*
X188471Y286115D01*
X188349Y286248D01*
X188224Y286366D01*
X188093Y286468D01*
X187958Y286554D01*
X187819Y286625D01*
X187675Y286679D01*
X187527Y286719D01*
X187375Y286742D01*
X187218Y286750D01*
X187369Y287750D01*
X187516Y287756D01*
X187665Y287775D01*
X187816Y287808D01*
X187970Y287852D01*
X188126Y287910D01*
X188284Y287981D01*
X188444Y288064D01*
X188606Y288160D01*
X188938Y288391D01*
X188588Y285966D01*
D02*
G37*
G36*
X233250Y285775D02*
X233108Y285913D01*
X232964Y286036D01*
X232819Y286145D01*
X232673Y286239D01*
X232526Y286319D01*
X232377Y286384D01*
X232228Y286435D01*
X232077Y286471D01*
X231926Y286493D01*
X231773Y286500D01*
Y287500D01*
X231926Y287507D01*
X232077Y287529D01*
X232228Y287565D01*
X232377Y287616D01*
X232526Y287681D01*
X232673Y287761D01*
X232819Y287855D01*
X232964Y287964D01*
X233108Y288087D01*
X233250Y288225D01*
Y285775D01*
D02*
G37*
G36*
X146250Y283775D02*
X146108Y283913D01*
X145964Y284036D01*
X145819Y284145D01*
X145673Y284239D01*
X145526Y284319D01*
X145377Y284384D01*
X145228Y284435D01*
X145077Y284471D01*
X144926Y284493D01*
X144773Y284500D01*
Y285500D01*
X144926Y285507D01*
X145077Y285529D01*
X145228Y285565D01*
X145377Y285616D01*
X145526Y285681D01*
X145673Y285761D01*
X145819Y285855D01*
X145964Y285964D01*
X146108Y286087D01*
X146250Y286225D01*
Y283775D01*
D02*
G37*
G36*
X72038Y285929D02*
X72161Y285837D01*
X72293Y285756D01*
X72435Y285686D01*
X72586Y285628D01*
X72746Y285580D01*
X72916Y285543D01*
X73095Y285518D01*
X73284Y285503D01*
X73483Y285500D01*
X71750Y283768D01*
X71747Y283966D01*
X71732Y284155D01*
X71707Y284334D01*
X71670Y284504D01*
X71622Y284664D01*
X71564Y284815D01*
X71494Y284957D01*
X71413Y285089D01*
X71321Y285212D01*
X71218Y285325D01*
X71925Y286032D01*
X72038Y285929D01*
D02*
G37*
G36*
X198732Y283750D02*
X198534Y283747D01*
X198345Y283732D01*
X198166Y283706D01*
X197996Y283670D01*
X197836Y283622D01*
X197685Y283563D01*
X197543Y283494D01*
X197411Y283413D01*
X197288Y283321D01*
X197175Y283218D01*
X196468Y283925D01*
X196571Y284038D01*
X196663Y284161D01*
X196744Y284293D01*
X196813Y284435D01*
X196872Y284586D01*
X196920Y284746D01*
X196957Y284916D01*
X196982Y285095D01*
X196997Y285284D01*
X197000Y285483D01*
X198732Y283750D01*
D02*
G37*
G36*
X108000Y281025D02*
X107858Y281163D01*
X107714Y281286D01*
X107569Y281395D01*
X107423Y281489D01*
X107276Y281569D01*
X107127Y281634D01*
X106978Y281685D01*
X106827Y281721D01*
X106676Y281743D01*
X106523Y281750D01*
Y282750D01*
X106676Y282757D01*
X106827Y282779D01*
X106978Y282815D01*
X107127Y282866D01*
X107276Y282931D01*
X107423Y283011D01*
X107569Y283105D01*
X107714Y283214D01*
X107858Y283337D01*
X108000Y283475D01*
Y281025D01*
D02*
G37*
G36*
X54234Y280375D02*
X54186Y280446D01*
X54126Y280510D01*
X54055Y280566D01*
X53973Y280615D01*
X53880Y280656D01*
X53776Y280690D01*
X53661Y280716D01*
X53535Y280735D01*
X53398Y280746D01*
X53250Y280750D01*
Y281750D01*
X53398Y281754D01*
X53535Y281765D01*
X53661Y281784D01*
X53776Y281810D01*
X53880Y281844D01*
X53973Y281885D01*
X54055Y281934D01*
X54126Y281990D01*
X54186Y282054D01*
X54234Y282125D01*
Y280375D01*
D02*
G37*
G36*
X57142Y282337D02*
X57286Y282214D01*
X57431Y282105D01*
X57577Y282011D01*
X57724Y281931D01*
X57873Y281866D01*
X58022Y281815D01*
X58173Y281779D01*
X58324Y281757D01*
X58477Y281750D01*
Y280750D01*
X58324Y280743D01*
X58173Y280721D01*
X58022Y280685D01*
X57873Y280634D01*
X57724Y280569D01*
X57577Y280489D01*
X57431Y280395D01*
X57286Y280286D01*
X57142Y280163D01*
X57000Y280025D01*
Y282475D01*
X57142Y282337D01*
D02*
G37*
G36*
X3532Y277575D02*
X3429Y277462D01*
X3337Y277339D01*
X3256Y277207D01*
X3187Y277065D01*
X3128Y276914D01*
X3080Y276754D01*
X3043Y276584D01*
X3018Y276405D01*
X3003Y276216D01*
X3000Y276017D01*
X1268Y277750D01*
X1466Y277753D01*
X1655Y277768D01*
X1834Y277794D01*
X2004Y277830D01*
X2164Y277878D01*
X2315Y277937D01*
X2457Y278006D01*
X2589Y278087D01*
X2712Y278179D01*
X2825Y278282D01*
X3532Y277575D01*
D02*
G37*
G36*
X55939Y275396D02*
X55832Y275283D01*
X55738Y275172D01*
X55657Y275062D01*
X55590Y274954D01*
X55536Y274848D01*
X55495Y274744D01*
X55468Y274642D01*
X55454Y274541D01*
X55453Y274442D01*
X55465Y274345D01*
X54214Y275688D01*
X54309Y275668D01*
X54405Y275663D01*
X54504Y275670D01*
X54603Y275692D01*
X54705Y275727D01*
X54807Y275775D01*
X54911Y275837D01*
X55017Y275912D01*
X55124Y276001D01*
X55232Y276103D01*
X55939Y275396D01*
D02*
G37*
G36*
X-2216Y276264D02*
X-1510Y275781D01*
X-1340Y274927D01*
X-1124Y274603D01*
X-1123Y274601D01*
X-967Y274204D01*
X-988Y273866D01*
X-992Y273842D01*
X-1199Y273416D01*
X-1491Y273041D01*
X-10083D01*
X-11231Y272565D01*
X-22898Y260898D01*
X-23374Y259750D01*
Y208265D01*
X-22898Y207117D01*
X-15633Y199852D01*
X-14485Y199376D01*
X6077D01*
X9376Y196077D01*
Y193241D01*
X8133Y192895D01*
X8106Y192897D01*
X7937Y193090D01*
X7789Y193312D01*
X6312Y194789D01*
X6090Y194937D01*
X5890Y195113D01*
X4081Y196157D01*
X3828Y196243D01*
X3589Y196361D01*
X1572Y196901D01*
X1372Y196914D01*
X1178Y196966D01*
X133Y197035D01*
X66Y197026D01*
X0Y197039D01*
X-35750D01*
Y274961D01*
X-8000Y274961D01*
X-7950Y274971D01*
X-7900Y274963D01*
X-7116Y275002D01*
X-6969Y275039D01*
X-6818D01*
X-5280Y275345D01*
X-5094Y275421D01*
X-4897Y275461D01*
X-3449Y276061D01*
X-3282Y276172D01*
X-3096Y276249D01*
X-2754Y276478D01*
X-2216Y276264D01*
D02*
G37*
G36*
X70771Y276869D02*
X70896Y276778D01*
X71028Y276702D01*
X71168Y276641D01*
X71315Y276595D01*
X71469Y276565D01*
X71631Y276549D01*
X71801Y276548D01*
X71978Y276562D01*
X72162Y276592D01*
X70776Y274572D01*
X70736Y274776D01*
X70636Y275154D01*
X70577Y275326D01*
X70511Y275487D01*
X70438Y275637D01*
X70360Y275777D01*
X70274Y275905D01*
X70182Y276023D01*
X70084Y276130D01*
X70654Y276975D01*
X70771Y276869D01*
D02*
G37*
G36*
X104032Y274825D02*
X103929Y274712D01*
X103837Y274589D01*
X103756Y274457D01*
X103687Y274315D01*
X103628Y274164D01*
X103580Y274004D01*
X103544Y273834D01*
X103518Y273655D01*
X103503Y273466D01*
X103500Y273267D01*
X101767Y275000D01*
X101966Y275003D01*
X102155Y275018D01*
X102334Y275044D01*
X102504Y275080D01*
X102664Y275128D01*
X102815Y275187D01*
X102957Y275256D01*
X103089Y275337D01*
X103212Y275429D01*
X103325Y275532D01*
X104032Y274825D01*
D02*
G37*
G36*
X147983Y272750D02*
X147784Y272747D01*
X147595Y272732D01*
X147416Y272707D01*
X147246Y272670D01*
X147086Y272622D01*
X146935Y272563D01*
X146793Y272494D01*
X146661Y272413D01*
X146538Y272321D01*
X146425Y272218D01*
X145718Y272925D01*
X145821Y273038D01*
X145913Y273161D01*
X145994Y273293D01*
X146063Y273435D01*
X146122Y273586D01*
X146170Y273746D01*
X146207Y273916D01*
X146232Y274095D01*
X146247Y274284D01*
X146250Y274482D01*
X147983Y272750D01*
D02*
G37*
G36*
X53733Y272250D02*
X53534Y272247D01*
X53345Y272232D01*
X53166Y272206D01*
X52996Y272170D01*
X52836Y272122D01*
X52685Y272063D01*
X52543Y271994D01*
X52411Y271913D01*
X52288Y271821D01*
X52175Y271718D01*
X51468Y272425D01*
X51571Y272538D01*
X51663Y272661D01*
X51744Y272793D01*
X51813Y272935D01*
X51872Y273086D01*
X51920Y273246D01*
X51956Y273416D01*
X51982Y273595D01*
X51996Y273784D01*
X52000Y273983D01*
X53733Y272250D01*
D02*
G37*
G36*
X3625Y272992D02*
X3522Y272879D01*
X3430Y272756D01*
X3350Y272624D01*
X3280Y272482D01*
X3221Y272331D01*
X3174Y272171D01*
X3137Y272001D01*
X3111Y271822D01*
X3097Y271633D01*
X3093Y271434D01*
X1361Y273167D01*
X1559Y273170D01*
X1748Y273185D01*
X1927Y273211D01*
X2097Y273247D01*
X2258Y273295D01*
X2409Y273354D01*
X2550Y273423D01*
X2682Y273504D01*
X2805Y273596D01*
X2918Y273699D01*
X3625Y272992D01*
D02*
G37*
G36*
X94Y270192D02*
X-49Y270330D01*
X-193Y270453D01*
X-338Y270562D01*
X-484Y270656D01*
X-631Y270736D01*
X-779Y270801D01*
X-929Y270852D01*
X-1079Y270888D01*
X-1231Y270910D01*
X-1384Y270917D01*
Y271917D01*
X-1231Y271924D01*
X-1079Y271946D01*
X-929Y271982D01*
X-779Y272033D01*
X-631Y272098D01*
X-484Y272178D01*
X-338Y272272D01*
X-193Y272381D01*
X-49Y272504D01*
X94Y272642D01*
Y270192D01*
D02*
G37*
G36*
X105560Y279356D02*
X102385Y276181D01*
X102379Y276178D01*
X102313Y276153D01*
X102235Y276129D01*
X102143Y276110D01*
X102037Y276094D01*
X101915Y276085D01*
X101748Y276082D01*
X101627Y276029D01*
X100677Y275840D01*
X99767Y275233D01*
X99159Y274323D01*
X98946Y273250D01*
X99159Y272177D01*
X99683Y271394D01*
X99538Y270810D01*
X99193Y270124D01*
X84423D01*
X76031Y278515D01*
X76148Y279102D01*
X77673Y280626D01*
X105034D01*
X105560Y279356D01*
D02*
G37*
G36*
X186352Y279102D02*
X187500Y278626D01*
X191976D01*
X192502Y277356D01*
X180194Y265049D01*
X172806D01*
X169552Y268302D01*
X168725Y268855D01*
X167750Y269049D01*
X146504D01*
X146018Y270222D01*
X147365Y271569D01*
X147371Y271572D01*
X147437Y271597D01*
X147515Y271621D01*
X147607Y271640D01*
X147713Y271656D01*
X147835Y271665D01*
X148002Y271668D01*
X148123Y271721D01*
X149073Y271910D01*
X149983Y272517D01*
X150590Y273427D01*
X150804Y274500D01*
X150733Y274856D01*
X151566Y276107D01*
X151669Y276164D01*
X152726Y276602D01*
X157751Y281626D01*
X183827D01*
X186352Y279102D01*
D02*
G37*
G36*
X145267Y274856D02*
X145221Y274623D01*
X145168Y274502D01*
X145165Y274335D01*
X145156Y274213D01*
X145140Y274107D01*
X145120Y274014D01*
X145097Y273937D01*
X145072Y273871D01*
X145069Y273865D01*
X142327Y271124D01*
X124757D01*
X123609Y270648D01*
X116835Y263874D01*
X109072D01*
X108820Y265144D01*
X109323Y265352D01*
X118097Y274126D01*
X130750D01*
X131898Y274602D01*
X133422Y276126D01*
X144368D01*
X145267Y274856D01*
D02*
G37*
G36*
X44485Y278453D02*
X40406Y274374D01*
X21500D01*
X20352Y273898D01*
X6077Y259624D01*
X3272D01*
X3266Y259626D01*
X3201Y259654D01*
X3129Y259693D01*
X3050Y259744D01*
X2964Y259809D01*
X2871Y259888D01*
X2752Y260004D01*
X2629Y260052D01*
X1823Y260590D01*
X750Y260804D01*
X-323Y260590D01*
X-1233Y259983D01*
X-1840Y259073D01*
X-2054Y258000D01*
X-1840Y256927D01*
X-1419Y256297D01*
X-1576Y255191D01*
X-1729Y254822D01*
X-2148Y254648D01*
X-4398Y252398D01*
X-4874Y251250D01*
Y244500D01*
X-4398Y243352D01*
X1376Y237577D01*
Y227596D01*
X1852Y226448D01*
X17290Y211010D01*
X16969Y209535D01*
X16517Y209233D01*
X15910Y208323D01*
X15718Y207360D01*
X15306Y207101D01*
X14493Y206789D01*
X11509Y209773D01*
X10351Y210547D01*
X8985Y210819D01*
X-10772D01*
X-12181Y212228D01*
Y255266D01*
X-8769Y258679D01*
X-6000D01*
X-4634Y258950D01*
X-3477Y259724D01*
X-2703Y260882D01*
X-2431Y262247D01*
X-2703Y263613D01*
X-3477Y264771D01*
X-3979Y265106D01*
X-3594Y266376D01*
X2750D01*
X3898Y266852D01*
X16673Y279626D01*
X43999D01*
X44485Y278453D01*
D02*
G37*
G36*
X2142Y259087D02*
X2286Y258964D01*
X2431Y258855D01*
X2577Y258761D01*
X2724Y258681D01*
X2873Y258616D01*
X3022Y258565D01*
X3173Y258529D01*
X3324Y258507D01*
X3477Y258500D01*
Y257500D01*
X3324Y257493D01*
X3173Y257471D01*
X3022Y257435D01*
X2873Y257384D01*
X2724Y257319D01*
X2577Y257239D01*
X2431Y257145D01*
X2286Y257036D01*
X2142Y256913D01*
X2000Y256775D01*
Y259225D01*
X2142Y259087D01*
D02*
G37*
G36*
X153333Y254258D02*
X153138Y254272D01*
X152766Y254271D01*
X152590Y254256D01*
X152420Y254231D01*
X152256Y254197D01*
X152099Y254152D01*
X151948Y254098D01*
X151804Y254034D01*
X151666Y253961D01*
X151010Y254738D01*
X151138Y254819D01*
X151253Y254913D01*
X151357Y255020D01*
X151450Y255140D01*
X151530Y255273D01*
X151599Y255419D01*
X151656Y255578D01*
X151701Y255749D01*
X151734Y255934D01*
X151755Y256132D01*
X153333Y254258D01*
D02*
G37*
G36*
X259733Y254500D02*
X259534Y254497D01*
X259345Y254482D01*
X259166Y254457D01*
X258996Y254420D01*
X258836Y254372D01*
X258685Y254314D01*
X258543Y254244D01*
X258411Y254163D01*
X258288Y254071D01*
X258175Y253968D01*
X257468Y254675D01*
X257571Y254788D01*
X257663Y254911D01*
X257744Y255043D01*
X257813Y255185D01*
X257872Y255336D01*
X257920Y255496D01*
X257957Y255666D01*
X257982Y255845D01*
X257997Y256034D01*
X258000Y256232D01*
X259733Y254500D01*
D02*
G37*
G36*
X158376Y256327D02*
Y247382D01*
X157106Y246483D01*
X156750Y246554D01*
X155677Y246341D01*
X154767Y245733D01*
X154160Y244823D01*
X153946Y243750D01*
X154160Y242677D01*
X154767Y241767D01*
X155677Y241160D01*
X156750Y240946D01*
X157106Y241017D01*
X158376Y240118D01*
Y238423D01*
X154287Y234333D01*
X152857Y234565D01*
X152792Y234634D01*
X152812Y234870D01*
X153033Y235017D01*
X153640Y235927D01*
X153854Y237000D01*
X153640Y238073D01*
X153033Y238983D01*
X152123Y239590D01*
X151050Y239804D01*
X149977Y239590D01*
X149067Y238983D01*
X148840Y238642D01*
X147321Y238364D01*
X141287Y244398D01*
X140139Y244874D01*
X131000D01*
X129852Y244398D01*
X120948Y235495D01*
X119778Y236120D01*
X119804Y236250D01*
X119590Y237323D01*
X118983Y238233D01*
X118073Y238840D01*
X117000Y239054D01*
X115927Y238840D01*
X115017Y238233D01*
X114410Y237323D01*
X114196Y236250D01*
X114410Y235177D01*
X114432Y235144D01*
X113753Y233874D01*
X87965D01*
X87183Y235144D01*
X87304Y235750D01*
X87233Y236106D01*
X88132Y237376D01*
X104222D01*
X104247Y237387D01*
X108907Y237846D01*
X110906Y238452D01*
X110982Y238421D01*
X111473Y238624D01*
X113412Y239212D01*
X117564Y241432D01*
X121170Y244391D01*
X121199Y244403D01*
X121202Y244410D01*
X121209Y244412D01*
X121299Y244630D01*
X124749Y247462D01*
X128879Y249670D01*
X133361Y251029D01*
X137803Y251467D01*
X138021Y251376D01*
X146258D01*
X146336Y251409D01*
X149323Y251802D01*
X152179Y252985D01*
X152276Y253059D01*
X152279Y253061D01*
X152351Y253093D01*
X152430Y253121D01*
X152515Y253145D01*
X152610Y253165D01*
X152714Y253180D01*
X152813Y253189D01*
X153100Y253190D01*
X153255Y253178D01*
X153380Y253220D01*
X153500Y253196D01*
X154573Y253410D01*
X155483Y254017D01*
X156090Y254927D01*
X156304Y256000D01*
X156154Y256754D01*
X157241Y257462D01*
X158376Y256327D01*
D02*
G37*
G36*
X38868Y255100D02*
X38993Y255010D01*
X39124Y254937D01*
X39261Y254881D01*
X39404Y254843D01*
X39552Y254822D01*
X39706Y254819D01*
X39866Y254832D01*
X40032Y254864D01*
X40203Y254912D01*
X39077Y252736D01*
X39011Y252941D01*
X38794Y253486D01*
X38716Y253645D01*
X38550Y253927D01*
X38463Y254051D01*
X38372Y254163D01*
X38279Y254264D01*
X38749Y255208D01*
X38868Y255100D01*
D02*
G37*
G36*
X201912Y257162D02*
X198750Y254000D01*
X198750Y252500D01*
X198250Y252000D01*
X194000D01*
X191000Y255000D01*
X190750D01*
Y260000D01*
X194500Y263750D01*
X201912Y257162D01*
D02*
G37*
G36*
X45484Y250125D02*
X45436Y250196D01*
X45376Y250260D01*
X45305Y250316D01*
X45223Y250365D01*
X45130Y250406D01*
X45026Y250440D01*
X44911Y250466D01*
X44785Y250485D01*
X44648Y250496D01*
X44500Y250500D01*
Y251500D01*
X44648Y251504D01*
X44785Y251515D01*
X44911Y251534D01*
X45026Y251560D01*
X45130Y251594D01*
X45223Y251635D01*
X45305Y251684D01*
X45376Y251740D01*
X45436Y251804D01*
X45484Y251875D01*
Y250125D01*
D02*
G37*
G36*
X90635Y258819D02*
X90109Y257549D01*
X73750D01*
X72775Y257355D01*
X71948Y256802D01*
X64194Y249049D01*
X50415D01*
X49668Y250319D01*
X49804Y251000D01*
X49590Y252073D01*
X48983Y252983D01*
X48073Y253590D01*
X47000Y253804D01*
X45927Y253590D01*
X45017Y252983D01*
X43749Y253333D01*
X43488Y253579D01*
X43340Y254323D01*
X42733Y255233D01*
X41823Y255840D01*
X40750Y256054D01*
X40121Y255929D01*
X39908Y255954D01*
X39783Y255918D01*
X39718Y255906D01*
X39671Y255902D01*
X39643Y255903D01*
X39398Y256148D01*
X38250Y256624D01*
X21486D01*
X21000Y257797D01*
X26079Y262876D01*
X86578D01*
X90635Y258819D01*
D02*
G37*
G36*
X280352Y244602D02*
X281500Y244126D01*
X288096D01*
X289244Y244602D01*
X289465Y244822D01*
X290819Y244381D01*
X290910Y243927D01*
X291518Y243018D01*
X292427Y242410D01*
X293500Y242196D01*
X294573Y242410D01*
X295142Y242790D01*
X296000Y242932D01*
X296858Y242790D01*
X297427Y242410D01*
X298500Y242196D01*
X299573Y242410D01*
X300483Y243017D01*
X301090Y243927D01*
X301304Y245000D01*
X301183Y245606D01*
X301965Y246876D01*
X315077D01*
X316852Y245102D01*
X318000Y244626D01*
X356328D01*
X372102Y228852D01*
X373250Y228376D01*
X391577D01*
X393808Y226146D01*
X393714Y225644D01*
X393670Y225604D01*
X392331Y225157D01*
X390841Y226152D01*
X388500Y226618D01*
X386159Y226152D01*
X384174Y224826D01*
X382848Y222841D01*
X382383Y220500D01*
Y213617D01*
X377784D01*
X368368Y223034D01*
Y225500D01*
X367902Y227841D01*
X366576Y229826D01*
X355076Y241326D01*
X353091Y242652D01*
X350750Y243118D01*
X312250D01*
X309909Y242652D01*
X307924Y241326D01*
X306933Y240334D01*
X305805Y240535D01*
X305504Y240702D01*
X304983Y241483D01*
X304073Y242090D01*
X303000Y242304D01*
X301927Y242090D01*
X301017Y241483D01*
X300410Y240573D01*
X300196Y239500D01*
X300410Y238427D01*
X300603Y238137D01*
X299924Y236868D01*
X296284D01*
X295576Y237576D01*
X293591Y238902D01*
X291250Y239368D01*
X255034D01*
X252326Y242076D01*
X250341Y243402D01*
X248000Y243867D01*
X247284D01*
X243076Y248076D01*
X241091Y249402D01*
X238750Y249867D01*
X218750D01*
X216409Y249402D01*
X214424Y248076D01*
X209674Y243326D01*
X208348Y241341D01*
X207882Y239000D01*
Y234000D01*
X208348Y231659D01*
X209674Y229674D01*
X211659Y228348D01*
X212351Y228211D01*
X212427Y228160D01*
X213500Y227946D01*
X213590Y227964D01*
X214000Y227882D01*
X216341Y228348D01*
X218326Y229674D01*
X219652Y231659D01*
X219709Y231946D01*
X220717Y232536D01*
X221138Y232618D01*
X222000Y232446D01*
X223073Y232660D01*
X223650Y233045D01*
X224436Y232848D01*
X224789Y232172D01*
X224949Y231507D01*
X224660Y231073D01*
X224446Y230000D01*
X224660Y228927D01*
X224927Y227890D01*
X224017Y227283D01*
X223410Y226373D01*
X223265Y225649D01*
X222958Y225178D01*
X222020Y224700D01*
X221500Y224804D01*
X220427Y224590D01*
X219517Y223983D01*
X218910Y223073D01*
X218696Y222000D01*
X218910Y220927D01*
X219517Y220017D01*
X220427Y219410D01*
X221500Y219196D01*
X222573Y219410D01*
X223483Y220017D01*
X224090Y220927D01*
X224234Y221651D01*
X224542Y222122D01*
X225480Y222600D01*
X226000Y222496D01*
X227073Y222710D01*
X227983Y223317D01*
X228590Y224227D01*
X228804Y225300D01*
X228590Y226373D01*
X228323Y227410D01*
X229233Y228017D01*
X229840Y228927D01*
X231153Y229015D01*
X231500Y228946D01*
X232573Y229160D01*
X233483Y229767D01*
X234090Y230677D01*
X235104Y231171D01*
X235401Y231138D01*
X235532Y231099D01*
X235626Y230924D01*
Y225672D01*
X229352Y219398D01*
X228876Y218250D01*
Y192500D01*
X229352Y191352D01*
X241841Y178863D01*
X242989Y178387D01*
X243873D01*
X244359Y177214D01*
X235271Y168126D01*
X235144Y168158D01*
X234564Y169577D01*
X234778Y170650D01*
X234564Y171723D01*
X233957Y172633D01*
X233047Y173240D01*
X231974Y173454D01*
X230901Y173240D01*
X229991Y172633D01*
X229384Y171723D01*
X229170Y170650D01*
X229384Y169577D01*
X229991Y168667D01*
X230139Y168569D01*
X229753Y167299D01*
X221317D01*
X220830Y168472D01*
X225663Y173305D01*
X225663Y173305D01*
X226326Y174297D01*
X226559Y175467D01*
Y193750D01*
X226326Y194921D01*
X225663Y195913D01*
X220559Y201017D01*
Y206387D01*
X220326Y207557D01*
X219663Y208550D01*
X218671Y209213D01*
X217500Y209446D01*
X216329Y209213D01*
X215337Y208550D01*
X214674Y207557D01*
X214441Y206387D01*
Y199750D01*
X214441Y199750D01*
X214674Y198579D01*
X215337Y197587D01*
X220441Y192483D01*
Y184784D01*
X219171Y184108D01*
X218823Y184340D01*
X217750Y184554D01*
X216677Y184340D01*
X216234Y184044D01*
X215750D01*
X215750Y184044D01*
X214872Y183869D01*
X214128Y183372D01*
X208144Y177388D01*
X206874Y177914D01*
Y209000D01*
X206398Y210148D01*
X204874Y211672D01*
Y240578D01*
X220173Y255876D01*
X230035D01*
X230817Y254606D01*
X230696Y254000D01*
X230910Y252927D01*
X231517Y252017D01*
X232427Y251410D01*
X233500Y251196D01*
X234573Y251410D01*
X235483Y252017D01*
X236090Y252927D01*
X236304Y254000D01*
X236240Y254322D01*
X237410Y254947D01*
X241006Y251352D01*
X242154Y250876D01*
X243577D01*
X245102Y249352D01*
X246250Y248876D01*
X248500D01*
X248500Y248876D01*
X254000D01*
X255148Y249352D01*
X259115Y253319D01*
X259121Y253322D01*
X259187Y253347D01*
X259265Y253370D01*
X259357Y253390D01*
X259464Y253406D01*
X259585Y253415D01*
X259752Y253418D01*
X259873Y253471D01*
X260823Y253660D01*
X261733Y254267D01*
X262341Y255177D01*
X262554Y256250D01*
X262483Y256606D01*
X263382Y257876D01*
X267078D01*
X280352Y244602D01*
D02*
G37*
G36*
X41121Y240500D02*
X40718Y240067D01*
X40358Y239616D01*
X40039Y239148D01*
X39764Y238662D01*
X39530Y238159D01*
X39339Y237638D01*
X39191Y237100D01*
X39085Y236544D01*
X39021Y235970D01*
X39000Y235379D01*
X36000D01*
X35979Y235970D01*
X35915Y236544D01*
X35809Y237100D01*
X35661Y237638D01*
X35470Y238159D01*
X35236Y238662D01*
X34961Y239148D01*
X34642Y239616D01*
X34282Y240067D01*
X33879Y240500D01*
X35379Y243243D01*
X35803Y242861D01*
X36227Y242564D01*
X36651Y242352D01*
X37076Y242224D01*
X37500Y242182D01*
X37924Y242224D01*
X38349Y242352D01*
X38773Y242564D01*
X39197Y242861D01*
X39621Y243243D01*
X41121Y240500D01*
D02*
G37*
G36*
X184503Y239034D02*
X184518Y238845D01*
X184544Y238666D01*
X184580Y238496D01*
X184628Y238336D01*
X184687Y238185D01*
X184756Y238043D01*
X184837Y237911D01*
X184929Y237788D01*
X185032Y237675D01*
X184325Y236968D01*
X184212Y237071D01*
X184089Y237163D01*
X183957Y237244D01*
X183815Y237313D01*
X183664Y237372D01*
X183504Y237420D01*
X183334Y237456D01*
X183155Y237482D01*
X182966Y237497D01*
X182768Y237500D01*
X184500Y239233D01*
X184503Y239034D01*
D02*
G37*
G36*
X236503Y235034D02*
X236518Y234845D01*
X236544Y234666D01*
X236580Y234496D01*
X236628Y234336D01*
X236687Y234185D01*
X236756Y234043D01*
X236837Y233911D01*
X236929Y233788D01*
X237032Y233675D01*
X236325Y232968D01*
X236212Y233071D01*
X236089Y233163D01*
X235957Y233244D01*
X235815Y233314D01*
X235664Y233372D01*
X235504Y233420D01*
X235334Y233456D01*
X235155Y233482D01*
X234966Y233497D01*
X234767Y233500D01*
X236500Y235233D01*
X236503Y235034D01*
D02*
G37*
G36*
X46507Y233564D02*
X46527Y233406D01*
X46560Y233252D01*
X46607Y233103D01*
X46667Y232958D01*
X46740Y232818D01*
X46827Y232683D01*
X46927Y232552D01*
X47040Y232426D01*
X47167Y232304D01*
X44833D01*
X44960Y232426D01*
X45073Y232552D01*
X45173Y232683D01*
X45260Y232818D01*
X45333Y232958D01*
X45393Y233103D01*
X45440Y233252D01*
X45473Y233406D01*
X45493Y233564D01*
X45500Y233727D01*
X46500D01*
X46507Y233564D01*
D02*
G37*
G36*
X51166Y233437D02*
X51163Y233357D01*
X51173Y233273D01*
X51196Y233187D01*
X51232Y233097D01*
X51281Y233004D01*
X51342Y232909D01*
X51417Y232810D01*
X51504Y232708D01*
X51603Y232603D01*
X50896Y231896D01*
X50792Y231996D01*
X50690Y232083D01*
X50591Y232158D01*
X50495Y232219D01*
X50403Y232268D01*
X50313Y232304D01*
X50227Y232327D01*
X50143Y232337D01*
X50063Y232334D01*
X49985Y232319D01*
X51181Y233515D01*
X51166Y233437D01*
D02*
G37*
G36*
X292714Y255924D02*
X294699Y254598D01*
X297040Y254132D01*
X354872D01*
X355768Y252862D01*
X355696Y252500D01*
X355910Y251427D01*
X356517Y250517D01*
X357427Y249910D01*
X358500Y249696D01*
X359573Y249910D01*
X360483Y250517D01*
X361090Y251427D01*
X361304Y252500D01*
X361232Y252862D01*
X362128Y254132D01*
X373966D01*
X386133Y241966D01*
Y240040D01*
X386598Y237699D01*
X387924Y235714D01*
X390841Y232797D01*
X390355Y231624D01*
X373923D01*
X358148Y247398D01*
X357000Y247874D01*
X318673D01*
X316898Y249648D01*
X315750Y250124D01*
X290846D01*
X289698Y249648D01*
X287424Y247374D01*
X284613D01*
X284488Y248644D01*
X285198Y248785D01*
X286108Y249393D01*
X286715Y250302D01*
X286929Y251375D01*
X288020Y252399D01*
X288073Y252410D01*
X288983Y253017D01*
X289590Y253927D01*
X289804Y255000D01*
X289590Y256073D01*
X288983Y256983D01*
X288073Y257590D01*
X287000Y257804D01*
X285927Y257590D01*
X285017Y256983D01*
X284410Y256073D01*
X284196Y255000D01*
X284215Y254906D01*
X284125Y254179D01*
X283052Y253966D01*
X282142Y253358D01*
X281535Y252448D01*
X281321Y251375D01*
X281535Y250302D01*
X282142Y249393D01*
X283052Y248785D01*
X283762Y248644D01*
X283636Y247374D01*
X282173D01*
X270587Y258959D01*
X271073Y260132D01*
X288506D01*
X292714Y255924D01*
D02*
G37*
G36*
X149126Y231966D02*
Y228997D01*
X147856Y228318D01*
X147823Y228340D01*
X146750Y228554D01*
X145677Y228340D01*
X144767Y227733D01*
X144160Y226823D01*
X143946Y225750D01*
X144160Y224677D01*
X144767Y223767D01*
X145677Y223160D01*
X146750Y222946D01*
X147823Y223160D01*
X147856Y223182D01*
X149126Y222503D01*
Y210727D01*
X147856Y210342D01*
X147750Y210500D01*
X146841Y211108D01*
X145768Y211322D01*
X144695Y211108D01*
X143785Y210500D01*
X143177Y209591D01*
X142964Y208518D01*
X143177Y207445D01*
X143785Y206535D01*
X144695Y205927D01*
X145768Y205714D01*
X146841Y205927D01*
X147750Y206535D01*
X147856Y206694D01*
X148598Y206610D01*
X149188Y206401D01*
X149602Y205402D01*
X151562Y203442D01*
X151076Y202269D01*
X145225D01*
X135544Y211950D01*
Y221050D01*
X144372Y229878D01*
X144372Y229878D01*
X144869Y230622D01*
X145044Y231500D01*
Y234389D01*
X146217Y234876D01*
X149126Y231966D01*
D02*
G37*
G36*
X255209Y230275D02*
X254850Y229659D01*
X254534Y228974D01*
X254259Y228221D01*
X254027Y227398D01*
X253838Y226506D01*
X253690Y225546D01*
X253521Y223418D01*
X253500Y222250D01*
X250000D01*
X249979Y223418D01*
X249810Y225546D01*
X249662Y226506D01*
X249473Y227398D01*
X249241Y228221D01*
X248966Y228974D01*
X248650Y229659D01*
X248291Y230275D01*
X247891Y230821D01*
X255609D01*
X255209Y230275D01*
D02*
G37*
G36*
X338483Y222000D02*
X338284Y221997D01*
X338095Y221982D01*
X337916Y221957D01*
X337746Y221920D01*
X337586Y221872D01*
X337435Y221814D01*
X337293Y221744D01*
X337161Y221663D01*
X337038Y221571D01*
X336925Y221468D01*
X336218Y222175D01*
X336321Y222288D01*
X336413Y222411D01*
X336494Y222543D01*
X336563Y222685D01*
X336622Y222836D01*
X336670Y222996D01*
X336707Y223166D01*
X336732Y223345D01*
X336747Y223534D01*
X336750Y223732D01*
X338483Y222000D01*
D02*
G37*
G36*
X344087Y222358D02*
X343964Y222214D01*
X343855Y222069D01*
X343761Y221923D01*
X343681Y221776D01*
X343616Y221627D01*
X343565Y221478D01*
X343529Y221327D01*
X343507Y221176D01*
X343500Y221023D01*
X342500D01*
X342493Y221176D01*
X342471Y221327D01*
X342435Y221478D01*
X342384Y221627D01*
X342319Y221776D01*
X342239Y221923D01*
X342145Y222069D01*
X342036Y222214D01*
X341913Y222358D01*
X341775Y222500D01*
X344225D01*
X344087Y222358D01*
D02*
G37*
G36*
X360217Y215462D02*
X359922Y215659D01*
X359452Y215836D01*
X358809Y215991D01*
X357990Y216126D01*
X355831Y216334D01*
X351284Y216490D01*
X349420Y216500D01*
Y221500D01*
X351284Y221510D01*
X358809Y222008D01*
X359452Y222164D01*
X359922Y222341D01*
X360217Y222538D01*
Y215462D01*
D02*
G37*
G36*
X179390Y241458D02*
X179840Y240795D01*
X180102Y240033D01*
X179946Y239250D01*
X180160Y238177D01*
X180767Y237267D01*
X181677Y236660D01*
X182627Y236471D01*
X182749Y236418D01*
X182915Y236415D01*
X183037Y236406D01*
X183143Y236390D01*
X183236Y236371D01*
X183314Y236347D01*
X183379Y236322D01*
X183385Y236319D01*
X186626Y233078D01*
Y225672D01*
X171394Y210440D01*
X170124Y210966D01*
Y223577D01*
X175148Y228602D01*
X175624Y229750D01*
Y238328D01*
X178854Y241558D01*
X179390Y241458D01*
D02*
G37*
G36*
X157750Y226000D02*
X165750Y218000D01*
X165750Y210500D01*
X162500Y207250D01*
X155000Y207250D01*
X154250Y208000D01*
X154250Y223250D01*
X157000Y226000D01*
X157750Y226000D01*
D02*
G37*
G36*
X32369Y240526D02*
X31912Y239187D01*
X31427Y239090D01*
X30517Y238483D01*
X29910Y237573D01*
X29696Y236500D01*
X29910Y235427D01*
X30517Y234517D01*
X31427Y233910D01*
X32500Y233696D01*
X33573Y233910D01*
X33681Y233982D01*
X34951Y233303D01*
Y221010D01*
X35145Y220035D01*
X35698Y219208D01*
X43951Y210955D01*
Y206833D01*
X42778Y206347D01*
X25874Y223251D01*
Y238235D01*
X25398Y239383D01*
X21076Y243706D01*
X21626Y244951D01*
X27944D01*
X32369Y240526D01*
D02*
G37*
G36*
X20266Y207207D02*
X20338Y206832D01*
X20387Y206660D01*
X20445Y206498D01*
X20511Y206347D01*
X20586Y206206D01*
X20670Y206075D01*
X20761Y205955D01*
X20862Y205845D01*
X20230Y205063D01*
X20114Y205168D01*
X19990Y205259D01*
X19858Y205337D01*
X19717Y205402D01*
X19567Y205453D01*
X19410Y205492D01*
X19243Y205516D01*
X19069Y205528D01*
X18886Y205526D01*
X18694Y205511D01*
X20243Y207409D01*
X20266Y207207D01*
D02*
G37*
G36*
X29750Y196525D02*
X29608Y196663D01*
X29464Y196786D01*
X29319Y196895D01*
X29173Y196989D01*
X29026Y197069D01*
X28877Y197134D01*
X28728Y197185D01*
X28577Y197221D01*
X28426Y197243D01*
X28273Y197250D01*
Y198250D01*
X28426Y198257D01*
X28577Y198279D01*
X28728Y198315D01*
X28877Y198366D01*
X29026Y198431D01*
X29173Y198511D01*
X29319Y198605D01*
X29464Y198714D01*
X29608Y198837D01*
X29750Y198975D01*
Y196525D01*
D02*
G37*
G36*
X281425Y192186D02*
X281291Y192314D01*
X281155Y192429D01*
X281016Y192530D01*
X280874Y192618D01*
X280729Y192692D01*
X280581Y192753D01*
X280431Y192800D01*
X280278Y192834D01*
X280122Y192854D01*
X279963Y192861D01*
Y193961D01*
X280122Y193967D01*
X280278Y193988D01*
X280431Y194021D01*
X280581Y194069D01*
X280729Y194130D01*
X280874Y194204D01*
X281016Y194291D01*
X281155Y194393D01*
X281291Y194508D01*
X281425Y194636D01*
Y192186D01*
D02*
G37*
G36*
X208097Y250637D02*
X208538Y250352D01*
X208721Y249017D01*
X202102Y242398D01*
X201626Y241250D01*
Y211000D01*
X202102Y209852D01*
X203626Y208328D01*
Y178557D01*
X202356Y178172D01*
X202283Y178283D01*
X195833Y184733D01*
X194923Y185340D01*
X193850Y185554D01*
X154452D01*
X154086Y186500D01*
X154020Y186824D01*
X154590Y187677D01*
X154610Y187776D01*
X154881Y188747D01*
X155990Y188698D01*
X156000Y188696D01*
X157073Y188910D01*
X157983Y189517D01*
X158590Y190427D01*
X158804Y191500D01*
X158590Y192573D01*
X157983Y193483D01*
X157073Y194090D01*
X156000Y194304D01*
X154927Y194090D01*
X154017Y193483D01*
X153410Y192573D01*
X153390Y192474D01*
X153119Y191503D01*
X152010Y191552D01*
X152000Y191554D01*
X150927Y191340D01*
X150017Y190733D01*
X149410Y189823D01*
X149196Y188750D01*
X149404Y187703D01*
X149409Y187675D01*
X148793Y186313D01*
X148458Y186257D01*
X126304Y208411D01*
Y218589D01*
X129686Y221971D01*
X130956Y221444D01*
Y211000D01*
X131131Y210122D01*
X131628Y209378D01*
X142653Y198353D01*
X143397Y197856D01*
X144275Y197681D01*
X144275Y197681D01*
X166250D01*
X166406Y197490D01*
X166812Y196411D01*
X166419Y195823D01*
X166206Y194750D01*
X166419Y193677D01*
X167027Y192767D01*
X167937Y192160D01*
X169010Y191946D01*
X170083Y192160D01*
X170992Y192767D01*
X171600Y193677D01*
X171813Y194750D01*
X171600Y195823D01*
X171207Y196411D01*
X171613Y197490D01*
X171770Y197681D01*
X177475D01*
X178353Y197856D01*
X179097Y198353D01*
X194372Y213628D01*
X194869Y214372D01*
X195044Y215250D01*
Y238983D01*
X195340Y239427D01*
X195554Y240500D01*
X195483Y240856D01*
X196382Y242126D01*
X198250D01*
X199398Y242602D01*
X206398Y249602D01*
X206398Y249602D01*
X206648Y250205D01*
X207982Y250648D01*
X208097Y250637D01*
D02*
G37*
G36*
X275475Y198491D02*
X275005Y197985D01*
X274584Y197460D01*
X274213Y196914D01*
X273891Y196347D01*
X273619Y195760D01*
X273396Y195152D01*
X273223Y194524D01*
X273099Y193875D01*
X273025Y193206D01*
X273000Y192516D01*
X269500Y191491D01*
X269465Y192156D01*
X269361Y192751D01*
X269187Y193276D01*
X268944Y193731D01*
X268631Y194116D01*
X268249Y194431D01*
X267797Y194676D01*
X267276Y194851D01*
X266685Y194956D01*
X266025Y194991D01*
X267025Y198491D01*
X267715Y198515D01*
X268384Y198590D01*
X269033Y198713D01*
X269661Y198887D01*
X270269Y199109D01*
X270856Y199382D01*
X271423Y199703D01*
X271969Y200075D01*
X272495Y200495D01*
X273000Y200966D01*
X275475Y198491D01*
D02*
G37*
G36*
X30982Y191250D02*
X30784Y191246D01*
X30595Y191232D01*
X30416Y191206D01*
X30246Y191170D01*
X30086Y191122D01*
X29935Y191063D01*
X29793Y190994D01*
X29661Y190913D01*
X29538Y190821D01*
X29425Y190718D01*
X28718Y191425D01*
X28821Y191538D01*
X28913Y191661D01*
X28994Y191793D01*
X29063Y191935D01*
X29122Y192085D01*
X29170Y192246D01*
X29207Y192416D01*
X29232Y192595D01*
X29247Y192784D01*
X29250Y192982D01*
X30982Y191250D01*
D02*
G37*
G36*
X347250Y215431D02*
X349381D01*
X349414Y215418D01*
X351263Y215407D01*
X355760Y215253D01*
X357851Y215053D01*
X358593Y214930D01*
X359133Y214799D01*
X359410Y214695D01*
X359424Y214674D01*
X370924Y203174D01*
X372909Y201848D01*
X375250Y201383D01*
X385966D01*
X386382Y200966D01*
Y185534D01*
X382764Y181915D01*
X377948Y186132D01*
X376646Y187420D01*
X376613Y187434D01*
X371023Y193023D01*
X369866Y193797D01*
X368500Y194069D01*
X351750D01*
X350384Y193797D01*
X349644Y193302D01*
X348384Y193854D01*
X348374Y193865D01*
Y208578D01*
X347898Y209727D01*
X344623Y213001D01*
Y215018D01*
X345884Y215703D01*
X347250Y215431D01*
D02*
G37*
G36*
X308867Y182075D02*
X308577Y182026D01*
X308295Y181958D01*
X308020Y181873D01*
X307753Y181770D01*
X307494Y181650D01*
X307242Y181512D01*
X306998Y181356D01*
X306761Y181183D01*
X306532Y180991D01*
X306311Y180783D01*
X304189Y182904D01*
X304398Y183125D01*
X304589Y183354D01*
X304763Y183591D01*
X304919Y183835D01*
X305057Y184087D01*
X305177Y184347D01*
X305280Y184614D01*
X305365Y184888D01*
X305432Y185170D01*
X305482Y185460D01*
X308867Y182075D01*
D02*
G37*
G36*
X404007Y180324D02*
X404029Y180173D01*
X404065Y180022D01*
X404116Y179873D01*
X404181Y179724D01*
X404261Y179577D01*
X404355Y179431D01*
X404464Y179286D01*
X404587Y179142D01*
X404725Y179000D01*
X402275D01*
X402413Y179142D01*
X402536Y179286D01*
X402645Y179431D01*
X402739Y179577D01*
X402819Y179724D01*
X402884Y179873D01*
X402935Y180022D01*
X402971Y180173D01*
X402993Y180324D01*
X403000Y180477D01*
X404000D01*
X404007Y180324D01*
D02*
G37*
G36*
X32087Y180108D02*
X31964Y179964D01*
X31855Y179819D01*
X31761Y179673D01*
X31681Y179526D01*
X31616Y179377D01*
X31565Y179228D01*
X31529Y179077D01*
X31507Y178926D01*
X31500Y178773D01*
X30500D01*
X30493Y178926D01*
X30471Y179077D01*
X30435Y179228D01*
X30384Y179377D01*
X30319Y179526D01*
X30239Y179673D01*
X30145Y179819D01*
X30036Y179964D01*
X29913Y180108D01*
X29775Y180250D01*
X32225D01*
X32087Y180108D01*
D02*
G37*
G36*
X423007Y179574D02*
X423029Y179423D01*
X423065Y179272D01*
X423116Y179123D01*
X423181Y178974D01*
X423261Y178827D01*
X423355Y178681D01*
X423464Y178536D01*
X423587Y178392D01*
X423725Y178250D01*
X421275D01*
X421413Y178392D01*
X421536Y178536D01*
X421645Y178681D01*
X421739Y178827D01*
X421819Y178974D01*
X421884Y179123D01*
X421935Y179272D01*
X421971Y179423D01*
X421993Y179574D01*
X422000Y179727D01*
X423000D01*
X423007Y179574D01*
D02*
G37*
G36*
X401876Y203078D02*
Y180272D01*
X401874Y180266D01*
X401846Y180201D01*
X401807Y180129D01*
X401756Y180050D01*
X401691Y179964D01*
X401612Y179871D01*
X401496Y179752D01*
X401448Y179629D01*
X400910Y178823D01*
X400696Y177750D01*
X400910Y176677D01*
X401517Y175767D01*
X402427Y175160D01*
X403500Y174946D01*
X404710Y173927D01*
X405318Y173018D01*
X406227Y172410D01*
X407300Y172196D01*
X408373Y172410D01*
X409283Y173018D01*
X409891Y173927D01*
X410080Y174877D01*
X410132Y174998D01*
X410135Y175165D01*
X410145Y175287D01*
X410160Y175393D01*
X410180Y175486D01*
X410203Y175564D01*
X410229Y175629D01*
X410232Y175635D01*
X413148Y178552D01*
X413624Y179700D01*
Y183252D01*
X418703Y188332D01*
X419876Y187845D01*
Y182904D01*
X420352Y181756D01*
X420876Y181231D01*
Y179522D01*
X420874Y179515D01*
X420846Y179451D01*
X420807Y179379D01*
X420756Y179300D01*
X420691Y179214D01*
X420612Y179121D01*
X420496Y179002D01*
X420448Y178879D01*
X419910Y178073D01*
X419789Y177468D01*
X419696Y177000D01*
X418495Y176530D01*
X418250Y176578D01*
X416689Y176268D01*
X415366Y175384D01*
X414482Y174061D01*
X414172Y172500D01*
Y165189D01*
X374616Y125634D01*
X373732Y124311D01*
X373422Y122750D01*
X373422Y122750D01*
Y118308D01*
X337692Y82578D01*
X326250D01*
X326250Y82578D01*
X324689Y82268D01*
X323366Y81384D01*
X323366Y81384D01*
X318811Y76828D01*
X308000D01*
X308000Y76828D01*
X306439Y76518D01*
X305116Y75634D01*
X305116Y75634D01*
X302561Y73078D01*
X290000D01*
X288439Y72768D01*
X287116Y71884D01*
X286232Y70561D01*
X285922Y69000D01*
X286232Y67439D01*
X287116Y66116D01*
X288439Y65232D01*
X290000Y64922D01*
X304250D01*
X304250Y64922D01*
X305811Y65232D01*
X307134Y66116D01*
X309689Y68672D01*
X320500D01*
X320500Y68672D01*
X322061Y68982D01*
X323384Y69866D01*
X327939Y74422D01*
X339382D01*
X339382Y74422D01*
X340455Y74635D01*
X340844Y74190D01*
X341081Y73465D01*
X331405Y63789D01*
X310500D01*
X309720Y63634D01*
X309239Y63313D01*
X309038Y63233D01*
X308341Y62554D01*
X307779Y62047D01*
X307345Y61698D01*
X307207Y61603D01*
X307123Y61554D01*
X303000D01*
X301927Y61340D01*
X301017Y60733D01*
X300410Y59823D01*
X300196Y58750D01*
X300410Y57677D01*
X301017Y56767D01*
X301927Y56160D01*
X303000Y55946D01*
X307500D01*
X308573Y56160D01*
X309483Y56767D01*
X310090Y57677D01*
X310196Y58210D01*
X310211Y58231D01*
X310261Y58278D01*
X310286Y58335D01*
X310297Y58350D01*
X310302Y58370D01*
X310353Y58457D01*
X310434Y58574D01*
X311437Y59711D01*
X332250D01*
X333030Y59866D01*
X333692Y60308D01*
X381595Y108211D01*
X383141D01*
X383238Y108168D01*
X383579Y108160D01*
X383820Y108139D01*
X383885Y108129D01*
X383931Y108119D01*
X383941Y108116D01*
X383976Y108102D01*
X383989Y108102D01*
X383992Y108101D01*
X384001Y108102D01*
X384015Y108102D01*
X384677Y107660D01*
X385750Y107446D01*
X386823Y107660D01*
X387733Y108267D01*
X388340Y109177D01*
X388524Y110101D01*
X388582Y110225D01*
X388585Y110305D01*
X388589Y110333D01*
X388596Y110366D01*
X388610Y110406D01*
X388631Y110454D01*
X388661Y110510D01*
X388703Y110575D01*
X388757Y110648D01*
X388825Y110728D01*
X388926Y110835D01*
X388968Y110945D01*
X390262Y112238D01*
X390648Y112817D01*
X390784Y113500D01*
Y116011D01*
X393080Y118306D01*
X394156Y117587D01*
X393876Y116911D01*
Y114000D01*
X394352Y112852D01*
X396002Y111202D01*
X397150Y110726D01*
X401800D01*
X402948Y111202D01*
X403815Y112069D01*
X403821Y112072D01*
X403887Y112097D01*
X403965Y112121D01*
X404057Y112140D01*
X404164Y112156D01*
X404285Y112165D01*
X404452Y112168D01*
X404573Y112220D01*
X405523Y112410D01*
X406433Y113017D01*
X407040Y113927D01*
X407229Y114877D01*
X407282Y114998D01*
X407285Y115165D01*
X407294Y115287D01*
X407310Y115393D01*
X407329Y115485D01*
X407353Y115563D01*
X407378Y115629D01*
X407381Y115635D01*
X410373Y118626D01*
X419577D01*
X430602Y107602D01*
X431750Y107126D01*
X438577D01*
X439819Y105885D01*
X439822Y105879D01*
X439847Y105813D01*
X439871Y105735D01*
X439891Y105643D01*
X439906Y105536D01*
X439915Y105414D01*
X439918Y105248D01*
X439971Y105127D01*
X440160Y104177D01*
X440768Y103267D01*
X441677Y102659D01*
X442065Y102582D01*
X442788Y102246D01*
X442986Y101202D01*
X442946Y101000D01*
X443085Y100304D01*
X442202Y99299D01*
X429500D01*
X428525Y99105D01*
X427698Y98552D01*
X423944Y94799D01*
X410723D01*
X409970Y95552D01*
X409704Y95730D01*
X409534Y95843D01*
X410030Y97040D01*
X410209Y97004D01*
X410500Y96946D01*
X411573Y97160D01*
X412483Y97767D01*
X413090Y98677D01*
X413304Y99750D01*
X413090Y100823D01*
X412483Y101733D01*
X411573Y102340D01*
X410500Y102554D01*
X409427Y102340D01*
X408517Y101733D01*
X407910Y100823D01*
X407696Y99750D01*
X407910Y98677D01*
X408517Y97767D01*
X408865Y97535D01*
X409036Y97421D01*
X408540Y96225D01*
X408361Y96260D01*
X408167Y96299D01*
X390000D01*
X389025Y96105D01*
X388198Y95552D01*
X356069Y63424D01*
X354799Y63950D01*
Y72032D01*
X382718Y99951D01*
X401250D01*
X402225Y100145D01*
X403052Y100698D01*
X407306Y104951D01*
X410250D01*
X411226Y105145D01*
X412052Y105698D01*
X418000Y111645D01*
X418073Y111660D01*
X418983Y112267D01*
X419590Y113177D01*
X419804Y114250D01*
X419590Y115323D01*
X418983Y116233D01*
X418073Y116840D01*
X417000Y117054D01*
X415927Y116840D01*
X415017Y116233D01*
X414410Y115323D01*
X414395Y115250D01*
X409194Y110049D01*
X406250D01*
X405275Y109855D01*
X404448Y109302D01*
X400194Y105049D01*
X381662D01*
X380687Y104855D01*
X379860Y104302D01*
X350448Y74890D01*
X349895Y74063D01*
X349701Y73088D01*
Y48385D01*
X349660Y48323D01*
X349446Y47250D01*
X349660Y46177D01*
X350267Y45267D01*
X351177Y44660D01*
X352250Y44446D01*
X353323Y44660D01*
X354233Y45267D01*
X354767D01*
X355677Y44660D01*
X356750Y44446D01*
X357823Y44660D01*
X358733Y45267D01*
X359340Y46177D01*
X359554Y47250D01*
X359340Y48323D01*
X359299Y48385D01*
Y59444D01*
X391056Y91201D01*
X392381D01*
X392758Y90437D01*
X392826Y89931D01*
X363948Y61052D01*
X363395Y60226D01*
X363201Y59250D01*
Y36943D01*
X362218Y36268D01*
X361931Y36197D01*
X361000Y36382D01*
X359927Y36169D01*
X359017Y35561D01*
X358988Y35516D01*
X357483Y35483D01*
X356573Y36090D01*
X355500Y36304D01*
X354427Y36090D01*
X353621Y35552D01*
X353498Y35504D01*
X353379Y35388D01*
X353286Y35309D01*
X353200Y35244D01*
X353121Y35193D01*
X353049Y35154D01*
X352985Y35126D01*
X352978Y35124D01*
X339750D01*
X338602Y34648D01*
X337327Y33374D01*
X308969D01*
X308290Y34644D01*
X308325Y34696D01*
X332750D01*
X333823Y34910D01*
X334733Y35517D01*
X335340Y36427D01*
X335554Y37500D01*
X335340Y38573D01*
X334733Y39483D01*
X333823Y40090D01*
X332750Y40304D01*
X306000D01*
X304927Y40090D01*
X304017Y39483D01*
X290655Y26120D01*
X289257Y26374D01*
X288850Y27215D01*
X289057Y27627D01*
X289090Y27677D01*
X289304Y28750D01*
X289090Y29823D01*
X288483Y30733D01*
X287573Y31340D01*
X286500Y31554D01*
X286074Y31469D01*
X284804Y32335D01*
Y54500D01*
X284590Y55573D01*
X283983Y56483D01*
X280304Y60161D01*
Y68361D01*
X280090Y69434D01*
X279483Y70343D01*
X278332Y71494D01*
X278818Y72668D01*
X284000D01*
X284064Y72694D01*
X285366Y72953D01*
X286523Y73727D01*
X293728Y80931D01*
X319250D01*
X320616Y81203D01*
X321773Y81977D01*
X330273Y90477D01*
X331047Y91634D01*
X331319Y93000D01*
Y101522D01*
X335217Y105420D01*
X347239D01*
X348604Y105692D01*
X349762Y106465D01*
X369023Y125727D01*
X369797Y126884D01*
X370069Y128250D01*
Y134957D01*
X372440Y137225D01*
X374220Y138746D01*
X374944Y139298D01*
X375562Y139719D01*
X376051Y139998D01*
X376378Y140136D01*
X376664Y140192D01*
X376712Y140224D01*
X378591Y140598D01*
X380576Y141924D01*
X381902Y143909D01*
X382368Y146250D01*
Y154966D01*
X388576Y161174D01*
X389902Y163159D01*
X390368Y165500D01*
Y172216D01*
X396826Y178674D01*
X398152Y180659D01*
X398618Y183000D01*
Y203500D01*
X398359Y204799D01*
X399530Y205424D01*
X401876Y203078D01*
D02*
G37*
G36*
X409582Y176575D02*
X409479Y176462D01*
X409387Y176339D01*
X409307Y176207D01*
X409237Y176066D01*
X409178Y175914D01*
X409130Y175754D01*
X409094Y175584D01*
X409068Y175405D01*
X409054Y175216D01*
X409050Y175018D01*
X407318Y176750D01*
X407516Y176754D01*
X407705Y176768D01*
X407884Y176794D01*
X408054Y176830D01*
X408215Y176878D01*
X408366Y176937D01*
X408507Y177006D01*
X408639Y177087D01*
X408762Y177179D01*
X408875Y177282D01*
X409582Y176575D01*
D02*
G37*
G36*
X377211Y185340D02*
X382883Y180371D01*
X383448Y180026D01*
X383905Y179819D01*
X384253Y179750D01*
X379250Y174747D01*
X379181Y175095D01*
X378974Y175551D01*
X378629Y176117D01*
X378145Y176791D01*
X376765Y178464D01*
X373660Y181789D01*
X372349Y183115D01*
X375885Y186651D01*
X377211Y185340D01*
D02*
G37*
G36*
X341365Y172205D02*
X341232Y172334D01*
X341095Y172448D01*
X340956Y172550D01*
X340814Y172637D01*
X340669Y172712D01*
X340522Y172772D01*
X340371Y172820D01*
X340218Y172853D01*
X340062Y172874D01*
X339904Y172880D01*
Y173980D01*
X340062Y173987D01*
X340218Y174007D01*
X340371Y174041D01*
X340522Y174088D01*
X340669Y174149D01*
X340814Y174223D01*
X340956Y174311D01*
X341095Y174412D01*
X341232Y174527D01*
X341365Y174655D01*
Y172205D01*
D02*
G37*
G36*
X240424Y233424D02*
X242409Y232098D01*
X244750Y231632D01*
X245466D01*
X247293Y229805D01*
X247385Y229681D01*
X247689Y229158D01*
X247965Y228561D01*
X248210Y227888D01*
X248421Y227138D01*
X248597Y226311D01*
X248734Y225421D01*
X248897Y223365D01*
X248918Y222230D01*
X248977Y222094D01*
X249160Y221177D01*
X249767Y220267D01*
X258317Y211717D01*
X259227Y211110D01*
X260300Y210896D01*
X261983D01*
X262662Y209626D01*
X262460Y209323D01*
X262246Y208250D01*
X262460Y207177D01*
X263067Y206267D01*
X263977Y205660D01*
X265050Y205446D01*
X266123Y205660D01*
X267033Y206267D01*
X267640Y207177D01*
X267854Y208250D01*
X267640Y209323D01*
X267438Y209626D01*
X267613Y210240D01*
X268071Y210950D01*
X268873Y211110D01*
X269783Y211717D01*
X270390Y212627D01*
X270604Y213700D01*
X270390Y214773D01*
X269783Y215683D01*
X268873Y216290D01*
X267800Y216504D01*
X261461D01*
X254603Y223363D01*
X254603Y223365D01*
X254766Y225421D01*
X254903Y226311D01*
X255077Y227132D01*
X279122D01*
X280018Y225862D01*
X279946Y225500D01*
X280159Y224427D01*
X280767Y223517D01*
X281677Y222910D01*
X282750Y222696D01*
X283823Y222910D01*
X284733Y223517D01*
X284974Y223879D01*
X285432Y223831D01*
X286246Y223497D01*
X286410Y222677D01*
X287017Y221767D01*
X287927Y221160D01*
X289000Y220946D01*
X290073Y221160D01*
X290983Y221767D01*
X291590Y222677D01*
X291804Y223750D01*
X292889Y224804D01*
X293750Y224632D01*
X306000D01*
X308341Y225098D01*
X310326Y226424D01*
X314784Y230882D01*
X348216D01*
X354986Y224113D01*
X354495Y222808D01*
X351245Y222593D01*
X349414Y222582D01*
X349381Y222569D01*
X347250D01*
X346848Y222489D01*
X345768Y223569D01*
X345804Y223750D01*
X345590Y224823D01*
X344983Y225733D01*
X344073Y226340D01*
X343000Y226554D01*
X341927Y226340D01*
X341017Y225733D01*
X340483D01*
X339573Y226340D01*
X338500Y226554D01*
X337427Y226340D01*
X336517Y225733D01*
X335910Y224823D01*
X335720Y223873D01*
X335668Y223752D01*
X335665Y223585D01*
X335656Y223463D01*
X335640Y223357D01*
X335620Y223265D01*
X335597Y223186D01*
X335572Y223121D01*
X335569Y223115D01*
X333852Y221398D01*
X333376Y220250D01*
Y217500D01*
X333852Y216352D01*
X343126Y207078D01*
Y188243D01*
X343602Y187094D01*
X344876Y185820D01*
Y176754D01*
X343718Y176039D01*
X343606Y176037D01*
X342615Y176234D01*
X342089Y176760D01*
X341876Y177833D01*
X341268Y178743D01*
X340358Y179351D01*
X339895Y179443D01*
Y180738D01*
X340358Y180830D01*
X341268Y181438D01*
X341876Y182348D01*
X342089Y183421D01*
X341876Y184494D01*
X341268Y185403D01*
X340358Y186011D01*
X339285Y186224D01*
X338212Y186011D01*
X337303Y185403D01*
X336695Y184494D01*
X336603Y184030D01*
X335308D01*
X335215Y184493D01*
X334608Y185403D01*
X333698Y186011D01*
X333282Y186094D01*
X333235Y186103D01*
Y187398D01*
X333282Y187407D01*
X333698Y187490D01*
X334608Y188098D01*
X335215Y189007D01*
X335429Y190081D01*
X335215Y191154D01*
X334608Y192063D01*
X333698Y192671D01*
X332625Y192884D01*
X331552Y192671D01*
X330643Y192063D01*
X330035Y191154D01*
X329821Y190081D01*
X330035Y189007D01*
X330643Y188098D01*
X331552Y187490D01*
X331969Y187407D01*
X332015Y187398D01*
Y186103D01*
X331969Y186094D01*
X331552Y186011D01*
X330643Y185403D01*
X330035Y184493D01*
X329821Y183421D01*
X329295Y182894D01*
X328222Y182681D01*
X327313Y182073D01*
X326705Y181163D01*
X326491Y180090D01*
X326705Y179017D01*
X327313Y178108D01*
X328222Y177500D01*
X328685Y177408D01*
Y176113D01*
X328222Y176021D01*
X327313Y175413D01*
X326705Y174503D01*
X326491Y173430D01*
X326705Y172357D01*
X327313Y171448D01*
X328222Y170840D01*
X329295Y170627D01*
X329948Y169462D01*
X330035Y169027D01*
X330643Y168118D01*
X331552Y167510D01*
X332625Y167297D01*
X333151Y166770D01*
X333365Y165697D01*
X333973Y164788D01*
X334882Y164180D01*
X335345Y164088D01*
Y162793D01*
X334882Y162701D01*
X333973Y162093D01*
X333365Y161183D01*
X333151Y160110D01*
X333365Y159037D01*
X333973Y158128D01*
X334319Y157896D01*
X334599Y156380D01*
X331602Y153383D01*
X331126Y152235D01*
Y149500D01*
X331602Y148352D01*
X332461Y147493D01*
X332015Y146143D01*
X331552Y146051D01*
X330643Y145443D01*
X330035Y144533D01*
X329821Y143460D01*
X329295Y142934D01*
X328222Y142721D01*
X327313Y142113D01*
X326705Y141203D01*
X326491Y140130D01*
X326705Y139057D01*
X327313Y138148D01*
X328222Y137540D01*
X329295Y137326D01*
X330368Y137540D01*
X331278Y138148D01*
X331300Y138181D01*
X331385Y138218D01*
X331496Y138335D01*
X331579Y138413D01*
X331657Y138476D01*
X331728Y138524D01*
X331791Y138561D01*
X331847Y138587D01*
X335960D01*
X337108Y139062D01*
X338898Y140852D01*
X339374Y142000D01*
Y144500D01*
X338898Y145648D01*
X334374Y150173D01*
Y151563D01*
X341203Y158392D01*
X342376Y157906D01*
Y157343D01*
X342852Y156195D01*
X352195Y146852D01*
X353343Y146376D01*
X354478D01*
X354484Y146374D01*
X354549Y146346D01*
X354621Y146307D01*
X354700Y146256D01*
X354786Y146191D01*
X354879Y146112D01*
X354998Y145996D01*
X355121Y145948D01*
X355927Y145410D01*
X357000Y145196D01*
X358073Y145410D01*
X358983Y146017D01*
X359590Y146927D01*
X359804Y148000D01*
X359590Y149073D01*
X358983Y149983D01*
X358073Y150590D01*
X357000Y150804D01*
X355927Y150590D01*
X355121Y150052D01*
X354998Y150004D01*
X354879Y149888D01*
X354786Y149809D01*
X354700Y149744D01*
X354621Y149693D01*
X354549Y149654D01*
X354484Y149626D01*
X354478Y149624D01*
X354016D01*
X349381Y154258D01*
X349867Y155431D01*
X370132D01*
Y146370D01*
X369998Y146051D01*
X369719Y145562D01*
X369319Y144976D01*
X365166Y140249D01*
X363962Y139028D01*
X363934Y138959D01*
X363203Y137866D01*
X362931Y136500D01*
Y129728D01*
X345760Y112557D01*
X333739D01*
X332373Y112285D01*
X331215Y111512D01*
X325227Y105523D01*
X324453Y104366D01*
X324181Y103000D01*
Y94478D01*
X317772Y88069D01*
X292250D01*
X290884Y87797D01*
X289727Y87023D01*
X282536Y79832D01*
X279000D01*
X279000Y79833D01*
X278235Y79515D01*
X278235Y79515D01*
X277302Y78582D01*
X275750D01*
X275574Y78509D01*
X274304Y79244D01*
Y79750D01*
X274090Y80823D01*
X273483Y81733D01*
X269967Y85248D01*
X270453Y86422D01*
X278500D01*
X278500Y86422D01*
X280061Y86732D01*
X281384Y87616D01*
X284939Y91172D01*
X305867D01*
X305867Y91172D01*
X307427Y91482D01*
X308750Y92366D01*
X320134Y103749D01*
X320134Y103750D01*
X321018Y105073D01*
X321328Y106633D01*
Y176250D01*
X321328Y176250D01*
X321018Y177811D01*
X320134Y179134D01*
X320134Y179134D01*
X312328Y186939D01*
Y198293D01*
X313598Y198678D01*
X313992Y198088D01*
X314902Y197480D01*
X315975Y197267D01*
X317048Y197480D01*
X317958Y198088D01*
X318565Y198998D01*
X318779Y200071D01*
X319305Y200597D01*
X320378Y200810D01*
X321288Y201418D01*
X321895Y202328D01*
X322109Y203401D01*
X321895Y204474D01*
X321288Y205383D01*
X320378Y205991D01*
X319305Y206205D01*
X318232Y205991D01*
X317322Y205383D01*
X316715Y204474D01*
X316501Y203401D01*
X315975Y202875D01*
X314902Y202661D01*
X313992Y202053D01*
X313598Y201464D01*
X312328Y201848D01*
Y214311D01*
X315489Y217472D01*
X318437D01*
X334366Y201542D01*
X335689Y200658D01*
X337250Y200348D01*
X338811Y200658D01*
X340134Y201542D01*
X341018Y202865D01*
X341328Y204426D01*
X341018Y205987D01*
X340134Y207310D01*
X323010Y224434D01*
X321687Y225318D01*
X320126Y225628D01*
X320126Y225628D01*
X313800D01*
X312239Y225318D01*
X310916Y224434D01*
X310916Y224434D01*
X305366Y218884D01*
X304482Y217561D01*
X304172Y216000D01*
X304172Y216000D01*
Y186000D01*
X304329Y185210D01*
X304320Y185174D01*
X304257Y184969D01*
X304180Y184769D01*
X304090Y184576D01*
X303987Y184387D01*
X303869Y184203D01*
X303736Y184022D01*
X303588Y183844D01*
X303402Y183647D01*
X303341Y183486D01*
X302895Y182819D01*
X302874Y182711D01*
X300207Y180044D01*
X280700D01*
X278622Y182122D01*
X277878Y182619D01*
X277000Y182794D01*
X270069D01*
X269944Y184064D01*
X270428Y184160D01*
X271337Y184768D01*
X273233Y186663D01*
X273840Y187573D01*
X274054Y188646D01*
Y192416D01*
X274082Y192477D01*
X274105Y193127D01*
X274170Y193714D01*
X274278Y194278D01*
X274428Y194821D01*
X274620Y195345D01*
X274854Y195851D01*
X275133Y196341D01*
X275320Y196617D01*
X276012Y196554D01*
X276637Y196260D01*
X276754Y195668D01*
X277362Y194758D01*
X278272Y194150D01*
X278735Y194058D01*
Y192763D01*
X278272Y192671D01*
X277362Y192063D01*
X276754Y191154D01*
X276541Y190081D01*
X276754Y189008D01*
X277362Y188098D01*
X278272Y187490D01*
X278706Y187404D01*
X279871Y186751D01*
X280084Y185678D01*
X280692Y184768D01*
X281602Y184160D01*
X282675Y183947D01*
X283748Y184160D01*
X284657Y184768D01*
X285265Y185678D01*
X285357Y186141D01*
X286652D01*
X286744Y185678D01*
X287352Y184768D01*
X288262Y184160D01*
X289335Y183947D01*
X290408Y184160D01*
X291318Y184768D01*
X291876Y185604D01*
X291983Y185703D01*
X293309Y186126D01*
X293655Y185895D01*
X294631Y185701D01*
X297750D01*
X298725Y185895D01*
X299552Y186448D01*
X302052Y188948D01*
X302605Y189774D01*
X302799Y190750D01*
Y203000D01*
X302605Y203975D01*
X302052Y204802D01*
X295302Y211552D01*
X294475Y212105D01*
X293500Y212299D01*
X286306D01*
X276052Y222552D01*
X275226Y223105D01*
X274250Y223299D01*
X264635D01*
X264573Y223340D01*
X263500Y223554D01*
X262427Y223340D01*
X261517Y222733D01*
X260910Y221823D01*
X260696Y220750D01*
X260910Y219677D01*
X261517Y218767D01*
X262427Y218160D01*
X263500Y217946D01*
X264573Y218160D01*
X264635Y218201D01*
X273194D01*
X283448Y207948D01*
X284190Y207451D01*
X284288Y207335D01*
X284575Y206040D01*
X282839Y204304D01*
X276009D01*
X274936Y204090D01*
X274027Y203483D01*
X272325Y201781D01*
X272262Y201758D01*
X271787Y201315D01*
X271326Y200946D01*
X270851Y200623D01*
X270361Y200345D01*
X269854Y200110D01*
X269330Y199918D01*
X268787Y199769D01*
X268223Y199661D01*
X267636Y199596D01*
X266986Y199572D01*
X266925Y199545D01*
X266025D01*
X264952Y199331D01*
X264042Y198723D01*
X263434Y197814D01*
X263310Y197187D01*
X262117Y196691D01*
X262014Y196686D01*
X258828Y199872D01*
X258084Y200369D01*
X257206Y200544D01*
X256700D01*
X249372Y207872D01*
X248628Y208369D01*
X247750Y208544D01*
X247017D01*
X246573Y208840D01*
X245500Y209054D01*
X244427Y208840D01*
X243517Y208233D01*
X242910Y207323D01*
X242696Y206250D01*
X242910Y205177D01*
X243517Y204267D01*
X244427Y203660D01*
X245500Y203446D01*
X246573Y203660D01*
X246887Y203869D01*
X254128Y196628D01*
X254872Y196131D01*
X255750Y195956D01*
X256255D01*
X258335Y193876D01*
X257964Y192452D01*
X257382Y192063D01*
X256774Y191154D01*
X256688Y190720D01*
X256035Y189555D01*
X254962Y189341D01*
X254052Y188733D01*
X253444Y187824D01*
X253361Y187407D01*
X253352Y187360D01*
X252057D01*
X252048Y187407D01*
X251965Y187824D01*
X251357Y188733D01*
X250448Y189341D01*
X249375Y189555D01*
X248302Y189341D01*
X247392Y188733D01*
X246784Y187824D01*
X246571Y186751D01*
X246784Y185678D01*
X247392Y184768D01*
X248302Y184160D01*
X249375Y183947D01*
X250448Y184160D01*
X251357Y184768D01*
X251965Y185678D01*
X252048Y186094D01*
X252057Y186141D01*
X253352D01*
X253361Y186094D01*
X253444Y185678D01*
X254052Y184768D01*
X254962Y184160D01*
X256035Y183947D01*
X257108Y184160D01*
X258017Y184768D01*
X258625Y185678D01*
X258711Y186112D01*
X258842Y186344D01*
X259215Y186391D01*
X260401Y185555D01*
X260575Y184677D01*
X261073Y183933D01*
X266128Y178878D01*
X266872Y178381D01*
X267750Y178206D01*
X267750Y178206D01*
X276050D01*
X278128Y176128D01*
X278872Y175631D01*
X279750Y175456D01*
X279750Y175456D01*
X300250D01*
X300251Y175456D01*
X301157D01*
X302035Y175631D01*
X302779Y176128D01*
X306118Y179467D01*
X306225Y179488D01*
X306892Y179934D01*
X307053Y179995D01*
X307251Y180182D01*
X307414Y180318D01*
X313172Y174561D01*
Y108323D01*
X304177Y99328D01*
X283250D01*
X281689Y99018D01*
X280366Y98134D01*
X280366Y98134D01*
X276811Y94578D01*
X263439D01*
X261761Y96257D01*
X262386Y97428D01*
X262695Y97366D01*
X263768Y97580D01*
X264677Y98187D01*
X265285Y99097D01*
X265368Y99514D01*
X265377Y99560D01*
X266672D01*
X266681Y99514D01*
X266764Y99097D01*
X267372Y98187D01*
X268282Y97580D01*
X269355Y97366D01*
X270428Y97580D01*
X271337Y98187D01*
X271945Y99097D01*
X272159Y100170D01*
X271945Y101243D01*
X271337Y102153D01*
X270428Y102760D01*
X269355Y102974D01*
X268282Y102760D01*
X267372Y102153D01*
X266764Y101243D01*
X266681Y100827D01*
X266672Y100780D01*
X265377D01*
X265368Y100826D01*
X265285Y101243D01*
X264677Y102153D01*
X263768Y102760D01*
X262695Y102974D01*
X261622Y102760D01*
X261348Y102578D01*
X260078Y103257D01*
Y110561D01*
X261634Y112116D01*
X262518Y113439D01*
X262828Y115000D01*
X262828Y115000D01*
Y125750D01*
X262518Y127311D01*
X261634Y128634D01*
X261634Y128634D01*
X257134Y133134D01*
X255811Y134018D01*
X255650Y134050D01*
X255479Y134298D01*
X255111Y135452D01*
X255295Y135727D01*
X255508Y136800D01*
X255295Y137873D01*
X254687Y138783D01*
X253778Y139391D01*
X252705Y139604D01*
X251632Y139391D01*
X250722Y138783D01*
X250114Y137873D01*
X249901Y136800D01*
X250114Y135727D01*
X250200Y135598D01*
X249522Y134328D01*
X240689D01*
X237134Y137884D01*
X235811Y138768D01*
X234250Y139078D01*
X234250Y139078D01*
X216250D01*
X216250Y139078D01*
X214689Y138768D01*
X213366Y137884D01*
X213366Y137884D01*
X207116Y131634D01*
X206232Y130311D01*
X205922Y128750D01*
X205922Y128750D01*
Y88750D01*
X205922Y88750D01*
X206232Y87189D01*
X207116Y85866D01*
X222356Y70626D01*
X222315Y67461D01*
X222129Y64206D01*
X222045Y63512D01*
X221955Y63012D01*
X221909Y62850D01*
X219218Y60159D01*
X217841Y60573D01*
X217233Y61483D01*
X216323Y62090D01*
X215250Y62304D01*
X214177Y62090D01*
X213268Y61483D01*
X212983D01*
X212073Y62090D01*
X211000Y62304D01*
X209927Y62090D01*
X209018Y61483D01*
X208410Y60573D01*
X208196Y59500D01*
X208410Y58427D01*
X209018Y57517D01*
X209667Y57083D01*
X209160Y56323D01*
X208946Y55250D01*
X209018Y54888D01*
X208122Y53618D01*
X194250D01*
X191909Y53152D01*
X189924Y51826D01*
X186413Y48314D01*
X185242Y48940D01*
X185304Y49250D01*
X185091Y50323D01*
X184483Y51233D01*
X183573Y51840D01*
X182500Y52054D01*
X181427Y51840D01*
X181377Y51807D01*
X180398Y51316D01*
X179374Y52033D01*
X179615Y52952D01*
X179829Y54025D01*
X179615Y55098D01*
X179008Y56008D01*
X178098Y56616D01*
X177025Y56829D01*
X175952Y56616D01*
X175042Y56008D01*
X174435Y55098D01*
X174221Y54025D01*
X174435Y52952D01*
X175042Y52042D01*
X175952Y51435D01*
X175660Y50323D01*
X175446Y49250D01*
X175516Y48899D01*
X175325Y48608D01*
X174420Y47921D01*
X173750Y48054D01*
X172677Y47840D01*
X171767Y47233D01*
X171160Y46323D01*
X170988Y45460D01*
X170339Y45096D01*
X169713Y44938D01*
X166868Y47784D01*
Y52250D01*
X166402Y54591D01*
X165076Y56576D01*
X164869Y56783D01*
X165355Y57956D01*
X171500D01*
X172378Y58131D01*
X173122Y58628D01*
X177050Y62555D01*
X177573Y62660D01*
X178483Y63267D01*
X179090Y64177D01*
X179304Y65250D01*
X179090Y66323D01*
X178483Y67233D01*
X177573Y67840D01*
X176500Y68054D01*
X175427Y67840D01*
X174590Y67281D01*
X174284Y67273D01*
X173206Y67556D01*
X173015Y68015D01*
X173015Y68015D01*
X169265Y71765D01*
X169265Y71765D01*
X169054Y71853D01*
X154704Y86204D01*
X153463Y87032D01*
X152000Y87323D01*
X138737D01*
X138548Y88276D01*
X138082Y88973D01*
Y89151D01*
X138323Y90363D01*
X138032Y91826D01*
X137204Y93066D01*
X131566Y98704D01*
X130326Y99532D01*
X128863Y99823D01*
X123732D01*
X123372Y100685D01*
X123284Y101093D01*
X123841Y101927D01*
X124500Y102946D01*
X125573Y103160D01*
X126483Y103767D01*
X127090Y104677D01*
X127304Y105750D01*
X127090Y106823D01*
X126483Y107733D01*
X125573Y108340D01*
X124500Y108554D01*
X123427Y108340D01*
X122517Y107733D01*
X121910Y106823D01*
X121250Y105804D01*
X120177Y105590D01*
X119268Y104983D01*
X118660Y104073D01*
X118446Y103000D01*
X118660Y101927D01*
X119268Y101017D01*
X119832Y100640D01*
X119834Y100635D01*
X119887Y99417D01*
X119832Y99229D01*
X119046Y98704D01*
X117666Y97323D01*
X116655D01*
X110025Y103954D01*
X108784Y104782D01*
X107321Y105073D01*
X90000D01*
X88537Y104782D01*
X87296Y103954D01*
X86468Y102713D01*
X86177Y101250D01*
X86462Y99814D01*
X86467Y99786D01*
X85771Y98544D01*
X83750D01*
X83750Y98544D01*
X82872Y98369D01*
X82128Y97872D01*
X82128Y97872D01*
X79300Y95044D01*
X61700D01*
X58622Y98122D01*
X57878Y98619D01*
X57000Y98794D01*
X31750D01*
X30872Y98619D01*
X30128Y98122D01*
X25550Y93544D01*
X21706D01*
X18772Y96477D01*
Y102778D01*
X27200Y111206D01*
X55689D01*
X64948Y101948D01*
X65775Y101395D01*
X66750Y101201D01*
X73500D01*
X74475Y101395D01*
X75302Y101948D01*
X79802Y106448D01*
X80355Y107275D01*
X80549Y108250D01*
Y118500D01*
X80355Y119475D01*
X79802Y120302D01*
X74799Y125306D01*
Y145684D01*
X77802Y148687D01*
X78355Y149514D01*
X78549Y150490D01*
Y154250D01*
X78355Y155225D01*
X77802Y156052D01*
X63299Y170556D01*
Y173000D01*
X63105Y173975D01*
X62552Y174802D01*
X60630Y176725D01*
X60974Y178177D01*
X61483Y178517D01*
X62090Y179427D01*
X62304Y180500D01*
X62090Y181573D01*
X61483Y182483D01*
Y182933D01*
X61983Y183267D01*
X62590Y184177D01*
X62804Y185250D01*
X62590Y186323D01*
X61983Y187233D01*
X61073Y187840D01*
X60000Y188054D01*
X58927Y187840D01*
X58017Y187233D01*
X57410Y186323D01*
X57196Y185250D01*
X57410Y184177D01*
X58017Y183267D01*
Y182817D01*
X57517Y182483D01*
X57177Y181974D01*
X55725Y181630D01*
X51299Y186056D01*
Y188250D01*
X51105Y189226D01*
X50552Y190052D01*
X49049Y191556D01*
Y204859D01*
X50319Y205385D01*
X64876Y190828D01*
Y172078D01*
X65352Y170930D01*
X81000Y155282D01*
Y145673D01*
X81475Y144524D01*
X82154Y143846D01*
X81373Y142840D01*
X80300Y143054D01*
X79227Y142840D01*
X78317Y142233D01*
X77710Y141323D01*
X77496Y140250D01*
X77710Y139177D01*
X78317Y138267D01*
X79227Y137660D01*
X80300Y137446D01*
X81373Y137660D01*
X82283Y138267D01*
X82891Y139177D01*
X83104Y140250D01*
X82891Y141323D01*
X83896Y142104D01*
X86626Y139374D01*
Y134997D01*
X85356Y134318D01*
X85323Y134340D01*
X84250Y134554D01*
X83177Y134340D01*
X82267Y133733D01*
X81660Y132823D01*
X81446Y131750D01*
X81660Y130677D01*
X82267Y129767D01*
X83177Y129159D01*
X84250Y128946D01*
X85323Y129159D01*
X85356Y129182D01*
X86626Y128503D01*
Y119423D01*
X82352Y115148D01*
X81876Y114000D01*
Y105673D01*
X76077Y99874D01*
X64094D01*
X55320Y108648D01*
X54172Y109124D01*
X41328D01*
X40180Y108648D01*
X36156Y104624D01*
X27750D01*
X26602Y104148D01*
X23885Y101431D01*
X23879Y101428D01*
X23813Y101403D01*
X23735Y101379D01*
X23643Y101360D01*
X23537Y101344D01*
X23415Y101335D01*
X23248Y101332D01*
X23127Y101279D01*
X22177Y101090D01*
X21267Y100483D01*
X20660Y99573D01*
X20446Y98500D01*
X20660Y97427D01*
X21267Y96517D01*
X22177Y95910D01*
X23250Y95696D01*
X24323Y95910D01*
X25233Y96517D01*
X25840Y97427D01*
X26030Y98377D01*
X26082Y98498D01*
X26085Y98665D01*
X26095Y98787D01*
X26110Y98893D01*
X26130Y98986D01*
X26153Y99064D01*
X26178Y99129D01*
X26181Y99135D01*
X28423Y101376D01*
X36828D01*
X37977Y101852D01*
X42001Y105876D01*
X53499D01*
X62274Y97102D01*
X63422Y96626D01*
X76750D01*
X77898Y97102D01*
X84648Y103852D01*
X85124Y105000D01*
Y113328D01*
X89398Y117602D01*
X89874Y118750D01*
Y140046D01*
X89398Y141194D01*
X84247Y146345D01*
Y155955D01*
X83772Y157103D01*
X68124Y172751D01*
Y191500D01*
X67648Y192648D01*
X52374Y207922D01*
Y215500D01*
X51898Y216648D01*
X43124Y225422D01*
Y228204D01*
X43203Y228276D01*
X44394Y228766D01*
X44927Y228410D01*
X46000Y228196D01*
X47073Y228410D01*
X47983Y229017D01*
X48590Y229927D01*
X48755Y230753D01*
X49618Y231112D01*
X50034Y231170D01*
X50102Y231102D01*
X51250Y230626D01*
X92836D01*
X93187Y230177D01*
X93617Y229356D01*
X93446Y228500D01*
X93660Y227427D01*
X93809Y227204D01*
X94167Y226250D01*
X93809Y225296D01*
X93660Y225073D01*
X93446Y224000D01*
X93660Y222927D01*
X94267Y222017D01*
X95177Y221410D01*
X96250Y221196D01*
X97323Y221410D01*
X98233Y222017D01*
X98840Y222927D01*
X99054Y224000D01*
X98840Y225073D01*
X98691Y225296D01*
X98333Y226250D01*
X98691Y227204D01*
X98840Y227427D01*
X99054Y228500D01*
X98883Y229356D01*
X99313Y230177D01*
X99664Y230626D01*
X106170D01*
X106849Y229356D01*
X106660Y229073D01*
X106446Y228000D01*
X106660Y226927D01*
X107267Y226017D01*
X108177Y225410D01*
X109250Y225196D01*
X110323Y225410D01*
X111233Y226017D01*
X111840Y226927D01*
X112054Y228000D01*
X111840Y229073D01*
X111651Y229356D01*
X112330Y230626D01*
X118586D01*
X119112Y229356D01*
X97878Y208122D01*
X97381Y207378D01*
X97206Y206500D01*
Y167267D01*
X96910Y166823D01*
X96696Y165750D01*
X96910Y164677D01*
X97517Y163767D01*
X98427Y163160D01*
X99500Y162946D01*
X100573Y163160D01*
X101483Y163767D01*
X102090Y164677D01*
X102304Y165750D01*
X102090Y166823D01*
X101794Y167267D01*
Y205550D01*
X113626Y217382D01*
X114797Y216757D01*
X114696Y216250D01*
X114910Y215177D01*
X115517Y214267D01*
X116427Y213660D01*
X117500Y213446D01*
X118573Y213660D01*
X119426Y214230D01*
X119750Y214164D01*
X120696Y213797D01*
Y207250D01*
X120910Y206177D01*
X121517Y205267D01*
X146017Y180767D01*
X146927Y180160D01*
X148000Y179946D01*
X192689D01*
X198317Y174317D01*
X198619Y174116D01*
X198882Y172582D01*
X196424Y170124D01*
X150164D01*
X149582Y171207D01*
X149599Y171384D01*
X149720Y171858D01*
X150100Y172427D01*
X150313Y173500D01*
X150100Y174573D01*
X149492Y175483D01*
X148582Y176090D01*
X147509Y176304D01*
X146437Y176090D01*
X145814Y175674D01*
X144818Y176027D01*
X144544Y176237D01*
Y177000D01*
X144369Y177878D01*
X143872Y178622D01*
X115872Y206622D01*
X115128Y207120D01*
X114250Y207294D01*
X111641D01*
X110823Y207840D01*
X109750Y208054D01*
X108677Y207840D01*
X107767Y207233D01*
X107160Y206323D01*
X106946Y205250D01*
X107160Y204177D01*
X107767Y203267D01*
X108677Y202660D01*
X109750Y202446D01*
X110823Y202660D01*
X110892Y202706D01*
X113300D01*
X139956Y176050D01*
Y171700D01*
X138686Y171021D01*
X138582Y171090D01*
X137509Y171304D01*
X136437Y171090D01*
X135527Y170483D01*
X134919Y169573D01*
X134706Y168500D01*
X134919Y167427D01*
X135527Y166517D01*
X136437Y165910D01*
X137509Y165696D01*
X138582Y165910D01*
X139204Y166325D01*
X140031Y166415D01*
X140848Y166261D01*
X144230Y162878D01*
X144975Y162381D01*
X145853Y162206D01*
X155994D01*
X156050Y162066D01*
X156205Y160936D01*
X155527Y160483D01*
X154919Y159573D01*
X154706Y158500D01*
X154919Y157427D01*
X155527Y156517D01*
X156437Y155910D01*
X157509Y155696D01*
X158582Y155910D01*
X159492Y156517D01*
X160527D01*
X161437Y155910D01*
X162509Y155696D01*
X163582Y155910D01*
X164492Y156517D01*
X165100Y157427D01*
X165313Y158500D01*
X165100Y159573D01*
X164492Y160483D01*
X163814Y160936D01*
X163969Y162066D01*
X164025Y162206D01*
X170994D01*
X171050Y162066D01*
X171205Y160936D01*
X170527Y160483D01*
X169919Y159573D01*
X169706Y158500D01*
X169919Y157427D01*
X170527Y156517D01*
X171437Y155910D01*
X172509Y155696D01*
X173582Y155910D01*
X174492Y156517D01*
X175100Y157427D01*
X175313Y158500D01*
X175100Y159573D01*
X174492Y160483D01*
X173814Y160936D01*
X173969Y162066D01*
X174025Y162206D01*
X198500D01*
X199378Y162381D01*
X200122Y162878D01*
X201181Y163937D01*
X202451Y163411D01*
Y155250D01*
X202645Y154275D01*
X203198Y153448D01*
X209198Y147448D01*
X210025Y146895D01*
X211000Y146701D01*
X222000D01*
X222976Y146895D01*
X223802Y147448D01*
X224806Y148451D01*
X239106D01*
X239860Y147366D01*
X239278Y146243D01*
X238312Y146051D01*
X237402Y145443D01*
X236794Y144533D01*
X236581Y143460D01*
X236794Y142387D01*
X237402Y141478D01*
X238312Y140870D01*
X239385Y140657D01*
X240458Y140870D01*
X241367Y141478D01*
X241975Y142387D01*
X242067Y142851D01*
X243351D01*
X243368Y142822D01*
X243454Y142387D01*
X244062Y141478D01*
X244972Y140870D01*
X246045Y140657D01*
X247118Y140870D01*
X248027Y141478D01*
X248635Y142387D01*
X248848Y143460D01*
X248635Y144533D01*
X248027Y145443D01*
X247118Y146051D01*
X246654Y146143D01*
Y147438D01*
X247118Y147530D01*
X248027Y148138D01*
X248635Y149047D01*
X248727Y149511D01*
X250022D01*
X250114Y149047D01*
X250722Y148138D01*
X251632Y147530D01*
X252705Y147317D01*
X253778Y147530D01*
X254687Y148138D01*
X255295Y149047D01*
X255484Y149998D01*
X255537Y150119D01*
X255540Y150285D01*
X255549Y150407D01*
X255564Y150514D01*
X255584Y150606D01*
X255607Y150684D01*
X255633Y150750D01*
X255636Y150756D01*
X259898Y155018D01*
X260374Y156166D01*
Y175311D01*
X259898Y176460D01*
X255199Y181159D01*
X254051Y181634D01*
X243662D01*
X232124Y193172D01*
Y204953D01*
X232203Y205026D01*
X233394Y205516D01*
X233927Y205160D01*
X235000Y204946D01*
X236073Y205160D01*
X236983Y205767D01*
X237590Y206677D01*
X237804Y207750D01*
X237590Y208823D01*
X236983Y209733D01*
X236073Y210340D01*
X235000Y210554D01*
X233927Y210340D01*
X233394Y209984D01*
X232203Y210474D01*
X232124Y210547D01*
Y217577D01*
X238398Y223852D01*
X238874Y225000D01*
Y232750D01*
X238570Y233482D01*
X239647Y234202D01*
X240424Y233424D01*
D02*
G37*
G36*
X334931Y171629D02*
X334824Y171512D01*
X334728Y171387D01*
X334644Y171255D01*
X334571Y171115D01*
X334509Y170968D01*
X334459Y170813D01*
X334421Y170651D01*
X334394Y170481D01*
X334379Y170303D01*
X334375Y170118D01*
X332643Y171850D01*
X332828Y171854D01*
X333005Y171870D01*
X333176Y171896D01*
X333338Y171935D01*
X333493Y171985D01*
X333640Y172046D01*
X333780Y172119D01*
X333912Y172203D01*
X334036Y172299D01*
X334153Y172407D01*
X334931Y171629D01*
D02*
G37*
G36*
X257126Y174399D02*
Y157631D01*
X256714Y157229D01*
X255793Y157407D01*
X255308Y157788D01*
X255295Y157853D01*
X254687Y158763D01*
X253778Y159371D01*
X252996Y159526D01*
X252987Y159536D01*
X252981Y159543D01*
X252978Y159545D01*
X252969Y159554D01*
X252935Y159569D01*
X252925Y159574D01*
X252886Y159599D01*
X252841Y159632D01*
X252528Y159905D01*
X252410Y160020D01*
X252309Y160061D01*
X249677Y162692D01*
X249016Y163134D01*
X248235Y163289D01*
X244250D01*
X244250Y163289D01*
X243470Y163134D01*
X242808Y162692D01*
X240155Y160039D01*
X230609D01*
X230512Y160082D01*
X230171Y160090D01*
X229930Y160111D01*
X229865Y160121D01*
X229819Y160131D01*
X229809Y160134D01*
X229774Y160148D01*
X229761Y160148D01*
X229758Y160149D01*
X229749Y160148D01*
X229735Y160148D01*
X229073Y160590D01*
X228000Y160804D01*
X226927Y160590D01*
X226017Y159983D01*
X225410Y159073D01*
X225196Y158000D01*
X225410Y156927D01*
X226017Y156017D01*
X226927Y155410D01*
X228000Y155196D01*
X229073Y155410D01*
X229735Y155852D01*
X229749Y155852D01*
X229758Y155851D01*
X229761Y155852D01*
X229774Y155852D01*
X229809Y155866D01*
X229819Y155869D01*
X229865Y155879D01*
X229920Y155887D01*
X230334Y155916D01*
X230499Y155918D01*
X230599Y155961D01*
X241000D01*
X241780Y156116D01*
X242043Y156292D01*
X243185Y155968D01*
X243443Y155763D01*
X243454Y155708D01*
X244021Y154859D01*
X243949Y154513D01*
X243585Y153589D01*
X240954D01*
X240751Y153549D01*
X223750D01*
X222775Y153355D01*
X221948Y152802D01*
X221228Y152083D01*
X220477Y152193D01*
X220424Y152251D01*
X219945Y153510D01*
X220326Y154080D01*
X220559Y155250D01*
X220326Y156420D01*
X219663Y157413D01*
X218671Y158076D01*
X218432Y158123D01*
X218164Y159472D01*
X218233Y159517D01*
X218840Y160427D01*
X218855Y160500D01*
X220556Y162201D01*
X235500D01*
X236475Y162395D01*
X237302Y162948D01*
X248566Y174212D01*
X251570D01*
X251632Y174170D01*
X252048Y174087D01*
X252095Y174078D01*
Y172783D01*
X252048Y172774D01*
X251632Y172691D01*
X250722Y172083D01*
X250114Y171173D01*
X249901Y170100D01*
X250114Y169028D01*
X250722Y168118D01*
X251632Y167510D01*
X252705Y167297D01*
X253778Y167510D01*
X254687Y168118D01*
X255295Y169028D01*
X255508Y170100D01*
X255295Y171173D01*
X254687Y172083D01*
X253778Y172691D01*
X253361Y172774D01*
X253314Y172783D01*
Y174078D01*
X253361Y174087D01*
X253778Y174170D01*
X254687Y174778D01*
X254889Y175080D01*
X256127Y175292D01*
X257126Y174399D01*
D02*
G37*
G36*
X148902Y169587D02*
X149046Y169464D01*
X149191Y169355D01*
X149337Y169261D01*
X149484Y169181D01*
X149632Y169116D01*
X149782Y169065D01*
X149932Y169029D01*
X150084Y169007D01*
X150237Y169000D01*
Y168000D01*
X150084Y167993D01*
X149932Y167971D01*
X149782Y167935D01*
X149632Y167884D01*
X149484Y167819D01*
X149337Y167739D01*
X149191Y167645D01*
X149046Y167536D01*
X148902Y167413D01*
X148759Y167275D01*
Y169725D01*
X148902Y169587D01*
D02*
G37*
G36*
X371566Y182387D02*
X371580Y182354D01*
X372880Y181040D01*
X375951Y177750D01*
X377287Y176130D01*
X377725Y175519D01*
X378015Y175044D01*
X378137Y174775D01*
X378133Y174750D01*
Y168034D01*
X372667Y162569D01*
X348000D01*
X347124Y163288D01*
Y168218D01*
X354648Y175743D01*
X355124Y176891D01*
Y182596D01*
X354648Y183744D01*
X352731Y185661D01*
X353257Y186931D01*
X367022D01*
X371566Y182387D01*
D02*
G37*
G36*
X251793Y159109D02*
X252164Y158786D01*
X252271Y158708D01*
X252371Y158643D01*
X252462Y158593D01*
X252545Y158558D01*
X252620Y158537D01*
X252687Y158530D01*
X250955Y156798D01*
X250948Y156865D01*
X250927Y156940D01*
X250892Y157023D01*
X250842Y157114D01*
X250778Y157214D01*
X250699Y157321D01*
X250498Y157560D01*
X250240Y157831D01*
X251654Y159246D01*
X251793Y159109D01*
D02*
G37*
G36*
X229302Y159182D02*
X229370Y159144D01*
X229454Y159110D01*
X229553Y159081D01*
X229669Y159056D01*
X229801Y159036D01*
X230112Y159009D01*
X230486Y159000D01*
Y157000D01*
X230291Y156998D01*
X229801Y156964D01*
X229669Y156944D01*
X229553Y156919D01*
X229454Y156890D01*
X229370Y156856D01*
X229302Y156818D01*
X229250Y156775D01*
Y159225D01*
X229302Y159182D01*
D02*
G37*
G36*
X-1174Y158281D02*
X-1160Y158092D01*
X-1134Y157913D01*
X-1098Y157743D01*
X-1050Y157583D01*
X-991Y157432D01*
X-922Y157290D01*
X-841Y157158D01*
X-749Y157036D01*
X-646Y156922D01*
X-1353Y156215D01*
X-1466Y156318D01*
X-1589Y156410D01*
X-1721Y156491D01*
X-1863Y156561D01*
X-2014Y156619D01*
X-2174Y156667D01*
X-2344Y156704D01*
X-2523Y156729D01*
X-2712Y156744D01*
X-2910Y156747D01*
X-1178Y158480D01*
X-1174Y158281D01*
D02*
G37*
G36*
X254986Y151695D02*
X254884Y151582D01*
X254792Y151459D01*
X254711Y151327D01*
X254641Y151186D01*
X254583Y151035D01*
X254535Y150874D01*
X254498Y150704D01*
X254473Y150525D01*
X254458Y150336D01*
X254455Y150138D01*
X252722Y151870D01*
X252920Y151874D01*
X253109Y151888D01*
X253289Y151914D01*
X253459Y151951D01*
X253619Y151998D01*
X253770Y152057D01*
X253912Y152127D01*
X254044Y152207D01*
X254166Y152299D01*
X254279Y152402D01*
X254986Y151695D01*
D02*
G37*
G36*
X-3193Y163856D02*
X-3304Y163299D01*
X-3136Y162456D01*
X-3094Y162221D01*
X-3874Y161113D01*
X-4001Y161088D01*
X-4911Y160480D01*
X-5518Y159570D01*
X-5732Y158497D01*
X-5518Y157424D01*
X-4911Y156515D01*
X-4001Y155907D01*
X-3051Y155718D01*
X-2930Y155665D01*
X-2763Y155662D01*
X-2641Y155653D01*
X-2535Y155638D01*
X-2442Y155618D01*
X-2364Y155595D01*
X-2299Y155569D01*
X-2293Y155566D01*
X-1329Y154602D01*
X-181Y154126D01*
X3096D01*
X3876Y153605D01*
Y150922D01*
X1828Y148874D01*
X-3500D01*
X-4648Y148398D01*
X-4795Y148251D01*
X-4857Y148226D01*
X-5250Y148304D01*
X-5654Y148223D01*
X-6542Y148421D01*
X-7023Y149148D01*
X-7107Y149573D01*
X-7715Y150483D01*
X-8625Y151090D01*
X-9698Y151304D01*
X-10771Y151090D01*
X-11681Y150483D01*
X-12288Y149573D01*
X-12502Y148500D01*
X-12288Y147427D01*
X-11681Y146517D01*
X-10771Y145910D01*
X-9698Y145696D01*
X-9294Y145777D01*
X-8406Y145578D01*
X-7925Y144853D01*
X-7840Y144427D01*
X-7233Y143517D01*
X-6766Y143206D01*
X-6758Y143185D01*
Y141815D01*
X-6766Y141794D01*
X-7233Y141483D01*
X-7840Y140573D01*
X-8054Y139500D01*
X-7840Y138427D01*
X-7233Y137517D01*
X-7039Y137388D01*
X-6403Y136674D01*
X-6715Y135760D01*
X-6840Y135573D01*
X-7054Y134500D01*
X-6840Y133427D01*
X-6233Y132517D01*
X-5323Y131910D01*
X-4771Y131800D01*
X-4145Y131500D01*
X-3624Y130526D01*
Y104826D01*
X-3148Y103678D01*
X3119Y97411D01*
X3122Y97405D01*
X3147Y97340D01*
X3171Y97262D01*
X3191Y97170D01*
X3206Y97063D01*
X3215Y96941D01*
X3218Y96775D01*
X3271Y96653D01*
X3460Y95703D01*
X4067Y94794D01*
X4370Y94592D01*
X4632Y93058D01*
X1102Y89528D01*
X626Y88380D01*
Y88022D01*
X624Y88015D01*
X596Y87951D01*
X557Y87879D01*
X506Y87800D01*
X441Y87714D01*
X362Y87621D01*
X246Y87502D01*
X198Y87379D01*
X-340Y86573D01*
X-554Y85500D01*
X-340Y84427D01*
X267Y83517D01*
X1177Y82910D01*
X2250Y82696D01*
X3034Y81557D01*
X3160Y80927D01*
X3424Y80531D01*
X3664Y79625D01*
X3424Y78719D01*
X3160Y78323D01*
X2946Y77250D01*
X3160Y76177D01*
X3767Y75267D01*
X4677Y74660D01*
X5165Y73747D01*
X5127Y73654D01*
Y67404D01*
X5602Y66256D01*
X6510Y65348D01*
X6160Y64823D01*
X5946Y63750D01*
X6160Y62677D01*
X6767Y61767D01*
X7677Y61160D01*
X8750Y60946D01*
X9823Y61160D01*
X10733Y61767D01*
X11340Y62677D01*
X11554Y63750D01*
X11340Y64823D01*
X10733Y65733D01*
X9823Y66340D01*
X9700Y66365D01*
X9427Y67023D01*
X8374Y68076D01*
Y72981D01*
X10148Y74756D01*
X10624Y75904D01*
Y87170D01*
X11894Y87849D01*
X12177Y87660D01*
X13250Y87446D01*
X14323Y87660D01*
X15233Y88267D01*
X15841Y89177D01*
X16054Y90250D01*
X15890Y91075D01*
X16631Y91684D01*
X16783Y91754D01*
X16960Y91802D01*
X19133Y89628D01*
X19878Y89131D01*
X20756Y88956D01*
X26500D01*
X27378Y89131D01*
X28122Y89628D01*
X32700Y94206D01*
X56050D01*
X59128Y91128D01*
X59872Y90631D01*
X60750Y90456D01*
X60750Y90456D01*
X65078D01*
X65463Y89186D01*
X64924Y88826D01*
X59216Y83118D01*
X52750D01*
X50409Y82652D01*
X48424Y81326D01*
X24716Y57618D01*
X12500D01*
X10159Y57152D01*
X8174Y55826D01*
X4035Y51687D01*
X3656Y51741D01*
X2740Y52187D01*
X2590Y52936D01*
X1983Y53846D01*
X1073Y54454D01*
X123Y54643D01*
X2Y54696D01*
X-165Y54698D01*
X-287Y54708D01*
X-393Y54723D01*
X-485Y54743D01*
X-564Y54766D01*
X-629Y54792D01*
X-635Y54795D01*
X-14376Y68536D01*
Y159827D01*
X-9078Y165126D01*
X-3998D01*
X-3193Y163856D01*
D02*
G37*
G36*
X-3146Y146896D02*
X-3246Y146792D01*
X-3334Y146690D01*
X-3408Y146591D01*
X-3469Y146495D01*
X-3518Y146403D01*
X-3554Y146313D01*
X-3577Y146227D01*
X-3587Y146143D01*
X-3584Y146063D01*
X-3569Y145985D01*
X-4765Y147181D01*
X-4687Y147166D01*
X-4607Y147163D01*
X-4523Y147173D01*
X-4437Y147196D01*
X-4347Y147232D01*
X-4255Y147281D01*
X-4159Y147342D01*
X-4060Y147416D01*
X-3958Y147504D01*
X-3853Y147604D01*
X-3146Y146896D01*
D02*
G37*
G36*
X355750Y146775D02*
X355607Y146913D01*
X355464Y147036D01*
X355319Y147145D01*
X355173Y147239D01*
X355025Y147319D01*
X354877Y147384D01*
X354728Y147435D01*
X354577Y147471D01*
X354426Y147493D01*
X354273Y147500D01*
Y148500D01*
X354426Y148507D01*
X354577Y148529D01*
X354728Y148565D01*
X354877Y148616D01*
X355025Y148681D01*
X355173Y148761D01*
X355319Y148855D01*
X355464Y148964D01*
X355607Y149087D01*
X355750Y149225D01*
Y146775D01*
D02*
G37*
G36*
X59233Y143250D02*
X59034Y143247D01*
X58845Y143232D01*
X58666Y143207D01*
X58496Y143170D01*
X58336Y143122D01*
X58185Y143063D01*
X58043Y142994D01*
X57911Y142913D01*
X57788Y142821D01*
X57675Y142718D01*
X56968Y143425D01*
X57071Y143538D01*
X57163Y143661D01*
X57244Y143793D01*
X57313Y143935D01*
X57372Y144086D01*
X57420Y144246D01*
X57456Y144416D01*
X57482Y144595D01*
X57497Y144784D01*
X57500Y144983D01*
X59233Y143250D01*
D02*
G37*
G36*
X30032Y140575D02*
X29929Y140462D01*
X29837Y140339D01*
X29756Y140207D01*
X29687Y140065D01*
X29628Y139914D01*
X29580Y139754D01*
X29543Y139584D01*
X29518Y139405D01*
X29503Y139216D01*
X29500Y139017D01*
X27768Y140750D01*
X27966Y140753D01*
X28155Y140768D01*
X28334Y140794D01*
X28504Y140830D01*
X28664Y140878D01*
X28815Y140936D01*
X28957Y141006D01*
X29089Y141087D01*
X29212Y141179D01*
X29325Y141282D01*
X30032Y140575D01*
D02*
G37*
G36*
X330638Y141278D02*
X330789Y141159D01*
X330939Y141054D01*
X331090Y140962D01*
X331241Y140885D01*
X331392Y140822D01*
X331543Y140773D01*
X331694Y140738D01*
X331845Y140717D01*
X331996Y140710D01*
X332044Y139710D01*
X331890Y139703D01*
X331738Y139680D01*
X331588Y139643D01*
X331440Y139591D01*
X331295Y139524D01*
X331151Y139441D01*
X331010Y139344D01*
X330871Y139232D01*
X330734Y139106D01*
X330600Y138964D01*
X330488Y141411D01*
X330638Y141278D01*
D02*
G37*
G36*
X-3721Y140385D02*
X-3600Y140252D01*
X-3474Y140134D01*
X-3343Y140032D01*
X-3209Y139946D01*
X-3069Y139875D01*
X-2926Y139820D01*
X-2777Y139781D01*
X-2625Y139758D01*
X-2468Y139750D01*
X-2619Y138750D01*
X-2766Y138744D01*
X-2915Y138724D01*
X-3067Y138692D01*
X-3220Y138647D01*
X-3376Y138590D01*
X-3534Y138519D01*
X-3694Y138436D01*
X-3857Y138340D01*
X-4188Y138109D01*
X-3838Y140534D01*
X-3721Y140385D01*
D02*
G37*
G36*
X53126Y170249D02*
Y168000D01*
X53602Y166852D01*
X63876Y156578D01*
Y149137D01*
X62606Y148611D01*
X61820Y149398D01*
X60672Y149874D01*
X57904D01*
X56756Y149398D01*
X48577Y141220D01*
X46596D01*
X45448Y140744D01*
X31328Y126624D01*
X12492D01*
X11165Y127449D01*
X11141Y127573D01*
X10533Y128483D01*
X9623Y129091D01*
X9151Y129185D01*
X8701Y130530D01*
X11547Y133376D01*
X13750D01*
X14898Y133852D01*
X22898Y141852D01*
X23374Y143000D01*
Y145203D01*
X25469Y147298D01*
X26926Y147304D01*
X27065Y147235D01*
X27927Y146659D01*
X29000Y146446D01*
X30073Y146659D01*
X30983Y147267D01*
X31590Y148177D01*
X31804Y149250D01*
X31590Y150323D01*
X30983Y151233D01*
X30073Y151840D01*
X29000Y152054D01*
X27927Y151840D01*
X27644Y151651D01*
X26374Y152330D01*
Y153764D01*
X33954Y161345D01*
X39125D01*
X40273Y161820D01*
X42953Y164500D01*
X44126Y164014D01*
Y157673D01*
X28385Y141931D01*
X28379Y141928D01*
X28313Y141903D01*
X28235Y141880D01*
X28143Y141860D01*
X28036Y141844D01*
X27915Y141835D01*
X27748Y141832D01*
X27627Y141779D01*
X26677Y141590D01*
X25767Y140983D01*
X25160Y140073D01*
X24946Y139000D01*
X25160Y137927D01*
X25767Y137017D01*
X26677Y136410D01*
X27750Y136196D01*
X28823Y136410D01*
X29733Y137017D01*
X30340Y137927D01*
X30529Y138877D01*
X30582Y138998D01*
X30585Y139165D01*
X30594Y139287D01*
X30610Y139393D01*
X30629Y139486D01*
X30653Y139564D01*
X30678Y139629D01*
X30681Y139635D01*
X46898Y155852D01*
X47374Y157000D01*
Y174343D01*
X48547Y174829D01*
X53126Y170249D01*
D02*
G37*
G36*
X376454Y141254D02*
X376060Y141176D01*
X375571Y140971D01*
X374988Y140638D01*
X374311Y140177D01*
X373540Y139588D01*
X371714Y138029D01*
X368268Y134732D01*
X364732Y138268D01*
X365959Y139511D01*
X370177Y144311D01*
X370638Y144988D01*
X370971Y145571D01*
X371176Y146060D01*
X371254Y146454D01*
X376454Y141254D01*
D02*
G37*
G36*
X56256Y135166D02*
X56277Y135090D01*
X56313Y135007D01*
X56363Y134916D01*
X56427Y134817D01*
X56506Y134709D01*
X56707Y134470D01*
X56965Y134199D01*
X55551Y132785D01*
X55411Y132921D01*
X55041Y133244D01*
X54933Y133323D01*
X54834Y133387D01*
X54743Y133437D01*
X54660Y133472D01*
X54584Y133493D01*
X54517Y133500D01*
X56250Y135232D01*
X56256Y135166D01*
D02*
G37*
G36*
X429126Y156694D02*
Y154798D01*
X423141Y148813D01*
X422666Y147665D01*
Y132212D01*
X416328Y125874D01*
X402839D01*
X402163Y125594D01*
X401444Y126670D01*
X402489Y127716D01*
X405950D01*
X406633Y127851D01*
X407211Y128238D01*
X409262Y130289D01*
X409649Y130868D01*
X409784Y131550D01*
Y139011D01*
X427953Y157180D01*
X429126Y156694D01*
D02*
G37*
G36*
X224003Y126034D02*
X224018Y125845D01*
X224044Y125666D01*
X224080Y125496D01*
X224128Y125336D01*
X224186Y125185D01*
X224256Y125043D01*
X224337Y124911D01*
X224429Y124788D01*
X224532Y124675D01*
X223825Y123968D01*
X223712Y124071D01*
X223589Y124163D01*
X223457Y124244D01*
X223315Y124313D01*
X223164Y124372D01*
X223004Y124420D01*
X222834Y124457D01*
X222655Y124482D01*
X222466Y124497D01*
X222267Y124500D01*
X224000Y126233D01*
X224003Y126034D01*
D02*
G37*
G36*
X10832Y122633D02*
X10729Y122520D01*
X10637Y122397D01*
X10556Y122265D01*
X10487Y122123D01*
X10428Y121973D01*
X10380Y121812D01*
X10344Y121642D01*
X10318Y121463D01*
X10303Y121274D01*
X10300Y121076D01*
X8568Y122808D01*
X8766Y122811D01*
X8955Y122826D01*
X9134Y122852D01*
X9304Y122888D01*
X9464Y122936D01*
X9615Y122995D01*
X9757Y123064D01*
X9889Y123145D01*
X10012Y123237D01*
X10125Y123340D01*
X10832Y122633D01*
D02*
G37*
G36*
X230983Y119250D02*
X230784Y119247D01*
X230595Y119232D01*
X230416Y119206D01*
X230246Y119170D01*
X230086Y119122D01*
X229935Y119064D01*
X229793Y118994D01*
X229661Y118913D01*
X229538Y118821D01*
X229425Y118718D01*
X228718Y119425D01*
X228821Y119538D01*
X228913Y119661D01*
X228994Y119793D01*
X229063Y119935D01*
X229122Y120086D01*
X229170Y120246D01*
X229207Y120416D01*
X229232Y120595D01*
X229247Y120784D01*
X229250Y120983D01*
X230983Y119250D01*
D02*
G37*
G36*
X404464Y210924D02*
X406449Y209598D01*
X408790Y209132D01*
X416750D01*
X419091Y209598D01*
X421076Y210924D01*
X425034Y214883D01*
X427176D01*
X436133Y205926D01*
Y187000D01*
X436598Y184659D01*
X437924Y182674D01*
X444632Y175966D01*
Y167750D01*
X445098Y165409D01*
X446424Y163424D01*
X449883Y159966D01*
Y134250D01*
X450348Y131909D01*
X451674Y129924D01*
X451883Y129716D01*
Y116824D01*
X450612Y116438D01*
X450483Y116632D01*
X449573Y117240D01*
X448500Y117454D01*
X447427Y117240D01*
X446517Y116632D01*
X445910Y115723D01*
X445696Y114650D01*
X444826Y114144D01*
X444751Y114159D01*
X444374Y114433D01*
Y149500D01*
X443898Y150648D01*
X434374Y160173D01*
Y193675D01*
X433898Y194823D01*
X430573Y198148D01*
X429425Y198624D01*
X425075D01*
X423927Y198148D01*
X410852Y185073D01*
X410376Y183925D01*
Y180372D01*
X407935Y177931D01*
X407929Y177928D01*
X407864Y177903D01*
X407786Y177880D01*
X407694Y177860D01*
X407587Y177845D01*
X407483Y177836D01*
X407464Y177835D01*
X407299Y177832D01*
X406170Y178425D01*
X406090Y178823D01*
X405552Y179629D01*
X405504Y179751D01*
X405388Y179871D01*
X405309Y179964D01*
X405244Y180050D01*
X405193Y180129D01*
X405154Y180201D01*
X405126Y180265D01*
X405124Y180272D01*
Y203750D01*
X404648Y204898D01*
X397624Y211922D01*
Y215969D01*
X398894Y216495D01*
X404464Y210924D01*
D02*
G37*
G36*
X401067Y117175D02*
X400964Y117062D01*
X400872Y116939D01*
X400791Y116807D01*
X400722Y116665D01*
X400663Y116515D01*
X400615Y116354D01*
X400579Y116184D01*
X400553Y116005D01*
X400538Y115816D01*
X400535Y115618D01*
X398803Y117350D01*
X399001Y117353D01*
X399190Y117368D01*
X399369Y117394D01*
X399539Y117430D01*
X399700Y117478D01*
X399850Y117537D01*
X399992Y117606D01*
X400124Y117687D01*
X400247Y117779D01*
X400360Y117882D01*
X401067Y117175D01*
D02*
G37*
G36*
X236116Y127366D02*
X236116Y127366D01*
X237439Y126482D01*
X239000Y126172D01*
X249671D01*
X250347Y124902D01*
X250114Y124553D01*
X249901Y123480D01*
X250114Y122407D01*
X250722Y121498D01*
X251632Y120890D01*
X252705Y120676D01*
X253402Y120815D01*
X254672Y120076D01*
Y116689D01*
X253116Y115134D01*
X253064Y115055D01*
X251586Y115130D01*
X251357Y115473D01*
X250448Y116081D01*
X249375Y116294D01*
X248302Y116081D01*
X247392Y115473D01*
X246784Y114563D01*
X246571Y113490D01*
X246784Y112417D01*
X247392Y111508D01*
X248302Y110900D01*
X249375Y110686D01*
X250448Y110900D01*
X250652Y111036D01*
X251922Y110357D01*
Y96590D01*
X251079Y96103D01*
X250682Y96033D01*
X248233Y98483D01*
X247323Y99090D01*
X246250Y99304D01*
X238750D01*
X237677Y99090D01*
X236767Y98483D01*
X236160Y97573D01*
X235946Y96500D01*
X236160Y95427D01*
X236767Y94517D01*
X237677Y93910D01*
X238750Y93696D01*
X245089D01*
X256017Y82767D01*
X256927Y82160D01*
X258000Y81946D01*
X265339D01*
X268696Y78589D01*
Y76234D01*
X267453Y75374D01*
X265501D01*
X263727Y77148D01*
X262578Y77624D01*
X253172D01*
X251374Y79422D01*
Y81500D01*
X250898Y82648D01*
X243648Y89898D01*
X242500Y90374D01*
X236501D01*
X229874Y97001D01*
Y100336D01*
X230323Y100687D01*
X231144Y101117D01*
X232000Y100946D01*
X233073Y101160D01*
X233983Y101767D01*
X234590Y102677D01*
X234804Y103750D01*
X234590Y104823D01*
X233983Y105733D01*
X233073Y106340D01*
X232000Y106554D01*
X231144Y106383D01*
X230323Y106813D01*
X229874Y107164D01*
Y117577D01*
X230365Y118069D01*
X230371Y118072D01*
X230437Y118097D01*
X230515Y118120D01*
X230607Y118140D01*
X230714Y118156D01*
X230835Y118165D01*
X231002Y118168D01*
X231123Y118221D01*
X232073Y118410D01*
X232983Y119017D01*
X233591Y119927D01*
X233804Y121000D01*
X233591Y122073D01*
X232983Y122983D01*
X232073Y123590D01*
X231000Y123804D01*
X229927Y123590D01*
X229017Y122983D01*
X228973Y122915D01*
X227539Y123057D01*
X227398Y123398D01*
X225181Y125615D01*
X225178Y125621D01*
X225153Y125687D01*
X225130Y125765D01*
X225110Y125857D01*
X225094Y125963D01*
X225085Y126085D01*
X225082Y126252D01*
X225029Y126373D01*
X224840Y127323D01*
X224233Y128233D01*
X223323Y128840D01*
X222250Y129054D01*
X221177Y128840D01*
X220267Y128233D01*
X219660Y127323D01*
X219446Y126250D01*
X219660Y125177D01*
X220267Y124267D01*
X221177Y123660D01*
X222127Y123470D01*
X222248Y123418D01*
X222415Y123415D01*
X222537Y123406D01*
X222643Y123390D01*
X222736Y123371D01*
X222813Y123347D01*
X222879Y123322D01*
X222885Y123319D01*
X224626Y121578D01*
Y95500D01*
X225102Y94352D01*
X233852Y85602D01*
X235000Y85126D01*
X240999D01*
X246126Y79999D01*
Y77922D01*
X246602Y76774D01*
X249084Y74291D01*
X248598Y73118D01*
X242750D01*
X240409Y72652D01*
X238424Y71326D01*
X232136Y65038D01*
X230852Y65244D01*
X230550Y70528D01*
X230543Y72294D01*
X230534Y72316D01*
X230228Y73850D01*
X229344Y75174D01*
X229344Y75174D01*
X214078Y90439D01*
Y127061D01*
X217939Y130922D01*
X232561D01*
X236116Y127366D01*
D02*
G37*
G36*
X406732Y116575D02*
X406629Y116462D01*
X406537Y116339D01*
X406456Y116207D01*
X406386Y116065D01*
X406328Y115914D01*
X406280Y115754D01*
X406244Y115584D01*
X406218Y115405D01*
X406203Y115216D01*
X406200Y115017D01*
X404468Y116750D01*
X404666Y116753D01*
X404855Y116768D01*
X405034Y116793D01*
X405204Y116830D01*
X405364Y116878D01*
X405515Y116937D01*
X405657Y117006D01*
X405789Y117087D01*
X405912Y117179D01*
X406025Y117282D01*
X406732Y116575D01*
D02*
G37*
G36*
X69788Y116179D02*
X69911Y116087D01*
X70043Y116006D01*
X70185Y115936D01*
X70336Y115878D01*
X70496Y115830D01*
X70666Y115794D01*
X70845Y115768D01*
X71034Y115753D01*
X71233Y115750D01*
X69500Y114017D01*
X69497Y114216D01*
X69482Y114405D01*
X69457Y114584D01*
X69420Y114754D01*
X69372Y114914D01*
X69314Y115065D01*
X69244Y115207D01*
X69163Y115339D01*
X69071Y115462D01*
X68968Y115575D01*
X69675Y116282D01*
X69788Y116179D01*
D02*
G37*
G36*
X404432Y113250D02*
X404234Y113247D01*
X404045Y113232D01*
X403866Y113207D01*
X403696Y113170D01*
X403536Y113122D01*
X403385Y113063D01*
X403243Y112994D01*
X403111Y112913D01*
X402988Y112821D01*
X402875Y112718D01*
X402168Y113425D01*
X402271Y113538D01*
X402363Y113661D01*
X402444Y113793D01*
X402513Y113935D01*
X402572Y114086D01*
X402620Y114246D01*
X402657Y114416D01*
X402682Y114595D01*
X402697Y114784D01*
X402700Y114983D01*
X404432Y113250D01*
D02*
G37*
G36*
X441127Y148827D02*
Y113522D01*
X441124Y113515D01*
X441096Y113451D01*
X441057Y113379D01*
X441006Y113300D01*
X440941Y113214D01*
X440862Y113121D01*
X440747Y113003D01*
X440629Y112888D01*
X440536Y112809D01*
X440450Y112744D01*
X440371Y112693D01*
X440299Y112654D01*
X440235Y112626D01*
X440228Y112623D01*
X433173D01*
X422398Y123398D01*
X421250Y123874D01*
X420579D01*
X420093Y125047D01*
X425437Y130391D01*
X425913Y131539D01*
Y146992D01*
X431898Y152977D01*
X432374Y154125D01*
Y155921D01*
X433547Y156407D01*
X441127Y148827D01*
D02*
G37*
G36*
X425267Y189767D02*
X426177Y189160D01*
X426716Y189053D01*
Y160989D01*
X406738Y141012D01*
X406352Y140433D01*
X406216Y139750D01*
Y132289D01*
X405211Y131284D01*
X401750D01*
X401067Y131148D01*
X400488Y130762D01*
X387738Y118012D01*
X387351Y117433D01*
X387216Y116750D01*
Y114239D01*
X386445Y113468D01*
X386335Y113426D01*
X386228Y113325D01*
X386148Y113257D01*
X386075Y113202D01*
X386010Y113161D01*
X385954Y113131D01*
X385906Y113110D01*
X385866Y113096D01*
X385833Y113089D01*
X385805Y113085D01*
X385725Y113082D01*
X385601Y113024D01*
X384677Y112840D01*
X384015Y112398D01*
X384001Y112398D01*
X383992Y112399D01*
X383989Y112398D01*
X383976Y112398D01*
X383941Y112384D01*
X383931Y112381D01*
X383885Y112371D01*
X383830Y112363D01*
X383416Y112334D01*
X383251Y112332D01*
X383150Y112289D01*
X380750D01*
X380750Y112289D01*
X380731Y112285D01*
X380105Y113456D01*
X380384Y113734D01*
X380384Y113734D01*
X381268Y115058D01*
X381578Y116618D01*
X381578Y116618D01*
Y121061D01*
X421134Y160616D01*
X421134Y160616D01*
X422018Y161939D01*
X422328Y163500D01*
Y172500D01*
X422238Y172953D01*
X422495Y174172D01*
X423161Y174328D01*
X423573Y174410D01*
X424483Y175017D01*
X425090Y175927D01*
X425304Y177000D01*
X425090Y178073D01*
X424552Y178879D01*
X424504Y179002D01*
X424388Y179121D01*
X424309Y179214D01*
X424244Y179300D01*
X424193Y179379D01*
X424154Y179451D01*
X424126Y179515D01*
X424124Y179522D01*
Y181904D01*
X423648Y183052D01*
X423124Y183576D01*
Y189203D01*
X423907Y189883D01*
X425267Y189767D01*
D02*
G37*
G36*
X443257Y113574D02*
X443279Y113422D01*
X443315Y113272D01*
X443366Y113123D01*
X443431Y112974D01*
X443511Y112827D01*
X443605Y112681D01*
X443714Y112536D01*
X443837Y112392D01*
X443975Y112250D01*
X441525D01*
X441663Y112392D01*
X441786Y112536D01*
X441895Y112681D01*
X441989Y112827D01*
X442069Y112974D01*
X442134Y113123D01*
X442185Y113272D01*
X442221Y113422D01*
X442243Y113574D01*
X442250Y113727D01*
X443250D01*
X443257Y113574D01*
D02*
G37*
G36*
X388141Y111580D02*
X388018Y111451D01*
X387908Y111320D01*
X387811Y111190D01*
X387727Y111059D01*
X387657Y110928D01*
X387599Y110797D01*
X387555Y110665D01*
X387523Y110533D01*
X387505Y110400D01*
X387500Y110267D01*
X385768Y112000D01*
X385900Y112005D01*
X386033Y112023D01*
X386165Y112055D01*
X386297Y112099D01*
X386428Y112157D01*
X386559Y112227D01*
X386690Y112311D01*
X386820Y112408D01*
X386950Y112518D01*
X387080Y112641D01*
X388141Y111580D01*
D02*
G37*
G36*
X441500Y109775D02*
X441358Y109913D01*
X441214Y110036D01*
X441069Y110145D01*
X440923Y110239D01*
X440776Y110319D01*
X440628Y110384D01*
X440478Y110435D01*
X440327Y110471D01*
X440176Y110493D01*
X440023Y110500D01*
Y111500D01*
X440176Y111507D01*
X440327Y111529D01*
X440478Y111565D01*
X440628Y111616D01*
X440776Y111681D01*
X440923Y111761D01*
X441069Y111855D01*
X441214Y111964D01*
X441358Y112087D01*
X441500Y112225D01*
Y109775D01*
D02*
G37*
G36*
X384500Y109025D02*
X384448Y109068D01*
X384380Y109106D01*
X384296Y109140D01*
X384197Y109169D01*
X384081Y109194D01*
X383949Y109214D01*
X383638Y109241D01*
X383264Y109250D01*
Y111250D01*
X383459Y111252D01*
X383949Y111286D01*
X384081Y111306D01*
X384197Y111331D01*
X384296Y111360D01*
X384380Y111394D01*
X384448Y111432D01*
X384500Y111475D01*
Y109025D01*
D02*
G37*
G36*
X73532Y109575D02*
X73429Y109462D01*
X73337Y109339D01*
X73256Y109207D01*
X73186Y109065D01*
X73128Y108914D01*
X73080Y108754D01*
X73043Y108584D01*
X73018Y108405D01*
X73003Y108216D01*
X73000Y108018D01*
X71267Y109750D01*
X71466Y109753D01*
X71655Y109768D01*
X71834Y109794D01*
X72004Y109830D01*
X72164Y109878D01*
X72315Y109937D01*
X72457Y110006D01*
X72589Y110087D01*
X72712Y110179D01*
X72825Y110282D01*
X73532Y109575D01*
D02*
G37*
G36*
X69788Y110179D02*
X69911Y110087D01*
X70043Y110006D01*
X70185Y109937D01*
X70336Y109878D01*
X70496Y109830D01*
X70666Y109794D01*
X70845Y109768D01*
X71034Y109753D01*
X71233Y109750D01*
X69500Y108018D01*
X69497Y108216D01*
X69482Y108405D01*
X69457Y108584D01*
X69420Y108754D01*
X69372Y108914D01*
X69314Y109065D01*
X69244Y109207D01*
X69163Y109339D01*
X69071Y109462D01*
X68968Y109575D01*
X69675Y110282D01*
X69788Y110179D01*
D02*
G37*
G36*
X441288Y107429D02*
X441411Y107337D01*
X441543Y107256D01*
X441685Y107186D01*
X441836Y107128D01*
X441996Y107080D01*
X442166Y107043D01*
X442346Y107018D01*
X442534Y107003D01*
X442733Y107000D01*
X441000Y105267D01*
X440997Y105465D01*
X440982Y105654D01*
X440957Y105834D01*
X440920Y106004D01*
X440872Y106164D01*
X440814Y106315D01*
X440744Y106457D01*
X440663Y106589D01*
X440571Y106711D01*
X440468Y106825D01*
X441175Y107532D01*
X441288Y107429D01*
D02*
G37*
G36*
X4588Y106397D02*
X4711Y106305D01*
X4843Y106224D01*
X4985Y106154D01*
X5136Y106096D01*
X5296Y106048D01*
X5466Y106011D01*
X5645Y105986D01*
X5834Y105971D01*
X6033Y105968D01*
X4300Y104235D01*
X4297Y104434D01*
X4282Y104623D01*
X4257Y104802D01*
X4220Y104972D01*
X4172Y105132D01*
X4114Y105283D01*
X4044Y105425D01*
X3963Y105557D01*
X3871Y105680D01*
X3768Y105793D01*
X4475Y106500D01*
X4588Y106397D01*
D02*
G37*
G36*
X25532Y100075D02*
X25429Y99962D01*
X25337Y99839D01*
X25256Y99707D01*
X25187Y99565D01*
X25128Y99414D01*
X25080Y99254D01*
X25043Y99084D01*
X25018Y98905D01*
X25003Y98716D01*
X25000Y98518D01*
X23268Y100250D01*
X23466Y100253D01*
X23655Y100268D01*
X23834Y100294D01*
X24004Y100330D01*
X24164Y100378D01*
X24315Y100437D01*
X24457Y100506D01*
X24589Y100587D01*
X24712Y100679D01*
X24825Y100782D01*
X25532Y100075D01*
D02*
G37*
G36*
X4588Y98955D02*
X4711Y98863D01*
X4843Y98783D01*
X4985Y98713D01*
X5136Y98654D01*
X5296Y98606D01*
X5466Y98570D01*
X5645Y98544D01*
X5834Y98530D01*
X6033Y98526D01*
X4300Y96794D01*
X4297Y96992D01*
X4282Y97181D01*
X4257Y97360D01*
X4220Y97530D01*
X4172Y97691D01*
X4114Y97842D01*
X4044Y97983D01*
X3963Y98115D01*
X3871Y98238D01*
X3768Y98351D01*
X4475Y99058D01*
X4588Y98955D01*
D02*
G37*
G36*
X14229Y92751D02*
X14234Y92612D01*
X14250Y92467D01*
X14277Y92317D01*
X14315Y92161D01*
X14364Y92001D01*
X14494Y91663D01*
X14575Y91487D01*
X14770Y91117D01*
X12413Y91787D01*
X12568Y91880D01*
X12707Y91980D01*
X12829Y92087D01*
X12935Y92202D01*
X13025Y92325D01*
X13098Y92455D01*
X13155Y92592D01*
X13196Y92737D01*
X13220Y92890D01*
X13228Y93050D01*
X14229Y92751D01*
D02*
G37*
G36*
X2757Y88074D02*
X2779Y87923D01*
X2815Y87772D01*
X2866Y87623D01*
X2931Y87474D01*
X3011Y87327D01*
X3105Y87181D01*
X3214Y87036D01*
X3337Y86892D01*
X3475Y86750D01*
X1025D01*
X1163Y86892D01*
X1286Y87036D01*
X1395Y87181D01*
X1489Y87327D01*
X1569Y87474D01*
X1634Y87623D01*
X1685Y87772D01*
X1721Y87923D01*
X1743Y88074D01*
X1750Y88227D01*
X2750D01*
X2757Y88074D01*
D02*
G37*
G36*
X137000Y85500D02*
X132250D01*
Y89500D01*
X132750Y90000D01*
X137000D01*
Y85500D01*
D02*
G37*
G36*
X134356Y80682D02*
X134716Y80381D01*
X135080Y80116D01*
X135449Y79886D01*
X135821Y79692D01*
X136199Y79533D01*
X136580Y79409D01*
X136966Y79321D01*
X137356Y79268D01*
X137750Y79250D01*
Y76750D01*
X137356Y76732D01*
X136966Y76679D01*
X136580Y76591D01*
X136199Y76467D01*
X135821Y76308D01*
X135449Y76114D01*
X135080Y75884D01*
X134716Y75619D01*
X134356Y75318D01*
X134000Y74982D01*
X131714Y76232D01*
X132033Y76586D01*
X132280Y76939D01*
X132457Y77293D01*
X132563Y77646D01*
X132598Y78000D01*
X132563Y78354D01*
X132457Y78707D01*
X132280Y79061D01*
X132033Y79414D01*
X131714Y79768D01*
X134000Y81018D01*
X134356Y80682D01*
D02*
G37*
G36*
X284000Y73750D02*
X276000D01*
X275000Y74750D01*
Y76750D01*
X275750Y77500D01*
X277750D01*
X279000Y78750D01*
X284000D01*
Y73750D01*
D02*
G37*
G36*
X406208Y86448D02*
X407035Y85895D01*
X408010Y85701D01*
X426944D01*
X427948Y84698D01*
X428774Y84145D01*
X429750Y83951D01*
X447000D01*
X447976Y84145D01*
X448802Y84698D01*
X450612Y86508D01*
X451883Y85982D01*
Y82436D01*
X439565Y70118D01*
X432034D01*
X420076Y82076D01*
X418091Y83402D01*
X415750Y83868D01*
X398540D01*
X396199Y83402D01*
X394214Y82076D01*
X377424Y65286D01*
X376098Y63301D01*
X375632Y60960D01*
Y51250D01*
X376098Y48909D01*
X377424Y46924D01*
X382882Y41466D01*
Y27534D01*
X381716Y26367D01*
X371000D01*
X368659Y25902D01*
X366674Y24576D01*
X359466Y17368D01*
X332250D01*
X329909Y16902D01*
X327924Y15576D01*
X326598Y13591D01*
X326133Y11250D01*
X326598Y8909D01*
X327444Y7644D01*
X326765Y6374D01*
X308183D01*
X307797Y7644D01*
X307983Y7767D01*
X308590Y8677D01*
X308605Y8750D01*
X320306Y20451D01*
X343750D01*
X344725Y20645D01*
X345552Y21198D01*
X348556Y24201D01*
X360182D01*
X361157Y24395D01*
X361984Y24948D01*
X367552Y30516D01*
X368105Y31342D01*
X368299Y32318D01*
Y58194D01*
X395806Y85701D01*
X401490D01*
X402465Y85895D01*
X403292Y86448D01*
X404045Y87201D01*
X405455D01*
X406208Y86448D01*
D02*
G37*
G36*
X8794Y65500D02*
X7806Y65223D01*
X7779Y65875D01*
X8779D01*
X8794Y65500D01*
D02*
G37*
G36*
X168500Y71000D02*
X172250Y67250D01*
Y64250D01*
X171000Y63000D01*
X164000Y63000D01*
X162500Y64500D01*
X162500Y69750D01*
X163750Y71000D01*
X168500Y71000D01*
D02*
G37*
G36*
X229467Y70495D02*
X229910Y62765D01*
X230029Y62351D01*
X230163Y62110D01*
X222758D01*
X222891Y62351D01*
X223011Y62765D01*
X223116Y63351D01*
X223207Y64110D01*
X223397Y67423D01*
X223460Y72290D01*
X229460D01*
X229467Y70495D01*
D02*
G37*
G36*
X263000Y69500D02*
X266750D01*
X270000Y66250D01*
Y63500D01*
X267750Y61250D01*
X243750D01*
Y72000D01*
X260500D01*
X263000Y69500D01*
D02*
G37*
G36*
X311207Y61043D02*
X310842Y60673D01*
X309580Y59242D01*
X309440Y59039D01*
X309337Y58864D01*
X309271Y58717D01*
X309243Y58597D01*
X307347Y60493D01*
X307467Y60521D01*
X307614Y60587D01*
X307789Y60690D01*
X307992Y60830D01*
X308481Y61223D01*
X309081Y61765D01*
X309793Y62457D01*
X311207Y61043D01*
D02*
G37*
G36*
X-1462Y54042D02*
X-1339Y53951D01*
X-1207Y53870D01*
X-1065Y53800D01*
X-914Y53741D01*
X-754Y53693D01*
X-584Y53657D01*
X-405Y53631D01*
X-216Y53617D01*
X-18Y53613D01*
X-1750Y51881D01*
X-1753Y52079D01*
X-1768Y52268D01*
X-1794Y52447D01*
X-1830Y52617D01*
X-1878Y52778D01*
X-1937Y52929D01*
X-2006Y53070D01*
X-2087Y53202D01*
X-2179Y53325D01*
X-2282Y53438D01*
X-1575Y54145D01*
X-1462Y54042D01*
D02*
G37*
G36*
X110000Y58750D02*
X114125Y54625D01*
X112500Y53000D01*
X109250Y49750D01*
X108000Y49750D01*
X103370Y54380D01*
X107375Y58750D01*
X110000Y58750D01*
D02*
G37*
G36*
X139750Y49250D02*
X133750D01*
X130750Y52250D01*
Y57750D01*
X132250Y59250D01*
X139750D01*
Y49250D01*
D02*
G37*
G36*
X67635Y49653D02*
X67554Y49546D01*
X67483Y49430D01*
X67421Y49306D01*
X67369Y49172D01*
X67326Y49029D01*
X67293Y48878D01*
X67269Y48717D01*
X67255Y48548D01*
X67250Y48369D01*
X65750D01*
X65745Y48548D01*
X65731Y48717D01*
X65707Y48878D01*
X65674Y49029D01*
X65631Y49172D01*
X65579Y49306D01*
X65517Y49430D01*
X65446Y49546D01*
X65365Y49653D01*
X65275Y49750D01*
X67725D01*
X67635Y49653D01*
D02*
G37*
G36*
X236257Y52567D02*
X236876Y51810D01*
Y48923D01*
X225578Y37624D01*
X209414D01*
X208915Y38262D01*
X208628Y38740D01*
X208614Y38797D01*
X208804Y39750D01*
X208732Y40112D01*
X209628Y41382D01*
X215210D01*
X217551Y41848D01*
X219536Y43174D01*
X228994Y52632D01*
X234500D01*
X235851Y52901D01*
X236257Y52567D01*
D02*
G37*
G36*
X-4345Y43298D02*
X-5652Y41341D01*
X-6118Y39000D01*
X-5652Y36659D01*
X-4326Y34674D01*
X-2341Y33348D01*
X0Y32882D01*
X2341Y33348D01*
X4326Y34674D01*
X7024Y37372D01*
X8546Y37099D01*
X8767Y36767D01*
X9677Y36160D01*
X10750Y35946D01*
X11823Y36160D01*
X12733Y36767D01*
X13340Y37677D01*
X13554Y38750D01*
X13340Y39823D01*
X12733Y40733D01*
X12401Y40954D01*
X12128Y42476D01*
X15034Y45382D01*
X27250D01*
X29591Y45848D01*
X31576Y47174D01*
X43212Y58811D01*
X44571Y58373D01*
X44660Y57927D01*
X45267Y57017D01*
X45599Y56796D01*
X45872Y55274D01*
X31716Y41118D01*
X26604D01*
X26308Y41059D01*
X26250Y41082D01*
X21500Y41082D01*
X21500Y41082D01*
X20735Y40765D01*
X19235Y39265D01*
X18918Y38500D01*
X18918Y29750D01*
X18918Y29750D01*
X19103Y29302D01*
X19235Y28985D01*
X19235Y28985D01*
X20235Y27985D01*
X20235Y27985D01*
X21000Y27668D01*
X27500D01*
X27500Y27668D01*
X28266Y27985D01*
X28266Y27985D01*
X29163Y28883D01*
X34250D01*
X36591Y29348D01*
X38576Y30674D01*
X66284Y58383D01*
X71269D01*
X71947Y57112D01*
X71098Y55841D01*
X70632Y53500D01*
X71098Y51159D01*
X72424Y49174D01*
X74409Y47848D01*
X76750Y47382D01*
X83966D01*
X93748Y37601D01*
X93122Y36430D01*
X92500Y36554D01*
X91427Y36340D01*
X91376Y36307D01*
X90375Y35804D01*
X89374Y36307D01*
X89323Y36340D01*
X88250Y36554D01*
X87177Y36340D01*
X86267Y35733D01*
X85831Y35079D01*
X85301Y34970D01*
X84949D01*
X84419Y35079D01*
X83983Y35733D01*
X83073Y36340D01*
X82000Y36554D01*
X80927Y36340D01*
X80017Y35733D01*
X79410Y34823D01*
X79196Y33750D01*
X79410Y32677D01*
X79443Y32627D01*
X79946Y31625D01*
X79443Y30624D01*
X79410Y30573D01*
X79196Y29500D01*
X79410Y28427D01*
X80017Y27517D01*
X80927Y26910D01*
X82000Y26696D01*
X83073Y26910D01*
X83983Y27517D01*
X84590Y28427D01*
X84804Y29500D01*
X84590Y30573D01*
X84557Y30624D01*
X84228Y31278D01*
X84679Y32198D01*
X85985Y32190D01*
X86267Y31767D01*
X87177Y31160D01*
X88250Y30946D01*
X89323Y31160D01*
X89374Y31193D01*
X90375Y31696D01*
X91376Y31193D01*
X91427Y31160D01*
X92500Y30946D01*
X93573Y31160D01*
X94483Y31767D01*
X95090Y32677D01*
X95304Y33750D01*
X96545Y33974D01*
X96848Y32449D01*
X98174Y30464D01*
X125329Y3309D01*
X125157Y2163D01*
X125120Y2039D01*
X91440D01*
X90762Y3309D01*
X90840Y3427D01*
X91054Y4500D01*
X90890Y5324D01*
X91323Y5410D01*
X92233Y6017D01*
X92840Y6927D01*
X93054Y8000D01*
X92840Y9073D01*
X92233Y9983D01*
X91323Y10590D01*
X90250Y10804D01*
X89177Y10590D01*
X88267Y9983D01*
X88233D01*
X87323Y10590D01*
X86273Y10799D01*
X86233Y10899D01*
X86025Y12045D01*
X86733Y12517D01*
X87340Y13427D01*
X87554Y14500D01*
X87390Y15323D01*
X87823Y15410D01*
X88733Y16017D01*
X89340Y16927D01*
X89554Y18000D01*
X89340Y19073D01*
X88733Y19983D01*
X87823Y20590D01*
X86750Y20804D01*
X85677Y20590D01*
X84767Y19983D01*
X84733D01*
X83823Y20590D01*
X82750Y20804D01*
X81677Y20590D01*
X80767Y19983D01*
X80160Y19073D01*
X79946Y18000D01*
X80160Y16927D01*
X80767Y16017D01*
X81677Y15410D01*
X82110Y15323D01*
X81946Y14500D01*
X82160Y13427D01*
X82767Y12517D01*
X83677Y11910D01*
X84727Y11701D01*
X84767Y11601D01*
X84974Y10455D01*
X84267Y9983D01*
X83660Y9073D01*
X83446Y8000D01*
X83660Y6927D01*
X84267Y6017D01*
X85177Y5410D01*
X85610Y5324D01*
X85446Y4500D01*
X85660Y3427D01*
X85738Y3309D01*
X85059Y2039D01*
X76908D01*
X76166Y3309D01*
X76304Y4000D01*
X76090Y5073D01*
X75567Y5856D01*
X75520Y5985D01*
X75465Y6043D01*
X75448Y6066D01*
X75430Y6095D01*
X75412Y6132D01*
X75393Y6181D01*
X75375Y6242D01*
X75358Y6317D01*
X75345Y6407D01*
X75336Y6512D01*
X75332Y6660D01*
X75284Y6767D01*
Y25250D01*
X75149Y25933D01*
X74762Y26512D01*
X68284Y32989D01*
Y48233D01*
X68332Y48340D01*
X68336Y48488D01*
X68345Y48592D01*
X68358Y48683D01*
X68375Y48758D01*
X68393Y48819D01*
X68412Y48868D01*
X68431Y48905D01*
X68448Y48934D01*
X68465Y48957D01*
X68520Y49015D01*
X68567Y49144D01*
X69090Y49927D01*
X69304Y51000D01*
X69090Y52073D01*
X68483Y52983D01*
X67573Y53590D01*
X66500Y53804D01*
X65427Y53590D01*
X64517Y52983D01*
X63910Y52073D01*
X63696Y51000D01*
X63910Y49927D01*
X64433Y49144D01*
X64480Y49015D01*
X64535Y48957D01*
X64552Y48934D01*
X64570Y48905D01*
X64588Y48868D01*
X64607Y48819D01*
X64625Y48758D01*
X64642Y48683D01*
X64655Y48593D01*
X64664Y48488D01*
X64668Y48340D01*
X64716Y48233D01*
Y32250D01*
X64852Y31567D01*
X65238Y30988D01*
X71716Y24511D01*
Y6767D01*
X71668Y6660D01*
X71664Y6512D01*
X71655Y6408D01*
X71642Y6317D01*
X71625Y6242D01*
X71607Y6181D01*
X71588Y6132D01*
X71570Y6095D01*
X71552Y6066D01*
X71535Y6043D01*
X71480Y5985D01*
X71433Y5856D01*
X70910Y5073D01*
X70696Y4000D01*
X70834Y3309D01*
X70092Y2039D01*
X62806D01*
X62421Y3309D01*
X62733Y3517D01*
X63340Y4427D01*
X63554Y5500D01*
X63340Y6573D01*
X62733Y7483D01*
X61823Y8090D01*
X60873Y8280D01*
X60752Y8332D01*
X60585Y8335D01*
X60464Y8345D01*
X60357Y8360D01*
X60265Y8379D01*
X60187Y8403D01*
X60121Y8428D01*
X60115Y8431D01*
X52148Y16398D01*
X51000Y16874D01*
X20422D01*
X10898Y26398D01*
X9750Y26874D01*
X-1518D01*
X-2992Y28384D01*
X-3002Y28388D01*
X-3006Y28398D01*
X-3571Y28632D01*
X-4134Y28874D01*
X-4144Y28870D01*
X-4154Y28874D01*
X-7999D01*
X-23126Y44001D01*
Y60284D01*
X-21856Y60810D01*
X-4345Y43298D01*
D02*
G37*
G36*
X404733Y35250D02*
X404534Y35247D01*
X404345Y35232D01*
X404166Y35206D01*
X403996Y35170D01*
X403836Y35122D01*
X403685Y35064D01*
X403543Y34994D01*
X403411Y34913D01*
X403288Y34821D01*
X403175Y34718D01*
X402468Y35425D01*
X402571Y35538D01*
X402663Y35661D01*
X402744Y35793D01*
X402813Y35935D01*
X402872Y36086D01*
X402920Y36246D01*
X402957Y36416D01*
X402982Y36595D01*
X402997Y36784D01*
X403000Y36983D01*
X404733Y35250D01*
D02*
G37*
G36*
X207647Y34036D02*
X207542Y33920D01*
X207450Y33795D01*
X207373Y33663D01*
X207310Y33522D01*
X207262Y33374D01*
X207227Y33217D01*
X207207Y33053D01*
X207200Y32881D01*
X207208Y32700D01*
X207230Y32512D01*
X205273Y33985D01*
X205477Y34016D01*
X205853Y34102D01*
X206025Y34156D01*
X206187Y34217D01*
X206338Y34286D01*
X206478Y34363D01*
X206608Y34447D01*
X206727Y34539D01*
X206836Y34639D01*
X207647Y34036D01*
D02*
G37*
G36*
X354250Y32275D02*
X354108Y32413D01*
X353964Y32536D01*
X353819Y32645D01*
X353673Y32739D01*
X353526Y32819D01*
X353377Y32884D01*
X353228Y32935D01*
X353077Y32971D01*
X352926Y32993D01*
X352773Y33000D01*
Y34000D01*
X352926Y34007D01*
X353077Y34029D01*
X353228Y34065D01*
X353377Y34116D01*
X353526Y34181D01*
X353673Y34261D01*
X353819Y34355D01*
X353964Y34464D01*
X354108Y34587D01*
X354250Y34725D01*
Y32275D01*
D02*
G37*
G36*
X360983Y31828D02*
X360784Y31825D01*
X360595Y31811D01*
X360416Y31785D01*
X360246Y31748D01*
X360086Y31701D01*
X359935Y31642D01*
X359793Y31572D01*
X359661Y31491D01*
X359538Y31400D01*
X359425Y31297D01*
X358718Y32004D01*
X358821Y32117D01*
X358913Y32239D01*
X358994Y32371D01*
X359063Y32513D01*
X359122Y32664D01*
X359170Y32824D01*
X359207Y32994D01*
X359232Y33174D01*
X359247Y33363D01*
X359250Y33561D01*
X360983Y31828D01*
D02*
G37*
G36*
X97250Y53882D02*
X100716D01*
X101674Y52924D01*
X103659Y51598D01*
X104773Y51377D01*
X105632Y50500D01*
X106098Y48159D01*
X107424Y46174D01*
X109409Y44848D01*
X111750Y44383D01*
X118250D01*
X120591Y44848D01*
X122576Y46174D01*
X128326Y51924D01*
X128453Y52115D01*
X128663Y52139D01*
X129822Y51877D01*
X129985Y51485D01*
X131181Y50288D01*
X131424Y49924D01*
X131788Y49681D01*
X131933Y49537D01*
X131874Y49141D01*
X131433Y48241D01*
X130677Y48091D01*
X129767Y47483D01*
X129160Y46573D01*
X128946Y45500D01*
X129160Y44427D01*
X129767Y43517D01*
X130234Y43206D01*
X130242Y43185D01*
Y41815D01*
X130234Y41795D01*
X129767Y41483D01*
X129160Y40573D01*
X128946Y39500D01*
X129160Y38427D01*
X129309Y38204D01*
X129667Y37250D01*
X129309Y36296D01*
X129160Y36073D01*
X128946Y35000D01*
X129160Y33927D01*
X129767Y33017D01*
X130677Y32410D01*
X131750Y32196D01*
X131895Y32225D01*
X132975Y31145D01*
X132946Y31000D01*
X132975Y30855D01*
X131895Y29775D01*
X131750Y29804D01*
X130677Y29590D01*
X129767Y28983D01*
X129160Y28073D01*
X128946Y27000D01*
X129160Y25927D01*
X129767Y25017D01*
Y24483D01*
X129160Y23573D01*
X128946Y22500D01*
X129160Y21427D01*
X129767Y20517D01*
X130234Y20206D01*
X130242Y20185D01*
Y18815D01*
X130234Y18794D01*
X129767Y18483D01*
X129562Y18175D01*
X128030Y17911D01*
X108617Y37324D01*
Y37500D01*
X108152Y39841D01*
X106826Y41826D01*
X95769Y52882D01*
X96395Y54053D01*
X97250Y53882D01*
D02*
G37*
G36*
X245642Y31821D02*
X244369Y30407D01*
X243379Y28993D01*
X242672Y27578D01*
X242248Y26164D01*
X242107Y24750D01*
X242248Y23336D01*
X242672Y21922D01*
X243379Y20507D01*
X244369Y19093D01*
X245642Y17679D01*
X236500Y12679D01*
X235060Y14022D01*
X233567Y15224D01*
X232023Y16285D01*
X230426Y17204D01*
X228777Y17982D01*
X227076Y18619D01*
X225323Y19114D01*
X223517Y19467D01*
X221677Y19677D01*
X213750Y11750D01*
X195500D01*
Y21750D01*
X203500Y29750D01*
X204292D01*
X204427Y29660D01*
X205500Y29446D01*
X206573Y29660D01*
X206708Y29750D01*
X209729D01*
X210000Y29696D01*
X210271Y29750D01*
X219751D01*
X221660Y29821D01*
X223517Y30033D01*
X225323Y30386D01*
X227076Y30881D01*
X228777Y31518D01*
X230426Y32296D01*
X232023Y33215D01*
X233567Y34276D01*
X235060Y35478D01*
X236500Y36821D01*
X245642Y31821D01*
D02*
G37*
G36*
X26250Y40000D02*
X30427Y35823D01*
X30427Y31677D01*
X27500Y28750D01*
X21000D01*
X20000Y29750D01*
X20000Y38500D01*
X21500Y40000D01*
X26250Y40000D01*
D02*
G37*
G36*
X199268Y40112D02*
X199196Y39750D01*
X199410Y38677D01*
X200017Y37767D01*
X200927Y37160D01*
X202000Y36946D01*
X203073Y37160D01*
X203983Y37767D01*
X204017D01*
X204927Y37160D01*
X205277Y37090D01*
X205699Y36395D01*
X205862Y35803D01*
X205324Y35092D01*
X205275Y35080D01*
X205109Y35055D01*
X204914Y34937D01*
X204427Y34840D01*
X203517Y34233D01*
X202910Y33323D01*
X202696Y32250D01*
X202910Y31177D01*
X202927Y31151D01*
X202735Y30515D01*
X195087Y22868D01*
X190284D01*
X189076Y24076D01*
X187407Y25191D01*
X187076Y25720D01*
X187028Y26709D01*
X187340Y27177D01*
X187554Y28250D01*
X187340Y29323D01*
X186733Y30233D01*
X186960Y31608D01*
X187340Y32177D01*
X187554Y33250D01*
X187382Y34112D01*
X187775Y34885D01*
X188160Y35382D01*
X188250D01*
X190591Y35848D01*
X192576Y37174D01*
X196784Y41382D01*
X198372D01*
X199268Y40112D01*
D02*
G37*
G36*
X339151Y27841D02*
X339596Y26999D01*
X339631Y26819D01*
X339560Y26532D01*
X338886Y25549D01*
X319250D01*
X318275Y25355D01*
X317448Y24802D01*
X305000Y12355D01*
X304927Y12340D01*
X304865Y12299D01*
X302635D01*
X302573Y12341D01*
X301500Y12554D01*
X300427Y12341D01*
X299517Y11733D01*
X298910Y10823D01*
X298696Y9750D01*
X298910Y8677D01*
X299517Y7768D01*
X299703Y7644D01*
X299317Y6374D01*
X285422D01*
X279601Y12195D01*
X280320Y13272D01*
X280672Y13126D01*
X291078D01*
X292227Y13602D01*
X306751Y28126D01*
X338226D01*
X339151Y27841D01*
D02*
G37*
G36*
X59288Y7679D02*
X59411Y7587D01*
X59543Y7506D01*
X59685Y7437D01*
X59836Y7378D01*
X59996Y7330D01*
X60166Y7293D01*
X60345Y7268D01*
X60534Y7253D01*
X60732Y7250D01*
X59000Y5518D01*
X58997Y5716D01*
X58982Y5905D01*
X58956Y6084D01*
X58920Y6254D01*
X58872Y6414D01*
X58814Y6565D01*
X58744Y6707D01*
X58663Y6839D01*
X58571Y6962D01*
X58468Y7075D01*
X59175Y7782D01*
X59288Y7679D01*
D02*
G37*
G36*
X74255Y6453D02*
X74269Y6283D01*
X74293Y6122D01*
X74326Y5971D01*
X74369Y5828D01*
X74421Y5694D01*
X74483Y5570D01*
X74554Y5454D01*
X74635Y5347D01*
X74725Y5250D01*
X72275D01*
X72365Y5347D01*
X72446Y5454D01*
X72517Y5570D01*
X72579Y5694D01*
X72631Y5828D01*
X72674Y5971D01*
X72707Y6122D01*
X72731Y6283D01*
X72745Y6453D01*
X72750Y6631D01*
X74250D01*
X74255Y6453D01*
D02*
G37*
G36*
X18602Y14102D02*
X19750Y13626D01*
X50328D01*
X57819Y6135D01*
X57822Y6129D01*
X57847Y6063D01*
X57870Y5986D01*
X57890Y5893D01*
X57906Y5787D01*
X57915Y5665D01*
X57918Y5498D01*
X57971Y5377D01*
X58160Y4427D01*
X58767Y3517D01*
X59079Y3309D01*
X58694Y2039D01*
X2039D01*
Y12000D01*
X2029Y12050D01*
X2037Y12100D01*
X1998Y12884D01*
X1961Y13031D01*
Y13182D01*
X1655Y14720D01*
X1578Y14906D01*
X1539Y15103D01*
X1017Y16363D01*
X1058Y17320D01*
X1553Y17990D01*
X1983Y18277D01*
X2590Y19187D01*
X2804Y20260D01*
X2590Y21333D01*
X1983Y22242D01*
X1812Y22356D01*
X2197Y23626D01*
X9078D01*
X18602Y14102D01*
D02*
G37*
G36*
X172424Y15424D02*
X174409Y14098D01*
X176750Y13633D01*
X176961D01*
X177794Y12362D01*
X177696Y11868D01*
X177910Y10795D01*
X178517Y9885D01*
X179427Y9277D01*
X180500Y9064D01*
X181573Y9277D01*
X182483Y9885D01*
X183090Y10795D01*
X183148Y11082D01*
X184537Y11681D01*
X185409Y11098D01*
X186956Y10790D01*
Y9495D01*
X186177Y9340D01*
X185267Y8733D01*
X184660Y7823D01*
X184446Y6750D01*
X184660Y5677D01*
X185023Y5134D01*
X185020Y3605D01*
X183974Y2039D01*
X179740D01*
X179537Y2302D01*
X179177Y3309D01*
X179590Y3927D01*
X179804Y5000D01*
X179590Y6073D01*
X178983Y6983D01*
X178073Y7590D01*
X177000Y7804D01*
X175927Y7590D01*
X175017Y6983D01*
X174410Y6073D01*
X174196Y5000D01*
X174410Y3927D01*
X174823Y3309D01*
X174463Y2302D01*
X174260Y2039D01*
X159325D01*
X158466Y3309D01*
X158554Y3750D01*
X158340Y4823D01*
X157733Y5733D01*
X157402Y5954D01*
X157128Y7476D01*
X166784Y17133D01*
X170716D01*
X172424Y15424D01*
D02*
G37*
G36*
X223351Y18397D02*
X225071Y18060D01*
X226739Y17589D01*
X228356Y16984D01*
X229924Y16244D01*
X231445Y15369D01*
X232920Y14356D01*
X234350Y13204D01*
X235009Y12590D01*
X244289Y3309D01*
X243763Y2039D01*
X205026Y2039D01*
X204057Y3489D01*
X204239Y4068D01*
X204602Y4716D01*
X205573Y4910D01*
X206483Y5517D01*
X207090Y6427D01*
X207304Y7500D01*
X207090Y8573D01*
X206539Y9398D01*
X206638Y9842D01*
X206995Y10668D01*
X213750D01*
X214515Y10985D01*
X222073Y18543D01*
X223351Y18397D01*
D02*
G37*
G36*
X271876Y49827D02*
Y16000D01*
X272352Y14852D01*
X283602Y3602D01*
X284309Y3309D01*
X284056Y2039D01*
X266113D01*
X265583Y3309D01*
X266652Y4909D01*
X267118Y7250D01*
X266652Y9591D01*
X265326Y11576D01*
X263955Y12492D01*
X264223Y13840D01*
X264573Y13910D01*
X265483Y14517D01*
X266090Y15427D01*
X266304Y16500D01*
X266090Y17573D01*
X265483Y18483D01*
X265016Y18794D01*
X265008Y18815D01*
Y20185D01*
X265016Y20206D01*
X265483Y20517D01*
X266090Y21427D01*
X266304Y22500D01*
X266090Y23573D01*
X265483Y24483D01*
Y25017D01*
X266090Y25927D01*
X266304Y27000D01*
X266090Y28073D01*
X265483Y28983D01*
X264573Y29590D01*
X263500Y29804D01*
X262968Y30928D01*
Y31072D01*
X263500Y32196D01*
X264573Y32410D01*
X265483Y33017D01*
X266090Y33927D01*
X266304Y35000D01*
X266090Y36073D01*
X265941Y36296D01*
X265583Y37250D01*
X265941Y38204D01*
X266090Y38427D01*
X266304Y39500D01*
X266090Y40573D01*
X265483Y41483D01*
X265016Y41794D01*
X265008Y41815D01*
Y43185D01*
X265016Y43206D01*
X265483Y43517D01*
X266090Y44427D01*
X266304Y45500D01*
X266090Y46573D01*
X265483Y47483D01*
X264820Y47926D01*
X264735Y48039D01*
X264467Y48934D01*
X264406Y49419D01*
X265402Y50909D01*
X265868Y53250D01*
X265671Y54236D01*
X266842Y54862D01*
X271876Y49827D01*
D02*
G37*
%LPC*%
G36*
X358000Y283804D02*
X356927Y283590D01*
X356017Y282983D01*
X355410Y282073D01*
X355196Y281000D01*
X355410Y279927D01*
X355790Y279358D01*
X355932Y278500D01*
X355790Y277642D01*
X355410Y277073D01*
X355196Y276000D01*
X355410Y274927D01*
X356017Y274017D01*
X356927Y273410D01*
X358000Y273196D01*
X359073Y273410D01*
X359982Y274017D01*
X360590Y274927D01*
X360804Y276000D01*
X360590Y277073D01*
X360210Y277642D01*
X360068Y278500D01*
X360210Y279358D01*
X360590Y279927D01*
X360804Y281000D01*
X360590Y282073D01*
X359982Y282983D01*
X359073Y283590D01*
X358000Y283804D01*
D02*
G37*
G36*
X406000Y262554D02*
X404927Y262340D01*
X404017Y261733D01*
X403410Y260823D01*
X403196Y259750D01*
X403410Y258677D01*
X404017Y257767D01*
X404927Y257160D01*
X406000Y256946D01*
X407073Y257160D01*
X407983Y257767D01*
X408590Y258677D01*
X408804Y259750D01*
X408590Y260823D01*
X407983Y261733D01*
X407073Y262340D01*
X406000Y262554D01*
D02*
G37*
G36*
X402000Y249804D02*
X400927Y249590D01*
X400017Y248983D01*
X399410Y248073D01*
X399196Y247000D01*
X399410Y245927D01*
X400017Y245017D01*
X400927Y244410D01*
X402000Y244196D01*
X403073Y244410D01*
X403983Y245017D01*
X404590Y245927D01*
X404804Y247000D01*
X404590Y248073D01*
X403983Y248983D01*
X403073Y249590D01*
X402000Y249804D01*
D02*
G37*
G36*
X413750Y234304D02*
X412677Y234090D01*
X411768Y233483D01*
X411160Y232573D01*
X410946Y231500D01*
X411160Y230427D01*
X411768Y229517D01*
X412677Y228910D01*
X413750Y228696D01*
X414823Y228910D01*
X415733Y229517D01*
X416341Y230427D01*
X416554Y231500D01*
X416341Y232573D01*
X415733Y233483D01*
X414823Y234090D01*
X413750Y234304D01*
D02*
G37*
G36*
X410000Y70054D02*
X408927Y69840D01*
X408017Y69233D01*
X407410Y68323D01*
X407196Y67250D01*
X407410Y66177D01*
X408017Y65267D01*
X408927Y64660D01*
X410000Y64446D01*
X411073Y64660D01*
X411983Y65267D01*
X412590Y66177D01*
X412804Y67250D01*
X412590Y68323D01*
X411983Y69233D01*
X411073Y69840D01*
X410000Y70054D01*
D02*
G37*
G36*
X403000Y12304D02*
X401927Y12091D01*
X401017Y11483D01*
X400410Y10573D01*
X400196Y9500D01*
X400410Y8427D01*
X401017Y7517D01*
X401927Y6910D01*
X403000Y6696D01*
X404073Y6910D01*
X404983Y7517D01*
X405590Y8427D01*
X405804Y9500D01*
X405590Y10573D01*
X404983Y11483D01*
X404073Y12091D01*
X403000Y12304D01*
D02*
G37*
G36*
X-2750Y238554D02*
X-3823Y238340D01*
X-4733Y237733D01*
X-5340Y236823D01*
X-5554Y235750D01*
X-5340Y234677D01*
X-4733Y233767D01*
X-3823Y233160D01*
X-2750Y232946D01*
X-1677Y233160D01*
X-767Y233767D01*
X-160Y234677D01*
X54Y235750D01*
X-160Y236823D01*
X-767Y237733D01*
X-1677Y238340D01*
X-2750Y238554D01*
D02*
G37*
G36*
X1750Y223554D02*
X677Y223340D01*
X-233Y222733D01*
X-840Y221823D01*
X-1054Y220750D01*
X-840Y219677D01*
X-233Y218767D01*
X677Y218160D01*
X1750Y217946D01*
X2823Y218160D01*
X3733Y218767D01*
X4340Y219677D01*
X4554Y220750D01*
X4340Y221823D01*
X3733Y222733D01*
X2823Y223340D01*
X1750Y223554D01*
D02*
G37*
G36*
X149250Y248504D02*
X148177Y248290D01*
X147268Y247683D01*
X146660Y246773D01*
X146446Y245700D01*
X146660Y244627D01*
X147268Y243717D01*
X148177Y243110D01*
X149250Y242896D01*
X150323Y243110D01*
X151233Y243717D01*
X151840Y244627D01*
X152054Y245700D01*
X151840Y246773D01*
X151233Y247683D01*
X150323Y248290D01*
X149250Y248504D01*
D02*
G37*
G36*
X264250Y253554D02*
X263177Y253340D01*
X262267Y252733D01*
X261660Y251823D01*
X261446Y250750D01*
X261660Y249677D01*
X262267Y248767D01*
X263177Y248160D01*
X264250Y247946D01*
X265323Y248160D01*
X266233Y248767D01*
X266840Y249677D01*
X267054Y250750D01*
X266840Y251823D01*
X266233Y252733D01*
X265323Y253340D01*
X264250Y253554D01*
D02*
G37*
G36*
X224500Y210054D02*
X223427Y209841D01*
X222517Y209233D01*
X221909Y208323D01*
X221696Y207250D01*
X221909Y206177D01*
X222517Y205268D01*
X223427Y204660D01*
X224500Y204446D01*
X225573Y204660D01*
X226483Y205268D01*
X227090Y206177D01*
X227304Y207250D01*
X227090Y208323D01*
X226483Y209233D01*
X225573Y209841D01*
X224500Y210054D01*
D02*
G37*
G36*
X381750Y242304D02*
X380677Y242090D01*
X379767Y241483D01*
X379160Y240573D01*
X378946Y239500D01*
X379160Y238427D01*
X379767Y237517D01*
X380677Y236910D01*
X381750Y236696D01*
X382823Y236910D01*
X383733Y237517D01*
X384340Y238427D01*
X384554Y239500D01*
X384340Y240573D01*
X383733Y241483D01*
X382823Y242090D01*
X381750Y242304D01*
D02*
G37*
G36*
X142000Y221804D02*
X140927Y221590D01*
X140017Y220983D01*
X139410Y220073D01*
X139196Y219000D01*
X139410Y217927D01*
X140017Y217017D01*
X140927Y216410D01*
X142000Y216196D01*
X143073Y216410D01*
X143983Y217017D01*
X144590Y217927D01*
X144804Y219000D01*
X144590Y220073D01*
X143983Y220983D01*
X143073Y221590D01*
X142000Y221804D01*
D02*
G37*
G36*
X175750Y193554D02*
X174677Y193340D01*
X173767Y192733D01*
X173160Y191823D01*
X172946Y190750D01*
X173160Y189677D01*
X173767Y188767D01*
X174677Y188160D01*
X175750Y187946D01*
X176823Y188160D01*
X177733Y188767D01*
X178340Y189677D01*
X178554Y190750D01*
X178340Y191823D01*
X177733Y192733D01*
X176823Y193340D01*
X175750Y193554D01*
D02*
G37*
G36*
X335955Y102974D02*
X334882Y102760D01*
X333973Y102153D01*
X333365Y101243D01*
X333151Y100170D01*
X333365Y99097D01*
X333973Y98187D01*
X334882Y97580D01*
X335955Y97366D01*
X336481Y96840D01*
X336695Y95767D01*
X337303Y94857D01*
X338212Y94250D01*
X339285Y94036D01*
X340358Y94250D01*
X341268Y94857D01*
X341876Y95767D01*
X342089Y96840D01*
X341876Y97913D01*
X341268Y98823D01*
X340358Y99430D01*
X339285Y99644D01*
X338759Y100170D01*
X338546Y101243D01*
X337938Y102153D01*
X337028Y102760D01*
X335955Y102974D01*
D02*
G37*
G36*
X329750Y53554D02*
X328677Y53341D01*
X327767Y52733D01*
X327160Y51823D01*
X326946Y50750D01*
X327160Y49677D01*
X327767Y48767D01*
X328677Y48160D01*
X329750Y47946D01*
X330823Y48160D01*
X331733Y48767D01*
X332340Y49677D01*
X332554Y50750D01*
X332340Y51823D01*
X331733Y52733D01*
X330823Y53341D01*
X329750Y53554D01*
D02*
G37*
G36*
X56750Y212804D02*
X55677Y212590D01*
X54767Y211983D01*
X54160Y211073D01*
X53946Y210000D01*
X54160Y208927D01*
X54767Y208017D01*
X55677Y207410D01*
X56750Y207196D01*
X57823Y207410D01*
X58733Y208017D01*
X59340Y208927D01*
X59554Y210000D01*
X59340Y211073D01*
X58733Y211983D01*
X57823Y212590D01*
X56750Y212804D01*
D02*
G37*
G36*
X115500Y194804D02*
X114427Y194590D01*
X114376Y194557D01*
X113375Y194054D01*
X112374Y194557D01*
X112323Y194590D01*
X111250Y194804D01*
X110177Y194590D01*
X109954Y194441D01*
X109000Y194083D01*
X108046Y194441D01*
X107823Y194590D01*
X106750Y194804D01*
X105677Y194590D01*
X104767Y193983D01*
X104160Y193073D01*
X103946Y192000D01*
X104160Y190927D01*
X104767Y190017D01*
X105677Y189410D01*
X106750Y189196D01*
X107823Y189410D01*
X108046Y189559D01*
X109000Y189917D01*
X109954Y189559D01*
X110177Y189410D01*
X111250Y189196D01*
X112323Y189410D01*
X112374Y189443D01*
X113375Y189946D01*
X114376Y189443D01*
X114427Y189410D01*
X115500Y189196D01*
X116573Y189410D01*
X117483Y190017D01*
X118090Y190927D01*
X118304Y192000D01*
X118090Y193073D01*
X117483Y193983D01*
X116573Y194590D01*
X115500Y194804D01*
D02*
G37*
G36*
X322635Y189555D02*
X321562Y189341D01*
X320652Y188733D01*
X320045Y187824D01*
X319831Y186751D01*
X320045Y185678D01*
X320652Y184768D01*
X321562Y184160D01*
X322635Y183947D01*
X323708Y184160D01*
X324618Y184768D01*
X325225Y185678D01*
X325439Y186751D01*
X325225Y187824D01*
X324618Y188733D01*
X323708Y189341D01*
X322635Y189555D01*
D02*
G37*
G36*
X90750Y188304D02*
X89677Y188090D01*
X88767Y187483D01*
X88160Y186573D01*
X87946Y185500D01*
X88160Y184427D01*
X88767Y183517D01*
X89677Y182910D01*
X90750Y182696D01*
X91823Y182910D01*
X92733Y183517D01*
X93340Y184427D01*
X93554Y185500D01*
X93340Y186573D01*
X92733Y187483D01*
X91823Y188090D01*
X90750Y188304D01*
D02*
G37*
G36*
X127509Y171304D02*
X126437Y171090D01*
X125527Y170483D01*
X124919Y169573D01*
X124706Y168500D01*
X124919Y167427D01*
X125527Y166517D01*
X126437Y165910D01*
X127509Y165696D01*
X128582Y165910D01*
X129492Y166517D01*
X130100Y167427D01*
X130313Y168500D01*
X130100Y169573D01*
X129492Y170483D01*
X128582Y171090D01*
X127509Y171304D01*
D02*
G37*
G36*
X142509Y161304D02*
X141437Y161090D01*
X140527Y160483D01*
X139919Y159573D01*
X139706Y158500D01*
X139919Y157427D01*
X140527Y156517D01*
X141437Y155910D01*
X142509Y155696D01*
X143582Y155910D01*
X144492Y156517D01*
X145100Y157427D01*
X145313Y158500D01*
X145100Y159573D01*
X144492Y160483D01*
X143582Y161090D01*
X142509Y161304D01*
D02*
G37*
G36*
X123000Y166054D02*
X121927Y165840D01*
X121017Y165233D01*
X120410Y164323D01*
X120196Y163250D01*
X120410Y162177D01*
X121017Y161267D01*
X121927Y160660D01*
X123000Y160446D01*
X124073Y160660D01*
X124154Y160714D01*
X125069Y159798D01*
X124919Y159573D01*
X124706Y158500D01*
X124919Y157427D01*
X125527Y156517D01*
X126437Y155910D01*
X127509Y155696D01*
X128582Y155910D01*
X129492Y156517D01*
X130100Y157427D01*
X130313Y158500D01*
X130100Y159573D01*
X129492Y160483D01*
X128582Y161090D01*
X127509Y161304D01*
X126437Y161090D01*
X126356Y161036D01*
X125440Y161952D01*
X125590Y162177D01*
X125804Y163250D01*
X125590Y164323D01*
X124983Y165233D01*
X124073Y165840D01*
X123000Y166054D01*
D02*
G37*
G36*
X137509Y156304D02*
X136437Y156090D01*
X135527Y155483D01*
X134919Y154573D01*
X134706Y153500D01*
X134919Y152427D01*
X135527Y151517D01*
X136437Y150910D01*
X137509Y150696D01*
X138582Y150910D01*
X139492Y151517D01*
X140100Y152427D01*
X140313Y153500D01*
X140100Y154573D01*
X139492Y155483D01*
X138582Y156090D01*
X137509Y156304D01*
D02*
G37*
G36*
X88750Y158554D02*
X87677Y158340D01*
X86767Y157733D01*
X86160Y156823D01*
X85946Y155750D01*
X86160Y154677D01*
X86447Y154246D01*
X86666Y153350D01*
X86447Y152454D01*
X86160Y152023D01*
X85946Y150950D01*
X86160Y149877D01*
X86767Y148967D01*
X87677Y148360D01*
X88750Y148146D01*
X89823Y148360D01*
X90733Y148967D01*
X91341Y149877D01*
X91554Y150950D01*
X91341Y152023D01*
X91053Y152454D01*
X90834Y153350D01*
X91053Y154246D01*
X91341Y154677D01*
X91554Y155750D01*
X91341Y156823D01*
X90733Y157733D01*
X89823Y158340D01*
X88750Y158554D01*
D02*
G37*
G36*
X152645Y151304D02*
X151572Y151090D01*
X150662Y150483D01*
X150054Y149573D01*
X149841Y148500D01*
X150054Y147427D01*
X150662Y146517D01*
X151572Y145910D01*
X152645Y145696D01*
X153718Y145910D01*
X154627Y146517D01*
X155235Y147427D01*
X155449Y148500D01*
X155235Y149573D01*
X154627Y150483D01*
X153718Y151090D01*
X152645Y151304D01*
D02*
G37*
G36*
X122509D02*
X121437Y151090D01*
X120527Y150483D01*
X119919Y149573D01*
X119706Y148500D01*
X119919Y147427D01*
X120527Y146517D01*
X121437Y145910D01*
X122509Y145696D01*
X123582Y145910D01*
X124492Y146517D01*
X125100Y147427D01*
X125313Y148500D01*
X125100Y149573D01*
X124492Y150483D01*
X123582Y151090D01*
X122509Y151304D01*
D02*
G37*
G36*
X127509Y146304D02*
X126437Y146090D01*
X125527Y145483D01*
X124919Y144573D01*
X124706Y143500D01*
X124919Y142427D01*
X125527Y141517D01*
X126437Y140910D01*
X127509Y140696D01*
X128582Y140910D01*
X129492Y141517D01*
X130100Y142427D01*
X130313Y143500D01*
X130100Y144573D01*
X129492Y145483D01*
X128582Y146090D01*
X127509Y146304D01*
D02*
G37*
G36*
X157509Y146304D02*
X156437Y146090D01*
X155527Y145483D01*
X154919Y144573D01*
X154706Y143500D01*
X154919Y142427D01*
X155527Y141517D01*
X156437Y140910D01*
X157509Y140696D01*
X158582Y140910D01*
X159492Y141517D01*
X160100Y142427D01*
X160313Y143500D01*
X160100Y144573D01*
X159492Y145483D01*
X158582Y146090D01*
X157509Y146304D01*
D02*
G37*
G36*
X137509D02*
X136437Y146090D01*
X135527Y145483D01*
X134919Y144573D01*
X134706Y143500D01*
X134919Y142427D01*
X135527Y141517D01*
X136437Y140910D01*
X137509Y140696D01*
X138582Y140910D01*
X139492Y141517D01*
X140100Y142427D01*
X140313Y143500D01*
X140100Y144573D01*
X139492Y145483D01*
X138582Y146090D01*
X137509Y146304D01*
D02*
G37*
G36*
X162509Y141304D02*
X161437Y141090D01*
X160527Y140483D01*
X159919Y139573D01*
X159706Y138500D01*
X159919Y137427D01*
X160527Y136517D01*
X161437Y135910D01*
X162509Y135696D01*
X163582Y135910D01*
X164492Y136517D01*
X165100Y137427D01*
X165313Y138500D01*
X165100Y139573D01*
X164492Y140483D01*
X163582Y141090D01*
X162509Y141304D01*
D02*
G37*
G36*
X142509D02*
X141437Y141090D01*
X140527Y140483D01*
X139919Y139573D01*
X139706Y138500D01*
X139919Y137427D01*
X140527Y136517D01*
X141437Y135910D01*
X142509Y135696D01*
X143582Y135910D01*
X144492Y136517D01*
X145100Y137427D01*
X145313Y138500D01*
X145100Y139573D01*
X144492Y140483D01*
X143582Y141090D01*
X142509Y141304D01*
D02*
G37*
G36*
X157509Y136304D02*
X156437Y136090D01*
X155527Y135483D01*
X154919Y134573D01*
X154706Y133500D01*
X154919Y132427D01*
X155527Y131517D01*
X156437Y130910D01*
X157509Y130696D01*
X158582Y130910D01*
X159492Y131517D01*
X160100Y132427D01*
X160313Y133500D01*
X160100Y134573D01*
X159492Y135483D01*
X158582Y136090D01*
X157509Y136304D01*
D02*
G37*
G36*
X147509Y136304D02*
X146437Y136090D01*
X145527Y135483D01*
X144919Y134573D01*
X144706Y133500D01*
X144919Y132427D01*
X145527Y131517D01*
X146437Y130910D01*
X147509Y130696D01*
X148582Y130910D01*
X149492Y131517D01*
X150100Y132427D01*
X150313Y133500D01*
X150100Y134573D01*
X149492Y135483D01*
X148582Y136090D01*
X147509Y136304D01*
D02*
G37*
G36*
X191000Y140054D02*
X189927Y139840D01*
X189017Y139233D01*
X188410Y138323D01*
X188196Y137250D01*
X188410Y136177D01*
X188443Y136126D01*
X188946Y135125D01*
X188443Y134123D01*
X188410Y134073D01*
X188196Y133000D01*
X188410Y131927D01*
X189017Y131017D01*
X189927Y130410D01*
X191000Y130196D01*
X192073Y130410D01*
X192983Y131017D01*
X193590Y131927D01*
X193804Y133000D01*
X193590Y134073D01*
X193557Y134123D01*
X193054Y135125D01*
X193557Y136126D01*
X193590Y136177D01*
X193804Y137250D01*
X193590Y138323D01*
X192983Y139233D01*
X192073Y139840D01*
X191000Y140054D01*
D02*
G37*
G36*
X335955Y136274D02*
X334882Y136061D01*
X333973Y135453D01*
X333365Y134543D01*
X333151Y133470D01*
X333365Y132397D01*
X333973Y131488D01*
X334882Y130880D01*
X335299Y130797D01*
X335345Y130788D01*
Y129493D01*
X335299Y129483D01*
X334882Y129401D01*
X333973Y128793D01*
X333365Y127883D01*
X333282Y127467D01*
X333273Y127420D01*
X331978D01*
X331968Y127467D01*
X331885Y127883D01*
X331278Y128793D01*
X330368Y129401D01*
X329295Y129614D01*
X328222Y129401D01*
X327313Y128793D01*
X326705Y127883D01*
X326491Y126810D01*
X326705Y125737D01*
X327313Y124827D01*
X328222Y124220D01*
X328639Y124137D01*
X328685Y124128D01*
Y122833D01*
X328639Y122823D01*
X328222Y122740D01*
X327313Y122133D01*
X326705Y121223D01*
X326491Y120150D01*
X326705Y119077D01*
X327313Y118167D01*
X328222Y117560D01*
X328656Y117473D01*
X329484Y117009D01*
X329948Y116181D01*
X330035Y115747D01*
X330643Y114838D01*
X331552Y114230D01*
X332625Y114016D01*
X333698Y114230D01*
X334608Y114838D01*
X335215Y115747D01*
X335429Y116820D01*
X335215Y117893D01*
X334608Y118803D01*
X333698Y119411D01*
X333264Y119497D01*
X332436Y119961D01*
X331972Y120789D01*
X331885Y121223D01*
X331278Y122133D01*
X330368Y122740D01*
X329952Y122823D01*
X329905Y122833D01*
Y124128D01*
X329952Y124137D01*
X330368Y124220D01*
X331278Y124827D01*
X331885Y125737D01*
X331968Y126154D01*
X331978Y126200D01*
X333273D01*
X333282Y126154D01*
X333365Y125737D01*
X333973Y124827D01*
X334882Y124220D01*
X335955Y124006D01*
X336481Y123480D01*
X336695Y122407D01*
X337303Y121497D01*
X338212Y120890D01*
X339285Y120676D01*
X339811Y120150D01*
X340025Y119077D01*
X340633Y118167D01*
X341542Y117560D01*
X342615Y117346D01*
X343688Y117560D01*
X344598Y118167D01*
X345206Y119077D01*
X345419Y120150D01*
X345206Y121223D01*
X344598Y122133D01*
X343688Y122740D01*
X342615Y122954D01*
X342089Y123480D01*
X341876Y124553D01*
X341268Y125463D01*
X340358Y126071D01*
X339285Y126284D01*
X338759Y126810D01*
X338546Y127883D01*
X337938Y128793D01*
X337028Y129401D01*
X336612Y129483D01*
X336565Y129493D01*
Y130788D01*
X336612Y130797D01*
X337028Y130880D01*
X337938Y131488D01*
X338546Y132397D01*
X338759Y133470D01*
X338546Y134543D01*
X337938Y135453D01*
X337028Y136061D01*
X335955Y136274D01*
D02*
G37*
G36*
X162509Y131304D02*
X161437Y131090D01*
X160527Y130483D01*
X159919Y129573D01*
X159706Y128500D01*
X159919Y127427D01*
X160527Y126517D01*
X161437Y125910D01*
X162509Y125696D01*
X163582Y125910D01*
X164492Y126517D01*
X165100Y127427D01*
X165313Y128500D01*
X165100Y129573D01*
X164492Y130483D01*
X163582Y131090D01*
X162509Y131304D01*
D02*
G37*
G36*
X122509D02*
X121437Y131090D01*
X120527Y130483D01*
X119919Y129573D01*
X119706Y128500D01*
X119919Y127427D01*
X120527Y126517D01*
X121437Y125910D01*
X122509Y125696D01*
X123582Y125910D01*
X124492Y126517D01*
X125100Y127427D01*
X125313Y128500D01*
X125100Y129573D01*
X124492Y130483D01*
X123582Y131090D01*
X122509Y131304D01*
D02*
G37*
G36*
X147509Y126304D02*
X146437Y126090D01*
X145527Y125483D01*
X144919Y124573D01*
X144706Y123500D01*
X144919Y122427D01*
X145527Y121517D01*
X146437Y120910D01*
X147509Y120696D01*
X148582Y120910D01*
X149492Y121517D01*
X150100Y122427D01*
X150313Y123500D01*
X150100Y124573D01*
X149492Y125483D01*
X148582Y126090D01*
X147509Y126304D01*
D02*
G37*
G36*
X266025Y112964D02*
X264952Y112751D01*
X264042Y112143D01*
X263434Y111233D01*
X263221Y110160D01*
X263434Y109087D01*
X264042Y108177D01*
X264952Y107570D01*
X266025Y107356D01*
X267098Y107570D01*
X268007Y108177D01*
X268615Y109087D01*
X268829Y110160D01*
X268615Y111233D01*
X268007Y112143D01*
X267098Y112751D01*
X266025Y112964D01*
D02*
G37*
G36*
X299325Y112964D02*
X298252Y112751D01*
X297342Y112143D01*
X296735Y111233D01*
X296521Y110160D01*
X296735Y109087D01*
X297342Y108177D01*
X298252Y107570D01*
X299325Y107356D01*
X299851Y106830D01*
X300065Y105757D01*
X300672Y104847D01*
X301582Y104240D01*
X302655Y104026D01*
X303728Y104240D01*
X304638Y104847D01*
X305245Y105757D01*
X305459Y106830D01*
X305245Y107903D01*
X304638Y108813D01*
X303728Y109420D01*
X302655Y109634D01*
X302129Y110160D01*
X301915Y111233D01*
X301308Y112143D01*
X300398Y112751D01*
X299325Y112964D01*
D02*
G37*
G36*
X137750Y110054D02*
X136677Y109840D01*
X135767Y109233D01*
X135160Y108323D01*
X134955Y107295D01*
X133927Y107090D01*
X133017Y106483D01*
X132410Y105573D01*
X132196Y104500D01*
X132410Y103427D01*
X133017Y102517D01*
X133927Y101910D01*
X135000Y101696D01*
X136073Y101910D01*
X136983Y102517D01*
X137590Y103427D01*
X137795Y104455D01*
X138823Y104660D01*
X139733Y105267D01*
X140340Y106177D01*
X140554Y107250D01*
X140340Y108323D01*
X139733Y109233D01*
X138823Y109840D01*
X137750Y110054D01*
D02*
G37*
G36*
X276015Y109634D02*
X274942Y109420D01*
X274032Y108813D01*
X273424Y107903D01*
X273211Y106830D01*
X273424Y105757D01*
X274032Y104847D01*
X274942Y104240D01*
X276015Y104026D01*
X276541Y103500D01*
X276754Y102427D01*
X277362Y101517D01*
X278272Y100910D01*
X279345Y100696D01*
X280418Y100910D01*
X281327Y101517D01*
X281935Y102427D01*
X282149Y103500D01*
X281935Y104573D01*
X281327Y105483D01*
X280418Y106090D01*
X279345Y106304D01*
X278819Y106830D01*
X278605Y107903D01*
X277997Y108813D01*
X277088Y109420D01*
X276015Y109634D01*
D02*
G37*
G36*
X198250Y94054D02*
X197177Y93840D01*
X196268Y93233D01*
X195483D01*
X194573Y93840D01*
X193500Y94054D01*
X192427Y93840D01*
X191517Y93233D01*
X190910Y92323D01*
X190696Y91250D01*
X190910Y90177D01*
X191517Y89267D01*
X192427Y88659D01*
X193293Y88487D01*
X193196Y88000D01*
X193410Y86927D01*
X194017Y86017D01*
X194927Y85410D01*
X196000Y85196D01*
X197073Y85410D01*
X197983Y86017D01*
X198591Y86927D01*
X198804Y88000D01*
X198697Y88535D01*
X199323Y88659D01*
X200233Y89267D01*
X200840Y90177D01*
X201054Y91250D01*
X200840Y92323D01*
X200233Y93233D01*
X199323Y93840D01*
X198250Y94054D01*
D02*
G37*
G36*
X319305Y99644D02*
X318232Y99430D01*
X317322Y98823D01*
X316715Y97913D01*
X316501Y96840D01*
X315975Y96314D01*
X314902Y96100D01*
X313992Y95493D01*
X313385Y94583D01*
X313171Y93510D01*
X313385Y92437D01*
X313992Y91527D01*
X314902Y90920D01*
X315975Y90706D01*
X317048Y90920D01*
X317958Y91527D01*
X318566Y92437D01*
X318779Y93510D01*
X319305Y94036D01*
X320378Y94250D01*
X321288Y94857D01*
X321895Y95767D01*
X322109Y96840D01*
X321895Y97913D01*
X321288Y98823D01*
X320378Y99430D01*
X319305Y99644D01*
D02*
G37*
G36*
X-2250Y75054D02*
X-3323Y74840D01*
X-4233Y74233D01*
X-4840Y73323D01*
X-5054Y72250D01*
X-4840Y71177D01*
X-4233Y70267D01*
X-3323Y69660D01*
X-2250Y69446D01*
X-1177Y69660D01*
X-267Y70267D01*
X340Y71177D01*
X554Y72250D01*
X340Y73323D01*
X-267Y74233D01*
X-1177Y74840D01*
X-2250Y75054D01*
D02*
G37*
G36*
X414750Y137054D02*
X413677Y136840D01*
X412767Y136233D01*
X412160Y135323D01*
X411946Y134250D01*
X412160Y133177D01*
X412767Y132267D01*
X413677Y131660D01*
X414750Y131446D01*
X415823Y131660D01*
X416733Y132267D01*
X417340Y133177D01*
X417554Y134250D01*
X417340Y135323D01*
X416733Y136233D01*
X415823Y136840D01*
X414750Y137054D01*
D02*
G37*
G36*
X237500Y83054D02*
X236427Y82840D01*
X235517Y82233D01*
X234910Y81323D01*
X234696Y80250D01*
X234910Y79177D01*
X235517Y78267D01*
X236427Y77660D01*
X237500Y77446D01*
X238573Y77660D01*
X239483Y78267D01*
X240090Y79177D01*
X240304Y80250D01*
X240090Y81323D01*
X239483Y82233D01*
X238573Y82840D01*
X237500Y83054D01*
D02*
G37*
G36*
X438250Y77554D02*
X437177Y77340D01*
X436268Y76733D01*
X435733D01*
X434823Y77340D01*
X433750Y77554D01*
X432677Y77340D01*
X431768Y76733D01*
X431160Y75823D01*
X430946Y74750D01*
X431160Y73677D01*
X431768Y72767D01*
X432677Y72160D01*
X433750Y71946D01*
X434823Y72160D01*
X435733Y72767D01*
X436268D01*
X437177Y72160D01*
X438250Y71946D01*
X439323Y72160D01*
X440233Y72767D01*
X440840Y73677D01*
X441054Y74750D01*
X440840Y75823D01*
X440233Y76733D01*
X439323Y77340D01*
X438250Y77554D01*
D02*
G37*
G36*
X83750Y44304D02*
X82677Y44090D01*
X81767Y43483D01*
X81160Y42573D01*
X80946Y41500D01*
X81160Y40427D01*
X81767Y39517D01*
X82677Y38910D01*
X83750Y38696D01*
X84823Y38910D01*
X85733Y39517D01*
X86340Y40427D01*
X86554Y41500D01*
X86340Y42573D01*
X85733Y43483D01*
X84823Y44090D01*
X83750Y44304D01*
D02*
G37*
G36*
X206401Y24832D02*
X205328Y24618D01*
X204419Y24010D01*
X203811Y23101D01*
X203597Y22028D01*
X203811Y20955D01*
X204419Y20045D01*
X205328Y19437D01*
X206401Y19224D01*
X207474Y19437D01*
X208384Y20045D01*
X208992Y20955D01*
X209205Y22028D01*
X208992Y23101D01*
X208384Y24010D01*
X207474Y24618D01*
X206401Y24832D01*
D02*
G37*
G36*
X10000Y11804D02*
X8927Y11590D01*
X8017Y10983D01*
X7410Y10073D01*
X7196Y9000D01*
X7410Y7927D01*
X8017Y7017D01*
X8927Y6410D01*
X10000Y6196D01*
X11073Y6410D01*
X11983Y7017D01*
X12590Y7927D01*
X12804Y9000D01*
X12590Y10073D01*
X11983Y10983D01*
X11073Y11590D01*
X10000Y11804D01*
D02*
G37*
G36*
X218250Y11304D02*
X217177Y11090D01*
X216267Y10482D01*
X215660Y9573D01*
X215446Y8500D01*
X215660Y7427D01*
X216267Y6517D01*
X217177Y5910D01*
X218250Y5696D01*
X219323Y5910D01*
X220233Y6517D01*
X220840Y7427D01*
X221054Y8500D01*
X220840Y9573D01*
X220233Y10482D01*
X219323Y11090D01*
X218250Y11304D01*
D02*
G37*
%LPD*%
D10*
X146258Y253000D02*
G03*
X153494Y255994I0J10243D01*
G01*
X138021Y253000D02*
G03*
X120061Y245560I0J-25400D01*
G01*
X104222Y239000D02*
G03*
X110982Y240044I0J22399D01*
G01*
X51250Y239000D02*
G03*
X46000Y233750I0J-5250D01*
G01*
X120051Y245551D02*
G03*
X120061Y245560I-15829J15848D01*
G01*
X110982Y240044D02*
G03*
X120051Y245551I-6760J21354D01*
G01*
X153494Y255994D02*
G03*
X153500Y256000I-7236J7249D01*
G01*
X1250Y276000D02*
X11750Y286500D01*
X35000D01*
X40500Y292000D01*
X132654D01*
X52672Y290000D02*
X129250D01*
X1343Y271417D02*
X13176Y283250D01*
X45922D01*
X52672Y290000D01*
X46750Y281250D02*
X53000Y287500D01*
X16000Y281250D02*
X46750D01*
X2750Y268000D02*
X16000Y281250D01*
X230500Y192500D02*
Y218250D01*
Y192500D02*
X242989Y180011D01*
X230500Y218250D02*
X237250Y225000D01*
X246250Y250500D02*
X248500D01*
X244250Y252500D02*
X246250Y250500D01*
X242154Y252500D02*
X244250D01*
X237154Y257500D02*
X242154Y252500D01*
X219500Y257500D02*
X237154D01*
X203250Y241250D02*
X219500Y257500D01*
X203250Y211000D02*
Y241250D01*
X36750Y118000D02*
X51250Y132500D01*
X25250Y118000D02*
X36750D01*
X13728Y106479D02*
X25250Y118000D01*
X92250Y259500D02*
X101175D01*
X87250Y264500D02*
X92250Y259500D01*
X25407Y264500D02*
X87250D01*
X101175Y259500D02*
X103925Y262250D01*
X38250Y255000D02*
X40750Y252500D01*
X138021Y253000D02*
X146258D01*
X138021D02*
X138021D01*
X51250Y239000D02*
X104222D01*
X46000Y231000D02*
Y233750D01*
X140139Y243250D02*
X150750Y232639D01*
X131000Y243250D02*
X140139D01*
X120000Y232250D02*
X131000Y243250D01*
X131922Y279750D02*
X150750D01*
X129922Y277750D02*
X131922Y279750D01*
X116596Y277750D02*
X129922D01*
X132750Y277750D02*
X151578D01*
X130750Y275750D02*
X132750Y277750D01*
X117425Y275750D02*
X130750D01*
X154093Y288750D02*
X156093Y290750D01*
X141596Y288750D02*
X154093D01*
X156093Y290750D02*
X179250D01*
X155421Y287250D02*
X190750D01*
X149922Y281750D02*
X155421Y287250D01*
X156250Y285250D02*
X186750D01*
X150750Y279750D02*
X156250Y285250D01*
X157078Y283250D02*
X184500D01*
X151578Y277750D02*
X157078Y283250D01*
X184500D02*
X187500Y280250D01*
X186750Y285250D02*
X188250Y283750D01*
X187500Y280250D02*
X193500D01*
X188250Y283750D02*
X192404D01*
X179250Y290750D02*
X179250Y290750D01*
X32000Y125000D02*
X46596Y139596D01*
X12492Y125000D02*
X32000D01*
X8550Y121058D02*
X12492Y125000D01*
X13728Y90729D02*
Y106479D01*
X114175Y245000D02*
X126175Y257000D01*
X135250D01*
X139250Y261000D01*
X156000D01*
X77500Y247250D02*
X81750D01*
X73750Y243500D02*
X77500Y247250D01*
X48000Y243500D02*
X73750D01*
X88250Y118750D02*
Y140046D01*
X82624Y145673D02*
X88250Y140046D01*
X82624Y145673D02*
Y155955D01*
X83500Y114000D02*
X88250Y118750D01*
X83500Y105000D02*
Y114000D01*
X76750Y98250D02*
X83500Y105000D01*
X63422Y98250D02*
X76750D01*
X54172Y107500D02*
X63422Y98250D01*
X11729Y94030D02*
Y111322D01*
X9000Y91301D02*
X11729Y94030D01*
X2750Y112500D02*
X9300Y105950D01*
Y95430D02*
Y105950D01*
X2250Y88380D02*
X9300Y95430D01*
X4750Y118300D02*
X11729Y111322D01*
X4750Y118300D02*
Y128875D01*
X13250Y90250D02*
X13728Y90729D01*
X2750Y112500D02*
Y129704D01*
X9000Y75904D02*
Y91301D01*
X66500Y172078D02*
X82624Y155955D01*
X1500Y142500D02*
X9250Y150250D01*
X1500Y141154D02*
Y142500D01*
X9250Y150250D02*
X11346D01*
X10604Y146750D02*
X14139D01*
X4250Y140396D02*
X10604Y146750D01*
X4250Y137500D02*
Y140396D01*
X46596Y139596D02*
X49250D01*
X51250Y132500D02*
Y137000D01*
X3000Y227596D02*
Y238250D01*
X24828Y266750D02*
X46500D01*
X24000Y268750D02*
X43750D01*
X46500Y266750D02*
X53750Y274000D01*
X22750Y270750D02*
X42750D01*
X43750Y268750D02*
X53000Y278000D01*
X10750Y252672D02*
X24828Y266750D01*
X8750Y253500D02*
X24000Y268750D01*
X7500Y255500D02*
X22750Y270750D01*
X41078Y272750D02*
X53828Y285500D01*
X21500Y272750D02*
X41078D01*
X6750Y258000D02*
X21500Y272750D01*
X42750Y270750D02*
X53250Y281250D01*
X234750Y235250D02*
X237250Y232750D01*
Y225000D02*
Y232750D01*
X248500Y250500D02*
X254000D01*
X205250Y256750D02*
X208000Y259500D01*
X205250Y250750D02*
Y256750D01*
X208000Y259500D02*
X267750D01*
X205250Y250750D02*
X205250D01*
X198250Y243750D02*
X205250Y250750D01*
X178750Y243750D02*
X198250D01*
X242989Y180011D02*
X254051D01*
X258750Y175311D01*
Y156166D02*
Y175311D01*
X252705Y150120D02*
X258750Y156166D01*
X193500Y280250D02*
X198750Y285500D01*
X108175Y266500D02*
X117425Y275750D01*
X78846Y266500D02*
X108175D01*
X73846Y271500D02*
X78846Y266500D01*
X69596Y271500D02*
X73846D01*
X65346Y275750D02*
X69596Y271500D01*
X55586Y275750D02*
X65346D01*
X53836Y274000D02*
X55586Y275750D01*
X53750Y274000D02*
X53836D01*
X8279Y64221D02*
X8750Y63750D01*
X8279Y64221D02*
Y65875D01*
X6750Y67404D02*
X8279Y65875D01*
X6750Y67404D02*
Y73654D01*
X9000Y75904D01*
X37000Y187250D02*
Y201343D01*
X24750Y148875D02*
Y154436D01*
X21750Y145875D02*
X24750Y148875D01*
X4750Y128875D02*
X10875Y135000D01*
X39125Y162968D02*
X43750Y167593D01*
X33282Y162968D02*
X39125D01*
X24750Y154436D02*
X33282Y162968D01*
X10875Y135000D02*
X13750D01*
X21750Y143000D01*
Y145875D01*
X43750Y167593D02*
Y176265D01*
X39000Y181015D02*
X43750Y176265D01*
X39000Y181015D02*
Y185250D01*
X37000Y187250D02*
X39000Y185250D01*
X10750Y243250D02*
Y252672D01*
X18250Y220093D02*
X37000Y201343D01*
X18250Y220093D02*
Y235750D01*
X10750Y243250D02*
X18250Y235750D01*
X49250Y139596D02*
X57904Y148250D01*
X51250Y137000D02*
X59250Y145000D01*
X84000Y245000D02*
X114175D01*
X81750Y247250D02*
X84000Y245000D01*
X53000Y278000D02*
X68922D01*
X53250Y281250D02*
X55750D01*
X53828Y285500D02*
X58500D01*
X53000Y287500D02*
X60172D01*
X41500Y224750D02*
X50750Y215500D01*
Y207250D02*
Y215500D01*
Y207250D02*
X66500Y191500D01*
X18735Y255000D02*
X38250D01*
X14750Y251015D02*
X18735Y255000D01*
X30000Y252250D02*
X34750Y247500D01*
X18814Y252250D02*
X30000D01*
X16750Y250186D02*
X18814Y252250D01*
X-3250Y244500D02*
Y251250D01*
Y244500D02*
X3000Y238250D01*
X846Y253500D02*
X2846Y255500D01*
X-1000Y253500D02*
X846D01*
X-3250Y251250D02*
X-1000Y253500D01*
X2846Y255500D02*
X7500D01*
X750Y258000D02*
X6750D01*
X8750Y242250D02*
Y253500D01*
Y242250D02*
X16250Y234750D01*
Y219265D02*
Y234750D01*
Y219265D02*
X25039Y210476D01*
Y203000D02*
Y210476D01*
X16750Y245735D02*
X24250Y238235D01*
X14750Y244907D02*
X22250Y237407D01*
X12750Y244078D02*
X20250Y236578D01*
X24250Y222578D02*
X43000Y203828D01*
X24250Y222578D02*
Y238235D01*
X22250Y221750D02*
Y237407D01*
Y221750D02*
X41000Y203000D01*
X20250Y220922D02*
X39000Y202172D01*
X20250Y220922D02*
Y236578D01*
X16750Y245735D02*
Y250186D01*
X14750Y244907D02*
Y251015D01*
X12750Y244078D02*
Y251843D01*
X150750Y206550D02*
Y232639D01*
X154575Y202725D02*
X165975D01*
X150750Y206550D02*
X154575Y202725D01*
X152750Y207379D02*
Y230500D01*
Y207379D02*
X155379Y204750D01*
X162861D01*
X152750Y230500D02*
X160000Y237750D01*
X44500Y251000D02*
X47000D01*
X41000Y247500D02*
X44500Y251000D01*
X34750Y247500D02*
X41000D01*
X41500Y237000D02*
X48000Y243500D01*
X51250Y232250D02*
X120000D01*
X49500Y234000D02*
X51250Y232250D01*
X31000Y186250D02*
X32500Y184750D01*
X-14485Y201000D02*
X6750D01*
X-21750Y208265D02*
Y259750D01*
X-13657Y203000D02*
X7578D01*
X-19750Y209093D02*
Y258922D01*
Y209093D02*
X-13657Y203000D01*
X-21750Y208265D02*
X-14485Y201000D01*
X134250Y285000D02*
X147500D01*
X134672Y281750D02*
X149922D01*
X132172Y284250D02*
X134672Y281750D01*
X41500Y224750D02*
Y237000D01*
X43000Y182672D02*
X54750Y170922D01*
X39000Y188078D02*
X41000Y186078D01*
Y181843D02*
Y186078D01*
Y181843D02*
X45750Y177093D01*
Y157000D02*
Y177093D01*
X41000Y188922D02*
X43000Y186922D01*
Y182672D02*
Y186922D01*
X43000Y189750D02*
X45000Y187750D01*
Y183500D02*
Y187750D01*
Y183500D02*
X57500Y171000D01*
X27250Y197750D02*
X31000D01*
X25039Y195539D02*
X27250Y197750D01*
X25039Y176789D02*
Y195539D01*
X5500Y155325D02*
X7000Y156825D01*
X5500Y150250D02*
Y155325D01*
X2500Y147250D02*
X5500Y150250D01*
X-3500Y147250D02*
X2500D01*
X-5250Y145500D02*
X-3500Y147250D01*
X-5000Y139250D02*
X-404D01*
X1500Y141154D01*
X13250Y154250D02*
X27039Y168039D01*
X13250Y152154D02*
Y154250D01*
X11346Y150250D02*
X13250Y152154D01*
X54750Y168000D02*
X65500Y157250D01*
Y119750D02*
Y157250D01*
Y119750D02*
X71250Y114000D01*
X68250Y122000D02*
Y157750D01*
Y122000D02*
X74750Y115500D01*
X57500Y168500D02*
X68250Y157750D01*
X54750Y168000D02*
Y170922D01*
X226250Y36000D02*
X238500Y48250D01*
X208904Y36000D02*
X226250D01*
X205500Y32596D02*
X208904Y36000D01*
X8578Y139000D02*
X12093D01*
X17750Y144657D02*
Y147532D01*
X12093Y139000D02*
X17750Y144657D01*
X19750Y143828D02*
Y146704D01*
X12922Y137000D02*
X19750Y143828D01*
X10046Y137000D02*
X12922D01*
X136846Y293500D02*
X141596Y288750D01*
X134154Y293500D02*
X136846D01*
X132654Y292000D02*
X134154Y293500D01*
X77000Y282250D02*
X109250D01*
X75000Y280250D02*
X77000Y282250D01*
X72328Y280250D02*
X75000D01*
X31000Y172407D02*
Y181500D01*
X29039Y170446D02*
X31000Y172407D01*
X29039Y167211D02*
Y170446D01*
X33039Y165554D02*
Y168789D01*
X18750Y156922D02*
X29039Y167211D01*
X18750Y151361D02*
Y156922D01*
X14139Y146750D02*
X18750Y151361D01*
X20750Y156093D02*
X31039Y166382D01*
X20750Y150532D02*
Y156093D01*
X17750Y147532D02*
X20750Y150532D01*
X0Y130422D02*
X8578Y139000D01*
X19750Y146704D02*
X22750Y149704D01*
X2750Y129704D02*
X10046Y137000D01*
X22750Y155265D02*
X33039Y165554D01*
X22750Y149704D02*
Y155265D01*
X27039Y168039D02*
Y189039D01*
X7000Y158750D02*
X25039Y176789D01*
X7000Y156825D02*
Y158750D01*
X5000Y159578D02*
X23039Y177618D01*
X5000Y157654D02*
Y159578D01*
X3096Y155750D02*
X5000Y157654D01*
X-181Y155750D02*
X3096D01*
X-2928Y158497D02*
X-181Y155750D01*
X31039Y166382D02*
Y169618D01*
X9343Y166750D02*
X21039Y178446D01*
X-9750Y166750D02*
X9343D01*
X162861Y204750D02*
X168500Y210389D01*
Y224250D01*
X174000Y229750D01*
Y239000D01*
X205250Y176654D02*
Y209000D01*
X147509Y168500D02*
X197096D01*
X205250Y176654D01*
X107500Y279000D02*
X113313D01*
X101750Y273250D02*
X107500Y279000D01*
X83750Y268500D02*
X107346D01*
X74000Y278250D02*
X83750Y268500D01*
X71500Y278250D02*
X74000D01*
X12750Y251843D02*
X25407Y264500D01*
X58500Y285500D02*
X60250Y283750D01*
X60172Y287500D02*
X61672Y286000D01*
X-10672Y268000D02*
X2750D01*
X68922Y278000D02*
X72047Y274875D01*
X72500D01*
X68500Y281250D02*
X71500Y278250D01*
X68828Y283750D02*
X72328Y280250D01*
X60250Y283750D02*
X68828D01*
X55750Y281250D02*
X68500D01*
X57500Y168500D02*
Y171000D01*
X41000Y188922D02*
Y203000D01*
X43000Y189750D02*
Y203828D01*
X39000Y188078D02*
Y202172D01*
X32500Y184672D02*
Y184750D01*
Y184672D02*
X34500Y182672D01*
Y173078D02*
Y182672D01*
X36750Y172500D02*
Y183250D01*
X34500Y185500D02*
X36750Y183250D01*
X34500Y185500D02*
Y199250D01*
X32750Y201000D02*
X34500Y199250D01*
X27750Y139000D02*
X45750Y157000D01*
X71250Y286000D02*
X73500Y283750D01*
X61672Y286000D02*
X71250D01*
X165975Y202725D02*
X188250Y225000D01*
Y233750D01*
X182750Y239250D02*
X188250Y233750D01*
X192404Y283750D02*
X197404Y288750D01*
X174000Y239000D02*
X178750Y243750D01*
X33039Y168789D02*
X36750Y172500D01*
X31039Y169618D02*
X34500Y173078D01*
X179250Y290750D02*
X207922D01*
X209922Y292750D01*
X197404Y288750D02*
X208750D01*
X210750Y290750D01*
X107346Y268500D02*
X116596Y277750D01*
X118562Y284250D02*
X132172D01*
X113313Y279000D02*
X118562Y284250D01*
X129250Y290000D02*
X134250Y285000D01*
X103925Y262250D02*
X117507D01*
X124757Y269500D01*
X143000D01*
X148000Y274500D01*
X25039Y203000D02*
X27039Y201000D01*
X32750D01*
X18625Y207375D02*
X21039Y204961D01*
X3000Y227596D02*
X23039Y207557D01*
Y177618D02*
Y207557D01*
X21039Y178446D02*
Y204961D01*
X2250Y85500D02*
Y88380D01*
X0Y110268D02*
X6050Y104218D01*
X-2000Y104826D02*
X6050Y96776D01*
X-2000Y131250D02*
X4250Y137500D01*
X-2000Y104826D02*
Y131250D01*
X0Y110268D02*
Y130422D01*
X27039Y189039D02*
X31000Y193000D01*
X13039Y181789D02*
Y197539D01*
X6000Y174750D02*
X13039Y181789D01*
X11000Y182750D02*
Y196750D01*
X5000Y176750D02*
X11000Y182750D01*
X-16750Y174750D02*
X6000D01*
X-17578Y176750D02*
X5000D01*
X-26750Y167578D02*
X-17578Y176750D01*
X7578Y203000D02*
X13039Y197539D01*
X6750Y201000D02*
X11000Y196750D01*
X226250Y95500D02*
Y122250D01*
X222250Y126250D02*
X226250Y122250D01*
X66500Y172078D02*
Y191500D01*
X156000Y261000D02*
X160000Y257000D01*
X430750Y154125D02*
Y192846D01*
X424289Y147665D02*
X430750Y154125D01*
X432750Y159500D02*
X442750Y149500D01*
X395500Y116911D02*
X402839Y124250D01*
X395500Y114000D02*
Y116911D01*
X402839Y124250D02*
X417000D01*
X238500Y48250D02*
Y52058D01*
X205500Y32250D02*
Y32596D01*
X343000Y212328D02*
X346750Y208578D01*
Y189346D02*
Y208578D01*
Y189346D02*
X353500Y182596D01*
X335000Y217500D02*
X344750Y207750D01*
Y188243D02*
Y207750D01*
Y188243D02*
X346500Y186493D01*
X343000Y212328D02*
Y223750D01*
X353343Y148000D02*
X357000D01*
X345500Y168891D02*
X353500Y176891D01*
Y182596D01*
X343250Y169469D02*
X346500Y172719D01*
Y186493D01*
X335000Y220250D02*
X338500Y223750D01*
X335000Y217500D02*
Y220250D01*
X332750Y152235D02*
X343250Y162735D01*
X332750Y149500D02*
Y152235D01*
Y149500D02*
X337750Y144500D01*
Y142000D02*
Y144500D01*
X335960Y140210D02*
X337750Y142000D01*
X329375Y140210D02*
X335960D01*
X424289Y131539D02*
Y147665D01*
X373250Y230000D02*
X392250D01*
X357000Y246250D02*
X373250Y230000D01*
X318000Y246250D02*
X357000D01*
X392250Y230000D02*
X396000Y226250D01*
X290846Y248500D02*
X315750D01*
X288096Y245750D02*
X290846Y248500D01*
X315750D02*
X318000Y246250D01*
X238500Y52058D02*
X246192Y59750D01*
X41328Y107500D02*
X54172D01*
X36828Y103000D02*
X41328Y107500D01*
X27750Y103000D02*
X36828D01*
X23250Y98500D02*
X27750Y103000D01*
X74750Y111500D02*
Y115500D01*
X71250Y108000D02*
X74750Y111500D01*
X228250Y96328D02*
Y118250D01*
X231000Y121000D01*
X228250Y96328D02*
X235828Y88750D01*
X226250Y95500D02*
X235000Y86750D01*
X-5250Y139500D02*
X-5000Y139250D01*
X-4154Y27250D02*
X-2202Y25250D01*
X-8672Y27250D02*
X-4154D01*
X-2202Y25250D02*
X9750D01*
X-24750Y43328D02*
X-8672Y27250D01*
X-26750Y42500D02*
X-8250Y24000D01*
X-26750Y42500D02*
Y167578D01*
X-24750Y43328D02*
Y166750D01*
X284750Y4750D02*
X368250D01*
X357172Y29750D02*
X361000Y33578D01*
X349000Y29750D02*
X357172D01*
X266625Y71750D02*
X272000Y66375D01*
Y56172D02*
Y66375D01*
Y56172D02*
X276250Y51922D01*
Y19172D02*
Y51922D01*
X274000Y57000D02*
Y67203D01*
X347250Y31500D02*
X349000Y29750D01*
X267750Y259500D02*
X281500Y245750D01*
X288096D01*
X160000Y237750D02*
Y257000D01*
X242500Y88750D02*
X249750Y81500D01*
X235828Y88750D02*
X242500D01*
X241672Y86750D02*
X247750Y80672D01*
X235000Y86750D02*
X241672D01*
X247750Y77922D02*
Y80672D01*
X249750Y78750D02*
Y81500D01*
X306078Y29750D02*
X339000D01*
X291078Y14750D02*
X306078Y29750D01*
X339000D02*
X340750Y31500D01*
X338000Y31750D02*
X339750Y33500D01*
X305250Y31750D02*
X338000D01*
X274000Y57000D02*
X278250Y52750D01*
X267453Y73750D02*
X274000Y67203D01*
X278250Y20000D02*
Y52750D01*
X62500Y116750D02*
Y146422D01*
Y116750D02*
X71250Y108000D01*
X57904Y148250D02*
X60672D01*
X371000Y7500D02*
X387750D01*
X368250Y4750D02*
X371000Y7500D01*
X236500Y290250D02*
X239750Y287000D01*
X217578Y290250D02*
X236500D01*
X215078Y292750D02*
X217578Y290250D01*
X209922Y292750D02*
X215078D01*
X218000Y287000D02*
X234500D01*
X214250Y290750D02*
X218000Y287000D01*
X210750Y290750D02*
X214250D01*
X-19750Y258922D02*
X-10672Y268000D01*
X60672Y148250D02*
X62500Y146422D01*
X203250Y211000D02*
X205250Y209000D01*
X407300Y175000D02*
X412000Y179700D01*
X339750Y33500D02*
X355500D01*
X340750Y31500D02*
X347250D01*
X290250Y16750D02*
X305250Y31750D01*
X280672Y14750D02*
X291078D01*
X281500Y16750D02*
X290250D01*
X276250Y19172D02*
X280672Y14750D01*
X278250Y20000D02*
X281500Y16750D01*
X264828Y73750D02*
X267453D01*
X264000Y71750D02*
X266625D01*
X262578Y76000D02*
X264828Y73750D01*
X261750Y74000D02*
X264000Y71750D01*
X251672Y74000D02*
X261750D01*
X252500Y76000D02*
X262578D01*
X247750Y77922D02*
X251672Y74000D01*
X249750Y78750D02*
X252500Y76000D01*
X264250Y59750D02*
X273500Y50500D01*
X246192Y59750D02*
X264250D01*
X273500Y16000D02*
Y50500D01*
Y16000D02*
X284750Y4750D01*
X-10083Y271417D02*
X1343D01*
X-21750Y259750D02*
X-10083Y271417D01*
X254000Y250500D02*
X259750Y256250D01*
X9750Y25250D02*
X19750Y15250D01*
X51000D01*
X343250Y162735D02*
Y169469D01*
X345500Y162157D02*
Y168891D01*
X344000Y160657D02*
X345500Y162157D01*
X396000Y211250D02*
Y226250D01*
Y211250D02*
X403500Y203750D01*
Y177750D02*
Y203750D01*
X329295Y140130D02*
X329375Y140210D01*
X344000Y157343D02*
Y160657D01*
Y157343D02*
X353343Y148000D01*
X417000Y124250D02*
X424289Y131539D01*
X405435Y122250D02*
X421250D01*
X398785Y115600D02*
X405435Y122250D01*
X-16000Y160500D02*
X-9750Y166750D01*
X-16000Y67863D02*
Y160500D01*
Y67863D02*
X0Y51863D01*
X51000Y15250D02*
X60750Y5500D01*
X-24750Y166750D02*
X-16750Y174750D01*
X428596Y195000D02*
X430750Y192846D01*
X429425Y197000D02*
X432750Y193675D01*
Y159500D02*
Y193675D01*
X421500Y190596D02*
X425904Y195000D01*
X421500Y182904D02*
Y190596D01*
Y182904D02*
X422500Y181904D01*
Y177000D02*
Y181904D01*
X425075Y197000D02*
X429425D01*
X412000Y179700D02*
Y183925D01*
X425075Y197000D01*
X425904Y195000D02*
X428596D01*
X421250Y122250D02*
X432500Y111000D01*
X420250Y120250D02*
X431750Y108750D01*
X409700Y120250D02*
X420250D01*
X404450Y115000D02*
X409700Y120250D01*
X439250Y108750D02*
X442750Y105250D01*
X431750Y108750D02*
X439250D01*
X432500Y111000D02*
X442750D01*
Y149500D01*
X399500Y31750D02*
X404750Y37000D01*
X399500Y19250D02*
Y31750D01*
X387750Y7500D02*
X399500Y19250D01*
X395500Y114000D02*
X397150Y112350D01*
X401800D01*
X404450Y115000D01*
D11*
X428500Y160250D02*
Y189959D01*
X408000Y139750D02*
X428500Y160250D01*
X389000Y116750D02*
X401750Y129500D01*
X389000Y113500D02*
Y116750D01*
X401750Y129500D02*
X405950D01*
X73500Y4000D02*
Y25250D01*
X66500Y32250D02*
X73500Y25250D01*
X66500Y32250D02*
Y51000D01*
X408000Y131550D02*
Y139750D01*
X405950Y129500D02*
X408000Y131550D01*
X427250Y191209D02*
X428500Y189959D01*
X427250Y191209D02*
Y191750D01*
X385750Y110250D02*
X389000Y113500D01*
D13*
X206250Y281250D02*
X212500Y287500D01*
X200000Y281250D02*
X206250D01*
X181250Y262500D02*
X200000Y281250D01*
X167750Y266500D02*
X171750Y262500D01*
X181250D01*
X73750Y255000D02*
X103250D01*
X65250Y246500D02*
X73750Y255000D01*
X45000Y246500D02*
X65250D01*
X37500Y239000D02*
X45000Y246500D01*
X29000Y247500D02*
X37500Y239000D01*
Y221010D02*
Y239000D01*
Y221010D02*
X46500Y212010D01*
X20000Y247500D02*
X29000D01*
X46500Y190500D02*
X48750Y188250D01*
Y185000D02*
Y188250D01*
Y185000D02*
X60750Y173000D01*
X72250Y146740D02*
X76000Y150490D01*
X72250Y124250D02*
Y146740D01*
Y124250D02*
X78000Y118500D01*
Y108250D02*
Y118500D01*
X205000Y164050D02*
X217200Y176250D01*
X205000Y155250D02*
Y164050D01*
X60750Y169500D02*
Y173000D01*
X46500Y190500D02*
Y212010D01*
X126000Y266500D02*
X167750D01*
X118250Y258750D02*
X126000Y266500D01*
X103250Y255000D02*
X107000Y258750D01*
X118250D01*
X60750Y169500D02*
X76000Y154250D01*
X285250Y283750D02*
X288750Y287250D01*
X242500Y282250D02*
X244000Y283750D01*
X316990Y283500D02*
X322490Y289000D01*
X347750D01*
X76000Y150490D02*
Y154250D01*
X288750Y287250D02*
X292500Y283500D01*
X316990D01*
X212500Y287500D02*
X217750Y282250D01*
X242500D01*
X244000Y283750D02*
X285250D01*
X66750Y103750D02*
X73500D01*
X56875Y113625D02*
X66750Y103750D01*
X73500D02*
X78000Y108250D01*
X390000Y93750D02*
X408167D01*
X402990Y89750D02*
X406510D01*
X409667Y92250D02*
X425000D01*
X408167Y93750D02*
X409667Y92250D01*
X406510Y89750D02*
X408010Y88250D01*
X360182Y26750D02*
X365750Y32318D01*
X347500Y26750D02*
X360182D01*
X401490Y88250D02*
X402990Y89750D01*
X448500Y104500D02*
X450000Y103000D01*
Y89500D02*
Y103000D01*
X447000Y86500D02*
X450000Y89500D01*
X235500Y164750D02*
X247511Y176761D01*
X219500Y164750D02*
X235500D01*
X216250Y161500D02*
X219500Y164750D01*
X247511Y176761D02*
X252705D01*
X343750Y23000D02*
X347500Y26750D01*
X319250Y23000D02*
X343750D01*
X306000Y9750D02*
X319250Y23000D01*
X301500Y9750D02*
X306000D01*
X365750Y32318D02*
Y59250D01*
X429750Y86500D02*
X447000D01*
X428000Y88250D02*
X429750Y86500D01*
X381662Y102500D02*
X401250D01*
X352250Y47250D02*
Y73088D01*
X381662Y102500D01*
X222000Y149250D02*
X223750Y151000D01*
X211000Y149250D02*
X222000D01*
X205000Y155250D02*
X211000Y149250D01*
X223750Y151000D02*
X240914D01*
X274250Y220750D02*
X285250Y209750D01*
X263500Y220750D02*
X274250D01*
X356750Y60500D02*
X390000Y93750D01*
X356750Y47250D02*
Y60500D01*
X244515Y151000D02*
X245165D01*
X244475Y151040D02*
X244515Y151000D01*
X240954Y151040D02*
X244475D01*
X240914Y151000D02*
X240954Y151040D01*
X245165Y151000D02*
X246045Y150120D01*
X305250Y181843D02*
X308453Y185047D01*
X408010Y88250D02*
X428000D01*
X394750D02*
X401490D01*
X365750Y59250D02*
X394750Y88250D01*
X429500Y96750D02*
X443500D01*
X425000Y92250D02*
X429500Y96750D01*
X443500D02*
X445750Y99000D01*
Y101000D01*
X406250Y107500D02*
X410250D01*
X401250Y102500D02*
X406250Y107500D01*
X410250D02*
X417000Y114250D01*
X297750Y188250D02*
X300250Y190750D01*
X294631Y188250D02*
X297750D01*
X292800Y190081D02*
X294631Y188250D01*
X300250Y190750D02*
Y203000D01*
X293500Y209750D02*
X300250Y203000D01*
X285250Y209750D02*
X293500D01*
X448500Y104500D02*
Y114650D01*
X292665Y190081D02*
X292800D01*
D15*
X54500Y135250D02*
X56750Y133000D01*
X248235Y161250D02*
X252705Y156781D01*
X244250Y161250D02*
X248235D01*
X241000Y158000D02*
X244250Y161250D01*
X177000Y5000D02*
X177287Y5287D01*
X56750Y113500D02*
Y133000D01*
X332250Y61750D02*
X380750Y110250D01*
X310500Y61750D02*
X332250D01*
X380750Y110250D02*
X385750D01*
X307500Y58750D02*
X310500Y61750D01*
X228000Y158000D02*
X241000D01*
D16*
X125750Y74250D02*
X131500D01*
X119750Y68250D02*
X125750Y74250D01*
X99750Y68250D02*
X119750D01*
X16479Y95527D02*
Y103729D01*
Y95527D02*
X20756Y91250D01*
X16479Y103729D02*
X26250Y113500D01*
X26500Y91250D02*
X31750Y96500D01*
X20756Y91250D02*
X26500D01*
X26250Y113500D02*
X56750D01*
X142750Y231500D02*
Y236750D01*
X133250Y222000D02*
X142750Y231500D01*
X133250Y211000D02*
Y222000D01*
Y211000D02*
X144275Y199975D01*
X109750Y205000D02*
X114250D01*
X139500Y240000D02*
X142750Y236750D01*
X144275Y199975D02*
X177475D01*
X133000Y240000D02*
X139500D01*
X91000Y77000D02*
X99750Y68250D01*
X77500Y77000D02*
X91000D01*
X107250Y94250D02*
X113250Y88250D01*
X122228D01*
X95750Y94250D02*
X107250D01*
X122228Y88250D02*
X124228Y90250D01*
X99500Y165750D02*
Y206500D01*
X198500Y164500D02*
X215750Y181750D01*
X145853Y164500D02*
X198500D01*
X142250Y168103D02*
X145853Y164500D01*
X142250Y168103D02*
Y177000D01*
X192750Y215250D02*
Y240500D01*
X177475Y199975D02*
X192750Y215250D01*
X215750Y181750D02*
X217750D01*
X114250Y205000D02*
X142250Y177000D01*
X245500Y206250D02*
X247750D01*
X243750Y284000D02*
Y289250D01*
Y284000D02*
X244000Y283750D01*
X131500Y74250D02*
X135250Y78000D01*
X75861Y72889D02*
Y75361D01*
X77500Y77000D01*
X135250Y78000D02*
X137750D01*
X171500Y60250D02*
X176500Y65250D01*
X163250Y60250D02*
X171500D01*
X137750Y78000D02*
X142250Y73500D01*
X150000D01*
X163250Y60250D01*
X93750Y96250D02*
X95750Y94250D01*
X129885Y83365D02*
X135250Y78000D01*
X80250Y92750D02*
X83750Y96250D01*
X93750D01*
X31750Y96500D02*
X57000D01*
X60750Y92750D01*
X80250D01*
X127542Y90250D02*
X129885Y87907D01*
X124228Y90250D02*
X127542D01*
X129885Y83365D02*
Y87907D01*
X247750Y206250D02*
X255750Y198250D01*
X257206D01*
X279750Y177750D02*
X300250D01*
X277000Y180500D02*
X279750Y177750D01*
X267750Y180500D02*
X277000D01*
X99500Y206500D02*
X133000Y240000D01*
X301157Y177750D02*
X305250Y181843D01*
X300250Y177750D02*
X301157D01*
X300250Y177750D02*
X300250Y177750D01*
X257206Y198250D02*
X262695Y192761D01*
Y185555D02*
Y187285D01*
Y185555D02*
X267750Y180500D01*
D145*
X437500Y30500D02*
D03*
Y266500D02*
D03*
D151*
X223500Y175467D02*
Y193750D01*
X217500Y199750D02*
X223500Y193750D01*
X217500Y199750D02*
Y206387D01*
X211000Y162967D02*
X223500Y175467D01*
X211000Y158000D02*
Y162967D01*
Y158000D02*
X213750Y155250D01*
X217500D01*
D152*
X251750Y222250D02*
Y234000D01*
X123500Y219750D02*
X138500Y234750D01*
X123500Y207250D02*
Y219750D01*
Y207250D02*
X148000Y182750D01*
X193850D02*
X200300Y176300D01*
X148000Y182750D02*
X193850D01*
X303000Y58750D02*
X307500D01*
X260300Y213700D02*
X267800D01*
X251750Y222250D02*
X260300Y213700D01*
X282675Y193411D02*
X289335Y200071D01*
X282000Y22636D02*
Y54500D01*
X277500Y59000D02*
X282000Y54500D01*
X277500Y59000D02*
Y68361D01*
X271500Y74361D02*
X277500Y68361D01*
X246250Y96500D02*
X258000Y84750D01*
X238750Y96500D02*
X246250D01*
X306000Y37500D02*
X332750D01*
X288500Y20000D02*
X306000Y37500D01*
X266500Y84750D02*
X271500Y79750D01*
X258000Y84750D02*
X266500D01*
X271500Y74361D02*
Y79750D01*
X284636Y20000D02*
X288500D01*
X282000Y22636D02*
X284636Y20000D01*
X287500Y205000D02*
X291066D01*
X284000Y201500D02*
X287500Y205000D01*
X276009Y201500D02*
X284000D01*
X271250Y196741D02*
X276009Y201500D01*
X291066Y205000D02*
X292665Y203401D01*
X271250Y188646D02*
Y196741D01*
X266025D02*
X271250D01*
X269355Y186751D02*
X271250Y188646D01*
D153*
X366500Y136500D02*
X376250Y146250D01*
X-12250Y207250D02*
X8985D01*
X-15750Y210750D02*
X-12250Y207250D01*
X-15750Y210750D02*
Y256744D01*
X-9750Y262247D02*
X-6000D01*
X17039Y180103D02*
Y199196D01*
X7686Y170750D02*
X17039Y180103D01*
X-13000Y170750D02*
X7686D01*
X8985Y207250D02*
X17039Y199196D01*
X347250Y219000D02*
X363750D01*
X0Y37204D02*
Y39000D01*
X327750Y103000D02*
X333739Y108989D01*
X327750Y93000D02*
Y103000D01*
X319250Y84500D02*
X327750Y93000D01*
X333739Y108989D02*
X347239D01*
X366500Y128250D01*
X292250Y84500D02*
X319250D01*
X284000Y76250D02*
X292250Y84500D01*
X280500Y76250D02*
X284000D01*
X366500Y128250D02*
Y136500D01*
X351750Y190500D02*
X368500D01*
X0Y39000D02*
Y41689D01*
X-20250Y163500D02*
X-13000Y170750D01*
X-20250Y64250D02*
Y163500D01*
X0Y41689D02*
Y44000D01*
X-20250Y64250D02*
X0Y44000D01*
X-15750Y256744D02*
X-10247Y262247D01*
X348000Y159000D02*
X375000D01*
X368500Y190500D02*
X384250Y174750D01*
D158*
X234250Y135000D02*
X239000Y130250D01*
X216250Y135000D02*
X234250D01*
X210000Y128750D02*
X216250Y135000D01*
X210000Y88750D02*
Y128750D01*
Y88750D02*
X226460Y72290D01*
X377500Y122750D02*
X418250Y163500D01*
X320500Y72750D02*
X326250Y78500D01*
X308000Y72750D02*
X320500D01*
X304250Y69000D02*
X308000Y72750D01*
X290000Y69000D02*
X304250D01*
X326250Y78500D02*
X339382D01*
X308250Y216000D02*
X313800Y221550D01*
X308250Y186000D02*
Y216000D01*
X313800Y221550D02*
X317250D01*
X226460Y58750D02*
Y72290D01*
X317250Y106633D02*
Y176250D01*
X283250Y95250D02*
X305867D01*
X317250Y106633D01*
X377500Y116618D02*
Y122750D01*
X339382Y78500D02*
X377500Y116618D01*
X239000Y130250D02*
X254250D01*
X258750Y125750D01*
Y115000D02*
Y125750D01*
X256000Y112250D02*
X258750Y115000D01*
X256000Y96250D02*
Y112250D01*
X261750Y90500D02*
X278500D01*
X256000Y96250D02*
X261750Y90500D01*
X308453Y185047D02*
X317250Y176250D01*
X418250Y163500D02*
Y172500D01*
X278500Y90500D02*
X283250Y95250D01*
X317250Y221550D02*
X320126D01*
X337250Y204426D01*
D159*
X252705Y183955D02*
Y189431D01*
X277199Y193411D02*
X282675D01*
X332625Y170100D02*
X335955Y173430D01*
X342615D01*
X262695Y187285D02*
Y192761D01*
D161*
X-9750Y262247D02*
D03*
X234750Y235250D02*
D03*
X198750Y285500D02*
D03*
X53750Y274000D02*
D03*
X8750Y63750D02*
D03*
X31000Y193000D02*
D03*
Y197750D02*
D03*
X40750Y253250D02*
D03*
X47000Y251000D02*
D03*
X265000Y293500D02*
D03*
X54750Y255435D02*
D03*
X109750Y205250D02*
D03*
X46000Y231000D02*
D03*
X49500Y234000D02*
D03*
X217750Y181750D02*
D03*
X211250Y234500D02*
D03*
X213500Y230750D02*
D03*
X41500Y210500D02*
D03*
X115750Y73000D02*
D03*
X17500Y278000D02*
D03*
X20000Y247500D02*
D03*
X55750Y281250D02*
D03*
X182750Y239250D02*
D03*
X254750Y165590D02*
D03*
X177000Y5000D02*
D03*
X176500Y65250D02*
D03*
X288750Y287250D02*
D03*
X212500Y287500D02*
D03*
X243750Y289250D02*
D03*
X347750Y289000D02*
D03*
X103250Y255000D02*
D03*
X54500Y135250D02*
D03*
X75861Y72889D02*
D03*
X190000Y287000D02*
D03*
X101750Y273250D02*
D03*
X191500Y25000D02*
D03*
X357000Y148000D02*
D03*
X343000Y223750D02*
D03*
X182509Y148500D02*
D03*
X172509D02*
D03*
X433250Y205250D02*
D03*
X459250Y170750D02*
D03*
X464250Y211500D02*
D03*
X427250Y191750D02*
D03*
X122509Y118500D02*
D03*
X140000Y90500D02*
D03*
X330250Y72750D02*
D03*
X348750Y252250D02*
D03*
X238750Y96500D02*
D03*
X294750Y222750D02*
D03*
X331750Y8000D02*
D03*
X336000D02*
D03*
X340250Y8000D02*
D03*
X303000Y58750D02*
D03*
X307500D02*
D03*
X198500Y106000D02*
D03*
X6050Y104218D02*
D03*
Y96776D02*
D03*
X-5250Y145500D02*
D03*
X-5250Y139500D02*
D03*
X31000Y186000D02*
D03*
Y181500D02*
D03*
X14000Y61250D02*
D03*
X347500Y269000D02*
D03*
X259750Y256250D02*
D03*
X177509Y123500D02*
D03*
X347000Y70250D02*
D03*
X359250Y175750D02*
D03*
X165000Y64750D02*
D03*
X192750Y240500D02*
D03*
X83500Y137000D02*
D03*
X153500Y256000D02*
D03*
X188000Y258250D02*
D03*
X67250Y55750D02*
D03*
X407300Y175000D02*
D03*
X222250Y126250D02*
D03*
X231000Y121000D02*
D03*
X217200Y176250D02*
D03*
X222750Y228750D02*
D03*
X171250Y279500D02*
D03*
X286250Y274000D02*
D03*
X138500Y234750D02*
D03*
X1250Y276000D02*
D03*
X128500Y212250D02*
D03*
X137500Y219000D02*
D03*
X109250Y282250D02*
D03*
X239750Y287000D02*
D03*
X234500Y287000D02*
D03*
X338500Y223750D02*
D03*
X251500Y230250D02*
D03*
X391500Y218000D02*
D03*
X409000Y234250D02*
D03*
X329295Y140130D02*
D03*
X332750Y37500D02*
D03*
X340000Y37250D02*
D03*
X331000Y43750D02*
D03*
X148250Y96000D02*
D03*
X116250Y100500D02*
D03*
X750Y258000D02*
D03*
X378500Y124750D02*
D03*
X381750Y244000D02*
D03*
X379250Y221750D02*
D03*
X352000Y287250D02*
D03*
X400000Y287500D02*
D03*
X136000Y273250D02*
D03*
X210750Y275000D02*
D03*
X174750Y267250D02*
D03*
X261500Y274750D02*
D03*
X250750Y289500D02*
D03*
X183750Y274500D02*
D03*
X157250Y274750D02*
D03*
X41750Y20750D02*
D03*
X29000Y241000D02*
D03*
X72500Y260750D02*
D03*
X175750Y195250D02*
D03*
X59250Y145000D02*
D03*
X2250Y85500D02*
D03*
X72500Y274875D02*
D03*
X55000Y185350D02*
D03*
X99500Y165750D02*
D03*
X27750Y139000D02*
D03*
X170000Y95500D02*
D03*
X204000Y119000D02*
D03*
X89000Y101250D02*
D03*
X18500Y207250D02*
D03*
X71250Y114000D02*
D03*
X0Y51863D02*
D03*
X148000Y274500D02*
D03*
X164250Y261750D02*
D03*
X147500Y285000D02*
D03*
X115750Y77250D02*
D03*
X200300Y176300D02*
D03*
X0Y37204D02*
D03*
Y41689D02*
D03*
X228000Y158000D02*
D03*
X191000Y172500D02*
D03*
X13250Y90250D02*
D03*
X23250Y98500D02*
D03*
X156500Y195975D02*
D03*
X216250Y161500D02*
D03*
X205250Y141250D02*
D03*
X217500Y206387D02*
D03*
X1343Y271417D02*
D03*
X8550Y121058D02*
D03*
X-8250Y24000D02*
D03*
X73500Y283750D02*
D03*
X71250Y108000D02*
D03*
X162509Y118500D02*
D03*
X85000Y121250D02*
D03*
X84000Y127000D02*
D03*
X157509Y128500D02*
D03*
X5000Y197250D02*
D03*
X104000Y49750D02*
D03*
X340500Y269000D02*
D03*
X332250D02*
D03*
X324000D02*
D03*
X315750D02*
D03*
X307500D02*
D03*
X299250D02*
D03*
X84850Y175450D02*
D03*
X266025Y196741D02*
D03*
X252705Y156781D02*
D03*
X167509Y138500D02*
D03*
Y158500D02*
D03*
X177509Y128500D02*
D03*
X142509Y133500D02*
D03*
X108000Y176000D02*
D03*
X147509Y148500D02*
D03*
X132509Y118500D02*
D03*
X152509Y153500D02*
D03*
X147509Y168500D02*
D03*
X132509Y178500D02*
D03*
X117509Y173500D02*
D03*
X112509Y118750D02*
D03*
X137509Y123500D02*
D03*
X117509Y153500D02*
D03*
X122509Y138500D02*
D03*
X10000Y68750D02*
D03*
X14500Y131750D02*
D03*
X160000Y213000D02*
D03*
X161500Y209250D02*
D03*
X157000D02*
D03*
X57750Y40500D02*
D03*
X66500Y51000D02*
D03*
X60750Y5500D02*
D03*
X73500Y4000D02*
D03*
X217500Y155250D02*
D03*
X218750Y129250D02*
D03*
X371750Y122500D02*
D03*
X348500Y226000D02*
D03*
X235000Y212500D02*
D03*
X383923Y114500D02*
D03*
X373673Y88500D02*
D03*
X215750Y234500D02*
D03*
X111500Y249750D02*
D03*
X153750Y247750D02*
D03*
X97500Y274750D02*
D03*
X263500Y220750D02*
D03*
X292665Y203401D02*
D03*
X450000Y191750D02*
D03*
X368250Y147500D02*
D03*
X402750Y21750D02*
D03*
X463500Y63500D02*
D03*
X448500Y114650D02*
D03*
X329250Y18500D02*
D03*
X306000Y9750D02*
D03*
X301500Y9750D02*
D03*
X352250Y47250D02*
D03*
X356750Y47250D02*
D03*
X404750Y37000D02*
D03*
X445750Y101000D02*
D03*
X353500Y21000D02*
D03*
X375750Y11750D02*
D03*
X361000Y33578D02*
D03*
X355500Y33500D02*
D03*
X179146Y231250D02*
D03*
X183750Y231250D02*
D03*
X269355Y186751D02*
D03*
X422500Y177000D02*
D03*
X403500Y177750D02*
D03*
X404750Y70000D02*
D03*
X411750Y223500D02*
D03*
X400500Y211750D02*
D03*
X374500Y248250D02*
D03*
X306250Y287750D02*
D03*
X205500Y32250D02*
D03*
X-9750Y154250D02*
D03*
X391500Y222250D02*
D03*
X307000Y223000D02*
D03*
X347250Y213500D02*
D03*
X316750Y55500D02*
D03*
X375000Y45750D02*
D03*
X373500Y37000D02*
D03*
X400250Y38750D02*
D03*
X381250Y28750D02*
D03*
X444000Y155750D02*
D03*
X433250Y150750D02*
D03*
X-2928Y158497D02*
D03*
X385750Y110250D02*
D03*
X387500Y146250D02*
D03*
X252705Y176761D02*
D03*
X337500Y84750D02*
D03*
X312500Y89750D02*
D03*
X309315Y106830D02*
D03*
X-8654Y98497D02*
D03*
X-4000Y98500D02*
D03*
X-9500Y128747D02*
D03*
X-9500Y134494D02*
D03*
X-5000Y162500D02*
D03*
X-9250Y162500D02*
D03*
X-5250Y253997D02*
D03*
X-9750Y253995D02*
D03*
X-5250Y262247D02*
D03*
X-9750Y236750D02*
D03*
Y231250D02*
D03*
X-9500Y213000D02*
D03*
Y217250D02*
D03*
X155500Y89500D02*
D03*
X169250Y64750D02*
D03*
X207250Y214750D02*
D03*
X-9500Y124000D02*
D03*
X-9250Y78497D02*
D03*
X347250Y219000D02*
D03*
X418250Y173750D02*
D03*
X373050Y148500D02*
D03*
X394500Y173500D02*
D03*
X404500Y133000D02*
D03*
Y140000D02*
D03*
X3750Y3750D02*
D03*
X26604Y30750D02*
D03*
X22104D02*
D03*
X308000Y245000D02*
D03*
X414500Y200500D02*
D03*
X394500Y186750D02*
D03*
Y182250D02*
D03*
X210250Y74750D02*
D03*
X214000Y69500D02*
D03*
X203000Y66750D02*
D03*
X79000Y53000D02*
D03*
X77000Y56750D02*
D03*
X74750Y53000D02*
D03*
X417000Y114250D02*
D03*
X64000Y17000D02*
D03*
X25500Y22500D02*
D03*
X41500Y3000D02*
D03*
X56750Y3250D02*
D03*
X52000Y27250D02*
D03*
X30750D02*
D03*
X-8750Y45000D02*
D03*
Y39750D02*
D03*
X258250Y202250D02*
D03*
X245500Y206250D02*
D03*
X268250Y204750D02*
D03*
X442750Y111000D02*
D03*
X374750Y174000D02*
D03*
X267800Y213700D02*
D03*
X290000Y69000D02*
D03*
X264200Y65250D02*
D03*
X268250D02*
D03*
X276750Y75750D02*
D03*
X304500Y79000D02*
D03*
X276000Y80250D02*
D03*
X266250Y77250D02*
D03*
X254000Y79750D02*
D03*
X243250D02*
D03*
X317250Y221550D02*
D03*
X345750Y116750D02*
D03*
X299500Y181750D02*
D03*
X349371Y167579D02*
D03*
X351601Y189891D02*
D03*
X337250Y204426D02*
D03*
X327000Y54750D02*
D03*
X347250Y159000D02*
D03*
X458750Y192000D02*
D03*
X424750Y184250D02*
D03*
X442750Y105250D02*
D03*
X440750Y101000D02*
D03*
X430925Y119000D02*
D03*
X401000Y136500D02*
D03*
X410000Y115000D02*
D03*
X404450Y115000D02*
D03*
X398785Y115600D02*
D03*
X391000Y123750D02*
D03*
X411500Y165000D02*
D03*
X416250Y178000D02*
D03*
X395250Y57750D02*
D03*
X389500D02*
D03*
X426500Y213250D02*
D03*
X390000Y282500D02*
D03*
X323750Y284250D02*
D03*
X339250Y283500D02*
D03*
X416750Y130000D02*
D03*
X400750Y65750D02*
D03*
X415000Y99250D02*
D03*
X404750Y85500D02*
D03*
X407000Y251750D02*
D03*
X342615Y180090D02*
D03*
X289335Y200071D02*
D03*
X246045Y183421D02*
D03*
X233250Y183369D02*
D03*
X325965Y196741D02*
D03*
X292665Y190081D02*
D03*
X282675Y193411D02*
D03*
X329295Y186751D02*
D03*
X305985Y103500D02*
D03*
X252705Y143460D02*
D03*
Y150120D02*
D03*
X249375Y146790D02*
D03*
X242715Y120150D02*
D03*
X286005Y110160D02*
D03*
X272685Y103500D02*
D03*
X266025Y96840D02*
D03*
X342615Y173430D02*
D03*
X332625Y170100D02*
D03*
X270000Y31000D02*
D03*
X262250Y54750D02*
D03*
X256750D02*
D03*
X256750Y4750D02*
D03*
X262250D02*
D03*
X292500Y11750D02*
D03*
X297000D02*
D03*
X294750Y49750D02*
D03*
X290000D02*
D03*
X228000Y49250D02*
D03*
X232000D02*
D03*
X223750Y12500D02*
D03*
X228500D02*
D03*
X168500Y49750D02*
D03*
X173250D02*
D03*
X168500Y12250D02*
D03*
X173250D02*
D03*
X104750D02*
D03*
X100000D02*
D03*
X100000Y51000D02*
D03*
X133000Y57250D02*
D03*
X138500D02*
D03*
Y4250D02*
D03*
X133000D02*
D03*
X125250Y31000D02*
D03*
X246045Y150120D02*
D03*
D162*
X71500Y211000D02*
D03*
X82500D02*
D03*
X71500Y222000D02*
D03*
X82500Y222000D02*
D03*
X39750Y158250D02*
D03*
X50750D02*
D03*
Y169250D02*
D03*
X310645Y173400D02*
D03*
Y123400D02*
D03*
X270645D02*
D03*
Y173400D02*
D03*
D163*
X41750Y102250D02*
D03*
Y91250D02*
D03*
X52750Y102250D02*
D03*
Y91250D02*
D03*
X290645Y133500D02*
D03*
Y123500D02*
D03*
Y153500D02*
D03*
Y143500D02*
D03*
Y163500D02*
D03*
Y173500D02*
D03*
X300645Y173400D02*
D03*
Y163400D02*
D03*
Y143400D02*
D03*
Y153400D02*
D03*
Y123400D02*
D03*
Y133400D02*
D03*
X310645Y163400D02*
D03*
Y143400D02*
D03*
Y153400D02*
D03*
Y133400D02*
D03*
X270645D02*
D03*
Y153400D02*
D03*
Y143400D02*
D03*
Y163400D02*
D03*
X280645Y133400D02*
D03*
Y123400D02*
D03*
Y153400D02*
D03*
Y143400D02*
D03*
Y163400D02*
D03*
Y173400D02*
D03*
D164*
X106500Y84500D02*
X115500Y75500D01*
X0Y39000D02*
X12500Y51500D01*
X388500Y207500D02*
Y220500D01*
X392500Y183000D02*
Y203500D01*
X376250Y146250D02*
Y157500D01*
X214000Y234000D02*
Y239000D01*
X244750Y237750D02*
X248000D01*
X238750Y243750D02*
X244750Y237750D01*
X218750Y243750D02*
X238750D01*
X248000Y237750D02*
X251750Y234000D01*
X392250Y240040D02*
Y244500D01*
X376500Y260250D02*
X392250Y244500D01*
X92750Y64500D02*
X97250Y60000D01*
X63750Y64500D02*
X92750D01*
X97250Y60000D02*
X103250D01*
X86500Y53500D02*
X102500Y37500D01*
X76750Y53500D02*
X86500D01*
X26604Y35000D02*
X34250D01*
X69250Y84500D02*
X106500D01*
X27250Y51500D02*
X52750Y77000D01*
X12500Y51500D02*
X27250D01*
X124000Y56250D02*
Y59806D01*
X118250Y50500D02*
X124000Y56250D01*
X111750Y50500D02*
X118250D01*
X332250Y11250D02*
X362000D01*
X160750Y227250D02*
X167250Y233750D01*
Y243250D01*
X174500Y250500D01*
X192000D01*
X193750Y252250D01*
X196750Y259000D02*
X204000Y266250D01*
X251000Y53250D02*
X259750D01*
X249000Y7250D02*
X261000D01*
X135750Y54250D02*
X143000D01*
X129790Y7500D02*
X148500D01*
X102500Y34790D02*
Y37500D01*
Y34790D02*
X129790Y7500D01*
X124000Y59806D02*
X129944Y65750D01*
X103250Y60000D02*
X106000Y57250D01*
X187750Y16750D02*
X197250D01*
X184750Y19750D02*
X187750Y16750D01*
X176750Y19750D02*
X184750D01*
X52750Y77000D02*
X61750D01*
X69250Y84500D01*
X147250Y65750D02*
X160750Y52250D01*
X392250Y240040D02*
X402500Y229790D01*
X362250Y220500D02*
Y225500D01*
X350750Y237000D02*
X362250Y225500D01*
X312250Y237000D02*
X350750D01*
X363750Y219000D02*
X375250Y207500D01*
X297040Y260250D02*
X376500D01*
X375250Y207500D02*
X388500D01*
X306000Y230750D02*
X312250Y237000D01*
X293750Y230750D02*
X306000D01*
X291250Y233250D02*
X293750Y230750D01*
X169250Y36750D02*
X176210D01*
X180960Y41500D01*
X188250D01*
X215210Y47500D02*
X226460Y58750D01*
X194250Y47500D02*
X215210D01*
X188250Y41500D02*
X194250Y47500D01*
X226460Y58750D02*
X234500D01*
X381750Y51250D02*
X389000Y44000D01*
X384250Y20250D02*
X389000Y25000D01*
Y44000D01*
X429500Y64000D02*
X442099D01*
X415750Y77750D02*
X429500Y64000D01*
X398540Y77750D02*
X415750D01*
X442099Y64000D02*
X458000Y79901D01*
Y132250D01*
X362000Y11250D02*
X371000Y20250D01*
X384250D01*
X456000Y134250D02*
X458000Y132250D01*
X291040Y266250D02*
X297040Y260250D01*
X204000Y266250D02*
X291040D01*
X129944Y65750D02*
X147250D01*
X143000Y54250D02*
X148000Y49250D01*
Y39500D02*
Y49250D01*
Y39500D02*
X164250Y23250D01*
X160750Y45250D02*
Y52250D01*
X160750Y217500D02*
Y227250D01*
X402500Y221540D02*
Y229790D01*
Y221540D02*
X408790Y215250D01*
X456000Y134250D02*
Y162500D01*
X450750Y167750D02*
X456000Y162500D01*
X450750Y167750D02*
Y178500D01*
X252500Y233250D02*
X291250D01*
X429710Y221000D02*
X442250Y208460D01*
Y187000D02*
Y208460D01*
Y187000D02*
X450750Y178500D01*
X214000Y239000D02*
X218750Y243750D01*
X246250Y48500D02*
X251000Y53250D01*
X246250Y39500D02*
Y48500D01*
X231500Y24750D02*
X246250Y39500D01*
X388500Y207500D02*
X392500Y203500D01*
X242750Y67000D02*
X257000D01*
X234500Y58750D02*
X242750Y67000D01*
X422500Y221000D02*
X429710D01*
X34250Y35000D02*
X63750Y64500D01*
X381750Y60960D02*
X398540Y77750D01*
X160750Y45250D02*
X169250Y36750D01*
X148500Y7500D02*
X164250Y23250D01*
X381750Y51250D02*
Y60960D01*
X173250Y23250D02*
X176750Y19750D01*
X416750Y215250D02*
X422500Y221000D01*
X408790Y215250D02*
X416750D01*
X384250Y174750D02*
X392500Y183000D01*
X219750Y24750D02*
X231500D01*
X249000Y7250D01*
X164250Y23250D02*
X173250D01*
X384250Y165500D02*
Y174750D01*
X376250Y157500D02*
X384250Y165500D01*
D166*
X107321Y101250D02*
X115071Y93500D01*
X119250D01*
X90000Y101250D02*
X107321D01*
X119250Y93500D02*
X121750Y96000D01*
X128863D01*
X134500Y90363D01*
X135016Y85484D02*
Y86812D01*
Y85484D02*
X137000Y83500D01*
X152000D01*
X167250Y68250D01*
M02*
