G04*
G04 #@! TF.GenerationSoftware,Altium Limited,Altium Designer,19.1.6 (110)*
G04*
G04 Layer_Physical_Order=5*
G04 Layer_Color=16737945*
%FSLAX44Y44*%
%MOMM*%
G71*
G01*
G75*
%ADD145R,5.5000X5.5000*%
%ADD159C,0.1100*%
%ADD161C,0.3500*%
%ADD162C,0.5000*%
%ADD163C,0.4000*%
G36*
X465961Y158692D02*
X464895Y157980D01*
X463790Y156326D01*
X463402Y154375D01*
X463790Y152424D01*
X464895Y150770D01*
X465961Y150058D01*
Y146942D01*
X464895Y146230D01*
X463790Y144576D01*
X463402Y142625D01*
X463790Y140674D01*
X464895Y139020D01*
X465961Y138308D01*
Y2039D01*
X376825D01*
X375966Y3309D01*
X376054Y3750D01*
X375840Y4823D01*
X375233Y5733D01*
X374323Y6340D01*
X373250Y6554D01*
X372177Y6340D01*
X371267Y5733D01*
X370660Y4823D01*
X370446Y3750D01*
X370534Y3309D01*
X369675Y2039D01*
X265255D01*
X264595Y3309D01*
X264840Y3677D01*
X265054Y4750D01*
X264840Y5823D01*
X264233Y6733D01*
X263323Y7340D01*
X262250Y7554D01*
X261177Y7340D01*
X260267Y6733D01*
X260264Y6727D01*
X258736D01*
X258733Y6733D01*
X257823Y7340D01*
X256750Y7554D01*
X255677Y7340D01*
X254767Y6733D01*
X254160Y5823D01*
X253946Y4750D01*
X254160Y3677D01*
X254405Y3309D01*
X253745Y2039D01*
X205026Y2039D01*
X204057Y3489D01*
X204239Y4068D01*
X204602Y4716D01*
X205573Y4910D01*
X206483Y5517D01*
X207090Y6427D01*
X207304Y7500D01*
X207090Y8573D01*
X206483Y9483D01*
X205573Y10090D01*
X204500Y10304D01*
X203427Y10090D01*
X203377Y10057D01*
X202375Y9554D01*
X201374Y10057D01*
X201323Y10090D01*
X200250Y10304D01*
X199177Y10090D01*
X199126Y10057D01*
X198125Y9554D01*
X197124Y10057D01*
X197073Y10090D01*
X196000Y10304D01*
X194927Y10090D01*
X193557Y10622D01*
X193483Y10733D01*
X192573Y11340D01*
X191500Y11554D01*
X190427Y11340D01*
X189517Y10733D01*
X188910Y9823D01*
X188858Y9562D01*
X188323Y9340D01*
X187250Y9554D01*
X186177Y9340D01*
X185267Y8733D01*
X184660Y7823D01*
X184446Y6750D01*
X184660Y5677D01*
X185023Y5134D01*
X185020Y3605D01*
X183974Y2039D01*
X179740D01*
X179537Y2302D01*
X179177Y3309D01*
X179590Y3927D01*
X179804Y5000D01*
X179590Y6073D01*
X178983Y6983D01*
X178073Y7590D01*
X177000Y7804D01*
X175927Y7590D01*
X175017Y6983D01*
X174410Y6073D01*
X174196Y5000D01*
X174410Y3927D01*
X174823Y3309D01*
X174463Y2302D01*
X174260Y2039D01*
X159325D01*
X158466Y3309D01*
X158554Y3750D01*
X158340Y4823D01*
X157733Y5733D01*
X156823Y6340D01*
X155750Y6554D01*
X154677Y6340D01*
X153767Y5733D01*
X153160Y4823D01*
X152946Y3750D01*
X153034Y3309D01*
X152175Y2039D01*
X141858D01*
X141169Y3060D01*
X141117Y3309D01*
X141304Y4250D01*
X141090Y5323D01*
X140483Y6233D01*
X139573Y6840D01*
X138500Y7054D01*
X137427Y6840D01*
X136517Y6233D01*
X136514Y6227D01*
X134986D01*
X134983Y6233D01*
X134073Y6840D01*
X133000Y7054D01*
X131927Y6840D01*
X131017Y6233D01*
X130409Y5323D01*
X130196Y4250D01*
X130383Y3309D01*
X130331Y3060D01*
X129642Y2039D01*
X91440D01*
X90762Y3309D01*
X90840Y3427D01*
X91054Y4500D01*
X90890Y5324D01*
X91323Y5410D01*
X92233Y6017D01*
X92840Y6927D01*
X93054Y8000D01*
X92840Y9073D01*
X92233Y9983D01*
X91323Y10590D01*
X90250Y10804D01*
X89177Y10590D01*
X88267Y9983D01*
X88233D01*
X87323Y10590D01*
X86273Y10799D01*
X86233Y10899D01*
X86025Y12045D01*
X86733Y12517D01*
X87340Y13427D01*
X87554Y14500D01*
X87390Y15323D01*
X87823Y15410D01*
X88733Y16017D01*
X89340Y16927D01*
X89554Y18000D01*
X89340Y19073D01*
X88733Y19983D01*
X87823Y20590D01*
X86750Y20804D01*
X85677Y20590D01*
X84767Y19983D01*
X84733D01*
X83823Y20590D01*
X82750Y20804D01*
X81677Y20590D01*
X80767Y19983D01*
X80160Y19073D01*
X79946Y18000D01*
X80160Y16927D01*
X80767Y16017D01*
X81677Y15410D01*
X82110Y15323D01*
X81946Y14500D01*
X82160Y13427D01*
X82767Y12517D01*
X83677Y11910D01*
X84727Y11701D01*
X84767Y11601D01*
X84974Y10455D01*
X84267Y9983D01*
X83660Y9073D01*
X83446Y8000D01*
X83660Y6927D01*
X84267Y6017D01*
X85177Y5410D01*
X85610Y5324D01*
X85446Y4500D01*
X85660Y3427D01*
X85738Y3309D01*
X85059Y2039D01*
X76908D01*
X76166Y3309D01*
X76304Y4000D01*
X76090Y5073D01*
X75483Y5983D01*
X74573Y6590D01*
X73500Y6804D01*
X72427Y6590D01*
X71517Y5983D01*
X70910Y5073D01*
X70696Y4000D01*
X70834Y3309D01*
X70092Y2039D01*
X62806D01*
X62421Y3309D01*
X62733Y3517D01*
X63340Y4427D01*
X63554Y5500D01*
X63340Y6573D01*
X62733Y7483D01*
X61823Y8090D01*
X60750Y8304D01*
X59677Y8090D01*
X58767Y7483D01*
X58160Y6573D01*
X57946Y5500D01*
X58160Y4427D01*
X58767Y3517D01*
X59079Y3309D01*
X58694Y2039D01*
X2039D01*
Y12000D01*
X2029Y12050D01*
X2037Y12100D01*
X1998Y12884D01*
X1961Y13031D01*
Y13182D01*
X1655Y14720D01*
X1578Y14906D01*
X1539Y15103D01*
X1017Y16363D01*
X1058Y17320D01*
X1553Y17990D01*
X1983Y18277D01*
X2590Y19187D01*
X2804Y20260D01*
X2590Y21333D01*
X1983Y22242D01*
X1073Y22850D01*
X0Y23063D01*
X-1073Y22850D01*
X-1983Y22242D01*
X-2590Y21333D01*
X-3924Y21136D01*
X-4897Y21539D01*
X-5094Y21579D01*
X-5493Y22367D01*
X-5660Y22927D01*
X-5446Y24000D01*
X-5660Y25073D01*
X-6267Y25983D01*
X-7177Y26590D01*
X-8250Y26804D01*
X-9323Y26590D01*
X-10233Y25983D01*
X-10840Y25073D01*
X-11054Y24000D01*
X-10916Y23309D01*
X-11658Y22039D01*
X-35750Y22039D01*
Y176961D01*
X0Y176961D01*
X66Y176974D01*
X133Y176965D01*
X1177Y177034D01*
X1372Y177086D01*
X1572Y177099D01*
X3589Y177639D01*
X3828Y177757D01*
X4081Y177843D01*
X5890Y178887D01*
X6090Y179063D01*
X6312Y179211D01*
X7789Y180688D01*
X7937Y180910D01*
X8113Y181110D01*
X9157Y182919D01*
X9243Y183172D01*
X9361Y183411D01*
X9901Y185428D01*
X9919Y185694D01*
X9971Y185956D01*
Y188044D01*
X9919Y188306D01*
X9901Y188572D01*
X9361Y190589D01*
X9243Y190828D01*
X9157Y191081D01*
X8113Y192890D01*
X7937Y193090D01*
X7789Y193312D01*
X6312Y194789D01*
X6090Y194937D01*
X5890Y195113D01*
X4081Y196157D01*
X3828Y196243D01*
X3589Y196361D01*
X1572Y196901D01*
X1372Y196914D01*
X1178Y196966D01*
X133Y197035D01*
X66Y197026D01*
X0Y197039D01*
X-35750D01*
Y274961D01*
X-8000Y274961D01*
X-7950Y274971D01*
X-7900Y274963D01*
X-7116Y275002D01*
X-6969Y275039D01*
X-6818D01*
X-5280Y275345D01*
X-5094Y275421D01*
X-4897Y275461D01*
X-3449Y276061D01*
X-3282Y276172D01*
X-3096Y276249D01*
X-2754Y276478D01*
X-2216Y276264D01*
X-1510Y275781D01*
X-1340Y274927D01*
X-733Y274017D01*
X-1088Y272728D01*
X-1247Y272490D01*
X-1461Y271417D01*
X-1247Y270344D01*
X-639Y269434D01*
X270Y268827D01*
X1343Y268613D01*
X2416Y268827D01*
X3326Y269434D01*
X3934Y270344D01*
X4147Y271417D01*
X3934Y272490D01*
X3326Y273400D01*
X3682Y274689D01*
X3840Y274927D01*
X4054Y276000D01*
X3840Y277073D01*
X3233Y277983D01*
X2323Y278590D01*
X1396Y278775D01*
X998Y279324D01*
X676Y279985D01*
X751Y280096D01*
X828Y280282D01*
X939Y280448D01*
X1539Y281897D01*
X1578Y282094D01*
X1655Y282280D01*
X1961Y283818D01*
Y283969D01*
X1998Y284116D01*
X2037Y284900D01*
X2029Y284950D01*
X2039Y285000D01*
X2039Y294961D01*
X146745D01*
X147405Y293691D01*
X147160Y293323D01*
X146946Y292250D01*
X147160Y291177D01*
X147767Y290267D01*
X148677Y289660D01*
X149750Y289446D01*
X150823Y289660D01*
X151733Y290267D01*
X152340Y291177D01*
X152554Y292250D01*
X152340Y293323D01*
X152095Y293691D01*
X152755Y294961D01*
X183974D01*
X185020Y293395D01*
X186674Y292290D01*
X188625Y291902D01*
X190576Y292290D01*
X192230Y293395D01*
X193276Y294961D01*
X195724D01*
X196770Y293395D01*
X198424Y292290D01*
X200375Y291902D01*
X202326Y292290D01*
X203980Y293395D01*
X205026Y294961D01*
X280070D01*
X280441Y293943D01*
X280490Y293691D01*
X279910Y292823D01*
X279696Y291750D01*
X279910Y290677D01*
X280518Y289767D01*
X281427Y289160D01*
X282500Y288946D01*
X283573Y289160D01*
X284483Y289767D01*
X285091Y290677D01*
X285304Y291750D01*
X285091Y292823D01*
X284511Y293691D01*
X284559Y293943D01*
X284930Y294961D01*
X465961D01*
Y158692D01*
D02*
G37*
%LPC*%
G36*
X243750Y292054D02*
X242677Y291840D01*
X241767Y291233D01*
X241160Y290323D01*
X241130Y290172D01*
X240823Y289590D01*
X239750Y289804D01*
X238677Y289590D01*
X237767Y288983D01*
X236483Y288983D01*
X235573Y289590D01*
X234500Y289804D01*
X233427Y289590D01*
X232517Y288983D01*
X231910Y288073D01*
X231696Y287000D01*
X231910Y285927D01*
X232517Y285017D01*
X233427Y284410D01*
X234500Y284196D01*
X235573Y284410D01*
X236483Y285017D01*
X237767Y285017D01*
X238677Y284410D01*
X239750Y284196D01*
X240823Y284410D01*
X241733Y285017D01*
X242340Y285927D01*
X243739Y286448D01*
X243750Y286446D01*
X244823Y286660D01*
X245733Y287267D01*
X246340Y288177D01*
X246554Y289250D01*
X246340Y290323D01*
X245733Y291233D01*
X244823Y291840D01*
X243750Y292054D01*
D02*
G37*
G36*
X194500Y289804D02*
X193427Y289590D01*
X193204Y289441D01*
X192250Y289083D01*
X191296Y289441D01*
X191073Y289590D01*
X190000Y289804D01*
X188927Y289590D01*
X188017Y288983D01*
X187409Y288073D01*
X187196Y287000D01*
X187409Y285927D01*
X188017Y285017D01*
X188927Y284410D01*
X190000Y284196D01*
X191073Y284410D01*
X191296Y284559D01*
X192250Y284917D01*
X193204Y284559D01*
X193427Y284410D01*
X194500Y284196D01*
X195573Y284410D01*
X195814Y284570D01*
X196160Y284427D01*
X196767Y283517D01*
X197677Y282910D01*
X198750Y282696D01*
X199823Y282910D01*
X200733Y283517D01*
X201340Y284427D01*
X201554Y285500D01*
X201340Y286573D01*
X200733Y287483D01*
X199823Y288090D01*
X198750Y288304D01*
X197677Y288090D01*
X197436Y287930D01*
X197090Y288073D01*
X196482Y288983D01*
X195573Y289590D01*
X194500Y289804D01*
D02*
G37*
G36*
X135500Y293054D02*
X134427Y292840D01*
X133517Y292233D01*
X132910Y291323D01*
X132696Y290250D01*
X132910Y289177D01*
X133517Y288267D01*
X134427Y287660D01*
X135500Y287446D01*
X136573Y287660D01*
X137483Y288267D01*
X138090Y289177D01*
X138304Y290250D01*
X138090Y291323D01*
X137483Y292233D01*
X136573Y292840D01*
X135500Y293054D01*
D02*
G37*
G36*
X347750Y291804D02*
X346677Y291590D01*
X345767Y290983D01*
X345160Y290073D01*
X344946Y289000D01*
X345160Y287927D01*
X345767Y287017D01*
X346677Y286410D01*
X347750Y286196D01*
X348823Y286410D01*
X349733Y287017D01*
X350340Y287927D01*
X350554Y289000D01*
X350340Y290073D01*
X349733Y290983D01*
X348823Y291590D01*
X347750Y291804D01*
D02*
G37*
G36*
X212500Y290304D02*
X211427Y290090D01*
X210517Y289483D01*
X209910Y288573D01*
X209696Y287500D01*
X209910Y286427D01*
X210517Y285517D01*
X211427Y284910D01*
X212500Y284696D01*
X213573Y284910D01*
X214483Y285517D01*
X215090Y286427D01*
X215304Y287500D01*
X215090Y288573D01*
X214483Y289483D01*
X213573Y290090D01*
X212500Y290304D01*
D02*
G37*
G36*
X288750Y290054D02*
X287677Y289840D01*
X286767Y289233D01*
X286160Y288323D01*
X285946Y287250D01*
X286160Y286177D01*
X286767Y285267D01*
X287677Y284660D01*
X288750Y284446D01*
X289823Y284660D01*
X290733Y285267D01*
X291340Y286177D01*
X291554Y287250D01*
X291340Y288323D01*
X290733Y289233D01*
X289823Y289840D01*
X288750Y290054D01*
D02*
G37*
G36*
X157000D02*
X155927Y289840D01*
X155017Y289233D01*
X154410Y288323D01*
X154196Y287250D01*
X154410Y286177D01*
X155017Y285267D01*
X155927Y284660D01*
X157000Y284446D01*
X158073Y284660D01*
X158983Y285267D01*
X159590Y286177D01*
X159804Y287250D01*
X159590Y288323D01*
X158983Y289233D01*
X158073Y289840D01*
X157000Y290054D01*
D02*
G37*
G36*
X147500Y287804D02*
X146427Y287590D01*
X145517Y286983D01*
X144910Y286073D01*
X144696Y285000D01*
X144910Y283927D01*
X145517Y283017D01*
X146427Y282410D01*
X147500Y282196D01*
X148573Y282410D01*
X149483Y283017D01*
X150090Y283927D01*
X150304Y285000D01*
X150090Y286073D01*
X149483Y286983D01*
X148573Y287590D01*
X147500Y287804D01*
D02*
G37*
G36*
X73500Y286554D02*
X72427Y286340D01*
X71517Y285733D01*
X70910Y284823D01*
X70696Y283750D01*
X70910Y282677D01*
X71517Y281767D01*
X72427Y281159D01*
X73500Y280946D01*
X74573Y281159D01*
X75483Y281767D01*
X76090Y282677D01*
X76304Y283750D01*
X76090Y284823D01*
X75483Y285733D01*
X74573Y286340D01*
X73500Y286554D01*
D02*
G37*
G36*
X163500Y286304D02*
X162427Y286090D01*
X161517Y285483D01*
X160910Y284573D01*
X160696Y283500D01*
X160910Y282427D01*
X161517Y281517D01*
X162427Y280910D01*
X163500Y280696D01*
X164573Y280910D01*
X165483Y281517D01*
X166090Y282427D01*
X166304Y283500D01*
X166090Y284573D01*
X165483Y285483D01*
X164573Y286090D01*
X163500Y286304D01*
D02*
G37*
G36*
X175500Y285554D02*
X174427Y285340D01*
X173517Y284733D01*
X172909Y283823D01*
X172696Y282750D01*
X172909Y281677D01*
X173517Y280767D01*
X174427Y280160D01*
X175500Y279946D01*
X176573Y280160D01*
X177482Y280767D01*
X178090Y281677D01*
X178304Y282750D01*
X178090Y283823D01*
X177482Y284733D01*
X176573Y285340D01*
X175500Y285554D01*
D02*
G37*
G36*
X205250Y285554D02*
X204177Y285340D01*
X203267Y284733D01*
X202660Y283823D01*
X202446Y282750D01*
X202660Y281677D01*
X203267Y280767D01*
X204177Y280160D01*
X205250Y279946D01*
X206323Y280160D01*
X207233Y280767D01*
X207840Y281677D01*
X208054Y282750D01*
X207840Y283823D01*
X207233Y284733D01*
X206323Y285340D01*
X205250Y285554D01*
D02*
G37*
G36*
X55750Y284054D02*
X54677Y283840D01*
X53767Y283233D01*
X53160Y282323D01*
X52946Y281250D01*
X53160Y280177D01*
X53767Y279267D01*
X54677Y278660D01*
X55750Y278446D01*
X56823Y278660D01*
X57733Y279267D01*
X58340Y280177D01*
X58554Y281250D01*
X58340Y282323D01*
X57733Y283233D01*
X56823Y283840D01*
X55750Y284054D01*
D02*
G37*
G36*
X127750Y283804D02*
X126677Y283590D01*
X125767Y282983D01*
X125160Y282073D01*
X124946Y281000D01*
X125160Y279927D01*
X125767Y279017D01*
X126677Y278410D01*
X127750Y278196D01*
X128823Y278410D01*
X129733Y279017D01*
X130340Y279927D01*
X130554Y281000D01*
X130340Y282073D01*
X129733Y282983D01*
X128823Y283590D01*
X127750Y283804D01*
D02*
G37*
G36*
X228500Y278054D02*
X227427Y277840D01*
X226517Y277233D01*
X225399Y277623D01*
X225073Y277840D01*
X224000Y278054D01*
X222927Y277840D01*
X222017Y277233D01*
X221410Y276323D01*
X221196Y275250D01*
X221410Y274177D01*
X222017Y273267D01*
X222927Y272659D01*
X224000Y272446D01*
X225073Y272659D01*
X225983Y273267D01*
X227101Y272877D01*
X227427Y272660D01*
X228500Y272446D01*
X229573Y272660D01*
X230483Y273267D01*
X231090Y274177D01*
X231304Y275250D01*
X231090Y276323D01*
X230483Y277233D01*
X229573Y277840D01*
X228500Y278054D01*
D02*
G37*
G36*
X259250Y285804D02*
X258177Y285590D01*
X257267Y284983D01*
X256660Y284073D01*
X256446Y283000D01*
X256660Y281927D01*
X257267Y281017D01*
X258177Y280410D01*
X259250Y280196D01*
X260323Y280410D01*
X260431Y280482D01*
X261767Y280767D01*
X262677Y280159D01*
X263750Y279946D01*
X263843Y279965D01*
X264946Y279000D01*
X265160Y277927D01*
X265767Y277017D01*
X266677Y276409D01*
X267750Y276196D01*
X268823Y276409D01*
X269733Y277017D01*
X270340Y277927D01*
X270554Y279000D01*
X270340Y280073D01*
X269733Y280982D01*
X268823Y281590D01*
X267750Y281804D01*
X267657Y281785D01*
X266554Y282750D01*
X266340Y283823D01*
X265733Y284732D01*
X264823Y285340D01*
X263750Y285554D01*
X262677Y285340D01*
X262569Y285268D01*
X261232Y284983D01*
X260323Y285590D01*
X259250Y285804D01*
D02*
G37*
G36*
X358000Y283804D02*
X356927Y283590D01*
X356017Y282983D01*
X355410Y282073D01*
X355196Y281000D01*
X355410Y279927D01*
X355790Y279358D01*
X355932Y278500D01*
X355790Y277642D01*
X355410Y277073D01*
X355196Y276000D01*
X355410Y274927D01*
X356017Y274017D01*
X356927Y273410D01*
X358000Y273196D01*
X359073Y273410D01*
X359982Y274017D01*
X360590Y274927D01*
X360804Y276000D01*
X360590Y277073D01*
X360210Y277642D01*
X360068Y278500D01*
X360210Y279358D01*
X360590Y279927D01*
X360804Y281000D01*
X360590Y282073D01*
X359982Y282983D01*
X359073Y283590D01*
X358000Y283804D01*
D02*
G37*
G36*
X106750Y289054D02*
X105677Y288840D01*
X104767Y288233D01*
X104160Y287323D01*
X103946Y286250D01*
X104160Y285177D01*
X104767Y284267D01*
X105677Y283660D01*
X106446Y282250D01*
X106660Y281177D01*
X107267Y280267D01*
X108148Y279679D01*
X108171Y279541D01*
X108113Y278377D01*
X107927Y278340D01*
X107017Y277733D01*
X106410Y276823D01*
X106196Y275750D01*
X106410Y274677D01*
X107017Y273767D01*
X107927Y273160D01*
X109000Y272946D01*
X110073Y273160D01*
X110983Y273767D01*
X111590Y274677D01*
X111804Y275750D01*
X111590Y276823D01*
X110983Y277733D01*
X110102Y278321D01*
X110079Y278459D01*
X110137Y279623D01*
X110323Y279660D01*
X111233Y280267D01*
X111840Y281177D01*
X112054Y282250D01*
X111840Y283323D01*
X111233Y284233D01*
X110323Y284840D01*
X109554Y286250D01*
X109340Y287323D01*
X108733Y288233D01*
X107823Y288840D01*
X106750Y289054D01*
D02*
G37*
G36*
X72500Y277679D02*
X71427Y277465D01*
X70517Y276857D01*
X69910Y275948D01*
X69696Y274875D01*
X69910Y273802D01*
X70517Y272892D01*
X71427Y272285D01*
X72500Y272071D01*
X73573Y272285D01*
X74483Y272892D01*
X75090Y273802D01*
X75304Y274875D01*
X75090Y275948D01*
X74483Y276857D01*
X73573Y277465D01*
X72500Y277679D01*
D02*
G37*
G36*
X189250Y277304D02*
X188177Y277090D01*
X187267Y276483D01*
X186660Y275573D01*
X186446Y274500D01*
X186660Y273427D01*
X187267Y272517D01*
X188177Y271910D01*
X189250Y271696D01*
X190323Y271910D01*
X191233Y272517D01*
X191840Y273427D01*
X192054Y274500D01*
X191840Y275573D01*
X191233Y276483D01*
X190323Y277090D01*
X189250Y277304D01*
D02*
G37*
G36*
X148000D02*
X146927Y277090D01*
X146017Y276483D01*
X145410Y275573D01*
X145196Y274500D01*
X145410Y273427D01*
X146017Y272517D01*
X146927Y271910D01*
X148000Y271696D01*
X149073Y271910D01*
X149983Y272517D01*
X150590Y273427D01*
X150804Y274500D01*
X150590Y275573D01*
X149983Y276483D01*
X149073Y277090D01*
X148000Y277304D01*
D02*
G37*
G36*
X402000Y277254D02*
X400927Y277040D01*
X400017Y276433D01*
X399410Y275523D01*
X399196Y274450D01*
X399410Y273377D01*
X400017Y272467D01*
X400927Y271860D01*
X402000Y271646D01*
X403073Y271860D01*
X403983Y272467D01*
X404590Y273377D01*
X404804Y274450D01*
X404590Y275523D01*
X403983Y276433D01*
X403073Y277040D01*
X402000Y277254D01*
D02*
G37*
G36*
X317000Y277054D02*
X315927Y276840D01*
X315017Y276233D01*
X314410Y275323D01*
X314196Y274250D01*
X314410Y273177D01*
X315017Y272267D01*
X315927Y271660D01*
X317000Y271446D01*
X318073Y271660D01*
X318983Y272267D01*
X319590Y273177D01*
X319804Y274250D01*
X319590Y275323D01*
X318983Y276233D01*
X318073Y276840D01*
X317000Y277054D01*
D02*
G37*
G36*
X333500Y276804D02*
X332427Y276590D01*
X331517Y275983D01*
X330910Y275073D01*
X330696Y274000D01*
X330910Y272927D01*
X331517Y272017D01*
X332427Y271410D01*
X333500Y271196D01*
X334573Y271410D01*
X335483Y272017D01*
X336090Y272927D01*
X336304Y274000D01*
X336090Y275073D01*
X335483Y275983D01*
X334573Y276590D01*
X333500Y276804D01*
D02*
G37*
G36*
X101750Y276054D02*
X100677Y275840D01*
X99767Y275233D01*
X99159Y274323D01*
X98946Y273250D01*
X99159Y272177D01*
X99767Y271267D01*
X100677Y270660D01*
X101750Y270446D01*
X102823Y270660D01*
X103733Y271267D01*
X104340Y272177D01*
X104554Y273250D01*
X104340Y274323D01*
X103733Y275233D01*
X102823Y275840D01*
X101750Y276054D01*
D02*
G37*
G36*
X64000Y275304D02*
X62927Y275090D01*
X62017Y274483D01*
X61410Y273573D01*
X61196Y272500D01*
X61410Y271427D01*
X62017Y270517D01*
X62927Y269910D01*
X64000Y269696D01*
X65073Y269910D01*
X65983Y270517D01*
X66590Y271427D01*
X66804Y272500D01*
X66590Y273573D01*
X65983Y274483D01*
X65073Y275090D01*
X64000Y275304D01*
D02*
G37*
G36*
X53750Y276804D02*
X52677Y276590D01*
X51767Y275983D01*
X51160Y275073D01*
X50946Y274000D01*
X51160Y272927D01*
X51767Y272017D01*
X52677Y271410D01*
X53660Y270823D01*
X53446Y269750D01*
X53660Y268677D01*
X54268Y267767D01*
X55177Y267160D01*
X56250Y266946D01*
X57323Y267160D01*
X58233Y267767D01*
X58840Y268677D01*
X59054Y269750D01*
X58840Y270823D01*
X58233Y271733D01*
X57323Y272341D01*
X56340Y272927D01*
X56554Y274000D01*
X56340Y275073D01*
X55733Y275983D01*
X54823Y276590D01*
X53750Y276804D01*
D02*
G37*
G36*
X358250Y271304D02*
X357177Y271091D01*
X356267Y270483D01*
X355659Y269573D01*
X355446Y268500D01*
X355659Y267427D01*
X356267Y266518D01*
X357177Y265910D01*
X358250Y265696D01*
X359323Y265910D01*
X360233Y266518D01*
X360840Y267427D01*
X361054Y268500D01*
X360840Y269573D01*
X360233Y270483D01*
X359323Y271091D01*
X358250Y271304D01*
D02*
G37*
G36*
X-5250Y265051D02*
X-6323Y264838D01*
X-6546Y264688D01*
X-7500Y264330D01*
X-8454Y264688D01*
X-8677Y264838D01*
X-9750Y265051D01*
X-10823Y264838D01*
X-11733Y264230D01*
X-12341Y263320D01*
X-12554Y262247D01*
X-12341Y261174D01*
X-11733Y260265D01*
X-10823Y259657D01*
X-9750Y259443D01*
X-8677Y259657D01*
X-8454Y259806D01*
X-7500Y260164D01*
X-6546Y259806D01*
X-6323Y259657D01*
X-5250Y259443D01*
X-4177Y259657D01*
X-3267Y260265D01*
X-2660Y261174D01*
X-2446Y262247D01*
X-2660Y263320D01*
X-3267Y264230D01*
X-4177Y264838D01*
X-5250Y265051D01*
D02*
G37*
G36*
X263750Y269804D02*
X262677Y269591D01*
X261767Y268983D01*
X261160Y268073D01*
X260946Y267000D01*
X261160Y265927D01*
X261767Y265018D01*
X262677Y264410D01*
X263750Y264196D01*
X264823Y264410D01*
X265733Y265018D01*
X266340Y265927D01*
X266554Y267000D01*
X266340Y268073D01*
X265733Y268983D01*
X264823Y269591D01*
X263750Y269804D01*
D02*
G37*
G36*
X113750Y269054D02*
X112677Y268840D01*
X111767Y268233D01*
X111160Y267323D01*
X110946Y266250D01*
X111160Y265177D01*
X111767Y264267D01*
X112677Y263660D01*
X113750Y263446D01*
X114823Y263660D01*
X115733Y264267D01*
X116340Y265177D01*
X116554Y266250D01*
X116340Y267323D01*
X115733Y268233D01*
X114823Y268840D01*
X113750Y269054D01*
D02*
G37*
G36*
X289500Y267754D02*
X288427Y267540D01*
X287518Y266933D01*
X286910Y266023D01*
X286696Y264950D01*
X286910Y263877D01*
X287518Y262967D01*
X288427Y262360D01*
X289500Y262146D01*
X290573Y262360D01*
X291483Y262967D01*
X292090Y263877D01*
X292304Y264950D01*
X292090Y266023D01*
X291483Y266933D01*
X290573Y267540D01*
X289500Y267754D01*
D02*
G37*
G36*
X250750Y265554D02*
X249677Y265340D01*
X248767Y264733D01*
X248160Y263823D01*
X247946Y262750D01*
X248160Y261677D01*
X248767Y260767D01*
X249677Y260160D01*
X250750Y259946D01*
X251823Y260160D01*
X252733Y260767D01*
X253340Y261677D01*
X253554Y262750D01*
X253340Y263823D01*
X252733Y264733D01*
X251823Y265340D01*
X250750Y265554D01*
D02*
G37*
G36*
X94250D02*
X93177Y265340D01*
X92267Y264733D01*
X91660Y263823D01*
X91446Y262750D01*
X91660Y261677D01*
X92267Y260767D01*
X93177Y260160D01*
X94250Y259946D01*
X95323Y260160D01*
X96233Y260767D01*
X96840Y261677D01*
X97054Y262750D01*
X96840Y263823D01*
X96233Y264733D01*
X95323Y265340D01*
X94250Y265554D01*
D02*
G37*
G36*
X177250Y264554D02*
X176177Y264340D01*
X175267Y263733D01*
X174660Y262823D01*
X174446Y261750D01*
X174660Y260677D01*
X175267Y259767D01*
X176177Y259160D01*
X177250Y258946D01*
X178323Y259160D01*
X179233Y259767D01*
X179840Y260677D01*
X180054Y261750D01*
X179840Y262823D01*
X179233Y263733D01*
X178323Y264340D01*
X177250Y264554D01*
D02*
G37*
G36*
X406000Y262554D02*
X404927Y262340D01*
X404017Y261733D01*
X403410Y260823D01*
X403196Y259750D01*
X403410Y258677D01*
X404017Y257767D01*
X404927Y257160D01*
X406000Y256946D01*
X407073Y257160D01*
X407983Y257767D01*
X408590Y258677D01*
X408804Y259750D01*
X408590Y260823D01*
X407983Y261733D01*
X407073Y262340D01*
X406000Y262554D01*
D02*
G37*
G36*
X750Y260804D02*
X-323Y260590D01*
X-1233Y259983D01*
X-1840Y259073D01*
X-2054Y258000D01*
X-1840Y256927D01*
X-1233Y256017D01*
X-323Y255410D01*
X750Y255196D01*
X1823Y255410D01*
X2733Y256017D01*
X3340Y256927D01*
X3554Y258000D01*
X3340Y259073D01*
X2733Y259983D01*
X1823Y260590D01*
X750Y260804D01*
D02*
G37*
G36*
X145500Y259554D02*
X144427Y259340D01*
X143517Y258733D01*
X142910Y257823D01*
X142696Y256750D01*
X142910Y255677D01*
X143517Y254767D01*
X144427Y254160D01*
X145500Y253946D01*
X146573Y254160D01*
X147483Y254767D01*
X148090Y255677D01*
X148304Y256750D01*
X148090Y257823D01*
X147483Y258733D01*
X146573Y259340D01*
X145500Y259554D01*
D02*
G37*
G36*
X171000Y259504D02*
X169927Y259290D01*
X169017Y258683D01*
X168410Y257773D01*
X168196Y256700D01*
X168410Y255627D01*
X169017Y254717D01*
X169927Y254110D01*
X171000Y253896D01*
X172073Y254110D01*
X172983Y254717D01*
X173590Y255627D01*
X173804Y256700D01*
X173590Y257773D01*
X172983Y258683D01*
X172073Y259290D01*
X171000Y259504D01*
D02*
G37*
G36*
X259750Y259054D02*
X258677Y258840D01*
X257768Y258233D01*
X257160Y257323D01*
X256946Y256250D01*
X257160Y255177D01*
X257768Y254267D01*
X258677Y253660D01*
X259750Y253446D01*
X260823Y253660D01*
X261733Y254267D01*
X262341Y255177D01*
X262554Y256250D01*
X262341Y257323D01*
X261733Y258233D01*
X260823Y258840D01*
X259750Y259054D01*
D02*
G37*
G36*
X153500Y258804D02*
X152427Y258590D01*
X151517Y257983D01*
X150910Y257073D01*
X150696Y256000D01*
X150910Y254927D01*
X151517Y254017D01*
X152427Y253410D01*
X153500Y253196D01*
X154573Y253410D01*
X155483Y254017D01*
X156090Y254927D01*
X156304Y256000D01*
X156090Y257073D01*
X155483Y257983D01*
X154573Y258590D01*
X153500Y258804D01*
D02*
G37*
G36*
X14500Y258554D02*
X13427Y258340D01*
X12517Y257733D01*
X11910Y256823D01*
X11696Y255750D01*
X11910Y254677D01*
X12517Y253767D01*
X13427Y253160D01*
X14500Y252946D01*
X15573Y253160D01*
X16483Y253767D01*
X17090Y254677D01*
X17304Y255750D01*
X17090Y256823D01*
X16483Y257733D01*
X15573Y258340D01*
X14500Y258554D01*
D02*
G37*
G36*
X103250Y257804D02*
X102177Y257590D01*
X101267Y256983D01*
X100660Y256073D01*
X100446Y255000D01*
X100660Y253927D01*
X101267Y253017D01*
X102177Y252410D01*
X103250Y252196D01*
X104323Y252410D01*
X105233Y253017D01*
X105841Y253927D01*
X106054Y255000D01*
X105841Y256073D01*
X105233Y256983D01*
X104323Y257590D01*
X103250Y257804D01*
D02*
G37*
G36*
X5500Y255054D02*
X4427Y254840D01*
X3517Y254233D01*
X2910Y253323D01*
X2804Y252795D01*
X1642Y252130D01*
X1472Y252111D01*
X500Y252304D01*
X-573Y252090D01*
X-1483Y251483D01*
X-2090Y250573D01*
X-2304Y249500D01*
X-2090Y248427D01*
X-1483Y247517D01*
X-573Y246910D01*
X500Y246696D01*
X1573Y246910D01*
X2483Y247517D01*
X3090Y248427D01*
X3195Y248955D01*
X4358Y249620D01*
X4528Y249639D01*
X5500Y249446D01*
X6573Y249660D01*
X7483Y250267D01*
X8090Y251177D01*
X8304Y252250D01*
X8090Y253323D01*
X7483Y254233D01*
X6573Y254840D01*
X5500Y255054D01*
D02*
G37*
G36*
X111500Y257054D02*
X110427Y256840D01*
X109517Y256233D01*
X108910Y255323D01*
X108696Y254250D01*
X108910Y253177D01*
X109517Y252267D01*
X110427Y251660D01*
X111500Y251446D01*
X112573Y251660D01*
X113483Y252267D01*
X114090Y253177D01*
X114304Y254250D01*
X114090Y255323D01*
X113483Y256233D01*
X112573Y256840D01*
X111500Y257054D01*
D02*
G37*
G36*
X233500Y256804D02*
X232427Y256590D01*
X231517Y255983D01*
X230910Y255073D01*
X230696Y254000D01*
X230910Y252927D01*
X231517Y252017D01*
X232427Y251410D01*
X233500Y251196D01*
X234573Y251410D01*
X235483Y252017D01*
X236090Y252927D01*
X236304Y254000D01*
X236090Y255073D01*
X235483Y255983D01*
X234573Y256590D01*
X233500Y256804D01*
D02*
G37*
G36*
X243000Y259054D02*
X241927Y258840D01*
X241017Y258233D01*
X240410Y257323D01*
X240196Y256250D01*
X240410Y255177D01*
X241017Y254267D01*
X241927Y253660D01*
X243000Y253446D01*
X244073Y253660D01*
X244719Y254091D01*
X245392Y253904D01*
X245633Y253791D01*
X245990Y253529D01*
X246160Y252677D01*
X246767Y251767D01*
X247677Y251159D01*
X248750Y250946D01*
X249823Y251159D01*
X250733Y251767D01*
X251340Y252677D01*
X251554Y253750D01*
X251340Y254823D01*
X250733Y255733D01*
X249823Y256340D01*
X248750Y256554D01*
X247677Y256340D01*
X247031Y255909D01*
X246358Y256096D01*
X246117Y256209D01*
X245760Y256471D01*
X245590Y257323D01*
X244983Y258233D01*
X244073Y258840D01*
X243000Y259054D01*
D02*
G37*
G36*
X369250Y261304D02*
X368177Y261090D01*
X367267Y260483D01*
X366660Y259573D01*
X366446Y258500D01*
X366660Y257427D01*
X367267Y256517D01*
Y255483D01*
X366660Y254573D01*
X366446Y253500D01*
X366660Y252427D01*
X367267Y251517D01*
X368177Y250910D01*
X369250Y250696D01*
X370323Y250910D01*
X371233Y251517D01*
X371840Y252427D01*
X372054Y253500D01*
X371840Y254573D01*
X371233Y255483D01*
Y256517D01*
X371840Y257427D01*
X372054Y258500D01*
X371840Y259573D01*
X371233Y260483D01*
X370323Y261090D01*
X369250Y261304D01*
D02*
G37*
G36*
X210250Y255804D02*
X209177Y255590D01*
X208267Y254983D01*
X207660Y254073D01*
X207446Y253000D01*
X207660Y251927D01*
X208267Y251017D01*
X209177Y250410D01*
X210250Y250196D01*
X211323Y250410D01*
X212233Y251017D01*
X212840Y251927D01*
X213054Y253000D01*
X212840Y254073D01*
X212233Y254983D01*
X211323Y255590D01*
X210250Y255804D01*
D02*
G37*
G36*
X358500Y255304D02*
X357427Y255090D01*
X356517Y254483D01*
X355910Y253573D01*
X355696Y252500D01*
X355910Y251427D01*
X356517Y250517D01*
X357427Y249910D01*
X358500Y249696D01*
X359573Y249910D01*
X360483Y250517D01*
X361090Y251427D01*
X361304Y252500D01*
X361090Y253573D01*
X360483Y254483D01*
X359573Y255090D01*
X358500Y255304D01*
D02*
G37*
G36*
X287000Y257804D02*
X285927Y257590D01*
X285017Y256983D01*
X284410Y256073D01*
X284196Y255000D01*
X283105Y253976D01*
X283052Y253966D01*
X282142Y253358D01*
X281535Y252448D01*
X281321Y251375D01*
X281535Y250302D01*
X282142Y249393D01*
X283052Y248785D01*
X284125Y248571D01*
X285198Y248785D01*
X286108Y249393D01*
X286715Y250302D01*
X286929Y251375D01*
X288020Y252399D01*
X288073Y252410D01*
X288983Y253017D01*
X289590Y253927D01*
X289804Y255000D01*
X289590Y256073D01*
X288983Y256983D01*
X288073Y257590D01*
X287000Y257804D01*
D02*
G37*
G36*
X40750Y256054D02*
X39677Y255840D01*
X38767Y255233D01*
X38160Y254323D01*
X37946Y253250D01*
X38160Y252177D01*
X38767Y251267D01*
X39677Y250660D01*
X40750Y250446D01*
X41823Y250660D01*
X42733Y251267D01*
X43049Y251740D01*
X44245Y251245D01*
X44196Y251000D01*
X44410Y249927D01*
X45017Y249017D01*
X45927Y248410D01*
X47000Y248196D01*
X48073Y248410D01*
X48983Y249017D01*
X49590Y249927D01*
X49804Y251000D01*
X49590Y252073D01*
X48983Y252983D01*
X48073Y253590D01*
X47000Y253804D01*
X45927Y253590D01*
X45017Y252983D01*
X44701Y252510D01*
X43505Y253005D01*
X43554Y253250D01*
X43340Y254323D01*
X42733Y255233D01*
X41823Y255840D01*
X40750Y256054D01*
D02*
G37*
G36*
X264250Y253554D02*
X263177Y253340D01*
X262267Y252733D01*
X261660Y251823D01*
X261446Y250750D01*
X261660Y249677D01*
X262267Y248767D01*
X263177Y248160D01*
X264250Y247946D01*
X265323Y248160D01*
X266233Y248767D01*
X266840Y249677D01*
X267054Y250750D01*
X266840Y251823D01*
X266233Y252733D01*
X265323Y253340D01*
X264250Y253554D01*
D02*
G37*
G36*
X93750Y251054D02*
X92677Y250840D01*
X91767Y250233D01*
X91160Y249323D01*
X90946Y248250D01*
X91160Y247177D01*
X91767Y246267D01*
X92677Y245660D01*
X93750Y245446D01*
X94823Y245660D01*
X95733Y246267D01*
X96340Y247177D01*
X96554Y248250D01*
X96340Y249323D01*
X95733Y250233D01*
X94823Y250840D01*
X93750Y251054D01*
D02*
G37*
G36*
X20000Y250304D02*
X18927Y250091D01*
X18017Y249483D01*
X17410Y248573D01*
X17196Y247500D01*
X17410Y246427D01*
X18017Y245518D01*
X18927Y244910D01*
X20000Y244696D01*
X21073Y244910D01*
X21983Y245518D01*
X22590Y246427D01*
X22804Y247500D01*
X22590Y248573D01*
X21983Y249483D01*
X21073Y250091D01*
X20000Y250304D01*
D02*
G37*
G36*
X402000Y249804D02*
X400927Y249590D01*
X400017Y248983D01*
X399410Y248073D01*
X399196Y247000D01*
X399410Y245927D01*
X400017Y245017D01*
X400927Y244410D01*
X402000Y244196D01*
X403073Y244410D01*
X403983Y245017D01*
X404590Y245927D01*
X404804Y247000D01*
X404590Y248073D01*
X403983Y248983D01*
X403073Y249590D01*
X402000Y249804D01*
D02*
G37*
G36*
X149250Y248504D02*
X148177Y248290D01*
X147268Y247683D01*
X146660Y246773D01*
X146446Y245700D01*
X146660Y244627D01*
X147268Y243717D01*
X148177Y243110D01*
X149250Y242896D01*
X150323Y243110D01*
X151233Y243717D01*
X151840Y244627D01*
X152054Y245700D01*
X151840Y246773D01*
X151233Y247683D01*
X150323Y248290D01*
X149250Y248504D01*
D02*
G37*
G36*
X293500Y247804D02*
X292427Y247591D01*
X291518Y246983D01*
X290910Y246073D01*
X290696Y245000D01*
X290910Y243927D01*
X291518Y243018D01*
X292427Y242410D01*
X293500Y242196D01*
X294573Y242410D01*
X295142Y242790D01*
X296000Y242932D01*
X296858Y242790D01*
X297427Y242410D01*
X298500Y242196D01*
X299573Y242410D01*
X300483Y243017D01*
X301090Y243927D01*
X301304Y245000D01*
X301090Y246073D01*
X300483Y246983D01*
X299573Y247591D01*
X298500Y247804D01*
X297427Y247591D01*
X296858Y247210D01*
X296000Y247068D01*
X295142Y247210D01*
X294573Y247591D01*
X293500Y247804D01*
D02*
G37*
G36*
X5500Y247439D02*
X4427Y247226D01*
X3517Y246618D01*
X2910Y245708D01*
X2696Y244635D01*
X2910Y243562D01*
X3517Y242653D01*
X4427Y242045D01*
X5500Y241831D01*
X6573Y242045D01*
X7483Y242653D01*
X8090Y243562D01*
X8304Y244635D01*
X8090Y245708D01*
X7483Y246618D01*
X6573Y247226D01*
X5500Y247439D01*
D02*
G37*
G36*
X192750Y243304D02*
X191677Y243090D01*
X190767Y242483D01*
X190160Y241573D01*
X189073Y241840D01*
X188000Y242054D01*
X186927Y241840D01*
X186017Y241233D01*
X184733Y241233D01*
X183823Y241840D01*
X182750Y242054D01*
X181677Y241840D01*
X180767Y241233D01*
X180160Y240323D01*
X179946Y239250D01*
X180160Y238177D01*
X180767Y237267D01*
X181677Y236660D01*
X182750Y236446D01*
X183823Y236660D01*
X184733Y237267D01*
X186017Y237267D01*
X186927Y236660D01*
X188000Y236446D01*
X189073Y236660D01*
X189983Y237267D01*
X190590Y238177D01*
X191677Y237910D01*
X192750Y237696D01*
X193823Y237910D01*
X194733Y238517D01*
X195340Y239427D01*
X195554Y240500D01*
X195340Y241573D01*
X194733Y242483D01*
X193823Y243090D01*
X192750Y243304D01*
D02*
G37*
G36*
X156750Y246554D02*
X155677Y246341D01*
X154767Y245733D01*
X154160Y244823D01*
X153946Y243750D01*
X154160Y242677D01*
X154767Y241767D01*
X155677Y241160D01*
X156750Y240946D01*
X157823Y241160D01*
X158733Y241767D01*
X159340Y242677D01*
X159554Y243750D01*
X159340Y244823D01*
X158733Y245733D01*
X157823Y246341D01*
X156750Y246554D01*
D02*
G37*
G36*
X79500Y245304D02*
X78427Y245090D01*
X77517Y244483D01*
X76910Y243573D01*
X76696Y242500D01*
X76910Y241427D01*
X77517Y240517D01*
X78427Y239910D01*
X79500Y239696D01*
X80573Y239910D01*
X81483Y240517D01*
X82090Y241427D01*
X82304Y242500D01*
X82090Y243573D01*
X81483Y244483D01*
X80573Y245090D01*
X79500Y245304D01*
D02*
G37*
G36*
X381750Y242304D02*
X380677Y242090D01*
X379767Y241483D01*
X379160Y240573D01*
X378946Y239500D01*
X379160Y238427D01*
X379767Y237517D01*
X380677Y236910D01*
X381750Y236696D01*
X382823Y236910D01*
X383733Y237517D01*
X384340Y238427D01*
X384554Y239500D01*
X384340Y240573D01*
X383733Y241483D01*
X382823Y242090D01*
X381750Y242304D01*
D02*
G37*
G36*
X303000D02*
X301927Y242090D01*
X301017Y241483D01*
X300410Y240573D01*
X300196Y239500D01*
X300410Y238427D01*
X301017Y237517D01*
X301927Y236910D01*
X303000Y236696D01*
X304073Y236910D01*
X304983Y237517D01*
X305590Y238427D01*
X305804Y239500D01*
X305590Y240573D01*
X304983Y241483D01*
X304073Y242090D01*
X303000Y242304D01*
D02*
G37*
G36*
X234750Y238054D02*
X233677Y237840D01*
X232767Y237233D01*
X232160Y236323D01*
X231946Y235250D01*
X230817Y234418D01*
X230678Y234390D01*
X229841Y234950D01*
X229554Y235250D01*
X229340Y236323D01*
X228733Y237233D01*
X227823Y237840D01*
X226750Y238054D01*
X225677Y237840D01*
X224767Y237233D01*
X223983D01*
X223073Y237840D01*
X222000Y238054D01*
X220927Y237840D01*
X220017Y237233D01*
X219410Y236323D01*
X219398Y236267D01*
X218051Y236005D01*
X217733Y236483D01*
X216823Y237090D01*
X215750Y237304D01*
X214677Y237090D01*
X213767Y236483D01*
X213767Y236483D01*
X213233D01*
X212323Y237090D01*
X211250Y237304D01*
X210177Y237090D01*
X209267Y236483D01*
X208660Y235573D01*
X208446Y234500D01*
X208660Y233427D01*
X209267Y232517D01*
X210177Y231910D01*
X210898Y231766D01*
X210696Y230750D01*
X210910Y229677D01*
X211517Y228767D01*
X212427Y228160D01*
X213500Y227946D01*
X214573Y228160D01*
X215483Y228767D01*
X216090Y229677D01*
X216304Y230750D01*
X216102Y231766D01*
X216823Y231910D01*
X217733Y232517D01*
X218340Y233427D01*
X218351Y233483D01*
X219698Y233745D01*
X220017Y233267D01*
X220927Y232660D01*
X222000Y232446D01*
X223073Y232660D01*
X223650Y233045D01*
X224436Y232848D01*
X224789Y232172D01*
X224949Y231507D01*
X224660Y231073D01*
X224446Y230000D01*
X224660Y228927D01*
X224927Y227890D01*
X224017Y227283D01*
X223410Y226373D01*
X223265Y225649D01*
X222958Y225178D01*
X222020Y224700D01*
X221500Y224804D01*
X220427Y224590D01*
X219517Y223983D01*
X218910Y223073D01*
X218696Y222000D01*
X218910Y220927D01*
X219517Y220017D01*
X220427Y219410D01*
X221500Y219196D01*
X222573Y219410D01*
X223483Y220017D01*
X224090Y220927D01*
X224234Y221651D01*
X224542Y222122D01*
X225480Y222600D01*
X226000Y222496D01*
X227073Y222710D01*
X227983Y223317D01*
X228590Y224227D01*
X228804Y225300D01*
X228590Y226373D01*
X228323Y227410D01*
X229233Y228017D01*
X229423Y228303D01*
X230427Y229160D01*
X231500Y228946D01*
X232573Y229160D01*
X233483Y229767D01*
X234090Y230677D01*
X234304Y231750D01*
X235433Y232582D01*
X235823Y232660D01*
X236733Y233267D01*
X237340Y234177D01*
X237554Y235250D01*
X237340Y236323D01*
X236733Y237233D01*
X235823Y237840D01*
X234750Y238054D01*
D02*
G37*
G36*
X151050Y239804D02*
X149977Y239590D01*
X149067Y238983D01*
X148460Y238073D01*
X148246Y237000D01*
X148460Y235927D01*
X149067Y235017D01*
X149977Y234410D01*
X151050Y234196D01*
X152123Y234410D01*
X153033Y235017D01*
X153640Y235927D01*
X153854Y237000D01*
X153640Y238073D01*
X153033Y238983D01*
X152123Y239590D01*
X151050Y239804D01*
D02*
G37*
G36*
X32500Y239304D02*
X31427Y239090D01*
X30517Y238483D01*
X29910Y237573D01*
X29696Y236500D01*
X29910Y235427D01*
X30517Y234517D01*
X31427Y233910D01*
X32500Y233696D01*
X33573Y233910D01*
X34483Y234517D01*
X35090Y235427D01*
X35304Y236500D01*
X35090Y237573D01*
X34483Y238483D01*
X33573Y239090D01*
X32500Y239304D01*
D02*
G37*
G36*
X117000Y239054D02*
X115927Y238840D01*
X115017Y238233D01*
X114410Y237323D01*
X114196Y236250D01*
X114410Y235177D01*
X115017Y234267D01*
X115927Y233660D01*
X117000Y233446D01*
X118073Y233660D01*
X118983Y234267D01*
X119590Y235177D01*
X119804Y236250D01*
X119590Y237323D01*
X118983Y238233D01*
X118073Y238840D01*
X117000Y239054D01*
D02*
G37*
G36*
X435500Y238554D02*
X434427Y238340D01*
X433517Y237733D01*
X432910Y236823D01*
X432696Y235750D01*
X432910Y234677D01*
X433517Y233767D01*
X434427Y233160D01*
X435500Y232946D01*
X436573Y233160D01*
X437483Y233767D01*
X438090Y234677D01*
X438304Y235750D01*
X438090Y236823D01*
X437483Y237733D01*
X436573Y238340D01*
X435500Y238554D01*
D02*
G37*
G36*
X84500D02*
X83427Y238340D01*
X82517Y237733D01*
X81910Y236823D01*
X81696Y235750D01*
X81910Y234677D01*
X82517Y233767D01*
X83427Y233160D01*
X84500Y232946D01*
X85573Y233160D01*
X86483Y233767D01*
X87090Y234677D01*
X87304Y235750D01*
X87090Y236823D01*
X86483Y237733D01*
X85573Y238340D01*
X84500Y238554D01*
D02*
G37*
G36*
X-2750D02*
X-3823Y238340D01*
X-4733Y237733D01*
X-5340Y236823D01*
X-5554Y235750D01*
X-5340Y234677D01*
X-4733Y233767D01*
X-3823Y233160D01*
X-2750Y232946D01*
X-1677Y233160D01*
X-767Y233767D01*
X-160Y234677D01*
X54Y235750D01*
X-160Y236823D01*
X-767Y237733D01*
X-1677Y238340D01*
X-2750Y238554D01*
D02*
G37*
G36*
X138500Y237554D02*
X137427Y237340D01*
X136517Y236733D01*
X135910Y235823D01*
X135696Y234750D01*
X135910Y233677D01*
X136517Y232767D01*
X137427Y232160D01*
X138500Y231946D01*
X139573Y232160D01*
X140483Y232767D01*
X141090Y233677D01*
X141304Y234750D01*
X141090Y235823D01*
X140483Y236733D01*
X139573Y237340D01*
X138500Y237554D01*
D02*
G37*
G36*
X100250Y236804D02*
X99177Y236590D01*
X98267Y235983D01*
X97660Y235073D01*
X97446Y234000D01*
X97660Y232927D01*
X98267Y232017D01*
X99177Y231410D01*
X100250Y231196D01*
X101323Y231410D01*
X102233Y232017D01*
X102840Y232927D01*
X103054Y234000D01*
X102840Y235073D01*
X102233Y235983D01*
X101323Y236590D01*
X100250Y236804D01*
D02*
G37*
G36*
X413750Y234304D02*
X412677Y234090D01*
X411768Y233483D01*
X411160Y232573D01*
X410946Y231500D01*
X411160Y230427D01*
X411768Y229517D01*
X412677Y228910D01*
X413750Y228696D01*
X414823Y228910D01*
X415733Y229517D01*
X416341Y230427D01*
X416554Y231500D01*
X416341Y232573D01*
X415733Y233483D01*
X414823Y234090D01*
X413750Y234304D01*
D02*
G37*
G36*
X49500Y236804D02*
X48427Y236590D01*
X47517Y235983D01*
X46909Y235073D01*
X46696Y234000D01*
X45462Y233697D01*
X44927Y233590D01*
X44017Y232983D01*
X43410Y232073D01*
X43196Y231000D01*
X43410Y229927D01*
X44017Y229017D01*
X44927Y228410D01*
X46000Y228196D01*
X47073Y228410D01*
X47983Y229017D01*
X48590Y229927D01*
X48804Y231000D01*
X50038Y231303D01*
X50573Y231410D01*
X51483Y232017D01*
X52090Y232927D01*
X52304Y234000D01*
X52090Y235073D01*
X51483Y235983D01*
X50573Y236590D01*
X49500Y236804D01*
D02*
G37*
G36*
X251500Y233054D02*
X250427Y232840D01*
X249517Y232233D01*
X248910Y231323D01*
X248696Y230250D01*
X248910Y229177D01*
X249517Y228267D01*
X250427Y227660D01*
X251500Y227446D01*
X252573Y227660D01*
X253483Y228267D01*
X254090Y229177D01*
X254304Y230250D01*
X254090Y231323D01*
X253483Y232233D01*
X252573Y232840D01*
X251500Y233054D01*
D02*
G37*
G36*
X343000Y226554D02*
X341927Y226340D01*
X341017Y225733D01*
X340483D01*
X339573Y226340D01*
X338500Y226554D01*
X337427Y226340D01*
X336517Y225733D01*
X335910Y224823D01*
X335696Y223750D01*
X335910Y222677D01*
X336517Y221767D01*
X337427Y221160D01*
X338500Y220946D01*
X339573Y221160D01*
X340483Y221767D01*
X341017D01*
X341927Y221160D01*
X343000Y220946D01*
X343825Y221110D01*
X344434Y220502D01*
X344665Y220081D01*
X344660Y220073D01*
X344446Y219000D01*
X344660Y217927D01*
X345267Y217017D01*
X346177Y216410D01*
X347250Y216196D01*
X348323Y216410D01*
X349233Y217017D01*
X349840Y217927D01*
X350054Y219000D01*
X349840Y220073D01*
X349233Y220983D01*
X348323Y221590D01*
X347250Y221804D01*
X346425Y221640D01*
X345816Y222248D01*
X345585Y222669D01*
X345590Y222677D01*
X345804Y223750D01*
X345590Y224823D01*
X344983Y225733D01*
X344073Y226340D01*
X343000Y226554D01*
D02*
G37*
G36*
X7050Y233554D02*
X5977Y233340D01*
X5067Y232733D01*
X4460Y231823D01*
X4246Y230750D01*
X4460Y229677D01*
X5067Y228767D01*
X5977Y228160D01*
X7050Y227946D01*
X8123Y228159D01*
X9034Y227241D01*
X9517Y226517D01*
X10427Y225910D01*
X11500Y225696D01*
X12573Y225910D01*
X13483Y226517D01*
X14090Y227427D01*
X14304Y228500D01*
X14090Y229573D01*
X13483Y230483D01*
X12573Y231090D01*
X11500Y231304D01*
X10427Y231090D01*
X9516Y232009D01*
X9033Y232733D01*
X8123Y233340D01*
X7050Y233554D01*
D02*
G37*
G36*
X109250Y230804D02*
X108177Y230590D01*
X107267Y229983D01*
X106660Y229073D01*
X106446Y228000D01*
X106660Y226927D01*
X107267Y226017D01*
X108177Y225410D01*
X109250Y225196D01*
X110323Y225410D01*
X111233Y226017D01*
X111840Y226927D01*
X112054Y228000D01*
X111840Y229073D01*
X111233Y229983D01*
X110323Y230590D01*
X109250Y230804D01*
D02*
G37*
G36*
X146750Y228554D02*
X145677Y228340D01*
X144767Y227733D01*
X144160Y226823D01*
X143946Y225750D01*
X144160Y224677D01*
X144767Y223767D01*
X145677Y223160D01*
X146750Y222946D01*
X147823Y223160D01*
X148733Y223767D01*
X149340Y224677D01*
X149554Y225750D01*
X149340Y226823D01*
X148733Y227733D01*
X147823Y228340D01*
X146750Y228554D01*
D02*
G37*
G36*
X450750Y228004D02*
X449677Y227790D01*
X448767Y227183D01*
X448160Y226273D01*
X447946Y225200D01*
X448160Y224127D01*
X448767Y223217D01*
X449677Y222610D01*
X450750Y222396D01*
X451823Y222610D01*
X452733Y223217D01*
X453340Y224127D01*
X453554Y225200D01*
X453340Y226273D01*
X452733Y227183D01*
X451823Y227790D01*
X450750Y228004D01*
D02*
G37*
G36*
X96250Y231304D02*
X95177Y231090D01*
X94267Y230483D01*
X93660Y229573D01*
X93446Y228500D01*
X93660Y227427D01*
X93809Y227204D01*
X94167Y226250D01*
X93809Y225296D01*
X93660Y225073D01*
X93446Y224000D01*
X93660Y222927D01*
X94267Y222017D01*
X95177Y221410D01*
X96250Y221196D01*
X97323Y221410D01*
X98233Y222017D01*
X98840Y222927D01*
X99054Y224000D01*
X98840Y225073D01*
X98691Y225296D01*
X98333Y226250D01*
X98691Y227204D01*
X98840Y227427D01*
X99054Y228500D01*
X98840Y229573D01*
X98233Y230483D01*
X97323Y231090D01*
X96250Y231304D01*
D02*
G37*
G36*
X282750Y228304D02*
X281677Y228090D01*
X280767Y227483D01*
X280159Y226573D01*
X279946Y225500D01*
X280159Y224427D01*
X280767Y223517D01*
X281677Y222910D01*
X282750Y222696D01*
X283823Y222910D01*
X284733Y223517D01*
X284974Y223879D01*
X285432Y223831D01*
X286246Y223497D01*
X286410Y222677D01*
X287017Y221767D01*
X287927Y221160D01*
X289000Y220946D01*
X290073Y221160D01*
X290983Y221767D01*
X291590Y222677D01*
X291804Y223750D01*
X291590Y224823D01*
X290983Y225733D01*
X290073Y226340D01*
X289000Y226554D01*
X287927Y226340D01*
X287017Y225733D01*
X286776Y225371D01*
X286318Y225419D01*
X285504Y225753D01*
X285340Y226573D01*
X284733Y227483D01*
X283823Y228090D01*
X282750Y228304D01*
D02*
G37*
G36*
X317250Y224354D02*
X316177Y224140D01*
X315268Y223533D01*
X314660Y222623D01*
X314446Y221550D01*
X314660Y220477D01*
X315268Y219567D01*
X316177Y218960D01*
X317250Y218746D01*
X318323Y218960D01*
X319233Y219567D01*
X319841Y220477D01*
X320054Y221550D01*
X319841Y222623D01*
X319233Y223533D01*
X318323Y224140D01*
X317250Y224354D01*
D02*
G37*
G36*
X263500Y223554D02*
X262427Y223340D01*
X261517Y222733D01*
X260910Y221823D01*
X260696Y220750D01*
X260910Y219677D01*
X261517Y218767D01*
X262427Y218160D01*
X263500Y217946D01*
X264573Y218160D01*
X265483Y218767D01*
X266090Y219677D01*
X266304Y220750D01*
X266090Y221823D01*
X265483Y222733D01*
X264573Y223340D01*
X263500Y223554D01*
D02*
G37*
G36*
X1750D02*
X677Y223340D01*
X-233Y222733D01*
X-840Y221823D01*
X-1054Y220750D01*
X-840Y219677D01*
X-233Y218767D01*
X677Y218160D01*
X1750Y217946D01*
X2823Y218160D01*
X3733Y218767D01*
X4340Y219677D01*
X4554Y220750D01*
X4340Y221823D01*
X3733Y222733D01*
X2823Y223340D01*
X1750Y223554D01*
D02*
G37*
G36*
X142000Y221804D02*
X140927Y221590D01*
X140017Y220983D01*
X139410Y220073D01*
X139196Y219000D01*
X139410Y217927D01*
X140017Y217017D01*
X140927Y216410D01*
X142000Y216196D01*
X143073Y216410D01*
X143983Y217017D01*
X144590Y217927D01*
X144804Y219000D01*
X144590Y220073D01*
X143983Y220983D01*
X143073Y221590D01*
X142000Y221804D01*
D02*
G37*
G36*
X267800Y216504D02*
X266727Y216290D01*
X265818Y215683D01*
X265722Y215540D01*
X264233Y215483D01*
X263323Y216090D01*
X262250Y216304D01*
X261177Y216090D01*
X260267Y215483D01*
X259660Y214573D01*
X259446Y213500D01*
X259660Y212427D01*
X260267Y211517D01*
X261177Y210910D01*
X261897Y210766D01*
X262456Y209856D01*
X262552Y209461D01*
X262460Y209323D01*
X262246Y208250D01*
X262460Y207177D01*
X263067Y206267D01*
X263977Y205660D01*
X265050Y205446D01*
X266123Y205660D01*
X267033Y206267D01*
X267640Y207177D01*
X267854Y208250D01*
X267640Y209323D01*
X267401Y209681D01*
X267556Y210152D01*
X268071Y210950D01*
X268873Y211110D01*
X269783Y211717D01*
X270390Y212627D01*
X270604Y213700D01*
X270390Y214773D01*
X269783Y215683D01*
X268873Y216290D01*
X267800Y216504D01*
D02*
G37*
G36*
X391500Y225054D02*
X390427Y224840D01*
X389517Y224233D01*
X388910Y223323D01*
X388696Y222250D01*
X388910Y221177D01*
X388943Y221126D01*
X389446Y220125D01*
X388943Y219123D01*
X388910Y219073D01*
X388696Y218000D01*
X388910Y216927D01*
X389517Y216017D01*
X390427Y215410D01*
X391500Y215196D01*
X392573Y215410D01*
X393483Y216017D01*
X394090Y216927D01*
X394304Y218000D01*
X394090Y219073D01*
X394057Y219123D01*
X393554Y220125D01*
X394057Y221126D01*
X394090Y221177D01*
X394304Y222250D01*
X394090Y223323D01*
X393483Y224233D01*
X392573Y224840D01*
X391500Y225054D01*
D02*
G37*
G36*
X26950Y214554D02*
X25877Y214340D01*
X24968Y213733D01*
X24033D01*
X23123Y214340D01*
X22050Y214554D01*
X20977Y214340D01*
X20067Y213733D01*
X19460Y212823D01*
X19246Y211750D01*
X19360Y211178D01*
X18562Y210135D01*
X18391Y210032D01*
X17427Y209841D01*
X16517Y209233D01*
X15910Y208323D01*
X15696Y207250D01*
X15910Y206177D01*
X16517Y205267D01*
X17427Y204660D01*
X18500Y204446D01*
X19573Y204660D01*
X20483Y205267D01*
X21090Y206177D01*
X21304Y207250D01*
X21190Y207822D01*
X21988Y208865D01*
X22159Y208968D01*
X23123Y209160D01*
X24033Y209767D01*
X24968D01*
X25877Y209160D01*
X26950Y208946D01*
X28023Y209160D01*
X28933Y209767D01*
X29541Y210677D01*
X29754Y211750D01*
X29541Y212823D01*
X28933Y213733D01*
X28023Y214340D01*
X26950Y214554D01*
D02*
G37*
G36*
X117500Y219054D02*
X116427Y218840D01*
X115517Y218233D01*
X114910Y217323D01*
X114696Y216250D01*
X114910Y215177D01*
X115517Y214267D01*
X116427Y213660D01*
X117500Y213446D01*
X118573Y213660D01*
X119483Y214267D01*
X120091Y215177D01*
X120304Y216250D01*
X120091Y217323D01*
X119483Y218233D01*
X118573Y218840D01*
X117500Y219054D01*
D02*
G37*
G36*
X45250Y217304D02*
X44177Y217090D01*
X43267Y216483D01*
X42660Y215573D01*
X42446Y214500D01*
X42660Y213427D01*
X43267Y212517D01*
X44177Y211910D01*
X45250Y211696D01*
X46323Y211910D01*
X47233Y212517D01*
X47840Y213427D01*
X48054Y214500D01*
X47840Y215573D01*
X47233Y216483D01*
X46323Y217090D01*
X45250Y217304D01*
D02*
G37*
G36*
X56750Y212804D02*
X55677Y212590D01*
X54767Y211983D01*
X54160Y211073D01*
X53946Y210000D01*
X54160Y208927D01*
X54767Y208017D01*
X55677Y207410D01*
X56750Y207196D01*
X57823Y207410D01*
X58733Y208017D01*
X59340Y208927D01*
X59554Y210000D01*
X59340Y211073D01*
X58733Y211983D01*
X57823Y212590D01*
X56750Y212804D01*
D02*
G37*
G36*
X160000Y215804D02*
X158927Y215590D01*
X158018Y214982D01*
X157410Y214073D01*
X157255Y213298D01*
X157194Y212997D01*
X156124Y211880D01*
X155927Y211840D01*
X155017Y211233D01*
X154410Y210323D01*
X154196Y209250D01*
X154410Y208177D01*
X155017Y207267D01*
X155927Y206660D01*
X157000Y206446D01*
X158073Y206660D01*
X158983Y207267D01*
X159517D01*
X160427Y206660D01*
X161500Y206446D01*
X162573Y206660D01*
X163483Y207267D01*
X164090Y208177D01*
X164304Y209250D01*
X164090Y210323D01*
X163483Y211233D01*
X162573Y211840D01*
X162590Y211926D01*
X162591Y211927D01*
X162804Y213000D01*
X162591Y214073D01*
X161983Y214982D01*
X161073Y215590D01*
X160000Y215804D01*
D02*
G37*
G36*
X145768Y211322D02*
X144695Y211108D01*
X143785Y210500D01*
X143177Y209591D01*
X142964Y208518D01*
X143177Y207445D01*
X143785Y206535D01*
X144695Y205927D01*
X145768Y205714D01*
X146841Y205927D01*
X147750Y206535D01*
X148358Y207445D01*
X148572Y208518D01*
X148358Y209591D01*
X147750Y210500D01*
X146841Y211108D01*
X145768Y211322D01*
D02*
G37*
G36*
X235000Y210554D02*
X233927Y210340D01*
X233017Y209733D01*
X232410Y208823D01*
X232196Y207750D01*
X232410Y206677D01*
X233017Y205767D01*
X233927Y205160D01*
X235000Y204946D01*
X236073Y205160D01*
X236983Y205767D01*
X237590Y206677D01*
X237804Y207750D01*
X237590Y208823D01*
X236983Y209733D01*
X236073Y210340D01*
X235000Y210554D01*
D02*
G37*
G36*
X224500Y210054D02*
X223427Y209841D01*
X222517Y209233D01*
X221909Y208323D01*
X221696Y207250D01*
X221909Y206177D01*
X222517Y205268D01*
X223427Y204660D01*
X224500Y204446D01*
X225573Y204660D01*
X226483Y205268D01*
X227090Y206177D01*
X227304Y207250D01*
X227090Y208323D01*
X226483Y209233D01*
X225573Y209841D01*
X224500Y210054D01*
D02*
G37*
G36*
X178250Y209304D02*
X177177Y209090D01*
X176267Y208483D01*
X175660Y207573D01*
X175446Y206500D01*
X175660Y205427D01*
X176267Y204517D01*
X177177Y203910D01*
X178250Y203696D01*
X179323Y203910D01*
X180233Y204517D01*
X180840Y205427D01*
X181054Y206500D01*
X180840Y207573D01*
X180233Y208483D01*
X179323Y209090D01*
X178250Y209304D01*
D02*
G37*
G36*
X217500Y209191D02*
X216427Y208977D01*
X215517Y208370D01*
X214910Y207460D01*
X214696Y206387D01*
X214910Y205314D01*
X215517Y204404D01*
X216427Y203796D01*
X217500Y203583D01*
X218573Y203796D01*
X219483Y204404D01*
X220091Y205314D01*
X220304Y206387D01*
X220091Y207460D01*
X219483Y208370D01*
X218573Y208977D01*
X217500Y209191D01*
D02*
G37*
G36*
X245500Y209054D02*
X244427Y208840D01*
X243517Y208233D01*
X242910Y207323D01*
X242696Y206250D01*
X242910Y205177D01*
X243517Y204267D01*
X244427Y203660D01*
X245500Y203446D01*
X246573Y203660D01*
X247483Y204267D01*
X248090Y205177D01*
X248304Y206250D01*
X248090Y207323D01*
X247483Y208233D01*
X246573Y208840D01*
X245500Y209054D01*
D02*
G37*
G36*
X337250Y207230D02*
X336177Y207017D01*
X335267Y206409D01*
X334660Y205499D01*
X334446Y204426D01*
X334660Y203353D01*
X335267Y202443D01*
X336177Y201836D01*
X337250Y201622D01*
X338323Y201836D01*
X339232Y202443D01*
X339840Y203353D01*
X340054Y204426D01*
X339840Y205499D01*
X339232Y206409D01*
X338323Y207017D01*
X337250Y207230D01*
D02*
G37*
G36*
X109750Y208054D02*
X108677Y207840D01*
X107767Y207233D01*
X107160Y206323D01*
X106946Y205250D01*
X107160Y204177D01*
X107347Y203896D01*
X107517Y202483D01*
X106910Y201573D01*
X106696Y200500D01*
X106910Y199427D01*
X107517Y198517D01*
X108427Y197910D01*
X109500Y197696D01*
X110573Y197910D01*
X111483Y198517D01*
X112090Y199427D01*
X112304Y200500D01*
X112090Y201573D01*
X111903Y201854D01*
X111733Y203267D01*
X112340Y204177D01*
X112554Y205250D01*
X112340Y206323D01*
X111733Y207233D01*
X110823Y207840D01*
X109750Y208054D01*
D02*
G37*
G36*
X266025Y199545D02*
X264952Y199331D01*
X264042Y198723D01*
X263434Y197814D01*
X263348Y197379D01*
X263332Y197351D01*
X262058D01*
X262041Y197379D01*
X261955Y197814D01*
X261347Y198723D01*
X260438Y199331D01*
X259365Y199545D01*
X258292Y199331D01*
X257382Y198723D01*
X256774Y197814D01*
X256561Y196741D01*
X256774Y195668D01*
X257382Y194758D01*
X258292Y194150D01*
X258755Y194058D01*
Y192763D01*
X258292Y192671D01*
X257382Y192063D01*
X256774Y191154D01*
X256688Y190720D01*
X256035Y189555D01*
X254962Y189341D01*
X254052Y188733D01*
X253444Y187824D01*
X253361Y187407D01*
X253352Y187360D01*
X252057D01*
X252048Y187407D01*
X251965Y187824D01*
X251357Y188733D01*
X250448Y189341D01*
X249375Y189555D01*
X248302Y189341D01*
X247392Y188733D01*
X246784Y187824D01*
X246571Y186751D01*
X246784Y185678D01*
X247392Y184768D01*
X248302Y184160D01*
X249375Y183947D01*
X250448Y184160D01*
X251357Y184768D01*
X251965Y185678D01*
X252048Y186094D01*
X252057Y186141D01*
X253352D01*
X253361Y186094D01*
X253444Y185678D01*
X254052Y184768D01*
X254962Y184160D01*
X256035Y183947D01*
X257108Y184160D01*
X258017Y184768D01*
X258625Y185678D01*
X258711Y186112D01*
X259365Y187277D01*
X260438Y187490D01*
X261347Y188098D01*
X261955Y189008D01*
X262041Y189442D01*
X262695Y190607D01*
X263768Y190820D01*
X264677Y191428D01*
X265285Y192338D01*
X265371Y192772D01*
X266025Y193937D01*
X267098Y194150D01*
X268007Y194758D01*
X268615Y195668D01*
X268829Y196741D01*
X268615Y197814D01*
X268007Y198723D01*
X267098Y199331D01*
X266025Y199545D01*
D02*
G37*
G36*
X319305Y206205D02*
X318232Y205991D01*
X317322Y205383D01*
X316715Y204474D01*
X316501Y203401D01*
X315975Y202875D01*
X314902Y202661D01*
X313992Y202053D01*
X313385Y201144D01*
X313171Y200071D01*
X313385Y198998D01*
X313992Y198088D01*
X314902Y197480D01*
X315975Y197267D01*
X317048Y197480D01*
X317958Y198088D01*
X318565Y198998D01*
X318779Y200071D01*
X319305Y200597D01*
X320378Y200810D01*
X321288Y201418D01*
X321895Y202328D01*
X322109Y203401D01*
X321895Y204474D01*
X321288Y205383D01*
X320378Y205991D01*
X319305Y206205D01*
D02*
G37*
G36*
X46000Y200304D02*
X44927Y200090D01*
X44017Y199483D01*
X43410Y198573D01*
X43196Y197500D01*
X43410Y196427D01*
X44017Y195517D01*
X44927Y194910D01*
X46000Y194696D01*
X47073Y194910D01*
X47983Y195517D01*
X48590Y196427D01*
X48804Y197500D01*
X48590Y198573D01*
X47983Y199483D01*
X47073Y200090D01*
X46000Y200304D01*
D02*
G37*
G36*
X21750D02*
X20677Y200090D01*
X19768Y199483D01*
X19160Y198573D01*
X18946Y197500D01*
X19160Y196427D01*
X19768Y195517D01*
X20677Y194910D01*
X21750Y194696D01*
X22823Y194910D01*
X23733Y195517D01*
X24341Y196427D01*
X24554Y197500D01*
X24341Y198573D01*
X23733Y199483D01*
X22823Y200090D01*
X21750Y200304D01*
D02*
G37*
G36*
X115500Y194804D02*
X114427Y194590D01*
X114376Y194557D01*
X113375Y194054D01*
X112374Y194557D01*
X112323Y194590D01*
X111250Y194804D01*
X110177Y194590D01*
X109267Y193983D01*
X108733D01*
X107823Y194590D01*
X106750Y194804D01*
X105677Y194590D01*
X104767Y193983D01*
X104160Y193073D01*
X103946Y192000D01*
X104160Y190927D01*
X104767Y190017D01*
X105677Y189410D01*
X106750Y189196D01*
X107823Y189410D01*
X108733Y190017D01*
X109267D01*
X110177Y189410D01*
X111250Y189196D01*
X112323Y189410D01*
X112374Y189443D01*
X113375Y189946D01*
X114376Y189443D01*
X114427Y189410D01*
X115500Y189196D01*
X116573Y189410D01*
X117483Y190017D01*
X118090Y190927D01*
X118304Y192000D01*
X118090Y193073D01*
X117483Y193983D01*
X116573Y194590D01*
X115500Y194804D01*
D02*
G37*
G36*
X169010Y197554D02*
X167937Y197341D01*
X167027Y196733D01*
X166419Y195823D01*
X166206Y194750D01*
X166419Y193677D01*
X167027Y192767D01*
X167937Y192160D01*
X169010Y191946D01*
X170083Y192160D01*
X170992Y192767D01*
X171600Y193677D01*
X171813Y194750D01*
X171600Y195823D01*
X170992Y196733D01*
X170083Y197341D01*
X169010Y197554D01*
D02*
G37*
G36*
X156000Y194304D02*
X154927Y194090D01*
X154017Y193483D01*
X153410Y192573D01*
X153390Y192474D01*
X153119Y191503D01*
X152010Y191552D01*
X152000Y191554D01*
X150927Y191340D01*
X150017Y190733D01*
X149410Y189823D01*
X149196Y188750D01*
X149410Y187677D01*
X150017Y186767D01*
X150927Y186160D01*
X152000Y185946D01*
X153073Y186160D01*
X153983Y186767D01*
X154590Y187677D01*
X154610Y187776D01*
X154881Y188747D01*
X155990Y188698D01*
X156000Y188696D01*
X157073Y188910D01*
X157983Y189517D01*
X158590Y190427D01*
X158804Y191500D01*
X158590Y192573D01*
X157983Y193483D01*
X157073Y194090D01*
X156000Y194304D01*
D02*
G37*
G36*
X292665Y206205D02*
X291592Y205991D01*
X290682Y205383D01*
X290075Y204474D01*
X289861Y203401D01*
X290075Y202328D01*
X290682Y201418D01*
X291592Y200810D01*
X292665Y200597D01*
X293191Y200071D01*
X293405Y198998D01*
X294012Y198088D01*
X294922Y197480D01*
X295338Y197397D01*
X295385Y197388D01*
Y196093D01*
X295338Y196084D01*
X294922Y196001D01*
X294012Y195393D01*
X293405Y194484D01*
X293318Y194049D01*
X292854Y193222D01*
X292026Y192757D01*
X291592Y192671D01*
X290682Y192063D01*
X290075Y191154D01*
X289982Y190690D01*
X288687D01*
X288595Y191154D01*
X287987Y192063D01*
X287078Y192671D01*
X286005Y192885D01*
X284932Y192671D01*
X284022Y192063D01*
X283414Y191154D01*
X283322Y190690D01*
X282027D01*
X281935Y191154D01*
X281327Y192063D01*
X280418Y192671D01*
X280001Y192754D01*
X279955Y192763D01*
Y194058D01*
X280001Y194067D01*
X280418Y194150D01*
X281327Y194758D01*
X281935Y195668D01*
X282149Y196741D01*
X281935Y197814D01*
X281327Y198723D01*
X280418Y199331D01*
X279345Y199545D01*
X278272Y199331D01*
X277362Y198723D01*
X276754Y197814D01*
X276541Y196741D01*
X276754Y195668D01*
X277362Y194758D01*
X278272Y194150D01*
X278688Y194067D01*
X278735Y194058D01*
Y192763D01*
X278688Y192754D01*
X278272Y192671D01*
X277362Y192063D01*
X276754Y191154D01*
X276541Y190081D01*
X276754Y189008D01*
X277362Y188098D01*
X278272Y187490D01*
X278706Y187404D01*
X279871Y186751D01*
X280084Y185678D01*
X280692Y184768D01*
X281602Y184160D01*
X282675Y183947D01*
X283748Y184160D01*
X284657Y184768D01*
X285265Y185678D01*
X285357Y186141D01*
X286652D01*
X286744Y185678D01*
X287352Y184768D01*
X288262Y184160D01*
X289335Y183947D01*
X290408Y184160D01*
X291318Y184768D01*
X291925Y185678D01*
X292139Y186751D01*
X293304Y187404D01*
X293738Y187490D01*
X294648Y188098D01*
X295255Y189008D01*
X295342Y189442D01*
X295806Y190270D01*
X296634Y190734D01*
X297068Y190820D01*
X297978Y191428D01*
X298585Y192338D01*
X298799Y193411D01*
X298585Y194484D01*
X297978Y195393D01*
X297068Y196001D01*
X296651Y196084D01*
X296605Y196093D01*
Y197388D01*
X296651Y197397D01*
X297068Y197480D01*
X297978Y198088D01*
X298585Y198998D01*
X298799Y200071D01*
X298585Y201144D01*
X297978Y202053D01*
X297068Y202661D01*
X295995Y202875D01*
X295469Y203401D01*
X295255Y204474D01*
X294648Y205383D01*
X293738Y205991D01*
X292665Y206205D01*
D02*
G37*
G36*
X31000Y200554D02*
X29927Y200340D01*
X29017Y199732D01*
X28410Y198823D01*
X28196Y197750D01*
X28410Y196677D01*
X29017Y195767D01*
Y194982D01*
X28410Y194073D01*
X28196Y193000D01*
X28410Y191927D01*
X29017Y191017D01*
X29927Y190410D01*
X31000Y190196D01*
X32073Y190410D01*
X32983Y191017D01*
X33590Y191927D01*
X33804Y193000D01*
X33590Y194073D01*
X32983Y194982D01*
Y195767D01*
X33590Y196677D01*
X33804Y197750D01*
X33590Y198823D01*
X32983Y199732D01*
X32073Y200340D01*
X31000Y200554D01*
D02*
G37*
G36*
X427250Y194554D02*
X426177Y194340D01*
X425267Y193733D01*
X424660Y192823D01*
X424446Y191750D01*
X424660Y190677D01*
X425267Y189767D01*
X426177Y189160D01*
X427250Y188946D01*
X428323Y189160D01*
X429233Y189767D01*
X429841Y190677D01*
X430054Y191750D01*
X429841Y192823D01*
X429233Y193733D01*
X428323Y194340D01*
X427250Y194554D01*
D02*
G37*
G36*
X17000Y193804D02*
X15927Y193590D01*
X15017Y192983D01*
X14410Y192073D01*
X14196Y191000D01*
X14410Y189927D01*
X15017Y189017D01*
X15927Y188410D01*
X17000Y188196D01*
X18073Y188410D01*
X18983Y189017D01*
X19590Y189927D01*
X19804Y191000D01*
X19590Y192073D01*
X18983Y192983D01*
X18073Y193590D01*
X17000Y193804D01*
D02*
G37*
G36*
X175750Y193554D02*
X174677Y193340D01*
X173767Y192733D01*
X173160Y191823D01*
X172946Y190750D01*
X173160Y189677D01*
X173767Y188767D01*
X174677Y188160D01*
X175750Y187946D01*
X176823Y188160D01*
X177733Y188767D01*
X178340Y189677D01*
X178554Y190750D01*
X178340Y191823D01*
X177733Y192733D01*
X176823Y193340D01*
X175750Y193554D01*
D02*
G37*
G36*
X351601Y192695D02*
X350528Y192482D01*
X349619Y191874D01*
X349011Y190965D01*
X348797Y189891D01*
X349011Y188818D01*
X349619Y187909D01*
X350528Y187301D01*
X351601Y187088D01*
X352674Y187301D01*
X353584Y187909D01*
X354192Y188818D01*
X354405Y189891D01*
X354192Y190965D01*
X353584Y191874D01*
X352674Y192482D01*
X351601Y192695D01*
D02*
G37*
G36*
X69500Y191554D02*
X68427Y191340D01*
X67517Y190733D01*
X66910Y189823D01*
X66696Y188750D01*
X66910Y187677D01*
X67517Y186767D01*
X68427Y186160D01*
X69500Y185946D01*
X70573Y186160D01*
X71483Y186767D01*
X72090Y187677D01*
X72304Y188750D01*
X72090Y189823D01*
X71483Y190733D01*
X70573Y191340D01*
X69500Y191554D01*
D02*
G37*
G36*
X403900Y189804D02*
X402827Y189590D01*
X401917Y188983D01*
X401310Y188073D01*
X401096Y187000D01*
X401310Y185927D01*
X401917Y185017D01*
X402827Y184410D01*
X403900Y184196D01*
X404973Y184410D01*
X405882Y185017D01*
X406490Y185927D01*
X406704Y187000D01*
X406490Y188073D01*
X405882Y188983D01*
X404973Y189590D01*
X403900Y189804D01*
D02*
G37*
G36*
X322635Y189555D02*
X321562Y189341D01*
X320652Y188733D01*
X320045Y187824D01*
X319831Y186751D01*
X320045Y185678D01*
X320652Y184768D01*
X321562Y184160D01*
X322635Y183947D01*
X323708Y184160D01*
X324618Y184768D01*
X325225Y185678D01*
X325439Y186751D01*
X325225Y187824D01*
X324618Y188733D01*
X323708Y189341D01*
X322635Y189555D01*
D02*
G37*
G36*
X269355D02*
X268282Y189341D01*
X267372Y188733D01*
X266764Y187824D01*
X266551Y186751D01*
X266764Y185678D01*
X267372Y184768D01*
X268282Y184160D01*
X269355Y183947D01*
X270428Y184160D01*
X271337Y184768D01*
X271945Y185678D01*
X272159Y186751D01*
X271945Y187824D01*
X271337Y188733D01*
X270428Y189341D01*
X269355Y189555D01*
D02*
G37*
G36*
X90750Y188304D02*
X89677Y188090D01*
X88767Y187483D01*
X88160Y186573D01*
X87946Y185500D01*
X88160Y184427D01*
X88767Y183517D01*
X89677Y182910D01*
X90750Y182696D01*
X91823Y182910D01*
X92733Y183517D01*
X93340Y184427D01*
X93554Y185500D01*
X93340Y186573D01*
X92733Y187483D01*
X91823Y188090D01*
X90750Y188304D01*
D02*
G37*
G36*
X394500Y189554D02*
X393427Y189340D01*
X392517Y188733D01*
X391910Y187823D01*
X391696Y186750D01*
X391910Y185677D01*
X392059Y185454D01*
X392417Y184500D01*
X392059Y183546D01*
X391910Y183323D01*
X391696Y182250D01*
X391910Y181177D01*
X392517Y180267D01*
X393427Y179660D01*
X394500Y179446D01*
X395573Y179660D01*
X396483Y180267D01*
X397090Y181177D01*
X397304Y182250D01*
X397090Y183323D01*
X396941Y183546D01*
X396583Y184500D01*
X396941Y185454D01*
X397090Y185677D01*
X397304Y186750D01*
X397090Y187823D01*
X396483Y188733D01*
X395573Y189340D01*
X394500Y189554D01*
D02*
G37*
G36*
X31000Y188804D02*
X29927Y188590D01*
X29017Y187983D01*
X28410Y187073D01*
X28196Y186000D01*
X28410Y184927D01*
X29017Y184017D01*
Y183483D01*
X28410Y182573D01*
X28196Y181500D01*
X28410Y180427D01*
X29017Y179517D01*
X29927Y178910D01*
X31000Y178696D01*
X32073Y178910D01*
X32983Y179517D01*
X33590Y180427D01*
X33804Y181500D01*
X33590Y182573D01*
X32983Y183483D01*
Y184017D01*
X33590Y184927D01*
X33804Y186000D01*
X33590Y187073D01*
X32983Y187983D01*
X32073Y188590D01*
X31000Y188804D01*
D02*
G37*
G36*
X350250Y184054D02*
X349177Y183840D01*
X348267Y183233D01*
X347660Y182323D01*
X347446Y181250D01*
X347660Y180177D01*
X348267Y179267D01*
X349177Y178660D01*
X350250Y178446D01*
X351323Y178660D01*
X352233Y179267D01*
X352840Y180177D01*
X353054Y181250D01*
X352840Y182323D01*
X352233Y183233D01*
X351323Y183840D01*
X350250Y184054D01*
D02*
G37*
G36*
X422500Y179804D02*
X421427Y179590D01*
X420517Y178983D01*
X419910Y178073D01*
X419785Y177445D01*
X419578Y176951D01*
X418500Y176504D01*
X418250Y176554D01*
X417177Y176340D01*
X416267Y175733D01*
X415660Y174823D01*
X415446Y173750D01*
X415660Y172677D01*
X416267Y171767D01*
X417177Y171160D01*
X418250Y170946D01*
X419323Y171160D01*
X420233Y171767D01*
X420840Y172677D01*
X420965Y173305D01*
X421172Y173799D01*
X422250Y174246D01*
X422500Y174196D01*
X423573Y174410D01*
X424483Y175017D01*
X425090Y175927D01*
X425304Y177000D01*
X425090Y178073D01*
X424483Y178983D01*
X423573Y179590D01*
X422500Y179804D01*
D02*
G37*
G36*
X167509Y176304D02*
X166437Y176090D01*
X165527Y175483D01*
X164492D01*
X163582Y176090D01*
X162509Y176304D01*
X161437Y176090D01*
X160868Y175710D01*
X160009Y175568D01*
X159151Y175710D01*
X158582Y176090D01*
X157509Y176304D01*
X156437Y176090D01*
X155868Y175710D01*
X155009Y175568D01*
X154151Y175710D01*
X153582Y176090D01*
X152509Y176304D01*
X151437Y176090D01*
X150527Y175483D01*
X149492D01*
X148582Y176090D01*
X147509Y176304D01*
X146437Y176090D01*
X145527Y175483D01*
X144919Y174573D01*
X144706Y173500D01*
X144919Y172427D01*
X145299Y171858D01*
X145441Y171000D01*
X145299Y170142D01*
X144919Y169573D01*
X144706Y168500D01*
X144919Y167427D01*
X145527Y166517D01*
X146437Y165910D01*
X147509Y165696D01*
X148582Y165910D01*
X149492Y166517D01*
X150100Y167427D01*
X150313Y168500D01*
X150100Y169573D01*
X149787Y170041D01*
X150077Y170635D01*
X151432Y170912D01*
X151437Y170910D01*
X152509Y170696D01*
X153582Y170910D01*
X154151Y171290D01*
X155009Y171432D01*
X155868Y171290D01*
X156437Y170910D01*
X157509Y170696D01*
X158582Y170910D01*
X159151Y171290D01*
X160009Y171432D01*
X160868Y171290D01*
X161437Y170910D01*
X162509Y170696D01*
X163582Y170910D01*
X164492Y171517D01*
X165527D01*
X166437Y170910D01*
X167509Y170696D01*
X168582Y170910D01*
X169492Y171517D01*
X170100Y172427D01*
X170313Y173500D01*
X170100Y174573D01*
X169492Y175483D01*
X168582Y176090D01*
X167509Y176304D01*
D02*
G37*
G36*
X60000Y188054D02*
X58927Y187840D01*
X58017Y187233D01*
X57410Y186323D01*
X57196Y185250D01*
X57410Y184177D01*
X58017Y183267D01*
Y182817D01*
X57517Y182483D01*
X56910Y181573D01*
X56696Y180500D01*
X56910Y179427D01*
X57517Y178517D01*
X58427Y177910D01*
X59500Y177696D01*
X60573Y177910D01*
X60957Y178166D01*
X61287Y178108D01*
X62269Y177583D01*
X62410Y176877D01*
X63017Y175967D01*
X63927Y175360D01*
X65000Y175146D01*
X66073Y175360D01*
X66983Y175967D01*
X67590Y176877D01*
X67804Y177950D01*
X67590Y179023D01*
X66983Y179933D01*
X66073Y180540D01*
X65000Y180754D01*
X63927Y180540D01*
X63543Y180284D01*
X63213Y180341D01*
X62231Y180867D01*
X62090Y181573D01*
X61483Y182483D01*
Y182933D01*
X61983Y183267D01*
X62590Y184177D01*
X62804Y185250D01*
X62590Y186323D01*
X61983Y187233D01*
X61073Y187840D01*
X60000Y188054D01*
D02*
G37*
G36*
X200300Y179104D02*
X199227Y178890D01*
X198317Y178283D01*
X197710Y177373D01*
X197496Y176300D01*
X197710Y175227D01*
X198317Y174317D01*
X199227Y173710D01*
X200300Y173496D01*
X201373Y173710D01*
X202283Y174317D01*
X202890Y175227D01*
X203104Y176300D01*
X202890Y177373D01*
X202283Y178283D01*
X201373Y178890D01*
X200300Y179104D01*
D02*
G37*
G36*
X217750Y184554D02*
X216677Y184340D01*
X215767Y183733D01*
X215160Y182823D01*
X214946Y181750D01*
X215160Y180677D01*
X215651Y179942D01*
X215754Y179702D01*
X215498Y178420D01*
X215217Y178233D01*
X214610Y177323D01*
X214396Y176250D01*
X214610Y175177D01*
X215217Y174267D01*
X216127Y173660D01*
X217200Y173446D01*
X218273Y173660D01*
X219183Y174267D01*
X219790Y175177D01*
X220004Y176250D01*
X219790Y177323D01*
X219299Y178058D01*
X219196Y178298D01*
X219452Y179580D01*
X219733Y179767D01*
X220340Y180677D01*
X220554Y181750D01*
X220340Y182823D01*
X219733Y183733D01*
X218823Y184340D01*
X217750Y184554D01*
D02*
G37*
G36*
X403500Y180554D02*
X402427Y180340D01*
X401517Y179733D01*
X400910Y178823D01*
X400696Y177750D01*
X400910Y176677D01*
X401517Y175767D01*
X402427Y175160D01*
X403500Y174946D01*
X404710Y173927D01*
X405318Y173018D01*
X406227Y172410D01*
X407300Y172196D01*
X408373Y172410D01*
X409283Y173018D01*
X409891Y173927D01*
X410104Y175000D01*
X409891Y176073D01*
X409283Y176983D01*
X408373Y177591D01*
X407300Y177804D01*
X406090Y178823D01*
X405483Y179733D01*
X404573Y180340D01*
X403500Y180554D01*
D02*
G37*
G36*
X332625Y192884D02*
X331552Y192671D01*
X330643Y192063D01*
X330035Y191154D01*
X329821Y190081D01*
X330035Y189007D01*
X330643Y188098D01*
X331552Y187490D01*
X331969Y187407D01*
X332015Y187398D01*
Y186103D01*
X331969Y186094D01*
X331552Y186011D01*
X330643Y185403D01*
X330035Y184493D01*
X329821Y183421D01*
X329295Y182894D01*
X328222Y182681D01*
X327313Y182073D01*
X326705Y181163D01*
X326491Y180090D01*
X326705Y179017D01*
X327313Y178108D01*
X328222Y177500D01*
X328639Y177417D01*
X328685Y177408D01*
Y176113D01*
X328639Y176104D01*
X328222Y176021D01*
X327313Y175413D01*
X326705Y174503D01*
X326491Y173430D01*
X326705Y172357D01*
X327313Y171448D01*
X328222Y170840D01*
X329295Y170627D01*
X329948Y169462D01*
X330035Y169027D01*
X330643Y168118D01*
X331552Y167510D01*
X332625Y167297D01*
X333151Y166770D01*
X333365Y165697D01*
X333973Y164788D01*
X334882Y164180D01*
X335299Y164097D01*
X335345Y164088D01*
Y162793D01*
X335299Y162784D01*
X334882Y162701D01*
X333973Y162093D01*
X333365Y161183D01*
X333305Y160881D01*
X332010D01*
X331965Y161103D01*
X331358Y162013D01*
X330448Y162621D01*
X329375Y162834D01*
X328302Y162621D01*
X327392Y162013D01*
X326785Y161103D01*
X326571Y160030D01*
X326785Y158957D01*
X327392Y158048D01*
X328302Y157440D01*
X328524Y157396D01*
Y156101D01*
X328222Y156041D01*
X327313Y155433D01*
X326705Y154523D01*
X326491Y153450D01*
X326705Y152377D01*
X327313Y151468D01*
X328222Y150860D01*
X329295Y150646D01*
X330368Y150860D01*
X331278Y151468D01*
X331885Y152377D01*
X331968Y152794D01*
X331978Y152840D01*
X333273D01*
X333282Y152794D01*
X333365Y152377D01*
X333973Y151468D01*
X334882Y150860D01*
X335955Y150646D01*
X337028Y150860D01*
X337938Y151468D01*
X338546Y152377D01*
X338759Y153450D01*
X339285Y153976D01*
X340358Y154190D01*
X341268Y154798D01*
X341876Y155707D01*
X342089Y156780D01*
X342615Y157306D01*
X343688Y157520D01*
X344660Y157927D01*
X345267Y157017D01*
X346177Y156410D01*
X347250Y156196D01*
X348323Y156410D01*
X349233Y157017D01*
X349840Y157927D01*
X350054Y159000D01*
X349840Y160073D01*
X349233Y160983D01*
X348323Y161590D01*
X347250Y161804D01*
X346177Y161590D01*
X345206Y161183D01*
X344598Y162093D01*
X343688Y162701D01*
X342615Y162914D01*
X341542Y162701D01*
X340633Y162093D01*
X340025Y161183D01*
X339933Y160720D01*
X338638D01*
X338546Y161183D01*
X337938Y162093D01*
X337028Y162701D01*
X336612Y162784D01*
X336565Y162793D01*
Y164088D01*
X336612Y164097D01*
X337028Y164180D01*
X337938Y164788D01*
X338546Y165697D01*
X338759Y166770D01*
X338546Y167843D01*
X337938Y168753D01*
X337028Y169361D01*
X335955Y169574D01*
X335429Y170100D01*
X335215Y171173D01*
X334608Y172083D01*
X333698Y172691D01*
X332625Y172904D01*
X331972Y174069D01*
X331885Y174503D01*
X331278Y175413D01*
X330368Y176021D01*
X329952Y176104D01*
X329905Y176113D01*
Y177408D01*
X329952Y177417D01*
X330368Y177500D01*
X331278Y178108D01*
X331885Y179017D01*
X332099Y180090D01*
X332625Y180617D01*
X333698Y180830D01*
X334608Y181438D01*
X335215Y182347D01*
X335298Y182764D01*
X335308Y182811D01*
X336603D01*
X336612Y182764D01*
X336695Y182348D01*
X337303Y181438D01*
X338212Y180830D01*
X338629Y180747D01*
X338675Y180738D01*
Y179443D01*
X338629Y179434D01*
X338212Y179351D01*
X337303Y178743D01*
X336695Y177833D01*
X336481Y176760D01*
X336695Y175687D01*
X337303Y174778D01*
X338212Y174170D01*
X339285Y173957D01*
X339811Y173430D01*
X340025Y172357D01*
X340633Y171448D01*
X341542Y170840D01*
X342615Y170627D01*
X343688Y170840D01*
X344598Y171448D01*
X345206Y172357D01*
X345419Y173430D01*
X345206Y174503D01*
X344598Y175413D01*
X343688Y176021D01*
X342615Y176234D01*
X342089Y176760D01*
X341876Y177833D01*
X341268Y178743D01*
X340358Y179351D01*
X339942Y179434D01*
X339895Y179443D01*
Y180738D01*
X339942Y180747D01*
X340358Y180830D01*
X341268Y181438D01*
X341876Y182348D01*
X342089Y183421D01*
X341876Y184494D01*
X341268Y185403D01*
X340358Y186011D01*
X339285Y186224D01*
X338212Y186011D01*
X337303Y185403D01*
X336695Y184494D01*
X336612Y184077D01*
X336603Y184030D01*
X335308D01*
X335298Y184077D01*
X335215Y184493D01*
X334608Y185403D01*
X333698Y186011D01*
X333282Y186094D01*
X333235Y186103D01*
Y187398D01*
X333282Y187407D01*
X333698Y187490D01*
X334608Y188098D01*
X335215Y189007D01*
X335429Y190081D01*
X335215Y191154D01*
X334608Y192063D01*
X333698Y192671D01*
X332625Y192884D01*
D02*
G37*
G36*
X3000Y174304D02*
X1927Y174090D01*
X1017Y173483D01*
X410Y172573D01*
X196Y171500D01*
X410Y170427D01*
X1017Y169517D01*
X1927Y168910D01*
X3000Y168696D01*
X4073Y168910D01*
X4983Y169517D01*
X5591Y170427D01*
X5804Y171500D01*
X5591Y172573D01*
X4983Y173483D01*
X4073Y174090D01*
X3000Y174304D01*
D02*
G37*
G36*
X439000Y214304D02*
X437927Y214090D01*
X437017Y213483D01*
X436410Y212573D01*
X436196Y211500D01*
X436410Y210427D01*
X437017Y209517D01*
X436775Y208369D01*
X436410Y207823D01*
X436196Y206750D01*
X436410Y205677D01*
X437018Y204767D01*
X437484Y204456D01*
X437492Y204435D01*
X437492Y203065D01*
X437484Y203044D01*
X437017Y202733D01*
X436410Y201823D01*
X436196Y200750D01*
X436410Y199677D01*
X437017Y198767D01*
X437484Y198456D01*
X437492Y198435D01*
X437492Y197065D01*
X437484Y197045D01*
X437017Y196733D01*
X436410Y195823D01*
X436196Y194750D01*
X436410Y193677D01*
X437017Y192767D01*
X437484Y192456D01*
X437492Y192436D01*
Y191064D01*
X437484Y191045D01*
X437017Y190733D01*
X436410Y189823D01*
X436196Y188750D01*
X436410Y187677D01*
X437017Y186768D01*
X437484Y186456D01*
X437492Y186435D01*
X437492Y185065D01*
X437484Y185044D01*
X437017Y184733D01*
X436410Y183823D01*
X436196Y182750D01*
X436410Y181677D01*
X437017Y180767D01*
X437484Y180456D01*
X437492Y180436D01*
Y179065D01*
X437484Y179044D01*
X437017Y178733D01*
X436410Y177823D01*
X436196Y176750D01*
X436410Y175677D01*
X437017Y174767D01*
X437484Y174456D01*
X437492Y174435D01*
X437492Y173065D01*
X437484Y173044D01*
X437017Y172733D01*
X436410Y171823D01*
X436196Y170750D01*
X436410Y169677D01*
X437017Y168767D01*
X437927Y168160D01*
X439000Y167946D01*
X440073Y168160D01*
X440983Y168767D01*
X441590Y169677D01*
X441804Y170750D01*
X441590Y171823D01*
X440983Y172733D01*
X440516Y173044D01*
X440508Y173065D01*
X440508Y174435D01*
X440516Y174456D01*
X440983Y174767D01*
X441590Y175677D01*
X441804Y176750D01*
X441590Y177823D01*
X440983Y178733D01*
X440516Y179044D01*
X440508Y179065D01*
Y180436D01*
X440516Y180456D01*
X440983Y180767D01*
X441590Y181677D01*
X441804Y182750D01*
X441590Y183823D01*
X440983Y184733D01*
X440516Y185045D01*
X440508Y185065D01*
X440508Y186435D01*
X440516Y186456D01*
X440983Y186768D01*
X441590Y187677D01*
X441804Y188750D01*
X441590Y189823D01*
X440983Y190733D01*
X440516Y191045D01*
X440508Y191064D01*
Y192436D01*
X440516Y192456D01*
X440983Y192767D01*
X441590Y193677D01*
X441804Y194750D01*
X441590Y195823D01*
X440983Y196733D01*
X440516Y197044D01*
X440508Y197065D01*
X440508Y198435D01*
X440516Y198456D01*
X440983Y198767D01*
X441590Y199677D01*
X441804Y200750D01*
X441590Y201823D01*
X440983Y202733D01*
X440516Y203044D01*
X440508Y203065D01*
X440508Y204436D01*
X440516Y204456D01*
X440983Y204767D01*
X441590Y205677D01*
X441804Y206750D01*
X441590Y207823D01*
X440983Y208733D01*
X441226Y209881D01*
X441590Y210427D01*
X441804Y211500D01*
X441590Y212573D01*
X440983Y213483D01*
X440073Y214090D01*
X439000Y214304D01*
D02*
G37*
G36*
X231974Y173454D02*
X230901Y173240D01*
X229991Y172633D01*
X229384Y171723D01*
X229170Y170650D01*
X229384Y169577D01*
X229991Y168667D01*
X230901Y168060D01*
X231974Y167846D01*
X233047Y168060D01*
X233957Y168667D01*
X234564Y169577D01*
X234778Y170650D01*
X234564Y171723D01*
X233957Y172633D01*
X233047Y173240D01*
X231974Y173454D01*
D02*
G37*
G36*
X252705Y179564D02*
X251632Y179351D01*
X250722Y178743D01*
X250114Y177834D01*
X249901Y176761D01*
X250114Y175688D01*
X250722Y174778D01*
X251632Y174170D01*
X252048Y174087D01*
X252095Y174078D01*
Y172783D01*
X252048Y172774D01*
X251632Y172691D01*
X250722Y172083D01*
X250114Y171173D01*
X249901Y170100D01*
X250114Y169028D01*
X250722Y168118D01*
X251632Y167510D01*
X252705Y167297D01*
X253778Y167510D01*
X254687Y168118D01*
X255295Y169028D01*
X255508Y170100D01*
X255295Y171173D01*
X254687Y172083D01*
X253778Y172691D01*
X253361Y172774D01*
X253314Y172783D01*
Y174078D01*
X253361Y174087D01*
X253778Y174170D01*
X254687Y174778D01*
X255295Y175688D01*
X255508Y176761D01*
X255295Y177834D01*
X254687Y178743D01*
X253778Y179351D01*
X252705Y179564D01*
D02*
G37*
G36*
X137509Y171304D02*
X136437Y171090D01*
X135527Y170483D01*
X134919Y169573D01*
X134706Y168500D01*
X134919Y167427D01*
X135527Y166517D01*
X136437Y165910D01*
X137509Y165696D01*
X138582Y165910D01*
X139492Y166517D01*
X140100Y167427D01*
X140313Y168500D01*
X140100Y169573D01*
X139492Y170483D01*
X138582Y171090D01*
X137509Y171304D01*
D02*
G37*
G36*
X127509D02*
X126437Y171090D01*
X125527Y170483D01*
X124919Y169573D01*
X124706Y168500D01*
X124919Y167427D01*
X125527Y166517D01*
X126437Y165910D01*
X127509Y165696D01*
X128582Y165910D01*
X129492Y166517D01*
X130100Y167427D01*
X130313Y168500D01*
X130100Y169573D01*
X129492Y170483D01*
X128582Y171090D01*
X127509Y171304D01*
D02*
G37*
G36*
X4000Y166304D02*
X2927Y166090D01*
X2611Y165879D01*
X1911Y165509D01*
X704Y165802D01*
X573Y165890D01*
X-500Y166103D01*
X-1573Y165890D01*
X-2482Y165282D01*
X-3090Y164372D01*
X-3304Y163299D01*
X-3136Y162456D01*
X-3094Y162221D01*
X-3874Y161113D01*
X-4001Y161088D01*
X-4911Y160480D01*
X-5518Y159570D01*
X-5732Y158497D01*
X-5518Y157424D01*
X-4911Y156515D01*
X-4001Y155907D01*
X-2928Y155693D01*
X-1855Y155907D01*
X-945Y156515D01*
X-338Y157424D01*
X-124Y158497D01*
X-292Y159340D01*
X-334Y159575D01*
X446Y160683D01*
X573Y160709D01*
X889Y160920D01*
X1589Y161291D01*
X2797Y160997D01*
X2927Y160910D01*
X4000Y160696D01*
X5073Y160910D01*
X5983Y161517D01*
X6590Y162427D01*
X6804Y163500D01*
X6590Y164573D01*
X5983Y165483D01*
X5073Y166090D01*
X4000Y166304D01*
D02*
G37*
G36*
X99500Y168554D02*
X98427Y168340D01*
X97517Y167733D01*
X96910Y166823D01*
X96696Y165750D01*
X96910Y164677D01*
X97517Y163767D01*
X98427Y163160D01*
X99500Y162946D01*
X100573Y163160D01*
X101483Y163767D01*
X102090Y164677D01*
X102304Y165750D01*
X102090Y166823D01*
X101483Y167733D01*
X100573Y168340D01*
X99500Y168554D01*
D02*
G37*
G36*
X18750Y167554D02*
X17677Y167341D01*
X16767Y166733D01*
X16160Y165823D01*
X15946Y164750D01*
X16160Y163677D01*
X16767Y162767D01*
X17677Y162160D01*
X18750Y161946D01*
X19823Y162160D01*
X20733Y162767D01*
X21340Y163677D01*
X21554Y164750D01*
X21340Y165823D01*
X20733Y166733D01*
X19823Y167341D01*
X18750Y167554D01*
D02*
G37*
G36*
X162509Y161304D02*
X161437Y161090D01*
X160527Y160483D01*
X159492D01*
X158582Y161090D01*
X157509Y161304D01*
X156437Y161090D01*
X155527Y160483D01*
X154919Y159573D01*
X154706Y158500D01*
X154919Y157427D01*
X155527Y156517D01*
X156437Y155910D01*
X157509Y155696D01*
X158582Y155910D01*
X159492Y156517D01*
X160527D01*
X161437Y155910D01*
X162509Y155696D01*
X163582Y155910D01*
X164492Y156517D01*
X165100Y157427D01*
X165313Y158500D01*
X165100Y159573D01*
X164492Y160483D01*
X163582Y161090D01*
X162509Y161304D01*
D02*
G37*
G36*
X80250Y158304D02*
X79177Y158090D01*
X78267Y157483D01*
X76982D01*
X76073Y158090D01*
X75000Y158304D01*
X73927Y158090D01*
X73017Y157483D01*
X72410Y156573D01*
X72196Y155500D01*
X72410Y154427D01*
X73017Y153517D01*
X73927Y152910D01*
X75000Y152696D01*
X76073Y152910D01*
X76982Y153517D01*
X78267D01*
X79177Y152910D01*
X80250Y152696D01*
X81323Y152910D01*
X82233Y153517D01*
X82840Y154427D01*
X83054Y155500D01*
X82840Y156573D01*
X82233Y157483D01*
X81323Y158090D01*
X80250Y158304D01*
D02*
G37*
G36*
X14750Y160304D02*
X13677Y160090D01*
X12767Y159483D01*
X12160Y158573D01*
X11946Y157500D01*
X12053Y156963D01*
X11454Y156430D01*
X10958Y156113D01*
X10000Y156304D01*
X8927Y156090D01*
X8017Y155483D01*
X7410Y154573D01*
X7196Y153500D01*
X7410Y152427D01*
X8017Y151517D01*
X8927Y150910D01*
X10000Y150696D01*
X11073Y150910D01*
X11983Y151517D01*
X12590Y152427D01*
X12804Y153500D01*
X12697Y154037D01*
X13296Y154570D01*
X13792Y154887D01*
X14750Y154696D01*
X15823Y154910D01*
X16733Y155517D01*
X17340Y156427D01*
X17554Y157500D01*
X17340Y158573D01*
X16733Y159483D01*
X15823Y160090D01*
X14750Y160304D01*
D02*
G37*
G36*
X172509Y161304D02*
X171437Y161090D01*
X170527Y160483D01*
X169919Y159573D01*
X169706Y158500D01*
X169919Y157427D01*
X170527Y156517D01*
X171437Y155910D01*
X172509Y155696D01*
X173582Y155910D01*
X174492Y156517D01*
X175100Y157427D01*
X175313Y158500D01*
X175100Y159573D01*
X174492Y160483D01*
X173582Y161090D01*
X172509Y161304D01*
D02*
G37*
G36*
X142509D02*
X141437Y161090D01*
X140527Y160483D01*
X139919Y159573D01*
X139706Y158500D01*
X139919Y157427D01*
X140527Y156517D01*
X141437Y155910D01*
X142509Y155696D01*
X143582Y155910D01*
X144492Y156517D01*
X145100Y157427D01*
X145313Y158500D01*
X145100Y159573D01*
X144492Y160483D01*
X143582Y161090D01*
X142509Y161304D01*
D02*
G37*
G36*
X123000Y166054D02*
X121927Y165840D01*
X121017Y165233D01*
X120410Y164323D01*
X120196Y163250D01*
X120410Y162177D01*
X121017Y161267D01*
X121927Y160660D01*
X123000Y160446D01*
X124073Y160660D01*
X124154Y160714D01*
X125069Y159798D01*
X124919Y159573D01*
X124706Y158500D01*
X124919Y157427D01*
X125527Y156517D01*
X126437Y155910D01*
X127509Y155696D01*
X128582Y155910D01*
X129492Y156517D01*
X130100Y157427D01*
X130313Y158500D01*
X130100Y159573D01*
X129492Y160483D01*
X128582Y161090D01*
X127509Y161304D01*
X126437Y161090D01*
X126356Y161036D01*
X125440Y161952D01*
X125590Y162177D01*
X125804Y163250D01*
X125590Y164323D01*
X124983Y165233D01*
X124073Y165840D01*
X123000Y166054D01*
D02*
G37*
G36*
X228000Y160804D02*
X226927Y160590D01*
X226017Y159983D01*
X225410Y159073D01*
X225196Y158000D01*
X225410Y156927D01*
X226017Y156017D01*
X226927Y155410D01*
X228000Y155196D01*
X229073Y155410D01*
X229983Y156017D01*
X230590Y156927D01*
X230804Y158000D01*
X230590Y159073D01*
X229983Y159983D01*
X229073Y160590D01*
X228000Y160804D01*
D02*
G37*
G36*
X216250Y164304D02*
X215177Y164090D01*
X214267Y163483D01*
X213660Y162573D01*
X213446Y161500D01*
X213660Y160427D01*
X214267Y159517D01*
X215177Y158910D01*
X215612Y158823D01*
X215880Y157475D01*
X215517Y157233D01*
X214910Y156323D01*
X214696Y155250D01*
X214910Y154177D01*
X215517Y153267D01*
X216427Y152660D01*
X217500Y152446D01*
X218573Y152660D01*
X219483Y153267D01*
X220090Y154177D01*
X220304Y155250D01*
X220090Y156323D01*
X219483Y157233D01*
X218573Y157840D01*
X218138Y157927D01*
X217870Y159275D01*
X218233Y159517D01*
X218840Y160427D01*
X219054Y161500D01*
X218840Y162573D01*
X218233Y163483D01*
X217323Y164090D01*
X216250Y164304D01*
D02*
G37*
G36*
X137509Y156304D02*
X136437Y156090D01*
X135527Y155483D01*
X134919Y154573D01*
X134706Y153500D01*
X134919Y152427D01*
X135527Y151517D01*
X136437Y150910D01*
X137509Y150696D01*
X138582Y150910D01*
X139492Y151517D01*
X140100Y152427D01*
X140313Y153500D01*
X140100Y154573D01*
X139492Y155483D01*
X138582Y156090D01*
X137509Y156304D01*
D02*
G37*
G36*
X88750Y158554D02*
X87677Y158340D01*
X86767Y157733D01*
X86160Y156823D01*
X85946Y155750D01*
X86160Y154677D01*
X86447Y154246D01*
X86666Y153350D01*
X86447Y152454D01*
X86160Y152023D01*
X85946Y150950D01*
X86160Y149877D01*
X86767Y148967D01*
X87677Y148360D01*
X88750Y148146D01*
X89823Y148360D01*
X90733Y148967D01*
X91341Y149877D01*
X91554Y150950D01*
X91341Y152023D01*
X91053Y152454D01*
X90834Y153350D01*
X91053Y154246D01*
X91341Y154677D01*
X91554Y155750D01*
X91341Y156823D01*
X90733Y157733D01*
X89823Y158340D01*
X88750Y158554D01*
D02*
G37*
G36*
X246045Y159584D02*
X244972Y159371D01*
X244062Y158763D01*
X243454Y157853D01*
X243241Y156781D01*
X243454Y155708D01*
X244062Y154798D01*
X244972Y154190D01*
X245388Y154107D01*
X245435Y154098D01*
Y152803D01*
X245388Y152794D01*
X244972Y152711D01*
X244062Y152103D01*
X243454Y151194D01*
X243241Y150120D01*
X242715Y149594D01*
X241642Y149381D01*
X240732Y148773D01*
X240124Y147864D01*
X239911Y146791D01*
X239385Y146264D01*
X238312Y146051D01*
X237402Y145443D01*
X236794Y144533D01*
X236581Y143460D01*
X236794Y142387D01*
X237402Y141478D01*
X238312Y140870D01*
X239385Y140657D01*
X240458Y140870D01*
X241367Y141478D01*
X241975Y142387D01*
X242067Y142851D01*
X243351D01*
X243368Y142822D01*
X243454Y142387D01*
X244062Y141478D01*
X244972Y140870D01*
X246045Y140657D01*
X247118Y140870D01*
X248027Y141478D01*
X248635Y142387D01*
X248848Y143460D01*
X248635Y144533D01*
X248027Y145443D01*
X247118Y146051D01*
X246654Y146143D01*
Y147438D01*
X247118Y147530D01*
X248027Y148138D01*
X248635Y149047D01*
X248718Y149464D01*
X248727Y149511D01*
X250022D01*
X250031Y149464D01*
X250114Y149047D01*
X250722Y148138D01*
X251632Y147530D01*
X252705Y147317D01*
X253778Y147530D01*
X254687Y148138D01*
X255295Y149047D01*
X255508Y150120D01*
X255295Y151193D01*
X254687Y152103D01*
X253778Y152711D01*
X253361Y152794D01*
X253314Y152803D01*
Y154098D01*
X253361Y154107D01*
X253778Y154190D01*
X254687Y154798D01*
X255295Y155708D01*
X255508Y156781D01*
X255295Y157853D01*
X254687Y158763D01*
X253778Y159371D01*
X252705Y159584D01*
X251632Y159371D01*
X250722Y158763D01*
X250114Y157853D01*
X250031Y157437D01*
X250022Y157390D01*
X248727D01*
X248718Y157437D01*
X248635Y157853D01*
X248027Y158763D01*
X247118Y159371D01*
X246045Y159584D01*
D02*
G37*
G36*
X29000Y152054D02*
X27927Y151840D01*
X27017Y151233D01*
X26410Y150323D01*
X26196Y149250D01*
X26410Y148177D01*
X27017Y147267D01*
X27927Y146659D01*
X29000Y146446D01*
X30073Y146659D01*
X30983Y147267D01*
X31590Y148177D01*
X31804Y149250D01*
X31590Y150323D01*
X30983Y151233D01*
X30073Y151840D01*
X29000Y152054D01*
D02*
G37*
G36*
X373050Y151304D02*
X371977Y151090D01*
X371067Y150483D01*
X370460Y149573D01*
X370246Y148500D01*
X370460Y147427D01*
X371067Y146517D01*
X371977Y145910D01*
X373050Y145696D01*
X374123Y145910D01*
X375033Y146517D01*
X375640Y147427D01*
X375854Y148500D01*
X375640Y149573D01*
X375033Y150483D01*
X374123Y151090D01*
X373050Y151304D01*
D02*
G37*
G36*
X187500D02*
X186427Y151090D01*
X185517Y150483D01*
X184910Y149573D01*
X184696Y148500D01*
X184910Y147427D01*
X185517Y146517D01*
X186427Y145910D01*
X187500Y145696D01*
X188573Y145910D01*
X189483Y146517D01*
X190090Y147427D01*
X190304Y148500D01*
X190090Y149573D01*
X189483Y150483D01*
X188573Y151090D01*
X187500Y151304D01*
D02*
G37*
G36*
X152645D02*
X151572Y151090D01*
X150662Y150483D01*
X150054Y149573D01*
X149841Y148500D01*
X150054Y147427D01*
X150662Y146517D01*
X151572Y145910D01*
X152645Y145696D01*
X153718Y145910D01*
X154627Y146517D01*
X155235Y147427D01*
X155449Y148500D01*
X155235Y149573D01*
X154627Y150483D01*
X153718Y151090D01*
X152645Y151304D01*
D02*
G37*
G36*
X122509D02*
X121437Y151090D01*
X120527Y150483D01*
X119919Y149573D01*
X119706Y148500D01*
X119919Y147427D01*
X120527Y146517D01*
X121437Y145910D01*
X122509Y145696D01*
X123582Y145910D01*
X124492Y146517D01*
X125100Y147427D01*
X125313Y148500D01*
X125100Y149573D01*
X124492Y150483D01*
X123582Y151090D01*
X122509Y151304D01*
D02*
G37*
G36*
X357000Y150804D02*
X355927Y150590D01*
X355017Y149983D01*
X354409Y149073D01*
X354196Y148000D01*
X354409Y146927D01*
X355017Y146017D01*
X355927Y145410D01*
X357000Y145196D01*
X358073Y145410D01*
X358983Y146017D01*
X359590Y146927D01*
X359804Y148000D01*
X359590Y149073D01*
X358983Y149983D01*
X358073Y150590D01*
X357000Y150804D01*
D02*
G37*
G36*
X439750Y152304D02*
X438677Y152091D01*
X437767Y151483D01*
X437160Y150573D01*
X436946Y149500D01*
X437160Y148427D01*
X437767Y147517D01*
X438677Y146910D01*
X439750Y146696D01*
X440145Y146775D01*
X440888Y146864D01*
X441942Y146130D01*
X442017Y146017D01*
X442927Y145410D01*
X444000Y145196D01*
X445073Y145410D01*
X445983Y146017D01*
X446590Y146927D01*
X446804Y148000D01*
X446590Y149073D01*
X445983Y149983D01*
X445073Y150590D01*
X444000Y150804D01*
X443605Y150725D01*
X442862Y150636D01*
X441808Y151370D01*
X441733Y151483D01*
X440823Y152091D01*
X439750Y152304D01*
D02*
G37*
G36*
X71750Y150554D02*
X70677Y150340D01*
X69767Y149733D01*
X69160Y148823D01*
X68946Y147750D01*
X69160Y146677D01*
X69767Y145767D01*
X70677Y145160D01*
X71750Y144946D01*
X72823Y145160D01*
X73733Y145767D01*
X74340Y146677D01*
X74554Y147750D01*
X74340Y148823D01*
X73733Y149733D01*
X72823Y150340D01*
X71750Y150554D01*
D02*
G37*
G36*
X342615Y149594D02*
X341542Y149381D01*
X340633Y148773D01*
X340025Y147863D01*
X339811Y146790D01*
X340025Y145717D01*
X340633Y144808D01*
X341542Y144200D01*
X342615Y143986D01*
X343688Y144200D01*
X344598Y144808D01*
X345206Y145717D01*
X345419Y146790D01*
X345206Y147863D01*
X344598Y148773D01*
X343688Y149381D01*
X342615Y149594D01*
D02*
G37*
G36*
X59250Y147804D02*
X58177Y147590D01*
X57267Y146983D01*
X56660Y146073D01*
X56446Y145000D01*
X56660Y143927D01*
X57267Y143017D01*
X58177Y142410D01*
X59250Y142196D01*
X60323Y142410D01*
X61233Y143017D01*
X61840Y143927D01*
X62054Y145000D01*
X61840Y146073D01*
X61233Y146983D01*
X60323Y147590D01*
X59250Y147804D01*
D02*
G37*
G36*
X127509Y146304D02*
X126437Y146090D01*
X125527Y145483D01*
X124919Y144573D01*
X124706Y143500D01*
X124919Y142427D01*
X125527Y141517D01*
X126437Y140910D01*
X127509Y140696D01*
X128582Y140910D01*
X129492Y141517D01*
X130100Y142427D01*
X130313Y143500D01*
X130100Y144573D01*
X129492Y145483D01*
X128582Y146090D01*
X127509Y146304D01*
D02*
G37*
G36*
X157509Y146304D02*
X156437Y146090D01*
X155527Y145483D01*
X154919Y144573D01*
X154706Y143500D01*
X154919Y142427D01*
X155527Y141517D01*
X156437Y140910D01*
X157509Y140696D01*
X158582Y140910D01*
X159492Y141517D01*
X160100Y142427D01*
X160313Y143500D01*
X160100Y144573D01*
X159492Y145483D01*
X158582Y146090D01*
X157509Y146304D01*
D02*
G37*
G36*
X137509D02*
X136437Y146090D01*
X135527Y145483D01*
X134919Y144573D01*
X134706Y143500D01*
X134919Y142427D01*
X135527Y141517D01*
X136437Y140910D01*
X137509Y140696D01*
X138582Y140910D01*
X139492Y141517D01*
X140100Y142427D01*
X140313Y143500D01*
X140100Y144573D01*
X139492Y145483D01*
X138582Y146090D01*
X137509Y146304D01*
D02*
G37*
G36*
X11950D02*
X10877Y146090D01*
X9967Y145483D01*
X9360Y144573D01*
X9146Y143500D01*
X9360Y142427D01*
X9967Y141517D01*
X10877Y140910D01*
X11950Y140696D01*
X13023Y140910D01*
X13933Y141517D01*
X14540Y142427D01*
X14754Y143500D01*
X14540Y144573D01*
X13933Y145483D01*
X13023Y146090D01*
X11950Y146304D01*
D02*
G37*
G36*
X431250Y149054D02*
X430177Y148840D01*
X429267Y148233D01*
X428660Y147323D01*
X428446Y146250D01*
X428660Y145177D01*
X428809Y144954D01*
X429167Y144000D01*
X428809Y143046D01*
X428660Y142823D01*
X428446Y141750D01*
X428660Y140677D01*
X429267Y139767D01*
X430177Y139160D01*
X431250Y138946D01*
X432323Y139160D01*
X433233Y139767D01*
X433840Y140677D01*
X434054Y141750D01*
X433840Y142823D01*
X433691Y143046D01*
X433333Y144000D01*
X433691Y144954D01*
X433840Y145177D01*
X434054Y146250D01*
X433840Y147323D01*
X433233Y148233D01*
X432323Y148840D01*
X431250Y149054D01*
D02*
G37*
G36*
X68500Y143054D02*
X67427Y142840D01*
X66517Y142233D01*
X65910Y141323D01*
X65696Y140250D01*
X65910Y139177D01*
X66517Y138267D01*
X67427Y137660D01*
X68500Y137446D01*
X69573Y137660D01*
X70483Y138267D01*
X71090Y139177D01*
X71304Y140250D01*
X71090Y141323D01*
X70483Y142233D01*
X69573Y142840D01*
X68500Y143054D01*
D02*
G37*
G36*
X80300Y143054D02*
X79227Y142840D01*
X78317Y142233D01*
X77710Y141323D01*
X77496Y140250D01*
X77710Y139177D01*
X78317Y138267D01*
X79227Y137660D01*
X80300Y137446D01*
X81373Y137660D01*
X82283Y138267D01*
X82891Y139177D01*
X83104Y140250D01*
X82891Y141323D01*
X82283Y142233D01*
X81373Y142840D01*
X80300Y143054D01*
D02*
G37*
G36*
X27750Y141804D02*
X26677Y141590D01*
X25767Y140983D01*
X25160Y140073D01*
X24946Y139000D01*
X25160Y137927D01*
X25767Y137017D01*
X26677Y136410D01*
X27750Y136196D01*
X28823Y136410D01*
X29733Y137017D01*
X30340Y137927D01*
X30554Y139000D01*
X30340Y140073D01*
X29733Y140983D01*
X28823Y141590D01*
X27750Y141804D01*
D02*
G37*
G36*
X162509Y141304D02*
X161437Y141090D01*
X160527Y140483D01*
X159919Y139573D01*
X159706Y138500D01*
X159919Y137427D01*
X160527Y136517D01*
X161437Y135910D01*
X162509Y135696D01*
X163582Y135910D01*
X164492Y136517D01*
X165100Y137427D01*
X165313Y138500D01*
X165100Y139573D01*
X164492Y140483D01*
X163582Y141090D01*
X162509Y141304D01*
D02*
G37*
G36*
X142509D02*
X141437Y141090D01*
X140527Y140483D01*
X139919Y139573D01*
X139706Y138500D01*
X139919Y137427D01*
X140527Y136517D01*
X141437Y135910D01*
X142509Y135696D01*
X143582Y135910D01*
X144492Y136517D01*
X145100Y137427D01*
X145313Y138500D01*
X145100Y139573D01*
X144492Y140483D01*
X143582Y141090D01*
X142509Y141304D01*
D02*
G37*
G36*
X215000Y135304D02*
X213927Y135090D01*
X213017Y134483D01*
X212483D01*
X211573Y135090D01*
X210500Y135304D01*
X209427Y135090D01*
X208517Y134483D01*
X207910Y133573D01*
X207696Y132500D01*
X207910Y131427D01*
X208517Y130517D01*
X209427Y129910D01*
X210500Y129696D01*
X211573Y129910D01*
X212483Y130517D01*
X213017D01*
X213927Y129910D01*
X215000Y129696D01*
X216073Y129910D01*
X216983Y130517D01*
X217590Y131427D01*
X217804Y132500D01*
X217590Y133573D01*
X216983Y134483D01*
X216073Y135090D01*
X215000Y135304D01*
D02*
G37*
G36*
X252705Y139604D02*
X251632Y139391D01*
X250722Y138783D01*
X250114Y137873D01*
X249901Y136800D01*
X250114Y135727D01*
X250722Y134818D01*
X251632Y134210D01*
X252705Y133996D01*
X253778Y134210D01*
X254687Y134818D01*
X255295Y135727D01*
X255508Y136800D01*
X255295Y137873D01*
X254687Y138783D01*
X253778Y139391D01*
X252705Y139604D01*
D02*
G37*
G36*
X54500Y138054D02*
X53427Y137840D01*
X52517Y137233D01*
X51910Y136323D01*
X51696Y135250D01*
X51910Y134177D01*
X52517Y133267D01*
X53427Y132660D01*
X54500Y132446D01*
X55573Y132660D01*
X56483Y133267D01*
X57090Y134177D01*
X57304Y135250D01*
X57090Y136323D01*
X56483Y137233D01*
X55573Y137840D01*
X54500Y138054D01*
D02*
G37*
G36*
X47500Y137304D02*
X46427Y137090D01*
X45517Y136483D01*
X44910Y135573D01*
X44696Y134500D01*
X44910Y133427D01*
X45517Y132517D01*
X46427Y131910D01*
X47500Y131696D01*
X48573Y131910D01*
X49483Y132517D01*
X50090Y133427D01*
X50304Y134500D01*
X50090Y135573D01*
X49483Y136483D01*
X48573Y137090D01*
X47500Y137304D01*
D02*
G37*
G36*
X-9698Y151304D02*
X-10771Y151090D01*
X-11681Y150483D01*
X-12288Y149573D01*
X-12502Y148500D01*
X-12288Y147427D01*
X-11681Y146517D01*
X-10771Y145910D01*
X-9698Y145696D01*
X-9294Y145777D01*
X-8406Y145578D01*
X-7925Y144853D01*
X-7840Y144427D01*
X-7233Y143517D01*
X-6766Y143206D01*
X-6758Y143185D01*
Y141815D01*
X-6766Y141794D01*
X-7233Y141483D01*
X-7840Y140573D01*
X-8054Y139500D01*
X-7840Y138427D01*
X-7233Y137517D01*
X-7039Y137388D01*
X-6403Y136674D01*
X-6715Y135760D01*
X-6840Y135573D01*
X-7054Y134500D01*
X-6840Y133427D01*
X-6233Y132517D01*
X-5323Y131910D01*
X-4250Y131696D01*
X-3177Y131910D01*
X-2267Y132517D01*
X-1660Y133427D01*
X-1446Y134500D01*
X-1660Y135573D01*
X-2267Y136483D01*
X-2461Y136612D01*
X-3097Y137326D01*
X-2785Y138240D01*
X-2660Y138427D01*
X-2446Y139500D01*
X-2660Y140573D01*
X-3267Y141483D01*
X-3734Y141794D01*
X-3742Y141815D01*
Y143185D01*
X-3734Y143206D01*
X-3267Y143517D01*
X-2660Y144427D01*
X-2446Y145500D01*
X-2660Y146573D01*
X-3267Y147483D01*
X-4177Y148090D01*
X-5250Y148304D01*
X-5654Y148223D01*
X-6542Y148421D01*
X-7023Y149148D01*
X-7107Y149573D01*
X-7715Y150483D01*
X-8625Y151090D01*
X-9698Y151304D01*
D02*
G37*
G36*
X414750Y137054D02*
X413677Y136840D01*
X412767Y136233D01*
X412160Y135323D01*
X411946Y134250D01*
X412160Y133177D01*
X412767Y132267D01*
X413677Y131660D01*
X414750Y131446D01*
X415823Y131660D01*
X416733Y132267D01*
X417340Y133177D01*
X417554Y134250D01*
X417340Y135323D01*
X416733Y136233D01*
X415823Y136840D01*
X414750Y137054D01*
D02*
G37*
G36*
X157509Y136304D02*
X156437Y136090D01*
X155527Y135483D01*
X154919Y134573D01*
X154706Y133500D01*
X154919Y132427D01*
X155527Y131517D01*
X156437Y130910D01*
X157509Y130696D01*
X158582Y130910D01*
X159492Y131517D01*
X160100Y132427D01*
X160313Y133500D01*
X160100Y134573D01*
X159492Y135483D01*
X158582Y136090D01*
X157509Y136304D01*
D02*
G37*
G36*
X147509Y136304D02*
X146437Y136090D01*
X145527Y135483D01*
X144919Y134573D01*
X144706Y133500D01*
X144919Y132427D01*
X145527Y131517D01*
X146437Y130910D01*
X147509Y130696D01*
X148582Y130910D01*
X149492Y131517D01*
X150100Y132427D01*
X150313Y133500D01*
X150100Y134573D01*
X149492Y135483D01*
X148582Y136090D01*
X147509Y136304D01*
D02*
G37*
G36*
X191000Y140054D02*
X189927Y139840D01*
X189017Y139233D01*
X188410Y138323D01*
X188196Y137250D01*
X188410Y136177D01*
X188443Y136126D01*
X188946Y135125D01*
X188443Y134123D01*
X188410Y134073D01*
X188196Y133000D01*
X188410Y131927D01*
X189017Y131017D01*
X189927Y130410D01*
X191000Y130196D01*
X192073Y130410D01*
X192983Y131017D01*
X193590Y131927D01*
X193804Y133000D01*
X193590Y134073D01*
X193557Y134123D01*
X193054Y135125D01*
X193557Y136126D01*
X193590Y136177D01*
X193804Y137250D01*
X193590Y138323D01*
X192983Y139233D01*
X192073Y139840D01*
X191000Y140054D01*
D02*
G37*
G36*
X84250Y134554D02*
X83177Y134340D01*
X82267Y133733D01*
X81660Y132823D01*
X81446Y131750D01*
X81660Y130677D01*
X82267Y129767D01*
X83177Y129159D01*
X84250Y128946D01*
X85323Y129159D01*
X86233Y129767D01*
X86840Y130677D01*
X87054Y131750D01*
X86840Y132823D01*
X86233Y133733D01*
X85323Y134340D01*
X84250Y134554D01*
D02*
G37*
G36*
X222250Y129054D02*
X221177Y128840D01*
X220267Y128233D01*
X219763Y127478D01*
X219007Y127308D01*
X218359Y127294D01*
X218233Y127483D01*
X217323Y128090D01*
X216250Y128304D01*
X215177Y128090D01*
X214267Y127483D01*
X213660Y126573D01*
X213592Y126233D01*
X213418Y125496D01*
X212250Y125304D01*
X211177Y125091D01*
X210267Y124483D01*
X209660Y123573D01*
X209446Y122500D01*
X209660Y121427D01*
X210267Y120517D01*
X211177Y119910D01*
X212250Y119696D01*
X213323Y119910D01*
X214233Y120517D01*
X214840Y121427D01*
X214908Y121767D01*
X215082Y122505D01*
X216250Y122696D01*
X217323Y122910D01*
X218233Y123517D01*
X218737Y124272D01*
X219494Y124442D01*
X220141Y124456D01*
X220267Y124267D01*
X221177Y123660D01*
X222250Y123446D01*
X223323Y123660D01*
X224233Y124267D01*
X224840Y125177D01*
X225054Y126250D01*
X224840Y127323D01*
X224233Y128233D01*
X223323Y128840D01*
X222250Y129054D01*
D02*
G37*
G36*
X162509Y131304D02*
X161437Y131090D01*
X160527Y130483D01*
X159919Y129573D01*
X159706Y128500D01*
X159919Y127427D01*
X160527Y126517D01*
X161437Y125910D01*
X162509Y125696D01*
X163582Y125910D01*
X164492Y126517D01*
X165100Y127427D01*
X165313Y128500D01*
X165100Y129573D01*
X164492Y130483D01*
X163582Y131090D01*
X162509Y131304D01*
D02*
G37*
G36*
X122509D02*
X121437Y131090D01*
X120527Y130483D01*
X119919Y129573D01*
X119706Y128500D01*
X119919Y127427D01*
X120527Y126517D01*
X121437Y125910D01*
X122509Y125696D01*
X123582Y125910D01*
X124492Y126517D01*
X125100Y127427D01*
X125313Y128500D01*
X125100Y129573D01*
X124492Y130483D01*
X123582Y131090D01*
X122509Y131304D01*
D02*
G37*
G36*
X92794Y133604D02*
X91721Y133390D01*
X90812Y132783D01*
X90204Y131873D01*
X89991Y130800D01*
X90204Y129727D01*
X90812Y128817D01*
X90411Y127558D01*
X90254Y127323D01*
X90041Y126250D01*
X90254Y125177D01*
X90862Y124267D01*
X91771Y123660D01*
X92844Y123446D01*
X93917Y123660D01*
X94827Y124267D01*
X95435Y125177D01*
X95648Y126250D01*
X95435Y127323D01*
X94827Y128233D01*
X95228Y129492D01*
X95385Y129727D01*
X95598Y130800D01*
X95385Y131873D01*
X94777Y132783D01*
X93867Y133390D01*
X92794Y133604D01*
D02*
G37*
G36*
X378500Y127554D02*
X377427Y127340D01*
X376517Y126733D01*
X375910Y125823D01*
X375696Y124750D01*
X375910Y123677D01*
X376517Y122767D01*
X377427Y122160D01*
X378500Y121946D01*
X379573Y122160D01*
X380483Y122767D01*
X381090Y123677D01*
X381304Y124750D01*
X381090Y125823D01*
X380483Y126733D01*
X379573Y127340D01*
X378500Y127554D01*
D02*
G37*
G36*
X147509Y126304D02*
X146437Y126090D01*
X145527Y125483D01*
X144919Y124573D01*
X144706Y123500D01*
X144919Y122427D01*
X145527Y121517D01*
X146437Y120910D01*
X147509Y120696D01*
X148582Y120910D01*
X149492Y121517D01*
X150100Y122427D01*
X150313Y123500D01*
X150100Y124573D01*
X149492Y125483D01*
X148582Y126090D01*
X147509Y126304D01*
D02*
G37*
G36*
X252705Y126284D02*
X251632Y126071D01*
X250722Y125463D01*
X250114Y124553D01*
X249901Y123480D01*
X250114Y122407D01*
X250722Y121498D01*
X251632Y120890D01*
X252705Y120676D01*
X253778Y120890D01*
X254687Y121498D01*
X255295Y122407D01*
X255508Y123480D01*
X255295Y124553D01*
X254687Y125463D01*
X253778Y126071D01*
X252705Y126284D01*
D02*
G37*
G36*
X23500Y124554D02*
X22427Y124340D01*
X21517Y123733D01*
X20910Y122823D01*
X20696Y121750D01*
X20910Y120677D01*
X21517Y119767D01*
X22427Y119160D01*
X23500Y118946D01*
X24573Y119160D01*
X25483Y119767D01*
X26090Y120677D01*
X26304Y121750D01*
X26090Y122823D01*
X25483Y123733D01*
X24573Y124340D01*
X23500Y124554D01*
D02*
G37*
G36*
X8550Y129304D02*
X7477Y129091D01*
X6567Y128483D01*
X5960Y127573D01*
X5746Y126500D01*
X5960Y125427D01*
X6567Y124518D01*
Y123041D01*
X5960Y122131D01*
X5746Y121058D01*
X5960Y119985D01*
X6567Y119075D01*
X7477Y118468D01*
X8550Y118254D01*
X9623Y118468D01*
X10533Y119075D01*
X11141Y119985D01*
X11354Y121058D01*
X11141Y122131D01*
X10533Y123041D01*
Y124518D01*
X11141Y125427D01*
X11354Y126500D01*
X11141Y127573D01*
X10533Y128483D01*
X9623Y129091D01*
X8550Y129304D01*
D02*
G37*
G36*
X231000Y123804D02*
X229927Y123590D01*
X229017Y122983D01*
X228410Y122073D01*
X228196Y121000D01*
X228410Y119927D01*
X229017Y119017D01*
X229927Y118410D01*
X231000Y118196D01*
X232073Y118410D01*
X232983Y119017D01*
X233591Y119927D01*
X233804Y121000D01*
X233591Y122073D01*
X232983Y122983D01*
X232073Y123590D01*
X231000Y123804D01*
D02*
G37*
G36*
X49500Y123304D02*
X48427Y123090D01*
X47517Y122483D01*
X46910Y121573D01*
X46696Y120500D01*
X46910Y119427D01*
X47517Y118517D01*
X48427Y117910D01*
X49500Y117696D01*
X50573Y117910D01*
X51483Y118517D01*
X52090Y119427D01*
X52304Y120500D01*
X52090Y121573D01*
X51483Y122483D01*
X50573Y123090D01*
X49500Y123304D01*
D02*
G37*
G36*
X332625Y146264D02*
X331552Y146051D01*
X330643Y145443D01*
X330035Y144533D01*
X329821Y143460D01*
X329295Y142934D01*
X328222Y142721D01*
X327313Y142113D01*
X326705Y141203D01*
X326491Y140130D01*
X326705Y139057D01*
X327313Y138148D01*
X328222Y137540D01*
X328639Y137457D01*
X328685Y137448D01*
Y136153D01*
X328639Y136144D01*
X328222Y136061D01*
X327313Y135453D01*
X326705Y134543D01*
X326491Y133470D01*
X326705Y132397D01*
X327313Y131488D01*
X328222Y130880D01*
X328685Y130788D01*
Y129493D01*
X328222Y129401D01*
X327313Y128793D01*
X326705Y127883D01*
X326491Y126810D01*
X326705Y125737D01*
X327313Y124827D01*
X328222Y124220D01*
X328639Y124137D01*
X328685Y124128D01*
Y122833D01*
X328639Y122823D01*
X328222Y122740D01*
X327313Y122133D01*
X326705Y121223D01*
X326491Y120150D01*
X326705Y119077D01*
X327313Y118167D01*
X328222Y117560D01*
X328656Y117473D01*
X329484Y117009D01*
X329948Y116181D01*
X330035Y115747D01*
X330643Y114838D01*
X331552Y114230D01*
X332625Y114016D01*
X333698Y114230D01*
X334608Y114838D01*
X335215Y115747D01*
X335429Y116820D01*
X335215Y117893D01*
X334608Y118803D01*
X333698Y119411D01*
X333264Y119497D01*
X332436Y119961D01*
X331972Y120789D01*
X331885Y121223D01*
X331278Y122133D01*
X330368Y122740D01*
X329952Y122823D01*
X329905Y122833D01*
Y124128D01*
X329952Y124137D01*
X330368Y124220D01*
X331278Y124827D01*
X331885Y125737D01*
X331978Y126200D01*
X333273D01*
X333365Y125737D01*
X333973Y124827D01*
X334882Y124220D01*
X335955Y124006D01*
X336481Y123480D01*
X336695Y122407D01*
X337303Y121497D01*
X338212Y120890D01*
X339285Y120676D01*
X339811Y120150D01*
X340025Y119077D01*
X340633Y118167D01*
X341542Y117560D01*
X342615Y117346D01*
X343688Y117560D01*
X344598Y118167D01*
X345206Y119077D01*
X345419Y120150D01*
X345206Y121223D01*
X344598Y122133D01*
X343688Y122740D01*
X343225Y122833D01*
Y124128D01*
X343688Y124220D01*
X344598Y124827D01*
X345206Y125737D01*
X345419Y126810D01*
X345206Y127883D01*
X344598Y128793D01*
X343688Y129401D01*
X343225Y129493D01*
Y130788D01*
X343688Y130880D01*
X344598Y131488D01*
X345206Y132397D01*
X345419Y133470D01*
X345206Y134543D01*
X344598Y135453D01*
X343688Y136061D01*
X342615Y136274D01*
X341542Y136061D01*
X340633Y135453D01*
X340025Y134543D01*
X339933Y134080D01*
X338638D01*
X338546Y134543D01*
X337938Y135453D01*
X337028Y136061D01*
X335955Y136274D01*
X334882Y136061D01*
X333973Y135453D01*
X333365Y134543D01*
X333273Y134080D01*
X331978D01*
X331885Y134543D01*
X331278Y135453D01*
X330368Y136061D01*
X329952Y136144D01*
X329905Y136153D01*
Y137448D01*
X329952Y137457D01*
X330368Y137540D01*
X331278Y138148D01*
X331885Y139057D01*
X332099Y140130D01*
X332625Y140656D01*
X333698Y140870D01*
X334608Y141478D01*
X335215Y142387D01*
X335429Y143460D01*
X335215Y144533D01*
X334608Y145443D01*
X333698Y146051D01*
X332625Y146264D01*
D02*
G37*
G36*
X443761Y125054D02*
X442688Y124840D01*
X441779Y124233D01*
X441171Y123323D01*
X440957Y122250D01*
X440500Y121054D01*
X439427Y120840D01*
X438517Y120233D01*
X437910Y119323D01*
X437696Y118250D01*
X437910Y117177D01*
X438517Y116267D01*
X439427Y115660D01*
X440500Y115446D01*
X441573Y115660D01*
X442483Y116267D01*
X443090Y117177D01*
X443304Y118250D01*
X443761Y119446D01*
X444834Y119660D01*
X445744Y120267D01*
X446352Y121177D01*
X446565Y122250D01*
X446352Y123323D01*
X445744Y124233D01*
X444834Y124840D01*
X443761Y125054D01*
D02*
G37*
G36*
X398785Y118404D02*
X397712Y118190D01*
X396802Y117583D01*
X396195Y116673D01*
X395981Y115600D01*
X396195Y114527D01*
X396802Y113617D01*
X397712Y113010D01*
X398785Y112796D01*
X399858Y113010D01*
X400690Y113566D01*
X400833Y113610D01*
X402181Y113446D01*
X402467Y113017D01*
X403377Y112410D01*
X404450Y112196D01*
X405523Y112410D01*
X406433Y113017D01*
X407040Y113927D01*
X407254Y115000D01*
X407040Y116073D01*
X406433Y116983D01*
X405523Y117590D01*
X404450Y117804D01*
X403377Y117590D01*
X402545Y117035D01*
X402402Y116990D01*
X401054Y117154D01*
X400768Y117583D01*
X399858Y118190D01*
X398785Y118404D01*
D02*
G37*
G36*
X448500Y117454D02*
X447427Y117240D01*
X446517Y116632D01*
X445910Y115723D01*
X445696Y114650D01*
X445910Y113577D01*
X446517Y112667D01*
X447427Y112059D01*
X448500Y111846D01*
X449573Y112059D01*
X450483Y112667D01*
X451091Y113577D01*
X451304Y114650D01*
X451091Y115723D01*
X450483Y116632D01*
X449573Y117240D01*
X448500Y117454D01*
D02*
G37*
G36*
X417000Y117054D02*
X415927Y116840D01*
X415017Y116233D01*
X414410Y115323D01*
X414196Y114250D01*
X414410Y113177D01*
X415017Y112267D01*
X415927Y111660D01*
X417000Y111446D01*
X418073Y111660D01*
X418983Y112267D01*
X419590Y113177D01*
X419804Y114250D01*
X419590Y115323D01*
X418983Y116233D01*
X418073Y116840D01*
X417000Y117054D01*
D02*
G37*
G36*
X249375Y116294D02*
X248302Y116081D01*
X247392Y115473D01*
X246784Y114563D01*
X246571Y113490D01*
X246784Y112417D01*
X247392Y111508D01*
X248302Y110900D01*
X249375Y110686D01*
X250448Y110900D01*
X251357Y111508D01*
X251965Y112417D01*
X252178Y113490D01*
X251965Y114563D01*
X251357Y115473D01*
X250448Y116081D01*
X249375Y116294D01*
D02*
G37*
G36*
X92350Y118304D02*
X91277Y118090D01*
X90367Y117483D01*
X89760Y116573D01*
X89546Y115500D01*
X89760Y114427D01*
X90367Y113517D01*
Y112983D01*
X89760Y112073D01*
X89546Y111000D01*
X89760Y109927D01*
X90367Y109017D01*
X91277Y108410D01*
X92350Y108196D01*
X93423Y108410D01*
X94333Y109017D01*
X94940Y109927D01*
X95154Y111000D01*
X94940Y112073D01*
X94333Y112983D01*
Y113517D01*
X94940Y114427D01*
X95154Y115500D01*
X94940Y116573D01*
X94333Y117483D01*
X93423Y118090D01*
X92350Y118304D01*
D02*
G37*
G36*
X23500Y113554D02*
X22427Y113340D01*
X21517Y112733D01*
X20910Y111823D01*
X20696Y110750D01*
X20910Y109677D01*
X21517Y108767D01*
X22427Y108160D01*
X23500Y107946D01*
X24573Y108160D01*
X25483Y108767D01*
X26090Y109677D01*
X26304Y110750D01*
X26090Y111823D01*
X25483Y112733D01*
X24573Y113340D01*
X23500Y113554D01*
D02*
G37*
G36*
X385750Y113054D02*
X384677Y112840D01*
X383767Y112233D01*
X383160Y111323D01*
X382946Y110250D01*
X383160Y109177D01*
X383767Y108267D01*
X384677Y107660D01*
X385750Y107446D01*
X386823Y107660D01*
X387733Y108267D01*
X388340Y109177D01*
X388554Y110250D01*
X388340Y111323D01*
X387733Y112233D01*
X386823Y112840D01*
X385750Y113054D01*
D02*
G37*
G36*
X266025Y112964D02*
X264952Y112751D01*
X264042Y112143D01*
X263434Y111233D01*
X263221Y110160D01*
X263434Y109087D01*
X264042Y108177D01*
X264952Y107570D01*
X266025Y107356D01*
X267098Y107570D01*
X268007Y108177D01*
X268615Y109087D01*
X268829Y110160D01*
X268615Y111233D01*
X268007Y112143D01*
X267098Y112751D01*
X266025Y112964D01*
D02*
G37*
G36*
X71250Y116804D02*
X70177Y116590D01*
X69267Y115983D01*
X68660Y115073D01*
X68446Y114000D01*
X68660Y112927D01*
X69267Y112017D01*
X69734Y111706D01*
X69742Y111685D01*
Y110315D01*
X69734Y110294D01*
X69267Y109983D01*
X68660Y109073D01*
X68446Y108000D01*
X68660Y106927D01*
X69267Y106017D01*
X70177Y105410D01*
X71250Y105196D01*
X72323Y105410D01*
X73233Y106017D01*
X73840Y106927D01*
X74054Y108000D01*
X73840Y109073D01*
X73233Y109983D01*
X72766Y110294D01*
X72758Y110315D01*
Y111685D01*
X72766Y111706D01*
X73233Y112017D01*
X73840Y112927D01*
X74054Y114000D01*
X73840Y115073D01*
X73233Y115983D01*
X72323Y116590D01*
X71250Y116804D01*
D02*
G37*
G36*
X299325Y112964D02*
X298252Y112751D01*
X297342Y112143D01*
X296735Y111233D01*
X296521Y110160D01*
X296735Y109087D01*
X297342Y108177D01*
X298252Y107570D01*
X299325Y107356D01*
X299851Y106830D01*
X300065Y105757D01*
X300672Y104847D01*
X301582Y104240D01*
X302655Y104026D01*
X303728Y104240D01*
X304638Y104847D01*
X305245Y105757D01*
X305459Y106830D01*
X305245Y107903D01*
X304638Y108813D01*
X303728Y109420D01*
X302655Y109634D01*
X302129Y110160D01*
X301915Y111233D01*
X301308Y112143D01*
X300398Y112751D01*
X299325Y112964D01*
D02*
G37*
G36*
X137750Y110054D02*
X136677Y109840D01*
X135767Y109233D01*
X135160Y108323D01*
X134955Y107295D01*
X133927Y107090D01*
X133017Y106483D01*
X132410Y105573D01*
X132196Y104500D01*
X132410Y103427D01*
X133017Y102517D01*
X133927Y101910D01*
X135000Y101696D01*
X136073Y101910D01*
X136983Y102517D01*
X137590Y103427D01*
X137795Y104455D01*
X138823Y104660D01*
X139733Y105267D01*
X140340Y106177D01*
X140554Y107250D01*
X140340Y108323D01*
X139733Y109233D01*
X138823Y109840D01*
X137750Y110054D01*
D02*
G37*
G36*
X2782Y111022D02*
X1709Y110808D01*
X799Y110201D01*
X192Y109291D01*
X-22Y108218D01*
X192Y107145D01*
X799Y106235D01*
X1709Y105628D01*
X2782Y105414D01*
X3246Y104218D01*
X3248Y104212D01*
X3460Y103145D01*
X4067Y102235D01*
X4977Y101628D01*
X6050Y101414D01*
X7123Y101628D01*
X8033Y102235D01*
X8641Y103145D01*
X8854Y104218D01*
X8641Y105291D01*
X8033Y106201D01*
X7123Y106808D01*
X6050Y107022D01*
X5586Y108218D01*
X5585Y108224D01*
X5372Y109291D01*
X4765Y110201D01*
X3855Y110808D01*
X2782Y111022D01*
D02*
G37*
G36*
X232000Y106554D02*
X230927Y106340D01*
X230017Y105733D01*
X229410Y104823D01*
X229196Y103750D01*
X229410Y102677D01*
X230017Y101767D01*
X230927Y101160D01*
X232000Y100946D01*
X233073Y101160D01*
X233983Y101767D01*
X234590Y102677D01*
X234804Y103750D01*
X234590Y104823D01*
X233983Y105733D01*
X233073Y106340D01*
X232000Y106554D01*
D02*
G37*
G36*
X269355Y102974D02*
X268282Y102760D01*
X267372Y102153D01*
X266764Y101243D01*
X266681Y100827D01*
X266672Y100780D01*
X265377D01*
X265368Y100826D01*
X265285Y101243D01*
X264677Y102153D01*
X263768Y102760D01*
X262695Y102974D01*
X261622Y102760D01*
X260712Y102153D01*
X260104Y101243D01*
X259891Y100170D01*
X260104Y99097D01*
X260712Y98187D01*
X261622Y97580D01*
X262695Y97366D01*
X263768Y97580D01*
X264677Y98187D01*
X265285Y99097D01*
X265368Y99514D01*
X265377Y99560D01*
X266672D01*
X266681Y99514D01*
X266764Y99097D01*
X267372Y98187D01*
X268282Y97580D01*
X269355Y97366D01*
X270428Y97580D01*
X271337Y98187D01*
X271945Y99097D01*
X272159Y100170D01*
X271945Y101243D01*
X271337Y102153D01*
X270428Y102760D01*
X269355Y102974D01*
D02*
G37*
G36*
X276015Y109634D02*
X274942Y109420D01*
X274032Y108813D01*
X273424Y107903D01*
X273211Y106830D01*
X273424Y105757D01*
X274032Y104847D01*
X274942Y104240D01*
X276015Y104026D01*
X276541Y103500D01*
X276754Y102427D01*
X277362Y101517D01*
X278272Y100910D01*
X279345Y100696D01*
X280418Y100910D01*
X281327Y101517D01*
X281935Y102427D01*
X282149Y103500D01*
X281935Y104573D01*
X281327Y105483D01*
X280418Y106090D01*
X279345Y106304D01*
X278819Y106830D01*
X278605Y107903D01*
X277997Y108813D01*
X277088Y109420D01*
X276015Y109634D01*
D02*
G37*
G36*
X431500Y106304D02*
X430427Y106090D01*
X429517Y105483D01*
X428910Y104573D01*
X428696Y103500D01*
X428910Y102427D01*
X429517Y101517D01*
X430427Y100910D01*
X431500Y100696D01*
X432573Y100910D01*
X433483Y101517D01*
X434090Y102427D01*
X434304Y103500D01*
X434090Y104573D01*
X433483Y105483D01*
X432573Y106090D01*
X431500Y106304D01*
D02*
G37*
G36*
X124500Y108554D02*
X123427Y108340D01*
X122517Y107733D01*
X121910Y106823D01*
X121250Y105804D01*
X120177Y105590D01*
X119268Y104983D01*
X118660Y104073D01*
X118446Y103000D01*
X118660Y101927D01*
X119268Y101017D01*
X120177Y100410D01*
X121250Y100196D01*
X122323Y100410D01*
X123233Y101017D01*
X123841Y101927D01*
X124500Y102946D01*
X125573Y103160D01*
X126483Y103767D01*
X127090Y104677D01*
X127304Y105750D01*
X127090Y106823D01*
X126483Y107733D01*
X125573Y108340D01*
X124500Y108554D01*
D02*
G37*
G36*
X89000Y104054D02*
X87927Y103840D01*
X87017Y103233D01*
X86410Y102323D01*
X86196Y101250D01*
X86410Y100177D01*
X87017Y99267D01*
X87927Y98659D01*
X89000Y98446D01*
X90073Y98659D01*
X90983Y99267D01*
X91590Y100177D01*
X91804Y101250D01*
X91590Y102323D01*
X90983Y103233D01*
X90073Y103840D01*
X89000Y104054D01*
D02*
G37*
G36*
X442750Y113804D02*
X441677Y113590D01*
X440768Y112983D01*
X440160Y112073D01*
X439946Y111000D01*
X440160Y109927D01*
X440768Y109017D01*
X440960Y108889D01*
Y107361D01*
X440768Y107232D01*
X440160Y106323D01*
X439946Y105250D01*
X440160Y104177D01*
X440768Y103267D01*
X441677Y102659D01*
X442065Y102582D01*
X442788Y102246D01*
X442986Y101202D01*
X442946Y101000D01*
X443159Y99927D01*
X443767Y99017D01*
X444677Y98410D01*
X445750Y98196D01*
X446823Y98410D01*
X447733Y99017D01*
X448340Y99927D01*
X448554Y101000D01*
X448340Y102073D01*
X447733Y102983D01*
X446823Y103590D01*
X446436Y103667D01*
X445712Y104004D01*
X445514Y105047D01*
X445554Y105250D01*
X445340Y106323D01*
X444733Y107232D01*
X444540Y107361D01*
Y108889D01*
X444733Y109017D01*
X445341Y109927D01*
X445554Y111000D01*
X445341Y112073D01*
X444733Y112983D01*
X443823Y113590D01*
X442750Y113804D01*
D02*
G37*
G36*
X410500Y102554D02*
X409427Y102340D01*
X408517Y101733D01*
X407910Y100823D01*
X407696Y99750D01*
X407910Y98677D01*
X408517Y97767D01*
X409427Y97160D01*
X410500Y96946D01*
X411573Y97160D01*
X412483Y97767D01*
X413090Y98677D01*
X413304Y99750D01*
X413090Y100823D01*
X412483Y101733D01*
X411573Y102340D01*
X410500Y102554D01*
D02*
G37*
G36*
X23250Y101304D02*
X22177Y101090D01*
X21267Y100483D01*
X20660Y99573D01*
X20446Y98500D01*
X20660Y97427D01*
X21267Y96517D01*
X22177Y95910D01*
X23250Y95696D01*
X24323Y95910D01*
X25233Y96517D01*
X25840Y97427D01*
X26054Y98500D01*
X25840Y99573D01*
X25233Y100483D01*
X24323Y101090D01*
X23250Y101304D01*
D02*
G37*
G36*
X90000Y95054D02*
X88927Y94840D01*
X88876Y94807D01*
X87875Y94304D01*
X86874Y94807D01*
X86823Y94840D01*
X85750Y95054D01*
X84677Y94840D01*
X83767Y94233D01*
X83160Y93323D01*
X82946Y92250D01*
X83160Y91177D01*
X83767Y90267D01*
X84677Y89660D01*
X85750Y89446D01*
X86823Y89660D01*
X86874Y89693D01*
X87875Y90196D01*
X88876Y89693D01*
X88927Y89660D01*
X90000Y89446D01*
X91073Y89660D01*
X91983Y90267D01*
X92590Y91177D01*
X92804Y92250D01*
X92590Y93323D01*
X91983Y94233D01*
X91073Y94840D01*
X90000Y95054D01*
D02*
G37*
G36*
X335955Y102974D02*
X334882Y102760D01*
X333973Y102153D01*
X333365Y101243D01*
X333151Y100170D01*
X333365Y99097D01*
X333973Y98187D01*
X334882Y97580D01*
X335955Y97366D01*
X336481Y96840D01*
X336695Y95767D01*
X337303Y94857D01*
X338212Y94250D01*
X339285Y94036D01*
X340358Y94250D01*
X341268Y94857D01*
X341876Y95767D01*
X342089Y96840D01*
X341876Y97913D01*
X341268Y98823D01*
X340358Y99430D01*
X339285Y99644D01*
X338759Y100170D01*
X338546Y101243D01*
X337938Y102153D01*
X337028Y102760D01*
X335955Y102974D01*
D02*
G37*
G36*
X6050Y99580D02*
X4977Y99367D01*
X4067Y98759D01*
X3460Y97849D01*
X3246Y96776D01*
X3460Y95703D01*
X4067Y94794D01*
X4977Y94186D01*
X6050Y93972D01*
X7123Y94186D01*
X8033Y94794D01*
X8641Y95703D01*
X8854Y96776D01*
X8641Y97849D01*
X8033Y98759D01*
X7123Y99367D01*
X6050Y99580D01*
D02*
G37*
G36*
X238750Y99304D02*
X237677Y99090D01*
X236767Y98483D01*
X236160Y97573D01*
X235946Y96500D01*
X236160Y95427D01*
X236767Y94517D01*
X237677Y93910D01*
X238750Y93696D01*
X239823Y93910D01*
X240733Y94517D01*
X241340Y95427D01*
X241554Y96500D01*
X241340Y97573D01*
X240733Y98483D01*
X239823Y99090D01*
X238750Y99304D01*
D02*
G37*
G36*
X198250Y94054D02*
X197177Y93840D01*
X196268Y93233D01*
X195483D01*
X194573Y93840D01*
X193500Y94054D01*
X192427Y93840D01*
X191517Y93233D01*
X190910Y92323D01*
X190696Y91250D01*
X190910Y90177D01*
X191517Y89267D01*
X192427Y88659D01*
X193293Y88487D01*
X193196Y88000D01*
X193410Y86927D01*
X194017Y86017D01*
X194927Y85410D01*
X196000Y85196D01*
X197073Y85410D01*
X197983Y86017D01*
X198591Y86927D01*
X198804Y88000D01*
X198697Y88535D01*
X199323Y88659D01*
X200233Y89267D01*
X200840Y90177D01*
X201054Y91250D01*
X200840Y92323D01*
X200233Y93233D01*
X199323Y93840D01*
X198250Y94054D01*
D02*
G37*
G36*
X211750Y98904D02*
X210677Y98690D01*
X209767Y98083D01*
X209160Y97173D01*
X208946Y96100D01*
X209160Y95027D01*
X209767Y94117D01*
X210677Y93510D01*
X211750Y93296D01*
X212823Y93510D01*
X213346Y93859D01*
X214376Y93974D01*
X215062Y93821D01*
X215677Y93410D01*
X216750Y93196D01*
X217823Y93410D01*
X218733Y94017D01*
X219340Y94927D01*
X219554Y96000D01*
X219340Y97073D01*
X218733Y97983D01*
X217823Y98590D01*
X216750Y98804D01*
X215677Y98590D01*
X215154Y98241D01*
X214124Y98126D01*
X213438Y98279D01*
X212823Y98690D01*
X211750Y98904D01*
D02*
G37*
G36*
X319305Y99644D02*
X318232Y99430D01*
X317322Y98823D01*
X316715Y97913D01*
X316501Y96840D01*
X315975Y96314D01*
X314902Y96100D01*
X313992Y95493D01*
X313385Y94583D01*
X313171Y93510D01*
X313385Y92437D01*
X313992Y91527D01*
X314902Y90920D01*
X315975Y90706D01*
X317048Y90920D01*
X317958Y91527D01*
X318566Y92437D01*
X318779Y93510D01*
X319305Y94036D01*
X320378Y94250D01*
X321288Y94857D01*
X321895Y95767D01*
X322109Y96840D01*
X321895Y97913D01*
X321288Y98823D01*
X320378Y99430D01*
X319305Y99644D01*
D02*
G37*
G36*
X126500Y98804D02*
X125427Y98590D01*
X124517Y97983D01*
X123910Y97073D01*
X123696Y96000D01*
X123910Y94927D01*
X124174Y94531D01*
X124414Y93625D01*
X124174Y92719D01*
X123910Y92323D01*
X123696Y91250D01*
X123910Y90177D01*
X124517Y89267D01*
X125427Y88660D01*
X126500Y88446D01*
X127573Y88660D01*
X128483Y89267D01*
X129090Y90177D01*
X129304Y91250D01*
X129090Y92323D01*
X128826Y92719D01*
X128586Y93625D01*
X128826Y94531D01*
X129090Y94927D01*
X129304Y96000D01*
X129090Y97073D01*
X128483Y97983D01*
X127573Y98590D01*
X126500Y98804D01*
D02*
G37*
G36*
X440750Y93804D02*
X439677Y93590D01*
X438767Y92983D01*
X438159Y92073D01*
X437946Y91000D01*
X438159Y89927D01*
X438767Y89017D01*
X439677Y88410D01*
X440750Y88196D01*
X441823Y88410D01*
X442733Y89017D01*
X443340Y89927D01*
X443554Y91000D01*
X443340Y92073D01*
X442733Y92983D01*
X441823Y93590D01*
X440750Y93804D01*
D02*
G37*
G36*
X13250Y93054D02*
X12177Y92841D01*
X11267Y92233D01*
X10660Y91323D01*
X10446Y90250D01*
X10660Y89177D01*
X11267Y88267D01*
X12177Y87660D01*
X13250Y87446D01*
X14323Y87660D01*
X15233Y88267D01*
X15841Y89177D01*
X16054Y90250D01*
X15841Y91323D01*
X15233Y92233D01*
X14323Y92841D01*
X13250Y93054D01*
D02*
G37*
G36*
X159775Y84629D02*
X158702Y84416D01*
X157792Y83808D01*
X157185Y82898D01*
X156971Y81825D01*
X157185Y80752D01*
X157792Y79843D01*
X158702Y79235D01*
X159775Y79021D01*
X160848Y79235D01*
X161758Y79843D01*
X162365Y80752D01*
X162579Y81825D01*
X162365Y82898D01*
X161758Y83808D01*
X160848Y84416D01*
X159775Y84629D01*
D02*
G37*
G36*
X152725D02*
X151652Y84416D01*
X150742Y83808D01*
X150134Y82898D01*
X149921Y81825D01*
X150134Y80752D01*
X150742Y79843D01*
X151652Y79235D01*
X152725Y79021D01*
X153798Y79235D01*
X154708Y79843D01*
X155315Y80752D01*
X155529Y81825D01*
X155315Y82898D01*
X154708Y83808D01*
X153798Y84416D01*
X152725Y84629D01*
D02*
G37*
G36*
X143525Y84629D02*
X142452Y84415D01*
X141543Y83808D01*
X140935Y82898D01*
X140721Y81825D01*
X140935Y80752D01*
X141543Y79842D01*
X142452Y79235D01*
X143525Y79021D01*
X144598Y79235D01*
X145508Y79842D01*
X146116Y80752D01*
X146329Y81825D01*
X146116Y82898D01*
X145508Y83808D01*
X144598Y84415D01*
X143525Y84629D01*
D02*
G37*
G36*
X136475D02*
X135402Y84415D01*
X134492Y83808D01*
X133885Y82898D01*
X133671Y81825D01*
X133885Y80752D01*
X134492Y79842D01*
X135402Y79235D01*
X136475Y79021D01*
X137548Y79235D01*
X138458Y79842D01*
X139066Y80752D01*
X139279Y81825D01*
X139066Y82898D01*
X138458Y83808D01*
X137548Y84415D01*
X136475Y84629D01*
D02*
G37*
G36*
X237500Y83054D02*
X236427Y82840D01*
X235517Y82233D01*
X234910Y81323D01*
X234696Y80250D01*
X234910Y79177D01*
X235517Y78267D01*
X236427Y77660D01*
X237500Y77446D01*
X238573Y77660D01*
X239483Y78267D01*
X240090Y79177D01*
X240304Y80250D01*
X240090Y81323D01*
X239483Y82233D01*
X238573Y82840D01*
X237500Y83054D01*
D02*
G37*
G36*
X438250Y77554D02*
X437177Y77340D01*
X436268Y76733D01*
X435733D01*
X434823Y77340D01*
X433750Y77554D01*
X432677Y77340D01*
X431768Y76733D01*
X431160Y75823D01*
X430946Y74750D01*
X431160Y73677D01*
X431768Y72767D01*
X432677Y72160D01*
X433750Y71946D01*
X434823Y72160D01*
X435733Y72767D01*
X436268D01*
X437177Y72160D01*
X438250Y71946D01*
X439323Y72160D01*
X440233Y72767D01*
X440840Y73677D01*
X441054Y74750D01*
X440840Y75823D01*
X440233Y76733D01*
X439323Y77340D01*
X438250Y77554D01*
D02*
G37*
G36*
X215000Y85554D02*
X213927Y85340D01*
X213017Y84733D01*
X212410Y83823D01*
X212196Y82750D01*
X212410Y81677D01*
X212982Y80820D01*
X213017Y80767D01*
X213017Y79433D01*
X212982Y79380D01*
X212410Y78523D01*
X212196Y77450D01*
X212410Y76377D01*
X213017Y75467D01*
X213927Y74859D01*
X215000Y74646D01*
X216073Y74859D01*
X216983Y75467D01*
X217590Y76377D01*
X217804Y77450D01*
X217590Y78523D01*
X217018Y79380D01*
X216983Y79433D01*
X216983Y80767D01*
X217018Y80820D01*
X217590Y81677D01*
X217804Y82750D01*
X217590Y83823D01*
X216983Y84733D01*
X216073Y85340D01*
X215000Y85554D01*
D02*
G37*
G36*
X2250Y88304D02*
X1177Y88090D01*
X267Y87483D01*
X-340Y86573D01*
X-554Y85500D01*
X-340Y84427D01*
X267Y83517D01*
X1177Y82910D01*
X2250Y82696D01*
X3034Y81557D01*
X3160Y80927D01*
X3424Y80531D01*
X3664Y79625D01*
X3424Y78719D01*
X3160Y78323D01*
X2946Y77250D01*
X3160Y76177D01*
X3767Y75267D01*
X4677Y74660D01*
X5750Y74446D01*
X6823Y74660D01*
X7733Y75267D01*
X8340Y76177D01*
X8554Y77250D01*
X8340Y78323D01*
X8076Y78719D01*
X7836Y79625D01*
X8076Y80531D01*
X8340Y80927D01*
X8554Y82000D01*
X8340Y83073D01*
X7733Y83982D01*
X6823Y84590D01*
X5750Y84804D01*
X4966Y85943D01*
X4840Y86573D01*
X4233Y87483D01*
X3323Y88090D01*
X2250Y88304D01*
D02*
G37*
G36*
X276750Y78554D02*
X275677Y78341D01*
X274767Y77733D01*
X274160Y76823D01*
X273946Y75750D01*
X274160Y74677D01*
X274767Y73767D01*
X275677Y73160D01*
X276750Y72946D01*
X277823Y73160D01*
X278733Y73767D01*
X279340Y74677D01*
X279554Y75750D01*
X279340Y76823D01*
X278733Y77733D01*
X277823Y78341D01*
X276750Y78554D01*
D02*
G37*
G36*
X115750Y80054D02*
X114677Y79840D01*
X113767Y79233D01*
X113160Y78323D01*
X112946Y77250D01*
X113160Y76177D01*
X113193Y76126D01*
X113696Y75125D01*
X113193Y74124D01*
X113160Y74073D01*
X112946Y73000D01*
X113160Y71927D01*
X113767Y71017D01*
X114677Y70410D01*
X115750Y70196D01*
X116823Y70410D01*
X117733Y71017D01*
X118340Y71927D01*
X118554Y73000D01*
X118340Y74073D01*
X118307Y74124D01*
X117804Y75125D01*
X118307Y76126D01*
X118340Y76177D01*
X118554Y77250D01*
X118340Y78323D01*
X117733Y79233D01*
X116823Y79840D01*
X115750Y80054D01*
D02*
G37*
G36*
X75861Y75693D02*
X74788Y75479D01*
X73878Y74872D01*
X73271Y73962D01*
X73057Y72889D01*
X73271Y71816D01*
X73878Y70906D01*
X74788Y70299D01*
X75861Y70085D01*
X76934Y70299D01*
X77521Y70691D01*
X78768Y70767D01*
X79677Y70160D01*
X80750Y69946D01*
X81823Y70160D01*
X82733Y70767D01*
X83341Y71677D01*
X83554Y72750D01*
X83341Y73823D01*
X82733Y74733D01*
X81823Y75340D01*
X80750Y75554D01*
X79677Y75340D01*
X79090Y74948D01*
X77844Y74872D01*
X76934Y75479D01*
X75861Y75693D01*
D02*
G37*
G36*
X101750Y75304D02*
X100677Y75090D01*
X99767Y74483D01*
X99160Y73573D01*
X98946Y72500D01*
X99160Y71427D01*
X99767Y70517D01*
X100677Y69910D01*
X101750Y69696D01*
X102823Y69910D01*
X103733Y70517D01*
X104340Y71427D01*
X104554Y72500D01*
X104340Y73573D01*
X103733Y74483D01*
X102823Y75090D01*
X101750Y75304D01*
D02*
G37*
G36*
X-2250Y75054D02*
X-3323Y74840D01*
X-4233Y74233D01*
X-4840Y73323D01*
X-5054Y72250D01*
X-4840Y71177D01*
X-4233Y70267D01*
X-3323Y69660D01*
X-2250Y69446D01*
X-1177Y69660D01*
X-267Y70267D01*
X340Y71177D01*
X554Y72250D01*
X340Y73323D01*
X-267Y74233D01*
X-1177Y74840D01*
X-2250Y75054D01*
D02*
G37*
G36*
X268250Y68054D02*
X267177Y67840D01*
X266225Y67259D01*
X265273Y67840D01*
X264200Y68054D01*
X263127Y67840D01*
X262218Y67233D01*
X261610Y66323D01*
X261396Y65250D01*
X261610Y64177D01*
X262218Y63267D01*
X263127Y62660D01*
X264200Y62446D01*
X265273Y62660D01*
X266225Y63242D01*
X267177Y62660D01*
X268250Y62446D01*
X269323Y62660D01*
X270233Y63267D01*
X270840Y64177D01*
X271054Y65250D01*
X270840Y66323D01*
X270233Y67233D01*
X269323Y67840D01*
X268250Y68054D01*
D02*
G37*
G36*
X172750Y76854D02*
X171677Y76641D01*
X170767Y76033D01*
X170159Y75123D01*
X169946Y74050D01*
X170159Y72977D01*
X170732Y72120D01*
X170767Y72067D01*
X170767Y70732D01*
X170732Y70680D01*
X170159Y69823D01*
X169946Y68750D01*
X169954Y68709D01*
X169250Y67554D01*
X168177Y67340D01*
X168126Y67307D01*
X167125Y66804D01*
X166123Y67307D01*
X166073Y67340D01*
X165000Y67554D01*
X163927Y67340D01*
X163017Y66733D01*
X162409Y65823D01*
X162196Y64750D01*
X162409Y63677D01*
X163017Y62767D01*
X163927Y62160D01*
X165000Y61946D01*
X166073Y62160D01*
X166982Y62767D01*
X167267D01*
X168177Y62160D01*
X169250Y61946D01*
X170323Y62160D01*
X171232Y62767D01*
X171840Y63677D01*
X172054Y64750D01*
X172046Y64791D01*
X172238Y65106D01*
X172543Y65177D01*
X173876Y64344D01*
X173910Y64177D01*
X174517Y63267D01*
X175427Y62660D01*
X176500Y62446D01*
X177573Y62660D01*
X178483Y63267D01*
X179090Y64177D01*
X179304Y65250D01*
X179090Y66323D01*
X178483Y67233D01*
X177573Y67840D01*
X176702Y68014D01*
X175557Y68747D01*
X175554Y68750D01*
X175494Y69050D01*
X175340Y69823D01*
X174768Y70680D01*
X174732Y70732D01*
X174732Y72067D01*
X174768Y72120D01*
X175340Y72977D01*
X175554Y74050D01*
X175340Y75123D01*
X174732Y76033D01*
X173823Y76641D01*
X172750Y76854D01*
D02*
G37*
G36*
X290000Y71804D02*
X288927Y71590D01*
X288017Y70983D01*
X287410Y70073D01*
X287196Y69000D01*
X287410Y67927D01*
X288017Y67017D01*
X288927Y66410D01*
X290000Y66196D01*
X291073Y66410D01*
X291983Y67017D01*
X292590Y67927D01*
X292804Y69000D01*
X292590Y70073D01*
X291983Y70983D01*
X291073Y71590D01*
X290000Y71804D01*
D02*
G37*
G36*
X410000Y70054D02*
X408927Y69840D01*
X408017Y69233D01*
X407410Y68323D01*
X407196Y67250D01*
X407410Y66177D01*
X408017Y65267D01*
X408927Y64660D01*
X410000Y64446D01*
X411073Y64660D01*
X411983Y65267D01*
X412590Y66177D01*
X412804Y67250D01*
X412590Y68323D01*
X411983Y69233D01*
X411073Y69840D01*
X410000Y70054D01*
D02*
G37*
G36*
X445000Y72804D02*
X443927Y72590D01*
X443017Y71983D01*
X442410Y71073D01*
X442196Y70000D01*
X442410Y68927D01*
X443017Y68017D01*
X443927Y67410D01*
X445000Y67196D01*
X446073Y67410D01*
X446513Y67703D01*
X446595Y67757D01*
X447681Y66957D01*
X447659Y66823D01*
X447634Y66694D01*
X447446Y65750D01*
X447660Y64677D01*
X448267Y63767D01*
X449177Y63160D01*
X450250Y62946D01*
X451323Y63160D01*
X452233Y63767D01*
X452840Y64677D01*
X453054Y65750D01*
X452840Y66823D01*
X452233Y67733D01*
X451323Y68340D01*
X450250Y68554D01*
X449177Y68340D01*
X448737Y68046D01*
X448655Y67993D01*
X447569Y68793D01*
X447590Y68927D01*
X447616Y69056D01*
X447804Y70000D01*
X447590Y71073D01*
X446983Y71983D01*
X446073Y72590D01*
X445000Y72804D01*
D02*
G37*
G36*
X215250Y62304D02*
X214177Y62090D01*
X213268Y61483D01*
X212983D01*
X212073Y62090D01*
X211000Y62304D01*
X209927Y62090D01*
X209018Y61483D01*
X208410Y60573D01*
X208196Y59500D01*
X208410Y58427D01*
X209018Y57517D01*
X209667Y57083D01*
X209160Y56323D01*
X208946Y55250D01*
X209160Y54177D01*
X209767Y53267D01*
X210677Y52660D01*
X211750Y52446D01*
X212823Y52660D01*
X213733Y53267D01*
X214340Y54177D01*
X214554Y55250D01*
X214494Y55552D01*
X215219Y56649D01*
X215454Y56737D01*
X216323Y56910D01*
X217233Y57517D01*
X217841Y58427D01*
X218054Y59500D01*
X217841Y60573D01*
X217233Y61483D01*
X216323Y62090D01*
X215250Y62304D01*
D02*
G37*
G36*
X3500Y69304D02*
X2427Y69090D01*
X1517Y68483D01*
X910Y67573D01*
X696Y66500D01*
X910Y65427D01*
X1517Y64517D01*
X2427Y63910D01*
X3500Y63696D01*
X4573Y63910D01*
X4701Y63995D01*
X5059Y63925D01*
X6025Y63352D01*
X6160Y62677D01*
X6767Y61767D01*
X7677Y61160D01*
X8750Y60946D01*
X9823Y61160D01*
X10733Y61767D01*
X11340Y62677D01*
X11554Y63750D01*
X11340Y64823D01*
X10733Y65733D01*
X9823Y66340D01*
X8750Y66554D01*
X7677Y66340D01*
X7549Y66255D01*
X7190Y66325D01*
X6225Y66898D01*
X6090Y67573D01*
X5483Y68483D01*
X4573Y69090D01*
X3500Y69304D01*
D02*
G37*
G36*
X307500Y61554D02*
X306427Y61340D01*
X305517Y60733D01*
X304983D01*
X304073Y61340D01*
X303000Y61554D01*
X301927Y61340D01*
X301017Y60733D01*
X300410Y59823D01*
X300196Y58750D01*
X300410Y57677D01*
X301017Y56767D01*
X301927Y56160D01*
X303000Y55946D01*
X304073Y56160D01*
X304983Y56767D01*
X305517D01*
X306427Y56160D01*
X307500Y55946D01*
X308573Y56160D01*
X309483Y56767D01*
X310090Y57677D01*
X310304Y58750D01*
X310090Y59823D01*
X309483Y60733D01*
X308573Y61340D01*
X307500Y61554D01*
D02*
G37*
G36*
X116250Y65304D02*
X115177Y65091D01*
X114267Y64483D01*
X113660Y63573D01*
X113446Y62500D01*
X113660Y61427D01*
X114267Y60518D01*
X115177Y59910D01*
X116250Y59696D01*
X117323Y59910D01*
X118233Y60518D01*
X118841Y61427D01*
X119054Y62500D01*
X118841Y63573D01*
X118233Y64483D01*
X117323Y65091D01*
X116250Y65304D01*
D02*
G37*
G36*
X138500Y60054D02*
X137427Y59840D01*
X136517Y59233D01*
X136514Y59227D01*
X134986D01*
X134983Y59233D01*
X134073Y59840D01*
X133000Y60054D01*
X131927Y59840D01*
X131017Y59233D01*
X130409Y58323D01*
X130196Y57250D01*
X130409Y56177D01*
X131017Y55267D01*
X131927Y54660D01*
X133000Y54446D01*
X134073Y54660D01*
X134983Y55267D01*
X134986Y55273D01*
X136514D01*
X136517Y55267D01*
X137427Y54660D01*
X138500Y54446D01*
X139573Y54660D01*
X140483Y55267D01*
X141090Y56177D01*
X141304Y57250D01*
X141090Y58323D01*
X140483Y59233D01*
X139573Y59840D01*
X138500Y60054D01*
D02*
G37*
G36*
X262250Y57554D02*
X261177Y57340D01*
X260267Y56733D01*
X260264Y56727D01*
X258736D01*
X258733Y56733D01*
X257823Y57340D01*
X256750Y57554D01*
X255677Y57340D01*
X254767Y56733D01*
X254160Y55823D01*
X253946Y54750D01*
X254160Y53677D01*
X254767Y52767D01*
X255677Y52160D01*
X256750Y51946D01*
X257823Y52160D01*
X258733Y52767D01*
X258736Y52773D01*
X260264D01*
X260267Y52767D01*
X261177Y52160D01*
X262250Y51946D01*
X263323Y52160D01*
X264233Y52767D01*
X264840Y53677D01*
X265054Y54750D01*
X264840Y55823D01*
X264233Y56733D01*
X263323Y57340D01*
X262250Y57554D01*
D02*
G37*
G36*
X47250Y61804D02*
X46177Y61590D01*
X45267Y60983D01*
X44660Y60073D01*
X44446Y59000D01*
X44660Y57927D01*
X45267Y57017D01*
X46177Y56410D01*
X47250Y56196D01*
X48323Y56410D01*
X49233Y57017D01*
X49840Y57927D01*
X50054Y59000D01*
X49840Y60073D01*
X49233Y60983D01*
X48323Y61590D01*
X47250Y61804D01*
D02*
G37*
G36*
X77000Y59554D02*
X75927Y59340D01*
X75017Y58733D01*
X74410Y57823D01*
X74196Y56750D01*
X74398Y55734D01*
X73677Y55590D01*
X72767Y54983D01*
X72160Y54073D01*
X71946Y53000D01*
X72160Y51927D01*
X72767Y51017D01*
X73677Y50410D01*
X74750Y50196D01*
X75823Y50410D01*
X75873Y50443D01*
X76875Y50946D01*
X77877Y50443D01*
X77927Y50410D01*
X79000Y50196D01*
X80073Y50410D01*
X80983Y51017D01*
X81590Y51927D01*
X81804Y53000D01*
X81590Y54073D01*
X80983Y54983D01*
X80073Y55590D01*
X79592Y55686D01*
X79804Y56750D01*
X79590Y57823D01*
X78983Y58733D01*
X78073Y59340D01*
X77000Y59554D01*
D02*
G37*
G36*
X0Y54667D02*
X-1073Y54454D01*
X-1983Y53846D01*
X-2590Y52936D01*
X-2804Y51863D01*
X-2590Y50790D01*
X-1983Y49881D01*
X-1073Y49273D01*
X0Y49060D01*
X1073Y49273D01*
X1983Y49881D01*
X2590Y50790D01*
X2804Y51863D01*
X2590Y52936D01*
X1983Y53846D01*
X1073Y54454D01*
X0Y54667D01*
D02*
G37*
G36*
X66500Y53804D02*
X65427Y53590D01*
X64517Y52983D01*
X63910Y52073D01*
X63696Y51000D01*
X63910Y49927D01*
X64517Y49017D01*
X65427Y48410D01*
X66500Y48196D01*
X67573Y48410D01*
X68483Y49017D01*
X69090Y49927D01*
X69304Y51000D01*
X69090Y52073D01*
X68483Y52983D01*
X67573Y53590D01*
X66500Y53804D01*
D02*
G37*
G36*
X329750Y53554D02*
X328677Y53341D01*
X327767Y52733D01*
X327160Y51823D01*
X326946Y50750D01*
X327160Y49677D01*
X327767Y48767D01*
X328677Y48160D01*
X329750Y47946D01*
X330823Y48160D01*
X331733Y48767D01*
X332340Y49677D01*
X332554Y50750D01*
X332340Y51823D01*
X331733Y52733D01*
X330823Y53341D01*
X329750Y53554D01*
D02*
G37*
G36*
X177025Y56829D02*
X175952Y56616D01*
X175042Y56008D01*
X174435Y55098D01*
X174221Y54025D01*
X174435Y52952D01*
X175042Y52042D01*
X175952Y51435D01*
X175660Y50323D01*
X175446Y49250D01*
X175516Y48899D01*
X175325Y48608D01*
X174420Y47921D01*
X173750Y48054D01*
X172677Y47840D01*
X171767Y47233D01*
X171160Y46323D01*
X170946Y45250D01*
X171160Y44177D01*
X171767Y43267D01*
X172677Y42660D01*
X173750Y42446D01*
X174823Y42660D01*
X175733Y43267D01*
X176340Y44177D01*
X176554Y45250D01*
X176484Y45601D01*
X176675Y45892D01*
X177580Y46579D01*
X178250Y46446D01*
X179323Y46660D01*
X179373Y46693D01*
X180518Y47267D01*
X181427Y46659D01*
X182500Y46446D01*
X183573Y46659D01*
X184483Y47267D01*
X185091Y48177D01*
X185304Y49250D01*
X185091Y50323D01*
X184483Y51233D01*
X183573Y51840D01*
X182500Y52054D01*
X181427Y51840D01*
X181377Y51807D01*
X180398Y51316D01*
X179374Y52033D01*
X179615Y52952D01*
X179829Y54025D01*
X179615Y55098D01*
X179008Y56008D01*
X178098Y56616D01*
X177025Y56829D01*
D02*
G37*
G36*
X352250Y50054D02*
X351177Y49840D01*
X350267Y49233D01*
X349660Y48323D01*
X349446Y47250D01*
X349660Y46177D01*
X350267Y45267D01*
X351177Y44660D01*
X352250Y44446D01*
X353323Y44660D01*
X354233Y45267D01*
X354767D01*
X355677Y44660D01*
X356750Y44446D01*
X357823Y44660D01*
X358733Y45267D01*
X359340Y46177D01*
X359554Y47250D01*
X359340Y48323D01*
X358733Y49233D01*
X357823Y49840D01*
X356750Y50054D01*
X355677Y49840D01*
X354767Y49233D01*
X354233D01*
X353323Y49840D01*
X352250Y50054D01*
D02*
G37*
G36*
X206000Y42554D02*
X204927Y42340D01*
X204017Y41733D01*
X203983D01*
X203073Y42340D01*
X202000Y42554D01*
X200927Y42340D01*
X200017Y41733D01*
X199410Y40823D01*
X199196Y39750D01*
X199410Y38677D01*
X200017Y37767D01*
X200927Y37160D01*
X202000Y36946D01*
X203073Y37160D01*
X203983Y37767D01*
X204017D01*
X204927Y37160D01*
X206000Y36946D01*
X207073Y37160D01*
X207983Y37767D01*
X208590Y38677D01*
X208804Y39750D01*
X208590Y40823D01*
X207983Y41733D01*
X207073Y42340D01*
X206000Y42554D01*
D02*
G37*
G36*
X83750Y44304D02*
X82677Y44090D01*
X81767Y43483D01*
X81160Y42573D01*
X80946Y41500D01*
X81160Y40427D01*
X81767Y39517D01*
X82677Y38910D01*
X83750Y38696D01*
X84823Y38910D01*
X85733Y39517D01*
X86340Y40427D01*
X86554Y41500D01*
X86340Y42573D01*
X85733Y43483D01*
X84823Y44090D01*
X83750Y44304D01*
D02*
G37*
G36*
X10750Y41554D02*
X9677Y41340D01*
X8767Y40733D01*
X8160Y39823D01*
X7946Y38750D01*
X8160Y37677D01*
X8767Y36767D01*
X9677Y36160D01*
X10750Y35946D01*
X11823Y36160D01*
X12733Y36767D01*
X13340Y37677D01*
X13554Y38750D01*
X13340Y39823D01*
X12733Y40733D01*
X11823Y41340D01*
X10750Y41554D01*
D02*
G37*
G36*
X92500Y36554D02*
X91427Y36340D01*
X91376Y36307D01*
X90375Y35804D01*
X89374Y36307D01*
X89323Y36340D01*
X88250Y36554D01*
X87177Y36340D01*
X86267Y35733D01*
X85831Y35079D01*
X85301Y34970D01*
X84949D01*
X84419Y35079D01*
X83983Y35733D01*
X83073Y36340D01*
X82000Y36554D01*
X80927Y36340D01*
X80017Y35733D01*
X79410Y34823D01*
X79196Y33750D01*
X79410Y32677D01*
X79443Y32627D01*
X79946Y31625D01*
X79443Y30624D01*
X79410Y30573D01*
X79196Y29500D01*
X79410Y28427D01*
X80017Y27517D01*
X80927Y26910D01*
X82000Y26696D01*
X83073Y26910D01*
X83983Y27517D01*
X84590Y28427D01*
X84804Y29500D01*
X84590Y30573D01*
X84557Y30624D01*
X84228Y31278D01*
X84679Y32198D01*
X85985Y32190D01*
X86267Y31767D01*
X87177Y31160D01*
X88250Y30946D01*
X89323Y31160D01*
X90233Y31767D01*
X90517D01*
X91427Y31160D01*
X92500Y30946D01*
X93573Y31160D01*
X94483Y31767D01*
X95090Y32677D01*
X95304Y33750D01*
X95090Y34823D01*
X94483Y35733D01*
X93573Y36340D01*
X92500Y36554D01*
D02*
G37*
G36*
X361000Y36382D02*
X359927Y36169D01*
X359017Y35561D01*
X358988Y35516D01*
X357483Y35483D01*
X356573Y36090D01*
X355500Y36304D01*
X354427Y36090D01*
X353517Y35483D01*
X352910Y34573D01*
X352696Y33500D01*
X352910Y32427D01*
X353517Y31517D01*
X354427Y30910D01*
X355500Y30696D01*
X356573Y30910D01*
X357483Y31517D01*
X357513Y31562D01*
X359017Y31596D01*
X359927Y30988D01*
X361000Y30775D01*
X362073Y30988D01*
X362983Y31596D01*
X363591Y32505D01*
X363804Y33578D01*
X363591Y34651D01*
X362983Y35561D01*
X362073Y36169D01*
X361000Y36382D01*
D02*
G37*
G36*
X332750Y40304D02*
X331677Y40090D01*
X330768Y39483D01*
X330160Y38573D01*
X329946Y37500D01*
X330160Y36427D01*
X330768Y35517D01*
X331677Y34910D01*
X332750Y34696D01*
X333823Y34910D01*
X334733Y35517D01*
X335340Y36427D01*
X335554Y37500D01*
X335340Y38573D01*
X334733Y39483D01*
X333823Y40090D01*
X332750Y40304D01*
D02*
G37*
G36*
X210000Y35304D02*
X208927Y35090D01*
X208017Y34483D01*
X206681Y34768D01*
X206573Y34840D01*
X205500Y35054D01*
X204427Y34840D01*
X203517Y34233D01*
X202910Y33323D01*
X202696Y32250D01*
X202910Y31177D01*
X203517Y30267D01*
X204427Y29660D01*
X205500Y29446D01*
X206573Y29660D01*
X206912Y29886D01*
X208017Y30517D01*
X208927Y29910D01*
X210000Y29696D01*
X211073Y29910D01*
X211983Y30517D01*
X212590Y31427D01*
X212804Y32500D01*
X212590Y33573D01*
X211983Y34483D01*
X211073Y35090D01*
X210000Y35304D01*
D02*
G37*
G36*
X0Y44493D02*
X-1073Y44280D01*
X-1983Y43672D01*
X-2590Y42762D01*
X-2804Y41689D01*
X-2590Y40616D01*
X-1983Y39707D01*
Y39186D01*
X-2590Y38277D01*
X-2804Y37204D01*
X-2590Y36131D01*
X-1983Y35221D01*
X-1073Y34613D01*
X0Y34400D01*
X1073Y34613D01*
X1983Y35221D01*
X2590Y36131D01*
X2804Y37204D01*
X2590Y38277D01*
X1983Y39186D01*
Y39707D01*
X2590Y40616D01*
X2804Y41689D01*
X2590Y42762D01*
X1983Y43672D01*
X1073Y44280D01*
X0Y44493D01*
D02*
G37*
G36*
X404750Y39804D02*
X403677Y39590D01*
X402767Y38983D01*
X402160Y38073D01*
X401946Y37000D01*
X402160Y35927D01*
X402767Y35017D01*
X403677Y34410D01*
X404750Y34196D01*
X405823Y34410D01*
X406733Y35017D01*
X407340Y35927D01*
X407554Y37000D01*
X407340Y38073D01*
X406733Y38983D01*
X405823Y39590D01*
X404750Y39804D01*
D02*
G37*
G36*
X263500Y48304D02*
X262427Y48090D01*
X261517Y47483D01*
X260910Y46573D01*
X260696Y45500D01*
X260910Y44427D01*
X261517Y43517D01*
X261984Y43206D01*
X261992Y43185D01*
Y41815D01*
X261984Y41794D01*
X261517Y41483D01*
X260910Y40573D01*
X260696Y39500D01*
X260910Y38427D01*
X261517Y37517D01*
Y36983D01*
X260910Y36073D01*
X260696Y35000D01*
X260725Y34855D01*
X259645Y33775D01*
X259500Y33804D01*
X259355Y33775D01*
X258275Y34855D01*
X258304Y35000D01*
X258090Y36073D01*
X257941Y36296D01*
X257583Y37250D01*
X257941Y38204D01*
X258090Y38427D01*
X258304Y39500D01*
X258090Y40573D01*
X257483Y41483D01*
X257016Y41794D01*
X257008Y41815D01*
Y43185D01*
X257016Y43206D01*
X257483Y43517D01*
X258090Y44427D01*
X258304Y45500D01*
X258090Y46573D01*
X257483Y47483D01*
X256573Y48090D01*
X255500Y48304D01*
X254427Y48090D01*
X253517Y47483D01*
X252910Y46573D01*
X252696Y45500D01*
X252910Y44427D01*
X253517Y43517D01*
X253984Y43206D01*
X253992Y43185D01*
Y41815D01*
X253984Y41794D01*
X253517Y41483D01*
X252910Y40573D01*
X252696Y39500D01*
X252910Y38427D01*
X253059Y38204D01*
X253417Y37250D01*
X253059Y36296D01*
X252910Y36073D01*
X252696Y35000D01*
X252910Y33927D01*
X253517Y33017D01*
X254427Y32410D01*
X255500Y32196D01*
X255645Y32225D01*
X256725Y31145D01*
X256696Y31000D01*
X256725Y30855D01*
X255645Y29775D01*
X255500Y29804D01*
X254427Y29590D01*
X253517Y28983D01*
X252910Y28073D01*
X252696Y27000D01*
X252910Y25927D01*
X253517Y25017D01*
Y24483D01*
X252910Y23573D01*
X252696Y22500D01*
X252910Y21427D01*
X253517Y20517D01*
X253984Y20206D01*
X253992Y20185D01*
Y18815D01*
X253984Y18794D01*
X253517Y18483D01*
X252910Y17573D01*
X252696Y16500D01*
X252910Y15427D01*
X253517Y14517D01*
X254427Y13910D01*
X255500Y13696D01*
X256573Y13910D01*
X257483Y14517D01*
X258090Y15427D01*
X258304Y16500D01*
X258090Y17573D01*
X257483Y18483D01*
X257016Y18794D01*
X257008Y18815D01*
Y20185D01*
X257016Y20206D01*
X257483Y20517D01*
X258090Y21427D01*
X258304Y22500D01*
X258090Y23573D01*
X257483Y24483D01*
Y25017D01*
X258090Y25927D01*
X258304Y27000D01*
X259428Y27532D01*
X259572D01*
X260696Y27000D01*
X260910Y25927D01*
X261517Y25017D01*
Y24483D01*
X260910Y23573D01*
X260696Y22500D01*
X260910Y21427D01*
X261517Y20517D01*
X261984Y20206D01*
X261992Y20185D01*
Y18815D01*
X261984Y18794D01*
X261517Y18483D01*
X260910Y17573D01*
X260696Y16500D01*
X260910Y15427D01*
X261517Y14517D01*
X262427Y13910D01*
X263500Y13696D01*
X264573Y13910D01*
X265483Y14517D01*
X266090Y15427D01*
X266304Y16500D01*
X266090Y17573D01*
X265483Y18483D01*
X265016Y18794D01*
X265008Y18815D01*
Y20185D01*
X265016Y20206D01*
X265483Y20517D01*
X266090Y21427D01*
X266304Y22500D01*
X266090Y23573D01*
X265483Y24483D01*
Y25017D01*
X266090Y25927D01*
X266304Y27000D01*
X266090Y28073D01*
X265483Y28983D01*
X264573Y29590D01*
X263500Y29804D01*
X262968Y30928D01*
Y31072D01*
X263500Y32196D01*
X264573Y32410D01*
X265483Y33017D01*
X266090Y33927D01*
X266304Y35000D01*
X266090Y36073D01*
X265483Y36983D01*
Y37517D01*
X266090Y38427D01*
X266304Y39500D01*
X266090Y40573D01*
X265483Y41483D01*
X265016Y41794D01*
X265008Y41815D01*
Y43185D01*
X265016Y43206D01*
X265483Y43517D01*
X266090Y44427D01*
X266304Y45500D01*
X266090Y46573D01*
X265483Y47483D01*
X264573Y48090D01*
X263500Y48304D01*
D02*
G37*
G36*
X26604Y33554D02*
X25531Y33340D01*
X25308Y33191D01*
X24354Y32833D01*
X23400Y33191D01*
X23177Y33340D01*
X22104Y33554D01*
X21031Y33340D01*
X20122Y32733D01*
X19514Y31823D01*
X19300Y30750D01*
X19514Y29677D01*
X20122Y28767D01*
X21031Y28160D01*
X22104Y27946D01*
X23177Y28160D01*
X23400Y28309D01*
X24354Y28667D01*
X25308Y28309D01*
X25531Y28160D01*
X26604Y27946D01*
X27677Y28160D01*
X28587Y28767D01*
X29195Y29677D01*
X29408Y30750D01*
X29195Y31823D01*
X28587Y32733D01*
X27677Y33340D01*
X26604Y33554D01*
D02*
G37*
G36*
X131750Y48304D02*
X130677Y48091D01*
X129767Y47483D01*
X129160Y46573D01*
X128946Y45500D01*
X129160Y44427D01*
X129767Y43517D01*
X130234Y43206D01*
X130242Y43185D01*
Y41815D01*
X130234Y41795D01*
X129767Y41483D01*
X129160Y40573D01*
X128946Y39500D01*
X129160Y38427D01*
X129309Y38204D01*
X129667Y37250D01*
X129309Y36296D01*
X129160Y36073D01*
X128946Y35000D01*
X129160Y33927D01*
X129767Y33017D01*
X130677Y32410D01*
X131750Y32196D01*
X131895Y32225D01*
X132975Y31145D01*
X132946Y31000D01*
X132975Y30855D01*
X131895Y29775D01*
X131750Y29804D01*
X130677Y29590D01*
X129767Y28983D01*
X129160Y28073D01*
X128946Y27000D01*
X129160Y25927D01*
X129767Y25017D01*
Y24483D01*
X129160Y23573D01*
X128946Y22500D01*
X129160Y21427D01*
X129767Y20517D01*
X130234Y20206D01*
X130242Y20185D01*
Y18815D01*
X130234Y18794D01*
X129767Y18483D01*
X129160Y17573D01*
X128946Y16500D01*
X129160Y15427D01*
X129767Y14517D01*
X130677Y13910D01*
X131750Y13696D01*
X132823Y13910D01*
X133733Y14517D01*
X134340Y15427D01*
X134554Y16500D01*
X134340Y17573D01*
X133733Y18483D01*
X133266Y18794D01*
X133258Y18815D01*
Y20185D01*
X133266Y20206D01*
X133733Y20517D01*
X134340Y21427D01*
X134554Y22500D01*
X134340Y23573D01*
X133733Y24483D01*
Y25017D01*
X134340Y25927D01*
X134554Y27000D01*
X135678Y27532D01*
X135822D01*
X136946Y27000D01*
X137160Y25927D01*
X137309Y25704D01*
X137667Y24750D01*
X137309Y23796D01*
X137160Y23573D01*
X136946Y22500D01*
X137160Y21427D01*
X137767Y20517D01*
X138234Y20206D01*
X138242Y20185D01*
Y18815D01*
X138234Y18794D01*
X137767Y18483D01*
X137160Y17573D01*
X136946Y16500D01*
X137160Y15427D01*
X137767Y14517D01*
X138677Y13910D01*
X139750Y13696D01*
X140823Y13910D01*
X141733Y14517D01*
X142340Y15427D01*
X142554Y16500D01*
X142340Y17573D01*
X141733Y18483D01*
X141266Y18794D01*
X141258Y18815D01*
Y20185D01*
X141266Y20206D01*
X141733Y20517D01*
X142340Y21427D01*
X142554Y22500D01*
X142340Y23573D01*
X142191Y23796D01*
X141833Y24750D01*
X142191Y25704D01*
X142340Y25927D01*
X142554Y27000D01*
X142340Y28073D01*
X141733Y28983D01*
X140823Y29590D01*
X139750Y29804D01*
X139605Y29775D01*
X138525Y30855D01*
X138554Y31000D01*
X138525Y31145D01*
X139605Y32225D01*
X139750Y32196D01*
X140823Y32410D01*
X141733Y33017D01*
X142340Y33927D01*
X142554Y35000D01*
X142340Y36073D01*
X141733Y36983D01*
Y37517D01*
X142340Y38427D01*
X142554Y39500D01*
X142340Y40573D01*
X141733Y41483D01*
X141266Y41794D01*
X141258Y41815D01*
Y43185D01*
X141266Y43206D01*
X141733Y43517D01*
X142340Y44427D01*
X142554Y45500D01*
X142340Y46573D01*
X141733Y47483D01*
X140823Y48090D01*
X139750Y48304D01*
X138677Y48090D01*
X137767Y47483D01*
X137160Y46573D01*
X136946Y45500D01*
X137160Y44427D01*
X137767Y43517D01*
X138234Y43206D01*
X138242Y43185D01*
Y41815D01*
X138234Y41794D01*
X137767Y41483D01*
X137160Y40573D01*
X136946Y39500D01*
X137160Y38427D01*
X137767Y37517D01*
Y36983D01*
X137160Y36073D01*
X136946Y35000D01*
X136975Y34855D01*
X135895Y33775D01*
X135750Y33804D01*
X135605Y33775D01*
X134525Y34855D01*
X134554Y35000D01*
X134340Y36073D01*
X134191Y36296D01*
X133833Y37250D01*
X134191Y38204D01*
X134340Y38427D01*
X134554Y39500D01*
X134340Y40573D01*
X133733Y41483D01*
X133266Y41795D01*
X133258Y41815D01*
Y43185D01*
X133266Y43206D01*
X133733Y43517D01*
X134340Y44427D01*
X134554Y45500D01*
X134340Y46573D01*
X133733Y47483D01*
X132823Y48091D01*
X131750Y48304D01*
D02*
G37*
G36*
X184750Y36054D02*
X183677Y35840D01*
X182767Y35233D01*
X182160Y34323D01*
X181946Y33250D01*
X182160Y32177D01*
X182402Y31814D01*
X181690Y30978D01*
X181518Y30851D01*
X180500Y31054D01*
X179427Y30840D01*
X178517Y30233D01*
X177910Y29323D01*
X177696Y28250D01*
X177910Y27177D01*
X178517Y26267D01*
X179427Y25660D01*
X180500Y25446D01*
X181573Y25660D01*
X181623Y25693D01*
X182625Y26196D01*
X183626Y25693D01*
X183677Y25660D01*
X184750Y25446D01*
X185823Y25660D01*
X186733Y26267D01*
X187340Y27177D01*
X187554Y28250D01*
X187340Y29323D01*
X186733Y30233D01*
X186960Y31608D01*
X187340Y32177D01*
X187554Y33250D01*
X187340Y34323D01*
X186733Y35233D01*
X185823Y35840D01*
X184750Y36054D01*
D02*
G37*
G36*
X342250Y30554D02*
X341177Y30340D01*
X340267Y29733D01*
X339660Y28823D01*
X339446Y27750D01*
X339660Y26677D01*
X340267Y25767D01*
X341177Y25160D01*
X342250Y24946D01*
X343323Y25160D01*
X344233Y25767D01*
X344840Y26677D01*
X345054Y27750D01*
X344840Y28823D01*
X344233Y29733D01*
X343323Y30340D01*
X342250Y30554D01*
D02*
G37*
G36*
X286500Y31554D02*
X285427Y31340D01*
X284517Y30733D01*
X283909Y29823D01*
X283696Y28750D01*
X283909Y27677D01*
X283943Y27627D01*
X284446Y26625D01*
X283943Y25624D01*
X283909Y25573D01*
X283696Y24500D01*
X283909Y23427D01*
X284517Y22517D01*
X285427Y21910D01*
X286500Y21696D01*
X287573Y21910D01*
X288483Y22517D01*
X289090Y23427D01*
X289304Y24500D01*
X289090Y25573D01*
X289057Y25624D01*
X288554Y26625D01*
X289057Y27627D01*
X289090Y27677D01*
X289304Y28750D01*
X289090Y29823D01*
X288483Y30733D01*
X287573Y31340D01*
X286500Y31554D01*
D02*
G37*
G36*
X206401Y24832D02*
X205328Y24618D01*
X204419Y24010D01*
X203811Y23101D01*
X203597Y22028D01*
X203811Y20955D01*
X204419Y20045D01*
X205328Y19437D01*
X206401Y19224D01*
X207474Y19437D01*
X208384Y20045D01*
X208992Y20955D01*
X209205Y22028D01*
X208992Y23101D01*
X208384Y24010D01*
X207474Y24618D01*
X206401Y24832D01*
D02*
G37*
G36*
X340250Y10804D02*
X339177Y10590D01*
X338267Y9983D01*
X337123Y10557D01*
X337073Y10590D01*
X336000Y10804D01*
X334927Y10590D01*
X334017Y9983D01*
X333733D01*
X332823Y10590D01*
X331750Y10804D01*
X330677Y10590D01*
X329767Y9983D01*
X329160Y9073D01*
X328946Y8000D01*
X329160Y6927D01*
X329767Y6017D01*
X330677Y5410D01*
X331750Y5196D01*
X332823Y5410D01*
X332873Y5443D01*
X333875Y5946D01*
X334876Y5443D01*
X334927Y5410D01*
X336000Y5196D01*
X337073Y5410D01*
X337983Y6017D01*
X339127Y5443D01*
X339177Y5410D01*
X340250Y5196D01*
X341323Y5410D01*
X342233Y6017D01*
X342840Y6927D01*
X343054Y8000D01*
X342840Y9073D01*
X342233Y9983D01*
X341323Y10590D01*
X340250Y10804D01*
D02*
G37*
G36*
X180500Y14671D02*
X179427Y14458D01*
X178517Y13850D01*
X177910Y12941D01*
X177696Y11868D01*
X177910Y10795D01*
X178517Y9885D01*
X179427Y9277D01*
X180500Y9064D01*
X181573Y9277D01*
X182483Y9885D01*
X183090Y10795D01*
X183304Y11868D01*
X183090Y12941D01*
X182483Y13850D01*
X181573Y14458D01*
X180500Y14671D01*
D02*
G37*
G36*
X301500Y12554D02*
X300427Y12341D01*
X299517Y11733D01*
X298910Y10823D01*
X298696Y9750D01*
X298910Y8677D01*
X299517Y7768D01*
X300427Y7160D01*
X301500Y6946D01*
X302573Y7160D01*
X303483Y7768D01*
X304017D01*
X304017Y7767D01*
X304927Y7160D01*
X306000Y6946D01*
X307073Y7160D01*
X307983Y7767D01*
X308590Y8677D01*
X308804Y9750D01*
X308590Y10823D01*
X307983Y11733D01*
X307073Y12340D01*
X306000Y12554D01*
X304927Y12340D01*
X304017Y11733D01*
X303483D01*
X303483Y11733D01*
X302573Y12341D01*
X301500Y12554D01*
D02*
G37*
G36*
X403000Y12304D02*
X401927Y12091D01*
X401017Y11483D01*
X400410Y10573D01*
X400196Y9500D01*
X400410Y8427D01*
X401017Y7517D01*
X401927Y6910D01*
X403000Y6696D01*
X404073Y6910D01*
X404983Y7517D01*
X405590Y8427D01*
X405804Y9500D01*
X405590Y10573D01*
X404983Y11483D01*
X404073Y12091D01*
X403000Y12304D01*
D02*
G37*
G36*
X10000Y11804D02*
X8927Y11590D01*
X8017Y10983D01*
X7410Y10073D01*
X7196Y9000D01*
X7410Y7927D01*
X8017Y7017D01*
X8927Y6410D01*
X10000Y6196D01*
X11073Y6410D01*
X11983Y7017D01*
X12590Y7927D01*
X12804Y9000D01*
X12590Y10073D01*
X11983Y10983D01*
X11073Y11590D01*
X10000Y11804D01*
D02*
G37*
G36*
X218250Y11304D02*
X217177Y11090D01*
X216267Y10482D01*
X215660Y9573D01*
X215446Y8500D01*
X215660Y7427D01*
X216267Y6517D01*
X217177Y5910D01*
X218250Y5696D01*
X219323Y5910D01*
X220233Y6517D01*
X220840Y7427D01*
X221054Y8500D01*
X220840Y9573D01*
X220233Y10482D01*
X219323Y11090D01*
X218250Y11304D01*
D02*
G37*
%LPD*%
D145*
X437500Y30500D02*
D03*
Y266500D02*
D03*
D159*
X252705Y183955D02*
Y189431D01*
D161*
X333500Y274000D02*
D03*
X289500Y264950D02*
D03*
X263750Y267000D02*
D03*
X259250Y283000D02*
D03*
X263750Y282750D02*
D03*
X402000Y274450D02*
D03*
X369250Y253500D02*
D03*
Y258500D02*
D03*
X45250Y214500D02*
D03*
X68500Y140250D02*
D03*
X71750Y147750D02*
D03*
X109500Y200500D02*
D03*
X317000Y274250D02*
D03*
X267750Y279000D02*
D03*
X265000Y293500D02*
D03*
X54750Y255435D02*
D03*
X2782Y108218D02*
D03*
X14750Y157500D02*
D03*
X17000Y191000D02*
D03*
X100250Y234000D02*
D03*
X65000Y177950D02*
D03*
X69500Y188750D02*
D03*
X3000Y171500D02*
D03*
X41500Y210500D02*
D03*
X14500Y255750D02*
D03*
X17500Y278000D02*
D03*
X13500Y263500D02*
D03*
X23500Y110750D02*
D03*
X46000Y197500D02*
D03*
X194500Y287000D02*
D03*
X439000Y170750D02*
D03*
X215000Y132500D02*
D03*
X439000Y176750D02*
D03*
X210500Y132500D02*
D03*
X254750Y165590D02*
D03*
X3500Y66500D02*
D03*
X113750Y266250D02*
D03*
X189250Y274500D02*
D03*
X140250Y288500D02*
D03*
X191500Y25000D02*
D03*
X208250Y92500D02*
D03*
X182509Y148500D02*
D03*
X172509D02*
D03*
X433250Y205250D02*
D03*
X459250Y170750D02*
D03*
X439000Y206750D02*
D03*
X439000Y194750D02*
D03*
X439000Y182750D02*
D03*
X439000Y188750D02*
D03*
X464250Y211500D02*
D03*
X439000D02*
D03*
X439000Y200750D02*
D03*
X122509Y118500D02*
D03*
X140000Y90500D02*
D03*
X330250Y72750D02*
D03*
X348750Y252250D02*
D03*
X294750Y222750D02*
D03*
X276000Y262250D02*
D03*
X274800Y252146D02*
D03*
X172750Y74050D02*
D03*
X198500Y106000D02*
D03*
X192000Y80500D02*
D03*
X189250Y87750D02*
D03*
X26250Y227750D02*
D03*
X2250Y241250D02*
D03*
X250750Y262750D02*
D03*
X14000Y61250D02*
D03*
X431250Y129750D02*
D03*
X342615Y146790D02*
D03*
X439750Y149500D02*
D03*
X440500Y118250D02*
D03*
X444000Y148000D02*
D03*
X443761Y122250D02*
D03*
X431250Y146250D02*
D03*
Y141750D02*
D03*
X329295Y153450D02*
D03*
X177250Y261750D02*
D03*
X347500Y269000D02*
D03*
X177509Y123500D02*
D03*
X347000Y70250D02*
D03*
X359250Y175750D02*
D03*
X103250Y76750D02*
D03*
X-4000Y22500D02*
D03*
X21750Y197500D02*
D03*
X83500Y137000D02*
D03*
X188000Y258250D02*
D03*
X17000Y186500D02*
D03*
X26950Y211750D02*
D03*
X22050D02*
D03*
X42875Y136875D02*
D03*
X67250Y55750D02*
D03*
X262250Y213500D02*
D03*
X212250Y122500D02*
D03*
X222750Y228750D02*
D03*
X255000Y233250D02*
D03*
X224250Y254000D02*
D03*
X171250Y279500D02*
D03*
X286250Y274000D02*
D03*
X187500Y148500D02*
D03*
X128500Y212250D02*
D03*
X171000Y256700D02*
D03*
X205250Y282750D02*
D03*
X175500Y282750D02*
D03*
X162509Y173500D02*
D03*
X137500Y219000D02*
D03*
X92844Y126250D02*
D03*
X92794Y130800D02*
D03*
X92350Y111000D02*
D03*
Y115500D02*
D03*
X111500Y286750D02*
D03*
X409000Y234250D02*
D03*
X342615Y133470D02*
D03*
X126500Y91250D02*
D03*
Y96000D02*
D03*
X340000Y37250D02*
D03*
X331000Y43750D02*
D03*
X148250Y96000D02*
D03*
X216250Y125500D02*
D03*
X216750Y96000D02*
D03*
X211750Y96100D02*
D03*
X215000Y82750D02*
D03*
Y77450D02*
D03*
X172750Y68750D02*
D03*
X116250Y100500D02*
D03*
X136475Y81825D02*
D03*
X143525D02*
D03*
X152725Y81825D02*
D03*
X159775D02*
D03*
X381750Y244000D02*
D03*
X379250Y221750D02*
D03*
X352000Y287250D02*
D03*
X400000Y287500D02*
D03*
X136000Y273250D02*
D03*
X210750Y275000D02*
D03*
X174750Y267250D02*
D03*
X201500Y252750D02*
D03*
X261500Y274750D02*
D03*
X250750Y289500D02*
D03*
X183750Y274500D02*
D03*
X157250Y274750D02*
D03*
X41750Y20750D02*
D03*
X29000Y241000D02*
D03*
X75000Y155500D02*
D03*
X80250D02*
D03*
X11500Y233000D02*
D03*
X72500Y260750D02*
D03*
X175750Y195250D02*
D03*
X72500Y268250D02*
D03*
X55000Y185350D02*
D03*
X170000Y95500D02*
D03*
X204000Y119000D02*
D03*
X-1750Y142500D02*
D03*
X163500Y283500D02*
D03*
X157000Y287250D02*
D03*
X164250Y261750D02*
D03*
X114500Y58250D02*
D03*
X157509Y173500D02*
D03*
X167509D02*
D03*
X191000Y172500D02*
D03*
X156500Y195975D02*
D03*
X205250Y141250D02*
D03*
X162509Y118500D02*
D03*
X85000Y121250D02*
D03*
X84000Y127000D02*
D03*
X157509Y128500D02*
D03*
X125885Y86250D02*
D03*
X342615Y126810D02*
D03*
X339285Y130140D02*
D03*
X332625D02*
D03*
X329295Y133470D02*
D03*
X339285Y156780D02*
D03*
X342615Y160110D02*
D03*
X335955Y153450D02*
D03*
X329375Y160030D02*
D03*
X28750Y204500D02*
D03*
X5000Y197250D02*
D03*
X104000Y49750D02*
D03*
X340500Y269000D02*
D03*
X332250D02*
D03*
X324000D02*
D03*
X315750D02*
D03*
X307500D02*
D03*
X299250D02*
D03*
X84850Y175450D02*
D03*
X71750Y152250D02*
D03*
X167509Y138500D02*
D03*
Y158500D02*
D03*
X177509Y128500D02*
D03*
X142509Y133500D02*
D03*
X108000Y176000D02*
D03*
X147509Y148500D02*
D03*
X132509Y118500D02*
D03*
X152509Y153500D02*
D03*
Y173500D02*
D03*
X132509Y178500D02*
D03*
X117509Y173500D02*
D03*
X112509Y118750D02*
D03*
X137509Y123500D02*
D03*
X117509Y153500D02*
D03*
X122509Y138500D02*
D03*
X10000Y68750D02*
D03*
X14500Y131750D02*
D03*
X1750Y159000D02*
D03*
X57750Y40500D02*
D03*
X218750Y129250D02*
D03*
X371750Y122500D02*
D03*
X348500Y226000D02*
D03*
X235000Y212500D02*
D03*
X383923Y114500D02*
D03*
X373673Y88500D02*
D03*
X111500Y249750D02*
D03*
X153750Y247750D02*
D03*
X97500Y274750D02*
D03*
X106250Y272000D02*
D03*
X454500Y98500D02*
D03*
X431500Y103500D02*
D03*
X450250Y65750D02*
D03*
X445000Y70000D02*
D03*
X450000Y191750D02*
D03*
X368250Y147500D02*
D03*
X402750Y21750D02*
D03*
X463500Y63500D02*
D03*
X445500Y91500D02*
D03*
X450750Y225200D02*
D03*
X329250Y18500D02*
D03*
X353500Y21000D02*
D03*
X375750Y11750D02*
D03*
X179146Y231250D02*
D03*
X183750Y231250D02*
D03*
X288250Y89250D02*
D03*
X403900Y187000D02*
D03*
X404750Y70000D02*
D03*
X411750Y223500D02*
D03*
X400500Y211750D02*
D03*
X374500Y248250D02*
D03*
X306250Y287750D02*
D03*
X187250Y217500D02*
D03*
X-9750Y154250D02*
D03*
X307000Y223000D02*
D03*
X347250Y213500D02*
D03*
X316750Y55500D02*
D03*
X375000Y45750D02*
D03*
X373500Y37000D02*
D03*
X400250Y38750D02*
D03*
X381250Y28750D02*
D03*
X444000Y155750D02*
D03*
X433250Y150750D02*
D03*
X387500Y146250D02*
D03*
X272685Y196741D02*
D03*
X259365D02*
D03*
X262695Y193411D02*
D03*
X431000Y91500D02*
D03*
X337500Y84750D02*
D03*
X312500Y89750D02*
D03*
X309315Y106830D02*
D03*
X435500Y235750D02*
D03*
X-8654Y98497D02*
D03*
X-4000Y98500D02*
D03*
X-9500Y128747D02*
D03*
X-9500Y134494D02*
D03*
X-5000Y162500D02*
D03*
X-9250Y162500D02*
D03*
X-5250Y253997D02*
D03*
X-9750Y253995D02*
D03*
X-9750Y236750D02*
D03*
Y231250D02*
D03*
X-9500Y213000D02*
D03*
Y217250D02*
D03*
X155500Y89500D02*
D03*
X148500Y77750D02*
D03*
X181000Y210750D02*
D03*
X207250Y214750D02*
D03*
X-9500Y124000D02*
D03*
X-9250Y78497D02*
D03*
X394500Y173500D02*
D03*
X404500Y133000D02*
D03*
Y140000D02*
D03*
X3750Y3750D02*
D03*
X308000Y245000D02*
D03*
X414500Y200500D02*
D03*
X210250Y74750D02*
D03*
X214000Y69500D02*
D03*
X203000Y66750D02*
D03*
X64000Y17000D02*
D03*
X25500Y22500D02*
D03*
X41500Y3000D02*
D03*
X56750Y3250D02*
D03*
X52000Y27250D02*
D03*
X30750D02*
D03*
X-8750Y45000D02*
D03*
Y39750D02*
D03*
X42500Y287500D02*
D03*
X258250Y202250D02*
D03*
X268250Y204750D02*
D03*
X374750Y174000D02*
D03*
X304500Y79000D02*
D03*
X276000Y80250D02*
D03*
X266250Y77250D02*
D03*
X254000Y79750D02*
D03*
X243250D02*
D03*
X345750Y116750D02*
D03*
X299500Y181750D02*
D03*
X349371Y167579D02*
D03*
X327000Y54750D02*
D03*
X458750Y192000D02*
D03*
X424750Y184250D02*
D03*
X440750Y101000D02*
D03*
X408750Y211000D02*
D03*
X430925Y119000D02*
D03*
X401000Y136500D02*
D03*
X410000Y115000D02*
D03*
X391000Y123750D02*
D03*
X411500Y165000D02*
D03*
X416250Y178000D02*
D03*
X395250Y57750D02*
D03*
X389500D02*
D03*
X426500Y213250D02*
D03*
X390000Y282500D02*
D03*
X323750Y284250D02*
D03*
X339250Y283500D02*
D03*
X416750Y130000D02*
D03*
X400750Y65750D02*
D03*
X415000Y99250D02*
D03*
X404750Y85500D02*
D03*
X407000Y251750D02*
D03*
X342615Y180090D02*
D03*
X289335Y200071D02*
D03*
X246045Y183421D02*
D03*
X233250Y183369D02*
D03*
X325965Y196741D02*
D03*
X266025Y190081D02*
D03*
X282675Y193411D02*
D03*
X329295Y186751D02*
D03*
X305985Y103500D02*
D03*
X252705Y143460D02*
D03*
X249375Y146790D02*
D03*
X242715Y120150D02*
D03*
X286005Y110160D02*
D03*
X272685Y103500D02*
D03*
X266025Y96840D02*
D03*
X339285Y170100D02*
D03*
Y163440D02*
D03*
X270000Y31000D02*
D03*
X259500Y43000D02*
D03*
Y19000D02*
D03*
Y37250D02*
D03*
Y24750D02*
D03*
X292500Y11750D02*
D03*
X297000D02*
D03*
X294750Y49750D02*
D03*
X290000D02*
D03*
X228000Y49250D02*
D03*
X232000D02*
D03*
X223750Y12500D02*
D03*
X228500D02*
D03*
X168500Y49750D02*
D03*
X173250D02*
D03*
X168500Y12250D02*
D03*
X173250D02*
D03*
X104750D02*
D03*
X100000D02*
D03*
X100000Y51000D02*
D03*
X135750Y37250D02*
D03*
X135750Y24750D02*
D03*
X135750Y43000D02*
D03*
Y19000D02*
D03*
X125250Y31000D02*
D03*
D162*
X71500Y211000D02*
D03*
X82500D02*
D03*
X71500Y222000D02*
D03*
X82500Y222000D02*
D03*
X39750Y158250D02*
D03*
Y169250D02*
D03*
X50750Y158250D02*
D03*
Y169250D02*
D03*
X310645Y173400D02*
D03*
Y123400D02*
D03*
X270645D02*
D03*
Y173400D02*
D03*
D163*
X41750Y102250D02*
D03*
Y91250D02*
D03*
X52750Y102250D02*
D03*
Y91250D02*
D03*
X290645Y133500D02*
D03*
Y123500D02*
D03*
Y153500D02*
D03*
Y143500D02*
D03*
Y163500D02*
D03*
Y173500D02*
D03*
X300645Y173400D02*
D03*
Y163400D02*
D03*
Y143400D02*
D03*
Y153400D02*
D03*
Y123400D02*
D03*
Y133400D02*
D03*
X310645Y163400D02*
D03*
Y143400D02*
D03*
Y153400D02*
D03*
Y133400D02*
D03*
X270645D02*
D03*
Y153400D02*
D03*
Y143400D02*
D03*
Y163400D02*
D03*
X280645Y133400D02*
D03*
Y123400D02*
D03*
Y153400D02*
D03*
Y143400D02*
D03*
Y163400D02*
D03*
Y173400D02*
D03*
M02*
