G04*
G04 #@! TF.GenerationSoftware,Altium Limited,Altium Designer,19.1.7 (138)*
G04*
G04 Layer_Physical_Order=3*
G04 Layer_Color=16440176*
%FSLAX44Y44*%
%MOMM*%
G71*
G01*
G75*
%ADD10C,0.1000*%
%ADD13C,0.3000*%
%ADD15C,0.2000*%
%ADD16C,0.2500*%
%ADD145R,5.5000X5.5000*%
%ADD150C,0.4000*%
%ADD153C,0.5000*%
%ADD155C,0.4500*%
%ADD159C,0.1100*%
%ADD161C,0.3500*%
%ADD162C,0.5000*%
%ADD163C,0.4000*%
%ADD164C,1.0000*%
%ADD165C,0.4300*%
G36*
X148591Y290939D02*
X148541Y290974D01*
X148474Y291006D01*
X148392Y291034D01*
X148293Y291058D01*
X148178Y291078D01*
X147899Y291108D01*
X147556Y291123D01*
X147360Y291125D01*
X147184Y293125D01*
X147379Y293128D01*
X147868Y293166D01*
X147999Y293189D01*
X148114Y293218D01*
X148213Y293251D01*
X148297Y293290D01*
X148364Y293334D01*
X148416Y293383D01*
X148591Y290939D01*
D02*
G37*
G36*
X465961Y158692D02*
X464895Y157980D01*
X463790Y156326D01*
X463402Y154375D01*
X463790Y152424D01*
X464895Y150770D01*
X465961Y150058D01*
Y146942D01*
X464895Y146230D01*
X463790Y144576D01*
X463402Y142625D01*
X463790Y140674D01*
X464895Y139020D01*
X465961Y138308D01*
Y2039D01*
X376129D01*
X375416Y3214D01*
X375444Y3300D01*
X375488Y3377D01*
X403450D01*
X404598Y3852D01*
X407648Y6902D01*
X408124Y8050D01*
Y10950D01*
X407648Y12098D01*
X398598Y21148D01*
X397450Y21624D01*
X363723D01*
X355871Y29475D01*
X356289Y30853D01*
X356573Y30910D01*
X357483Y31517D01*
X357513Y31562D01*
X359017Y31596D01*
X359927Y30988D01*
X361000Y30775D01*
X362073Y30988D01*
X362983Y31596D01*
X363591Y32505D01*
X363804Y33578D01*
X363591Y34651D01*
X362983Y35561D01*
X362073Y36169D01*
X361000Y36382D01*
X359927Y36169D01*
X359017Y35561D01*
X358988Y35516D01*
X357483Y35483D01*
X356573Y36090D01*
X355500Y36304D01*
X354427Y36090D01*
X354194Y35935D01*
X352924Y36613D01*
Y41700D01*
X352448Y42848D01*
X352080Y43216D01*
X352130Y43579D01*
X352580Y44512D01*
X353323Y44660D01*
X354233Y45267D01*
X354767D01*
X355677Y44660D01*
X356750Y44446D01*
X357823Y44660D01*
X358733Y45267D01*
X359340Y46177D01*
X359554Y47250D01*
X359340Y48323D01*
X358733Y49233D01*
X357823Y49840D01*
X356750Y50054D01*
X355677Y49840D01*
X354767Y49233D01*
X354233D01*
X353323Y49840D01*
X352250Y50054D01*
X351177Y49840D01*
X350894Y49651D01*
X349624Y50330D01*
Y57500D01*
X349148Y58648D01*
X339648Y68148D01*
X338500Y68624D01*
X299000D01*
X297852Y68148D01*
X285589Y55885D01*
X284319Y56411D01*
Y60175D01*
X284047Y61540D01*
X283273Y62698D01*
X272948Y73023D01*
X271790Y73797D01*
X270425Y74069D01*
X239978D01*
X237830Y76217D01*
X238248Y77595D01*
X238573Y77660D01*
X239483Y78267D01*
X240090Y79177D01*
X240105Y79250D01*
X242806Y81951D01*
X292995D01*
X293971Y82145D01*
X294798Y82698D01*
X326302Y114202D01*
X326855Y115029D01*
X327049Y116005D01*
Y116816D01*
X328174Y117529D01*
X328319Y117540D01*
X328656Y117473D01*
X329484Y117009D01*
X329948Y116181D01*
X330035Y115747D01*
X330643Y114838D01*
X331552Y114230D01*
X332625Y114016D01*
X333698Y114230D01*
X334608Y114838D01*
X335215Y115747D01*
X335429Y116820D01*
X335215Y117893D01*
X334608Y118803D01*
X333698Y119411D01*
X333264Y119497D01*
X332436Y119961D01*
X331972Y120789D01*
X331885Y121223D01*
X331278Y122133D01*
X330368Y122740D01*
X329905Y122833D01*
Y124128D01*
X330368Y124220D01*
X331278Y124827D01*
X331885Y125737D01*
X331968Y126154D01*
X331978Y126200D01*
X333273D01*
X333282Y126154D01*
X333365Y125737D01*
X333973Y124827D01*
X334882Y124220D01*
X335955Y124006D01*
X336481Y123480D01*
X336695Y122407D01*
X337303Y121497D01*
X338212Y120890D01*
X339285Y120676D01*
X339811Y120150D01*
X340025Y119077D01*
X340633Y118167D01*
X341542Y117560D01*
X342615Y117346D01*
X343688Y117560D01*
X344598Y118167D01*
X345206Y119077D01*
X345419Y120150D01*
X345206Y121223D01*
X344598Y122133D01*
X343688Y122740D01*
X342615Y122954D01*
X342089Y123480D01*
X341876Y124553D01*
X341268Y125463D01*
X340358Y126071D01*
X339285Y126284D01*
X338759Y126810D01*
X338546Y127883D01*
X337938Y128793D01*
X337028Y129401D01*
X336612Y129483D01*
X336565Y129493D01*
Y130788D01*
X336612Y130797D01*
X337028Y130880D01*
X337938Y131488D01*
X338546Y132397D01*
X338759Y133470D01*
X338546Y134543D01*
X337938Y135453D01*
X337028Y136061D01*
X335955Y136274D01*
X334882Y136061D01*
X333973Y135453D01*
X333365Y134543D01*
X333151Y133470D01*
X333365Y132397D01*
X333973Y131488D01*
X334882Y130880D01*
X335299Y130797D01*
X335345Y130788D01*
Y129493D01*
X335299Y129483D01*
X334882Y129401D01*
X333973Y128793D01*
X333365Y127883D01*
X333282Y127467D01*
X333273Y127420D01*
X331978D01*
X331968Y127467D01*
X331885Y127883D01*
X331278Y128793D01*
X330368Y129401D01*
X329295Y129614D01*
X328319Y129420D01*
X328174Y129431D01*
X327049Y130144D01*
Y136796D01*
X328174Y137509D01*
X328319Y137521D01*
X329295Y137326D01*
X330368Y137540D01*
X331278Y138148D01*
X331885Y139057D01*
X332099Y140130D01*
X332625Y140656D01*
X333698Y140870D01*
X334608Y141478D01*
X335215Y142387D01*
X335429Y143460D01*
X335215Y144533D01*
X334608Y145443D01*
X333698Y146051D01*
X332625Y146264D01*
X331552Y146051D01*
X330643Y145443D01*
X330035Y144533D01*
X329821Y143460D01*
X329295Y142934D01*
X328319Y142740D01*
X328174Y142751D01*
X327049Y143464D01*
Y170096D01*
X328097Y170761D01*
X329377Y170480D01*
X329948Y169462D01*
X330035Y169027D01*
X330643Y168118D01*
X331552Y167510D01*
X332625Y167297D01*
X333151Y166770D01*
X333365Y165697D01*
X333973Y164788D01*
X334882Y164180D01*
X335299Y164097D01*
X335345Y164088D01*
Y162793D01*
X335299Y162784D01*
X334882Y162701D01*
X333973Y162093D01*
X333365Y161183D01*
X333151Y160110D01*
X333365Y159037D01*
X333973Y158128D01*
X334882Y157520D01*
X335955Y157306D01*
X337028Y157520D01*
X337938Y158128D01*
X338546Y159037D01*
X338759Y160110D01*
X338546Y161183D01*
X337938Y162093D01*
X337028Y162701D01*
X336612Y162784D01*
X336565Y162793D01*
Y164088D01*
X336612Y164097D01*
X337028Y164180D01*
X337938Y164788D01*
X338546Y165697D01*
X338759Y166770D01*
X338546Y167843D01*
X337938Y168753D01*
X337028Y169361D01*
X335955Y169574D01*
X335429Y170100D01*
X335215Y171173D01*
X334608Y172083D01*
X333698Y172691D01*
X332625Y172904D01*
X331972Y174069D01*
X331885Y174503D01*
X331278Y175413D01*
X330368Y176021D01*
X329905Y176113D01*
Y177408D01*
X330368Y177500D01*
X331278Y178108D01*
X331885Y179017D01*
X332099Y180090D01*
X332625Y180617D01*
X333698Y180830D01*
X334608Y181438D01*
X335215Y182347D01*
X335298Y182764D01*
X335308Y182811D01*
X336603D01*
X336612Y182764D01*
X336695Y182348D01*
X337303Y181438D01*
X338212Y180830D01*
X338629Y180747D01*
X338675Y180738D01*
Y179443D01*
X338629Y179434D01*
X338212Y179351D01*
X337303Y178743D01*
X336695Y177833D01*
X336481Y176760D01*
X336695Y175687D01*
X337303Y174778D01*
X338212Y174170D01*
X339285Y173957D01*
X339811Y173430D01*
X340025Y172357D01*
X340633Y171448D01*
X341542Y170840D01*
X342615Y170627D01*
X343688Y170840D01*
X344598Y171448D01*
X345206Y172357D01*
X345419Y173430D01*
X345206Y174503D01*
X344598Y175413D01*
X343688Y176021D01*
X342615Y176234D01*
X342089Y176760D01*
X341876Y177833D01*
X341268Y178743D01*
X340358Y179351D01*
X339942Y179434D01*
X339895Y179443D01*
Y180738D01*
X339942Y180747D01*
X340358Y180830D01*
X341268Y181438D01*
X341876Y182348D01*
X342089Y183421D01*
X341876Y184494D01*
X341268Y185403D01*
X340358Y186011D01*
X339285Y186224D01*
X338212Y186011D01*
X337303Y185403D01*
X336695Y184494D01*
X336612Y184077D01*
X336603Y184030D01*
X335308D01*
X335298Y184077D01*
X335215Y184493D01*
X334608Y185403D01*
X333698Y186011D01*
X333282Y186094D01*
X333235Y186103D01*
Y187398D01*
X333282Y187407D01*
X333698Y187490D01*
X334608Y188098D01*
X335215Y189007D01*
X335429Y190081D01*
X335215Y191154D01*
X334608Y192063D01*
X333698Y192671D01*
X332625Y192884D01*
X331552Y192671D01*
X330643Y192063D01*
X330035Y191154D01*
X329821Y190081D01*
X330035Y189007D01*
X330643Y188098D01*
X331552Y187490D01*
X331969Y187407D01*
X332015Y187398D01*
Y186103D01*
X331969Y186094D01*
X331552Y186011D01*
X330750Y185475D01*
X330626Y185427D01*
X330518Y185323D01*
X330438Y185255D01*
X330362Y185201D01*
X330292Y185157D01*
X330225Y185123D01*
X330163Y185097D01*
X330102Y185078D01*
X330042Y185065D01*
X329980Y185057D01*
X329868Y185052D01*
X329758Y185001D01*
X328504D01*
X328302Y185302D01*
X327476Y185855D01*
X326591Y186031D01*
X326437Y186090D01*
X325439Y186751D01*
X325225Y187824D01*
X324618Y188733D01*
X323708Y189341D01*
X322635Y189555D01*
X321562Y189341D01*
X320652Y188733D01*
X320045Y187824D01*
X319831Y186751D01*
X320045Y185678D01*
X320652Y184768D01*
X321562Y184160D01*
X321766Y184120D01*
X321811Y184080D01*
X322307Y182717D01*
X322145Y182475D01*
X321951Y181500D01*
Y117060D01*
X291940Y87049D01*
X281642D01*
X281116Y88319D01*
X293778Y100982D01*
X294552Y102139D01*
X294823Y103505D01*
Y112277D01*
X296878Y114331D01*
X306143D01*
X306484Y114103D01*
X307850Y113831D01*
X313130D01*
X314496Y114103D01*
X315654Y114877D01*
X319273Y118496D01*
X320047Y119654D01*
X320319Y121020D01*
Y179500D01*
X320047Y180866D01*
X319273Y182023D01*
X309819Y191478D01*
Y202250D01*
X309547Y203616D01*
X308773Y204773D01*
X292569Y220978D01*
Y223250D01*
X292297Y224616D01*
X291523Y225773D01*
X290943Y226161D01*
X291328Y227431D01*
X307500D01*
X308866Y227703D01*
X310023Y228477D01*
X311728Y230181D01*
X339750D01*
X341116Y230453D01*
X342273Y231227D01*
X361023Y249977D01*
X361797Y251134D01*
X362069Y252500D01*
X361797Y253866D01*
X361023Y255023D01*
X359866Y255797D01*
X358500Y256069D01*
X357134Y255797D01*
X355977Y255023D01*
X338272Y237319D01*
X310250D01*
X308884Y237047D01*
X307727Y236273D01*
X306022Y234569D01*
X266000D01*
X264634Y234297D01*
X263477Y233523D01*
X251227Y221273D01*
X250453Y220116D01*
X250181Y218750D01*
Y208125D01*
X249225Y207222D01*
X248904Y207250D01*
X247946Y207539D01*
X247483Y208233D01*
X246573Y208840D01*
X245500Y209054D01*
X244427Y208840D01*
X243517Y208233D01*
X242910Y207323D01*
X242696Y206250D01*
X242910Y205177D01*
X243517Y204267D01*
X244159Y203839D01*
X243898Y202569D01*
X237250D01*
X235884Y202297D01*
X234727Y201523D01*
X222727Y189523D01*
X221953Y188366D01*
X221681Y187000D01*
Y182591D01*
X220411Y182466D01*
X220340Y182823D01*
X219733Y183733D01*
X218823Y184340D01*
X217750Y184554D01*
X216677Y184340D01*
X215767Y183733D01*
X215160Y182823D01*
X214946Y181750D01*
X215160Y180677D01*
X215651Y179942D01*
X215754Y179702D01*
X215498Y178420D01*
X215217Y178233D01*
X214610Y177323D01*
X214396Y176250D01*
X214610Y175177D01*
X215217Y174267D01*
X216127Y173660D01*
X217200Y173446D01*
X218273Y173660D01*
X219183Y174267D01*
X219790Y175177D01*
X220004Y176250D01*
X219790Y177323D01*
X219299Y178058D01*
X219196Y178298D01*
X219452Y179580D01*
X219733Y179767D01*
X220340Y180677D01*
X220411Y181034D01*
X221681Y180909D01*
Y169750D01*
X221953Y168384D01*
X222727Y167227D01*
X227941Y162012D01*
X227461Y160697D01*
X226927Y160590D01*
X226017Y159983D01*
X225410Y159073D01*
X225196Y158000D01*
X225410Y156927D01*
X226017Y156017D01*
X226927Y155410D01*
X228000Y155196D01*
X229073Y155410D01*
X229593Y155757D01*
X230808Y155246D01*
X230863Y155194D01*
Y151160D01*
X229227Y149523D01*
X228453Y148366D01*
X228181Y147000D01*
Y134500D01*
X228453Y133134D01*
X229227Y131977D01*
X233181Y128022D01*
Y124377D01*
X232291Y123745D01*
X231911Y123623D01*
X231000Y123804D01*
X229927Y123590D01*
X229017Y122983D01*
X228410Y122073D01*
X228196Y121000D01*
X228410Y119927D01*
X229017Y119017D01*
X229927Y118410D01*
X231000Y118196D01*
X231911Y118378D01*
X232035Y118337D01*
X232608Y117155D01*
X231321Y115868D01*
X230539Y115888D01*
X228683Y116051D01*
X227914Y116168D01*
X227233Y116310D01*
X226653Y116472D01*
X226177Y116648D01*
X225834Y116818D01*
X202576Y140076D01*
X200591Y141402D01*
X198250Y141868D01*
X191750D01*
X189409Y141402D01*
X187424Y140076D01*
X186098Y138091D01*
X185632Y135750D01*
X186098Y133409D01*
X187424Y131424D01*
X189409Y130098D01*
X191750Y129633D01*
X195716D01*
X215632Y109716D01*
Y68034D01*
X212382Y64783D01*
X211112Y65309D01*
Y69100D01*
X210867Y70329D01*
X210171Y71371D01*
X200771Y80771D01*
X199729Y81467D01*
X198500Y81712D01*
X195580D01*
X170771Y106521D01*
X169729Y107217D01*
X168500Y107462D01*
X156330D01*
X145621Y118171D01*
Y120043D01*
X146891Y120819D01*
X147509Y120696D01*
X148582Y120910D01*
X149492Y121517D01*
X150100Y122427D01*
X150313Y123500D01*
X150100Y124573D01*
X149492Y125483D01*
X148582Y126090D01*
X147509Y126304D01*
X146791Y126161D01*
X145377Y126759D01*
X144681Y127801D01*
X141810Y130671D01*
X140768Y131367D01*
X139539Y131612D01*
X132409D01*
X131180Y131367D01*
X130139Y130671D01*
X127086Y127619D01*
X126376Y127685D01*
X125313Y128500D01*
X125100Y129573D01*
X124492Y130483D01*
X123582Y131090D01*
X122509Y131304D01*
X121437Y131090D01*
X120527Y130483D01*
X119919Y129573D01*
X119706Y128500D01*
X119789Y128082D01*
X119650Y127829D01*
X118366Y127297D01*
X117000Y127569D01*
X110335D01*
X108969Y127297D01*
X107811Y126523D01*
X102477Y121188D01*
X101703Y120031D01*
X101431Y118665D01*
Y84288D01*
X101703Y82922D01*
X102477Y81764D01*
X104931Y79310D01*
Y74974D01*
X104050Y74613D01*
X103661Y74530D01*
X102823Y75090D01*
X101750Y75304D01*
X100677Y75090D01*
X99767Y74483D01*
X99160Y73573D01*
X98946Y72500D01*
X99160Y71427D01*
X99767Y70517D01*
X100677Y69910D01*
X101211Y69804D01*
X101692Y68488D01*
X100522Y67319D01*
X97500D01*
X96134Y67047D01*
X94977Y66273D01*
X87576Y58873D01*
X86353Y59079D01*
X86173Y59266D01*
X86196Y59400D01*
X86648Y59852D01*
X87124Y61000D01*
Y77000D01*
X86648Y78148D01*
X81365Y83431D01*
X81891Y84701D01*
X93000D01*
X93975Y84895D01*
X94802Y85448D01*
X96802Y87448D01*
X97355Y88274D01*
X97549Y89250D01*
Y99000D01*
X97355Y99975D01*
X96923Y100622D01*
X96865Y100785D01*
X96695Y100973D01*
X96613Y101092D01*
X96571Y101175D01*
X96556Y101223D01*
X96554Y101250D01*
X96556Y101277D01*
X96571Y101325D01*
X96613Y101408D01*
X96695Y101527D01*
X96865Y101715D01*
X96923Y101878D01*
X97355Y102524D01*
X97549Y103500D01*
Y129444D01*
X101302Y133198D01*
X101855Y134025D01*
X102049Y135000D01*
Y164615D01*
X102090Y164677D01*
X102304Y165750D01*
X102090Y166823D01*
X101483Y167733D01*
X100573Y168340D01*
X99500Y168554D01*
X98427Y168340D01*
X97517Y167733D01*
X96910Y166823D01*
X96696Y165750D01*
X96910Y164677D01*
X96951Y164615D01*
Y136056D01*
X93198Y132302D01*
X92645Y131475D01*
X92451Y130500D01*
Y104735D01*
X92199Y104572D01*
X91835Y104380D01*
X91449Y104216D01*
X91039Y104081D01*
X90603Y103974D01*
X90140Y103896D01*
X89906Y103874D01*
X89000Y104054D01*
X87927Y103840D01*
X87017Y103233D01*
X86410Y102323D01*
X86196Y101250D01*
X86410Y100177D01*
X87017Y99267D01*
X87927Y98659D01*
X89000Y98446D01*
X89906Y98626D01*
X90140Y98604D01*
X90603Y98526D01*
X91039Y98419D01*
X91449Y98284D01*
X91835Y98120D01*
X92199Y97928D01*
X92451Y97765D01*
Y96127D01*
X92270Y96030D01*
X91181Y95584D01*
X90000Y95819D01*
X86750D01*
X86250Y95719D01*
X85750Y95819D01*
X84978D01*
X82819Y97978D01*
Y101272D01*
X84023Y102477D01*
X84797Y103634D01*
X85069Y105000D01*
Y117000D01*
X84797Y118366D01*
X84023Y119523D01*
X77319Y126228D01*
Y137524D01*
X77634Y137759D01*
X78589Y138086D01*
X79227Y137660D01*
X80300Y137446D01*
X81373Y137660D01*
X82283Y138267D01*
X82891Y139177D01*
X83104Y140250D01*
X82891Y141323D01*
X82283Y142233D01*
X81373Y142840D01*
X80589Y142996D01*
X80169Y143824D01*
X80089Y144292D01*
X82728Y146931D01*
X88250D01*
X89616Y147203D01*
X90773Y147977D01*
X91547Y149134D01*
X91819Y150500D01*
X91547Y151866D01*
X90773Y153023D01*
X91107Y154328D01*
X91341Y154677D01*
X91554Y155750D01*
X91341Y156823D01*
X90733Y157733D01*
X89823Y158340D01*
X88750Y158554D01*
X87677Y158340D01*
X86767Y157733D01*
X86160Y156823D01*
X85946Y155750D01*
X86028Y155338D01*
X85155Y154068D01*
X81250D01*
X79884Y153797D01*
X78727Y153023D01*
X71227Y145523D01*
X70453Y144366D01*
X70181Y143000D01*
Y124750D01*
X70453Y123384D01*
X70831Y122819D01*
X70152Y121549D01*
X56250D01*
X55275Y121355D01*
X54448Y120802D01*
X53463Y119818D01*
X52293Y120443D01*
X52304Y120500D01*
X52090Y121573D01*
X51552Y122379D01*
X51504Y122501D01*
X51388Y122621D01*
X51309Y122714D01*
X51244Y122800D01*
X51193Y122879D01*
X51154Y122951D01*
X51126Y123015D01*
X51124Y123022D01*
Y124327D01*
X68398Y141602D01*
X68874Y142750D01*
Y152327D01*
X77398Y160852D01*
X77874Y162000D01*
Y221828D01*
X82398Y226352D01*
X82874Y227500D01*
Y232118D01*
X84144Y233017D01*
X84500Y232946D01*
X85573Y233160D01*
X86483Y233767D01*
X87090Y234677D01*
X87304Y235750D01*
X87090Y236823D01*
X86483Y237733D01*
X85573Y238340D01*
X85547Y238346D01*
X84498Y238570D01*
X84374Y239775D01*
Y241671D01*
X85547Y242157D01*
X95295Y232409D01*
X95250Y231903D01*
X94961Y230946D01*
X94267Y230483D01*
X93660Y229573D01*
X93446Y228500D01*
X93660Y227427D01*
X93809Y227204D01*
X94167Y226250D01*
X93809Y225296D01*
X93660Y225073D01*
X93446Y224000D01*
X93660Y222927D01*
X94102Y222265D01*
X94102Y222251D01*
X94101Y222242D01*
X94102Y222239D01*
X94102Y222226D01*
X94116Y222191D01*
X94119Y222181D01*
X94129Y222135D01*
X94137Y222080D01*
X94166Y221666D01*
X94168Y221501D01*
X94211Y221401D01*
Y217250D01*
X94366Y216470D01*
X94808Y215808D01*
X105880Y204736D01*
X105946Y204633D01*
X106071Y204545D01*
X108308Y202308D01*
X108970Y201866D01*
X109750Y201711D01*
X110530Y201866D01*
X111192Y202308D01*
X111634Y202970D01*
X111687Y203237D01*
X111733Y203267D01*
X112340Y204177D01*
X112554Y205250D01*
X112340Y206323D01*
X111733Y207233D01*
X110823Y207840D01*
X109750Y208054D01*
X108677Y207840D01*
X108347Y208074D01*
X108299Y208085D01*
X98289Y218095D01*
Y221391D01*
X98332Y221488D01*
X98340Y221829D01*
X98361Y222070D01*
X98371Y222135D01*
X98381Y222181D01*
X98384Y222191D01*
X98398Y222226D01*
X98398Y222239D01*
X98399Y222242D01*
X98398Y222251D01*
X98398Y222265D01*
X98840Y222927D01*
X99054Y224000D01*
X98840Y225073D01*
X98691Y225296D01*
X98404Y226062D01*
X98965Y227292D01*
X99654Y227500D01*
X100159Y227545D01*
X108626Y219077D01*
Y216250D01*
X109102Y215102D01*
X122102Y202102D01*
X123250Y201626D01*
X145096D01*
X146244Y202102D01*
X147307Y203165D01*
X147320Y203162D01*
X147738Y201784D01*
X141522Y195569D01*
X106750D01*
X105384Y195297D01*
X104227Y194523D01*
X103453Y193366D01*
X103181Y192000D01*
X103453Y190634D01*
X104227Y189477D01*
X105384Y188703D01*
X106750Y188431D01*
X143000D01*
X144366Y188703D01*
X145523Y189477D01*
X153728Y197681D01*
X157272D01*
X159681Y195272D01*
Y193102D01*
X158411Y192841D01*
X157983Y193483D01*
X157073Y194090D01*
X156000Y194304D01*
X154927Y194090D01*
X154017Y193483D01*
X153410Y192573D01*
X153390Y192474D01*
X153119Y191503D01*
X152010Y191552D01*
X152000Y191554D01*
X150927Y191340D01*
X150017Y190733D01*
X149410Y189823D01*
X149196Y188750D01*
X149410Y187677D01*
X150017Y186767D01*
X150927Y186160D01*
X151877Y185970D01*
X151998Y185918D01*
X152165Y185915D01*
X152287Y185905D01*
X152393Y185890D01*
X152486Y185870D01*
X152563Y185847D01*
X152629Y185822D01*
X152635Y185819D01*
X170886Y167568D01*
Y161022D01*
X170884Y161015D01*
X170855Y160951D01*
X170816Y160879D01*
X170766Y160800D01*
X170701Y160714D01*
X170621Y160621D01*
X170506Y160502D01*
X170457Y160379D01*
X169919Y159573D01*
X169706Y158500D01*
X169919Y157427D01*
X170527Y156517D01*
X171437Y155910D01*
X172509Y155696D01*
X173582Y155910D01*
X174492Y156517D01*
X175100Y157427D01*
X175313Y158500D01*
X175100Y159573D01*
X174562Y160379D01*
X174513Y160502D01*
X174398Y160621D01*
X174318Y160714D01*
X174253Y160800D01*
X174202Y160879D01*
X174164Y160951D01*
X174135Y161015D01*
X174133Y161022D01*
Y168241D01*
X173658Y169389D01*
X155557Y187489D01*
X155845Y188276D01*
X156122Y188720D01*
X157073Y188910D01*
X157983Y189517D01*
X158411Y190159D01*
X159681Y189898D01*
Y188500D01*
X159953Y187134D01*
X160727Y185977D01*
X165477Y181227D01*
X166634Y180453D01*
X168000Y180181D01*
X181000D01*
X182366Y180453D01*
X183523Y181227D01*
X201273Y198977D01*
X202047Y200134D01*
X202319Y201500D01*
Y230615D01*
X207387Y235683D01*
X208557Y235057D01*
X208446Y234500D01*
X208660Y233427D01*
X209267Y232517D01*
X210177Y231910D01*
X210898Y231766D01*
X210696Y230750D01*
X210910Y229677D01*
X211517Y228767D01*
X212427Y228160D01*
X213500Y227946D01*
X214573Y228160D01*
X215483Y228767D01*
X216090Y229677D01*
X216304Y230750D01*
X216102Y231766D01*
X216823Y231910D01*
X217733Y232517D01*
X218340Y233427D01*
X218351Y233483D01*
X219698Y233745D01*
X220017Y233267D01*
X220927Y232660D01*
X222000Y232446D01*
X223073Y232660D01*
X223650Y233045D01*
X224436Y232848D01*
X224789Y232172D01*
X224949Y231507D01*
X224660Y231073D01*
X224446Y230000D01*
X224660Y228927D01*
X224927Y227890D01*
X224017Y227283D01*
X223410Y226373D01*
X223265Y225649D01*
X222958Y225178D01*
X222020Y224700D01*
X221500Y224804D01*
X220427Y224590D01*
X219517Y223983D01*
X218910Y223073D01*
X218696Y222000D01*
X218910Y220927D01*
X219517Y220017D01*
X220427Y219410D01*
X221500Y219196D01*
X222573Y219410D01*
X223483Y220017D01*
X224090Y220927D01*
X224234Y221651D01*
X224542Y222122D01*
X225480Y222600D01*
X226000Y222496D01*
X226192Y222534D01*
X226818Y221364D01*
X223352Y217898D01*
X222876Y216750D01*
Y209772D01*
X222874Y209766D01*
X222846Y209701D01*
X222807Y209629D01*
X222756Y209550D01*
X222691Y209464D01*
X222612Y209371D01*
X222496Y209252D01*
X222448Y209129D01*
X221909Y208323D01*
X221696Y207250D01*
X221909Y206177D01*
X222517Y205268D01*
X223427Y204660D01*
X224500Y204446D01*
X225573Y204660D01*
X226483Y205268D01*
X227090Y206177D01*
X227304Y207250D01*
X227090Y208323D01*
X226552Y209129D01*
X226504Y209252D01*
X226388Y209371D01*
X226309Y209464D01*
X226244Y209550D01*
X226193Y209629D01*
X226154Y209701D01*
X226126Y209765D01*
X226123Y209772D01*
Y216077D01*
X232648Y222602D01*
X233124Y223750D01*
Y229228D01*
X233126Y229235D01*
X233154Y229299D01*
X233193Y229371D01*
X233244Y229450D01*
X233309Y229536D01*
X233388Y229629D01*
X233504Y229748D01*
X233552Y229871D01*
X234090Y230677D01*
X234304Y231750D01*
X235433Y232582D01*
X235823Y232660D01*
X236733Y233267D01*
X237340Y234177D01*
X237554Y235250D01*
X237340Y236323D01*
X236733Y237233D01*
X235823Y237840D01*
X234750Y238054D01*
X233677Y237840D01*
X232767Y237233D01*
X232160Y236323D01*
X231946Y235250D01*
X230817Y234418D01*
X230678Y234390D01*
X229841Y234950D01*
X229554Y235250D01*
X229340Y236323D01*
X228733Y237233D01*
X227823Y237840D01*
X226750Y238054D01*
X225677Y237840D01*
X224767Y237233D01*
X223983D01*
X223073Y237840D01*
X222000Y238054D01*
X220927Y237840D01*
X220017Y237233D01*
X219410Y236323D01*
X219398Y236267D01*
X218051Y236005D01*
X217733Y236483D01*
X216823Y237090D01*
X215750Y237304D01*
X214677Y237090D01*
X213767Y236483D01*
X213767Y236483D01*
X213233D01*
X212323Y237090D01*
X211250Y237304D01*
X210693Y237193D01*
X210067Y238363D01*
X211385Y239681D01*
X273272D01*
X275977Y236977D01*
X277134Y236203D01*
X278500Y235931D01*
X303000D01*
X304366Y236203D01*
X305523Y236977D01*
X306297Y238134D01*
X306569Y239500D01*
X306297Y240866D01*
X305523Y242023D01*
X304366Y242797D01*
X303000Y243069D01*
X301928D01*
X301172Y244339D01*
X301304Y245000D01*
X301090Y246073D01*
X300483Y246983D01*
X299573Y247591D01*
X298500Y247804D01*
X297427Y247591D01*
X296858Y247210D01*
X296000Y247068D01*
X295142Y247210D01*
X294573Y247591D01*
X293500Y247804D01*
X292427Y247591D01*
X291518Y246983D01*
X290910Y246073D01*
X290696Y245000D01*
X290828Y244339D01*
X290072Y243069D01*
X279978D01*
X277273Y245773D01*
X276116Y246547D01*
X274750Y246819D01*
X265091D01*
X264966Y248089D01*
X265323Y248160D01*
X266233Y248767D01*
X266840Y249677D01*
X267054Y250750D01*
X266840Y251823D01*
X266233Y252733D01*
X265323Y253340D01*
X264250Y253554D01*
X263177Y253340D01*
X262267Y252733D01*
X261660Y251823D01*
X261446Y250750D01*
X261660Y249677D01*
X262267Y248767D01*
X263177Y248160D01*
X263534Y248089D01*
X263409Y246819D01*
X211774D01*
X211288Y247992D01*
X211398Y248102D01*
X211874Y249250D01*
Y250478D01*
X211876Y250485D01*
X211904Y250549D01*
X211943Y250621D01*
X211994Y250700D01*
X212059Y250786D01*
X212138Y250879D01*
X212254Y250998D01*
X212302Y251121D01*
X212840Y251927D01*
X213054Y253000D01*
X212840Y254073D01*
X212233Y254983D01*
X211323Y255590D01*
X210250Y255804D01*
X209177Y255590D01*
X208267Y254983D01*
X207660Y254073D01*
X207446Y253000D01*
X207660Y251927D01*
X208198Y251121D01*
X208246Y250998D01*
X208362Y250879D01*
X208441Y250786D01*
X208506Y250700D01*
X208557Y250621D01*
X208596Y250549D01*
X208624Y250485D01*
X208626Y250478D01*
Y249923D01*
X191102Y232398D01*
X190626Y231250D01*
Y208923D01*
X183577Y201874D01*
X174673D01*
X169648Y206898D01*
X168500Y207374D01*
X164965D01*
X164183Y208644D01*
X164304Y209250D01*
X164090Y210323D01*
X163483Y211233D01*
X162573Y211840D01*
X162590Y211926D01*
X162591Y211927D01*
X162804Y213000D01*
X162591Y214073D01*
X161983Y214982D01*
X161073Y215590D01*
X160000Y215804D01*
X158927Y215590D01*
X158018Y214982D01*
X157410Y214073D01*
X157255Y213298D01*
X157194Y212997D01*
X156124Y211880D01*
X155927Y211840D01*
X155017Y211233D01*
X154410Y210323D01*
X154196Y209250D01*
X154317Y208644D01*
X153535Y207374D01*
X149639D01*
X148572Y208518D01*
X148358Y209591D01*
X147750Y210500D01*
X146841Y211108D01*
X145768Y211322D01*
X144695Y211108D01*
X143889Y210570D01*
X143766Y210521D01*
X143647Y210406D01*
X143554Y210326D01*
X143468Y210262D01*
X143389Y210211D01*
X143317Y210172D01*
X143252Y210143D01*
X143246Y210141D01*
X140905D01*
X128190Y222857D01*
X128716Y224126D01*
X144228D01*
X144235Y224124D01*
X144299Y224096D01*
X144371Y224057D01*
X144450Y224006D01*
X144536Y223941D01*
X144629Y223862D01*
X144748Y223746D01*
X144871Y223698D01*
X145677Y223160D01*
X146750Y222946D01*
X147823Y223160D01*
X148733Y223767D01*
X149340Y224677D01*
X149554Y225750D01*
X149340Y226823D01*
X148733Y227733D01*
X147823Y228340D01*
X146750Y228554D01*
X145677Y228340D01*
X144871Y227802D01*
X144748Y227754D01*
X144629Y227638D01*
X144536Y227559D01*
X144450Y227494D01*
X144371Y227443D01*
X144299Y227404D01*
X144235Y227376D01*
X144228Y227374D01*
X120422D01*
X115134Y232662D01*
X115927Y233660D01*
X117000Y233446D01*
X118073Y233660D01*
X118983Y234267D01*
X119590Y235177D01*
X119804Y236250D01*
X119590Y237323D01*
X118983Y238233D01*
X118073Y238840D01*
X117000Y239054D01*
X115927Y238840D01*
X115017Y238233D01*
X114410Y237323D01*
X114196Y236250D01*
X114410Y235177D01*
X113412Y234384D01*
X113148Y234648D01*
X112000Y235124D01*
X104576D01*
X95168Y244532D01*
X95430Y246066D01*
X95733Y246267D01*
X96065Y246765D01*
X97522Y247103D01*
X101524Y243102D01*
X102672Y242626D01*
X115750D01*
X116898Y243102D01*
X134923Y261126D01*
X154827D01*
X172126Y243827D01*
Y211000D01*
X172602Y209852D01*
X175319Y207135D01*
X175322Y207129D01*
X175347Y207063D01*
X175371Y206985D01*
X175390Y206893D01*
X175406Y206786D01*
X175415Y206665D01*
X175418Y206498D01*
X175471Y206377D01*
X175660Y205427D01*
X176267Y204517D01*
X177177Y203910D01*
X178250Y203696D01*
X179323Y203910D01*
X180233Y204517D01*
X180840Y205427D01*
X181054Y206500D01*
X180840Y207573D01*
X180233Y208483D01*
X179323Y209090D01*
X178373Y209279D01*
X178252Y209332D01*
X178085Y209335D01*
X177964Y209344D01*
X177857Y209360D01*
X177765Y209380D01*
X177687Y209403D01*
X177621Y209428D01*
X177615Y209431D01*
X175374Y211673D01*
Y243986D01*
X175430Y244025D01*
X180924D01*
X181791Y243111D01*
X181750Y242654D01*
X181462Y241696D01*
X180767Y241233D01*
X180160Y240323D01*
X179946Y239250D01*
X180160Y238177D01*
X180767Y237267D01*
X181677Y236660D01*
X182750Y236446D01*
X183823Y236660D01*
X184733Y237267D01*
X186017Y237267D01*
X186927Y236660D01*
X188000Y236446D01*
X189073Y236660D01*
X189983Y237267D01*
X190590Y238177D01*
X191677Y237910D01*
X192750Y237696D01*
X193823Y237910D01*
X194733Y238517D01*
X195340Y239427D01*
X195554Y240500D01*
X195340Y241573D01*
X194733Y242483D01*
X193823Y243090D01*
X192750Y243304D01*
X191677Y243090D01*
X190767Y242483D01*
X190160Y241573D01*
X189073Y241840D01*
X188123Y242029D01*
X188002Y242082D01*
X187835Y242085D01*
X187713Y242094D01*
X187607Y242110D01*
X187514Y242129D01*
X187437Y242153D01*
X187371Y242178D01*
X187365Y242181D01*
X182750Y246796D01*
X181602Y247272D01*
X176103D01*
X159171Y264203D01*
X159657Y265376D01*
X164077D01*
X175602Y253852D01*
X176750Y253376D01*
X193750D01*
X194898Y253852D01*
X200173Y259126D01*
X240203D01*
X240276Y259047D01*
X240766Y257856D01*
X240410Y257323D01*
X240196Y256250D01*
X240410Y255177D01*
X241017Y254267D01*
X241927Y253660D01*
X243000Y253446D01*
X244073Y253660D01*
X244719Y254091D01*
X245392Y253904D01*
X245633Y253791D01*
X245990Y253529D01*
X246160Y252677D01*
X246767Y251767D01*
X247677Y251159D01*
X248750Y250946D01*
X249823Y251159D01*
X250733Y251767D01*
X251340Y252677D01*
X251554Y253750D01*
X251340Y254823D01*
X250733Y255733D01*
X249823Y256340D01*
X248750Y256554D01*
X247677Y256340D01*
X247031Y255909D01*
X246358Y256096D01*
X246117Y256209D01*
X245760Y256471D01*
X245590Y257323D01*
X245234Y257856D01*
X245724Y259047D01*
X245797Y259126D01*
X256954D01*
X257026Y259047D01*
X257516Y257856D01*
X257160Y257323D01*
X256946Y256250D01*
X257160Y255177D01*
X257768Y254267D01*
X258677Y253660D01*
X259750Y253446D01*
X260823Y253660D01*
X261733Y254267D01*
X262341Y255177D01*
X262554Y256250D01*
X262341Y257323D01*
X262042Y257770D01*
X263029Y258579D01*
X265256Y256352D01*
X266404Y255876D01*
X283079D01*
X283383Y255612D01*
X283446Y254628D01*
X283052Y253966D01*
X282142Y253358D01*
X281535Y252448D01*
X281321Y251375D01*
X281535Y250302D01*
X282142Y249393D01*
X283052Y248785D01*
X284125Y248571D01*
X285198Y248785D01*
X286108Y249393D01*
X286715Y250302D01*
X286929Y251375D01*
X288020Y252399D01*
X288073Y252410D01*
X288983Y253017D01*
X289590Y253927D01*
X289804Y255000D01*
X289590Y256073D01*
X288983Y256983D01*
X288073Y257590D01*
X287123Y257779D01*
X287002Y257832D01*
X286835Y257835D01*
X286713Y257844D01*
X286607Y257860D01*
X286514Y257880D01*
X286437Y257903D01*
X286371Y257928D01*
X286365Y257931D01*
X285648Y258648D01*
X284500Y259124D01*
X267076D01*
X264302Y261898D01*
X263154Y262374D01*
X199500D01*
X198352Y261898D01*
X193078Y256624D01*
X177423D01*
X165898Y268148D01*
X164750Y268624D01*
X121417D01*
X120931Y269797D01*
X126345Y275211D01*
X131000D01*
X131780Y275366D01*
X132442Y275808D01*
X146720Y290086D01*
X147248D01*
X147349Y290043D01*
X147527Y290041D01*
X147818Y290028D01*
X148025Y290006D01*
X148069Y289998D01*
X148089Y289993D01*
X148128Y289981D01*
X148190Y289985D01*
X148677Y289660D01*
X149750Y289446D01*
X150823Y289660D01*
X151733Y290267D01*
X152340Y291177D01*
X152554Y292250D01*
X152340Y293323D01*
X152095Y293691D01*
X152755Y294961D01*
X183974D01*
X185020Y293395D01*
X186674Y292290D01*
X188625Y291902D01*
X190576Y292290D01*
X192230Y293395D01*
X193276Y294961D01*
X195724D01*
X196770Y293395D01*
X198424Y292290D01*
X200375Y291902D01*
X202326Y292290D01*
X203980Y293395D01*
X205026Y294961D01*
X280070D01*
X280441Y293943D01*
X280490Y293691D01*
X279910Y292823D01*
X279696Y291750D01*
X279910Y290677D01*
X280518Y289767D01*
X281427Y289160D01*
X282500Y288946D01*
X283573Y289160D01*
X284483Y289767D01*
X285091Y290677D01*
X285304Y291750D01*
X285091Y292823D01*
X284511Y293691D01*
X284559Y293943D01*
X284930Y294961D01*
X465961D01*
Y158692D01*
D02*
G37*
G36*
X144619Y293691D02*
X144433Y293567D01*
X144433Y293567D01*
X138761Y287895D01*
X138737Y287915D01*
X138737Y287915D01*
X137775Y288705D01*
X137879Y288860D01*
X138090Y289177D01*
X138304Y290250D01*
X138090Y291323D01*
X137483Y292233D01*
X136573Y292840D01*
X135500Y293054D01*
X134427Y292840D01*
X133517Y292233D01*
X132910Y291323D01*
X132696Y290250D01*
X132910Y289177D01*
X133517Y288267D01*
X134427Y287660D01*
X135500Y287446D01*
X136573Y287660D01*
X136890Y287871D01*
X137045Y287975D01*
X137855Y286989D01*
X131769Y280903D01*
X131577Y280919D01*
X130474Y281404D01*
X130340Y282073D01*
X129733Y282983D01*
X128823Y283590D01*
X127750Y283804D01*
X126677Y283590D01*
X125767Y282983D01*
X125160Y282073D01*
X124946Y281000D01*
X125047Y280494D01*
X124801Y279470D01*
X124334Y278876D01*
X124058Y278692D01*
X103150Y257784D01*
X102177Y257590D01*
X101267Y256983D01*
X101183Y256856D01*
X99913Y257241D01*
Y263307D01*
X99437Y264455D01*
X89874Y274019D01*
Y279750D01*
X89398Y280898D01*
X78148Y292148D01*
X77000Y292624D01*
X51672D01*
X50524Y292148D01*
X34249Y275874D01*
X21765D01*
X20617Y275398D01*
X8141Y262922D01*
X7666Y261775D01*
Y255638D01*
X6870Y255057D01*
X6396Y254876D01*
X5500Y255054D01*
X4427Y254840D01*
X3517Y254233D01*
X2910Y253323D01*
X2804Y252795D01*
X1642Y252130D01*
X1472Y252111D01*
X500Y252304D01*
X-573Y252090D01*
X-1483Y251483D01*
X-2090Y250573D01*
X-2304Y249500D01*
X-2090Y248427D01*
X-1483Y247517D01*
X-573Y246910D01*
X500Y246696D01*
X1108Y246817D01*
X1188Y246737D01*
X1878Y246451D01*
X2399Y246076D01*
X2767Y244992D01*
X2696Y244635D01*
X2910Y243562D01*
X3013Y243408D01*
X2026Y242598D01*
X1226Y243398D01*
X78Y243874D01*
X-11675D01*
X-12823Y243398D01*
X-16398Y239823D01*
X-16874Y238675D01*
Y209000D01*
X-16398Y207852D01*
X-12398Y203852D01*
X-11250Y203376D01*
X11078D01*
X13626Y200828D01*
Y173251D01*
X10852Y170476D01*
X10376Y169328D01*
Y162423D01*
X2352Y154398D01*
X1876Y153250D01*
Y131550D01*
X2352Y130402D01*
X5619Y127135D01*
X5622Y127129D01*
X5647Y127064D01*
X5670Y126986D01*
X5690Y126894D01*
X5706Y126787D01*
X5715Y126665D01*
X5718Y126499D01*
X5771Y126377D01*
X5960Y125427D01*
X6567Y124518D01*
Y123041D01*
X5960Y122131D01*
X5746Y121058D01*
X5960Y119985D01*
X6567Y119075D01*
X7477Y118468D01*
X8550Y118254D01*
X9623Y118468D01*
X9856Y118624D01*
X11126Y117945D01*
Y97172D01*
X10005Y96051D01*
X8834Y96676D01*
X8854Y96776D01*
X8641Y97849D01*
X8033Y98759D01*
X7123Y99367D01*
X6050Y99580D01*
X4977Y99367D01*
X4067Y98759D01*
X3460Y97849D01*
X3246Y96776D01*
X3460Y95703D01*
X4067Y94794D01*
X4977Y94186D01*
X6050Y93972D01*
X6150Y93992D01*
X6776Y92822D01*
X4602Y90648D01*
X4126Y89500D01*
Y88965D01*
X2856Y88183D01*
X2250Y88304D01*
X1177Y88090D01*
X267Y87483D01*
X-340Y86573D01*
X-554Y85500D01*
X-340Y84427D01*
X267Y83517D01*
X1177Y82910D01*
X2250Y82696D01*
X3034Y81557D01*
X3160Y80927D01*
X3424Y80531D01*
X3664Y79625D01*
X3424Y78719D01*
X3160Y78323D01*
X2946Y77250D01*
X3160Y76177D01*
X3767Y75267D01*
X4677Y74660D01*
X5750Y74446D01*
X6823Y74660D01*
X7733Y75267D01*
X8340Y76177D01*
X8554Y77250D01*
X8340Y78323D01*
X8076Y78719D01*
X7836Y79625D01*
X8076Y80531D01*
X8340Y80927D01*
X8554Y82000D01*
X8340Y83073D01*
X7802Y83878D01*
X7754Y84001D01*
X7638Y84121D01*
X7559Y84214D01*
X7494Y84300D01*
X7443Y84379D01*
X7404Y84451D01*
X7376Y84515D01*
X7373Y84522D01*
Y88827D01*
X9240Y90694D01*
X10026Y90405D01*
X10470Y90128D01*
X10660Y89177D01*
X11267Y88267D01*
X12177Y87660D01*
X13250Y87446D01*
X14323Y87660D01*
X15233Y88267D01*
X15841Y89177D01*
X16054Y90250D01*
X15841Y91323D01*
X15233Y92233D01*
X14323Y92841D01*
X13372Y93030D01*
X13096Y93475D01*
X12807Y94261D01*
X13898Y95352D01*
X14374Y96500D01*
Y127500D01*
X13898Y128648D01*
X7124Y135422D01*
Y143249D01*
X7970Y144095D01*
X9146Y143500D01*
X9360Y142427D01*
X9967Y141517D01*
X10877Y140910D01*
X10950Y140895D01*
X16451Y135394D01*
Y119500D01*
X16645Y118525D01*
X17198Y117698D01*
X20448Y114448D01*
X21275Y113895D01*
X22250Y113701D01*
X53500D01*
X54475Y113895D01*
X55302Y114448D01*
X57306Y116451D01*
X68053D01*
X68732Y115181D01*
X68660Y115073D01*
X68471Y114123D01*
X68418Y114002D01*
X68415Y113835D01*
X68406Y113713D01*
X68390Y113607D01*
X68370Y113514D01*
X68347Y113436D01*
X68322Y113371D01*
X68319Y113365D01*
X66727Y111773D01*
X66251Y110625D01*
Y94625D01*
X66727Y93477D01*
X83731Y76473D01*
X83627Y75402D01*
X82454Y74919D01*
X81823Y75340D01*
X80750Y75554D01*
X79677Y75340D01*
X79090Y74948D01*
X77844Y74872D01*
X76934Y75479D01*
X75861Y75693D01*
X74788Y75479D01*
X73878Y74872D01*
X73271Y73962D01*
X73057Y72889D01*
X73271Y71816D01*
X73878Y70906D01*
X74788Y70299D01*
X75861Y70085D01*
X76934Y70299D01*
X77521Y70691D01*
X78768Y70767D01*
X79677Y70160D01*
X80750Y69946D01*
X81823Y70160D01*
X82606Y70683D01*
X83190Y70538D01*
X83876Y70193D01*
Y61673D01*
X82602Y60398D01*
X82126Y59250D01*
Y55557D01*
X81439Y55212D01*
X80856Y55067D01*
X80073Y55590D01*
X79592Y55686D01*
X79804Y56750D01*
X79590Y57823D01*
X78983Y58733D01*
X78073Y59340D01*
X77000Y59554D01*
X75927Y59340D01*
X75017Y58733D01*
X74410Y57823D01*
X74196Y56750D01*
X74398Y55734D01*
X73677Y55590D01*
X72767Y54983D01*
X72160Y54073D01*
X71946Y53000D01*
X72160Y51927D01*
X72767Y51017D01*
X73677Y50410D01*
X74750Y50196D01*
X75823Y50410D01*
X75873Y50443D01*
X76875Y50946D01*
X77877Y50443D01*
X77927Y50410D01*
X79000Y50196D01*
X80073Y50410D01*
X80856Y50933D01*
X81439Y50788D01*
X82126Y50443D01*
Y44022D01*
X82124Y44015D01*
X82096Y43951D01*
X82057Y43879D01*
X82006Y43800D01*
X81941Y43714D01*
X81862Y43621D01*
X81746Y43502D01*
X81698Y43379D01*
X81160Y42573D01*
X80946Y41500D01*
X81160Y40427D01*
X81767Y39517D01*
X82677Y38910D01*
X83750Y38696D01*
X84161Y38778D01*
X85363Y37952D01*
X85343Y36724D01*
X84901Y36445D01*
X84148Y36224D01*
X83268Y36811D01*
X82000Y37064D01*
X80732Y36811D01*
X79657Y36093D01*
X78939Y35018D01*
X78686Y33750D01*
Y29500D01*
X78939Y28232D01*
X79657Y27157D01*
X81157Y25657D01*
X82232Y24939D01*
X83500Y24686D01*
X95359D01*
X95623Y24358D01*
X95950Y23481D01*
X90786Y18317D01*
X89408Y18735D01*
X89340Y19073D01*
X88733Y19983D01*
X87823Y20590D01*
X86750Y20804D01*
X85677Y20590D01*
X84767Y19983D01*
X84733D01*
X83823Y20590D01*
X82750Y20804D01*
X81677Y20590D01*
X80767Y19983D01*
X80160Y19073D01*
X79946Y18000D01*
X80160Y16927D01*
X80767Y16017D01*
X81677Y15410D01*
X82110Y15323D01*
X81946Y14500D01*
X82160Y13427D01*
X82767Y12517D01*
X83021Y12348D01*
X83265Y10795D01*
X81985Y9515D01*
X81668Y8750D01*
X81668Y3500D01*
X81747Y3309D01*
X81021Y2039D01*
X74430D01*
X74059Y3057D01*
X74011Y3309D01*
X74590Y4177D01*
X74804Y5250D01*
X74590Y6323D01*
X73983Y7233D01*
X73073Y7840D01*
X72000Y8054D01*
X70927Y7840D01*
X70017Y7233D01*
X69410Y6323D01*
X69196Y5250D01*
X69410Y4177D01*
X69990Y3309D01*
X69941Y3057D01*
X69570Y2039D01*
X2039D01*
Y12000D01*
X2029Y12050D01*
X2037Y12100D01*
X1998Y12884D01*
X1961Y13031D01*
Y13182D01*
X1655Y14720D01*
X1578Y14906D01*
X1539Y15103D01*
X939Y16552D01*
X828Y16718D01*
X751Y16904D01*
X91Y17891D01*
X609Y18870D01*
X803Y19045D01*
X1250Y18956D01*
X2323Y19169D01*
X3233Y19777D01*
X3841Y20687D01*
X4054Y21760D01*
X3841Y22833D01*
X3233Y23742D01*
X2323Y24350D01*
X1250Y24564D01*
X177Y24350D01*
X-733Y23742D01*
X-1340Y22833D01*
X-1554Y21760D01*
X-1436Y21169D01*
X-2551Y20387D01*
X-3096Y20751D01*
X-3282Y20828D01*
X-3449Y20939D01*
X-4897Y21539D01*
X-5094Y21579D01*
X-5280Y21655D01*
X-5408Y21681D01*
X-5896Y23073D01*
X-5660Y23427D01*
X-5446Y24500D01*
X-5660Y25573D01*
X-6267Y26483D01*
X-7177Y27090D01*
X-8250Y27304D01*
X-9323Y27090D01*
X-10233Y26483D01*
X-10840Y25573D01*
X-11054Y24500D01*
X-10840Y23427D01*
X-10762Y23309D01*
X-11440Y22039D01*
X-35750Y22039D01*
Y176961D01*
X0Y176961D01*
X66Y176974D01*
X133Y176965D01*
X1177Y177034D01*
X1372Y177086D01*
X1572Y177099D01*
X3589Y177639D01*
X3828Y177757D01*
X4081Y177843D01*
X5890Y178887D01*
X6090Y179063D01*
X6312Y179211D01*
X7789Y180688D01*
X7937Y180910D01*
X8113Y181110D01*
X9157Y182919D01*
X9243Y183172D01*
X9361Y183411D01*
X9901Y185428D01*
X9919Y185694D01*
X9971Y185956D01*
Y188044D01*
X9919Y188306D01*
X9901Y188572D01*
X9361Y190589D01*
X9243Y190828D01*
X9157Y191081D01*
X8113Y192890D01*
X7937Y193090D01*
X7789Y193312D01*
X6312Y194789D01*
X6090Y194937D01*
X5890Y195113D01*
X4081Y196157D01*
X3828Y196243D01*
X3589Y196361D01*
X1572Y196901D01*
X1372Y196914D01*
X1178Y196966D01*
X133Y197035D01*
X66Y197026D01*
X0Y197039D01*
X-35750D01*
Y274961D01*
X-8000Y274961D01*
X-7950Y274971D01*
X-7900Y274963D01*
X-7116Y275002D01*
X-6969Y275039D01*
X-6818D01*
X-5280Y275345D01*
X-5094Y275421D01*
X-4897Y275461D01*
X-3449Y276061D01*
X-3282Y276172D01*
X-3096Y276249D01*
X-2754Y276478D01*
X-2216Y276264D01*
X-1510Y275781D01*
X-1340Y274927D01*
X-733Y274017D01*
X-1088Y272728D01*
X-1247Y272490D01*
X-1461Y271417D01*
X-1247Y270344D01*
X-639Y269434D01*
X270Y268827D01*
X1343Y268613D01*
X2416Y268827D01*
X3326Y269434D01*
X3934Y270344D01*
X4147Y271417D01*
X3934Y272490D01*
X3326Y273400D01*
X3682Y274689D01*
X3840Y274927D01*
X4054Y276000D01*
X3840Y277073D01*
X3233Y277983D01*
X2323Y278590D01*
X1396Y278775D01*
X998Y279324D01*
X676Y279985D01*
X751Y280096D01*
X828Y280282D01*
X939Y280448D01*
X1539Y281897D01*
X1578Y282094D01*
X1655Y282280D01*
X1961Y283818D01*
Y283969D01*
X1998Y284116D01*
X2037Y284900D01*
X2029Y284950D01*
X2039Y285000D01*
X2039Y294961D01*
X144233D01*
X144619Y293691D01*
D02*
G37*
G36*
X65087Y271108D02*
X64964Y270964D01*
X64855Y270819D01*
X64761Y270673D01*
X64681Y270526D01*
X64616Y270377D01*
X64565Y270228D01*
X64529Y270077D01*
X64507Y269926D01*
X64500Y269773D01*
X63500D01*
X63493Y269926D01*
X63471Y270077D01*
X63435Y270228D01*
X63384Y270377D01*
X63319Y270526D01*
X63239Y270673D01*
X63145Y270819D01*
X63036Y270964D01*
X62913Y271108D01*
X62775Y271250D01*
X65225D01*
X65087Y271108D01*
D02*
G37*
G36*
X285538Y257179D02*
X285661Y257087D01*
X285793Y257006D01*
X285935Y256936D01*
X286086Y256878D01*
X286246Y256830D01*
X286416Y256793D01*
X286595Y256768D01*
X286784Y256753D01*
X286982Y256750D01*
X285250Y255018D01*
X285247Y255216D01*
X285232Y255405D01*
X285207Y255584D01*
X285170Y255754D01*
X285122Y255914D01*
X285063Y256065D01*
X284994Y256207D01*
X284913Y256339D01*
X284821Y256462D01*
X284718Y256575D01*
X285425Y257282D01*
X285538Y257179D01*
D02*
G37*
G36*
X130578Y264203D02*
X114249Y247874D01*
X110000D01*
X110000Y247874D01*
X104172D01*
X103093Y248953D01*
X103579Y250126D01*
X104596D01*
X105744Y250602D01*
X107648Y252506D01*
X107762Y252782D01*
X107898Y252829D01*
X109151Y252816D01*
X109517Y252267D01*
X110427Y251660D01*
X111500Y251446D01*
X112573Y251660D01*
X113483Y252267D01*
X114090Y253177D01*
X114304Y254250D01*
X114090Y255323D01*
X113483Y256233D01*
X112660Y256782D01*
X112559Y256906D01*
X112276Y258194D01*
X119458Y265376D01*
X130092D01*
X130578Y264203D01*
D02*
G37*
G36*
X211337Y251608D02*
X211214Y251464D01*
X211105Y251319D01*
X211011Y251173D01*
X210931Y251026D01*
X210866Y250877D01*
X210815Y250728D01*
X210779Y250577D01*
X210757Y250426D01*
X210750Y250273D01*
X209750D01*
X209743Y250426D01*
X209721Y250577D01*
X209685Y250728D01*
X209634Y250877D01*
X209569Y251026D01*
X209489Y251173D01*
X209395Y251319D01*
X209286Y251464D01*
X209163Y251608D01*
X209025Y251750D01*
X211475D01*
X211337Y251608D01*
D02*
G37*
G36*
X2202Y249060D02*
X2206Y248986D01*
X2223Y248908D01*
X2252Y248825D01*
X2294Y248738D01*
X2348Y248647D01*
X2414Y248551D01*
X2493Y248451D01*
X2689Y248239D01*
X1982Y247532D01*
X1887Y247623D01*
X1794Y247701D01*
X1705Y247768D01*
X1619Y247821D01*
X1536Y247863D01*
X1456Y247891D01*
X1379Y247908D01*
X1305Y247912D01*
X1235Y247903D01*
X1168Y247882D01*
X2210Y249130D01*
X2202Y249060D01*
D02*
G37*
G36*
X48575Y275326D02*
X48376Y274846D01*
Y268172D01*
X23102Y242898D01*
X22626Y241750D01*
Y170750D01*
X23102Y169602D01*
X27376Y165327D01*
Y151772D01*
X27374Y151765D01*
X27346Y151701D01*
X27307Y151629D01*
X27256Y151550D01*
X27191Y151464D01*
X27112Y151371D01*
X26996Y151251D01*
X26948Y151129D01*
X26410Y150323D01*
X26196Y149250D01*
X26410Y148177D01*
X26816Y147569D01*
X26441Y146537D01*
X26253Y146299D01*
X26000D01*
X25025Y146105D01*
X24198Y145552D01*
X18850Y140205D01*
X14555Y144500D01*
X14540Y144573D01*
X13933Y145483D01*
X13023Y146090D01*
X11950Y146304D01*
X11355Y147480D01*
X15148Y151273D01*
X15624Y152422D01*
Y162193D01*
X16311Y162538D01*
X16894Y162683D01*
X17677Y162160D01*
X18750Y161946D01*
X19823Y162160D01*
X20733Y162767D01*
X21340Y163677D01*
X21554Y164750D01*
X21340Y165823D01*
X20733Y166733D01*
X19823Y167341D01*
X18750Y167554D01*
X17677Y167341D01*
X17634Y167312D01*
X17356Y167309D01*
X16253Y167917D01*
X16223Y168427D01*
X18398Y170602D01*
X18874Y171750D01*
Y202328D01*
X18492Y203248D01*
X18493Y203255D01*
X18843Y204164D01*
X19104Y204566D01*
X19573Y204660D01*
X20483Y205267D01*
X21090Y206177D01*
X21304Y207250D01*
X21090Y208323D01*
X20483Y209233D01*
X19573Y209841D01*
X18500Y210054D01*
X17427Y209841D01*
X16517Y209233D01*
X15910Y208323D01*
X15816Y207854D01*
X14469Y207406D01*
X13727Y208148D01*
X12578Y208624D01*
X-9749D01*
X-11626Y210501D01*
Y237174D01*
X-10174Y238626D01*
X-5547D01*
X-5474Y238547D01*
X-4984Y237356D01*
X-5340Y236823D01*
X-5554Y235750D01*
X-5340Y234677D01*
X-4733Y233767D01*
X-3823Y233160D01*
X-2750Y232946D01*
X-1937Y233108D01*
X-1750Y233100D01*
X-1748Y233102D01*
X-1744Y233102D01*
X-1561Y233171D01*
X-1412Y233222D01*
X-950Y233353D01*
X-856Y233374D01*
X-837Y233376D01*
X3970D01*
X4649Y232106D01*
X4460Y231823D01*
X4246Y230750D01*
X4460Y229677D01*
X5067Y228767D01*
X5977Y228160D01*
X7050Y227946D01*
X8123Y228159D01*
X9034Y227241D01*
X9517Y226517D01*
X10427Y225910D01*
X11500Y225696D01*
X12573Y225910D01*
X13483Y226517D01*
X14090Y227427D01*
X14304Y228500D01*
X14090Y229573D01*
X13483Y230483D01*
X12573Y231090D01*
X11500Y231304D01*
X10427Y231090D01*
X9516Y232009D01*
X9033Y232733D01*
X8737Y232930D01*
X8511Y234434D01*
X8527Y234481D01*
X16437Y242391D01*
X16913Y243539D01*
Y244885D01*
X17495Y245218D01*
X18183Y245407D01*
X18927Y244910D01*
X20000Y244696D01*
X21073Y244910D01*
X21983Y245518D01*
X22590Y246427D01*
X22804Y247500D01*
X22590Y248573D01*
X21983Y249483D01*
X21073Y250091D01*
X20000Y250304D01*
X18927Y250091D01*
X18183Y249593D01*
X17495Y249782D01*
X16913Y250116D01*
Y258617D01*
X24922Y266626D01*
X37407D01*
X38555Y267102D01*
X47499Y276046D01*
X48575Y275326D01*
D02*
G37*
G36*
X79482Y240750D02*
X79284Y240747D01*
X79095Y240732D01*
X78916Y240707D01*
X78746Y240670D01*
X78586Y240622D01*
X78435Y240564D01*
X78293Y240494D01*
X78161Y240413D01*
X78038Y240321D01*
X77925Y240218D01*
X77218Y240925D01*
X77321Y241038D01*
X77413Y241161D01*
X77494Y241293D01*
X77563Y241435D01*
X77622Y241586D01*
X77670Y241746D01*
X77706Y241916D01*
X77732Y242095D01*
X77747Y242284D01*
X77750Y242482D01*
X79482Y240750D01*
D02*
G37*
G36*
X186538Y241429D02*
X186661Y241337D01*
X186793Y241256D01*
X186935Y241187D01*
X187086Y241128D01*
X187246Y241080D01*
X187416Y241043D01*
X187595Y241018D01*
X187784Y241003D01*
X187983Y241000D01*
X186250Y239268D01*
X186247Y239466D01*
X186232Y239655D01*
X186206Y239834D01*
X186170Y240004D01*
X186122Y240164D01*
X186063Y240315D01*
X185994Y240457D01*
X185913Y240589D01*
X185821Y240712D01*
X185718Y240825D01*
X186425Y241532D01*
X186538Y241429D01*
D02*
G37*
G36*
X38404Y251812D02*
X38767Y251267D01*
X39677Y250660D01*
X40750Y250446D01*
X41823Y250660D01*
X42733Y251267D01*
X43049Y251740D01*
X44245Y251245D01*
X44196Y251000D01*
X44410Y249927D01*
X45017Y249017D01*
X45927Y248410D01*
X47000Y248196D01*
X48073Y248410D01*
X48983Y249017D01*
X49230Y249387D01*
X50737Y249676D01*
X53206Y247207D01*
Y235515D01*
X53065Y235460D01*
X51936Y235304D01*
X51483Y235983D01*
X50573Y236590D01*
X49500Y236804D01*
X48427Y236590D01*
X47517Y235983D01*
X46909Y235073D01*
X46696Y234000D01*
X45462Y233697D01*
X44927Y233590D01*
X44017Y232983D01*
X43410Y232073D01*
X43196Y231000D01*
X43410Y229927D01*
X44017Y229017D01*
X44927Y228410D01*
X46000Y228196D01*
X47073Y228410D01*
X47983Y229017D01*
X48590Y229927D01*
X48804Y231000D01*
X50038Y231303D01*
X50573Y231410D01*
X51483Y232017D01*
X51936Y232696D01*
X53065Y232540D01*
X53206Y232485D01*
Y216700D01*
X50378Y213872D01*
X49881Y213128D01*
X49706Y212250D01*
Y208500D01*
X49881Y207622D01*
X50378Y206878D01*
X57706Y199550D01*
Y186766D01*
X57410Y186323D01*
X57196Y185250D01*
X57410Y184177D01*
X58017Y183267D01*
Y182817D01*
X57517Y182483D01*
X56910Y181573D01*
X56696Y180500D01*
X56910Y179427D01*
X56951Y179365D01*
Y158806D01*
X22819Y124674D01*
X21630Y125096D01*
X21549Y125165D01*
Y135694D01*
X23851Y137996D01*
X24301Y137972D01*
X25327Y137676D01*
X25767Y137017D01*
X26677Y136410D01*
X27750Y136196D01*
X28823Y136410D01*
X29733Y137017D01*
X30340Y137927D01*
X30554Y139000D01*
X30369Y139931D01*
X30440Y140218D01*
X31114Y141201D01*
X35250D01*
X36226Y141395D01*
X37052Y141948D01*
X47052Y151948D01*
X47605Y152774D01*
X47799Y153750D01*
Y197750D01*
X47605Y198725D01*
X47052Y199552D01*
X35049Y211556D01*
Y235365D01*
X35090Y235427D01*
X35304Y236500D01*
X35090Y237573D01*
X34483Y238483D01*
X33573Y239090D01*
X32500Y239304D01*
X31427Y239090D01*
X30517Y238483D01*
X29910Y237573D01*
X29696Y236500D01*
X29910Y235427D01*
X29951Y235365D01*
Y210500D01*
X30145Y209524D01*
X30698Y208698D01*
X42701Y196694D01*
Y154806D01*
X34194Y146299D01*
X31747D01*
X31559Y146537D01*
X31184Y147569D01*
X31590Y148177D01*
X31804Y149250D01*
X31590Y150323D01*
X31052Y151129D01*
X31004Y151251D01*
X30888Y151371D01*
X30809Y151464D01*
X30744Y151550D01*
X30693Y151629D01*
X30654Y151701D01*
X30626Y151765D01*
X30624Y151772D01*
Y166000D01*
X30148Y167148D01*
X25874Y171423D01*
Y241077D01*
X36965Y252169D01*
X38404Y251812D01*
D02*
G37*
G36*
X-1034Y236165D02*
X-960Y236026D01*
X-875Y235902D01*
X-779Y235796D01*
X-672Y235705D01*
X-554Y235631D01*
X-424Y235574D01*
X-283Y235533D01*
X-131Y235508D01*
X32Y235500D01*
X-475Y234500D01*
X-609Y234496D01*
X-749Y234485D01*
X-1051Y234439D01*
X-1212Y234404D01*
X-1737Y234255D01*
X-1926Y234190D01*
X-2121Y234117D01*
X-1096Y236321D01*
X-1034Y236165D01*
D02*
G37*
G36*
X232587Y230358D02*
X232464Y230214D01*
X232355Y230069D01*
X232261Y229923D01*
X232181Y229776D01*
X232116Y229627D01*
X232065Y229478D01*
X232029Y229327D01*
X232007Y229176D01*
X232000Y229023D01*
X231000D01*
X230993Y229176D01*
X230971Y229327D01*
X230935Y229478D01*
X230884Y229627D01*
X230819Y229776D01*
X230739Y229923D01*
X230645Y230069D01*
X230536Y230214D01*
X230413Y230358D01*
X230275Y230500D01*
X232725D01*
X232587Y230358D01*
D02*
G37*
G36*
X118773Y221602D02*
X119922Y221126D01*
X125328D01*
X139084Y207370D01*
X140232Y206894D01*
X143246D01*
X143252Y206892D01*
X143259Y206889D01*
X143384Y206748D01*
X143729Y206150D01*
X143643Y205288D01*
X143378Y204874D01*
X123923D01*
X116433Y212364D01*
X117058Y213534D01*
X117500Y213446D01*
X118573Y213660D01*
X119483Y214267D01*
X120091Y215177D01*
X120304Y216250D01*
X120091Y217323D01*
X119483Y218233D01*
X118573Y218840D01*
X117500Y219054D01*
X116427Y218840D01*
X115517Y218233D01*
X114910Y217323D01*
X114696Y216250D01*
X114784Y215808D01*
X113614Y215182D01*
X111874Y216922D01*
Y219750D01*
X111398Y220898D01*
X108182Y224114D01*
X108808Y225284D01*
X109250Y225196D01*
X110323Y225410D01*
X111233Y226017D01*
X111765Y226814D01*
X111981Y226954D01*
X113187Y227188D01*
X118773Y221602D01*
D02*
G37*
G36*
X145500Y224525D02*
X145358Y224663D01*
X145214Y224786D01*
X145069Y224895D01*
X144923Y224989D01*
X144776Y225069D01*
X144627Y225134D01*
X144478Y225185D01*
X144327Y225221D01*
X144176Y225243D01*
X144023Y225250D01*
Y226250D01*
X144176Y226257D01*
X144327Y226279D01*
X144478Y226315D01*
X144627Y226366D01*
X144776Y226431D01*
X144923Y226511D01*
X145069Y226605D01*
X145214Y226714D01*
X145358Y226837D01*
X145500Y226975D01*
Y224525D01*
D02*
G37*
G36*
X97432Y222698D02*
X97394Y222630D01*
X97360Y222546D01*
X97331Y222447D01*
X97306Y222331D01*
X97286Y222199D01*
X97259Y221888D01*
X97250Y221514D01*
X95250D01*
X95248Y221709D01*
X95214Y222199D01*
X95194Y222331D01*
X95169Y222447D01*
X95140Y222546D01*
X95106Y222630D01*
X95068Y222698D01*
X95025Y222750D01*
X97475D01*
X97432Y222698D01*
D02*
G37*
G36*
X280078Y226161D02*
X279946Y225500D01*
X280159Y224427D01*
X280767Y223517D01*
X281677Y222910D01*
X282750Y222696D01*
X283823Y222910D01*
X284161Y223136D01*
X285431Y222457D01*
Y219500D01*
X285703Y218134D01*
X286477Y216977D01*
X302681Y200772D01*
Y190000D01*
X302953Y188634D01*
X303727Y187477D01*
X313181Y178022D01*
Y122498D01*
X311652Y120969D01*
X309057D01*
X308716Y121197D01*
X307350Y121469D01*
X295400D01*
X294034Y121197D01*
X292877Y120423D01*
X288731Y116278D01*
X287958Y115120D01*
X287686Y113755D01*
Y104983D01*
X276022Y93319D01*
X241224D01*
X240863Y94200D01*
X240780Y94589D01*
X241340Y95427D01*
X241554Y96500D01*
X241340Y97573D01*
X240733Y98483D01*
X239823Y99090D01*
X238750Y99304D01*
X237677Y99090D01*
X236767Y98483D01*
X236160Y97573D01*
X235946Y96500D01*
X236160Y95427D01*
X236767Y94517D01*
X237054Y94326D01*
X237086Y93822D01*
X236908Y92896D01*
X235977Y92273D01*
X231047Y87344D01*
X229874Y87830D01*
Y99327D01*
X231365Y100819D01*
X231371Y100822D01*
X231437Y100847D01*
X231514Y100871D01*
X231607Y100890D01*
X231714Y100906D01*
X231835Y100915D01*
X232002Y100918D01*
X232123Y100970D01*
X233073Y101160D01*
X233983Y101767D01*
X234590Y102677D01*
X234804Y103750D01*
X234590Y104823D01*
X233983Y105733D01*
X233073Y106340D01*
X232000Y106554D01*
X230927Y106340D01*
X230017Y105733D01*
X229410Y104823D01*
X229315Y104348D01*
X229138Y104220D01*
X227868Y104871D01*
Y108322D01*
X227914Y108332D01*
X228673Y108448D01*
X231615Y108654D01*
X232763Y108668D01*
X232834Y108698D01*
X234116Y108953D01*
X235273Y109727D01*
X239273Y113727D01*
X240047Y114884D01*
X240319Y116250D01*
Y129500D01*
X240047Y130866D01*
X239273Y132023D01*
X235319Y135978D01*
Y145522D01*
X236955Y147158D01*
X237728Y148316D01*
X238000Y149681D01*
Y160569D01*
X237728Y161934D01*
X236955Y163092D01*
X233161Y166886D01*
X233488Y168354D01*
X233957Y168667D01*
X234564Y169577D01*
X234778Y170650D01*
X234564Y171723D01*
X233957Y172633D01*
X233047Y173240D01*
X231974Y173454D01*
X230901Y173240D01*
X230089Y172698D01*
X229600Y172810D01*
X228819Y173163D01*
Y185522D01*
X238728Y195431D01*
X246250D01*
X247616Y195703D01*
X248773Y196477D01*
X256273Y203977D01*
X257047Y205134D01*
X257319Y206500D01*
Y217272D01*
X259715Y219668D01*
X261154Y219311D01*
X261517Y218767D01*
X262427Y218160D01*
X263500Y217946D01*
X264573Y218160D01*
X265483Y218767D01*
X266090Y219677D01*
X266304Y220750D01*
X266090Y221823D01*
X265483Y222733D01*
X264939Y223096D01*
X264582Y224535D01*
X267478Y227431D01*
X279322D01*
X280078Y226161D01*
D02*
G37*
G36*
X59032Y211575D02*
X58929Y211462D01*
X58837Y211339D01*
X58756Y211207D01*
X58686Y211065D01*
X58628Y210914D01*
X58580Y210754D01*
X58544Y210584D01*
X58518Y210405D01*
X58503Y210216D01*
X58500Y210018D01*
X56768Y211750D01*
X56966Y211753D01*
X57155Y211768D01*
X57334Y211793D01*
X57504Y211830D01*
X57664Y211878D01*
X57815Y211937D01*
X57957Y212006D01*
X58089Y212087D01*
X58212Y212179D01*
X58325Y212282D01*
X59032Y211575D01*
D02*
G37*
G36*
X225007Y209824D02*
X225029Y209673D01*
X225065Y209522D01*
X225116Y209373D01*
X225181Y209224D01*
X225261Y209077D01*
X225355Y208931D01*
X225464Y208786D01*
X225587Y208643D01*
X225725Y208500D01*
X223275D01*
X223413Y208643D01*
X223536Y208786D01*
X223645Y208931D01*
X223739Y209077D01*
X223819Y209224D01*
X223884Y209373D01*
X223935Y209522D01*
X223971Y209673D01*
X223993Y209824D01*
X224000Y209977D01*
X225000D01*
X225007Y209824D01*
D02*
G37*
G36*
X144518Y207293D02*
X144375Y207430D01*
X144232Y207554D01*
X144087Y207663D01*
X143940Y207757D01*
X143793Y207836D01*
X143645Y207902D01*
X143496Y207952D01*
X143345Y207989D01*
X143194Y208011D01*
X143041Y208018D01*
Y209018D01*
X143194Y209025D01*
X143345Y209047D01*
X143496Y209083D01*
X143645Y209134D01*
X143793Y209199D01*
X143940Y209279D01*
X144087Y209373D01*
X144232Y209482D01*
X144375Y209605D01*
X144518Y209743D01*
Y207293D01*
D02*
G37*
G36*
X176788Y208679D02*
X176911Y208587D01*
X177043Y208506D01*
X177185Y208437D01*
X177336Y208378D01*
X177496Y208330D01*
X177666Y208293D01*
X177845Y208268D01*
X178034Y208253D01*
X178232Y208250D01*
X176500Y206518D01*
X176497Y206716D01*
X176482Y206905D01*
X176457Y207084D01*
X176420Y207254D01*
X176372Y207414D01*
X176313Y207565D01*
X176244Y207707D01*
X176163Y207839D01*
X176071Y207962D01*
X175968Y208075D01*
X176675Y208782D01*
X176788Y208679D01*
D02*
G37*
G36*
X107868Y207050D02*
X108118Y206831D01*
X108228Y206749D01*
X108328Y206684D01*
X108418Y206638D01*
X108497Y206609D01*
X108567Y206599D01*
X108626Y206606D01*
X108675Y206631D01*
X108257Y204338D01*
X106566Y205520D01*
X107728Y207186D01*
X107868Y207050D01*
D02*
G37*
G36*
X195181Y228739D02*
Y202978D01*
X179522Y187319D01*
X177850D01*
X177465Y188589D01*
X177733Y188767D01*
X178340Y189677D01*
X178554Y190750D01*
X178340Y191823D01*
X177733Y192733D01*
X176823Y193340D01*
X175750Y193554D01*
X174677Y193340D01*
X173767Y192733D01*
X173160Y191823D01*
X172946Y190750D01*
X173160Y189677D01*
X173767Y188767D01*
X174035Y188589D01*
X173650Y187319D01*
X169478D01*
X166819Y189978D01*
Y191379D01*
X167758Y192035D01*
X168089Y192129D01*
X169010Y191946D01*
X170083Y192160D01*
X170992Y192767D01*
X171600Y193677D01*
X171813Y194750D01*
X171600Y195823D01*
X170992Y196733D01*
X170083Y197341D01*
X169010Y197554D01*
X167937Y197341D01*
X166578Y197960D01*
X166547Y198116D01*
X165773Y199273D01*
X162190Y202856D01*
X162716Y204126D01*
X167827D01*
X172852Y199102D01*
X174000Y198626D01*
X184250D01*
X185398Y199102D01*
X193398Y207102D01*
X193874Y208250D01*
Y229393D01*
X193911Y229418D01*
X195181Y228739D01*
D02*
G37*
G36*
X153753Y188534D02*
X153768Y188345D01*
X153793Y188166D01*
X153830Y187996D01*
X153878Y187836D01*
X153937Y187685D01*
X154006Y187543D01*
X154087Y187411D01*
X154179Y187288D01*
X154282Y187175D01*
X153575Y186468D01*
X153462Y186571D01*
X153339Y186663D01*
X153207Y186744D01*
X153065Y186813D01*
X152914Y186872D01*
X152754Y186920D01*
X152584Y186957D01*
X152405Y186982D01*
X152216Y186997D01*
X152017Y187000D01*
X153750Y188732D01*
X153753Y188534D01*
D02*
G37*
G36*
X331375Y182195D02*
X331242Y182324D01*
X331105Y182438D01*
X330966Y182540D01*
X330824Y182627D01*
X330679Y182702D01*
X330532Y182762D01*
X330381Y182810D01*
X330228Y182843D01*
X330072Y182864D01*
X329914Y182870D01*
Y183970D01*
X330072Y183977D01*
X330228Y183997D01*
X330381Y184031D01*
X330532Y184078D01*
X330679Y184139D01*
X330824Y184213D01*
X330966Y184301D01*
X331105Y184402D01*
X331242Y184517D01*
X331375Y184645D01*
Y182195D01*
D02*
G37*
G36*
X173017Y161074D02*
X173039Y160923D01*
X173075Y160772D01*
X173125Y160623D01*
X173191Y160474D01*
X173270Y160327D01*
X173365Y160181D01*
X173473Y160036D01*
X173597Y159892D01*
X173734Y159750D01*
X171285D01*
X171422Y159892D01*
X171546Y160036D01*
X171654Y160181D01*
X171749Y160327D01*
X171828Y160474D01*
X171894Y160623D01*
X171944Y160772D01*
X171980Y160923D01*
X172002Y161074D01*
X172010Y161227D01*
X173009D01*
X173017Y161074D01*
D02*
G37*
G36*
X29507Y151824D02*
X29529Y151673D01*
X29565Y151522D01*
X29616Y151373D01*
X29681Y151224D01*
X29761Y151077D01*
X29855Y150931D01*
X29964Y150786D01*
X30087Y150642D01*
X30225Y150500D01*
X27775D01*
X27913Y150642D01*
X28036Y150786D01*
X28145Y150931D01*
X28239Y151077D01*
X28319Y151224D01*
X28384Y151373D01*
X28435Y151522D01*
X28471Y151673D01*
X28493Y151824D01*
X28500Y151977D01*
X29500D01*
X29507Y151824D01*
D02*
G37*
G36*
X79425Y239363D02*
X79775Y238786D01*
X80037Y238088D01*
X79626Y237096D01*
Y228172D01*
X75102Y223648D01*
X74626Y222500D01*
Y162673D01*
X66102Y154148D01*
X65626Y153000D01*
Y143422D01*
X58409Y136205D01*
X57903Y136250D01*
X56946Y136539D01*
X56483Y137233D01*
X55573Y137840D01*
X54500Y138054D01*
X53427Y137840D01*
X52517Y137233D01*
X51910Y136323D01*
X51696Y135250D01*
X51910Y134177D01*
X52517Y133267D01*
X53211Y132804D01*
X53500Y131847D01*
X53545Y131341D01*
X48352Y126148D01*
X47876Y125000D01*
Y123022D01*
X47874Y123015D01*
X47846Y122951D01*
X47807Y122879D01*
X47756Y122800D01*
X47691Y122714D01*
X47612Y122621D01*
X47496Y122502D01*
X47448Y122379D01*
X46910Y121573D01*
X46696Y120500D01*
X46782Y120069D01*
X45918Y118799D01*
X26247D01*
X26059Y119037D01*
X25684Y120069D01*
X26090Y120677D01*
X26105Y120750D01*
X44703Y139348D01*
X45876Y138862D01*
Y137022D01*
X45874Y137015D01*
X45846Y136951D01*
X45807Y136879D01*
X45756Y136800D01*
X45691Y136714D01*
X45612Y136621D01*
X45496Y136502D01*
X45448Y136379D01*
X44910Y135573D01*
X44696Y134500D01*
X44910Y133427D01*
X45517Y132517D01*
X46427Y131910D01*
X47500Y131696D01*
X48573Y131910D01*
X49483Y132517D01*
X50090Y133427D01*
X50304Y134500D01*
X50090Y135573D01*
X49552Y136379D01*
X49504Y136502D01*
X49388Y136621D01*
X49309Y136714D01*
X49244Y136800D01*
X49193Y136879D01*
X49154Y136951D01*
X49126Y137015D01*
X49124Y137022D01*
Y140577D01*
X56165Y147619D01*
X57152Y146810D01*
X56660Y146073D01*
X56446Y145000D01*
X56660Y143927D01*
X57267Y143017D01*
X58177Y142410D01*
X59250Y142196D01*
X60323Y142410D01*
X61233Y143017D01*
X61840Y143927D01*
X62054Y145000D01*
X61840Y146073D01*
X61233Y146983D01*
X60323Y147590D01*
X59250Y147804D01*
X58177Y147590D01*
X57440Y147098D01*
X56631Y148085D01*
X65648Y157102D01*
X66124Y158250D01*
Y226828D01*
X78680Y239384D01*
X79425Y239363D01*
D02*
G37*
G36*
X48007Y137074D02*
X48029Y136923D01*
X48065Y136772D01*
X48116Y136623D01*
X48181Y136474D01*
X48261Y136327D01*
X48355Y136181D01*
X48464Y136036D01*
X48587Y135892D01*
X48725Y135750D01*
X46275D01*
X46413Y135892D01*
X46536Y136036D01*
X46645Y136181D01*
X46739Y136327D01*
X46819Y136474D01*
X46884Y136623D01*
X46935Y136772D01*
X46971Y136923D01*
X46993Y137074D01*
X47000Y137227D01*
X48000D01*
X48007Y137074D01*
D02*
G37*
G36*
X7088Y128679D02*
X7211Y128587D01*
X7343Y128506D01*
X7485Y128437D01*
X7636Y128378D01*
X7796Y128330D01*
X7966Y128294D01*
X8145Y128268D01*
X8334Y128254D01*
X8533Y128250D01*
X6800Y126518D01*
X6797Y126716D01*
X6782Y126905D01*
X6757Y127084D01*
X6720Y127254D01*
X6672Y127415D01*
X6614Y127566D01*
X6544Y127707D01*
X6463Y127839D01*
X6371Y127962D01*
X6268Y128075D01*
X6975Y128782D01*
X7088Y128679D01*
D02*
G37*
G36*
X50007Y123074D02*
X50029Y122923D01*
X50065Y122772D01*
X50116Y122623D01*
X50181Y122474D01*
X50261Y122327D01*
X50355Y122181D01*
X50464Y122036D01*
X50587Y121892D01*
X50725Y121750D01*
X48275D01*
X48413Y121892D01*
X48536Y122036D01*
X48645Y122181D01*
X48739Y122327D01*
X48819Y122474D01*
X48884Y122623D01*
X48935Y122772D01*
X48971Y122923D01*
X48993Y123074D01*
X49000Y123227D01*
X50000D01*
X50007Y123074D01*
D02*
G37*
G36*
X139198Y124199D02*
Y116840D01*
X139442Y115611D01*
X140139Y114569D01*
X152729Y101979D01*
X153771Y101283D01*
X155000Y101038D01*
X167170D01*
X191979Y76229D01*
X193021Y75533D01*
X194250Y75288D01*
X197170D01*
X204688Y67770D01*
Y64870D01*
X203829Y64011D01*
X203133Y62969D01*
X202888Y61740D01*
Y59583D01*
X201715Y59097D01*
X162546Y98265D01*
X161781Y98582D01*
X151666Y98582D01*
X151579Y98546D01*
X151487Y98567D01*
X151206Y98392D01*
X150901Y98265D01*
X150865Y98178D01*
X150784Y98128D01*
X150073Y97128D01*
X150069Y97111D01*
X150054Y97101D01*
X149977Y96710D01*
X149887Y96320D01*
X149896Y96306D01*
X149893Y96289D01*
X149950Y96000D01*
X149821Y95349D01*
X149452Y94798D01*
X148901Y94429D01*
X148250Y94300D01*
X147599Y94429D01*
X147048Y94798D01*
X146679Y95349D01*
X146550Y96000D01*
X146607Y96289D01*
X146604Y96306D01*
X146613Y96320D01*
X146524Y96710D01*
X146446Y97101D01*
X146431Y97111D01*
X146427Y97128D01*
X145716Y98128D01*
X145635Y98178D01*
X145599Y98265D01*
X145294Y98392D01*
X145014Y98567D01*
X144921Y98546D01*
X144834Y98582D01*
X143948D01*
X141515Y101015D01*
X140750Y101332D01*
X138315D01*
X137789Y102602D01*
X140093Y104907D01*
X140811Y105982D01*
X141064Y107250D01*
X140811Y108518D01*
X140093Y109593D01*
X139018Y110311D01*
X137750Y110564D01*
X136482Y110311D01*
X135407Y109593D01*
X135000Y109186D01*
X129343Y114843D01*
X128268Y115561D01*
X127000Y115814D01*
X120250D01*
X118982Y115561D01*
X117907Y114843D01*
X109839Y106775D01*
X108569Y107301D01*
Y117187D01*
X111813Y120431D01*
X115842D01*
X116034Y120303D01*
X117400Y120031D01*
X118766Y120303D01*
X118893Y120388D01*
X127610D01*
X128839Y120633D01*
X129881Y121329D01*
X133740Y125188D01*
X138209D01*
X139198Y124199D01*
D02*
G37*
G36*
X71233Y112250D02*
X71034Y112247D01*
X70845Y112232D01*
X70666Y112206D01*
X70496Y112170D01*
X70336Y112122D01*
X70185Y112064D01*
X70043Y111994D01*
X69911Y111913D01*
X69788Y111821D01*
X69675Y111718D01*
X68968Y112425D01*
X69071Y112538D01*
X69163Y112661D01*
X69244Y112793D01*
X69314Y112935D01*
X69372Y113086D01*
X69420Y113246D01*
X69457Y113416D01*
X69482Y113595D01*
X69497Y113784D01*
X69500Y113982D01*
X71233Y112250D01*
D02*
G37*
G36*
X225264Y115892D02*
X225748Y115652D01*
X226319Y115441D01*
X226977Y115258D01*
X227722Y115103D01*
X228554Y114976D01*
X230478Y114806D01*
X232750Y114750D01*
Y109750D01*
X231570Y109736D01*
X228554Y109524D01*
X227722Y109397D01*
X226977Y109242D01*
X226319Y109059D01*
X225748Y108848D01*
X225264Y108608D01*
X224866Y108340D01*
Y116160D01*
X225264Y115892D01*
D02*
G37*
G36*
X231982Y102000D02*
X231784Y101997D01*
X231595Y101982D01*
X231416Y101957D01*
X231246Y101920D01*
X231086Y101872D01*
X230935Y101813D01*
X230793Y101744D01*
X230661Y101663D01*
X230538Y101571D01*
X230425Y101468D01*
X229718Y102175D01*
X229821Y102288D01*
X229913Y102411D01*
X229994Y102543D01*
X230063Y102685D01*
X230122Y102836D01*
X230170Y102996D01*
X230207Y103166D01*
X230232Y103345D01*
X230247Y103534D01*
X230250Y103733D01*
X231982Y102000D01*
D02*
G37*
G36*
X96061Y102439D02*
X95847Y102201D01*
X95680Y101964D01*
X95561Y101726D01*
X95490Y101488D01*
X95466Y101250D01*
X95490Y101012D01*
X95561Y100774D01*
X95680Y100536D01*
X95847Y100298D01*
X96061Y100061D01*
X93939Y97939D01*
X93565Y98283D01*
X93167Y98591D01*
X92746Y98863D01*
X92301Y99098D01*
X91831Y99297D01*
X91338Y99460D01*
X90822Y99587D01*
X90281Y99677D01*
X89717Y99732D01*
X89129Y99750D01*
Y102750D01*
X89717Y102768D01*
X90281Y102822D01*
X90822Y102913D01*
X91338Y103040D01*
X91831Y103203D01*
X92301Y103402D01*
X92746Y103637D01*
X93167Y103909D01*
X93565Y104217D01*
X93939Y104561D01*
X96061Y102439D01*
D02*
G37*
G36*
X6257Y84574D02*
X6279Y84423D01*
X6315Y84272D01*
X6366Y84123D01*
X6431Y83974D01*
X6511Y83827D01*
X6605Y83681D01*
X6714Y83536D01*
X6837Y83392D01*
X6975Y83250D01*
X4525D01*
X4663Y83392D01*
X4786Y83536D01*
X4895Y83681D01*
X4989Y83827D01*
X5069Y83974D01*
X5134Y84123D01*
X5185Y84272D01*
X5221Y84423D01*
X5243Y84574D01*
X5250Y84727D01*
X6250D01*
X6257Y84574D01*
D02*
G37*
G36*
X220250Y61000D02*
Y57000D01*
X216250Y53000D01*
X211250D01*
X209250Y55000D01*
Y60000D01*
X215250Y66000D01*
X220250Y61000D01*
D02*
G37*
G36*
X236352Y63852D02*
X237500Y63376D01*
X257577D01*
X260352Y60602D01*
X261500Y60126D01*
X266327D01*
X274376Y52077D01*
Y27750D01*
X274852Y26602D01*
X283102Y18352D01*
X284250Y17876D01*
X289500D01*
X290648Y18352D01*
X292398Y20102D01*
X292874Y21250D01*
Y33000D01*
X292398Y34148D01*
X287624Y38923D01*
Y53327D01*
X299673Y65376D01*
X308141D01*
X308627Y64203D01*
X306233Y61809D01*
X303000D01*
X301829Y61576D01*
X300837Y60913D01*
X300174Y59921D01*
X299941Y58750D01*
X300174Y57579D01*
X300837Y56587D01*
X301829Y55924D01*
X303000Y55691D01*
X307500D01*
X307500Y55691D01*
X308671Y55924D01*
X309663Y56587D01*
X313517Y60441D01*
X335783D01*
X341441Y54783D01*
Y43550D01*
X341441Y43550D01*
X341674Y42380D01*
X342337Y41387D01*
X344742Y38983D01*
Y30920D01*
X343471Y30241D01*
X343323Y30340D01*
X342250Y30554D01*
X341177Y30340D01*
X340267Y29733D01*
X339660Y28823D01*
X339446Y27750D01*
X339660Y26677D01*
X340267Y25767D01*
X341177Y25160D01*
X342250Y24946D01*
X343323Y25160D01*
X343471Y25259D01*
X344742Y24580D01*
Y19982D01*
X344741Y19982D01*
X344974Y18812D01*
X345637Y17819D01*
X350620Y12837D01*
X351612Y12174D01*
X352782Y11941D01*
X356500D01*
X356500Y11941D01*
X357671Y12174D01*
X358663Y12837D01*
X359267Y13441D01*
X394733D01*
X400281Y7894D01*
X399755Y6624D01*
X374522D01*
X374515Y6626D01*
X374451Y6654D01*
X374379Y6693D01*
X374300Y6744D01*
X374214Y6809D01*
X374121Y6888D01*
X374002Y7004D01*
X373879Y7052D01*
X373073Y7591D01*
X372000Y7804D01*
X370927Y7591D01*
X370017Y6983D01*
X369409Y6073D01*
X369196Y5000D01*
X369409Y3927D01*
X369823Y3309D01*
X369463Y2302D01*
X369260Y2039D01*
X265255D01*
X264595Y3309D01*
X264840Y3677D01*
X265054Y4750D01*
X264840Y5823D01*
X264233Y6733D01*
X263323Y7340D01*
X262250Y7554D01*
X261177Y7340D01*
X260267Y6733D01*
X260264Y6727D01*
X258736D01*
X258733Y6733D01*
X257823Y7340D01*
X256750Y7554D01*
X255677Y7340D01*
X254767Y6733D01*
X254160Y5823D01*
X253946Y4750D01*
X254160Y3677D01*
X254405Y3309D01*
X253745Y2039D01*
X205256Y2039D01*
X204572Y3121D01*
X205131Y4168D01*
X207500D01*
X208265Y4485D01*
X208265Y4485D01*
X214515Y10735D01*
X214832Y11500D01*
Y22750D01*
X214515Y23516D01*
X214515Y23516D01*
X209538Y28493D01*
X209851Y29309D01*
X210109Y29718D01*
X211073Y29910D01*
X211983Y30517D01*
X212590Y31427D01*
X212804Y32500D01*
X212590Y33573D01*
X211983Y34483D01*
X211073Y35090D01*
X210000Y35304D01*
X208927Y35090D01*
X208017Y34483D01*
X206681Y34768D01*
X206573Y34840D01*
X205500Y35054D01*
X204890Y35715D01*
X205733Y36668D01*
X206500D01*
X207265Y36985D01*
X207265Y36985D01*
X209015Y38735D01*
X209332Y39500D01*
Y42750D01*
X209332Y42750D01*
X209312Y42800D01*
Y51748D01*
X210582Y52194D01*
X211250Y51918D01*
X214073D01*
X214250Y51883D01*
X214427Y51918D01*
X216250D01*
X217015Y52235D01*
X217015Y52235D01*
X218212Y53431D01*
X218576Y53674D01*
X226076Y61174D01*
X227402Y63159D01*
X227868Y65500D01*
Y70677D01*
X229041Y71163D01*
X236352Y63852D01*
D02*
G37*
G36*
X84257Y44074D02*
X84279Y43923D01*
X84315Y43772D01*
X84366Y43623D01*
X84431Y43474D01*
X84511Y43327D01*
X84605Y43181D01*
X84714Y43036D01*
X84837Y42892D01*
X84975Y42750D01*
X82525D01*
X82663Y42892D01*
X82786Y43036D01*
X82895Y43181D01*
X82989Y43327D01*
X83069Y43474D01*
X83134Y43623D01*
X83185Y43772D01*
X83221Y43923D01*
X83243Y44074D01*
X83250Y44227D01*
X84250D01*
X84257Y44074D01*
D02*
G37*
G36*
X208250Y42750D02*
Y39500D01*
X206500Y37750D01*
X201418Y37750D01*
X200250Y38918D01*
Y41000D01*
X204500Y45250D01*
X205750D01*
X208250Y42750D01*
D02*
G37*
G36*
X165869Y48881D02*
X165910Y48677D01*
X166517Y47767D01*
X167427Y47160D01*
X168500Y46946D01*
X169573Y47160D01*
X169708Y47250D01*
X172042D01*
X172177Y47160D01*
X173250Y46946D01*
X174323Y47160D01*
X175233Y47767D01*
X175840Y48677D01*
X176054Y49750D01*
X175962Y50212D01*
X176750Y51000D01*
X183500D01*
X185918Y48582D01*
Y36668D01*
X185212Y35962D01*
X184750Y36054D01*
X183677Y35840D01*
X182767Y35233D01*
X182160Y34323D01*
X181946Y33250D01*
X182038Y32788D01*
X180255Y31005D01*
X179427Y30840D01*
X178517Y30233D01*
X177910Y29323D01*
X177895Y29250D01*
X158500D01*
X142503Y45247D01*
X142554Y45500D01*
X142340Y46573D01*
X141733Y47483D01*
X140823Y48090D01*
X139750Y48304D01*
X138677Y48090D01*
X137767Y47483D01*
X137612Y47250D01*
X133888D01*
X133733Y47483D01*
X132823Y48091D01*
X131750Y48304D01*
X130677Y48091D01*
X129767Y47483D01*
X129160Y46573D01*
X129057Y46057D01*
X122500Y39500D01*
X122500Y31271D01*
X122446Y31000D01*
X122500Y30729D01*
X122500Y14750D01*
X109789Y2039D01*
X84211D01*
X82750Y3500D01*
X82750Y8750D01*
X86084Y12084D01*
X86733Y12517D01*
X87166Y13166D01*
X102000Y28000D01*
X104750Y30750D01*
X104750Y45000D01*
X115369Y55619D01*
X115573Y55660D01*
X116483Y56267D01*
X117090Y57177D01*
X117131Y57381D01*
X126500Y66750D01*
X148000D01*
X165869Y48881D01*
D02*
G37*
G36*
X94500Y36250D02*
X94500Y33000D01*
X93500Y32000D01*
X87250Y32000D01*
X86500Y32750D01*
Y37000D01*
X88750Y39250D01*
X91500D01*
X94500Y36250D01*
D02*
G37*
G36*
X113960Y60978D02*
X114267Y60518D01*
X115177Y59910D01*
X116141Y59718D01*
X116399Y59309D01*
X116713Y58493D01*
X116366Y58146D01*
X116245Y57855D01*
X116196Y57783D01*
X116190Y57778D01*
X115702Y57048D01*
X114972Y56560D01*
X114967Y56554D01*
X114895Y56505D01*
X114604Y56384D01*
X103985Y45765D01*
X103668Y45000D01*
X103668Y31198D01*
X102269Y29800D01*
X101392Y30127D01*
X101064Y30391D01*
Y38000D01*
X100811Y39268D01*
X100093Y40343D01*
X98314Y42123D01*
Y51746D01*
X101254Y54686D01*
X104500D01*
X105768Y54939D01*
X106843Y55657D01*
X112488Y61302D01*
X113960Y60978D01*
D02*
G37*
G36*
X129767Y43517D02*
X130234Y43206D01*
X130242Y43185D01*
Y41815D01*
X130234Y41795D01*
X129767Y41483D01*
X129160Y40573D01*
X128946Y39500D01*
X129160Y38427D01*
X129309Y38204D01*
X129667Y37250D01*
X129309Y36296D01*
X129160Y36073D01*
X128946Y35000D01*
X129160Y33927D01*
X129767Y33017D01*
X130677Y32410D01*
X131750Y32196D01*
X131895Y32225D01*
X132975Y31145D01*
X132946Y31000D01*
X132975Y30855D01*
X131895Y29775D01*
X131750Y29804D01*
X130677Y29590D01*
X129767Y28983D01*
X129160Y28073D01*
X128946Y27000D01*
X129160Y25927D01*
X129767Y25017D01*
Y24483D01*
X129160Y23573D01*
X128946Y22500D01*
X129160Y21427D01*
X129767Y20517D01*
X130234Y20206D01*
X130242Y20185D01*
Y18815D01*
X130234Y18794D01*
X129767Y18483D01*
X129160Y17573D01*
X128946Y16500D01*
X129160Y15427D01*
X129767Y14517D01*
X130677Y13910D01*
X131750Y13696D01*
X132823Y13910D01*
X133733Y14517D01*
X134340Y15427D01*
X134554Y16500D01*
X134340Y17573D01*
X133733Y18483D01*
X133266Y18794D01*
X133258Y18815D01*
Y20185D01*
X133266Y20206D01*
X133733Y20517D01*
X134340Y21427D01*
X134554Y22500D01*
X134340Y23573D01*
X133733Y24483D01*
Y25017D01*
X134340Y25927D01*
X134554Y27000D01*
X135678Y27532D01*
X135822D01*
X136946Y27000D01*
X137160Y25927D01*
X137309Y25704D01*
X137667Y24750D01*
X137309Y23796D01*
X137160Y23573D01*
X136946Y22500D01*
X137160Y21427D01*
X137767Y20517D01*
X138234Y20206D01*
X138242Y20185D01*
Y18815D01*
X138234Y18794D01*
X137767Y18483D01*
X137160Y17573D01*
X136946Y16500D01*
X137160Y15427D01*
X137767Y14517D01*
X138677Y13910D01*
X139750Y13696D01*
X140823Y13910D01*
X141733Y14517D01*
X142340Y15427D01*
X142554Y16500D01*
X142340Y17573D01*
X141733Y18483D01*
X141266Y18794D01*
X141258Y18815D01*
Y20185D01*
X141266Y20206D01*
X141733Y20517D01*
X142340Y21427D01*
X142554Y22500D01*
X142340Y23573D01*
X142191Y23796D01*
X141833Y24750D01*
X142191Y25704D01*
X142340Y25927D01*
X142554Y27000D01*
X142340Y28073D01*
X141733Y28983D01*
X140823Y29590D01*
X139750Y29804D01*
X139605Y29775D01*
X138525Y30855D01*
X138554Y31000D01*
X138525Y31145D01*
X139605Y32225D01*
X139750Y32196D01*
X140823Y32410D01*
X141733Y33017D01*
X142340Y33927D01*
X142554Y35000D01*
X142340Y36073D01*
X141733Y36983D01*
Y37517D01*
X142340Y38427D01*
X142554Y39500D01*
X142340Y40573D01*
X141733Y41483D01*
X141266Y41794D01*
X141258Y41815D01*
Y43185D01*
X141266Y43206D01*
X141733Y43517D01*
X142615Y43604D01*
X157735Y28485D01*
X158500Y28168D01*
X177712D01*
X177910Y27177D01*
X178517Y26267D01*
X179427Y25660D01*
X180500Y25446D01*
X181573Y25660D01*
X181623Y25693D01*
X182625Y26196D01*
X183626Y25693D01*
X183677Y25660D01*
X184750Y25446D01*
X185918Y24383D01*
Y13250D01*
X185917Y13250D01*
X186235Y12485D01*
X186235Y12485D01*
X188025Y10695D01*
X187399Y9524D01*
X187250Y9554D01*
X186177Y9340D01*
X185267Y8733D01*
X184660Y7823D01*
X184446Y6750D01*
X184660Y5677D01*
X185023Y5134D01*
X185020Y3605D01*
X183974Y2039D01*
X179740D01*
X179537Y2302D01*
X179177Y3309D01*
X179590Y3927D01*
X179804Y5000D01*
X179590Y6073D01*
X178983Y6983D01*
X178073Y7590D01*
X177000Y7804D01*
X175927Y7590D01*
X175017Y6983D01*
X174410Y6073D01*
X174196Y5000D01*
X174410Y3927D01*
X174823Y3309D01*
X174463Y2302D01*
X174260Y2039D01*
X141858D01*
X141169Y3060D01*
X141117Y3309D01*
X141304Y4250D01*
X141090Y5323D01*
X140483Y6233D01*
X139573Y6840D01*
X138500Y7054D01*
X137427Y6840D01*
X136517Y6233D01*
X136514Y6227D01*
X134986D01*
X134983Y6233D01*
X134073Y6840D01*
X133000Y7054D01*
X131927Y6840D01*
X131017Y6233D01*
X130409Y5323D01*
X130196Y4250D01*
X130383Y3309D01*
X130331Y3060D01*
X129642Y2039D01*
X112979D01*
X112493Y3212D01*
X123265Y13985D01*
X123582Y14750D01*
X123582Y30729D01*
X123540Y30831D01*
X123562Y30940D01*
X123550Y31000D01*
X123562Y31060D01*
X123540Y31169D01*
X123582Y31271D01*
X123582Y39052D01*
X128163Y43632D01*
X129767Y43517D01*
D02*
G37*
G36*
X126314Y108500D02*
X131250Y103564D01*
Y103250D01*
X134250Y100250D01*
X140750D01*
X143500Y97500D01*
X144834D01*
X145546Y96500D01*
X145446Y96000D01*
X145660Y94927D01*
X146267Y94017D01*
X147177Y93410D01*
X148250Y93196D01*
X149323Y93410D01*
X150233Y94017D01*
X150840Y94927D01*
X151054Y96000D01*
X150954Y96500D01*
X151666Y97500D01*
X161781Y97500D01*
X202500Y56781D01*
X202500Y44781D01*
X199485Y41765D01*
X199168Y41000D01*
Y38918D01*
X199276Y38655D01*
X199485Y38152D01*
X199485Y38152D01*
X200652Y36985D01*
X201418Y36668D01*
X202500D01*
Y34000D01*
X203017Y33483D01*
X202910Y33323D01*
X202696Y32250D01*
X202910Y31177D01*
X203517Y30267D01*
X204427Y29660D01*
X205500Y29446D01*
X206573Y29660D01*
X206733Y29767D01*
X213750Y22750D01*
Y11500D01*
X207500Y5250D01*
X195000D01*
X193483Y6767D01*
X194090Y7677D01*
X194304Y8750D01*
X194090Y9823D01*
X193483Y10733D01*
X192573Y11340D01*
X191500Y11554D01*
X190427Y11340D01*
X189517Y10733D01*
X187000Y13250D01*
Y26667D01*
X187340Y27177D01*
X187554Y28250D01*
X187340Y29323D01*
X187000Y29832D01*
Y31668D01*
X187340Y32177D01*
X187554Y33250D01*
X187340Y34323D01*
X187000Y34832D01*
Y49500D01*
X180000Y56500D01*
X178271Y56500D01*
X178098Y56616D01*
X177025Y56829D01*
X175952Y56616D01*
X175779Y56500D01*
X162000Y56500D01*
X149750Y68750D01*
X137250D01*
X123468Y82532D01*
X123093Y83093D01*
X117750Y88436D01*
X117750Y98195D01*
X118233Y98517D01*
X118841Y99427D01*
X119054Y100500D01*
X118841Y101573D01*
X118233Y102483D01*
X118354Y103604D01*
X123250Y108500D01*
X126314Y108500D01*
D02*
G37*
G36*
X373392Y6087D02*
X373536Y5964D01*
X373681Y5855D01*
X373827Y5761D01*
X373974Y5681D01*
X374123Y5616D01*
X374272Y5565D01*
X374423Y5529D01*
X374574Y5507D01*
X374727Y5500D01*
Y4500D01*
X374574Y4493D01*
X374423Y4471D01*
X374272Y4435D01*
X374123Y4384D01*
X373974Y4319D01*
X373827Y4239D01*
X373681Y4145D01*
X373536Y4036D01*
X373392Y3913D01*
X373250Y3775D01*
Y6225D01*
X373392Y6087D01*
D02*
G37*
%LPC*%
G36*
X243750Y292054D02*
X242677Y291840D01*
X241767Y291233D01*
X241160Y290323D01*
X239761Y289802D01*
X239750Y289804D01*
X238677Y289590D01*
X237767Y288983D01*
X236483Y288983D01*
X235573Y289590D01*
X234500Y289804D01*
X233427Y289590D01*
X232517Y288983D01*
X231910Y288073D01*
X231696Y287000D01*
X231910Y285927D01*
X232517Y285017D01*
X233427Y284410D01*
X234500Y284196D01*
X235573Y284410D01*
X236483Y285017D01*
X237767Y285017D01*
X238677Y284410D01*
X239750Y284196D01*
X240823Y284410D01*
X241733Y285017D01*
X242340Y285927D01*
X243739Y286448D01*
X243750Y286446D01*
X244823Y286660D01*
X245733Y287267D01*
X246340Y288177D01*
X246554Y289250D01*
X246340Y290323D01*
X245733Y291233D01*
X244823Y291840D01*
X243750Y292054D01*
D02*
G37*
G36*
X347750Y291804D02*
X346677Y291590D01*
X345767Y290983D01*
X345160Y290073D01*
X344946Y289000D01*
X345160Y287927D01*
X345767Y287017D01*
X346677Y286410D01*
X347750Y286196D01*
X348823Y286410D01*
X349733Y287017D01*
X350340Y287927D01*
X350554Y289000D01*
X350340Y290073D01*
X349733Y290983D01*
X348823Y291590D01*
X347750Y291804D01*
D02*
G37*
G36*
X212500Y290304D02*
X211427Y290090D01*
X210517Y289483D01*
X209910Y288573D01*
X209696Y287500D01*
X209910Y286427D01*
X210517Y285517D01*
X211427Y284910D01*
X212500Y284696D01*
X213573Y284910D01*
X214483Y285517D01*
X215090Y286427D01*
X215304Y287500D01*
X215090Y288573D01*
X214483Y289483D01*
X213573Y290090D01*
X212500Y290304D01*
D02*
G37*
G36*
X288750Y290054D02*
X287677Y289840D01*
X286767Y289233D01*
X286160Y288323D01*
X285946Y287250D01*
X286160Y286177D01*
X286767Y285267D01*
X287677Y284660D01*
X288750Y284446D01*
X289823Y284660D01*
X290733Y285267D01*
X291340Y286177D01*
X291554Y287250D01*
X291340Y288323D01*
X290733Y289233D01*
X289823Y289840D01*
X288750Y290054D01*
D02*
G37*
G36*
X190000Y289804D02*
X188927Y289590D01*
X188017Y288983D01*
X187409Y288073D01*
X187196Y287000D01*
X187409Y285927D01*
X188017Y285017D01*
X188927Y284410D01*
X190000Y284196D01*
X191073Y284410D01*
X191982Y285017D01*
X192590Y285927D01*
X192804Y287000D01*
X192590Y288073D01*
X191982Y288983D01*
X191073Y289590D01*
X190000Y289804D01*
D02*
G37*
G36*
X198750Y288304D02*
X197677Y288090D01*
X196767Y287483D01*
X196160Y286573D01*
X195946Y285500D01*
X196160Y284427D01*
X196767Y283517D01*
X197677Y282910D01*
X198750Y282696D01*
X199823Y282910D01*
X200733Y283517D01*
X201340Y284427D01*
X201554Y285500D01*
X201340Y286573D01*
X200733Y287483D01*
X199823Y288090D01*
X198750Y288304D01*
D02*
G37*
G36*
X147500Y287804D02*
X146427Y287590D01*
X145517Y286983D01*
X144910Y286073D01*
X144696Y285000D01*
X144910Y283927D01*
X145517Y283017D01*
X146427Y282410D01*
X147500Y282196D01*
X148573Y282410D01*
X149483Y283017D01*
X150090Y283927D01*
X150304Y285000D01*
X150090Y286073D01*
X149483Y286983D01*
X148573Y287590D01*
X147500Y287804D01*
D02*
G37*
G36*
X228500Y278054D02*
X227427Y277840D01*
X226517Y277233D01*
X225399Y277623D01*
X225073Y277840D01*
X224000Y278054D01*
X222927Y277840D01*
X222017Y277233D01*
X221410Y276323D01*
X221196Y275250D01*
X221410Y274177D01*
X222017Y273267D01*
X222927Y272659D01*
X224000Y272446D01*
X225073Y272659D01*
X225983Y273267D01*
X227101Y272877D01*
X227427Y272660D01*
X228500Y272446D01*
X229573Y272660D01*
X230483Y273267D01*
X231090Y274177D01*
X231304Y275250D01*
X231090Y276323D01*
X230483Y277233D01*
X229573Y277840D01*
X228500Y278054D01*
D02*
G37*
G36*
X358000Y283804D02*
X356927Y283590D01*
X356017Y282983D01*
X355410Y282073D01*
X355196Y281000D01*
X355410Y279927D01*
X355790Y279358D01*
X355932Y278500D01*
X355790Y277642D01*
X355410Y277073D01*
X355196Y276000D01*
X355410Y274927D01*
X356017Y274017D01*
X356927Y273410D01*
X358000Y273196D01*
X359073Y273410D01*
X359982Y274017D01*
X360590Y274927D01*
X360804Y276000D01*
X360590Y277073D01*
X360210Y277642D01*
X360068Y278500D01*
X360210Y279358D01*
X360590Y279927D01*
X360804Y281000D01*
X360590Y282073D01*
X359982Y282983D01*
X359073Y283590D01*
X358000Y283804D01*
D02*
G37*
G36*
X148000Y277304D02*
X146927Y277090D01*
X146017Y276483D01*
X145410Y275573D01*
X145196Y274500D01*
X145410Y273427D01*
X146017Y272517D01*
X146927Y271910D01*
X148000Y271696D01*
X149073Y271910D01*
X149983Y272517D01*
X150590Y273427D01*
X150804Y274500D01*
X150590Y275573D01*
X149983Y276483D01*
X149073Y277090D01*
X148000Y277304D01*
D02*
G37*
G36*
X358250Y271304D02*
X357177Y271091D01*
X356267Y270483D01*
X355659Y269573D01*
X355446Y268500D01*
X355659Y267427D01*
X356267Y266518D01*
X357177Y265910D01*
X358250Y265696D01*
X359323Y265910D01*
X360233Y266518D01*
X360840Y267427D01*
X361054Y268500D01*
X360840Y269573D01*
X360233Y270483D01*
X359323Y271091D01*
X358250Y271304D01*
D02*
G37*
G36*
X406000Y262554D02*
X404927Y262340D01*
X404017Y261733D01*
X403410Y260823D01*
X403196Y259750D01*
X403410Y258677D01*
X404017Y257767D01*
X404927Y257160D01*
X406000Y256946D01*
X407073Y257160D01*
X407983Y257767D01*
X408590Y258677D01*
X408804Y259750D01*
X408590Y260823D01*
X407983Y261733D01*
X407073Y262340D01*
X406000Y262554D01*
D02*
G37*
G36*
X145500Y259554D02*
X144427Y259340D01*
X143517Y258733D01*
X142910Y257823D01*
X142696Y256750D01*
X142910Y255677D01*
X143517Y254767D01*
X144427Y254160D01*
X145500Y253946D01*
X146573Y254160D01*
X147483Y254767D01*
X148090Y255677D01*
X148304Y256750D01*
X148090Y257823D01*
X147483Y258733D01*
X146573Y259340D01*
X145500Y259554D01*
D02*
G37*
G36*
X153500Y258804D02*
X152427Y258590D01*
X151517Y257983D01*
X150910Y257073D01*
X150696Y256000D01*
X150910Y254927D01*
X151517Y254017D01*
X152427Y253410D01*
X153500Y253196D01*
X154573Y253410D01*
X155483Y254017D01*
X156090Y254927D01*
X156304Y256000D01*
X156090Y257073D01*
X155483Y257983D01*
X154573Y258590D01*
X153500Y258804D01*
D02*
G37*
G36*
X233500Y256804D02*
X232427Y256590D01*
X231517Y255983D01*
X230910Y255073D01*
X230696Y254000D01*
X230910Y252927D01*
X231517Y252017D01*
X232427Y251410D01*
X233500Y251196D01*
X234573Y251410D01*
X235483Y252017D01*
X236090Y252927D01*
X236304Y254000D01*
X236090Y255073D01*
X235483Y255983D01*
X234573Y256590D01*
X233500Y256804D01*
D02*
G37*
G36*
X402000Y249804D02*
X400927Y249590D01*
X400017Y248983D01*
X399410Y248073D01*
X399196Y247000D01*
X399410Y245927D01*
X400017Y245017D01*
X400927Y244410D01*
X402000Y244196D01*
X403073Y244410D01*
X403983Y245017D01*
X404590Y245927D01*
X404804Y247000D01*
X404590Y248073D01*
X403983Y248983D01*
X403073Y249590D01*
X402000Y249804D01*
D02*
G37*
G36*
X149250Y248504D02*
X148177Y248290D01*
X147268Y247683D01*
X146660Y246773D01*
X146446Y245700D01*
X146660Y244627D01*
X147268Y243717D01*
X148177Y243110D01*
X149250Y242896D01*
X150323Y243110D01*
X151233Y243717D01*
X151840Y244627D01*
X152054Y245700D01*
X151840Y246773D01*
X151233Y247683D01*
X150323Y248290D01*
X149250Y248504D01*
D02*
G37*
G36*
X156750Y246554D02*
X155677Y246341D01*
X154767Y245733D01*
X154160Y244823D01*
X153946Y243750D01*
X154160Y242677D01*
X154767Y241767D01*
X155677Y241160D01*
X156750Y240946D01*
X157823Y241160D01*
X158733Y241767D01*
X159340Y242677D01*
X159554Y243750D01*
X159340Y244823D01*
X158733Y245733D01*
X157823Y246341D01*
X156750Y246554D01*
D02*
G37*
G36*
X381750Y242304D02*
X380677Y242090D01*
X379767Y241483D01*
X379160Y240573D01*
X378946Y239500D01*
X379160Y238427D01*
X379767Y237517D01*
X380677Y236910D01*
X381750Y236696D01*
X382823Y236910D01*
X383733Y237517D01*
X384340Y238427D01*
X384554Y239500D01*
X384340Y240573D01*
X383733Y241483D01*
X382823Y242090D01*
X381750Y242304D01*
D02*
G37*
G36*
X151050Y239804D02*
X149977Y239590D01*
X149067Y238983D01*
X148460Y238073D01*
X148246Y237000D01*
X148460Y235927D01*
X149067Y235017D01*
X149977Y234410D01*
X151050Y234196D01*
X152123Y234410D01*
X153033Y235017D01*
X153640Y235927D01*
X153854Y237000D01*
X153640Y238073D01*
X153033Y238983D01*
X152123Y239590D01*
X151050Y239804D01*
D02*
G37*
G36*
X138500Y237554D02*
X137427Y237340D01*
X136517Y236733D01*
X135910Y235823D01*
X135696Y234750D01*
X135910Y233677D01*
X136517Y232767D01*
X137427Y232160D01*
X138500Y231946D01*
X139573Y232160D01*
X140483Y232767D01*
X141090Y233677D01*
X141304Y234750D01*
X141090Y235823D01*
X140483Y236733D01*
X139573Y237340D01*
X138500Y237554D01*
D02*
G37*
G36*
X413750Y234304D02*
X412677Y234090D01*
X411768Y233483D01*
X411160Y232573D01*
X410946Y231500D01*
X411160Y230427D01*
X411768Y229517D01*
X412677Y228910D01*
X413750Y228696D01*
X414823Y228910D01*
X415733Y229517D01*
X416341Y230427D01*
X416554Y231500D01*
X416341Y232573D01*
X415733Y233483D01*
X414823Y234090D01*
X413750Y234304D01*
D02*
G37*
G36*
X251500Y233054D02*
X250427Y232840D01*
X249517Y232233D01*
X248910Y231323D01*
X248696Y230250D01*
X248910Y229177D01*
X249517Y228267D01*
X250427Y227660D01*
X251500Y227446D01*
X252573Y227660D01*
X253483Y228267D01*
X254090Y229177D01*
X254304Y230250D01*
X254090Y231323D01*
X253483Y232233D01*
X252573Y232840D01*
X251500Y233054D01*
D02*
G37*
G36*
X343000Y226554D02*
X341927Y226340D01*
X341017Y225733D01*
X340483D01*
X339573Y226340D01*
X338500Y226554D01*
X337427Y226340D01*
X336517Y225733D01*
X335910Y224823D01*
X335696Y223750D01*
X335910Y222677D01*
X336517Y221767D01*
X337427Y221160D01*
X338500Y220946D01*
X339573Y221160D01*
X340483Y221767D01*
X341017D01*
X341927Y221160D01*
X343000Y220946D01*
X343825Y221110D01*
X344434Y220502D01*
X344665Y220081D01*
X344660Y220073D01*
X344446Y219000D01*
X344660Y217927D01*
X345267Y217017D01*
X346177Y216410D01*
X347250Y216196D01*
X348323Y216410D01*
X349233Y217017D01*
X349840Y217927D01*
X350054Y219000D01*
X349840Y220073D01*
X349233Y220983D01*
X348323Y221590D01*
X347250Y221804D01*
X346425Y221640D01*
X345816Y222248D01*
X345585Y222669D01*
X345590Y222677D01*
X345804Y223750D01*
X345590Y224823D01*
X344983Y225733D01*
X344073Y226340D01*
X343000Y226554D01*
D02*
G37*
G36*
X317250Y224354D02*
X316177Y224140D01*
X315268Y223533D01*
X314660Y222623D01*
X314446Y221550D01*
X314660Y220477D01*
X315268Y219567D01*
X316177Y218960D01*
X317250Y218746D01*
X318323Y218960D01*
X319233Y219567D01*
X319841Y220477D01*
X320054Y221550D01*
X319841Y222623D01*
X319233Y223533D01*
X318323Y224140D01*
X317250Y224354D01*
D02*
G37*
G36*
X142000Y221804D02*
X140927Y221590D01*
X140017Y220983D01*
X139410Y220073D01*
X139196Y219000D01*
X139410Y217927D01*
X140017Y217017D01*
X140927Y216410D01*
X142000Y216196D01*
X143073Y216410D01*
X143983Y217017D01*
X144590Y217927D01*
X144804Y219000D01*
X144590Y220073D01*
X143983Y220983D01*
X143073Y221590D01*
X142000Y221804D01*
D02*
G37*
G36*
X391500Y225054D02*
X390427Y224840D01*
X389517Y224233D01*
X388910Y223323D01*
X388696Y222250D01*
X388910Y221177D01*
X388943Y221126D01*
X389446Y220125D01*
X388943Y219123D01*
X388910Y219073D01*
X388696Y218000D01*
X388910Y216927D01*
X389517Y216017D01*
X390427Y215410D01*
X391500Y215196D01*
X392573Y215410D01*
X393483Y216017D01*
X394090Y216927D01*
X394304Y218000D01*
X394090Y219073D01*
X394057Y219123D01*
X393554Y220125D01*
X394057Y221126D01*
X394090Y221177D01*
X394304Y222250D01*
X394090Y223323D01*
X393483Y224233D01*
X392573Y224840D01*
X391500Y225054D01*
D02*
G37*
G36*
X235000Y210554D02*
X233927Y210340D01*
X233017Y209733D01*
X232410Y208823D01*
X232196Y207750D01*
X232410Y206677D01*
X233017Y205767D01*
X233927Y205160D01*
X235000Y204946D01*
X236073Y205160D01*
X236983Y205767D01*
X237590Y206677D01*
X237804Y207750D01*
X237590Y208823D01*
X236983Y209733D01*
X236073Y210340D01*
X235000Y210554D01*
D02*
G37*
G36*
X217500Y209191D02*
X216427Y208977D01*
X215517Y208370D01*
X214910Y207460D01*
X214696Y206387D01*
X214910Y205314D01*
X215517Y204404D01*
X216427Y203796D01*
X217500Y203583D01*
X218573Y203796D01*
X219483Y204404D01*
X220091Y205314D01*
X220304Y206387D01*
X220091Y207460D01*
X219483Y208370D01*
X218573Y208977D01*
X217500Y209191D01*
D02*
G37*
G36*
X337250Y207230D02*
X336177Y207017D01*
X335267Y206409D01*
X334660Y205499D01*
X334446Y204426D01*
X334660Y203353D01*
X335267Y202443D01*
X336177Y201836D01*
X337250Y201622D01*
X338323Y201836D01*
X339232Y202443D01*
X339840Y203353D01*
X340054Y204426D01*
X339840Y205499D01*
X339232Y206409D01*
X338323Y207017D01*
X337250Y207230D01*
D02*
G37*
G36*
X319305Y206205D02*
X318232Y205991D01*
X317322Y205383D01*
X316715Y204474D01*
X316501Y203401D01*
X315975Y202875D01*
X314902Y202661D01*
X313992Y202053D01*
X313385Y201144D01*
X313171Y200071D01*
X313385Y198998D01*
X313992Y198088D01*
X314902Y197480D01*
X315975Y197267D01*
X317048Y197480D01*
X317958Y198088D01*
X318565Y198998D01*
X318779Y200071D01*
X319305Y200597D01*
X320378Y200810D01*
X321288Y201418D01*
X321895Y202328D01*
X322109Y203401D01*
X321895Y204474D01*
X321288Y205383D01*
X320378Y205991D01*
X319305Y206205D01*
D02*
G37*
G36*
X427250Y194554D02*
X426177Y194340D01*
X425267Y193733D01*
X424660Y192823D01*
X424446Y191750D01*
X424660Y190677D01*
X425267Y189767D01*
X426177Y189160D01*
X427250Y188946D01*
X428323Y189160D01*
X429233Y189767D01*
X429841Y190677D01*
X430054Y191750D01*
X429841Y192823D01*
X429233Y193733D01*
X428323Y194340D01*
X427250Y194554D01*
D02*
G37*
G36*
X351601Y192695D02*
X350528Y192482D01*
X349619Y191874D01*
X349011Y190965D01*
X348797Y189891D01*
X349011Y188818D01*
X349619Y187909D01*
X350528Y187301D01*
X351601Y187088D01*
X352674Y187301D01*
X353584Y187909D01*
X354192Y188818D01*
X354405Y189891D01*
X354192Y190965D01*
X353584Y191874D01*
X352674Y192482D01*
X351601Y192695D01*
D02*
G37*
G36*
X90750Y188304D02*
X89677Y188090D01*
X88767Y187483D01*
X88160Y186573D01*
X87946Y185500D01*
X88160Y184427D01*
X88767Y183517D01*
X89677Y182910D01*
X90750Y182696D01*
X91823Y182910D01*
X92733Y183517D01*
X93340Y184427D01*
X93554Y185500D01*
X93340Y186573D01*
X92733Y187483D01*
X91823Y188090D01*
X90750Y188304D01*
D02*
G37*
G36*
X394500Y189554D02*
X393427Y189340D01*
X392517Y188733D01*
X391910Y187823D01*
X391696Y186750D01*
X391910Y185677D01*
X392059Y185454D01*
X392417Y184500D01*
X392059Y183546D01*
X391910Y183323D01*
X391696Y182250D01*
X391910Y181177D01*
X392517Y180267D01*
X393427Y179660D01*
X394500Y179446D01*
X395573Y179660D01*
X396483Y180267D01*
X397090Y181177D01*
X397304Y182250D01*
X397090Y183323D01*
X396941Y183546D01*
X396583Y184500D01*
X396941Y185454D01*
X397090Y185677D01*
X397304Y186750D01*
X397090Y187823D01*
X396483Y188733D01*
X395573Y189340D01*
X394500Y189554D01*
D02*
G37*
G36*
X350250Y184054D02*
X349177Y183840D01*
X348267Y183233D01*
X347660Y182323D01*
X347446Y181250D01*
X347660Y180177D01*
X348267Y179267D01*
X349177Y178660D01*
X350250Y178446D01*
X351323Y178660D01*
X352233Y179267D01*
X352840Y180177D01*
X353054Y181250D01*
X352840Y182323D01*
X352233Y183233D01*
X351323Y183840D01*
X350250Y184054D01*
D02*
G37*
G36*
X422500Y179804D02*
X421427Y179590D01*
X420517Y178983D01*
X419910Y178073D01*
X419785Y177445D01*
X419578Y176951D01*
X418500Y176504D01*
X418250Y176554D01*
X417177Y176340D01*
X416267Y175733D01*
X415660Y174823D01*
X415446Y173750D01*
X415660Y172677D01*
X416267Y171767D01*
X417177Y171160D01*
X418250Y170946D01*
X419323Y171160D01*
X420233Y171767D01*
X420840Y172677D01*
X420965Y173305D01*
X421172Y173799D01*
X422250Y174246D01*
X422500Y174196D01*
X423573Y174410D01*
X424483Y175017D01*
X425090Y175927D01*
X425304Y177000D01*
X425090Y178073D01*
X424483Y178983D01*
X423573Y179590D01*
X422500Y179804D01*
D02*
G37*
G36*
X200300Y179104D02*
X199227Y178890D01*
X198317Y178283D01*
X197710Y177373D01*
X197496Y176300D01*
X197710Y175227D01*
X198317Y174317D01*
X199227Y173710D01*
X200300Y173496D01*
X201373Y173710D01*
X202283Y174317D01*
X202890Y175227D01*
X203104Y176300D01*
X202890Y177373D01*
X202283Y178283D01*
X201373Y178890D01*
X200300Y179104D01*
D02*
G37*
G36*
X403500Y180554D02*
X402427Y180340D01*
X401517Y179733D01*
X400910Y178823D01*
X400696Y177750D01*
X400910Y176677D01*
X401517Y175767D01*
X402427Y175160D01*
X403500Y174946D01*
X404710Y173927D01*
X405318Y173018D01*
X406227Y172410D01*
X407300Y172196D01*
X408373Y172410D01*
X409283Y173018D01*
X409891Y173927D01*
X410104Y175000D01*
X409891Y176073D01*
X409283Y176983D01*
X408373Y177591D01*
X407300Y177804D01*
X406090Y178823D01*
X405483Y179733D01*
X404573Y180340D01*
X403500Y180554D01*
D02*
G37*
G36*
X147509Y176304D02*
X146437Y176090D01*
X145527Y175483D01*
X144919Y174573D01*
X144706Y173500D01*
X144919Y172427D01*
X145299Y171858D01*
X145441Y171000D01*
X145299Y170142D01*
X144919Y169573D01*
X144706Y168500D01*
X144919Y167427D01*
X145527Y166517D01*
X146437Y165910D01*
X147509Y165696D01*
X148582Y165910D01*
X149492Y166517D01*
X150100Y167427D01*
X150313Y168500D01*
X150100Y169573D01*
X149720Y170142D01*
X149578Y171000D01*
X149720Y171858D01*
X150100Y172427D01*
X150313Y173500D01*
X150100Y174573D01*
X149492Y175483D01*
X148582Y176090D01*
X147509Y176304D01*
D02*
G37*
G36*
X137509Y171304D02*
X136437Y171090D01*
X135527Y170483D01*
X134919Y169573D01*
X134706Y168500D01*
X134919Y167427D01*
X135527Y166517D01*
X136437Y165910D01*
X137509Y165696D01*
X138582Y165910D01*
X139492Y166517D01*
X140100Y167427D01*
X140313Y168500D01*
X140100Y169573D01*
X139492Y170483D01*
X138582Y171090D01*
X137509Y171304D01*
D02*
G37*
G36*
X127509D02*
X126437Y171090D01*
X125527Y170483D01*
X124919Y169573D01*
X124706Y168500D01*
X124919Y167427D01*
X125527Y166517D01*
X126437Y165910D01*
X127509Y165696D01*
X128582Y165910D01*
X129492Y166517D01*
X130100Y167427D01*
X130313Y168500D01*
X130100Y169573D01*
X129492Y170483D01*
X128582Y171090D01*
X127509Y171304D01*
D02*
G37*
G36*
X162509Y161304D02*
X161437Y161090D01*
X160527Y160483D01*
X159492D01*
X158582Y161090D01*
X157509Y161304D01*
X156437Y161090D01*
X155527Y160483D01*
X154919Y159573D01*
X154706Y158500D01*
X154919Y157427D01*
X155527Y156517D01*
X156437Y155910D01*
X157509Y155696D01*
X158582Y155910D01*
X159492Y156517D01*
X160527D01*
X161437Y155910D01*
X162509Y155696D01*
X163582Y155910D01*
X164492Y156517D01*
X165100Y157427D01*
X165313Y158500D01*
X165100Y159573D01*
X164492Y160483D01*
X163582Y161090D01*
X162509Y161304D01*
D02*
G37*
G36*
X347250Y161804D02*
X346177Y161590D01*
X345267Y160983D01*
X344660Y160073D01*
X344446Y159000D01*
X344660Y157927D01*
X345267Y157017D01*
X346177Y156410D01*
X347250Y156196D01*
X348323Y156410D01*
X349233Y157017D01*
X349840Y157927D01*
X350054Y159000D01*
X349840Y160073D01*
X349233Y160983D01*
X348323Y161590D01*
X347250Y161804D01*
D02*
G37*
G36*
X142509Y161304D02*
X141437Y161090D01*
X140527Y160483D01*
X139919Y159573D01*
X139706Y158500D01*
X139919Y157427D01*
X140527Y156517D01*
X141437Y155910D01*
X142509Y155696D01*
X143582Y155910D01*
X144492Y156517D01*
X145100Y157427D01*
X145313Y158500D01*
X145100Y159573D01*
X144492Y160483D01*
X143582Y161090D01*
X142509Y161304D01*
D02*
G37*
G36*
X123000Y166054D02*
X121927Y165840D01*
X121017Y165233D01*
X120410Y164323D01*
X120196Y163250D01*
X120410Y162177D01*
X121017Y161267D01*
X121927Y160660D01*
X123000Y160446D01*
X124073Y160660D01*
X124154Y160714D01*
X125069Y159798D01*
X124919Y159573D01*
X124706Y158500D01*
X124919Y157427D01*
X125527Y156517D01*
X126437Y155910D01*
X127509Y155696D01*
X128582Y155910D01*
X129492Y156517D01*
X130100Y157427D01*
X130313Y158500D01*
X130100Y159573D01*
X129492Y160483D01*
X128582Y161090D01*
X127509Y161304D01*
X126437Y161090D01*
X126356Y161036D01*
X125440Y161952D01*
X125590Y162177D01*
X125804Y163250D01*
X125590Y164323D01*
X124983Y165233D01*
X124073Y165840D01*
X123000Y166054D01*
D02*
G37*
G36*
X216250Y164304D02*
X215177Y164090D01*
X214267Y163483D01*
X213660Y162573D01*
X213446Y161500D01*
X213660Y160427D01*
X214267Y159517D01*
X215177Y158910D01*
X215612Y158823D01*
X215880Y157475D01*
X215517Y157233D01*
X214910Y156323D01*
X214696Y155250D01*
X214910Y154177D01*
X215517Y153267D01*
X216427Y152660D01*
X217500Y152446D01*
X218573Y152660D01*
X219483Y153267D01*
X220090Y154177D01*
X220304Y155250D01*
X220090Y156323D01*
X219483Y157233D01*
X218573Y157840D01*
X218138Y157927D01*
X217870Y159275D01*
X218233Y159517D01*
X218840Y160427D01*
X219054Y161500D01*
X218840Y162573D01*
X218233Y163483D01*
X217323Y164090D01*
X216250Y164304D01*
D02*
G37*
G36*
X137509Y156304D02*
X136437Y156090D01*
X135527Y155483D01*
X134919Y154573D01*
X134706Y153500D01*
X134919Y152427D01*
X135527Y151517D01*
X136437Y150910D01*
X137509Y150696D01*
X138582Y150910D01*
X139492Y151517D01*
X140100Y152427D01*
X140313Y153500D01*
X140100Y154573D01*
X139492Y155483D01*
X138582Y156090D01*
X137509Y156304D01*
D02*
G37*
G36*
X373050Y151304D02*
X371977Y151090D01*
X371067Y150483D01*
X370460Y149573D01*
X370246Y148500D01*
X370460Y147427D01*
X371067Y146517D01*
X371977Y145910D01*
X373050Y145696D01*
X374123Y145910D01*
X375033Y146517D01*
X375640Y147427D01*
X375854Y148500D01*
X375640Y149573D01*
X375033Y150483D01*
X374123Y151090D01*
X373050Y151304D01*
D02*
G37*
G36*
X152645D02*
X151572Y151090D01*
X150662Y150483D01*
X150054Y149573D01*
X149841Y148500D01*
X150054Y147427D01*
X150662Y146517D01*
X151572Y145910D01*
X152645Y145696D01*
X153718Y145910D01*
X154627Y146517D01*
X155235Y147427D01*
X155449Y148500D01*
X155235Y149573D01*
X154627Y150483D01*
X153718Y151090D01*
X152645Y151304D01*
D02*
G37*
G36*
X122509D02*
X121437Y151090D01*
X120527Y150483D01*
X119919Y149573D01*
X119706Y148500D01*
X119919Y147427D01*
X120527Y146517D01*
X121437Y145910D01*
X122509Y145696D01*
X123582Y145910D01*
X124492Y146517D01*
X125100Y147427D01*
X125313Y148500D01*
X125100Y149573D01*
X124492Y150483D01*
X123582Y151090D01*
X122509Y151304D01*
D02*
G37*
G36*
X357000Y150804D02*
X355927Y150590D01*
X355017Y149983D01*
X354409Y149073D01*
X354196Y148000D01*
X354409Y146927D01*
X355017Y146017D01*
X355927Y145410D01*
X357000Y145196D01*
X358073Y145410D01*
X358983Y146017D01*
X359590Y146927D01*
X359804Y148000D01*
X359590Y149073D01*
X358983Y149983D01*
X358073Y150590D01*
X357000Y150804D01*
D02*
G37*
G36*
X127509Y146304D02*
X126437Y146090D01*
X125527Y145483D01*
X124919Y144573D01*
X124706Y143500D01*
X124919Y142427D01*
X125527Y141517D01*
X126437Y140910D01*
X127509Y140696D01*
X128582Y140910D01*
X129492Y141517D01*
X130100Y142427D01*
X130313Y143500D01*
X130100Y144573D01*
X129492Y145483D01*
X128582Y146090D01*
X127509Y146304D01*
D02*
G37*
G36*
X157509Y146304D02*
X156437Y146090D01*
X155527Y145483D01*
X154919Y144573D01*
X154706Y143500D01*
X154919Y142427D01*
X155527Y141517D01*
X156437Y140910D01*
X157509Y140696D01*
X158582Y140910D01*
X159492Y141517D01*
X160100Y142427D01*
X160313Y143500D01*
X160100Y144573D01*
X159492Y145483D01*
X158582Y146090D01*
X157509Y146304D01*
D02*
G37*
G36*
X137509D02*
X136437Y146090D01*
X135527Y145483D01*
X134919Y144573D01*
X134706Y143500D01*
X134919Y142427D01*
X135527Y141517D01*
X136437Y140910D01*
X137509Y140696D01*
X138582Y140910D01*
X139492Y141517D01*
X140100Y142427D01*
X140313Y143500D01*
X140100Y144573D01*
X139492Y145483D01*
X138582Y146090D01*
X137509Y146304D01*
D02*
G37*
G36*
X162509Y141304D02*
X161437Y141090D01*
X160527Y140483D01*
X159919Y139573D01*
X159706Y138500D01*
X159919Y137427D01*
X160527Y136517D01*
X161437Y135910D01*
X162509Y135696D01*
X163582Y135910D01*
X164492Y136517D01*
X165100Y137427D01*
X165313Y138500D01*
X165100Y139573D01*
X164492Y140483D01*
X163582Y141090D01*
X162509Y141304D01*
D02*
G37*
G36*
X142509D02*
X141437Y141090D01*
X140527Y140483D01*
X139919Y139573D01*
X139706Y138500D01*
X139919Y137427D01*
X140527Y136517D01*
X141437Y135910D01*
X142509Y135696D01*
X143582Y135910D01*
X144492Y136517D01*
X145100Y137427D01*
X145313Y138500D01*
X145100Y139573D01*
X144492Y140483D01*
X143582Y141090D01*
X142509Y141304D01*
D02*
G37*
G36*
X414750Y137054D02*
X413677Y136840D01*
X412767Y136233D01*
X412160Y135323D01*
X411946Y134250D01*
X412160Y133177D01*
X412767Y132267D01*
X413677Y131660D01*
X414750Y131446D01*
X415823Y131660D01*
X416733Y132267D01*
X417340Y133177D01*
X417554Y134250D01*
X417340Y135323D01*
X416733Y136233D01*
X415823Y136840D01*
X414750Y137054D01*
D02*
G37*
G36*
X157509Y136304D02*
X156437Y136090D01*
X155527Y135483D01*
X154919Y134573D01*
X154706Y133500D01*
X154919Y132427D01*
X155527Y131517D01*
X156437Y130910D01*
X157509Y130696D01*
X158582Y130910D01*
X159492Y131517D01*
X160100Y132427D01*
X160313Y133500D01*
X160100Y134573D01*
X159492Y135483D01*
X158582Y136090D01*
X157509Y136304D01*
D02*
G37*
G36*
X147509Y136304D02*
X146437Y136090D01*
X145527Y135483D01*
X144919Y134573D01*
X144706Y133500D01*
X144919Y132427D01*
X145527Y131517D01*
X146437Y130910D01*
X147509Y130696D01*
X148582Y130910D01*
X149492Y131517D01*
X150100Y132427D01*
X150313Y133500D01*
X150100Y134573D01*
X149492Y135483D01*
X148582Y136090D01*
X147509Y136304D01*
D02*
G37*
G36*
X84250Y134554D02*
X83177Y134340D01*
X82267Y133733D01*
X81660Y132823D01*
X81446Y131750D01*
X81660Y130677D01*
X82267Y129767D01*
X83177Y129159D01*
X84250Y128946D01*
X85323Y129159D01*
X86233Y129767D01*
X86840Y130677D01*
X87054Y131750D01*
X86840Y132823D01*
X86233Y133733D01*
X85323Y134340D01*
X84250Y134554D01*
D02*
G37*
G36*
X162509Y131304D02*
X161437Y131090D01*
X160527Y130483D01*
X159919Y129573D01*
X159706Y128500D01*
X159919Y127427D01*
X160527Y126517D01*
X161437Y125910D01*
X162509Y125696D01*
X163582Y125910D01*
X164492Y126517D01*
X165100Y127427D01*
X165313Y128500D01*
X165100Y129573D01*
X164492Y130483D01*
X163582Y131090D01*
X162509Y131304D01*
D02*
G37*
G36*
X222250Y129054D02*
X221177Y128840D01*
X220267Y128233D01*
X219660Y127323D01*
X219446Y126250D01*
X219660Y125177D01*
X220267Y124267D01*
X221177Y123660D01*
X222250Y123446D01*
X223323Y123660D01*
X224233Y124267D01*
X224840Y125177D01*
X225054Y126250D01*
X224840Y127323D01*
X224233Y128233D01*
X223323Y128840D01*
X222250Y129054D01*
D02*
G37*
G36*
X378500Y127554D02*
X377427Y127340D01*
X376517Y126733D01*
X375910Y125823D01*
X375696Y124750D01*
X375910Y123677D01*
X376517Y122767D01*
X377427Y122160D01*
X378500Y121946D01*
X379573Y122160D01*
X380483Y122767D01*
X381090Y123677D01*
X381304Y124750D01*
X381090Y125823D01*
X380483Y126733D01*
X379573Y127340D01*
X378500Y127554D01*
D02*
G37*
G36*
X398785Y118404D02*
X397712Y118190D01*
X396802Y117583D01*
X396195Y116673D01*
X395981Y115600D01*
X396195Y114527D01*
X396802Y113617D01*
X397712Y113010D01*
X398785Y112796D01*
X399858Y113010D01*
X400690Y113566D01*
X400833Y113610D01*
X402181Y113446D01*
X402467Y113017D01*
X403377Y112410D01*
X404450Y112196D01*
X405523Y112410D01*
X406433Y113017D01*
X407040Y113927D01*
X407254Y115000D01*
X407040Y116073D01*
X406433Y116983D01*
X405523Y117590D01*
X404450Y117804D01*
X403377Y117590D01*
X402545Y117035D01*
X402402Y116990D01*
X401054Y117154D01*
X400768Y117583D01*
X399858Y118190D01*
X398785Y118404D01*
D02*
G37*
G36*
X448500Y117454D02*
X447427Y117240D01*
X446517Y116632D01*
X445910Y115723D01*
X445696Y114650D01*
X445910Y113577D01*
X446517Y112667D01*
X447427Y112059D01*
X448500Y111846D01*
X449573Y112059D01*
X450483Y112667D01*
X451091Y113577D01*
X451304Y114650D01*
X451091Y115723D01*
X450483Y116632D01*
X449573Y117240D01*
X448500Y117454D01*
D02*
G37*
G36*
X417000Y117054D02*
X415927Y116840D01*
X415017Y116233D01*
X414410Y115323D01*
X414196Y114250D01*
X414410Y113177D01*
X415017Y112267D01*
X415927Y111660D01*
X417000Y111446D01*
X418073Y111660D01*
X418983Y112267D01*
X419590Y113177D01*
X419804Y114250D01*
X419590Y115323D01*
X418983Y116233D01*
X418073Y116840D01*
X417000Y117054D01*
D02*
G37*
G36*
X385750Y113054D02*
X384677Y112840D01*
X383767Y112233D01*
X383160Y111323D01*
X382946Y110250D01*
X383160Y109177D01*
X383767Y108267D01*
X384677Y107660D01*
X385750Y107446D01*
X386823Y107660D01*
X387733Y108267D01*
X388340Y109177D01*
X388554Y110250D01*
X388340Y111323D01*
X387733Y112233D01*
X386823Y112840D01*
X385750Y113054D01*
D02*
G37*
G36*
X299325Y112964D02*
X298252Y112751D01*
X297342Y112143D01*
X296735Y111233D01*
X296521Y110160D01*
X296735Y109087D01*
X297342Y108177D01*
X298252Y107570D01*
X299325Y107356D01*
X299851Y106830D01*
X300065Y105757D01*
X300672Y104847D01*
X301582Y104240D01*
X302655Y104026D01*
X303728Y104240D01*
X304638Y104847D01*
X305245Y105757D01*
X305459Y106830D01*
X305245Y107903D01*
X304638Y108813D01*
X303728Y109420D01*
X302655Y109634D01*
X302129Y110160D01*
X301915Y111233D01*
X301308Y112143D01*
X300398Y112751D01*
X299325Y112964D01*
D02*
G37*
G36*
X442750Y113804D02*
X441677Y113590D01*
X440768Y112983D01*
X440160Y112073D01*
X439946Y111000D01*
X440160Y109927D01*
X440768Y109017D01*
X440960Y108889D01*
Y107361D01*
X440768Y107232D01*
X440160Y106323D01*
X439946Y105250D01*
X440160Y104177D01*
X440768Y103267D01*
X441677Y102659D01*
X442065Y102582D01*
X442788Y102246D01*
X442986Y101202D01*
X442946Y101000D01*
X443159Y99927D01*
X443767Y99017D01*
X444677Y98410D01*
X445750Y98196D01*
X446823Y98410D01*
X447733Y99017D01*
X448340Y99927D01*
X448554Y101000D01*
X448340Y102073D01*
X447733Y102983D01*
X446823Y103590D01*
X446436Y103667D01*
X445712Y104004D01*
X445514Y105047D01*
X445554Y105250D01*
X445340Y106323D01*
X444733Y107232D01*
X444540Y107361D01*
Y108889D01*
X444733Y109017D01*
X445341Y109927D01*
X445554Y111000D01*
X445341Y112073D01*
X444733Y112983D01*
X443823Y113590D01*
X442750Y113804D01*
D02*
G37*
G36*
X410500Y102554D02*
X409427Y102340D01*
X408517Y101733D01*
X407910Y100823D01*
X407696Y99750D01*
X407910Y98677D01*
X408517Y97767D01*
X409427Y97160D01*
X410500Y96946D01*
X411573Y97160D01*
X412483Y97767D01*
X413090Y98677D01*
X413304Y99750D01*
X413090Y100823D01*
X412483Y101733D01*
X411573Y102340D01*
X410500Y102554D01*
D02*
G37*
G36*
X335955Y102974D02*
X334882Y102760D01*
X333973Y102153D01*
X333365Y101243D01*
X333151Y100170D01*
X333365Y99097D01*
X333973Y98187D01*
X334882Y97580D01*
X335955Y97366D01*
X336481Y96840D01*
X336695Y95767D01*
X337303Y94857D01*
X338212Y94250D01*
X339285Y94036D01*
X340358Y94250D01*
X341268Y94857D01*
X341876Y95767D01*
X342089Y96840D01*
X341876Y97913D01*
X341268Y98823D01*
X340358Y99430D01*
X339285Y99644D01*
X338759Y100170D01*
X338546Y101243D01*
X337938Y102153D01*
X337028Y102760D01*
X335955Y102974D01*
D02*
G37*
G36*
X198250Y94054D02*
X197177Y93840D01*
X196268Y93233D01*
X195483D01*
X194573Y93840D01*
X193500Y94054D01*
X192427Y93840D01*
X191517Y93233D01*
X190910Y92323D01*
X190696Y91250D01*
X190910Y90177D01*
X191517Y89267D01*
X192427Y88659D01*
X193293Y88487D01*
X193196Y88000D01*
X193410Y86927D01*
X194017Y86017D01*
X194927Y85410D01*
X196000Y85196D01*
X197073Y85410D01*
X197983Y86017D01*
X198591Y86927D01*
X198804Y88000D01*
X198697Y88535D01*
X199323Y88659D01*
X200233Y89267D01*
X200840Y90177D01*
X201054Y91250D01*
X200840Y92323D01*
X200233Y93233D01*
X199323Y93840D01*
X198250Y94054D01*
D02*
G37*
G36*
X319305Y99644D02*
X318232Y99430D01*
X317322Y98823D01*
X316715Y97913D01*
X316501Y96840D01*
X315975Y96314D01*
X314902Y96100D01*
X313992Y95493D01*
X313385Y94583D01*
X313171Y93510D01*
X313385Y92437D01*
X313992Y91527D01*
X314902Y90920D01*
X315975Y90706D01*
X317048Y90920D01*
X317958Y91527D01*
X318566Y92437D01*
X318779Y93510D01*
X319305Y94036D01*
X320378Y94250D01*
X321288Y94857D01*
X321895Y95767D01*
X322109Y96840D01*
X321895Y97913D01*
X321288Y98823D01*
X320378Y99430D01*
X319305Y99644D01*
D02*
G37*
G36*
X440750Y93804D02*
X439677Y93590D01*
X438767Y92983D01*
X438159Y92073D01*
X437946Y91000D01*
X438159Y89927D01*
X438767Y89017D01*
X439677Y88410D01*
X440750Y88196D01*
X441823Y88410D01*
X442733Y89017D01*
X443340Y89927D01*
X443554Y91000D01*
X443340Y92073D01*
X442733Y92983D01*
X441823Y93590D01*
X440750Y93804D01*
D02*
G37*
G36*
X438250Y77554D02*
X437177Y77340D01*
X436268Y76733D01*
X435733D01*
X434823Y77340D01*
X433750Y77554D01*
X432677Y77340D01*
X431768Y76733D01*
X431160Y75823D01*
X430946Y74750D01*
X431160Y73677D01*
X431768Y72767D01*
X432677Y72160D01*
X433750Y71946D01*
X434823Y72160D01*
X435733Y72767D01*
X436268D01*
X437177Y72160D01*
X438250Y71946D01*
X439323Y72160D01*
X440233Y72767D01*
X440840Y73677D01*
X441054Y74750D01*
X440840Y75823D01*
X440233Y76733D01*
X439323Y77340D01*
X438250Y77554D01*
D02*
G37*
G36*
X276750Y78554D02*
X275677Y78341D01*
X274767Y77733D01*
X274160Y76823D01*
X273946Y75750D01*
X274160Y74677D01*
X274767Y73767D01*
X275677Y73160D01*
X276750Y72946D01*
X277823Y73160D01*
X278733Y73767D01*
X279340Y74677D01*
X279554Y75750D01*
X279340Y76823D01*
X278733Y77733D01*
X277823Y78341D01*
X276750Y78554D01*
D02*
G37*
G36*
X290000Y71804D02*
X288927Y71590D01*
X288017Y70983D01*
X287410Y70073D01*
X287196Y69000D01*
X287410Y67927D01*
X288017Y67017D01*
X288927Y66410D01*
X290000Y66196D01*
X291073Y66410D01*
X291983Y67017D01*
X292590Y67927D01*
X292804Y69000D01*
X292590Y70073D01*
X291983Y70983D01*
X291073Y71590D01*
X290000Y71804D01*
D02*
G37*
G36*
X410000Y70054D02*
X408927Y69840D01*
X408017Y69233D01*
X407410Y68323D01*
X407196Y67250D01*
X407410Y66177D01*
X408017Y65267D01*
X408927Y64660D01*
X410000Y64446D01*
X411073Y64660D01*
X411983Y65267D01*
X412590Y66177D01*
X412804Y67250D01*
X412590Y68323D01*
X411983Y69233D01*
X411073Y69840D01*
X410000Y70054D01*
D02*
G37*
G36*
X404750Y39804D02*
X403677Y39590D01*
X402767Y38983D01*
X402160Y38073D01*
X401946Y37000D01*
X402160Y35927D01*
X402767Y35017D01*
X403677Y34410D01*
X404750Y34196D01*
X405823Y34410D01*
X406733Y35017D01*
X407340Y35927D01*
X407554Y37000D01*
X407340Y38073D01*
X406733Y38983D01*
X405823Y39590D01*
X404750Y39804D01*
D02*
G37*
G36*
X106750Y289054D02*
X105677Y288840D01*
X104767Y288233D01*
X104160Y287323D01*
X103946Y286250D01*
X104160Y285177D01*
X104767Y284267D01*
X105677Y283660D01*
X106446Y282250D01*
X106660Y281177D01*
X107267Y280267D01*
X108148Y279679D01*
X108171Y279541D01*
X108113Y278377D01*
X107927Y278340D01*
X107017Y277733D01*
X106410Y276823D01*
X106196Y275750D01*
X106410Y274677D01*
X107017Y273767D01*
X107927Y273160D01*
X109000Y272946D01*
X110073Y273160D01*
X110983Y273767D01*
X111590Y274677D01*
X111804Y275750D01*
X111590Y276823D01*
X110983Y277733D01*
X110102Y278321D01*
X110079Y278459D01*
X110137Y279623D01*
X110323Y279660D01*
X111233Y280267D01*
X111840Y281177D01*
X112054Y282250D01*
X111840Y283323D01*
X111233Y284233D01*
X110323Y284840D01*
X109554Y286250D01*
X109340Y287323D01*
X108733Y288233D01*
X107823Y288840D01*
X106750Y289054D01*
D02*
G37*
G36*
X101750Y276054D02*
X100677Y275840D01*
X99767Y275233D01*
X99159Y274323D01*
X98946Y273250D01*
X99159Y272177D01*
X99767Y271267D01*
X100677Y270660D01*
X101750Y270446D01*
X102823Y270660D01*
X103733Y271267D01*
X104340Y272177D01*
X104554Y273250D01*
X104340Y274323D01*
X103733Y275233D01*
X102823Y275840D01*
X101750Y276054D01*
D02*
G37*
G36*
X-5250Y265051D02*
X-6323Y264838D01*
X-6546Y264688D01*
X-7500Y264330D01*
X-8454Y264688D01*
X-8677Y264838D01*
X-9750Y265051D01*
X-10823Y264838D01*
X-11733Y264230D01*
X-12341Y263320D01*
X-12554Y262247D01*
X-12341Y261174D01*
X-11733Y260265D01*
X-10823Y259657D01*
X-9750Y259443D01*
X-8677Y259657D01*
X-8454Y259806D01*
X-7500Y260164D01*
X-6546Y259806D01*
X-6323Y259657D01*
X-5250Y259443D01*
X-4177Y259657D01*
X-3267Y260265D01*
X-2660Y261174D01*
X-2446Y262247D01*
X-2660Y263320D01*
X-3267Y264230D01*
X-4177Y264838D01*
X-5250Y265051D01*
D02*
G37*
G36*
X750Y260804D02*
X-323Y260590D01*
X-1233Y259983D01*
X-1840Y259073D01*
X-2054Y258000D01*
X-1840Y256927D01*
X-1233Y256017D01*
X-323Y255410D01*
X750Y255196D01*
X1823Y255410D01*
X2733Y256017D01*
X3340Y256927D01*
X3554Y258000D01*
X3340Y259073D01*
X2733Y259983D01*
X1823Y260590D01*
X750Y260804D01*
D02*
G37*
G36*
X4000Y166304D02*
X2927Y166090D01*
X2611Y165879D01*
X1911Y165509D01*
X704Y165802D01*
X573Y165890D01*
X-500Y166103D01*
X-1573Y165890D01*
X-2482Y165282D01*
X-3090Y164372D01*
X-3304Y163299D01*
X-3136Y162456D01*
X-3094Y162221D01*
X-3874Y161113D01*
X-4001Y161088D01*
X-4911Y160480D01*
X-5518Y159570D01*
X-5732Y158497D01*
X-5518Y157424D01*
X-4911Y156515D01*
X-4001Y155907D01*
X-2928Y155693D01*
X-1855Y155907D01*
X-945Y156515D01*
X-338Y157424D01*
X-124Y158497D01*
X-292Y159340D01*
X-334Y159575D01*
X446Y160683D01*
X573Y160709D01*
X889Y160920D01*
X1589Y161291D01*
X2797Y160997D01*
X2927Y160910D01*
X4000Y160696D01*
X5073Y160910D01*
X5983Y161517D01*
X6590Y162427D01*
X6804Y163500D01*
X6590Y164573D01*
X5983Y165483D01*
X5073Y166090D01*
X4000Y166304D01*
D02*
G37*
G36*
X-9698Y151304D02*
X-10771Y151090D01*
X-11681Y150483D01*
X-12288Y149573D01*
X-12502Y148500D01*
X-12288Y147427D01*
X-11681Y146517D01*
X-10771Y145910D01*
X-9698Y145696D01*
X-9294Y145777D01*
X-8406Y145578D01*
X-7925Y144853D01*
X-7840Y144427D01*
X-7233Y143517D01*
X-6766Y143206D01*
X-6758Y143185D01*
Y141815D01*
X-6766Y141794D01*
X-7233Y141483D01*
X-7840Y140573D01*
X-8054Y139500D01*
X-7840Y138427D01*
X-7233Y137517D01*
X-7039Y137388D01*
X-6403Y136674D01*
X-6715Y135760D01*
X-6840Y135573D01*
X-7054Y134500D01*
X-6840Y133427D01*
X-6233Y132517D01*
X-5323Y131910D01*
X-4250Y131696D01*
X-3177Y131910D01*
X-2267Y132517D01*
X-1660Y133427D01*
X-1446Y134500D01*
X-1660Y135573D01*
X-2267Y136483D01*
X-2461Y136612D01*
X-3097Y137326D01*
X-2785Y138240D01*
X-2660Y138427D01*
X-2446Y139500D01*
X-2660Y140573D01*
X-3267Y141483D01*
X-3734Y141794D01*
X-3742Y141815D01*
Y143185D01*
X-3734Y143206D01*
X-3267Y143517D01*
X-2660Y144427D01*
X-2446Y145500D01*
X-2660Y146573D01*
X-3267Y147483D01*
X-4177Y148090D01*
X-5250Y148304D01*
X-5654Y148223D01*
X-6542Y148421D01*
X-7023Y149148D01*
X-7107Y149573D01*
X-7715Y150483D01*
X-8625Y151090D01*
X-9698Y151304D01*
D02*
G37*
G36*
X6050Y107022D02*
X4977Y106808D01*
X4067Y106201D01*
X3460Y105291D01*
X3246Y104218D01*
X3460Y103145D01*
X4067Y102235D01*
X4977Y101628D01*
X6050Y101414D01*
X7123Y101628D01*
X8033Y102235D01*
X8641Y103145D01*
X8854Y104218D01*
X8641Y105291D01*
X8033Y106201D01*
X7123Y106808D01*
X6050Y107022D01*
D02*
G37*
G36*
X23250Y101304D02*
X22177Y101090D01*
X21267Y100483D01*
X20660Y99573D01*
X20446Y98500D01*
X20660Y97427D01*
X21267Y96517D01*
X22177Y95910D01*
X23250Y95696D01*
X24323Y95910D01*
X25233Y96517D01*
X25840Y97427D01*
X26054Y98500D01*
X25840Y99573D01*
X25233Y100483D01*
X24323Y101090D01*
X23250Y101304D01*
D02*
G37*
G36*
X-2250Y75054D02*
X-3323Y74840D01*
X-4233Y74233D01*
X-4840Y73323D01*
X-5054Y72250D01*
X-4840Y71177D01*
X-4233Y70267D01*
X-3323Y69660D01*
X-2250Y69446D01*
X-1177Y69660D01*
X-267Y70267D01*
X340Y71177D01*
X554Y72250D01*
X340Y73323D01*
X-267Y74233D01*
X-1177Y74840D01*
X-2250Y75054D01*
D02*
G37*
G36*
X8750Y66554D02*
X7677Y66340D01*
X6767Y65733D01*
X6160Y64823D01*
X5946Y63750D01*
X6160Y62677D01*
X6767Y61767D01*
X7677Y61160D01*
X8750Y60946D01*
X9823Y61160D01*
X10733Y61767D01*
X11340Y62677D01*
X11554Y63750D01*
X11340Y64823D01*
X10733Y65733D01*
X9823Y66340D01*
X8750Y66554D01*
D02*
G37*
G36*
X47250Y61804D02*
X46177Y61590D01*
X45267Y60983D01*
X44660Y60073D01*
X44446Y59000D01*
X44660Y57927D01*
X45267Y57017D01*
X46177Y56410D01*
X47250Y56196D01*
X48323Y56410D01*
X49233Y57017D01*
X49840Y57927D01*
X50054Y59000D01*
X49840Y60073D01*
X49233Y60983D01*
X48323Y61590D01*
X47250Y61804D01*
D02*
G37*
G36*
X0Y54667D02*
X-1073Y54454D01*
X-1983Y53846D01*
X-2590Y52936D01*
X-2804Y51863D01*
X-2590Y50790D01*
X-1983Y49881D01*
X-1073Y49273D01*
X0Y49060D01*
X1073Y49273D01*
X1983Y49881D01*
X2590Y50790D01*
X2804Y51863D01*
X2590Y52936D01*
X1983Y53846D01*
X1073Y54454D01*
X0Y54667D01*
D02*
G37*
G36*
X66500Y53804D02*
X65427Y53590D01*
X64517Y52983D01*
X63910Y52073D01*
X63696Y51000D01*
X63910Y49927D01*
X64517Y49017D01*
X65427Y48410D01*
X66500Y48196D01*
X67573Y48410D01*
X68483Y49017D01*
X69090Y49927D01*
X69304Y51000D01*
X69090Y52073D01*
X68483Y52983D01*
X67573Y53590D01*
X66500Y53804D01*
D02*
G37*
G36*
X10750Y41554D02*
X9677Y41340D01*
X8767Y40733D01*
X8160Y39823D01*
X7946Y38750D01*
X8160Y37677D01*
X8767Y36767D01*
X9677Y36160D01*
X10750Y35946D01*
X11823Y36160D01*
X12733Y36767D01*
X13340Y37677D01*
X13554Y38750D01*
X13340Y39823D01*
X12733Y40733D01*
X11823Y41340D01*
X10750Y41554D01*
D02*
G37*
G36*
X0Y44493D02*
X-1073Y44280D01*
X-1983Y43672D01*
X-2590Y42762D01*
X-2804Y41689D01*
X-2590Y40616D01*
X-1983Y39707D01*
Y39186D01*
X-2590Y38277D01*
X-2804Y37204D01*
X-2590Y36131D01*
X-1983Y35221D01*
X-1073Y34613D01*
X0Y34400D01*
X1073Y34613D01*
X1983Y35221D01*
X2590Y36131D01*
X2804Y37204D01*
X2590Y38277D01*
X1983Y39186D01*
Y39707D01*
X2590Y40616D01*
X2804Y41689D01*
X2590Y42762D01*
X1983Y43672D01*
X1073Y44280D01*
X0Y44493D01*
D02*
G37*
G36*
X26604Y33554D02*
X25531Y33340D01*
X25308Y33191D01*
X24354Y32833D01*
X23400Y33191D01*
X23177Y33340D01*
X22104Y33554D01*
X21031Y33340D01*
X20122Y32733D01*
X19514Y31823D01*
X19300Y30750D01*
X19514Y29677D01*
X20122Y28767D01*
X21031Y28160D01*
X22104Y27946D01*
X23177Y28160D01*
X23400Y28309D01*
X24354Y28667D01*
X25308Y28309D01*
X25531Y28160D01*
X26604Y27946D01*
X27677Y28160D01*
X28587Y28767D01*
X29195Y29677D01*
X29408Y30750D01*
X29195Y31823D01*
X28587Y32733D01*
X27677Y33340D01*
X26604Y33554D01*
D02*
G37*
G36*
X10000Y11804D02*
X8927Y11590D01*
X8017Y10983D01*
X7410Y10073D01*
X7196Y9000D01*
X7410Y7927D01*
X8017Y7017D01*
X8927Y6410D01*
X10000Y6196D01*
X11073Y6410D01*
X11983Y7017D01*
X12590Y7927D01*
X12804Y9000D01*
X12590Y10073D01*
X11983Y10983D01*
X11073Y11590D01*
X10000Y11804D01*
D02*
G37*
G36*
X60750Y10304D02*
X59677Y10091D01*
X58767Y9483D01*
X58160Y8573D01*
X57946Y7500D01*
X58160Y6427D01*
X58767Y5518D01*
X59677Y4910D01*
X60750Y4696D01*
X61823Y4910D01*
X62733Y5518D01*
X63340Y6427D01*
X63554Y7500D01*
X63340Y8573D01*
X62733Y9483D01*
X61823Y10091D01*
X60750Y10304D01*
D02*
G37*
G36*
X1750Y223554D02*
X677Y223340D01*
X-233Y222733D01*
X-840Y221823D01*
X-1054Y220750D01*
X-840Y219677D01*
X-233Y218767D01*
X677Y218160D01*
X1750Y217946D01*
X2823Y218160D01*
X3733Y218767D01*
X4340Y219677D01*
X4554Y220750D01*
X4340Y221823D01*
X3733Y222733D01*
X2823Y223340D01*
X1750Y223554D01*
D02*
G37*
G36*
X31000Y200554D02*
X29927Y200340D01*
X29017Y199732D01*
X28410Y198823D01*
X28196Y197750D01*
X28410Y196677D01*
X29017Y195767D01*
Y194982D01*
X28410Y194073D01*
X28196Y193000D01*
X28410Y191927D01*
X29017Y191017D01*
X29927Y190410D01*
X31000Y190196D01*
X32073Y190410D01*
X32983Y191017D01*
X33590Y191927D01*
X33804Y193000D01*
X33590Y194073D01*
X32983Y194982D01*
Y195767D01*
X33590Y196677D01*
X33804Y197750D01*
X33590Y198823D01*
X32983Y199732D01*
X32073Y200340D01*
X31000Y200554D01*
D02*
G37*
G36*
X31000Y188804D02*
X29927Y188590D01*
X29017Y187983D01*
X28410Y187073D01*
X28196Y186000D01*
X28410Y184927D01*
X29017Y184017D01*
Y183483D01*
X28410Y182573D01*
X28196Y181500D01*
X28410Y180427D01*
X29017Y179517D01*
X29927Y178910D01*
X31000Y178696D01*
X32073Y178910D01*
X32983Y179517D01*
X33590Y180427D01*
X33804Y181500D01*
X33590Y182573D01*
X32983Y183483D01*
Y184017D01*
X33590Y184927D01*
X33804Y186000D01*
X33590Y187073D01*
X32983Y187983D01*
X32073Y188590D01*
X31000Y188804D01*
D02*
G37*
G36*
X267800Y216504D02*
X266727Y216290D01*
X265818Y215683D01*
X265210Y214773D01*
X264996Y213700D01*
X265210Y212627D01*
X265449Y212269D01*
X265294Y211798D01*
X264779Y211000D01*
X263977Y210840D01*
X263067Y210233D01*
X262460Y209323D01*
X262246Y208250D01*
X262460Y207177D01*
X263067Y206267D01*
X263977Y205660D01*
X265050Y205446D01*
X266123Y205660D01*
X267033Y206267D01*
X267640Y207177D01*
X267854Y208250D01*
X267640Y209323D01*
X267401Y209681D01*
X267556Y210152D01*
X268071Y210950D01*
X268873Y211110D01*
X269783Y211717D01*
X270390Y212627D01*
X270604Y213700D01*
X270390Y214773D01*
X269783Y215683D01*
X268873Y216290D01*
X267800Y216504D01*
D02*
G37*
G36*
X266025Y199545D02*
X264952Y199331D01*
X264042Y198723D01*
X263434Y197814D01*
X263221Y196741D01*
X263434Y195668D01*
X264042Y194758D01*
X264952Y194150D01*
X266025Y193937D01*
X267098Y194150D01*
X268007Y194758D01*
X268615Y195668D01*
X268829Y196741D01*
X268615Y197814D01*
X268007Y198723D01*
X267098Y199331D01*
X266025Y199545D01*
D02*
G37*
G36*
X292665Y206205D02*
X291592Y205991D01*
X290682Y205383D01*
X290075Y204474D01*
X289861Y203401D01*
X290075Y202328D01*
X290682Y201418D01*
X291592Y200810D01*
X292665Y200597D01*
X293191Y200071D01*
X293405Y198998D01*
X294012Y198088D01*
X294922Y197480D01*
X295338Y197397D01*
X295385Y197388D01*
Y196093D01*
X295338Y196084D01*
X294922Y196001D01*
X294012Y195393D01*
X293405Y194484D01*
X293318Y194049D01*
X292854Y193222D01*
X292026Y192757D01*
X291592Y192671D01*
X290682Y192063D01*
X290075Y191154D01*
X289982Y190690D01*
X288687D01*
X288595Y191154D01*
X287987Y192063D01*
X287078Y192671D01*
X286005Y192885D01*
X284932Y192671D01*
X284022Y192063D01*
X283414Y191154D01*
X283322Y190690D01*
X282027D01*
X281935Y191154D01*
X281327Y192063D01*
X280418Y192671D01*
X280001Y192754D01*
X279955Y192763D01*
Y194058D01*
X280001Y194067D01*
X280418Y194150D01*
X281327Y194758D01*
X281935Y195668D01*
X282149Y196741D01*
X281935Y197814D01*
X281327Y198723D01*
X280418Y199331D01*
X279345Y199545D01*
X278272Y199331D01*
X277362Y198723D01*
X276754Y197814D01*
X276541Y196741D01*
X276754Y195668D01*
X277362Y194758D01*
X278272Y194150D01*
X278688Y194067D01*
X278735Y194058D01*
Y192763D01*
X278688Y192754D01*
X278272Y192671D01*
X277362Y192063D01*
X276754Y191154D01*
X276541Y190081D01*
X276754Y189008D01*
X277362Y188098D01*
X278272Y187490D01*
X278706Y187404D01*
X279871Y186751D01*
X280084Y185678D01*
X280692Y184768D01*
X281602Y184160D01*
X282675Y183947D01*
X283748Y184160D01*
X284657Y184768D01*
X285265Y185678D01*
X285357Y186141D01*
X286652D01*
X286744Y185678D01*
X287352Y184768D01*
X288262Y184160D01*
X289335Y183947D01*
X290408Y184160D01*
X291318Y184768D01*
X291925Y185678D01*
X292139Y186751D01*
X293304Y187404D01*
X293738Y187490D01*
X294648Y188098D01*
X295255Y189008D01*
X295342Y189442D01*
X295806Y190270D01*
X296634Y190734D01*
X297068Y190820D01*
X297978Y191428D01*
X298585Y192338D01*
X298799Y193411D01*
X298585Y194484D01*
X297978Y195393D01*
X297068Y196001D01*
X296651Y196084D01*
X296605Y196093D01*
Y197388D01*
X296651Y197397D01*
X297068Y197480D01*
X297978Y198088D01*
X298585Y198998D01*
X298799Y200071D01*
X298585Y201144D01*
X297978Y202053D01*
X297068Y202661D01*
X295995Y202875D01*
X295469Y203401D01*
X295255Y204474D01*
X294648Y205383D01*
X293738Y205991D01*
X292665Y206205D01*
D02*
G37*
G36*
X259365Y192885D02*
X258292Y192671D01*
X257382Y192063D01*
X256774Y191154D01*
X256688Y190720D01*
X256035Y189555D01*
X254962Y189341D01*
X254052Y188733D01*
X253444Y187824D01*
X253361Y187407D01*
X253352Y187360D01*
X252057D01*
X252048Y187407D01*
X251965Y187824D01*
X251357Y188733D01*
X250448Y189341D01*
X249375Y189555D01*
X248302Y189341D01*
X247392Y188733D01*
X246784Y187824D01*
X246571Y186751D01*
X246784Y185678D01*
X247392Y184768D01*
X248302Y184160D01*
X249375Y183947D01*
X250448Y184160D01*
X251357Y184768D01*
X251965Y185678D01*
X252048Y186094D01*
X252057Y186141D01*
X253352D01*
X253361Y186094D01*
X253444Y185678D01*
X254052Y184768D01*
X254962Y184160D01*
X256035Y183947D01*
X257108Y184160D01*
X258017Y184768D01*
X258625Y185678D01*
X258711Y186112D01*
X259365Y187277D01*
X260438Y187490D01*
X261347Y188098D01*
X261955Y189008D01*
X262169Y190081D01*
X261955Y191154D01*
X261347Y192063D01*
X260438Y192671D01*
X259365Y192885D01*
D02*
G37*
G36*
X269355Y189555D02*
X268282Y189341D01*
X267372Y188733D01*
X266764Y187824D01*
X266551Y186751D01*
X266764Y185678D01*
X267372Y184768D01*
X268282Y184160D01*
X269355Y183947D01*
X270428Y184160D01*
X271337Y184768D01*
X271945Y185678D01*
X272159Y186751D01*
X271945Y187824D01*
X271337Y188733D01*
X270428Y189341D01*
X269355Y189555D01*
D02*
G37*
G36*
X252705Y179564D02*
X251632Y179351D01*
X250722Y178743D01*
X250114Y177834D01*
X249901Y176761D01*
X250114Y175688D01*
X250722Y174778D01*
X251632Y174170D01*
X252048Y174087D01*
X252095Y174078D01*
Y172783D01*
X252048Y172774D01*
X251632Y172691D01*
X250722Y172083D01*
X250114Y171173D01*
X249901Y170100D01*
X250114Y169028D01*
X250722Y168118D01*
X251632Y167510D01*
X252705Y167297D01*
X253778Y167510D01*
X254687Y168118D01*
X255295Y169028D01*
X255508Y170100D01*
X255295Y171173D01*
X254687Y172083D01*
X253778Y172691D01*
X253361Y172774D01*
X253314Y172783D01*
Y174078D01*
X253361Y174087D01*
X253778Y174170D01*
X254687Y174778D01*
X255295Y175688D01*
X255508Y176761D01*
X255295Y177834D01*
X254687Y178743D01*
X253778Y179351D01*
X252705Y179564D01*
D02*
G37*
G36*
X254465Y163580D02*
X250295D01*
X249319Y163385D01*
X248492Y162833D01*
X245045Y159385D01*
X244972Y159371D01*
X244062Y158763D01*
X243454Y157853D01*
X243241Y156781D01*
X243454Y155708D01*
X244062Y154798D01*
X244972Y154190D01*
X245388Y154107D01*
X245435Y154098D01*
Y152803D01*
X245388Y152794D01*
X244972Y152711D01*
X244062Y152103D01*
X243454Y151194D01*
X243241Y150120D01*
X242715Y149594D01*
X241642Y149381D01*
X240732Y148773D01*
X240124Y147864D01*
X239911Y146791D01*
X239385Y146264D01*
X238312Y146051D01*
X237402Y145443D01*
X236794Y144533D01*
X236581Y143460D01*
X236794Y142387D01*
X237402Y141478D01*
X238312Y140870D01*
X239385Y140657D01*
X240458Y140870D01*
X241367Y141478D01*
X241975Y142387D01*
X242067Y142851D01*
X243351D01*
X243368Y142822D01*
X243454Y142387D01*
X244062Y141478D01*
X244972Y140870D01*
X246045Y140657D01*
X247118Y140870D01*
X248027Y141478D01*
X248635Y142387D01*
X248848Y143460D01*
X248635Y144533D01*
X248027Y145443D01*
X247118Y146051D01*
X246654Y146143D01*
Y147438D01*
X247118Y147530D01*
X248027Y148138D01*
X248635Y149047D01*
X248718Y149464D01*
X248727Y149511D01*
X250022D01*
X250031Y149464D01*
X250114Y149047D01*
X250722Y148138D01*
X251632Y147530D01*
X252705Y147317D01*
X253778Y147530D01*
X254687Y148138D01*
X255295Y149047D01*
X255508Y150120D01*
X255295Y151193D01*
X254687Y152103D01*
X253778Y152711D01*
X253361Y152794D01*
X253314Y152803D01*
Y154098D01*
X253361Y154107D01*
X253778Y154190D01*
X254687Y154798D01*
X256095Y154999D01*
X256873Y154331D01*
Y144574D01*
X251705Y139405D01*
X251632Y139391D01*
X250722Y138783D01*
X250114Y137873D01*
X249901Y136800D01*
X250114Y135727D01*
X250722Y134818D01*
X251632Y134210D01*
X252705Y133996D01*
X253778Y134210D01*
X254687Y134818D01*
X255295Y135727D01*
X255310Y135801D01*
X261225Y141716D01*
X261777Y142543D01*
X261971Y143518D01*
Y156073D01*
X261777Y157049D01*
X261225Y157876D01*
X256268Y162833D01*
X255441Y163385D01*
X254465Y163580D01*
D02*
G37*
G36*
X252705Y126284D02*
X251632Y126071D01*
X250722Y125463D01*
X250114Y124553D01*
X249901Y123480D01*
X250114Y122407D01*
X250722Y121498D01*
X251632Y120890D01*
X252705Y120676D01*
X253778Y120890D01*
X254687Y121498D01*
X255295Y122407D01*
X255508Y123480D01*
X255295Y124553D01*
X254687Y125463D01*
X253778Y126071D01*
X252705Y126284D01*
D02*
G37*
G36*
X249375Y116294D02*
X248302Y116081D01*
X247392Y115473D01*
X246784Y114563D01*
X246571Y113490D01*
X246784Y112417D01*
X247392Y111508D01*
X248302Y110900D01*
X249375Y110686D01*
X250448Y110900D01*
X251357Y111508D01*
X251965Y112417D01*
X252178Y113490D01*
X251965Y114563D01*
X251357Y115473D01*
X250448Y116081D01*
X249375Y116294D01*
D02*
G37*
G36*
X266025Y112964D02*
X264952Y112751D01*
X264042Y112143D01*
X263434Y111233D01*
X263221Y110160D01*
X263434Y109087D01*
X264042Y108177D01*
X264952Y107570D01*
X266025Y107356D01*
X267098Y107570D01*
X268007Y108177D01*
X268615Y109087D01*
X268829Y110160D01*
X268615Y111233D01*
X268007Y112143D01*
X267098Y112751D01*
X266025Y112964D01*
D02*
G37*
G36*
X269355Y102974D02*
X268282Y102760D01*
X267372Y102153D01*
X266764Y101243D01*
X266681Y100827D01*
X266672Y100780D01*
X265377D01*
X265368Y100826D01*
X265285Y101243D01*
X264677Y102153D01*
X263768Y102760D01*
X262695Y102974D01*
X261622Y102760D01*
X260712Y102153D01*
X260104Y101243D01*
X259891Y100170D01*
X260104Y99097D01*
X260712Y98187D01*
X261622Y97580D01*
X262695Y97366D01*
X263768Y97580D01*
X264677Y98187D01*
X265285Y99097D01*
X265368Y99514D01*
X265377Y99560D01*
X266672D01*
X266681Y99514D01*
X266764Y99097D01*
X267372Y98187D01*
X268282Y97580D01*
X269355Y97366D01*
X270428Y97580D01*
X271337Y98187D01*
X271945Y99097D01*
X272159Y100170D01*
X271945Y101243D01*
X271337Y102153D01*
X270428Y102760D01*
X269355Y102974D01*
D02*
G37*
G36*
X276015Y109634D02*
X274942Y109420D01*
X274032Y108813D01*
X273424Y107903D01*
X273211Y106830D01*
X273424Y105757D01*
X274032Y104847D01*
X274942Y104240D01*
X276015Y104026D01*
X276541Y103500D01*
X276754Y102427D01*
X277362Y101517D01*
X278272Y100910D01*
X279345Y100696D01*
X280418Y100910D01*
X281327Y101517D01*
X281935Y102427D01*
X282149Y103500D01*
X281935Y104573D01*
X281327Y105483D01*
X280418Y106090D01*
X279345Y106304D01*
X278819Y106830D01*
X278605Y107903D01*
X277997Y108813D01*
X277088Y109420D01*
X276015Y109634D01*
D02*
G37*
G36*
X262250Y57554D02*
X261177Y57340D01*
X260267Y56733D01*
X260264Y56727D01*
X258736D01*
X258733Y56733D01*
X257823Y57340D01*
X256750Y57554D01*
X255677Y57340D01*
X254767Y56733D01*
X254160Y55823D01*
X253946Y54750D01*
X254160Y53677D01*
X254767Y52767D01*
X255677Y52160D01*
X256750Y51946D01*
X257823Y52160D01*
X258733Y52767D01*
X258736Y52773D01*
X260264D01*
X260267Y52767D01*
X261177Y52160D01*
X262250Y51946D01*
X263323Y52160D01*
X264233Y52767D01*
X264840Y53677D01*
X265054Y54750D01*
X264840Y55823D01*
X264233Y56733D01*
X263323Y57340D01*
X262250Y57554D01*
D02*
G37*
G36*
X329750Y53554D02*
X328677Y53341D01*
X327767Y52733D01*
X327160Y51823D01*
X326946Y50750D01*
X327160Y49677D01*
X327767Y48767D01*
X328677Y48160D01*
X329750Y47946D01*
X330823Y48160D01*
X331733Y48767D01*
X332340Y49677D01*
X332554Y50750D01*
X332340Y51823D01*
X331733Y52733D01*
X330823Y53341D01*
X329750Y53554D01*
D02*
G37*
G36*
X332750Y40304D02*
X331677Y40090D01*
X330768Y39483D01*
X330160Y38573D01*
X329946Y37500D01*
X330160Y36427D01*
X330768Y35517D01*
X331677Y34910D01*
X332750Y34696D01*
X333823Y34910D01*
X334733Y35517D01*
X335340Y36427D01*
X335554Y37500D01*
X335340Y38573D01*
X334733Y39483D01*
X333823Y40090D01*
X332750Y40304D01*
D02*
G37*
G36*
X263500Y48304D02*
X262427Y48090D01*
X261517Y47483D01*
X260910Y46573D01*
X260696Y45500D01*
X260910Y44427D01*
X261517Y43517D01*
X261984Y43206D01*
X261992Y43185D01*
Y41815D01*
X261984Y41794D01*
X261517Y41483D01*
X260910Y40573D01*
X260696Y39500D01*
X260910Y38427D01*
X261517Y37517D01*
Y36983D01*
X260910Y36073D01*
X260696Y35000D01*
X260725Y34855D01*
X259645Y33775D01*
X259500Y33804D01*
X259355Y33775D01*
X258275Y34855D01*
X258304Y35000D01*
X258090Y36073D01*
X257941Y36296D01*
X257583Y37250D01*
X257941Y38204D01*
X258090Y38427D01*
X258304Y39500D01*
X258090Y40573D01*
X257483Y41483D01*
X257016Y41794D01*
X257008Y41815D01*
Y43185D01*
X257016Y43206D01*
X257483Y43517D01*
X258090Y44427D01*
X258304Y45500D01*
X258090Y46573D01*
X257483Y47483D01*
X256573Y48090D01*
X255500Y48304D01*
X254427Y48090D01*
X253517Y47483D01*
X252910Y46573D01*
X252696Y45500D01*
X252910Y44427D01*
X253517Y43517D01*
X253984Y43206D01*
X253992Y43185D01*
Y41815D01*
X253984Y41794D01*
X253517Y41483D01*
X252910Y40573D01*
X252696Y39500D01*
X252910Y38427D01*
X253059Y38204D01*
X253417Y37250D01*
X253059Y36296D01*
X252910Y36073D01*
X252696Y35000D01*
X252910Y33927D01*
X252932Y33894D01*
X252253Y32624D01*
X252000D01*
X250852Y32148D01*
X228827Y10123D01*
X220772D01*
X220765Y10126D01*
X220701Y10154D01*
X220629Y10193D01*
X220550Y10244D01*
X220464Y10309D01*
X220371Y10388D01*
X220252Y10504D01*
X220129Y10552D01*
X219323Y11090D01*
X218250Y11304D01*
X217177Y11090D01*
X216267Y10482D01*
X215660Y9573D01*
X215446Y8500D01*
X215660Y7427D01*
X216267Y6517D01*
X217177Y5910D01*
X218250Y5696D01*
X219323Y5910D01*
X220129Y6448D01*
X220252Y6496D01*
X220371Y6612D01*
X220464Y6691D01*
X220550Y6756D01*
X220629Y6807D01*
X220701Y6846D01*
X220765Y6874D01*
X220772Y6876D01*
X229500D01*
X230648Y7352D01*
X251759Y28463D01*
X252846Y27754D01*
X252696Y27000D01*
X252910Y25927D01*
X253517Y25017D01*
Y24483D01*
X252910Y23573D01*
X252696Y22500D01*
X252910Y21427D01*
X253517Y20517D01*
X253984Y20206D01*
X253992Y20185D01*
Y18815D01*
X253984Y18794D01*
X253517Y18483D01*
X252910Y17573D01*
X252696Y16500D01*
X252910Y15427D01*
X253517Y14517D01*
X254427Y13910D01*
X255500Y13696D01*
X256573Y13910D01*
X257483Y14517D01*
X258090Y15427D01*
X258304Y16500D01*
X258090Y17573D01*
X257483Y18483D01*
X257016Y18794D01*
X257008Y18815D01*
Y20185D01*
X257016Y20206D01*
X257483Y20517D01*
X258090Y21427D01*
X258304Y22500D01*
X258090Y23573D01*
X257483Y24483D01*
Y25017D01*
X258090Y25927D01*
X258304Y27000D01*
X259428Y27532D01*
X259572D01*
X260696Y27000D01*
X260910Y25927D01*
X261517Y25017D01*
Y24483D01*
X260910Y23573D01*
X260696Y22500D01*
X260910Y21427D01*
X261517Y20517D01*
X261984Y20206D01*
X261992Y20185D01*
Y18815D01*
X261984Y18794D01*
X261517Y18483D01*
X260910Y17573D01*
X260696Y16500D01*
X260910Y15427D01*
X261517Y14517D01*
X262427Y13910D01*
X263500Y13696D01*
X264573Y13910D01*
X265483Y14517D01*
X266090Y15427D01*
X266304Y16500D01*
X266090Y17573D01*
X265483Y18483D01*
X265016Y18794D01*
X265008Y18815D01*
Y20185D01*
X265016Y20206D01*
X265483Y20517D01*
X266090Y21427D01*
X266304Y22500D01*
X266090Y23573D01*
X265483Y24483D01*
Y25017D01*
X266090Y25927D01*
X266304Y27000D01*
X266090Y28073D01*
X265483Y28983D01*
X264573Y29590D01*
X263500Y29804D01*
X262968Y30928D01*
Y31072D01*
X263500Y32196D01*
X264573Y32410D01*
X265483Y33017D01*
X266090Y33927D01*
X266304Y35000D01*
X266090Y36073D01*
X265483Y36983D01*
Y37517D01*
X266090Y38427D01*
X266304Y39500D01*
X266090Y40573D01*
X265483Y41483D01*
X265016Y41794D01*
X265008Y41815D01*
Y43185D01*
X265016Y43206D01*
X265483Y43517D01*
X266090Y44427D01*
X266304Y45500D01*
X266090Y46573D01*
X265483Y47483D01*
X264573Y48090D01*
X263500Y48304D01*
D02*
G37*
G36*
X340250Y10804D02*
X339177Y10590D01*
X338267Y9983D01*
X337123Y10557D01*
X337073Y10590D01*
X336000Y10804D01*
X334927Y10590D01*
X334876Y10557D01*
X333875Y10054D01*
X332873Y10557D01*
X332823Y10590D01*
X331750Y10804D01*
X330677Y10590D01*
X329767Y9983D01*
X329160Y9073D01*
X328946Y8000D01*
X329160Y6927D01*
X329767Y6017D01*
X330677Y5410D01*
X331750Y5196D01*
X332823Y5410D01*
X332873Y5443D01*
X333875Y5946D01*
X334876Y5443D01*
X334927Y5410D01*
X336000Y5196D01*
X337073Y5410D01*
X337983Y6017D01*
X339127Y5443D01*
X339177Y5410D01*
X340250Y5196D01*
X341323Y5410D01*
X342233Y6017D01*
X342840Y6927D01*
X343054Y8000D01*
X342840Y9073D01*
X342233Y9983D01*
X341323Y10590D01*
X340250Y10804D01*
D02*
G37*
G36*
X301500Y12554D02*
X300427Y12341D01*
X299517Y11733D01*
X298910Y10823D01*
X298696Y9750D01*
X298910Y8677D01*
X299517Y7768D01*
X300427Y7160D01*
X301500Y6946D01*
X302573Y7160D01*
X303483Y7768D01*
X304017D01*
X304017Y7767D01*
X304927Y7160D01*
X306000Y6946D01*
X307073Y7160D01*
X307983Y7767D01*
X308590Y8677D01*
X308804Y9750D01*
X308590Y10823D01*
X307983Y11733D01*
X307073Y12340D01*
X306000Y12554D01*
X304927Y12340D01*
X304017Y11733D01*
X303483D01*
X303483Y11733D01*
X302573Y12341D01*
X301500Y12554D01*
D02*
G37*
%LPD*%
G36*
X258250Y29775D02*
X258108Y29913D01*
X257964Y30036D01*
X257819Y30145D01*
X257673Y30239D01*
X257526Y30319D01*
X257377Y30384D01*
X257228Y30435D01*
X257077Y30471D01*
X256926Y30493D01*
X256773Y30500D01*
Y31500D01*
X256926Y31507D01*
X257077Y31529D01*
X257228Y31565D01*
X257377Y31616D01*
X257526Y31681D01*
X257673Y31761D01*
X257819Y31855D01*
X257964Y31964D01*
X258108Y32087D01*
X258250Y32225D01*
Y29775D01*
D02*
G37*
G36*
X219642Y9587D02*
X219786Y9464D01*
X219931Y9355D01*
X220077Y9261D01*
X220224Y9181D01*
X220373Y9116D01*
X220522Y9065D01*
X220673Y9029D01*
X220824Y9007D01*
X220977Y9000D01*
Y8000D01*
X220824Y7993D01*
X220673Y7971D01*
X220522Y7935D01*
X220373Y7884D01*
X220224Y7819D01*
X220077Y7739D01*
X219931Y7645D01*
X219786Y7536D01*
X219642Y7413D01*
X219500Y7275D01*
Y9725D01*
X219642Y9587D01*
D02*
G37*
%LPC*%
G36*
X138500Y60054D02*
X137427Y59840D01*
X136517Y59233D01*
X136351Y58984D01*
X135149D01*
X134983Y59233D01*
X134073Y59840D01*
X133000Y60054D01*
X131927Y59840D01*
X131017Y59233D01*
X130409Y58323D01*
X130196Y57250D01*
X130409Y56177D01*
X131017Y55267D01*
X131927Y54660D01*
X133000Y54446D01*
X134073Y54660D01*
X134983Y55267D01*
X135149Y55516D01*
X136351D01*
X136517Y55267D01*
X137427Y54660D01*
X138500Y54446D01*
X139573Y54660D01*
X140483Y55267D01*
X141090Y56177D01*
X141304Y57250D01*
X141090Y58323D01*
X140483Y59233D01*
X139573Y59840D01*
X138500Y60054D01*
D02*
G37*
G36*
X104750Y15054D02*
X103677Y14840D01*
X102767Y14233D01*
X101983D01*
X101073Y14840D01*
X100000Y15054D01*
X98927Y14840D01*
X98017Y14233D01*
X97410Y13323D01*
X97196Y12250D01*
X97410Y11177D01*
X98017Y10267D01*
X98927Y9660D01*
X100000Y9446D01*
X101073Y9660D01*
X101983Y10267D01*
X102767D01*
X103677Y9660D01*
X104750Y9446D01*
X105823Y9660D01*
X106733Y10267D01*
X107340Y11177D01*
X107554Y12250D01*
X107340Y13323D01*
X106733Y14233D01*
X105823Y14840D01*
X104750Y15054D01*
D02*
G37*
G36*
X180500Y14671D02*
X179427Y14458D01*
X178517Y13850D01*
X177910Y12941D01*
X177696Y11868D01*
X177910Y10795D01*
X178517Y9885D01*
X179427Y9277D01*
X180500Y9064D01*
X181573Y9277D01*
X182483Y9885D01*
X183090Y10795D01*
X183304Y11868D01*
X183090Y12941D01*
X182483Y13850D01*
X181573Y14458D01*
X180500Y14671D01*
D02*
G37*
G36*
X140000Y93304D02*
X138927Y93090D01*
X138017Y92483D01*
X137410Y91573D01*
X137196Y90500D01*
X137410Y89427D01*
X138017Y88518D01*
X138927Y87910D01*
X140000Y87696D01*
X141073Y87910D01*
X141983Y88518D01*
X142590Y89427D01*
X142804Y90500D01*
X142590Y91573D01*
X141983Y92483D01*
X141073Y93090D01*
X140000Y93304D01*
D02*
G37*
G36*
X155500Y92304D02*
X154427Y92090D01*
X153517Y91483D01*
X152909Y90573D01*
X152696Y89500D01*
X152909Y88427D01*
X153517Y87517D01*
X154427Y86910D01*
X155500Y86696D01*
X156573Y86910D01*
X157483Y87517D01*
X158090Y88427D01*
X158304Y89500D01*
X158090Y90573D01*
X157483Y91483D01*
X156573Y92090D01*
X155500Y92304D01*
D02*
G37*
G36*
X125885Y89054D02*
X124812Y88840D01*
X123902Y88232D01*
X123294Y87323D01*
X123081Y86250D01*
X123294Y85177D01*
X123902Y84267D01*
X124812Y83659D01*
X125885Y83446D01*
X126958Y83659D01*
X127868Y84267D01*
X128475Y85177D01*
X128689Y86250D01*
X128475Y87323D01*
X127868Y88232D01*
X126958Y88840D01*
X125885Y89054D01*
D02*
G37*
G36*
X148500Y80554D02*
X147427Y80340D01*
X146517Y79733D01*
X145910Y78823D01*
X145696Y77750D01*
X145910Y76677D01*
X146517Y75767D01*
X147427Y75160D01*
X148500Y74946D01*
X149573Y75160D01*
X150483Y75767D01*
X151090Y76677D01*
X151304Y77750D01*
X151090Y78823D01*
X150483Y79733D01*
X149573Y80340D01*
X148500Y80554D01*
D02*
G37*
G36*
X169250Y67554D02*
X168177Y67340D01*
X167902Y67157D01*
X167125Y66798D01*
X166348Y67157D01*
X166073Y67340D01*
X165000Y67554D01*
X163927Y67340D01*
X163017Y66733D01*
X162409Y65823D01*
X162196Y64750D01*
X162409Y63677D01*
X163017Y62767D01*
X163927Y62160D01*
X165000Y61946D01*
X166073Y62160D01*
X166982Y62767D01*
X167267D01*
X168177Y62160D01*
X169250Y61946D01*
X170323Y62160D01*
X171232Y62767D01*
X171840Y63677D01*
X172054Y64750D01*
X171840Y65823D01*
X171232Y66733D01*
X170323Y67340D01*
X169250Y67554D01*
D02*
G37*
G36*
X176500Y68054D02*
X175427Y67840D01*
X174517Y67233D01*
X173910Y66323D01*
X173696Y65250D01*
X173910Y64177D01*
X174517Y63267D01*
X175427Y62660D01*
X176500Y62446D01*
X177573Y62660D01*
X178483Y63267D01*
X179090Y64177D01*
X179304Y65250D01*
X179090Y66323D01*
X178483Y67233D01*
X177573Y67840D01*
X176500Y68054D01*
D02*
G37*
G36*
X191500Y27804D02*
X190427Y27590D01*
X189517Y26983D01*
X188910Y26073D01*
X188696Y25000D01*
X188910Y23927D01*
X189517Y23017D01*
X190427Y22410D01*
X191500Y22196D01*
X192573Y22410D01*
X193483Y23017D01*
X194090Y23927D01*
X194304Y25000D01*
X194090Y26073D01*
X193483Y26983D01*
X192573Y27590D01*
X191500Y27804D01*
D02*
G37*
G36*
X206401Y24832D02*
X205328Y24618D01*
X204419Y24010D01*
X203811Y23101D01*
X203597Y22028D01*
X203811Y20955D01*
X204419Y20045D01*
X205328Y19437D01*
X206401Y19224D01*
X207474Y19437D01*
X208384Y20045D01*
X208992Y20955D01*
X209205Y22028D01*
X208992Y23101D01*
X208384Y24010D01*
X207474Y24618D01*
X206401Y24832D01*
D02*
G37*
%LPD*%
D10*
X56346Y277250D02*
X57432Y278336D01*
X50000Y267500D02*
Y274846D01*
X52404Y277250D01*
X56346D01*
X57432Y278336D02*
X73635D01*
X64760Y276336D02*
X69596Y271500D01*
X62586Y276336D02*
X64760D01*
X60500Y274250D02*
X62586Y276336D01*
X24250Y241750D02*
X50000Y267500D01*
X29000Y149250D02*
Y166000D01*
X24250Y170750D02*
X29000Y166000D01*
X24250Y170750D02*
Y241750D01*
X-3000Y235000D02*
X6750D01*
X21765Y274250D02*
X34922D01*
X22593Y272250D02*
X35750D01*
X23422Y270250D02*
X36578D01*
X13289Y244368D02*
Y260118D01*
X6250Y247885D02*
X9289Y250924D01*
Y261775D02*
X21765Y274250D01*
X9289Y250924D02*
Y261775D01*
X11289Y260946D02*
X22593Y272250D01*
X11289Y250096D02*
Y260946D01*
X11250Y250057D02*
X11289Y250096D01*
X13289Y260118D02*
X23422Y270250D01*
X24250Y268250D02*
X37407D01*
X15289Y259289D02*
X24250Y268250D01*
X15289Y243539D02*
Y259289D01*
X36578Y270250D02*
X53328Y287000D01*
X34922Y274250D02*
X51672Y291000D01*
X35750Y272250D02*
X52500Y289000D01*
X37407Y268250D02*
X53657Y284500D01*
X403450Y5000D02*
X406500Y8050D01*
X372000Y5000D02*
X403450D01*
X64500Y158250D02*
Y227500D01*
X47500Y141250D02*
X64500Y158250D01*
X76250Y162000D02*
Y222500D01*
X67250Y153000D02*
X76250Y162000D01*
X67250Y142750D02*
Y153000D01*
X49500Y125000D02*
X67250Y142750D01*
X49500Y120500D02*
Y125000D01*
X64500Y227500D02*
X79500Y242500D01*
X184250Y200250D02*
X192250Y208250D01*
X174000Y200250D02*
X184250D01*
X168500Y205750D02*
X174000Y200250D01*
X147596Y205750D02*
X168500D01*
X193750Y255000D02*
X199500Y260750D01*
X176750Y255000D02*
X193750D01*
X164750Y267000D02*
X176750Y255000D01*
X181602Y245648D02*
X188000Y239250D01*
X175430Y245648D02*
X181602D01*
X156328Y264750D02*
X175430Y245648D01*
X12000Y161750D02*
Y169328D01*
X15250Y172578D02*
Y201500D01*
X12000Y169328D02*
X15250Y172578D01*
X17250Y171750D02*
Y202328D01*
X14000Y168500D02*
X17250Y171750D01*
X14000Y152422D02*
Y168500D01*
X3500Y153250D02*
X12000Y161750D01*
X5500Y143922D02*
X14000Y152422D01*
X60500Y213750D02*
Y274250D01*
X56750Y210000D02*
X60500Y213750D01*
X11250Y245157D02*
Y250057D01*
X51672Y291000D02*
X77000D01*
X88250Y279750D01*
X76172Y289000D02*
X86250Y278922D01*
X52500Y289000D02*
X76172D01*
X75343Y287000D02*
X84250Y278093D01*
X53328Y287000D02*
X75343D01*
X68154Y284500D02*
X72154Y280500D01*
X53657Y284500D02*
X68154D01*
X86250Y263500D02*
Y278922D01*
X84250Y262672D02*
Y278093D01*
X88250Y273346D02*
Y279750D01*
Y273346D02*
X98289Y263307D01*
X86250Y263500D02*
X103500Y246250D01*
X84250Y262672D02*
X102672Y244250D01*
X98289Y254875D02*
Y263307D01*
X102672Y244250D02*
X115750D01*
X75500Y280500D02*
X81750Y274250D01*
Y255654D02*
Y274250D01*
Y255654D02*
X103904Y233500D01*
X72154Y280500D02*
X75500D01*
X79500Y255075D02*
X103075Y231500D01*
X111172D02*
X119922Y222750D01*
X103075Y231500D02*
X111172D01*
X112000Y233500D02*
X119750Y225750D01*
X103904Y233500D02*
X112000D01*
X231500Y223750D02*
Y231750D01*
X224500Y216750D02*
X231500Y223750D01*
X263154Y260750D02*
X266404Y257500D01*
X199500Y260750D02*
X263154D01*
X284500Y257500D02*
X287000Y255000D01*
X47500Y134500D02*
Y141250D01*
X76250Y222500D02*
X81250Y227500D01*
Y237096D01*
X82750Y238596D01*
Y244000D01*
X64000Y262750D02*
X82750Y244000D01*
X64000Y262750D02*
Y272500D01*
X73635Y278336D02*
X79500Y272471D01*
X140232Y208518D02*
X145768D01*
X126000Y222750D02*
X140232Y208518D01*
X119922Y222750D02*
X126000D01*
X145096Y203250D02*
X147596Y205750D01*
X123250Y203250D02*
X145096D01*
X110250Y216250D02*
X123250Y203250D01*
X110250Y216250D02*
Y219750D01*
X77500Y252500D02*
X110250Y219750D01*
X79500Y255075D02*
Y272471D01*
X77500Y252500D02*
Y267846D01*
X73846Y271500D02*
X77500Y267846D01*
X210250Y249250D02*
Y253000D01*
X192250Y231250D02*
X210250Y249250D01*
X192250Y208250D02*
Y231250D01*
X69596Y271500D02*
X73846D01*
X266404Y257500D02*
X284500D01*
X118785Y267000D02*
X164750D01*
X106500Y254715D02*
X118785Y267000D01*
X106500Y253654D02*
Y254715D01*
X104596Y251750D02*
X106500Y253654D01*
X101414Y251750D02*
X104596D01*
X98289Y254875D02*
X101414Y251750D01*
X2336Y247885D02*
X6250D01*
X721Y249500D02*
X2336Y247885D01*
X500Y249500D02*
X721D01*
X-15250Y209000D02*
Y238675D01*
X-11675Y242250D01*
X78D01*
X2078Y240250D01*
X6343D01*
X11250Y245157D01*
X-13250Y209828D02*
Y237846D01*
X-10846Y240250D01*
X-750D01*
X1750Y237750D01*
X6672D01*
X13289Y244368D01*
X6750Y235000D02*
X15289Y243539D01*
X-13250Y209828D02*
X-10422Y207000D01*
X12578D01*
X17250Y202328D01*
X-11250Y205000D02*
X11750D01*
X-15250Y209000D02*
X-11250Y205000D01*
X119750Y225750D02*
X146750D01*
X3500Y131550D02*
Y153250D01*
X5500Y134750D02*
Y143922D01*
X224500Y207250D02*
Y216750D01*
X103500Y246250D02*
X110000D01*
X173750Y211000D02*
X178250Y206500D01*
X155500Y262750D02*
X173750Y244500D01*
Y211000D02*
Y244500D01*
X172509Y158500D02*
Y168241D01*
X152000Y188750D02*
X172509Y168241D01*
X11750Y205000D02*
X15250Y201500D01*
X110000Y246250D02*
X114922D01*
X110000Y246250D02*
X110000Y246250D01*
X85500Y61000D02*
Y77000D01*
X83750Y59250D02*
X85500Y61000D01*
X83750Y41500D02*
Y59250D01*
X218250Y8500D02*
X229500D01*
X261500Y61750D02*
X267000D01*
X258250Y65000D02*
X261500Y61750D01*
X237500Y65000D02*
X258250D01*
X228250Y74250D02*
X237500Y65000D01*
X228250Y74250D02*
Y100000D01*
X267000Y61750D02*
X276000Y52750D01*
Y27750D02*
Y52750D01*
Y27750D02*
X284250Y19500D01*
X289500D01*
X67875Y94625D02*
X85500Y77000D01*
X67875Y94625D02*
Y110625D01*
X286000Y38250D02*
X291250Y33000D01*
Y21250D02*
Y33000D01*
X289500Y19500D02*
X291250Y21250D01*
X286000Y54000D02*
X299000Y67000D01*
X286000Y38250D02*
Y54000D01*
X351300Y31750D02*
Y41700D01*
X348000Y45000D02*
X351300Y41700D01*
X348000Y45000D02*
Y57500D01*
X338500Y67000D02*
X348000Y57500D01*
X299000Y67000D02*
X338500D01*
X228250Y100000D02*
X232000Y103750D01*
X351300Y31750D02*
X363050Y20000D01*
X134250Y262750D02*
X155500D01*
X115750Y244250D02*
X134250Y262750D01*
X133422Y264750D02*
X156328D01*
X114922Y246250D02*
X133422Y264750D01*
X12750Y96500D02*
Y127500D01*
X5500Y134750D02*
X12750Y127500D01*
X406500Y8050D02*
Y10950D01*
X397450Y20000D02*
X406500Y10950D01*
X363050Y20000D02*
X397450D01*
X67875Y110625D02*
X71250Y114000D01*
X3500Y131550D02*
X8550Y126500D01*
X5750Y89500D02*
X12750Y96500D01*
X5750Y82000D02*
Y89500D01*
X252000Y31000D02*
X259500D01*
X229500Y8500D02*
X252000Y31000D01*
X187250Y6750D02*
X187375Y6875D01*
D13*
X53500Y116250D02*
X56250Y119000D01*
X19000Y119500D02*
X22250Y116250D01*
X53500D01*
X19000Y119500D02*
Y136450D01*
X59500Y157750D02*
Y180500D01*
X23500Y121750D02*
X59500Y157750D01*
X56250Y119000D02*
X72260D01*
X93250Y169250D02*
X95500Y171500D01*
X93250Y146750D02*
Y169250D01*
X83500Y137000D02*
X93250Y146750D01*
X32500Y210500D02*
Y236500D01*
Y210500D02*
X45250Y197750D01*
X99500Y135000D02*
Y165750D01*
X95000Y130500D02*
X99500Y135000D01*
X45250Y153750D02*
Y197750D01*
X35250Y143750D02*
X45250Y153750D01*
X26000Y143750D02*
X35250D01*
X19000Y136450D02*
Y136750D01*
X26000Y143750D01*
X259422Y143518D02*
Y156073D01*
X252705Y136800D02*
X259422Y143518D01*
X324500Y116005D02*
Y181500D01*
X292995Y84500D02*
X324500Y116005D01*
X241750Y84500D02*
X292995D01*
X81000Y87250D02*
X93000D01*
X73500Y94750D02*
X81000Y87250D01*
X73500Y94750D02*
Y104240D01*
X75500Y106240D01*
X93000Y87250D02*
X95000Y89250D01*
X92750Y101250D02*
X95000Y99000D01*
Y89250D02*
Y99000D01*
Y103500D02*
Y130500D01*
X92750Y101250D02*
X95000Y103500D01*
X237500Y80250D02*
X241750Y84500D01*
X11950Y143500D02*
X19000Y136450D01*
X89000Y101250D02*
X92750D01*
X75500Y106240D02*
Y115760D01*
X72260Y119000D02*
X75500Y115760D01*
X324500Y181500D02*
X326500Y183500D01*
X254465Y161031D02*
X259422Y156073D01*
X246045Y156781D02*
X250295Y161031D01*
X254465D01*
D15*
X96250Y217250D02*
X109750Y203750D01*
X96250Y217250D02*
Y224000D01*
X125500Y277250D02*
X131000D01*
X103250Y255000D02*
X125500Y277250D01*
X145875Y292125D02*
X148625D01*
X131000Y277250D02*
X145875Y292125D01*
D16*
X60000Y185250D02*
Y200500D01*
X52000Y208500D02*
X60000Y200500D01*
X52000Y208500D02*
Y212250D01*
X55500Y215750D02*
Y248157D01*
X52000Y212250D02*
X55500Y215750D01*
X50750Y252907D02*
X55500Y248157D01*
X50750Y252907D02*
Y264250D01*
X56250Y269750D01*
X98750Y81000D02*
X103250Y76500D01*
X95500Y171500D02*
X101000D01*
X98750Y81000D02*
Y127250D01*
X104000Y132500D01*
Y168500D01*
X101000Y171500D02*
X104000Y168500D01*
D145*
X437500Y30500D02*
D03*
Y266500D02*
D03*
D150*
X356500Y15000D02*
X358000Y16500D01*
X352782Y15000D02*
X356500D01*
X347800Y19982D02*
X352782Y15000D01*
X358000Y16500D02*
X396000D01*
X303000Y58750D02*
X307500D01*
X312250Y63500D02*
X337050D01*
X307500Y58750D02*
X312250Y63500D01*
X337050D02*
X344500Y56050D01*
Y43550D02*
Y56050D01*
Y43550D02*
X347800Y40250D01*
Y19982D02*
Y40250D01*
X396000Y16500D02*
X403000Y9500D01*
D153*
X225250Y187000D02*
X237250Y199000D01*
X225250Y169750D02*
Y187000D01*
Y169750D02*
X234431Y160569D01*
X152250Y201250D02*
X158750D01*
X143000Y192000D02*
X152250Y201250D01*
X115500Y192000D02*
X143000D01*
X209907Y243250D02*
X274750D01*
X198750Y232093D02*
X209907Y243250D01*
X198750Y201500D02*
Y232093D01*
X181000Y183750D02*
X198750Y201500D01*
X168000Y183750D02*
X181000D01*
X163250Y188500D02*
X168000Y183750D01*
X163250Y188500D02*
Y196750D01*
X158750Y201250D02*
X163250Y196750D01*
X81250Y150500D02*
X88250D01*
X73750Y143000D02*
X81250Y150500D01*
X73750Y124750D02*
Y143000D01*
X102000Y63750D02*
X108500Y70250D01*
X97500Y63750D02*
X102000D01*
X89000Y55250D02*
X97500Y63750D01*
X237250Y199000D02*
X246250D01*
X253750Y206500D02*
Y218750D01*
X246250Y199000D02*
X253750Y206500D01*
X266000Y231000D02*
X307500D01*
X253750Y218750D02*
X266000Y231000D01*
X278500Y239500D02*
X303000D01*
X274750Y243250D02*
X278500Y239500D01*
X89000Y36000D02*
Y55250D01*
X117000Y124000D02*
X117400Y123600D01*
X110335Y124000D02*
X117000D01*
X105000Y118665D02*
X110335Y124000D01*
X105000Y84288D02*
Y118665D01*
X307850Y117400D02*
X313130D01*
X307350Y117900D02*
X307850Y117400D01*
X313130D02*
X316750Y121020D01*
X295400Y117900D02*
X307350D01*
X291255Y113755D02*
X295400Y117900D01*
X277500Y89750D02*
X291255Y103505D01*
Y113755D01*
X238500Y89750D02*
X277500D01*
X232250Y83500D02*
X238500Y89750D01*
X232250Y76750D02*
Y83500D01*
X234431Y149681D02*
Y160569D01*
X231750Y147000D02*
X234431Y149681D01*
X108500Y70250D02*
Y80788D01*
X280750Y34500D02*
Y60175D01*
X238500Y70500D02*
X270425D01*
X280750Y60175D01*
X316750Y121020D02*
Y179500D01*
X306250Y190000D02*
X316750Y179500D01*
X306250Y190000D02*
Y202250D01*
X310250Y233750D02*
X339750D01*
X307500Y231000D02*
X310250Y233750D01*
X83500Y92250D02*
X85750D01*
X79250Y96500D02*
X83500Y92250D01*
X79250Y96500D02*
Y102750D01*
X81500Y105000D01*
X339750Y233750D02*
X358500Y252500D01*
X231750Y134500D02*
Y147000D01*
Y134500D02*
X236750Y129500D01*
Y116250D02*
Y129500D01*
X232750Y112250D02*
X236750Y116250D01*
X221750Y112250D02*
X232750D01*
X105000Y84288D02*
X108500Y80788D01*
X280750Y34500D02*
X286500Y28750D01*
Y24500D02*
Y28750D01*
X111250Y192000D02*
X115500D01*
X106750D02*
X111250D01*
X289000Y219500D02*
Y223250D01*
Y219500D02*
X306250Y202250D01*
X232250Y76750D02*
X238500Y70500D01*
X81500Y105000D02*
Y117000D01*
X73750Y124750D02*
X81500Y117000D01*
X86750Y92250D02*
X90000D01*
D155*
X104500Y58000D02*
X114500Y68000D01*
X99882Y58000D02*
X104500D01*
X95000Y53118D02*
X99882Y58000D01*
X127000Y112500D02*
X135000Y104500D01*
X82000Y29500D02*
Y33750D01*
Y29500D02*
X83500Y28000D01*
X118114Y68000D02*
X120750Y70636D01*
X114500Y68000D02*
X118114D01*
X120750Y70636D02*
Y80750D01*
X83500Y28000D02*
X95500D01*
X97750Y30250D01*
X95000Y40750D02*
Y53118D01*
Y40750D02*
X97750Y38000D01*
X135000Y104500D02*
X137750Y107250D01*
X120250Y112500D02*
X127000D01*
X111250Y90250D02*
X120750Y80750D01*
X97750Y30250D02*
Y38000D01*
X111250Y90250D02*
Y103500D01*
X120250Y112500D01*
D159*
X326580Y183420D02*
X331817D01*
D161*
X191000Y133000D02*
D03*
X287000Y255000D02*
D03*
X47500Y134500D02*
D03*
X79500Y242500D02*
D03*
X56250Y269750D02*
D03*
X56750Y210000D02*
D03*
X210250Y253000D02*
D03*
X29000Y149250D02*
D03*
X-2750Y235750D02*
D03*
X500Y249500D02*
D03*
X146750Y225750D02*
D03*
X60000Y185250D02*
D03*
X265000Y293500D02*
D03*
X145768Y208518D02*
D03*
X32500Y236500D02*
D03*
X96250Y224000D02*
D03*
X109750Y205250D02*
D03*
X41500Y210500D02*
D03*
X172509Y158500D02*
D03*
X17500Y278000D02*
D03*
X64000Y272500D02*
D03*
X59500Y180500D02*
D03*
X82000Y29500D02*
D03*
Y33750D02*
D03*
X254750Y165590D02*
D03*
X135000Y104500D02*
D03*
X137750Y107250D02*
D03*
X103250Y255000D02*
D03*
X149750Y292250D02*
D03*
X152000Y188750D02*
D03*
X182509Y148500D02*
D03*
X172509D02*
D03*
X433250Y205250D02*
D03*
X459250Y170750D02*
D03*
X464250Y211500D02*
D03*
X122509Y118500D02*
D03*
X330250Y72750D02*
D03*
X348750Y252250D02*
D03*
X303000Y239500D02*
D03*
X358500Y252500D02*
D03*
X206000Y39750D02*
D03*
X202000Y39750D02*
D03*
X86250Y8000D02*
D03*
X88250Y4500D02*
D03*
X90250Y8000D02*
D03*
X289000Y223750D02*
D03*
X294750Y222750D02*
D03*
X237500Y80250D02*
D03*
X286500Y24500D02*
D03*
Y28750D02*
D03*
X303000Y58750D02*
D03*
X307500D02*
D03*
X23500Y121750D02*
D03*
X198500Y106000D02*
D03*
X14000Y61250D02*
D03*
X347500Y269000D02*
D03*
X177509Y123500D02*
D03*
X347000Y70250D02*
D03*
X359250Y175750D02*
D03*
X232000Y103750D02*
D03*
X103250Y76750D02*
D03*
X-3250Y24250D02*
D03*
X188000Y239250D02*
D03*
X178250Y206500D02*
D03*
X83500Y137000D02*
D03*
X188000Y258250D02*
D03*
X67250Y55750D02*
D03*
X222750Y228750D02*
D03*
X231500Y231750D02*
D03*
X171250Y279500D02*
D03*
X286250Y274000D02*
D03*
X115500Y192000D02*
D03*
X128500Y212250D02*
D03*
X111250Y192000D02*
D03*
X106750D02*
D03*
X224500Y207250D02*
D03*
X191000Y137250D02*
D03*
X137500Y219000D02*
D03*
X111500Y286750D02*
D03*
X409000Y234250D02*
D03*
X340000Y37250D02*
D03*
X331000Y43750D02*
D03*
X148250Y96000D02*
D03*
X83750Y41500D02*
D03*
X381750Y244000D02*
D03*
X379250Y221750D02*
D03*
X352000Y287250D02*
D03*
X400000Y287500D02*
D03*
X136000Y273250D02*
D03*
X210750Y275000D02*
D03*
X174750Y267250D02*
D03*
X201500Y252750D02*
D03*
X261500Y274750D02*
D03*
X250750Y289500D02*
D03*
X183750Y274500D02*
D03*
X157250Y274750D02*
D03*
X41750Y20750D02*
D03*
X29000Y241000D02*
D03*
X11500Y233000D02*
D03*
X175750Y195250D02*
D03*
X55000Y185350D02*
D03*
X99500Y165750D02*
D03*
X170000Y95500D02*
D03*
X204000Y119000D02*
D03*
X-1750Y142500D02*
D03*
X372000Y5000D02*
D03*
X90000Y92250D02*
D03*
X85750D02*
D03*
X89000Y101250D02*
D03*
X124500Y105750D02*
D03*
X121250Y103000D02*
D03*
X215250Y59500D02*
D03*
X211000D02*
D03*
X211750Y55250D02*
D03*
X71250Y114000D02*
D03*
X164250Y261750D02*
D03*
X49500Y120500D02*
D03*
X114500Y58250D02*
D03*
X191000Y172500D02*
D03*
X5750Y82000D02*
D03*
X156500Y195975D02*
D03*
X205250Y141250D02*
D03*
X8550Y126500D02*
D03*
X162509Y118500D02*
D03*
X85000Y121250D02*
D03*
X84000Y127000D02*
D03*
X157509Y128500D02*
D03*
X28750Y204500D02*
D03*
X5750Y197250D02*
D03*
X104000Y49750D02*
D03*
X340500Y269000D02*
D03*
X332250D02*
D03*
X324000D02*
D03*
X315750D02*
D03*
X307500D02*
D03*
X299250D02*
D03*
X84850Y175450D02*
D03*
X88750Y150950D02*
D03*
X71750Y152250D02*
D03*
X167509Y138500D02*
D03*
Y158500D02*
D03*
X177509Y128500D02*
D03*
X142509Y133500D02*
D03*
X108000Y176000D02*
D03*
X147509Y148500D02*
D03*
X132509Y118500D02*
D03*
X152509Y153500D02*
D03*
X132509Y178500D02*
D03*
X117509Y173500D02*
D03*
X112509Y118750D02*
D03*
X137509Y123500D02*
D03*
X117509Y153500D02*
D03*
X122509Y138500D02*
D03*
X10000Y68750D02*
D03*
X14500Y131750D02*
D03*
X11950Y143500D02*
D03*
X1750Y159000D02*
D03*
X57750Y40500D02*
D03*
X218750Y129250D02*
D03*
X371750Y122500D02*
D03*
X348500Y226000D02*
D03*
X235000Y212500D02*
D03*
X383923Y114500D02*
D03*
X373673Y88500D02*
D03*
X111500Y249750D02*
D03*
X153750Y247750D02*
D03*
X97500Y274750D02*
D03*
X106250Y272000D02*
D03*
X450000Y191750D02*
D03*
X368250Y147500D02*
D03*
X402750Y21750D02*
D03*
X403000Y9500D02*
D03*
X463500Y63500D02*
D03*
X445500Y91500D02*
D03*
X329250Y18500D02*
D03*
X200250Y7500D02*
D03*
X204500D02*
D03*
X375750Y11750D02*
D03*
X179146Y231250D02*
D03*
X183750Y231250D02*
D03*
X187250Y6750D02*
D03*
X196000Y7500D02*
D03*
X404750Y70000D02*
D03*
X411750Y223500D02*
D03*
X400500Y211750D02*
D03*
X374500Y248250D02*
D03*
X306250Y287750D02*
D03*
X187250Y217500D02*
D03*
X218250Y8500D02*
D03*
X-9750Y154250D02*
D03*
X92500Y33750D02*
D03*
X88250D02*
D03*
X307000Y223000D02*
D03*
X347250Y213500D02*
D03*
X316750Y55500D02*
D03*
X375000Y45750D02*
D03*
X373500Y37000D02*
D03*
X400250Y38750D02*
D03*
X381250Y28750D02*
D03*
X444000Y155750D02*
D03*
X433250Y150750D02*
D03*
X259500Y31000D02*
D03*
X387500Y146250D02*
D03*
X431000Y91500D02*
D03*
X337500Y84750D02*
D03*
X312500Y89750D02*
D03*
X309315Y106830D02*
D03*
X182500Y49250D02*
D03*
X173750Y45250D02*
D03*
X178250Y49250D02*
D03*
X-8654Y98497D02*
D03*
X-4000Y98500D02*
D03*
X-9500Y128747D02*
D03*
X-9500Y134494D02*
D03*
X-5000Y162500D02*
D03*
X-9250Y162500D02*
D03*
X-5250Y253997D02*
D03*
X-9750Y253995D02*
D03*
X-9750Y236750D02*
D03*
Y231250D02*
D03*
X-9500Y213000D02*
D03*
Y217250D02*
D03*
X181000Y210750D02*
D03*
X207250Y214750D02*
D03*
X-9500Y124000D02*
D03*
X-9250Y78497D02*
D03*
X394500Y173500D02*
D03*
X404500Y133000D02*
D03*
Y140000D02*
D03*
X5250Y5750D02*
D03*
X308000Y245000D02*
D03*
X414500Y200500D02*
D03*
X210250Y74750D02*
D03*
X214000Y69500D02*
D03*
X203000Y66750D02*
D03*
X64000Y17000D02*
D03*
X25500Y22500D02*
D03*
X38000Y5250D02*
D03*
X56500Y4750D02*
D03*
X52000Y27250D02*
D03*
X30750D02*
D03*
X-8750Y45000D02*
D03*
Y39750D02*
D03*
X42500Y287500D02*
D03*
X246045Y156781D02*
D03*
X258250Y202250D02*
D03*
X268250Y204750D02*
D03*
X374750Y174000D02*
D03*
X304500Y79000D02*
D03*
X276000Y80250D02*
D03*
X266250Y77250D02*
D03*
X254000Y79750D02*
D03*
X243250D02*
D03*
X345750Y116750D02*
D03*
X299500Y181750D02*
D03*
X349371Y167579D02*
D03*
X327000Y54750D02*
D03*
X458750Y192000D02*
D03*
X424750Y184250D02*
D03*
X440750Y101000D02*
D03*
X430925Y119000D02*
D03*
X401000Y136500D02*
D03*
X410000Y115000D02*
D03*
X391000Y123750D02*
D03*
X411500Y165000D02*
D03*
X416250Y178000D02*
D03*
X395250Y57750D02*
D03*
X389500D02*
D03*
X426500Y213250D02*
D03*
X390000Y282500D02*
D03*
X323750Y284250D02*
D03*
X339250Y283500D02*
D03*
X416750Y130000D02*
D03*
X400750Y65750D02*
D03*
X415000Y99250D02*
D03*
X404750Y85500D02*
D03*
X407000Y251750D02*
D03*
X342615Y180090D02*
D03*
X289335Y200071D02*
D03*
X246045Y183421D02*
D03*
X233250Y183369D02*
D03*
X325965Y196741D02*
D03*
X266025Y190081D02*
D03*
X282675Y193411D02*
D03*
X329295Y186751D02*
D03*
X332625Y183420D02*
D03*
X305985Y103500D02*
D03*
X252705Y143460D02*
D03*
X249375Y146790D02*
D03*
X252705Y136800D02*
D03*
X242715Y120150D02*
D03*
X286005Y110160D02*
D03*
X272685Y103500D02*
D03*
X266025Y96840D02*
D03*
X339285Y170100D02*
D03*
Y163440D02*
D03*
X270000Y31000D02*
D03*
X259500Y43000D02*
D03*
Y19000D02*
D03*
Y37250D02*
D03*
Y24750D02*
D03*
X292500Y11750D02*
D03*
X297000D02*
D03*
X294750Y49750D02*
D03*
X290000D02*
D03*
X228000Y49250D02*
D03*
X232000D02*
D03*
X223750Y12500D02*
D03*
X228500D02*
D03*
X168500Y12250D02*
D03*
X173250D02*
D03*
X100000Y51000D02*
D03*
X135750Y24750D02*
D03*
X135750Y19000D02*
D03*
X125250Y31000D02*
D03*
D162*
X71500Y211000D02*
D03*
X82500D02*
D03*
X71500Y222000D02*
D03*
X82500Y222000D02*
D03*
X39750Y158250D02*
D03*
Y169250D02*
D03*
X50750Y158250D02*
D03*
Y169250D02*
D03*
X310645Y173400D02*
D03*
Y123400D02*
D03*
X270645D02*
D03*
Y173400D02*
D03*
D163*
X41750Y102250D02*
D03*
Y91250D02*
D03*
X52750Y102250D02*
D03*
Y91250D02*
D03*
X290645Y133500D02*
D03*
Y123500D02*
D03*
Y153500D02*
D03*
Y143500D02*
D03*
Y163500D02*
D03*
Y173500D02*
D03*
X300645Y173400D02*
D03*
Y163400D02*
D03*
Y143400D02*
D03*
Y153400D02*
D03*
Y123400D02*
D03*
Y133400D02*
D03*
X310645Y163400D02*
D03*
Y143400D02*
D03*
Y153400D02*
D03*
Y133400D02*
D03*
X270645D02*
D03*
Y153400D02*
D03*
Y143400D02*
D03*
Y163400D02*
D03*
X280645Y133400D02*
D03*
Y123400D02*
D03*
Y153400D02*
D03*
Y143400D02*
D03*
Y163400D02*
D03*
Y173400D02*
D03*
D164*
X214250Y58000D02*
X221750Y65500D01*
X198250Y135750D02*
X221750Y112250D01*
Y65500D02*
Y112250D01*
X191750Y135750D02*
X198250D01*
D165*
X194250Y78500D02*
X198500D01*
X168500Y104250D02*
X194250Y78500D01*
X155000Y104250D02*
X168500D01*
X207900Y63540D02*
Y69100D01*
X198500Y78500D02*
X207900Y69100D01*
X206100Y42400D02*
Y61740D01*
X207900Y63540D01*
X142409Y116840D02*
X155000Y104250D01*
X142409Y116840D02*
Y125530D01*
X139539Y128400D02*
X142409Y125530D01*
X132409Y128400D02*
X139539D01*
X127610Y123600D02*
X132409Y128400D01*
X117400Y123600D02*
X127610D01*
M02*
