G04*
G04 #@! TF.GenerationSoftware,Altium Limited,Altium Designer,19.1.6 (110)*
G04*
G04 Layer_Color=65535*
%FSLAX44Y44*%
%MOMM*%
G71*
G01*
G75*
%ADD10C,0.1000*%
%ADD11C,0.1500*%
%ADD12C,0.2540*%
%ADD13C,0.3000*%
%ADD14C,0.1270*%
%ADD15C,0.2000*%
%ADD16C,0.2500*%
G36*
X134000Y104000D02*
Y102000D01*
X132000D01*
Y104000D01*
X134000D01*
D02*
G37*
G36*
X62500Y186750D02*
X67500D01*
Y181750D01*
X62500Y186750D01*
D02*
G37*
G36*
X51500Y195500D02*
X64500Y195500D01*
X51500Y208500D01*
X51500Y195500D01*
D02*
G37*
G36*
X224500Y58750D02*
Y60750D01*
X226500D01*
Y58750D01*
X224500D01*
D02*
G37*
G36*
X178000Y197000D02*
X180000D01*
Y195000D01*
X178000D01*
Y197000D01*
D02*
G37*
G36*
X439875Y79000D02*
Y76250D01*
X434500D01*
X439875Y79000D01*
D02*
G37*
G36*
X287629Y161499D02*
X287789Y161489D01*
X287976Y161480D01*
X288182Y161452D01*
X288398Y161424D01*
X288604Y161377D01*
Y156663D01*
X288623D01*
X288669D01*
X288726Y156653D01*
X288782D01*
X288791D01*
X288810D01*
X288848D01*
X288894Y156663D01*
X288960D01*
X289026Y156672D01*
X289185Y156700D01*
X289363Y156747D01*
X289541Y156822D01*
X289729Y156916D01*
X289897Y157047D01*
Y157056D01*
X289916Y157066D01*
X289963Y157122D01*
X290028Y157206D01*
X290103Y157319D01*
X290188Y157459D01*
X290253Y157628D01*
X290300Y157806D01*
X290310Y157909D01*
X290319Y158012D01*
Y158050D01*
X290310Y158106D01*
X290300Y158172D01*
X290291Y158246D01*
X290272Y158340D01*
X290235Y158443D01*
X290197Y158556D01*
X290150Y158668D01*
X290085Y158790D01*
X290000Y158912D01*
X289916Y159034D01*
X289804Y159156D01*
X289672Y159268D01*
X289522Y159381D01*
X289354Y159484D01*
X289635Y161171D01*
X289644Y161161D01*
X289682Y161152D01*
X289729Y161124D01*
X289804Y161077D01*
X289888Y161030D01*
X289982Y160974D01*
X290085Y160899D01*
X290207Y160824D01*
X290328Y160730D01*
X290450Y160627D01*
X290703Y160402D01*
X290947Y160140D01*
X291050Y159999D01*
X291153Y159849D01*
X291163Y159840D01*
X291172Y159812D01*
X291200Y159765D01*
X291228Y159709D01*
X291266Y159624D01*
X291313Y159531D01*
X291359Y159427D01*
X291406Y159306D01*
X291453Y159174D01*
X291500Y159034D01*
X291537Y158884D01*
X291584Y158724D01*
X291641Y158378D01*
X291650Y158190D01*
X291659Y158003D01*
Y157937D01*
X291650Y157872D01*
X291641Y157768D01*
X291631Y157647D01*
X291612Y157515D01*
X291584Y157356D01*
X291547Y157187D01*
X291500Y157009D01*
X291444Y156831D01*
X291369Y156634D01*
X291284Y156447D01*
X291191Y156250D01*
X291069Y156072D01*
X290938Y155885D01*
X290778Y155716D01*
X290769Y155707D01*
X290741Y155678D01*
X290685Y155632D01*
X290619Y155585D01*
X290525Y155510D01*
X290422Y155444D01*
X290291Y155360D01*
X290150Y155285D01*
X289991Y155200D01*
X289813Y155116D01*
X289616Y155050D01*
X289410Y154985D01*
X289185Y154929D01*
X288951Y154882D01*
X288688Y154854D01*
X288426Y154844D01*
X288407D01*
X288360D01*
X288285Y154854D01*
X288182D01*
X288060Y154872D01*
X287920Y154882D01*
X287751Y154910D01*
X287573Y154947D01*
X287385Y154985D01*
X287179Y155041D01*
X286973Y155097D01*
X286758Y155172D01*
X286532Y155266D01*
X286317Y155369D01*
X286101Y155491D01*
X285886Y155632D01*
X285867Y155641D01*
X285820Y155678D01*
X285745Y155744D01*
X285651Y155828D01*
X285539Y155941D01*
X285408Y156081D01*
X285267Y156241D01*
X285127Y156419D01*
X284986Y156625D01*
X284855Y156859D01*
X284724Y157112D01*
X284611Y157384D01*
X284517Y157684D01*
X284442Y158003D01*
X284396Y158350D01*
X284377Y158715D01*
Y158771D01*
X284386Y158837D01*
Y158931D01*
X284405Y159034D01*
X284414Y159165D01*
X284442Y159296D01*
X284480Y159456D01*
X284517Y159615D01*
X284574Y159774D01*
X284639Y159943D01*
X284714Y160112D01*
X284808Y160280D01*
X284911Y160449D01*
X285033Y160599D01*
X285173Y160749D01*
X285183Y160758D01*
X285211Y160786D01*
X285258Y160824D01*
X285314Y160871D01*
X285398Y160927D01*
X285501Y160993D01*
X285614Y161058D01*
X285745Y161133D01*
X285895Y161199D01*
X286054Y161264D01*
X286242Y161330D01*
X286439Y161386D01*
X286654Y161443D01*
X286879Y161480D01*
X287123Y161499D01*
X287385Y161508D01*
X287395D01*
X287414D01*
X287451D01*
X287498D01*
X287554D01*
X287629Y161499D01*
D02*
G37*
G36*
X291500Y152773D02*
Y150805D01*
X281893Y152810D01*
Y154779D01*
X291500Y152773D01*
D02*
G37*
G36*
X285023Y148761D02*
X285014D01*
X284986Y148752D01*
X284939Y148743D01*
X284883Y148733D01*
X284817Y148715D01*
X284742Y148687D01*
X284555Y148630D01*
X284358Y148546D01*
X284161Y148433D01*
X283974Y148312D01*
X283889Y148237D01*
X283815Y148152D01*
Y148143D01*
X283796Y148133D01*
X283777Y148105D01*
X283758Y148068D01*
X283721Y148021D01*
X283693Y147974D01*
X283618Y147834D01*
X283552Y147665D01*
X283486Y147459D01*
X283449Y147224D01*
X283430Y146952D01*
Y146878D01*
X283440Y146812D01*
X283449Y146746D01*
X283458Y146653D01*
X283468Y146559D01*
X283496Y146456D01*
X283552Y146222D01*
X283646Y145968D01*
X283702Y145828D01*
X283768Y145697D01*
X283843Y145556D01*
X283936Y145425D01*
X283946Y145415D01*
X283955Y145397D01*
X283993Y145359D01*
X284030Y145303D01*
X284086Y145247D01*
X284152Y145181D01*
X284227Y145097D01*
X284321Y145012D01*
X284424Y144928D01*
X284536Y144834D01*
X284667Y144741D01*
X284808Y144647D01*
X284958Y144553D01*
X285127Y144459D01*
X285305Y144375D01*
X285501Y144291D01*
X285511D01*
X285548Y144272D01*
X285605Y144253D01*
X285680Y144225D01*
X285783Y144197D01*
X285895Y144159D01*
X286017Y144122D01*
X286158Y144085D01*
X286317Y144038D01*
X286486Y144000D01*
X286842Y143935D01*
X287217Y143888D01*
X287414Y143878D01*
X287610Y143869D01*
X287620D01*
X287657D01*
X287723D01*
X287798Y143878D01*
X287901Y143888D01*
X288013Y143897D01*
X288135Y143916D01*
X288267Y143935D01*
X288557Y144000D01*
X288707Y144047D01*
X288857Y144103D01*
X288997Y144159D01*
X289147Y144235D01*
X289279Y144319D01*
X289401Y144413D01*
X289410Y144422D01*
X289429Y144441D01*
X289457Y144469D01*
X289494Y144516D01*
X289550Y144563D01*
X289597Y144628D01*
X289654Y144703D01*
X289710Y144797D01*
X289775Y144891D01*
X289832Y144994D01*
X289925Y145228D01*
X289972Y145359D01*
X290000Y145490D01*
X290019Y145640D01*
X290028Y145790D01*
Y145865D01*
X290019Y145922D01*
X290010Y145987D01*
X290000Y146072D01*
X289991Y146156D01*
X289963Y146259D01*
X289907Y146475D01*
X289822Y146709D01*
X289766Y146831D01*
X289691Y146952D01*
X289616Y147074D01*
X289532Y147196D01*
X289522Y147206D01*
X289504Y147224D01*
X289475Y147262D01*
X289438Y147299D01*
X289391Y147356D01*
X289326Y147412D01*
X289251Y147487D01*
X289157Y147552D01*
X289063Y147627D01*
X288951Y147712D01*
X288829Y147787D01*
X288698Y147871D01*
X288557Y147946D01*
X288407Y148021D01*
X288238Y148087D01*
X288060Y148152D01*
X288370Y150149D01*
X288388Y150139D01*
X288444Y150120D01*
X288519Y150083D01*
X288632Y150036D01*
X288773Y149980D01*
X288923Y149905D01*
X289101Y149811D01*
X289279Y149708D01*
X289475Y149586D01*
X289682Y149455D01*
X289888Y149314D01*
X290085Y149155D01*
X290291Y148986D01*
X290488Y148799D01*
X290666Y148602D01*
X290835Y148386D01*
X290844Y148377D01*
X290872Y148330D01*
X290910Y148265D01*
X290966Y148180D01*
X291031Y148068D01*
X291097Y147937D01*
X291181Y147787D01*
X291256Y147609D01*
X291331Y147421D01*
X291406Y147206D01*
X291481Y146990D01*
X291547Y146746D01*
X291603Y146493D01*
X291641Y146222D01*
X291669Y145950D01*
X291678Y145659D01*
Y145584D01*
X291669Y145490D01*
X291659Y145369D01*
X291650Y145219D01*
X291622Y145050D01*
X291594Y144862D01*
X291547Y144656D01*
X291491Y144441D01*
X291416Y144216D01*
X291331Y143981D01*
X291228Y143757D01*
X291106Y143532D01*
X290966Y143307D01*
X290806Y143100D01*
X290619Y142904D01*
X290610Y142894D01*
X290572Y142866D01*
X290506Y142810D01*
X290422Y142754D01*
X290310Y142679D01*
X290179Y142594D01*
X290019Y142501D01*
X289832Y142416D01*
X289625Y142323D01*
X289401Y142229D01*
X289147Y142144D01*
X288866Y142069D01*
X288576Y142013D01*
X288248Y141966D01*
X287901Y141929D01*
X287535Y141919D01*
X287526D01*
X287517D01*
X287460D01*
X287376D01*
X287254Y141929D01*
X287114Y141938D01*
X286945Y141957D01*
X286758Y141976D01*
X286542Y142004D01*
X286317Y142032D01*
X286083Y142079D01*
X285830Y142135D01*
X285576Y142201D01*
X285314Y142276D01*
X285052Y142360D01*
X284789Y142463D01*
X284536Y142576D01*
X284517Y142585D01*
X284480Y142604D01*
X284405Y142641D01*
X284311Y142697D01*
X284199Y142763D01*
X284067Y142847D01*
X283927Y142941D01*
X283768Y143054D01*
X283599Y143185D01*
X283430Y143316D01*
X283262Y143475D01*
X283083Y143635D01*
X282915Y143813D01*
X282755Y144000D01*
X282596Y144206D01*
X282455Y144422D01*
X282446Y144431D01*
X282427Y144478D01*
X282390Y144544D01*
X282343Y144628D01*
X282287Y144741D01*
X282221Y144872D01*
X282155Y145022D01*
X282090Y145190D01*
X282024Y145369D01*
X281959Y145565D01*
X281893Y145781D01*
X281837Y146006D01*
X281790Y146240D01*
X281752Y146484D01*
X281734Y146737D01*
X281724Y146990D01*
Y147056D01*
X281734Y147140D01*
Y147253D01*
X281752Y147384D01*
X281771Y147534D01*
X281799Y147702D01*
X281828Y147890D01*
X281874Y148087D01*
X281931Y148293D01*
X281996Y148499D01*
X282080Y148715D01*
X282174Y148921D01*
X282287Y149127D01*
X282418Y149324D01*
X282568Y149511D01*
X282577Y149521D01*
X282605Y149549D01*
X282652Y149605D01*
X282718Y149661D01*
X282802Y149746D01*
X282905Y149830D01*
X283027Y149924D01*
X283168Y150017D01*
X283318Y150120D01*
X283486Y150214D01*
X283674Y150308D01*
X283880Y150402D01*
X284096Y150486D01*
X284330Y150552D01*
X284583Y150617D01*
X284846Y150655D01*
X285023Y148761D01*
D02*
G37*
G36*
X284499Y141104D02*
X284574Y141095D01*
X284658Y141085D01*
X284761Y141076D01*
X284977Y141038D01*
X285211Y140992D01*
X285464Y140917D01*
X285727Y140823D01*
X285736D01*
X285755Y140814D01*
X285792Y140795D01*
X285839Y140776D01*
X285895Y140748D01*
X285961Y140710D01*
X286120Y140635D01*
X286298Y140532D01*
X286476Y140410D01*
X286654Y140279D01*
X286823Y140129D01*
X286842Y140111D01*
X286889Y140064D01*
X286964Y139979D01*
X287057Y139867D01*
X287160Y139736D01*
X287264Y139586D01*
X287357Y139426D01*
X287451Y139248D01*
Y139239D01*
X287460Y139229D01*
X287470Y139201D01*
X287488Y139164D01*
X287507Y139117D01*
X287526Y139061D01*
X287545Y138995D01*
X287573Y138911D01*
X287629Y138733D01*
X287676Y138517D01*
X287732Y138264D01*
X287779Y137983D01*
Y137964D01*
X287789Y137936D01*
Y137833D01*
X287798Y137767D01*
Y137683D01*
X287807Y137589D01*
X287817Y137477D01*
Y137355D01*
X287826Y137205D01*
Y136877D01*
X287835Y136680D01*
Y134974D01*
X291500Y134206D01*
Y132238D01*
X281893Y134243D01*
Y138320D01*
X281903Y138405D01*
Y138508D01*
X281912Y138620D01*
X281921Y138742D01*
X281959Y139005D01*
X281996Y139286D01*
X282062Y139548D01*
X282099Y139679D01*
X282146Y139792D01*
Y139801D01*
X282155Y139820D01*
X282174Y139848D01*
X282193Y139895D01*
X282249Y140007D01*
X282343Y140139D01*
X282455Y140298D01*
X282596Y140457D01*
X282765Y140617D01*
X282962Y140757D01*
X282971D01*
X282990Y140776D01*
X283018Y140795D01*
X283065Y140814D01*
X283111Y140842D01*
X283177Y140870D01*
X283252Y140898D01*
X283337Y140935D01*
X283533Y141001D01*
X283768Y141057D01*
X284030Y141095D01*
X284311Y141113D01*
X284321D01*
X284339D01*
X284386D01*
X284433D01*
X284499Y141104D01*
D02*
G37*
G36*
X286129Y131450D02*
X286176D01*
X286233Y131441D01*
X286308Y131432D01*
X286383Y131422D01*
X286476Y131403D01*
X286579Y131394D01*
X286692Y131375D01*
X286814Y131347D01*
X286945Y131328D01*
X287095Y131300D01*
X287254Y131263D01*
X291500Y130354D01*
Y128479D01*
X287254Y129379D01*
X287245D01*
X287217Y129388D01*
X287179Y129398D01*
X287132Y129407D01*
X287067Y129416D01*
X286992Y129435D01*
X286842Y129463D01*
X286682Y129491D01*
X286542Y129520D01*
X286476Y129529D01*
X286420Y129538D01*
X286383Y129548D01*
X286354D01*
X286345D01*
X286308D01*
X286251Y129538D01*
X286186Y129529D01*
X286111Y129501D01*
X286036Y129473D01*
X285961Y129426D01*
X285895Y129369D01*
X285886Y129360D01*
X285867Y129341D01*
X285839Y129295D01*
X285802Y129238D01*
X285773Y129163D01*
X285745Y129079D01*
X285727Y128967D01*
X285717Y128845D01*
Y128779D01*
X285727Y128723D01*
X285736Y128667D01*
X285755Y128592D01*
X285811Y128423D01*
X285848Y128329D01*
X285895Y128226D01*
X285961Y128123D01*
X286036Y128020D01*
X286120Y127907D01*
X286223Y127804D01*
X286336Y127692D01*
X286467Y127589D01*
X286476D01*
X286495Y127570D01*
X286523Y127551D01*
X286570Y127523D01*
X286626Y127486D01*
X286701Y127448D01*
X286795Y127401D01*
X286898Y127345D01*
X287020Y127298D01*
X287160Y127242D01*
X287310Y127176D01*
X287479Y127120D01*
X287676Y127064D01*
X287882Y127008D01*
X288107Y126951D01*
X288351Y126895D01*
X291500Y126239D01*
Y124365D01*
X287292Y125236D01*
X287282D01*
X287264Y125246D01*
X287226Y125255D01*
X287179Y125264D01*
X287114Y125274D01*
X287048Y125283D01*
X286907Y125311D01*
X286748Y125339D01*
X286589Y125367D01*
X286458Y125377D01*
X286401Y125386D01*
X286354D01*
X286345D01*
X286308D01*
X286251Y125377D01*
X286195Y125367D01*
X286120Y125339D01*
X286045Y125311D01*
X285970Y125264D01*
X285895Y125199D01*
X285886Y125189D01*
X285867Y125161D01*
X285839Y125124D01*
X285802Y125068D01*
X285773Y124993D01*
X285745Y124899D01*
X285727Y124796D01*
X285717Y124683D01*
Y124627D01*
X285727Y124571D01*
X285736Y124486D01*
X285764Y124393D01*
X285792Y124280D01*
X285839Y124168D01*
X285905Y124046D01*
X285914Y124027D01*
X285942Y123990D01*
X285979Y123933D01*
X286036Y123849D01*
X286111Y123765D01*
X286195Y123671D01*
X286298Y123568D01*
X286411Y123474D01*
X286429Y123465D01*
X286467Y123437D01*
X286542Y123390D01*
X286636Y123334D01*
X286748Y123268D01*
X286889Y123193D01*
X287057Y123118D01*
X287236Y123052D01*
X287245D01*
X287282Y123034D01*
X287357Y123015D01*
X287404Y123006D01*
X287460Y122987D01*
X287526Y122968D01*
X287601Y122949D01*
X287685Y122931D01*
X287789Y122902D01*
X287892Y122884D01*
X288023Y122856D01*
X288154Y122818D01*
X288304Y122790D01*
X291500Y122125D01*
Y120250D01*
X284536Y121703D01*
Y123465D01*
X285389Y123296D01*
X285380Y123306D01*
X285342Y123343D01*
X285295Y123399D01*
X285230Y123474D01*
X285155Y123568D01*
X285070Y123690D01*
X284977Y123812D01*
X284883Y123962D01*
X284789Y124121D01*
X284695Y124290D01*
X284611Y124468D01*
X284536Y124655D01*
X284471Y124852D01*
X284424Y125058D01*
X284386Y125264D01*
X284377Y125480D01*
Y125555D01*
X284386Y125611D01*
Y125677D01*
X284396Y125752D01*
X284414Y125930D01*
X284461Y126117D01*
X284517Y126323D01*
X284592Y126520D01*
X284705Y126689D01*
Y126698D01*
X284724Y126708D01*
X284761Y126755D01*
X284836Y126830D01*
X284939Y126923D01*
X285070Y127017D01*
X285230Y127101D01*
X285408Y127186D01*
X285614Y127242D01*
X285605D01*
X285586Y127261D01*
X285567Y127280D01*
X285530Y127308D01*
X285427Y127392D01*
X285305Y127514D01*
X285164Y127654D01*
X285023Y127832D01*
X284874Y128048D01*
X284733Y128282D01*
Y128292D01*
X284714Y128310D01*
X284695Y128348D01*
X284677Y128404D01*
X284649Y128460D01*
X284620Y128535D01*
X284592Y128620D01*
X284555Y128714D01*
X284489Y128920D01*
X284433Y129163D01*
X284396Y129416D01*
X284377Y129688D01*
Y129773D01*
X284386Y129829D01*
Y129894D01*
X284396Y129979D01*
X284433Y130166D01*
X284489Y130372D01*
X284564Y130588D01*
X284677Y130803D01*
X284752Y130897D01*
X284827Y130991D01*
X284836Y131000D01*
X284846Y131010D01*
X284874Y131038D01*
X284911Y131066D01*
X284958Y131103D01*
X285005Y131141D01*
X285145Y131225D01*
X285314Y131310D01*
X285520Y131385D01*
X285755Y131441D01*
X285886Y131450D01*
X286017Y131460D01*
X286036D01*
X286083D01*
X286129Y131450D01*
D02*
G37*
G36*
X275676Y156082D02*
X275788Y156072D01*
X275938Y156053D01*
X276107Y156035D01*
X276304Y155997D01*
X276510Y155960D01*
X276735Y155894D01*
X276969Y155829D01*
X277213Y155735D01*
X277457Y155632D01*
X277710Y155510D01*
X277953Y155360D01*
X278197Y155191D01*
X278431Y155004D01*
X278441Y154994D01*
X278488Y154957D01*
X278544Y154891D01*
X278619Y154807D01*
X278713Y154694D01*
X278816Y154563D01*
X278928Y154413D01*
X279041Y154235D01*
X279163Y154038D01*
X279275Y153823D01*
X279378Y153588D01*
X279463Y153326D01*
X279547Y153054D01*
X279603Y152754D01*
X279641Y152436D01*
X279659Y152108D01*
Y152014D01*
X279650Y151939D01*
Y151855D01*
X279641Y151761D01*
X279631Y151648D01*
X279613Y151517D01*
X279566Y151245D01*
X279500Y150955D01*
X279406Y150655D01*
X279275Y150364D01*
X279266Y150355D01*
X279256Y150327D01*
X279238Y150289D01*
X279200Y150243D01*
X279163Y150177D01*
X279116Y150102D01*
X278985Y149943D01*
X278825Y149755D01*
X278638Y149568D01*
X278413Y149390D01*
X278160Y149230D01*
X278150D01*
X278122Y149212D01*
X278085Y149193D01*
X278038Y149174D01*
X277963Y149146D01*
X277888Y149118D01*
X277794Y149080D01*
X277691Y149052D01*
X277588Y149015D01*
X277466Y148977D01*
X277204Y148921D01*
X276913Y148883D01*
X276613Y148865D01*
X276604D01*
X276595D01*
X276566D01*
X276529D01*
X276426Y148874D01*
X276295Y148883D01*
X276126Y148902D01*
X275938Y148921D01*
X275732Y148959D01*
X275507Y149005D01*
X275264Y149062D01*
X275011Y149127D01*
X274757Y149221D01*
X274495Y149324D01*
X274242Y149446D01*
X273989Y149596D01*
X273755Y149764D01*
X273530Y149952D01*
X273520Y149961D01*
X273483Y149999D01*
X273427Y150064D01*
X273352Y150149D01*
X273258Y150261D01*
X273164Y150393D01*
X273061Y150542D01*
X272949Y150721D01*
X272845Y150917D01*
X272742Y151133D01*
X272639Y151367D01*
X272555Y151620D01*
X272480Y151892D01*
X272424Y152183D01*
X272386Y152492D01*
X272377Y152820D01*
Y152886D01*
X272386Y152970D01*
Y153073D01*
X272405Y153204D01*
X272424Y153354D01*
X272452Y153514D01*
X272480Y153701D01*
X272527Y153889D01*
X272583Y154085D01*
X272658Y154282D01*
X272733Y154479D01*
X272836Y154676D01*
X272949Y154873D01*
X273080Y155051D01*
X273230Y155219D01*
X273239Y155229D01*
X273267Y155257D01*
X273314Y155304D01*
X273380Y155360D01*
X273473Y155426D01*
X273577Y155491D01*
X273689Y155576D01*
X273830Y155660D01*
X273989Y155735D01*
X274158Y155819D01*
X274345Y155885D01*
X274542Y155960D01*
X274767Y156007D01*
X275001Y156053D01*
X275245Y156082D01*
X275507Y156091D01*
X275526D01*
X275582D01*
X275676Y156082D01*
D02*
G37*
G36*
X274120Y148471D02*
Y148462D01*
X274101Y148424D01*
X274092Y148377D01*
X274073Y148302D01*
X274055Y148218D01*
X274045Y148124D01*
X274026Y147918D01*
Y147871D01*
X274036Y147834D01*
X274045Y147740D01*
X274073Y147609D01*
X274120Y147459D01*
X274186Y147290D01*
X274279Y147112D01*
X274401Y146925D01*
Y146915D01*
X274420Y146906D01*
X274439Y146878D01*
X274467Y146840D01*
X274551Y146756D01*
X274664Y146643D01*
X274804Y146512D01*
X274973Y146390D01*
X275170Y146259D01*
X275385Y146147D01*
X275395D01*
X275413Y146137D01*
X275451Y146119D01*
X275498Y146100D01*
X275564Y146072D01*
X275648Y146044D01*
X275742Y146006D01*
X275854Y145969D01*
X275985Y145931D01*
X276126Y145884D01*
X276285Y145847D01*
X276463Y145791D01*
X276651Y145744D01*
X276857Y145697D01*
X277082Y145641D01*
X277326Y145594D01*
X279500Y145134D01*
Y143260D01*
X272536Y144713D01*
Y146465D01*
X273886Y146194D01*
X273867Y146203D01*
X273820Y146240D01*
X273745Y146297D01*
X273652Y146362D01*
X273539Y146456D01*
X273408Y146568D01*
X273267Y146690D01*
X273127Y146831D01*
X272986Y146981D01*
X272855Y147150D01*
X272724Y147318D01*
X272611Y147506D01*
X272517Y147703D01*
X272442Y147899D01*
X272396Y148106D01*
X272377Y148321D01*
Y148396D01*
X272386Y148471D01*
X272405Y148584D01*
X272424Y148715D01*
X272461Y148855D01*
X272517Y149024D01*
X272583Y149193D01*
X274120Y148471D01*
D02*
G37*
G36*
X274898Y141151D02*
X274889D01*
X274870D01*
X274842Y141142D01*
X274804Y141132D01*
X274701Y141114D01*
X274570Y141086D01*
X274439Y141029D01*
X274289Y140973D01*
X274158Y140889D01*
X274045Y140786D01*
X274036Y140776D01*
X273998Y140729D01*
X273951Y140673D01*
X273905Y140579D01*
X273848Y140476D01*
X273811Y140345D01*
X273773Y140195D01*
X273764Y140026D01*
Y139970D01*
X273773Y139933D01*
X273783Y139830D01*
X273811Y139698D01*
X273867Y139539D01*
X273942Y139370D01*
X274036Y139183D01*
X274101Y139099D01*
X274176Y139005D01*
Y138995D01*
X274195Y138986D01*
X274223Y138958D01*
X274251Y138930D01*
X274298Y138892D01*
X274345Y138845D01*
X274411Y138789D01*
X274476Y138742D01*
X274561Y138686D01*
X274654Y138621D01*
X274748Y138564D01*
X274861Y138499D01*
X274982Y138442D01*
X275104Y138386D01*
X275245Y138330D01*
X275395Y138283D01*
X275404D01*
X275432Y138274D01*
X275470Y138264D01*
X275535Y138246D01*
X275601Y138227D01*
X275685Y138208D01*
X275779Y138180D01*
X275882Y138161D01*
X276117Y138114D01*
X276370Y138077D01*
X276641Y138049D01*
X276904Y138039D01*
X276913D01*
X276932D01*
X276960D01*
X277007Y138049D01*
X277119Y138058D01*
X277251Y138077D01*
X277410Y138114D01*
X277569Y138171D01*
X277719Y138236D01*
X277860Y138339D01*
X277869Y138358D01*
X277907Y138396D01*
X277963Y138461D01*
X278019Y138546D01*
X278085Y138658D01*
X278132Y138780D01*
X278169Y138930D01*
X278188Y139089D01*
Y139108D01*
X278179Y139164D01*
X278169Y139258D01*
X278150Y139370D01*
X278104Y139501D01*
X278047Y139651D01*
X277972Y139801D01*
X277860Y139961D01*
Y139970D01*
X277841Y139979D01*
X277794Y140026D01*
X277719Y140111D01*
X277616Y140204D01*
X277475Y140308D01*
X277307Y140420D01*
X277110Y140533D01*
X276876Y140626D01*
X277176Y142454D01*
X277185Y142444D01*
X277232Y142435D01*
X277288Y142407D01*
X277372Y142369D01*
X277475Y142323D01*
X277597Y142266D01*
X277729Y142191D01*
X277860Y142116D01*
X278010Y142023D01*
X278160Y141920D01*
X278319Y141817D01*
X278469Y141695D01*
X278619Y141564D01*
X278769Y141413D01*
X278909Y141264D01*
X279031Y141104D01*
X279041Y141095D01*
X279060Y141067D01*
X279088Y141020D01*
X279125Y140945D01*
X279181Y140861D01*
X279228Y140767D01*
X279284Y140645D01*
X279341Y140523D01*
X279406Y140373D01*
X279463Y140223D01*
X279509Y140055D01*
X279556Y139867D01*
X279603Y139680D01*
X279631Y139483D01*
X279650Y139277D01*
X279659Y139061D01*
Y139005D01*
X279650Y138930D01*
Y138845D01*
X279631Y138733D01*
X279622Y138602D01*
X279594Y138452D01*
X279556Y138302D01*
X279519Y138133D01*
X279463Y137964D01*
X279406Y137786D01*
X279331Y137608D01*
X279238Y137440D01*
X279135Y137271D01*
X279013Y137102D01*
X278872Y136952D01*
X278863Y136943D01*
X278834Y136915D01*
X278788Y136877D01*
X278722Y136830D01*
X278647Y136774D01*
X278544Y136708D01*
X278431Y136634D01*
X278300Y136568D01*
X278150Y136493D01*
X277991Y136418D01*
X277813Y136352D01*
X277616Y136296D01*
X277400Y136249D01*
X277176Y136212D01*
X276941Y136184D01*
X276688Y136174D01*
X276679D01*
X276641D01*
X276576D01*
X276491Y136184D01*
X276398Y136193D01*
X276276Y136202D01*
X276145Y136212D01*
X275995Y136230D01*
X275835Y136259D01*
X275667Y136287D01*
X275310Y136371D01*
X275123Y136427D01*
X274926Y136493D01*
X274739Y136559D01*
X274551Y136643D01*
X274542Y136652D01*
X274504Y136662D01*
X274457Y136690D01*
X274383Y136727D01*
X274298Y136784D01*
X274205Y136840D01*
X274092Y136915D01*
X273970Y136999D01*
X273848Y137093D01*
X273717Y137196D01*
X273586Y137308D01*
X273455Y137440D01*
X273323Y137580D01*
X273192Y137730D01*
X273070Y137889D01*
X272958Y138058D01*
X272949Y138068D01*
X272930Y138105D01*
X272902Y138152D01*
X272864Y138227D01*
X272827Y138311D01*
X272771Y138424D01*
X272724Y138546D01*
X272667Y138677D01*
X272611Y138827D01*
X272564Y138986D01*
X272508Y139164D01*
X272470Y139342D01*
X272433Y139539D01*
X272405Y139736D01*
X272386Y139942D01*
X272377Y140148D01*
Y140270D01*
X272386Y140354D01*
X272396Y140457D01*
X272414Y140579D01*
X272433Y140711D01*
X272461Y140851D01*
X272489Y141011D01*
X272536Y141170D01*
X272583Y141329D01*
X272649Y141489D01*
X272724Y141657D01*
X272808Y141817D01*
X272911Y141966D01*
X273023Y142107D01*
X273033Y142116D01*
X273052Y142135D01*
X273089Y142173D01*
X273136Y142229D01*
X273202Y142285D01*
X273277Y142351D01*
X273370Y142416D01*
X273473Y142491D01*
X273586Y142566D01*
X273717Y142632D01*
X273858Y142707D01*
X274008Y142773D01*
X274167Y142829D01*
X274336Y142876D01*
X274514Y142913D01*
X274711Y142941D01*
X274898Y141151D01*
D02*
G37*
G36*
X271590Y135696D02*
Y133822D01*
X269893Y134178D01*
Y136052D01*
X271590Y135696D01*
D02*
G37*
G36*
X279500Y134047D02*
Y132172D01*
X272536Y133625D01*
Y135499D01*
X279500Y134047D01*
D02*
G37*
G36*
Y130223D02*
Y128433D01*
X271533Y130091D01*
X279500Y126530D01*
Y124655D01*
X271477Y124299D01*
X279500Y122781D01*
Y120991D01*
X269893Y122996D01*
Y125817D01*
X276501Y126117D01*
X269893Y129135D01*
Y131966D01*
X279500Y130223D01*
D02*
G37*
G36*
X289230Y115406D02*
X289296D01*
X289370Y115397D01*
X289464Y115378D01*
X289558Y115359D01*
X289764Y115312D01*
X289989Y115228D01*
X290223Y115125D01*
X290345Y115050D01*
X290458Y114975D01*
X290467Y114966D01*
X290486Y114956D01*
X290514Y114928D01*
X290551Y114891D01*
X290608Y114853D01*
X290664Y114797D01*
X290795Y114656D01*
X290936Y114488D01*
X291086Y114281D01*
X291217Y114038D01*
X291339Y113766D01*
Y113775D01*
X291357Y113794D01*
X291367Y113822D01*
X291395Y113869D01*
X291470Y113972D01*
X291564Y114103D01*
X291686Y114253D01*
X291826Y114403D01*
X291985Y114544D01*
X292173Y114666D01*
X292182D01*
X292192Y114675D01*
X292220Y114694D01*
X292257Y114712D01*
X292360Y114759D01*
X292501Y114816D01*
X292660Y114862D01*
X292838Y114909D01*
X293035Y114947D01*
X293241Y114956D01*
X293251D01*
X293288D01*
X293344Y114947D01*
X293419D01*
X293513Y114937D01*
X293626Y114919D01*
X293748Y114891D01*
X293879Y114862D01*
X294029Y114825D01*
X294179Y114769D01*
X294347Y114712D01*
X294507Y114637D01*
X294675Y114553D01*
X294853Y114450D01*
X295022Y114328D01*
X295191Y114197D01*
X295200Y114188D01*
X295247Y114150D01*
X295303Y114094D01*
X295378Y114010D01*
X295472Y113906D01*
X295575Y113785D01*
X295688Y113644D01*
X295800Y113475D01*
X295913Y113297D01*
X296025Y113100D01*
X296128Y112875D01*
X296222Y112641D01*
X296297Y112388D01*
X296353Y112126D01*
X296400Y111845D01*
X296409Y111545D01*
Y111488D01*
X296400Y111423D01*
Y111338D01*
X296391Y111235D01*
X296372Y111113D01*
X296353Y110982D01*
X296325Y110842D01*
X296287Y110682D01*
X296241Y110523D01*
X296184Y110354D01*
X296119Y110185D01*
X296034Y110017D01*
X295941Y109848D01*
X295838Y109689D01*
X295716Y109539D01*
X295706Y109529D01*
X295678Y109501D01*
X295641Y109464D01*
X295585Y109417D01*
X295510Y109351D01*
X295425Y109286D01*
X295322Y109201D01*
X295200Y109126D01*
X295069Y109042D01*
X294919Y108958D01*
X294760Y108883D01*
X294582Y108808D01*
X294394Y108733D01*
X294188Y108677D01*
X293972Y108620D01*
X293738Y108583D01*
X293513Y110382D01*
X293523D01*
X293551Y110392D01*
X293588D01*
X293635Y110401D01*
X293701Y110420D01*
X293776Y110429D01*
X293935Y110467D01*
X294113Y110523D01*
X294291Y110589D01*
X294450Y110673D01*
X294516Y110720D01*
X294582Y110776D01*
X294591Y110795D01*
X294629Y110832D01*
X294675Y110898D01*
X294722Y110992D01*
X294778Y111104D01*
X294825Y111235D01*
X294863Y111385D01*
X294872Y111563D01*
Y111629D01*
X294863Y111666D01*
Y111723D01*
X294853Y111788D01*
X294816Y111938D01*
X294769Y112107D01*
X294694Y112276D01*
X294582Y112454D01*
X294516Y112538D01*
X294441Y112622D01*
X294432Y112632D01*
X294422Y112641D01*
X294394Y112660D01*
X294366Y112688D01*
X294272Y112763D01*
X294141Y112838D01*
X293982Y112913D01*
X293794Y112988D01*
X293579Y113035D01*
X293457Y113054D01*
X293335D01*
X293326D01*
X293307D01*
X293279D01*
X293241Y113044D01*
X293129Y113035D01*
X292998Y113007D01*
X292848Y112969D01*
X292688Y112904D01*
X292539Y112819D01*
X292398Y112707D01*
X292379Y112688D01*
X292342Y112641D01*
X292285Y112566D01*
X292220Y112463D01*
X292164Y112332D01*
X292107Y112182D01*
X292070Y111994D01*
X292051Y111788D01*
Y111694D01*
X292061Y111601D01*
X292079Y111488D01*
X290514Y111816D01*
Y111873D01*
X290523Y111938D01*
Y112079D01*
X290514Y112126D01*
Y112191D01*
X290505Y112266D01*
X290476Y112426D01*
X290430Y112613D01*
X290364Y112801D01*
X290270Y112988D01*
X290148Y113147D01*
X290139Y113157D01*
X290130Y113166D01*
X290074Y113213D01*
X289989Y113279D01*
X289877Y113354D01*
X289727Y113419D01*
X289549Y113485D01*
X289342Y113532D01*
X289230Y113550D01*
X289108D01*
X289099D01*
X289089D01*
X289033D01*
X288949Y113541D01*
X288836Y113513D01*
X288724Y113485D01*
X288602Y113438D01*
X288480Y113372D01*
X288368Y113279D01*
X288358Y113269D01*
X288321Y113232D01*
X288283Y113175D01*
X288227Y113091D01*
X288180Y112997D01*
X288133Y112875D01*
X288105Y112735D01*
X288096Y112585D01*
Y112519D01*
X288115Y112435D01*
X288133Y112341D01*
X288171Y112229D01*
X288218Y112107D01*
X288293Y111976D01*
X288396Y111854D01*
X288405Y111845D01*
X288452Y111798D01*
X288527Y111741D01*
X288640Y111676D01*
X288780Y111591D01*
X288949Y111507D01*
X289052Y111460D01*
X289164Y111423D01*
X289286Y111385D01*
X289417Y111348D01*
X289080Y109633D01*
X289071D01*
X289033Y109651D01*
X288977Y109670D01*
X288902Y109689D01*
X288818Y109726D01*
X288714Y109764D01*
X288602Y109811D01*
X288480Y109867D01*
X288218Y109998D01*
X287946Y110148D01*
X287683Y110336D01*
X287562Y110439D01*
X287449Y110542D01*
X287440Y110551D01*
X287412Y110579D01*
X287374Y110635D01*
X287318Y110701D01*
X287252Y110785D01*
X287177Y110889D01*
X287102Y111010D01*
X287018Y111142D01*
X286943Y111292D01*
X286868Y111460D01*
X286793Y111638D01*
X286727Y111835D01*
X286671Y112032D01*
X286634Y112247D01*
X286606Y112482D01*
X286596Y112716D01*
Y112847D01*
X286606Y112932D01*
X286615Y113044D01*
X286634Y113166D01*
X286662Y113307D01*
X286690Y113466D01*
X286727Y113625D01*
X286774Y113785D01*
X286840Y113953D01*
X286905Y114122D01*
X286990Y114281D01*
X287093Y114441D01*
X287205Y114591D01*
X287337Y114722D01*
X287346Y114731D01*
X287374Y114750D01*
X287412Y114788D01*
X287468Y114834D01*
X287543Y114881D01*
X287627Y114937D01*
X287721Y115003D01*
X287833Y115069D01*
X287955Y115134D01*
X288096Y115200D01*
X288236Y115256D01*
X288396Y115303D01*
X288564Y115350D01*
X288733Y115387D01*
X288921Y115406D01*
X289108Y115415D01*
X289118D01*
X289136D01*
X289183D01*
X289230Y115406D01*
D02*
G37*
G36*
X296250Y106615D02*
Y104749D01*
X294432Y105134D01*
Y106999D01*
X296250Y106615D01*
D02*
G37*
G36*
Y101535D02*
Y99641D01*
X289605Y101028D01*
Y101019D01*
X289624Y101000D01*
X289642Y100972D01*
X289670Y100925D01*
X289699Y100869D01*
X289736Y100804D01*
X289783Y100729D01*
X289830Y100635D01*
X289942Y100438D01*
X290055Y100204D01*
X290177Y99951D01*
X290298Y99670D01*
Y99660D01*
X290308Y99632D01*
X290326Y99594D01*
X290345Y99538D01*
X290373Y99473D01*
X290401Y99398D01*
X290439Y99304D01*
X290476Y99210D01*
X290542Y98995D01*
X290617Y98770D01*
X290683Y98535D01*
X290739Y98301D01*
X289061Y98657D01*
Y98667D01*
X289052Y98685D01*
X289033Y98723D01*
X289014Y98760D01*
X288986Y98826D01*
X288958Y98891D01*
X288921Y98967D01*
X288874Y99060D01*
X288771Y99257D01*
X288649Y99491D01*
X288508Y99754D01*
X288358Y100035D01*
X288180Y100335D01*
X287993Y100644D01*
X287787Y100954D01*
X287571Y101263D01*
X287337Y101572D01*
X287102Y101872D01*
X286849Y102153D01*
X286587Y102416D01*
Y103550D01*
X296250Y101535D01*
D02*
G37*
G36*
Y93259D02*
Y91637D01*
X289286Y90250D01*
Y92096D01*
X292332Y92584D01*
X292342D01*
X292388Y92593D01*
X292445Y92603D01*
X292529Y92612D01*
X292632Y92631D01*
X292745Y92649D01*
X292866Y92668D01*
X292998Y92687D01*
X293270Y92734D01*
X293541Y92771D01*
X293663Y92790D01*
X293776Y92799D01*
X293879Y92818D01*
X293963Y92828D01*
X293954D01*
X293935Y92846D01*
X293888Y92865D01*
X293822Y92912D01*
X293776Y92940D01*
X293710Y92968D01*
X293644Y93006D01*
X293569Y93052D01*
X293476Y93099D01*
X293373Y93155D01*
X293260Y93221D01*
X293129Y93287D01*
X293120Y93296D01*
X293101Y93306D01*
X293063Y93324D01*
X293007Y93352D01*
X292951Y93380D01*
X292885Y93418D01*
X292735Y93502D01*
X292585Y93587D01*
X292435Y93662D01*
X292370Y93699D01*
X292313Y93727D01*
X292267Y93755D01*
X292229Y93774D01*
X289286Y95508D01*
Y97542D01*
X296250Y93259D01*
D02*
G37*
G36*
X249879Y147695D02*
X250039Y147686D01*
X250226Y147676D01*
X250432Y147648D01*
X250648Y147620D01*
X250854Y147573D01*
Y142859D01*
X250873D01*
X250919D01*
X250976Y142850D01*
X251032D01*
X251041D01*
X251060D01*
X251098D01*
X251144Y142859D01*
X251210D01*
X251276Y142868D01*
X251435Y142896D01*
X251613Y142943D01*
X251791Y143018D01*
X251979Y143112D01*
X252147Y143243D01*
Y143253D01*
X252166Y143262D01*
X252213Y143318D01*
X252278Y143403D01*
X252353Y143515D01*
X252438Y143656D01*
X252504Y143824D01*
X252550Y144002D01*
X252560Y144106D01*
X252569Y144209D01*
Y144246D01*
X252560Y144302D01*
X252550Y144368D01*
X252541Y144443D01*
X252522Y144537D01*
X252485Y144640D01*
X252447Y144752D01*
X252400Y144865D01*
X252335Y144986D01*
X252250Y145108D01*
X252166Y145230D01*
X252054Y145352D01*
X251922Y145464D01*
X251772Y145577D01*
X251604Y145680D01*
X251885Y147367D01*
X251894Y147358D01*
X251932Y147348D01*
X251979Y147320D01*
X252054Y147273D01*
X252138Y147227D01*
X252232Y147170D01*
X252335Y147095D01*
X252457Y147020D01*
X252578Y146927D01*
X252700Y146824D01*
X252953Y146599D01*
X253197Y146336D01*
X253300Y146196D01*
X253403Y146046D01*
X253413Y146036D01*
X253422Y146008D01*
X253450Y145961D01*
X253478Y145905D01*
X253516Y145821D01*
X253563Y145727D01*
X253609Y145624D01*
X253656Y145502D01*
X253703Y145371D01*
X253750Y145230D01*
X253787Y145080D01*
X253834Y144921D01*
X253891Y144574D01*
X253900Y144387D01*
X253909Y144199D01*
Y144134D01*
X253900Y144068D01*
X253891Y143965D01*
X253881Y143843D01*
X253862Y143712D01*
X253834Y143553D01*
X253797Y143384D01*
X253750Y143206D01*
X253694Y143028D01*
X253619Y142831D01*
X253534Y142643D01*
X253441Y142446D01*
X253319Y142268D01*
X253188Y142081D01*
X253028Y141912D01*
X253019Y141903D01*
X252991Y141875D01*
X252935Y141828D01*
X252869Y141781D01*
X252775Y141706D01*
X252672Y141641D01*
X252541Y141556D01*
X252400Y141481D01*
X252241Y141397D01*
X252063Y141312D01*
X251866Y141247D01*
X251660Y141181D01*
X251435Y141125D01*
X251201Y141078D01*
X250938Y141050D01*
X250676Y141041D01*
X250657D01*
X250610D01*
X250535Y141050D01*
X250432D01*
X250310Y141069D01*
X250170Y141078D01*
X250001Y141106D01*
X249823Y141144D01*
X249635Y141181D01*
X249429Y141237D01*
X249223Y141294D01*
X249007Y141369D01*
X248783Y141462D01*
X248567Y141566D01*
X248351Y141687D01*
X248136Y141828D01*
X248117Y141837D01*
X248070Y141875D01*
X247995Y141940D01*
X247901Y142025D01*
X247789Y142137D01*
X247658Y142278D01*
X247517Y142437D01*
X247377Y142615D01*
X247236Y142821D01*
X247105Y143056D01*
X246974Y143309D01*
X246861Y143581D01*
X246767Y143881D01*
X246692Y144199D01*
X246646Y144546D01*
X246627Y144911D01*
Y144968D01*
X246636Y145033D01*
Y145127D01*
X246655Y145230D01*
X246664Y145361D01*
X246692Y145493D01*
X246730Y145652D01*
X246767Y145811D01*
X246824Y145971D01*
X246889Y146139D01*
X246964Y146308D01*
X247058Y146477D01*
X247161Y146645D01*
X247283Y146795D01*
X247423Y146945D01*
X247433Y146955D01*
X247461Y146983D01*
X247508Y147020D01*
X247564Y147067D01*
X247649Y147123D01*
X247752Y147189D01*
X247864Y147255D01*
X247995Y147330D01*
X248145Y147395D01*
X248305Y147461D01*
X248492Y147527D01*
X248689Y147583D01*
X248904Y147639D01*
X249129Y147676D01*
X249373Y147695D01*
X249635Y147705D01*
X249645D01*
X249664D01*
X249701D01*
X249748D01*
X249804D01*
X249879Y147695D01*
D02*
G37*
G36*
X248379Y140019D02*
X248426D01*
X248483Y140010D01*
X248558Y140000D01*
X248633Y139991D01*
X248726Y139972D01*
X248829Y139963D01*
X248942Y139944D01*
X249064Y139916D01*
X249195Y139897D01*
X249345Y139869D01*
X249504Y139832D01*
X253750Y138922D01*
Y137048D01*
X249504Y137948D01*
X249495D01*
X249467Y137957D01*
X249429Y137966D01*
X249382Y137976D01*
X249317Y137985D01*
X249242Y138004D01*
X249092Y138032D01*
X248932Y138060D01*
X248792Y138088D01*
X248726Y138098D01*
X248670Y138107D01*
X248633Y138116D01*
X248605D01*
X248595D01*
X248558D01*
X248501Y138107D01*
X248436Y138098D01*
X248361Y138069D01*
X248286Y138041D01*
X248211Y137994D01*
X248145Y137938D01*
X248136Y137929D01*
X248117Y137910D01*
X248089Y137863D01*
X248051Y137807D01*
X248023Y137732D01*
X247995Y137648D01*
X247976Y137535D01*
X247967Y137413D01*
Y137348D01*
X247976Y137292D01*
X247986Y137235D01*
X248005Y137160D01*
X248061Y136992D01*
X248098Y136898D01*
X248145Y136795D01*
X248211Y136692D01*
X248286Y136589D01*
X248370Y136476D01*
X248473Y136373D01*
X248586Y136261D01*
X248717Y136158D01*
X248726D01*
X248745Y136139D01*
X248773Y136120D01*
X248820Y136092D01*
X248876Y136054D01*
X248951Y136017D01*
X249045Y135970D01*
X249148Y135914D01*
X249270Y135867D01*
X249410Y135811D01*
X249561Y135745D01*
X249729Y135689D01*
X249926Y135633D01*
X250132Y135576D01*
X250357Y135520D01*
X250601Y135464D01*
X253750Y134808D01*
Y132933D01*
X249542Y133805D01*
X249532D01*
X249514Y133814D01*
X249476Y133824D01*
X249429Y133833D01*
X249364Y133842D01*
X249298Y133852D01*
X249157Y133880D01*
X248998Y133908D01*
X248839Y133936D01*
X248708Y133946D01*
X248651Y133955D01*
X248605D01*
X248595D01*
X248558D01*
X248501Y133946D01*
X248445Y133936D01*
X248370Y133908D01*
X248295Y133880D01*
X248220Y133833D01*
X248145Y133767D01*
X248136Y133758D01*
X248117Y133730D01*
X248089Y133693D01*
X248051Y133636D01*
X248023Y133561D01*
X247995Y133468D01*
X247976Y133364D01*
X247967Y133252D01*
Y133196D01*
X247976Y133139D01*
X247986Y133055D01*
X248014Y132962D01*
X248042Y132849D01*
X248089Y132737D01*
X248155Y132615D01*
X248164Y132596D01*
X248192Y132558D01*
X248230Y132502D01*
X248286Y132418D01*
X248361Y132333D01*
X248445Y132240D01*
X248548Y132137D01*
X248661Y132043D01*
X248679Y132034D01*
X248717Y132006D01*
X248792Y131959D01*
X248886Y131902D01*
X248998Y131837D01*
X249139Y131762D01*
X249307Y131687D01*
X249485Y131621D01*
X249495D01*
X249532Y131602D01*
X249607Y131584D01*
X249654Y131574D01*
X249710Y131556D01*
X249776Y131537D01*
X249851Y131518D01*
X249935Y131499D01*
X250039Y131471D01*
X250142Y131453D01*
X250273Y131424D01*
X250404Y131387D01*
X250554Y131359D01*
X253750Y130693D01*
Y128819D01*
X246786Y130272D01*
Y132034D01*
X247639Y131865D01*
X247630Y131874D01*
X247592Y131912D01*
X247545Y131968D01*
X247480Y132043D01*
X247405Y132137D01*
X247320Y132259D01*
X247227Y132380D01*
X247133Y132530D01*
X247039Y132690D01*
X246945Y132858D01*
X246861Y133036D01*
X246786Y133224D01*
X246721Y133421D01*
X246674Y133627D01*
X246636Y133833D01*
X246627Y134049D01*
Y134124D01*
X246636Y134180D01*
Y134246D01*
X246646Y134320D01*
X246664Y134499D01*
X246711Y134686D01*
X246767Y134892D01*
X246842Y135089D01*
X246955Y135258D01*
Y135267D01*
X246974Y135276D01*
X247011Y135323D01*
X247086Y135398D01*
X247189Y135492D01*
X247320Y135586D01*
X247480Y135670D01*
X247658Y135754D01*
X247864Y135811D01*
X247855D01*
X247836Y135829D01*
X247817Y135848D01*
X247780Y135876D01*
X247677Y135961D01*
X247555Y136082D01*
X247414Y136223D01*
X247274Y136401D01*
X247124Y136617D01*
X246983Y136851D01*
Y136861D01*
X246964Y136879D01*
X246945Y136917D01*
X246927Y136973D01*
X246899Y137029D01*
X246870Y137104D01*
X246842Y137189D01*
X246805Y137282D01*
X246739Y137488D01*
X246683Y137732D01*
X246646Y137985D01*
X246627Y138257D01*
Y138341D01*
X246636Y138398D01*
Y138463D01*
X246646Y138547D01*
X246683Y138735D01*
X246739Y138941D01*
X246814Y139157D01*
X246927Y139372D01*
X247002Y139466D01*
X247077Y139560D01*
X247086Y139569D01*
X247096Y139579D01*
X247124Y139607D01*
X247161Y139635D01*
X247208Y139672D01*
X247255Y139710D01*
X247395Y139794D01*
X247564Y139878D01*
X247770Y139953D01*
X248005Y140010D01*
X248136Y140019D01*
X248267Y140028D01*
X248286D01*
X248333D01*
X248379Y140019D01*
D02*
G37*
G36*
X245840Y128659D02*
Y126785D01*
X244143Y127141D01*
Y129016D01*
X245840Y128659D01*
D02*
G37*
G36*
X253750Y127010D02*
Y125135D01*
X246786Y126588D01*
Y128463D01*
X253750Y127010D01*
D02*
G37*
G36*
Y123870D02*
Y117000D01*
X244143Y119006D01*
Y120974D01*
X252147Y119306D01*
Y124207D01*
X253750Y123870D01*
D02*
G37*
G36*
X254121Y174752D02*
X254224Y174743D01*
X254345Y174724D01*
X254477Y174696D01*
X254627Y174668D01*
X254786Y174630D01*
X254945Y174583D01*
X255114Y174518D01*
X255283Y174452D01*
X255451Y174368D01*
X255620Y174265D01*
X255789Y174152D01*
X255939Y174021D01*
X255948Y174012D01*
X255976Y173984D01*
X256014Y173946D01*
X256070Y173881D01*
X256126Y173806D01*
X256201Y173712D01*
X256276Y173599D01*
X256360Y173468D01*
X256445Y173318D01*
X256529Y173159D01*
X256614Y172971D01*
X256689Y172775D01*
X256764Y172559D01*
X256829Y172325D01*
X256876Y172072D01*
X256923Y171800D01*
X256942Y171819D01*
X256989Y171865D01*
X257064Y171940D01*
X257157Y172034D01*
X257288Y172147D01*
X257448Y172259D01*
X257626Y172390D01*
X257823Y172512D01*
X257832Y172521D01*
X257879Y172540D01*
X257935Y172578D01*
X258029Y172625D01*
X258141Y172690D01*
X258282Y172765D01*
X258451Y172850D01*
X258638Y172943D01*
X258854Y173056D01*
X259088Y173168D01*
X259350Y173290D01*
X259641Y173421D01*
X259941Y173552D01*
X260278Y173693D01*
X260625Y173843D01*
X261000Y173993D01*
Y171865D01*
X260991D01*
X260963Y171856D01*
X260916Y171837D01*
X260850Y171809D01*
X260756Y171781D01*
X260653Y171744D01*
X260531Y171697D01*
X260381Y171640D01*
X260213Y171575D01*
X260025Y171509D01*
X259819Y171425D01*
X259594Y171331D01*
X259341Y171228D01*
X259069Y171116D01*
X258779Y170994D01*
X258469Y170863D01*
X258460D01*
X258432Y170844D01*
X258385Y170825D01*
X258319Y170788D01*
X258244Y170750D01*
X258160Y170713D01*
X257963Y170600D01*
X257748Y170469D01*
X257542Y170319D01*
X257448Y170244D01*
X257354Y170160D01*
X257279Y170075D01*
X257213Y169991D01*
X257204Y169981D01*
X257185Y169935D01*
X257148Y169869D01*
X257110Y169766D01*
X257082Y169625D01*
X257045Y169466D01*
X257026Y169260D01*
X257017Y169138D01*
Y168210D01*
X261000Y167376D01*
Y165408D01*
X251393Y167414D01*
Y171856D01*
X251402Y171950D01*
Y172053D01*
X251412Y172175D01*
X251421Y172306D01*
X251449Y172578D01*
X251496Y172859D01*
X251552Y173140D01*
X251590Y173262D01*
X251627Y173384D01*
Y173393D01*
X251637Y173412D01*
X251656Y173440D01*
X251674Y173487D01*
X251693Y173543D01*
X251730Y173599D01*
X251815Y173740D01*
X251927Y173899D01*
X252068Y174068D01*
X252246Y174227D01*
X252452Y174377D01*
X252461D01*
X252480Y174396D01*
X252508Y174415D01*
X252555Y174433D01*
X252621Y174471D01*
X252687Y174499D01*
X252771Y174537D01*
X252855Y174574D01*
X252958Y174602D01*
X253071Y174640D01*
X253324Y174705D01*
X253605Y174743D01*
X253914Y174762D01*
X253924D01*
X253971D01*
X254036D01*
X254121Y174752D01*
D02*
G37*
G36*
X255648Y164845D02*
X255779Y164836D01*
X255939Y164827D01*
X256117Y164808D01*
X256314Y164780D01*
X256520Y164752D01*
X256735Y164705D01*
X256970Y164658D01*
X257204Y164602D01*
X257438Y164536D01*
X257673Y164452D01*
X257907Y164358D01*
X258141Y164255D01*
X258151Y164245D01*
X258198Y164227D01*
X258254Y164199D01*
X258338Y164152D01*
X258441Y164086D01*
X258554Y164021D01*
X258685Y163936D01*
X258825Y163852D01*
X258976Y163749D01*
X259135Y163636D01*
X259294Y163505D01*
X259454Y163374D01*
X259763Y163083D01*
X259903Y162933D01*
X260044Y162765D01*
X260053Y162755D01*
X260072Y162736D01*
X260100Y162699D01*
X260138Y162643D01*
X260185Y162577D01*
X260231Y162493D01*
X260288Y162399D01*
X260353Y162287D01*
X260419Y162165D01*
X260485Y162034D01*
X260550Y161884D01*
X260625Y161724D01*
X260691Y161556D01*
X260747Y161378D01*
X260803Y161181D01*
X260859Y160984D01*
Y160975D01*
X260869Y160956D01*
Y160918D01*
X260878Y160871D01*
X260888Y160806D01*
X260906Y160721D01*
X260916Y160628D01*
X260925Y160515D01*
X260944Y160393D01*
X260953Y160253D01*
X260963Y160103D01*
X260981Y159925D01*
X260991Y159747D01*
Y159541D01*
X261000Y159325D01*
Y155707D01*
X251393Y157713D01*
Y160881D01*
X251402Y161115D01*
X251412Y161340D01*
Y161443D01*
X251421Y161537D01*
Y161621D01*
X251431Y161687D01*
Y161715D01*
X251440Y161743D01*
Y161790D01*
X251449Y161837D01*
X251459Y161902D01*
X251477Y162043D01*
X251515Y162212D01*
X251552Y162390D01*
X251609Y162577D01*
X251674Y162755D01*
Y162765D01*
X251684Y162774D01*
X251702Y162830D01*
X251749Y162924D01*
X251805Y163036D01*
X251880Y163168D01*
X251965Y163318D01*
X252068Y163458D01*
X252190Y163608D01*
X252208Y163627D01*
X252246Y163674D01*
X252321Y163749D01*
X252415Y163833D01*
X252527Y163936D01*
X252668Y164049D01*
X252818Y164161D01*
X252986Y164264D01*
X252996D01*
X253005Y164274D01*
X253033Y164292D01*
X253071Y164311D01*
X253165Y164358D01*
X253296Y164424D01*
X253446Y164489D01*
X253633Y164564D01*
X253830Y164630D01*
X254055Y164695D01*
X254064D01*
X254083Y164705D01*
X254111Y164714D01*
X254158Y164723D01*
X254214Y164733D01*
X254289Y164742D01*
X254364Y164761D01*
X254449Y164780D01*
X254645Y164808D01*
X254870Y164827D01*
X255123Y164845D01*
X255386Y164855D01*
X255404D01*
X255451D01*
X255536D01*
X255648Y164845D01*
D02*
G37*
G36*
X254214Y153355D02*
X254205D01*
X254186D01*
X254149Y153345D01*
X254102Y153336D01*
X254046Y153326D01*
X253980Y153308D01*
X253830Y153261D01*
X253661Y153195D01*
X253483Y153111D01*
X253314Y152998D01*
X253165Y152848D01*
X253146Y152830D01*
X253127Y152802D01*
X253108Y152774D01*
X253080Y152727D01*
X253043Y152670D01*
X253015Y152605D01*
X252977Y152530D01*
X252940Y152445D01*
X252911Y152361D01*
X252874Y152258D01*
X252846Y152146D01*
X252827Y152014D01*
X252808Y151883D01*
X252790Y151742D01*
Y151461D01*
X252799Y151386D01*
X252808Y151311D01*
X252827Y151133D01*
X252865Y150946D01*
X252911Y150749D01*
X252986Y150571D01*
X253033Y150496D01*
X253080Y150421D01*
X253090Y150402D01*
X253136Y150365D01*
X253193Y150309D01*
X253277Y150252D01*
X253389Y150187D01*
X253511Y150130D01*
X253652Y150093D01*
X253811Y150074D01*
X253830D01*
X253877Y150084D01*
X253952Y150093D01*
X254055Y150112D01*
X254158Y150149D01*
X254270Y150205D01*
X254392Y150290D01*
X254495Y150393D01*
X254505Y150412D01*
X254524Y150430D01*
X254542Y150458D01*
X254570Y150496D01*
X254608Y150552D01*
X254645Y150618D01*
X254692Y150693D01*
X254739Y150777D01*
X254795Y150880D01*
X254861Y150993D01*
X254926Y151124D01*
X255002Y151274D01*
X255077Y151433D01*
X255161Y151611D01*
X255245Y151808D01*
Y151818D01*
X255255Y151827D01*
X255273Y151883D01*
X255311Y151967D01*
X255367Y152071D01*
X255423Y152211D01*
X255498Y152361D01*
X255573Y152520D01*
X255658Y152698D01*
X255845Y153055D01*
X255939Y153233D01*
X256033Y153401D01*
X256136Y153561D01*
X256229Y153701D01*
X256323Y153823D01*
X256407Y153926D01*
X256417Y153936D01*
X256436Y153954D01*
X256473Y153992D01*
X256529Y154029D01*
X256595Y154086D01*
X256670Y154142D01*
X256764Y154198D01*
X256867Y154264D01*
X256979Y154329D01*
X257110Y154385D01*
X257242Y154442D01*
X257391Y154498D01*
X257560Y154536D01*
X257729Y154573D01*
X257907Y154592D01*
X258095Y154601D01*
X258113D01*
X258151D01*
X258216Y154592D01*
X258310Y154582D01*
X258413Y154573D01*
X258544Y154545D01*
X258685Y154517D01*
X258835Y154479D01*
X259004Y154423D01*
X259182Y154357D01*
X259360Y154273D01*
X259538Y154170D01*
X259725Y154058D01*
X259903Y153926D01*
X260091Y153767D01*
X260260Y153589D01*
X260269Y153580D01*
X260297Y153542D01*
X260344Y153486D01*
X260400Y153401D01*
X260466Y153298D01*
X260541Y153176D01*
X260625Y153036D01*
X260709Y152867D01*
X260794Y152680D01*
X260878Y152464D01*
X260953Y152239D01*
X261019Y151986D01*
X261075Y151714D01*
X261122Y151433D01*
X261150Y151124D01*
X261159Y150796D01*
Y150674D01*
X261150Y150590D01*
Y150477D01*
X261141Y150355D01*
X261122Y150215D01*
X261103Y150065D01*
X261084Y149896D01*
X261056Y149727D01*
X260981Y149371D01*
X260878Y149006D01*
X260822Y148828D01*
X260747Y148650D01*
X260738Y148640D01*
X260728Y148612D01*
X260700Y148565D01*
X260672Y148500D01*
X260625Y148425D01*
X260578Y148340D01*
X260447Y148153D01*
X260288Y147937D01*
X260091Y147722D01*
X259856Y147525D01*
X259725Y147440D01*
X259594Y147366D01*
X259585D01*
X259557Y147347D01*
X259519Y147328D01*
X259463Y147309D01*
X259397Y147281D01*
X259313Y147253D01*
X259210Y147215D01*
X259107Y147187D01*
X258985Y147150D01*
X258854Y147122D01*
X258713Y147094D01*
X258563Y147065D01*
X258235Y147037D01*
X257888Y147028D01*
X257785Y148912D01*
X257795D01*
X257823D01*
X257869Y148921D01*
X257926D01*
X258001Y148931D01*
X258085Y148940D01*
X258273Y148968D01*
X258479Y149006D01*
X258676Y149052D01*
X258863Y149128D01*
X258938Y149165D01*
X259004Y149212D01*
X259013Y149221D01*
X259022Y149231D01*
X259051Y149259D01*
X259079Y149296D01*
X259116Y149353D01*
X259163Y149409D01*
X259210Y149484D01*
X259257Y149577D01*
X259303Y149681D01*
X259350Y149793D01*
X259388Y149924D01*
X259435Y150074D01*
X259463Y150233D01*
X259491Y150412D01*
X259500Y150608D01*
X259510Y150815D01*
Y150908D01*
X259500Y150974D01*
Y151049D01*
X259491Y151143D01*
X259482Y151246D01*
X259463Y151349D01*
X259425Y151583D01*
X259360Y151808D01*
X259275Y152024D01*
X259219Y152127D01*
X259163Y152211D01*
Y152220D01*
X259144Y152230D01*
X259097Y152277D01*
X259032Y152352D01*
X258929Y152436D01*
X258807Y152511D01*
X258666Y152586D01*
X258507Y152633D01*
X258423Y152652D01*
X258329D01*
X258319D01*
X258310D01*
X258254Y152642D01*
X258179Y152633D01*
X258076Y152605D01*
X257963Y152567D01*
X257841Y152502D01*
X257720Y152417D01*
X257607Y152296D01*
X257598Y152286D01*
X257588Y152267D01*
X257570Y152239D01*
X257542Y152202D01*
X257513Y152155D01*
X257476Y152099D01*
X257438Y152033D01*
X257391Y151949D01*
X257345Y151846D01*
X257279Y151733D01*
X257223Y151611D01*
X257148Y151461D01*
X257073Y151302D01*
X256989Y151115D01*
X256904Y150918D01*
X256895Y150908D01*
X256885Y150871D01*
X256857Y150815D01*
X256820Y150740D01*
X256782Y150646D01*
X256735Y150533D01*
X256679Y150421D01*
X256623Y150299D01*
X256492Y150027D01*
X256360Y149755D01*
X256220Y149502D01*
X256164Y149390D01*
X256098Y149287D01*
Y149277D01*
X256079Y149268D01*
X256061Y149240D01*
X256042Y149202D01*
X255967Y149109D01*
X255873Y148996D01*
X255751Y148865D01*
X255601Y148734D01*
X255442Y148603D01*
X255255Y148481D01*
X255245D01*
X255226Y148471D01*
X255198Y148453D01*
X255161Y148434D01*
X255114Y148415D01*
X255058Y148387D01*
X254908Y148340D01*
X254730Y148284D01*
X254524Y148237D01*
X254299Y148200D01*
X254046Y148190D01*
X254027D01*
X253989D01*
X253924Y148200D01*
X253839D01*
X253736Y148218D01*
X253614Y148237D01*
X253483Y148265D01*
X253333Y148303D01*
X253183Y148350D01*
X253015Y148406D01*
X252846Y148471D01*
X252677Y148556D01*
X252508Y148659D01*
X252349Y148771D01*
X252180Y148912D01*
X252030Y149062D01*
X252021Y149071D01*
X251993Y149099D01*
X251955Y149156D01*
X251909Y149221D01*
X251843Y149315D01*
X251777Y149427D01*
X251702Y149559D01*
X251627Y149709D01*
X251552Y149877D01*
X251477Y150074D01*
X251412Y150280D01*
X251346Y150505D01*
X251299Y150749D01*
X251262Y151021D01*
X251234Y151302D01*
X251224Y151602D01*
Y151677D01*
X251234Y151761D01*
Y151883D01*
X251252Y152024D01*
X251262Y152192D01*
X251290Y152370D01*
X251327Y152567D01*
X251365Y152774D01*
X251421Y152989D01*
X251487Y153205D01*
X251562Y153429D01*
X251656Y153636D01*
X251759Y153851D01*
X251880Y154048D01*
X252021Y154226D01*
X252030Y154236D01*
X252059Y154264D01*
X252105Y154311D01*
X252162Y154376D01*
X252246Y154442D01*
X252340Y154526D01*
X252452Y154611D01*
X252583Y154704D01*
X252724Y154798D01*
X252883Y154882D01*
X253061Y154967D01*
X253249Y155051D01*
X253446Y155117D01*
X253661Y155173D01*
X253886Y155220D01*
X254130Y155248D01*
X254214Y153355D01*
D02*
G37*
%LPC*%
G36*
X287460Y159793D02*
X287451D01*
X287442D01*
X287395D01*
X287329D01*
X287273D01*
X287264D01*
X287236D01*
X287198D01*
X287142Y159784D01*
X287076D01*
X287010Y159774D01*
X286832Y159746D01*
X286645Y159709D01*
X286458Y159643D01*
X286270Y159559D01*
X286111Y159446D01*
X286092Y159427D01*
X286045Y159381D01*
X285989Y159306D01*
X285914Y159202D01*
X285839Y159071D01*
X285783Y158912D01*
X285736Y158724D01*
X285717Y158518D01*
Y158462D01*
X285727Y158425D01*
Y158368D01*
X285736Y158312D01*
X285773Y158172D01*
X285830Y158003D01*
X285905Y157834D01*
X286017Y157647D01*
X286092Y157562D01*
X286167Y157469D01*
X286176Y157459D01*
X286186Y157450D01*
X286214Y157422D01*
X286251Y157394D01*
X286298Y157356D01*
X286354Y157319D01*
X286420Y157272D01*
X286495Y157215D01*
X286579Y157169D01*
X286673Y157112D01*
X286786Y157066D01*
X286898Y157019D01*
X287020Y156962D01*
X287160Y156925D01*
X287301Y156888D01*
X287460Y156850D01*
Y159793D01*
D02*
G37*
G36*
X284471Y139136D02*
X284452D01*
X284414D01*
X284349Y139126D01*
X284274Y139117D01*
X284180Y139098D01*
X284086Y139070D01*
X283993Y139033D01*
X283908Y138976D01*
X283899Y138967D01*
X283871Y138948D01*
X283833Y138911D01*
X283786Y138864D01*
X283730Y138808D01*
X283674Y138733D01*
X283627Y138648D01*
X283580Y138545D01*
X283571Y138536D01*
X283561Y138489D01*
X283552Y138452D01*
X283543Y138405D01*
X283533Y138349D01*
X283524Y138283D01*
X283514Y138208D01*
X283505Y138114D01*
Y138020D01*
X283496Y137899D01*
X283486Y137777D01*
X283477Y137627D01*
Y135884D01*
X286242Y135302D01*
Y136165D01*
X286233Y136286D01*
Y136437D01*
X286223Y136596D01*
X286214Y136764D01*
X286195Y137111D01*
X286167Y137458D01*
X286139Y137617D01*
X286120Y137758D01*
X286083Y137889D01*
X286054Y138002D01*
Y138011D01*
X286045Y138030D01*
X286036Y138049D01*
X286017Y138086D01*
X285970Y138180D01*
X285905Y138302D01*
X285811Y138433D01*
X285708Y138573D01*
X285576Y138705D01*
X285427Y138827D01*
X285417D01*
X285408Y138836D01*
X285352Y138873D01*
X285258Y138920D01*
X285145Y138986D01*
X285005Y139042D01*
X284846Y139089D01*
X284658Y139126D01*
X284471Y139136D01*
D02*
G37*
G36*
X275273Y154226D02*
X275264D01*
X275245D01*
X275207D01*
X275161Y154216D01*
X275104D01*
X275039Y154207D01*
X274889Y154179D01*
X274711Y154132D01*
X274533Y154057D01*
X274354Y153963D01*
X274195Y153832D01*
X274186D01*
X274176Y153813D01*
X274130Y153757D01*
X274064Y153673D01*
X273989Y153560D01*
X273923Y153411D01*
X273858Y153242D01*
X273811Y153045D01*
X273792Y152933D01*
Y152764D01*
X273801Y152717D01*
Y152661D01*
X273811Y152604D01*
X273839Y152455D01*
X273886Y152286D01*
X273951Y152108D01*
X274045Y151920D01*
X274176Y151742D01*
Y151733D01*
X274195Y151723D01*
X274242Y151667D01*
X274336Y151583D01*
X274457Y151480D01*
X274608Y151358D01*
X274795Y151236D01*
X275020Y151114D01*
X275273Y151011D01*
X275282D01*
X275301Y151002D01*
X275339Y150983D01*
X275395Y150974D01*
X275460Y150955D01*
X275526Y150927D01*
X275610Y150908D01*
X275704Y150880D01*
X275910Y150833D01*
X276126Y150786D01*
X276360Y150758D01*
X276585Y150749D01*
X276595D01*
X276613D01*
X276660D01*
X276707Y150758D01*
X276773D01*
X276848Y150767D01*
X277016Y150795D01*
X277204Y150852D01*
X277400Y150917D01*
X277597Y151020D01*
X277691Y151077D01*
X277775Y151152D01*
Y151161D01*
X277794Y151170D01*
X277841Y151227D01*
X277916Y151311D01*
X277991Y151433D01*
X278066Y151583D01*
X278141Y151751D01*
X278188Y151948D01*
X278197Y152061D01*
X278207Y152173D01*
Y152248D01*
X278197Y152304D01*
X278188Y152370D01*
X278169Y152445D01*
X278122Y152633D01*
X278094Y152726D01*
X278047Y152829D01*
X277991Y152942D01*
X277925Y153054D01*
X277850Y153157D01*
X277766Y153270D01*
X277663Y153373D01*
X277551Y153476D01*
X277541Y153485D01*
X277504Y153504D01*
X277457Y153542D01*
X277382Y153598D01*
X277288Y153654D01*
X277185Y153710D01*
X277054Y153785D01*
X276913Y153851D01*
X276754Y153917D01*
X276585Y153992D01*
X276398Y154048D01*
X276192Y154113D01*
X275976Y154160D01*
X275751Y154198D01*
X275517Y154216D01*
X275273Y154226D01*
D02*
G37*
G36*
X249710Y145989D02*
X249701D01*
X249692D01*
X249645D01*
X249579D01*
X249523D01*
X249514D01*
X249485D01*
X249448D01*
X249392Y145980D01*
X249326D01*
X249261Y145971D01*
X249083Y145942D01*
X248895Y145905D01*
X248708Y145839D01*
X248520Y145755D01*
X248361Y145643D01*
X248342Y145624D01*
X248295Y145577D01*
X248239Y145502D01*
X248164Y145399D01*
X248089Y145268D01*
X248033Y145108D01*
X247986Y144921D01*
X247967Y144715D01*
Y144658D01*
X247976Y144621D01*
Y144565D01*
X247986Y144508D01*
X248023Y144368D01*
X248080Y144199D01*
X248155Y144031D01*
X248267Y143843D01*
X248342Y143759D01*
X248417Y143665D01*
X248426Y143656D01*
X248436Y143646D01*
X248464Y143618D01*
X248501Y143590D01*
X248548Y143553D01*
X248605Y143515D01*
X248670Y143468D01*
X248745Y143412D01*
X248829Y143365D01*
X248923Y143309D01*
X249036Y143262D01*
X249148Y143215D01*
X249270Y143159D01*
X249410Y143121D01*
X249551Y143084D01*
X249710Y143046D01*
Y145989D01*
D02*
G37*
G36*
X253942Y172793D02*
X253933D01*
X253924D01*
X253896D01*
X253858Y172784D01*
X253764Y172775D01*
X253643Y172737D01*
X253521Y172690D01*
X253389Y172615D01*
X253268Y172503D01*
X253211Y172437D01*
X253155Y172362D01*
X253146Y172353D01*
X253127Y172306D01*
X253108Y172231D01*
X253090Y172184D01*
X253071Y172118D01*
X253061Y172053D01*
X253043Y171968D01*
X253033Y171875D01*
X253024Y171772D01*
X253015Y171659D01*
X253005Y171528D01*
X252996Y171387D01*
Y169044D01*
X255573Y168510D01*
Y169813D01*
X255564Y169944D01*
Y170094D01*
X255555Y170253D01*
X255545Y170422D01*
X255526Y170778D01*
X255508Y170947D01*
X255498Y171125D01*
X255470Y171284D01*
X255451Y171434D01*
X255414Y171556D01*
X255386Y171669D01*
Y171678D01*
X255376Y171697D01*
X255367Y171716D01*
X255348Y171753D01*
X255301Y171847D01*
X255245Y171968D01*
X255161Y172100D01*
X255058Y172240D01*
X254936Y172372D01*
X254795Y172493D01*
X254786D01*
X254777Y172503D01*
X254720Y172540D01*
X254645Y172587D01*
X254533Y172643D01*
X254402Y172700D01*
X254261Y172747D01*
X254102Y172784D01*
X253942Y172793D01*
D02*
G37*
G36*
X255545Y162868D02*
X255320D01*
X255311D01*
X255273D01*
X255226D01*
X255152Y162858D01*
X255067D01*
X254973Y162849D01*
X254861Y162840D01*
X254748Y162830D01*
X254495Y162783D01*
X254242Y162727D01*
X253999Y162643D01*
X253886Y162587D01*
X253783Y162530D01*
X253774D01*
X253764Y162512D01*
X253736Y162493D01*
X253699Y162474D01*
X253614Y162399D01*
X253502Y162305D01*
X253389Y162183D01*
X253277Y162052D01*
X253174Y161893D01*
X253099Y161715D01*
X253090Y161696D01*
X253080Y161649D01*
X253071Y161612D01*
X253061Y161556D01*
X253052Y161499D01*
X253033Y161434D01*
X253024Y161359D01*
X253015Y161265D01*
X253005Y161162D01*
X252996Y161059D01*
X252986Y160937D01*
Y160796D01*
X252977Y160656D01*
Y159353D01*
X259454Y157994D01*
Y159278D01*
X259444Y159372D01*
Y159494D01*
X259435Y159615D01*
X259425Y159868D01*
X259397Y160131D01*
X259369Y160375D01*
X259341Y160487D01*
X259322Y160581D01*
Y160590D01*
X259313Y160600D01*
X259303Y160628D01*
X259294Y160665D01*
X259257Y160759D01*
X259210Y160881D01*
X259144Y161012D01*
X259060Y161162D01*
X258947Y161321D01*
X258825Y161481D01*
X258816Y161490D01*
X258797Y161509D01*
X258769Y161537D01*
X258732Y161574D01*
X258676Y161631D01*
X258610Y161687D01*
X258535Y161752D01*
X258451Y161818D01*
X258347Y161893D01*
X258244Y161977D01*
X258132Y162062D01*
X258001Y162137D01*
X257720Y162305D01*
X257410Y162465D01*
X257401Y162474D01*
X257373Y162484D01*
X257317Y162502D01*
X257251Y162530D01*
X257167Y162558D01*
X257064Y162596D01*
X256951Y162633D01*
X256810Y162671D01*
X256670Y162708D01*
X256511Y162736D01*
X256332Y162774D01*
X256154Y162802D01*
X255958Y162830D01*
X255751Y162849D01*
X255545Y162868D01*
D02*
G37*
%LPD*%
D10*
X232000Y243750D02*
G03*
X232000Y243750I-6500J0D01*
G01*
X268000Y228750D02*
G03*
X268000Y228750I-6500J0D01*
G01*
X283250Y235750D02*
G03*
X283250Y235750I-6500J0D01*
G01*
X98250Y54000D02*
G03*
X98250Y54000I-6500J0D01*
G01*
X117750Y46000D02*
G03*
X117750Y46000I-6500J0D01*
G01*
X348000Y272100D02*
X352000D01*
X348000Y278600D02*
X352000D01*
X350000Y273850D02*
Y276850D01*
X145750Y264250D02*
Y268250D01*
X152250Y268250D02*
X152250Y264250D01*
X158250Y291750D02*
X158250Y288750D01*
X156250Y287000D02*
X160250Y287000D01*
X156250Y293500D02*
X160250Y293500D01*
X251250Y205000D02*
X255250Y205000D01*
X251250Y211500D02*
X255250D01*
X259750Y205500D02*
X262750Y205500D01*
X264500Y207500D02*
X264500Y203500D01*
X258000D02*
X258000Y207500D01*
X261000Y165250D02*
Y169250D01*
X267500Y165250D02*
Y169250D01*
X267000Y157000D02*
Y160000D01*
X265000Y161750D02*
X269000D01*
X265000Y155250D02*
X269000D01*
X89750Y61750D02*
Y64750D01*
X87750Y66500D02*
X91750Y66500D01*
X87750Y60000D02*
X91750Y60000D01*
X95050Y64000D02*
Y68000D01*
X101550Y64000D02*
Y68000D01*
X103250Y66000D02*
X106250D01*
X108000Y64000D02*
Y68000D01*
X101500Y64000D02*
Y68000D01*
X7850Y246000D02*
X11850D01*
X7850Y252500D02*
X11850D01*
X157750Y252000D02*
X161750D01*
X157750Y245500D02*
X161750D01*
X263000Y249000D02*
X267000D01*
X263000Y242500D02*
X267000D01*
X24250Y49250D02*
Y53250D01*
X17750Y49250D02*
Y53250D01*
X404250Y256750D02*
X404250Y252750D01*
X397750D02*
X397750Y256750D01*
X214000Y195750D02*
Y199750D01*
X220500Y199750D02*
X220500Y195750D01*
X222896Y180611D02*
Y183611D01*
X220897Y185361D02*
X224897D01*
X220896Y178861D02*
X224897D01*
X52500Y238500D02*
X55500D01*
X57250Y236500D02*
Y240500D01*
X50750Y236500D02*
Y240500D01*
X92000Y194500D02*
X96000D01*
X92000Y188000D02*
X96000D01*
X94000Y189750D02*
Y192750D01*
X2250Y41250D02*
X6250D01*
X2250Y47750D02*
X6250D01*
X95750Y179500D02*
X99750D01*
X95750Y188500D02*
X99750D01*
X144500Y190750D02*
Y194750D01*
X153500Y190750D02*
Y194750D01*
X169510Y166500D02*
Y170500D01*
X178510Y166500D02*
Y170500D01*
X94500Y194500D02*
X98500D01*
X94500Y201000D02*
X98500D01*
X96500Y196250D02*
Y199250D01*
X84750Y75350D02*
X87750Y75350D01*
X89500Y73350D02*
Y77350D01*
X83000Y73350D02*
Y77350D01*
X175750Y183000D02*
X179750D01*
X175750Y189500D02*
X179750D01*
X152000Y164000D02*
Y168000D01*
X158500Y164000D02*
Y168000D01*
X163500Y170000D02*
X166500D01*
X161750Y168000D02*
Y172000D01*
X168250Y168000D02*
Y172000D01*
X196000Y24750D02*
Y27750D01*
X194000Y29500D02*
X198000D01*
X194000Y23000D02*
X198000D01*
X158250Y192000D02*
Y196000D01*
X164750Y192000D02*
Y196000D01*
X176250Y151300D02*
X179250D01*
X181000Y149300D02*
Y153300D01*
X174500Y149300D02*
Y153300D01*
X164950Y132000D02*
Y135000D01*
X162950Y130250D02*
X166950D01*
X162950Y136750D02*
X166950D01*
X152250Y141750D02*
Y144750D01*
X150250Y140000D02*
X154250D01*
X150250Y146500D02*
X154250D01*
X165750Y123000D02*
X168750D01*
X170500Y121000D02*
Y125000D01*
X164000Y121000D02*
Y125000D01*
X138000Y125250D02*
X142000D01*
X138000Y131750D02*
X142000D01*
X4250Y224500D02*
Y227500D01*
X2250Y222750D02*
X6250D01*
X2250Y229250D02*
X6250D01*
X4250Y231750D02*
Y234750D01*
X2250Y230000D02*
X6250D01*
X2250Y236500D02*
X6250D01*
X4250Y105968D02*
Y108968D01*
X2250Y104218D02*
X6250D01*
X2250Y110718D02*
X6250D01*
X4250Y97526D02*
Y100526D01*
X2250Y95776D02*
X6250D01*
X2250Y102276D02*
X6250D01*
X75750Y72250D02*
X79750Y72250D01*
X75750Y65750D02*
X79750D01*
X142500Y143750D02*
X145500D01*
X140750Y141750D02*
Y145750D01*
X147250Y141750D02*
Y145750D01*
X114500Y135000D02*
X117500D01*
X112750Y133000D02*
Y137000D01*
X119250Y133000D02*
Y137000D01*
X108000Y135000D02*
X111000D01*
X106250Y133000D02*
Y137000D01*
X112750Y133000D02*
Y137000D01*
X108000Y123500D02*
X111000D01*
X112750Y121500D02*
Y125500D01*
X106250Y121500D02*
Y125500D01*
X114500Y123500D02*
X117500D01*
X119250Y121500D02*
Y125500D01*
X112750Y121500D02*
Y125500D01*
X123500Y140750D02*
X126500D01*
X128250Y138750D02*
Y142750D01*
X121750Y138750D02*
Y142750D01*
X168750Y141250D02*
X171750D01*
X173500Y139250D02*
Y143250D01*
X167000Y139250D02*
Y143250D01*
X154125Y181300D02*
X157125D01*
X152375Y179300D02*
Y183300D01*
X158875Y179300D02*
Y183300D01*
X161875Y181300D02*
X164875D01*
X160125Y179300D02*
Y183300D01*
X166625Y179300D02*
Y183300D01*
X168375Y181300D02*
X171375D01*
X166625Y179300D02*
Y183300D01*
X173125Y179300D02*
Y183300D01*
X162005Y145700D02*
X165005D01*
X160255Y143700D02*
Y147700D01*
X166755Y143700D02*
Y147700D01*
X131500Y150500D02*
Y153500D01*
X129500Y148750D02*
X133500D01*
X129500Y155250D02*
X133500D01*
X143000Y150500D02*
Y153500D01*
X141000Y155250D02*
X145000D01*
X141000Y148750D02*
X145000D01*
X142000Y120500D02*
Y123500D01*
X140000Y118750D02*
X144000D01*
X140000Y125250D02*
X144000D01*
X134400Y133200D02*
Y136200D01*
X132400Y137950D02*
X136400D01*
X132400Y131450D02*
X136400D01*
X146000Y160500D02*
X149000D01*
X150750Y158500D02*
Y162500D01*
X144250Y158500D02*
Y162500D01*
X164500Y160500D02*
Y163500D01*
X162500Y165250D02*
X166500D01*
X162500Y158750D02*
X166500D01*
X120000Y174250D02*
X123000D01*
X124750Y172250D02*
Y176250D01*
X118250Y172250D02*
Y176250D01*
X135750Y176750D02*
X138750D01*
X134000Y174750D02*
Y178750D01*
X140500Y174750D02*
Y178750D01*
X139250Y186000D02*
Y189000D01*
X137250Y190750D02*
X141250D01*
X137250Y184250D02*
X141250D01*
X111000Y156000D02*
X114000D01*
X115750Y154000D02*
Y158000D01*
X109250Y154000D02*
Y158000D01*
X96750Y100500D02*
X104000D01*
X96750Y113500D02*
X104000D01*
X112500D02*
X119750D01*
X112500Y100500D02*
X119750D01*
Y102500D01*
Y111500D02*
Y113500D01*
X96750Y111500D02*
Y113500D01*
Y100500D02*
Y102500D01*
X206000Y148000D02*
Y155250D01*
X193000Y148000D02*
Y155250D01*
Y163750D02*
Y171000D01*
X206000Y163750D02*
Y171000D01*
X204000D02*
X206000D01*
X193000D02*
X195000D01*
X193000Y148000D02*
X195000D01*
X204000D02*
X206000D01*
X178500Y175500D02*
Y182750D01*
X191500Y175500D02*
Y182750D01*
Y159750D02*
Y167000D01*
X178500Y159750D02*
Y167000D01*
Y159750D02*
X180500D01*
X189500D02*
X191500D01*
X189500Y182750D02*
X191500D01*
X178500D02*
X180500D01*
X106000Y96750D02*
X113250D01*
X106000Y83750D02*
X113250D01*
X90250D02*
X97500D01*
X90250Y96750D02*
X97500D01*
X90250Y94750D02*
Y96750D01*
Y83750D02*
Y85750D01*
X113250Y83750D02*
Y85750D01*
Y94750D02*
Y96750D01*
X125500Y194000D02*
X132750D01*
X125500Y181000D02*
X132750Y181000D01*
X109750Y181000D02*
X117000Y181000D01*
X109750Y194000D02*
X117000D01*
X109750Y192000D02*
X109750Y194000D01*
X109750Y183000D02*
X109750Y181000D01*
X132750Y181000D02*
X132750Y183000D01*
X132750Y192000D02*
Y194000D01*
X76750Y11750D02*
X80750Y11750D01*
X76750Y5250D02*
X80750D01*
X290250Y254250D02*
Y258250D01*
X296750Y254250D02*
Y258250D01*
X9000Y181750D02*
X13000Y181750D01*
X9000Y175250D02*
X13000Y175250D01*
X96250Y163900D02*
Y167900D01*
X89750Y163900D02*
Y167900D01*
X12750Y144250D02*
X16750Y144250D01*
X12750Y137750D02*
X16750D01*
X76000Y180500D02*
Y184500D01*
X69500Y180500D02*
Y184500D01*
X2250Y149250D02*
X6250D01*
X2250Y142750D02*
X6250D01*
X69750Y169500D02*
Y173500D01*
X76250Y169500D02*
Y173500D01*
X79000Y188750D02*
X83000D01*
X79000Y195250D02*
X83000D01*
X74000Y151000D02*
X78000D01*
X74000Y144500D02*
X78000D01*
X26200Y137750D02*
X30200D01*
X26200Y131250D02*
X30200D01*
X74000Y136000D02*
X78000D01*
X74000Y129500D02*
X78000D01*
X74000Y143500D02*
X78000D01*
X74000Y137000D02*
X78000D01*
X275450Y242500D02*
X279450D01*
X275450Y249000D02*
X279450D01*
X157750Y252000D02*
X161750Y252000D01*
X157750Y258500D02*
X161750D01*
X92130Y145250D02*
X96130D01*
X92130Y151750D02*
X96130D01*
X109750Y172250D02*
Y176250D01*
X116250Y172250D02*
Y176250D01*
X130510Y171750D02*
X134509D01*
X130510Y165250D02*
X134509D01*
X132250Y161750D02*
X136250D01*
X132250Y155250D02*
X136250D01*
X90000Y156250D02*
Y160250D01*
X83500Y156250D02*
Y160250D01*
X121250Y157000D02*
X124250D01*
X119500Y155000D02*
Y159000D01*
X126000Y155000D02*
Y159000D01*
X109500Y145500D02*
X112500D01*
X107750Y143500D02*
Y147500D01*
X114250Y143500D02*
Y147500D01*
X116000Y145500D02*
X119000D01*
X114250Y143500D02*
Y147500D01*
X120750Y143500D02*
Y147500D01*
X152000Y130500D02*
X155000D01*
X150250Y128500D02*
Y132500D01*
X156750Y128500D02*
Y132500D01*
X79250Y113250D02*
X79250Y116250D01*
X77250Y111500D02*
X81250D01*
X77250Y118000D02*
X81250D01*
X12250Y164000D02*
Y167000D01*
X10250Y162250D02*
X14250D01*
X10250Y168750D02*
X14250D01*
X14450Y170500D02*
Y173500D01*
X12450Y168750D02*
X16450D01*
X12450Y175250D02*
X16450D01*
X12250Y157500D02*
Y160500D01*
X10250Y155750D02*
X14250D01*
X10250Y162250D02*
X14250D01*
X78500Y158250D02*
X81500D01*
X76750Y156250D02*
Y160250D01*
X83250Y156250D02*
Y160250D01*
X15750Y183500D02*
X15750Y186500D01*
X13750Y181750D02*
X17750Y181750D01*
X13750Y188250D02*
X17750D01*
X3500Y170500D02*
Y173500D01*
X1500Y168750D02*
X5500D01*
X1500Y175250D02*
X5500D01*
X4250Y129500D02*
Y132500D01*
X2250Y127750D02*
X6250D01*
X2250Y134250D02*
X6250D01*
X71750Y158250D02*
X74750D01*
X76500Y156250D02*
Y160250D01*
X70000Y156250D02*
Y160250D01*
X78250Y171500D02*
X81250D01*
X83000Y169500D02*
Y173500D01*
X76500Y169500D02*
Y173500D01*
X85000Y171500D02*
X88000D01*
X83250Y169500D02*
Y173500D01*
X89750Y169500D02*
Y173500D01*
X15500Y151250D02*
X18500D01*
X13750Y149250D02*
Y153250D01*
X20250Y149250D02*
Y153250D01*
X4250Y137000D02*
Y140000D01*
X2250Y141750D02*
X6250D01*
X2250Y135250D02*
X6250D01*
X53000Y191000D02*
Y194000D01*
X51000Y195750D02*
X55000D01*
X51000Y189250D02*
X55000D01*
X64250Y191000D02*
Y194000D01*
X62250Y189250D02*
X66250D01*
X62250Y195750D02*
X66250D01*
X84750Y182500D02*
X87750D01*
X83000Y180500D02*
Y184500D01*
X89500Y180500D02*
Y184500D01*
X78000Y182500D02*
X81000D01*
X76250Y180500D02*
Y184500D01*
X82750Y180500D02*
Y184500D01*
X17450Y133000D02*
X17450Y136000D01*
X15450Y137750D02*
X19450D01*
X15450Y131250D02*
X19450D01*
X15250Y195500D02*
X15250Y191500D01*
X8750Y191500D02*
Y195500D01*
X4950Y205125D02*
X8950Y205125D01*
X4950Y198625D02*
X8950D01*
X134000Y102000D02*
Y104000D01*
X132000Y102000D02*
X134000D01*
X132000D02*
Y104000D01*
Y72000D02*
X164000D01*
X132000Y104000D02*
X164000D01*
X29250Y242500D02*
Y246500D01*
X35750Y242500D02*
Y246500D01*
X202250Y13250D02*
X202250Y17250D01*
X195750D02*
X195750Y13250D01*
X236350Y159581D02*
X239350D01*
X241100Y161581D02*
X241100Y157581D01*
X234600D02*
X234600Y161581D01*
X38500Y223500D02*
Y227500D01*
X32000Y223500D02*
Y227500D01*
X2250Y150250D02*
X6250D01*
X2250Y156750D02*
X6250D01*
X203500Y249500D02*
X207500Y249500D01*
X203500Y256000D02*
X207500Y256000D01*
X65500Y15250D02*
X69500Y15250D01*
X65500Y8750D02*
X69500Y8750D01*
X178250Y67000D02*
Y71000D01*
X184750Y67000D02*
Y71000D01*
X347000Y20500D02*
Y24500D01*
X340500Y20500D02*
Y24500D01*
X342250Y22500D02*
X345250D01*
X-0Y210575D02*
Y214575D01*
X6500Y210575D02*
Y214575D01*
X191250Y73846D02*
X191250Y69846D01*
X184750D02*
X184750Y73846D01*
X357000Y53500D02*
X360000D01*
X361750Y51500D02*
Y55500D01*
X355250Y51500D02*
Y55500D01*
X350250Y53500D02*
X353250D01*
X355000Y51500D02*
Y55500D01*
X348500Y51500D02*
Y55500D01*
X8250Y212575D02*
X11250Y212575D01*
X6500Y210575D02*
Y214575D01*
X13000Y210575D02*
Y214575D01*
X170500Y91904D02*
X170500Y95904D01*
X177000D02*
X177000Y91904D01*
X170500Y77554D02*
X170500Y81554D01*
X177000Y77554D02*
Y81554D01*
X184346Y231500D02*
X188346Y231500D01*
X184346Y238000D02*
X188346Y238000D01*
X199446Y231750D02*
X203446Y231750D01*
X199446Y238250D02*
X203446Y238250D01*
X191250Y80946D02*
X191250Y84946D01*
X184750D02*
X184750Y80946D01*
X190750Y17250D02*
X190750Y13250D01*
X184250D02*
X184250Y17250D01*
X232000Y189004D02*
X236000D01*
X232000Y195504D02*
X236000D01*
X232000Y196317D02*
X236000D01*
X232000Y202817D02*
X236000D01*
X116500Y29050D02*
X119500Y29050D01*
X121250Y27050D02*
X121250Y31050D01*
X114750Y27050D02*
Y31050D01*
X275750Y32200D02*
X278750Y32200D01*
X274000Y30200D02*
X274000Y34200D01*
X280500Y30200D02*
Y34200D01*
X79300Y119750D02*
X79300Y122750D01*
X77300Y118000D02*
X81300D01*
X77300Y124500D02*
X81300D01*
X54250Y16500D02*
X57250Y16500D01*
X52500Y14500D02*
Y18500D01*
X59000Y14500D02*
Y18500D01*
X40000Y51350D02*
X43000D01*
X44750Y49350D02*
Y53350D01*
X38250Y49350D02*
X38250Y53350D01*
X178000Y195000D02*
Y227000D01*
X210000Y195000D02*
Y227000D01*
X178000Y195000D02*
X180000D01*
Y197000D01*
X178000D02*
X180000D01*
X230000Y141500D02*
X234000D01*
X230000Y148000D02*
X234000D01*
X66000Y2000D02*
X70000D01*
X66000Y8500D02*
X70000D01*
X51300Y50850D02*
X51300Y46850D01*
X57800D02*
X57800Y50850D01*
X27700Y56950D02*
X31700D01*
X27700Y50450D02*
X31700Y50450D01*
X44800Y49350D02*
X44800Y53350D01*
X51300Y53350D02*
X51300Y49350D01*
X191750Y249750D02*
X195750D01*
X191750Y243250D02*
X195750D01*
X170750Y106000D02*
X174750D01*
X170750Y99500D02*
X174750D01*
X47950Y43200D02*
X51950D01*
X47950Y36700D02*
X51950Y36700D01*
X40000Y226750D02*
X43000D01*
X38250Y224750D02*
Y228750D01*
X44750Y224750D02*
Y228750D01*
X40100Y215903D02*
X43100Y215903D01*
X44850Y213903D02*
Y217903D01*
X38350Y213903D02*
X38350Y217903D01*
X309750Y164000D02*
Y168000D01*
X303250Y164000D02*
Y168000D01*
X218000Y167250D02*
X222000D01*
X218000Y173750D02*
X222000D01*
X230000Y148000D02*
X234000D01*
X230000Y154500D02*
X234000D01*
X259000Y177500D02*
Y181500D01*
X252500Y177500D02*
Y181500D01*
X194500Y58750D02*
X226500D01*
X194500Y90750D02*
X226500D01*
Y58750D02*
Y60750D01*
X224500D02*
X226500D01*
X224500Y58750D02*
Y60750D01*
X389000Y52500D02*
Y56500D01*
X382500Y52500D02*
Y56500D01*
X312250Y54000D02*
X316250D01*
X312250Y47500D02*
X316250D01*
X422000Y109000D02*
X426000Y109000D01*
X422000Y115500D02*
X426000Y115500D01*
X312250Y248500D02*
X316250D01*
X312250Y242000D02*
X316250D01*
X2250Y58026D02*
X6250D01*
X2250Y64526D02*
X6250D01*
X2250Y65468D02*
X6250D01*
X2250Y71968D02*
X6250D01*
X2243Y87247D02*
X6243D01*
X2243Y93747D02*
X6243D01*
X221700Y92955D02*
X221700Y95955D01*
X219700Y91205D02*
X223700Y91205D01*
X219700Y97705D02*
X223700D01*
X136800Y66545D02*
X136800Y69545D01*
X134800Y71295D02*
X138800Y71295D01*
X134800Y64795D02*
X138800D01*
X200700Y186045D02*
X200700Y189045D01*
X198700Y184295D02*
X202700Y184295D01*
X198700Y190795D02*
X202700D01*
X444000Y105350D02*
Y109350D01*
X450500Y109350D02*
X450500Y105350D01*
X444000Y96000D02*
X447000D01*
X442250Y94000D02*
Y98000D01*
X448750Y94000D02*
Y98000D01*
X435000Y103750D02*
X435000Y106750D01*
X433000Y102000D02*
X437000Y102000D01*
X433000Y108500D02*
X437000Y108500D01*
X424000Y103750D02*
X424000Y106750D01*
X422000Y108500D02*
X426000Y108500D01*
X422000Y102000D02*
X426000Y102000D01*
X155300Y34250D02*
X159300Y34250D01*
X155300Y27750D02*
X159300D01*
X161879Y22321D02*
X161879Y18321D01*
X155379D02*
X155379Y22321D01*
X155300Y41000D02*
X159300D01*
X155300Y34500D02*
X159300Y34500D01*
X284750Y214550D02*
Y218550D01*
X291250Y214550D02*
Y218550D01*
X286500Y216550D02*
X289500Y216550D01*
X281065Y110000D02*
X285065D01*
X281065Y103500D02*
X285065D01*
X283065Y105250D02*
Y108250D01*
X283500Y113000D02*
Y117000D01*
X277000Y113000D02*
Y117000D01*
X233250Y18200D02*
X233250Y22200D01*
X239750Y18200D02*
Y22200D01*
X235950Y41000D02*
X239950D01*
X235950Y34500D02*
X239950Y34500D01*
X235950Y33750D02*
X239950D01*
X235950Y27250D02*
X239950D01*
X2250Y243237D02*
X6250D01*
X2250Y236737D02*
X6250D01*
X390500Y118750D02*
Y122750D01*
X397000Y118750D02*
Y122750D01*
X265000Y78500D02*
X269000D01*
X265000Y85000D02*
X269000D01*
X308250Y192000D02*
Y196000D01*
X314750Y192000D02*
Y196000D01*
X254884Y88288D02*
X257712Y91116D01*
X250288Y92884D02*
X253116Y95712D01*
X314250Y181000D02*
Y185000D01*
X307750Y181000D02*
Y185000D01*
X269250Y202750D02*
Y206750D01*
X275750Y202750D02*
Y206750D01*
X303968Y203364D02*
X306796Y206192D01*
X308564Y198768D02*
X311392Y201596D01*
X275750Y214500D02*
Y218500D01*
X269250Y214500D02*
Y218500D01*
X279265Y87700D02*
Y91700D01*
X272765Y87700D02*
Y91700D01*
X341450Y140000D02*
Y144000D01*
X334950Y140000D02*
Y144000D01*
X347134Y193712D02*
X349962Y190884D01*
X342538Y189116D02*
X345366Y186288D01*
X275845Y214550D02*
Y218550D01*
X282345Y214550D02*
Y218550D01*
X327262Y196034D02*
X330090Y198862D01*
X331858Y191438D02*
X334686Y194266D01*
X311000Y216750D02*
Y220750D01*
X317500Y216750D02*
Y220750D01*
X288750Y164750D02*
Y168750D01*
X282250Y164750D02*
Y168750D01*
X275000Y175000D02*
X279000D01*
X275000Y181500D02*
X279000D01*
X269500Y113000D02*
Y117000D01*
X276000Y113000D02*
Y117000D01*
X320000Y112000D02*
X324000D01*
X320000Y118500D02*
X324000D01*
X314000Y125500D02*
X318000D01*
X314000Y132000D02*
X318000D01*
X327843Y143700D02*
Y147700D01*
X321343Y143700D02*
Y147700D01*
X351025Y172450D02*
Y176450D01*
X357525Y172450D02*
Y176450D01*
X320974Y167900D02*
Y171900D01*
X314474Y167900D02*
Y171900D01*
X252724Y192700D02*
X256724D01*
X252724Y199200D02*
X256724D01*
X319474Y157400D02*
X323474D01*
X319474Y163900D02*
X323474D01*
X304000Y176750D02*
X307000D01*
X302250Y174750D02*
Y178750D01*
X308750Y174750D02*
Y178750D01*
X258314Y87686D02*
X260436Y85564D01*
X260259Y82913D02*
X263087Y85741D01*
X255663Y87509D02*
X258491Y90337D01*
X316000Y183000D02*
X319000D01*
X320750Y181000D02*
Y185000D01*
X314250Y181000D02*
Y185000D01*
X260939Y94939D02*
X263061Y97061D01*
X258288Y95116D02*
X261116Y92288D01*
X262884Y99712D02*
X265712Y96884D01*
X343750Y130500D02*
Y133500D01*
X341750Y128750D02*
X345750D01*
X341750Y135250D02*
X345750D01*
X278815Y97250D02*
X278815Y100250D01*
X276815Y95500D02*
X280815D01*
X276815Y102000D02*
X280815D01*
X289000Y194750D02*
X292000D01*
X293750Y192750D02*
Y196750D01*
X287250Y192750D02*
Y196750D01*
X303450Y191611D02*
X306450D01*
X301700Y189611D02*
Y193611D01*
X308200Y189611D02*
Y193611D01*
X272750Y193000D02*
X275750D01*
X277500Y191000D02*
Y195000D01*
X271000Y191000D02*
Y195000D01*
X341939Y182939D02*
X344061Y185061D01*
X339288Y183116D02*
X342116Y180288D01*
X343884Y187712D02*
X346712Y184884D01*
X240750Y115370D02*
X243750D01*
X245500Y113370D02*
Y117370D01*
X239000Y113370D02*
Y117370D01*
X234250Y115370D02*
X237250D01*
X239000Y113370D02*
Y117370D01*
X232500Y113370D02*
Y117370D01*
X213250Y136200D02*
X216250D01*
X211500Y134200D02*
Y138200D01*
X218000Y134200D02*
Y138200D01*
X219801Y136200D02*
X222801D01*
X218051Y134200D02*
Y138200D01*
X224551Y134200D02*
Y138200D01*
X214655Y143911D02*
Y146911D01*
X212655Y148661D02*
X216655Y148661D01*
X212655Y142161D02*
X216655D01*
X214655Y151081D02*
Y154081D01*
X212655Y155831D02*
X216655D01*
X212655Y149331D02*
X216655D01*
X229750Y128106D02*
X232750D01*
X228000Y126106D02*
Y130106D01*
X234500Y126106D02*
Y130106D01*
X236750Y128106D02*
X239750D01*
X235000Y126106D02*
Y130106D01*
X241500Y126106D02*
Y130106D01*
X327700Y133750D02*
Y136750D01*
X325700Y138500D02*
X329700Y138500D01*
X325700Y132000D02*
X329700D01*
X321974Y120900D02*
Y123900D01*
X319974Y125650D02*
X323974D01*
X319974Y119150D02*
X323974D01*
X281895Y204750D02*
Y207750D01*
X279895Y203000D02*
X283895D01*
X279895Y209500D02*
X283895D01*
X281895Y198250D02*
Y201250D01*
X279895Y196500D02*
X283895D01*
X279895Y203000D02*
X283895D01*
X322724Y173150D02*
X325724D01*
X320974Y171150D02*
Y175150D01*
X327474Y171150D02*
Y175150D01*
X345750Y173000D02*
X348750D01*
X344000Y171000D02*
Y175000D01*
X350500Y171000D02*
Y175000D01*
X316000Y136750D02*
X316000Y133750D01*
X314000Y132000D02*
X318000D01*
X314000Y138500D02*
X318000D01*
X338000Y113500D02*
Y116500D01*
X336000Y111750D02*
X340000D01*
X336000Y118250D02*
X340000D01*
X268163Y105839D02*
X270285Y107961D01*
X265512Y106016D02*
X268340Y103188D01*
X270108Y110612D02*
X272936Y107784D01*
X277000Y183250D02*
Y186250D01*
X275000Y181500D02*
X279000D01*
X275000Y188000D02*
X279000D01*
X288555Y173780D02*
X288555Y176780D01*
X286555Y172030D02*
X290555D01*
X286555Y178530D02*
X290555D01*
X288555Y180305D02*
Y183305D01*
X286555Y178555D02*
X290555D01*
X286555Y185055D02*
X290555D01*
X305500Y218750D02*
X308500D01*
X310250Y216750D02*
Y220750D01*
X303750Y216750D02*
Y220750D01*
X321500Y192250D02*
X324500D01*
X326250Y190250D02*
Y194250D01*
X319750Y190250D02*
Y194250D01*
X339163Y160461D02*
X341285Y158339D01*
X341108Y155688D02*
X343936Y158516D01*
X336512Y160284D02*
X339340Y163112D01*
X333250Y181750D02*
X336250D01*
X331500Y179750D02*
Y183750D01*
X338000Y179750D02*
Y183750D01*
X260274Y136900D02*
X260274Y133900D01*
X258274Y132150D02*
X262274Y132150D01*
X258274Y138650D02*
X262274D01*
X260274Y141600D02*
X260274Y144600D01*
X258274Y139850D02*
X262274D01*
X258274Y146350D02*
X262274D01*
X260274Y121650D02*
X260274Y118650D01*
X258274Y116900D02*
X262274Y116900D01*
X258274Y123400D02*
X262274D01*
X260274Y126350D02*
X260274Y129350D01*
X258274Y124600D02*
X262274D01*
X258274Y131100D02*
X262274D01*
X234144Y173495D02*
X237143D01*
X238894Y171495D02*
Y175495D01*
X232393Y171495D02*
Y175495D01*
X226805Y173495D02*
X229805D01*
X231555Y171495D02*
Y175495D01*
X225055Y171495D02*
Y175495D01*
X328724Y162650D02*
X331724D01*
X333474Y160650D02*
Y164650D01*
X326974Y160650D02*
Y164650D01*
X262474Y193150D02*
X265474D01*
X260724Y191150D02*
Y195150D01*
X267224Y191150D02*
Y195150D01*
X263745Y182205D02*
X266745Y182205D01*
X261995Y180205D02*
Y184205D01*
X268495Y180205D02*
Y184205D01*
X244500Y162500D02*
X247500Y162500D01*
X249250Y160500D02*
Y164500D01*
X242750Y160500D02*
Y164500D01*
D11*
X212720Y10009D02*
G03*
X212720Y10009I-500J0D01*
G01*
X120750Y46250D02*
G03*
X120750Y46250I-250J0D01*
G01*
X275000Y15750D02*
G03*
X275000Y15750I-250J0D01*
G01*
X214871Y30692D02*
X221942Y23621D01*
X203558Y19379D02*
X210629Y12308D01*
X58000Y21250D02*
X80000D01*
X58000D02*
Y51250D01*
X80000D01*
Y21250D02*
Y51250D01*
X51500Y195500D02*
X72750D01*
X51500D02*
Y216750D01*
Y274250D02*
Y295500D01*
X72750D01*
X130250D02*
X151500D01*
Y274250D02*
Y295500D01*
Y195500D02*
Y216750D01*
X130250Y195500D02*
X151500D01*
X123500Y47000D02*
X148000D01*
X123500D02*
X123500Y15000D01*
X148000D01*
X148000Y47000D02*
X148000Y15000D01*
X51500Y244250D02*
Y274250D01*
X72750Y195500D02*
X88250D01*
X114750D02*
X130250D01*
X151500Y216750D02*
Y274250D01*
X148250Y44000D02*
X161500D01*
X247250Y15000D02*
X271750D01*
Y47000D01*
X247250D02*
X271750D01*
X247250Y15000D02*
Y47000D01*
X439875Y98500D02*
Y101250D01*
X434500D02*
X439875D01*
X415125D02*
X420500D01*
X415125Y98500D02*
Y101250D01*
Y76250D02*
Y79000D01*
Y76250D02*
X420500D01*
X434500D02*
X439875D01*
Y79000D01*
X434500Y76250D02*
X439875Y79000D01*
X402250Y158750D02*
X403500D01*
X402250D02*
Y169250D01*
X403500D01*
X419500Y158750D02*
X420750D01*
X419500Y169250D02*
X420750D01*
Y158750D02*
Y161500D01*
Y166500D02*
Y169250D01*
X-10500Y167750D02*
X-8667D01*
X-9584D01*
Y173248D01*
X-10500Y172332D01*
X-5918Y173248D02*
X-2253D01*
Y172332D01*
X-5918Y168666D01*
Y167750D01*
X54250Y274500D02*
Y279998D01*
X56999D01*
X57915Y279082D01*
Y277249D01*
X56999Y276333D01*
X54250D01*
X54250Y262998D02*
X57915D01*
Y262082D01*
X54250Y258416D01*
Y257500D01*
X-10500Y264000D02*
X-8667D01*
X-9584D01*
Y269498D01*
X-10500Y268582D01*
X-6585Y29748D02*
X-10250D01*
Y26999D01*
X-8417Y27915D01*
X-7501D01*
X-6585Y26999D01*
Y25166D01*
X-7501Y24250D01*
X-9334D01*
X-10250Y25166D01*
X-4752Y28832D02*
X-3835Y29748D01*
X-2003D01*
X-1086Y28832D01*
Y25166D01*
X-2003Y24250D01*
X-3835D01*
X-4752Y25166D01*
Y28832D01*
X57916Y287582D02*
X56999Y288498D01*
X55166D01*
X54250Y287582D01*
Y283916D01*
X55166Y283000D01*
X56999D01*
X57916Y283916D01*
Y285749D01*
X56083D01*
X54250Y271498D02*
Y266000D01*
X56999D01*
X57916Y266916D01*
Y267833D01*
X56999Y268749D01*
X54250D01*
X56999D01*
X57916Y269665D01*
Y270582D01*
X56999Y271498D01*
X54250D01*
X98250Y59498D02*
X101916D01*
X100083D01*
Y54000D01*
X103748D02*
Y59498D01*
X106497D01*
X107414Y58582D01*
Y56749D01*
X106497Y55833D01*
X103748D01*
X109246Y58582D02*
X110163Y59498D01*
X111995D01*
X112912Y58582D01*
Y57666D01*
X111995Y56749D01*
X112912Y55833D01*
Y54917D01*
X111995Y54000D01*
X110163D01*
X109246Y54917D01*
Y55833D01*
X110163Y56749D01*
X109246Y57666D01*
Y58582D01*
X110163Y56749D02*
X111995D01*
X87750Y45498D02*
X91416D01*
X89583D01*
Y40000D01*
X93248D02*
Y45498D01*
X95997D01*
X96914Y44582D01*
Y42749D01*
X95997Y41833D01*
X93248D01*
X98746Y45498D02*
X102412D01*
Y44582D01*
X98746Y40916D01*
Y40000D01*
X277500Y227998D02*
X281166D01*
X279333D01*
Y222500D01*
X282998D02*
Y227998D01*
X285747D01*
X286664Y227082D01*
Y225249D01*
X285747Y224333D01*
X282998D01*
X292162Y227998D02*
X290329Y227082D01*
X288496Y225249D01*
Y223416D01*
X289413Y222500D01*
X291245D01*
X292162Y223416D01*
Y224333D01*
X291245Y225249D01*
X288496D01*
X215000Y234998D02*
X218666D01*
X216833D01*
Y229500D01*
X220498D02*
Y234998D01*
X223247D01*
X224164Y234082D01*
Y232249D01*
X223247Y231333D01*
X220498D01*
X225996Y234082D02*
X226913Y234998D01*
X228745D01*
X229662Y234082D01*
Y233165D01*
X228745Y232249D01*
X227829D01*
X228745D01*
X229662Y231333D01*
Y230416D01*
X228745Y229500D01*
X226913D01*
X225996Y230416D01*
X250500Y219998D02*
X254165D01*
X252333D01*
Y214500D01*
X255998D02*
Y219998D01*
X258747D01*
X259664Y219082D01*
Y217249D01*
X258747Y216333D01*
X255998D01*
X265162Y214500D02*
X261496D01*
X265162Y218165D01*
Y219082D01*
X264245Y219998D01*
X262413D01*
X261496Y219082D01*
X218252Y30500D02*
Y32333D01*
Y31416D01*
X223750D01*
Y30500D01*
Y32333D01*
X219168Y38747D02*
X218252Y37831D01*
Y35998D01*
X219168Y35082D01*
X222834D01*
X223750Y35998D01*
Y37831D01*
X222834Y38747D01*
X223750Y44246D02*
Y40580D01*
X220084Y44246D01*
X219168D01*
X218252Y43329D01*
Y41496D01*
X219168Y40580D01*
Y46078D02*
X218252Y46995D01*
Y48827D01*
X219168Y49744D01*
X220084D01*
X221001Y48827D01*
Y47911D01*
Y48827D01*
X221917Y49744D01*
X222834D01*
X223750Y48827D01*
Y46995D01*
X222834Y46078D01*
X3752Y112250D02*
X9250Y115915D01*
X3752D02*
X9250Y112250D01*
X3752Y120497D02*
Y118665D01*
X4668Y117748D01*
X8334D01*
X9250Y118665D01*
Y120497D01*
X8334Y121414D01*
X4668D01*
X3752Y120497D01*
X9250Y126912D02*
Y123246D01*
X5584Y126912D01*
X4668D01*
X3752Y125996D01*
Y124163D01*
X4668Y123246D01*
X-5498Y112250D02*
X0Y115915D01*
X-5498D02*
X0Y112250D01*
X-5498Y120497D02*
Y118665D01*
X-4582Y117748D01*
X-916D01*
X0Y118665D01*
Y120497D01*
X-916Y121414D01*
X-4582D01*
X-5498Y120497D01*
X0Y123246D02*
Y125079D01*
Y124163D01*
X-5498D01*
X-4582Y123246D01*
X206416Y292248D02*
X204583D01*
X205499D01*
Y287666D01*
X204583Y286750D01*
X203666D01*
X202750Y287666D01*
X208248Y291332D02*
X209165Y292248D01*
X210997D01*
X211914Y291332D01*
Y290415D01*
X210997Y289499D01*
X210081D01*
X210997D01*
X211914Y288583D01*
Y287666D01*
X210997Y286750D01*
X209165D01*
X208248Y287666D01*
X10666Y9998D02*
X8833D01*
X9749D01*
Y5416D01*
X8833Y4500D01*
X7916D01*
X7000Y5416D01*
X16164Y9998D02*
X14331Y9082D01*
X12498Y7249D01*
Y5416D01*
X13415Y4500D01*
X15247D01*
X16164Y5416D01*
Y6333D01*
X15247Y7249D01*
X12498D01*
X47750Y137748D02*
X49583D01*
X48666D01*
Y132250D01*
X47750D01*
X49583D01*
X55997Y136832D02*
X55081Y137748D01*
X53248D01*
X52332Y136832D01*
Y133166D01*
X53248Y132250D01*
X55081D01*
X55997Y133166D01*
X61495Y132250D02*
X57830D01*
X61495Y135915D01*
Y136832D01*
X60579Y137748D01*
X58746D01*
X57830Y136832D01*
X63328Y132250D02*
X65161D01*
X64245D01*
Y137748D01*
X63328Y136832D01*
X188916Y259748D02*
X187083D01*
X187999D01*
Y255166D01*
X187083Y254250D01*
X186166D01*
X185250Y255166D01*
X193497Y254250D02*
Y259748D01*
X190748Y256999D01*
X194414D01*
X283916Y291998D02*
X282083D01*
X282999D01*
Y287416D01*
X282083Y286500D01*
X281166D01*
X280250Y287416D01*
X289414Y291998D02*
X285748D01*
Y289249D01*
X287581Y290166D01*
X288497D01*
X289414Y289249D01*
Y287416D01*
X288497Y286500D01*
X286665D01*
X285748Y287416D01*
X296500Y9998D02*
X300166Y4500D01*
Y9998D02*
X296500Y4500D01*
X304747D02*
Y9998D01*
X301998Y7249D01*
X305664D01*
X127002Y106250D02*
Y108083D01*
Y107166D01*
X132500D01*
Y106250D01*
Y108083D01*
X127918Y114497D02*
X127002Y113581D01*
Y111748D01*
X127918Y110832D01*
X131584D01*
X132500Y111748D01*
Y113581D01*
X131584Y114497D01*
X132500Y119995D02*
Y116330D01*
X128834Y119995D01*
X127918D01*
X127002Y119079D01*
Y117247D01*
X127918Y116330D01*
Y121828D02*
X127002Y122745D01*
Y124577D01*
X127918Y125494D01*
X128834D01*
X129751Y124577D01*
X130667Y125494D01*
X131584D01*
X132500Y124577D01*
Y122745D01*
X131584Y121828D01*
X130667D01*
X129751Y122745D01*
X128834Y121828D01*
X127918D01*
X129751Y122745D02*
Y124577D01*
X156250Y206248D02*
X158083D01*
X157166D01*
Y200750D01*
X156250D01*
X158083D01*
X164497Y205332D02*
X163581Y206248D01*
X161748D01*
X160832Y205332D01*
Y201666D01*
X161748Y200750D01*
X163581D01*
X164497Y201666D01*
X169995Y200750D02*
X166330D01*
X169995Y204415D01*
Y205332D01*
X169079Y206248D01*
X167246D01*
X166330Y205332D01*
X171828Y206248D02*
X175494D01*
Y205332D01*
X171828Y201666D01*
Y200750D01*
X422750Y173248D02*
X426415D01*
X424583D01*
Y167750D01*
X431914Y173248D02*
X428248D01*
Y170499D01*
X430081Y171416D01*
X430997D01*
X431914Y170499D01*
Y168666D01*
X430997Y167750D01*
X429165D01*
X428248Y168666D01*
X410002Y103500D02*
Y105333D01*
Y104416D01*
X415500D01*
Y103500D01*
Y105333D01*
X410918Y111747D02*
X410002Y110831D01*
Y108998D01*
X410918Y108082D01*
X414584D01*
X415500Y108998D01*
Y110831D01*
X414584Y111747D01*
X410918Y113580D02*
X410002Y114496D01*
Y116329D01*
X410918Y117246D01*
X411834D01*
X412751Y116329D01*
Y115413D01*
Y116329D01*
X413667Y117246D01*
X414584D01*
X415500Y116329D01*
Y114496D01*
X414584Y113580D01*
X238416Y211401D02*
X234750D01*
Y208652D01*
X236583D01*
X234750D01*
Y205903D01*
X240248Y211401D02*
Y205903D01*
X243914D01*
X245746D02*
X247579D01*
X246663D01*
Y211401D01*
X245746Y210485D01*
X438500Y162248D02*
X442165D01*
X440333D01*
Y156750D01*
X443998Y162248D02*
X447664D01*
Y161332D01*
X443998Y157666D01*
Y156750D01*
X7500Y292498D02*
X11165Y287000D01*
Y292498D02*
X7500Y287000D01*
X16664Y292498D02*
X12998D01*
Y289749D01*
X14831Y290665D01*
X15747D01*
X16664Y289749D01*
Y287916D01*
X15747Y287000D01*
X13915D01*
X12998Y287916D01*
X399165Y291998D02*
X397333D01*
X398249D01*
Y287416D01*
X397333Y286500D01*
X396416D01*
X395500Y287416D01*
X404664Y286500D02*
X400998D01*
X404664Y290166D01*
Y291082D01*
X403747Y291998D01*
X401915D01*
X400998Y291082D01*
X297500Y291998D02*
X301166Y286500D01*
Y291998D02*
X297500Y286500D01*
X302998D02*
X304831D01*
X303915D01*
Y291998D01*
X302998Y291082D01*
X396000Y9998D02*
X399665Y4500D01*
Y9998D02*
X396000Y4500D01*
X405164D02*
X401498D01*
X405164Y8166D01*
Y9082D01*
X404247Y9998D01*
X402415D01*
X401498Y9082D01*
X283252Y15250D02*
Y17083D01*
Y16166D01*
X288750D01*
Y15250D01*
Y17083D01*
X284168Y23497D02*
X283252Y22581D01*
Y20748D01*
X284168Y19832D01*
X287834D01*
X288750Y20748D01*
Y22581D01*
X287834Y23497D01*
X288750Y28995D02*
Y25330D01*
X285084Y28995D01*
X284168D01*
X283252Y28079D01*
Y26247D01*
X284168Y25330D01*
X283252Y34494D02*
Y30828D01*
X286001D01*
X285084Y32661D01*
Y33577D01*
X286001Y34494D01*
X287834D01*
X288750Y33577D01*
Y31745D01*
X287834Y30828D01*
X360500Y119998D02*
X364165D01*
X362333D01*
Y114500D01*
X365998Y119082D02*
X366915Y119998D01*
X368747D01*
X369664Y119082D01*
Y118166D01*
X368747Y117249D01*
X369664Y116333D01*
Y115416D01*
X368747Y114500D01*
X366915D01*
X365998Y115416D01*
Y116333D01*
X366915Y117249D01*
X365998Y118166D01*
Y119082D01*
X366915Y117249D02*
X368747D01*
X440000Y179248D02*
X443666D01*
X441833D01*
Y173750D01*
X449164D02*
X445498D01*
X449164Y177416D01*
Y178332D01*
X448247Y179248D01*
X446415D01*
X445498Y178332D01*
X70250Y202748D02*
X72083D01*
X71166D01*
Y197250D01*
X70250D01*
X72083D01*
X78497Y201832D02*
X77581Y202748D01*
X75748D01*
X74832Y201832D01*
Y198166D01*
X75748Y197250D01*
X77581D01*
X78497Y198166D01*
X80330Y197250D02*
X82163D01*
X81246D01*
Y202748D01*
X80330Y201832D01*
X84912Y197250D02*
X86745D01*
X85828D01*
Y202748D01*
X84912Y201832D01*
X58750Y59748D02*
X60583D01*
X59666D01*
Y54250D01*
X58750D01*
X60583D01*
X66997Y58832D02*
X66081Y59748D01*
X64248D01*
X63332Y58832D01*
Y55166D01*
X64248Y54250D01*
X66081D01*
X66997Y55166D01*
X68830Y54250D02*
X70663D01*
X69746D01*
Y59748D01*
X68830Y58832D01*
X73412Y55166D02*
X74328Y54250D01*
X76161D01*
X77077Y55166D01*
Y58832D01*
X76161Y59748D01*
X74328D01*
X73412Y58832D01*
Y57916D01*
X74328Y56999D01*
X77077D01*
X231002Y65000D02*
Y66833D01*
Y65916D01*
X236500D01*
Y65000D01*
Y66833D01*
X231918Y73247D02*
X231002Y72331D01*
Y70498D01*
X231918Y69582D01*
X235584D01*
X236500Y70498D01*
Y72331D01*
X235584Y73247D01*
X236500Y78745D02*
Y75080D01*
X232834Y78745D01*
X231918D01*
X231002Y77829D01*
Y75996D01*
X231918Y75080D01*
X231002Y84244D02*
X231918Y82411D01*
X233751Y80578D01*
X235584D01*
X236500Y81495D01*
Y83327D01*
X235584Y84244D01*
X234667D01*
X233751Y83327D01*
Y80578D01*
D12*
X18527Y207500D02*
G03*
X18527Y207500I-277J0D01*
G01*
D13*
X54354Y26250D02*
G03*
X54354Y26250I-354J0D01*
G01*
X356583Y254500D02*
X360000Y264750D01*
X363417Y254500D01*
X356583D02*
X363417D01*
X360000Y247875D02*
Y264750D01*
X341000Y247750D02*
Y264625D01*
X337583Y254375D02*
X344417D01*
X341000Y264625D02*
X344417Y254375D01*
X337583D02*
X341000Y264625D01*
X348875Y20625D02*
X352292Y30875D01*
X355708Y20625D01*
X348875D02*
X355708D01*
X352292Y16000D02*
Y30875D01*
X365500Y237500D02*
Y247496D01*
X370498D01*
X372164Y245830D01*
Y242498D01*
X370498Y240832D01*
X365500D01*
X375497Y237500D02*
Y244164D01*
X378829Y247496D01*
X382161Y244164D01*
Y237500D01*
Y242498D01*
X375497D01*
X292000Y247996D02*
X298664D01*
X295332D01*
Y238000D01*
X301997Y247996D02*
X308661Y238000D01*
Y247996D02*
X301997Y238000D01*
X342750Y2250D02*
Y12246D01*
X347748D01*
X349414Y10580D01*
Y7248D01*
X347748Y5582D01*
X342750D01*
X346082D02*
X349414Y2250D01*
X352747Y12246D02*
X359411Y2250D01*
Y12246D02*
X352747Y2250D01*
X322000Y238000D02*
Y244664D01*
X325332Y247996D01*
X328665Y244664D01*
Y238000D01*
Y242998D01*
X322000D01*
X395664Y247496D02*
X389000D01*
Y237500D01*
X395664D01*
X389000Y242498D02*
X392332D01*
X398997Y237500D02*
Y247496D01*
X405661Y237500D01*
Y247496D01*
X357750Y32750D02*
Y39414D01*
X361082Y42746D01*
X364414Y39414D01*
Y32750D01*
Y37748D01*
X357750D01*
X339250Y42746D02*
Y32750D01*
X344248D01*
X345914Y34416D01*
Y36082D01*
X344248Y37748D01*
X339250D01*
X344248D01*
X345914Y39414D01*
Y41080D01*
X344248Y42746D01*
X339250D01*
D14*
X98000Y38500D02*
X109000D01*
Y30500D02*
Y38500D01*
Y17500D02*
Y25500D01*
X98000Y17500D02*
X109000D01*
X98000D02*
Y25500D01*
Y30500D02*
Y38500D01*
X301750Y37000D02*
Y48000D01*
X293750Y37000D02*
X301750D01*
X280750D02*
X288750D01*
X280750D02*
Y48000D01*
X288750D01*
X293750D02*
X301750D01*
X87000Y33500D02*
X98000D01*
Y25500D02*
Y33500D01*
Y12500D02*
Y20500D01*
X87000Y12500D02*
X98000D01*
X87000D02*
Y20500D01*
Y25500D02*
Y33500D01*
X106250Y115250D02*
Y125250D01*
X98250Y115250D02*
X106250D01*
X85250D02*
X93250D01*
X85250D02*
Y125250D01*
X93250D01*
X98250D02*
X106250D01*
Y125250D02*
Y135250D01*
X98250Y125250D02*
X106250D01*
X85250D02*
X93250D01*
X85250D02*
Y135250D01*
X93250D01*
X98250D02*
X106250D01*
X182750Y138000D02*
X192750D01*
X182750D02*
Y146000D01*
Y151000D02*
Y159000D01*
X192750D01*
Y151000D02*
Y159000D01*
Y138000D02*
Y146000D01*
X115000Y100000D02*
X125000D01*
Y92000D02*
Y100000D01*
Y79000D02*
Y87000D01*
X115000Y79000D02*
X125000D01*
X115000D02*
Y87000D01*
Y92000D02*
Y100000D01*
X106250Y135250D02*
Y145250D01*
X98250Y135250D02*
X106250D01*
X85250D02*
X93250D01*
X85250D02*
Y145250D01*
X93250D01*
X98250D02*
X106250D01*
X72547Y93049D02*
Y101049D01*
Y80049D02*
Y88049D01*
Y80049D02*
X83547D01*
Y88049D01*
Y93049D02*
Y101049D01*
X72547D02*
X83547D01*
X93750Y101000D02*
Y112000D01*
X85750Y101000D02*
X93750Y101000D01*
X72750Y101000D02*
X80750Y101000D01*
X72750Y101000D02*
X72750Y112000D01*
X80750D01*
X85750D02*
X93750D01*
X97238Y167028D02*
X106762D01*
X97238Y163472D02*
X106762D01*
X29190Y218500D02*
X29190Y189500D01*
X36810D01*
Y218500D01*
X29190Y218500D02*
X36810Y218500D01*
X46750Y231250D02*
Y239250D01*
Y244250D02*
Y252250D01*
X35750D02*
X46750D01*
X35750Y244250D02*
Y252250D01*
Y231250D02*
Y239250D01*
Y231250D02*
X46750D01*
X373690Y211150D02*
X381310D01*
X373690Y223850D02*
X381310D01*
X373690Y175650D02*
X381310D01*
X373690Y188350D02*
X381310D01*
X362000Y47250D02*
X370000D01*
X375000D02*
X383000D01*
Y58250D01*
X375000D02*
X383000D01*
X362000D02*
X370000D01*
X362000Y47250D02*
Y58250D01*
X340250Y56250D02*
X348250D01*
X327250D02*
X335250D01*
X327250Y45250D02*
Y56250D01*
Y45250D02*
X335250D01*
X340250D02*
X348250D01*
Y56250D01*
X25750Y227500D02*
Y235500D01*
Y240500D02*
Y248500D01*
X14750D02*
X25750D01*
X14750Y240500D02*
Y248500D01*
Y227500D02*
Y235500D01*
Y227500D02*
X25750D01*
X359750Y234500D02*
Y244500D01*
X351750Y234500D02*
X359750D01*
X338750D02*
X346750D01*
X338750D02*
Y244500D01*
X346750D01*
X351750D02*
X359750D01*
X409500Y47250D02*
Y57250D01*
X401500Y47250D02*
X409500D01*
X388500D02*
X396500D01*
X388500D02*
Y57250D01*
X396500D01*
X401500D02*
X409500D01*
X32000Y218500D02*
Y228500D01*
X24000Y218500D02*
X32000D01*
X11000D02*
X19000D01*
X11000D02*
Y228500D01*
X19000D01*
X24000D02*
X32000D01*
X148500Y116495D02*
X156500D01*
X135500D02*
X143500D01*
X135500Y105495D02*
Y116495D01*
Y105495D02*
X143500D01*
X148500D02*
X156500D01*
Y116495D01*
X156505Y222500D02*
Y230500D01*
Y209500D02*
Y217500D01*
Y209500D02*
X167505D01*
Y217500D01*
Y222500D02*
Y230500D01*
X156505D02*
X167505D01*
X167500Y61354D02*
Y71354D01*
X159500Y61354D02*
X167500D01*
X146500D02*
X154500D01*
X146500D02*
Y71354D01*
X154500D01*
X159500D02*
X167500D01*
X156500Y106245D02*
Y116245D01*
X164500D01*
X169500D02*
X177500D01*
Y106245D02*
Y116245D01*
X169500Y106245D02*
X177500D01*
X156500D02*
X164500D01*
X211250Y209000D02*
Y219000D01*
X219250D01*
X224250D02*
X232250D01*
Y209000D02*
Y219000D01*
X224250Y209000D02*
X232250D01*
X211250D02*
X219250D01*
X167505Y230500D02*
X177505D01*
Y222500D02*
Y230500D01*
Y209500D02*
Y217500D01*
X167505Y209500D02*
X177505D01*
X167505D02*
Y217500D01*
Y222500D02*
Y230500D01*
X372500Y199750D02*
X380500D01*
X385500D02*
X393500D01*
Y209750D01*
X385500D02*
X393500D01*
X372500D02*
X380500D01*
X372500Y199750D02*
Y209750D01*
X362250Y179250D02*
Y187250D01*
Y192250D02*
Y200250D01*
X351250D02*
X362250D01*
X351250Y192250D02*
Y200250D01*
Y179250D02*
Y187250D01*
Y179250D02*
X362250Y179250D01*
X351250Y212250D02*
Y220250D01*
Y199250D02*
Y207250D01*
Y199250D02*
X362250D01*
Y207250D01*
Y212250D02*
Y220250D01*
X351250Y220250D02*
X362250Y220250D01*
X369380Y125500D02*
Y133500D01*
Y138500D02*
Y146500D01*
X359380D02*
X369380D01*
X359380Y138500D02*
Y146500D01*
Y125500D02*
Y133500D01*
Y125500D02*
X369380D01*
X401379Y125500D02*
Y133500D01*
Y138500D02*
Y146500D01*
X390379D02*
X401379D01*
X390379Y138500D02*
X390379Y146500D01*
X390379Y125500D02*
X390379Y133500D01*
X390379Y125500D02*
X401379Y125500D01*
X369379Y136000D02*
X377379D01*
X382379D02*
X390379Y136000D01*
Y146000D01*
X382379D02*
X390379D01*
X369379D02*
X377379D01*
X369379Y136000D02*
Y146000D01*
Y126000D02*
X377379D01*
X382379D02*
X390379D01*
Y136000D01*
X382379D02*
X390379D01*
X369379D02*
X377379D01*
X369379Y126000D02*
Y136000D01*
X118528Y2988D02*
X118528Y12512D01*
X114972Y2988D02*
X114972Y12512D01*
X152972Y49488D02*
X152972Y59012D01*
X156528Y49488D02*
X156528Y59012D01*
X119238Y60472D02*
X128762Y60472D01*
X119238Y64028D02*
X128762D01*
X156528Y2988D02*
Y12512D01*
X152972Y2988D02*
Y12512D01*
X317000Y87250D02*
Y95250D01*
Y74250D02*
Y82250D01*
Y74250D02*
X327000D01*
Y82250D01*
Y87250D02*
Y95250D01*
X317000D02*
X327000D01*
Y84750D02*
X335000D01*
X340000D02*
X348000D01*
Y94750D01*
X340000D02*
X348000D01*
X327000D02*
X335000D01*
X327000Y84750D02*
Y94750D01*
X327000Y74750D02*
X335000D01*
X340000D02*
X348000D01*
Y84750D01*
X340000D02*
X348000D01*
X327000D02*
X335000D01*
X327000Y74750D02*
Y84750D01*
X348000Y87250D02*
Y95250D01*
Y82250D02*
X348000Y74250D01*
X359000Y74250D01*
X359000Y82250D02*
X359000Y74250D01*
Y87250D02*
Y95250D01*
X348000D02*
X359000D01*
X369979Y150250D02*
Y158250D01*
Y163250D02*
Y171250D01*
X359979D02*
X369979D01*
X359979Y163250D02*
Y171250D01*
Y150250D02*
Y158250D01*
Y150250D02*
X369979D01*
X369979Y150750D02*
X377979D01*
X382979D02*
X390979D01*
X390979Y160750D01*
X382979Y160750D02*
X390979Y160750D01*
X369979Y160750D02*
X377979Y160750D01*
X369979Y150750D02*
Y160750D01*
X369979Y160750D02*
X377979D01*
X382979D02*
X390979D01*
Y170750D01*
X382979D02*
X390979D01*
X369979D02*
X377979D01*
X369979D02*
X369979Y160750D01*
X400979Y150250D02*
Y158250D01*
Y163250D02*
Y171250D01*
X390979Y171250D02*
X400979Y171250D01*
X390979Y163250D02*
Y171250D01*
Y150250D02*
Y158250D01*
Y150250D02*
X400979D01*
X238722Y49488D02*
X238722Y59012D01*
X242278Y49488D02*
X242278Y59012D01*
X280278Y2988D02*
Y12512D01*
X276722Y2988D02*
Y12512D01*
X280278Y49488D02*
Y59012D01*
X276722Y49488D02*
Y59012D01*
X238722Y12512D02*
X238722Y2988D01*
X242278Y12512D02*
X242278Y2988D01*
X213750Y123750D02*
Y134750D01*
X205750Y123750D02*
X213750D01*
X192750D02*
X200750D01*
X192750D02*
Y134750D01*
X200750D01*
X205750D02*
X213750D01*
X251000Y114528D02*
X258778Y106750D01*
X253121Y101093D02*
X258778Y106750D01*
X243929Y91901D02*
X249586Y97558D01*
X236151Y99679D02*
X243929Y91901D01*
X236151Y99679D02*
X241808Y105336D01*
X245343Y108871D02*
X251000Y114528D01*
X190250Y37005D02*
Y48005D01*
X198250D01*
X203250D02*
X211250D01*
Y37005D02*
Y48005D01*
X203250Y37005D02*
X211250D01*
X190250D02*
X198250D01*
X204222Y106488D02*
Y116012D01*
X207778Y106488D02*
Y116012D01*
X393250Y189750D02*
Y199750D01*
X385250Y189750D02*
X393250D01*
X372250D02*
X380250D01*
X372250D02*
Y199750D01*
X380250D01*
X385250D02*
X393250D01*
X393500Y210500D02*
X403500Y210500D01*
X403500Y202500D01*
X403500Y197500D02*
X403500Y189500D01*
X393500D02*
X403500D01*
X393500D02*
Y197500D01*
Y202500D02*
Y210500D01*
X362250Y189250D02*
X372250D01*
X362250D02*
Y197250D01*
Y202250D02*
Y210250D01*
X372250Y210250D01*
X372250Y202250D01*
Y189250D02*
Y197250D01*
X190964Y92360D02*
Y102360D01*
X198964D01*
X203964D02*
X211964D01*
Y92360D02*
Y102360D01*
X203964Y92360D02*
X211964D01*
X190964D02*
X198964D01*
X190500Y48255D02*
Y58255D01*
X198500D01*
X203500D02*
X211500D01*
Y48255D02*
Y58255D01*
X203500Y48255D02*
X211500D01*
X190500D02*
X198500D01*
D15*
X156000Y243500D02*
X156000Y232500D01*
X156000Y243500D02*
X158250Y236750D01*
X153750Y236750D02*
X156000Y243500D01*
X153750Y236750D02*
X158250Y236750D01*
X160500Y239250D02*
X165000D01*
X162750Y232500D02*
X165000Y239250D01*
X160500D02*
X162750Y232500D01*
X162750Y243500D02*
X162750Y232500D01*
X62250Y186750D02*
X67500D01*
Y181500D02*
Y186750D01*
X62250Y140750D02*
X67500D01*
Y146000D01*
X23000Y140750D02*
X28250D01*
X23000D02*
Y146000D01*
Y186750D02*
X28250D01*
X23000Y181500D02*
Y186750D01*
X62375Y186625D02*
X67500Y181500D01*
X4250Y1750D02*
X16250D01*
X4250D02*
Y12750D01*
X50250Y1750D02*
Y12750D01*
X38250Y1750D02*
X50250D01*
X200000Y295250D02*
X212000Y295250D01*
X200000Y284250D02*
Y295250D01*
X246000Y284250D02*
Y295250D01*
X234000Y295250D02*
X246000Y295250D01*
X186750Y295250D02*
X198750D01*
Y284250D02*
Y295250D01*
X152750Y284250D02*
Y295250D01*
X164750D01*
X247500Y295250D02*
X259500D01*
X247500Y284250D02*
Y295250D01*
X293500Y284250D02*
Y295250D01*
X281500D02*
X293500D01*
X4250Y295250D02*
X16250D01*
X4250Y284250D02*
Y295250D01*
X50250Y284250D02*
Y295250D01*
X38250D02*
X50250D01*
X327500Y1500D02*
X339500D01*
Y12500D01*
X293500Y1500D02*
Y12500D01*
Y1500D02*
X305500D01*
X362500Y295250D02*
X374500D01*
X362500Y284250D02*
Y295250D01*
X408500Y284250D02*
Y295250D01*
X396500D02*
X408500D01*
X396500Y1500D02*
X408500D01*
Y12500D01*
X362500Y1500D02*
Y12500D01*
Y1500D02*
X374500D01*
X293500Y295250D02*
X305500D01*
X293500Y284250D02*
Y295250D01*
X339500Y284250D02*
Y295250D01*
X327500D02*
X339500D01*
X378500Y73250D02*
X391500D01*
X378500Y113250D02*
X391500D01*
X422250Y180000D02*
X435250D01*
X422250Y220000D02*
X435250D01*
X420379Y156000D02*
X433379D01*
X420379Y116000D02*
X433379D01*
X-2000Y238194D02*
X-7332D01*
X-9997Y240860D01*
X-7332Y243526D01*
X-2000D01*
X-5999D01*
Y238194D01*
X-2000Y246192D02*
X-9997D01*
X-2000Y251523D01*
X-9997D01*
Y254189D02*
Y259521D01*
Y256855D01*
X-2000D01*
X-8665Y205446D02*
X-9997Y204113D01*
Y201447D01*
X-8665Y200114D01*
X-3333D01*
X-2000Y201447D01*
Y204113D01*
X-3333Y205446D01*
X-5999D01*
Y202780D01*
X-2000Y208112D02*
X-9997D01*
X-2000Y213443D01*
X-9997D01*
X-8665Y221441D02*
X-9997Y220108D01*
Y217442D01*
X-8665Y216109D01*
X-7332D01*
X-5999Y217442D01*
Y220108D01*
X-4666Y221441D01*
X-3333D01*
X-2000Y220108D01*
Y217442D01*
X-3333Y216109D01*
X-8665Y229438D02*
X-9997Y228105D01*
Y225439D01*
X-8665Y224107D01*
X-7332D01*
X-5999Y225439D01*
Y228105D01*
X-4666Y229438D01*
X-3333D01*
X-2000Y228105D01*
Y225439D01*
X-3333Y224107D01*
X333249Y292498D02*
X330916D01*
X329750Y291331D01*
Y286666D01*
X330916Y285500D01*
X333249D01*
X334415Y286666D01*
Y291331D01*
X333249Y292498D01*
X108500Y295248D02*
X113165D01*
X110833D01*
Y288250D01*
X42000Y292748D02*
X44333D01*
X43166D01*
Y285750D01*
X42000D01*
X44333D01*
X369000Y292498D02*
X371333D01*
X370166D01*
Y285500D01*
X369000D01*
X371333D01*
X238000Y292498D02*
X240333D01*
X239166D01*
Y285500D01*
X238000D01*
X240333D01*
X75415Y294081D02*
X74249Y295248D01*
X71916D01*
X70750Y294081D01*
Y289416D01*
X71916Y288250D01*
X74249D01*
X75415Y289416D01*
Y291749D01*
X73083D01*
X256499Y292498D02*
X254166D01*
X253000Y291331D01*
Y286666D01*
X254166Y285500D01*
X256499D01*
X257665Y286666D01*
Y291331D01*
X256499Y292498D01*
X185000Y6500D02*
Y8833D01*
Y7666D01*
X178002D01*
X179169Y6500D01*
X208500Y9915D02*
Y5250D01*
X203835Y9915D01*
X202669D01*
X201502Y8749D01*
Y6416D01*
X202669Y5250D01*
X89750Y288250D02*
Y295248D01*
X93249D01*
X94415Y294081D01*
Y291749D01*
X93249Y290583D01*
X89750D01*
X92083D02*
X94415Y288250D01*
X-2376Y70250D02*
X-7708D01*
Y71583D01*
X-6375Y72916D01*
X-2376D01*
X-6375D01*
X-7708Y74249D01*
X-6375Y75582D01*
X-2376D01*
Y78247D02*
X-10374D01*
Y82246D01*
X-9041Y83579D01*
X-6375D01*
X-5042Y82246D01*
Y78247D01*
X-9041Y91576D02*
X-10374Y90244D01*
Y87578D01*
X-9041Y86245D01*
X-3709D01*
X-2376Y87578D01*
Y90244D01*
X-3709Y91576D01*
X-10374Y94242D02*
Y96908D01*
Y95575D01*
X-2376D01*
Y94242D01*
Y96908D01*
Y104906D02*
Y102240D01*
X-3709Y100907D01*
X-6375D01*
X-7708Y102240D01*
Y104906D01*
X-6375Y106238D01*
X-5042D01*
Y100907D01*
X172002Y15500D02*
X179000D01*
Y20165D01*
X172002Y27163D02*
Y22498D01*
X179000D01*
Y27163D01*
X175501Y22498D02*
Y24830D01*
X172002Y29495D02*
X179000D01*
Y32994D01*
X177834Y34161D01*
X173169D01*
X172002Y32994D01*
Y29495D01*
X236250Y234750D02*
Y242747D01*
X240249D01*
X241582Y241415D01*
Y238749D01*
X240249Y237416D01*
X236250D01*
X244247Y234750D02*
Y242747D01*
X248246D01*
X249579Y241415D01*
Y238749D01*
X248246Y237416D01*
X244247D01*
X257576Y241415D02*
X256243Y242747D01*
X253578D01*
X252245Y241415D01*
Y240082D01*
X253578Y238749D01*
X256243D01*
X257576Y237416D01*
Y236083D01*
X256243Y234750D01*
X253578D01*
X252245Y236083D01*
X367750Y11248D02*
X370083D01*
X368916D01*
Y4250D01*
X367750D01*
X370083D01*
X-1750Y34250D02*
X-7082D01*
X-9747Y36916D01*
X-7082Y39582D01*
X-1750D01*
X-5749D01*
Y34250D01*
X-9747Y42247D02*
X-1750D01*
Y46246D01*
X-3083Y47579D01*
X-8414D01*
X-9747Y46246D01*
Y42247D01*
Y55576D02*
Y50245D01*
X-5749D01*
Y52911D01*
Y50245D01*
X-1750D01*
X171082Y248165D02*
X169749Y249497D01*
X167083D01*
X165750Y248165D01*
Y242833D01*
X167083Y241500D01*
X169749D01*
X171082Y242833D01*
X173747Y249497D02*
Y241500D01*
X179079D01*
X181745Y249497D02*
Y241500D01*
Y244166D01*
X187076Y249497D01*
X183078Y245499D01*
X187076Y241500D01*
X42000Y11248D02*
X44333D01*
X43166D01*
Y4250D01*
X42000D01*
X44333D01*
X331000Y10998D02*
X333333D01*
X332166D01*
Y4000D01*
X331000D01*
X333333D01*
X185500Y292498D02*
X187833D01*
X186666D01*
Y285500D01*
X185500D01*
X187833D01*
X194830Y292498D02*
X192498D01*
X191331Y291331D01*
Y286666D01*
X192498Y285500D01*
X194830D01*
X195997Y286666D01*
Y291331D01*
X194830Y292498D01*
D16*
X255500Y245750D02*
Y261000D01*
X252667Y252500D02*
X255500Y261000D01*
X258333Y252500D01*
X252667D02*
X258333D01*
X14417Y54000D02*
X14417Y38750D01*
X14417Y54000D02*
X17250Y45500D01*
X11583Y45500D02*
X14417Y54000D01*
X11583Y45500D02*
X17250Y45500D01*
X2750Y270125D02*
X2750Y254875D01*
X5583Y263375D01*
X-83D02*
X2750Y254875D01*
X-83Y263375D02*
X5583D01*
X235917Y254250D02*
X241583D01*
X235917D02*
X238750Y245750D01*
X241583Y254250D01*
X238750Y245750D02*
Y261000D01*
M02*
