G04*
G04 #@! TF.GenerationSoftware,Altium Limited,Altium Designer,19.1.6 (110)*
G04*
G04 Layer_Color=255*
%FSLAX44Y44*%
%MOMM*%
G71*
G01*
G75*
%ADD19R,0.5500X0.5000*%
%ADD20R,1.5000X0.6000*%
%ADD21R,0.5000X0.5500*%
%ADD22R,0.6000X1.5000*%
%ADD23R,0.3500X0.3000*%
%ADD24R,0.3000X0.3500*%
%ADD25R,0.7000X3.4000*%
G04:AMPARAMS|DCode=26|XSize=0.6mm|YSize=1mm|CornerRadius=0.075mm|HoleSize=0mm|Usage=FLASHONLY|Rotation=90.000|XOffset=0mm|YOffset=0mm|HoleType=Round|Shape=RoundedRectangle|*
%AMROUNDEDRECTD26*
21,1,0.6000,0.8500,0,0,90.0*
21,1,0.4500,1.0000,0,0,90.0*
1,1,0.1500,0.4250,0.2250*
1,1,0.1500,0.4250,-0.2250*
1,1,0.1500,-0.4250,-0.2250*
1,1,0.1500,-0.4250,0.2250*
%
%ADD26ROUNDEDRECTD26*%
G04:AMPARAMS|DCode=27|XSize=0.5mm|YSize=0.6mm|CornerRadius=0.05mm|HoleSize=0mm|Usage=FLASHONLY|Rotation=0.000|XOffset=0mm|YOffset=0mm|HoleType=Round|Shape=RoundedRectangle|*
%AMROUNDEDRECTD27*
21,1,0.5000,0.5000,0,0,0.0*
21,1,0.4000,0.6000,0,0,0.0*
1,1,0.1000,0.2000,-0.2500*
1,1,0.1000,-0.2000,-0.2500*
1,1,0.1000,-0.2000,0.2500*
1,1,0.1000,0.2000,0.2500*
%
%ADD27ROUNDEDRECTD27*%
G04:AMPARAMS|DCode=28|XSize=0.6mm|YSize=0.6mm|CornerRadius=0.06mm|HoleSize=0mm|Usage=FLASHONLY|Rotation=180.000|XOffset=0mm|YOffset=0mm|HoleType=Round|Shape=RoundedRectangle|*
%AMROUNDEDRECTD28*
21,1,0.6000,0.4800,0,0,180.0*
21,1,0.4800,0.6000,0,0,180.0*
1,1,0.1200,-0.2400,0.2400*
1,1,0.1200,0.2400,0.2400*
1,1,0.1200,0.2400,-0.2400*
1,1,0.1200,-0.2400,-0.2400*
%
%ADD28ROUNDEDRECTD28*%
%ADD29R,4.2000X4.2000*%
G04:AMPARAMS|DCode=30|XSize=0.3mm|YSize=1.15mm|CornerRadius=0.075mm|HoleSize=0mm|Usage=FLASHONLY|Rotation=270.000|XOffset=0mm|YOffset=0mm|HoleType=Round|Shape=RoundedRectangle|*
%AMROUNDEDRECTD30*
21,1,0.3000,1.0000,0,0,270.0*
21,1,0.1500,1.1500,0,0,270.0*
1,1,0.1500,-0.5000,-0.0750*
1,1,0.1500,-0.5000,0.0750*
1,1,0.1500,0.5000,0.0750*
1,1,0.1500,0.5000,-0.0750*
%
%ADD30ROUNDEDRECTD30*%
G04:AMPARAMS|DCode=31|XSize=0.3mm|YSize=1.15mm|CornerRadius=0.075mm|HoleSize=0mm|Usage=FLASHONLY|Rotation=0.000|XOffset=0mm|YOffset=0mm|HoleType=Round|Shape=RoundedRectangle|*
%AMROUNDEDRECTD31*
21,1,0.3000,1.0000,0,0,0.0*
21,1,0.1500,1.1500,0,0,0.0*
1,1,0.1500,0.0750,-0.5000*
1,1,0.1500,-0.0750,-0.5000*
1,1,0.1500,-0.0750,0.5000*
1,1,0.1500,0.0750,0.5000*
%
%ADD31ROUNDEDRECTD31*%
%ADD32R,0.3000X0.3100*%
%ADD33R,0.5000X0.7000*%
%ADD34R,2.5000X1.7000*%
G04:AMPARAMS|DCode=35|XSize=1.6mm|YSize=0.5mm|CornerRadius=0.075mm|HoleSize=0mm|Usage=FLASHONLY|Rotation=180.000|XOffset=0mm|YOffset=0mm|HoleType=Round|Shape=RoundedRectangle|*
%AMROUNDEDRECTD35*
21,1,1.6000,0.3500,0,0,180.0*
21,1,1.4500,0.5000,0,0,180.0*
1,1,0.1500,-0.7250,0.1750*
1,1,0.1500,0.7250,0.1750*
1,1,0.1500,0.7250,-0.1750*
1,1,0.1500,-0.7250,-0.1750*
%
%ADD35ROUNDEDRECTD35*%
G04:AMPARAMS|DCode=36|XSize=1mm|YSize=0.9mm|CornerRadius=0.1125mm|HoleSize=0mm|Usage=FLASHONLY|Rotation=0.000|XOffset=0mm|YOffset=0mm|HoleType=Round|Shape=RoundedRectangle|*
%AMROUNDEDRECTD36*
21,1,1.0000,0.6750,0,0,0.0*
21,1,0.7750,0.9000,0,0,0.0*
1,1,0.2250,0.3875,-0.3375*
1,1,0.2250,-0.3875,-0.3375*
1,1,0.2250,-0.3875,0.3375*
1,1,0.2250,0.3875,0.3375*
%
%ADD36ROUNDEDRECTD36*%
%ADD37R,0.4400X0.6500*%
%ADD38R,2.1000X2.1000*%
%ADD39R,0.8500X0.3000*%
%ADD40R,0.3000X0.8500*%
G04:AMPARAMS|DCode=41|XSize=0.5mm|YSize=0.6mm|CornerRadius=0.05mm|HoleSize=0mm|Usage=FLASHONLY|Rotation=90.000|XOffset=0mm|YOffset=0mm|HoleType=Round|Shape=RoundedRectangle|*
%AMROUNDEDRECTD41*
21,1,0.5000,0.5000,0,0,90.0*
21,1,0.4000,0.6000,0,0,90.0*
1,1,0.1000,0.2500,0.2000*
1,1,0.1000,0.2500,-0.2000*
1,1,0.1000,-0.2500,-0.2000*
1,1,0.1000,-0.2500,0.2000*
%
%ADD41ROUNDEDRECTD41*%
G04:AMPARAMS|DCode=42|XSize=0.6mm|YSize=0.6mm|CornerRadius=0.06mm|HoleSize=0mm|Usage=FLASHONLY|Rotation=90.000|XOffset=0mm|YOffset=0mm|HoleType=Round|Shape=RoundedRectangle|*
%AMROUNDEDRECTD42*
21,1,0.6000,0.4800,0,0,90.0*
21,1,0.4800,0.6000,0,0,90.0*
1,1,0.1200,0.2400,0.2400*
1,1,0.1200,0.2400,-0.2400*
1,1,0.1200,-0.2400,-0.2400*
1,1,0.1200,-0.2400,0.2400*
%
%ADD42ROUNDEDRECTD42*%
%ADD43R,0.4000X0.4000*%
%ADD44R,0.6000X0.6000*%
%ADD45R,0.4000X0.4000*%
%ADD46R,0.6000X0.6000*%
%ADD47R,0.9000X1.3000*%
%ADD48R,1.2000X1.5000*%
%ADD49R,0.7000X1.0000*%
%ADD50R,3.8000X0.5000*%
%ADD51R,4.4000X0.7000*%
%ADD52R,0.7000X2.6500*%
%ADD53R,0.7000X3.5000*%
%ADD54R,0.5000X3.8000*%
%ADD55R,0.7000X4.4000*%
%ADD56R,0.3000X0.6000*%
%ADD57R,1.6000X0.9500*%
G04:AMPARAMS|DCode=58|XSize=1mm|YSize=1mm|CornerRadius=0.25mm|HoleSize=0mm|Usage=FLASHONLY|Rotation=90.000|XOffset=0mm|YOffset=0mm|HoleType=Round|Shape=RoundedRectangle|*
%AMROUNDEDRECTD58*
21,1,1.0000,0.5000,0,0,90.0*
21,1,0.5000,1.0000,0,0,90.0*
1,1,0.5000,0.2500,0.2500*
1,1,0.5000,0.2500,-0.2500*
1,1,0.5000,-0.2500,-0.2500*
1,1,0.5000,-0.2500,0.2500*
%
%ADD58ROUNDEDRECTD58*%
%ADD59R,1.0000X1.0000*%
%ADD60R,1.0000X1.0000*%
%ADD61R,0.9500X1.0000*%
%ADD62R,1.7000X2.5000*%
%ADD63R,0.7000X0.5000*%
G04:AMPARAMS|DCode=64|XSize=1.3mm|YSize=0.8mm|CornerRadius=0.1mm|HoleSize=0mm|Usage=FLASHONLY|Rotation=90.000|XOffset=0mm|YOffset=0mm|HoleType=Round|Shape=RoundedRectangle|*
%AMROUNDEDRECTD64*
21,1,1.3000,0.6000,0,0,90.0*
21,1,1.1000,0.8000,0,0,90.0*
1,1,0.2000,0.3000,0.5500*
1,1,0.2000,0.3000,-0.5500*
1,1,0.2000,-0.3000,-0.5500*
1,1,0.2000,-0.3000,0.5500*
%
%ADD64ROUNDEDRECTD64*%
%ADD65R,1.6500X0.9000*%
%ADD66R,1.6500X0.7600*%
G04:AMPARAMS|DCode=67|XSize=1mm|YSize=1mm|CornerRadius=0.15mm|HoleSize=0mm|Usage=FLASHONLY|Rotation=180.000|XOffset=0mm|YOffset=0mm|HoleType=Round|Shape=RoundedRectangle|*
%AMROUNDEDRECTD67*
21,1,1.0000,0.7000,0,0,180.0*
21,1,0.7000,1.0000,0,0,180.0*
1,1,0.3000,-0.3500,0.3500*
1,1,0.3000,0.3500,0.3500*
1,1,0.3000,0.3500,-0.3500*
1,1,0.3000,-0.3500,-0.3500*
%
%ADD67ROUNDEDRECTD67*%
%ADD68R,0.2000X0.3950*%
%ADD69R,0.3950X0.2000*%
G04:AMPARAMS|DCode=70|XSize=0.25mm|YSize=0.55mm|CornerRadius=0.0625mm|HoleSize=0mm|Usage=FLASHONLY|Rotation=0.000|XOffset=0mm|YOffset=0mm|HoleType=Round|Shape=RoundedRectangle|*
%AMROUNDEDRECTD70*
21,1,0.2500,0.4250,0,0,0.0*
21,1,0.1250,0.5500,0,0,0.0*
1,1,0.1250,0.0625,-0.2125*
1,1,0.1250,-0.0625,-0.2125*
1,1,0.1250,-0.0625,0.2125*
1,1,0.1250,0.0625,0.2125*
%
%ADD70ROUNDEDRECTD70*%
G04:AMPARAMS|DCode=71|XSize=0.6mm|YSize=0.6mm|CornerRadius=0.06mm|HoleSize=0mm|Usage=FLASHONLY|Rotation=135.000|XOffset=0mm|YOffset=0mm|HoleType=Round|Shape=RoundedRectangle|*
%AMROUNDEDRECTD71*
21,1,0.6000,0.4800,0,0,135.0*
21,1,0.4800,0.6000,0,0,135.0*
1,1,0.1200,0.0000,0.3394*
1,1,0.1200,0.3394,0.0000*
1,1,0.1200,0.0000,-0.3394*
1,1,0.1200,-0.3394,0.0000*
%
%ADD71ROUNDEDRECTD71*%
G04:AMPARAMS|DCode=72|XSize=0.3mm|YSize=0.35mm|CornerRadius=0mm|HoleSize=0mm|Usage=FLASHONLY|Rotation=225.000|XOffset=0mm|YOffset=0mm|HoleType=Round|Shape=Rectangle|*
%AMROTATEDRECTD72*
4,1,4,-0.0177,0.2298,0.2298,-0.0177,0.0177,-0.2298,-0.2298,0.0177,-0.0177,0.2298,0.0*
%
%ADD72ROTATEDRECTD72*%

G04:AMPARAMS|DCode=73|XSize=0.3mm|YSize=0.35mm|CornerRadius=0mm|HoleSize=0mm|Usage=FLASHONLY|Rotation=315.000|XOffset=0mm|YOffset=0mm|HoleType=Round|Shape=Rectangle|*
%AMROTATEDRECTD73*
4,1,4,-0.2298,-0.0177,0.0177,0.2298,0.2298,0.0177,-0.0177,-0.2298,-0.2298,-0.0177,0.0*
%
%ADD73ROTATEDRECTD73*%

G04:AMPARAMS|DCode=74|XSize=1mm|YSize=0.9mm|CornerRadius=0.1125mm|HoleSize=0mm|Usage=FLASHONLY|Rotation=90.000|XOffset=0mm|YOffset=0mm|HoleType=Round|Shape=RoundedRectangle|*
%AMROUNDEDRECTD74*
21,1,1.0000,0.6750,0,0,90.0*
21,1,0.7750,0.9000,0,0,90.0*
1,1,0.2250,0.3375,0.3875*
1,1,0.2250,0.3375,-0.3875*
1,1,0.2250,-0.3375,-0.3875*
1,1,0.2250,-0.3375,0.3875*
%
%ADD74ROUNDEDRECTD74*%
%ADD140R,2.0000X0.3500*%
G04:AMPARAMS|DCode=141|XSize=0.65mm|YSize=1.1mm|CornerRadius=0.1625mm|HoleSize=0mm|Usage=FLASHONLY|Rotation=270.000|XOffset=0mm|YOffset=0mm|HoleType=Round|Shape=RoundedRectangle|*
%AMROUNDEDRECTD141*
21,1,0.6500,0.7750,0,0,270.0*
21,1,0.3250,1.1000,0,0,270.0*
1,1,0.3250,-0.3875,-0.1625*
1,1,0.3250,-0.3875,0.1625*
1,1,0.3250,0.3875,0.1625*
1,1,0.3250,0.3875,-0.1625*
%
%ADD141ROUNDEDRECTD141*%
G04:AMPARAMS|DCode=142|XSize=1mm|YSize=0.9mm|CornerRadius=0.225mm|HoleSize=0mm|Usage=FLASHONLY|Rotation=270.000|XOffset=0mm|YOffset=0mm|HoleType=Round|Shape=RoundedRectangle|*
%AMROUNDEDRECTD142*
21,1,1.0000,0.4500,0,0,270.0*
21,1,0.5500,0.9000,0,0,270.0*
1,1,0.4500,-0.2250,-0.2750*
1,1,0.4500,-0.2250,0.2750*
1,1,0.4500,0.2250,0.2750*
1,1,0.4500,0.2250,-0.2750*
%
%ADD142ROUNDEDRECTD142*%
%ADD143C,1.0000*%
%ADD154C,5.5001*%
%ADD155C,0.8000*%
D19*
X427250Y201000D02*
D03*
X406750D02*
D03*
X758750Y22000D02*
D03*
X738250D02*
D03*
X758750Y153000D02*
D03*
X738250D02*
D03*
X758750Y67000D02*
D03*
X738250D02*
D03*
X758750Y198000D02*
D03*
X738250D02*
D03*
D20*
X417000Y191000D02*
D03*
Y211000D02*
D03*
X748500Y12000D02*
D03*
Y32000D02*
D03*
Y143000D02*
D03*
Y163000D02*
D03*
Y57000D02*
D03*
Y77000D02*
D03*
Y188000D02*
D03*
Y208000D02*
D03*
D21*
X388500Y6250D02*
D03*
Y26750D02*
D03*
X244500Y6250D02*
D03*
Y26750D02*
D03*
X340500Y6250D02*
D03*
Y26750D02*
D03*
X292500Y6250D02*
D03*
Y26750D02*
D03*
D22*
X378500Y16500D02*
D03*
X398500D02*
D03*
X234500D02*
D03*
X254500D02*
D03*
X330500D02*
D03*
X350500D02*
D03*
X282500D02*
D03*
X302500D02*
D03*
D23*
X228250Y190050D02*
D03*
Y184450D02*
D03*
X435958Y166685D02*
D03*
Y161084D02*
D03*
Y143300D02*
D03*
Y148900D02*
D03*
X498750Y196050D02*
D03*
Y190450D02*
D03*
X511500Y196050D02*
D03*
Y190450D02*
D03*
X226250Y141700D02*
D03*
Y147300D02*
D03*
X231000Y172950D02*
D03*
Y178550D02*
D03*
X77000Y154800D02*
D03*
Y149200D02*
D03*
X86750Y154800D02*
D03*
Y149200D02*
D03*
X17050Y96100D02*
D03*
Y90500D02*
D03*
Y79250D02*
D03*
Y84850D02*
D03*
X707250Y184550D02*
D03*
Y178950D02*
D03*
X319750Y43200D02*
D03*
Y48800D02*
D03*
X313250Y46550D02*
D03*
Y40950D02*
D03*
X310000Y83200D02*
D03*
Y88800D02*
D03*
X282500Y68300D02*
D03*
Y62700D02*
D03*
X292200Y95050D02*
D03*
Y89450D02*
D03*
X298700Y95050D02*
D03*
Y89450D02*
D03*
X280950Y83250D02*
D03*
Y88850D02*
D03*
X391500Y176200D02*
D03*
Y181800D02*
D03*
X401250Y177250D02*
D03*
Y182850D02*
D03*
X459750Y47550D02*
D03*
X459750Y41950D02*
D03*
X469955Y5250D02*
D03*
X469955Y10850D02*
D03*
X401908Y129450D02*
D03*
Y135050D02*
D03*
X411908Y115600D02*
D03*
Y110000D02*
D03*
X401408Y87300D02*
D03*
Y81700D02*
D03*
X378158Y102450D02*
D03*
Y108050D02*
D03*
X350158Y93700D02*
D03*
Y99300D02*
D03*
X343658Y93700D02*
D03*
Y99300D02*
D03*
X343658Y87800D02*
D03*
Y82200D02*
D03*
X350158Y87800D02*
D03*
Y82200D02*
D03*
X359158Y105050D02*
D03*
Y99450D02*
D03*
X404408Y105550D02*
D03*
Y99950D02*
D03*
X389783Y140000D02*
D03*
Y145600D02*
D03*
X397533Y140000D02*
D03*
Y145600D02*
D03*
X404033Y140000D02*
D03*
Y145600D02*
D03*
X397663Y104400D02*
D03*
Y110000D02*
D03*
X381658Y124800D02*
D03*
Y119200D02*
D03*
X355658Y138550D02*
D03*
Y132950D02*
D03*
X371408Y135450D02*
D03*
Y141050D02*
D03*
X346658Y120300D02*
D03*
Y114700D02*
D03*
X164000Y132000D02*
D03*
Y137600D02*
D03*
X213000Y101200D02*
D03*
Y95600D02*
D03*
X193000Y117800D02*
D03*
Y112200D02*
D03*
X129500Y85300D02*
D03*
Y79700D02*
D03*
X193000Y101200D02*
D03*
Y106800D02*
D03*
X347158Y132950D02*
D03*
Y138550D02*
D03*
X206750Y93550D02*
D03*
Y87950D02*
D03*
X356908Y115700D02*
D03*
Y121300D02*
D03*
X345158Y104200D02*
D03*
Y109800D02*
D03*
X351658Y104200D02*
D03*
Y109800D02*
D03*
X387658Y89200D02*
D03*
Y94800D02*
D03*
X200000Y87950D02*
D03*
Y93550D02*
D03*
X155250Y124450D02*
D03*
Y130050D02*
D03*
X125800Y73500D02*
D03*
Y67900D02*
D03*
X193250Y93550D02*
D03*
Y87950D02*
D03*
X199750Y106800D02*
D03*
Y101200D02*
D03*
X206500D02*
D03*
Y106800D02*
D03*
X137000Y79700D02*
D03*
Y85300D02*
D03*
X206500Y112200D02*
D03*
Y117800D02*
D03*
X199750Y112200D02*
D03*
Y117800D02*
D03*
X172750Y57400D02*
D03*
Y63000D02*
D03*
X158262Y62450D02*
D03*
Y68050D02*
D03*
X511500Y208500D02*
D03*
Y202900D02*
D03*
X472008Y123881D02*
D03*
Y118280D02*
D03*
X169013Y48975D02*
D03*
Y43375D02*
D03*
X158512Y48975D02*
D03*
Y43375D02*
D03*
X111750Y133896D02*
D03*
Y128296D02*
D03*
Y148996D02*
D03*
Y143396D02*
D03*
X498750Y208500D02*
D03*
Y202900D02*
D03*
X209500Y48300D02*
D03*
Y42700D02*
D03*
X224250Y7850D02*
D03*
X224250Y13450D02*
D03*
X211200Y7850D02*
D03*
Y13450D02*
D03*
X224250Y24550D02*
D03*
Y18950D02*
D03*
X217700Y13450D02*
D03*
Y7850D02*
D03*
X105250Y138450D02*
D03*
X105250Y144050D02*
D03*
X378000Y206200D02*
D03*
Y211800D02*
D03*
X540658Y130300D02*
D03*
Y124700D02*
D03*
X489908Y143800D02*
D03*
Y138200D02*
D03*
X158250Y147750D02*
D03*
Y142150D02*
D03*
X214455Y137500D02*
D03*
X214455Y143100D02*
D03*
X681408Y66050D02*
D03*
Y71650D02*
D03*
X679658Y54700D02*
D03*
X679658Y60300D02*
D03*
X522158Y175250D02*
D03*
Y180850D02*
D03*
X514408Y79300D02*
D03*
Y73700D02*
D03*
X627908Y79450D02*
D03*
Y85050D02*
D03*
X545658Y152700D02*
D03*
Y158300D02*
D03*
X545158Y147300D02*
D03*
Y141700D02*
D03*
X506658Y163450D02*
D03*
Y169050D02*
D03*
Y180800D02*
D03*
Y175200D02*
D03*
X510173Y54000D02*
D03*
Y48400D02*
D03*
X572358Y106300D02*
D03*
Y100700D02*
D03*
X513252Y175250D02*
D03*
Y180850D02*
D03*
X548408Y177450D02*
D03*
Y183050D02*
D03*
X519658Y131050D02*
D03*
Y125450D02*
D03*
X506908Y73700D02*
D03*
Y79300D02*
D03*
X558751Y110000D02*
D03*
Y104400D02*
D03*
X588433Y133150D02*
D03*
Y138750D02*
D03*
X551882Y134200D02*
D03*
Y128600D02*
D03*
X539658Y135450D02*
D03*
Y141050D02*
D03*
X551658Y147300D02*
D03*
Y141700D02*
D03*
X524658Y159050D02*
D03*
Y153450D02*
D03*
X539108Y150311D02*
D03*
Y155911D02*
D03*
X508408Y157300D02*
D03*
Y151700D02*
D03*
X476408Y79670D02*
D03*
Y74070D02*
D03*
X469908Y79670D02*
D03*
Y74070D02*
D03*
X448908Y94900D02*
D03*
Y100500D02*
D03*
X455458Y94900D02*
D03*
Y100500D02*
D03*
X462908Y86806D02*
D03*
Y92406D02*
D03*
X469908Y86806D02*
D03*
Y92406D02*
D03*
X558382Y131850D02*
D03*
Y137450D02*
D03*
X581408Y131700D02*
D03*
Y137300D02*
D03*
X541158Y183050D02*
D03*
Y177450D02*
D03*
X557158Y156550D02*
D03*
Y150950D02*
D03*
X568908Y140450D02*
D03*
Y146050D02*
D03*
X469801Y137795D02*
D03*
Y132195D02*
D03*
X462462Y137795D02*
D03*
Y132195D02*
D03*
X564382Y126950D02*
D03*
Y121350D02*
D03*
X498132Y151850D02*
D03*
Y157450D02*
D03*
X499402Y140905D02*
D03*
Y146505D02*
D03*
X480158Y126800D02*
D03*
Y121200D02*
D03*
D24*
X57650Y149750D02*
D03*
X63250D02*
D03*
X216700Y189000D02*
D03*
X222300D02*
D03*
X6150Y153750D02*
D03*
X11750D02*
D03*
X6150Y131249D02*
D03*
X11750D02*
D03*
X11750Y123750D02*
D03*
X6150D02*
D03*
X11750Y116250D02*
D03*
X6150D02*
D03*
Y138749D02*
D03*
X11750D02*
D03*
X6150Y146250D02*
D03*
X11750D02*
D03*
X441550Y155000D02*
D03*
X435950D02*
D03*
X220450Y132500D02*
D03*
X226050D02*
D03*
X495458Y169750D02*
D03*
X489858D02*
D03*
X223450Y155500D02*
D03*
X229050D02*
D03*
X45150Y149700D02*
D03*
X50750Y149700D02*
D03*
X712850Y172500D02*
D03*
X707250D02*
D03*
X303750Y83250D02*
D03*
X298150D02*
D03*
X292750Y83250D02*
D03*
X287150Y83250D02*
D03*
X337050Y164250D02*
D03*
X331450D02*
D03*
X399600Y165250D02*
D03*
X394000D02*
D03*
X380950Y169500D02*
D03*
X386550D02*
D03*
X386550Y162000D02*
D03*
X380950D02*
D03*
X454100Y41750D02*
D03*
X448500D02*
D03*
X447950Y55750D02*
D03*
X453550D02*
D03*
X401908Y95000D02*
D03*
X396308D02*
D03*
X389208Y104750D02*
D03*
X383608D02*
D03*
X376958Y90000D02*
D03*
X371358D02*
D03*
X368458Y113500D02*
D03*
X362858D02*
D03*
X374358Y113500D02*
D03*
X379958D02*
D03*
X378958Y83500D02*
D03*
X373358D02*
D03*
X365758Y96200D02*
D03*
X371358D02*
D03*
X395858Y124500D02*
D03*
X401458D02*
D03*
X370608Y149000D02*
D03*
X376208D02*
D03*
X189300Y50000D02*
D03*
X183700D02*
D03*
X131950Y73500D02*
D03*
X137550D02*
D03*
X206550Y124500D02*
D03*
X200950D02*
D03*
X193200Y80250D02*
D03*
X198800D02*
D03*
X178900Y63000D02*
D03*
X184500D02*
D03*
X193200Y65250D02*
D03*
X198800D02*
D03*
X193200Y72750D02*
D03*
X198800Y72750D02*
D03*
X331087Y110000D02*
D03*
X325487D02*
D03*
X363867Y130000D02*
D03*
X369467D02*
D03*
X365608Y120000D02*
D03*
X371208D02*
D03*
X309750Y102250D02*
D03*
X304150D02*
D03*
X135050Y98000D02*
D03*
X129450D02*
D03*
X137250Y104500D02*
D03*
X131650D02*
D03*
X135050Y91500D02*
D03*
X129450D02*
D03*
X170450Y132050D02*
D03*
X176050D02*
D03*
X116400Y80450D02*
D03*
X122000D02*
D03*
X161200Y125000D02*
D03*
X166800D02*
D03*
X213750Y124750D02*
D03*
X219350D02*
D03*
X166112Y56875D02*
D03*
X160513D02*
D03*
X368000Y211800D02*
D03*
X362400D02*
D03*
X200550Y50000D02*
D03*
X194950D02*
D03*
X711850Y82950D02*
D03*
X706250D02*
D03*
X188646Y174250D02*
D03*
X183046D02*
D03*
X201246D02*
D03*
X195646D02*
D03*
X470958Y153754D02*
D03*
X465358D02*
D03*
X470958Y161067D02*
D03*
X465358D02*
D03*
X309750Y95800D02*
D03*
X304150D02*
D03*
X468958Y106250D02*
D03*
X463358D02*
D03*
X194950Y56750D02*
D03*
X200550Y56750D02*
D03*
X191200Y181000D02*
D03*
X196800D02*
D03*
X218100Y24550D02*
D03*
X212500D02*
D03*
X456958Y132000D02*
D03*
X451358D02*
D03*
X468958Y112750D02*
D03*
X463358D02*
D03*
X660958Y73750D02*
D03*
X655358D02*
D03*
X671958Y66750D02*
D03*
X666358Y66750D02*
D03*
X655358Y66750D02*
D03*
X660958Y66750D02*
D03*
X514422Y68250D02*
D03*
X520023D02*
D03*
X353650Y42500D02*
D03*
X348050D02*
D03*
X503958Y43250D02*
D03*
X498358D02*
D03*
X513958Y139750D02*
D03*
X508358D02*
D03*
X558958Y76750D02*
D03*
X553358D02*
D03*
X552958Y90250D02*
D03*
X547358D02*
D03*
X491682Y157450D02*
D03*
X486082D02*
D03*
X558432Y122150D02*
D03*
X552832D02*
D03*
X580708Y93500D02*
D03*
X575108D02*
D03*
X515773Y60250D02*
D03*
X510173D02*
D03*
X446013Y106911D02*
D03*
X451613D02*
D03*
X446013Y114080D02*
D03*
X451613D02*
D03*
X559058Y96750D02*
D03*
X564658D02*
D03*
X553332Y83900D02*
D03*
X558932D02*
D03*
X518853Y167750D02*
D03*
X513252D02*
D03*
X518853Y161250D02*
D03*
X513252D02*
D03*
X552958Y96750D02*
D03*
X547358D02*
D03*
X574958Y76500D02*
D03*
X569358D02*
D03*
X513958Y146250D02*
D03*
X508358D02*
D03*
X525513Y136780D02*
D03*
X519912D02*
D03*
X525513Y143305D02*
D03*
X519912D02*
D03*
X497232Y96900D02*
D03*
X491632D02*
D03*
X497232Y104600D02*
D03*
X491632D02*
D03*
X497232Y81650D02*
D03*
X491632D02*
D03*
X497232Y89350D02*
D03*
X491632D02*
D03*
D25*
X694750Y59000D02*
D03*
D26*
X282450Y75000D02*
D03*
X308450Y56000D02*
D03*
Y65500D02*
D03*
Y75000D02*
D03*
X282450Y56000D02*
D03*
X371250Y162750D02*
D03*
X345250Y181750D02*
D03*
Y172250D02*
D03*
Y162750D02*
D03*
X371250Y181750D02*
D03*
X148763Y45250D02*
D03*
Y64250D02*
D03*
X125763Y54750D02*
D03*
D27*
X424000D02*
D03*
Y64750D02*
D03*
X707250Y142000D02*
D03*
Y132000D02*
D03*
X428255Y33750D02*
D03*
Y23750D02*
D03*
X471396Y33750D02*
D03*
Y23750D02*
D03*
X421908Y105000D02*
D03*
Y115000D02*
D03*
X706250Y41500D02*
D03*
Y51500D02*
D03*
X354200Y211800D02*
D03*
Y201800D02*
D03*
X120250Y162896D02*
D03*
Y172896D02*
D03*
X215896Y165500D02*
D03*
Y155500D02*
D03*
X172755Y165500D02*
D03*
Y155500D02*
D03*
X598537Y102500D02*
D03*
Y92500D02*
D03*
X556158Y41250D02*
D03*
Y51250D02*
D03*
X599137Y127250D02*
D03*
Y117250D02*
D03*
X630137Y127250D02*
D03*
Y117250D02*
D03*
X632658Y166500D02*
D03*
X632658Y156500D02*
D03*
X601408Y156250D02*
D03*
Y166250D02*
D03*
D28*
X444250Y77000D02*
D03*
X444250Y67000D02*
D03*
X707250Y163000D02*
D03*
Y153000D02*
D03*
X417750Y33750D02*
D03*
Y23750D02*
D03*
X388250Y201000D02*
D03*
Y211000D02*
D03*
X706250Y62500D02*
D03*
Y72500D02*
D03*
X120250Y97505D02*
D03*
Y107505D02*
D03*
X590908Y156250D02*
D03*
Y146250D02*
D03*
Y166250D02*
D03*
Y176250D02*
D03*
X630037Y102500D02*
D03*
Y92500D02*
D03*
X587658Y41250D02*
D03*
Y51250D02*
D03*
D29*
X57500Y110000D02*
D03*
D30*
X86750Y129500D02*
D03*
Y123000D02*
D03*
Y116500D02*
D03*
Y110000D02*
D03*
Y103500D02*
D03*
Y97000D02*
D03*
Y90500D02*
D03*
X28250D02*
D03*
Y97000D02*
D03*
Y103500D02*
D03*
Y110000D02*
D03*
Y116500D02*
D03*
Y123000D02*
D03*
Y129500D02*
D03*
D31*
X77000Y80750D02*
D03*
X70500D02*
D03*
X64000D02*
D03*
X57500D02*
D03*
X51000D02*
D03*
X44500D02*
D03*
X38000D02*
D03*
Y139250D02*
D03*
X44500D02*
D03*
X51000D02*
D03*
X57500D02*
D03*
X64000D02*
D03*
X70500D02*
D03*
X77000D02*
D03*
D32*
X273750Y30000D02*
D03*
Y25500D02*
D03*
X398250Y205500D02*
D03*
Y201000D02*
D03*
X730000Y71500D02*
D03*
Y67000D02*
D03*
Y26500D02*
D03*
Y22000D02*
D03*
Y157500D02*
D03*
Y153000D02*
D03*
Y202500D02*
D03*
Y198000D02*
D03*
D33*
X440250Y5750D02*
D03*
X449750Y5750D02*
D03*
X459250D02*
D03*
Y33750D02*
D03*
X449750D02*
D03*
X440250Y33750D02*
D03*
X184750Y137500D02*
D03*
X194250D02*
D03*
X203750D02*
D03*
Y165500D02*
D03*
X194250D02*
D03*
X184750D02*
D03*
D34*
X449750Y19750D02*
D03*
X194250Y151500D02*
D03*
D35*
X74750Y10750D02*
D03*
Y25750D02*
D03*
X74750Y54750D02*
D03*
Y39750D02*
D03*
X41750Y10750D02*
D03*
Y25750D02*
D03*
X41750Y54750D02*
D03*
X41750Y39750D02*
D03*
X76000Y165250D02*
D03*
Y180250D02*
D03*
X42500Y165250D02*
D03*
Y180250D02*
D03*
X76000Y209250D02*
D03*
X76000Y194250D02*
D03*
X42500D02*
D03*
Y209250D02*
D03*
D36*
X24750Y39750D02*
D03*
Y56750D02*
D03*
X24750Y25750D02*
D03*
Y8750D02*
D03*
X91750Y39750D02*
D03*
Y56750D02*
D03*
Y8750D02*
D03*
Y25750D02*
D03*
X92750Y163250D02*
D03*
Y180250D02*
D03*
X25750Y211250D02*
D03*
Y194250D02*
D03*
Y180250D02*
D03*
Y163250D02*
D03*
X92750Y194250D02*
D03*
Y211250D02*
D03*
X336158Y118250D02*
D03*
Y135250D02*
D03*
D37*
X386658Y133000D02*
D03*
X394158D02*
D03*
D38*
X165250Y96250D02*
D03*
D39*
X184250Y106250D02*
D03*
Y101250D02*
D03*
Y96250D02*
D03*
Y91250D02*
D03*
Y86250D02*
D03*
X146250D02*
D03*
Y91250D02*
D03*
Y96250D02*
D03*
Y101250D02*
D03*
Y106250D02*
D03*
D40*
X175250Y77250D02*
D03*
X170250D02*
D03*
X165250D02*
D03*
X160250D02*
D03*
X155250D02*
D03*
Y115250D02*
D03*
X160250D02*
D03*
X165250D02*
D03*
X170250D02*
D03*
X175250D02*
D03*
D41*
X334908Y81750D02*
D03*
X324908D02*
D03*
X334908Y91750D02*
D03*
X324908D02*
D03*
X354158Y56000D02*
D03*
X364158D02*
D03*
X334908Y101750D02*
D03*
X324908D02*
D03*
X662000Y206500D02*
D03*
X672000D02*
D03*
X120250Y118005D02*
D03*
X130250D02*
D03*
X622158Y166250D02*
D03*
X612158D02*
D03*
X619037Y102500D02*
D03*
X609037Y102500D02*
D03*
X619037Y92500D02*
D03*
X609037D02*
D03*
X576658Y51250D02*
D03*
X566658D02*
D03*
X576658Y41250D02*
D03*
X566658D02*
D03*
X619637Y117250D02*
D03*
X609637Y117250D02*
D03*
X619637Y127250D02*
D03*
X609637Y127250D02*
D03*
X621908Y156250D02*
D03*
X611908D02*
D03*
D42*
X283000Y114250D02*
D03*
X293000D02*
D03*
X314250Y114250D02*
D03*
X304250D02*
D03*
X333750Y206500D02*
D03*
X343750D02*
D03*
X155250Y178000D02*
D03*
X165250D02*
D03*
X442408Y90750D02*
D03*
X432408D02*
D03*
D43*
X342408Y64500D02*
D03*
Y72500D02*
D03*
X335908Y58000D02*
D03*
Y50000D02*
D03*
X355408Y153000D02*
D03*
X355408Y145000D02*
D03*
D44*
X334408Y68500D02*
D03*
X350408D02*
D03*
X343908Y54000D02*
D03*
X327908D02*
D03*
X363408Y149000D02*
D03*
X347408D02*
D03*
D45*
X437658Y121000D02*
D03*
X429658D02*
D03*
X413658Y132750D02*
D03*
X421658D02*
D03*
D46*
X433658Y113000D02*
D03*
Y129000D02*
D03*
X417658Y140750D02*
D03*
Y124750D02*
D03*
D47*
X247000Y113500D02*
D03*
X247000Y49500D02*
D03*
D48*
X269000Y106000D02*
D03*
Y54000D02*
D03*
X225000D02*
D03*
X225000Y106000D02*
D03*
D03*
X225000Y54000D02*
D03*
X269000D02*
D03*
Y106000D02*
D03*
D49*
X694750Y47250D02*
D03*
D50*
X613250Y28500D02*
D03*
Y191500D02*
D03*
D51*
X676000Y28500D02*
D03*
Y191500D02*
D03*
X550500D02*
D03*
Y28500D02*
D03*
D52*
X531750Y181750D02*
D03*
Y38250D02*
D03*
D53*
Y110000D02*
D03*
D54*
X694750D02*
D03*
D55*
Y172750D02*
D03*
D56*
X188750Y35500D02*
D03*
X193750D02*
D03*
X198750D02*
D03*
X203750D02*
D03*
Y16000D02*
D03*
X198750D02*
D03*
X193750D02*
D03*
X188750D02*
D03*
D57*
X196250Y25750D02*
D03*
D58*
X188600Y208400D02*
D03*
X214000D02*
D03*
X201300D02*
D03*
X175900D02*
D03*
X163200D02*
D03*
X150500D02*
D03*
X137800D02*
D03*
X125100D02*
D03*
X166500Y28200D02*
D03*
X128400D02*
D03*
X141100D02*
D03*
X153800D02*
D03*
X166500Y11500D02*
D03*
X153800D02*
D03*
X141100D02*
D03*
X128400D02*
D03*
X115700D02*
D03*
X317000Y207000D02*
D03*
D59*
X280000Y207000D02*
D03*
X298500Y207000D02*
D03*
X261500D02*
D03*
X243000D02*
D03*
X261500Y133000D02*
D03*
X280000Y133000D02*
D03*
X298500D02*
D03*
X317000Y133000D02*
D03*
D60*
X243000Y188500D02*
D03*
Y170000D02*
D03*
Y151500D02*
D03*
X317000D02*
D03*
Y170000D02*
D03*
Y188500D02*
D03*
D61*
X243000Y133000D02*
D03*
D62*
X134250Y141250D02*
D03*
D63*
X120250Y131750D02*
D03*
Y141250D02*
D03*
Y150750D02*
D03*
X148250D02*
D03*
Y141250D02*
D03*
Y131750D02*
D03*
D64*
X621658Y179000D02*
D03*
X601658D02*
D03*
X621658Y143500D02*
D03*
X601658D02*
D03*
D65*
X634558Y68200D02*
D03*
Y41300D02*
D03*
X602758D02*
D03*
Y68200D02*
D03*
X678308Y174950D02*
D03*
Y148050D02*
D03*
X646508D02*
D03*
Y174950D02*
D03*
X644637Y110950D02*
D03*
Y84050D02*
D03*
X676437D02*
D03*
Y110950D02*
D03*
D66*
X634558Y54750D02*
D03*
X678308Y161500D02*
D03*
X676437Y97500D02*
D03*
D67*
X661658Y50250D02*
D03*
D68*
X665658Y40725D02*
D03*
X661658D02*
D03*
X657658D02*
D03*
Y59775D02*
D03*
X661658D02*
D03*
X665658D02*
D03*
D69*
X652133Y43500D02*
D03*
Y48000D02*
D03*
Y52500D02*
D03*
Y57000D02*
D03*
X671183D02*
D03*
Y52500D02*
D03*
Y48000D02*
D03*
Y43500D02*
D03*
D70*
X645658Y121250D02*
D03*
X650658D02*
D03*
X645658Y129750D02*
D03*
X650658D02*
D03*
X640658D02*
D03*
Y121250D02*
D03*
D71*
X485158Y68250D02*
D03*
X478087Y61179D02*
D03*
D72*
X490138Y55480D02*
D03*
X486178Y51520D02*
D03*
X539858Y162000D02*
D03*
X543818Y165960D02*
D03*
X563152Y154670D02*
D03*
X567112Y158630D02*
D03*
X495513Y50105D02*
D03*
X491553Y46145D02*
D03*
X576362Y122880D02*
D03*
X572402Y118920D02*
D03*
D73*
X578428Y153480D02*
D03*
X582388Y149520D02*
D03*
X498138Y55520D02*
D03*
X494178Y59480D02*
D03*
X579138Y143520D02*
D03*
X575178Y147480D02*
D03*
X505362Y66420D02*
D03*
X501402Y70380D02*
D03*
D74*
X428750Y77750D02*
D03*
X411750D02*
D03*
D140*
X-19501Y202499D02*
D03*
Y197500D02*
D03*
Y192499D02*
D03*
Y187500D02*
D03*
Y182499D02*
D03*
Y157500D02*
D03*
Y152499D02*
D03*
Y147500D02*
D03*
Y142499D02*
D03*
Y137501D02*
D03*
Y132499D02*
D03*
Y127501D02*
D03*
Y122499D02*
D03*
Y117501D02*
D03*
Y112499D02*
D03*
Y107501D02*
D03*
Y102499D02*
D03*
Y97501D02*
D03*
Y92499D02*
D03*
Y87501D02*
D03*
Y82499D02*
D03*
Y77501D02*
D03*
Y72499D02*
D03*
Y67501D02*
D03*
Y42499D02*
D03*
Y37501D02*
D03*
Y32499D02*
D03*
Y27501D02*
D03*
Y22499D02*
D03*
Y17501D02*
D03*
D141*
X72750Y69500D02*
D03*
X58750D02*
D03*
D142*
X116200Y28200D02*
D03*
D143*
X475158Y185000D02*
D03*
X33000Y280300D02*
D03*
X827750Y280300D02*
D03*
Y-60300D02*
D03*
X33050Y-60250D02*
D03*
X175900Y206400D02*
D03*
X163200D02*
D03*
X188600D02*
D03*
X150500D02*
D03*
X201300D02*
D03*
X137800D02*
D03*
X214000D02*
D03*
X125100D02*
D03*
X115700Y13500D02*
D03*
Y26200D02*
D03*
X128400Y13500D02*
D03*
Y26200D02*
D03*
X141100Y13500D02*
D03*
Y26200D02*
D03*
X153800Y13500D02*
D03*
Y26200D02*
D03*
X166500Y13500D02*
D03*
Y26200D02*
D03*
D154*
X767500Y110000D02*
D03*
D155*
X531625Y0D02*
D03*
X543375D02*
D03*
Y220000D02*
D03*
X531625D02*
D03*
X191625D02*
D03*
X203375D02*
D03*
X203375Y0D02*
D03*
X191625D02*
D03*
M02*
