M48
;Layer_Color=9474304
;FILE_FORMAT=4:4
METRIC,LZ
;TYPE=PLATED
T1F00S00C0.2000
;TYPE=NON_PLATED
%
T01
X00665408Y0010325
X00665533Y0010775
X00638058Y001485
X00642908Y001725
X0074475Y00175
X007495Y00175
Y0016425
X0074475Y0016425
Y00193
X007495Y00193
Y0020625
X0074475Y0020625
X00576773Y0012161
X00573443Y0011828
X00570113Y0011495
X00563533Y0012153
X00576773Y0010829
Y0009497
Y0008831
X00573443Y0009164
X00566783
X00563453Y0009497
X005835Y0009225
X0058625Y000885
X00522408Y0005075
X00450908Y000575
X00445908Y000576
X00442408Y00054
X00449158Y0004425
Y0003895
X0045475Y0002325
X00460658Y000245
X00406908Y0003025
Y0003555
X0039475Y000305
X0039475Y0002295
X00393933Y00043325
X00386883
X00377683Y00043325
X00370633
X00360658Y0005275
Y000575
X00326508Y000725
Y00077
X00327002Y00092
X00326952Y0009655
X00309Y001115
X0031075Y0011575
X003055
X002825Y001155
X0027575Y0020825
X00225Y0020875
X00218441Y0020518
X00215Y0020225
X0021625Y001935
X002165Y0016325
X0022025Y00159
X0031175Y001895
X00316375Y00196375
X0033675Y0021375
X0040375Y002035
X00420375Y002032
X0041925Y0019825
X0042675Y00212
X004385
X004585Y002075
X0047675Y002065
X0049625Y0017475
X00493522Y00158241
X00496852Y00154911
X00506842Y00158241
X004455Y00178
X00442Y0017475
X004375
X00401667Y00135
X00396667
X00391667
X00386667
X00420158Y001075
X00444658Y00094
X00449158
X00450408Y0008575
X00446408Y0008275
X0021105Y000418
X0017725Y0003925
X0017175Y0005375
X0016915Y00080525
X0015375Y0007
X0014775Y0007525
X0011025Y0006125
X0010275Y0004175
X0010375Y000355
X00082Y0006
X00086Y00066
X0008825Y000815
X0009325Y000815
X0009725Y0007775
X00093Y000985
X0010125Y0010875
X00059Y0011175
X000425Y0010625
X00033625Y0011125
X00021Y00116
X0002125Y00103
X0001125Y0010275
X00009366Y00121584
X00007Y0013175
X-0000225Y001325
X000215Y0016025
X0005925Y0018725
X0006975Y0018325
X001085Y00175
X001155Y0017875
X0011875Y00183
X00122Y001865
X00136Y00192
X0014075
X00148Y0018875
X001685Y00181
X0013575Y00156
X0012265Y0015525
X0012375Y0014875
X00047Y0003675
X0004375Y0003225
M30
