M48
;Layer_Color=9474304
;FILE_FORMAT=4:4
METRIC,LZ
;TYPE=PLATED
T1F00S00C0.2000
T2F00S00C0.6500
T3F00S00C3.5001
;TYPE=NON_PLATED
T4F00S00C0.8000
%
T01
X00609158Y0000725
X00623658Y0001925
X00629408
X00634908Y0002725
X00638908Y000315
X00644158Y0002875
X006495Y00026
X00638908Y00047
X00644658Y0006125
X00649158Y0006075
X00651158Y0007575
X00644158Y000765
X00638608Y000765
X00632943Y000771
X00625158Y0008525
X00612658Y0008625
X006055Y0008175
X0060555Y000772
X00618Y0007275
X0060783Y0005
X00665Y00047
X00665158Y00053
X00674908Y000525
X00679658Y00053
X00679908Y000625
X00674908Y000625
X00676908Y0006675
X00676908Y000725
X00681408Y00074592
X00665083Y000805
X00665Y000975
X00667408Y0011225
X00678158Y0011725
X0070125Y001215
X0070925Y0011625
X0069625Y0013175
X00696908Y001515
X00684158Y0015325
X00667908Y0016725
X00660658Y0017475
X00648658Y00162
X00650408Y001395
X00652408Y0013525
X00656658Y001385
X00658908Y0014575
X00641458Y001365
X0063575Y0013625
X00628658Y00135
X00628658Y0014375
Y0014825
X00634658Y0017325
X00625658Y001795
X00625658Y0018375
X00613408Y0018325
X0061075Y0019675
X00614Y0020025
X0061725Y00204
X0062825Y0020025
X00632908
X00637565
X00643158Y0019575
X00647908Y00193
X00645908Y00185
X00652908Y002005
X0066675Y0019625
X00671Y00198
X006755
X0068
X0068825Y0018575
X007205Y00184
X0072275Y0018925
X0073Y00207
X0074475Y0021175
X00754825Y00205
Y00187
X00754825Y00181
X00754825Y00163
X007445Y0014675
X00738Y001745
X0071Y0016715
X00711098Y00156798
X00711098Y00149098
X0071125Y00143
X0070625Y0008775
X0069875Y0006775
X00722587Y00072738
X007211Y00054
X00724175Y00048
Y00036
X007145Y00041
X00714Y000515
X0071Y0002425
Y000195
Y0001475
X00694775Y000095
X00702Y000285
X0069075Y0004275
X0068325
X00676
X00650908Y000915
X00648908Y0009575
X00638658Y000945
Y001015
X00635158Y00098
X00621658Y0010775
X00625Y0011325
X00607208Y0011
X00602408Y00109
X0059525Y00109
X00589Y00128
X00593408Y0013725
X00608908Y001355
X00645658Y001265
X007395Y0008
X0074975Y0006225
X00754825Y00057
X0075175Y00051
X00754825Y00039
X00754825Y00033
X00754825Y00015
X00581158Y0003175
X00564408Y0003425
X00571658Y0004625
X00573443Y0005834
X00570113Y0006167
X00553463Y0005834
X00550133Y0005501
X00546658Y0005125
X00543473Y0006833
X00536813
X00533483Y0007166
X00540143Y00065
X00544803Y000849
X00534803
Y000949
X00544803
Y001049
X00534803
Y001149
Y001249
X00544803
Y001149
X00563453Y0011495
X00566783Y0011162
X00563453Y0010829
X00570113
Y0010163
X00573443Y000983
X00580103
X00570113Y0009497
Y0008831
X00563453
X00563453Y0008165
X00566783Y0007832
X00579908Y0007825
X00576773Y0008165
X00573443Y0008498
X00563453Y0010163
X00566783Y0010496
X00570113Y0012161
Y0012827
X00573443Y0012494
Y001316
Y0013826
X00576773Y0014159
Y0013493
X00583529Y00129079
X00581408Y001205
X00584408Y0014275
X00585759Y00151391
X00573443Y0014492
X00566783Y0014492
Y0015158
X00563453Y00148251
X00556793
X00560123Y00158241
X00553463Y00164901
X00550133Y00161571
X00530153
X00526823Y00164901
X00523493Y00161571
Y00148251
X00520163Y00151581
X00516833Y00148251
X00513503Y00151581
X00510173Y00148251
Y00154911
X00513503Y00158241
X00516833Y00154911
X00530153Y00154911
X00526823Y00151581
X00533658Y0014325
X00534803Y001349
X00544803
X00563453Y0013493
Y0014159
X00566783Y001316
X00571408Y00165926
X00581408Y00175
Y001805
X0058275Y00186
X00577158Y0018525
X00572658
X00551408Y0018305
X00540658Y001845
X0052725Y0018325
X0052275Y0018525
X00516908Y00187
X00497658Y0018225
X00501958Y001752
X00499208Y0016975
X00502408Y0016625
X00500182Y00158241
Y00151581
X00503512Y00148251
X00490192
X00493522Y00151581
X00492408Y0016375
X00478908Y0016775
X00474658Y001695
X0046575Y00169
X00454408Y00166137
X00449869Y0018505
X00445Y00185
X00454Y0018925
X004515Y00193
X0045575Y0019475
X00458Y0019875
X00463
X004635Y0019425
X00472Y0019875
X00485908Y0019125
X0048425Y0021025
X00492Y0021
X0050475Y002105
X0051575Y00213
X0052225Y0021325
X00530375Y00201625
X00535Y0020125
X0053925Y0020275
X00524803Y00135
Y00125
Y00115
Y00105
Y00095
Y00085
X00514803Y000849
X00504803
Y000949
X00514803
Y001049
X00504803
Y001149
Y001249
X00514803
Y001149
Y001349
X00504803
X00486862Y00138261
X00483532Y00148251
X00480202Y00144921
X00467408Y00144869
X00466132Y0013215
X00462158Y001195
X00451658Y0011675
X00450408Y00123
X00451158Y00137
X00454658Y00140342
X00435958Y001383
X00425158Y00134
X0042575Y0014425
X0042375Y00158
X0041025Y0015625
X00403167Y0015875
X0040525Y0016975
X004095Y0016975
X004055Y00174
X0040625Y001825
X0040225Y001855
X0041Y0017875
X0041875Y00175
X0042275Y0018725
X00427Y0018525
X00432Y001945
X0043275Y00199
X004395Y001975
X0044475Y00199
X004075Y00209
X0039875Y00216375
X00394Y00215
X00371408Y001875
X003575Y00186
X0035575Y0018
X00353208Y00167208
X003605Y0016325
X0037125Y001705
X00376Y001705
X00390658Y00156725
X003865Y001515
X00381667Y00135
Y0013
X00371667
Y00125
X00376667Y0012
X00371667Y00115
Y00105
X00376667Y001
Y00095
X00381667
Y00085
X00371667
X00366667Y0008
X00356667
Y0009
Y001
Y0011
X00361667Y00105
X00361667Y0012
X0036175Y0012475
X00357158Y0012475
X00351667Y00115
Y00135
X00342158Y001375
X00337408Y0012675
X003255Y0011625
X00317125Y00111375
X0032Y001085
X0030975Y0010475
X002987Y0010355
X003Y001085
X002955Y00107
X002922Y0010355
X0028325Y0010075
X0027825
X00281Y0009275
X0027425Y0008525
X0026825Y0006975
X0026825Y00062
X00278Y00066
X0029425Y0006175
Y0005725
X0028825Y0005
X00294Y000395
X003125Y000385
X0031375Y0002825
X0032236Y00020464
X0032225Y00016
Y000115
X00289296Y00012
X0028525Y0002825
X0027275Y000345
X002545Y0003725
X00252Y0002675
X0025825Y00022
X0024425Y0002075
X0023075Y000195
X0022325Y000325
X0023075Y000425
X0023075Y000695
X0024175
Y000805
X0023075
X0023875Y00094
X00234Y0010975
X0022925Y00112
X00221818Y00111968
X002095Y0010675
X002045Y0009
X0019705Y000835
X00193Y00086
X001985Y000755
X00203Y0007525
X0020425Y00064
X002095Y0005275
X0021625Y000585
X00208154Y00017596
X0019875Y000135
X00197Y00023
X0025Y0000625
X002545
X00259Y0000625
X0026175Y00049
X0025525Y000725
Y000775
X002555Y0010425
X0026025Y0010575
X0029Y00079
X0029325Y000755
X00297375Y00078375
X0030175Y000635
X00312Y0005975
X0031825Y000645
X00322658Y000645
X00319Y000755
X0031925Y0009225
X003145Y0009275
X00346667Y0008025
X00350408Y00062
X00354658Y0006425
X00358408Y0006625
X00372Y00066
X00374408Y0005125
X00382408Y000575
X00390408Y00052
X00382258Y0003925
X0035975Y0004725
X0035325Y000505
X00349Y000455
X00341Y0004675
X00345Y00038
X0033525
X00330125Y00038375
X0035Y0000325
X003645Y0000625
X0036925
X003985Y0000575
X0041025Y0001675
X0041475
X0041925
X0042875Y0001575
X0043175Y000195
X004395Y00018
X00449Y0001825
X004575Y00018
X0046955Y000178
X00476Y0001775
X00481Y0001775
X00498358Y0002675
X00502408
X0050025Y0003075
X00500408Y0003875
X00510908Y0003725
X00510158Y0004175
X00488408Y0004125
X0047575
X00470454Y00040546
X004545Y00039
X0045425Y0004425
X004305Y000455
X004235Y000445
X00423408Y0004875
X0041875Y0004675
X0042775Y0005225
X0043225
X0043Y0006925
X00437658Y000825
X00458408Y00084
X00465158Y000825
X00476872Y0008165
X00483532Y0007499
X00486862Y0008498
Y000983
Y0010496
Y0011162
X00483532Y0010829
X00480202Y0010496
X00473542
X00476872Y0010829
X00480202Y00111621
Y0011828
X00486862Y0011828
X00500182Y0007166
X00496852Y0006167
X00503512
X00506842Y00065
X00513503Y00065
X00510173Y0006833
X00520163Y0007166
X00500182Y0005834
X0046375Y000695
X00458Y00069
X00452908Y0009075
X00440658Y0010325
X00411667Y000925
Y00087
X00396667Y0009
X00391667
Y00095
Y00105
X00386802Y0011
X00381667
X00386667Y00115
X00391667Y0012
X00396667
X00401667
X00406667
Y0011
X00401667Y001
X00396667
Y0008
X0040325Y000265
X00412Y0003375
X0043425Y000275
X00524158Y000305
X0053875Y0003625
X00536658Y000405
X00550908Y00017
X00561158Y0001625
X00565158Y0000525
X0050925Y0000725
X00366667Y0013975
X00350158Y001545
X00345908
X00341408
X0032475Y00156
X003175Y00159
X00326Y0016525
X00333Y00169
X00337Y00171
X003045Y0018175
X0030675Y001905
X003045Y0020625
X002892Y0020775
X0028945Y0019925
X002815Y0019925
X0027575Y00199
X0027075Y00207
X0026225Y0019925
X0026572Y001945
X0026825Y00186
X0026275
X0025789
X0024725Y00197
X0023525Y0019125
X0023525Y0018275
X002285Y001943
X0023175Y0020595
X0023525Y002095
X0022475Y0021325
X002175Y002125
X00202563Y00189119
X0019725Y00189
X0020625Y0015925
X002095Y00148
X0019825Y0015025
X001965Y001245
X002235Y0016225
X002275
X0022475Y00166
X0024275Y0016125
X00253Y001615
X00258
X00271Y0015725
X002747Y00167987
X0028075Y001665
X002875Y0017375
X002892Y00183
Y0019125
X0026295Y0021645
X002877Y001387
X00296635Y0014625
X00307938Y00146049
X0031Y0014125
X0030725Y00153
X0019025Y0015375
X001755Y001535
X0016105Y001553
X001548Y001575
X0015925Y001665
X0015925Y0017125
X0014975Y0016825
X00141Y001785
X0013675
X001325
X0012825Y00162
X0013225Y00153
X001345Y0014275
X0014375Y001425
X001535Y001365
X00158Y0013725
X001616Y0014
X00166Y001425
X0017275Y001246
X0018025Y0011175
X0018475
X0017075Y0010175
X0015975
Y0009075
X0017075
X0018Y00088615
X0018275Y0007075
X001875Y0006125
X001795Y0005025
X0016375Y00047
X00163Y0006375
X001445Y000585
X0014125Y00049
X001345Y000535
X0012075Y000525
X0012625Y000605
X001205Y000675
X0012Y0007575
X00130875Y0007
X0013525Y0006875
X0015025Y00082
X0013875Y0009725
X0012945Y0009275
X00126Y0010575
X0010625Y0010725
X00110125Y0009875
X000935Y00103
Y0011
X0009725Y00114
X000955Y001225
X0008625Y0012075
X0008725Y0012725
X001135Y001245
X0013475Y00126
X00139375Y00125875
X0011175Y001515
Y0015625
X00095Y0016875
X0009025
X00091Y001745
X000955
X0009975Y00174
X0008675Y0017375
X0006325Y0017275
Y0017875
Y0018325
X0005925Y00181
Y0017525
X0005525Y0017275
Y0017875
Y0018325
Y0019125
Y0019575
Y0020175
X0005925Y0019925
Y001935
X0006325Y0019575
Y0019125
Y0020175
X00062Y0021075
X000565
X0004875Y0018725
X0003525Y001895
X00031
X0002675Y001895
X0001725Y001885
X0001725Y0019275
X0001725Y00197
X000075Y001985
X0000275Y00202499
X-000015
X-000015Y0019325
X000035
X00001Y0018925
X-0000075Y001815
X-000045Y0018425
X-00004Y00160501
X0000025
Y00142499
X-00004
Y00127501
X0000025
X-0000025Y00112499
X-000045
X-00004Y00093
X-000005Y000825
X00005Y00077
Y0007275
X-0000275Y00072
X0000025Y0006525
X-00004Y0006325
X-0000475Y00044
X-00004Y000225
X0Y0002
Y00025
X00006Y000185
X00015Y00014
X0001875Y0000825
X0003525Y00005
X000555Y00009
X00061
X0006225Y0001825
Y0002425
Y0002875
X0005825Y000265
X0005825Y0002075
X0005425Y0001825
X0005425Y0002425
X0005425Y0002875
X0005825Y0003275
X0005825Y00039
Y0004475
X0005425Y0004725
X0005425Y0004125
X0005425Y0003675
X0006225
X0006225Y0004125
Y0004725
X000605Y000565
Y00061
X00056
Y000565
X00036Y00062
X0003125
X0003175Y0007
X000365Y0007225
X00041
X000455
X0006375Y00085
X0006825Y0008625
X0007475Y000925
X0007475Y0007775
X0008375Y0007925
X00083Y000705
X0009225Y0007125
X00099Y00073
X001005Y0006825
X0009875Y0008575
X00092Y000515
X0008725
X000855Y000425
Y0003775
X00097Y0003775
Y000425
X001015Y0002925
X00106
X00094Y00014
X0008925
X0006875Y0003275
X00035Y000375
X0003125Y000355
Y0003975
X000165Y0003025
X0001625Y000255
X000125Y0002825
X00012Y00071
Y0007525
Y000795
X0002075Y0009775
X00018Y001095
X0001585Y00118663
X0002Y001205
X0001925Y001295
X0001925Y00134247
X0002175Y0013825
X000255Y0014075
X000295Y00143
X00033201Y00140199
X0004225Y00139
X0003375Y001275
Y001225
X0002725Y0013375
X0003075Y0010675
X00052Y001045
X00063Y001045
Y001155
X00052
X000565Y00161
X00062
X0008075Y0015525
X0008675Y002055
X0009075
X00101Y002025
X0010325Y0019875
X00098625Y00198875
X00110697Y0019925
X0011Y0020425
X0010625Y00208
X00108Y00192
X00114999Y00191749
X0012425Y0019575
X001285Y0019725
X0013575Y00199
X0013575Y002035
X0014425Y0019525
X0015075Y0019825
X001575Y0020225
X001655Y001985
X0016325Y00188
X0016Y00185
X0017175Y00192
X0018275Y0019125
X001885Y00191
X0017625Y001765
X001775Y0021525
X0015825Y002155
X00119Y0021355
X0002875Y00206
X00024
X0002625Y00174
X0002175
Y00168
X0002625
X0003075Y00174
X0001825Y00171
X000785Y0006325
X0019045Y00078
X0019025Y00023
X00183Y0001775
Y000125
X0017875Y0002675
T02
X0064965Y00012
X0066235
X001665Y000135
X001538
X001411
X001284
X001157
Y000262
X001284
X001411
X001538
X001665
T03
X007675Y0011
T04
X00191625Y0
X00203375
X00203375Y0022
X00191625
X00531625
X00543375
Y0
X00531625
M30
