G04*
G04 #@! TF.GenerationSoftware,Altium Limited,Altium Designer,19.1.6 (110)*
G04*
G04 Layer_Color=8388736*
%FSLAX44Y44*%
%MOMM*%
G71*
G01*
G75*
%ADD11C,0.1500*%
D11*
X7500Y2000D02*
G03*
X9500Y0I2000J0D01*
G01*
X-3500Y47750D02*
G03*
X-3500Y59750I0J6000D01*
G01*
X9500Y220000D02*
G03*
X7500Y218000I0J-2000D01*
G01*
X-3500Y165250D02*
G03*
X-3500Y177250I0J6000D01*
G01*
X2500Y209250D02*
G03*
X7500Y214250I0J5000D01*
G01*
X765500Y0D02*
G03*
X767500Y2000I0J2000D01*
G01*
Y218000D02*
G03*
X765500Y220000I-2000J0D01*
G01*
X7500Y5750D02*
G03*
X2500Y10750I-5000J0D01*
G01*
X-32500Y250250D02*
Y351800D01*
Y250250D02*
X182505D01*
X212495Y220000D02*
Y250250D01*
X182505Y220000D02*
Y250250D01*
X-32500Y351800D02*
X899250D01*
X212495Y250250D02*
X522505D01*
X552495D02*
X797750D01*
X552495Y220000D02*
Y250250D01*
X522505Y220000D02*
Y250250D01*
X899250Y351800D02*
X899250Y-131800D01*
X797750Y-30250D02*
Y250250D01*
X552495Y-30250D02*
X797750D01*
X552495D02*
Y0D01*
X522505Y-30250D02*
Y0D01*
X-32500Y-131800D02*
Y-30250D01*
X212495D02*
X522505D01*
X-32500Y-131800D02*
X899250D01*
X-32500Y-30250D02*
X182505D01*
X212495D02*
Y0D01*
X182505Y-30250D02*
Y0D01*
X7500Y214250D02*
Y218000D01*
Y2000D02*
Y5750D01*
X-32500Y177250D02*
Y209250D01*
Y59750D02*
Y165250D01*
X-32500Y10750D02*
Y47750D01*
X767500Y2000D02*
Y110000D01*
Y218000D01*
X-32500Y10750D02*
X2500D01*
X-32500Y59750D02*
X-3500D01*
X-32500Y47750D02*
X-3500D01*
X-32500Y165250D02*
X-3500D01*
X-32500Y177250D02*
X-3500D01*
X-32500Y209250D02*
X2500Y209250D01*
X9500Y0D02*
X765500Y0D01*
X9500Y220001D02*
X765500Y220000D01*
M02*
