G04*
G04 #@! TF.GenerationSoftware,Altium Limited,Altium Designer,19.1.6 (110)*
G04*
G04 Layer_Color=32896*
%FSLAX44Y44*%
%MOMM*%
G71*
G01*
G75*
%ADD10C,0.1500*%
%ADD11C,0.2540*%
%ADD12C,0.2000*%
%ADD14C,0.1000*%
%ADD17C,0.1270*%
%ADD18C,0.2500*%
%ADD209C,0.0152*%
%ADD210C,0.0155*%
G36*
X112500Y-150D02*
Y4350D01*
X108100D01*
Y-150D01*
X112500D01*
D02*
G37*
G36*
X126475D02*
Y4350D01*
X155725D01*
Y-150D01*
X126475D01*
D02*
G37*
G36*
X153250Y166250D02*
Y169500D01*
X150000Y166250D01*
X153250D01*
D02*
G37*
G36*
X189000D02*
Y169500D01*
X185750Y166250D01*
X189000D01*
D02*
G37*
G36*
X229500D02*
Y169500D01*
X226250Y166250D01*
X229500D01*
D02*
G37*
G36*
X287250Y48500D02*
X289250Y48500D01*
Y50500D01*
X287250D01*
X287250Y48500D01*
D02*
G37*
G36*
X344667Y67000D02*
X338667Y73000D01*
X338667Y67000D01*
X344667Y67000D01*
D02*
G37*
G36*
X295250Y138500D02*
X299250Y138500D01*
X299250Y136250D01*
X295250D01*
Y138500D01*
D02*
G37*
G36*
X587804Y163999D02*
X587803Y172000D01*
X579804Y171999D01*
X587804Y163999D01*
D02*
G37*
G36*
X647533Y107750D02*
Y110500D01*
X642158D01*
X647533Y107750D01*
D02*
G37*
G36*
X635908Y178250D02*
Y174250D01*
X639908D01*
X635908Y178250D01*
D02*
G37*
G36*
X85543Y135500D02*
X81925D01*
X81709Y135509D01*
X81503D01*
X81325Y135519D01*
X81147Y135537D01*
X80997Y135547D01*
X80857Y135556D01*
X80735Y135575D01*
X80622Y135584D01*
X80528Y135594D01*
X80444Y135612D01*
X80379Y135622D01*
X80332Y135631D01*
X80294D01*
X80275Y135640D01*
X80266D01*
X80069Y135697D01*
X79872Y135753D01*
X79694Y135809D01*
X79526Y135875D01*
X79366Y135950D01*
X79216Y136015D01*
X79085Y136081D01*
X78963Y136147D01*
X78851Y136212D01*
X78757Y136268D01*
X78673Y136315D01*
X78607Y136362D01*
X78551Y136400D01*
X78513Y136428D01*
X78495Y136447D01*
X78485Y136456D01*
X78317Y136596D01*
X78167Y136737D01*
X77876Y137046D01*
X77745Y137206D01*
X77614Y137365D01*
X77501Y137524D01*
X77398Y137674D01*
X77314Y137815D01*
X77229Y137946D01*
X77164Y138059D01*
X77098Y138162D01*
X77051Y138246D01*
X77023Y138302D01*
X77004Y138349D01*
X76995Y138358D01*
X76892Y138593D01*
X76798Y138827D01*
X76714Y139061D01*
X76648Y139296D01*
X76592Y139530D01*
X76545Y139764D01*
X76498Y139980D01*
X76470Y140186D01*
X76442Y140383D01*
X76423Y140561D01*
X76414Y140720D01*
X76405Y140852D01*
X76395Y140964D01*
Y141048D01*
Y141095D01*
Y141114D01*
X76405Y141376D01*
X76423Y141630D01*
X76442Y141854D01*
X76470Y142051D01*
X76489Y142136D01*
X76508Y142211D01*
X76517Y142286D01*
X76526Y142342D01*
X76536Y142389D01*
X76545Y142417D01*
X76554Y142436D01*
Y142445D01*
X76620Y142670D01*
X76686Y142867D01*
X76761Y143054D01*
X76826Y143204D01*
X76892Y143335D01*
X76939Y143429D01*
X76958Y143467D01*
X76976Y143495D01*
X76986Y143504D01*
Y143513D01*
X77089Y143682D01*
X77201Y143832D01*
X77314Y143973D01*
X77417Y144085D01*
X77501Y144179D01*
X77576Y144254D01*
X77623Y144291D01*
X77642Y144310D01*
X77792Y144432D01*
X77932Y144535D01*
X78082Y144619D01*
X78214Y144694D01*
X78326Y144751D01*
X78420Y144797D01*
X78476Y144816D01*
X78485Y144826D01*
X78495D01*
X78673Y144891D01*
X78860Y144948D01*
X79038Y144985D01*
X79207Y145022D01*
X79348Y145041D01*
X79413Y145051D01*
X79460Y145060D01*
X79507D01*
X79535Y145069D01*
X79563D01*
X79629Y145079D01*
X79713D01*
X79807Y145088D01*
X79910D01*
X80135Y145097D01*
X80369Y145107D01*
X83537D01*
X85543Y135500D01*
D02*
G37*
G36*
X75842D02*
X73874D01*
X73040Y139483D01*
X72112D01*
X71990Y139474D01*
X71784Y139455D01*
X71624Y139418D01*
X71484Y139389D01*
X71381Y139352D01*
X71315Y139314D01*
X71268Y139296D01*
X71259Y139286D01*
X71175Y139221D01*
X71090Y139146D01*
X71006Y139052D01*
X70931Y138958D01*
X70781Y138752D01*
X70650Y138537D01*
X70537Y138340D01*
X70500Y138255D01*
X70462Y138180D01*
X70425Y138115D01*
X70406Y138068D01*
X70387Y138040D01*
Y138031D01*
X70256Y137721D01*
X70134Y137431D01*
X70022Y137159D01*
X69919Y136906D01*
X69825Y136681D01*
X69741Y136475D01*
X69675Y136287D01*
X69609Y136118D01*
X69553Y135969D01*
X69506Y135847D01*
X69469Y135744D01*
X69441Y135650D01*
X69413Y135584D01*
X69394Y135537D01*
X69384Y135509D01*
Y135500D01*
X67257D01*
X67407Y135875D01*
X67557Y136222D01*
X67697Y136559D01*
X67829Y136859D01*
X67960Y137149D01*
X68082Y137412D01*
X68194Y137646D01*
X68307Y137862D01*
X68400Y138049D01*
X68485Y138218D01*
X68560Y138358D01*
X68625Y138471D01*
X68672Y138565D01*
X68710Y138621D01*
X68728Y138668D01*
X68738Y138677D01*
X68860Y138874D01*
X68991Y139052D01*
X69103Y139211D01*
X69216Y139343D01*
X69310Y139436D01*
X69384Y139511D01*
X69431Y139558D01*
X69450Y139577D01*
X69178Y139624D01*
X68925Y139671D01*
X68691Y139736D01*
X68475Y139811D01*
X68278Y139886D01*
X68091Y139971D01*
X67932Y140055D01*
X67782Y140139D01*
X67651Y140224D01*
X67538Y140299D01*
X67444Y140374D01*
X67369Y140430D01*
X67304Y140486D01*
X67266Y140524D01*
X67238Y140552D01*
X67229Y140561D01*
X67098Y140711D01*
X66985Y140880D01*
X66882Y141048D01*
X66798Y141217D01*
X66732Y141386D01*
X66666Y141555D01*
X66620Y141714D01*
X66582Y141873D01*
X66554Y142023D01*
X66526Y142154D01*
X66507Y142276D01*
X66498Y142379D01*
X66488Y142464D01*
Y142529D01*
Y142576D01*
Y142586D01*
X66507Y142895D01*
X66545Y143176D01*
X66610Y143429D01*
X66648Y143542D01*
X66676Y143645D01*
X66713Y143729D01*
X66751Y143813D01*
X66779Y143879D01*
X66816Y143945D01*
X66835Y143991D01*
X66854Y144020D01*
X66873Y144038D01*
Y144048D01*
X67023Y144254D01*
X67182Y144432D01*
X67351Y144573D01*
X67510Y144685D01*
X67651Y144769D01*
X67707Y144807D01*
X67763Y144826D01*
X67810Y144844D01*
X67838Y144863D01*
X67857Y144873D01*
X67866D01*
X67988Y144910D01*
X68110Y144948D01*
X68391Y145004D01*
X68672Y145051D01*
X68944Y145079D01*
X69075Y145088D01*
X69197Y145097D01*
X69300D01*
X69394Y145107D01*
X73836D01*
X75842Y135500D01*
D02*
G37*
G36*
X89948Y145266D02*
X90229Y145238D01*
X90501Y145201D01*
X90745Y145154D01*
X90970Y145088D01*
X91176Y145022D01*
X91373Y144948D01*
X91541Y144873D01*
X91691Y144797D01*
X91823Y144722D01*
X91935Y144657D01*
X92029Y144591D01*
X92094Y144544D01*
X92150Y144507D01*
X92179Y144479D01*
X92188Y144469D01*
X92338Y144319D01*
X92479Y144151D01*
X92591Y143991D01*
X92694Y143823D01*
X92779Y143654D01*
X92844Y143485D01*
X92900Y143317D01*
X92947Y143167D01*
X92985Y143017D01*
X93013Y142886D01*
X93032Y142764D01*
X93050Y142661D01*
Y142576D01*
X93060Y142511D01*
Y142473D01*
Y142454D01*
X93050Y142201D01*
X93013Y141976D01*
X92966Y141770D01*
X92910Y141592D01*
X92863Y141442D01*
X92835Y141386D01*
X92816Y141339D01*
X92797Y141301D01*
X92779Y141273D01*
X92769Y141255D01*
Y141245D01*
X92647Y141058D01*
X92516Y140899D01*
X92385Y140749D01*
X92254Y140627D01*
X92141Y140533D01*
X92047Y140458D01*
X92010Y140439D01*
X91982Y140421D01*
X91973Y140402D01*
X91963D01*
X91860Y140336D01*
X91748Y140280D01*
X91495Y140139D01*
X91223Y140008D01*
X90951Y139877D01*
X90829Y139821D01*
X90716Y139764D01*
X90604Y139718D01*
X90510Y139680D01*
X90435Y139643D01*
X90379Y139614D01*
X90342Y139605D01*
X90332Y139596D01*
X90135Y139511D01*
X89948Y139427D01*
X89789Y139352D01*
X89639Y139277D01*
X89517Y139221D01*
X89404Y139155D01*
X89301Y139108D01*
X89217Y139061D01*
X89151Y139024D01*
X89095Y138987D01*
X89048Y138958D01*
X89011Y138930D01*
X88983Y138912D01*
X88964Y138902D01*
X88954Y138893D01*
X88833Y138780D01*
X88748Y138658D01*
X88683Y138537D01*
X88645Y138424D01*
X88617Y138321D01*
X88608Y138246D01*
X88598Y138190D01*
Y138180D01*
Y138171D01*
Y138077D01*
X88617Y137993D01*
X88664Y137834D01*
X88739Y137693D01*
X88814Y137571D01*
X88898Y137468D01*
X88973Y137402D01*
X89020Y137356D01*
X89030Y137337D01*
X89039D01*
X89123Y137281D01*
X89226Y137224D01*
X89442Y137140D01*
X89667Y137074D01*
X89901Y137037D01*
X90004Y137018D01*
X90107Y137009D01*
X90201Y137000D01*
X90276D01*
X90342Y136990D01*
X90435D01*
X90642Y137000D01*
X90838Y137009D01*
X91017Y137037D01*
X91176Y137065D01*
X91326Y137112D01*
X91457Y137149D01*
X91569Y137196D01*
X91672Y137243D01*
X91766Y137290D01*
X91841Y137337D01*
X91897Y137384D01*
X91954Y137421D01*
X91991Y137449D01*
X92019Y137478D01*
X92029Y137487D01*
X92038Y137496D01*
X92085Y137562D01*
X92122Y137637D01*
X92197Y137824D01*
X92244Y138021D01*
X92282Y138227D01*
X92310Y138415D01*
X92319Y138499D01*
X92329Y138574D01*
Y138630D01*
X92338Y138677D01*
Y138705D01*
Y138715D01*
X94222Y138612D01*
X94213Y138265D01*
X94184Y137937D01*
X94156Y137787D01*
X94128Y137646D01*
X94100Y137515D01*
X94062Y137393D01*
X94034Y137290D01*
X93997Y137187D01*
X93969Y137103D01*
X93941Y137037D01*
X93922Y136981D01*
X93903Y136943D01*
X93884Y136915D01*
Y136906D01*
X93809Y136775D01*
X93725Y136643D01*
X93528Y136409D01*
X93313Y136212D01*
X93097Y136053D01*
X92910Y135922D01*
X92825Y135875D01*
X92750Y135828D01*
X92685Y135800D01*
X92638Y135772D01*
X92610Y135762D01*
X92600Y135753D01*
X92422Y135678D01*
X92244Y135622D01*
X91879Y135519D01*
X91523Y135444D01*
X91354Y135415D01*
X91185Y135397D01*
X91035Y135378D01*
X90895Y135359D01*
X90773Y135350D01*
X90660D01*
X90576Y135340D01*
X90454D01*
X90126Y135350D01*
X89817Y135378D01*
X89536Y135425D01*
X89264Y135481D01*
X89011Y135547D01*
X88786Y135622D01*
X88570Y135706D01*
X88383Y135790D01*
X88214Y135875D01*
X88074Y135959D01*
X87952Y136034D01*
X87849Y136100D01*
X87764Y136156D01*
X87708Y136203D01*
X87670Y136231D01*
X87661Y136240D01*
X87483Y136409D01*
X87324Y136596D01*
X87192Y136775D01*
X87080Y136962D01*
X86977Y137140D01*
X86892Y137318D01*
X86827Y137496D01*
X86771Y137665D01*
X86733Y137815D01*
X86705Y137956D01*
X86677Y138087D01*
X86668Y138190D01*
X86658Y138284D01*
X86649Y138349D01*
Y138387D01*
Y138405D01*
X86658Y138593D01*
X86677Y138771D01*
X86714Y138940D01*
X86752Y139108D01*
X86808Y139258D01*
X86864Y139389D01*
X86921Y139521D01*
X86986Y139633D01*
X87052Y139736D01*
X87108Y139830D01*
X87164Y139905D01*
X87221Y139971D01*
X87258Y140027D01*
X87296Y140064D01*
X87314Y140083D01*
X87324Y140092D01*
X87427Y140177D01*
X87549Y140271D01*
X87689Y140364D01*
X87849Y140467D01*
X88017Y140561D01*
X88195Y140655D01*
X88552Y140842D01*
X88729Y140927D01*
X88889Y141002D01*
X89039Y141077D01*
X89179Y141133D01*
X89283Y141189D01*
X89367Y141227D01*
X89423Y141245D01*
X89432Y141255D01*
X89442D01*
X89639Y141339D01*
X89817Y141423D01*
X89976Y141498D01*
X90126Y141573D01*
X90257Y141639D01*
X90370Y141705D01*
X90473Y141761D01*
X90557Y141808D01*
X90632Y141854D01*
X90698Y141892D01*
X90754Y141930D01*
X90792Y141958D01*
X90820Y141976D01*
X90838Y141995D01*
X90857Y142004D01*
X90960Y142108D01*
X91045Y142229D01*
X91101Y142342D01*
X91138Y142445D01*
X91157Y142548D01*
X91166Y142623D01*
X91176Y142670D01*
Y142689D01*
X91157Y142848D01*
X91120Y142989D01*
X91063Y143110D01*
X90998Y143223D01*
X90941Y143307D01*
X90885Y143364D01*
X90848Y143410D01*
X90829Y143420D01*
X90754Y143467D01*
X90679Y143513D01*
X90501Y143588D01*
X90304Y143635D01*
X90117Y143673D01*
X89939Y143692D01*
X89864Y143701D01*
X89789Y143710D01*
X89508D01*
X89367Y143692D01*
X89236Y143673D01*
X89104Y143654D01*
X88992Y143626D01*
X88889Y143588D01*
X88805Y143560D01*
X88720Y143523D01*
X88645Y143485D01*
X88580Y143457D01*
X88523Y143420D01*
X88476Y143392D01*
X88448Y143373D01*
X88420Y143354D01*
X88401Y143335D01*
X88251Y143185D01*
X88139Y143017D01*
X88055Y142839D01*
X87989Y142670D01*
X87942Y142520D01*
X87923Y142454D01*
X87914Y142398D01*
X87905Y142351D01*
X87895Y142314D01*
Y142295D01*
Y142286D01*
X86002Y142370D01*
X86030Y142614D01*
X86077Y142839D01*
X86133Y143054D01*
X86199Y143251D01*
X86283Y143439D01*
X86368Y143617D01*
X86452Y143776D01*
X86546Y143917D01*
X86639Y144048D01*
X86724Y144160D01*
X86808Y144254D01*
X86874Y144338D01*
X86939Y144395D01*
X86986Y144441D01*
X87014Y144469D01*
X87024Y144479D01*
X87202Y144619D01*
X87399Y144741D01*
X87614Y144844D01*
X87820Y144938D01*
X88045Y145013D01*
X88261Y145079D01*
X88476Y145135D01*
X88683Y145172D01*
X88879Y145210D01*
X89058Y145238D01*
X89226Y145247D01*
X89367Y145266D01*
X89489D01*
X89573Y145275D01*
X89648D01*
X89948Y145266D01*
D02*
G37*
G36*
X117215Y143410D02*
X115340D01*
X114984Y145107D01*
X116868D01*
X117215Y143410D01*
D02*
G37*
G36*
X110167Y142614D02*
X110373Y142576D01*
X110579Y142529D01*
X110776Y142464D01*
X110963Y142389D01*
X111142Y142304D01*
X111310Y142211D01*
X111470Y142117D01*
X111620Y142023D01*
X111741Y141930D01*
X111863Y141845D01*
X111957Y141770D01*
X112032Y141705D01*
X112088Y141658D01*
X112126Y141620D01*
X112135Y141611D01*
X111966Y142464D01*
X113728D01*
X115181Y135500D01*
X113307D01*
X112641Y138696D01*
X112613Y138846D01*
X112576Y138977D01*
X112548Y139108D01*
X112529Y139211D01*
X112501Y139314D01*
X112482Y139399D01*
X112463Y139474D01*
X112444Y139539D01*
X112426Y139596D01*
X112416Y139643D01*
X112397Y139718D01*
X112379Y139755D01*
Y139764D01*
X112313Y139943D01*
X112238Y140111D01*
X112163Y140252D01*
X112098Y140364D01*
X112041Y140458D01*
X111994Y140533D01*
X111966Y140570D01*
X111957Y140589D01*
X111863Y140702D01*
X111760Y140805D01*
X111666Y140889D01*
X111582Y140964D01*
X111498Y141020D01*
X111441Y141058D01*
X111404Y141086D01*
X111385Y141095D01*
X111263Y141161D01*
X111151Y141208D01*
X111039Y141236D01*
X110945Y141264D01*
X110860Y141273D01*
X110804Y141283D01*
X110748D01*
X110635Y141273D01*
X110532Y141255D01*
X110439Y141227D01*
X110364Y141198D01*
X110307Y141161D01*
X110270Y141133D01*
X110242Y141114D01*
X110232Y141105D01*
X110167Y141030D01*
X110120Y140955D01*
X110092Y140880D01*
X110064Y140805D01*
X110054Y140749D01*
X110045Y140692D01*
Y140655D01*
Y140645D01*
Y140599D01*
X110054Y140542D01*
X110064Y140411D01*
X110092Y140252D01*
X110120Y140092D01*
X110148Y139952D01*
X110157Y139886D01*
X110167Y139821D01*
X110176Y139774D01*
X110186Y139736D01*
X110195Y139718D01*
Y139708D01*
X111067Y135500D01*
X109192D01*
X108536Y138649D01*
X108480Y138893D01*
X108424Y139118D01*
X108367Y139324D01*
X108311Y139521D01*
X108255Y139689D01*
X108189Y139839D01*
X108133Y139980D01*
X108086Y140102D01*
X108030Y140205D01*
X107983Y140299D01*
X107945Y140374D01*
X107908Y140430D01*
X107880Y140477D01*
X107861Y140505D01*
X107842Y140524D01*
Y140533D01*
X107739Y140664D01*
X107627Y140777D01*
X107524Y140880D01*
X107411Y140964D01*
X107308Y141039D01*
X107205Y141105D01*
X107102Y141152D01*
X107008Y141189D01*
X106840Y141245D01*
X106765Y141264D01*
X106708Y141273D01*
X106652Y141283D01*
X106587D01*
X106465Y141273D01*
X106352Y141255D01*
X106268Y141227D01*
X106193Y141198D01*
X106137Y141161D01*
X106090Y141133D01*
X106071Y141114D01*
X106062Y141105D01*
X106005Y141039D01*
X105958Y140964D01*
X105930Y140889D01*
X105902Y140814D01*
X105893Y140749D01*
X105884Y140692D01*
Y140655D01*
Y140645D01*
Y140617D01*
X105893Y140580D01*
X105902Y140524D01*
X105912Y140458D01*
X105940Y140317D01*
X105968Y140158D01*
X105996Y140008D01*
X106015Y139933D01*
X106024Y139867D01*
X106033Y139821D01*
X106043Y139783D01*
X106052Y139755D01*
Y139746D01*
X106952Y135500D01*
X105077D01*
X104168Y139746D01*
X104131Y139905D01*
X104103Y140055D01*
X104084Y140186D01*
X104056Y140308D01*
X104037Y140421D01*
X104028Y140524D01*
X104009Y140617D01*
X104000Y140692D01*
X103990Y140767D01*
X103981Y140823D01*
Y140870D01*
X103972Y140917D01*
Y140964D01*
Y140983D01*
X103981Y141114D01*
X103990Y141245D01*
X104046Y141480D01*
X104122Y141686D01*
X104206Y141854D01*
X104290Y141995D01*
X104328Y142042D01*
X104365Y142089D01*
X104393Y142126D01*
X104421Y142154D01*
X104431Y142164D01*
X104440Y142173D01*
X104534Y142248D01*
X104628Y142323D01*
X104843Y142436D01*
X105059Y142511D01*
X105265Y142567D01*
X105452Y142604D01*
X105537Y142614D01*
X105602D01*
X105659Y142623D01*
X105743D01*
X106015Y142604D01*
X106268Y142567D01*
X106511Y142511D01*
X106718Y142445D01*
X106811Y142408D01*
X106896Y142379D01*
X106971Y142351D01*
X107027Y142323D01*
X107083Y142304D01*
X107121Y142286D01*
X107140Y142267D01*
X107149D01*
X107383Y142126D01*
X107599Y141976D01*
X107777Y141836D01*
X107917Y141695D01*
X108039Y141573D01*
X108124Y141470D01*
X108152Y141433D01*
X108170Y141414D01*
X108189Y141395D01*
Y141386D01*
X108245Y141592D01*
X108330Y141770D01*
X108414Y141930D01*
X108508Y142061D01*
X108602Y142164D01*
X108677Y142239D01*
X108723Y142276D01*
X108733Y142295D01*
X108742D01*
X108911Y142408D01*
X109108Y142483D01*
X109314Y142539D01*
X109501Y142586D01*
X109679Y142604D01*
X109754Y142614D01*
X109820D01*
X109876Y142623D01*
X109951D01*
X110167Y142614D01*
D02*
G37*
G36*
X99454Y142604D02*
X99801Y142557D01*
X100119Y142483D01*
X100419Y142389D01*
X100691Y142276D01*
X100944Y142145D01*
X101179Y142014D01*
X101385Y141873D01*
X101563Y141733D01*
X101722Y141592D01*
X101863Y141461D01*
X101975Y141348D01*
X102059Y141255D01*
X102125Y141180D01*
X102163Y141133D01*
X102172Y141114D01*
X102313Y140899D01*
X102434Y140683D01*
X102537Y140467D01*
X102631Y140242D01*
X102706Y140027D01*
X102762Y139821D01*
X102819Y139614D01*
X102856Y139427D01*
X102894Y139249D01*
X102922Y139080D01*
X102931Y138940D01*
X102950Y138818D01*
Y138715D01*
X102959Y138640D01*
Y138593D01*
Y138574D01*
X102950Y138312D01*
X102922Y138049D01*
X102875Y137815D01*
X102819Y137590D01*
X102753Y137384D01*
X102688Y137187D01*
X102603Y137009D01*
X102519Y136849D01*
X102444Y136709D01*
X102359Y136578D01*
X102294Y136475D01*
X102219Y136381D01*
X102172Y136315D01*
X102125Y136259D01*
X102097Y136231D01*
X102088Y136222D01*
X101919Y136062D01*
X101732Y135931D01*
X101553Y135809D01*
X101357Y135716D01*
X101169Y135631D01*
X100972Y135556D01*
X100794Y135500D01*
X100616Y135453D01*
X100447Y135415D01*
X100288Y135387D01*
X100157Y135369D01*
X100035Y135359D01*
X99932Y135350D01*
X99866Y135340D01*
X99801D01*
X99613Y135350D01*
X99426Y135359D01*
X99079Y135415D01*
X98920Y135462D01*
X98770Y135500D01*
X98629Y135547D01*
X98498Y135594D01*
X98376Y135640D01*
X98273Y135687D01*
X98179Y135734D01*
X98095Y135772D01*
X98039Y135800D01*
X97992Y135828D01*
X97964Y135837D01*
X97954Y135847D01*
X97804Y135950D01*
X97664Y136053D01*
X97401Y136297D01*
X97176Y136550D01*
X97073Y136671D01*
X96980Y136793D01*
X96905Y136915D01*
X96830Y137018D01*
X96773Y137112D01*
X96727Y137196D01*
X96680Y137271D01*
X96651Y137318D01*
X96642Y137356D01*
X96633Y137365D01*
X98320Y137646D01*
X98423Y137478D01*
X98535Y137327D01*
X98648Y137196D01*
X98770Y137084D01*
X98892Y137000D01*
X99013Y136915D01*
X99135Y136849D01*
X99248Y136803D01*
X99360Y136765D01*
X99463Y136728D01*
X99557Y136709D01*
X99632Y136700D01*
X99698Y136690D01*
X99754Y136681D01*
X99791D01*
X99894Y136690D01*
X99998Y136700D01*
X100176Y136746D01*
X100344Y136812D01*
X100485Y136896D01*
X100597Y136971D01*
X100682Y137037D01*
X100738Y137084D01*
X100747Y137103D01*
X100757D01*
X100888Y137271D01*
X100982Y137459D01*
X101057Y137637D01*
X101103Y137815D01*
X101132Y137974D01*
X101141Y138040D01*
Y138105D01*
X101150Y138152D01*
Y138190D01*
Y138209D01*
Y138218D01*
Y138274D01*
X101141Y138330D01*
Y138377D01*
Y138396D01*
X96427D01*
X96380Y138602D01*
X96352Y138818D01*
X96323Y139024D01*
X96314Y139211D01*
X96305Y139371D01*
X96295Y139446D01*
Y139502D01*
Y139549D01*
Y139586D01*
Y139605D01*
Y139614D01*
X96305Y139877D01*
X96323Y140121D01*
X96361Y140345D01*
X96417Y140561D01*
X96473Y140758D01*
X96539Y140945D01*
X96605Y141105D01*
X96670Y141255D01*
X96745Y141386D01*
X96811Y141498D01*
X96876Y141601D01*
X96933Y141686D01*
X96980Y141742D01*
X97017Y141789D01*
X97045Y141817D01*
X97055Y141826D01*
X97205Y141967D01*
X97354Y142089D01*
X97523Y142192D01*
X97692Y142286D01*
X97861Y142361D01*
X98029Y142426D01*
X98189Y142483D01*
X98348Y142520D01*
X98507Y142557D01*
X98638Y142586D01*
X98770Y142595D01*
X98873Y142614D01*
X98967D01*
X99032Y142623D01*
X99088D01*
X99454Y142604D01*
D02*
G37*
G36*
X127000Y135500D02*
X120130D01*
X119792Y137103D01*
X124694D01*
X123026Y145107D01*
X124994D01*
X127000Y135500D01*
D02*
G37*
G36*
X118865D02*
X116990D01*
X115537Y142464D01*
X117412D01*
X118865Y135500D01*
D02*
G37*
G36*
X39597Y132651D02*
X39878Y132398D01*
X40178Y132163D01*
X40487Y131929D01*
X40796Y131713D01*
X41106Y131507D01*
X41415Y131320D01*
X41715Y131142D01*
X41996Y130992D01*
X42259Y130851D01*
X42493Y130729D01*
X42690Y130626D01*
X42783Y130579D01*
X42858Y130542D01*
X42924Y130514D01*
X42990Y130486D01*
X43027Y130467D01*
X43065Y130448D01*
X43083Y130439D01*
X43093D01*
X43449Y128761D01*
X43215Y128817D01*
X42980Y128883D01*
X42755Y128958D01*
X42540Y129024D01*
X42446Y129061D01*
X42352Y129098D01*
X42277Y129127D01*
X42212Y129155D01*
X42155Y129173D01*
X42118Y129192D01*
X42090Y129201D01*
X42080D01*
X41799Y129323D01*
X41546Y129445D01*
X41312Y129558D01*
X41115Y129670D01*
X41021Y129717D01*
X40946Y129764D01*
X40881Y129801D01*
X40825Y129830D01*
X40778Y129858D01*
X40750Y129876D01*
X40731Y129895D01*
X40722D01*
X42109Y123250D01*
X40215D01*
X38200Y132913D01*
X39334D01*
X39597Y132651D01*
D02*
G37*
G36*
X50113Y123250D02*
X48491D01*
X44208Y130214D01*
X46242D01*
X47976Y127271D01*
X47995Y127233D01*
X48023Y127186D01*
X48051Y127130D01*
X48088Y127065D01*
X48163Y126915D01*
X48248Y126765D01*
X48332Y126615D01*
X48369Y126549D01*
X48398Y126493D01*
X48426Y126437D01*
X48444Y126399D01*
X48454Y126380D01*
X48463Y126371D01*
X48529Y126240D01*
X48594Y126127D01*
X48651Y126024D01*
X48698Y125931D01*
X48744Y125856D01*
X48782Y125790D01*
X48810Y125724D01*
X48838Y125677D01*
X48885Y125612D01*
X48904Y125565D01*
X48923Y125546D01*
Y125537D01*
X48932Y125621D01*
X48951Y125724D01*
X48960Y125837D01*
X48979Y125959D01*
X49016Y126230D01*
X49063Y126502D01*
X49082Y126634D01*
X49101Y126755D01*
X49119Y126868D01*
X49138Y126971D01*
X49148Y127055D01*
X49157Y127112D01*
X49166Y127158D01*
Y127168D01*
X49654Y130214D01*
X51500D01*
X50113Y123250D01*
D02*
G37*
G36*
X37001D02*
X35135D01*
X34751Y125068D01*
X36616D01*
X37001Y123250D01*
D02*
G37*
G36*
X29071Y132894D02*
X29278Y132866D01*
X29474Y132819D01*
X29671Y132763D01*
X29849Y132697D01*
X30027Y132622D01*
X30187Y132538D01*
X30337Y132463D01*
X30477Y132379D01*
X30599Y132295D01*
X30702Y132219D01*
X30786Y132154D01*
X30861Y132098D01*
X30908Y132051D01*
X30946Y132023D01*
X30955Y132013D01*
X31124Y131835D01*
X31293Y131648D01*
X31452Y131442D01*
X31593Y131217D01*
X31733Y131001D01*
X31864Y130776D01*
X31977Y130551D01*
X32080Y130336D01*
X32174Y130129D01*
X32258Y129933D01*
X32333Y129764D01*
X32389Y129614D01*
X32436Y129492D01*
X32474Y129398D01*
X32483Y129361D01*
X32492Y129333D01*
X32502Y129323D01*
Y129314D01*
X32586Y129033D01*
X32661Y128761D01*
X32727Y128489D01*
X32783Y128227D01*
X32830Y127974D01*
X32867Y127730D01*
X32905Y127505D01*
X32924Y127289D01*
X32952Y127093D01*
X32961Y126915D01*
X32970Y126765D01*
X32980Y126634D01*
X32989Y126521D01*
Y126446D01*
Y126399D01*
Y126380D01*
X32980Y126090D01*
X32961Y125818D01*
X32924Y125556D01*
X32867Y125321D01*
X32811Y125106D01*
X32755Y124900D01*
X32680Y124721D01*
X32614Y124553D01*
X32549Y124412D01*
X32474Y124290D01*
X32417Y124178D01*
X32352Y124094D01*
X32305Y124018D01*
X32267Y123972D01*
X32249Y123944D01*
X32239Y123934D01*
X32089Y123784D01*
X31939Y123653D01*
X31780Y123540D01*
X31621Y123447D01*
X31452Y123362D01*
X31293Y123297D01*
X31143Y123241D01*
X30993Y123194D01*
X30852Y123166D01*
X30721Y123138D01*
X30599Y123119D01*
X30505Y123100D01*
X30421D01*
X30355Y123091D01*
X30308D01*
X30093Y123100D01*
X29887Y123128D01*
X29681Y123175D01*
X29493Y123231D01*
X29306Y123297D01*
X29137Y123362D01*
X28978Y123447D01*
X28828Y123531D01*
X28696Y123606D01*
X28575Y123691D01*
X28472Y123756D01*
X28378Y123831D01*
X28312Y123878D01*
X28256Y123925D01*
X28228Y123953D01*
X28218Y123962D01*
X28050Y124131D01*
X27881Y124318D01*
X27731Y124515D01*
X27590Y124721D01*
X27459Y124928D01*
X27337Y125143D01*
X27225Y125349D01*
X27122Y125546D01*
X27037Y125734D01*
X26962Y125912D01*
X26888Y126071D01*
X26841Y126202D01*
X26794Y126315D01*
X26766Y126399D01*
X26747Y126455D01*
X26738Y126474D01*
X26644Y126783D01*
X26550Y127083D01*
X26484Y127374D01*
X26419Y127655D01*
X26363Y127927D01*
X26316Y128189D01*
X26278Y128433D01*
X26250Y128658D01*
X26231Y128855D01*
X26213Y129042D01*
X26203Y129201D01*
X26194Y129342D01*
X26185Y129445D01*
Y129530D01*
Y129576D01*
Y129595D01*
X26194Y129886D01*
X26213Y130167D01*
X26250Y130420D01*
X26306Y130664D01*
X26363Y130879D01*
X26428Y131085D01*
X26494Y131264D01*
X26560Y131432D01*
X26635Y131573D01*
X26700Y131695D01*
X26766Y131807D01*
X26822Y131891D01*
X26869Y131966D01*
X26906Y132013D01*
X26934Y132041D01*
X26944Y132051D01*
X27084Y132201D01*
X27244Y132332D01*
X27403Y132444D01*
X27562Y132548D01*
X27722Y132622D01*
X27881Y132697D01*
X28031Y132754D01*
X28181Y132801D01*
X28321Y132829D01*
X28453Y132857D01*
X28565Y132876D01*
X28659Y132894D01*
X28743D01*
X28800Y132904D01*
X28856D01*
X29071Y132894D01*
D02*
G37*
G36*
X48428Y143410D02*
X46554D01*
X46198Y145107D01*
X48081D01*
X48428Y143410D01*
D02*
G37*
G36*
X61259Y135500D02*
X59469D01*
X57951Y143523D01*
X57595Y135500D01*
X55720D01*
X52159Y143467D01*
X53818Y135500D01*
X52027D01*
X50284Y145107D01*
X53115D01*
X56133Y138499D01*
X56432Y145107D01*
X59254D01*
X61259Y135500D01*
D02*
G37*
G36*
X42308Y142614D02*
X42514Y142595D01*
X42711Y142567D01*
X42908Y142529D01*
X43086Y142492D01*
X43264Y142436D01*
X43423Y142389D01*
X43573Y142332D01*
X43705Y142276D01*
X43826Y142229D01*
X43939Y142173D01*
X44023Y142136D01*
X44098Y142098D01*
X44145Y142070D01*
X44183Y142051D01*
X44192Y142042D01*
X44361Y141930D01*
X44520Y141808D01*
X44670Y141676D01*
X44811Y141545D01*
X44942Y141414D01*
X45054Y141283D01*
X45157Y141152D01*
X45251Y141030D01*
X45335Y140908D01*
X45410Y140795D01*
X45466Y140702D01*
X45523Y140617D01*
X45560Y140542D01*
X45588Y140496D01*
X45598Y140458D01*
X45607Y140449D01*
X45691Y140261D01*
X45757Y140074D01*
X45823Y139877D01*
X45879Y139689D01*
X45963Y139333D01*
X45991Y139165D01*
X46020Y139005D01*
X46038Y138855D01*
X46048Y138724D01*
X46057Y138602D01*
X46066Y138509D01*
X46076Y138424D01*
Y138358D01*
Y138321D01*
Y138312D01*
X46066Y138059D01*
X46038Y137824D01*
X46001Y137599D01*
X45954Y137384D01*
X45898Y137187D01*
X45832Y137009D01*
X45757Y136849D01*
X45682Y136700D01*
X45616Y136568D01*
X45542Y136456D01*
X45476Y136353D01*
X45420Y136278D01*
X45373Y136212D01*
X45335Y136165D01*
X45307Y136137D01*
X45298Y136128D01*
X45148Y135987D01*
X44979Y135865D01*
X44811Y135762D01*
X44642Y135669D01*
X44464Y135594D01*
X44286Y135537D01*
X44117Y135481D01*
X43948Y135444D01*
X43798Y135406D01*
X43648Y135378D01*
X43517Y135369D01*
X43405Y135350D01*
X43320D01*
X43245Y135340D01*
X43189D01*
X42973Y135350D01*
X42767Y135369D01*
X42570Y135397D01*
X42383Y135444D01*
X42196Y135491D01*
X42027Y135537D01*
X41877Y135594D01*
X41727Y135659D01*
X41605Y135716D01*
X41483Y135772D01*
X41389Y135819D01*
X41305Y135875D01*
X41230Y135912D01*
X41183Y135940D01*
X41155Y135959D01*
X41146Y135969D01*
X40986Y136090D01*
X40837Y136231D01*
X40686Y136381D01*
X40555Y136531D01*
X40433Y136681D01*
X40330Y136840D01*
X40227Y136990D01*
X40134Y137140D01*
X40058Y137271D01*
X39984Y137402D01*
X39927Y137524D01*
X39880Y137627D01*
X39843Y137712D01*
X39815Y137768D01*
X39806Y137815D01*
X39796Y137824D01*
X41624Y138124D01*
X41718Y137890D01*
X41830Y137693D01*
X41942Y137524D01*
X42045Y137384D01*
X42139Y137281D01*
X42224Y137206D01*
X42270Y137159D01*
X42280Y137140D01*
X42289D01*
X42449Y137028D01*
X42599Y136953D01*
X42748Y136896D01*
X42880Y136849D01*
X42992Y136831D01*
X43086Y136821D01*
X43142Y136812D01*
X43161D01*
X43320Y136831D01*
X43470Y136868D01*
X43592Y136915D01*
X43705Y136981D01*
X43789Y137037D01*
X43854Y137093D01*
X43892Y137131D01*
X43911Y137140D01*
X44014Y137281D01*
X44079Y137431D01*
X44136Y137590D01*
X44173Y137749D01*
X44192Y137880D01*
X44201Y137993D01*
X44211Y138040D01*
Y138068D01*
Y138087D01*
Y138096D01*
X44201Y138358D01*
X44173Y138630D01*
X44136Y138883D01*
X44089Y139118D01*
X44070Y139221D01*
X44042Y139314D01*
X44023Y139399D01*
X44004Y139465D01*
X43986Y139530D01*
X43976Y139568D01*
X43967Y139596D01*
Y139605D01*
X43920Y139755D01*
X43864Y139896D01*
X43808Y140017D01*
X43751Y140139D01*
X43686Y140252D01*
X43629Y140345D01*
X43564Y140439D01*
X43508Y140524D01*
X43461Y140589D01*
X43405Y140655D01*
X43358Y140702D01*
X43320Y140749D01*
X43292Y140777D01*
X43264Y140805D01*
X43255Y140823D01*
X43245D01*
X43151Y140899D01*
X43067Y140964D01*
X42880Y141058D01*
X42711Y141133D01*
X42552Y141189D01*
X42420Y141217D01*
X42317Y141227D01*
X42280Y141236D01*
X42224D01*
X42055Y141227D01*
X41905Y141189D01*
X41774Y141152D01*
X41671Y141095D01*
X41577Y141048D01*
X41521Y141002D01*
X41474Y140964D01*
X41464Y140955D01*
X41361Y140842D01*
X41277Y140711D01*
X41221Y140561D01*
X41164Y140430D01*
X41136Y140299D01*
X41118Y140196D01*
X41108Y140158D01*
X41099Y140130D01*
Y140111D01*
Y140102D01*
X39309Y140289D01*
X39337Y140486D01*
X39374Y140664D01*
X39421Y140833D01*
X39477Y140992D01*
X39543Y141142D01*
X39618Y141283D01*
X39684Y141414D01*
X39759Y141526D01*
X39834Y141630D01*
X39899Y141723D01*
X39965Y141798D01*
X40021Y141864D01*
X40077Y141911D01*
X40115Y141948D01*
X40134Y141967D01*
X40143Y141976D01*
X40283Y142089D01*
X40433Y142192D01*
X40593Y142276D01*
X40761Y142351D01*
X40921Y142417D01*
X41080Y142464D01*
X41240Y142511D01*
X41399Y142539D01*
X41539Y142567D01*
X41671Y142586D01*
X41792Y142604D01*
X41896Y142614D01*
X41980Y142623D01*
X42102D01*
X42308Y142614D01*
D02*
G37*
G36*
X50078Y135500D02*
X48203D01*
X46751Y142464D01*
X48625D01*
X50078Y135500D01*
D02*
G37*
G36*
X34144Y142604D02*
X34351Y142557D01*
X34548Y142483D01*
X34744Y142389D01*
X34932Y142276D01*
X35100Y142145D01*
X35269Y142014D01*
X35419Y141873D01*
X35560Y141733D01*
X35682Y141592D01*
X35794Y141461D01*
X35888Y141348D01*
X35953Y141255D01*
X36010Y141180D01*
X36047Y141133D01*
X36056Y141114D01*
X35785Y142464D01*
X37537D01*
X38990Y135500D01*
X37115D01*
X36656Y137674D01*
X36609Y137918D01*
X36553Y138143D01*
X36506Y138349D01*
X36460Y138537D01*
X36403Y138715D01*
X36366Y138874D01*
X36319Y139015D01*
X36281Y139146D01*
X36244Y139258D01*
X36206Y139352D01*
X36178Y139436D01*
X36150Y139502D01*
X36131Y139549D01*
X36113Y139586D01*
X36103Y139605D01*
Y139614D01*
X35991Y139830D01*
X35860Y140027D01*
X35738Y140196D01*
X35607Y140336D01*
X35494Y140449D01*
X35410Y140533D01*
X35372Y140561D01*
X35344Y140580D01*
X35335Y140599D01*
X35325D01*
X35138Y140720D01*
X34960Y140814D01*
X34791Y140880D01*
X34641Y140927D01*
X34510Y140955D01*
X34416Y140964D01*
X34379Y140974D01*
X34332D01*
X34126Y140955D01*
X34032Y140945D01*
X33948Y140927D01*
X33873Y140908D01*
X33826Y140899D01*
X33788Y140880D01*
X33779D01*
X33057Y142417D01*
X33226Y142483D01*
X33395Y142539D01*
X33535Y142576D01*
X33666Y142595D01*
X33779Y142614D01*
X33854Y142623D01*
X33929D01*
X34144Y142604D01*
D02*
G37*
G36*
X29758Y142614D02*
X30067Y142576D01*
X30358Y142520D01*
X30630Y142445D01*
X30883Y142361D01*
X31117Y142257D01*
X31333Y142154D01*
X31530Y142051D01*
X31708Y141939D01*
X31858Y141836D01*
X31989Y141742D01*
X32101Y141648D01*
X32186Y141573D01*
X32251Y141517D01*
X32289Y141480D01*
X32298Y141470D01*
X32485Y141245D01*
X32654Y141011D01*
X32804Y140758D01*
X32926Y140505D01*
X33029Y140242D01*
X33123Y139989D01*
X33188Y139736D01*
X33245Y139493D01*
X33291Y139268D01*
X33329Y139061D01*
X33348Y138874D01*
X33366Y138705D01*
X33376Y138574D01*
X33385Y138471D01*
Y138434D01*
Y138405D01*
Y138396D01*
Y138387D01*
X33366Y138087D01*
X33329Y137796D01*
X33273Y137534D01*
X33235Y137412D01*
X33198Y137309D01*
X33170Y137206D01*
X33132Y137112D01*
X33104Y137037D01*
X33076Y136962D01*
X33057Y136915D01*
X33038Y136878D01*
X33020Y136849D01*
Y136840D01*
X32860Y136587D01*
X32682Y136362D01*
X32495Y136175D01*
X32307Y136015D01*
X32148Y135884D01*
X32073Y135837D01*
X32008Y135800D01*
X31961Y135762D01*
X31923Y135744D01*
X31895Y135734D01*
X31886Y135725D01*
X31595Y135594D01*
X31295Y135500D01*
X31005Y135434D01*
X30733Y135387D01*
X30602Y135369D01*
X30489Y135359D01*
X30395Y135350D01*
X30311D01*
X30236Y135340D01*
X30142D01*
X29814Y135359D01*
X29496Y135397D01*
X29196Y135453D01*
X28924Y135537D01*
X28661Y135622D01*
X28427Y135725D01*
X28212Y135837D01*
X28015Y135959D01*
X27837Y136072D01*
X27687Y136184D01*
X27555Y136287D01*
X27443Y136381D01*
X27359Y136456D01*
X27293Y136512D01*
X27256Y136559D01*
X27246Y136568D01*
X27059Y136803D01*
X26890Y137046D01*
X26740Y137290D01*
X26618Y137543D01*
X26515Y137787D01*
X26421Y138031D01*
X26356Y138265D01*
X26290Y138490D01*
X26253Y138696D01*
X26215Y138893D01*
X26196Y139061D01*
X26178Y139211D01*
X26168Y139324D01*
X26159Y139418D01*
Y139474D01*
Y139493D01*
X26168Y139755D01*
X26196Y139999D01*
X26243Y140233D01*
X26290Y140458D01*
X26365Y140655D01*
X26431Y140842D01*
X26515Y141011D01*
X26590Y141170D01*
X26674Y141311D01*
X26759Y141423D01*
X26824Y141526D01*
X26890Y141620D01*
X26946Y141686D01*
X26993Y141733D01*
X27021Y141761D01*
X27031Y141770D01*
X27199Y141920D01*
X27377Y142051D01*
X27574Y142164D01*
X27771Y142267D01*
X27968Y142342D01*
X28165Y142417D01*
X28361Y142473D01*
X28549Y142520D01*
X28736Y142548D01*
X28896Y142576D01*
X29046Y142595D01*
X29177Y142614D01*
X29280D01*
X29364Y142623D01*
X29430D01*
X29758Y142614D01*
D02*
G37*
G36*
X91827Y132894D02*
X92042Y132876D01*
X92248Y132838D01*
X92436Y132791D01*
X92623Y132735D01*
X92792Y132679D01*
X92942Y132613D01*
X93083Y132548D01*
X93214Y132482D01*
X93326Y132416D01*
X93420Y132360D01*
X93495Y132304D01*
X93561Y132257D01*
X93608Y132219D01*
X93636Y132201D01*
X93645Y132191D01*
X93795Y132051D01*
X93926Y131901D01*
X94039Y131742D01*
X94151Y131573D01*
X94245Y131404D01*
X94329Y131235D01*
X94404Y131067D01*
X94470Y130907D01*
X94517Y130748D01*
X94564Y130607D01*
X94601Y130476D01*
X94629Y130364D01*
X94648Y130279D01*
X94667Y130204D01*
X94676Y130167D01*
Y130148D01*
X92839Y129876D01*
X92801Y130036D01*
X92773Y130186D01*
X92726Y130317D01*
X92689Y130439D01*
X92652Y130551D01*
X92605Y130645D01*
X92567Y130739D01*
X92530Y130814D01*
X92492Y130889D01*
X92455Y130945D01*
X92427Y130992D01*
X92398Y131029D01*
X92361Y131076D01*
X92342Y131095D01*
X92211Y131207D01*
X92080Y131292D01*
X91948Y131348D01*
X91817Y131395D01*
X91714Y131413D01*
X91630Y131423D01*
X91574Y131432D01*
X91555D01*
X91396Y131423D01*
X91255Y131385D01*
X91133Y131339D01*
X91030Y131282D01*
X90946Y131217D01*
X90880Y131170D01*
X90843Y131132D01*
X90833Y131123D01*
X90739Y131001D01*
X90665Y130870D01*
X90618Y130739D01*
X90580Y130617D01*
X90561Y130504D01*
X90543Y130420D01*
Y130382D01*
Y130354D01*
Y130345D01*
Y130336D01*
X90552Y130223D01*
X90571Y130101D01*
X90599Y129989D01*
X90627Y129886D01*
X90665Y129792D01*
X90693Y129726D01*
X90711Y129679D01*
X90721Y129661D01*
X90796Y129520D01*
X90889Y129361D01*
X90992Y129220D01*
X91096Y129080D01*
X91199Y128958D01*
X91274Y128864D01*
X91302Y128827D01*
X91330Y128799D01*
X91339Y128789D01*
X91349Y128780D01*
X91405Y128723D01*
X91470Y128649D01*
X91555Y128564D01*
X91649Y128470D01*
X91845Y128274D01*
X92052Y128068D01*
X92248Y127871D01*
X92333Y127786D01*
X92408Y127711D01*
X92473Y127646D01*
X92520Y127599D01*
X92558Y127571D01*
X92567Y127561D01*
X92801Y127336D01*
X93017Y127130D01*
X93214Y126943D01*
X93392Y126765D01*
X93551Y126605D01*
X93701Y126455D01*
X93832Y126324D01*
X93945Y126212D01*
X94039Y126109D01*
X94123Y126024D01*
X94198Y125949D01*
X94254Y125884D01*
X94292Y125837D01*
X94320Y125809D01*
X94339Y125790D01*
X94348Y125780D01*
X94526Y125574D01*
X94676Y125368D01*
X94817Y125162D01*
X94938Y124984D01*
X95032Y124824D01*
X95070Y124759D01*
X95107Y124703D01*
X95126Y124656D01*
X95145Y124618D01*
X95163Y124600D01*
Y124590D01*
X95276Y124347D01*
X95360Y124112D01*
X95435Y123887D01*
X95482Y123681D01*
X95501Y123587D01*
X95520Y123503D01*
X95538Y123437D01*
X95548Y123372D01*
X95557Y123316D01*
X95566Y123278D01*
Y123259D01*
Y123250D01*
X89737D01*
X89380Y124965D01*
X92698D01*
X92511Y125199D01*
X92417Y125312D01*
X92333Y125406D01*
X92267Y125481D01*
X92211Y125537D01*
X92174Y125584D01*
X92164Y125593D01*
X92099Y125659D01*
X92033Y125724D01*
X91864Y125893D01*
X91667Y126081D01*
X91470Y126268D01*
X91292Y126437D01*
X91208Y126512D01*
X91143Y126577D01*
X91086Y126634D01*
X91039Y126671D01*
X91011Y126699D01*
X91002Y126708D01*
X90843Y126858D01*
X90693Y126999D01*
X90561Y127130D01*
X90430Y127252D01*
X90318Y127365D01*
X90215Y127468D01*
X90121Y127561D01*
X90036Y127646D01*
X89971Y127721D01*
X89905Y127786D01*
X89849Y127843D01*
X89812Y127889D01*
X89774Y127927D01*
X89755Y127955D01*
X89737Y127964D01*
Y127974D01*
X89549Y128208D01*
X89390Y128424D01*
X89259Y128630D01*
X89156Y128808D01*
X89071Y128958D01*
X89043Y129024D01*
X89015Y129070D01*
X88996Y129117D01*
X88977Y129145D01*
X88968Y129164D01*
Y129173D01*
X88884Y129389D01*
X88827Y129595D01*
X88781Y129792D01*
X88752Y129961D01*
X88734Y130111D01*
Y130167D01*
X88724Y130223D01*
Y130261D01*
Y130289D01*
Y130308D01*
Y130317D01*
X88734Y130523D01*
X88752Y130720D01*
X88799Y130907D01*
X88846Y131085D01*
X88902Y131245D01*
X88968Y131395D01*
X89034Y131535D01*
X89109Y131666D01*
X89184Y131779D01*
X89249Y131882D01*
X89315Y131966D01*
X89371Y132041D01*
X89418Y132098D01*
X89455Y132135D01*
X89483Y132163D01*
X89493Y132173D01*
X89643Y132304D01*
X89802Y132416D01*
X89971Y132510D01*
X90149Y132594D01*
X90318Y132669D01*
X90496Y132726D01*
X90674Y132773D01*
X90833Y132810D01*
X90992Y132838D01*
X91133Y132866D01*
X91264Y132885D01*
X91377Y132894D01*
X91470Y132904D01*
X91602D01*
X91827Y132894D01*
D02*
G37*
G36*
X110759Y123250D02*
X108969D01*
X107451Y131273D01*
X107095Y123250D01*
X105220D01*
X101658Y131217D01*
X103317Y123250D01*
X101527D01*
X99784Y132857D01*
X102615D01*
X105632Y126249D01*
X105933Y132857D01*
X108754D01*
X110759Y123250D01*
D02*
G37*
G36*
X99531D02*
X97666D01*
X97282Y125068D01*
X99147D01*
X99531Y123250D01*
D02*
G37*
G36*
X80510Y132894D02*
X80726Y132876D01*
X80932Y132838D01*
X81119Y132791D01*
X81307Y132735D01*
X81476Y132679D01*
X81626Y132613D01*
X81766Y132548D01*
X81897Y132482D01*
X82010Y132416D01*
X82104Y132360D01*
X82179Y132304D01*
X82244Y132257D01*
X82291Y132219D01*
X82319Y132201D01*
X82329Y132191D01*
X82479Y132051D01*
X82610Y131901D01*
X82722Y131742D01*
X82835Y131573D01*
X82928Y131404D01*
X83013Y131235D01*
X83088Y131067D01*
X83153Y130907D01*
X83200Y130748D01*
X83247Y130607D01*
X83285Y130476D01*
X83313Y130364D01*
X83331Y130279D01*
X83350Y130204D01*
X83360Y130167D01*
Y130148D01*
X81523Y129876D01*
X81485Y130036D01*
X81457Y130186D01*
X81410Y130317D01*
X81373Y130439D01*
X81335Y130551D01*
X81288Y130645D01*
X81251Y130739D01*
X81213Y130814D01*
X81176Y130889D01*
X81138Y130945D01*
X81110Y130992D01*
X81082Y131029D01*
X81045Y131076D01*
X81026Y131095D01*
X80895Y131207D01*
X80763Y131292D01*
X80632Y131348D01*
X80501Y131395D01*
X80398Y131413D01*
X80314Y131423D01*
X80257Y131432D01*
X80239D01*
X80079Y131423D01*
X79939Y131385D01*
X79817Y131339D01*
X79714Y131282D01*
X79629Y131217D01*
X79564Y131170D01*
X79526Y131132D01*
X79517Y131123D01*
X79423Y131001D01*
X79348Y130870D01*
X79301Y130739D01*
X79264Y130617D01*
X79245Y130504D01*
X79226Y130420D01*
Y130382D01*
Y130354D01*
Y130345D01*
Y130336D01*
X79236Y130223D01*
X79254Y130101D01*
X79282Y129989D01*
X79311Y129886D01*
X79348Y129792D01*
X79376Y129726D01*
X79395Y129679D01*
X79404Y129661D01*
X79479Y129520D01*
X79573Y129361D01*
X79676Y129220D01*
X79779Y129080D01*
X79882Y128958D01*
X79957Y128864D01*
X79985Y128827D01*
X80014Y128799D01*
X80023Y128789D01*
X80032Y128780D01*
X80089Y128723D01*
X80154Y128649D01*
X80239Y128564D01*
X80332Y128470D01*
X80529Y128274D01*
X80735Y128068D01*
X80932Y127871D01*
X81016Y127786D01*
X81091Y127711D01*
X81157Y127646D01*
X81204Y127599D01*
X81241Y127571D01*
X81251Y127561D01*
X81485Y127336D01*
X81701Y127130D01*
X81897Y126943D01*
X82076Y126765D01*
X82235Y126605D01*
X82385Y126455D01*
X82516Y126324D01*
X82628Y126212D01*
X82722Y126109D01*
X82807Y126024D01*
X82882Y125949D01*
X82938Y125884D01*
X82975Y125837D01*
X83003Y125809D01*
X83022Y125790D01*
X83032Y125780D01*
X83210Y125574D01*
X83360Y125368D01*
X83500Y125162D01*
X83622Y124984D01*
X83716Y124824D01*
X83753Y124759D01*
X83791Y124703D01*
X83809Y124656D01*
X83828Y124618D01*
X83847Y124600D01*
Y124590D01*
X83959Y124347D01*
X84044Y124112D01*
X84119Y123887D01*
X84166Y123681D01*
X84184Y123587D01*
X84203Y123503D01*
X84222Y123437D01*
X84231Y123372D01*
X84241Y123316D01*
X84250Y123278D01*
Y123259D01*
Y123250D01*
X78420D01*
X78064Y124965D01*
X81382D01*
X81194Y125199D01*
X81101Y125312D01*
X81016Y125406D01*
X80951Y125481D01*
X80895Y125537D01*
X80857Y125584D01*
X80848Y125593D01*
X80782Y125659D01*
X80716Y125724D01*
X80548Y125893D01*
X80351Y126081D01*
X80154Y126268D01*
X79976Y126437D01*
X79892Y126512D01*
X79826Y126577D01*
X79770Y126634D01*
X79723Y126671D01*
X79695Y126699D01*
X79686Y126708D01*
X79526Y126858D01*
X79376Y126999D01*
X79245Y127130D01*
X79114Y127252D01*
X79001Y127365D01*
X78898Y127468D01*
X78804Y127561D01*
X78720Y127646D01*
X78654Y127721D01*
X78589Y127786D01*
X78533Y127843D01*
X78495Y127889D01*
X78458Y127927D01*
X78439Y127955D01*
X78420Y127964D01*
Y127974D01*
X78233Y128208D01*
X78073Y128424D01*
X77942Y128630D01*
X77839Y128808D01*
X77755Y128958D01*
X77727Y129024D01*
X77698Y129070D01*
X77680Y129117D01*
X77661Y129145D01*
X77652Y129164D01*
Y129173D01*
X77567Y129389D01*
X77511Y129595D01*
X77464Y129792D01*
X77436Y129961D01*
X77417Y130111D01*
Y130167D01*
X77408Y130223D01*
Y130261D01*
Y130289D01*
Y130308D01*
Y130317D01*
X77417Y130523D01*
X77436Y130720D01*
X77483Y130907D01*
X77530Y131085D01*
X77586Y131245D01*
X77652Y131395D01*
X77717Y131535D01*
X77792Y131666D01*
X77867Y131779D01*
X77933Y131882D01*
X77998Y131966D01*
X78055Y132041D01*
X78102Y132098D01*
X78139Y132135D01*
X78167Y132163D01*
X78176Y132173D01*
X78327Y132304D01*
X78486Y132416D01*
X78654Y132510D01*
X78833Y132594D01*
X79001Y132669D01*
X79179Y132726D01*
X79358Y132773D01*
X79517Y132810D01*
X79676Y132838D01*
X79817Y132866D01*
X79948Y132885D01*
X80060Y132894D01*
X80154Y132904D01*
X80285D01*
X80510Y132894D01*
D02*
G37*
G36*
X73050D02*
X73265Y132876D01*
X73471Y132838D01*
X73659Y132791D01*
X73846Y132735D01*
X74015Y132679D01*
X74165Y132613D01*
X74306Y132548D01*
X74437Y132482D01*
X74549Y132416D01*
X74643Y132360D01*
X74718Y132304D01*
X74784Y132257D01*
X74830Y132219D01*
X74859Y132201D01*
X74868Y132191D01*
X75018Y132051D01*
X75149Y131901D01*
X75262Y131742D01*
X75374Y131573D01*
X75468Y131404D01*
X75552Y131235D01*
X75627Y131067D01*
X75693Y130907D01*
X75740Y130748D01*
X75786Y130607D01*
X75824Y130476D01*
X75852Y130364D01*
X75871Y130279D01*
X75890Y130204D01*
X75899Y130167D01*
Y130148D01*
X74062Y129876D01*
X74025Y130036D01*
X73996Y130186D01*
X73949Y130317D01*
X73912Y130439D01*
X73875Y130551D01*
X73828Y130645D01*
X73790Y130739D01*
X73753Y130814D01*
X73715Y130889D01*
X73678Y130945D01*
X73650Y130992D01*
X73621Y131029D01*
X73584Y131076D01*
X73565Y131095D01*
X73434Y131207D01*
X73303Y131292D01*
X73172Y131348D01*
X73040Y131395D01*
X72937Y131413D01*
X72853Y131423D01*
X72797Y131432D01*
X72778D01*
X72619Y131423D01*
X72478Y131385D01*
X72356Y131339D01*
X72253Y131282D01*
X72169Y131217D01*
X72103Y131170D01*
X72066Y131132D01*
X72056Y131123D01*
X71962Y131001D01*
X71887Y130870D01*
X71841Y130739D01*
X71803Y130617D01*
X71784Y130504D01*
X71766Y130420D01*
Y130382D01*
Y130354D01*
Y130345D01*
Y130336D01*
X71775Y130223D01*
X71794Y130101D01*
X71822Y129989D01*
X71850Y129886D01*
X71887Y129792D01*
X71916Y129726D01*
X71934Y129679D01*
X71944Y129661D01*
X72019Y129520D01*
X72112Y129361D01*
X72216Y129220D01*
X72319Y129080D01*
X72422Y128958D01*
X72497Y128864D01*
X72525Y128827D01*
X72553Y128799D01*
X72562Y128789D01*
X72572Y128780D01*
X72628Y128723D01*
X72694Y128649D01*
X72778Y128564D01*
X72872Y128470D01*
X73068Y128274D01*
X73275Y128068D01*
X73471Y127871D01*
X73556Y127786D01*
X73631Y127711D01*
X73696Y127646D01*
X73743Y127599D01*
X73781Y127571D01*
X73790Y127561D01*
X74025Y127336D01*
X74240Y127130D01*
X74437Y126943D01*
X74615Y126765D01*
X74774Y126605D01*
X74924Y126455D01*
X75055Y126324D01*
X75168Y126212D01*
X75262Y126109D01*
X75346Y126024D01*
X75421Y125949D01*
X75477Y125884D01*
X75515Y125837D01*
X75543Y125809D01*
X75562Y125790D01*
X75571Y125780D01*
X75749Y125574D01*
X75899Y125368D01*
X76040Y125162D01*
X76161Y124984D01*
X76255Y124824D01*
X76293Y124759D01*
X76330Y124703D01*
X76349Y124656D01*
X76368Y124618D01*
X76386Y124600D01*
Y124590D01*
X76499Y124347D01*
X76583Y124112D01*
X76658Y123887D01*
X76705Y123681D01*
X76724Y123587D01*
X76743Y123503D01*
X76761Y123437D01*
X76771Y123372D01*
X76780Y123316D01*
X76789Y123278D01*
Y123259D01*
Y123250D01*
X70960D01*
X70603Y124965D01*
X73921D01*
X73734Y125199D01*
X73640Y125312D01*
X73556Y125406D01*
X73490Y125481D01*
X73434Y125537D01*
X73397Y125584D01*
X73387Y125593D01*
X73321Y125659D01*
X73256Y125724D01*
X73087Y125893D01*
X72890Y126081D01*
X72694Y126268D01*
X72516Y126437D01*
X72431Y126512D01*
X72365Y126577D01*
X72309Y126634D01*
X72262Y126671D01*
X72234Y126699D01*
X72225Y126708D01*
X72066Y126858D01*
X71916Y126999D01*
X71784Y127130D01*
X71653Y127252D01*
X71541Y127365D01*
X71438Y127468D01*
X71344Y127561D01*
X71259Y127646D01*
X71194Y127721D01*
X71128Y127786D01*
X71072Y127843D01*
X71035Y127889D01*
X70997Y127927D01*
X70978Y127955D01*
X70960Y127964D01*
Y127974D01*
X70772Y128208D01*
X70613Y128424D01*
X70482Y128630D01*
X70378Y128808D01*
X70294Y128958D01*
X70266Y129024D01*
X70238Y129070D01*
X70219Y129117D01*
X70200Y129145D01*
X70191Y129164D01*
Y129173D01*
X70107Y129389D01*
X70051Y129595D01*
X70004Y129792D01*
X69976Y129961D01*
X69957Y130111D01*
Y130167D01*
X69947Y130223D01*
Y130261D01*
Y130289D01*
Y130308D01*
Y130317D01*
X69957Y130523D01*
X69976Y130720D01*
X70022Y130907D01*
X70069Y131085D01*
X70125Y131245D01*
X70191Y131395D01*
X70257Y131535D01*
X70332Y131666D01*
X70407Y131779D01*
X70472Y131882D01*
X70538Y131966D01*
X70594Y132041D01*
X70641Y132098D01*
X70678Y132135D01*
X70707Y132163D01*
X70716Y132173D01*
X70866Y132304D01*
X71025Y132416D01*
X71194Y132510D01*
X71372Y132594D01*
X71541Y132669D01*
X71719Y132726D01*
X71897Y132773D01*
X72056Y132810D01*
X72216Y132838D01*
X72356Y132866D01*
X72487Y132885D01*
X72600Y132894D01*
X72694Y132904D01*
X72825D01*
X73050Y132894D01*
D02*
G37*
G36*
X57904D02*
X58110Y132866D01*
X58307Y132819D01*
X58503Y132763D01*
X58682Y132697D01*
X58860Y132622D01*
X59019Y132538D01*
X59169Y132463D01*
X59310Y132379D01*
X59431Y132295D01*
X59534Y132219D01*
X59619Y132154D01*
X59694Y132098D01*
X59741Y132051D01*
X59778Y132023D01*
X59788Y132013D01*
X59956Y131835D01*
X60125Y131648D01*
X60284Y131442D01*
X60425Y131217D01*
X60565Y131001D01*
X60697Y130776D01*
X60809Y130551D01*
X60912Y130336D01*
X61006Y130129D01*
X61090Y129933D01*
X61165Y129764D01*
X61221Y129614D01*
X61268Y129492D01*
X61306Y129398D01*
X61315Y129361D01*
X61325Y129333D01*
X61334Y129323D01*
Y129314D01*
X61418Y129033D01*
X61493Y128761D01*
X61559Y128489D01*
X61615Y128227D01*
X61662Y127974D01*
X61700Y127730D01*
X61737Y127505D01*
X61756Y127289D01*
X61784Y127093D01*
X61793Y126915D01*
X61803Y126765D01*
X61812Y126634D01*
X61821Y126521D01*
Y126446D01*
Y126399D01*
Y126380D01*
X61812Y126090D01*
X61793Y125818D01*
X61756Y125556D01*
X61700Y125321D01*
X61643Y125106D01*
X61587Y124900D01*
X61512Y124721D01*
X61446Y124553D01*
X61381Y124412D01*
X61306Y124290D01*
X61250Y124178D01*
X61184Y124094D01*
X61137Y124018D01*
X61100Y123972D01*
X61081Y123944D01*
X61072Y123934D01*
X60922Y123784D01*
X60772Y123653D01*
X60612Y123540D01*
X60453Y123447D01*
X60284Y123362D01*
X60125Y123297D01*
X59975Y123241D01*
X59825Y123194D01*
X59684Y123166D01*
X59553Y123138D01*
X59431Y123119D01*
X59338Y123100D01*
X59253D01*
X59188Y123091D01*
X59141D01*
X58925Y123100D01*
X58719Y123128D01*
X58513Y123175D01*
X58325Y123231D01*
X58138Y123297D01*
X57969Y123362D01*
X57810Y123447D01*
X57660Y123531D01*
X57529Y123606D01*
X57407Y123691D01*
X57304Y123756D01*
X57210Y123831D01*
X57144Y123878D01*
X57088Y123925D01*
X57060Y123953D01*
X57051Y123962D01*
X56882Y124131D01*
X56713Y124318D01*
X56563Y124515D01*
X56423Y124721D01*
X56291Y124928D01*
X56170Y125143D01*
X56057Y125349D01*
X55954Y125546D01*
X55870Y125734D01*
X55795Y125912D01*
X55720Y126071D01*
X55673Y126202D01*
X55626Y126315D01*
X55598Y126399D01*
X55579Y126455D01*
X55570Y126474D01*
X55476Y126783D01*
X55382Y127083D01*
X55317Y127374D01*
X55251Y127655D01*
X55195Y127927D01*
X55148Y128189D01*
X55111Y128433D01*
X55082Y128658D01*
X55064Y128855D01*
X55045Y129042D01*
X55036Y129201D01*
X55026Y129342D01*
X55017Y129445D01*
Y129530D01*
Y129576D01*
Y129595D01*
X55026Y129886D01*
X55045Y130167D01*
X55082Y130420D01*
X55139Y130664D01*
X55195Y130879D01*
X55261Y131085D01*
X55326Y131264D01*
X55392Y131432D01*
X55467Y131573D01*
X55532Y131695D01*
X55598Y131807D01*
X55654Y131891D01*
X55701Y131966D01*
X55739Y132013D01*
X55767Y132041D01*
X55776Y132051D01*
X55917Y132201D01*
X56076Y132332D01*
X56235Y132444D01*
X56395Y132548D01*
X56554Y132622D01*
X56713Y132697D01*
X56863Y132754D01*
X57013Y132801D01*
X57154Y132829D01*
X57285Y132857D01*
X57397Y132876D01*
X57491Y132894D01*
X57576D01*
X57632Y132904D01*
X57688D01*
X57904Y132894D01*
D02*
G37*
G36*
X65599Y132885D02*
X65898Y132847D01*
X66170Y132782D01*
X66292Y132754D01*
X66405Y132716D01*
X66508Y132679D01*
X66592Y132651D01*
X66676Y132613D01*
X66742Y132585D01*
X66789Y132566D01*
X66836Y132548D01*
X66854Y132529D01*
X66864D01*
X67108Y132379D01*
X67323Y132219D01*
X67510Y132051D01*
X67660Y131891D01*
X67773Y131751D01*
X67820Y131685D01*
X67857Y131629D01*
X67885Y131592D01*
X67904Y131554D01*
X67923Y131535D01*
Y131526D01*
X68035Y131292D01*
X68120Y131057D01*
X68185Y130851D01*
X68223Y130664D01*
X68251Y130504D01*
X68260Y130429D01*
Y130373D01*
X68270Y130336D01*
Y130298D01*
Y130279D01*
Y130270D01*
X68260Y130073D01*
X68232Y129895D01*
X68195Y129726D01*
X68148Y129586D01*
X68101Y129464D01*
X68064Y129370D01*
X68035Y129314D01*
X68026Y129305D01*
Y129295D01*
X67923Y129136D01*
X67801Y128995D01*
X67670Y128864D01*
X67548Y128752D01*
X67435Y128658D01*
X67351Y128583D01*
X67314Y128564D01*
X67286Y128546D01*
X67276Y128527D01*
X67267D01*
X67435Y128461D01*
X67595Y128396D01*
X67745Y128311D01*
X67885Y128227D01*
X68017Y128142D01*
X68138Y128049D01*
X68251Y127964D01*
X68345Y127871D01*
X68429Y127786D01*
X68513Y127711D01*
X68579Y127636D01*
X68635Y127571D01*
X68673Y127524D01*
X68701Y127486D01*
X68720Y127458D01*
X68729Y127449D01*
X68823Y127308D01*
X68907Y127158D01*
X68973Y127008D01*
X69038Y126858D01*
X69085Y126708D01*
X69132Y126568D01*
X69198Y126305D01*
X69216Y126184D01*
X69235Y126071D01*
X69244Y125968D01*
X69254Y125884D01*
X69263Y125818D01*
Y125771D01*
Y125734D01*
Y125724D01*
X69254Y125509D01*
X69226Y125312D01*
X69188Y125125D01*
X69141Y124937D01*
X69085Y124768D01*
X69019Y124618D01*
X68954Y124468D01*
X68879Y124337D01*
X68804Y124225D01*
X68738Y124122D01*
X68673Y124028D01*
X68616Y123953D01*
X68570Y123897D01*
X68523Y123859D01*
X68504Y123831D01*
X68495Y123822D01*
X68345Y123691D01*
X68185Y123578D01*
X68017Y123475D01*
X67848Y123391D01*
X67679Y123316D01*
X67510Y123259D01*
X67342Y123203D01*
X67182Y123166D01*
X67032Y123138D01*
X66892Y123109D01*
X66770Y123091D01*
X66658Y123081D01*
X66573D01*
X66508Y123072D01*
X66451D01*
X66133Y123091D01*
X65833Y123128D01*
X65542Y123194D01*
X65280Y123269D01*
X65036Y123372D01*
X64811Y123475D01*
X64605Y123597D01*
X64418Y123719D01*
X64249Y123831D01*
X64108Y123953D01*
X63977Y124056D01*
X63883Y124159D01*
X63799Y124234D01*
X63743Y124300D01*
X63705Y124337D01*
X63696Y124356D01*
X63574Y124525D01*
X63461Y124693D01*
X63368Y124871D01*
X63293Y125040D01*
X63218Y125209D01*
X63162Y125378D01*
X63115Y125527D01*
X63077Y125677D01*
X63049Y125818D01*
X63030Y125940D01*
X63012Y126052D01*
X63002Y126146D01*
X62993Y126230D01*
Y126287D01*
Y126324D01*
Y126334D01*
X63002Y126577D01*
X63040Y126793D01*
X63087Y126990D01*
X63143Y127168D01*
X63199Y127308D01*
X63227Y127365D01*
X63246Y127411D01*
X63265Y127449D01*
X63284Y127486D01*
X63293Y127496D01*
Y127505D01*
X63415Y127693D01*
X63555Y127861D01*
X63696Y128011D01*
X63846Y128142D01*
X63968Y128245D01*
X64080Y128321D01*
X64118Y128349D01*
X64146Y128367D01*
X64165Y128386D01*
X64174D01*
X64024Y128452D01*
X63883Y128527D01*
X63762Y128602D01*
X63640Y128677D01*
X63527Y128752D01*
X63433Y128827D01*
X63340Y128892D01*
X63255Y128967D01*
X63190Y129033D01*
X63124Y129089D01*
X63077Y129145D01*
X63030Y129192D01*
X63002Y129230D01*
X62974Y129258D01*
X62955Y129267D01*
Y129277D01*
X62880Y129380D01*
X62815Y129483D01*
X62721Y129698D01*
X62646Y129904D01*
X62590Y130101D01*
X62562Y130279D01*
X62552Y130345D01*
Y130411D01*
X62543Y130467D01*
Y130504D01*
Y130523D01*
Y130533D01*
X62552Y130720D01*
X62571Y130898D01*
X62609Y131067D01*
X62656Y131226D01*
X62712Y131376D01*
X62768Y131517D01*
X62834Y131648D01*
X62899Y131760D01*
X62974Y131873D01*
X63040Y131966D01*
X63096Y132041D01*
X63152Y132107D01*
X63199Y132163D01*
X63237Y132201D01*
X63255Y132219D01*
X63265Y132229D01*
X63405Y132351D01*
X63555Y132454D01*
X63715Y132538D01*
X63883Y132622D01*
X64052Y132688D01*
X64221Y132735D01*
X64380Y132782D01*
X64539Y132819D01*
X64689Y132847D01*
X64830Y132866D01*
X64952Y132885D01*
X65055Y132894D01*
X65149Y132904D01*
X65271D01*
X65599Y132885D01*
D02*
G37*
%LPC*%
G36*
X81897Y143523D02*
X80594D01*
X80454Y143513D01*
X80313D01*
X80191Y143504D01*
X80088Y143495D01*
X79985Y143485D01*
X79891Y143476D01*
X79816Y143467D01*
X79751Y143448D01*
X79694Y143439D01*
X79638Y143429D01*
X79601Y143420D01*
X79554Y143410D01*
X79535Y143401D01*
X79357Y143326D01*
X79198Y143223D01*
X79066Y143110D01*
X78945Y142998D01*
X78851Y142886D01*
X78776Y142801D01*
X78757Y142764D01*
X78738Y142736D01*
X78720Y142726D01*
Y142717D01*
X78663Y142614D01*
X78607Y142501D01*
X78523Y142257D01*
X78467Y142004D01*
X78420Y141751D01*
X78410Y141639D01*
X78401Y141526D01*
X78392Y141433D01*
Y141348D01*
X78382Y141273D01*
Y141227D01*
Y141189D01*
Y141180D01*
Y140955D01*
X78401Y140749D01*
X78420Y140542D01*
X78448Y140345D01*
X78476Y140167D01*
X78513Y139989D01*
X78541Y139830D01*
X78579Y139689D01*
X78616Y139549D01*
X78654Y139436D01*
X78692Y139333D01*
X78720Y139249D01*
X78748Y139183D01*
X78766Y139127D01*
X78776Y139099D01*
X78785Y139090D01*
X78945Y138780D01*
X79113Y138499D01*
X79188Y138368D01*
X79273Y138255D01*
X79357Y138152D01*
X79432Y138049D01*
X79497Y137965D01*
X79563Y137890D01*
X79619Y137824D01*
X79676Y137768D01*
X79713Y137731D01*
X79741Y137702D01*
X79760Y137684D01*
X79769Y137674D01*
X79929Y137552D01*
X80088Y137440D01*
X80238Y137356D01*
X80369Y137290D01*
X80491Y137243D01*
X80585Y137206D01*
X80622Y137196D01*
X80650Y137187D01*
X80660Y137178D01*
X80669D01*
X80763Y137159D01*
X80875Y137131D01*
X81119Y137103D01*
X81381Y137074D01*
X81635Y137065D01*
X81756Y137056D01*
X81878D01*
X81972Y137046D01*
X83256D01*
X81897Y143523D01*
D02*
G37*
G36*
X72206Y143504D02*
X69862D01*
X69722Y143495D01*
X69591Y143485D01*
X69478Y143476D01*
X69375Y143467D01*
X69281Y143457D01*
X69197Y143439D01*
X69131Y143429D01*
X69066Y143410D01*
X69019Y143392D01*
X68944Y143373D01*
X68897Y143354D01*
X68888Y143345D01*
X68813Y143288D01*
X68747Y143232D01*
X68635Y143110D01*
X68560Y142979D01*
X68513Y142857D01*
X68475Y142736D01*
X68466Y142642D01*
X68457Y142604D01*
Y142576D01*
Y142567D01*
Y142557D01*
X68466Y142398D01*
X68503Y142239D01*
X68550Y142098D01*
X68607Y141967D01*
X68663Y141854D01*
X68710Y141779D01*
X68747Y141723D01*
X68756Y141714D01*
Y141705D01*
X68878Y141564D01*
X69010Y141442D01*
X69150Y141339D01*
X69281Y141255D01*
X69403Y141198D01*
X69497Y141152D01*
X69535Y141133D01*
X69553Y141123D01*
X69572Y141114D01*
X69581D01*
X69694Y141086D01*
X69816Y141048D01*
X69966Y141030D01*
X70125Y141002D01*
X70303Y140992D01*
X70472Y140974D01*
X70828Y140955D01*
X70997Y140945D01*
X71156Y140936D01*
X71306D01*
X71437Y140927D01*
X72740D01*
X72206Y143504D01*
D02*
G37*
G36*
X99341Y141283D02*
X99285D01*
X99079Y141264D01*
X98892Y141217D01*
X98732Y141161D01*
X98601Y141086D01*
X98498Y141011D01*
X98423Y140955D01*
X98376Y140908D01*
X98357Y140889D01*
X98245Y140730D01*
X98160Y140542D01*
X98095Y140355D01*
X98057Y140167D01*
X98029Y139989D01*
X98020Y139924D01*
Y139858D01*
X98011Y139802D01*
Y139764D01*
Y139736D01*
Y139727D01*
Y139671D01*
Y139605D01*
Y139558D01*
Y139549D01*
Y139539D01*
X100954D01*
X100916Y139699D01*
X100879Y139839D01*
X100841Y139980D01*
X100785Y140102D01*
X100738Y140214D01*
X100691Y140327D01*
X100635Y140421D01*
X100588Y140505D01*
X100532Y140580D01*
X100485Y140645D01*
X100447Y140702D01*
X100410Y140749D01*
X100382Y140786D01*
X100354Y140814D01*
X100344Y140823D01*
X100335Y140833D01*
X100241Y140908D01*
X100157Y140983D01*
X99969Y141095D01*
X99801Y141170D01*
X99632Y141227D01*
X99491Y141264D01*
X99435Y141273D01*
X99379D01*
X99341Y141283D01*
D02*
G37*
G36*
X28968Y131404D02*
X28921D01*
X28781Y131395D01*
X28650Y131357D01*
X28547Y131301D01*
X28453Y131245D01*
X28378Y131188D01*
X28321Y131132D01*
X28284Y131095D01*
X28275Y131085D01*
X28228Y131020D01*
X28190Y130945D01*
X28125Y130786D01*
X28087Y130617D01*
X28050Y130439D01*
X28031Y130289D01*
Y130214D01*
X28022Y130158D01*
Y130101D01*
Y130064D01*
Y130045D01*
Y130036D01*
Y129867D01*
X28040Y129679D01*
X28078Y129286D01*
X28125Y128892D01*
X28162Y128695D01*
X28190Y128508D01*
X28218Y128330D01*
X28256Y128161D01*
X28284Y128011D01*
X28303Y127889D01*
X28331Y127786D01*
X28340Y127702D01*
X28359Y127655D01*
Y127636D01*
X28443Y127289D01*
X28518Y126980D01*
X28603Y126690D01*
X28687Y126427D01*
X28771Y126193D01*
X28846Y125987D01*
X28931Y125799D01*
X28996Y125640D01*
X29071Y125499D01*
X29128Y125378D01*
X29184Y125274D01*
X29231Y125199D01*
X29268Y125143D01*
X29296Y125096D01*
X29315Y125078D01*
X29324Y125068D01*
X29399Y124984D01*
X29484Y124909D01*
X29559Y124843D01*
X29643Y124796D01*
X29793Y124703D01*
X29943Y124647D01*
X30065Y124618D01*
X30168Y124600D01*
X30205Y124590D01*
X30252D01*
X30393Y124600D01*
X30515Y124637D01*
X30627Y124684D01*
X30721Y124750D01*
X30796Y124806D01*
X30852Y124853D01*
X30890Y124890D01*
X30899Y124900D01*
X30946Y124965D01*
X30983Y125040D01*
X31040Y125209D01*
X31086Y125387D01*
X31115Y125565D01*
X31133Y125734D01*
Y125809D01*
X31143Y125874D01*
Y125921D01*
Y125959D01*
Y125987D01*
Y125996D01*
Y126184D01*
X31124Y126380D01*
X31086Y126783D01*
X31030Y127196D01*
X31002Y127402D01*
X30965Y127590D01*
X30937Y127777D01*
X30908Y127936D01*
X30880Y128086D01*
X30852Y128217D01*
X30824Y128321D01*
X30815Y128405D01*
X30796Y128452D01*
Y128470D01*
X30721Y128789D01*
X30637Y129080D01*
X30552Y129352D01*
X30468Y129595D01*
X30384Y129811D01*
X30299Y130017D01*
X30224Y130195D01*
X30149Y130354D01*
X30074Y130486D01*
X30018Y130607D01*
X29952Y130701D01*
X29906Y130786D01*
X29868Y130842D01*
X29840Y130879D01*
X29821Y130907D01*
X29812Y130917D01*
X29737Y131001D01*
X29662Y131076D01*
X29587Y131142D01*
X29512Y131198D01*
X29362Y131282D01*
X29221Y131348D01*
X29100Y131376D01*
X29006Y131395D01*
X28968Y131404D01*
D02*
G37*
G36*
X29486Y141208D02*
X29318D01*
X29205Y141189D01*
X29008Y141142D01*
X28839Y141077D01*
X28690Y141011D01*
X28577Y140936D01*
X28493Y140870D01*
X28437Y140823D01*
X28418Y140814D01*
Y140805D01*
X28287Y140645D01*
X28193Y140467D01*
X28118Y140289D01*
X28071Y140111D01*
X28043Y139961D01*
X28033Y139896D01*
Y139839D01*
X28024Y139792D01*
Y139755D01*
Y139736D01*
Y139727D01*
X28033Y139483D01*
X28052Y139249D01*
X28090Y139024D01*
X28137Y138808D01*
X28202Y138602D01*
X28258Y138415D01*
X28333Y138246D01*
X28399Y138087D01*
X28465Y137946D01*
X28540Y137815D01*
X28596Y137712D01*
X28652Y137618D01*
X28708Y137543D01*
X28746Y137496D01*
X28765Y137459D01*
X28774Y137449D01*
X28877Y137337D01*
X28980Y137234D01*
X29093Y137149D01*
X29196Y137074D01*
X29308Y137009D01*
X29421Y136953D01*
X29524Y136906D01*
X29618Y136878D01*
X29805Y136831D01*
X29880Y136812D01*
X29945Y136803D01*
X30002Y136793D01*
X30077D01*
X30189Y136803D01*
X30302Y136812D01*
X30498Y136859D01*
X30667Y136934D01*
X30817Y137009D01*
X30939Y137084D01*
X31023Y137159D01*
X31080Y137206D01*
X31089Y137224D01*
X31098D01*
X31173Y137309D01*
X31230Y137402D01*
X31333Y137599D01*
X31398Y137796D01*
X31455Y137984D01*
X31483Y138152D01*
X31492Y138227D01*
Y138293D01*
X31501Y138340D01*
Y138387D01*
Y138405D01*
Y138415D01*
X31492Y138640D01*
X31464Y138874D01*
X31417Y139090D01*
X31370Y139296D01*
X31342Y139389D01*
X31323Y139474D01*
X31295Y139539D01*
X31276Y139605D01*
X31267Y139661D01*
X31248Y139699D01*
X31239Y139718D01*
Y139727D01*
X31136Y139980D01*
X31014Y140205D01*
X30892Y140392D01*
X30770Y140542D01*
X30667Y140664D01*
X30583Y140758D01*
X30527Y140805D01*
X30517Y140823D01*
X30508D01*
X30330Y140955D01*
X30142Y141048D01*
X29964Y141114D01*
X29795Y141161D01*
X29646Y141189D01*
X29589Y141198D01*
X29533D01*
X29486Y141208D01*
D02*
G37*
G36*
X57800Y131404D02*
X57754D01*
X57613Y131395D01*
X57482Y131357D01*
X57379Y131301D01*
X57285Y131245D01*
X57210Y131188D01*
X57154Y131132D01*
X57116Y131095D01*
X57107Y131085D01*
X57060Y131020D01*
X57023Y130945D01*
X56957Y130786D01*
X56919Y130617D01*
X56882Y130439D01*
X56863Y130289D01*
Y130214D01*
X56854Y130158D01*
Y130101D01*
Y130064D01*
Y130045D01*
Y130036D01*
Y129867D01*
X56873Y129679D01*
X56910Y129286D01*
X56957Y128892D01*
X56995Y128695D01*
X57023Y128508D01*
X57051Y128330D01*
X57088Y128161D01*
X57116Y128011D01*
X57135Y127889D01*
X57163Y127786D01*
X57172Y127702D01*
X57191Y127655D01*
Y127636D01*
X57276Y127289D01*
X57351Y126980D01*
X57435Y126690D01*
X57519Y126427D01*
X57604Y126193D01*
X57679Y125987D01*
X57763Y125799D01*
X57829Y125640D01*
X57904Y125499D01*
X57960Y125378D01*
X58016Y125274D01*
X58063Y125199D01*
X58100Y125143D01*
X58128Y125096D01*
X58147Y125078D01*
X58157Y125068D01*
X58232Y124984D01*
X58316Y124909D01*
X58391Y124843D01*
X58475Y124796D01*
X58625Y124703D01*
X58775Y124647D01*
X58897Y124618D01*
X59000Y124600D01*
X59038Y124590D01*
X59085D01*
X59225Y124600D01*
X59347Y124637D01*
X59459Y124684D01*
X59553Y124750D01*
X59628Y124806D01*
X59684Y124853D01*
X59722Y124890D01*
X59731Y124900D01*
X59778Y124965D01*
X59816Y125040D01*
X59872Y125209D01*
X59919Y125387D01*
X59947Y125565D01*
X59966Y125734D01*
Y125809D01*
X59975Y125874D01*
Y125921D01*
Y125959D01*
Y125987D01*
Y125996D01*
Y126184D01*
X59956Y126380D01*
X59919Y126783D01*
X59862Y127196D01*
X59834Y127402D01*
X59797Y127590D01*
X59769Y127777D01*
X59741Y127936D01*
X59713Y128086D01*
X59684Y128217D01*
X59656Y128321D01*
X59647Y128405D01*
X59628Y128452D01*
Y128470D01*
X59553Y128789D01*
X59469Y129080D01*
X59384Y129352D01*
X59300Y129595D01*
X59216Y129811D01*
X59131Y130017D01*
X59056Y130195D01*
X58981Y130354D01*
X58906Y130486D01*
X58850Y130607D01*
X58785Y130701D01*
X58738Y130786D01*
X58700Y130842D01*
X58672Y130879D01*
X58653Y130907D01*
X58644Y130917D01*
X58569Y131001D01*
X58494Y131076D01*
X58419Y131142D01*
X58344Y131198D01*
X58194Y131282D01*
X58054Y131348D01*
X57932Y131376D01*
X57838Y131395D01*
X57800Y131404D01*
D02*
G37*
G36*
X65345Y131460D02*
X65299D01*
X65139Y131451D01*
X64999Y131413D01*
X64877Y131367D01*
X64774Y131320D01*
X64689Y131264D01*
X64624Y131217D01*
X64586Y131179D01*
X64577Y131170D01*
X64483Y131057D01*
X64418Y130926D01*
X64361Y130804D01*
X64333Y130682D01*
X64314Y130570D01*
X64296Y130486D01*
Y130429D01*
Y130420D01*
Y130411D01*
X64314Y130223D01*
X64352Y130055D01*
X64418Y129895D01*
X64483Y129764D01*
X64558Y129661D01*
X64624Y129576D01*
X64661Y129530D01*
X64680Y129511D01*
X64830Y129389D01*
X64980Y129295D01*
X65130Y129230D01*
X65261Y129183D01*
X65383Y129155D01*
X65477Y129145D01*
X65514Y129136D01*
X65561D01*
X65720Y129145D01*
X65861Y129183D01*
X65983Y129220D01*
X66086Y129277D01*
X66161Y129323D01*
X66227Y129370D01*
X66264Y129398D01*
X66273Y129408D01*
X66367Y129520D01*
X66433Y129642D01*
X66480Y129764D01*
X66508Y129876D01*
X66526Y129979D01*
X66545Y130064D01*
Y130120D01*
Y130129D01*
Y130139D01*
X66526Y130336D01*
X66489Y130523D01*
X66433Y130682D01*
X66358Y130814D01*
X66292Y130926D01*
X66236Y131011D01*
X66198Y131057D01*
X66180Y131076D01*
X66039Y131207D01*
X65889Y131301D01*
X65739Y131367D01*
X65599Y131413D01*
X65477Y131442D01*
X65383Y131451D01*
X65345Y131460D01*
D02*
G37*
G36*
X65955Y127693D02*
X65898D01*
X65730Y127683D01*
X65570Y127646D01*
X65439Y127590D01*
X65327Y127533D01*
X65242Y127477D01*
X65177Y127421D01*
X65130Y127383D01*
X65121Y127374D01*
X65017Y127252D01*
X64942Y127121D01*
X64886Y126990D01*
X64849Y126858D01*
X64830Y126746D01*
X64811Y126662D01*
Y126624D01*
Y126596D01*
Y126587D01*
Y126577D01*
Y126437D01*
X64830Y126305D01*
X64877Y126043D01*
X64942Y125809D01*
X65008Y125603D01*
X65045Y125509D01*
X65083Y125424D01*
X65121Y125349D01*
X65149Y125293D01*
X65177Y125246D01*
X65195Y125209D01*
X65205Y125190D01*
X65214Y125181D01*
X65289Y125068D01*
X65374Y124974D01*
X65467Y124890D01*
X65552Y124815D01*
X65645Y124750D01*
X65739Y124703D01*
X65917Y124628D01*
X66076Y124581D01*
X66151Y124562D01*
X66208Y124553D01*
X66264Y124543D01*
X66330D01*
X66498Y124553D01*
X66648Y124590D01*
X66779Y124637D01*
X66892Y124693D01*
X66976Y124750D01*
X67042Y124796D01*
X67089Y124834D01*
X67098Y124843D01*
X67192Y124965D01*
X67267Y125106D01*
X67314Y125246D01*
X67351Y125387D01*
X67370Y125509D01*
X67379Y125603D01*
X67389Y125640D01*
Y125668D01*
Y125687D01*
Y125696D01*
X67379Y125865D01*
X67370Y126015D01*
X67351Y126165D01*
X67314Y126305D01*
X67286Y126427D01*
X67248Y126549D01*
X67201Y126662D01*
X67164Y126755D01*
X67117Y126840D01*
X67079Y126924D01*
X67042Y126990D01*
X67004Y127037D01*
X66976Y127083D01*
X66958Y127112D01*
X66948Y127130D01*
X66939Y127140D01*
X66854Y127233D01*
X66761Y127327D01*
X66676Y127393D01*
X66583Y127458D01*
X66498Y127514D01*
X66405Y127561D01*
X66245Y127627D01*
X66105Y127664D01*
X66048Y127674D01*
X65992Y127683D01*
X65955Y127693D01*
D02*
G37*
%LPD*%
D10*
X757500Y140000D02*
G03*
X757500Y80000I0J-30000D01*
G01*
X249640Y182150D02*
G03*
X249640Y182150I-500J0D01*
G01*
X249640Y208150D02*
G03*
X249640Y208150I-500J0D01*
G01*
X73750Y48000D02*
G03*
X73750Y48000I-250J0D01*
G01*
X44250Y172000D02*
G03*
X44250Y172000I-250J0D01*
G01*
X225250Y105500D02*
G03*
X225250Y105500I-500J0D01*
G01*
X232625Y24500D02*
G03*
X232625Y24500I-500J0D01*
G01*
X238250Y73500D02*
G03*
X238250Y73500I-500J0D01*
G01*
X209750Y54000D02*
G03*
X209750Y54000I-500J0D01*
G01*
X257250Y32250D02*
G03*
X257250Y32250I-500J0D01*
G01*
X276865Y95625D02*
G03*
X276865Y95625I-500J0D01*
G01*
X108100Y35250D02*
X174100D01*
X757500Y80000D02*
X767500D01*
X757500Y140000D02*
X767500D01*
X249390Y172400D02*
X266390D01*
X249390Y176400D02*
X266390D01*
Y172400D02*
Y176400D01*
X249390Y172400D02*
Y176400D01*
X249390Y198400D02*
X266390D01*
X249390Y202400D02*
X266390D01*
Y198400D02*
Y202400D01*
X249390Y198400D02*
Y202400D01*
X310750Y5750D02*
X340250D01*
X175500D02*
X296000D01*
X427125Y3000D02*
Y23500D01*
X340375Y3000D02*
X427125D01*
X340375D02*
Y23500D01*
X427125D01*
X108100Y-150D02*
Y35250D01*
Y-150D02*
X174100D01*
Y35250D01*
X46000Y16750D02*
X46000Y48750D01*
X46000Y16750D02*
X70500D01*
X70500Y48750D01*
X46000D02*
X70500D01*
X71500Y171250D02*
Y203250D01*
X47000D02*
X71500D01*
X47000Y171250D02*
Y203250D01*
Y171250D02*
X71500D01*
X229500Y166250D02*
Y169500D01*
X223000Y166250D02*
X229500D01*
X226250D02*
X229500Y169500D01*
X199000Y166250D02*
X205500D01*
X199000D02*
Y169500D01*
Y190250D02*
X205500D01*
X199000Y187000D02*
Y190250D01*
X223000D02*
X229500D01*
Y187000D02*
Y190250D01*
X189000Y166250D02*
Y169500D01*
X182500Y166250D02*
X189000D01*
X185750D02*
X189000Y169500D01*
X158500Y166250D02*
X165000D01*
X158500D02*
Y169500D01*
Y190250D02*
X165000D01*
X158500Y187000D02*
Y190250D01*
X182500D02*
X189000D01*
Y187000D02*
Y190250D01*
X153250Y166250D02*
Y169500D01*
X146750Y166250D02*
X153250D01*
X150000D02*
X153250Y169500D01*
X122750Y166250D02*
X129250D01*
X122750D02*
Y169500D01*
Y190250D02*
X129250D01*
X122750Y187000D02*
Y190250D01*
X146750D02*
X153250D01*
Y187000D02*
Y190250D01*
X215000Y105250D02*
X215000Y88250D01*
X219000Y88250D02*
X219000Y105250D01*
X215000Y88250D02*
X219000Y88250D01*
X215000Y105250D02*
X219000D01*
X241875Y24750D02*
Y41750D01*
X237875Y24750D02*
X237875Y41750D01*
X241875Y41750D01*
X237875Y24750D02*
X241875D01*
X247500Y73750D02*
Y90750D01*
X243500Y73750D02*
Y90750D01*
X247500D01*
X243500Y73750D02*
X247500D01*
X219000Y54250D02*
Y71250D01*
X215000Y54250D02*
Y71250D01*
X219000D01*
X215000Y54250D02*
X219000D01*
X255750Y51250D02*
X265750D01*
X255750Y35250D02*
X265750Y35250D01*
X259865Y98375D02*
Y108375D01*
X275865Y98375D02*
Y108375D01*
X642158Y110500D02*
X647533Y107750D01*
Y110500D01*
X642158D02*
X647533D01*
X622783D02*
X628158Y110500D01*
X622783Y107750D02*
X622783Y110500D01*
X622783Y85500D02*
Y88250D01*
Y85500D02*
X628158D01*
X642158Y85500D02*
X647533Y85500D01*
Y88250D01*
X629735Y44795D02*
X630985D01*
X629735Y34295D02*
Y44795D01*
Y34295D02*
X630985D01*
X646985Y44795D02*
X648235D01*
X646985Y34295D02*
X648235D01*
Y42045D02*
Y44795D01*
Y34295D02*
Y37045D01*
X295250Y136250D02*
X321250D01*
X295250D02*
Y156250D01*
X321250D01*
Y136250D02*
Y156250D01*
X657917Y156750D02*
Y159500D01*
Y164500D02*
Y167250D01*
X656667Y156750D02*
X657917D01*
X656667Y167250D02*
X657917D01*
X639417Y156750D02*
X640667D01*
X639417D02*
Y167250D01*
X640667D01*
X635908Y194250D02*
Y198250D01*
X639908D01*
X655908D02*
X659908D01*
Y194250D02*
Y198250D01*
Y174250D02*
Y178250D01*
X655908Y174250D02*
X659908D01*
X635908D02*
X639908D01*
X635908D02*
Y178250D01*
X639908Y174250D01*
X118050Y204700D02*
X116217D01*
X117134D01*
Y210198D01*
X118050Y209282D01*
X387626Y10415D02*
X388459Y11248D01*
X390126D01*
X390959Y10415D01*
Y7083D01*
X390126Y6250D01*
X388459D01*
X387626Y7083D01*
Y8749D01*
X389292D01*
X385960Y6250D02*
Y11248D01*
X382628Y6250D01*
Y11248D01*
X380962D02*
Y6250D01*
X378463D01*
X377630Y7083D01*
Y10415D01*
X378463Y11248D01*
X380962D01*
X7585Y59000D02*
X11250D01*
X7585Y62666D01*
Y63582D01*
X8501Y64498D01*
X10334D01*
X11250Y63582D01*
X5752D02*
X4835Y64498D01*
X3003D01*
X2086Y63582D01*
Y59916D01*
X3003Y59000D01*
X4835D01*
X5752Y59916D01*
Y63582D01*
X151251Y218165D02*
X152084Y218998D01*
X153750D01*
X154583Y218165D01*
Y217332D01*
X153750Y216499D01*
X152084D01*
X151251Y215666D01*
Y214833D01*
X152084Y214000D01*
X153750D01*
X154583Y214833D01*
X146252Y218165D02*
X147086Y218998D01*
X148752D01*
X149585Y218165D01*
Y214833D01*
X148752Y214000D01*
X147086D01*
X146252Y214833D01*
X144586Y218998D02*
Y214000D01*
X141254D01*
X390959Y20248D02*
X387626D01*
X389292D01*
Y15250D01*
X385960Y20248D02*
Y15250D01*
X383461D01*
X382628Y16083D01*
Y19415D01*
X383461Y20248D01*
X385960D01*
X378463D02*
X380129D01*
X380962Y19415D01*
Y16083D01*
X380129Y15250D01*
X378463D01*
X377630Y16083D01*
Y19415D01*
X378463Y20248D01*
X373459D02*
X370126D01*
X371792D01*
Y15250D01*
X368460D02*
Y20248D01*
X366794Y18582D01*
X365128Y20248D01*
Y15250D01*
X360130Y19415D02*
X360963Y20248D01*
X362629D01*
X363462Y19415D01*
Y18582D01*
X362629Y17749D01*
X360963D01*
X360130Y16916D01*
Y16083D01*
X360963Y15250D01*
X362629D01*
X363462Y16083D01*
X-4165Y12750D02*
X-500D01*
X-4165Y16415D01*
Y17332D01*
X-3249Y18248D01*
X-1416D01*
X-500Y17332D01*
X102501Y218165D02*
X103334Y218998D01*
X105000D01*
X105833Y218165D01*
Y214833D01*
X105000Y214000D01*
X103334D01*
X102501Y214833D01*
Y216499D01*
X104167D01*
X100835Y214000D02*
Y218998D01*
X97502Y214000D01*
Y218998D01*
X95836D02*
Y214000D01*
X93337D01*
X92504Y214833D01*
Y218165D01*
X93337Y218998D01*
X95836D01*
X139083Y218998D02*
X135751D01*
X137417D01*
Y214000D01*
X134085Y218998D02*
X130752Y214000D01*
Y218998D02*
X134085Y214000D01*
X129086Y218998D02*
Y214000D01*
X126587D01*
X125754Y214833D01*
Y218165D01*
X126587Y218998D01*
X129086D01*
X356042Y6500D02*
X354376D01*
X355209D01*
Y11498D01*
X356042Y10665D01*
X351877Y6500D02*
Y11498D01*
X349378D01*
X348545Y10665D01*
Y8999D01*
X349378Y8166D01*
X351877D01*
X346878Y10665D02*
X346045Y11498D01*
X344379D01*
X343546Y10665D01*
Y9832D01*
X344379Y8999D01*
X343546Y8166D01*
Y7333D01*
X344379Y6500D01*
X346045D01*
X346878Y7333D01*
Y8166D01*
X346045Y8999D01*
X346878Y9832D01*
Y10665D01*
X346045Y8999D02*
X344379D01*
X423459Y15250D02*
Y20248D01*
X420959D01*
X420126Y19415D01*
Y17749D01*
X420959Y16916D01*
X423459D01*
X421792D02*
X420126Y15250D01*
X415128Y19415D02*
X415961Y20248D01*
X417627D01*
X418460Y19415D01*
Y18582D01*
X417627Y17749D01*
X415961D01*
X415128Y16916D01*
Y16083D01*
X415961Y15250D01*
X417627D01*
X418460Y16083D01*
X413462Y20248D02*
X410130D01*
X411796D01*
Y15250D01*
X225250Y209332D02*
X224334Y210248D01*
X222501D01*
X221584Y209332D01*
Y208416D01*
X222501Y207499D01*
X221584Y206583D01*
Y205666D01*
X222501Y204750D01*
X224334D01*
X225250Y205666D01*
Y206583D01*
X224334Y207499D01*
X225250Y208416D01*
Y209332D01*
X224334Y207499D02*
X222501D01*
X183836Y218165D02*
X184669Y218998D01*
X186336D01*
X187169Y218165D01*
Y214833D01*
X186336Y214000D01*
X184669D01*
X183836Y214833D01*
X178838Y218998D02*
X182170D01*
Y216499D01*
X180504D01*
X182170D01*
Y214000D01*
X173840Y218165D02*
X174673Y218998D01*
X176339D01*
X177172Y218165D01*
Y214833D01*
X176339Y214000D01*
X174673D01*
X173840Y214833D01*
Y216499D01*
X175506D01*
X96384Y23700D02*
X100050D01*
X96384Y27365D01*
Y28282D01*
X97301Y29198D01*
X99134D01*
X100050Y28282D01*
X236501Y218998D02*
X239833D01*
Y214000D01*
X236501D01*
X239833Y216499D02*
X238167D01*
X234835Y218998D02*
X231503Y214000D01*
Y218998D02*
X234835Y214000D01*
X229837Y218998D02*
X226504D01*
X228171D01*
Y214000D01*
X5000Y207498D02*
X1335D01*
Y206582D01*
X5000Y202916D01*
Y202000D01*
X-3247D02*
Y207498D01*
X-498Y204749D01*
X-4164D01*
X183050Y11616D02*
X182133Y10700D01*
X180301D01*
X179384Y11616D01*
Y15282D01*
X180301Y16198D01*
X182133D01*
X183050Y15282D01*
Y14366D01*
X182133Y13449D01*
X179384D01*
X369376Y10415D02*
X370209Y11248D01*
X371875D01*
X372709Y10415D01*
Y7083D01*
X371875Y6250D01*
X370209D01*
X369376Y7083D01*
Y8749D01*
X371042D01*
X367710Y6250D02*
Y11248D01*
X364378Y6250D01*
Y11248D01*
X362712D02*
Y6250D01*
X360213D01*
X359380Y7083D01*
Y10415D01*
X360213Y11248D01*
X362712D01*
X122333Y214000D02*
Y218998D01*
X119834D01*
X119001Y218165D01*
Y216499D01*
X119834Y215666D01*
X122333D01*
X120667D02*
X119001Y214000D01*
X117335Y218998D02*
X114002Y214000D01*
Y218998D02*
X117335Y214000D01*
X112336Y218998D02*
Y214000D01*
X109837D01*
X109004Y214833D01*
Y218165D01*
X109837Y218998D01*
X112336D01*
X8084Y167498D02*
X11750D01*
Y164749D01*
X9917Y165665D01*
X9001D01*
X8084Y164749D01*
Y162916D01*
X9001Y162000D01*
X10834D01*
X11750Y162916D01*
X6252Y166582D02*
X5335Y167498D01*
X3503D01*
X2586Y166582D01*
Y165665D01*
X3503Y164749D01*
X2586Y163833D01*
Y162916D01*
X3503Y162000D01*
X5335D01*
X6252Y162916D01*
Y163833D01*
X5335Y164749D01*
X6252Y165665D01*
Y166582D01*
X5335Y164749D02*
X3503D01*
X167501Y218165D02*
X168334Y218998D01*
X170000D01*
X170833Y218165D01*
Y217332D01*
X170000Y216499D01*
X168334D01*
X167501Y215666D01*
Y214833D01*
X168334Y214000D01*
X170000D01*
X170833Y214833D01*
X165835Y218998D02*
Y214000D01*
X163336D01*
X162503Y214833D01*
Y218165D01*
X163336Y218998D01*
X165835D01*
X160837Y214000D02*
Y217332D01*
X159170Y218998D01*
X157504Y217332D01*
Y214000D01*
Y216499D01*
X160837D01*
X404125Y6250D02*
Y11248D01*
X400793Y6250D01*
Y11248D01*
X395794Y10415D02*
X396628Y11248D01*
X398294D01*
X399127Y10415D01*
Y7083D01*
X398294Y6250D01*
X396628D01*
X395794Y7083D01*
X406376Y20248D02*
X403043D01*
X404709D01*
Y15250D01*
X401377Y20248D02*
Y15250D01*
X398878D01*
X398045Y16083D01*
Y19415D01*
X398878Y20248D01*
X401377D01*
X396379D02*
X394713D01*
X395546D01*
Y15250D01*
X396379D01*
X394713D01*
X98800Y10700D02*
X96967D01*
X97884D01*
Y16198D01*
X98800Y15282D01*
X185300Y23700D02*
X183467D01*
X184384D01*
Y29198D01*
X185300Y28282D01*
X180718D02*
X179802Y29198D01*
X177969D01*
X177053Y28282D01*
Y24616D01*
X177969Y23700D01*
X179802D01*
X180718Y24616D01*
Y28282D01*
X222583Y218165D02*
X221750Y218998D01*
X220084D01*
X219251Y218165D01*
Y217332D01*
X220084Y216499D01*
X220917D01*
X220084D01*
X219251Y215666D01*
Y214833D01*
X220084Y214000D01*
X221750D01*
X222583Y214833D01*
X217585Y214000D02*
Y218998D01*
X215086D01*
X214253Y218165D01*
Y216499D01*
X215086Y215666D01*
X217585D01*
X212587Y218165D02*
X211754Y218998D01*
X210088D01*
X209254Y218165D01*
Y217332D01*
X210088Y216499D01*
X210921D01*
X210088D01*
X209254Y215666D01*
Y214833D01*
X210088Y214000D01*
X211754D01*
X212587Y214833D01*
X356959Y20248D02*
X353626D01*
X355292D01*
Y15250D01*
X348628Y19415D02*
X349461Y20248D01*
X351127D01*
X351960Y19415D01*
Y16083D01*
X351127Y15250D01*
X349461D01*
X348628Y16083D01*
X346962Y20248D02*
Y15250D01*
Y16916D01*
X343630Y20248D01*
X346129Y17749D01*
X343630Y15250D01*
X420126Y10165D02*
X420959Y10998D01*
X422625D01*
X423459Y10165D01*
Y6833D01*
X422625Y6000D01*
X420959D01*
X420126Y6833D01*
Y8499D01*
X421792D01*
X418460Y6000D02*
Y10998D01*
X415128Y6000D01*
Y10998D01*
X413462D02*
Y6000D01*
X410963D01*
X410130Y6833D01*
Y10165D01*
X410963Y10998D01*
X413462D01*
X1335Y184998D02*
X3167Y184082D01*
X5000Y182249D01*
Y180416D01*
X4084Y179500D01*
X2251D01*
X1335Y180416D01*
Y181333D01*
X2251Y182249D01*
X5000D01*
X-498Y184082D02*
X-1415Y184998D01*
X-3247D01*
X-4164Y184082D01*
Y183165D01*
X-3247Y182249D01*
X-4164Y181333D01*
Y180416D01*
X-3247Y179500D01*
X-1415D01*
X-498Y180416D01*
Y181333D01*
X-1415Y182249D01*
X-498Y183165D01*
Y184082D01*
X-1415Y182249D02*
X-3247D01*
X4000Y41000D02*
X2167D01*
X3084D01*
Y46498D01*
X4000Y45582D01*
X-582D02*
X-1498Y46498D01*
X-3331D01*
X-4247Y45582D01*
Y41916D01*
X-3331Y41000D01*
X-1498D01*
X-582Y41916D01*
Y45582D01*
X335500Y144250D02*
Y149248D01*
X333001D01*
X332168Y148415D01*
Y146749D01*
X333001Y145916D01*
X335500D01*
X333834D02*
X332168Y144250D01*
X337000Y74750D02*
Y78082D01*
X335334Y79748D01*
X333668Y78082D01*
Y74750D01*
Y77249D01*
X337000D01*
X342000Y62500D02*
Y64166D01*
Y63333D01*
X346998D01*
X346165Y62500D01*
X423148Y156250D02*
X421482D01*
X422315D01*
Y161248D01*
X423148Y160415D01*
X415651Y161248D02*
X418983D01*
Y158749D01*
X417317Y159582D01*
X416484D01*
X415651Y158749D01*
Y157083D01*
X416484Y156250D01*
X418150D01*
X418983Y157083D01*
X266750Y143248D02*
X264917D01*
X265834D01*
Y137750D01*
X266750D01*
X264917D01*
X258503Y142332D02*
X259419Y143248D01*
X261252D01*
X262168Y142332D01*
Y138666D01*
X261252Y137750D01*
X259419D01*
X258503Y138666D01*
X253004Y137750D02*
X256670D01*
X253004Y141416D01*
Y142332D01*
X253921Y143248D01*
X255754D01*
X256670Y142332D01*
X248423Y137750D02*
Y143248D01*
X251172Y140499D01*
X247506D01*
X266750Y151248D02*
X264917D01*
X265834D01*
Y145750D01*
X266750D01*
X264917D01*
X258503Y150332D02*
X259419Y151248D01*
X261252D01*
X262168Y150332D01*
Y146666D01*
X261252Y145750D01*
X259419D01*
X258503Y146666D01*
X253004Y145750D02*
X256670D01*
X253004Y149416D01*
Y150332D01*
X253921Y151248D01*
X255754D01*
X256670Y150332D01*
X247506Y145750D02*
X251172D01*
X247506Y149416D01*
Y150332D01*
X248423Y151248D01*
X250255D01*
X251172Y150332D01*
X249000Y21248D02*
X247167D01*
X248084D01*
Y15750D01*
X249000D01*
X247167D01*
X240753Y20332D02*
X241669Y21248D01*
X243502D01*
X244418Y20332D01*
Y16666D01*
X243502Y15750D01*
X241669D01*
X240753Y16666D01*
X238920Y15750D02*
X237087D01*
X238004D01*
Y21248D01*
X238920Y20332D01*
X234338Y16666D02*
X233422Y15750D01*
X231589D01*
X230673Y16666D01*
Y20332D01*
X231589Y21248D01*
X233422D01*
X234338Y20332D01*
Y19416D01*
X233422Y18499D01*
X230673D01*
X226250Y114498D02*
X224417D01*
X225334D01*
Y109000D01*
X226250D01*
X224417D01*
X218003Y113582D02*
X218919Y114498D01*
X220752D01*
X221668Y113582D01*
Y109916D01*
X220752Y109000D01*
X218919D01*
X218003Y109916D01*
X216170Y109000D02*
X214337D01*
X215254D01*
Y114498D01*
X216170Y113582D01*
X207923Y114498D02*
X211588D01*
Y111749D01*
X209755Y112666D01*
X208839D01*
X207923Y111749D01*
Y109916D01*
X208839Y109000D01*
X210672D01*
X211588Y109916D01*
X361750Y200248D02*
Y196583D01*
X359917Y194750D01*
X358084Y196583D01*
Y200248D01*
X356252D02*
X352586D01*
X354419D01*
Y194750D01*
X347088D02*
X350754D01*
X347088Y198416D01*
Y199332D01*
X348004Y200248D01*
X349837D01*
X350754Y199332D01*
X385248Y156750D02*
X381583D01*
X379750Y158583D01*
X381583Y160415D01*
X385248D01*
Y162248D02*
Y165914D01*
Y164081D01*
X379750D01*
Y167746D02*
Y169579D01*
Y168663D01*
X385248D01*
X384332Y167746D01*
X334748Y102250D02*
Y104083D01*
Y103166D01*
X329250D01*
Y102250D01*
Y104083D01*
X333832Y110497D02*
X334748Y109581D01*
Y107748D01*
X333832Y106832D01*
X330166D01*
X329250Y107748D01*
Y109581D01*
X330166Y110497D01*
X334748Y115996D02*
X333832Y114163D01*
X331999Y112330D01*
X330166D01*
X329250Y113246D01*
Y115079D01*
X330166Y115996D01*
X331083D01*
X331999Y115079D01*
Y112330D01*
X724248Y152000D02*
X718750Y155665D01*
X724248D02*
X718750Y152000D01*
Y157498D02*
Y159331D01*
Y158414D01*
X724248D01*
X723332Y157498D01*
Y162080D02*
X724248Y162996D01*
Y164829D01*
X723332Y165745D01*
X722415D01*
X721499Y164829D01*
Y163913D01*
Y164829D01*
X720583Y165745D01*
X719667D01*
X718750Y164829D01*
Y162996D01*
X719667Y162080D01*
X222000Y197998D02*
X220167D01*
X221084D01*
Y192500D01*
X222000D01*
X220167D01*
X213753Y197082D02*
X214669Y197998D01*
X216502D01*
X217418Y197082D01*
Y193416D01*
X216502Y192500D01*
X214669D01*
X213753Y193416D01*
X211920D02*
X211003Y192500D01*
X209171D01*
X208254Y193416D01*
Y197082D01*
X209171Y197998D01*
X211003D01*
X211920Y197082D01*
Y196166D01*
X211003Y195249D01*
X208254D01*
X187000Y197748D02*
X185167D01*
X186084D01*
Y192250D01*
X187000D01*
X185167D01*
X178753Y196832D02*
X179669Y197748D01*
X181502D01*
X182418Y196832D01*
Y193166D01*
X181502Y192250D01*
X179669D01*
X178753Y193166D01*
X176920Y192250D02*
X175087D01*
X176003D01*
Y197748D01*
X176920Y196832D01*
X168673Y192250D02*
X172338D01*
X168673Y195916D01*
Y196832D01*
X169589Y197748D01*
X171422D01*
X172338Y196832D01*
X145750Y197748D02*
X143917D01*
X144834D01*
Y192250D01*
X145750D01*
X143917D01*
X137503Y196832D02*
X138419Y197748D01*
X140252D01*
X141168Y196832D01*
Y193166D01*
X140252Y192250D01*
X138419D01*
X137503Y193166D01*
X135670Y196832D02*
X134754Y197748D01*
X132921D01*
X132004Y196832D01*
Y195916D01*
X132921Y194999D01*
X132004Y194083D01*
Y193166D01*
X132921Y192250D01*
X134754D01*
X135670Y193166D01*
Y194083D01*
X134754Y194999D01*
X135670Y195916D01*
Y196832D01*
X134754Y194999D02*
X132921D01*
X285498Y94500D02*
Y96333D01*
Y95416D01*
X280000D01*
Y94500D01*
Y96333D01*
X284582Y102747D02*
X285498Y101831D01*
Y99998D01*
X284582Y99082D01*
X280916D01*
X280000Y99998D01*
Y101831D01*
X280916Y102747D01*
X280000Y108245D02*
Y104580D01*
X283666Y108245D01*
X284582D01*
X285498Y107329D01*
Y105496D01*
X284582Y104580D01*
X280000Y110078D02*
Y111911D01*
Y110995D01*
X285498D01*
X284582Y110078D01*
X440908Y170498D02*
X437242D01*
X439075D01*
Y165000D01*
X435410D02*
Y170498D01*
X432660D01*
X431744Y169582D01*
Y167749D01*
X432660Y166833D01*
X435410D01*
X429911Y165000D02*
X428078D01*
X428995D01*
Y170498D01*
X429911Y169582D01*
X316625Y166248D02*
X314792D01*
X315709D01*
Y160750D01*
X316625D01*
X314792D01*
X308378Y165332D02*
X309294Y166248D01*
X311127D01*
X312043Y165332D01*
Y161666D01*
X311127Y160750D01*
X309294D01*
X308378Y161666D01*
X306545Y160750D02*
X304712D01*
X305629D01*
Y166248D01*
X306545Y165332D01*
X301963D02*
X301047Y166248D01*
X299214D01*
X298298Y165332D01*
Y161666D01*
X299214Y160750D01*
X301047D01*
X301963Y161666D01*
Y165332D01*
X215750Y51748D02*
X213917D01*
X214834D01*
Y46250D01*
X215750D01*
X213917D01*
X207503Y50832D02*
X208419Y51748D01*
X210252D01*
X211168Y50832D01*
Y47166D01*
X210252Y46250D01*
X208419D01*
X207503Y47166D01*
X205670Y46250D02*
X203837D01*
X204753D01*
Y51748D01*
X205670Y50832D01*
X201088Y51748D02*
X197423D01*
Y50832D01*
X201088Y47166D01*
Y46250D01*
X254000Y70748D02*
X252167D01*
X253083D01*
Y65250D01*
X254000D01*
X252167D01*
X245753Y69832D02*
X246669Y70748D01*
X248502D01*
X249418Y69832D01*
Y66167D01*
X248502Y65250D01*
X246669D01*
X245753Y66167D01*
X243920Y65250D02*
X242087D01*
X243003D01*
Y70748D01*
X243920Y69832D01*
X235672Y70748D02*
X237505Y69832D01*
X239338Y67999D01*
Y66167D01*
X238422Y65250D01*
X236589D01*
X235672Y66167D01*
Y67083D01*
X236589Y67999D01*
X239338D01*
X656406Y34750D02*
Y38415D01*
Y36583D01*
X650908D01*
X656406Y43914D02*
X655490Y42081D01*
X653657Y40248D01*
X651824D01*
X650908Y41165D01*
Y42997D01*
X651824Y43914D01*
X652740D01*
X653657Y42997D01*
Y40248D01*
X660748Y54250D02*
Y57916D01*
Y56083D01*
X655250D01*
Y62497D02*
X660748D01*
X657999Y59748D01*
Y63414D01*
X641906Y13000D02*
Y16665D01*
Y14833D01*
X636408D01*
X640990Y18498D02*
X641906Y19415D01*
Y21247D01*
X640990Y22164D01*
X640073D01*
X639157Y21247D01*
Y20331D01*
Y21247D01*
X638240Y22164D01*
X637324D01*
X636408Y21247D01*
Y19415D01*
X637324Y18498D01*
X666248Y158000D02*
Y161665D01*
Y159833D01*
X660750D01*
Y163498D02*
Y165331D01*
Y164415D01*
X666248D01*
X665332Y163498D01*
X619906Y91500D02*
Y93333D01*
Y92416D01*
X614408D01*
Y91500D01*
Y93333D01*
X618989Y99747D02*
X619906Y98831D01*
Y96998D01*
X618989Y96082D01*
X615324D01*
X614408Y96998D01*
Y98831D01*
X615324Y99747D01*
X614408Y104329D02*
X619906D01*
X617157Y101580D01*
Y105246D01*
X654750Y206998D02*
X652917D01*
X653834D01*
Y201500D01*
X654750D01*
X652917D01*
X646503Y206082D02*
X647419Y206998D01*
X649252D01*
X650168Y206082D01*
Y202416D01*
X649252Y201500D01*
X647419D01*
X646503Y202416D01*
X641004Y206998D02*
X644670D01*
Y204249D01*
X642837Y205166D01*
X641921D01*
X641004Y204249D01*
Y202416D01*
X641921Y201500D01*
X643754D01*
X644670Y202416D01*
X42998Y24000D02*
Y25833D01*
Y24916D01*
X37500D01*
Y24000D01*
Y25833D01*
X42082Y32247D02*
X42998Y31331D01*
Y29498D01*
X42082Y28582D01*
X38416D01*
X37500Y29498D01*
Y31331D01*
X38416Y32247D01*
X42082Y34080D02*
X42998Y34997D01*
Y36829D01*
X42082Y37745D01*
X41165D01*
X40249Y36829D01*
Y35913D01*
Y36829D01*
X39333Y37745D01*
X38416D01*
X37500Y36829D01*
Y34997D01*
X38416Y34080D01*
X37500Y39578D02*
Y41411D01*
Y40495D01*
X42998D01*
X42082Y39578D01*
X35748Y178250D02*
Y180083D01*
Y179166D01*
X30250D01*
Y178250D01*
Y180083D01*
X34832Y186497D02*
X35748Y185581D01*
Y183748D01*
X34832Y182832D01*
X31166D01*
X30250Y183748D01*
Y185581D01*
X31166Y186497D01*
X30250Y191996D02*
Y188330D01*
X33915Y191996D01*
X34832D01*
X35748Y191079D01*
Y189247D01*
X34832Y188330D01*
X35748Y193828D02*
Y197494D01*
X34832D01*
X31166Y193828D01*
X30250D01*
X723748Y59750D02*
X718250Y63415D01*
X723748D02*
X718250Y59750D01*
X722832Y65248D02*
X723748Y66165D01*
Y67997D01*
X722832Y68914D01*
X721916D01*
X720999Y67997D01*
X720083Y68914D01*
X719166D01*
X718250Y67997D01*
Y66165D01*
X719166Y65248D01*
X720083D01*
X720999Y66165D01*
X721916Y65248D01*
X722832D01*
X720999Y66165D02*
Y67997D01*
X274748Y48750D02*
Y50583D01*
Y49666D01*
X269250D01*
Y48750D01*
Y50583D01*
X273832Y56997D02*
X274748Y56081D01*
Y54248D01*
X273832Y53332D01*
X270166D01*
X269250Y54248D01*
Y56081D01*
X270166Y56997D01*
X269250Y58830D02*
Y60663D01*
Y59746D01*
X274748D01*
X273832Y58830D01*
Y63412D02*
X274748Y64328D01*
Y66161D01*
X273832Y67077D01*
X272915D01*
X271999Y66161D01*
X271083Y67077D01*
X270166D01*
X269250Y66161D01*
Y64328D01*
X270166Y63412D01*
X271083D01*
X271999Y64328D01*
X272915Y63412D01*
X273832D01*
X271999Y64328D02*
Y66161D01*
X150498Y76500D02*
Y78333D01*
Y77416D01*
X145000D01*
Y76500D01*
Y78333D01*
X149582Y84747D02*
X150498Y83831D01*
Y81998D01*
X149582Y81082D01*
X145916D01*
X145000Y81998D01*
Y83831D01*
X145916Y84747D01*
X145000Y86580D02*
Y88413D01*
Y87496D01*
X150498D01*
X149582Y86580D01*
Y91162D02*
X150498Y92078D01*
Y93911D01*
X149582Y94827D01*
X148666D01*
X147749Y93911D01*
Y92995D01*
Y93911D01*
X146833Y94827D01*
X145916D01*
X145000Y93911D01*
Y92078D01*
X145916Y91162D01*
X314500Y60248D02*
X312667D01*
X313584D01*
Y54750D01*
X314500D01*
X312667D01*
X306253Y59332D02*
X307169Y60248D01*
X309002D01*
X309918Y59332D01*
Y55666D01*
X309002Y54750D01*
X307169D01*
X306253Y55666D01*
X300755Y54750D02*
X304420D01*
X300755Y58415D01*
Y59332D01*
X301671Y60248D01*
X303504D01*
X304420Y59332D01*
X298922D02*
X298005Y60248D01*
X296173D01*
X295256Y59332D01*
Y58415D01*
X296173Y57499D01*
X295256Y56583D01*
Y55666D01*
X296173Y54750D01*
X298005D01*
X298922Y55666D01*
Y56583D01*
X298005Y57499D01*
X298922Y58415D01*
Y59332D01*
X298005Y57499D02*
X296173D01*
X537998Y7750D02*
Y9583D01*
Y8666D01*
X532500D01*
Y7750D01*
Y9583D01*
X537082Y15997D02*
X537998Y15081D01*
Y13248D01*
X537082Y12332D01*
X533416D01*
X532500Y13248D01*
Y15081D01*
X533416Y15997D01*
X532500Y21495D02*
Y17830D01*
X536166Y21495D01*
X537082D01*
X537998Y20579D01*
Y18746D01*
X537082Y17830D01*
X464906Y106500D02*
Y108333D01*
Y107416D01*
X459408D01*
Y106500D01*
Y108333D01*
X463989Y114747D02*
X464906Y113831D01*
Y111998D01*
X463989Y111082D01*
X460324D01*
X459408Y111998D01*
Y113831D01*
X460324Y114747D01*
X459408Y116580D02*
Y118413D01*
Y117496D01*
X464906D01*
X463989Y116580D01*
X478992Y202998D02*
X482658D01*
Y200249D01*
X480825D01*
X482658D01*
Y197500D01*
X477160Y202998D02*
Y197500D01*
X473494D01*
X467996D02*
X471661D01*
X467996Y201166D01*
Y202082D01*
X468912Y202998D01*
X470745D01*
X471661Y202082D01*
D11*
X366674Y196250D02*
G03*
X366674Y196250I-1016J0D01*
G01*
X366674Y177500D02*
G03*
X366674Y177500I-1016J0D01*
G01*
D12*
X142059Y92750D02*
G03*
X142059Y92750I-559J0D01*
G01*
X529559Y21000D02*
G03*
X529559Y21000I-559J0D01*
G01*
X727000Y207500D02*
Y217000D01*
X748460D01*
X727000Y151000D02*
X748460D01*
X727000D02*
Y160500D01*
X338667Y153000D02*
X424667D01*
X338667Y67000D02*
X424667D01*
Y153000D01*
X338667Y67000D02*
Y153000D01*
X587803Y163000D02*
Y172000D01*
X578803D02*
X587803D01*
Y47000D02*
Y56000D01*
X578803Y47000D02*
X587803D01*
X462803D02*
X471803D01*
X462803D02*
Y56000D01*
Y172000D02*
X471803D01*
X462803Y163000D02*
Y172000D01*
X727000Y3000D02*
Y12500D01*
Y3000D02*
X748460D01*
X727000Y69000D02*
X748460D01*
X727000Y59500D02*
Y69000D01*
X723997Y179582D02*
Y174250D01*
X716000D01*
Y179582D01*
X719999Y174250D02*
Y176916D01*
X723997Y182247D02*
X716000Y187579D01*
X723997D02*
X716000Y182247D01*
X723997Y190245D02*
Y195576D01*
Y192911D01*
X716000D01*
X146668Y57247D02*
X149334D01*
X148001D01*
Y50583D01*
X149334Y49250D01*
X150667D01*
X152000Y50583D01*
X144003Y57247D02*
X138671D01*
X141337D01*
Y49250D01*
X136005D02*
Y54582D01*
X133339Y57247D01*
X130674Y54582D01*
Y49250D01*
Y53249D01*
X136005D01*
X122676Y55915D02*
X124009Y57247D01*
X126675D01*
X128008Y55915D01*
Y50583D01*
X126675Y49250D01*
X124009D01*
X122676Y50583D01*
Y53249D01*
X125342D01*
X551250Y181747D02*
Y174750D01*
X546585D01*
X544252D02*
Y181747D01*
X541920Y179415D01*
X539587Y181747D01*
Y174750D01*
X532589Y180581D02*
X533756Y181747D01*
X536088D01*
X537254Y180581D01*
Y179415D01*
X536088Y178249D01*
X533756D01*
X532589Y177082D01*
Y175916D01*
X533756Y174750D01*
X536088D01*
X537254Y175916D01*
X530257Y181747D02*
X525592D01*
Y180581D01*
X530257Y175916D01*
Y174750D01*
X523259Y180581D02*
X522093Y181747D01*
X519760D01*
X518594Y180581D01*
Y175916D01*
X519760Y174750D01*
X522093D01*
X523259Y175916D01*
Y180581D01*
X516261D02*
X515095Y181747D01*
X512762D01*
X511596Y180581D01*
Y175916D01*
X512762Y174750D01*
X515095D01*
X516261Y175916D01*
Y180581D01*
X504598Y174750D02*
X509263D01*
X504598Y179415D01*
Y180581D01*
X505765Y181747D01*
X508097D01*
X509263Y180581D01*
X502266Y174750D02*
Y181747D01*
X499933Y179415D01*
X497601Y181747D01*
Y174750D01*
X361502Y33748D02*
X363835D01*
X362668D01*
Y27916D01*
X363835Y26750D01*
X365001D01*
X366167Y27916D01*
X359170Y33748D02*
X354504D01*
X356837D01*
Y26750D01*
X352172D02*
Y31415D01*
X349839Y33748D01*
X347507Y31415D01*
Y26750D01*
Y30249D01*
X352172D01*
X340509Y32581D02*
X341675Y33748D01*
X344008D01*
X345174Y32581D01*
Y27916D01*
X344008Y26750D01*
X341675D01*
X340509Y27916D01*
Y30249D01*
X342841D01*
X-5750Y67750D02*
X2247D01*
Y71749D01*
X914Y73082D01*
X-1751D01*
X-3084Y71749D01*
Y67750D01*
X914Y81079D02*
X2247Y79746D01*
Y77080D01*
X914Y75747D01*
X-4417D01*
X-5750Y77080D01*
Y79746D01*
X-4417Y81079D01*
X2247Y83745D02*
Y86411D01*
Y85078D01*
X-5750D01*
Y83745D01*
Y86411D01*
Y94408D02*
Y91742D01*
X-4417Y90409D01*
X-1751D01*
X-418Y91742D01*
Y94408D01*
X-1751Y95741D01*
X-3084D01*
Y90409D01*
X-5750Y106404D02*
X2247D01*
X-418Y109070D01*
X2247Y111736D01*
X-5750D01*
Y114402D02*
X-4417D01*
Y115735D01*
X-5750D01*
Y114402D01*
Y126398D02*
Y121066D01*
X-418Y126398D01*
X914D01*
X2247Y125065D01*
Y122399D01*
X914Y121066D01*
X2247Y137061D02*
X-5750D01*
Y141060D01*
X-4417Y142393D01*
X-3084D01*
X-1751Y141060D01*
Y137061D01*
Y141060D01*
X-418Y142393D01*
X914D01*
X2247Y141060D01*
Y137061D01*
X-1751Y145058D02*
Y150390D01*
X914Y147724D02*
X-4417D01*
X-5750Y153056D02*
X2247D01*
X-418Y155722D01*
X2247Y158387D01*
X-5750D01*
X723497Y15250D02*
Y20582D01*
Y17916D01*
X715500D01*
X723497Y23247D02*
X715500Y28579D01*
X723497D02*
X715500Y23247D01*
Y36576D02*
Y31245D01*
X720832Y36576D01*
X722165D01*
X723497Y35244D01*
Y32578D01*
X722165Y31245D01*
X115418Y199415D02*
X116751Y200747D01*
X119417D01*
X120750Y199415D01*
Y194083D01*
X119417Y192750D01*
X116751D01*
X115418Y194083D01*
Y196749D01*
X118084D01*
X112753Y192750D02*
Y200747D01*
X108754D01*
X107421Y199415D01*
Y196749D01*
X108754Y195416D01*
X112753D01*
X104755Y200747D02*
X102089D01*
X103422D01*
Y192750D01*
X104755D01*
X102089D01*
X94092Y200747D02*
X96758D01*
X98091Y199415D01*
Y194083D01*
X96758Y192750D01*
X94092D01*
X92759Y194083D01*
Y199415D01*
X94092Y200747D01*
X723497Y41750D02*
X715500D01*
Y45749D01*
X716833Y47081D01*
X718166D01*
X719499Y45749D01*
Y41750D01*
Y45749D01*
X720832Y47081D01*
X722165D01*
X723497Y45749D01*
Y41750D01*
Y49747D02*
X715500D01*
Y53746D01*
X716833Y55079D01*
X718166D01*
X719499Y53746D01*
Y49747D01*
Y53746D01*
X720832Y55079D01*
X722165D01*
X723497Y53746D01*
Y49747D01*
D14*
X440658Y156000D02*
G03*
X440658Y156000I-6500J0D01*
G01*
X7000Y92000D02*
X11000D01*
X7000Y85500D02*
X11000D01*
X266250Y118750D02*
X270250D01*
X266250Y112250D02*
X270250D01*
X5593Y109393D02*
X9593D01*
X5593Y115893D02*
X9593D01*
X269500Y197500D02*
X273500D01*
X269500Y191000D02*
X273500D01*
X251250Y158500D02*
X251250Y155500D01*
X249250Y160250D02*
X253250D01*
X249250Y153750D02*
X253250D01*
X234640Y172400D02*
Y176400D01*
X241140Y172400D02*
X241140Y176400D01*
X241390D02*
X241390Y172400D01*
X247890Y176400D02*
X247890Y172400D01*
X267890D02*
Y176400D01*
X274390Y172400D02*
Y176400D01*
X243250Y181750D02*
Y184750D01*
X241250Y186500D02*
X245250D01*
X241250Y180000D02*
X245250D01*
X242250Y190000D02*
Y193000D01*
X240250Y188250D02*
X244250D01*
X240250Y194750D02*
X244250D01*
X234500Y206500D02*
X238500D01*
X234500Y200000D02*
X238500D01*
X242250Y208000D02*
Y211000D01*
X240250Y212750D02*
X244250Y212750D01*
X240250Y206250D02*
X244250D01*
X241250Y198500D02*
Y202500D01*
X247750Y198500D02*
Y202500D01*
X259250Y100500D02*
Y104500D01*
X252750Y100500D02*
Y104500D01*
X34675Y108000D02*
X38675D01*
X34675Y114500D02*
X38675D01*
X10000Y125000D02*
Y129000D01*
X3500Y125000D02*
Y129000D01*
X9350Y101700D02*
Y105700D01*
X15850Y101700D02*
Y105700D01*
X458000Y93500D02*
X462000D01*
X458000Y87000D02*
X462000D01*
X9750Y137750D02*
Y141750D01*
X3250Y137750D02*
Y141750D01*
X153750Y39500D02*
Y43500D01*
X147250Y39500D02*
Y43500D01*
X138250Y39500D02*
Y43500D01*
X144750Y39500D02*
Y43500D01*
X129250Y39500D02*
Y43500D01*
X135750Y39500D02*
Y43500D01*
X120250Y39500D02*
Y43500D01*
X126750Y39500D02*
Y43500D01*
X111250Y39500D02*
Y43500D01*
X117750Y39500D02*
Y43500D01*
X101300Y8700D02*
Y12700D01*
X107800Y8700D02*
Y12700D01*
X7000Y150500D02*
X11000D01*
X7000Y157000D02*
X11000D01*
X81250Y179700D02*
X81250Y175700D01*
X74750D02*
Y179700D01*
X290000Y141500D02*
X293000D01*
X288250Y139500D02*
Y143500D01*
X294750Y139500D02*
Y143500D01*
X243750Y54250D02*
Y58250D01*
X250250Y54250D02*
Y58250D01*
X236500Y54250D02*
Y58250D01*
X243000Y54250D02*
Y58250D01*
X238250Y56250D02*
X241250D01*
X314000Y195150D02*
Y199150D01*
X307500Y195150D02*
Y199150D01*
X267600Y215300D02*
X267600Y211300D01*
X274100D02*
Y215300D01*
X269350Y213300D02*
X272350Y213300D01*
X161000Y59250D02*
Y63250D01*
X154500Y59250D02*
X154500Y63250D01*
X161000Y47250D02*
Y51250D01*
X154500D02*
X154500Y47250D01*
X687250Y12750D02*
X691250D01*
X687250Y6250D02*
X691250D01*
X689250Y8000D02*
Y11000D01*
X293596Y8750D02*
X297596Y8750D01*
X293596Y15250D02*
X297596Y15250D01*
X326205Y47700D02*
X326205Y43700D01*
X319705D02*
X319705Y47700D01*
X321455Y45700D02*
X324455Y45700D01*
X308696Y8750D02*
X312696Y8750D01*
X308696Y15250D02*
X312696Y15250D01*
X301250Y8750D02*
X305250D01*
X301250Y2250D02*
X305250Y2250D01*
X287250Y48500D02*
X289250Y48500D01*
Y50500D01*
X287250D02*
X289250D01*
X319250Y18500D02*
Y50500D01*
X287250Y18500D02*
Y50500D01*
X485500Y18200D02*
X488500Y18200D01*
X490250Y16200D02*
Y20200D01*
X483750Y16200D02*
Y20200D01*
X424625Y204450D02*
Y208450D01*
X431125Y208450D02*
X431125Y204450D01*
X431875Y208450D02*
X431875Y204450D01*
X438375D02*
Y208450D01*
X439125Y204450D02*
Y208450D01*
X445625Y208450D02*
X445625Y204450D01*
X236000Y104800D02*
X236000Y100800D01*
X242500D02*
Y104800D01*
X245700Y97500D02*
X249700D01*
X245700Y104000D02*
X249700Y104000D01*
X6700Y18500D02*
X10700D01*
X6700Y25000D02*
X10700Y25000D01*
X28450Y41000D02*
X32450Y41000D01*
X28450Y47500D02*
X32450D01*
X6700Y11250D02*
X10700Y11250D01*
X6700Y17750D02*
X10700Y17750D01*
X79250Y29050D02*
Y33050D01*
X72750D02*
X72750Y29050D01*
X74500Y31050D02*
X77500Y31050D01*
X38250Y186450D02*
Y190450D01*
X44750D02*
X44750Y186450D01*
X40000Y188450D02*
X43000Y188450D01*
X78800Y183875D02*
X82800D01*
X78800Y190375D02*
X82800D01*
X78800Y190750D02*
X82800Y190750D01*
X78800Y197250D02*
X82800D01*
X161250Y157500D02*
X165250D01*
X161250Y164000D02*
X165250D01*
X190750Y167500D02*
Y171500D01*
X197250Y167500D02*
Y171500D01*
X384908Y53500D02*
X387408D01*
X384908Y49000D02*
X387408D01*
X393408Y53500D02*
X395908D01*
X393408Y49000D02*
X395908D01*
X376658Y48500D02*
X379158D01*
X376658Y53000D02*
X379158D01*
X369158Y48500D02*
X371658D01*
X369158Y53000D02*
X371658D01*
X321458Y75250D02*
X323958D01*
X321458Y79750D02*
X323958D01*
X426283Y54950D02*
Y57450D01*
X421783Y54950D02*
Y57450D01*
X334408Y57000D02*
Y59500D01*
X338908Y57000D02*
Y59500D01*
X332658Y50500D02*
Y53000D01*
X337158Y50500D02*
Y53000D01*
X388908Y28350D02*
Y30850D01*
X384408Y28350D02*
Y30850D01*
X389158Y34950D02*
Y37450D01*
X384658Y34950D02*
Y37450D01*
X415658Y40400D02*
Y42900D01*
X420158Y40400D02*
Y42900D01*
X415658Y33800D02*
Y36300D01*
X420158Y33800D02*
Y36300D01*
X421158Y53000D02*
Y55500D01*
X416658Y53000D02*
Y55500D01*
X421158Y62000D02*
Y64500D01*
X416658Y62000D02*
Y64500D01*
X674250Y103300D02*
Y107300D01*
X667750Y103300D02*
Y107300D01*
X123500Y161250D02*
X127500D01*
X123500Y154750D02*
X127500D01*
X205450Y35300D02*
X205450Y32300D01*
X203450Y30550D02*
X207450D01*
X203450Y37050D02*
X207450D01*
X203450Y44200D02*
X207450D01*
X203450Y37700D02*
X207450D01*
X218000Y29000D02*
Y33000D01*
X211500Y29000D02*
Y33000D01*
X237875Y43750D02*
X241875Y43750D01*
X237875Y50250D02*
X241875D01*
X219825Y37750D02*
X223825Y37750D01*
X219825Y44250D02*
X223825D01*
X215000Y73250D02*
X219000D01*
X215000Y79750D02*
X219000D01*
X258750Y53250D02*
X262750D01*
X258750Y59750D02*
X262750D01*
X221825Y46000D02*
Y49000D01*
X219825Y50750D02*
X223825Y50750D01*
X219825Y44250D02*
X223825D01*
X222875Y31050D02*
X225875D01*
X227625Y29050D02*
Y33050D01*
X221125Y29050D02*
X221125Y33050D01*
X258175Y26750D02*
Y29750D01*
X256175Y31500D02*
X260175Y31500D01*
X256175Y25000D02*
X260175Y25000D01*
X204750Y102550D02*
Y106550D01*
X198250Y102550D02*
X198250Y106550D01*
X200000Y104550D02*
X203000D01*
X257750Y76450D02*
X257750Y72450D01*
X264250Y72450D02*
X264250Y76450D01*
X259500Y74450D02*
X262500Y74450D01*
X235750Y58550D02*
Y62550D01*
X229250Y58550D02*
Y62550D01*
X231000Y60550D02*
X234000D01*
X215000Y79750D02*
X219000D01*
X215000Y86250D02*
X219000D01*
X235750Y96950D02*
X235750Y100950D01*
X229250D02*
X229250Y96950D01*
X231000Y98950D02*
X234000Y98950D01*
X243500Y97500D02*
X247500Y97500D01*
X243500Y91000D02*
X247500Y91000D01*
X274750Y83200D02*
Y87200D01*
X268250Y83200D02*
Y87200D01*
X270000Y85200D02*
X273000Y85200D01*
X198250Y58550D02*
Y62550D01*
X204750Y58550D02*
Y62550D01*
X200000Y60550D02*
X203000Y60550D01*
X272750Y46500D02*
X276750D01*
X272750Y40000D02*
X276750Y40000D01*
X274750Y41750D02*
X274750Y44750D01*
X252750Y111450D02*
Y115450D01*
X246250Y111450D02*
X246250Y115450D01*
X248000Y113450D02*
X251000Y113450D01*
X330408Y59250D02*
X332908D01*
X330408Y63750D02*
X332908D01*
X333158Y68600D02*
X333158Y66100D01*
X337658Y66100D02*
Y68600D01*
X332158Y66100D02*
Y68600D01*
X327658Y66100D02*
Y68600D01*
X345308Y60250D02*
X347808D01*
X345308Y55750D02*
X347808D01*
X345308Y50250D02*
X347808D01*
X345308Y54750D02*
X347808D01*
X328358Y53300D02*
X330858D01*
X328358Y57800D02*
X330858D01*
X338908Y57000D02*
Y59500D01*
X343408Y57000D02*
Y59500D01*
X360808Y54000D02*
Y56500D01*
X356308Y54000D02*
Y56500D01*
X351808Y54750D02*
X354308D01*
X351808Y50250D02*
X354308D01*
X351808Y55750D02*
X354308D01*
X351808Y60250D02*
X354308D01*
X391408Y37900D02*
X393908D01*
X391408Y33400D02*
X393908D01*
X377907Y31650D02*
Y34150D01*
X373408Y31650D02*
Y34150D01*
X369157Y27900D02*
X371657D01*
X369157Y32400D02*
X371657D01*
X369157Y33400D02*
X371657D01*
X369157Y37900D02*
X371657D01*
X383658Y34950D02*
Y37450D01*
X379158Y34950D02*
Y37450D01*
Y28350D02*
Y30850D01*
X383658Y28350D02*
Y30850D01*
X406658Y31650D02*
Y34150D01*
X402158Y31650D02*
Y34150D01*
X397908Y32400D02*
X400408D01*
X397908Y27900D02*
X400408D01*
X391408D02*
X393908D01*
X391408Y32400D02*
X393908D01*
X397908Y37900D02*
X400408D01*
X397908Y33400D02*
X400408D01*
X446408Y40350D02*
Y42850D01*
X441908Y40350D02*
Y42850D01*
X411158Y42000D02*
X411158Y39500D01*
X415658Y39500D02*
Y42000D01*
X406658Y50100D02*
X409158D01*
X406658Y45600D02*
X409158Y45600D01*
X406658Y44600D02*
X409158Y44600D01*
X406658Y40100D02*
X409158D01*
X429658Y41600D02*
X432158D01*
X429658Y37100D02*
X432158D01*
X429658Y31600D02*
X432158D01*
X429658Y36100D02*
X432158Y36100D01*
X421408Y41150D02*
X421408Y38650D01*
X425908D02*
Y41150D01*
X421408Y32050D02*
Y34550D01*
X425908Y32050D02*
Y34550D01*
X436157Y38850D02*
X438658D01*
X436158Y43350D02*
X438658Y43350D01*
X436158Y33350D02*
X438658Y33350D01*
X436158Y37850D02*
X438658Y37850D01*
X429908Y54500D02*
X432408D01*
X429908Y59000D02*
X432408D01*
X429908Y60000D02*
X432408D01*
X429908Y64500D02*
X432408D01*
X426283Y61550D02*
Y64050D01*
X421783Y61550D02*
Y64050D01*
X408658Y63750D02*
X411158D01*
X408658Y59250D02*
X411158D01*
X408658Y58250D02*
X411158D01*
X408658Y53750D02*
X411158D01*
X417408Y57500D02*
Y60000D01*
X412908Y57500D02*
Y60000D01*
X445408Y58250D02*
Y60750D01*
X440908Y58250D02*
Y60750D01*
X436408Y60000D02*
X438908D01*
X436408Y64500D02*
X438908D01*
X436408Y59000D02*
X438908D01*
X436408Y54500D02*
X438908D01*
X372908Y44750D02*
X375408D01*
X372908Y49250D02*
X375408D01*
X389158Y44750D02*
X391658D01*
X389158Y49250D02*
X391658D01*
X330096Y94800D02*
X332597D01*
X330096Y99300D02*
X332597D01*
X330146Y93750D02*
X332646D01*
X330146Y89250D02*
X332646D01*
X329058Y71250D02*
X331558D01*
X329058Y75750D02*
X331558D01*
X329058Y81500D02*
X331558D01*
X329058Y77000D02*
X331558D01*
X431658Y76250D02*
X434158D01*
X431658Y71750D02*
X434158D01*
X431658Y76750D02*
X434158D01*
X431658Y81250D02*
X434158D01*
X432508Y94250D02*
X435008D01*
X432508Y89750D02*
X435008D01*
X432508Y84250D02*
X435008D01*
X432508Y88750D02*
X435008D01*
X369408Y62750D02*
X371908D01*
X369408Y58250D02*
X371908D01*
X376408Y62750D02*
X378908D01*
X376408Y58250D02*
X378908D01*
X371908Y54500D02*
Y57000D01*
X376408Y54500D02*
Y57000D01*
X371008Y43850D02*
Y46350D01*
X366508Y43850D02*
Y46350D01*
X377308Y43850D02*
Y46350D01*
X381808Y43850D02*
Y46350D01*
X392908Y63500D02*
X395408D01*
X392908Y59000D02*
X395408D01*
X385408Y63500D02*
X387908D01*
X385408Y59000D02*
X387908D01*
X392658Y55000D02*
Y57500D01*
X388158Y55000D02*
Y57500D01*
X393558Y43850D02*
Y46350D01*
X398058Y43850D02*
Y46350D01*
X387258Y43850D02*
Y46350D01*
X382758Y43850D02*
Y46350D01*
X321958Y97450D02*
Y99950D01*
X326458Y97450D02*
Y99950D01*
X322008Y88600D02*
Y91100D01*
X326508Y88600D02*
Y91100D01*
X321458Y69750D02*
X323958D01*
X321458Y74250D02*
X323958D01*
X445058Y68100D02*
Y70600D01*
X440558Y68100D02*
Y70600D01*
X445058Y76900D02*
Y79400D01*
X440558Y76900D02*
Y79400D01*
X438158Y92400D02*
Y94900D01*
X442658Y92400D02*
Y94900D01*
X438158Y83600D02*
Y86100D01*
X442658Y83600D02*
Y86100D01*
X271050Y183450D02*
Y187450D01*
X277550Y183450D02*
X277550Y187450D01*
X269500Y198250D02*
X273500D01*
X269500Y204750D02*
X273500D01*
X245250Y219250D02*
X249250D01*
X245250Y212750D02*
X249250Y212750D01*
X88750Y73250D02*
X92750D01*
X88750Y79750D02*
X92750D01*
X88750Y80500D02*
X92750D01*
X88750Y87000D02*
X92750D01*
X286750Y58000D02*
Y62000D01*
X293250Y58000D02*
Y62000D01*
X133750Y151500D02*
X137750D01*
X133750Y145000D02*
X137750D01*
X458158Y123000D02*
Y127000D01*
X451658Y123000D02*
Y127000D01*
X450158Y136250D02*
Y140250D01*
X443658Y136250D02*
Y140250D01*
X280700Y184500D02*
X284700Y184500D01*
X280700Y191000D02*
X284700Y191000D01*
X280700Y182750D02*
X284700Y182750D01*
X280700Y176250D02*
X284700D01*
X280700Y199250D02*
X284700Y199250D01*
X280700Y192750D02*
X284700D01*
X280700Y207500D02*
X284700Y207500D01*
X280700Y201000D02*
X284700Y201000D01*
X150000Y151000D02*
X154000Y151000D01*
X150000Y157500D02*
X154000D01*
X423000Y201500D02*
X427000Y201500D01*
X423000Y195000D02*
X427000D01*
X277262Y161200D02*
Y165200D01*
X270763Y165200D02*
X270763Y161200D01*
X280700Y215750D02*
X284700D01*
X280700Y209250D02*
X284700D01*
X293450Y183750D02*
X297450Y183750D01*
X293450Y190250D02*
X297450Y190250D01*
X293450Y182000D02*
X297450D01*
X293450Y175500D02*
X297450Y175500D01*
X293450Y198500D02*
X297450D01*
X293450Y192000D02*
X297450Y192000D01*
X293450Y206750D02*
X297450Y206750D01*
X293450Y200250D02*
X297450Y200250D01*
X393908Y161250D02*
Y165250D01*
X387408Y161250D02*
X387408Y165250D01*
X423075Y188500D02*
X427075D01*
X423075Y195000D02*
X427075Y195000D01*
X293450Y215000D02*
X297450D01*
X293450Y208500D02*
X297450Y208500D01*
X263750Y153750D02*
X267750D01*
X263750Y160250D02*
X267750Y160250D01*
X433608Y141800D02*
Y145800D01*
X427108Y141800D02*
Y145800D01*
X378143Y161426D02*
Y165426D01*
X371643D02*
X371643Y161426D01*
X339300Y166750D02*
X343300D01*
X339300Y160250D02*
X343300Y160250D01*
X378143Y180176D02*
Y184176D01*
X371643Y180176D02*
Y184176D01*
X338250Y180050D02*
X338250Y176050D01*
X344750Y176050D02*
X344750Y180050D01*
X199750Y197750D02*
X199750Y194750D01*
X197750Y199500D02*
X201750D01*
X197750Y193000D02*
X201750D01*
X201250Y160250D02*
X201250Y163250D01*
X199250Y158500D02*
X203250D01*
X199250Y165000D02*
X203250D01*
X152000Y192500D02*
Y195500D01*
X150000Y197250D02*
X154000D01*
X150000Y190750D02*
X154000D01*
X281950Y169750D02*
X281950Y172750D01*
X279950Y168000D02*
X283950D01*
X279950Y174500D02*
X283950D01*
X231000Y195500D02*
Y198500D01*
X229000Y200250D02*
X233000D01*
X229000Y193750D02*
X233000D01*
X152000Y159250D02*
Y162250D01*
X150000Y164000D02*
X154000D01*
X150000Y157500D02*
X154000D01*
X195500Y19050D02*
X195500Y15050D01*
X202000D02*
X202000Y19050D01*
X208750Y15050D02*
Y19050D01*
X215250Y15050D02*
X215250Y19050D01*
X208750D02*
X208750Y15050D01*
X202250Y15050D02*
X202250Y19050D01*
X204000Y17050D02*
X207000D01*
X89750Y183750D02*
X93750D01*
X89750Y177250D02*
X93750D01*
X112500Y96250D02*
X130500D01*
X112500Y74250D02*
X130500D01*
X651003Y52545D02*
X652503Y54045D01*
X650003Y52545D02*
X652503D01*
X652503Y64545D01*
X630503Y56545D02*
Y64545D01*
X699000Y134550D02*
X702000D01*
X697250Y132550D02*
Y136550D01*
X703750Y132550D02*
Y136550D01*
X611908Y15000D02*
Y23000D01*
X633908Y11000D02*
Y23000D01*
X631408Y11000D02*
X633908D01*
X632408Y11000D02*
X633908Y12500D01*
X500000Y24500D02*
X518000D01*
X500000Y2500D02*
X518000D01*
X95650Y88550D02*
Y92550D01*
X102150Y88550D02*
Y92550D01*
X97400Y90550D02*
X100400D01*
X327550Y158350D02*
Y162350D01*
X321050Y158350D02*
Y162350D01*
X322800Y160350D02*
X325800Y160350D01*
X479300Y21450D02*
Y25450D01*
X472800Y21450D02*
Y25450D01*
Y25450D02*
X472800Y21450D01*
X466300D02*
Y25450D01*
X456908Y180000D02*
Y184000D01*
X450408Y180000D02*
Y184000D01*
X463408Y180000D02*
Y184000D01*
X456908Y180000D02*
Y184000D01*
X431158Y137750D02*
X435158D01*
X431158Y131250D02*
X435158D01*
X641158Y138000D02*
X645158D01*
X641158Y144500D02*
X645158Y144500D01*
X653108Y145250D02*
X657108D01*
X653108Y151750D02*
X657108D01*
X641108Y145250D02*
X645108Y145250D01*
X641108Y151750D02*
X645108Y151750D01*
X622908Y143500D02*
X625908D01*
X627658Y141500D02*
Y145500D01*
X621158Y141500D02*
Y145500D01*
X631658Y143500D02*
X634658D01*
X629908Y141500D02*
Y145500D01*
X636408Y141500D02*
Y145500D01*
X619908Y187000D02*
X622908D01*
X624658Y185000D02*
Y189000D01*
X618158Y185000D02*
Y189000D01*
X626408Y187000D02*
X629408D01*
X624658Y185000D02*
Y189000D01*
X631158Y185000D02*
Y189000D01*
X606908Y143250D02*
X609908D01*
X611658Y141250D02*
Y145250D01*
X605158Y141250D02*
Y145250D01*
X600408Y143250D02*
X603408D01*
X598658Y141250D02*
Y145250D01*
X605158Y141250D02*
Y145250D01*
X607158Y181000D02*
X610158D01*
X605408Y179000D02*
Y183000D01*
X611908Y179000D02*
Y183000D01*
X600658Y181000D02*
X603658D01*
X605408Y179000D02*
Y183000D01*
X598908Y179000D02*
Y183000D01*
X455408Y171750D02*
Y174750D01*
X453408Y176500D02*
X457408D01*
X453408Y170000D02*
X457408D01*
X451408Y103500D02*
X455408D01*
X451408Y110000D02*
X455408D01*
X446908Y107900D02*
Y111900D01*
X440408Y107900D02*
Y111900D01*
X668750Y192050D02*
Y196050D01*
X675250Y192050D02*
Y196050D01*
X472658Y34000D02*
Y38000D01*
X479158Y34000D02*
Y38000D01*
X474408Y36000D02*
X477408D01*
X486408Y30500D02*
X490408D01*
X486408Y24000D02*
X490408D01*
X471408Y34007D02*
Y38007D01*
X464908Y34007D02*
Y38007D01*
X458408Y98200D02*
Y102200D01*
X464908Y98200D02*
Y102200D01*
X595408Y80150D02*
Y83150D01*
X593408Y84900D02*
X597408D01*
X593408Y78400D02*
X597408D01*
X654158Y82750D02*
X654158Y86750D01*
X647658D02*
X647658Y82750D01*
X649408Y84750D02*
X652408D01*
X595908Y98250D02*
Y102250D01*
X589408Y98250D02*
Y102250D01*
X592658Y116550D02*
X595658Y116550D01*
X590908Y114550D02*
Y118550D01*
X597408Y114550D02*
Y118550D01*
X679408Y176500D02*
Y180500D01*
X672908Y176500D02*
Y180500D01*
X668158Y178500D02*
X671158Y178500D01*
X672908Y176500D02*
Y180500D01*
X666408Y176500D02*
Y180500D01*
X662858Y194050D02*
X665858D01*
X661108Y192050D02*
Y196050D01*
X667608Y192050D02*
Y196050D01*
X630143Y79100D02*
X630143Y82100D01*
X628143Y77350D02*
X632143Y77350D01*
X628143Y83850D02*
X632143Y83850D01*
X641408Y78500D02*
Y81500D01*
X639408Y83250D02*
X643408D01*
X639408Y76750D02*
X643408D01*
X676250Y192050D02*
Y196050D01*
X682750Y192050D02*
Y196050D01*
X593408Y92250D02*
X597408D01*
X593408Y85750D02*
X597408D01*
X486658Y184000D02*
Y188000D01*
X493158Y184000D02*
Y188000D01*
X486908Y179250D02*
X490908D01*
X486908Y172750D02*
X490908D01*
X488908Y174500D02*
Y177500D01*
X453858Y157250D02*
X457858D01*
X453858Y150750D02*
X457858D01*
X455858Y155500D02*
X455858Y152500D01*
X453858Y164750D02*
X457858D01*
X453858Y158250D02*
X457858D01*
X455858Y163000D02*
X455858Y160000D01*
X522023Y48750D02*
X526023D01*
X522023Y42250D02*
X526023D01*
X524023Y44000D02*
Y47000D01*
X527408Y34000D02*
Y38000D01*
X520908Y34000D02*
Y38000D01*
X518908Y34000D02*
Y38000D01*
X512408Y34000D02*
Y38000D01*
X510908Y48750D02*
X514908D01*
X510908Y42250D02*
X514908D01*
X512908Y44000D02*
Y47000D01*
X500108Y48750D02*
X504108D01*
X500108Y42250D02*
X504108D01*
X502108Y44000D02*
Y47000D01*
X508158Y34000D02*
Y38000D01*
X501658Y34000D02*
Y38000D01*
X532908Y42250D02*
X536908D01*
X532908Y48750D02*
X536908D01*
X534908Y44000D02*
Y47000D01*
X535408Y34000D02*
Y38000D01*
X528908Y34000D02*
Y38000D01*
X489108Y48750D02*
X493108D01*
X489108Y42250D02*
X493108D01*
X491108Y44000D02*
Y47000D01*
X497108Y34000D02*
Y38000D01*
X490608Y34000D02*
Y38000D01*
X478108Y48750D02*
X482108D01*
X478108Y42250D02*
X482108Y42250D01*
X480108Y47000D02*
X480108Y44000D01*
X486158Y34000D02*
Y38000D01*
X479658Y34000D02*
Y38000D01*
X590908Y125150D02*
Y129150D01*
X597408D02*
X597408Y125150D01*
X592658Y127150D02*
X595658Y127150D01*
X601208Y130700D02*
X605208D01*
X601208Y124200D02*
X605208D01*
X602408Y110300D02*
X606408D01*
X602408Y116800D02*
X606408D01*
D17*
X714750Y129000D02*
Y137000D01*
Y116000D02*
Y124000D01*
X703750Y116000D02*
X714750Y116000D01*
X703750Y116000D02*
Y124000D01*
Y129000D02*
Y137000D01*
X714750D01*
X168750Y41500D02*
X178750Y41500D01*
Y49500D01*
Y54500D02*
Y62500D01*
X168750D02*
X178750D01*
X168750Y54500D02*
Y62500D01*
Y49500D02*
X168750Y41500D01*
X697000Y4000D02*
X708000D01*
Y12000D01*
Y17000D02*
Y25000D01*
X697000D02*
X708000D01*
X697000Y17000D02*
Y25000D01*
Y4000D02*
Y12000D01*
X320860Y14964D02*
Y22964D01*
X320860Y35964D02*
X320860Y27964D01*
X320860Y35964D02*
X330860D01*
Y27964D02*
Y35964D01*
Y14964D02*
Y22964D01*
X320860Y14964D02*
X330860D01*
X276755Y15000D02*
Y23000D01*
Y36000D02*
X276755Y28000D01*
X276755Y36000D02*
X286755D01*
Y28000D02*
Y36000D01*
Y15000D02*
Y23000D01*
X276755Y15000D02*
X286755D01*
X265500Y7000D02*
X273500D01*
X252500D02*
X260500D01*
X252500D02*
Y18000D01*
X260500D01*
X265500D02*
X273500D01*
Y7000D02*
Y18000D01*
X79028Y14262D02*
X79028Y4738D01*
X75472Y14262D02*
X75472Y4738D01*
X37472Y60762D02*
X37472Y51238D01*
X41028Y60762D02*
X41028Y51238D01*
X41028Y4738D02*
Y14262D01*
X37472Y4738D02*
Y14262D01*
X80278Y51238D02*
Y60762D01*
X76722Y51238D02*
X76722Y60762D01*
X76472Y215262D02*
X76472Y205738D01*
X80028Y215262D02*
X80028Y205738D01*
X76472Y159238D02*
X76472Y168762D01*
X80028Y159238D02*
X80028Y168762D01*
X42028Y205738D02*
Y215262D01*
X38472Y205738D02*
Y215262D01*
X42028Y159238D02*
Y168762D01*
X38472Y159238D02*
Y168762D01*
X346658Y192250D02*
X370658D01*
X346658Y172250D02*
Y192250D01*
Y172250D02*
X370658D01*
Y192250D01*
X346658Y173500D02*
X370658D01*
X346658Y153500D02*
Y173500D01*
Y153500D02*
X370658D01*
Y173500D01*
X24750Y103500D02*
X32750D01*
X37750D02*
X45750D01*
Y93500D02*
Y103500D01*
X37750Y93500D02*
X45750D01*
X24750D02*
X32750D01*
X24750D02*
Y103500D01*
X440408Y110250D02*
Y118250D01*
Y97250D02*
Y105250D01*
X429408Y97250D02*
X440408D01*
X429408D02*
Y105250D01*
Y110250D02*
Y118250D01*
X440408D01*
X619183Y71045D02*
X630182D01*
X619183Y63045D02*
Y71045D01*
Y50045D02*
Y58045D01*
Y50045D02*
X630182D01*
Y58045D01*
Y63045D02*
Y71045D01*
X601133Y29535D02*
X612133D01*
X601133Y21535D02*
Y29535D01*
Y8535D02*
Y16535D01*
Y8535D02*
X612133D01*
Y16535D01*
Y21535D02*
Y29535D01*
X676000Y14500D02*
Y24500D01*
Y14500D02*
X684000D01*
X689000D02*
X697000D01*
Y24500D01*
X689000D02*
X697000D01*
X676000D02*
X684000D01*
X24940Y72650D02*
X32560D01*
X24940Y85350D02*
X32560D01*
X49488Y84722D02*
X59012D01*
X49488Y88278D02*
X59012D01*
X580633Y19035D02*
X588633D01*
X593633D02*
X601633D01*
Y9035D02*
Y19035D01*
X593633Y9035D02*
X601633D01*
X580633D02*
X588633D01*
X580633D02*
Y19035D01*
X580633Y21535D02*
Y29535D01*
Y8535D02*
Y16535D01*
X570633Y8535D02*
X580633D01*
X570633D02*
Y16535D01*
Y21535D02*
Y29535D01*
X580633D01*
X580633Y29035D02*
X588633D01*
X593633D02*
X601633D01*
Y19035D02*
Y29035D01*
X593633Y19035D02*
X601633D01*
X580633D02*
X588633D01*
X580633D02*
Y29035D01*
X598683Y42045D02*
Y50045D01*
Y29045D02*
Y37045D01*
X588683Y29045D02*
X598683D01*
X588683D02*
Y37045D01*
Y42045D02*
Y50045D01*
X598683D01*
X598682Y49545D02*
X606682Y49545D01*
X611682D02*
X619682D01*
Y39545D02*
Y49545D01*
X611682Y39545D02*
X619682D01*
X598682D02*
X606682D01*
X598682Y49545D02*
X598682Y39545D01*
X629683Y42045D02*
Y50045D01*
Y29045D02*
Y37045D01*
X619683Y29045D02*
X629683D01*
X619683D02*
Y37045D01*
Y42045D02*
Y50045D01*
X629683D01*
X598682Y39545D02*
X606682D01*
X611682D02*
X619682D01*
X619683Y29545D01*
X611682Y29545D02*
X619683Y29545D01*
X598682Y29545D02*
X606682D01*
X598682D02*
Y39545D01*
X598658Y174500D02*
X598658Y182500D01*
X598658Y161500D02*
X598658Y169500D01*
X587658Y161500D02*
X598658D01*
X587658D02*
Y169500D01*
Y174500D02*
Y182500D01*
X598658D01*
X587658Y141500D02*
Y149500D01*
Y154500D02*
Y162500D01*
X598658D01*
Y154500D02*
Y162500D01*
X598658Y141500D02*
X598658Y149500D01*
X587658Y141500D02*
X598658Y141500D01*
X629658Y151500D02*
Y159500D01*
Y164500D02*
Y172500D01*
X639658D01*
Y164500D02*
Y172500D01*
X639658Y151500D02*
X639658Y159500D01*
X629658Y151500D02*
X639658D01*
X621658Y162000D02*
X629658D01*
X608658D02*
X616658D01*
X608658D02*
Y172000D01*
X616658D01*
X621658D02*
X629658D01*
Y162000D02*
Y172000D01*
X608658Y162000D02*
X616658D01*
X621658D02*
X629658D01*
Y152000D02*
Y162000D01*
X621658Y152000D02*
X629658D01*
X608658D02*
X616658D01*
X608658D02*
Y162000D01*
X608658Y164500D02*
Y172500D01*
Y151500D02*
Y159500D01*
X598658Y151500D02*
X608658D01*
X598658D02*
Y159500D01*
Y164500D02*
Y172500D01*
X608658D01*
X598683Y50545D02*
Y60545D01*
Y50545D02*
X606683D01*
X611683D02*
X619683D01*
Y60545D01*
X611683D02*
X619683D01*
X598683D02*
X606683D01*
X588683Y71045D02*
X598683D01*
X588683Y63045D02*
Y71045D01*
Y50045D02*
Y58045D01*
Y50045D02*
X598683D01*
Y58045D01*
Y63045D02*
Y71045D01*
X598683Y60545D02*
Y70545D01*
Y60545D02*
X606683D01*
X611683D02*
X619683D01*
Y70545D01*
X611683D02*
X619683D01*
X598683D02*
X606683D01*
D18*
X763750Y209250D02*
G03*
X763750Y209250I-250J0D01*
G01*
Y61250D02*
G03*
X763750Y61250I-250J0D01*
G01*
D209*
X190725Y108139D02*
X194515Y108139D01*
X190725Y108291D02*
X194515D01*
X190725Y108443D02*
X194515D01*
X190725Y108594D02*
X194515Y108594D01*
X190725Y108746D02*
X194515D01*
X190725Y108897D02*
X194515D01*
X190573Y109049D02*
X194515Y109049D01*
X190421Y109201D02*
X194515D01*
X190421Y109353D02*
X194364D01*
X190421Y109504D02*
X194364D01*
X190421Y109656D02*
X194364D01*
X190421Y109807D02*
X194212D01*
X190421Y109959D02*
X194212D01*
X190421Y110111D02*
X194212D01*
X190270Y110262D02*
X194212D01*
X190118Y110414D02*
X194212Y110414D01*
X190118Y110566D02*
X194212Y110566D01*
X190118Y110717D02*
X194212D01*
X190118Y110869D02*
X194061Y110869D01*
X190118Y111020D02*
X194061Y111020D01*
X190118Y111172D02*
X194061Y111172D01*
X190118Y111324D02*
X193909D01*
X190118Y111475D02*
X193909D01*
X190118Y111627D02*
X193909D01*
X189967Y111779D02*
X193909D01*
X191634Y104197D02*
X195425D01*
X191634Y104349D02*
X195425Y104349D01*
X191634Y104500D02*
X195425D01*
X191635Y104652D02*
X195425D01*
X191483Y104803D02*
X195425Y104803D01*
X191331Y104955D02*
X195425Y104955D01*
X191331Y105107D02*
X195274D01*
X191331Y105258D02*
X195274D01*
X191331Y105410D02*
X195122Y105410D01*
X191331Y105562D02*
X195122D01*
X191331Y105713D02*
X195122Y105713D01*
X191331Y105865D02*
X195122D01*
X191180Y106017D02*
X195122D01*
X191028Y106168D02*
X195122D01*
X191028Y106320D02*
X194970D01*
X191028Y106472D02*
X194970D01*
X191028Y106623D02*
X194970D01*
X191028Y106775D02*
X194970Y106775D01*
X191028Y106926D02*
X194819D01*
X191028Y107078D02*
X194819D01*
X191028Y107230D02*
X194819D01*
X191028Y107381D02*
X194819D01*
X190876Y107533D02*
X194819D01*
X190725Y107684D02*
X194819Y107684D01*
X190725Y107836D02*
X194667Y107836D01*
X189815Y111930D02*
X193909D01*
X189815Y112082D02*
X193757Y112082D01*
X189815Y112233D02*
X193757D01*
X189815Y112385D02*
X193757Y112385D01*
X189815Y112537D02*
X193606D01*
X189815Y112688D02*
X193606D01*
X189815Y112840D02*
X193606D01*
X189815Y112992D02*
X193606D01*
X189815Y113143D02*
X193606D01*
X189663Y113295D02*
X193606Y113295D01*
X189512Y113447D02*
X193606D01*
X189512Y113598D02*
X193454D01*
X189360Y113750D02*
X193454Y113750D01*
X189360Y113901D02*
X193454Y113901D01*
X189360Y114053D02*
X193302D01*
X189360Y114205D02*
X193302Y114205D01*
X189512Y114356D02*
X193302D01*
X189512Y114508D02*
X193302D01*
X189360Y114660D02*
X193302Y114660D01*
X189360Y114811D02*
X193151D01*
X189360Y114963D02*
X192847D01*
X189360Y115114D02*
X192696D01*
X190725Y107988D02*
X194667Y107988D01*
X174654D02*
X178142Y107988D01*
X183750Y107988D02*
X187389D01*
X179355D02*
X182994D01*
X175109Y120118D02*
X176929Y120118D01*
X174806Y107836D02*
X178293D01*
X174806Y107684D02*
X178142Y107684D01*
X174806Y107533D02*
X178293D01*
X174806Y107381D02*
X178445D01*
X174806Y107230D02*
X178445Y107230D01*
X174806Y107078D02*
X178445D01*
X174806Y106926D02*
X178445D01*
X174806Y106775D02*
X178445Y106775D01*
X174806Y106623D02*
X178445Y106623D01*
X174957Y106472D02*
X178445D01*
X175109Y106320D02*
X178596D01*
X175109Y106168D02*
X178748Y106168D01*
X175109Y106017D02*
X178748D01*
X175109Y105865D02*
X178748D01*
X175109Y105713D02*
X178748D01*
X175109Y105562D02*
X178748D01*
X175109Y105410D02*
X178748Y105410D01*
X175261Y105258D02*
X178748D01*
X175412Y105107D02*
X178748D01*
X175412Y104955D02*
X178748D01*
X175412Y104803D02*
X178900D01*
X175412Y104652D02*
X179051Y104652D01*
X175412Y104500D02*
X179051Y104500D01*
X175412Y104349D02*
X179051D01*
X175412Y104197D02*
X179051D01*
X184659Y104045D02*
X195425D01*
X175412D02*
X179051Y104045D01*
X184659Y103894D02*
X195425D01*
X175412D02*
X179051D01*
X184659Y103742D02*
X195577D01*
X175564D02*
X179051D01*
X184659Y103590D02*
X195728D01*
X175716D02*
X179203Y103590D01*
X184659Y103439D02*
X195728Y103439D01*
X175716Y103439D02*
X179355Y103439D01*
X184659Y103287D02*
X195728D01*
X175716D02*
X179355D01*
X184659Y103136D02*
X195728D01*
X175716D02*
X179355Y103136D01*
X184659Y102984D02*
X195728D01*
X175716D02*
X179355Y102984D01*
X184963Y102832D02*
X195728Y102832D01*
X175716D02*
X179355Y102832D01*
X184963Y102681D02*
X195728D01*
X175716D02*
X179355D01*
X184963Y102529D02*
X195880Y102529D01*
X175716D02*
X179355Y102529D01*
X184963Y102377D02*
X196032D01*
X175716D02*
X179355Y102377D01*
X184963Y102226D02*
X196032D01*
X176019D02*
X179355D01*
X184963Y102074D02*
X196032Y102074D01*
X175867D02*
X179355D01*
X184963Y101923D02*
X196032D01*
X175867D02*
X179658D01*
X184963Y101771D02*
X196032Y101771D01*
X175867D02*
X179658Y101771D01*
X184963Y101619D02*
X196032D01*
X175716Y101619D02*
X179658D01*
X184963Y101468D02*
X196032D01*
X175716D02*
X179658D01*
X185266Y101316D02*
X196032D01*
X175716D02*
X179658Y101316D01*
X185266Y101164D02*
X196032Y101164D01*
X175867D02*
X179658Y101164D01*
X176929Y112688D02*
X178445D01*
X176777Y112537D02*
X178596D01*
X176322Y112385D02*
X179506Y112385D01*
X176170Y112233D02*
X179658Y112233D01*
X175716Y112082D02*
X180113Y112082D01*
X175716Y111930D02*
X180113D01*
X173896Y109504D02*
X178142D01*
X174048Y109353D02*
X178142D01*
X174199Y109201D02*
X178142D01*
X174351Y109049D02*
X178142Y109049D01*
X174351Y108897D02*
X178142Y108898D01*
X174502Y108746D02*
X178142D01*
X174502Y108594D02*
X178142Y108594D01*
X174502Y108443D02*
X178142D01*
X174503Y108291D02*
X178142D01*
X174502Y108139D02*
X178142Y108139D01*
X178142Y107684D02*
X178293Y107533D01*
X178445Y107381D01*
X179961Y104955D02*
X183904Y104955D01*
X180264Y104955D02*
X183904Y104955D01*
X180113Y105107D02*
X183752D01*
X183750Y107836D02*
X187389D01*
X179355D02*
X183146D01*
X183750Y107684D02*
X187389D01*
X179355Y107684D02*
X183297Y107684D01*
X183750Y107533D02*
X187540D01*
X179355D02*
X183297D01*
X183750Y107381D02*
X187692Y107381D01*
X179355D02*
X183297D01*
X183750Y107230D02*
X187692Y107230D01*
X179355Y107230D02*
X183297Y107230D01*
X184053Y107078D02*
X187692D01*
X179658D02*
X183297D01*
X184053Y106926D02*
X187692Y106926D01*
X179658Y106926D02*
X183297D01*
X184053Y106775D02*
X187692Y106775D01*
X179658Y106775D02*
X183297Y106775D01*
X184053Y106623D02*
X187692D01*
X179658D02*
X183449D01*
X184053Y106472D02*
X187692D01*
X179658D02*
X183600Y106471D01*
X184053Y106320D02*
X187692D01*
X179658D02*
X183600Y106320D01*
X184053Y106168D02*
X187844D01*
X179658D02*
X183600Y106168D01*
X184053Y106017D02*
X187844D01*
X179658D02*
X183600D01*
X184053Y105865D02*
X187995Y105865D01*
X179658D02*
X183600D01*
X184053Y105713D02*
X187995D01*
X179658D02*
X183600D01*
X184356Y105562D02*
X188299Y105562D01*
X179961Y105562D02*
X183600D01*
X184356Y105410D02*
X188299Y105410D01*
X179961Y105410D02*
X183600D01*
X184356Y105258D02*
X188298D01*
X179961D02*
X183600D01*
X184356Y105107D02*
X188147D01*
X184356Y104955D02*
X187995D01*
X184356Y104803D02*
X188147D01*
X179961Y104803D02*
X183904Y104803D01*
X184356Y104652D02*
X188299Y104652D01*
X179961Y104652D02*
X183904D01*
X184356Y104500D02*
X188299D01*
X179961D02*
X183904D01*
X184356Y104349D02*
X188299D01*
X180113D02*
X183904D01*
X184356Y104197D02*
X188299D01*
X180113D02*
X183904D01*
X180113Y104045D02*
X183904Y104045D01*
X180113Y103894D02*
X183904D01*
X180264Y103742D02*
X184207Y103742D01*
X180264Y103590D02*
X184207Y103590D01*
X180264Y103439D02*
X184207Y103439D01*
X180264Y103287D02*
X184207D01*
X180264Y103136D02*
X184207D01*
X180264Y102984D02*
X184207D01*
X180568Y102832D02*
X184207D01*
X180568Y102681D02*
X184207D01*
X180568Y102529D02*
X184207D01*
X180568Y102377D02*
X184359Y102377D01*
X180568Y102226D02*
X184510D01*
X180568Y102074D02*
X184510Y102074D01*
X180568Y101923D02*
X184510D01*
X180568Y101771D02*
X184510Y101771D01*
X180568Y101619D02*
X184662D01*
X180568Y101468D02*
X184662D01*
X180871Y101316D02*
X184662D01*
X180871Y101164D02*
X184662Y101164D01*
X183143Y115579D02*
X184963D01*
X183143Y115427D02*
X184963Y115427D01*
X182537Y115276D02*
X185569D01*
X182537Y115124D02*
X185569D01*
X182415Y114972D02*
X185872D01*
X182322Y114821D02*
X185872D01*
X182082Y114669D02*
X186176Y114669D01*
X181930Y114517D02*
X186176Y114517D01*
X181930Y114366D02*
X186327D01*
X181930Y114214D02*
X186327D01*
X181930Y114063D02*
X186327D01*
X182082Y113911D02*
X186327D01*
X182233Y113759D02*
X186327D01*
X182335Y113608D02*
X186327D01*
X182385Y113456D02*
X186327D01*
X182385Y113304D02*
X186327D01*
X182537Y113153D02*
X186176D01*
X182840Y113001D02*
X186176D01*
X182992Y112850D02*
X186176D01*
X183143Y112698D02*
X185872D01*
X183446Y112546D02*
X185721D01*
X182688Y112082D02*
X186782D01*
X182537Y111930D02*
X186631Y111930D01*
X182537Y111779D02*
X186631D01*
X182537Y111627D02*
X186631D01*
X182688Y111475D02*
X186782Y111475D01*
X182840Y111324D02*
X186782Y111324D01*
X182992Y111172D02*
X186782D01*
X183143Y111020D02*
X186782D01*
X183143Y110869D02*
X186782D01*
X183143Y110717D02*
X186782D01*
X183143Y110566D02*
X186782D01*
X183143Y110414D02*
X186782D01*
X183143Y110262D02*
X187085D01*
X183143Y110111D02*
X187085D01*
X183295Y109959D02*
X187085D01*
X183446Y109807D02*
X187085D01*
X183446Y109656D02*
X187085D01*
X183446Y109504D02*
X187085D01*
X178748D02*
X182691D01*
X183446Y109353D02*
X187085D01*
X178748D02*
X182842D01*
X183446Y109201D02*
X187237D01*
X179051D02*
X182994Y109201D01*
X183446Y109049D02*
X187237D01*
X179051Y109049D02*
X182994Y109049D01*
X183446Y108897D02*
X187237Y108898D01*
X179051Y108898D02*
X182994Y108898D01*
X183446Y108746D02*
X187237D01*
X179203D02*
X182994D01*
X183446Y108594D02*
X187389Y108594D01*
X179355D02*
X182994D01*
X183446Y108443D02*
X187389Y108443D01*
X179355D02*
X182994D01*
X183750Y108291D02*
X187389D01*
X179355Y108291D02*
X182994Y108291D01*
X183750Y108139D02*
X187389Y108139D01*
X179355D02*
X182994D01*
X175261Y119967D02*
X176929D01*
X175412Y119815D02*
X176929Y119815D01*
X175412Y119663D02*
X176929D01*
X175412Y119512D02*
X176929Y119512D01*
X175412Y119360D02*
X176929Y119360D01*
X175412Y119208D02*
X176929D01*
X175564Y119057D02*
X176929D01*
X175716Y118905D02*
X176929D01*
X175716Y118754D02*
X176929D01*
X175716Y118602D02*
X176929D01*
X175716Y118450D02*
X176625Y118450D01*
X175716Y118299D02*
X176625D01*
X175867Y118147D02*
X176625D01*
X175867Y117996D02*
X176625Y117995D01*
X176019Y117844D02*
X176625Y117844D01*
X176019Y117692D02*
X176625D01*
X173896Y126032D02*
X177232D01*
X173896Y125880D02*
X177232Y125880D01*
X173896Y125729D02*
X177232Y125729D01*
X173896Y125577D02*
X177232Y125577D01*
X173896Y125425D02*
X177232D01*
X173896Y125274D02*
X177232Y125274D01*
X174048Y125122D02*
X177232Y125122D01*
X174048Y124971D02*
X177232D01*
X174199Y124819D02*
X177232Y124819D01*
X174199Y124667D02*
X177232D01*
X174199Y124516D02*
X177232D01*
X174199Y124364D02*
X177232D01*
X174199Y124212D02*
X177232D01*
X174199Y124061D02*
X177232D01*
X174199Y123909D02*
X177232D01*
X174199Y123757D02*
X177232D01*
X174351Y123606D02*
X177232Y123606D01*
X174351Y123454D02*
X177232Y123454D01*
X174351Y123302D02*
X177232Y123303D01*
X174351Y123151D02*
X177232D01*
X174502Y122999D02*
X177232Y122999D01*
X174503Y122848D02*
X177232D01*
X174503Y122696D02*
X177232D01*
X174503Y122544D02*
X177232D01*
X174503Y122393D02*
X177232D01*
X174502Y122241D02*
X177232D01*
X174654Y122090D02*
X177232Y122090D01*
X174654Y121938D02*
X177232Y121938D01*
X174654Y121786D02*
X177232Y121786D01*
X174654Y121635D02*
X177232D01*
X174806Y121483D02*
X176929D01*
X174806Y121331D02*
X176929D01*
X174806Y121180D02*
X176929D01*
X174806Y121028D02*
X176929D01*
X175109Y120877D02*
X176929D01*
X175109Y120725D02*
X176929Y120725D01*
X175109Y120573D02*
X176929D01*
X175109Y120422D02*
X176929D01*
X175109Y120270D02*
X176929Y120270D01*
X191788Y156662D02*
X192698D01*
X191788Y156813D02*
X192850Y156813D01*
X191788Y156965D02*
X193001D01*
X191940Y157116D02*
X193153D01*
X192243Y157268D02*
X193305Y157268D01*
X192243Y157420D02*
X193456D01*
X192395Y157571D02*
X193608Y157571D01*
X192547Y157723D02*
X193608Y157723D01*
X192547Y157875D02*
X193608D01*
X192698Y158026D02*
X193608D01*
X173896Y144531D02*
X176929Y144531D01*
X173896Y144683D02*
X176929D01*
X173896Y144834D02*
X176929Y144834D01*
X173896Y144986D02*
X176929D01*
X173896Y145138D02*
X176625D01*
X173896Y145289D02*
X176625D01*
X173896Y145441D02*
X176625D01*
X173896Y145592D02*
X176625D01*
X173896Y145744D02*
X176625D01*
X173896Y145896D02*
X176474D01*
X173896Y146047D02*
X176322D01*
X173896Y146199D02*
X176322D01*
X173896Y146351D02*
X176322Y146350D01*
X173896Y146502D02*
X176322Y146502D01*
X173896Y146654D02*
X176322D01*
X173896Y146805D02*
X176322D01*
X173896Y146957D02*
X176322D01*
X173896Y147109D02*
X176322Y147109D01*
X173896Y147260D02*
X176322D01*
X173896Y147412D02*
X176322D01*
X173896Y147564D02*
X176019D01*
X173896Y147715D02*
X176019D01*
X174048Y147867D02*
X176019D01*
X174199Y148019D02*
X176019D01*
X174199Y148170D02*
X176019D01*
X174199Y148322D02*
X176019D01*
X174199Y148473D02*
X176019D01*
X174199Y148625D02*
X176019Y148625D01*
X174199Y148777D02*
X176019Y148777D01*
X174199Y148928D02*
X176019D01*
X174199Y149080D02*
X176019D01*
X174199Y149232D02*
X176019D01*
X174199Y149383D02*
X176019Y149383D01*
X174199Y149535D02*
X176019D01*
X174199Y149686D02*
X175716D01*
X174199Y149838D02*
X175716Y149838D01*
X174199Y149990D02*
X175716D01*
X174199Y150141D02*
X175716D01*
X174199Y150293D02*
X175716Y150293D01*
X174199Y150445D02*
X175716Y150445D01*
X174199Y150596D02*
X175716D01*
X174199Y150748D02*
X175564D01*
X174351Y150899D02*
X175412Y150899D01*
X174502Y151051D02*
X175412D01*
X174502Y151203D02*
X175412D01*
X174502Y151354D02*
X175412D01*
X174503Y151506D02*
X175412D01*
X174503Y151658D02*
X175412Y151658D01*
X174503Y151809D02*
X174806D01*
X181478Y144531D02*
X184813D01*
X181629Y144683D02*
X184965Y144683D01*
X181781Y144834D02*
X185117Y144834D01*
X181781Y144986D02*
X185117D01*
X182084Y145138D02*
X185420D01*
X182084Y145289D02*
X185420Y145289D01*
X182084Y145441D02*
X185420D01*
X182236Y145592D02*
X185723D01*
X182539Y145744D02*
X185875D01*
X182539Y145896D02*
X185875Y145896D01*
X182842Y146047D02*
X186026D01*
X182994Y146199D02*
X186026D01*
X182994Y146350D02*
X186026Y146351D01*
X183146Y146502D02*
X186178Y146502D01*
X183297Y146654D02*
X186330Y146654D01*
X183449Y146805D02*
X186481D01*
X183600Y146957D02*
X186633Y146957D01*
X183600Y147109D02*
X186633Y147109D01*
X183904Y147260D02*
X186633D01*
X184055Y147412D02*
X186785Y147412D01*
X184207Y147564D02*
X186936Y147564D01*
X184207Y147715D02*
X186936D01*
X184207Y147867D02*
X187239D01*
X184359Y148019D02*
X187239D01*
X184662Y148170D02*
X187239Y148170D01*
X184813Y148322D02*
X187391D01*
X184813Y148473D02*
X187543D01*
X184965Y148625D02*
X187543Y148625D01*
X185117Y148777D02*
X187543Y148777D01*
X185268Y148928D02*
X187694Y148928D01*
X185420Y149080D02*
X187846D01*
X185420Y149232D02*
X187846D01*
X185723Y149383D02*
X188149D01*
X185723Y149535D02*
X188149D01*
X185723Y149686D02*
X188149Y149686D01*
X185875Y149838D02*
X188301D01*
X186178Y149990D02*
X188453D01*
X186330Y150141D02*
X188453Y150141D01*
X186330Y150293D02*
X188756Y150293D01*
X186481Y150445D02*
X188756D01*
X186633Y150596D02*
X188756D01*
X186785Y150748D02*
X188908D01*
X186936Y150899D02*
X189059D01*
X186936Y151051D02*
X189059D01*
X186936Y151203D02*
X189362D01*
X187088Y151354D02*
X189362D01*
X187391Y151506D02*
X189362D01*
X187391Y151658D02*
X189514D01*
X187694Y151809D02*
X189666D01*
X187846Y151961D02*
X189666Y151961D01*
X190424Y144531D02*
X193305D01*
X190424Y144683D02*
X193608D01*
X191030Y144834D02*
X193760D01*
X191030Y144986D02*
X194063D01*
X191637Y145138D02*
X194215D01*
X191637Y145289D02*
X194518D01*
X192243Y145441D02*
X194669D01*
X192243Y145592D02*
X195124Y145592D01*
X192850Y145744D02*
X195428D01*
X192850Y145896D02*
X195579D01*
X193456Y146047D02*
X195731D01*
X193456Y146199D02*
X196034D01*
X194063Y146351D02*
X196186Y146350D01*
X194063Y146502D02*
X196489Y146502D01*
X194669Y146654D02*
X196641D01*
X194669Y146805D02*
X197096D01*
X195276Y146957D02*
X197247D01*
X195276Y147109D02*
X197551D01*
X195882Y147260D02*
X197702Y147260D01*
X195882Y147412D02*
X198005D01*
X196186Y147564D02*
X198157D01*
X196337Y147715D02*
X198612D01*
X196792Y147867D02*
X198764D01*
X196944Y148019D02*
X199218D01*
X197399Y148170D02*
X199370D01*
X197551Y148322D02*
X199673Y148322D01*
X198005Y148473D02*
X199825Y148473D01*
X198157Y148625D02*
X200431D01*
X198612Y148777D02*
X200431D01*
X198764Y148928D02*
X200735Y148928D01*
X199218Y149080D02*
X200886D01*
X199370Y149232D02*
X201190Y149232D01*
X199825Y149383D02*
X201341D01*
X199977Y149535D02*
X201341D01*
X200280Y149686D02*
X201341D01*
X200431Y149838D02*
X201341D01*
X189969Y154539D02*
X191485Y154539D01*
X189969Y154690D02*
X191485D01*
X189969Y154842D02*
X191485Y154842D01*
X190121Y154993D02*
X191637Y154994D01*
X190424Y155145D02*
X191940D01*
X190575Y155297D02*
X191940Y155297D01*
X190727Y155448D02*
X192092D01*
X190879Y155600D02*
X192092D01*
X190879Y155752D02*
X192092D01*
X191030Y155903D02*
X192243Y155903D01*
X191182Y156055D02*
X192395D01*
X191182Y156207D02*
X192547Y156207D01*
X191485Y156358D02*
X192698D01*
X157671Y136798D02*
X158581D01*
X166769Y133462D02*
X167073Y133462D01*
X166618Y133614D02*
X167224Y133614D01*
X166618Y137253D02*
X171167D01*
X168134Y137404D02*
X168741D01*
X168892D02*
X171167D01*
X169650Y137556D02*
X171167D01*
X170105Y137708D02*
X171167Y137708D01*
X171318D02*
X171925D01*
X171167Y137859D02*
X172076D01*
X171167Y138011D02*
X172228D01*
X171318Y138314D02*
X172531Y138314D01*
X171318Y138466D02*
X172683D01*
X171470Y138617D02*
X172986D01*
X171621Y138769D02*
X173138D01*
X171773Y138921D02*
X173593Y138921D01*
X171773Y139072D02*
X173744D01*
X171925Y139224D02*
X174199D01*
X172076Y139375D02*
X174502D01*
X172228Y139527D02*
X174806Y139527D01*
X172228Y139679D02*
X175109D01*
X172380Y139830D02*
X175564D01*
X172443Y139982D02*
X175564D01*
X172531Y140134D02*
X176322D01*
X172531Y140285D02*
X176474Y140285D01*
X172683Y140437D02*
X177232Y140437D01*
X172683Y140589D02*
X177383D01*
X173593Y143166D02*
X177535D01*
X173593Y143318D02*
X177535Y143318D01*
X173593Y143470D02*
X177383D01*
X173593Y143621D02*
X177232D01*
X173593Y143773D02*
X177232D01*
X173744Y143924D02*
X177232D01*
X173896Y144076D02*
X177080D01*
X173896Y144228D02*
X176929Y144228D01*
X171167Y138162D02*
X172380Y138162D01*
X178748Y132401D02*
X185117D01*
X180264Y134220D02*
X189514Y134220D01*
X180264Y134372D02*
X188604D01*
X180264Y134523D02*
X188301Y134523D01*
X180568Y134675D02*
X187391D01*
X180568Y134827D02*
X187239Y134827D01*
X180568Y134978D02*
X186633D01*
X180568Y135130D02*
X186330Y135130D01*
X180871Y135281D02*
X185875D01*
X180871Y135433D02*
X185723Y135433D01*
X180871Y135585D02*
X185268D01*
X180871Y135736D02*
X185117Y135736D01*
X181174Y135888D02*
X184813D01*
X181174Y136040D02*
X184662Y136040D01*
X181174Y136191D02*
X184510D01*
X181174Y136343D02*
X184359D01*
X181326Y136495D02*
X184359D01*
X181478Y136646D02*
X184207D01*
X181478Y136798D02*
X184207Y136798D01*
X181478Y136949D02*
X184207D01*
X181478Y137101D02*
X184207D01*
X181478Y137253D02*
X184207Y137253D01*
X181478Y137404D02*
X184207Y137404D01*
X181478Y137556D02*
X184359D01*
X181632Y137708D02*
X184361Y137708D01*
X181632Y137859D02*
X184361D01*
X181478Y138011D02*
X184662Y138011D01*
X181478Y138162D02*
X184662Y138162D01*
X181478Y138314D02*
X184965D01*
X181478Y138466D02*
X184965D01*
X181478Y138617D02*
X185268Y138617D01*
X181478Y138769D02*
X185420D01*
X181478Y138921D02*
X185572D01*
X181478Y139072D02*
X185723Y139072D01*
X181478Y139224D02*
X185875D01*
X181478Y139375D02*
X185875Y139375D01*
X181174Y139527D02*
X186330Y139527D01*
X181174Y139679D02*
X186330D01*
X181023Y139830D02*
X186633D01*
X181023Y139982D02*
X186633Y139982D01*
X180719Y140134D02*
X186936Y140134D01*
X180568Y140285D02*
X186936Y140285D01*
X180416Y140437D02*
X187391D01*
X180264Y140589D02*
X187391Y140589D01*
X185572Y142105D02*
X189514Y142105D01*
X179355Y142408D02*
X183904D01*
X179506Y142560D02*
X183600Y142560D01*
X179658Y142711D02*
X183600D01*
X179810Y142863D02*
X183904D01*
X179961Y143015D02*
X183904D01*
X180113Y143166D02*
X183904Y143166D01*
X180416Y143318D02*
X184207Y143318D01*
X180568Y143470D02*
X184207D01*
X180568Y143621D02*
X184207D01*
X180719Y143773D02*
X184359Y143773D01*
X180871Y143924D02*
X184510D01*
X181023Y144076D02*
X184662D01*
X181174Y144228D02*
X184813Y144228D01*
X152516Y120725D02*
X153122D01*
X153729Y121938D02*
X155548Y121938D01*
X153729Y122090D02*
X155548Y122090D01*
X154184Y122241D02*
X156155D01*
X154184Y122393D02*
X156307D01*
X154335Y122544D02*
X156762Y122544D01*
X154487Y122696D02*
X156913D01*
X154942Y122848D02*
X157368D01*
X155094Y122999D02*
X157520D01*
X155094Y123151D02*
X157975D01*
X155397Y123302D02*
X158126D01*
X155852Y123454D02*
X158581D01*
X156003Y123606D02*
X158733D01*
X156307Y123757D02*
X159188D01*
X156762Y124061D02*
X159794D01*
X156913Y124212D02*
X159946D01*
X157217Y124364D02*
X160249D01*
X157368Y124516D02*
X160401D01*
X157671Y124667D02*
X160856D01*
X157823Y124819D02*
X161007Y124819D01*
X158126Y124971D02*
X161462D01*
X158278Y125122D02*
X161614D01*
X158581Y125274D02*
X161917D01*
X158581Y125425D02*
X162069D01*
X158884Y125577D02*
X162372D01*
X159036Y125729D02*
X162524D01*
X159491Y125880D02*
X162827Y125880D01*
X159643Y126032D02*
X162978D01*
X159794Y126184D02*
X163282D01*
X159946Y126335D02*
X163433D01*
X160401Y126487D02*
X163737Y126487D01*
X160552Y126638D02*
X163888Y126638D01*
X161007Y126790D02*
X164191D01*
X161159Y126942D02*
X164343Y126942D01*
X161462Y127093D02*
X164646Y127093D01*
X161614Y127245D02*
X164798D01*
X162069Y127397D02*
X164950D01*
X162069Y127548D02*
X165101D01*
X162524Y127700D02*
X165253D01*
X162675Y127851D02*
X165405D01*
X156307Y123909D02*
X159339D01*
X165708Y121938D02*
X167982D01*
X165708Y122090D02*
X168134D01*
X165860Y122241D02*
X168286D01*
X166011Y122393D02*
X168286D01*
X166163Y122544D02*
X168437D01*
X166163Y122696D02*
X168437D01*
X166163Y122848D02*
X168740Y122848D01*
X166314Y122999D02*
X168740Y122999D01*
X166618Y123151D02*
X168892D01*
X166618Y123302D02*
X169044D01*
X166769Y123454D02*
X169195Y123454D01*
X166769Y123606D02*
X169347Y123606D01*
X166769Y123757D02*
X169347D01*
X166921Y123909D02*
X169347D01*
X167073Y124061D02*
X169650D01*
X167073Y124212D02*
X169650Y124212D01*
X167224Y124364D02*
X169650Y124364D01*
X167224Y124516D02*
X169650D01*
X167527Y124667D02*
X169650D01*
X167527Y124819D02*
X169650D01*
X174048Y126184D02*
X177535Y126184D01*
X174199Y126335D02*
X177535Y126335D01*
X174199Y126487D02*
X177535D01*
X174199Y126638D02*
X177535D01*
X174502Y126790D02*
X177535D01*
X174654Y126942D02*
X177535Y126942D01*
X174654Y127093D02*
X177535D01*
X174806Y127245D02*
X177535D01*
X166011Y129520D02*
X166618D01*
X166314Y129671D02*
X166618Y129671D01*
X177838Y130732D02*
X179810D01*
X177838Y130884D02*
X179961D01*
X177990Y131036D02*
X180264D01*
X178142Y131187D02*
X180264Y131187D01*
X178142Y131339D02*
X180719Y131339D01*
X178293Y131491D02*
X180871D01*
X178445Y131642D02*
X181326D01*
X178445Y131794D02*
X181478D01*
X178748Y131946D02*
X182236Y131946D01*
X178748Y132097D02*
X182387D01*
X59603Y108139D02*
X68094D01*
X59754Y108291D02*
X68094Y108291D01*
X59906Y108443D02*
X68094D01*
X60058Y108594D02*
X68094D01*
X60058Y108746D02*
X68094D01*
X60058Y108897D02*
X68094D01*
X60058Y109049D02*
X68094Y109049D01*
X60058Y109201D02*
X68094D01*
X57328Y109807D02*
X64000D01*
X57328Y109959D02*
X64152D01*
X57328Y110111D02*
X64152D01*
X57328Y110262D02*
X64152D01*
X57177Y110414D02*
X64152D01*
X57328Y110566D02*
X64152D01*
X57328Y110717D02*
X63697D01*
X57025Y110869D02*
X63697D01*
X57025Y111020D02*
X63697D01*
X57025Y111172D02*
X63697D01*
X57025Y111324D02*
X63545D01*
X57025Y111475D02*
X63242Y111475D01*
X57025Y111627D02*
X62787Y111627D01*
X57025Y111779D02*
X62787Y111779D01*
X57025Y111930D02*
X61877Y111930D01*
X57025Y112082D02*
X61877D01*
X69156Y108139D02*
X72946D01*
X74008Y108139D02*
X77799Y108139D01*
X69156Y108291D02*
X72946D01*
X74008Y108291D02*
X77799D01*
X69156Y108443D02*
X72946D01*
X74008D02*
X77799D01*
X69156Y108594D02*
X72946D01*
X74008Y108594D02*
X77799Y108594D01*
X69156Y108746D02*
X72946D01*
X73856D02*
X77647D01*
X69156Y108897D02*
X72946Y108898D01*
X73856Y108897D02*
X77495Y108898D01*
X69004Y109049D02*
X72795Y109049D01*
X73553Y109049D02*
X77495Y109049D01*
X68852Y109201D02*
X72795Y109201D01*
X73553D02*
X77495D01*
X70520Y111779D02*
X74918Y111779D01*
X70672Y111930D02*
X74463Y111930D01*
X70823Y112082D02*
X74311D01*
X71278Y112233D02*
X73553D01*
X71430Y112385D02*
X73401D01*
X83124Y108139D02*
X86741D01*
X87806D02*
X91749Y108139D01*
X82996Y108291D02*
X86593Y108291D01*
X87806Y108291D02*
X91597D01*
X82954Y108443D02*
X86745D01*
X87806Y108443D02*
X91597D01*
X82954Y108594D02*
X86745Y108594D01*
X87806D02*
X91597Y108594D01*
X82875Y108746D02*
X86593D01*
X87806D02*
X91445D01*
X82807Y108898D02*
X86593D01*
X87806Y108897D02*
X91445D01*
X82651Y109049D02*
X86593Y109049D01*
X87503D02*
X91445Y109049D01*
X91597Y109049D02*
X91749Y109049D01*
X82651Y109201D02*
X86896Y109201D01*
X87503Y109201D02*
X91900D01*
X86593Y109504D02*
X91142Y109504D01*
X86593Y109656D02*
X91294D01*
X86593Y109807D02*
X91294D01*
X86593Y109959D02*
X91142D01*
X86593Y110111D02*
X91142D01*
X86290Y110414D02*
X91142D01*
X86290Y110566D02*
X91142Y110566D01*
X86138Y110717D02*
X91142D01*
X86138Y111020D02*
X90839D01*
X86290Y111172D02*
X90839D01*
X86231Y111324D02*
X90839D01*
X86169Y111475D02*
X90839Y111475D01*
X86138Y111627D02*
X90839Y111627D01*
X86138Y111779D02*
X90839D01*
X85935Y111930D02*
X90839Y111930D01*
X85855Y112082D02*
X90839D01*
X86896Y112233D02*
X91445D01*
X86896Y112385D02*
X91445D01*
X86896Y112537D02*
X90536D01*
X86896Y112688D02*
X90536D01*
X86896Y112840D02*
X90536D01*
X86896Y112992D02*
X90536Y112992D01*
X86896Y113143D02*
X90536D01*
X86593Y113295D02*
X90536Y113295D01*
X86593Y113447D02*
X90536Y113447D01*
X86593Y113598D02*
X90536Y113598D01*
X86593Y113750D02*
X90384D01*
X86593Y113901D02*
X90384D01*
X86593Y114053D02*
X90384Y114053D01*
X86593Y114205D02*
X90232D01*
X86593Y114356D02*
X90232D01*
X86593Y114508D02*
X90232Y114508D01*
X86593Y114660D02*
X90232Y114660D01*
X86593Y114811D02*
X90232D01*
X93720Y108139D02*
X98420Y108139D01*
X98724Y108139D02*
X102514D01*
X93871Y108291D02*
X98420Y108291D01*
X98724Y108291D02*
X102514D01*
X94023Y108443D02*
X98420D01*
X98724D02*
X102514D01*
X94175Y108594D02*
X98420D01*
X98724Y108594D02*
X102514D01*
X94326Y108746D02*
X98420D01*
X98724D02*
X102514D01*
X94478Y108897D02*
X98420D01*
X98724D02*
X102514Y108898D01*
X94326Y109049D02*
X102363Y109049D01*
X94175Y109201D02*
X102211D01*
X98420Y109959D02*
X102211D01*
X98420Y110111D02*
X102211D01*
X98269Y110262D02*
X102211D01*
X98117Y110717D02*
X101908D01*
X98117Y110869D02*
X101908D01*
X98117Y111020D02*
X101908D01*
X98117Y111172D02*
X101908D01*
X98117Y111324D02*
X101908D01*
X98117Y111475D02*
X101908Y111475D01*
X98117Y111627D02*
X101908D01*
X98117Y111779D02*
X101908D01*
X98117Y111930D02*
X101908Y111930D01*
X98117Y112082D02*
X101756D01*
X107518Y110111D02*
X114342Y110111D01*
X107367Y110262D02*
X114342D01*
X107367Y110414D02*
X114342Y110414D01*
X107367Y110566D02*
X114342Y110566D01*
X107367Y110717D02*
X114038D01*
X107367Y110869D02*
X114038D01*
X107215Y111020D02*
X113735D01*
X107215Y111172D02*
X113584Y111172D01*
X107215Y111324D02*
X113432Y111324D01*
X106912Y111475D02*
X113280Y111475D01*
X106912Y111627D02*
X113129Y111627D01*
X106912Y111779D02*
X112797Y111779D01*
X106912Y111930D02*
X112219D01*
X106912Y112082D02*
X112067D01*
X119497Y108139D02*
X123136Y108139D01*
X119497Y108291D02*
X123136D01*
X119497Y108443D02*
X123136D01*
X123288D02*
X125259D01*
X119497Y108594D02*
X125259Y108594D01*
X119194Y108746D02*
X125562D01*
X119194Y108897D02*
X125562D01*
X122227Y111020D02*
X127989Y111020D01*
X122530Y111324D02*
X127382D01*
X122530Y111475D02*
X127382D01*
X122530Y111627D02*
X126776D01*
X122530Y111779D02*
X126776Y111779D01*
X122833Y111930D02*
X126776D01*
X122985Y112082D02*
X126776D01*
X123440Y112233D02*
X125562D01*
X126321Y112233D02*
X126776D01*
X123591Y112385D02*
X125562Y112385D01*
X135568Y108139D02*
X139476Y108139D01*
X130529Y108291D02*
X133761Y108291D01*
X135488Y108291D02*
X139476Y108291D01*
X130529Y108443D02*
X133782D01*
X135402Y108443D02*
X139324Y108443D01*
X130529Y108594D02*
X133838D01*
X135381D02*
X139172D01*
X130529Y108746D02*
X133774D01*
X135381D02*
X139172D01*
X130529Y108897D02*
X133729D01*
X135381D02*
X139172D01*
X130529Y109049D02*
X133666Y109049D01*
X135230Y109049D02*
X139172D01*
X130529Y109201D02*
X133913D01*
X135078D02*
X139172D01*
X130529Y109353D02*
X139172D01*
X130529Y109504D02*
X139172Y109504D01*
X130529Y109656D02*
X139021D01*
X130529Y109807D02*
X138869D01*
X130378Y109959D02*
X138869Y109959D01*
X130378Y110111D02*
X138869Y110111D01*
X130378Y110262D02*
X138869D01*
X130833Y110414D02*
X138566D01*
X130833Y110566D02*
X138566D01*
X130833Y110717D02*
X138566Y110717D01*
X130994Y110869D02*
X138357D01*
X131136Y111020D02*
X138111Y111020D01*
X131136Y111172D02*
X138111D01*
X131136Y111324D02*
X137808D01*
X131287Y111475D02*
X137808Y111475D01*
X131742Y111627D02*
X137353D01*
X131894Y111779D02*
X137201D01*
X132046Y111930D02*
X136898D01*
X138828D02*
X139435D01*
X132197Y112082D02*
X136898D01*
X132955Y112233D02*
X135836D01*
X133107Y112385D02*
X135685D01*
X138980Y111475D02*
X139132Y111324D01*
X130529Y108291D02*
X133782Y108291D01*
X130550Y108139D02*
X133782Y108139D01*
X130550Y108139D02*
X133802D01*
X143984D02*
X147623D01*
X148868D02*
X152475Y108139D01*
X143984Y108291D02*
X147623Y108291D01*
X148836Y108291D02*
X152475Y108291D01*
X143984Y108443D02*
X147623D01*
X148836Y108443D02*
X152475D01*
X143984Y108594D02*
X147623D01*
X148836D02*
X152475Y108594D01*
X143984Y108746D02*
X147623D01*
X148533D02*
X152475D01*
X143984Y108897D02*
X147623Y108898D01*
X148533Y108897D02*
X152324D01*
X143984Y109049D02*
X147623Y109049D01*
X148533Y109049D02*
X152324Y109049D01*
X143984Y109201D02*
X147623D01*
X148533D02*
X152172Y109201D01*
X144894Y111779D02*
X149594D01*
X145197Y111930D02*
X149443Y111930D01*
X145349Y112082D02*
X149291D01*
X145803Y112233D02*
X148230D01*
X150959Y112233D02*
X153082D01*
X145803Y112385D02*
X148078D01*
X151111Y112385D02*
X153082D01*
X142164Y112537D02*
X142468Y112840D01*
X142164Y112385D02*
X142468Y112688D01*
X145197Y111930D02*
X145349Y112082D01*
X144287Y111020D02*
X144439Y111172D01*
X153688Y108139D02*
X157327Y108139D01*
X153688Y108291D02*
X157327Y108291D01*
X159188Y112537D02*
X159643D01*
X159188Y112688D02*
X159946D01*
X159188Y112840D02*
X160098D01*
X159188Y112992D02*
X160249D01*
X159188Y113143D02*
X160401Y113143D01*
X159188Y113295D02*
X160552Y113295D01*
X159491Y113447D02*
X160704Y113447D01*
X159643Y113598D02*
X160856D01*
X159794Y113750D02*
X161007D01*
X159794Y113901D02*
X161007D01*
X159794Y114053D02*
X161159D01*
X159946Y114205D02*
X161311Y114205D01*
X160249Y114356D02*
X161311D01*
X160401Y114508D02*
X161614Y114508D01*
X160401Y114660D02*
X161765Y114660D01*
X160552Y114811D02*
X161917D01*
X160704Y114963D02*
X161917D01*
X160704Y115114D02*
X162220D01*
X160856Y115266D02*
X162220D01*
X160856Y115418D02*
X162524D01*
X161159Y115569D02*
X162524Y115569D01*
X161159Y115721D02*
X162675Y115721D01*
X161311Y115873D02*
X162827D01*
X161462Y116024D02*
X162978D01*
X161614Y116176D02*
X163130Y116176D01*
X161614Y116327D02*
X163282Y116327D01*
X161765Y116479D02*
X163282D01*
X161917Y116631D02*
X163433D01*
X161917Y116782D02*
X163585D01*
X162069Y116934D02*
X163737D01*
X162220Y117086D02*
X163888D01*
X162220Y117237D02*
X164040Y117237D01*
X162372Y117389D02*
X164343D01*
X162372Y117541D02*
X164343D01*
X162675Y117692D02*
X164495D01*
X162675Y117844D02*
X164495Y117844D01*
X162827Y117995D02*
X164646Y117996D01*
X162978Y118147D02*
X164798D01*
X163130Y118299D02*
X164950D01*
X163130Y118450D02*
X165101D01*
X163282Y118602D02*
X165253D01*
X163433Y118754D02*
X165405D01*
X163433Y118905D02*
X165405D01*
X160656Y108746D02*
X163537D01*
X160656Y108594D02*
X163537Y108594D01*
X160656Y108443D02*
X163537Y108443D01*
X160656Y108291D02*
X163537D01*
X160656Y108139D02*
X163537D01*
X160656Y109507D02*
X163386Y109507D01*
X160656Y109364D02*
X163537D01*
X160656Y109212D02*
X163537D01*
X160671Y109059D02*
X163552Y109059D01*
X165708Y108139D02*
X173593Y108139D01*
X169650Y108746D02*
X173289D01*
X169650Y108898D02*
X173289Y108897D01*
X169650Y109049D02*
X173289Y109049D01*
X169650Y109201D02*
X173289D01*
X169650Y109353D02*
X173289Y109353D01*
X169499Y109504D02*
X173441Y109504D01*
X170560Y111930D02*
X175412D01*
X170560Y112082D02*
X175261D01*
X170863Y112233D02*
X175109Y112233D01*
X171167Y112385D02*
X174806Y112385D01*
X171773Y112537D02*
X173744D01*
X171925Y112688D02*
X173593D01*
X61574Y100558D02*
X63394Y100558D01*
X61574Y100709D02*
X63394D01*
X60361Y100861D02*
X64303D01*
X60361Y101013D02*
X64455D01*
X60058Y101164D02*
X64910D01*
X60058Y101316D02*
X64910Y101316D01*
X59451Y101468D02*
X65213D01*
X59451Y101619D02*
X65365D01*
X59148Y101771D02*
X65516D01*
X59148Y101923D02*
X65516D01*
X58238Y102984D02*
X65365Y102984D01*
X58238Y103136D02*
X65365Y103136D01*
X58238Y103287D02*
X65365D01*
X58238Y103439D02*
X65365D01*
X58238Y103590D02*
X62635D01*
X58086Y103742D02*
X62484D01*
X58086Y103894D02*
X62332Y103894D01*
X58087Y104045D02*
X62181Y104045D01*
X58238Y104197D02*
X62150D01*
X58238Y104349D02*
X62181Y104349D01*
X57935Y104500D02*
X62181D01*
X64303D02*
X65061Y104500D01*
X57935Y104652D02*
X62181D01*
X57935Y104803D02*
X62484D01*
X57935Y104955D02*
X62484D01*
X64910D02*
X65061Y104955D01*
X57935Y105107D02*
X62484D01*
X57935Y105258D02*
X62484D01*
X58087Y105410D02*
X62787D01*
X58238Y105562D02*
X62787Y105562D01*
X58087Y105713D02*
X63090D01*
X58238Y105865D02*
X63090Y105865D01*
X58238Y106017D02*
X63090Y106017D01*
X58238Y106168D02*
X63090D01*
X58390Y106320D02*
X63394Y106320D01*
X58541Y106472D02*
X63394D01*
X58541Y106623D02*
X63697D01*
X58541Y106775D02*
X63849D01*
X64607Y106775D02*
X68397Y106775D01*
X58693Y106926D02*
X64000Y106926D01*
X64607D02*
X68397Y106926D01*
X58845Y107078D02*
X64000D01*
X64607D02*
X68397D01*
X58996Y107230D02*
X64000Y107230D01*
X64607Y107230D02*
X68397Y107230D01*
X59148Y107381D02*
X64000D01*
X64607D02*
X68397Y107381D01*
X59148Y107533D02*
X64000D01*
X64303D02*
X68397D01*
X59148Y107684D02*
X64152D01*
X64303D02*
X68397D01*
X59300Y107836D02*
X68246D01*
X70975Y100861D02*
X74159D01*
X75524D02*
X79315D01*
X70975Y101013D02*
X74159D01*
X75524D02*
X79315D01*
X70672Y101164D02*
X74159Y101164D01*
X75524D02*
X79315D01*
X70672Y101316D02*
X74159D01*
X75524D02*
X79315Y101316D01*
X70672Y101468D02*
X74159D01*
X75373D02*
X79222D01*
X70672Y101619D02*
X74159Y101619D01*
X75322D02*
X79176Y101619D01*
X70672Y101771D02*
X74159D01*
X75266Y101771D02*
X79012Y101771D01*
X70672Y101923D02*
X74159D01*
X75312D02*
X79012D01*
X70672Y102074D02*
X74159D01*
X75221D02*
X79012D01*
X70672Y102226D02*
X74159D01*
X75221D02*
X79012D01*
X70672Y102377D02*
X74159Y102377D01*
X75221Y102377D02*
X79012D01*
X70672Y102529D02*
X74159Y102529D01*
X75221Y102529D02*
X79012Y102529D01*
X70369Y102681D02*
X74159D01*
X75221D02*
X79012D01*
X70369Y102832D02*
X74159Y102832D01*
X75221D02*
X79012D01*
X70369Y102984D02*
X73856D01*
X75069D02*
X79012D01*
X70369Y103136D02*
X73856D01*
X74918D02*
X79012D01*
X70369Y103287D02*
X73856D01*
X74918D02*
X78708D01*
X70369Y103439D02*
X73856D01*
X74918D02*
X78708D01*
X70369Y103590D02*
X73856Y103590D01*
X74918Y103590D02*
X78708D01*
X70369Y103742D02*
X73856D01*
X74918D02*
X78708D01*
X70065Y103894D02*
X73856D01*
X74918D02*
X78708D01*
X70065Y104045D02*
X73856Y104045D01*
X74918Y104045D02*
X78708D01*
X70065Y104197D02*
X73856D01*
X74918D02*
X78708D01*
X70065Y104349D02*
X73856D01*
X74918D02*
X78708D01*
X70065Y104500D02*
X73553Y104500D01*
X74766Y104500D02*
X79163D01*
X70065Y104652D02*
X73553D01*
X74614D02*
X79163D01*
X70065Y104803D02*
X73553D01*
X74614D02*
X78557D01*
X78708D02*
X79163D01*
X70065Y104955D02*
X73553Y104955D01*
X74614D02*
X78405D01*
X78708Y104955D02*
X79315Y104955D01*
X70065Y105107D02*
X73553D01*
X74614D02*
X78405D01*
X70065Y105258D02*
X73553D01*
X74614D02*
X78405D01*
X69762Y105410D02*
X73553Y105410D01*
X74614D02*
X78405D01*
X69762Y105562D02*
X73553D01*
X74614Y105562D02*
X78405Y105562D01*
X69762Y105713D02*
X73553D01*
X74614D02*
X78405D01*
X69762Y105865D02*
X73553D01*
X74614Y105865D02*
X78405D01*
X69762Y106017D02*
X73401D01*
X74463D02*
X78253D01*
X69762Y106168D02*
X73250D01*
X74311D02*
X78102D01*
X69762Y106320D02*
X73250D01*
X74311D02*
X78102D01*
X69762Y106472D02*
X73250D01*
X74311D02*
X78102D01*
X69459Y106623D02*
X73250D01*
X74311Y106623D02*
X78102D01*
X69459Y106775D02*
X73250Y106775D01*
X74311Y106775D02*
X78102Y106775D01*
X69459Y106926D02*
X73250D01*
X74311D02*
X78102D01*
X69459Y107078D02*
X73250D01*
X74311D02*
X78102D01*
X69459Y107230D02*
X73098D01*
X74159Y107230D02*
X78102Y107230D01*
X69459Y107381D02*
X72946D01*
X74008Y107381D02*
X78102Y107381D01*
X69459Y107533D02*
X72946D01*
X74008D02*
X77950D01*
X69459Y107684D02*
X72946D01*
X74008D02*
X77799D01*
X69459Y107836D02*
X72946D01*
X74008D02*
X77799D01*
X82651Y100558D02*
X84774Y100558D01*
X89929Y100558D02*
X91142Y100558D01*
X82499Y100709D02*
X84774D01*
X89929Y100709D02*
X91142Y100709D01*
X81438Y100861D02*
X85532D01*
X89019Y100861D02*
X92052D01*
X81438Y101013D02*
X85683D01*
X89019D02*
X92052D01*
X81138Y101164D02*
X86593D01*
X88413Y101164D02*
X92052Y101164D01*
X80831Y101316D02*
X86593D01*
X88413D02*
X92052D01*
X88413Y101468D02*
X92355D01*
X88413Y101619D02*
X92423D01*
X88110Y101771D02*
X92659D01*
X88110Y101923D02*
X92659D01*
X88110Y102074D02*
X92659D01*
X88110Y102226D02*
X92659D01*
X88110Y102377D02*
X92659D01*
X87806Y103439D02*
X88413Y103439D01*
X83561Y103590D02*
X87655Y103590D01*
X87806D02*
X88413D01*
X83561Y103742D02*
X87655D01*
X87958D02*
X88261D01*
X83712Y103894D02*
X87503D01*
X83864Y104045D02*
X87503D01*
X83864Y104197D02*
X87503D01*
X83864Y104349D02*
X87503D01*
X83864Y104500D02*
X87503D01*
X83712Y104652D02*
X87503Y104652D01*
X83561Y104803D02*
X87503D01*
X83561Y104955D02*
X87503Y104955D01*
X88413Y105410D02*
X92204Y105410D01*
X88413Y105562D02*
X92052Y105562D01*
X88413Y105713D02*
X92204Y105713D01*
X88413Y105865D02*
X92204D01*
X88413Y106017D02*
X92052D01*
X88413Y106168D02*
X92052D01*
X88110Y106320D02*
X92052D01*
X88110Y106472D02*
X92052D01*
X88110Y106623D02*
X92052D01*
X88110Y106775D02*
X91900Y106775D01*
X88110Y106926D02*
X91900Y106926D01*
X88110Y107078D02*
X91900D01*
X88110Y107230D02*
X91749D01*
X87958Y107381D02*
X91749D01*
X88110Y107533D02*
X91749D01*
X83257Y107684D02*
X86896Y107684D01*
X88110D02*
X91749D01*
X83200Y107836D02*
X86896Y107836D01*
X87806Y107836D02*
X91749Y107836D01*
X88110Y102529D02*
X92658Y102529D01*
X104182Y97677D02*
X104334D01*
X95691Y100558D02*
X97511Y100558D01*
X100543Y100558D02*
X104637Y100558D01*
X95691Y100709D02*
X97662D01*
X100543D02*
X104486D01*
X94630Y100861D02*
X98420D01*
X100240D02*
X104334Y100861D01*
X94478Y101013D02*
X98572D01*
X100240D02*
X104120D01*
X94326Y101164D02*
X99027D01*
X100240D02*
X104177D01*
X94175Y101316D02*
X99027Y101316D01*
X100240Y101316D02*
X104031D01*
X93568Y101468D02*
X99330D01*
X100240D02*
X104031D01*
X93568Y101619D02*
X99482Y101619D01*
X100240Y101619D02*
X104031Y101619D01*
X93417Y101771D02*
X99634Y101771D01*
X93265Y101923D02*
X99785Y101923D01*
X92962Y102074D02*
X99785D01*
X92962Y102226D02*
X99785Y102226D01*
X92962Y102377D02*
X99785D01*
X92962Y102529D02*
X99785D01*
X97511Y103590D02*
X99482D01*
X97662Y103742D02*
X99482D01*
X98117Y103894D02*
X99482D01*
X98117Y104045D02*
X99330D01*
X98420Y104197D02*
X99330D01*
X99634D02*
X103728D01*
X98420Y104349D02*
X99482D01*
X99634D02*
X103576D01*
X98724Y104500D02*
X99482D01*
X99634D02*
X103424D01*
X98724Y104652D02*
X99330Y104652D01*
X99634D02*
X103424D01*
X98724Y104803D02*
X103424D01*
X99330Y104955D02*
X103424Y104955D01*
X99330Y105107D02*
X103121Y105107D01*
X99330Y105258D02*
X103121D01*
X99330Y105410D02*
X103121D01*
X99330Y105562D02*
X103121Y105562D01*
X99330Y105713D02*
X103121D01*
X99330Y105865D02*
X103121Y105865D01*
X99330Y106017D02*
X103121D01*
X99330Y106168D02*
X103121D01*
X99229Y106320D02*
X102969Y106320D01*
X99131Y106472D02*
X102818D01*
X99027Y106623D02*
X102818D01*
X99027Y106775D02*
X102818D01*
X99027Y106926D02*
X102818D01*
X92962Y107078D02*
X98001D01*
X99027D02*
X102818D01*
X93113Y107230D02*
X98117D01*
X99027Y107230D02*
X102818Y107230D01*
X93265Y107381D02*
X98117Y107381D01*
X99027D02*
X102818D01*
X93265Y107533D02*
X98420D01*
X98724D02*
X102818D01*
X93255Y107684D02*
X98420D01*
X98724Y107684D02*
X102818Y107684D01*
X93417Y107836D02*
X98420D01*
X98724D02*
X102666D01*
X106912Y97677D02*
X107367D01*
X106154Y100406D02*
X109100D01*
X107215Y100558D02*
X109181Y100558D01*
X111612D02*
X113735D01*
X107367Y100709D02*
X109209D01*
X111158D02*
X111309D01*
X111461D02*
X113735D01*
X107973Y100861D02*
X109186D01*
X110703D02*
X114645D01*
X108277Y101013D02*
X109186D01*
X110703D02*
X114645D01*
X108580Y101164D02*
X109186Y101164D01*
X110096D02*
X114948D01*
X110096Y101316D02*
X114948Y101316D01*
X109793Y101468D02*
X115252D01*
X109641Y101619D02*
X115252D01*
X109489Y101771D02*
X115555D01*
X109208Y101923D02*
X115555D01*
X109110Y102074D02*
X115858D01*
X109035Y102226D02*
X115858D01*
X108883Y102377D02*
X115858D01*
X108883Y102529D02*
X115858Y102529D01*
X108883Y102681D02*
X115555D01*
X108731Y102832D02*
X115555D01*
X108428Y103590D02*
X112825D01*
X108428Y103742D02*
X112674D01*
X114645Y104803D02*
X115100Y104803D01*
X108428Y105713D02*
X113129Y105713D01*
X108428Y105865D02*
X113129D01*
X108580Y106017D02*
X113432D01*
X108428Y106168D02*
X113432D01*
X108428Y106320D02*
X113735D01*
X108580Y106472D02*
X113735D01*
X108731Y106623D02*
X114038Y106623D01*
X108883Y106775D02*
X114038D01*
X109035Y106926D02*
X114038D01*
X109186Y107078D02*
X114038D01*
X109186Y107230D02*
X114342Y107230D01*
X109186Y107381D02*
X114342D01*
X109338Y107533D02*
X114342D01*
X109489Y107684D02*
X114342D01*
X109641Y107836D02*
X114342D01*
X119194Y100558D02*
X121014D01*
X119194Y100709D02*
X121013D01*
X127685D02*
X128443D01*
X117981Y100861D02*
X121923D01*
X117981Y101013D02*
X121923D01*
X117374Y101164D02*
X122530D01*
X117374Y101316D02*
X122530D01*
X119952Y103590D02*
X124046D01*
X120104Y103742D02*
X124046D01*
X120255Y103894D02*
X124046Y103894D01*
X120407Y104045D02*
X124046D01*
X120407Y104197D02*
X124046D01*
X120407Y104349D02*
X124046D01*
X120104Y104500D02*
X124046D01*
X120104Y104652D02*
X124046D01*
X120104Y104803D02*
X123895D01*
X120104Y104955D02*
X123895D01*
X120104Y105107D02*
X123895D01*
X120104Y105258D02*
X123895D01*
X120104Y105410D02*
X123743D01*
X120104Y105562D02*
X123743D01*
X120104Y105713D02*
X123743D01*
X120104Y105865D02*
X123743Y105865D01*
X119801Y106017D02*
X123743Y106017D01*
X119801Y106168D02*
X123743D01*
X119801Y106320D02*
X123743D01*
X119801Y106472D02*
X123591D01*
X119801Y106623D02*
X123591D01*
X119801Y106775D02*
X123591D01*
X119801Y106926D02*
X123440Y106926D01*
X119801Y107078D02*
X123440D01*
X119497Y107230D02*
X123440Y107230D01*
X119497Y107381D02*
X123440Y107381D01*
X119497Y107533D02*
X123440Y107533D01*
X119497Y107684D02*
X123440Y107684D01*
X119497Y107836D02*
X123440Y107836D01*
X135533Y100558D02*
X137201Y100558D01*
X134775Y100709D02*
X135078Y100709D01*
X135381D02*
X137353Y100709D01*
X134320Y100861D02*
X138111D01*
X134169Y101013D02*
X138263D01*
X133410Y101164D02*
X138717Y101164D01*
X133410Y101316D02*
X138869Y101316D01*
X132804Y101468D02*
X139021D01*
X132955Y101619D02*
X139172D01*
X132652Y101771D02*
X139324D01*
X132652Y101923D02*
X139476D01*
X132500Y102074D02*
X139538D01*
X132349Y102226D02*
X139648D01*
X132197Y102377D02*
X139779Y102377D01*
X131742Y102529D02*
X139779Y102529D01*
X131742Y102681D02*
X140082D01*
X131742Y102832D02*
X140082Y102832D01*
X131742Y102984D02*
X140082D01*
X131742Y103136D02*
X140082D01*
X131742Y103287D02*
X140082D01*
X131742Y103439D02*
X140082Y103439D01*
X136291Y103590D02*
X140082Y103590D01*
X136291Y103742D02*
X140082D01*
X131439Y103894D02*
X135230D01*
X136291D02*
X140082Y103894D01*
X131439Y104045D02*
X135230D01*
X136291Y104045D02*
X140082D01*
X131439Y104197D02*
X135230D01*
X136291D02*
X140082D01*
X131439Y104349D02*
X135230Y104349D01*
X136291D02*
X140082D01*
X131439Y104500D02*
X135230Y104500D01*
X136291Y104500D02*
X140082Y104500D01*
X131439Y104652D02*
X135230Y104652D01*
X136291D02*
X140082D01*
X131439Y104803D02*
X135078D01*
X136291D02*
X140082Y104803D01*
X131439Y104955D02*
X134927Y104955D01*
X136291Y104955D02*
X140082Y104955D01*
X136291Y105107D02*
X140082D01*
X136291Y105258D02*
X140082D01*
X135988Y105410D02*
X139930D01*
X135988Y105562D02*
X139779Y105562D01*
X135988Y105713D02*
X139779D01*
X135988Y105865D02*
X139779D01*
X135988Y106017D02*
X139779D01*
X135988Y106168D02*
X139779D01*
X135988Y106320D02*
X139779D01*
X135988Y106472D02*
X139779D01*
X135988Y106623D02*
X139779Y106623D01*
X135988Y106775D02*
X139779Y106775D01*
X135685Y106926D02*
X139627D01*
X135685Y107078D02*
X139476D01*
X135685Y107230D02*
X139476D01*
X135685Y107381D02*
X139476D01*
X135685Y107533D02*
X139476D01*
X130833Y107684D02*
X133973D01*
X135685D02*
X139476D01*
X135685Y107836D02*
X139476Y107836D01*
X130833Y107533D02*
X133994D01*
X130590Y107836D02*
X133822D01*
X141406Y100861D02*
X145197D01*
X145500D02*
X149139D01*
X141406Y101013D02*
X145349D01*
X145500D02*
X149139D01*
X141406Y101164D02*
X145349D01*
X145500D02*
X149291Y101164D01*
X141406Y101316D02*
X145197Y101316D01*
X145500D02*
X149291D01*
X145349Y101468D02*
X149291D01*
X145349Y101619D02*
X149291Y101619D01*
X145349Y101771D02*
X149139Y101771D01*
X145349Y101923D02*
X149139D01*
X145197Y102074D02*
X149030Y102074D01*
X145197Y102226D02*
X148836D01*
X145197Y102377D02*
X148836D01*
X145197Y102529D02*
X148836D01*
X145197Y102681D02*
X148836D01*
X145197Y102832D02*
X148836Y102832D01*
X145197Y102984D02*
X148836D01*
X145045Y103136D02*
X148836D01*
X144894Y103287D02*
X148836D01*
X144894Y103439D02*
X148836Y103439D01*
X144894Y103590D02*
X148685D01*
X144894Y103742D02*
X148533D01*
X144894Y103894D02*
X148533D01*
X144894Y104045D02*
X148533D01*
X144742Y104197D02*
X148533D01*
X149746D02*
X153233D01*
X144742Y104349D02*
X148533D01*
X149746Y104349D02*
X153233Y104349D01*
X144742Y104500D02*
X148533D01*
X149746Y104500D02*
X153233Y104500D01*
X144742Y104652D02*
X148533Y104652D01*
X149594Y104652D02*
X153233D01*
X144590Y104803D02*
X148381D01*
X149594D02*
X153082D01*
X144590Y104955D02*
X148230D01*
X149594D02*
X153082D01*
X144590Y105107D02*
X148381Y105107D01*
X149443Y105107D02*
X153082Y105107D01*
X144591Y105258D02*
X148230D01*
X149443D02*
X153082D01*
X144439Y105410D02*
X148230D01*
X149443D02*
X153082Y105410D01*
X144439Y105562D02*
X148230D01*
X149443D02*
X153082D01*
X144439Y105713D02*
X148230D01*
X149443Y105713D02*
X152930Y105713D01*
X144439Y105865D02*
X148230D01*
X149291Y105865D02*
X152930D01*
X144287Y106017D02*
X148230D01*
X149291D02*
X152930D01*
X144287Y106168D02*
X148230Y106168D01*
X149443D02*
X152930D01*
X144287Y106320D02*
X148078Y106320D01*
X149139Y106320D02*
X152779Y106320D01*
X144287Y106472D02*
X147926D01*
X149139D02*
X152779Y106471D01*
X144287Y106623D02*
X147926D01*
X149139D02*
X152779D01*
X144287Y106775D02*
X147926Y106775D01*
X149139Y106775D02*
X152779Y106775D01*
X144136Y106926D02*
X147926D01*
X149139Y106926D02*
X152779Y106926D01*
X144136Y107078D02*
X147926D01*
X149139D02*
X152779D01*
X144136Y107230D02*
X147926D01*
X149139D02*
X152779D01*
X144136Y107381D02*
X147926D01*
X149139D02*
X152475D01*
X143984Y107533D02*
X147775D01*
X149139D02*
X152475D01*
X143984Y107684D02*
X147623Y107684D01*
X149139D02*
X152475D01*
X143984Y107836D02*
X147623D01*
X149004D02*
X152475D01*
X150049Y102681D02*
X150201Y102529D01*
X149139Y101771D02*
X149291Y101619D01*
X155205Y100861D02*
X159147D01*
X155205Y101013D02*
X159147D01*
X154901Y101164D02*
X159147D01*
X154901Y101316D02*
X159147Y101316D01*
X154901Y101468D02*
X159147D01*
X154901Y101619D02*
X158996D01*
X154901Y101771D02*
X158692D01*
X154901Y101923D02*
X158692D01*
X154901Y102074D02*
X158541Y102074D01*
X154901Y102377D02*
X158541Y102377D01*
X154901Y102529D02*
X158692D01*
X154598Y102681D02*
X158692D01*
X154598Y102832D02*
X158541Y102832D01*
X154598Y102984D02*
X158389D01*
X154598Y103136D02*
X158389D01*
X154598Y103287D02*
X158389D01*
X154598Y103439D02*
X158389Y103439D01*
X154598Y103590D02*
X158237Y103590D01*
X154598Y103742D02*
X158237D01*
X154598Y103894D02*
X158237D01*
X154598Y104045D02*
X158237Y104045D01*
X161566D02*
X165357D01*
X154295Y104197D02*
X158237D01*
X161566D02*
X164971D01*
X154295Y104349D02*
X158237Y104349D01*
X161566D02*
X164533D01*
X154295Y104500D02*
X158086Y104500D01*
X161566D02*
X164286D01*
X154295Y104652D02*
X158086D01*
X161566D02*
X164295D01*
X154295Y104803D02*
X158086Y104803D01*
X154295Y104955D02*
X158086D01*
X154295Y105107D02*
X157934Y105107D01*
X154295Y105258D02*
X157934D01*
X154295Y105410D02*
X157934D01*
X154295Y105562D02*
X157934Y105562D01*
X153992Y105713D02*
X157782Y105713D01*
X153992Y105865D02*
X157782Y105865D01*
X153992Y106017D02*
X157782Y106017D01*
X153992Y106168D02*
X157782Y106168D01*
X153992Y106320D02*
X157631D01*
X153992Y106472D02*
X157631D01*
X153992Y106623D02*
X157631Y106623D01*
X153992Y106775D02*
X157631Y106775D01*
X153688Y106926D02*
X157631Y106926D01*
X153688Y107078D02*
X157631D01*
X153688Y107230D02*
X157631Y107230D01*
X153688Y107381D02*
X157479Y107381D01*
X153688Y107533D02*
X157479D01*
X153688Y107684D02*
X157479Y107684D01*
X153688Y107836D02*
X157327D01*
X154820Y102223D02*
X158541Y102223D01*
X167934Y101013D02*
X168086D01*
X171015Y101164D02*
X174806D01*
X170863Y101316D02*
X174806Y101316D01*
X170863Y101468D02*
X174806D01*
X170863Y101619D02*
X174957D01*
X171015Y101771D02*
X174957D01*
X171015Y101923D02*
X174957D01*
X170863Y102074D02*
X174806D01*
X170863Y102226D02*
X174806D01*
X170863Y102377D02*
X174806Y102377D01*
X170863Y102529D02*
X174806D01*
X170863Y102681D02*
X174503D01*
X170712Y102832D02*
X174503D01*
X170712Y102984D02*
X174502D01*
X170712Y103136D02*
X174502D01*
X170712Y103287D02*
X174502D01*
X170712Y103439D02*
X174502D01*
X170560Y103590D02*
X174502Y103590D01*
X170560Y103742D02*
X174502D01*
X166267Y103894D02*
X170209Y103894D01*
X170560Y103894D02*
X174502Y103894D01*
X166267Y104045D02*
X170209D01*
X170560Y104045D02*
X174502Y104045D01*
X166418Y104197D02*
X170209D01*
X170560D02*
X174199D01*
X166418Y104349D02*
X170209D01*
X170560D02*
X174199D01*
X166418Y104500D02*
X170209D01*
X170560D02*
X174199Y104500D01*
X166418Y104652D02*
X170209D01*
X170560D02*
X174199D01*
X166466Y104803D02*
X174199D01*
X166466Y104955D02*
X174199D01*
X170257Y106017D02*
X173896D01*
X170105Y106168D02*
X173896D01*
X170105Y106320D02*
X173896Y106320D01*
X169953Y107230D02*
X173593Y107230D01*
X169953Y107381D02*
X173593D01*
X169802Y107533D02*
X173593D01*
X170687Y105106D02*
X174180D01*
X166418Y105107D02*
X170209D01*
X187846Y152113D02*
X189969D01*
X187998Y152264D02*
X189969D01*
X188149Y152416D02*
X190121D01*
X188301Y152567D02*
X190121D01*
X188453Y152719D02*
X190272Y152719D01*
X188453Y152871D02*
X190272D01*
X188453Y153022D02*
X190575D01*
X188604Y153174D02*
X190575Y153174D01*
X188907Y153326D02*
X190727D01*
X188907Y153477D02*
X190727D01*
X189211Y153629D02*
X190879D01*
X189362Y153780D02*
X190879D01*
X189362Y153932D02*
X191182D01*
X189514Y154084D02*
X191182D01*
X189666Y154235D02*
X191182D01*
X189817Y154387D02*
X191182Y154387D01*
X179051Y132552D02*
X189817D01*
X179203Y132704D02*
X189969D01*
X179355Y132855D02*
X193608D01*
X179355Y133007D02*
X193608D01*
X179506Y133159D02*
X193608D01*
X179658Y133310D02*
X193608D01*
X179658Y133462D02*
X193305D01*
X179658Y133614D02*
X193153D01*
X165556Y133765D02*
X167831D01*
X179961D02*
X191485Y133765D01*
X165405Y133917D02*
X167982D01*
X179961D02*
X191334Y133917D01*
X164343Y134068D02*
X168134Y134068D01*
X180113Y134068D02*
X189817D01*
X164191Y134220D02*
X168286D01*
X163433Y134372D02*
X168589D01*
X163282Y134523D02*
X168589D01*
X162524Y134675D02*
X168892D01*
X162372Y134827D02*
X169044D01*
X161311Y134978D02*
X169044Y134978D01*
X161159Y135130D02*
X169195Y135130D01*
X160401Y135281D02*
X169347D01*
X160249Y135433D02*
X169499D01*
X159643Y136798D02*
X170712Y136798D01*
X161765Y136949D02*
X170863D01*
X164040Y137101D02*
X171167D01*
X172834Y140740D02*
X187846Y140740D01*
X172834Y140892D02*
X187846D01*
X172986Y141044D02*
X188301D01*
X172986Y141195D02*
X188453D01*
X172986Y141347D02*
X188604D01*
X173138Y141498D02*
X188756D01*
X173289Y141650D02*
X188908D01*
X173289Y141802D02*
X189059D01*
X173289Y141953D02*
X189514Y141953D01*
X173289Y142105D02*
X183904D01*
X173289Y142256D02*
X183904D01*
X185723D02*
X189817D01*
X173289Y142408D02*
X178596D01*
X186178D02*
X189969D01*
X173289Y142560D02*
X178445Y142560D01*
X186330Y142560D02*
X190424D01*
X173593Y142711D02*
X177990D01*
X186785Y142711D02*
X190424D01*
X173593Y142863D02*
X177990Y142863D01*
X186936D02*
X190727D01*
X173593Y143015D02*
X177687Y143015D01*
X187391D02*
X190879Y143015D01*
X187543Y143166D02*
X191334D01*
X187998Y143318D02*
X191334Y143318D01*
X188149Y143470D02*
X191637D01*
X188604Y143621D02*
X191788D01*
X188756Y143773D02*
X192092Y143773D01*
X189211Y143924D02*
X192243D01*
X189362Y144076D02*
X192547D01*
X189817Y144228D02*
X192698D01*
X152516Y120876D02*
X153426Y120877D01*
X152516Y121028D02*
X153729Y121028D01*
X152516Y121180D02*
X153881D01*
X152819Y121331D02*
X154335D01*
X152819Y121483D02*
X154487D01*
X153123Y121635D02*
X154942D01*
X153274Y121786D02*
X155094Y121786D01*
X164495Y120270D02*
X166618D01*
X164646Y120422D02*
X166769D01*
X164646Y120573D02*
X166921D01*
X164798Y120725D02*
X167073D01*
X164798Y120877D02*
X167073D01*
X164950Y121028D02*
X167224D01*
X165101Y121180D02*
X167224D01*
X165253Y121331D02*
X167376D01*
X165405Y121483D02*
X167527Y121483D01*
X165404Y121635D02*
X167679D01*
X165404Y121786D02*
X167831Y121786D01*
X175109Y127397D02*
X177838Y127397D01*
X175109Y127548D02*
X177838Y127548D01*
X175261Y127700D02*
X177838D01*
X175412Y127851D02*
X177838D01*
X163130Y128003D02*
X165556D01*
X175564D02*
X177838D01*
X163282Y128155D02*
X165708D01*
X175716Y128155D02*
X177838D01*
X163585Y128306D02*
X165860D01*
X175716D02*
X177990D01*
X163737Y128458D02*
X166011D01*
X175716D02*
X178142Y128458D01*
X164191Y128610D02*
X166314D01*
X176019D02*
X178142D01*
X164343Y128761D02*
X166314D01*
X176170D02*
X178142D01*
X164646Y128913D02*
X166618D01*
X176322D02*
X178293Y128913D01*
X164798Y129065D02*
X166618D01*
X176322D02*
X178445D01*
X165405Y129216D02*
X166618D01*
X176625D02*
X178445D01*
X165556Y129368D02*
X166618Y129368D01*
X176625Y129368D02*
X178596Y129368D01*
X176777Y129520D02*
X178748D01*
X176929Y129671D02*
X178748Y129671D01*
X176929Y129823D02*
X178900D01*
X176929Y129974D02*
X178900D01*
X177080Y130126D02*
X179203D01*
X177232Y130278D02*
X179203D01*
X177383Y130429D02*
X179506Y130429D01*
X177535Y130581D02*
X179658D01*
X78102Y108139D02*
X81428Y108139D01*
X103576D02*
X107670Y108139D01*
X78102Y108291D02*
X81454Y108291D01*
X103576D02*
X107670Y108291D01*
X78102Y108443D02*
X81385D01*
X103576Y108443D02*
X107518Y108443D01*
X77950Y108594D02*
X81438D01*
X103576D02*
X107367Y108594D01*
X77950Y108746D02*
X81438D01*
X103576D02*
X107367D01*
X77950Y108897D02*
X81438D01*
X103576D02*
X107367D01*
X77950Y109049D02*
X81589Y109049D01*
X103576D02*
X107367Y109049D01*
X77950Y109201D02*
X81741D01*
X103576Y109201D02*
X107367D01*
X77950Y109353D02*
X102211Y109353D01*
X103576D02*
X107367D01*
X77950Y109504D02*
X86290Y109504D01*
X91445Y109504D02*
X102211D01*
X103576Y109504D02*
X107367Y109504D01*
X77950Y109656D02*
X86290Y109656D01*
X91445Y109656D02*
X102211D01*
X103424D02*
X107367D01*
X64303Y109807D02*
X77495D01*
X77950D02*
X86290D01*
X91445D02*
X102211D01*
X103273D02*
X107064D01*
X64303Y109959D02*
X77495D01*
X77950D02*
X86290D01*
X91445D02*
X98269D01*
X103273Y109959D02*
X107064Y109959D01*
X64303Y110111D02*
X77495D01*
X77950D02*
X86290D01*
X91445Y110111D02*
X98269D01*
X103273Y110111D02*
X107063D01*
X64303Y110262D02*
X77495D01*
X77950D02*
X91142D01*
X91445D02*
X98117D01*
X103273D02*
X107063D01*
X64607Y110414D02*
X77495D01*
X78102D02*
X85987D01*
X91445D02*
X102211D01*
X103273D02*
X107064D01*
X64607Y110566D02*
X77495D01*
X78102D02*
X85987D01*
X91445D02*
X102060D01*
X103273D02*
X107064D01*
X64607Y110717D02*
X77192D01*
X78253D02*
X85987D01*
X91445D02*
X97966D01*
X103273D02*
X107064D01*
X64607Y110869D02*
X77192D01*
X78405Y110869D02*
X85987Y110869D01*
X86138D02*
X97966D01*
X103121Y110869D02*
X107064Y110869D01*
X64910Y111020D02*
X75979D01*
X78405Y111020D02*
X85683Y111020D01*
X91142Y111020D02*
X97966Y111020D01*
X103023D02*
X107064D01*
X64910Y111172D02*
X75827Y111172D01*
X78405Y111172D02*
X85683D01*
X91142D02*
X97966D01*
X103015D02*
X106912D01*
X65057Y111324D02*
X75524D01*
X78708D02*
X85380Y111324D01*
X91142Y111324D02*
X97511D01*
X102969Y111324D02*
X106760Y111324D01*
X65078Y111475D02*
X75524D01*
X78708D02*
X85229D01*
X91142D02*
X97511Y111475D01*
X102969Y111475D02*
X106760D01*
X65213Y111627D02*
X75069D01*
X79012D02*
X84774D01*
X91142D02*
X96904D01*
X102969D02*
X106760D01*
X65365Y111779D02*
X70369Y111779D01*
X79012Y111779D02*
X84622D01*
X91142Y111779D02*
X96904Y111779D01*
X102969D02*
X106760Y111779D01*
X65516Y111930D02*
X69762D01*
X79618Y111930D02*
X84470Y111930D01*
X91142D02*
X95994D01*
X102969D02*
X106760D01*
X65668Y112082D02*
X69762D01*
X79618Y112082D02*
X84319Y112082D01*
X90990D02*
X95994D01*
X103018Y112082D02*
X106760Y112082D01*
X66426Y112233D02*
X68549D01*
X80528D02*
X83257Y112233D01*
X66578Y112385D02*
X68549D01*
X80528D02*
X83106D01*
X139890Y108139D02*
X143529D01*
X126169Y108291D02*
X129960Y108291D01*
X139890Y108291D02*
X143377Y108291D01*
X126169Y108443D02*
X129960D01*
X139738Y108443D02*
X143377Y108443D01*
X153385D02*
X157327D01*
X126169Y108594D02*
X129960Y108594D01*
X139738Y108594D02*
X143377D01*
X153385D02*
X157176Y108594D01*
X126017Y108746D02*
X129808Y108746D01*
X139738Y108746D02*
X143377D01*
X153385D02*
X157176Y108746D01*
X126017Y108897D02*
X129808Y108898D01*
X139738Y108897D02*
X143377D01*
X153385D02*
X157176Y108898D01*
X118891Y109049D02*
X129808D01*
X139738Y109049D02*
X143377Y109049D01*
X153082Y109049D02*
X157024D01*
X118891Y109201D02*
X129808D01*
X139738D02*
X143377Y109201D01*
X153082Y109201D02*
X157024D01*
X139587Y109353D02*
X143378D01*
X143984D02*
X157024D01*
X139587Y109504D02*
X143377Y109504D01*
X143984Y109504D02*
X157024Y109504D01*
X139435Y109656D02*
X143226D01*
X143984D02*
X157024D01*
X139435Y109807D02*
X143074D01*
X143984D02*
X157024D01*
X139435Y109959D02*
X143074Y109959D01*
X143984Y109959D02*
X157024Y109959D01*
X114645Y110111D02*
X129657Y110111D01*
X139283D02*
X143074D01*
X143984Y110111D02*
X156873D01*
X114493Y110262D02*
X129657D01*
X139283D02*
X143074D01*
X143984D02*
X156873D01*
X114493Y110414D02*
X129808Y110414D01*
X139283D02*
X143074Y110414D01*
X143984D02*
X157024Y110414D01*
X114493Y110566D02*
X129808Y110566D01*
X139283D02*
X143074D01*
X143984Y110566D02*
X157024Y110566D01*
X114493Y110717D02*
X129808D01*
X139283D02*
X143074D01*
X144136Y110717D02*
X157024Y110717D01*
X114493Y110869D02*
X129657Y110869D01*
X139283D02*
X143074Y110869D01*
X144287D02*
X156873Y110869D01*
X114948Y111020D02*
X122075D01*
X139283D02*
X143074Y111020D01*
X144287Y111020D02*
X155508D01*
X114948Y111172D02*
X127989D01*
X139132Y111172D02*
X143074Y111172D01*
X144439D02*
X155356D01*
X115252Y111324D02*
X121620D01*
X139132D02*
X142771D01*
X144591D02*
X155205Y111324D01*
X115391Y111475D02*
X121468D01*
X138980D02*
X142771Y111475D01*
X144591D02*
X155205Y111475D01*
X115555Y111627D02*
X121317D01*
X138980D02*
X142771D01*
X144894D02*
X154598D01*
X115706Y111779D02*
X121317Y111779D01*
X138828D02*
X142771D01*
X149898Y111779D02*
X154446D01*
X115858Y111930D02*
X120710D01*
X140345Y111930D02*
X141406Y111930D01*
X150352D02*
X153992D01*
X116010Y112082D02*
X120559D01*
X139738D02*
X141861D01*
X150651D02*
X153840Y112082D01*
X116768Y112233D02*
X119497Y112233D01*
X139587Y112233D02*
X142013D01*
X116919Y112385D02*
X119346D01*
X139132Y112385D02*
X142164Y112385D01*
X139132Y112537D02*
X142164D01*
X138828Y112688D02*
X142468D01*
X138828Y112840D02*
X142468D01*
X138525Y112992D02*
X142619Y112992D01*
X138525Y113143D02*
X142771D01*
X138525Y113295D02*
X142771Y113295D01*
X138525Y113447D02*
X142771D01*
X138374Y113598D02*
X142619D01*
X138374Y113750D02*
X142468Y113750D01*
X138374Y113901D02*
X142468D01*
X138374Y114053D02*
X142468Y114053D01*
X138525Y114205D02*
X142468Y114205D01*
X138525Y114356D02*
X142468D01*
X138525Y114508D02*
X142316D01*
X138828Y114660D02*
X142013Y114660D01*
X138828Y114811D02*
X142013D01*
X139132Y114963D02*
X141406D01*
X139283Y115114D02*
X141255Y115114D01*
X126169Y108139D02*
X129960Y108139D01*
X165556Y108291D02*
X173593D01*
X165556Y108443D02*
X173441D01*
X165556Y108594D02*
X173289Y108594D01*
X165508Y108746D02*
X169299D01*
X165508Y108897D02*
X169299D01*
X165357Y109049D02*
X169299Y109049D01*
X165357Y109201D02*
X169299D01*
X165205Y109353D02*
X169299D01*
X165054Y109504D02*
X169299D01*
X169499Y109656D02*
X182691D01*
X160656Y109807D02*
X169148D01*
X169499D02*
X182691D01*
X160656Y109959D02*
X169148D01*
X169499D02*
X182691D01*
X160656Y110111D02*
X168996D01*
X169499D02*
X182691D01*
X160656Y110262D02*
X168996D01*
X169499D02*
X182691D01*
X160656Y110414D02*
X168996Y110414D01*
X169650D02*
X182691D01*
X160656Y110566D02*
X168844Y110566D01*
X169650Y110566D02*
X182691Y110566D01*
X160656Y110717D02*
X168693D01*
X169802D02*
X182691Y110717D01*
X160959Y110869D02*
X168693Y110869D01*
X169802Y110869D02*
X182691D01*
X160959Y111020D02*
X168541D01*
X169802D02*
X182539D01*
X160959Y111172D02*
X168389D01*
X169953Y111172D02*
X182084Y111172D01*
X160959Y111324D02*
X168238Y111324D01*
X169953D02*
X181174D01*
X161263Y111475D02*
X168086D01*
X170105D02*
X181023D01*
X161414Y111627D02*
X167934D01*
X170105D02*
X180719D01*
X161566Y111779D02*
X167783D01*
X170257D02*
X180568D01*
X161718Y111930D02*
X167480Y111930D01*
X161869Y112082D02*
X167328Y112082D01*
X162324Y112233D02*
X166721D01*
X162476Y112385D02*
X166570D01*
X163234Y112537D02*
X165812D01*
X163386Y112688D02*
X165660D01*
X163585Y119057D02*
X165556D01*
X163737Y119208D02*
X165860D01*
X163888Y119360D02*
X165860D01*
X164040Y119512D02*
X166163Y119512D01*
X164040Y119663D02*
X166314D01*
X164191Y119815D02*
X166314D01*
X164343Y119967D02*
X166314D01*
X160656Y109656D02*
X169148D01*
X104637Y97525D02*
X106608D01*
X104486Y97677D02*
X106760D01*
X103424Y97829D02*
X108277D01*
X103273Y97980D02*
X108277Y97980D01*
X102515Y98132D02*
X108883D01*
X102363Y98283D02*
X108984Y98283D01*
X102211Y98435D02*
X108976Y98435D01*
X102060Y98587D02*
X109022D01*
X101605Y98890D02*
X109017D01*
X101150Y99042D02*
X109074Y99042D01*
X101150Y99193D02*
X109048D01*
X101150Y99345D02*
X109153Y99345D01*
X101150Y99496D02*
X109127D01*
X100847Y99648D02*
X109124D01*
X100847Y99800D02*
X109164D01*
X100847Y99951D02*
X109161D01*
X100847Y100103D02*
X109189Y100103D01*
X100543Y100255D02*
X109168D01*
X100543Y100406D02*
X105395D01*
X65820Y100861D02*
X69611Y100861D01*
X65820Y101013D02*
X69611D01*
X65820Y101164D02*
X69611D01*
X65820Y101316D02*
X69611D01*
X104789D02*
X106154Y101316D01*
X65820Y101468D02*
X69611D01*
X80528D02*
X86593D01*
X104334D02*
X107064D01*
X65820Y101619D02*
X69611Y101619D01*
X80376Y101619D02*
X86593D01*
X104183Y101619D02*
X107064Y101619D01*
X65820Y101771D02*
X69611D01*
X80225D02*
X86593Y101771D01*
X100240Y101771D02*
X107518Y101771D01*
X65820Y101923D02*
X69611D01*
X80073D02*
X86593D01*
X100240D02*
X107670D01*
X79618Y102074D02*
X86896D01*
X99937Y102074D02*
X107653Y102074D01*
X79770Y102226D02*
X86896D01*
X99937D02*
X107781D01*
X79618Y102377D02*
X86967Y102377D01*
X99937Y102377D02*
X107973D01*
X79467Y102529D02*
X86993D01*
X99937Y102529D02*
X107973D01*
X79315Y102681D02*
X87200D01*
X87884D02*
X99634D01*
X99937D02*
X108277D01*
X79315Y102832D02*
X87200D01*
X87655Y102832D02*
X99785D01*
X99937D02*
X108277D01*
X65516Y102984D02*
X69307D01*
X79315D02*
X87200D01*
X87806D02*
X99785D01*
X99937D02*
X108277D01*
X65516Y103136D02*
X69307D01*
X79315D02*
X87200D01*
X87806Y103136D02*
X99634Y103136D01*
X99937D02*
X108277D01*
X65516Y103287D02*
X69307D01*
X79315D02*
X87655D01*
X87806D02*
X99482D01*
X99634D02*
X108277D01*
X65516Y103439D02*
X69307D01*
X79163D02*
X87655D01*
X88716D02*
X99482D01*
X99634Y103439D02*
X108277Y103439D01*
X63242Y103590D02*
X69004D01*
X79012Y103590D02*
X83106D01*
X88716Y103590D02*
X97056D01*
X99634D02*
X108277D01*
X63394Y103742D02*
X69004Y103742D01*
X79012D02*
X82954D01*
X88716D02*
X96601D01*
X99634D02*
X108277D01*
X63697Y103894D02*
X69004D01*
X78860D02*
X82651D01*
X88716Y103894D02*
X96449Y103894D01*
X63697Y104045D02*
X69004Y104045D01*
X78860D02*
X82651D01*
X88716D02*
X96298Y104045D01*
X64000Y104197D02*
X69004D01*
X78860D02*
X82499D01*
X88716D02*
X96298D01*
X64152Y104349D02*
X69004Y104349D01*
X78860D02*
X82347D01*
X88716Y104349D02*
X96298Y104349D01*
X65213Y104500D02*
X69004Y104500D01*
X88716Y104500D02*
X96298Y104500D01*
X64303Y104652D02*
X69004Y104652D01*
X88564D02*
X96449Y104652D01*
X64607Y104803D02*
X69004Y104803D01*
X88716Y104803D02*
X96753D01*
X65213Y104955D02*
X69004Y104955D01*
X88716D02*
X96753Y104955D01*
X64910Y105107D02*
X68701D01*
X78708D02*
X87503Y105107D01*
X88413D02*
X96753D01*
X64910Y105258D02*
X68701D01*
X78708Y105258D02*
X87503Y105258D01*
X88413D02*
X96753D01*
X64910Y105410D02*
X68701D01*
X78557D02*
X87351D01*
X92355D02*
X96904D01*
X64910Y105562D02*
X68701D01*
X78557D02*
X87200D01*
X92355D02*
X97056Y105562D01*
X64910Y105713D02*
X68701D01*
X78557D02*
X87351D01*
X92355D02*
X97207D01*
X104183Y105713D02*
X108125Y105713D01*
X64910Y105865D02*
X68701Y105865D01*
X78557Y105865D02*
X87351D01*
X92355D02*
X97207Y105865D01*
X104183D02*
X107973D01*
X64910Y106017D02*
X68701Y106017D01*
X78405D02*
X87200D01*
X92355D02*
X97280D01*
X104183D02*
X107973D01*
X64910Y106168D02*
X68701D01*
X78405D02*
X87200Y106168D01*
X92355D02*
X97432Y106168D01*
X104182D02*
X107973Y106168D01*
X64607Y106320D02*
X68701D01*
X78405Y106320D02*
X87200D01*
X92507Y106320D02*
X97511D01*
X104182D02*
X107973D01*
X64607Y106472D02*
X68701D01*
X78405Y106471D02*
X87200Y106472D01*
X92659D02*
X97662D01*
X104182D02*
X107973D01*
X64607Y106623D02*
X68549Y106623D01*
X78253Y106623D02*
X87200D01*
X92507D02*
X97814Y106623D01*
X104182Y106623D02*
X107973D01*
X78253Y106775D02*
X87200D01*
X92571D02*
X97800D01*
X104183D02*
X107973D01*
X78253Y106926D02*
X87200D01*
X92772D02*
X97898D01*
X103879Y106926D02*
X107822Y106926D01*
X78253Y107078D02*
X86896D01*
X103879D02*
X107670D01*
X78253Y107230D02*
X87048D01*
X103879D02*
X107670Y107230D01*
X78253Y107381D02*
X87048D01*
X103879D02*
X107670D01*
X78102Y107533D02*
X86896D01*
X103879D02*
X107670D01*
X78102Y107684D02*
X81741D01*
X103879D02*
X107670Y107684D01*
X78102Y107836D02*
X81638D01*
X103879Y107836D02*
X107670Y107836D01*
X101605Y98738D02*
X109061D01*
X127685Y100861D02*
X131476D01*
X150352D02*
X154295D01*
X127685Y101013D02*
X131476D01*
X150352D02*
X154295D01*
X127685Y101164D02*
X131476D01*
X150352D02*
X154295D01*
X127685Y101316D02*
X131476D01*
X150352Y101316D02*
X154295Y101316D01*
X116768Y101468D02*
X122833D01*
X127685D02*
X131476D01*
X141255D02*
X145045D01*
X150352D02*
X153840D01*
X116768Y101619D02*
X122833D01*
X127685Y101619D02*
X131476D01*
X141103Y101619D02*
X144894D01*
X150201D02*
X153840D01*
X116465Y101771D02*
X123136D01*
X127685Y101771D02*
X131476D01*
X141103D02*
X144894D01*
X150201Y101771D02*
X153688Y101771D01*
X116465Y101923D02*
X123136D01*
X127685D02*
X131476D01*
X141103D02*
X144894D01*
X150352D02*
X153688D01*
X116161Y102074D02*
X123591D01*
X127382D02*
X131628D01*
X141103D02*
X144894D01*
X150352D02*
X153688D01*
X116161Y102226D02*
X123591Y102226D01*
X127382Y102226D02*
X131628Y102226D01*
X141103Y102226D02*
X144894Y102226D01*
X150352D02*
X153688D01*
X116161Y102377D02*
X123591D01*
X127382D02*
X131628D01*
X141103D02*
X144894D01*
X150201D02*
X153688D01*
X116161Y102529D02*
X123591D01*
X127382D02*
X131173D01*
X141103Y102529D02*
X144894D01*
X150201Y102529D02*
X153688Y102529D01*
X115858Y102681D02*
X123743D01*
X127382D02*
X131173D01*
X140951D02*
X144742Y102681D01*
X150049Y102681D02*
X153537D01*
X115858Y102832D02*
X123743Y102832D01*
X127382D02*
X131173D01*
X140800D02*
X144590D01*
X150049Y102832D02*
X153385Y102832D01*
X127382Y102984D02*
X131173D01*
X140800D02*
X144591D01*
X150049D02*
X153385D01*
X127382Y103136D02*
X131173D01*
X140800D02*
X144591D01*
X149898D02*
X153385D01*
X127382Y103287D02*
X131173D01*
X140951D02*
X144591D01*
X149898D02*
X153385D01*
X127382Y103439D02*
X131173Y103439D01*
X140800Y103439D02*
X144591D01*
X150049D02*
X153385D01*
X113584Y103590D02*
X119649D01*
X127079D02*
X135115D01*
X140800D02*
X144591D01*
X149746D02*
X153385Y103590D01*
X113735Y103742D02*
X119497D01*
X127079D02*
X134964D01*
X140800D02*
X144591D01*
X149746D02*
X153385D01*
X113887Y103894D02*
X119194Y103894D01*
X127079Y103894D02*
X130870D01*
X140800D02*
X144591D01*
X149746D02*
X153385D01*
X114038Y104045D02*
X119194Y104045D01*
X127079D02*
X130870D01*
X140800D02*
X144591D01*
X149746D02*
X153385D01*
X114190Y104197D02*
X119042D01*
X127079D02*
X130870D01*
X140648D02*
X144439D01*
X114342Y104349D02*
X118891D01*
X127079D02*
X130870D01*
X140648Y104349D02*
X144287Y104349D01*
X114493Y104500D02*
X118891D01*
X127079Y104500D02*
X130718Y104500D01*
X140648D02*
X144287D01*
X114645Y104652D02*
X118891Y104652D01*
X127079Y104652D02*
X130718D01*
X140648D02*
X144287D01*
X115252Y104803D02*
X118891Y104803D01*
X127079Y104803D02*
X130870D01*
X140648Y104803D02*
X144287D01*
X115252Y104955D02*
X118891Y104955D01*
X127079Y104955D02*
X130870D01*
X140648D02*
X144287Y104955D01*
X115252Y105107D02*
X118891Y105107D01*
X126776D02*
X130870Y105107D01*
X140497Y105107D02*
X144287D01*
X115100Y105258D02*
X118891D01*
X126776D02*
X130870D01*
X140496D02*
X144287D01*
X114948Y105410D02*
X118739D01*
X126776D02*
X130566D01*
X140496D02*
X144136Y105410D01*
X114948Y105562D02*
X118739Y105562D01*
X126776D02*
X130566Y105562D01*
X140496Y105562D02*
X143984D01*
X114948Y105713D02*
X118739D01*
X126776D02*
X130566D01*
X140345Y105713D02*
X143984Y105713D01*
X114948Y105865D02*
X118739Y105865D01*
X126624Y105865D02*
X130566D01*
X140345D02*
X143984D01*
X114948Y106017D02*
X118588Y106017D01*
X126624Y106017D02*
X130566D01*
X140345D02*
X143984D01*
X114948Y106168D02*
X118588D01*
X126776Y106168D02*
X130566Y106168D01*
X140345D02*
X143984D01*
X114797Y106320D02*
X118588Y106320D01*
X126776Y106320D02*
X130566D01*
X140193D02*
X143984D01*
X114797Y106472D02*
X118588Y106471D01*
X126776Y106472D02*
X130566D01*
X140193D02*
X143984D01*
X114797Y106623D02*
X118436D01*
X126472D02*
X130566D01*
X140193D02*
X143984D01*
X114797Y106775D02*
X118284Y106775D01*
X126472Y106775D02*
X130566Y106775D01*
X140193Y106775D02*
X143984Y106775D01*
X114645Y106926D02*
X118436Y106926D01*
X126472Y106926D02*
X130415Y106926D01*
X140042Y106926D02*
X143832Y106926D01*
X114645Y107078D02*
X118436D01*
X126472D02*
X130263D01*
X140042D02*
X143681D01*
X114645Y107230D02*
X118436Y107230D01*
X126472Y107230D02*
X130263Y107230D01*
X140042D02*
X143681D01*
X114645Y107381D02*
X118436D01*
X126472Y107381D02*
X130263Y107381D01*
X140042D02*
X143681D01*
X114645Y107533D02*
X118436D01*
X126472D02*
X130263D01*
X140042D02*
X143681D01*
X114645Y107684D02*
X118588Y107684D01*
X126472D02*
X130263Y107684D01*
X140042Y107684D02*
X143681D01*
X114645Y107836D02*
X118588Y107836D01*
X139890Y107836D02*
X143681Y107836D01*
X126306D02*
X130097D01*
X164902Y100861D02*
X167480D01*
X164599Y101013D02*
X167783D01*
X163992Y101164D02*
X168389Y101164D01*
X163841Y101316D02*
X168541D01*
X163386Y101468D02*
X168844D01*
X163234Y101619D02*
X168844Y101619D01*
X163082Y101771D02*
X169148D01*
X162931Y101923D02*
X169299D01*
X162627Y102074D02*
X169451D01*
X162324Y102226D02*
X169603Y102226D01*
X162324Y102377D02*
X169754Y102377D01*
X162324Y102529D02*
X169906D01*
X162173Y102681D02*
X169906D01*
X162173Y102832D02*
X169906D01*
X161869Y102984D02*
X169906Y102984D01*
X161869Y103136D02*
X169906Y103136D01*
X161869Y103287D02*
X170209D01*
X161869Y103439D02*
X170209Y103439D01*
X161718Y103590D02*
X170209Y103590D01*
X161566Y103742D02*
X170209D01*
X161566Y103894D02*
X165508D01*
X161311Y105258D02*
X174199D01*
X161311Y105410D02*
X173896D01*
X161311Y105562D02*
X173896D01*
X161311Y105713D02*
X173896D01*
X161311Y105865D02*
X173896Y105865D01*
X161111Y106017D02*
X169906D01*
X160959Y106168D02*
X169906D01*
X160959Y106320D02*
X169906D01*
X161007Y106472D02*
X173896D01*
X161007Y106623D02*
X173896Y106623D01*
X161007Y106775D02*
X173896D01*
X161007Y106926D02*
X173744Y106926D01*
X161007Y107078D02*
X173593D01*
X160656Y107230D02*
X169603D01*
X160656Y107381D02*
X169603D01*
X160656Y107533D02*
X169603D01*
X160704Y107684D02*
X173593D01*
X160704Y107836D02*
X173593D01*
X164295Y104652D02*
X167934Y101013D01*
X159491Y135585D02*
X169650D01*
X159339Y135736D02*
X169802D01*
X157975Y135888D02*
X170105Y135888D01*
X157823Y136040D02*
X170257Y136040D01*
X157520Y136191D02*
X170257D01*
X157520Y136343D02*
X170257D01*
X157520Y136495D02*
X170408D01*
X157520Y136646D02*
X170560D01*
X57328Y109353D02*
X77495D01*
X57328Y109504D02*
X77495D01*
X57328Y109656D02*
X77495D01*
X109793Y108139D02*
X118284Y108139D01*
X110096Y108291D02*
X117981Y108291D01*
X110096Y108443D02*
X118133Y108443D01*
X110399Y108594D02*
X118133D01*
X110399Y108746D02*
X117981D01*
X110399Y108897D02*
X117981Y108898D01*
X110399Y109049D02*
X117981Y109049D01*
X110399Y109201D02*
X117981D01*
X107670Y109353D02*
X129808D01*
X107518Y109504D02*
X129808D01*
X107518Y109656D02*
X129808D01*
X107518Y109807D02*
X129657D01*
X107518Y109959D02*
X129657D01*
X58693Y102074D02*
X69611D01*
X58541Y102226D02*
X69611D01*
X58845Y102377D02*
X69307D01*
X58845Y102529D02*
X69307D01*
X58541Y102681D02*
X69307D01*
X58541Y102832D02*
X69307Y102832D01*
X108580Y102984D02*
X123895D01*
X108580Y103136D02*
X123895D01*
X108428Y103287D02*
X123895D01*
X108428Y103439D02*
X123895D01*
X99634Y103894D02*
X112674D01*
X99634Y104045D02*
X112522D01*
X104182Y104197D02*
X112522D01*
X104334Y104349D02*
X112351Y104349D01*
X104486Y104500D02*
X112300D01*
X104486Y104652D02*
X112315Y104652D01*
X104486Y104803D02*
X112522D01*
X104486Y104955D02*
X112522Y104955D01*
X104486Y105107D02*
X112674Y105107D01*
X104486Y105258D02*
X112825D01*
X104183Y105410D02*
X113129D01*
X104183Y105562D02*
X113129D01*
X173896Y144379D02*
X176929Y144379D01*
X181326D02*
X184813Y144379D01*
X189969D02*
X193153D01*
X191485Y156510D02*
X192698Y156510D01*
X59603Y107988D02*
X68094Y107988D01*
X69459D02*
X72946Y107988D01*
X74008Y107988D02*
X77799D01*
X83198D02*
X86787Y107988D01*
X87806Y107988D02*
X91749D01*
X93720D02*
X98420D01*
X98724D02*
X102514D01*
X109793D02*
X114342D01*
X119497D02*
X123288D01*
X135685Y107988D02*
X139476Y107988D01*
X130570D02*
X133802D01*
X130570D02*
X133822Y107988D01*
X143984Y107988D02*
X147623D01*
X148836D02*
X152475D01*
X153537D02*
X157327D01*
X160656D02*
X163819D01*
X164467Y107339D01*
X165708Y107988D02*
X173593Y107988D01*
X178748Y132249D02*
X184965D01*
X78102Y107988D02*
X81480D01*
X103879D02*
X107670D01*
X114645D02*
X118588D01*
X139890D02*
X143681D01*
X126169D02*
X129960D01*
X164343Y120118D02*
X166466D01*
D210*
X160660Y108901D02*
X163541Y108901D01*
M02*
