G04*
G04 #@! TF.GenerationSoftware,Altium Limited,Altium Designer,19.1.6 (110)*
G04*
G04 Layer_Physical_Order=5*
G04 Layer_Color=16737945*
%FSLAX44Y44*%
%MOMM*%
G71*
G01*
G75*
%ADD143C,1.0000*%
%ADD153C,0.1100*%
%ADD156C,0.3500*%
%ADD157C,0.4000*%
%ADD158C,0.5000*%
G36*
X186974Y217962D02*
X188020Y216395D01*
X189674Y215290D01*
X191625Y214902D01*
X193576Y215290D01*
X195230Y216395D01*
X196276Y217962D01*
X198724D01*
X199770Y216395D01*
X201424Y215290D01*
X203375Y214902D01*
X205326Y215290D01*
X206980Y216395D01*
X208027Y217962D01*
X394510Y217961D01*
X394714Y217698D01*
X395073Y216691D01*
X394660Y216073D01*
X394446Y215000D01*
X394660Y213927D01*
X395267Y213017D01*
X396177Y212410D01*
X397250Y212196D01*
X398323Y212410D01*
X399233Y213017D01*
X399840Y213927D01*
X400054Y215000D01*
X399840Y216073D01*
X399427Y216691D01*
X399786Y217698D01*
X399990Y217961D01*
X526974Y217961D01*
X528020Y216395D01*
X529674Y215290D01*
X531625Y214902D01*
X533576Y215290D01*
X535230Y216395D01*
X536276Y217961D01*
X538724D01*
X539770Y216395D01*
X541424Y215290D01*
X543375Y214902D01*
X545326Y215290D01*
X546980Y216395D01*
X548026Y217961D01*
X765461Y217961D01*
Y2039D01*
X548026Y2039D01*
X546980Y3605D01*
X545326Y4710D01*
X543375Y5098D01*
X541424Y4710D01*
X539770Y3605D01*
X538724Y2039D01*
X536276D01*
X535230Y3605D01*
X533576Y4710D01*
X531625Y5098D01*
X529674Y4710D01*
X528020Y3605D01*
X526974Y2039D01*
X208026Y2039D01*
X206980Y3605D01*
X205326Y4710D01*
X203375Y5098D01*
X201424Y4710D01*
X199770Y3605D01*
X198724Y2039D01*
X196276D01*
X195230Y3605D01*
X193576Y4710D01*
X191625Y5098D01*
X189674Y4710D01*
X188020Y3605D01*
X186974Y2039D01*
X9539Y2039D01*
Y5750D01*
X9519Y5849D01*
X9529Y5950D01*
X9433Y6926D01*
X9346Y7212D01*
X9288Y7506D01*
X8541Y9308D01*
X8099Y9970D01*
X6720Y11349D01*
X6720Y11349D01*
X6058Y11791D01*
X4256Y12538D01*
X3962Y12596D01*
X3675Y12683D01*
X2700Y12779D01*
X2599Y12769D01*
X2500Y12789D01*
X-30461D01*
Y45711D01*
X-3500D01*
X-3401Y45731D01*
X-3300Y45721D01*
X-2130Y45836D01*
X-1843Y45923D01*
X-1549Y45981D01*
X614Y46877D01*
X1275Y47319D01*
X2931Y48975D01*
X3373Y49636D01*
X4269Y51799D01*
X4424Y52579D01*
Y54921D01*
X4269Y55701D01*
X3373Y57864D01*
X2931Y58525D01*
X1275Y60181D01*
X614Y60623D01*
X-588Y61121D01*
X-1410Y62177D01*
X-1196Y63250D01*
X-1410Y64323D01*
X-2017Y65233D01*
X-2927Y65840D01*
X-4000Y66054D01*
X-5073Y65840D01*
X-5983Y65233D01*
X-6590Y64323D01*
X-6804Y63250D01*
X-6766Y63059D01*
X-7742Y61789D01*
X-30461D01*
Y163211D01*
X-3500D01*
X-3401Y163231D01*
X-3300Y163221D01*
X-2130Y163336D01*
X-1843Y163423D01*
X-1549Y163481D01*
X614Y164377D01*
X1275Y164819D01*
X2931Y166475D01*
X3373Y167136D01*
X4269Y169299D01*
X4424Y170079D01*
Y172421D01*
X4269Y173201D01*
X3373Y175364D01*
X2931Y176025D01*
X1275Y177681D01*
X614Y178123D01*
X-1549Y179018D01*
X-1843Y179077D01*
X-2130Y179164D01*
X-3300Y179279D01*
X-3401Y179269D01*
X-3500Y179289D01*
X-30461Y179289D01*
Y207211D01*
X2500Y207211D01*
X2599Y207231D01*
X2700Y207221D01*
X3675Y207317D01*
X3962Y207404D01*
X4256Y207462D01*
X6058Y208209D01*
X6720Y208651D01*
X8099Y210030D01*
X8099Y210030D01*
X8541Y210692D01*
X9288Y212494D01*
X9346Y212788D01*
X9433Y213075D01*
X9529Y214050D01*
X9519Y214151D01*
X9539Y214250D01*
Y217962D01*
X186974Y217962D01*
D02*
G37*
%LPC*%
G36*
X62000Y213554D02*
X60927Y213340D01*
X60017Y212733D01*
X60014Y212727D01*
X58486D01*
X58483Y212733D01*
X57573Y213340D01*
X56500Y213554D01*
X55427Y213340D01*
X54517Y212733D01*
X53910Y211823D01*
X53696Y210750D01*
X53910Y209677D01*
X54517Y208768D01*
X55427Y208160D01*
X56500Y207946D01*
X57573Y208160D01*
X58483Y208768D01*
X58486Y208773D01*
X60014D01*
X60017Y208768D01*
X60927Y208160D01*
X62000Y207946D01*
X63073Y208160D01*
X63983Y208768D01*
X64590Y209677D01*
X64804Y210750D01*
X64590Y211823D01*
X63983Y212733D01*
X63073Y213340D01*
X62000Y213554D01*
D02*
G37*
G36*
X222250Y214554D02*
X221177Y214340D01*
X220267Y213733D01*
X219660Y212823D01*
X219446Y211750D01*
X219564Y211159D01*
X218367Y210663D01*
X218326Y210726D01*
X216341Y212052D01*
X214000Y212518D01*
X211659Y212052D01*
X209674Y210726D01*
X208348Y208741D01*
X208297Y208486D01*
X207003D01*
X206952Y208741D01*
X205626Y210726D01*
X203641Y212052D01*
X201300Y212518D01*
X198959Y212052D01*
X196974Y210726D01*
X195648Y208741D01*
X195597Y208486D01*
X194303D01*
X194252Y208741D01*
X192926Y210726D01*
X190941Y212052D01*
X188600Y212518D01*
X186259Y212052D01*
X184274Y210726D01*
X182948Y208741D01*
X182897Y208486D01*
X181602D01*
X181552Y208741D01*
X180226Y210726D01*
X178241Y212052D01*
X175900Y212518D01*
X173559Y212052D01*
X171574Y210726D01*
X170248Y208741D01*
X170197Y208486D01*
X168902D01*
X168852Y208741D01*
X167526Y210726D01*
X165541Y212052D01*
X163200Y212518D01*
X160859Y212052D01*
X158874Y210726D01*
X157548Y208741D01*
X157497Y208486D01*
X156203D01*
X156152Y208741D01*
X154826Y210726D01*
X152841Y212052D01*
X150500Y212518D01*
X148159Y212052D01*
X146174Y210726D01*
X144848Y208741D01*
X144797Y208486D01*
X143503D01*
X143452Y208741D01*
X142126Y210726D01*
X140141Y212052D01*
X137800Y212518D01*
X135459Y212052D01*
X133474Y210726D01*
X132148Y208741D01*
X131683Y206400D01*
X132148Y204059D01*
X133474Y202074D01*
X135459Y200748D01*
X137800Y200282D01*
X140141Y200748D01*
X142126Y202074D01*
X143452Y204059D01*
X143503Y204314D01*
X144797D01*
X144848Y204059D01*
X146174Y202074D01*
X148159Y200748D01*
X150500Y200282D01*
X152841Y200748D01*
X154826Y202074D01*
X156152Y204059D01*
X156203Y204314D01*
X157497D01*
X157548Y204059D01*
X158874Y202074D01*
X160859Y200748D01*
X163200Y200282D01*
X165541Y200748D01*
X167526Y202074D01*
X168852Y204059D01*
X168902Y204314D01*
X170197D01*
X170248Y204059D01*
X171574Y202074D01*
X173559Y200748D01*
X175900Y200282D01*
X178241Y200748D01*
X180226Y202074D01*
X181552Y204059D01*
X181602Y204314D01*
X182897D01*
X182948Y204059D01*
X184274Y202074D01*
X186259Y200748D01*
X188600Y200282D01*
X190941Y200748D01*
X192926Y202074D01*
X194252Y204059D01*
X194303Y204314D01*
X195597D01*
X195648Y204059D01*
X196974Y202074D01*
X198959Y200748D01*
X201300Y200282D01*
X203641Y200748D01*
X205626Y202074D01*
X206952Y204059D01*
X207003Y204314D01*
X208297D01*
X208348Y204059D01*
X209674Y202074D01*
X211659Y200748D01*
X214000Y200282D01*
X216341Y200748D01*
X218326Y202074D01*
X218452Y202263D01*
X219892Y202392D01*
X220802Y201785D01*
X221875Y201571D01*
X222948Y201785D01*
X223858Y202392D01*
X224465Y203302D01*
X224679Y204375D01*
X224596Y204792D01*
X225000Y205196D01*
X226073Y205410D01*
X226983Y206017D01*
X226986Y206022D01*
X227237Y206007D01*
X228258Y205640D01*
X228410Y204877D01*
X229017Y203967D01*
X229927Y203360D01*
X231000Y203146D01*
X232073Y203360D01*
X232983Y203967D01*
X233590Y204877D01*
X233804Y205950D01*
X233590Y207023D01*
X232983Y207933D01*
X232073Y208540D01*
X231000Y208754D01*
X229927Y208540D01*
X229017Y207933D01*
X229014Y207928D01*
X228763Y207943D01*
X227742Y208310D01*
X227590Y209073D01*
X226983Y209983D01*
X226073Y210590D01*
X225054Y211750D01*
X224840Y212823D01*
X224233Y213733D01*
X223323Y214340D01*
X222250Y214554D01*
D02*
G37*
G36*
X515750Y215804D02*
X514677Y215590D01*
X513767Y214983D01*
X513160Y214073D01*
X512946Y213000D01*
X513160Y211927D01*
X513767Y211017D01*
X514677Y210410D01*
X515750Y210196D01*
X516823Y210410D01*
X517733Y211017D01*
X518340Y211927D01*
X518554Y213000D01*
X518340Y214073D01*
X517733Y214983D01*
X516823Y215590D01*
X515750Y215804D01*
D02*
G37*
G36*
X749500Y209054D02*
X748427Y208840D01*
X748031Y208576D01*
X746733Y208232D01*
X745823Y208840D01*
X744750Y209054D01*
X743677Y208840D01*
X742767Y208232D01*
X742160Y207323D01*
X741946Y206250D01*
X742160Y205177D01*
X742767Y204267D01*
X743677Y203659D01*
X744750Y203446D01*
X745823Y203659D01*
X746219Y203924D01*
X747517Y204267D01*
X748427Y203659D01*
X749500Y203446D01*
X750573Y203659D01*
X751483Y204267D01*
X752090Y205177D01*
X752304Y206250D01*
X752090Y207323D01*
X751483Y208232D01*
X750573Y208840D01*
X749500Y209054D01*
D02*
G37*
G36*
X504750Y213304D02*
X503677Y213090D01*
X502767Y212483D01*
X502160Y211573D01*
X501946Y210500D01*
X502160Y209427D01*
X502767Y208517D01*
X503677Y207910D01*
X504750Y207696D01*
X505823Y207910D01*
X506733Y208517D01*
X507340Y209427D01*
X507554Y210500D01*
X507340Y211573D01*
X506733Y212483D01*
X505823Y213090D01*
X504750Y213304D01*
D02*
G37*
G36*
X491750Y211304D02*
X490677Y211090D01*
X489767Y210483D01*
X489160Y209573D01*
X488946Y208500D01*
X489160Y207427D01*
X489767Y206517D01*
X490677Y205910D01*
X491750Y205696D01*
X492823Y205910D01*
X493733Y206517D01*
X494340Y207427D01*
X494554Y208500D01*
X494340Y209573D01*
X493733Y210483D01*
X492823Y211090D01*
X491750Y211304D01*
D02*
G37*
G36*
X106250Y210804D02*
X105177Y210590D01*
X104267Y209983D01*
X103660Y209073D01*
X103446Y208000D01*
X103660Y206927D01*
X104267Y206017D01*
X104525Y205845D01*
X104030Y204649D01*
X103822Y204690D01*
X103250Y204804D01*
X102177Y204590D01*
X101267Y203983D01*
X100660Y203073D01*
X100446Y202000D01*
X99212Y201697D01*
X98677Y201590D01*
X97767Y200983D01*
X97160Y200073D01*
X96946Y199000D01*
X97160Y197927D01*
X97309Y197704D01*
X97667Y196750D01*
X97309Y195796D01*
X97160Y195573D01*
X96946Y194500D01*
X97160Y193427D01*
X97767Y192517D01*
X98677Y191910D01*
X99750Y191696D01*
X100823Y191910D01*
X101733Y192517D01*
X102340Y193427D01*
X102554Y194500D01*
X102340Y195573D01*
X102191Y195796D01*
X101833Y196750D01*
X102191Y197704D01*
X102340Y197927D01*
X102554Y199000D01*
X103788Y199303D01*
X104323Y199410D01*
X105233Y200017D01*
X105840Y200927D01*
X106054Y202000D01*
X105840Y203073D01*
X105233Y203983D01*
X104975Y204155D01*
X105470Y205351D01*
X105678Y205310D01*
X106250Y205196D01*
X107323Y205410D01*
X108233Y206017D01*
X108840Y206927D01*
X109054Y208000D01*
X108840Y209073D01*
X108233Y209983D01*
X107323Y210590D01*
X106250Y210804D01*
D02*
G37*
G36*
X270750Y209804D02*
X269677Y209590D01*
X268768Y208983D01*
X268160Y208073D01*
X267946Y207000D01*
X268160Y205927D01*
X268768Y205017D01*
X269677Y204410D01*
X270750Y204196D01*
X271823Y204410D01*
X272733Y205017D01*
X273340Y205927D01*
X273554Y207000D01*
X273340Y208073D01*
X272733Y208983D01*
X271823Y209590D01*
X270750Y209804D01*
D02*
G37*
G36*
X422250Y209304D02*
X421177Y209090D01*
X420267Y208483D01*
X419660Y207573D01*
X419446Y206500D01*
X419660Y205427D01*
X420267Y204517D01*
X421177Y203909D01*
X422250Y203696D01*
X423323Y203909D01*
X424233Y204517D01*
X424840Y205427D01*
X425054Y206500D01*
X424840Y207573D01*
X424233Y208483D01*
X423323Y209090D01*
X422250Y209304D01*
D02*
G37*
G36*
X30750Y203304D02*
X29677Y203091D01*
X29454Y202941D01*
X28500Y202583D01*
X27546Y202941D01*
X27323Y203091D01*
X26250Y203304D01*
X25177Y203091D01*
X24954Y202941D01*
X24000Y202583D01*
X23046Y202941D01*
X22823Y203091D01*
X21750Y203304D01*
X20677Y203091D01*
X19767Y202483D01*
X19160Y201573D01*
X18946Y200500D01*
X19160Y199427D01*
X19767Y198517D01*
X20677Y197910D01*
X21750Y197696D01*
X22823Y197910D01*
X23046Y198059D01*
X24000Y198417D01*
X24954Y198059D01*
X25177Y197910D01*
X26250Y197696D01*
X27323Y197910D01*
X27546Y198059D01*
X28500Y198417D01*
X29454Y198059D01*
X29677Y197910D01*
X30750Y197696D01*
X31823Y197910D01*
X32733Y198517D01*
X33340Y199427D01*
X33554Y200500D01*
X33340Y201573D01*
X32733Y202483D01*
X31823Y203091D01*
X30750Y203304D01*
D02*
G37*
G36*
X281500Y202054D02*
X280427Y201840D01*
X279517Y201233D01*
X279305Y200915D01*
X277819Y200854D01*
X277733Y200983D01*
X276823Y201590D01*
X275750Y201804D01*
X274677Y201590D01*
X273767Y200983D01*
X273160Y200073D01*
X272946Y199000D01*
X273160Y197927D01*
X273767Y197017D01*
X274677Y196409D01*
X275750Y196196D01*
X276823Y196409D01*
X277733Y197017D01*
X277945Y197335D01*
X279431Y197396D01*
X279517Y197267D01*
X280427Y196660D01*
X281500Y196446D01*
X282573Y196660D01*
X283483Y197267D01*
X284090Y198177D01*
X284304Y199250D01*
X284090Y200323D01*
X283483Y201233D01*
X282573Y201840D01*
X281500Y202054D01*
D02*
G37*
G36*
X632908Y203054D02*
X631835Y202840D01*
X630925Y202233D01*
X630317Y201323D01*
X630104Y200250D01*
X630317Y199177D01*
X630925Y198267D01*
X631835Y197660D01*
X632908Y197446D01*
X633981Y197660D01*
X634890Y198267D01*
X635498Y199177D01*
X635712Y200250D01*
X635498Y201323D01*
X634890Y202233D01*
X633981Y202840D01*
X632908Y203054D01*
D02*
G37*
G36*
X110697Y202054D02*
X109624Y201840D01*
X108714Y201233D01*
X108106Y200323D01*
X107893Y199250D01*
X108106Y198177D01*
X108714Y197267D01*
X109624Y196660D01*
X110697Y196446D01*
X111770Y196660D01*
X112679Y197267D01*
X113287Y198177D01*
X113500Y199250D01*
X113287Y200323D01*
X112679Y201233D01*
X111770Y201840D01*
X110697Y202054D01*
D02*
G37*
G36*
X472297Y201804D02*
X471224Y201590D01*
X470314Y200983D01*
X469707Y200073D01*
X469493Y199000D01*
X469707Y197927D01*
X470314Y197017D01*
X471224Y196410D01*
X472297Y196196D01*
X473370Y196410D01*
X474280Y197017D01*
X474888Y197927D01*
X475101Y199000D01*
X474888Y200073D01*
X474280Y200983D01*
X473370Y201590D01*
X472297Y201804D01*
D02*
G37*
G36*
X463000Y201054D02*
X461927Y200840D01*
X461017Y200233D01*
X460410Y199323D01*
X460196Y198250D01*
X460410Y197177D01*
X461017Y196267D01*
X461927Y195660D01*
X463000Y195446D01*
X464073Y195660D01*
X464983Y196267D01*
X465590Y197177D01*
X465804Y198250D01*
X465590Y199323D01*
X464983Y200233D01*
X464073Y200840D01*
X463000Y201054D01*
D02*
G37*
G36*
X419250D02*
X418177Y200840D01*
X417267Y200233D01*
X416660Y199323D01*
X416446Y198250D01*
X416660Y197177D01*
X417267Y196267D01*
X418177Y195660D01*
X419250Y195446D01*
X420323Y195660D01*
X421233Y196267D01*
X421840Y197177D01*
X422054Y198250D01*
X421840Y199323D01*
X421233Y200233D01*
X420323Y200840D01*
X419250Y201054D01*
D02*
G37*
G36*
X3500Y196054D02*
X2427Y195840D01*
X1858Y195460D01*
X1000Y195318D01*
X142Y195460D01*
X-427Y195840D01*
X-1500Y196054D01*
X-2573Y195840D01*
X-3483Y195233D01*
X-4090Y194323D01*
X-4304Y193250D01*
X-4090Y192177D01*
X-3483Y191267D01*
X-2573Y190660D01*
X-1804Y189250D01*
X-1590Y188177D01*
X-983Y187267D01*
X-73Y186660D01*
X1000Y186446D01*
X2073Y186660D01*
X2983Y187267D01*
X3590Y188177D01*
X3804Y189250D01*
X4573Y190660D01*
X5483Y191267D01*
X6090Y192177D01*
X6304Y193250D01*
X6090Y194323D01*
X5483Y195233D01*
X4573Y195840D01*
X3500Y196054D01*
D02*
G37*
G36*
X438500Y200804D02*
X437427Y200590D01*
X436517Y199983D01*
X435910Y199073D01*
X435696Y198000D01*
X435910Y196927D01*
X436517Y196017D01*
X437427Y195410D01*
X438500Y195196D01*
X439573Y195410D01*
X440483Y196017D01*
X441090Y196927D01*
X441304Y198000D01*
X441090Y199073D01*
X440483Y199983D01*
X439573Y200590D01*
X438500Y200804D01*
D02*
G37*
G36*
X749500Y195804D02*
X748427Y195590D01*
X748031Y195326D01*
X746733Y194982D01*
X745823Y195590D01*
X744750Y195804D01*
X743677Y195590D01*
X742767Y194982D01*
X742160Y194073D01*
X741946Y193000D01*
X742160Y191927D01*
X742767Y191017D01*
X743677Y190410D01*
X744750Y190196D01*
X745823Y190410D01*
X746733Y191017D01*
X748031Y190674D01*
X748427Y190410D01*
X749500Y190196D01*
X750573Y190410D01*
X751483Y191017D01*
X752090Y191927D01*
X752304Y193000D01*
X752090Y194073D01*
X751483Y194983D01*
X750573Y195590D01*
X749500Y195804D01*
D02*
G37*
G36*
X247250Y199804D02*
X246177Y199590D01*
X245267Y198983D01*
X244660Y198073D01*
X244446Y197000D01*
X244660Y195927D01*
X245267Y195017D01*
X246177Y194410D01*
X247250Y194196D01*
X248323Y194410D01*
X249233Y195017D01*
X249840Y195927D01*
X250054Y197000D01*
X249840Y198073D01*
X249233Y198983D01*
X248323Y199590D01*
X247250Y199804D01*
D02*
G37*
G36*
X141500Y194804D02*
X140427Y194590D01*
X139517Y193983D01*
X139514Y193977D01*
X137986D01*
X137983Y193983D01*
X137073Y194590D01*
X136000Y194804D01*
X134927Y194590D01*
X134017Y193983D01*
X133410Y193073D01*
X133196Y192000D01*
X133410Y190927D01*
X134017Y190017D01*
X134927Y189410D01*
X136000Y189196D01*
X137073Y189410D01*
X137983Y190017D01*
X137986Y190023D01*
X139514D01*
X139517Y190017D01*
X140427Y189410D01*
X141500Y189196D01*
X142573Y189410D01*
X143483Y190017D01*
X144090Y190927D01*
X144304Y192000D01*
X144090Y193073D01*
X143483Y193983D01*
X142573Y194590D01*
X141500Y194804D01*
D02*
G37*
G36*
X211500Y197304D02*
X210427Y197090D01*
X209517Y196483D01*
X208910Y195573D01*
X208696Y194500D01*
X208910Y193427D01*
X209517Y192517D01*
X210427Y191910D01*
X211500Y191696D01*
X212573Y191910D01*
X213483Y192517D01*
X214090Y193427D01*
X214304Y194500D01*
X214090Y195573D01*
X213483Y196483D01*
X212573Y197090D01*
X211500Y197304D01*
D02*
G37*
G36*
X228250Y197104D02*
X227177Y196890D01*
X226267Y196283D01*
X225660Y195373D01*
X225446Y194300D01*
X225660Y193227D01*
X226267Y192317D01*
X227177Y191710D01*
X228250Y191496D01*
X229323Y191710D01*
X230233Y192317D01*
X230840Y193227D01*
X231054Y194300D01*
X230840Y195373D01*
X230233Y196283D01*
X229323Y196890D01*
X228250Y197104D01*
D02*
G37*
G36*
X265720Y197054D02*
X264647Y196840D01*
X263737Y196233D01*
X263130Y195323D01*
X262916Y194250D01*
X263130Y193177D01*
X263737Y192267D01*
X264647Y191660D01*
X265720Y191446D01*
X266793Y191660D01*
X267703Y192267D01*
X268310Y193177D01*
X268524Y194250D01*
X268310Y195323D01*
X267703Y196233D01*
X266793Y196840D01*
X265720Y197054D01*
D02*
G37*
G36*
X647908Y195804D02*
X646835Y195590D01*
X645925Y194983D01*
X645318Y194073D01*
X645104Y193000D01*
X645318Y191927D01*
X645925Y191017D01*
X646835Y190410D01*
X647908Y190196D01*
X648981Y190410D01*
X649891Y191017D01*
X650498Y191927D01*
X650712Y193000D01*
X650498Y194073D01*
X649891Y194983D01*
X648981Y195590D01*
X647908Y195804D01*
D02*
G37*
G36*
X63250Y204554D02*
X62177Y204340D01*
X61267Y203733D01*
X60659Y202823D01*
X60446Y201750D01*
X60659Y200677D01*
X61267Y199767D01*
X61734Y199456D01*
X61742Y199435D01*
Y198065D01*
X61734Y198044D01*
X61267Y197733D01*
X60659Y196823D01*
X60446Y195750D01*
X60659Y194677D01*
X60809Y194454D01*
X61167Y193500D01*
X60809Y192546D01*
X60659Y192323D01*
X60446Y191250D01*
X60475Y191105D01*
X59395Y190025D01*
X59250Y190054D01*
X59105Y190025D01*
X58025Y191105D01*
X58054Y191250D01*
X57840Y192323D01*
X57691Y192546D01*
X57333Y193500D01*
X57691Y194454D01*
X57840Y194677D01*
X58054Y195750D01*
X57840Y196823D01*
X57233Y197733D01*
X56766Y198044D01*
X56758Y198065D01*
Y199435D01*
X56766Y199456D01*
X57233Y199767D01*
X57840Y200677D01*
X58054Y201750D01*
X57840Y202823D01*
X57233Y203733D01*
X56323Y204340D01*
X55250Y204554D01*
X54177Y204340D01*
X53267Y203733D01*
X52660Y202823D01*
X52446Y201750D01*
X52660Y200677D01*
X53267Y199767D01*
X53734Y199456D01*
X53742Y199435D01*
Y198065D01*
X53734Y198044D01*
X53267Y197733D01*
X52660Y196823D01*
X52446Y195750D01*
X52660Y194677D01*
X52809Y194454D01*
X53167Y193500D01*
X52809Y192546D01*
X52660Y192323D01*
X52446Y191250D01*
X52660Y190177D01*
X53267Y189267D01*
X54177Y188660D01*
X55250Y188446D01*
X55395Y188475D01*
X56475Y187395D01*
X56446Y187250D01*
X56475Y187105D01*
X55395Y186025D01*
X55250Y186054D01*
X54177Y185840D01*
X53267Y185233D01*
X52660Y184323D01*
X52446Y183250D01*
X52660Y182177D01*
X53267Y181267D01*
Y180733D01*
X52660Y179823D01*
X52446Y178750D01*
X52660Y177677D01*
X53267Y176767D01*
X53734Y176456D01*
X53742Y176435D01*
Y175065D01*
X53734Y175044D01*
X53267Y174733D01*
X52660Y173823D01*
X52446Y172750D01*
X52660Y171677D01*
X53267Y170767D01*
X54177Y170160D01*
X55250Y169946D01*
X56323Y170160D01*
X57233Y170767D01*
X57840Y171677D01*
X58054Y172750D01*
X57840Y173823D01*
X57233Y174733D01*
X56766Y175044D01*
X56758Y175065D01*
Y176435D01*
X56766Y176456D01*
X57233Y176767D01*
X57840Y177677D01*
X58054Y178750D01*
X57840Y179823D01*
X57233Y180733D01*
Y181267D01*
X57840Y182177D01*
X58054Y183250D01*
X59178Y183782D01*
X59322D01*
X60446Y183250D01*
X60659Y182177D01*
X60809Y181954D01*
X61167Y181000D01*
X60809Y180046D01*
X60659Y179823D01*
X60446Y178750D01*
X60659Y177677D01*
X61267Y176767D01*
X61734Y176456D01*
X61742Y176435D01*
Y175065D01*
X61734Y175044D01*
X61267Y174733D01*
X60659Y173823D01*
X60446Y172750D01*
X60659Y171677D01*
X61267Y170767D01*
X62177Y170160D01*
X63250Y169946D01*
X64323Y170160D01*
X65233Y170767D01*
X65840Y171677D01*
X66054Y172750D01*
X65840Y173823D01*
X65233Y174733D01*
X64766Y175044D01*
X64758Y175065D01*
Y176435D01*
X64766Y176456D01*
X65233Y176767D01*
X65840Y177677D01*
X66054Y178750D01*
X65840Y179823D01*
X65691Y180046D01*
X65333Y181000D01*
X65691Y181954D01*
X65840Y182177D01*
X66054Y183250D01*
X65840Y184323D01*
X65233Y185233D01*
X64323Y185840D01*
X63250Y186054D01*
X62718Y187178D01*
Y187322D01*
X63250Y188446D01*
X64323Y188660D01*
X65233Y189267D01*
X65840Y190177D01*
X66054Y191250D01*
X65840Y192323D01*
X65691Y192546D01*
X65333Y193500D01*
X65691Y194454D01*
X65840Y194677D01*
X66054Y195750D01*
X65840Y196823D01*
X65233Y197733D01*
X64766Y198044D01*
X64758Y198065D01*
Y199435D01*
X64766Y199456D01*
X65233Y199767D01*
X65840Y200677D01*
X66054Y201750D01*
X65840Y202823D01*
X65233Y203733D01*
X64323Y204340D01*
X63250Y204554D01*
D02*
G37*
G36*
X189750Y195304D02*
X188677Y195090D01*
X187767Y194483D01*
X187160Y193573D01*
X186946Y192500D01*
X187160Y191427D01*
X187767Y190517D01*
X188677Y189910D01*
X189750Y189696D01*
X190823Y189910D01*
X191733Y190517D01*
X192340Y191427D01*
X192554Y192500D01*
X192340Y193573D01*
X191733Y194483D01*
X190823Y195090D01*
X189750Y195304D01*
D02*
G37*
G36*
X171750Y194804D02*
X170677Y194590D01*
X169767Y193983D01*
X169160Y193073D01*
X168946Y192000D01*
X169160Y190927D01*
X169767Y190017D01*
X170677Y189410D01*
X171750Y189196D01*
X172823Y189410D01*
X173733Y190017D01*
X174340Y190927D01*
X174554Y192000D01*
X174340Y193073D01*
X173733Y193983D01*
X172823Y194590D01*
X171750Y194804D01*
D02*
G37*
G36*
X485658Y194554D02*
X484585Y194340D01*
X483675Y193733D01*
X483067Y192823D01*
X482854Y191750D01*
X483067Y190677D01*
X483675Y189767D01*
X484585Y189160D01*
X485658Y188946D01*
X486731Y189160D01*
X487640Y189767D01*
X488248Y190677D01*
X488462Y191750D01*
X488248Y192823D01*
X487640Y193733D01*
X486731Y194340D01*
X485658Y194554D01*
D02*
G37*
G36*
X114999Y194553D02*
X113926Y194340D01*
X113017Y193732D01*
X112409Y192822D01*
X112195Y191749D01*
X112409Y190676D01*
X113017Y189767D01*
X113926Y189159D01*
X114999Y188945D01*
X116072Y189159D01*
X116982Y189767D01*
X117590Y190676D01*
X117803Y191749D01*
X117590Y192822D01*
X116982Y193732D01*
X116072Y194340D01*
X114999Y194553D01*
D02*
G37*
G36*
X182500Y194304D02*
X181427Y194090D01*
X180517Y193482D01*
X179909Y192573D01*
X179696Y191500D01*
X179909Y190427D01*
X180517Y189517D01*
X181427Y188909D01*
X182500Y188696D01*
X183573Y188909D01*
X184482Y189517D01*
X185090Y190427D01*
X185304Y191500D01*
X185090Y192573D01*
X184482Y193482D01*
X183573Y194090D01*
X182500Y194304D01*
D02*
G37*
G36*
X307000Y193304D02*
X305927Y193090D01*
X305017Y192483D01*
X304410Y191573D01*
X304196Y190500D01*
X304410Y189427D01*
X305017Y188517D01*
X305927Y187910D01*
X307000Y187696D01*
X308073Y187910D01*
X308983Y188517D01*
X309590Y189427D01*
X309804Y190500D01*
X309590Y191573D01*
X308983Y192483D01*
X308073Y193090D01*
X307000Y193304D01*
D02*
G37*
G36*
X455500Y197304D02*
X454427Y197090D01*
X453517Y196483D01*
X452910Y195573D01*
X452696Y194500D01*
X452910Y193427D01*
X453517Y192517D01*
Y191233D01*
X452910Y190323D01*
X452696Y189250D01*
X452854Y188455D01*
X452618Y188075D01*
X452336Y187781D01*
X451864Y187456D01*
X451119Y187604D01*
X450046Y187390D01*
X449137Y186783D01*
X448832Y186327D01*
X448424Y186243D01*
X447427Y186324D01*
X447421Y186327D01*
X446983Y186983D01*
X446073Y187590D01*
X445000Y187804D01*
X443927Y187590D01*
X443017Y186983D01*
X442410Y186073D01*
X442196Y185000D01*
X442410Y183927D01*
X443017Y183017D01*
X443927Y182410D01*
X445000Y182196D01*
X446073Y182410D01*
X446983Y183017D01*
X447287Y183473D01*
X447695Y183557D01*
X448692Y183476D01*
X448698Y183473D01*
X449137Y182817D01*
X450046Y182210D01*
X451119Y181996D01*
X452192Y182210D01*
X453102Y182817D01*
X453710Y183727D01*
X453923Y184800D01*
X453765Y185595D01*
X454001Y185975D01*
X454283Y186269D01*
X454755Y186594D01*
X455500Y186446D01*
X456573Y186660D01*
X457483Y187267D01*
X458090Y188177D01*
X458304Y189250D01*
X458090Y190323D01*
X457483Y191233D01*
Y192517D01*
X458090Y193427D01*
X458304Y194500D01*
X458090Y195573D01*
X457483Y196483D01*
X456573Y197090D01*
X455500Y197304D01*
D02*
G37*
G36*
X107000Y193054D02*
X105927Y192840D01*
X105017Y192233D01*
X104410Y191323D01*
X104196Y190250D01*
X104410Y189177D01*
X105017Y188267D01*
X105927Y187660D01*
X107000Y187446D01*
X108073Y187660D01*
X108982Y188267D01*
X109590Y189177D01*
X109804Y190250D01*
X109590Y191323D01*
X108982Y192233D01*
X108073Y192840D01*
X107000Y193054D01*
D02*
G37*
G36*
X577158Y188054D02*
X576085Y187840D01*
X575175Y187233D01*
X574640D01*
X573731Y187840D01*
X572658Y188054D01*
X571585Y187840D01*
X570675Y187233D01*
X570067Y186323D01*
X569854Y185250D01*
X570067Y184177D01*
X570675Y183267D01*
X571585Y182660D01*
X572658Y182446D01*
X573731Y182660D01*
X574640Y183267D01*
X575175D01*
X576085Y182660D01*
X577158Y182446D01*
X577983Y182610D01*
X578592Y182002D01*
X578823Y181581D01*
X578817Y181573D01*
X578604Y180500D01*
X578817Y179427D01*
X579425Y178517D01*
X580335Y177910D01*
X581408Y177696D01*
X582481Y177910D01*
X583390Y178517D01*
X583998Y179427D01*
X584212Y180500D01*
X583998Y181573D01*
X583390Y182483D01*
X582481Y183090D01*
X581408Y183304D01*
X580582Y183140D01*
X579974Y183748D01*
X579743Y184169D01*
X579748Y184177D01*
X579962Y185250D01*
X579748Y186323D01*
X579140Y187233D01*
X578231Y187840D01*
X577158Y188054D01*
D02*
G37*
G36*
X197250Y191804D02*
X196177Y191590D01*
X195267Y190983D01*
X194660Y190073D01*
X194446Y189000D01*
X194660Y187927D01*
X195267Y187017D01*
X196177Y186410D01*
X197250Y186196D01*
X198323Y186410D01*
X199233Y187017D01*
X199840Y187927D01*
X200054Y189000D01*
X199840Y190073D01*
X199233Y190983D01*
X198323Y191590D01*
X197250Y191804D01*
D02*
G37*
G36*
X148000Y191554D02*
X146927Y191340D01*
X146017Y190733D01*
X145409Y189823D01*
X145196Y188750D01*
X145409Y187677D01*
X146017Y186767D01*
X146927Y186160D01*
X148000Y185946D01*
X149073Y186160D01*
X149983Y186767D01*
X150590Y187677D01*
X150804Y188750D01*
X150590Y189823D01*
X149983Y190733D01*
X149073Y191340D01*
X148000Y191554D01*
D02*
G37*
G36*
X122750Y191304D02*
X121677Y191090D01*
X120767Y190483D01*
X120160Y189573D01*
X119946Y188500D01*
X120160Y187427D01*
X120767Y186517D01*
X121677Y185910D01*
X122750Y185696D01*
X123823Y185910D01*
X124733Y186517D01*
X125340Y187427D01*
X125554Y188500D01*
X125340Y189573D01*
X124733Y190483D01*
X123823Y191090D01*
X122750Y191304D01*
D02*
G37*
G36*
X371408Y190304D02*
X370335Y190090D01*
X369425Y189483D01*
X368817Y188573D01*
X368604Y187500D01*
X368817Y186427D01*
X369425Y185517D01*
X370335Y184910D01*
X371408Y184696D01*
X372481Y184910D01*
X373390Y185517D01*
X373998Y186427D01*
X374212Y187500D01*
X373998Y188573D01*
X373390Y189483D01*
X372481Y190090D01*
X371408Y190304D01*
D02*
G37*
G36*
X516908Y189804D02*
X515835Y189590D01*
X514925Y188983D01*
X514317Y188073D01*
X514104Y187000D01*
X514317Y185927D01*
X514925Y185017D01*
X515835Y184410D01*
X516908Y184196D01*
X517981Y184410D01*
X518890Y185017D01*
X519498Y185927D01*
X519711Y187000D01*
X519498Y188073D01*
X518890Y188983D01*
X517981Y189590D01*
X516908Y189804D01*
D02*
G37*
G36*
X262750Y189304D02*
X261677Y189090D01*
X260767Y188483D01*
X260160Y187573D01*
X259946Y186500D01*
X260160Y185427D01*
X260767Y184517D01*
X261677Y183910D01*
X262750Y183696D01*
X263823Y183910D01*
X264733Y184517D01*
X266180Y184398D01*
X266267Y184267D01*
X267177Y183660D01*
X268250Y183446D01*
X269323Y183660D01*
X270233Y184267D01*
X270840Y185177D01*
X271054Y186250D01*
X270840Y187323D01*
X270233Y188233D01*
X269323Y188840D01*
X268250Y189054D01*
X267177Y188840D01*
X266267Y188233D01*
X264820Y188352D01*
X264733Y188483D01*
X263823Y189090D01*
X262750Y189304D01*
D02*
G37*
G36*
X234000Y188054D02*
X232927Y187840D01*
X232017Y187233D01*
X231410Y186323D01*
X231196Y185250D01*
X231410Y184177D01*
X232017Y183267D01*
X232927Y182660D01*
X234000Y182446D01*
X235073Y182660D01*
X235983Y183267D01*
X236590Y184177D01*
X236804Y185250D01*
X236590Y186323D01*
X235983Y187233D01*
X235073Y187840D01*
X234000Y188054D01*
D02*
G37*
G36*
X427000Y188054D02*
X425927Y187840D01*
X425017Y187233D01*
X424409Y186323D01*
X424196Y185250D01*
X424409Y184177D01*
X425017Y183267D01*
X425927Y182660D01*
X427000Y182446D01*
X428073Y182660D01*
X428983Y183267D01*
X429590Y184177D01*
X429804Y185250D01*
X429590Y186323D01*
X428983Y187233D01*
X428073Y187840D01*
X427000Y188054D01*
D02*
G37*
G36*
X720500Y186804D02*
X719427Y186590D01*
X718517Y185983D01*
X717910Y185073D01*
X717696Y184000D01*
X717910Y182927D01*
X718517Y182017D01*
X719427Y181410D01*
X720500Y181196D01*
X721573Y181410D01*
X722483Y182017D01*
X723090Y182927D01*
X723304Y184000D01*
X723090Y185073D01*
X722483Y185983D01*
X721573Y186590D01*
X720500Y186804D01*
D02*
G37*
G36*
X141000Y181304D02*
X139927Y181090D01*
X139876Y181057D01*
X138875Y180554D01*
X137873Y181057D01*
X137823Y181090D01*
X136750Y181304D01*
X135677Y181090D01*
X135626Y181057D01*
X134625Y180554D01*
X133623Y181057D01*
X133573Y181090D01*
X132500Y181304D01*
X131427Y181090D01*
X130517Y180483D01*
X129909Y179573D01*
X129696Y178500D01*
X129909Y177427D01*
X130517Y176517D01*
X131427Y175910D01*
X132500Y175696D01*
X133573Y175910D01*
X133623Y175943D01*
X134625Y176446D01*
X135626Y175943D01*
X135677Y175910D01*
X136750Y175696D01*
X137823Y175910D01*
X137873Y175943D01*
X138875Y176446D01*
X139876Y175943D01*
X139927Y175910D01*
X141000Y175696D01*
X142073Y175910D01*
X142983Y176517D01*
X143590Y177427D01*
X143804Y178500D01*
X143590Y179573D01*
X142983Y180483D01*
X142073Y181090D01*
X141000Y181304D01*
D02*
G37*
G36*
X71500Y186054D02*
X70427Y185840D01*
X69517Y185233D01*
X68910Y184323D01*
X68696Y183250D01*
X68910Y182177D01*
X69517Y181267D01*
X70427Y180660D01*
X71500Y180446D01*
X72573Y180660D01*
X73483Y181267D01*
X74090Y182177D01*
X74304Y183250D01*
X74090Y184323D01*
X73483Y185233D01*
X72573Y185840D01*
X71500Y186054D01*
D02*
G37*
G36*
X551408Y185854D02*
X550335Y185640D01*
X549425Y185033D01*
X548817Y184123D01*
X548604Y183050D01*
X548817Y181977D01*
X549425Y181067D01*
X550335Y180460D01*
X551408Y180246D01*
X552481Y180460D01*
X553391Y181067D01*
X553998Y181977D01*
X554212Y183050D01*
X553998Y184123D01*
X553391Y185033D01*
X552481Y185640D01*
X551408Y185854D01*
D02*
G37*
G36*
X497658Y185054D02*
X496585Y184840D01*
X495675Y184233D01*
X495067Y183323D01*
X494854Y182250D01*
X495067Y181177D01*
X495675Y180267D01*
X496585Y179660D01*
X497658Y179446D01*
X498731Y179660D01*
X499640Y180267D01*
X500248Y181177D01*
X500462Y182250D01*
X500248Y183323D01*
X499640Y184233D01*
X498731Y184840D01*
X497658Y185054D01*
D02*
G37*
G36*
X168500Y183054D02*
X167427Y182840D01*
X166517Y182232D01*
X165910Y181323D01*
X165696Y180250D01*
X165910Y179177D01*
X166517Y178267D01*
X167427Y177659D01*
X168500Y177446D01*
X169573Y177659D01*
X170483Y178267D01*
X171090Y179177D01*
X171304Y180250D01*
X171090Y181323D01*
X170483Y182232D01*
X169573Y182840D01*
X168500Y183054D01*
D02*
G37*
G36*
X625658Y186554D02*
X624585Y186340D01*
X623675Y185733D01*
X623067Y184823D01*
X622854Y183750D01*
X623067Y182677D01*
X623101Y182626D01*
X623604Y181625D01*
X623101Y180623D01*
X623067Y180573D01*
X622854Y179500D01*
X623067Y178427D01*
X623675Y177517D01*
X624585Y176910D01*
X625658Y176696D01*
X626731Y176910D01*
X627640Y177517D01*
X628248Y178427D01*
X628462Y179500D01*
X628248Y180573D01*
X628214Y180623D01*
X627712Y181625D01*
X628214Y182626D01*
X628248Y182677D01*
X628462Y183750D01*
X628248Y184823D01*
X627640Y185733D01*
X626731Y186340D01*
X625658Y186554D01*
D02*
G37*
G36*
X97000Y177304D02*
X95927Y177090D01*
X95017Y176483D01*
X94483D01*
X93573Y177090D01*
X92500Y177304D01*
X91427Y177090D01*
X90517Y176483D01*
X89374Y177057D01*
X89323Y177090D01*
X88250Y177304D01*
X87177Y177090D01*
X86267Y176483D01*
X85660Y175573D01*
X85446Y174500D01*
X85660Y173427D01*
X86267Y172517D01*
X87177Y171910D01*
X88250Y171696D01*
X89323Y171910D01*
X89374Y171943D01*
X90375Y172446D01*
X91376Y171943D01*
X91427Y171910D01*
X92500Y171696D01*
X93573Y171910D01*
X94483Y172517D01*
X95017D01*
X95927Y171910D01*
X97000Y171696D01*
X97011Y171698D01*
X98410Y171177D01*
X99017Y170267D01*
X99927Y169660D01*
X101000Y169446D01*
X102073Y169660D01*
X102983Y170267D01*
X103590Y171177D01*
X103804Y172250D01*
X103590Y173323D01*
X102983Y174233D01*
X102073Y174840D01*
X101000Y175054D01*
X100989Y175052D01*
X99590Y175573D01*
X98983Y176483D01*
X98073Y177090D01*
X97000Y177304D01*
D02*
G37*
G36*
X402500Y189304D02*
X401427Y189090D01*
X400517Y188483D01*
X399910Y187573D01*
X399696Y186500D01*
X399910Y185427D01*
X400517Y184517D01*
X401427Y183910D01*
X402500Y183696D01*
X403465Y182593D01*
X403446Y182500D01*
X403660Y181427D01*
X404267Y180517D01*
X405177Y179910D01*
X406190Y179708D01*
X406250Y179696D01*
X407196Y178750D01*
X407208Y178690D01*
X407410Y177677D01*
X407441Y177630D01*
X407639Y176415D01*
X407639Y176415D01*
D01*
X407536Y176227D01*
X407211Y175863D01*
X406250Y176054D01*
X405177Y175840D01*
X404267Y175233D01*
X403660Y174323D01*
X403446Y173250D01*
X403660Y172177D01*
X404090Y171532D01*
X403267Y170983D01*
X402660Y170073D01*
X402446Y169000D01*
X402660Y167927D01*
X403267Y167017D01*
X404177Y166410D01*
X405250Y166196D01*
X406323Y166410D01*
X407233Y167017D01*
X407782Y167840D01*
X408427Y167410D01*
X409500Y167196D01*
X410573Y167410D01*
X411483Y168017D01*
X412090Y168927D01*
X412304Y170000D01*
X412090Y171073D01*
X411483Y171983D01*
X410573Y172590D01*
X410231Y172658D01*
X409351Y173101D01*
X408908Y173981D01*
X408840Y174323D01*
X408809Y174370D01*
X408611Y175585D01*
X408611Y175585D01*
D01*
X408714Y175772D01*
X409039Y176137D01*
X410000Y175946D01*
X411073Y176160D01*
X411983Y176767D01*
X412590Y177677D01*
X412804Y178750D01*
X412590Y179823D01*
X411983Y180733D01*
X411073Y181340D01*
X410060Y181542D01*
X410000Y181554D01*
X409054Y182500D01*
X409042Y182560D01*
X408840Y183573D01*
X408233Y184483D01*
X407323Y185090D01*
X406250Y185304D01*
X405285Y186407D01*
X405304Y186500D01*
X405090Y187573D01*
X404483Y188483D01*
X403573Y189090D01*
X402500Y189304D01*
D02*
G37*
G36*
X30750Y176804D02*
X29677Y176590D01*
X29454Y176441D01*
X28500Y176083D01*
X27546Y176441D01*
X27323Y176590D01*
X26250Y176804D01*
X25177Y176590D01*
X24954Y176441D01*
X24000Y176083D01*
X23046Y176441D01*
X22823Y176590D01*
X21750Y176804D01*
X20677Y176590D01*
X19767Y175982D01*
X19160Y175073D01*
X18946Y174000D01*
X17711Y173697D01*
X17177Y173590D01*
X16267Y172983D01*
X15660Y172073D01*
X15446Y171000D01*
X15660Y169927D01*
X16267Y169017D01*
X17177Y168410D01*
X18250Y168196D01*
X19323Y168410D01*
X20233Y169017D01*
X20840Y169927D01*
X21054Y171000D01*
X22288Y171303D01*
X22823Y171409D01*
X23046Y171559D01*
X24000Y171917D01*
X24954Y171559D01*
X25177Y171409D01*
X26250Y171196D01*
X27323Y171409D01*
X27546Y171559D01*
X28500Y171917D01*
X29454Y171559D01*
X29677Y171409D01*
X30750Y171196D01*
X31823Y171409D01*
X32733Y172017D01*
X33340Y172927D01*
X33554Y174000D01*
X33340Y175073D01*
X32733Y175982D01*
X31823Y176590D01*
X30750Y176804D01*
D02*
G37*
G36*
X336000Y173804D02*
X334927Y173590D01*
X334704Y173441D01*
X333750Y173083D01*
X332796Y173441D01*
X332573Y173590D01*
X331500Y173804D01*
X330427Y173590D01*
X329517Y172983D01*
X328910Y172073D01*
X328696Y171000D01*
X328910Y169927D01*
X329517Y169017D01*
X330427Y168410D01*
X331500Y168196D01*
X332573Y168410D01*
X332796Y168559D01*
X333750Y168917D01*
X334704Y168559D01*
X334927Y168410D01*
X336000Y168196D01*
X337073Y168410D01*
X337983Y169017D01*
X338590Y169927D01*
X338804Y171000D01*
X338590Y172073D01*
X337983Y172983D01*
X337073Y173590D01*
X336000Y173804D01*
D02*
G37*
G36*
X420000Y177804D02*
X418927Y177590D01*
X418017Y176983D01*
X417410Y176073D01*
X417196Y175000D01*
X417410Y173927D01*
X418017Y173017D01*
X418927Y172410D01*
X420000Y172196D01*
X421073Y172410D01*
X421983Y173017D01*
X422590Y173927D01*
X422804Y175000D01*
X422590Y176073D01*
X421983Y176983D01*
X421073Y177590D01*
X420000Y177804D01*
D02*
G37*
G36*
X744750Y177804D02*
X743677Y177590D01*
X742767Y176983D01*
X742160Y176073D01*
X741946Y175000D01*
X742160Y173927D01*
X742767Y173017D01*
X743677Y172409D01*
X744750Y172196D01*
X745823Y172409D01*
X746733Y173017D01*
X748031Y172674D01*
X748427Y172409D01*
X749500Y172196D01*
X750573Y172409D01*
X751483Y173017D01*
X752090Y173927D01*
X752304Y175000D01*
X752090Y176073D01*
X751483Y176982D01*
X750573Y177590D01*
X749500Y177804D01*
X748427Y177590D01*
X747517Y176982D01*
X746219Y177326D01*
X745823Y177590D01*
X744750Y177804D01*
D02*
G37*
G36*
X442250Y180304D02*
X441177Y180090D01*
X440267Y179482D01*
X439660Y178573D01*
X439551Y178028D01*
X438750Y177054D01*
X437677Y176840D01*
X436767Y176233D01*
X436160Y175323D01*
X435946Y174250D01*
X436160Y173177D01*
X436767Y172267D01*
X437677Y171660D01*
X438750Y171446D01*
X439823Y171660D01*
X440733Y172267D01*
X441340Y173177D01*
X441449Y173722D01*
X442250Y174696D01*
X443323Y174909D01*
X444233Y175517D01*
X444840Y176427D01*
X445054Y177500D01*
X444840Y178573D01*
X444233Y179482D01*
X443323Y180090D01*
X442250Y180304D01*
D02*
G37*
G36*
X501958Y178004D02*
X500885Y177790D01*
X499975Y177183D01*
X499367Y176273D01*
X499154Y175200D01*
X499367Y174127D01*
X499606Y173769D01*
X499452Y173298D01*
X498937Y172500D01*
X498135Y172340D01*
X497225Y171733D01*
X496617Y170823D01*
X496404Y169750D01*
X496617Y168677D01*
X497225Y167767D01*
X498135Y167160D01*
X499208Y166946D01*
X500281Y167160D01*
X501190Y167767D01*
X501798Y168677D01*
X502011Y169750D01*
X501798Y170823D01*
X501559Y171180D01*
X501714Y171652D01*
X502229Y172450D01*
X503031Y172610D01*
X503940Y173217D01*
X504548Y174127D01*
X504762Y175200D01*
X504548Y176273D01*
X503940Y177183D01*
X503031Y177790D01*
X501958Y178004D01*
D02*
G37*
G36*
X458908Y171554D02*
X457835Y171341D01*
X456925Y170733D01*
X456317Y169823D01*
X456104Y168750D01*
X456317Y167677D01*
X456925Y166767D01*
X457835Y166160D01*
X458908Y165946D01*
X459981Y166160D01*
X460890Y166767D01*
X461498Y167677D01*
X461711Y168750D01*
X461498Y169823D01*
X460890Y170733D01*
X459981Y171341D01*
X458908Y171554D01*
D02*
G37*
G36*
X227500Y166554D02*
X226427Y166340D01*
X225500Y165744D01*
X224573Y166340D01*
X223500Y166554D01*
X222427Y166340D01*
X221500Y165744D01*
X220573Y166340D01*
X219500Y166554D01*
X218427Y166340D01*
X217517Y165733D01*
X216910Y164823D01*
X216696Y163750D01*
X216910Y162677D01*
X217517Y161767D01*
X218427Y161160D01*
X219500Y160946D01*
X220573Y161160D01*
X221500Y161756D01*
X222427Y161159D01*
X223500Y160946D01*
X224573Y161160D01*
X225500Y161756D01*
X226427Y161159D01*
X227500Y160946D01*
X228573Y161160D01*
X229482Y161767D01*
X230090Y162677D01*
X230304Y163750D01*
X230090Y164823D01*
X229482Y165733D01*
X228573Y166340D01*
X227500Y166554D01*
D02*
G37*
G36*
X451658Y170691D02*
X450585Y170477D01*
X449675Y169869D01*
X449067Y168960D01*
X448854Y167887D01*
X449067Y166814D01*
X449675Y165904D01*
X450585Y165296D01*
X451658Y165083D01*
X452731Y165296D01*
X453640Y165904D01*
X454248Y166814D01*
X454462Y167887D01*
X454248Y168960D01*
X453640Y169869D01*
X452731Y170477D01*
X451658Y170691D01*
D02*
G37*
G36*
X159250Y170554D02*
X158177Y170340D01*
X157267Y169733D01*
X156660Y168823D01*
X156446Y167750D01*
X156660Y166677D01*
X157267Y165767D01*
X158177Y165160D01*
X159250Y164946D01*
X160323Y165160D01*
X161233Y165767D01*
X161840Y166677D01*
X162054Y167750D01*
X161840Y168823D01*
X161233Y169733D01*
X160323Y170340D01*
X159250Y170554D01*
D02*
G37*
G36*
X478908Y175304D02*
X477835Y175090D01*
X476925Y174483D01*
X476317Y173573D01*
X476104Y172500D01*
X476317Y171427D01*
X476925Y170517D01*
Y169733D01*
X476317Y168823D01*
X476104Y167750D01*
X476317Y166677D01*
X476925Y165767D01*
X477835Y165160D01*
X478908Y164946D01*
X479981Y165160D01*
X480890Y165767D01*
X481498Y166677D01*
X481712Y167750D01*
X481498Y168823D01*
X480890Y169733D01*
Y170517D01*
X481498Y171427D01*
X481712Y172500D01*
X481498Y173573D01*
X480890Y174483D01*
X479981Y175090D01*
X478908Y175304D01*
D02*
G37*
G36*
X353208Y170012D02*
X352135Y169798D01*
X351225Y169190D01*
X350617Y168281D01*
X350404Y167208D01*
X350617Y166135D01*
X351225Y165225D01*
X352135Y164617D01*
X353208Y164404D01*
X354281Y164617D01*
X355190Y165225D01*
X355798Y166135D01*
X356012Y167208D01*
X355798Y168281D01*
X355190Y169190D01*
X354281Y169798D01*
X353208Y170012D01*
D02*
G37*
G36*
X274700Y170791D02*
X273627Y170578D01*
X272717Y169970D01*
X272110Y169060D01*
X271896Y167987D01*
X272110Y166915D01*
X272717Y166005D01*
X273627Y165397D01*
X274700Y165184D01*
X275773Y165397D01*
X276080Y165602D01*
X277293Y165442D01*
X277570Y165187D01*
X278017Y164517D01*
X278927Y163910D01*
X280000Y163696D01*
X281073Y163910D01*
X281983Y164517D01*
X282591Y165427D01*
X282804Y166500D01*
X282591Y167573D01*
X281983Y168483D01*
X281073Y169090D01*
X280000Y169304D01*
X278927Y169090D01*
X278620Y168885D01*
X277407Y169045D01*
X277130Y169301D01*
X276683Y169970D01*
X275773Y170578D01*
X274700Y170791D01*
D02*
G37*
G36*
X571408Y168730D02*
X570335Y168517D01*
X569425Y167909D01*
X568817Y166999D01*
X568604Y165926D01*
X568817Y164853D01*
X569425Y163943D01*
X570335Y163336D01*
X571408Y163122D01*
X572481Y163336D01*
X573390Y163943D01*
X573998Y164853D01*
X574212Y165926D01*
X573998Y166999D01*
X573390Y167909D01*
X572481Y168517D01*
X571408Y168730D01*
D02*
G37*
G36*
X62000Y163804D02*
X60927Y163590D01*
X60017Y162983D01*
X60014Y162977D01*
X58486D01*
X58483Y162983D01*
X57573Y163590D01*
X56500Y163804D01*
X55427Y163590D01*
X54517Y162983D01*
X53910Y162073D01*
X53696Y161000D01*
X53910Y159927D01*
X54517Y159017D01*
X55427Y158410D01*
X56500Y158196D01*
X57573Y158410D01*
X58483Y159017D01*
X58486Y159023D01*
X60014D01*
X60017Y159017D01*
X60927Y158410D01*
X62000Y158196D01*
X63073Y158410D01*
X63983Y159017D01*
X64590Y159927D01*
X64804Y161000D01*
X64590Y162073D01*
X63983Y162983D01*
X63073Y163590D01*
X62000Y163804D01*
D02*
G37*
G36*
X744750Y167054D02*
X743677Y166840D01*
X742767Y166233D01*
X742160Y165323D01*
X741946Y164250D01*
X742160Y163177D01*
X742767Y162267D01*
X743677Y161660D01*
X744750Y161446D01*
X745823Y161660D01*
X746219Y161924D01*
X747517Y162267D01*
X748427Y161660D01*
X749500Y161446D01*
X750573Y161660D01*
X751483Y162267D01*
X752090Y163177D01*
X752304Y164250D01*
X752090Y165323D01*
X751483Y166233D01*
X750573Y166840D01*
X749500Y167054D01*
X748427Y166840D01*
X747517Y166233D01*
X746219Y166576D01*
X745823Y166840D01*
X744750Y167054D01*
D02*
G37*
G36*
X423500Y166554D02*
X422427Y166340D01*
X421517Y165733D01*
X420910Y164823D01*
X420696Y163750D01*
X420910Y162677D01*
X421517Y161767D01*
X422427Y161160D01*
X423500Y160946D01*
X424573Y161160D01*
X425483Y161767D01*
X426090Y162677D01*
X426304Y163750D01*
X426090Y164823D01*
X425483Y165733D01*
X424573Y166340D01*
X423500Y166554D01*
D02*
G37*
G36*
X128250Y164804D02*
X127177Y164590D01*
X126267Y163983D01*
X125660Y163073D01*
X125446Y162000D01*
X125660Y160927D01*
X126267Y160017D01*
X127177Y159410D01*
X128250Y159196D01*
X129323Y159410D01*
X130232Y160017D01*
X130840Y160927D01*
X131054Y162000D01*
X130840Y163073D01*
X130232Y163983D01*
X129323Y164590D01*
X128250Y164804D01*
D02*
G37*
G36*
X500182Y161045D02*
X499109Y160831D01*
X498200Y160223D01*
X497592Y159314D01*
X497500Y158850D01*
X496205D01*
X496113Y159314D01*
X495505Y160223D01*
X494595Y160831D01*
X493522Y161045D01*
X492449Y160831D01*
X491540Y160223D01*
X490932Y159314D01*
X490719Y158241D01*
X490932Y157168D01*
X491540Y156258D01*
X492449Y155650D01*
X492913Y155558D01*
Y154263D01*
X492449Y154171D01*
X491540Y153563D01*
X490932Y152654D01*
X490718Y151581D01*
X489554Y150927D01*
X489119Y150841D01*
X488210Y150233D01*
X487602Y149324D01*
X487519Y148907D01*
X487510Y148860D01*
X486215D01*
X486206Y148907D01*
X486123Y149324D01*
X485515Y150233D01*
X484605Y150841D01*
X483532Y151054D01*
X482459Y150841D01*
X481550Y150233D01*
X480942Y149324D01*
X480728Y148251D01*
X480942Y147178D01*
X481550Y146268D01*
X482459Y145660D01*
X483532Y145447D01*
X484605Y145660D01*
X485515Y146268D01*
X486123Y147178D01*
X486206Y147594D01*
X486215Y147641D01*
X487510D01*
X487519Y147594D01*
X487602Y147178D01*
X488210Y146268D01*
X489119Y145660D01*
X490192Y145447D01*
X491265Y145660D01*
X492175Y146268D01*
X492783Y147178D01*
X492996Y148251D01*
X494161Y148904D01*
X494595Y148990D01*
X495505Y149598D01*
X496113Y150508D01*
X496199Y150942D01*
X496852Y152107D01*
X497925Y152320D01*
X498835Y152928D01*
X499443Y153838D01*
X499656Y154911D01*
X500821Y155564D01*
X501255Y155650D01*
X502165Y156258D01*
X502773Y157168D01*
X502986Y158241D01*
X502773Y159314D01*
X502165Y160223D01*
X501255Y160831D01*
X500182Y161045D01*
D02*
G37*
G36*
X553463Y167705D02*
X552390Y167491D01*
X551480Y166883D01*
X550872Y165974D01*
X550659Y164901D01*
X550133Y164375D01*
X549060Y164161D01*
X548150Y163553D01*
X547542Y162644D01*
X547329Y161571D01*
X547542Y160498D01*
X548150Y159588D01*
X549060Y158980D01*
X550133Y158767D01*
X551206Y158980D01*
X552115Y159588D01*
X552723Y160498D01*
X552937Y161571D01*
X553463Y162097D01*
X554536Y162310D01*
X555445Y162918D01*
X556053Y163828D01*
X556267Y164901D01*
X556053Y165974D01*
X555445Y166883D01*
X554536Y167491D01*
X553463Y167705D01*
D02*
G37*
G36*
X253000Y164304D02*
X251927Y164090D01*
X251017Y163483D01*
X250410Y162573D01*
X250196Y161500D01*
X250410Y160427D01*
X251017Y159517D01*
X251927Y158910D01*
X253000Y158696D01*
X254073Y158910D01*
X254983Y159517D01*
X255590Y160427D01*
X255804Y161500D01*
X255590Y162573D01*
X254983Y163483D01*
X254073Y164090D01*
X253000Y164304D01*
D02*
G37*
G36*
X269100Y164091D02*
X268027Y163878D01*
X267117Y163270D01*
X266510Y162360D01*
X266296Y161287D01*
X266510Y160214D01*
X267117Y159305D01*
X268027Y158697D01*
X269100Y158484D01*
X270173Y158697D01*
X271083Y159305D01*
X271690Y160214D01*
X271904Y161287D01*
X271690Y162360D01*
X271083Y163270D01*
X270173Y163878D01*
X269100Y164091D01*
D02*
G37*
G36*
X242750Y164054D02*
X241677Y163840D01*
X240767Y163233D01*
X240160Y162323D01*
X239946Y161250D01*
X240160Y160177D01*
X240767Y159267D01*
X241677Y158660D01*
X242750Y158446D01*
X243823Y158660D01*
X244733Y159267D01*
X245340Y160177D01*
X245554Y161250D01*
X245340Y162323D01*
X244733Y163233D01*
X243823Y163840D01*
X242750Y164054D01*
D02*
G37*
G36*
X350158Y157304D02*
X349085Y157090D01*
X349034Y157057D01*
X348033Y156554D01*
X347031Y157057D01*
X346981Y157090D01*
X345908Y157304D01*
X344835Y157090D01*
X344611Y156941D01*
X343658Y156583D01*
X342704Y156941D01*
X342481Y157090D01*
X341408Y157304D01*
X340335Y157090D01*
X339425Y156482D01*
X338817Y155573D01*
X338604Y154500D01*
X338817Y153427D01*
X339425Y152517D01*
X340335Y151909D01*
X341408Y151696D01*
X342481Y151909D01*
X342704Y152059D01*
X343658Y152417D01*
X344611Y152059D01*
X344835Y151909D01*
X345908Y151696D01*
X346981Y151909D01*
X347031Y151943D01*
X348033Y152446D01*
X349034Y151943D01*
X349085Y151909D01*
X350158Y151696D01*
X351231Y151909D01*
X352140Y152517D01*
X352748Y153427D01*
X352962Y154500D01*
X352748Y155573D01*
X352140Y156482D01*
X351231Y157090D01*
X350158Y157304D01*
D02*
G37*
G36*
X403167Y159054D02*
X402094Y158840D01*
X401185Y158233D01*
X400577Y157323D01*
X400363Y156250D01*
X400577Y155177D01*
X401185Y154267D01*
X402094Y153660D01*
X403167Y153446D01*
X404240Y153660D01*
X405150Y154267D01*
X405758Y155177D01*
X405971Y156250D01*
X405758Y157323D01*
X405150Y158233D01*
X404240Y158840D01*
X403167Y159054D01*
D02*
G37*
G36*
X327000Y158804D02*
X325927Y158590D01*
X325018Y157983D01*
X324410Y157073D01*
X324196Y156000D01*
X324410Y154927D01*
X325018Y154017D01*
X325927Y153410D01*
X327000Y153196D01*
X328073Y153410D01*
X328983Y154017D01*
X329590Y154927D01*
X329804Y156000D01*
X329590Y157073D01*
X328983Y157983D01*
X328073Y158590D01*
X327000Y158804D01*
D02*
G37*
G36*
X154800Y160304D02*
X153727Y160090D01*
X152817Y159483D01*
X152210Y158573D01*
X151996Y157500D01*
X152210Y156427D01*
X152817Y155517D01*
X153727Y154910D01*
X154800Y154696D01*
X155873Y154910D01*
X156783Y155517D01*
X157084Y155969D01*
X158281Y155473D01*
X158246Y155300D01*
X158460Y154227D01*
X159067Y153317D01*
X159977Y152710D01*
X161050Y152496D01*
X162123Y152710D01*
X163033Y153317D01*
X163640Y154227D01*
X163854Y155300D01*
X163640Y156373D01*
X163033Y157283D01*
X162123Y157890D01*
X161050Y158104D01*
X159977Y157890D01*
X159067Y157283D01*
X158766Y156831D01*
X157569Y157326D01*
X157604Y157500D01*
X157390Y158573D01*
X156783Y159483D01*
X155873Y160090D01*
X154800Y160304D01*
D02*
G37*
G36*
X526823Y167705D02*
X525750Y167491D01*
X524840Y166883D01*
X524232Y165974D01*
X524019Y164901D01*
X524232Y163828D01*
X524840Y162918D01*
X525750Y162310D01*
X526823Y162097D01*
X527349Y161571D01*
X527562Y160498D01*
X528170Y159588D01*
X529080Y158980D01*
X529496Y158897D01*
X529543Y158888D01*
Y157593D01*
X529496Y157584D01*
X529080Y157501D01*
X528170Y156893D01*
X527562Y155984D01*
X527476Y155549D01*
X527012Y154722D01*
X526184Y154257D01*
X525750Y154171D01*
X524840Y153563D01*
X524232Y152654D01*
X524146Y152219D01*
X524129Y152190D01*
X522845D01*
X522753Y152654D01*
X522145Y153563D01*
X521236Y154171D01*
X520163Y154384D01*
X519090Y154171D01*
X518180Y153563D01*
X517572Y152654D01*
X517480Y152190D01*
X516185D01*
X516093Y152654D01*
X515485Y153563D01*
X514576Y154171D01*
X514159Y154254D01*
X514112Y154263D01*
Y155558D01*
X514159Y155567D01*
X514576Y155650D01*
X515485Y156258D01*
X516093Y157168D01*
X516306Y158241D01*
X516093Y159314D01*
X515485Y160223D01*
X514576Y160831D01*
X513503Y161045D01*
X512430Y160831D01*
X511520Y160223D01*
X510912Y159314D01*
X510699Y158241D01*
X510912Y157168D01*
X511520Y156258D01*
X512430Y155650D01*
X512846Y155567D01*
X512893Y155558D01*
Y154263D01*
X512846Y154254D01*
X512430Y154171D01*
X511520Y153563D01*
X510912Y152654D01*
X510699Y151581D01*
X510912Y150508D01*
X511520Y149598D01*
X512430Y148990D01*
X512864Y148904D01*
X514029Y148251D01*
X514242Y147178D01*
X514850Y146268D01*
X515760Y145660D01*
X516833Y145447D01*
X517906Y145660D01*
X518815Y146268D01*
X519423Y147178D01*
X519515Y147641D01*
X520810D01*
X520902Y147178D01*
X521510Y146268D01*
X522420Y145660D01*
X523493Y145447D01*
X524566Y145660D01*
X525475Y146268D01*
X526083Y147178D01*
X526169Y147612D01*
X526634Y148440D01*
X527461Y148904D01*
X527896Y148990D01*
X528805Y149598D01*
X529413Y150508D01*
X529499Y150942D01*
X529964Y151770D01*
X530791Y152234D01*
X531226Y152320D01*
X532135Y152928D01*
X532743Y153838D01*
X532956Y154911D01*
X532743Y155984D01*
X532135Y156893D01*
X531226Y157501D01*
X530809Y157584D01*
X530762Y157593D01*
Y158888D01*
X530809Y158897D01*
X531226Y158980D01*
X532135Y159588D01*
X532743Y160498D01*
X532956Y161571D01*
X532743Y162644D01*
X532135Y163553D01*
X531226Y164161D01*
X530153Y164375D01*
X529626Y164901D01*
X529413Y165974D01*
X528805Y166883D01*
X527896Y167491D01*
X526823Y167705D01*
D02*
G37*
G36*
X121200Y157104D02*
X120127Y156890D01*
X119217Y156283D01*
X118610Y155373D01*
X118396Y154300D01*
X118610Y153227D01*
X119217Y152317D01*
X120127Y151710D01*
X121200Y151496D01*
X122273Y151710D01*
X123183Y152317D01*
X123791Y153227D01*
X124004Y154300D01*
X123791Y155373D01*
X123183Y156283D01*
X122273Y156890D01*
X121200Y157104D01*
D02*
G37*
G36*
X389500Y155554D02*
X388427Y155340D01*
X387517Y154733D01*
X386910Y153823D01*
X386696Y152750D01*
X386910Y151677D01*
X387517Y150767D01*
X388427Y150160D01*
X389500Y149946D01*
X390573Y150160D01*
X391483Y150767D01*
X392090Y151677D01*
X392304Y152750D01*
X392090Y153823D01*
X391483Y154733D01*
X390573Y155340D01*
X389500Y155554D01*
D02*
G37*
G36*
X111750Y160304D02*
X110677Y160090D01*
X109767Y159483D01*
X109160Y158573D01*
X108946Y157500D01*
X109160Y156427D01*
X109424Y156031D01*
X109664Y155125D01*
X109424Y154219D01*
X109160Y153823D01*
X108946Y152750D01*
X109160Y151677D01*
X109767Y150767D01*
X110677Y150160D01*
X111750Y149946D01*
X112823Y150160D01*
X113733Y150767D01*
X114340Y151677D01*
X114554Y152750D01*
X114340Y153823D01*
X114076Y154219D01*
X113836Y155125D01*
X114076Y156031D01*
X114340Y156427D01*
X114554Y157500D01*
X114340Y158573D01*
X113733Y159483D01*
X112823Y160090D01*
X111750Y160304D01*
D02*
G37*
G36*
X585759Y154195D02*
X584686Y153982D01*
X583777Y153374D01*
X583169Y152465D01*
X582955Y151391D01*
X583169Y150318D01*
X583777Y149409D01*
X584686Y148801D01*
X585759Y148588D01*
X586832Y148801D01*
X587742Y149409D01*
X588349Y150318D01*
X588563Y151391D01*
X588349Y152465D01*
X587742Y153374D01*
X586832Y153982D01*
X585759Y154195D01*
D02*
G37*
G36*
X638058Y151304D02*
X636985Y151090D01*
X636075Y150483D01*
X635467Y149573D01*
X635254Y148500D01*
X635467Y147427D01*
X636075Y146517D01*
X636985Y145910D01*
X638058Y145696D01*
X639131Y145910D01*
X640040Y146517D01*
X640648Y147427D01*
X640861Y148500D01*
X640648Y149573D01*
X640040Y150483D01*
X639131Y151090D01*
X638058Y151304D01*
D02*
G37*
G36*
X556793Y151054D02*
X555720Y150841D01*
X554810Y150233D01*
X554202Y149324D01*
X553989Y148251D01*
X554202Y147178D01*
X554810Y146268D01*
X555720Y145660D01*
X556793Y145447D01*
X557866Y145660D01*
X558775Y146268D01*
X559383Y147178D01*
X559597Y148251D01*
X559383Y149324D01*
X558775Y150233D01*
X557866Y150841D01*
X556793Y151054D01*
D02*
G37*
G36*
X503512D02*
X502439Y150841D01*
X501530Y150233D01*
X500922Y149324D01*
X500709Y148251D01*
X500922Y147178D01*
X501530Y146268D01*
X502439Y145660D01*
X503512Y145447D01*
X504585Y145660D01*
X505495Y146268D01*
X506103Y147178D01*
X506316Y148251D01*
X506103Y149324D01*
X505495Y150233D01*
X504585Y150841D01*
X503512Y151054D01*
D02*
G37*
G36*
X33701Y143252D02*
X32628Y143039D01*
X32403Y142889D01*
X31450Y142532D01*
X30497Y142889D01*
X30272Y143039D01*
X29199Y143252D01*
X28126Y143039D01*
X27216Y142431D01*
X26608Y141522D01*
X26395Y140449D01*
X26608Y139376D01*
X27216Y138466D01*
X28126Y137858D01*
X29199Y137645D01*
X30272Y137858D01*
X30497Y138009D01*
X31450Y138365D01*
X32403Y138009D01*
X32628Y137858D01*
X33701Y137645D01*
X34774Y137858D01*
X35684Y138466D01*
X36292Y139376D01*
X36505Y140449D01*
X36292Y141522D01*
X35684Y142431D01*
X34774Y143039D01*
X33701Y143252D01*
D02*
G37*
G36*
X425750Y147054D02*
X424677Y146840D01*
X423767Y146233D01*
X423160Y145323D01*
X422946Y144250D01*
X423160Y143177D01*
X423767Y142267D01*
X424677Y141660D01*
X425750Y141446D01*
X426823Y141660D01*
X427733Y142267D01*
X428340Y143177D01*
X428554Y144250D01*
X428340Y145323D01*
X427733Y146233D01*
X426823Y146840D01*
X425750Y147054D01*
D02*
G37*
G36*
X628658Y151054D02*
X627585Y150840D01*
X626675Y150233D01*
X626067Y149323D01*
X625854Y148250D01*
X626067Y147177D01*
X626217Y146954D01*
X626575Y146000D01*
X626217Y145046D01*
X626067Y144823D01*
X625854Y143750D01*
X626067Y142677D01*
X626675Y141767D01*
X627585Y141159D01*
X628658Y140946D01*
X629731Y141159D01*
X630640Y141767D01*
X631248Y142677D01*
X631462Y143750D01*
X631248Y144823D01*
X631099Y145046D01*
X630741Y146000D01*
X631099Y146954D01*
X631248Y147177D01*
X631462Y148250D01*
X631248Y149323D01*
X630640Y150233D01*
X629731Y150840D01*
X628658Y151054D01*
D02*
G37*
G36*
X584408Y145554D02*
X583335Y145340D01*
X582425Y144733D01*
X581817Y143823D01*
X581604Y142750D01*
X581817Y141677D01*
X582425Y140767D01*
X583335Y140160D01*
X584408Y139946D01*
X585481Y140160D01*
X586390Y140767D01*
X586998Y141677D01*
X587212Y142750D01*
X586998Y143823D01*
X586390Y144733D01*
X585481Y145340D01*
X584408Y145554D01*
D02*
G37*
G36*
X166000Y145304D02*
X164927Y145090D01*
X164017Y144483D01*
X163410Y143573D01*
X163196Y142500D01*
X163410Y141427D01*
X164017Y140517D01*
X164927Y139909D01*
X166000Y139696D01*
X167073Y139909D01*
X167983Y140517D01*
X168590Y141427D01*
X168804Y142500D01*
X168590Y143573D01*
X167983Y144483D01*
X167073Y145090D01*
X166000Y145304D01*
D02*
G37*
G36*
X307938Y148853D02*
X306865Y148640D01*
X305956Y148032D01*
X305348Y147122D01*
X305134Y146049D01*
X305348Y144976D01*
X305956Y144066D01*
X306865Y143459D01*
X307410Y142323D01*
X307196Y141250D01*
X307410Y140177D01*
X308017Y139267D01*
X308927Y138660D01*
X310000Y138446D01*
X311073Y138660D01*
X311983Y139267D01*
X312590Y140177D01*
X312804Y141250D01*
X312590Y142323D01*
X311983Y143233D01*
X311073Y143840D01*
X310529Y144976D01*
X310742Y146049D01*
X310529Y147122D01*
X309921Y148032D01*
X309011Y148640D01*
X307938Y148853D01*
D02*
G37*
G36*
X641458Y139304D02*
X640385Y139090D01*
X639475Y138483D01*
X639284Y138196D01*
X637786Y138152D01*
X637733Y138233D01*
X636823Y138840D01*
X635750Y139054D01*
X634677Y138840D01*
X633767Y138233D01*
X633160Y137323D01*
X632946Y136250D01*
X633160Y135177D01*
X633767Y134267D01*
X634677Y133660D01*
X635750Y133446D01*
X636823Y133660D01*
X637733Y134267D01*
X637924Y134553D01*
X639422Y134598D01*
X639475Y134517D01*
X640385Y133910D01*
X641458Y133696D01*
X642531Y133910D01*
X643441Y134517D01*
X644048Y135427D01*
X644262Y136500D01*
X644048Y137573D01*
X643441Y138483D01*
X642531Y139090D01*
X641458Y139304D01*
D02*
G37*
G36*
X656658Y141304D02*
X655585Y141090D01*
X654675Y140483D01*
X654067Y139573D01*
X653942Y138945D01*
X653736Y138451D01*
X652657Y138004D01*
X652408Y138054D01*
X651335Y137840D01*
X650425Y137233D01*
X649817Y136323D01*
X649604Y135250D01*
X649817Y134177D01*
X650425Y133267D01*
X651335Y132660D01*
X652408Y132446D01*
X653481Y132660D01*
X654390Y133267D01*
X654998Y134177D01*
X655123Y134805D01*
X655329Y135299D01*
X656408Y135746D01*
X656658Y135696D01*
X657731Y135910D01*
X658640Y136517D01*
X659248Y137427D01*
X659462Y138500D01*
X659248Y139573D01*
X658640Y140483D01*
X657731Y141090D01*
X656658Y141304D01*
D02*
G37*
G36*
X401667Y137804D02*
X400594Y137590D01*
X399685Y136983D01*
X398650D01*
X397740Y137590D01*
X396667Y137804D01*
X395594Y137590D01*
X394685Y136983D01*
X393650D01*
X392740Y137590D01*
X391667Y137804D01*
X390594Y137590D01*
X389685Y136983D01*
X388650D01*
X387740Y137590D01*
X386667Y137804D01*
X385594Y137590D01*
X384685Y136983D01*
X383650D01*
X382740Y137590D01*
X381667Y137804D01*
X380594Y137590D01*
X379685Y136983D01*
X379077Y136073D01*
X378863Y135000D01*
X379077Y133927D01*
X379457Y133358D01*
X379599Y132500D01*
X379457Y131642D01*
X379077Y131073D01*
X378863Y130000D01*
X379077Y128927D01*
X379685Y128017D01*
X380594Y127410D01*
X381667Y127196D01*
X382740Y127410D01*
X383650Y128017D01*
X384258Y128927D01*
X384471Y130000D01*
X384258Y131073D01*
X383945Y131541D01*
X384235Y132135D01*
X385590Y132412D01*
X385594Y132410D01*
X386667Y132196D01*
X387740Y132410D01*
X388650Y133017D01*
X389685D01*
X390594Y132410D01*
X391667Y132196D01*
X392740Y132410D01*
X393650Y133017D01*
X394685D01*
X395594Y132410D01*
X396667Y132196D01*
X397740Y132410D01*
X398650Y133017D01*
X399685D01*
X400594Y132410D01*
X401667Y132196D01*
X402740Y132410D01*
X403650Y133017D01*
X404258Y133927D01*
X404471Y135000D01*
X404258Y136073D01*
X403650Y136983D01*
X402740Y137590D01*
X401667Y137804D01*
D02*
G37*
G36*
X154500Y141554D02*
X153427Y141340D01*
X152517Y140733D01*
X151910Y139823D01*
X151696Y138750D01*
X151910Y137677D01*
X152517Y136767D01*
X153427Y136160D01*
X154500Y135946D01*
X155573Y136160D01*
X156483Y136767D01*
X157090Y137677D01*
X157304Y138750D01*
X157090Y139823D01*
X156483Y140733D01*
X155573Y141340D01*
X154500Y141554D01*
D02*
G37*
G36*
X287700Y141504D02*
X286627Y141290D01*
X285717Y140683D01*
X285110Y139773D01*
X284896Y138700D01*
X285110Y137627D01*
X285717Y136717D01*
X286627Y136110D01*
X287700Y135896D01*
X288773Y136110D01*
X289683Y136717D01*
X290290Y137627D01*
X290504Y138700D01*
X290290Y139773D01*
X289683Y140683D01*
X288773Y141290D01*
X287700Y141504D01*
D02*
G37*
G36*
X435958Y141104D02*
X434885Y140890D01*
X433975Y140283D01*
X433367Y139373D01*
X433154Y138300D01*
X433367Y137227D01*
X433975Y136317D01*
X434885Y135709D01*
X435958Y135496D01*
X437031Y135709D01*
X437940Y136317D01*
X438548Y137227D01*
X438762Y138300D01*
X438548Y139373D01*
X437940Y140283D01*
X437031Y140890D01*
X435958Y141104D01*
D02*
G37*
G36*
X486862Y141064D02*
X485789Y140851D01*
X484880Y140243D01*
X484272Y139334D01*
X484058Y138261D01*
X484272Y137188D01*
X484880Y136278D01*
X485789Y135670D01*
X486862Y135457D01*
X487935Y135670D01*
X488845Y136278D01*
X489453Y137188D01*
X489666Y138261D01*
X489453Y139334D01*
X488845Y140243D01*
X487935Y140851D01*
X486862Y141064D01*
D02*
G37*
G36*
X451908Y140554D02*
X450835Y140340D01*
X449925Y139733D01*
X449317Y138823D01*
X449104Y137750D01*
X449317Y136677D01*
X449925Y135767D01*
X450835Y135160D01*
X451908Y134946D01*
X452981Y135160D01*
X453890Y135767D01*
X454498Y136677D01*
X454712Y137750D01*
X454498Y138823D01*
X453890Y139733D01*
X452981Y140340D01*
X451908Y140554D01*
D02*
G37*
G36*
X566783Y154384D02*
X565710Y154171D01*
X564800Y153563D01*
X564192Y152653D01*
X563979Y151580D01*
X564192Y150507D01*
X564800Y149598D01*
X565710Y148990D01*
X566126Y148907D01*
X566173Y148898D01*
Y147603D01*
X566126Y147594D01*
X565710Y147511D01*
X564800Y146903D01*
X564192Y145993D01*
X563979Y144920D01*
X563453Y144394D01*
X562380Y144181D01*
X561470Y143573D01*
X560862Y142663D01*
X560649Y141590D01*
X560862Y140517D01*
X561470Y139608D01*
X562380Y139000D01*
X562796Y138917D01*
X562843Y138908D01*
Y137613D01*
X562796Y137604D01*
X562380Y137521D01*
X561470Y136913D01*
X560862Y136003D01*
X560649Y134930D01*
X560862Y133857D01*
X561470Y132948D01*
X562380Y132340D01*
X563453Y132127D01*
X564106Y130962D01*
X564192Y130527D01*
X564800Y129618D01*
X565710Y129010D01*
X566783Y128797D01*
X567309Y128270D01*
X567522Y127197D01*
X568130Y126288D01*
X569040Y125680D01*
X569456Y125597D01*
X569503Y125588D01*
Y124293D01*
X569456Y124284D01*
X569040Y124201D01*
X568130Y123593D01*
X567522Y122683D01*
X567462Y122381D01*
X566167D01*
X566123Y122603D01*
X565515Y123513D01*
X564606Y124121D01*
X563533Y124334D01*
X562460Y124121D01*
X561550Y123513D01*
X560942Y122603D01*
X560729Y121530D01*
X560942Y120457D01*
X561550Y119548D01*
X562460Y118940D01*
X562682Y118896D01*
Y117601D01*
X562380Y117541D01*
X561470Y116933D01*
X560862Y116023D01*
X560649Y114950D01*
X560862Y113877D01*
X561470Y112968D01*
X562380Y112360D01*
X563453Y112146D01*
X564526Y112360D01*
X565435Y112968D01*
X566043Y113877D01*
X566126Y114294D01*
X566135Y114340D01*
X567430D01*
X567440Y114294D01*
X567522Y113877D01*
X568130Y112968D01*
X569040Y112360D01*
X570113Y112146D01*
X571186Y112360D01*
X572095Y112968D01*
X572703Y113877D01*
X572917Y114950D01*
X573443Y115476D01*
X574516Y115690D01*
X575425Y116298D01*
X576033Y117207D01*
X576247Y118280D01*
X576773Y118806D01*
X577846Y119020D01*
X578817Y119427D01*
X579425Y118517D01*
X580335Y117909D01*
X581408Y117696D01*
X582481Y117909D01*
X583390Y118517D01*
X583998Y119427D01*
X584212Y120500D01*
X583998Y121573D01*
X583390Y122483D01*
X582481Y123090D01*
X581408Y123304D01*
X580335Y123090D01*
X579363Y122683D01*
X578755Y123593D01*
X577846Y124201D01*
X576773Y124414D01*
X575700Y124201D01*
X574790Y123593D01*
X574182Y122683D01*
X574090Y122220D01*
X572795D01*
X572703Y122683D01*
X572095Y123593D01*
X571186Y124201D01*
X570769Y124284D01*
X570723Y124293D01*
Y125588D01*
X570769Y125597D01*
X571186Y125680D01*
X572095Y126288D01*
X572703Y127197D01*
X572917Y128270D01*
X572703Y129343D01*
X572095Y130253D01*
X571186Y130861D01*
X570113Y131074D01*
X569587Y131600D01*
X569373Y132673D01*
X568765Y133583D01*
X567856Y134191D01*
X566783Y134404D01*
X566130Y135569D01*
X566043Y136003D01*
X565435Y136913D01*
X564526Y137521D01*
X564109Y137604D01*
X564063Y137613D01*
Y138908D01*
X564109Y138917D01*
X564526Y139000D01*
X565435Y139608D01*
X566043Y140517D01*
X566257Y141590D01*
X566783Y142117D01*
X567856Y142330D01*
X568765Y142938D01*
X569373Y143847D01*
X569456Y144264D01*
X569465Y144311D01*
X570760D01*
X570770Y144264D01*
X570852Y143847D01*
X571460Y142938D01*
X572370Y142330D01*
X572786Y142247D01*
X572833Y142238D01*
Y140943D01*
X572786Y140934D01*
X572370Y140851D01*
X571460Y140243D01*
X570852Y139333D01*
X570639Y138260D01*
X570852Y137187D01*
X571460Y136278D01*
X572370Y135670D01*
X573443Y135456D01*
X573969Y134930D01*
X574182Y133857D01*
X574790Y132948D01*
X575700Y132340D01*
X576773Y132127D01*
X577846Y132340D01*
X578755Y132948D01*
X579363Y133857D01*
X579577Y134930D01*
X579363Y136003D01*
X578755Y136913D01*
X577846Y137521D01*
X576773Y137734D01*
X576247Y138260D01*
X576033Y139333D01*
X575425Y140243D01*
X574516Y140851D01*
X574099Y140934D01*
X574053Y140943D01*
Y142238D01*
X574099Y142247D01*
X574516Y142330D01*
X575425Y142938D01*
X576033Y143847D01*
X576247Y144920D01*
X576033Y145993D01*
X575425Y146903D01*
X574516Y147511D01*
X573443Y147724D01*
X572370Y147511D01*
X571460Y146903D01*
X570852Y145993D01*
X570770Y145577D01*
X570760Y145530D01*
X569465D01*
X569456Y145577D01*
X569373Y145993D01*
X568765Y146903D01*
X567856Y147511D01*
X567439Y147594D01*
X567393Y147603D01*
Y148898D01*
X567439Y148907D01*
X567856Y148990D01*
X568765Y149598D01*
X569373Y150507D01*
X569587Y151580D01*
X569373Y152653D01*
X568765Y153563D01*
X567856Y154171D01*
X566783Y154384D01*
D02*
G37*
G36*
X9750Y137054D02*
X8677Y136840D01*
X7767Y136233D01*
X7160Y135323D01*
X6946Y134250D01*
X7160Y133177D01*
X7767Y132267D01*
X8677Y131660D01*
X9750Y131446D01*
X10823Y131660D01*
X11733Y132267D01*
X12340Y133177D01*
X12554Y134250D01*
X12340Y135323D01*
X11733Y136233D01*
X10823Y136840D01*
X9750Y137054D01*
D02*
G37*
G36*
X21750Y140804D02*
X20677Y140590D01*
X19767Y139983D01*
X19160Y139073D01*
X18946Y138000D01*
X19160Y136927D01*
X19310Y136702D01*
X19667Y135749D01*
X19310Y134796D01*
X19160Y134570D01*
X18946Y133497D01*
X19160Y132424D01*
X19767Y131515D01*
X20677Y130907D01*
X21750Y130694D01*
X22823Y130907D01*
X23733Y131515D01*
X24341Y132424D01*
X24554Y133497D01*
X24341Y134570D01*
X24190Y134796D01*
X23833Y135749D01*
X24190Y136702D01*
X24341Y136927D01*
X24554Y138000D01*
X24341Y139073D01*
X23733Y139983D01*
X22823Y140590D01*
X21750Y140804D01*
D02*
G37*
G36*
X-2250Y135304D02*
X-3323Y135090D01*
X-4233Y134483D01*
X-4840Y133573D01*
X-5054Y132500D01*
X-4840Y131427D01*
X-4233Y130517D01*
X-3323Y129910D01*
X-2250Y129696D01*
X-1177Y129910D01*
X-267Y130517D01*
X340Y131427D01*
X554Y132500D01*
X340Y133573D01*
X-267Y134483D01*
X-1177Y135090D01*
X-2250Y135304D01*
D02*
G37*
G36*
X466132Y134954D02*
X465059Y134740D01*
X464149Y134133D01*
X463541Y133223D01*
X463328Y132150D01*
X463541Y131077D01*
X464149Y130167D01*
X465059Y129559D01*
X466132Y129346D01*
X467205Y129559D01*
X468114Y130167D01*
X468722Y131077D01*
X468936Y132150D01*
X468722Y133223D01*
X468114Y134133D01*
X467205Y134740D01*
X466132Y134954D01*
D02*
G37*
G36*
X696250Y134554D02*
X695177Y134340D01*
X694267Y133733D01*
X693660Y132823D01*
X693446Y131750D01*
X693660Y130677D01*
X694267Y129768D01*
X695177Y129160D01*
X696250Y128946D01*
X697323Y129160D01*
X698233Y129768D01*
X698840Y130677D01*
X699054Y131750D01*
X698840Y132823D01*
X698233Y133733D01*
X697323Y134340D01*
X696250Y134554D01*
D02*
G37*
G36*
X371667Y132804D02*
X370594Y132590D01*
X369685Y131983D01*
X369077Y131073D01*
X368863Y130000D01*
X369077Y128927D01*
X369685Y128017D01*
X370594Y127410D01*
X371667Y127196D01*
X372740Y127410D01*
X373650Y128017D01*
X374258Y128927D01*
X374471Y130000D01*
X374258Y131073D01*
X373650Y131983D01*
X372740Y132590D01*
X371667Y132804D01*
D02*
G37*
G36*
X361750Y127554D02*
X360677Y127340D01*
X359767Y126733D01*
X359140D01*
X358231Y127340D01*
X357158Y127554D01*
X356085Y127340D01*
X355175Y126733D01*
X354567Y125823D01*
X354354Y124750D01*
X354567Y123677D01*
X355175Y122767D01*
X356085Y122160D01*
X357158Y121946D01*
X358231Y122160D01*
X358311Y122213D01*
X359227Y121298D01*
X359077Y121073D01*
X358863Y120000D01*
X359077Y118927D01*
X359685Y118017D01*
X360594Y117410D01*
X361667Y117196D01*
X362740Y117410D01*
X363650Y118017D01*
X364258Y118927D01*
X364471Y120000D01*
X364258Y121073D01*
X363925Y121571D01*
X363733Y122767D01*
X364340Y123677D01*
X364554Y124750D01*
X364340Y125823D01*
X363733Y126733D01*
X362823Y127340D01*
X361750Y127554D01*
D02*
G37*
G36*
X139375Y128679D02*
X138302Y128465D01*
X137392Y127858D01*
X136785Y126948D01*
X136571Y125875D01*
X136785Y124802D01*
X137392Y123892D01*
X138302Y123285D01*
X139375Y123071D01*
X140448Y123285D01*
X141358Y123892D01*
X141966Y124802D01*
X142179Y125875D01*
X141966Y126948D01*
X141358Y127858D01*
X140448Y128465D01*
X139375Y128679D01*
D02*
G37*
G36*
X396667Y122804D02*
X395594Y122590D01*
X394685Y121983D01*
X393650D01*
X392740Y122590D01*
X391667Y122804D01*
X390594Y122590D01*
X389685Y121983D01*
X389077Y121073D01*
X388863Y120000D01*
X389077Y118927D01*
X389685Y118017D01*
X390594Y117410D01*
X391667Y117196D01*
X392740Y117410D01*
X393650Y118017D01*
X394685D01*
X395594Y117410D01*
X396667Y117196D01*
X397740Y117410D01*
X398650Y118017D01*
X399258Y118927D01*
X399471Y120000D01*
X399258Y121073D01*
X398650Y121983D01*
X397740Y122590D01*
X396667Y122804D01*
D02*
G37*
G36*
X33750Y130304D02*
X32677Y130090D01*
X31767Y129483D01*
X31160Y128573D01*
X30946Y127500D01*
X31160Y126427D01*
X31767Y125517D01*
X32677Y124910D01*
X32738Y124897D01*
Y123603D01*
X32677Y123590D01*
X31767Y122983D01*
X31160Y122073D01*
X30946Y121000D01*
X31160Y119927D01*
X31767Y119017D01*
X32677Y118410D01*
X33750Y118196D01*
X34823Y118410D01*
X35733Y119017D01*
X36340Y119927D01*
X36554Y121000D01*
X36340Y122073D01*
X35733Y122983D01*
X34823Y123590D01*
X34762Y123603D01*
Y124897D01*
X34823Y124910D01*
X35733Y125517D01*
X36340Y126427D01*
X36554Y127500D01*
X36340Y128573D01*
X35733Y129483D01*
X34823Y130090D01*
X33750Y130304D01*
D02*
G37*
G36*
X82000Y123554D02*
X80927Y123340D01*
X80017Y122733D01*
X79410Y121823D01*
X79196Y120750D01*
X79410Y119677D01*
X80017Y118767D01*
X80927Y118160D01*
X82000Y117946D01*
X83073Y118160D01*
X83983Y118767D01*
X84590Y119677D01*
X84804Y120750D01*
X84590Y121823D01*
X83983Y122733D01*
X83073Y123340D01*
X82000Y123554D01*
D02*
G37*
G36*
X6750Y123304D02*
X5677Y123090D01*
X4767Y122483D01*
X4160Y121573D01*
X3946Y120500D01*
X4160Y119427D01*
X4767Y118517D01*
X5677Y117910D01*
X6750Y117696D01*
X7823Y117910D01*
X8733Y118517D01*
X9340Y119427D01*
X9554Y120500D01*
X9340Y121573D01*
X8733Y122483D01*
X7823Y123090D01*
X6750Y123304D01*
D02*
G37*
G36*
X406667Y122804D02*
X405594Y122590D01*
X404685Y121983D01*
X404077Y121073D01*
X403863Y120000D01*
X404077Y118927D01*
X404685Y118017D01*
X405594Y117410D01*
X406667Y117196D01*
X407740Y117410D01*
X408650Y118017D01*
X409258Y118927D01*
X409471Y120000D01*
X409258Y121073D01*
X408650Y121983D01*
X407740Y122590D01*
X406667Y122804D01*
D02*
G37*
G36*
X376667D02*
X375594Y122590D01*
X374685Y121983D01*
X374077Y121073D01*
X373863Y120000D01*
X374077Y118927D01*
X374685Y118017D01*
X375594Y117410D01*
X376667Y117196D01*
X377740Y117410D01*
X378650Y118017D01*
X379258Y118927D01*
X379471Y120000D01*
X379258Y121073D01*
X378650Y121983D01*
X377740Y122590D01*
X376667Y122804D01*
D02*
G37*
G36*
X462158Y122304D02*
X461085Y122090D01*
X460175Y121483D01*
X459567Y120573D01*
X459354Y119500D01*
X459567Y118427D01*
X460175Y117517D01*
X461085Y116910D01*
X462158Y116696D01*
X463231Y116910D01*
X464140Y117517D01*
X464748Y118427D01*
X464962Y119500D01*
X464748Y120573D01*
X464140Y121483D01*
X463231Y122090D01*
X462158Y122304D01*
D02*
G37*
G36*
X298750Y120804D02*
X297677Y120590D01*
X296767Y119983D01*
X296160Y119073D01*
X295946Y118000D01*
X296160Y116927D01*
X296767Y116017D01*
X297677Y115410D01*
X298750Y115196D01*
X299823Y115410D01*
X300733Y116017D01*
X301340Y116927D01*
X301554Y118000D01*
X301340Y119073D01*
X300733Y119983D01*
X299823Y120590D01*
X298750Y120804D01*
D02*
G37*
G36*
X17767Y124668D02*
X16694Y124454D01*
X15784Y123847D01*
X15177Y122937D01*
X14963Y121864D01*
X15177Y120791D01*
X15367Y120506D01*
X15577Y119363D01*
X15303Y118675D01*
X15010Y118236D01*
X14796Y117163D01*
X15010Y116090D01*
X15617Y115181D01*
X16527Y114573D01*
X17600Y114359D01*
X18673Y114573D01*
X19583Y115181D01*
X20190Y116090D01*
X20404Y117163D01*
X20190Y118236D01*
X20000Y118521D01*
X19790Y119664D01*
X20064Y120352D01*
X20357Y120791D01*
X20571Y121864D01*
X20357Y122937D01*
X19750Y123847D01*
X18840Y124454D01*
X17767Y124668D01*
D02*
G37*
G36*
X450408Y125804D02*
X449335Y125590D01*
X448425Y124983D01*
X447817Y124073D01*
X447604Y123000D01*
X447817Y121927D01*
X448425Y121017D01*
X449335Y120410D01*
X449769Y120323D01*
X450038Y118975D01*
X449675Y118733D01*
X449067Y117823D01*
X448854Y116750D01*
X449067Y115677D01*
X449675Y114767D01*
X450585Y114160D01*
X451658Y113946D01*
X452731Y114160D01*
X453640Y114767D01*
X454248Y115677D01*
X454462Y116750D01*
X454248Y117823D01*
X453640Y118733D01*
X452731Y119340D01*
X452296Y119427D01*
X452028Y120775D01*
X452390Y121017D01*
X452998Y121927D01*
X453212Y123000D01*
X452998Y124073D01*
X452390Y124983D01*
X451481Y125590D01*
X450408Y125804D01*
D02*
G37*
G36*
X325500Y119054D02*
X324427Y118841D01*
X323517Y118233D01*
X322910Y117323D01*
X322696Y116250D01*
X322910Y115177D01*
X323517Y114267D01*
X324427Y113660D01*
X325500Y113446D01*
X326573Y113660D01*
X327483Y114267D01*
X328090Y115177D01*
X328304Y116250D01*
X328090Y117323D01*
X327483Y118233D01*
X326573Y118841D01*
X325500Y119054D01*
D02*
G37*
G36*
X709250Y119054D02*
X708177Y118840D01*
X707267Y118233D01*
X706660Y117323D01*
X706446Y116250D01*
X706660Y115177D01*
X707267Y114267D01*
X708177Y113660D01*
X709250Y113446D01*
X710323Y113660D01*
X711233Y114267D01*
X711840Y115177D01*
X712054Y116250D01*
X711840Y117323D01*
X711233Y118233D01*
X710323Y118840D01*
X709250Y119054D01*
D02*
G37*
G36*
X371667Y117804D02*
X370594Y117590D01*
X369685Y116983D01*
X369077Y116073D01*
X368863Y115000D01*
X369077Y113927D01*
X369685Y113017D01*
X370594Y112410D01*
X371667Y112196D01*
X372740Y112410D01*
X373650Y113017D01*
X374258Y113927D01*
X374471Y115000D01*
X374258Y116073D01*
X373650Y116983D01*
X372740Y117590D01*
X371667Y117804D01*
D02*
G37*
G36*
X184750Y114554D02*
X183677Y114340D01*
X182767Y113733D01*
X182160Y112823D01*
X181946Y111750D01*
X182160Y110677D01*
X182767Y109767D01*
X183677Y109160D01*
X184750Y108946D01*
X185823Y109160D01*
X186733Y109767D01*
X187340Y110677D01*
X187554Y111750D01*
X187340Y112823D01*
X186733Y113733D01*
X185823Y114340D01*
X184750Y114554D01*
D02*
G37*
G36*
X480202Y121084D02*
X479129Y120871D01*
X478220Y120263D01*
X477612Y119354D01*
X477398Y118280D01*
X477612Y117207D01*
X478220Y116298D01*
X479129Y115690D01*
X479546Y115607D01*
X479593Y115598D01*
Y114303D01*
X479546Y114294D01*
X479129Y114211D01*
X478220Y113603D01*
X477612Y112693D01*
X477398Y111621D01*
X476872Y111094D01*
X475799Y110881D01*
X474890Y110273D01*
X474282Y109363D01*
X474196Y108929D01*
X473542Y107764D01*
X472469Y107551D01*
X471560Y106943D01*
X470952Y106033D01*
X470738Y104960D01*
X470952Y103887D01*
X471560Y102978D01*
X472469Y102370D01*
X473542Y102156D01*
X474615Y102370D01*
X475525Y102978D01*
X476133Y103887D01*
X476219Y104322D01*
X476235Y104351D01*
X477509D01*
X477525Y104322D01*
X477612Y103887D01*
X478220Y102978D01*
X479129Y102370D01*
X480202Y102156D01*
X481275Y102370D01*
X482185Y102978D01*
X482793Y103887D01*
X483006Y104960D01*
X482793Y106033D01*
X482185Y106943D01*
X481275Y107551D01*
X480812Y107643D01*
Y108938D01*
X481275Y109030D01*
X482185Y109638D01*
X482793Y110548D01*
X482876Y110964D01*
X482885Y111011D01*
X484180D01*
X484189Y110964D01*
X484272Y110547D01*
X484880Y109638D01*
X485789Y109030D01*
X486862Y108816D01*
X487935Y109030D01*
X488845Y109638D01*
X489453Y110547D01*
X489666Y111620D01*
X489453Y112693D01*
X488845Y113603D01*
X487935Y114211D01*
X487519Y114294D01*
X487472Y114303D01*
Y115598D01*
X487519Y115607D01*
X487935Y115690D01*
X488845Y116298D01*
X489453Y117207D01*
X489666Y118280D01*
X489453Y119354D01*
X488845Y120263D01*
X487935Y120871D01*
X486862Y121084D01*
X485789Y120871D01*
X484880Y120263D01*
X484272Y119354D01*
X484189Y118937D01*
X484180Y118890D01*
X482885D01*
X482876Y118937D01*
X482793Y119354D01*
X482185Y120263D01*
X481275Y120871D01*
X480202Y121084D01*
D02*
G37*
G36*
X28875Y114054D02*
X27802Y113840D01*
X26892Y113233D01*
X26285Y112323D01*
X26071Y111250D01*
X26285Y110177D01*
X26892Y109267D01*
X27802Y108660D01*
X28875Y108446D01*
X29948Y108660D01*
X30858Y109267D01*
X31465Y110177D01*
X31679Y111250D01*
X31465Y112323D01*
X30858Y113233D01*
X29948Y113840D01*
X28875Y114054D01*
D02*
G37*
G36*
X607208Y112804D02*
X606135Y112590D01*
X605225Y111983D01*
X604617Y111073D01*
X604404Y110000D01*
X604617Y108927D01*
X605225Y108017D01*
X606135Y107410D01*
X607208Y107196D01*
X608281Y107410D01*
X609190Y108017D01*
X609798Y108927D01*
X610012Y110000D01*
X609798Y111073D01*
X609190Y111983D01*
X608281Y112590D01*
X607208Y112804D01*
D02*
G37*
G36*
X421658D02*
X420585Y112590D01*
X419675Y111983D01*
X419067Y111073D01*
X418854Y110000D01*
X419067Y108927D01*
X419675Y108017D01*
X420585Y107410D01*
X421658Y107196D01*
X422731Y107410D01*
X423640Y108017D01*
X424248Y108927D01*
X424462Y110000D01*
X424248Y111073D01*
X423640Y111983D01*
X422731Y112590D01*
X421658Y112804D01*
D02*
G37*
G36*
X386802D02*
X385729Y112590D01*
X384820Y111983D01*
X384212Y111073D01*
X383999Y110000D01*
X384212Y108927D01*
X384820Y108017D01*
X385729Y107410D01*
X386802Y107196D01*
X387876Y107410D01*
X388785Y108017D01*
X389393Y108927D01*
X389606Y110000D01*
X389393Y111073D01*
X388785Y111983D01*
X387876Y112590D01*
X386802Y112804D01*
D02*
G37*
G36*
X356667D02*
X355594Y112590D01*
X354685Y111983D01*
X354077Y111073D01*
X353863Y110000D01*
X354077Y108927D01*
X354685Y108017D01*
X355594Y107410D01*
X356667Y107196D01*
X357740Y107410D01*
X358650Y108017D01*
X359258Y108927D01*
X359471Y110000D01*
X359258Y111073D01*
X358650Y111983D01*
X357740Y112590D01*
X356667Y112804D01*
D02*
G37*
G36*
X591158Y112304D02*
X590085Y112090D01*
X589175Y111483D01*
X588567Y110573D01*
X588354Y109500D01*
X588567Y108427D01*
X589175Y107517D01*
X590085Y106910D01*
X591158Y106696D01*
X592231Y106910D01*
X593140Y107517D01*
X593748Y108427D01*
X593961Y109500D01*
X593748Y110573D01*
X593140Y111483D01*
X592231Y112090D01*
X591158Y112304D01*
D02*
G37*
G36*
X95500Y125304D02*
X94427Y125090D01*
X93517Y124483D01*
X92909Y123573D01*
X92696Y122500D01*
X92909Y121427D01*
X93517Y120517D01*
X93764Y120353D01*
X93819Y119927D01*
X93647Y118903D01*
X93017Y118483D01*
X92410Y117573D01*
X92196Y116500D01*
X92410Y115427D01*
X93017Y114517D01*
X93725Y114045D01*
X93517Y112899D01*
X93477Y112799D01*
X92427Y112590D01*
X91517Y111983D01*
X90910Y111073D01*
X90696Y110000D01*
X90910Y108927D01*
X91517Y108017D01*
X92427Y107410D01*
X93500Y107196D01*
X94068Y107309D01*
X94492Y106514D01*
X93795Y105745D01*
X93500Y105804D01*
X92427Y105590D01*
X91517Y104983D01*
X90910Y104073D01*
X90696Y103000D01*
X90910Y101927D01*
X91517Y101017D01*
X92427Y100410D01*
X93500Y100196D01*
X94573Y100410D01*
X95483Y101017D01*
X96090Y101927D01*
X96210Y102528D01*
X96912Y103168D01*
X97531Y103339D01*
X98250Y103196D01*
X99323Y103410D01*
X99333Y103416D01*
X99910Y103177D01*
X100517Y102267D01*
X101427Y101660D01*
X102500Y101446D01*
X103573Y101660D01*
X104483Y102267D01*
X105001Y103044D01*
X105090Y103177D01*
X105218Y103338D01*
X106525Y103061D01*
X106559Y102930D01*
X106660Y102427D01*
X107267Y101517D01*
X108097Y100773D01*
X107583Y99895D01*
X107535Y99823D01*
X107321Y98750D01*
X107535Y97677D01*
X108142Y96767D01*
X109052Y96160D01*
X110125Y95946D01*
X111198Y96160D01*
X112108Y96767D01*
X112715Y97677D01*
X112929Y98750D01*
X112715Y99823D01*
X112108Y100733D01*
X111278Y101477D01*
X111792Y102355D01*
X111840Y102427D01*
X112054Y103500D01*
X111840Y104573D01*
X111233Y105483D01*
X110323Y106090D01*
X109250Y106304D01*
X108177Y106090D01*
X107267Y105483D01*
X106749Y104706D01*
X106659Y104573D01*
X106532Y104412D01*
X105225Y104689D01*
X105190Y104820D01*
X105090Y105323D01*
X104483Y106233D01*
X103573Y106840D01*
X102500Y107054D01*
X101427Y106840D01*
X101417Y106834D01*
X100840Y107073D01*
X100233Y107983D01*
X99323Y108590D01*
X98250Y108804D01*
X97292Y108613D01*
X96796Y108930D01*
X96197Y109463D01*
X96304Y110000D01*
X96090Y111073D01*
X95483Y111983D01*
X94775Y112455D01*
X94983Y113601D01*
X95023Y113701D01*
X96073Y113910D01*
X96983Y114517D01*
X97590Y115427D01*
X97804Y116500D01*
X97590Y117573D01*
X96983Y118483D01*
X96736Y118647D01*
X96681Y119073D01*
X96853Y120097D01*
X97483Y120517D01*
X98090Y121427D01*
X98304Y122500D01*
X98090Y123573D01*
X97483Y124483D01*
X96573Y125090D01*
X95500Y125304D01*
D02*
G37*
G36*
X317125Y114179D02*
X316052Y113965D01*
X315142Y113358D01*
X314535Y112448D01*
X314321Y111375D01*
X314535Y110302D01*
X315142Y109392D01*
X316052Y108785D01*
X317196Y108500D01*
X317410Y107427D01*
X318017Y106517D01*
X318927Y105910D01*
X320000Y105696D01*
X321073Y105910D01*
X321983Y106517D01*
X322590Y107427D01*
X322804Y108500D01*
X322590Y109573D01*
X321983Y110483D01*
X321073Y111090D01*
X319929Y111375D01*
X319715Y112448D01*
X319108Y113358D01*
X318198Y113965D01*
X317125Y114179D01*
D02*
G37*
G36*
X576773Y111094D02*
X575700Y110881D01*
X574790Y110273D01*
X574182Y109363D01*
X573969Y108290D01*
X574182Y107217D01*
X574790Y106308D01*
X575700Y105700D01*
X576773Y105486D01*
X577846Y105700D01*
X578755Y106308D01*
X579363Y107217D01*
X579577Y108290D01*
X579363Y109363D01*
X578755Y110273D01*
X577846Y110881D01*
X576773Y111094D01*
D02*
G37*
G36*
X298700Y106854D02*
X297627Y106641D01*
X296717Y106033D01*
X296110Y105123D01*
X296097Y105062D01*
X294802D01*
X294790Y105123D01*
X294182Y106033D01*
X293273Y106641D01*
X292200Y106854D01*
X291127Y106641D01*
X290217Y106033D01*
X289610Y105123D01*
X289396Y104050D01*
X289610Y102977D01*
X290217Y102067D01*
X291127Y101460D01*
X292200Y101246D01*
X293273Y101460D01*
X294182Y102067D01*
X294790Y102977D01*
X294802Y103038D01*
X296097D01*
X296110Y102977D01*
X296717Y102067D01*
X297627Y101460D01*
X298700Y101246D01*
X299773Y101460D01*
X300683Y102067D01*
X301290Y102977D01*
X301504Y104050D01*
X301290Y105123D01*
X300683Y106033D01*
X299773Y106641D01*
X298700Y106854D01*
D02*
G37*
G36*
X259750Y109804D02*
X258677Y109590D01*
X257767Y108983D01*
X257160Y108073D01*
X256946Y107000D01*
X257160Y105927D01*
X257767Y105017D01*
X258677Y104410D01*
X259750Y104196D01*
X260823Y104410D01*
X261733Y105017D01*
X262340Y105927D01*
X262554Y107000D01*
X262340Y108073D01*
X261733Y108983D01*
X260823Y109590D01*
X259750Y109804D01*
D02*
G37*
G36*
X9350Y109304D02*
X8277Y109090D01*
X7367Y108483D01*
X6760Y107573D01*
X6546Y106500D01*
X6760Y105427D01*
X7367Y104517D01*
X8277Y103910D01*
X9350Y103696D01*
X10423Y103910D01*
X11333Y104517D01*
X11940Y105427D01*
X12154Y106500D01*
X11940Y107573D01*
X11333Y108483D01*
X10423Y109090D01*
X9350Y109304D01*
D02*
G37*
G36*
X234000Y112554D02*
X232927Y112340D01*
X232017Y111733D01*
X231410Y110823D01*
X231196Y109750D01*
X231410Y108677D01*
X232017Y107767D01*
X232927Y107160D01*
X233103Y107125D01*
X234009Y106523D01*
X234025Y105745D01*
X233946Y105350D01*
X234160Y104277D01*
X234767Y103367D01*
X235677Y102760D01*
X236750Y102546D01*
X237823Y102760D01*
X238733Y103367D01*
X239340Y104277D01*
X239554Y105350D01*
X239340Y106423D01*
X238733Y107333D01*
X237823Y107940D01*
X237647Y107975D01*
X236741Y108577D01*
X236725Y109355D01*
X236804Y109750D01*
X236590Y110823D01*
X235983Y111733D01*
X235073Y112340D01*
X234000Y112554D01*
D02*
G37*
G36*
X361667Y107804D02*
X360594Y107590D01*
X359685Y106983D01*
X359077Y106073D01*
X358863Y105000D01*
X359077Y103927D01*
X359685Y103017D01*
X360594Y102410D01*
X361667Y102196D01*
X362740Y102410D01*
X363650Y103017D01*
X364258Y103927D01*
X364471Y105000D01*
X364258Y106073D01*
X363650Y106983D01*
X362740Y107590D01*
X361667Y107804D01*
D02*
G37*
G36*
X391667Y107804D02*
X390594Y107590D01*
X389685Y106983D01*
X389077Y106073D01*
X388863Y105000D01*
X389077Y103927D01*
X389685Y103017D01*
X390594Y102410D01*
X391667Y102196D01*
X392740Y102410D01*
X393650Y103017D01*
X394258Y103927D01*
X394471Y105000D01*
X394258Y106073D01*
X393650Y106983D01*
X392740Y107590D01*
X391667Y107804D01*
D02*
G37*
G36*
X371667D02*
X370594Y107590D01*
X369685Y106983D01*
X369077Y106073D01*
X368863Y105000D01*
X369077Y103927D01*
X369685Y103017D01*
X370594Y102410D01*
X371667Y102196D01*
X372740Y102410D01*
X373650Y103017D01*
X374258Y103927D01*
X374471Y105000D01*
X374258Y106073D01*
X373650Y106983D01*
X372740Y107590D01*
X371667Y107804D01*
D02*
G37*
G36*
X665533Y110554D02*
X664460Y110340D01*
X663550Y109733D01*
X662942Y108823D01*
X662729Y107750D01*
X662942Y106677D01*
X663053Y106511D01*
X663377Y105398D01*
X663005Y104604D01*
X662817Y104323D01*
X662604Y103250D01*
X662817Y102177D01*
X663425Y101267D01*
X664335Y100660D01*
X665408Y100446D01*
X666481Y100660D01*
X667390Y101267D01*
X667998Y102177D01*
X668212Y103250D01*
X667998Y104323D01*
X667887Y104489D01*
X667563Y105602D01*
X667935Y106396D01*
X668123Y106677D01*
X668337Y107750D01*
X668123Y108823D01*
X667515Y109733D01*
X666606Y110340D01*
X665533Y110554D01*
D02*
G37*
G36*
X19250Y105304D02*
X18177Y105090D01*
X17267Y104482D01*
X16660Y103573D01*
X16446Y102500D01*
X16660Y101427D01*
X17267Y100517D01*
X18177Y99909D01*
X19250Y99696D01*
X20323Y99909D01*
X21233Y100517D01*
X21841Y101427D01*
X22054Y102500D01*
X21841Y103573D01*
X21233Y104482D01*
X20323Y105090D01*
X19250Y105304D01*
D02*
G37*
G36*
X396667Y102804D02*
X395594Y102590D01*
X394685Y101983D01*
X394077Y101073D01*
X393863Y100000D01*
X394077Y98927D01*
X394685Y98017D01*
X395594Y97410D01*
X396667Y97196D01*
X397740Y97410D01*
X398650Y98017D01*
X399258Y98927D01*
X399471Y100000D01*
X399258Y101073D01*
X398650Y101983D01*
X397740Y102590D01*
X396667Y102804D01*
D02*
G37*
G36*
X376667D02*
X375594Y102590D01*
X374685Y101983D01*
X374077Y101073D01*
X373863Y100000D01*
X374077Y98927D01*
X374685Y98017D01*
X375594Y97410D01*
X376667Y97196D01*
X377740Y97410D01*
X378650Y98017D01*
X379258Y98927D01*
X379471Y100000D01*
X379258Y101073D01*
X378650Y101983D01*
X377740Y102590D01*
X376667Y102804D01*
D02*
G37*
G36*
X449158Y96804D02*
X448085Y96590D01*
X447861Y96441D01*
X446908Y96083D01*
X445954Y96441D01*
X445731Y96590D01*
X444658Y96804D01*
X443585Y96590D01*
X442675Y95983D01*
X442067Y95073D01*
X441854Y94000D01*
X442067Y92927D01*
X442675Y92017D01*
X443585Y91410D01*
X444658Y91196D01*
X445731Y91410D01*
X445954Y91559D01*
X446908Y91917D01*
X447861Y91559D01*
X448085Y91410D01*
X449158Y91196D01*
X450231Y91410D01*
X451140Y92017D01*
X451748Y92927D01*
X451962Y94000D01*
X451748Y95073D01*
X451140Y95983D01*
X450231Y96590D01*
X449158Y96804D01*
D02*
G37*
G36*
X425158Y101554D02*
X424085Y101340D01*
X423175Y100733D01*
X422567Y99823D01*
X422354Y98750D01*
X422567Y97677D01*
X423175Y96767D01*
X424085Y96159D01*
X425158Y95946D01*
X426231Y96159D01*
X427140Y96767D01*
X427748Y97677D01*
X427962Y98750D01*
X427748Y99823D01*
X427140Y100733D01*
X426231Y101340D01*
X425158Y101554D01*
D02*
G37*
G36*
X486862Y101104D02*
X485789Y100891D01*
X484880Y100283D01*
X484272Y99373D01*
X484058Y98300D01*
X484272Y97227D01*
X484880Y96318D01*
X485789Y95710D01*
X486862Y95496D01*
X487935Y95710D01*
X488845Y96318D01*
X489453Y97227D01*
X489666Y98300D01*
X489453Y99373D01*
X488845Y100283D01*
X487935Y100891D01*
X486862Y101104D01*
D02*
G37*
G36*
X238750Y100554D02*
X237677Y100340D01*
X236767Y99733D01*
X236160Y98823D01*
X235946Y97750D01*
X236160Y96677D01*
X236767Y95767D01*
X237677Y95160D01*
X238750Y94946D01*
X239823Y95160D01*
X240733Y95767D01*
X241340Y96677D01*
X241554Y97750D01*
X241340Y98823D01*
X240733Y99733D01*
X239823Y100340D01*
X238750Y100554D01*
D02*
G37*
G36*
X138750Y100054D02*
X137677Y99840D01*
X136767Y99233D01*
X136160Y98323D01*
X135946Y97250D01*
X136160Y96177D01*
X136767Y95267D01*
X137677Y94660D01*
X138750Y94446D01*
X139823Y94660D01*
X140733Y95267D01*
X141341Y96177D01*
X141554Y97250D01*
X141341Y98323D01*
X140733Y99233D01*
X139823Y99840D01*
X138750Y100054D01*
D02*
G37*
G36*
X191750Y99304D02*
X190677Y99090D01*
X189767Y98483D01*
X189160Y97573D01*
X188946Y96500D01*
X189160Y95427D01*
X189767Y94517D01*
X190677Y93910D01*
X191750Y93696D01*
X192823Y93910D01*
X193733Y94517D01*
X194340Y95427D01*
X194554Y96500D01*
X194340Y97573D01*
X193733Y98483D01*
X192823Y99090D01*
X191750Y99304D01*
D02*
G37*
G36*
X648908Y98554D02*
X647835Y98340D01*
X646925Y97733D01*
X646317Y96823D01*
X646104Y95750D01*
X646317Y94677D01*
X646925Y93767D01*
X647835Y93160D01*
X648908Y92946D01*
X649981Y93160D01*
X650890Y93767D01*
X651498Y94677D01*
X651712Y95750D01*
X651498Y96823D01*
X650890Y97733D01*
X649981Y98340D01*
X648908Y98554D01*
D02*
G37*
G36*
X391667Y97804D02*
X390594Y97590D01*
X389685Y96983D01*
X389077Y96073D01*
X388863Y95000D01*
X389077Y93927D01*
X389685Y93017D01*
X390594Y92410D01*
X391667Y92196D01*
X392740Y92410D01*
X393650Y93017D01*
X394258Y93927D01*
X394471Y95000D01*
X394258Y96073D01*
X393650Y96983D01*
X392740Y97590D01*
X391667Y97804D01*
D02*
G37*
G36*
X381667Y97804D02*
X380594Y97590D01*
X379685Y96983D01*
X379077Y96073D01*
X378863Y95000D01*
X379077Y93927D01*
X379685Y93017D01*
X380594Y92409D01*
X381667Y92196D01*
X382740Y92409D01*
X383650Y93017D01*
X384258Y93927D01*
X384471Y95000D01*
X384258Y96073D01*
X383650Y96983D01*
X382740Y97590D01*
X381667Y97804D01*
D02*
G37*
G36*
X326952Y99354D02*
X325879Y99140D01*
X324969Y98532D01*
X324362Y97623D01*
X324148Y96550D01*
X324362Y95477D01*
X324969Y94567D01*
X324568Y93308D01*
X324412Y93073D01*
X324198Y92000D01*
X324412Y90927D01*
X325019Y90017D01*
X325929Y89410D01*
X327002Y89196D01*
X328075Y89410D01*
X328985Y90017D01*
X329593Y90927D01*
X329806Y92000D01*
X329593Y93073D01*
X328985Y93982D01*
X329386Y95242D01*
X329542Y95477D01*
X329756Y96550D01*
X329542Y97623D01*
X328935Y98532D01*
X328025Y99140D01*
X326952Y99354D01*
D02*
G37*
G36*
X396667Y92804D02*
X395594Y92590D01*
X394685Y91983D01*
X394077Y91073D01*
X393863Y90000D01*
X394077Y88927D01*
X394685Y88017D01*
X395594Y87410D01*
X396667Y87196D01*
X397740Y87410D01*
X398650Y88017D01*
X399258Y88927D01*
X399471Y90000D01*
X399258Y91073D01*
X398650Y91983D01*
X397740Y92590D01*
X396667Y92804D01*
D02*
G37*
G36*
X356667D02*
X355594Y92590D01*
X354685Y91983D01*
X354077Y91073D01*
X353863Y90000D01*
X354077Y88927D01*
X354685Y88017D01*
X355594Y87410D01*
X356667Y87196D01*
X357740Y87410D01*
X358650Y88017D01*
X359258Y88927D01*
X359471Y90000D01*
X359258Y91073D01*
X358650Y91983D01*
X357740Y92590D01*
X356667Y92804D01*
D02*
G37*
G36*
X706250Y90554D02*
X705177Y90340D01*
X704268Y89733D01*
X703660Y88823D01*
X703446Y87750D01*
X703660Y86677D01*
X704268Y85767D01*
X705177Y85160D01*
X706250Y84946D01*
X707323Y85160D01*
X708233Y85767D01*
X708840Y86677D01*
X709054Y87750D01*
X708840Y88823D01*
X708233Y89733D01*
X707323Y90340D01*
X706250Y90554D01*
D02*
G37*
G36*
X68250Y89054D02*
X67177Y88840D01*
X66267Y88233D01*
X65660Y87323D01*
X65446Y86250D01*
X65660Y85177D01*
X66267Y84267D01*
X67177Y83660D01*
X68250Y83446D01*
X69323Y83660D01*
X70233Y84267D01*
X70840Y85177D01*
X71054Y86250D01*
X70840Y87323D01*
X70233Y88233D01*
X69323Y88840D01*
X68250Y89054D01*
D02*
G37*
G36*
X612658Y89054D02*
X611585Y88840D01*
X610675Y88233D01*
X610067Y87323D01*
X609854Y86250D01*
X610067Y85177D01*
X610675Y84267D01*
X611585Y83659D01*
X612658Y83446D01*
X613731Y83659D01*
X614640Y84267D01*
X615248Y85177D01*
X615462Y86250D01*
X615248Y87323D01*
X614640Y88233D01*
X613731Y88840D01*
X612658Y89054D01*
D02*
G37*
G36*
X206750Y87804D02*
X205677Y87591D01*
X204767Y86983D01*
X204160Y86073D01*
X203946Y85000D01*
X204160Y83927D01*
X204767Y83017D01*
X205677Y82410D01*
X206750Y82196D01*
X207823Y82410D01*
X208733Y83017D01*
X209340Y83927D01*
X209554Y85000D01*
X209340Y86073D01*
X208733Y86983D01*
X207823Y87591D01*
X206750Y87804D01*
D02*
G37*
G36*
X244750Y87804D02*
X243677Y87590D01*
X242767Y86983D01*
X242160Y86073D01*
X241946Y85000D01*
X242160Y83927D01*
X242767Y83017D01*
X243677Y82410D01*
X244750Y82196D01*
X245823Y82410D01*
X246733Y83017D01*
X247340Y83927D01*
X247554Y85000D01*
X247340Y86073D01*
X246733Y86983D01*
X245823Y87590D01*
X244750Y87804D01*
D02*
G37*
G36*
X381667Y87804D02*
X380594Y87590D01*
X379685Y86983D01*
X379077Y86073D01*
X378863Y85000D01*
X379077Y83927D01*
X379685Y83017D01*
X380594Y82410D01*
X381667Y82196D01*
X382740Y82410D01*
X383650Y83017D01*
X384258Y83927D01*
X384471Y85000D01*
X384258Y86073D01*
X383650Y86983D01*
X382740Y87590D01*
X381667Y87804D01*
D02*
G37*
G36*
X486862Y87784D02*
X485789Y87571D01*
X484880Y86963D01*
X484272Y86053D01*
X484058Y84980D01*
X484272Y83907D01*
X484880Y82998D01*
X485789Y82390D01*
X486862Y82176D01*
X487935Y82390D01*
X488845Y82998D01*
X489453Y83907D01*
X489666Y84980D01*
X489453Y86053D01*
X488845Y86963D01*
X487935Y87571D01*
X486862Y87784D01*
D02*
G37*
G36*
X458408Y86804D02*
X457335Y86590D01*
X456425Y85983D01*
X455817Y85073D01*
X455604Y84000D01*
X455817Y82927D01*
X456425Y82017D01*
X457335Y81410D01*
X458408Y81196D01*
X459481Y81410D01*
X460390Y82017D01*
X460998Y82927D01*
X461212Y84000D01*
X460998Y85073D01*
X460390Y85983D01*
X459481Y86590D01*
X458408Y86804D01*
D02*
G37*
G36*
X83500Y86554D02*
X82427Y86340D01*
X81517Y85732D01*
X80910Y84823D01*
X80696Y83750D01*
X80910Y82677D01*
X81517Y81767D01*
X82427Y81159D01*
X83500Y80946D01*
X84573Y81159D01*
X85483Y81767D01*
X86090Y82677D01*
X86304Y83750D01*
X86090Y84823D01*
X85483Y85732D01*
X84573Y86340D01*
X83500Y86554D01*
D02*
G37*
G36*
X450408Y88554D02*
X449335Y88340D01*
X448425Y87733D01*
X447817Y86823D01*
X447750Y86483D01*
X447576Y85745D01*
X446408Y85554D01*
X445335Y85340D01*
X444425Y84733D01*
X443817Y83823D01*
X443604Y82750D01*
X443817Y81677D01*
X444425Y80767D01*
X445335Y80160D01*
X446408Y79946D01*
X447481Y80160D01*
X448390Y80767D01*
X448998Y81677D01*
X449066Y82017D01*
X449239Y82754D01*
X450408Y82946D01*
X451481Y83160D01*
X452390Y83767D01*
X452998Y84677D01*
X453212Y85750D01*
X452998Y86823D01*
X452390Y87733D01*
X451481Y88340D01*
X450408Y88554D01*
D02*
G37*
G36*
X465158Y85304D02*
X464085Y85090D01*
X463175Y84483D01*
X462567Y83573D01*
X462354Y82500D01*
X462567Y81427D01*
X463175Y80517D01*
X464085Y79910D01*
X465158Y79696D01*
X466231Y79910D01*
X467140Y80517D01*
X467748Y81427D01*
X467962Y82500D01*
X467748Y83573D01*
X467140Y84483D01*
X466231Y85090D01*
X465158Y85304D01*
D02*
G37*
G36*
X209500Y80804D02*
X208427Y80590D01*
X207517Y79983D01*
X206929Y79103D01*
X206754Y79073D01*
X205796Y79073D01*
X205621Y79103D01*
X205033Y79983D01*
X204123Y80590D01*
X203050Y80804D01*
X201977Y80590D01*
X201067Y79983D01*
X200460Y79073D01*
X200246Y78000D01*
X200460Y76927D01*
X201067Y76017D01*
X201977Y75410D01*
X203050Y75196D01*
X204123Y75410D01*
X205033Y76017D01*
X205621Y76897D01*
X205796Y76927D01*
X206754Y76927D01*
X206929Y76897D01*
X207517Y76017D01*
X208427Y75410D01*
X209500Y75196D01*
X210573Y75410D01*
X211483Y76017D01*
X212090Y76927D01*
X212304Y78000D01*
X212090Y79073D01*
X211483Y79983D01*
X210573Y80590D01*
X209500Y80804D01*
D02*
G37*
G36*
X566783Y107764D02*
X565710Y107551D01*
X564800Y106943D01*
X564192Y106033D01*
X563979Y104960D01*
X563453Y104434D01*
X562380Y104221D01*
X561470Y103613D01*
X560862Y102703D01*
X560649Y101630D01*
X560862Y100557D01*
X561470Y99648D01*
X562380Y99040D01*
X562796Y98957D01*
X562843Y98948D01*
Y97653D01*
X562796Y97643D01*
X562380Y97561D01*
X561470Y96953D01*
X560862Y96043D01*
X560649Y94970D01*
X560862Y93897D01*
X561470Y92987D01*
X562380Y92380D01*
X562843Y92288D01*
Y90993D01*
X562380Y90901D01*
X561470Y90293D01*
X560862Y89383D01*
X560649Y88310D01*
X560862Y87237D01*
X561470Y86327D01*
X562380Y85720D01*
X562796Y85637D01*
X562843Y85627D01*
Y84333D01*
X562796Y84323D01*
X562380Y84241D01*
X561470Y83633D01*
X560862Y82723D01*
X560649Y81650D01*
X560862Y80577D01*
X561470Y79668D01*
X562380Y79060D01*
X562814Y78973D01*
X563642Y78509D01*
X564106Y77681D01*
X564192Y77247D01*
X564800Y76337D01*
X565710Y75730D01*
X566783Y75516D01*
X567856Y75730D01*
X568765Y76337D01*
X569373Y77247D01*
X569587Y78320D01*
X569373Y79393D01*
X568765Y80303D01*
X567856Y80911D01*
X567422Y80997D01*
X566594Y81461D01*
X566130Y82289D01*
X566043Y82723D01*
X565435Y83633D01*
X564526Y84241D01*
X564109Y84323D01*
X564063Y84333D01*
Y85627D01*
X564109Y85637D01*
X564526Y85720D01*
X565435Y86327D01*
X566043Y87237D01*
X566135Y87700D01*
X567430D01*
X567522Y87237D01*
X568130Y86327D01*
X569040Y85720D01*
X570113Y85506D01*
X570639Y84980D01*
X570852Y83907D01*
X571460Y82998D01*
X572370Y82390D01*
X573443Y82176D01*
X573969Y81650D01*
X574182Y80577D01*
X574790Y79668D01*
X575700Y79060D01*
X576773Y78846D01*
X577846Y79060D01*
X578755Y79668D01*
X579363Y80577D01*
X579577Y81650D01*
X579363Y82723D01*
X578755Y83633D01*
X577846Y84241D01*
X577383Y84333D01*
Y85628D01*
X577846Y85720D01*
X578755Y86327D01*
X579363Y87237D01*
X579577Y88310D01*
X579363Y89383D01*
X578755Y90293D01*
X577846Y90901D01*
X577383Y90993D01*
Y92288D01*
X577846Y92380D01*
X578755Y92987D01*
X579363Y93897D01*
X579577Y94970D01*
X579363Y96043D01*
X578755Y96953D01*
X577846Y97561D01*
X576773Y97774D01*
X575700Y97561D01*
X574790Y96953D01*
X574182Y96043D01*
X574090Y95580D01*
X572795D01*
X572703Y96043D01*
X572095Y96953D01*
X571186Y97561D01*
X570113Y97774D01*
X569040Y97561D01*
X568130Y96953D01*
X567522Y96043D01*
X567430Y95580D01*
X566135D01*
X566043Y96043D01*
X565435Y96953D01*
X564526Y97561D01*
X564109Y97643D01*
X564062Y97653D01*
Y98948D01*
X564109Y98957D01*
X564526Y99040D01*
X565435Y99648D01*
X566043Y100557D01*
X566257Y101630D01*
X566783Y102156D01*
X567856Y102370D01*
X568765Y102978D01*
X569373Y103887D01*
X569587Y104960D01*
X569373Y106033D01*
X568765Y106943D01*
X567856Y107551D01*
X566783Y107764D01*
D02*
G37*
G36*
X190950Y80804D02*
X189877Y80590D01*
X188967Y79983D01*
X188360Y79073D01*
X188146Y78000D01*
X188360Y76927D01*
X188967Y76017D01*
X189877Y75410D01*
X190950Y75196D01*
X192023Y75410D01*
X192933Y76017D01*
X193540Y76927D01*
X193754Y78000D01*
X193540Y79073D01*
X192933Y79983D01*
X192023Y80590D01*
X190950Y80804D01*
D02*
G37*
G36*
X681408Y77396D02*
X680335Y77183D01*
X679425Y76575D01*
X678999Y75937D01*
X677981Y75090D01*
X676908Y75304D01*
X675835Y75090D01*
X674925Y74482D01*
X674317Y73573D01*
X674104Y72500D01*
X674317Y71427D01*
X674925Y70517D01*
X675118Y70388D01*
Y68861D01*
X674925Y68732D01*
X674317Y67823D01*
X674104Y66750D01*
X674317Y65677D01*
X674925Y64767D01*
X675835Y64159D01*
X676222Y64082D01*
X676946Y63746D01*
X677144Y62702D01*
X677104Y62500D01*
X677317Y61427D01*
X677925Y60517D01*
X678835Y59910D01*
X679908Y59696D01*
X680981Y59910D01*
X681890Y60517D01*
X682498Y61427D01*
X682711Y62500D01*
X682498Y63573D01*
X681890Y64483D01*
X680981Y65090D01*
X680593Y65167D01*
X679870Y65504D01*
X679671Y66547D01*
X679712Y66750D01*
X679498Y67823D01*
X678890Y68732D01*
X678698Y68861D01*
Y70388D01*
X678891Y70517D01*
X679316Y71155D01*
X680335Y72002D01*
X681408Y71788D01*
X682481Y72002D01*
X683390Y72610D01*
X683998Y73519D01*
X684212Y74592D01*
X683998Y75665D01*
X683390Y76575D01*
X682481Y77183D01*
X681408Y77396D01*
D02*
G37*
G36*
X74750Y80554D02*
X73677Y80340D01*
X72767Y79733D01*
X72160Y78823D01*
X71946Y77750D01*
X72160Y76677D01*
X72767Y75767D01*
X73677Y75160D01*
X74750Y74946D01*
X75823Y75160D01*
X76733Y75767D01*
X77340Y76677D01*
X77554Y77750D01*
X77340Y78823D01*
X76733Y79733D01*
X75823Y80340D01*
X74750Y80554D01*
D02*
G37*
G36*
X97250Y85554D02*
X96177Y85340D01*
X95267Y84733D01*
X94660Y83823D01*
X94446Y82750D01*
X94660Y81677D01*
X95040Y81108D01*
X95182Y80250D01*
X95040Y79392D01*
X94660Y78823D01*
X94446Y77750D01*
X94660Y76677D01*
X95267Y75767D01*
X96177Y75160D01*
X97250Y74946D01*
X98323Y75160D01*
X99233Y75767D01*
X99840Y76677D01*
X100054Y77750D01*
X99840Y78823D01*
X99460Y79392D01*
X99318Y80250D01*
X99460Y81108D01*
X99840Y81677D01*
X100054Y82750D01*
X99840Y83823D01*
X99233Y84733D01*
X98323Y85340D01*
X97250Y85554D01*
D02*
G37*
G36*
X225750Y80054D02*
X224677Y79840D01*
X223767Y79233D01*
X223160Y78323D01*
X222946Y77250D01*
X223160Y76177D01*
X223767Y75267D01*
X224677Y74660D01*
X225750Y74446D01*
X226823Y74660D01*
X227733Y75267D01*
X228340Y76177D01*
X228554Y77250D01*
X228340Y78323D01*
X227733Y79233D01*
X226823Y79840D01*
X225750Y80054D01*
D02*
G37*
G36*
X45500Y75054D02*
X44427Y74840D01*
X43517Y74233D01*
X42983D01*
X42073Y74840D01*
X41000Y75054D01*
X39927Y74840D01*
X39017Y74233D01*
X38483D01*
X37573Y74840D01*
X36500Y75054D01*
X35427Y74840D01*
X34517Y74233D01*
X33910Y73323D01*
X32823Y72590D01*
X31750Y72804D01*
X30677Y72590D01*
X29767Y71983D01*
X29160Y71073D01*
X28946Y70000D01*
X29160Y68927D01*
X29767Y68017D01*
X30677Y67410D01*
X31750Y67196D01*
X32823Y67410D01*
X33733Y68017D01*
X34340Y68927D01*
X35427Y69660D01*
X36500Y69446D01*
X37573Y69660D01*
X38483Y70267D01*
X39017D01*
X39927Y69660D01*
X41000Y69446D01*
X42073Y69660D01*
X42983Y70267D01*
X43517D01*
X44427Y69660D01*
X45500Y69446D01*
X46573Y69660D01*
X47483Y70267D01*
X48090Y71177D01*
X48304Y72250D01*
X48090Y73323D01*
X47483Y74233D01*
X46573Y74840D01*
X45500Y75054D01*
D02*
G37*
G36*
X632943Y79904D02*
X631870Y79690D01*
X630960Y79083D01*
X630352Y78173D01*
X630139Y77100D01*
X630352Y76027D01*
X630960Y75118D01*
X631870Y74510D01*
X632943Y74296D01*
X634016Y74510D01*
X634848Y75065D01*
X634990Y75110D01*
X636339Y74946D01*
X636625Y74517D01*
X637535Y73910D01*
X638608Y73696D01*
X639681Y73910D01*
X640590Y74517D01*
X641198Y75427D01*
X641412Y76500D01*
X641198Y77573D01*
X640590Y78483D01*
X639681Y79090D01*
X638608Y79304D01*
X637535Y79090D01*
X636703Y78534D01*
X636560Y78490D01*
X635212Y78654D01*
X634925Y79083D01*
X634016Y79690D01*
X632943Y79904D01*
D02*
G37*
G36*
X651158Y78554D02*
X650085Y78340D01*
X649175Y77733D01*
X648567Y76823D01*
X648354Y75750D01*
X648567Y74677D01*
X649175Y73767D01*
X650085Y73159D01*
X651158Y72946D01*
X652231Y73159D01*
X653140Y73767D01*
X653748Y74677D01*
X653962Y75750D01*
X653748Y76823D01*
X653140Y77733D01*
X652231Y78340D01*
X651158Y78554D01*
D02*
G37*
G36*
X483532Y77794D02*
X482459Y77580D01*
X481550Y76973D01*
X480942Y76063D01*
X480728Y74990D01*
X480942Y73917D01*
X481550Y73007D01*
X482459Y72400D01*
X483532Y72186D01*
X484605Y72400D01*
X485515Y73007D01*
X486123Y73917D01*
X486336Y74990D01*
X486123Y76063D01*
X485515Y76973D01*
X484605Y77580D01*
X483532Y77794D01*
D02*
G37*
G36*
X150500Y76304D02*
X149427Y76090D01*
X148517Y75483D01*
X147910Y74573D01*
X147696Y73500D01*
X147910Y72427D01*
X148517Y71517D01*
X149427Y70910D01*
X150500Y70696D01*
X151573Y70910D01*
X152483Y71517D01*
X153090Y72427D01*
X153304Y73500D01*
X153090Y74573D01*
X152483Y75483D01*
X151573Y76090D01*
X150500Y76304D01*
D02*
G37*
G36*
X128875Y76304D02*
X127802Y76090D01*
X126892Y75483D01*
X126285Y74573D01*
X126071Y73500D01*
X126285Y72427D01*
X126892Y71517D01*
X127802Y70910D01*
X128875Y70696D01*
X129948Y70910D01*
X130858Y71517D01*
X131465Y72427D01*
X131679Y73500D01*
X131465Y74573D01*
X130858Y75483D01*
X129948Y76090D01*
X128875Y76304D01*
D02*
G37*
G36*
X5000Y79804D02*
X3927Y79590D01*
X3017Y78983D01*
X2410Y78073D01*
X2196Y77000D01*
X2410Y75927D01*
X3017Y75017D01*
Y74733D01*
X2410Y73823D01*
X2196Y72750D01*
X2410Y71677D01*
X3017Y70767D01*
X3927Y70160D01*
X5000Y69946D01*
X6073Y70160D01*
X6983Y70767D01*
X7590Y71677D01*
X7804Y72750D01*
X7590Y73823D01*
X6983Y74733D01*
Y75017D01*
X7590Y75927D01*
X7804Y77000D01*
X7590Y78073D01*
X6983Y78983D01*
X6073Y79590D01*
X5000Y79804D01*
D02*
G37*
G36*
X326508D02*
X325435Y79590D01*
X324525Y78983D01*
X323917Y78073D01*
X323704Y77000D01*
X323917Y75927D01*
X324525Y75017D01*
Y74483D01*
X323917Y73573D01*
X323704Y72500D01*
X323917Y71427D01*
X324525Y70517D01*
X325435Y69910D01*
X326508Y69696D01*
X327581Y69910D01*
X328490Y70517D01*
X329098Y71427D01*
X329312Y72500D01*
X329098Y73573D01*
X328490Y74483D01*
Y75017D01*
X329098Y75927D01*
X329312Y77000D01*
X329098Y78073D01*
X328490Y78983D01*
X327581Y79590D01*
X326508Y79804D01*
D02*
G37*
G36*
X-2750Y74804D02*
X-3823Y74590D01*
X-4733Y73983D01*
X-5340Y73073D01*
X-5554Y72000D01*
X-5340Y70927D01*
X-4733Y70017D01*
X-3823Y69410D01*
X-2750Y69196D01*
X-1677Y69410D01*
X-767Y70017D01*
X-160Y70927D01*
X54Y72000D01*
X-160Y73073D01*
X-767Y73983D01*
X-1677Y74590D01*
X-2750Y74804D01*
D02*
G37*
G36*
X500182Y74464D02*
X499109Y74250D01*
X498200Y73643D01*
X497592Y72733D01*
X497379Y71660D01*
X497592Y70587D01*
X498200Y69678D01*
X499109Y69070D01*
X500182Y68856D01*
X501255Y69070D01*
X502165Y69678D01*
X502773Y70587D01*
X502986Y71660D01*
X502773Y72733D01*
X502165Y73643D01*
X501255Y74250D01*
X500182Y74464D01*
D02*
G37*
G36*
X12000Y82304D02*
X10927Y82090D01*
X10017Y81483D01*
X9410Y80573D01*
X9196Y79500D01*
X9410Y78427D01*
X10017Y77517D01*
Y77233D01*
X9410Y76323D01*
X9196Y75250D01*
X9410Y74177D01*
X10017Y73267D01*
Y72983D01*
X9410Y72073D01*
X9196Y71000D01*
X9410Y69927D01*
X10017Y69017D01*
X10927Y68410D01*
X12000Y68196D01*
X13073Y68410D01*
X13983Y69017D01*
X14590Y69927D01*
X14804Y71000D01*
X14590Y72073D01*
X13983Y72983D01*
Y73267D01*
X14590Y74177D01*
X14804Y75250D01*
X14590Y76323D01*
X13983Y77233D01*
Y77517D01*
X14590Y78427D01*
X14804Y79500D01*
X14590Y80573D01*
X13983Y81483D01*
X13073Y82090D01*
X12000Y82304D01*
D02*
G37*
G36*
X82500Y70304D02*
X81427Y70090D01*
X80517Y69483D01*
X79910Y68573D01*
X78521Y68100D01*
X78125Y68179D01*
X77052Y67965D01*
X76142Y67358D01*
X75535Y66448D01*
X75321Y65375D01*
X75535Y64302D01*
X76142Y63392D01*
X77052Y62785D01*
X78125Y62571D01*
X79198Y62785D01*
X80108Y63392D01*
X80715Y64302D01*
X82104Y64775D01*
X82500Y64696D01*
X83573Y64910D01*
X84483Y65517D01*
X85090Y66427D01*
X85304Y67500D01*
X85090Y68573D01*
X84483Y69483D01*
X83573Y70090D01*
X82500Y70304D01*
D02*
G37*
G36*
X92750Y73554D02*
X91677Y73340D01*
X90768Y72732D01*
X90160Y71823D01*
X89946Y70750D01*
X90160Y69677D01*
X90768Y68767D01*
X91677Y68159D01*
X92750Y67946D01*
X93823Y68159D01*
X94733Y68767D01*
X95341Y69677D01*
X95554Y70750D01*
X95341Y71823D01*
X94733Y72732D01*
X93823Y73340D01*
X92750Y73554D01*
D02*
G37*
G36*
X120500Y72804D02*
X119427Y72590D01*
X118517Y71983D01*
X117910Y71073D01*
X117696Y70000D01*
X117910Y68927D01*
X118517Y68017D01*
X119427Y67410D01*
X120500Y67196D01*
X121573Y67410D01*
X122483Y68017D01*
X123090Y68927D01*
X123304Y70000D01*
X123090Y71073D01*
X122483Y71983D01*
X121573Y72590D01*
X120500Y72804D01*
D02*
G37*
G36*
X322658Y67304D02*
X321585Y67091D01*
X321425Y66984D01*
X320454Y66576D01*
X319482Y66984D01*
X319323Y67090D01*
X318250Y67304D01*
X317177Y67090D01*
X316267Y66483D01*
X315660Y65573D01*
X315446Y64500D01*
X315660Y63427D01*
X316267Y62517D01*
X317177Y61910D01*
X318250Y61696D01*
X319323Y61910D01*
X319482Y62016D01*
X320454Y62424D01*
X321425Y62016D01*
X321585Y61910D01*
X322658Y61696D01*
X323731Y61910D01*
X324640Y62517D01*
X325248Y63427D01*
X325462Y64500D01*
X325248Y65573D01*
X324640Y66483D01*
X323731Y67091D01*
X322658Y67304D01*
D02*
G37*
G36*
X458000Y71804D02*
X456927Y71590D01*
X456017Y70983D01*
X455410Y70073D01*
X455196Y69000D01*
X455410Y67927D01*
X456017Y67017D01*
X456927Y66410D01*
X458000Y66196D01*
X459073Y66410D01*
X459983Y67017D01*
X460590Y67927D01*
X460804Y69000D01*
X460590Y70073D01*
X459983Y70983D01*
X459073Y71590D01*
X458000Y71804D01*
D02*
G37*
G36*
X135250Y71554D02*
X134177Y71340D01*
X133267Y70733D01*
X132660Y69823D01*
X132446Y68750D01*
X132660Y67677D01*
X133267Y66767D01*
X134177Y66160D01*
X135250Y65946D01*
X136323Y66160D01*
X137233Y66767D01*
X137840Y67677D01*
X138054Y68750D01*
X137840Y69823D01*
X137233Y70733D01*
X136323Y71340D01*
X135250Y71554D01*
D02*
G37*
G36*
X533483Y74464D02*
X532410Y74250D01*
X531500Y73643D01*
X530892Y72733D01*
X530679Y71660D01*
X530892Y70587D01*
X531500Y69677D01*
X532410Y69070D01*
X533483Y68856D01*
X534009Y68330D01*
X534222Y67257D01*
X534830Y66347D01*
X535740Y65740D01*
X536813Y65526D01*
X537886Y65740D01*
X538795Y66347D01*
X539403Y67257D01*
X539617Y68330D01*
X539403Y69403D01*
X538795Y70313D01*
X537886Y70921D01*
X536813Y71134D01*
X536287Y71660D01*
X536073Y72733D01*
X535465Y73643D01*
X534556Y74250D01*
X533483Y74464D01*
D02*
G37*
G36*
X100500Y71054D02*
X99427Y70840D01*
X98517Y70233D01*
X97910Y69323D01*
X97696Y68250D01*
X97910Y67177D01*
X98517Y66267D01*
X99427Y65660D01*
X100500Y65446D01*
X101573Y65660D01*
X102483Y66267D01*
X103090Y67177D01*
X103304Y68250D01*
X103090Y69323D01*
X102483Y70233D01*
X101573Y70840D01*
X100500Y71054D01*
D02*
G37*
G36*
X371500Y69554D02*
X370427Y69341D01*
X369517Y68733D01*
X368910Y67823D01*
X368696Y66750D01*
X368910Y65677D01*
X369517Y64767D01*
X370427Y64160D01*
X371500Y63946D01*
X372573Y64160D01*
X373483Y64767D01*
X374090Y65677D01*
X374304Y66750D01*
X374090Y67823D01*
X373483Y68733D01*
X372573Y69341D01*
X371500Y69554D01*
D02*
G37*
G36*
X60500Y63804D02*
X59427Y63590D01*
X59204Y63441D01*
X58250Y63083D01*
X57296Y63441D01*
X57073Y63590D01*
X56000Y63804D01*
X54927Y63590D01*
X54017Y62983D01*
X53410Y62073D01*
X53196Y61000D01*
X53410Y59927D01*
X53559Y59704D01*
X53917Y58750D01*
X53559Y57796D01*
X53410Y57573D01*
X53196Y56500D01*
X53410Y55427D01*
X54017Y54517D01*
X54927Y53910D01*
X56000Y53696D01*
X57073Y53910D01*
X57983Y54517D01*
X58517D01*
X59427Y53910D01*
X60500Y53696D01*
X61573Y53910D01*
X62483Y54517D01*
X63090Y55427D01*
X63304Y56500D01*
X63090Y57573D01*
X62483Y58483D01*
Y59017D01*
X63090Y59927D01*
X63304Y61000D01*
X63090Y62073D01*
X62483Y62983D01*
X61573Y63590D01*
X60500Y63804D01*
D02*
G37*
G36*
X503512Y64474D02*
X502439Y64260D01*
X501530Y63653D01*
X500922Y62743D01*
X500839Y62326D01*
X500830Y62280D01*
X499535D01*
X499526Y62326D01*
X499443Y62743D01*
X498835Y63653D01*
X497925Y64260D01*
X496852Y64474D01*
X495779Y64260D01*
X494870Y63653D01*
X494262Y62743D01*
X494049Y61670D01*
X494262Y60597D01*
X494870Y59687D01*
X495779Y59080D01*
X496852Y58866D01*
X497925Y59080D01*
X498835Y59687D01*
X499443Y60597D01*
X499526Y61013D01*
X499535Y61060D01*
X500830D01*
X500839Y61014D01*
X500922Y60597D01*
X501530Y59687D01*
X502439Y59080D01*
X503512Y58866D01*
X504585Y59080D01*
X505495Y59687D01*
X506103Y60597D01*
X506316Y61670D01*
X506103Y62743D01*
X505495Y63653D01*
X504585Y64260D01*
X503512Y64474D01*
D02*
G37*
G36*
X263550Y67854D02*
X262477Y67641D01*
X261567Y67033D01*
X260960Y66123D01*
X260746Y65050D01*
X260960Y63977D01*
X261567Y63067D01*
X262477Y62460D01*
X263550Y62246D01*
X264623Y62460D01*
X265533Y63067D01*
X266140Y63977D01*
X266354Y65050D01*
X266140Y66123D01*
X265533Y67033D01*
X264623Y67641D01*
X263550Y67854D01*
D02*
G37*
G36*
X510173Y71134D02*
X509100Y70921D01*
X508190Y70313D01*
X507582Y69403D01*
X507369Y68330D01*
X507582Y67257D01*
X508190Y66347D01*
X509100Y65740D01*
X510173Y65526D01*
X510699Y65000D01*
X510912Y63927D01*
X511520Y63017D01*
X512430Y62410D01*
X513503Y62196D01*
X514576Y62410D01*
X515485Y63017D01*
X516093Y63927D01*
X516306Y65000D01*
X516093Y66073D01*
X515485Y66983D01*
X514576Y67590D01*
X513503Y67804D01*
X512976Y68330D01*
X512763Y69403D01*
X512155Y70313D01*
X511245Y70921D01*
X510173Y71134D01*
D02*
G37*
G36*
X358658Y70054D02*
X357585Y69840D01*
X356675Y69233D01*
X356067Y68323D01*
X355408Y67304D01*
X354335Y67090D01*
X353425Y66483D01*
X352817Y65573D01*
X352604Y64500D01*
X352817Y63427D01*
X353425Y62517D01*
X354335Y61910D01*
X355408Y61696D01*
X356481Y61910D01*
X357390Y62517D01*
X357998Y63427D01*
X358658Y64446D01*
X359731Y64660D01*
X360640Y65267D01*
X361248Y66177D01*
X361462Y67250D01*
X361248Y68323D01*
X360640Y69233D01*
X359731Y69840D01*
X358658Y70054D01*
D02*
G37*
G36*
X187500Y66554D02*
X186427Y66340D01*
X185517Y65733D01*
X184910Y64823D01*
X184696Y63750D01*
X184910Y62677D01*
X185517Y61767D01*
X186427Y61160D01*
X187500Y60946D01*
X188573Y61160D01*
X189483Y61767D01*
X190091Y62677D01*
X190304Y63750D01*
X190091Y64823D01*
X189483Y65733D01*
X188573Y66340D01*
X187500Y66554D01*
D02*
G37*
G36*
X126250Y65804D02*
X125177Y65590D01*
X124267Y64983D01*
X123660Y64073D01*
X123446Y63000D01*
X123660Y61927D01*
X124267Y61017D01*
X125177Y60409D01*
X126250Y60196D01*
X127323Y60409D01*
X128233Y61017D01*
X128840Y61927D01*
X129054Y63000D01*
X128840Y64073D01*
X128233Y64983D01*
X127323Y65590D01*
X126250Y65804D01*
D02*
G37*
G36*
X247000Y64554D02*
X245927Y64340D01*
X245017Y63733D01*
X244410Y62823D01*
X244196Y61750D01*
X244410Y60677D01*
X245017Y59767D01*
X245927Y59160D01*
X247000Y58946D01*
X248073Y59160D01*
X248983Y59767D01*
X249590Y60677D01*
X249804Y61750D01*
X249590Y62823D01*
X248983Y63733D01*
X248073Y64340D01*
X247000Y64554D01*
D02*
G37*
G36*
X644658Y64054D02*
X643585Y63840D01*
X642675Y63233D01*
X642067Y62323D01*
X641854Y61250D01*
X642067Y60177D01*
X642675Y59267D01*
X643585Y58660D01*
X644658Y58446D01*
X645731Y58660D01*
X646640Y59267D01*
X647248Y60177D01*
X647462Y61250D01*
X647248Y62323D01*
X646640Y63233D01*
X645731Y63840D01*
X644658Y64054D01*
D02*
G37*
G36*
X144250Y61304D02*
X143177Y61090D01*
X142267Y60483D01*
X141660Y59573D01*
X141446Y58500D01*
X141660Y57427D01*
X142267Y56517D01*
X143177Y55910D01*
X144250Y55696D01*
X145323Y55910D01*
X146233Y56517D01*
X146840Y57427D01*
X147054Y58500D01*
X146840Y59573D01*
X146233Y60483D01*
X145323Y61090D01*
X144250Y61304D01*
D02*
G37*
G36*
X570113Y64474D02*
X569040Y64260D01*
X568130Y63653D01*
X567522Y62743D01*
X567309Y61670D01*
X567522Y60597D01*
X568130Y59687D01*
X569040Y59080D01*
X570113Y58866D01*
X570639Y58340D01*
X570852Y57267D01*
X571460Y56357D01*
X572370Y55750D01*
X573443Y55536D01*
X574516Y55750D01*
X575425Y56357D01*
X576033Y57267D01*
X576247Y58340D01*
X576033Y59413D01*
X575425Y60323D01*
X574516Y60930D01*
X573443Y61144D01*
X572917Y61670D01*
X572703Y62743D01*
X572095Y63653D01*
X571186Y64260D01*
X570113Y64474D01*
D02*
G37*
G36*
X205000Y60554D02*
X203927Y60340D01*
X203017Y59733D01*
X202410Y58823D01*
X202196Y57750D01*
X202410Y56677D01*
X203017Y55767D01*
X203927Y55160D01*
X205000Y54946D01*
X206073Y55160D01*
X206983Y55767D01*
X207590Y56677D01*
X207804Y57750D01*
X207590Y58823D01*
X206983Y59733D01*
X206073Y60340D01*
X205000Y60554D01*
D02*
G37*
G36*
X445908Y60404D02*
X444835Y60190D01*
X443925Y59583D01*
X443317Y58673D01*
X443104Y57600D01*
X443317Y56527D01*
X443925Y55617D01*
X444835Y55009D01*
X445908Y54796D01*
X446981Y55009D01*
X447504Y55359D01*
X448534Y55474D01*
X449220Y55321D01*
X449835Y54910D01*
X450908Y54696D01*
X451981Y54910D01*
X452890Y55517D01*
X453498Y56427D01*
X453712Y57500D01*
X453498Y58573D01*
X452890Y59483D01*
X451981Y60090D01*
X450908Y60304D01*
X449835Y60090D01*
X449312Y59741D01*
X448282Y59626D01*
X447596Y59779D01*
X446981Y60190D01*
X445908Y60404D01*
D02*
G37*
G36*
X294250Y60054D02*
X293177Y59840D01*
X292267Y59233D01*
X291660Y58323D01*
X291446Y57250D01*
X291660Y56177D01*
X292267Y55267D01*
X293177Y54660D01*
X294250Y54446D01*
X295323Y54660D01*
X296233Y55267D01*
X296840Y56177D01*
X297054Y57250D01*
X296840Y58323D01*
X296233Y59233D01*
X295323Y59840D01*
X294250Y60054D01*
D02*
G37*
G36*
X432250Y55054D02*
X431177Y54840D01*
X430267Y54233D01*
X429733D01*
X428823Y54840D01*
X427750Y55054D01*
X426677Y54840D01*
X425767Y54233D01*
X425160Y53323D01*
X424946Y52250D01*
X425160Y51177D01*
X425767Y50267D01*
X426677Y49660D01*
X427750Y49446D01*
X428823Y49660D01*
X429733Y50267D01*
X430267D01*
X431177Y49660D01*
X432250Y49446D01*
X433323Y49660D01*
X434233Y50267D01*
X434840Y51177D01*
X435054Y52250D01*
X434840Y53323D01*
X434233Y54233D01*
X433323Y54840D01*
X432250Y55054D01*
D02*
G37*
G36*
X152250Y58054D02*
X151177Y57840D01*
X150267Y57233D01*
X149660Y56323D01*
X149446Y55250D01*
X149660Y54177D01*
X150267Y53267D01*
X151177Y52660D01*
X152250Y52446D01*
X153323Y52660D01*
X154233Y53267D01*
X154840Y54177D01*
X155054Y55250D01*
X154840Y56323D01*
X154233Y57233D01*
X153323Y57840D01*
X152250Y58054D01*
D02*
G37*
G36*
X553463Y61144D02*
X552390Y60930D01*
X551480Y60323D01*
X550872Y59413D01*
X550659Y58340D01*
X550133Y57814D01*
X549060Y57600D01*
X548150Y56993D01*
X547542Y56083D01*
X547329Y55010D01*
X547542Y53937D01*
X548150Y53027D01*
X549060Y52420D01*
X550133Y52206D01*
X551206Y52420D01*
X552115Y53027D01*
X552723Y53937D01*
X552937Y55010D01*
X553463Y55536D01*
X554536Y55750D01*
X555445Y56357D01*
X556053Y57267D01*
X556267Y58340D01*
X556053Y59413D01*
X555445Y60323D01*
X554536Y60930D01*
X553463Y61144D01*
D02*
G37*
G36*
X721100Y56804D02*
X720027Y56590D01*
X719117Y55983D01*
X718510Y55073D01*
X718296Y54000D01*
X718510Y52927D01*
X719117Y52017D01*
X720027Y51410D01*
X721100Y51196D01*
X722173Y51410D01*
X723083Y52017D01*
X723690Y52927D01*
X723904Y54000D01*
X723690Y55073D01*
X723083Y55983D01*
X722173Y56590D01*
X721100Y56804D01*
D02*
G37*
G36*
X360658Y60304D02*
X359585Y60090D01*
X358675Y59483D01*
X358067Y58573D01*
X357854Y57500D01*
X358067Y56427D01*
X358332Y56031D01*
X358571Y55125D01*
X358332Y54219D01*
X358067Y53823D01*
X357854Y52750D01*
X358067Y51677D01*
X358675Y50767D01*
X359585Y50160D01*
X360658Y49946D01*
X361731Y50160D01*
X362640Y50767D01*
X363248Y51677D01*
X363462Y52750D01*
X363248Y53823D01*
X362983Y54219D01*
X362744Y55125D01*
X362983Y56031D01*
X363248Y56427D01*
X363462Y57500D01*
X363248Y58573D01*
X362640Y59483D01*
X361731Y60090D01*
X360658Y60304D01*
D02*
G37*
G36*
X254300Y55504D02*
X253227Y55290D01*
X252317Y54682D01*
X251710Y53773D01*
X251496Y52700D01*
X251710Y51627D01*
X252317Y50717D01*
X253227Y50110D01*
X254300Y49896D01*
X255373Y50110D01*
X256283Y50717D01*
X256891Y51627D01*
X257104Y52700D01*
X256891Y53773D01*
X256283Y54682D01*
X255373Y55290D01*
X254300Y55504D01*
D02*
G37*
G36*
X674908Y55304D02*
X673835Y55090D01*
X672925Y54483D01*
X672317Y53573D01*
X672104Y52500D01*
X672317Y51427D01*
X672925Y50517D01*
X673835Y49910D01*
X674908Y49696D01*
X675981Y49910D01*
X676890Y50517D01*
X677498Y51427D01*
X677711Y52500D01*
X677498Y53573D01*
X676890Y54483D01*
X675981Y55090D01*
X674908Y55304D01*
D02*
G37*
G36*
X751750Y53804D02*
X750677Y53590D01*
X749767Y52983D01*
X749160Y52073D01*
X748946Y51000D01*
X749160Y49927D01*
X749767Y49017D01*
X750677Y48410D01*
X751750Y48196D01*
X752823Y48410D01*
X753733Y49017D01*
X754341Y49927D01*
X754554Y51000D01*
X754341Y52073D01*
X753733Y52983D01*
X752823Y53590D01*
X751750Y53804D01*
D02*
G37*
G36*
X277750Y53054D02*
X276677Y52840D01*
X275767Y52233D01*
X275159Y51323D01*
X274946Y50250D01*
X275159Y49177D01*
X275767Y48267D01*
X276677Y47660D01*
X277750Y47446D01*
X278823Y47660D01*
X279732Y48267D01*
X280340Y49177D01*
X280554Y50250D01*
X280340Y51323D01*
X279732Y52233D01*
X278823Y52840D01*
X277750Y53054D01*
D02*
G37*
G36*
X163750Y49804D02*
X162677Y49590D01*
X161767Y48983D01*
X161159Y48073D01*
X160946Y47000D01*
X161159Y45927D01*
X161767Y45017D01*
X162677Y44410D01*
X163750Y44196D01*
X164823Y44410D01*
X165733Y45017D01*
X166340Y45927D01*
X166554Y47000D01*
X166340Y48073D01*
X165733Y48983D01*
X164823Y49590D01*
X163750Y49804D01*
D02*
G37*
G36*
X179750Y49804D02*
X178677Y49590D01*
X177767Y48983D01*
X177160Y48073D01*
X176946Y47000D01*
X177160Y45927D01*
X177767Y45017D01*
X178677Y44409D01*
X179750Y44196D01*
X180823Y44409D01*
X181733Y45017D01*
X182340Y45927D01*
X182554Y47000D01*
X182340Y48073D01*
X181733Y48983D01*
X180823Y49590D01*
X179750Y49804D01*
D02*
G37*
G36*
X393933Y46129D02*
X392860Y45915D01*
X391950Y45308D01*
X391342Y44398D01*
X391129Y43325D01*
X391342Y42252D01*
X391950Y41342D01*
X392860Y40735D01*
X393933Y40521D01*
X395006Y40735D01*
X395915Y41342D01*
X396523Y42252D01*
X396736Y43325D01*
X396523Y44398D01*
X395915Y45308D01*
X395006Y45915D01*
X393933Y46129D01*
D02*
G37*
G36*
X386883D02*
X385810Y45915D01*
X384900Y45308D01*
X384292Y44398D01*
X384079Y43325D01*
X384292Y42252D01*
X384900Y41342D01*
X385810Y40735D01*
X386883Y40521D01*
X387956Y40735D01*
X388865Y41342D01*
X389473Y42252D01*
X389687Y43325D01*
X389473Y44398D01*
X388865Y45308D01*
X387956Y45915D01*
X386883Y46129D01*
D02*
G37*
G36*
X377683Y46129D02*
X376610Y45915D01*
X375700Y45308D01*
X375092Y44398D01*
X374879Y43325D01*
X375092Y42252D01*
X375700Y41342D01*
X376610Y40735D01*
X377683Y40521D01*
X378756Y40735D01*
X379665Y41342D01*
X380273Y42252D01*
X380487Y43325D01*
X380273Y44398D01*
X379665Y45308D01*
X378756Y45915D01*
X377683Y46129D01*
D02*
G37*
G36*
X370633D02*
X369560Y45915D01*
X368650Y45308D01*
X368042Y44398D01*
X367829Y43325D01*
X368042Y42252D01*
X368650Y41342D01*
X369560Y40735D01*
X370633Y40521D01*
X371706Y40735D01*
X372615Y41342D01*
X373223Y42252D01*
X373437Y43325D01*
X373223Y44398D01*
X372615Y45308D01*
X371706Y45915D01*
X370633Y46129D01*
D02*
G37*
G36*
X470454Y43350D02*
X469381Y43137D01*
X468471Y42529D01*
X467863Y41619D01*
X467650Y40546D01*
X467863Y39473D01*
X468471Y38563D01*
X469381Y37956D01*
X470454Y37742D01*
X471527Y37956D01*
X472436Y38563D01*
X473044Y39473D01*
X473258Y40546D01*
X473044Y41619D01*
X472436Y42529D01*
X471527Y43137D01*
X470454Y43350D01*
D02*
G37*
G36*
X272000Y42804D02*
X270927Y42590D01*
X270017Y41983D01*
X269410Y41073D01*
X269196Y40000D01*
X269410Y38927D01*
X270017Y38017D01*
X270927Y37410D01*
X272000Y37196D01*
X273073Y37410D01*
X273983Y38017D01*
X274590Y38927D01*
X274804Y40000D01*
X274590Y41073D01*
X273983Y41983D01*
X273073Y42590D01*
X272000Y42804D01*
D02*
G37*
G36*
X449158Y47054D02*
X448085Y46841D01*
X447175Y46233D01*
X446567Y45323D01*
X446354Y44250D01*
X446567Y43177D01*
X447140Y42320D01*
X447175Y42267D01*
X447175Y40932D01*
X447140Y40880D01*
X446567Y40023D01*
X446354Y38950D01*
X446567Y37877D01*
X447175Y36967D01*
X448085Y36360D01*
X449158Y36146D01*
X450231Y36360D01*
X451140Y36967D01*
X451748Y37877D01*
X451962Y38950D01*
X451748Y40023D01*
X451175Y40880D01*
X451140Y40932D01*
X451140Y42267D01*
X451175Y42320D01*
X451748Y43177D01*
X451962Y44250D01*
X451748Y45323D01*
X451140Y46233D01*
X450231Y46841D01*
X449158Y47054D01*
D02*
G37*
G36*
X62250Y50054D02*
X61177Y49840D01*
X60267Y49233D01*
X59660Y48323D01*
X59446Y47250D01*
X59660Y46177D01*
X60267Y45267D01*
X60734Y44956D01*
X60742Y44935D01*
Y43565D01*
X60734Y43544D01*
X60267Y43233D01*
X59660Y42323D01*
X59446Y41250D01*
X59660Y40177D01*
X59809Y39954D01*
X60167Y39000D01*
X59809Y38046D01*
X59660Y37823D01*
X59446Y36750D01*
X59475Y36605D01*
X58395Y35525D01*
X58250Y35554D01*
X58105Y35525D01*
X57025Y36605D01*
X57054Y36750D01*
X56840Y37823D01*
X56691Y38046D01*
X56333Y39000D01*
X56691Y39954D01*
X56840Y40177D01*
X57054Y41250D01*
X56840Y42323D01*
X56233Y43233D01*
X55766Y43544D01*
X55758Y43565D01*
Y44935D01*
X55766Y44956D01*
X56233Y45267D01*
X56840Y46177D01*
X57054Y47250D01*
X56840Y48323D01*
X56233Y49233D01*
X55323Y49840D01*
X54250Y50054D01*
X53177Y49840D01*
X52267Y49233D01*
X51660Y48323D01*
X51446Y47250D01*
X51660Y46177D01*
X52267Y45267D01*
X52734Y44956D01*
X52742Y44935D01*
Y43565D01*
X52734Y43544D01*
X52267Y43233D01*
X51660Y42323D01*
X51446Y41250D01*
X51660Y40177D01*
X51809Y39954D01*
X52167Y39000D01*
X51809Y38046D01*
X51660Y37823D01*
X51446Y36750D01*
X51660Y35677D01*
X52267Y34767D01*
X53177Y34160D01*
X54250Y33946D01*
X54395Y33975D01*
X55475Y32895D01*
X55446Y32750D01*
X55475Y32605D01*
X54395Y31525D01*
X54250Y31554D01*
X53177Y31340D01*
X52267Y30733D01*
X51660Y29823D01*
X51446Y28750D01*
X51660Y27677D01*
X51809Y27454D01*
X52167Y26500D01*
X51809Y25546D01*
X51660Y25323D01*
X51446Y24250D01*
X51660Y23177D01*
X52267Y22267D01*
X52734Y21956D01*
X52742Y21935D01*
Y20565D01*
X52734Y20544D01*
X52267Y20233D01*
X51660Y19323D01*
X51446Y18250D01*
X51660Y17177D01*
X52267Y16267D01*
X53177Y15660D01*
X54250Y15446D01*
X55323Y15660D01*
X56233Y16267D01*
X56840Y17177D01*
X57054Y18250D01*
X56840Y19323D01*
X56233Y20233D01*
X55766Y20544D01*
X55758Y20565D01*
Y21935D01*
X55766Y21956D01*
X56233Y22267D01*
X56840Y23177D01*
X57054Y24250D01*
X56840Y25323D01*
X56691Y25546D01*
X56333Y26500D01*
X56691Y27454D01*
X56840Y27677D01*
X57054Y28750D01*
X58178Y29282D01*
X58322D01*
X59446Y28750D01*
X59660Y27677D01*
X60267Y26767D01*
Y26233D01*
X59660Y25323D01*
X59446Y24250D01*
X59660Y23177D01*
X60267Y22267D01*
X60734Y21956D01*
X60742Y21935D01*
Y20565D01*
X60734Y20544D01*
X60267Y20233D01*
X59660Y19323D01*
X59446Y18250D01*
X59660Y17177D01*
X60267Y16267D01*
X61177Y15660D01*
X62250Y15446D01*
X63323Y15660D01*
X64233Y16267D01*
X64840Y17177D01*
X65054Y18250D01*
X64840Y19323D01*
X64233Y20233D01*
X63766Y20544D01*
X63758Y20565D01*
Y21935D01*
X63766Y21956D01*
X64233Y22267D01*
X64840Y23177D01*
X65054Y24250D01*
X64840Y25323D01*
X64233Y26233D01*
Y26767D01*
X64840Y27677D01*
X65054Y28750D01*
X64840Y29823D01*
X64233Y30733D01*
X63323Y31340D01*
X62250Y31554D01*
X62105Y31525D01*
X61025Y32605D01*
X61054Y32750D01*
X61025Y32895D01*
X62105Y33975D01*
X62250Y33946D01*
X63323Y34160D01*
X64233Y34767D01*
X64840Y35677D01*
X65054Y36750D01*
X64840Y37823D01*
X64691Y38046D01*
X64333Y39000D01*
X64691Y39954D01*
X64840Y40177D01*
X65054Y41250D01*
X64840Y42323D01*
X64233Y43233D01*
X63766Y43544D01*
X63758Y43565D01*
Y44935D01*
X63766Y44956D01*
X64233Y45267D01*
X64840Y46177D01*
X65054Y47250D01*
X64840Y48323D01*
X64233Y49233D01*
X63323Y49840D01*
X62250Y50054D01*
D02*
G37*
G36*
X85500Y45304D02*
X84427Y45090D01*
X83517Y44483D01*
X82910Y43573D01*
X82696Y42500D01*
X82910Y41427D01*
X83174Y41031D01*
X83414Y40125D01*
X83174Y39219D01*
X82910Y38823D01*
X82696Y37750D01*
X82910Y36677D01*
X83517Y35767D01*
X84427Y35160D01*
X85500Y34946D01*
X86573Y35160D01*
X87483Y35767D01*
X88090Y36677D01*
X88304Y37750D01*
X88090Y38823D01*
X87826Y39219D01*
X87586Y40125D01*
X87826Y41031D01*
X88090Y41427D01*
X88304Y42500D01*
X88090Y43573D01*
X87483Y44483D01*
X86573Y45090D01*
X85500Y45304D01*
D02*
G37*
G36*
X98000Y45304D02*
X96927Y45090D01*
X96017Y44483D01*
X95410Y43573D01*
X95196Y42500D01*
X95410Y41427D01*
X95674Y41031D01*
X95914Y40125D01*
X95674Y39219D01*
X95410Y38823D01*
X95196Y37750D01*
X95410Y36677D01*
X96017Y35767D01*
X96927Y35160D01*
X98000Y34946D01*
X99073Y35160D01*
X99983Y35767D01*
X100590Y36677D01*
X100804Y37750D01*
X100590Y38823D01*
X100326Y39219D01*
X100086Y40125D01*
X100326Y41031D01*
X100590Y41427D01*
X100804Y42500D01*
X100590Y43573D01*
X99983Y44483D01*
X99073Y45090D01*
X98000Y45304D01*
D02*
G37*
G36*
X31250Y42554D02*
X30177Y42340D01*
X29267Y41733D01*
X28660Y40823D01*
X28446Y39750D01*
X28660Y38677D01*
X28693Y38626D01*
X29196Y37625D01*
X28693Y36623D01*
X28660Y36573D01*
X28446Y35500D01*
X28660Y34427D01*
X29267Y33517D01*
X30177Y32910D01*
X31250Y32696D01*
X32323Y32910D01*
X33233Y33517D01*
X33840Y34427D01*
X33936Y34908D01*
X35000Y34696D01*
X36073Y34910D01*
X36983Y35517D01*
X37590Y36427D01*
X37804Y37500D01*
X37590Y38573D01*
X36983Y39483D01*
X36073Y40090D01*
X35000Y40304D01*
X33984Y40102D01*
X33840Y40823D01*
X33233Y41733D01*
X32323Y42340D01*
X31250Y42554D01*
D02*
G37*
G36*
X510908Y40054D02*
X509835Y39840D01*
X508925Y39233D01*
X508317Y38323D01*
X508104Y37250D01*
X508317Y36177D01*
X508925Y35267D01*
X509835Y34660D01*
X510908Y34446D01*
X511981Y34660D01*
X512890Y35267D01*
X513498Y36177D01*
X513712Y37250D01*
X513498Y38323D01*
X512890Y39233D01*
X511981Y39840D01*
X510908Y40054D01*
D02*
G37*
G36*
X45500Y39554D02*
X44427Y39340D01*
X43517Y38733D01*
X42910Y37823D01*
X42696Y36750D01*
X42910Y35677D01*
X43517Y34767D01*
X44427Y34160D01*
X45500Y33946D01*
X46573Y34160D01*
X47483Y34767D01*
X48090Y35677D01*
X48304Y36750D01*
X48090Y37823D01*
X47483Y38733D01*
X46573Y39340D01*
X45500Y39554D01*
D02*
G37*
G36*
X220000Y39304D02*
X218927Y39090D01*
X218017Y38483D01*
X217410Y37573D01*
X217196Y36500D01*
X217410Y35427D01*
X218017Y34517D01*
X218927Y33910D01*
X220000Y33696D01*
X221073Y33910D01*
X221983Y34517D01*
X222590Y35427D01*
X222804Y36500D01*
X222590Y37573D01*
X221983Y38483D01*
X221073Y39090D01*
X220000Y39304D01*
D02*
G37*
G36*
X724175Y38804D02*
X723102Y38591D01*
X722192Y37983D01*
X721585Y37073D01*
X721371Y36000D01*
X721585Y34927D01*
X722192Y34017D01*
X723102Y33410D01*
X724175Y33196D01*
X725248Y33410D01*
X726158Y34017D01*
X726765Y34927D01*
X726979Y36000D01*
X726765Y37073D01*
X726158Y37983D01*
X725248Y38591D01*
X724175Y38804D01*
D02*
G37*
G36*
X255375Y36804D02*
X254302Y36590D01*
X253392Y35983D01*
X252785Y35073D01*
X252571Y34000D01*
X252785Y32927D01*
X253392Y32017D01*
X254302Y31410D01*
X255375Y31196D01*
X256448Y31410D01*
X257358Y32017D01*
X257965Y32927D01*
X258179Y34000D01*
X257965Y35073D01*
X257358Y35983D01*
X256448Y36590D01*
X255375Y36804D01*
D02*
G37*
G36*
X16500Y33054D02*
X15427Y32840D01*
X14517Y32233D01*
X13909Y31323D01*
X12559Y31042D01*
X12500Y31054D01*
X11427Y30840D01*
X10517Y30233D01*
X9909Y29323D01*
X9696Y28250D01*
X9909Y27177D01*
X10517Y26267D01*
X11427Y25660D01*
X12500Y25446D01*
X13614Y24658D01*
X13659Y24427D01*
X14267Y23517D01*
X15177Y22910D01*
X15559Y22834D01*
X15582Y22825D01*
X15869Y21477D01*
X15677Y21340D01*
X15573Y21271D01*
X14767Y20733D01*
X14160Y19823D01*
X13946Y18750D01*
X14111Y17922D01*
X13927Y16590D01*
X13614Y16381D01*
X13017Y15983D01*
X12410Y15073D01*
X12196Y14000D01*
X12410Y12927D01*
X13017Y12017D01*
X13927Y11410D01*
X15000Y11196D01*
X16073Y11410D01*
X16983Y12017D01*
X17590Y12927D01*
X17804Y14000D01*
X17639Y14828D01*
X17823Y16160D01*
X18136Y16369D01*
X18733Y16767D01*
X19340Y17677D01*
X19554Y18750D01*
X19340Y19823D01*
X18733Y20733D01*
X17823Y21340D01*
X17441Y21416D01*
X17418Y21425D01*
X17130Y22773D01*
X17323Y22910D01*
X17427Y22979D01*
X18233Y23517D01*
X18840Y24427D01*
X19054Y25500D01*
X18840Y26573D01*
X18653Y26854D01*
X18503Y28101D01*
X18749Y28665D01*
X19090Y29177D01*
X19304Y30250D01*
X19090Y31323D01*
X18483Y32233D01*
X17573Y32840D01*
X16500Y33054D01*
D02*
G37*
G36*
X166500Y32318D02*
X164159Y31852D01*
X162174Y30526D01*
X160848Y28541D01*
X160797Y28286D01*
X159502D01*
X159452Y28541D01*
X158125Y30526D01*
X156141Y31852D01*
X153800Y32318D01*
X151459Y31852D01*
X149474Y30526D01*
X148148Y28541D01*
X148097Y28286D01*
X146802D01*
X146752Y28541D01*
X145426Y30526D01*
X143441Y31852D01*
X141100Y32318D01*
X138759Y31852D01*
X136774Y30526D01*
X135448Y28541D01*
X135397Y28286D01*
X134102D01*
X134052Y28541D01*
X132726Y30526D01*
X130741Y31852D01*
X128400Y32318D01*
X126059Y31852D01*
X124074Y30526D01*
X122748Y28541D01*
X122697Y28286D01*
X121402D01*
X121352Y28541D01*
X120026Y30526D01*
X118041Y31852D01*
X115700Y32318D01*
X113359Y31852D01*
X111374Y30526D01*
X110048Y28541D01*
X109582Y26200D01*
X110048Y23859D01*
X111374Y21874D01*
X113359Y20548D01*
X113614Y20497D01*
Y19203D01*
X113359Y19152D01*
X111374Y17826D01*
X110048Y15841D01*
X109582Y13500D01*
X110048Y11159D01*
X111374Y9174D01*
X113359Y7848D01*
X115700Y7383D01*
X118041Y7848D01*
X120026Y9174D01*
X121352Y11159D01*
X121817Y13500D01*
X121352Y15841D01*
X120026Y17826D01*
X118041Y19152D01*
X117786Y19203D01*
Y20497D01*
X118041Y20548D01*
X120026Y21874D01*
X121352Y23859D01*
X121402Y24114D01*
X122697D01*
X122748Y23859D01*
X124074Y21874D01*
X126059Y20548D01*
X128400Y20082D01*
X130741Y20548D01*
X132726Y21874D01*
X134052Y23859D01*
X134102Y24114D01*
X135397D01*
X135448Y23859D01*
X136774Y21874D01*
X138759Y20548D01*
X141100Y20082D01*
X143441Y20548D01*
X145426Y21874D01*
X146752Y23859D01*
X146802Y24114D01*
X148097D01*
X148148Y23859D01*
X149474Y21874D01*
X151459Y20548D01*
X151713Y20497D01*
Y19203D01*
X151459Y19152D01*
X149474Y17826D01*
X148148Y15841D01*
X147682Y13500D01*
X148148Y11159D01*
X149474Y9174D01*
X151459Y7848D01*
X153800Y7383D01*
X156141Y7848D01*
X158125Y9174D01*
X159452Y11159D01*
X159917Y13500D01*
X159452Y15841D01*
X158125Y17826D01*
X156141Y19152D01*
X155886Y19203D01*
Y20497D01*
X156141Y20548D01*
X158125Y21874D01*
X159452Y23859D01*
X159502Y24114D01*
X160797D01*
X160848Y23859D01*
X162174Y21874D01*
X164159Y20548D01*
X166500Y20082D01*
X168841Y20548D01*
X170826Y21874D01*
X172152Y23859D01*
X172617Y26200D01*
X172152Y28541D01*
X170826Y30526D01*
X168841Y31852D01*
X166500Y32318D01*
D02*
G37*
G36*
X524158Y33304D02*
X523085Y33090D01*
X522175Y32483D01*
X521567Y31573D01*
X521354Y30500D01*
X521567Y29427D01*
X522175Y28517D01*
X523085Y27910D01*
X524158Y27696D01*
X525231Y27910D01*
X526140Y28517D01*
X526748Y29427D01*
X526962Y30500D01*
X526748Y31573D01*
X526140Y32483D01*
X525231Y33090D01*
X524158Y33304D01*
D02*
G37*
G36*
X406908Y38354D02*
X405835Y38140D01*
X404925Y37533D01*
X404317Y36623D01*
X404104Y35550D01*
X404317Y34477D01*
X404890Y33620D01*
X404925Y33567D01*
X404925Y32232D01*
X404890Y32180D01*
X404317Y31323D01*
X404104Y30250D01*
X404317Y29177D01*
X404925Y28267D01*
X405835Y27659D01*
X406908Y27446D01*
X407981Y27659D01*
X408890Y28267D01*
X409498Y29177D01*
X409711Y30250D01*
X409498Y31323D01*
X408925Y32180D01*
X408890Y32232D01*
X408890Y33567D01*
X408925Y33620D01*
X409498Y34477D01*
X409711Y35550D01*
X409498Y36623D01*
X408890Y37533D01*
X407981Y38140D01*
X406908Y38354D01*
D02*
G37*
G36*
X644158Y31554D02*
X643085Y31340D01*
X642175Y30733D01*
X641567Y29823D01*
X641354Y28750D01*
X641567Y27677D01*
X642175Y26767D01*
X643085Y26160D01*
X644158Y25946D01*
X645231Y26160D01*
X646140Y26767D01*
X646748Y27677D01*
X646962Y28750D01*
X646748Y29823D01*
X646140Y30733D01*
X645231Y31340D01*
X644158Y31554D01*
D02*
G37*
G36*
X500250Y33554D02*
X499177Y33340D01*
X498267Y32733D01*
X497660Y31823D01*
X497446Y30750D01*
X497660Y29677D01*
X496643Y28912D01*
X496375Y28733D01*
X495767Y27823D01*
X495554Y26750D01*
X495767Y25677D01*
X496375Y24767D01*
X497285Y24160D01*
X498358Y23946D01*
X499431Y24160D01*
X500383Y24741D01*
X501335Y24160D01*
X502408Y23946D01*
X503481Y24160D01*
X504390Y24767D01*
X504998Y25677D01*
X505212Y26750D01*
X504998Y27823D01*
X504390Y28733D01*
X503481Y29340D01*
X502935Y29449D01*
X502840Y29677D01*
X503054Y30750D01*
X502840Y31823D01*
X502233Y32733D01*
X501323Y33340D01*
X500250Y33554D01*
D02*
G37*
G36*
X178250Y28804D02*
X177177Y28591D01*
X176267Y27983D01*
X175660Y27073D01*
X175446Y26000D01*
X175660Y24927D01*
X176267Y24018D01*
X177177Y23410D01*
X178250Y23196D01*
X179323Y23410D01*
X180233Y24018D01*
X180840Y24927D01*
X181054Y26000D01*
X180840Y27073D01*
X180233Y27983D01*
X179323Y28591D01*
X178250Y28804D01*
D02*
G37*
G36*
X240750Y28304D02*
X239677Y28090D01*
X238767Y27483D01*
X238160Y26573D01*
X237946Y25500D01*
X238160Y24427D01*
X238767Y23517D01*
X239677Y22910D01*
X240750Y22696D01*
X241823Y22910D01*
X242733Y23517D01*
X243340Y24427D01*
X243554Y25500D01*
X243340Y26573D01*
X242733Y27483D01*
X241823Y28090D01*
X240750Y28304D01*
D02*
G37*
G36*
X419250Y19554D02*
X418177Y19340D01*
X417954Y19191D01*
X417000Y18833D01*
X416046Y19191D01*
X415823Y19340D01*
X414750Y19554D01*
X413677Y19340D01*
X413454Y19191D01*
X412500Y18833D01*
X411546Y19191D01*
X411323Y19340D01*
X410250Y19554D01*
X409177Y19340D01*
X408267Y18733D01*
X407659Y17823D01*
X407446Y16750D01*
X407659Y15677D01*
X408267Y14767D01*
X409177Y14160D01*
X410250Y13946D01*
X411323Y14160D01*
X411546Y14309D01*
X412500Y14667D01*
X413454Y14309D01*
X413677Y14160D01*
X414750Y13946D01*
X415823Y14160D01*
X416046Y14309D01*
X417000Y14667D01*
X417954Y14309D01*
X418177Y14160D01*
X419250Y13946D01*
X420323Y14160D01*
X421233Y14767D01*
X421840Y15677D01*
X422054Y16750D01*
X421840Y17823D01*
X421233Y18733D01*
X420323Y19340D01*
X419250Y19554D01*
D02*
G37*
G36*
X264375Y24054D02*
X263302Y23840D01*
X262393Y23233D01*
X261785Y22323D01*
X261571Y21250D01*
X261785Y20177D01*
X262393Y19267D01*
X263302Y18660D01*
X264375Y18446D01*
X265448Y18660D01*
X266358Y19267D01*
X266966Y20177D01*
X267179Y21250D01*
X266966Y22323D01*
X266358Y23233D01*
X265448Y23840D01*
X264375Y24054D01*
D02*
G37*
G36*
X710000Y22304D02*
X708927Y22091D01*
X708017Y21483D01*
X707410Y20573D01*
X707196Y19500D01*
X707410Y18427D01*
X708017Y17518D01*
X708927Y16910D01*
X710000Y16696D01*
X711073Y16910D01*
X711983Y17518D01*
X712590Y18427D01*
X712804Y19500D01*
X712590Y20573D01*
X711983Y21483D01*
X711073Y22091D01*
X710000Y22304D01*
D02*
G37*
G36*
X0Y27804D02*
X-1073Y27590D01*
X-1983Y26983D01*
X-2590Y26073D01*
X-4000Y25304D01*
X-5073Y25090D01*
X-5983Y24483D01*
X-6590Y23573D01*
X-6804Y22500D01*
X-6590Y21427D01*
X-5983Y20517D01*
X-5073Y19910D01*
X-4000Y19696D01*
X-2590Y18927D01*
X-1983Y18017D01*
X-1073Y17410D01*
X0Y17196D01*
X1073Y17410D01*
X1983Y18017D01*
X1994Y18034D01*
X3342Y17766D01*
X3410Y17427D01*
X4017Y16517D01*
X4927Y15910D01*
X6000Y15696D01*
X7073Y15910D01*
X7983Y16517D01*
X8590Y17427D01*
X8804Y18500D01*
X8590Y19573D01*
X7983Y20483D01*
X7073Y21091D01*
X6000Y21304D01*
X4927Y21091D01*
X4017Y20483D01*
X4006Y20466D01*
X2658Y20734D01*
X2590Y21073D01*
X2210Y21642D01*
X2068Y22500D01*
X2210Y23358D01*
X2590Y23927D01*
X2804Y25000D01*
X2590Y26073D01*
X1983Y26983D01*
X1073Y27590D01*
X0Y27804D01*
D02*
G37*
G36*
X469550Y20604D02*
X468477Y20390D01*
X467567Y19783D01*
X466960Y18873D01*
X466746Y17800D01*
X466960Y16727D01*
X467567Y15817D01*
X468477Y15209D01*
X469550Y14996D01*
X470623Y15209D01*
X471533Y15817D01*
X472113Y16686D01*
X472326Y16720D01*
X473297Y16681D01*
X473422Y16659D01*
X474017Y15767D01*
X474927Y15160D01*
X476000Y14946D01*
X477073Y15160D01*
X477983Y15767D01*
X478590Y16677D01*
X478804Y17750D01*
X478590Y18823D01*
X477983Y19733D01*
X477073Y20340D01*
X476000Y20554D01*
X474927Y20340D01*
X474017Y19733D01*
X473437Y18864D01*
X473224Y18830D01*
X472253Y18868D01*
X472128Y18891D01*
X471533Y19783D01*
X470623Y20390D01*
X469550Y20604D01*
D02*
G37*
G36*
X61000Y11804D02*
X59927Y11590D01*
X59017Y10983D01*
X59014Y10977D01*
X57486D01*
X57483Y10983D01*
X56573Y11590D01*
X55500Y11804D01*
X54427Y11590D01*
X53517Y10983D01*
X52910Y10073D01*
X52696Y9000D01*
X52910Y7927D01*
X53517Y7017D01*
X54427Y6410D01*
X55500Y6196D01*
X56573Y6410D01*
X57483Y7017D01*
X57486Y7023D01*
X59014D01*
X59017Y7017D01*
X59927Y6410D01*
X61000Y6196D01*
X62073Y6410D01*
X62983Y7017D01*
X63590Y7927D01*
X63804Y9000D01*
X63590Y10073D01*
X62983Y10983D01*
X62073Y11590D01*
X61000Y11804D01*
D02*
G37*
G36*
X183000Y20554D02*
X181927Y20340D01*
X181017Y19733D01*
X180410Y18823D01*
X180196Y17750D01*
X180410Y16677D01*
X181017Y15767D01*
Y14483D01*
X180410Y13573D01*
X180196Y12500D01*
X180410Y11427D01*
X181017Y10517D01*
X181927Y9910D01*
X183000Y9696D01*
X184073Y9910D01*
X184983Y10517D01*
X185590Y11427D01*
X185804Y12500D01*
X185590Y13573D01*
X184983Y14483D01*
Y15767D01*
X185590Y16677D01*
X185804Y17750D01*
X185590Y18823D01*
X184983Y19733D01*
X184073Y20340D01*
X183000Y20554D01*
D02*
G37*
G36*
X322360Y23268D02*
X321287Y23055D01*
X320378Y22447D01*
X319770Y21537D01*
X319557Y20464D01*
X319770Y19391D01*
X319869Y19244D01*
X320267Y17983D01*
X319660Y17073D01*
X319446Y16000D01*
X319660Y14927D01*
X320267Y14017D01*
Y13483D01*
X319660Y12573D01*
X319446Y11500D01*
X319660Y10427D01*
X320267Y9517D01*
X321177Y8910D01*
X322250Y8696D01*
X323323Y8910D01*
X324233Y9517D01*
X324840Y10427D01*
X325054Y11500D01*
X324840Y12573D01*
X324233Y13483D01*
Y14017D01*
X324840Y14927D01*
X325054Y16000D01*
X324840Y17073D01*
X324742Y17221D01*
X324343Y18482D01*
X324951Y19391D01*
X325164Y20464D01*
X324951Y21537D01*
X324343Y22447D01*
X323433Y23055D01*
X322360Y23268D01*
D02*
G37*
G36*
X259000Y9054D02*
X257927Y8840D01*
X257704Y8691D01*
X256750Y8333D01*
X255796Y8691D01*
X255573Y8840D01*
X254500Y9054D01*
X253427Y8840D01*
X253204Y8691D01*
X252250Y8333D01*
X251296Y8691D01*
X251073Y8840D01*
X250000Y9054D01*
X248927Y8840D01*
X248017Y8233D01*
X247410Y7323D01*
X247196Y6250D01*
X247410Y5177D01*
X248017Y4267D01*
X248927Y3660D01*
X250000Y3446D01*
X251073Y3660D01*
X251296Y3809D01*
X252250Y4167D01*
X253204Y3809D01*
X253427Y3660D01*
X254500Y3446D01*
X255573Y3660D01*
X255796Y3809D01*
X256750Y4167D01*
X257704Y3809D01*
X257927Y3660D01*
X259000Y3446D01*
X260073Y3660D01*
X260983Y4267D01*
X261590Y5177D01*
X261804Y6250D01*
X261590Y7323D01*
X260983Y8233D01*
X260073Y8840D01*
X259000Y9054D01*
D02*
G37*
G36*
X198750Y13804D02*
X197677Y13590D01*
X196767Y12983D01*
X196160Y12073D01*
X195946Y11000D01*
X196160Y9927D01*
X196767Y9017D01*
X197677Y8410D01*
X198750Y8196D01*
X199823Y8410D01*
X200733Y9017D01*
X201340Y9927D01*
X201554Y11000D01*
X201340Y12073D01*
X200733Y12983D01*
X199823Y13590D01*
X198750Y13804D01*
D02*
G37*
G36*
X694775Y12304D02*
X693702Y12091D01*
X692792Y11483D01*
X692185Y10573D01*
X691971Y9500D01*
X692185Y8427D01*
X692792Y7518D01*
X693702Y6910D01*
X694775Y6696D01*
X695848Y6910D01*
X696758Y7518D01*
X697365Y8427D01*
X697579Y9500D01*
X697365Y10573D01*
X696758Y11483D01*
X695848Y12091D01*
X694775Y12304D01*
D02*
G37*
G36*
X364500Y9054D02*
X363427Y8840D01*
X362517Y8233D01*
X361910Y7323D01*
X361696Y6250D01*
X361910Y5177D01*
X362517Y4267D01*
X363427Y3660D01*
X364500Y3446D01*
X365573Y3660D01*
X366483Y4267D01*
X367090Y5177D01*
X367304Y6250D01*
X367090Y7323D01*
X366483Y8233D01*
X365573Y8840D01*
X364500Y9054D01*
D02*
G37*
%LPD*%
D143*
X125100Y206400D02*
D03*
X128400Y13500D02*
D03*
X141100D02*
D03*
X166500D02*
D03*
D153*
X486862Y145455D02*
Y150931D01*
D156*
X657250Y200500D02*
D03*
X674000D02*
D03*
X714000Y51500D02*
D03*
X714500Y41000D02*
D03*
X698750Y67750D02*
D03*
X275750Y208250D02*
D03*
X9750Y134250D02*
D03*
X223750Y168500D02*
D03*
X258000Y161500D02*
D03*
X9350Y106500D02*
D03*
X287500Y173750D02*
D03*
X235250Y209500D02*
D03*
X262250Y199250D02*
D03*
X235000Y191000D02*
D03*
X232750Y92750D02*
D03*
X-1500Y182499D02*
D03*
X690750Y42750D02*
D03*
X676000D02*
D03*
X649500Y26000D02*
D03*
X702000Y28500D02*
D03*
X6750Y120500D02*
D03*
X28875Y111250D02*
D03*
X78000Y60750D02*
D03*
X78125Y65375D02*
D03*
X-2250Y132500D02*
D03*
X-4750Y44000D02*
D03*
X-4000Y160501D02*
D03*
X230000Y216000D02*
D03*
X665408Y103250D02*
D03*
X665533Y107750D02*
D03*
X93000Y98500D02*
D03*
X102500Y104250D02*
D03*
X98250Y106000D02*
D03*
X71500Y183250D02*
D03*
X110000Y204250D02*
D03*
X121200Y154300D02*
D03*
X419250Y198250D02*
D03*
X327000Y163250D02*
D03*
X317500Y159000D02*
D03*
X304500Y181750D02*
D03*
X45500Y36750D02*
D03*
X257890Y186500D02*
D03*
X20750Y97750D02*
D03*
X245500Y90000D02*
D03*
X161600Y140000D02*
D03*
X83500Y78500D02*
D03*
X188750Y100500D02*
D03*
X191750Y96500D02*
D03*
X120500Y184000D02*
D03*
X163000Y188250D02*
D03*
X168500Y180250D02*
D03*
X422250Y206500D02*
D03*
X357500Y186000D02*
D03*
X369250Y6250D02*
D03*
X134750Y126000D02*
D03*
X239750Y110750D02*
D03*
X190250Y23000D02*
D03*
X197000D02*
D03*
X463750Y69500D02*
D03*
X30750Y106750D02*
D03*
X8500Y197500D02*
D03*
X12750D02*
D03*
X-1500Y202499D02*
D03*
X2750D02*
D03*
X250Y160501D02*
D03*
X-4000Y142499D02*
D03*
X250D02*
D03*
X-4000Y127501D02*
D03*
X250D02*
D03*
X-4000Y112499D02*
D03*
X250D02*
D03*
X-4000Y93000D02*
D03*
X-500Y82500D02*
D03*
X250Y65250D02*
D03*
X87000Y67250D02*
D03*
X97250Y73000D02*
D03*
X106250Y107250D02*
D03*
X19500Y129250D02*
D03*
X42250Y138500D02*
D03*
X28250Y135750D02*
D03*
X724175Y48000D02*
D03*
X754825Y15000D02*
D03*
X754825Y33000D02*
D03*
X754825Y39000D02*
D03*
Y57000D02*
D03*
X749750Y62250D02*
D03*
X739500Y80000D02*
D03*
X563453Y114950D02*
D03*
X576773Y108290D02*
D03*
X285250Y28250D02*
D03*
X522250Y213250D02*
D03*
X722587Y72738D02*
D03*
X754825Y163000D02*
D03*
X754825Y181000D02*
D03*
X754825Y187000D02*
D03*
Y205000D02*
D03*
X744750Y211750D02*
D03*
X730000Y207000D02*
D03*
X722750Y189250D02*
D03*
X738000Y174500D02*
D03*
X732250Y160500D02*
D03*
X744500Y146750D02*
D03*
X744750Y164250D02*
D03*
X749500Y164250D02*
D03*
X744750Y175000D02*
D03*
X749500Y175000D02*
D03*
Y193000D02*
D03*
X744750Y193000D02*
D03*
X749500Y206250D02*
D03*
X744750Y206250D02*
D03*
X230750Y19500D02*
D03*
X120000Y75500D02*
D03*
X163000Y63750D02*
D03*
X120750Y52500D02*
D03*
X136000Y53500D02*
D03*
X59250Y187250D02*
D03*
X509250Y7250D02*
D03*
X289200Y183000D02*
D03*
Y191250D02*
D03*
X289200Y199500D02*
D03*
Y207750D02*
D03*
X307750Y207000D02*
D03*
X309750Y104750D02*
D03*
X423408Y48750D02*
D03*
X423500Y44500D02*
D03*
X418750Y46750D02*
D03*
X176250Y176500D02*
D03*
X212250Y153500D02*
D03*
X208500Y157750D02*
D03*
X350000Y3250D02*
D03*
X398500Y5750D02*
D03*
X254500Y110500D02*
D03*
X254250Y93500D02*
D03*
X267865Y94000D02*
D03*
X204900Y63850D02*
D03*
X233400Y82850D02*
D03*
X229100Y95650D02*
D03*
X258250Y22000D02*
D03*
X254250Y43250D02*
D03*
X235465Y63350D02*
D03*
X232000Y48000D02*
D03*
X180250Y111750D02*
D03*
X143750Y142500D02*
D03*
X113500Y124500D02*
D03*
X131000Y153000D02*
D03*
X134500Y142750D02*
D03*
X668250Y196750D02*
D03*
X665000Y97500D02*
D03*
X268750Y83000D02*
D03*
X258500Y65000D02*
D03*
X283550Y44250D02*
D03*
X422750Y186750D02*
D03*
X431750Y195000D02*
D03*
X407500Y209000D02*
D03*
X295500Y107750D02*
D03*
X288500Y100850D02*
D03*
X282000Y94000D02*
D03*
X198800Y83500D02*
D03*
X312500Y38500D02*
D03*
X313750Y28250D02*
D03*
X198250Y150250D02*
D03*
X175500Y153500D02*
D03*
X190250Y153750D02*
D03*
X300500Y65500D02*
D03*
X294000Y39500D02*
D03*
X683250Y42750D02*
D03*
X665000Y47000D02*
D03*
X625158Y85250D02*
D03*
X644158Y76500D02*
D03*
X650908Y91500D02*
D03*
X638658Y94500D02*
D03*
Y101500D02*
D03*
X635158Y98000D02*
D03*
X710000Y24250D02*
D03*
Y14750D02*
D03*
X294250Y61750D02*
D03*
X227550Y33250D02*
D03*
X289296Y12000D02*
D03*
X637565Y200250D02*
D03*
X296635Y146250D02*
D03*
X209500Y52750D02*
D03*
X527250Y183250D02*
D03*
X536750Y201000D02*
D03*
X431750Y19500D02*
D03*
X460250Y19750D02*
D03*
X439000Y19500D02*
D03*
X449750Y19750D02*
D03*
X403250Y26500D02*
D03*
X623658Y19250D02*
D03*
X550908Y17000D02*
D03*
X319000Y75000D02*
D03*
X319250Y92250D02*
D03*
X202563Y189119D02*
D03*
X541158Y184500D02*
D03*
X667408Y166750D02*
D03*
X696250Y137250D02*
D03*
X442408Y54000D02*
D03*
X416667Y110000D02*
D03*
X406667D02*
D03*
X356667Y80000D02*
D03*
X374158Y51250D02*
D03*
X564408Y34250D02*
D03*
X406908Y35550D02*
D03*
X432658Y67500D02*
D03*
X411667Y85000D02*
D03*
X581158Y31750D02*
D03*
X593408Y137250D02*
D03*
X446408Y82750D02*
D03*
X451250Y192500D02*
D03*
X158000Y185000D02*
D03*
X421658Y110000D02*
D03*
X361000Y163500D02*
D03*
X396667Y135000D02*
D03*
X371500Y170250D02*
D03*
X327002Y92000D02*
D03*
X326952Y96550D02*
D03*
X326508Y72500D02*
D03*
Y77000D02*
D03*
X643158Y195750D02*
D03*
X576773Y94970D02*
D03*
X360658Y52750D02*
D03*
Y57500D02*
D03*
X565158Y5250D02*
D03*
X382408Y57500D02*
D03*
X450408Y85750D02*
D03*
X444658Y94000D02*
D03*
X449158D02*
D03*
X450908Y57500D02*
D03*
X445908Y57600D02*
D03*
X449158Y44250D02*
D03*
Y38950D02*
D03*
X406908Y30250D02*
D03*
X350408Y62000D02*
D03*
X370633Y43325D02*
D03*
X377683D02*
D03*
X386883Y43325D02*
D03*
X393933D02*
D03*
X628250Y200250D02*
D03*
X613408Y183250D02*
D03*
X159250Y172500D02*
D03*
X409908Y156750D02*
D03*
X175250Y124600D02*
D03*
X404158Y57000D02*
D03*
X437658Y82500D02*
D03*
X129450Y94750D02*
D03*
X149750Y168250D02*
D03*
X391667Y135000D02*
D03*
X401667D02*
D03*
X425158Y134000D02*
D03*
X390658Y157475D02*
D03*
X439408Y102750D02*
D03*
X396667Y80000D02*
D03*
X391667Y90000D02*
D03*
X358500Y48500D02*
D03*
X576773Y88310D02*
D03*
X573443Y91640D02*
D03*
X566783D02*
D03*
X563453Y94970D02*
D03*
X573443Y118280D02*
D03*
X576773Y121610D02*
D03*
X570113Y114950D02*
D03*
X563533Y121530D02*
D03*
X88500Y51500D02*
D03*
X209500Y106750D02*
D03*
X191500Y84750D02*
D03*
X401667Y100000D02*
D03*
Y120000D02*
D03*
X411667Y90000D02*
D03*
X376667Y95000D02*
D03*
X342158Y137500D02*
D03*
X381667Y110000D02*
D03*
X366667Y80000D02*
D03*
X386667Y115000D02*
D03*
Y135000D02*
D03*
X366667Y140000D02*
D03*
X337408Y126750D02*
D03*
X351667Y135000D02*
D03*
X346667Y80250D02*
D03*
X371667Y85000D02*
D03*
X351667Y115000D02*
D03*
X371667Y125000D02*
D03*
X356667Y100000D02*
D03*
X196500Y124500D02*
D03*
X452908Y90750D02*
D03*
X605908Y84000D02*
D03*
X582750Y186000D02*
D03*
X474658Y169500D02*
D03*
X618000Y72750D02*
D03*
X607830Y50000D02*
D03*
X684158Y153250D02*
D03*
X602408Y109000D02*
D03*
X679658Y53000D02*
D03*
X522408Y50750D02*
D03*
X638058Y148500D02*
D03*
X638908Y31500D02*
D03*
X645908Y185000D02*
D03*
X634658Y173250D02*
D03*
X581408Y175000D02*
D03*
X609158Y7250D02*
D03*
X678158Y117250D02*
D03*
X667408Y112250D02*
D03*
X621658Y107750D02*
D03*
X506842Y158241D02*
D03*
X493522D02*
D03*
X496852Y154911D02*
D03*
X665158Y53000D02*
D03*
X571658Y46250D02*
D03*
X546658Y51250D02*
D03*
X543473Y68330D02*
D03*
X389658Y51000D02*
D03*
X382658Y39250D02*
D03*
X628658Y135000D02*
D03*
X648658Y162000D02*
D03*
X454500Y39000D02*
D03*
X454250Y44250D02*
D03*
X412000Y33750D02*
D03*
X492408Y163750D02*
D03*
X502408Y166250D02*
D03*
X608908Y135500D02*
D03*
X538658Y40500D02*
D03*
X510158Y41750D02*
D03*
X500408Y38750D02*
D03*
X488408Y41250D02*
D03*
X475750D02*
D03*
X579908Y78250D02*
D03*
X533658Y143250D02*
D03*
X583529Y129079D02*
D03*
X561158Y16250D02*
D03*
X692908Y153500D02*
D03*
X658908Y145750D02*
D03*
X674908Y62500D02*
D03*
X642908Y172500D02*
D03*
X665083Y80500D02*
D03*
X645658Y126500D02*
D03*
X650408Y139500D02*
D03*
X629408Y19250D02*
D03*
X660658Y174750D02*
D03*
X634908Y27250D02*
D03*
X649158Y60750D02*
D03*
X638908Y47000D02*
D03*
X576773Y141590D02*
D03*
X523493Y161571D02*
D03*
X480202Y144921D02*
D03*
X467408Y144869D02*
D03*
X560123Y158241D02*
D03*
X500182Y151581D02*
D03*
X516833Y154911D02*
D03*
X563453Y148251D02*
D03*
X540143Y65000D02*
D03*
X486862Y104960D02*
D03*
X483532Y108290D02*
D03*
X476872Y81650D02*
D03*
X520163Y71660D02*
D03*
X506842Y65000D02*
D03*
X500182Y58340D02*
D03*
X573443Y131600D02*
D03*
Y124940D02*
D03*
X48750Y187250D02*
D03*
X59250Y199250D02*
D03*
Y175250D02*
D03*
Y193500D02*
D03*
Y181000D02*
D03*
X26250Y168000D02*
D03*
X21750D02*
D03*
X24000Y206000D02*
D03*
X28750D02*
D03*
X90750Y205500D02*
D03*
X86750D02*
D03*
X95000Y168750D02*
D03*
X90250D02*
D03*
X36000Y62000D02*
D03*
X31250D02*
D03*
X35250Y5000D02*
D03*
X18750Y8250D02*
D03*
X89250Y14000D02*
D03*
X94000D02*
D03*
X93250Y51500D02*
D03*
X58250Y39000D02*
D03*
X58250Y26500D02*
D03*
X58250Y44750D02*
D03*
Y20750D02*
D03*
X68750Y32750D02*
D03*
D157*
X52000Y104500D02*
D03*
Y115500D02*
D03*
X63000Y104500D02*
D03*
Y115500D02*
D03*
X524803Y95000D02*
D03*
Y85000D02*
D03*
Y115000D02*
D03*
Y105000D02*
D03*
Y125000D02*
D03*
Y135000D02*
D03*
X534803Y134900D02*
D03*
Y124900D02*
D03*
Y104900D02*
D03*
Y114900D02*
D03*
Y84900D02*
D03*
Y94900D02*
D03*
X544803Y124900D02*
D03*
Y104900D02*
D03*
Y114900D02*
D03*
Y94900D02*
D03*
X504803D02*
D03*
Y114900D02*
D03*
Y104900D02*
D03*
Y124900D02*
D03*
X514803Y94900D02*
D03*
Y84900D02*
D03*
Y114900D02*
D03*
Y104900D02*
D03*
Y124900D02*
D03*
Y134900D02*
D03*
D158*
X159750Y90750D02*
D03*
Y101750D02*
D03*
X170750Y90750D02*
D03*
Y101750D02*
D03*
X544803Y134900D02*
D03*
Y84900D02*
D03*
X504803D02*
D03*
Y134900D02*
D03*
M02*
