G04*
G04 #@! TF.GenerationSoftware,Altium Limited,Altium Designer,19.1.7 (138)*
G04*
G04 Layer_Color=32896*
%FSLAX44Y44*%
%MOMM*%
G71*
G01*
G75*
%ADD10C,0.1000*%
%ADD11C,0.1500*%
%ADD12C,0.2540*%
%ADD14C,0.1270*%
%ADD15C,0.2000*%
%ADD16C,0.2500*%
%ADD233C,0.0762*%
G36*
X57750Y6750D02*
X55750D01*
Y4750D01*
X57750D01*
Y6750D01*
D02*
G37*
G36*
X21250Y131750D02*
X12250Y122750D01*
X12250Y131750D01*
X21250D01*
D02*
G37*
G36*
X110509Y105500D02*
X104509Y111500D01*
X104509Y105500D01*
X110509Y105500D01*
D02*
G37*
G36*
X49000Y194649D02*
Y188500D01*
X55149D01*
X49000Y194649D01*
D02*
G37*
G36*
X168750Y261000D02*
Y264250D01*
X165500Y261000D01*
X168750D01*
D02*
G37*
G36*
X204500D02*
Y264250D01*
X201250Y261000D01*
X204500D01*
D02*
G37*
G36*
X385750Y33500D02*
Y29500D01*
X383500D01*
Y33500D01*
X385750D01*
D02*
G37*
G36*
X413375Y146250D02*
Y149000D01*
X408000D01*
X413375Y146250D01*
D02*
G37*
G36*
X353646Y202499D02*
X353645Y210500D01*
X345646Y210499D01*
X353646Y202499D01*
D02*
G37*
G36*
X401750Y216750D02*
Y212750D01*
X405750D01*
X401750Y216750D01*
D02*
G37*
G36*
X245000Y261000D02*
Y264250D01*
X241750Y261000D01*
X245000D01*
D02*
G37*
G36*
X281000D02*
Y264250D01*
X277750Y261000D01*
X281000D01*
D02*
G37*
G36*
X349080Y250780D02*
X343470D01*
X349080Y245170D01*
Y250780D01*
D02*
G37*
G36*
X243465Y67101D02*
X243687Y67073D01*
X243881Y67017D01*
X244090Y66962D01*
X244450Y66796D01*
X244783Y66615D01*
X244935Y66518D01*
X245060Y66435D01*
X245171Y66352D01*
X245268Y66269D01*
X245352Y66213D01*
X245407Y66158D01*
X245435Y66130D01*
X245449Y66116D01*
X245282Y66962D01*
X247043D01*
X248500Y60000D01*
X246641D01*
X245976Y63190D01*
X245934Y63342D01*
X245906Y63481D01*
X245851Y63703D01*
X245795Y63897D01*
X245768Y64036D01*
X245740Y64133D01*
X245712Y64202D01*
X245698Y64244D01*
Y64258D01*
X245629Y64438D01*
X245560Y64591D01*
X245490Y64743D01*
X245421Y64854D01*
X245365Y64951D01*
X245324Y65020D01*
X245296Y65062D01*
X245282Y65076D01*
X245185Y65187D01*
X245088Y65284D01*
X244991Y65381D01*
X244894Y65450D01*
X244825Y65506D01*
X244755Y65547D01*
X244714Y65561D01*
X244700Y65575D01*
X244575Y65644D01*
X244464Y65686D01*
X244353Y65728D01*
X244256Y65742D01*
X244173Y65755D01*
X244117Y65769D01*
X244062D01*
X243937Y65755D01*
X243840Y65742D01*
X243757Y65714D01*
X243673Y65686D01*
X243618Y65644D01*
X243576Y65617D01*
X243563Y65603D01*
X243549Y65589D01*
X243479Y65520D01*
X243438Y65437D01*
X243382Y65298D01*
X243368Y65228D01*
X243354Y65173D01*
Y65145D01*
Y65131D01*
Y65034D01*
X243382Y64896D01*
X243396Y64743D01*
X243424Y64577D01*
X243452Y64438D01*
X243479Y64313D01*
X243493Y64216D01*
X243507Y64202D01*
Y64188D01*
X244381Y60000D01*
X242522D01*
X241857Y63148D01*
X241801Y63398D01*
X241746Y63620D01*
X241690Y63828D01*
X241621Y64008D01*
X241565Y64174D01*
X241510Y64327D01*
X241455Y64466D01*
X241399Y64591D01*
X241357Y64688D01*
X241302Y64785D01*
X241260Y64854D01*
X241233Y64923D01*
X241205Y64965D01*
X241177Y64993D01*
X241163Y65020D01*
X241052Y65159D01*
X240955Y65270D01*
X240844Y65367D01*
X240733Y65450D01*
X240511Y65589D01*
X240317Y65672D01*
X240151Y65728D01*
X240012Y65755D01*
X239957Y65769D01*
X239887D01*
X239763Y65755D01*
X239666Y65742D01*
X239569Y65714D01*
X239499Y65686D01*
X239444Y65644D01*
X239402Y65617D01*
X239388Y65603D01*
X239374Y65589D01*
X239319Y65520D01*
X239263Y65450D01*
X239222Y65298D01*
X239208Y65228D01*
X239194Y65187D01*
Y65145D01*
Y65131D01*
Y65104D01*
Y65062D01*
X239222Y64951D01*
X239249Y64798D01*
X239277Y64646D01*
X239305Y64493D01*
X239333Y64355D01*
X239347Y64299D01*
Y64271D01*
X239360Y64244D01*
Y64230D01*
X240262Y60000D01*
X238403D01*
X237488Y64230D01*
X237419Y64535D01*
X237377Y64798D01*
X237336Y65020D01*
X237322Y65187D01*
X237308Y65312D01*
X237294Y65409D01*
Y65464D01*
Y65478D01*
X237308Y65742D01*
X237363Y65977D01*
X237447Y66171D01*
X237530Y66338D01*
X237613Y66477D01*
X237696Y66574D01*
X237752Y66643D01*
X237766Y66657D01*
X237946Y66809D01*
X238154Y66920D01*
X238376Y67004D01*
X238584Y67059D01*
X238764Y67087D01*
X238917Y67115D01*
X239055D01*
X239333Y67101D01*
X239582Y67059D01*
X239832Y67004D01*
X240040Y66934D01*
X240220Y66865D01*
X240345Y66809D01*
X240401Y66782D01*
X240442Y66768D01*
X240456Y66754D01*
X240470D01*
X240706Y66615D01*
X240914Y66463D01*
X241080Y66324D01*
X241233Y66185D01*
X241344Y66061D01*
X241427Y65964D01*
X241482Y65908D01*
X241496Y65880D01*
X241552Y66088D01*
X241635Y66255D01*
X241732Y66421D01*
X241815Y66546D01*
X241912Y66643D01*
X241982Y66726D01*
X242037Y66768D01*
X242051Y66782D01*
X242217Y66893D01*
X242411Y66976D01*
X242619Y67031D01*
X242814Y67073D01*
X242980Y67101D01*
X243133Y67115D01*
X243258D01*
X243465Y67101D01*
D02*
G37*
G36*
X222039Y69763D02*
X222288Y69749D01*
X222760Y69666D01*
X223190Y69542D01*
X223398Y69472D01*
X223578Y69417D01*
X223745Y69347D01*
X223897Y69278D01*
X224022Y69209D01*
X224133Y69153D01*
X224216Y69112D01*
X224286Y69070D01*
X224327Y69056D01*
X224341Y69042D01*
X224549Y68904D01*
X224757Y68751D01*
X225131Y68418D01*
X225437Y68071D01*
X225700Y67739D01*
X225811Y67572D01*
X225908Y67434D01*
X225991Y67295D01*
X226061Y67184D01*
X226116Y67087D01*
X226158Y67017D01*
X226172Y66976D01*
X226185Y66962D01*
X226296Y66698D01*
X226394Y66449D01*
X226560Y65922D01*
X226671Y65423D01*
X226726Y65173D01*
X226754Y64951D01*
X226782Y64743D01*
X226796Y64563D01*
X226823Y64383D01*
Y64244D01*
X226837Y64133D01*
Y64036D01*
Y63980D01*
Y63966D01*
X226823Y63592D01*
X226796Y63259D01*
X226740Y62926D01*
X226685Y62635D01*
X226615Y62358D01*
X226532Y62094D01*
X226435Y61872D01*
X226338Y61664D01*
X226255Y61484D01*
X226158Y61318D01*
X226075Y61179D01*
X226005Y61068D01*
X225950Y60985D01*
X225894Y60929D01*
X225867Y60888D01*
X225853Y60874D01*
X225658Y60693D01*
X225450Y60527D01*
X225229Y60388D01*
X224993Y60264D01*
X224771Y60167D01*
X224535Y60083D01*
X224313Y60014D01*
X224091Y59959D01*
X223897Y59903D01*
X223703Y59875D01*
X223537Y59847D01*
X223384Y59834D01*
X223259D01*
X223176Y59820D01*
X223093D01*
X222802Y59834D01*
X222524Y59861D01*
X222261Y59903D01*
X222011Y59959D01*
X221775Y60014D01*
X221553Y60083D01*
X221345Y60167D01*
X221151Y60250D01*
X220985Y60319D01*
X220818Y60402D01*
X220694Y60472D01*
X220583Y60541D01*
X220485Y60582D01*
X220430Y60624D01*
X220389Y60652D01*
X220375Y60666D01*
X220167Y60832D01*
X219958Y61013D01*
X219612Y61415D01*
X219307Y61817D01*
X219057Y62219D01*
X218946Y62399D01*
X218863Y62580D01*
X218794Y62732D01*
X218724Y62871D01*
X218669Y62982D01*
X218641Y63065D01*
X218613Y63120D01*
Y63134D01*
X220610Y63439D01*
X220749Y63093D01*
X220888Y62788D01*
X221054Y62538D01*
X221207Y62330D01*
X221345Y62164D01*
X221456Y62053D01*
X221539Y61983D01*
X221553Y61955D01*
X221567D01*
X221817Y61789D01*
X222053Y61678D01*
X222288Y61595D01*
X222510Y61526D01*
X222691Y61498D01*
X222843Y61484D01*
X222899Y61470D01*
X222968D01*
X223120Y61484D01*
X223259Y61498D01*
X223523Y61567D01*
X223759Y61664D01*
X223967Y61789D01*
X224119Y61900D01*
X224244Y61997D01*
X224313Y62066D01*
X224341Y62094D01*
X224521Y62358D01*
X224660Y62649D01*
X224743Y62940D01*
X224813Y63231D01*
X224854Y63481D01*
X224868Y63592D01*
Y63689D01*
X224882Y63772D01*
Y63828D01*
Y63869D01*
Y63883D01*
X224868Y64271D01*
X224813Y64660D01*
X224743Y65020D01*
X224674Y65339D01*
X224632Y65478D01*
X224591Y65603D01*
X224563Y65714D01*
X224535Y65811D01*
X224507Y65894D01*
X224480Y65950D01*
X224466Y65977D01*
Y65991D01*
X224299Y66366D01*
X224105Y66685D01*
X223911Y66962D01*
X223731Y67170D01*
X223578Y67350D01*
X223440Y67461D01*
X223356Y67531D01*
X223342Y67558D01*
X223329D01*
X223065Y67725D01*
X222788Y67850D01*
X222538Y67947D01*
X222302Y68002D01*
X222094Y68044D01*
X221942Y68058D01*
X221886Y68071D01*
X221803D01*
X221539Y68058D01*
X221304Y68016D01*
X221096Y67947D01*
X220929Y67877D01*
X220791Y67808D01*
X220694Y67739D01*
X220624Y67697D01*
X220610Y67683D01*
X220458Y67531D01*
X220333Y67336D01*
X220222Y67142D01*
X220139Y66934D01*
X220070Y66754D01*
X220028Y66615D01*
X220014Y66560D01*
Y66518D01*
X220000Y66491D01*
Y66477D01*
X218114Y66657D01*
X218156Y66920D01*
X218211Y67170D01*
X218281Y67406D01*
X218364Y67628D01*
X218461Y67822D01*
X218558Y68016D01*
X218655Y68182D01*
X218752Y68335D01*
X218849Y68474D01*
X218932Y68598D01*
X219029Y68696D01*
X219099Y68779D01*
X219168Y68848D01*
X219210Y68890D01*
X219237Y68917D01*
X219251Y68931D01*
X219431Y69084D01*
X219640Y69209D01*
X219834Y69320D01*
X220056Y69417D01*
X220264Y69500D01*
X220472Y69569D01*
X220874Y69666D01*
X221054Y69708D01*
X221234Y69736D01*
X221387Y69749D01*
X221512Y69763D01*
X221623Y69777D01*
X221775D01*
X222039Y69763D01*
D02*
G37*
G36*
X210417Y67101D02*
X210764Y67045D01*
X211083Y66976D01*
X211374Y66879D01*
X211651Y66768D01*
X211901Y66643D01*
X212137Y66504D01*
X212345Y66366D01*
X212525Y66213D01*
X212691Y66088D01*
X212816Y65950D01*
X212941Y65839D01*
X213024Y65742D01*
X213080Y65672D01*
X213121Y65617D01*
X213135Y65603D01*
X213274Y65395D01*
X213399Y65173D01*
X213496Y64951D01*
X213593Y64729D01*
X213662Y64507D01*
X213732Y64299D01*
X213829Y63911D01*
X213856Y63731D01*
X213884Y63564D01*
X213898Y63412D01*
X213912Y63287D01*
X213926Y63190D01*
Y63120D01*
Y63065D01*
Y63051D01*
X213912Y62788D01*
X213884Y62538D01*
X213843Y62288D01*
X213787Y62066D01*
X213718Y61858D01*
X213648Y61664D01*
X213565Y61498D01*
X213482Y61331D01*
X213413Y61193D01*
X213329Y61068D01*
X213260Y60957D01*
X213191Y60874D01*
X213135Y60804D01*
X213094Y60749D01*
X213066Y60721D01*
X213052Y60707D01*
X212886Y60555D01*
X212705Y60416D01*
X212511Y60291D01*
X212331Y60194D01*
X212137Y60111D01*
X211943Y60042D01*
X211582Y59931D01*
X211416Y59889D01*
X211263Y59861D01*
X211124Y59847D01*
X211000Y59834D01*
X210903Y59820D01*
X210764D01*
X210389Y59847D01*
X210056Y59903D01*
X209737Y59972D01*
X209474Y60069D01*
X209238Y60167D01*
X209155Y60208D01*
X209072Y60236D01*
X209016Y60277D01*
X208975Y60291D01*
X208947Y60319D01*
X208933D01*
X208642Y60527D01*
X208378Y60777D01*
X208143Y61026D01*
X207948Y61276D01*
X207810Y61512D01*
X207740Y61609D01*
X207699Y61692D01*
X207657Y61761D01*
X207630Y61817D01*
X207602Y61845D01*
Y61858D01*
X209280Y62136D01*
X209377Y61969D01*
X209488Y61817D01*
X209613Y61692D01*
X209737Y61581D01*
X209848Y61484D01*
X209973Y61401D01*
X210098Y61331D01*
X210209Y61290D01*
X210417Y61220D01*
X210514Y61193D01*
X210597Y61179D01*
X210653Y61165D01*
X210750D01*
X210958Y61179D01*
X211152Y61234D01*
X211318Y61304D01*
X211457Y61373D01*
X211582Y61456D01*
X211665Y61512D01*
X211721Y61567D01*
X211735Y61581D01*
X211859Y61747D01*
X211957Y61942D01*
X212026Y62122D01*
X212067Y62302D01*
X212095Y62469D01*
X212123Y62593D01*
Y62677D01*
Y62691D01*
Y62704D01*
Y62760D01*
X212109Y62815D01*
Y62871D01*
Y62885D01*
X207394D01*
X207311Y63301D01*
X207283Y63509D01*
X207269Y63703D01*
X207255Y63856D01*
Y63994D01*
Y64077D01*
Y64091D01*
Y64105D01*
X207269Y64369D01*
X207283Y64604D01*
X207324Y64840D01*
X207380Y65048D01*
X207435Y65256D01*
X207491Y65437D01*
X207560Y65603D01*
X207630Y65755D01*
X207713Y65880D01*
X207782Y66005D01*
X207838Y66102D01*
X207893Y66185D01*
X207948Y66241D01*
X207990Y66282D01*
X208004Y66310D01*
X208018Y66324D01*
X208170Y66463D01*
X208323Y66588D01*
X208489Y66685D01*
X208656Y66782D01*
X208822Y66865D01*
X208989Y66920D01*
X209321Y67017D01*
X209474Y67045D01*
X209613Y67073D01*
X209737Y67087D01*
X209848Y67101D01*
X209932Y67115D01*
X210056D01*
X210417Y67101D01*
D02*
G37*
G36*
X236517Y60000D02*
X234562D01*
X233785Y63661D01*
X231885D01*
X231705Y63675D01*
X231414D01*
X231289Y63689D01*
X231081D01*
X230998Y63703D01*
X230873D01*
X230804Y63717D01*
X230776D01*
X230485Y63758D01*
X230235Y63814D01*
X230013Y63869D01*
X229833Y63925D01*
X229694Y63966D01*
X229583Y64008D01*
X229528Y64022D01*
X229500Y64036D01*
X229320Y64133D01*
X229167Y64230D01*
X229015Y64327D01*
X228890Y64438D01*
X228779Y64521D01*
X228696Y64591D01*
X228640Y64646D01*
X228626Y64660D01*
X228474Y64826D01*
X228335Y65007D01*
X228224Y65187D01*
X228127Y65367D01*
X228044Y65520D01*
X227988Y65644D01*
X227947Y65728D01*
X227933Y65742D01*
Y65755D01*
X227836Y66019D01*
X227766Y66269D01*
X227711Y66518D01*
X227683Y66726D01*
X227656Y66920D01*
X227642Y67059D01*
Y67115D01*
Y67156D01*
Y67170D01*
Y67184D01*
X227656Y67461D01*
X227697Y67725D01*
X227753Y67947D01*
X227822Y68155D01*
X227891Y68307D01*
X227947Y68432D01*
X227988Y68501D01*
X228002Y68529D01*
X228141Y68723D01*
X228307Y68904D01*
X228474Y69042D01*
X228626Y69153D01*
X228765Y69236D01*
X228876Y69306D01*
X228945Y69334D01*
X228959Y69347D01*
X228973D01*
X229209Y69431D01*
X229486Y69486D01*
X229750Y69542D01*
X230013Y69569D01*
X230249Y69583D01*
X230346D01*
X230443Y69597D01*
X234506D01*
X236517Y60000D01*
D02*
G37*
G36*
X217962D02*
X216006D01*
X213981Y69597D01*
X215951D01*
X217962Y60000D01*
D02*
G37*
G36*
X323805Y60000D02*
X319977D01*
X319769Y60014D01*
X319589Y60028D01*
X319408D01*
X319256Y60042D01*
X319117Y60055D01*
X318992Y60069D01*
X318881Y60083D01*
X318784Y60097D01*
X318701Y60111D01*
X318632D01*
X318590Y60125D01*
X318548Y60139D01*
X318521D01*
X318132Y60250D01*
X317786Y60374D01*
X317481Y60513D01*
X317231Y60638D01*
X317023Y60763D01*
X316940Y60804D01*
X316870Y60860D01*
X316815Y60888D01*
X316773Y60915D01*
X316759Y60943D01*
X316745D01*
X316427Y61234D01*
X316135Y61539D01*
X315872Y61858D01*
X315664Y62164D01*
X315483Y62441D01*
X315414Y62552D01*
X315359Y62663D01*
X315303Y62746D01*
X315275Y62801D01*
X315248Y62843D01*
Y62857D01*
X315137Y63093D01*
X315054Y63328D01*
X314901Y63800D01*
X314790Y64258D01*
X314762Y64479D01*
X314721Y64688D01*
X314707Y64882D01*
X314679Y65062D01*
X314665Y65215D01*
Y65353D01*
X314651Y65464D01*
Y65547D01*
Y65603D01*
Y65617D01*
Y65880D01*
X314679Y66116D01*
X314693Y66352D01*
X314721Y66546D01*
X314748Y66698D01*
X314776Y66823D01*
X314790Y66906D01*
X314804Y66934D01*
X314859Y67156D01*
X314929Y67364D01*
X315012Y67544D01*
X315081Y67697D01*
X315137Y67822D01*
X315192Y67919D01*
X315220Y67988D01*
X315234Y68002D01*
X315345Y68169D01*
X315456Y68321D01*
X315567Y68460D01*
X315664Y68571D01*
X315761Y68668D01*
X315830Y68737D01*
X315886Y68779D01*
X315900Y68793D01*
X316052Y68917D01*
X316191Y69015D01*
X316343Y69098D01*
X316468Y69181D01*
X316593Y69236D01*
X316676Y69278D01*
X316732Y69292D01*
X316759Y69306D01*
X317120Y69430D01*
X317300Y69472D01*
X317467Y69500D01*
X317619Y69528D01*
X317730Y69542D01*
X317799Y69555D01*
X317827D01*
X317897Y69569D01*
X317966D01*
X318160Y69583D01*
X318396D01*
X318632Y69597D01*
X321794D01*
X323805Y60000D01*
D02*
G37*
G36*
X314097D02*
X312141D01*
X311309Y63966D01*
X310505D01*
X310255Y63952D01*
X310047Y63939D01*
X309881Y63911D01*
X309742Y63869D01*
X309645Y63828D01*
X309576Y63800D01*
X309534Y63786D01*
X309520Y63772D01*
X309437Y63703D01*
X309354Y63633D01*
X309187Y63439D01*
X309049Y63231D01*
X308924Y63023D01*
X308813Y62829D01*
X308730Y62677D01*
X308702Y62607D01*
X308674Y62566D01*
X308660Y62538D01*
Y62524D01*
X308521Y62219D01*
X308397Y61928D01*
X308286Y61650D01*
X308189Y61401D01*
X308092Y61179D01*
X308008Y60971D01*
X307939Y60791D01*
X307870Y60624D01*
X307814Y60472D01*
X307773Y60347D01*
X307731Y60236D01*
X307703Y60153D01*
X307676Y60083D01*
X307662Y60042D01*
X307648Y60014D01*
Y60000D01*
X305526D01*
X305679Y60374D01*
X305831Y60721D01*
X305970Y61054D01*
X306108Y61359D01*
X306233Y61650D01*
X306358Y61914D01*
X306469Y62150D01*
X306580Y62358D01*
X306677Y62552D01*
X306760Y62718D01*
X306830Y62857D01*
X306899Y62968D01*
X306940Y63065D01*
X306982Y63120D01*
X306996Y63162D01*
X307010Y63176D01*
X307135Y63370D01*
X307260Y63550D01*
X307384Y63703D01*
X307481Y63842D01*
X307579Y63939D01*
X307648Y64022D01*
X307703Y64063D01*
X307717Y64077D01*
X307454Y64119D01*
X307190Y64174D01*
X306954Y64230D01*
X306746Y64299D01*
X306538Y64382D01*
X306358Y64466D01*
X306192Y64549D01*
X306053Y64632D01*
X305914Y64715D01*
X305803Y64785D01*
X305720Y64854D01*
X305637Y64923D01*
X305581Y64979D01*
X305526Y65020D01*
X305512Y65034D01*
X305498Y65048D01*
X305373Y65201D01*
X305249Y65367D01*
X305152Y65533D01*
X305068Y65700D01*
X304944Y66047D01*
X304860Y66366D01*
X304819Y66504D01*
X304805Y66643D01*
X304791Y66768D01*
X304777Y66865D01*
X304763Y66962D01*
Y67017D01*
Y67059D01*
Y67073D01*
X304777Y67378D01*
X304819Y67669D01*
X304888Y67919D01*
X304957Y68127D01*
X305027Y68293D01*
X305096Y68418D01*
X305138Y68501D01*
X305152Y68529D01*
X305304Y68737D01*
X305457Y68917D01*
X305623Y69056D01*
X305790Y69181D01*
X305928Y69264D01*
X306039Y69320D01*
X306108Y69347D01*
X306122Y69361D01*
X306136D01*
X306386Y69444D01*
X306663Y69500D01*
X306940Y69542D01*
X307218Y69569D01*
X307467Y69583D01*
X307565Y69597D01*
X312086D01*
X314097Y60000D01*
D02*
G37*
G36*
X328201Y69763D02*
X328478Y69749D01*
X328742Y69708D01*
X328991Y69652D01*
X329227Y69597D01*
X329435Y69528D01*
X329615Y69444D01*
X329782Y69375D01*
X329934Y69306D01*
X330073Y69222D01*
X330184Y69153D01*
X330267Y69098D01*
X330336Y69042D01*
X330392Y69015D01*
X330420Y68987D01*
X330434Y68973D01*
X330586Y68820D01*
X330725Y68654D01*
X330836Y68488D01*
X330933Y68321D01*
X331016Y68141D01*
X331099Y67974D01*
X331196Y67655D01*
X331238Y67517D01*
X331266Y67378D01*
X331280Y67253D01*
X331293Y67156D01*
X331307Y67073D01*
Y67003D01*
Y66962D01*
Y66948D01*
X331293Y66698D01*
X331266Y66463D01*
X331210Y66255D01*
X331155Y66074D01*
X331113Y65936D01*
X331058Y65825D01*
X331030Y65755D01*
X331016Y65728D01*
X330891Y65547D01*
X330766Y65381D01*
X330628Y65228D01*
X330503Y65117D01*
X330392Y65020D01*
X330295Y64937D01*
X330239Y64896D01*
X330212Y64882D01*
X330115Y64826D01*
X329990Y64757D01*
X329740Y64618D01*
X329463Y64493D01*
X329199Y64355D01*
X328964Y64244D01*
X328853Y64202D01*
X328755Y64160D01*
X328686Y64119D01*
X328631Y64105D01*
X328589Y64077D01*
X328575D01*
X328381Y63994D01*
X328187Y63911D01*
X328034Y63828D01*
X327882Y63758D01*
X327757Y63703D01*
X327646Y63647D01*
X327549Y63592D01*
X327466Y63536D01*
X327341Y63467D01*
X327258Y63412D01*
X327216Y63384D01*
X327202Y63370D01*
X327077Y63259D01*
X326994Y63134D01*
X326925Y63009D01*
X326883Y62899D01*
X326856Y62801D01*
X326842Y62718D01*
Y62663D01*
Y62649D01*
X326856Y62469D01*
X326911Y62316D01*
X326980Y62177D01*
X327064Y62052D01*
X327147Y61955D01*
X327216Y61872D01*
X327272Y61831D01*
X327285Y61817D01*
X327466Y61706D01*
X327688Y61623D01*
X327923Y61553D01*
X328145Y61512D01*
X328353Y61484D01*
X328450D01*
X328534Y61470D01*
X328894D01*
X329088Y61498D01*
X329269Y61512D01*
X329421Y61553D01*
X329574Y61581D01*
X329699Y61623D01*
X329823Y61678D01*
X329921Y61720D01*
X330087Y61817D01*
X330198Y61886D01*
X330253Y61942D01*
X330281Y61969D01*
X330378Y62108D01*
X330448Y62288D01*
X330503Y62496D01*
X330531Y62704D01*
X330558Y62885D01*
X330572Y63051D01*
X330586Y63106D01*
Y63148D01*
Y63176D01*
Y63190D01*
X332472Y63079D01*
X332458Y62732D01*
X332431Y62413D01*
X332375Y62122D01*
X332306Y61872D01*
X332237Y61664D01*
X332209Y61581D01*
X332181Y61512D01*
X332153Y61442D01*
X332139Y61401D01*
X332126Y61387D01*
Y61373D01*
X331959Y61109D01*
X331765Y60888D01*
X331557Y60680D01*
X331349Y60527D01*
X331155Y60388D01*
X331002Y60305D01*
X330933Y60264D01*
X330891Y60236D01*
X330863Y60222D01*
X330850D01*
X330503Y60083D01*
X330129Y59986D01*
X329768Y59917D01*
X329435Y59875D01*
X329282Y59847D01*
X329144D01*
X329019Y59834D01*
X328908Y59820D01*
X328700D01*
X328367Y59834D01*
X328062Y59861D01*
X327771Y59903D01*
X327507Y59958D01*
X327258Y60028D01*
X327022Y60111D01*
X326814Y60180D01*
X326634Y60277D01*
X326453Y60361D01*
X326315Y60430D01*
X326190Y60513D01*
X326079Y60582D01*
X326010Y60638D01*
X325940Y60680D01*
X325913Y60707D01*
X325899Y60721D01*
X325718Y60901D01*
X325566Y61068D01*
X325427Y61262D01*
X325316Y61442D01*
X325219Y61623D01*
X325136Y61803D01*
X325066Y61983D01*
X325011Y62150D01*
X324969Y62302D01*
X324942Y62441D01*
X324914Y62579D01*
X324900Y62691D01*
X324886Y62774D01*
Y62843D01*
Y62885D01*
Y62899D01*
X324900Y63093D01*
X324914Y63259D01*
X324997Y63592D01*
X325094Y63883D01*
X325219Y64119D01*
X325344Y64313D01*
X325455Y64466D01*
X325496Y64507D01*
X325538Y64549D01*
X325552Y64563D01*
X325566Y64577D01*
X325663Y64660D01*
X325788Y64757D01*
X325926Y64854D01*
X326093Y64951D01*
X326440Y65145D01*
X326800Y65325D01*
X327133Y65492D01*
X327285Y65561D01*
X327424Y65631D01*
X327535Y65672D01*
X327618Y65714D01*
X327674Y65728D01*
X327688Y65742D01*
X327882Y65825D01*
X328062Y65908D01*
X328228Y65991D01*
X328367Y66061D01*
X328506Y66130D01*
X328617Y66199D01*
X328714Y66255D01*
X328811Y66310D01*
X328950Y66393D01*
X329033Y66449D01*
X329088Y66490D01*
X329102Y66504D01*
X329213Y66615D01*
X329282Y66726D01*
X329338Y66837D01*
X329380Y66948D01*
X329407Y67045D01*
X329421Y67115D01*
Y67170D01*
Y67184D01*
X329407Y67336D01*
X329366Y67489D01*
X329310Y67614D01*
X329241Y67725D01*
X329185Y67808D01*
X329130Y67863D01*
X329088Y67905D01*
X329075Y67919D01*
X328922Y68016D01*
X328742Y68085D01*
X328548Y68141D01*
X328367Y68169D01*
X328187Y68196D01*
X328048Y68210D01*
X327910D01*
X327618Y68196D01*
X327355Y68155D01*
X327133Y68085D01*
X326967Y68030D01*
X326828Y67961D01*
X326731Y67891D01*
X326661Y67849D01*
X326647Y67836D01*
X326495Y67683D01*
X326384Y67517D01*
X326301Y67336D01*
X326231Y67170D01*
X326190Y67017D01*
X326148Y66893D01*
X326134Y66809D01*
Y66796D01*
Y66782D01*
X324248Y66865D01*
X324276Y67101D01*
X324318Y67336D01*
X324373Y67544D01*
X324442Y67752D01*
X324526Y67933D01*
X324609Y68113D01*
X324706Y68266D01*
X324803Y68418D01*
X324886Y68543D01*
X324969Y68654D01*
X325053Y68751D01*
X325122Y68834D01*
X325191Y68890D01*
X325233Y68931D01*
X325261Y68959D01*
X325275Y68973D01*
X325455Y69111D01*
X325649Y69236D01*
X325857Y69347D01*
X326079Y69444D01*
X326287Y69514D01*
X326509Y69583D01*
X326939Y69680D01*
X327133Y69708D01*
X327313Y69736D01*
X327480Y69749D01*
X327618Y69763D01*
X327729Y69777D01*
X327896D01*
X328201Y69763D01*
D02*
G37*
G36*
X335459Y79155D02*
X333587D01*
X333240Y80847D01*
X335098D01*
X335459Y79155D01*
D02*
G37*
G36*
X328400Y78351D02*
X328622Y78323D01*
X328816Y78267D01*
X329024Y78212D01*
X329385Y78046D01*
X329717Y77865D01*
X329870Y77768D01*
X329995Y77685D01*
X330106Y77602D01*
X330203Y77519D01*
X330286Y77463D01*
X330341Y77408D01*
X330369Y77380D01*
X330383Y77366D01*
X330217Y78212D01*
X331978D01*
X333434Y71250D01*
X331576D01*
X330910Y74440D01*
X330868Y74592D01*
X330841Y74731D01*
X330785Y74953D01*
X330730Y75147D01*
X330702Y75286D01*
X330674Y75383D01*
X330647Y75452D01*
X330633Y75494D01*
Y75508D01*
X330563Y75688D01*
X330494Y75840D01*
X330425Y75993D01*
X330355Y76104D01*
X330300Y76201D01*
X330258Y76270D01*
X330230Y76312D01*
X330217Y76326D01*
X330120Y76437D01*
X330023Y76534D01*
X329925Y76631D01*
X329828Y76700D01*
X329759Y76756D01*
X329690Y76797D01*
X329648Y76811D01*
X329634Y76825D01*
X329509Y76894D01*
X329398Y76936D01*
X329287Y76978D01*
X329190Y76992D01*
X329107Y77005D01*
X329052Y77019D01*
X328996D01*
X328871Y77005D01*
X328774Y76992D01*
X328691Y76964D01*
X328608Y76936D01*
X328553Y76894D01*
X328511Y76867D01*
X328497Y76853D01*
X328483Y76839D01*
X328414Y76770D01*
X328372Y76686D01*
X328317Y76548D01*
X328303Y76478D01*
X328289Y76423D01*
Y76395D01*
Y76381D01*
Y76284D01*
X328317Y76146D01*
X328331Y75993D01*
X328358Y75827D01*
X328386Y75688D01*
X328414Y75563D01*
X328428Y75466D01*
X328442Y75452D01*
Y75438D01*
X329315Y71250D01*
X327457D01*
X326791Y74398D01*
X326736Y74648D01*
X326680Y74870D01*
X326625Y75078D01*
X326555Y75258D01*
X326500Y75424D01*
X326445Y75577D01*
X326389Y75716D01*
X326334Y75840D01*
X326292Y75938D01*
X326236Y76035D01*
X326195Y76104D01*
X326167Y76173D01*
X326139Y76215D01*
X326112Y76243D01*
X326098Y76270D01*
X325987Y76409D01*
X325890Y76520D01*
X325779Y76617D01*
X325668Y76700D01*
X325446Y76839D01*
X325252Y76922D01*
X325085Y76978D01*
X324947Y77005D01*
X324891Y77019D01*
X324822D01*
X324697Y77005D01*
X324600Y76992D01*
X324503Y76964D01*
X324434Y76936D01*
X324378Y76894D01*
X324337Y76867D01*
X324323Y76853D01*
X324309Y76839D01*
X324253Y76770D01*
X324198Y76700D01*
X324156Y76548D01*
X324142Y76478D01*
X324128Y76437D01*
Y76395D01*
Y76381D01*
Y76354D01*
Y76312D01*
X324156Y76201D01*
X324184Y76048D01*
X324212Y75896D01*
X324239Y75743D01*
X324267Y75605D01*
X324281Y75549D01*
Y75521D01*
X324295Y75494D01*
Y75480D01*
X325196Y71250D01*
X323338D01*
X322423Y75480D01*
X322353Y75785D01*
X322312Y76048D01*
X322270Y76270D01*
X322256Y76437D01*
X322242Y76562D01*
X322229Y76659D01*
Y76714D01*
Y76728D01*
X322242Y76992D01*
X322298Y77227D01*
X322381Y77421D01*
X322464Y77588D01*
X322547Y77726D01*
X322631Y77824D01*
X322686Y77893D01*
X322700Y77907D01*
X322880Y78059D01*
X323088Y78170D01*
X323310Y78253D01*
X323518Y78309D01*
X323699Y78337D01*
X323851Y78365D01*
X323990D01*
X324267Y78351D01*
X324517Y78309D01*
X324766Y78253D01*
X324974Y78184D01*
X325155Y78115D01*
X325280Y78059D01*
X325335Y78032D01*
X325377Y78018D01*
X325391Y78004D01*
X325404D01*
X325640Y77865D01*
X325848Y77713D01*
X326015Y77574D01*
X326167Y77435D01*
X326278Y77311D01*
X326361Y77213D01*
X326417Y77158D01*
X326431Y77130D01*
X326486Y77338D01*
X326569Y77505D01*
X326666Y77671D01*
X326750Y77796D01*
X326847Y77893D01*
X326916Y77976D01*
X326972Y78018D01*
X326985Y78032D01*
X327152Y78143D01*
X327346Y78226D01*
X327554Y78281D01*
X327748Y78323D01*
X327915Y78351D01*
X328067Y78365D01*
X328192D01*
X328400Y78351D01*
D02*
G37*
G36*
X317707D02*
X318054Y78295D01*
X318373Y78226D01*
X318664Y78129D01*
X318942Y78018D01*
X319191Y77893D01*
X319427Y77754D01*
X319635Y77616D01*
X319815Y77463D01*
X319982Y77338D01*
X320107Y77200D01*
X320231Y77089D01*
X320315Y76992D01*
X320370Y76922D01*
X320412Y76867D01*
X320426Y76853D01*
X320564Y76645D01*
X320689Y76423D01*
X320786Y76201D01*
X320883Y75979D01*
X320953Y75757D01*
X321022Y75549D01*
X321119Y75161D01*
X321147Y74981D01*
X321175Y74814D01*
X321188Y74662D01*
X321202Y74537D01*
X321216Y74440D01*
Y74370D01*
Y74315D01*
Y74301D01*
X321202Y74037D01*
X321175Y73788D01*
X321133Y73538D01*
X321077Y73316D01*
X321008Y73108D01*
X320939Y72914D01*
X320855Y72748D01*
X320772Y72581D01*
X320703Y72443D01*
X320620Y72318D01*
X320550Y72207D01*
X320481Y72124D01*
X320426Y72054D01*
X320384Y71999D01*
X320356Y71971D01*
X320342Y71957D01*
X320176Y71805D01*
X319996Y71666D01*
X319802Y71541D01*
X319621Y71444D01*
X319427Y71361D01*
X319233Y71292D01*
X318872Y71181D01*
X318706Y71139D01*
X318553Y71111D01*
X318415Y71097D01*
X318290Y71084D01*
X318193Y71070D01*
X318054D01*
X317680Y71097D01*
X317347Y71153D01*
X317028Y71222D01*
X316764Y71319D01*
X316529Y71416D01*
X316445Y71458D01*
X316362Y71486D01*
X316307Y71527D01*
X316265Y71541D01*
X316237Y71569D01*
X316223D01*
X315932Y71777D01*
X315669Y72027D01*
X315433Y72276D01*
X315239Y72526D01*
X315100Y72762D01*
X315031Y72859D01*
X314989Y72942D01*
X314948Y73011D01*
X314920Y73067D01*
X314892Y73095D01*
Y73108D01*
X316570Y73386D01*
X316667Y73219D01*
X316778Y73067D01*
X316903Y72942D01*
X317028Y72831D01*
X317139Y72734D01*
X317264Y72651D01*
X317388Y72581D01*
X317499Y72540D01*
X317707Y72470D01*
X317804Y72443D01*
X317888Y72429D01*
X317943Y72415D01*
X318040D01*
X318248Y72429D01*
X318442Y72484D01*
X318609Y72554D01*
X318748Y72623D01*
X318872Y72706D01*
X318955Y72762D01*
X319011Y72817D01*
X319025Y72831D01*
X319150Y72997D01*
X319247Y73192D01*
X319316Y73372D01*
X319358Y73552D01*
X319385Y73719D01*
X319413Y73843D01*
Y73927D01*
Y73941D01*
Y73954D01*
Y74010D01*
X319399Y74065D01*
Y74121D01*
Y74135D01*
X314684D01*
X314601Y74551D01*
X314573Y74759D01*
X314559Y74953D01*
X314545Y75105D01*
Y75244D01*
Y75327D01*
Y75341D01*
Y75355D01*
X314559Y75619D01*
X314573Y75854D01*
X314615Y76090D01*
X314670Y76298D01*
X314726Y76506D01*
X314781Y76686D01*
X314851Y76853D01*
X314920Y77005D01*
X315003Y77130D01*
X315072Y77255D01*
X315128Y77352D01*
X315183Y77435D01*
X315239Y77491D01*
X315280Y77532D01*
X315294Y77560D01*
X315308Y77574D01*
X315461Y77713D01*
X315613Y77838D01*
X315780Y77935D01*
X315946Y78032D01*
X316112Y78115D01*
X316279Y78170D01*
X316612Y78267D01*
X316764Y78295D01*
X316903Y78323D01*
X317028Y78337D01*
X317139Y78351D01*
X317222Y78365D01*
X317347D01*
X317707Y78351D01*
D02*
G37*
G36*
X345250Y71250D02*
X338371D01*
X338038Y72859D01*
X342948D01*
X341270Y80847D01*
X343239D01*
X345250Y71250D01*
D02*
G37*
G36*
X337109D02*
X335251D01*
X333781Y78212D01*
X335653D01*
X337109Y71250D01*
D02*
G37*
G36*
X303033Y58889D02*
X303255Y58861D01*
X303477Y58819D01*
X303685Y58764D01*
X304059Y58625D01*
X304212Y58556D01*
X304364Y58472D01*
X304503Y58389D01*
X304628Y58320D01*
X304725Y58237D01*
X304822Y58181D01*
X304877Y58126D01*
X304933Y58084D01*
X304961Y58056D01*
X304974Y58042D01*
X305182Y57807D01*
X305363Y57543D01*
X305515Y57280D01*
X305640Y57016D01*
X305737Y56781D01*
X305779Y56683D01*
X305820Y56600D01*
X305848Y56517D01*
X305862Y56462D01*
X305876Y56434D01*
Y56420D01*
X304156Y56087D01*
X304087Y56337D01*
X304004Y56545D01*
X303920Y56725D01*
X303837Y56864D01*
X303768Y56961D01*
X303712Y57044D01*
X303671Y57086D01*
X303657Y57099D01*
X303532Y57197D01*
X303407Y57280D01*
X303283Y57335D01*
X303172Y57363D01*
X303074Y57391D01*
X303005Y57405D01*
X302936D01*
X302783Y57391D01*
X302645Y57363D01*
X302534Y57321D01*
X302423Y57266D01*
X302353Y57210D01*
X302284Y57169D01*
X302256Y57141D01*
X302242Y57127D01*
X302145Y57016D01*
X302076Y56891D01*
X302034Y56767D01*
X301993Y56656D01*
X301979Y56545D01*
X301965Y56462D01*
Y56406D01*
Y56378D01*
X301979Y56143D01*
X302020Y55935D01*
X302090Y55754D01*
X302159Y55602D01*
X302242Y55477D01*
X302298Y55394D01*
X302353Y55338D01*
X302367Y55324D01*
X302534Y55199D01*
X302714Y55102D01*
X302894Y55047D01*
X303074Y54991D01*
X303241Y54964D01*
X303380Y54950D01*
X303699D01*
X304018Y53397D01*
X303907Y53411D01*
X303810Y53424D01*
X303726D01*
X303518Y53411D01*
X303338Y53369D01*
X303172Y53313D01*
X303047Y53258D01*
X302936Y53189D01*
X302866Y53133D01*
X302811Y53092D01*
X302797Y53078D01*
X302686Y52939D01*
X302603Y52786D01*
X302534Y52634D01*
X302492Y52481D01*
X302464Y52343D01*
X302450Y52232D01*
Y52162D01*
Y52148D01*
Y52135D01*
X302464Y51899D01*
X302520Y51677D01*
X302589Y51483D01*
X302658Y51330D01*
X302742Y51192D01*
X302811Y51108D01*
X302866Y51039D01*
X302880Y51025D01*
X303047Y50886D01*
X303227Y50775D01*
X303407Y50706D01*
X303574Y50651D01*
X303726Y50623D01*
X303837Y50609D01*
X303920Y50595D01*
X303948D01*
X304115Y50609D01*
X304267Y50637D01*
X304406Y50692D01*
X304517Y50748D01*
X304600Y50789D01*
X304669Y50845D01*
X304711Y50873D01*
X304725Y50886D01*
X304822Y51011D01*
X304905Y51178D01*
X304974Y51358D01*
X305030Y51524D01*
X305072Y51691D01*
X305099Y51830D01*
X305113Y51885D01*
X305127Y51927D01*
Y51940D01*
Y51954D01*
X306930Y51732D01*
X306888Y51497D01*
X306847Y51289D01*
X306777Y51081D01*
X306708Y50886D01*
X306639Y50706D01*
X306555Y50554D01*
X306472Y50401D01*
X306389Y50276D01*
X306306Y50151D01*
X306236Y50054D01*
X306167Y49957D01*
X306098Y49888D01*
X306042Y49832D01*
X306001Y49791D01*
X305987Y49777D01*
X305973Y49763D01*
X305820Y49638D01*
X305654Y49541D01*
X305488Y49444D01*
X305321Y49361D01*
X304988Y49236D01*
X304669Y49153D01*
X304531Y49125D01*
X304392Y49111D01*
X304267Y49097D01*
X304170Y49083D01*
X304073Y49070D01*
X303962D01*
X303671Y49083D01*
X303380Y49125D01*
X303116Y49181D01*
X302866Y49264D01*
X302631Y49347D01*
X302409Y49458D01*
X302215Y49569D01*
X302034Y49680D01*
X301868Y49791D01*
X301729Y49902D01*
X301604Y50013D01*
X301493Y50096D01*
X301424Y50179D01*
X301355Y50235D01*
X301327Y50276D01*
X301313Y50290D01*
X301175Y50457D01*
X301063Y50623D01*
X300953Y50803D01*
X300869Y50970D01*
X300731Y51302D01*
X300648Y51608D01*
X300620Y51732D01*
X300592Y51857D01*
X300578Y51968D01*
X300564Y52065D01*
X300550Y52148D01*
Y52204D01*
Y52232D01*
Y52245D01*
X300564Y52454D01*
X300592Y52648D01*
X300648Y52828D01*
X300689Y52994D01*
X300745Y53119D01*
X300800Y53230D01*
X300828Y53286D01*
X300842Y53313D01*
X300966Y53494D01*
X301105Y53660D01*
X301258Y53799D01*
X301396Y53924D01*
X301535Y54021D01*
X301646Y54090D01*
X301715Y54132D01*
X301729Y54145D01*
X301743D01*
X301466Y54270D01*
X301230Y54395D01*
X301022Y54548D01*
X300856Y54700D01*
X300717Y54825D01*
X300620Y54936D01*
X300550Y55005D01*
X300536Y55033D01*
X300384Y55269D01*
X300273Y55505D01*
X300204Y55726D01*
X300148Y55948D01*
X300121Y56129D01*
X300093Y56267D01*
Y56323D01*
Y56364D01*
Y56378D01*
Y56392D01*
X300107Y56586D01*
X300121Y56767D01*
X300204Y57099D01*
X300315Y57405D01*
X300439Y57654D01*
X300564Y57862D01*
X300620Y57945D01*
X300675Y58029D01*
X300717Y58084D01*
X300758Y58126D01*
X300772Y58140D01*
X300786Y58154D01*
X300925Y58292D01*
X301077Y58403D01*
X301230Y58500D01*
X301396Y58583D01*
X301729Y58722D01*
X302048Y58805D01*
X302339Y58861D01*
X302464Y58875D01*
X302575Y58889D01*
X302672Y58902D01*
X302797D01*
X303033Y58889D01*
D02*
G37*
G36*
X313365Y58639D02*
X313642Y58389D01*
X313947Y58154D01*
X314252Y57918D01*
X314557Y57710D01*
X314876Y57502D01*
X315182Y57308D01*
X315473Y57141D01*
X315750Y56975D01*
X316014Y56836D01*
X316249Y56725D01*
X316444Y56628D01*
X316610Y56545D01*
X316735Y56475D01*
X316818Y56448D01*
X316832Y56434D01*
X316846D01*
X317206Y54756D01*
X316971Y54811D01*
X316749Y54880D01*
X316513Y54950D01*
X316305Y55019D01*
X316125Y55089D01*
X315972Y55130D01*
X315917Y55158D01*
X315875Y55172D01*
X315861Y55186D01*
X315847D01*
X315570Y55311D01*
X315306Y55435D01*
X315071Y55546D01*
X314876Y55657D01*
X314710Y55754D01*
X314585Y55824D01*
X314516Y55879D01*
X314488Y55893D01*
X315875Y49250D01*
X313989D01*
X311964Y58902D01*
X313101D01*
X313365Y58639D01*
D02*
G37*
G36*
X323863Y49250D02*
X322254D01*
X317969Y56212D01*
X319994D01*
X321727Y53258D01*
X321769Y53175D01*
X321838Y53050D01*
X321922Y52911D01*
X322005Y52759D01*
X322088Y52606D01*
X322157Y52481D01*
X322213Y52398D01*
X322227Y52384D01*
Y52370D01*
X322296Y52245D01*
X322365Y52121D01*
X322463Y51927D01*
X322546Y51788D01*
X322601Y51677D01*
X322643Y51608D01*
X322671Y51566D01*
X322684Y51538D01*
X322698Y51621D01*
X322712Y51719D01*
X322740Y51954D01*
X322781Y52218D01*
X322823Y52495D01*
X322865Y52745D01*
X322892Y52870D01*
X322906Y52967D01*
X322920Y53050D01*
Y53105D01*
X322934Y53147D01*
Y53161D01*
X323405Y56212D01*
X325250D01*
X323863Y49250D01*
D02*
G37*
G36*
X310730D02*
X308871D01*
X308511Y51067D01*
X310369D01*
X310730Y49250D01*
D02*
G37*
G36*
X283922Y67905D02*
X282050D01*
X281703Y69597D01*
X283561D01*
X283922Y67905D01*
D02*
G37*
G36*
X296764Y60000D02*
X294975D01*
X293463Y68016D01*
X293103Y60000D01*
X291230D01*
X287666Y67961D01*
X289330Y60000D01*
X287541D01*
X285794Y69597D01*
X288637D01*
X291646Y62996D01*
X291952Y69597D01*
X294767D01*
X296764Y60000D01*
D02*
G37*
G36*
X278028Y67087D02*
X278416Y67017D01*
X278763Y66934D01*
X279068Y66823D01*
X279207Y66768D01*
X279331Y66712D01*
X279428Y66671D01*
X279526Y66629D01*
X279595Y66588D01*
X279650Y66560D01*
X279678Y66546D01*
X279692Y66532D01*
X280025Y66296D01*
X280316Y66033D01*
X280552Y65769D01*
X280746Y65520D01*
X280912Y65284D01*
X280968Y65187D01*
X281023Y65104D01*
X281051Y65034D01*
X281079Y64979D01*
X281106Y64951D01*
Y64937D01*
X281259Y64549D01*
X281384Y64174D01*
X281467Y63814D01*
X281523Y63481D01*
X281536Y63328D01*
X281550Y63204D01*
X281564Y63079D01*
Y62982D01*
X281578Y62899D01*
Y62843D01*
Y62801D01*
Y62788D01*
X281564Y62538D01*
X281550Y62302D01*
X281509Y62066D01*
X281453Y61858D01*
X281398Y61664D01*
X281328Y61484D01*
X281259Y61331D01*
X281190Y61179D01*
X281120Y61054D01*
X281051Y60929D01*
X280982Y60832D01*
X280926Y60763D01*
X280871Y60693D01*
X280829Y60652D01*
X280815Y60624D01*
X280801Y60610D01*
X280649Y60472D01*
X280482Y60347D01*
X280316Y60250D01*
X280149Y60153D01*
X279969Y60083D01*
X279789Y60014D01*
X279456Y59917D01*
X279304Y59889D01*
X279151Y59861D01*
X279026Y59847D01*
X278915Y59834D01*
X278818Y59820D01*
X278693D01*
X278472Y59834D01*
X278263Y59847D01*
X277875Y59917D01*
X277528Y60014D01*
X277223Y60139D01*
X277099Y60194D01*
X276987Y60250D01*
X276877Y60305D01*
X276793Y60347D01*
X276724Y60388D01*
X276682Y60416D01*
X276655Y60444D01*
X276641D01*
X276322Y60707D01*
X276058Y60999D01*
X275823Y61304D01*
X275628Y61609D01*
X275490Y61872D01*
X275434Y61983D01*
X275379Y62094D01*
X275337Y62177D01*
X275323Y62233D01*
X275296Y62274D01*
Y62288D01*
X277126Y62593D01*
X277223Y62358D01*
X277334Y62164D01*
X277445Y61997D01*
X277542Y61858D01*
X277639Y61747D01*
X277723Y61678D01*
X277778Y61623D01*
X277792Y61609D01*
X277945Y61498D01*
X278097Y61428D01*
X278250Y61373D01*
X278374Y61331D01*
X278485Y61304D01*
X278568Y61290D01*
X278652D01*
X278818Y61304D01*
X278957Y61345D01*
X279095Y61401D01*
X279207Y61456D01*
X279290Y61512D01*
X279359Y61567D01*
X279401Y61609D01*
X279415Y61623D01*
X279512Y61761D01*
X279581Y61914D01*
X279636Y62066D01*
X279664Y62219D01*
X279692Y62358D01*
X279706Y62469D01*
Y62538D01*
Y62566D01*
X279692Y62843D01*
X279664Y63106D01*
X279622Y63370D01*
X279581Y63606D01*
X279539Y63800D01*
X279498Y63952D01*
X279484Y64008D01*
X279470Y64050D01*
X279456Y64077D01*
Y64091D01*
X279359Y64382D01*
X279234Y64632D01*
X279123Y64840D01*
X278999Y65006D01*
X278901Y65145D01*
X278818Y65242D01*
X278749Y65298D01*
X278735Y65312D01*
X278555Y65450D01*
X278374Y65547D01*
X278208Y65631D01*
X278055Y65672D01*
X277917Y65700D01*
X277820Y65728D01*
X277723D01*
X277556Y65714D01*
X277404Y65686D01*
X277279Y65631D01*
X277168Y65589D01*
X277071Y65533D01*
X277015Y65478D01*
X276974Y65450D01*
X276960Y65436D01*
X276863Y65325D01*
X276779Y65187D01*
X276724Y65048D01*
X276669Y64909D01*
X276641Y64771D01*
X276613Y64674D01*
X276599Y64604D01*
Y64577D01*
X274810Y64757D01*
X274838Y64951D01*
X274879Y65131D01*
X274977Y65464D01*
X275115Y65755D01*
X275268Y66005D01*
X275406Y66199D01*
X275531Y66352D01*
X275573Y66393D01*
X275615Y66435D01*
X275628Y66449D01*
X275642Y66463D01*
X275781Y66574D01*
X275933Y66685D01*
X276266Y66837D01*
X276585Y66962D01*
X276904Y67031D01*
X277182Y67087D01*
X277306Y67101D01*
X277404D01*
X277487Y67115D01*
X277612D01*
X278028Y67087D01*
D02*
G37*
G36*
X285572Y60000D02*
X283714D01*
X282244Y66962D01*
X284116D01*
X285572Y60000D01*
D02*
G37*
G36*
X269651Y67101D02*
X269859Y67045D01*
X270067Y66976D01*
X270247Y66879D01*
X270442Y66768D01*
X270608Y66643D01*
X270927Y66366D01*
X271066Y66227D01*
X271190Y66088D01*
X271301Y65963D01*
X271399Y65852D01*
X271468Y65755D01*
X271523Y65686D01*
X271551Y65631D01*
X271565Y65617D01*
X271288Y66962D01*
X273035D01*
X274491Y60000D01*
X272633D01*
X272175Y62177D01*
X272120Y62413D01*
X272078Y62649D01*
X272023Y62857D01*
X271967Y63037D01*
X271926Y63218D01*
X271884Y63384D01*
X271828Y63523D01*
X271787Y63647D01*
X271759Y63758D01*
X271717Y63855D01*
X271690Y63939D01*
X271662Y64008D01*
X271648Y64050D01*
X271634Y64091D01*
X271621Y64119D01*
X271509Y64341D01*
X271385Y64535D01*
X271246Y64701D01*
X271121Y64840D01*
X271010Y64937D01*
X270927Y65020D01*
X270872Y65076D01*
X270844Y65090D01*
X270650Y65215D01*
X270469Y65312D01*
X270303Y65367D01*
X270150Y65423D01*
X270026Y65450D01*
X269928Y65464D01*
X269845D01*
X269637Y65450D01*
X269457Y65423D01*
X269388Y65395D01*
X269332Y65381D01*
X269304Y65367D01*
X269291D01*
X268569Y66906D01*
X268736Y66976D01*
X268902Y67031D01*
X269055Y67059D01*
X269180Y67087D01*
X269291Y67101D01*
X269374Y67115D01*
X269443D01*
X269651Y67101D01*
D02*
G37*
G36*
X265255D02*
X265574Y67059D01*
X265865Y67003D01*
X266129Y66934D01*
X266392Y66851D01*
X266628Y66740D01*
X266836Y66643D01*
X267030Y66532D01*
X267210Y66421D01*
X267363Y66324D01*
X267502Y66227D01*
X267612Y66130D01*
X267696Y66061D01*
X267751Y66005D01*
X267793Y65963D01*
X267807Y65950D01*
X268001Y65728D01*
X268167Y65492D01*
X268306Y65242D01*
X268431Y64979D01*
X268542Y64729D01*
X268625Y64466D01*
X268694Y64216D01*
X268750Y63980D01*
X268791Y63758D01*
X268833Y63536D01*
X268861Y63356D01*
X268874Y63190D01*
Y63051D01*
X268888Y62954D01*
Y62899D01*
Y62871D01*
X268874Y62566D01*
X268833Y62274D01*
X268777Y62011D01*
X268708Y61789D01*
X268639Y61595D01*
X268583Y61442D01*
X268556Y61387D01*
X268542Y61345D01*
X268528Y61331D01*
Y61318D01*
X268375Y61068D01*
X268195Y60846D01*
X268001Y60652D01*
X267820Y60499D01*
X267654Y60374D01*
X267515Y60277D01*
X267460Y60250D01*
X267418Y60222D01*
X267404Y60208D01*
X267391D01*
X267099Y60083D01*
X266794Y59986D01*
X266503Y59917D01*
X266226Y59875D01*
X265990Y59847D01*
X265893Y59834D01*
X265810Y59820D01*
X265643D01*
X265310Y59834D01*
X264991Y59875D01*
X264700Y59931D01*
X264423Y60014D01*
X264159Y60097D01*
X263923Y60208D01*
X263715Y60319D01*
X263507Y60430D01*
X263341Y60541D01*
X263188Y60652D01*
X263050Y60763D01*
X262939Y60846D01*
X262856Y60929D01*
X262800Y60985D01*
X262759Y61026D01*
X262745Y61040D01*
X262551Y61276D01*
X262384Y61526D01*
X262245Y61775D01*
X262121Y62025D01*
X262010Y62261D01*
X261926Y62510D01*
X261857Y62746D01*
X261802Y62968D01*
X261760Y63176D01*
X261718Y63370D01*
X261691Y63536D01*
X261677Y63689D01*
X261663Y63800D01*
Y63897D01*
Y63952D01*
Y63966D01*
X261677Y64230D01*
X261705Y64479D01*
X261746Y64715D01*
X261802Y64937D01*
X261871Y65131D01*
X261940Y65325D01*
X262024Y65492D01*
X262093Y65658D01*
X262176Y65797D01*
X262259Y65908D01*
X262329Y66019D01*
X262398Y66102D01*
X262453Y66171D01*
X262495Y66213D01*
X262523Y66241D01*
X262537Y66255D01*
X262703Y66407D01*
X262883Y66532D01*
X263078Y66657D01*
X263272Y66754D01*
X263480Y66837D01*
X263674Y66906D01*
X264062Y67003D01*
X264242Y67045D01*
X264409Y67073D01*
X264548Y67087D01*
X264686Y67101D01*
X264783Y67115D01*
X264936D01*
X265255Y67101D01*
D02*
G37*
G36*
X302500Y64052D02*
X298853D01*
X298492Y65869D01*
X302139D01*
X302500Y64052D01*
D02*
G37*
%LPC*%
G36*
X210348Y65769D02*
X210251D01*
X210043Y65755D01*
X209862Y65714D01*
X209696Y65644D01*
X209571Y65575D01*
X209460Y65506D01*
X209391Y65437D01*
X209335Y65395D01*
X209321Y65381D01*
X209210Y65215D01*
X209127Y65034D01*
X209058Y64840D01*
X209016Y64660D01*
X208989Y64480D01*
X208975Y64341D01*
Y64285D01*
Y64244D01*
Y64230D01*
Y64216D01*
Y64161D01*
Y64105D01*
Y64050D01*
Y64036D01*
X211929D01*
X211859Y64341D01*
X211762Y64591D01*
X211651Y64812D01*
X211554Y64993D01*
X211457Y65145D01*
X211374Y65242D01*
X211318Y65312D01*
X211305Y65325D01*
X211124Y65478D01*
X210944Y65589D01*
X210764Y65658D01*
X210597Y65714D01*
X210459Y65742D01*
X210348Y65769D01*
D02*
G37*
G36*
X232870Y68016D02*
X231123D01*
X230984Y68002D01*
X230859D01*
X230637Y67988D01*
X230485Y67961D01*
X230360Y67947D01*
X230277Y67919D01*
X230235Y67905D01*
X230221D01*
X230041Y67808D01*
X229902Y67711D01*
X229819Y67628D01*
X229791Y67600D01*
Y67586D01*
X229736Y67503D01*
X229694Y67406D01*
X229639Y67225D01*
Y67142D01*
X229625Y67073D01*
Y67031D01*
Y67017D01*
X229639Y66823D01*
X229666Y66657D01*
X229722Y66491D01*
X229777Y66352D01*
X229833Y66241D01*
X229888Y66144D01*
X229916Y66088D01*
X229930Y66074D01*
X230055Y65936D01*
X230193Y65811D01*
X230332Y65700D01*
X230457Y65617D01*
X230582Y65547D01*
X230679Y65506D01*
X230734Y65478D01*
X230762Y65464D01*
X230873Y65437D01*
X230998Y65395D01*
X231150Y65381D01*
X231303Y65353D01*
X231650Y65312D01*
X231996Y65298D01*
X232315Y65284D01*
X232468Y65270D01*
X233452D01*
X232870Y68016D01*
D02*
G37*
G36*
X320157Y68016D02*
X318701D01*
X318451Y68002D01*
X318243Y67974D01*
X318077Y67961D01*
X317952Y67933D01*
X317869Y67905D01*
X317813Y67891D01*
X317799D01*
X317619Y67808D01*
X317453Y67711D01*
X317314Y67600D01*
X317189Y67489D01*
X317092Y67378D01*
X317023Y67295D01*
X316981Y67239D01*
X316967Y67212D01*
X316856Y67003D01*
X316773Y66754D01*
X316718Y66504D01*
X316676Y66255D01*
X316648Y66019D01*
Y65922D01*
X316635Y65839D01*
Y65769D01*
Y65714D01*
Y65686D01*
Y65672D01*
X316648Y65242D01*
X316690Y64840D01*
X316759Y64479D01*
X316801Y64313D01*
X316829Y64174D01*
X316870Y64036D01*
X316912Y63925D01*
X316940Y63828D01*
X316967Y63731D01*
X316995Y63675D01*
X317023Y63620D01*
X317037Y63592D01*
Y63578D01*
X317189Y63273D01*
X317356Y62996D01*
X317522Y62746D01*
X317689Y62538D01*
X317827Y62385D01*
X317938Y62261D01*
X318008Y62191D01*
X318021Y62164D01*
X318035D01*
X318188Y62039D01*
X318340Y61928D01*
X318493Y61845D01*
X318632Y61775D01*
X318756Y61734D01*
X318853Y61692D01*
X318909Y61678D01*
X318937Y61664D01*
X319034Y61637D01*
X319145Y61623D01*
X319394Y61595D01*
X319644Y61567D01*
X319907Y61553D01*
X320143D01*
X320254Y61539D01*
X321516D01*
X320157Y68016D01*
D02*
G37*
G36*
X310463Y67988D02*
X307994D01*
X307759Y67961D01*
X307551Y67933D01*
X307398Y67905D01*
X307287Y67877D01*
X307218Y67849D01*
X307176Y67836D01*
X307162Y67822D01*
X307024Y67711D01*
X306913Y67586D01*
X306843Y67461D01*
X306788Y67336D01*
X306760Y67225D01*
X306733Y67128D01*
Y67073D01*
Y67045D01*
X306746Y66879D01*
X306774Y66712D01*
X306830Y66574D01*
X306885Y66449D01*
X306940Y66338D01*
X306996Y66255D01*
X307024Y66199D01*
X307038Y66185D01*
X307162Y66047D01*
X307287Y65922D01*
X307426Y65825D01*
X307551Y65742D01*
X307676Y65672D01*
X307773Y65631D01*
X307828Y65603D01*
X307856Y65589D01*
X307967Y65561D01*
X308092Y65533D01*
X308244Y65506D01*
X308397Y65492D01*
X308743Y65450D01*
X309090Y65436D01*
X309423Y65423D01*
X309562Y65409D01*
X311004D01*
X310463Y67988D01*
D02*
G37*
G36*
X317638Y77019D02*
X317541D01*
X317333Y77005D01*
X317153Y76964D01*
X316986Y76894D01*
X316861Y76825D01*
X316750Y76756D01*
X316681Y76686D01*
X316626Y76645D01*
X316612Y76631D01*
X316501Y76465D01*
X316418Y76284D01*
X316348Y76090D01*
X316307Y75910D01*
X316279Y75729D01*
X316265Y75591D01*
Y75535D01*
Y75494D01*
Y75480D01*
Y75466D01*
Y75410D01*
Y75355D01*
Y75300D01*
Y75286D01*
X319219D01*
X319150Y75591D01*
X319053Y75840D01*
X318942Y76062D01*
X318845Y76243D01*
X318748Y76395D01*
X318664Y76492D01*
X318609Y76562D01*
X318595Y76575D01*
X318415Y76728D01*
X318234Y76839D01*
X318054Y76908D01*
X317888Y76964D01*
X317749Y76992D01*
X317638Y77019D01*
D02*
G37*
G36*
X265033Y65700D02*
X264936D01*
X264714Y65686D01*
X264520Y65631D01*
X264353Y65575D01*
X264201Y65492D01*
X264090Y65423D01*
X264007Y65353D01*
X263951Y65298D01*
X263937Y65284D01*
X263799Y65117D01*
X263702Y64951D01*
X263632Y64771D01*
X263591Y64604D01*
X263549Y64452D01*
X263535Y64327D01*
Y64244D01*
Y64230D01*
Y64216D01*
X263549Y63966D01*
X263563Y63731D01*
X263646Y63287D01*
X263702Y63093D01*
X263771Y62899D01*
X263840Y62732D01*
X263910Y62566D01*
X263979Y62427D01*
X264048Y62302D01*
X264104Y62191D01*
X264173Y62094D01*
X264215Y62025D01*
X264256Y61969D01*
X264270Y61942D01*
X264284Y61928D01*
X264381Y61817D01*
X264492Y61720D01*
X264714Y61553D01*
X264922Y61442D01*
X265130Y61359D01*
X265310Y61318D01*
X265463Y61290D01*
X265518Y61276D01*
X265588D01*
X265810Y61290D01*
X266004Y61345D01*
X266170Y61415D01*
X266323Y61498D01*
X266434Y61567D01*
X266531Y61637D01*
X266586Y61692D01*
X266600Y61706D01*
X266739Y61886D01*
X266836Y62080D01*
X266905Y62274D01*
X266947Y62469D01*
X266975Y62635D01*
X267002Y62774D01*
Y62829D01*
Y62871D01*
Y62885D01*
Y62899D01*
X266988Y63120D01*
X266961Y63356D01*
X266919Y63578D01*
X266877Y63786D01*
X266836Y63952D01*
X266794Y64091D01*
X266780Y64147D01*
X266766Y64188D01*
X266753Y64202D01*
Y64216D01*
X266642Y64466D01*
X266531Y64688D01*
X266406Y64882D01*
X266281Y65034D01*
X266184Y65159D01*
X266101Y65242D01*
X266031Y65298D01*
X266018Y65312D01*
X265837Y65436D01*
X265643Y65533D01*
X265463Y65603D01*
X265296Y65658D01*
X265158Y65686D01*
X265033Y65700D01*
D02*
G37*
%LPD*%
D10*
X206500Y194500D02*
G03*
X206500Y194500I-6500J0D01*
G01*
X372250Y250000D02*
X396250D01*
X372250Y272000D02*
X396250D01*
X15500Y147500D02*
X19500D01*
X15500Y154000D02*
X19500D01*
X17500Y149250D02*
Y152250D01*
X40250Y195750D02*
X44250D01*
X40250Y189250D02*
X44250D01*
X42250Y191000D02*
Y194000D01*
X42250Y241750D02*
X46250D01*
X42250Y248250D02*
X46250D01*
X74000Y251250D02*
Y255250D01*
X67500Y251250D02*
Y255250D01*
X153250Y232250D02*
Y236250D01*
X159750Y232250D02*
Y236250D01*
X146250Y243500D02*
X150250D01*
X146250Y237000D02*
X150250D01*
X39750Y251250D02*
Y255250D01*
X33250Y251250D02*
Y255250D01*
X48250Y251250D02*
Y255250D01*
X41750Y251250D02*
Y255250D01*
X239250Y251000D02*
X243250D01*
X239250Y257500D02*
X243250D01*
X76500Y180750D02*
X79500D01*
X74750Y178750D02*
X74750Y182750D01*
X81250Y178750D02*
Y182750D01*
X32250Y165750D02*
Y169750D01*
X25750D02*
X25750Y165750D01*
X61750Y178750D02*
Y182750D01*
X68250Y178750D02*
Y182750D01*
X63500Y180750D02*
X66500D01*
X10300Y247550D02*
Y251550D01*
X16800Y247550D02*
Y251550D01*
X34500Y201000D02*
X38500D01*
X34500Y207500D02*
X38500D01*
X36500Y202750D02*
Y205750D01*
X6250Y258250D02*
Y262250D01*
X12750Y258250D02*
Y262250D01*
X8000Y260250D02*
X11000D01*
X36750Y195000D02*
X40750D01*
X36750Y201500D02*
X40750D01*
X38750Y196750D02*
Y199750D01*
X84250Y184000D02*
X88250D01*
X84250Y177500D02*
X88250D01*
X86250Y179250D02*
Y182250D01*
X54750Y251250D02*
Y255250D01*
X48250Y251250D02*
Y255250D01*
X50000Y253250D02*
X53000D01*
X61250Y251250D02*
Y255250D01*
X67750Y251250D02*
Y255250D01*
X63000Y253250D02*
X66000D01*
X68250Y182750D02*
X68250Y178750D01*
X74750Y178750D02*
X74750Y182750D01*
X57250Y137500D02*
Y140500D01*
X55250Y142250D02*
X59250D01*
X55250Y135750D02*
X59250D01*
X46050Y185375D02*
Y188375D01*
X44050Y190125D02*
X48050D01*
X44050Y183625D02*
X48050D01*
X183500Y237750D02*
X187500D01*
X183500Y244250D02*
X187500D01*
X181038Y212616D02*
X183866Y209788D01*
X185634Y217212D02*
X188462Y214384D01*
X-2500Y66200D02*
Y70200D01*
X4000Y66200D02*
Y70200D01*
X225500Y135250D02*
Y139250D01*
X219000Y135250D02*
Y139250D01*
X182750Y288000D02*
Y292000D01*
X176250Y288000D02*
Y292000D01*
X79500Y147500D02*
Y151500D01*
X86000Y147500D02*
Y151500D01*
X73000Y147500D02*
Y151500D01*
X79500Y147500D02*
Y151500D01*
X17250Y231250D02*
Y235250D01*
X23750Y231250D02*
Y235250D01*
X21250Y227500D02*
X25250D01*
X21250Y221000D02*
X25250D01*
X23000Y214500D02*
X27000D01*
X23000Y221000D02*
X27000D01*
X176750Y253250D02*
X180750D01*
X176750Y259750D02*
X180750D01*
X206250Y262250D02*
Y266250D01*
X212750Y262250D02*
Y266250D01*
X150750Y92000D02*
X153250D01*
X150750Y87500D02*
X153250D01*
X159250Y92000D02*
X161750D01*
X159250Y87500D02*
X161750D01*
X142500Y87000D02*
X145000D01*
X142500Y91500D02*
X145000D01*
X135000Y87000D02*
X137500D01*
X135000Y91500D02*
X137500D01*
X87300Y113750D02*
X89800D01*
X87300Y118250D02*
X89800D01*
X316500Y230250D02*
X320500D01*
X316500Y223750D02*
X320500D01*
X316500Y231250D02*
X320500D01*
X316500Y237750D02*
X320500D01*
X304000Y233750D02*
X308000D01*
X304000Y227250D02*
X308000D01*
X292250D02*
X296250D01*
X292250Y233750D02*
X296250D01*
X314250Y244000D02*
X317250D01*
X312500Y242000D02*
Y246000D01*
X319000Y242000D02*
Y246000D01*
X355750Y255500D02*
Y258500D01*
X353750Y253750D02*
X357750D01*
X353750Y260250D02*
X357750D01*
X192125Y93450D02*
Y95950D01*
X187625Y93450D02*
Y95950D01*
X100250Y95500D02*
Y98000D01*
X104750Y95500D02*
Y98000D01*
X98500Y89000D02*
Y91500D01*
X103000Y89000D02*
Y91500D01*
X154750Y66850D02*
Y69350D01*
X150250Y66850D02*
Y69350D01*
X155000Y73450D02*
Y75950D01*
X150500Y73450D02*
Y75950D01*
X181500Y78900D02*
Y81400D01*
X186000Y78900D02*
Y81400D01*
X181500Y72300D02*
Y74800D01*
X186000Y72300D02*
Y74800D01*
X187000Y91500D02*
Y94000D01*
X182500Y91500D02*
Y94000D01*
X187000Y100500D02*
Y103000D01*
X182500Y100500D02*
Y103000D01*
X44050Y177125D02*
X48050D01*
X44050Y183625D02*
X48050D01*
X46050Y178875D02*
Y181875D01*
X429500Y151250D02*
Y155250D01*
X423000Y151250D02*
Y155250D01*
X139000Y258500D02*
X143000D01*
X139000Y252000D02*
X143000D01*
X2475Y118583D02*
X6475D01*
X2475Y112083D02*
X6475D01*
X54750Y251250D02*
X54750Y255250D01*
X61250Y251250D02*
X61250Y255250D01*
X56500Y253250D02*
X59500D01*
X106500Y205750D02*
Y209750D01*
X113000Y205750D02*
Y209750D01*
X108250Y207750D02*
X111250Y207750D01*
X192788Y249384D02*
X195616Y252212D01*
X197384Y244788D02*
X200212Y247616D01*
X195439Y249561D02*
X197561Y247439D01*
X96250Y97750D02*
X98750D01*
X96250Y102250D02*
X98750D01*
X99000Y107100D02*
X99000Y104600D01*
X103500Y104600D02*
Y107100D01*
X98000Y104600D02*
Y107100D01*
X93500Y104600D02*
Y107100D01*
X111150Y98750D02*
X113650D01*
X111150Y94250D02*
X113650D01*
X111150Y88750D02*
X113650D01*
X111150Y93250D02*
X113650D01*
X94200Y91800D02*
X96700D01*
X94200Y96300D02*
X96700D01*
X104750Y95500D02*
Y98000D01*
X109250Y95500D02*
Y98000D01*
X126650Y92500D02*
Y95000D01*
X122150Y92500D02*
Y95000D01*
X117650Y93250D02*
X120150D01*
X117650Y88750D02*
X120150D01*
X117650Y94250D02*
X120150D01*
X117650Y98750D02*
X120150D01*
X157250Y76400D02*
X159750D01*
X157250Y71900D02*
X159750D01*
X143750Y70150D02*
Y72650D01*
X139250Y70150D02*
Y72650D01*
X135000Y66400D02*
X137500D01*
X135000Y70900D02*
X137500D01*
X135000Y71900D02*
X137500D01*
X135000Y76400D02*
X137500D01*
X149500Y73450D02*
Y75950D01*
X145000Y73450D02*
Y75950D01*
Y66850D02*
Y69350D01*
X149500Y66850D02*
Y69350D01*
X172500Y70150D02*
Y72650D01*
X168000Y70150D02*
Y72650D01*
X163750Y70900D02*
X166250D01*
X163750Y66400D02*
X166250D01*
X157250D02*
X159750D01*
X157250Y70900D02*
X159750D01*
X163750Y76400D02*
X166250D01*
X163750Y71900D02*
X166250D01*
X16500Y210250D02*
Y213250D01*
X14500Y208500D02*
X18500D01*
X14500Y215000D02*
X18500D01*
X212250Y78850D02*
Y81350D01*
X207750Y78850D02*
Y81350D01*
X177000Y80500D02*
X177000Y78000D01*
X181500Y78000D02*
Y80500D01*
X172500Y88600D02*
X175000D01*
X172500Y84100D02*
X175000Y84100D01*
X172500Y83100D02*
X175000Y83100D01*
X172500Y78600D02*
X175000D01*
X195500Y80100D02*
X198000D01*
X195500Y75600D02*
X198000D01*
X195500Y70100D02*
X198000D01*
X195500Y74600D02*
X198000Y74600D01*
X187250Y79650D02*
X187250Y77150D01*
X191750D02*
Y79650D01*
X187250Y70550D02*
Y73050D01*
X191750Y70550D02*
Y73050D01*
X202000Y77350D02*
X204500D01*
X202000Y81850D02*
X204500Y81850D01*
X202000Y71850D02*
X204500Y71850D01*
X202000Y76350D02*
X204500Y76350D01*
X195750Y93000D02*
X198250D01*
X195750Y97500D02*
X198250D01*
X195750Y98500D02*
X198250D01*
X195750Y103000D02*
X198250D01*
X192125Y100050D02*
Y102550D01*
X187625Y100050D02*
Y102550D01*
X174500Y102250D02*
X177000D01*
X174500Y97750D02*
X177000D01*
X174500Y96750D02*
X177000D01*
X174500Y92250D02*
X177000D01*
X183250Y96000D02*
Y98500D01*
X178750Y96000D02*
Y98500D01*
X211250Y96750D02*
Y99250D01*
X206750Y96750D02*
Y99250D01*
X202250Y98500D02*
X204750D01*
X202250Y103000D02*
X204750D01*
X202250Y97500D02*
X204750D01*
X202250Y93000D02*
X204750D01*
X138750Y83250D02*
X141250D01*
X138750Y87750D02*
X141250D01*
X155000Y83250D02*
X157500D01*
X155000Y87750D02*
X157500D01*
X95939Y129050D02*
X98439D01*
X95939Y133550D02*
X98439D01*
X95989Y128000D02*
X98489D01*
X95989Y123500D02*
X98489D01*
X94900Y109750D02*
X97400D01*
X94900Y114250D02*
X97400D01*
X94900Y120000D02*
X97400D01*
X94900Y115500D02*
X97400D01*
X197500Y114750D02*
X200000D01*
X197500Y110250D02*
X200000D01*
X197500Y115250D02*
X200000D01*
X197500Y119750D02*
X200000D01*
X198350Y132750D02*
X200850D01*
X198350Y128250D02*
X200850D01*
X198350Y122750D02*
X200850D01*
X198350Y127250D02*
X200850D01*
X135250Y101250D02*
X137750D01*
X135250Y96750D02*
X137750D01*
X142250Y101250D02*
X144750D01*
X142250Y96750D02*
X144750D01*
X137750Y93000D02*
Y95500D01*
X142250Y93000D02*
Y95500D01*
X136850Y82350D02*
Y84850D01*
X132350Y82350D02*
Y84850D01*
X143150Y82350D02*
Y84850D01*
X147650Y82350D02*
Y84850D01*
X158750Y102000D02*
X161250D01*
X158750Y97500D02*
X161250D01*
X151250Y102000D02*
X153750D01*
X151250Y97500D02*
X153750D01*
X158500Y93500D02*
Y96000D01*
X154000Y93500D02*
Y96000D01*
X159400Y82350D02*
Y84850D01*
X163900Y82350D02*
Y84850D01*
X153100Y82350D02*
Y84850D01*
X148600Y82350D02*
Y84850D01*
X87800Y131700D02*
Y134200D01*
X92300Y131700D02*
Y134200D01*
X87850Y122850D02*
Y125350D01*
X92350Y122850D02*
Y125350D01*
X87300Y108250D02*
X89800D01*
X87300Y112750D02*
X89800D01*
X210900Y106600D02*
Y109100D01*
X206400Y106600D02*
Y109100D01*
X210900Y115400D02*
Y117900D01*
X206400Y115400D02*
Y117900D01*
X204000Y130900D02*
Y133400D01*
X208500Y130900D02*
Y133400D01*
X204000Y122100D02*
Y124600D01*
X208500Y122100D02*
Y124600D01*
X146250Y224250D02*
X150250Y224250D01*
X146250Y230750D02*
X150250D01*
X146250Y237000D02*
X150250Y237000D01*
X146250Y230500D02*
X150250Y230500D01*
X143250Y217500D02*
Y221500D01*
X149750Y217500D02*
X149750Y221500D01*
X356300Y271200D02*
Y275200D01*
X349800Y271200D02*
Y275200D01*
X5080Y263297D02*
Y267297D01*
X-1420Y263297D02*
Y267297D01*
X372750Y29250D02*
X376750D01*
X372750Y35750D02*
X376750D01*
X-1000Y234250D02*
Y238250D01*
X5500Y234250D02*
Y238250D01*
X26000Y256500D02*
X30000D01*
X26000Y250000D02*
X30000Y250000D01*
X28000Y251750D02*
X28000Y254750D01*
X25950Y243500D02*
X29950D01*
X25950Y250000D02*
X29950Y250000D01*
X27950Y245250D02*
Y248250D01*
X152500Y248500D02*
Y252500D01*
X146000Y248500D02*
Y252500D01*
X2500Y140750D02*
X6500D01*
X2500Y134250D02*
X6500D01*
X224000Y161500D02*
Y165500D01*
X217500Y161500D02*
Y165500D01*
X284250Y264500D02*
Y268500D01*
X290750Y264500D02*
Y268500D01*
X300750Y273500D02*
X300750Y277500D01*
X307250Y273500D02*
Y277500D01*
X299000Y277500D02*
X299000Y273500D01*
X292500D02*
Y277500D01*
X315500Y277500D02*
X315500Y273500D01*
X309000D02*
Y277500D01*
X323750Y277500D02*
X323750Y273500D01*
X317250D02*
Y277500D01*
X165000Y247000D02*
X169000Y247000D01*
X165000Y253500D02*
X169000D01*
X347250Y277500D02*
X347250Y273500D01*
X340750D02*
Y277500D01*
X266250Y252500D02*
X270250D01*
X266250Y259000D02*
X270250Y259000D01*
X332000Y277500D02*
X332000Y273500D01*
X325500D02*
Y277500D01*
X300000Y260750D02*
X300000Y264750D01*
X306500Y264750D02*
X306500Y260750D01*
X298250Y260750D02*
Y264750D01*
X291750Y260750D02*
X291750Y264750D01*
X314750Y260750D02*
Y264750D01*
X308250Y260750D02*
X308250Y264750D01*
X323000Y260750D02*
Y264750D01*
X316500Y260750D02*
X316500Y264750D01*
X159750Y199750D02*
Y203750D01*
X153250Y199750D02*
X153250Y203750D01*
X339500Y260750D02*
Y264750D01*
X333000Y260750D02*
X333000Y264750D01*
X331250Y260750D02*
Y264750D01*
X324750Y260750D02*
X324750Y264750D01*
X270000Y252500D02*
X274000D01*
X270000Y246000D02*
X274000Y246000D01*
X199450Y180300D02*
Y184300D01*
X192950Y180300D02*
Y184300D01*
X142985Y198926D02*
Y202926D01*
X136485D02*
X136485Y198926D01*
X121050Y219750D02*
X125050D01*
X121050Y213250D02*
X125050Y213250D01*
X142985Y228676D02*
Y232676D01*
X136485Y228676D02*
Y232676D01*
X110200Y213250D02*
X114200D01*
X110200Y219750D02*
X114200Y219750D01*
X294500Y286000D02*
Y289000D01*
X292500Y290750D02*
X296500D01*
X292500Y284250D02*
X296500D01*
X141050Y245875D02*
X141050Y248875D01*
X139050Y250625D02*
X143050D01*
X139050Y244125D02*
X143050D01*
X309400Y286000D02*
X309400Y283000D01*
X307400Y287750D02*
X311400Y287750D01*
X307400Y281250D02*
X311400D01*
X215250Y290250D02*
Y293250D01*
X213250Y295000D02*
X217250D01*
X213250Y288500D02*
X217250D01*
X164000Y290250D02*
Y293250D01*
X162000Y295000D02*
X166000D01*
X162000Y288500D02*
X166000D01*
X287750Y277500D02*
X290750D01*
X286000Y275500D02*
Y279500D01*
X292500Y275500D02*
Y279500D01*
X249250Y290250D02*
Y293250D01*
X247250Y295000D02*
X251250D01*
X247250Y288500D02*
X251250D01*
X167250Y255000D02*
Y258000D01*
X165250Y259750D02*
X169250D01*
X165250Y253250D02*
X169250D01*
X65000Y49550D02*
Y53550D01*
X58500Y49550D02*
Y53550D01*
X44250Y51000D02*
X48250D01*
X44250Y57500D02*
X48250D01*
X51750Y53550D02*
X51750Y49550D01*
X58250D02*
X58250Y53550D01*
X53500Y51550D02*
X56500D01*
X10750Y13250D02*
Y17250D01*
X17250Y13250D02*
Y17250D01*
X371250Y294500D02*
X389250D01*
X371250Y272500D02*
X389250D01*
X416845Y91045D02*
X418345Y92545D01*
X415845Y91045D02*
X418345D01*
X418345Y103045D01*
X396345Y95045D02*
Y103045D01*
X29750Y47500D02*
X33750D01*
X29750Y54000D02*
X33750D01*
X105500Y237250D02*
X105500Y233250D01*
X112000D02*
X112000Y237250D01*
X426250Y64050D02*
X426250Y68050D01*
X432750D02*
X432750Y64050D01*
X433750Y64000D02*
Y68000D01*
X440250Y64000D02*
Y68000D01*
X317500Y5500D02*
Y8500D01*
X315500Y10250D02*
X319500D01*
X315500Y3750D02*
X319500D01*
X377750Y53500D02*
Y61500D01*
X399750Y49500D02*
Y61500D01*
X397250Y49500D02*
X399750D01*
X398250Y49500D02*
X399750Y51000D01*
X351500Y27750D02*
X369500D01*
X351500Y5750D02*
X369500D01*
X354050Y286200D02*
Y290200D01*
X360550Y286200D02*
Y290200D01*
X355800Y288200D02*
X358800D01*
X399050Y750D02*
X403050D01*
X399050Y7250D02*
X403050D01*
X401050Y5500D02*
X401050Y2500D01*
X70000Y6300D02*
Y10300D01*
X63500Y6300D02*
Y10300D01*
X65250Y8300D02*
X68250D01*
X139300Y288200D02*
Y292200D01*
X145800Y288200D02*
Y292200D01*
X141050Y290200D02*
X144050Y290200D01*
X36566Y40416D02*
X40566D01*
X36566Y46916D02*
X40566D01*
X24238Y40416D02*
X28238Y40416D01*
X24238Y46916D02*
X28238Y46916D01*
X341750Y19500D02*
Y23500D01*
X335250Y19500D02*
Y23500D01*
X328250Y34000D02*
X332250D01*
X328250Y27500D02*
X332250D01*
X222750Y218500D02*
Y222500D01*
X216250Y218500D02*
Y222500D01*
X229250Y218500D02*
Y222500D01*
X222750Y218500D02*
Y222500D01*
X30250Y208500D02*
X34250D01*
X30250Y215000D02*
X34250Y215000D01*
X32250Y210250D02*
X32250Y213250D01*
X197000Y176250D02*
X201000D01*
X197000Y169750D02*
X201000D01*
X407000Y176500D02*
X411000D01*
X407000Y183000D02*
X411000Y183000D01*
X418950Y183750D02*
X422950D01*
X418950Y190250D02*
X422950D01*
X406950Y183750D02*
X410950Y183750D01*
X406950Y190250D02*
X410950Y190250D01*
X388750Y182000D02*
X391750D01*
X393500Y180000D02*
Y184000D01*
X387000Y180000D02*
Y184000D01*
X397500Y182000D02*
X400500D01*
X395750Y180000D02*
Y184000D01*
X402250Y180000D02*
Y184000D01*
X385750Y225500D02*
X388750D01*
X390500Y223500D02*
Y227500D01*
X384000Y223500D02*
Y227500D01*
X392250Y225500D02*
X395250D01*
X390500Y223500D02*
Y227500D01*
X397000Y223500D02*
Y227500D01*
X372750Y181750D02*
X375750D01*
X377500Y179750D02*
Y183750D01*
X371000Y179750D02*
Y183750D01*
X366250Y181750D02*
X369250D01*
X364500Y179750D02*
Y183750D01*
X371000Y179750D02*
Y183750D01*
X373000Y219500D02*
X376000D01*
X371250Y217500D02*
Y221500D01*
X377750Y217500D02*
Y221500D01*
X366500Y219500D02*
X369500D01*
X371250Y217500D02*
Y221500D01*
X364750Y217500D02*
Y221500D01*
X221250Y210250D02*
Y213250D01*
X219250Y215000D02*
X223250D01*
X219250Y208500D02*
X223250D01*
X169750Y288000D02*
Y292000D01*
X176250Y288000D02*
Y292000D01*
X171500Y290000D02*
X174500Y290000D01*
X217250Y142750D02*
X221250D01*
X217250Y149250D02*
X221250D01*
X212750Y146400D02*
Y150400D01*
X206250Y146400D02*
Y150400D01*
X401250Y286000D02*
Y290000D01*
X407750Y286000D02*
Y290000D01*
X238500Y72500D02*
Y76500D01*
X245000Y72500D02*
Y76500D01*
X240250Y74500D02*
X243250D01*
X252250Y69000D02*
X256250D01*
X252250Y62500D02*
X256250D01*
X237250Y72507D02*
Y76507D01*
X230750Y72507D02*
Y76507D01*
X55750Y6750D02*
X57750D01*
X55750Y4750D02*
Y6750D01*
Y4750D02*
X57750D01*
X25750D02*
Y36750D01*
X57750Y4750D02*
Y36750D01*
X225250Y135250D02*
Y139250D01*
X231750Y135250D02*
Y139250D01*
X361250Y118650D02*
Y121650D01*
X359250Y123400D02*
X363250D01*
X359250Y116900D02*
X363250D01*
X420000Y121250D02*
X420000Y125250D01*
X413500D02*
X413500Y121250D01*
X415250Y123250D02*
X418250D01*
X361750Y136750D02*
Y140750D01*
X355250Y136750D02*
Y140750D01*
X2500Y134250D02*
X6500D01*
X2500Y127750D02*
X6500D01*
X2500Y125058D02*
X6500Y125058D01*
X2500Y118558D02*
X6500Y118558D01*
X17995Y3500D02*
X21995D01*
X17995Y10000D02*
X21995D01*
X19995Y5250D02*
Y8250D01*
X2493Y147917D02*
X6493D01*
X2493Y141417D02*
X6493D01*
X358500Y155050D02*
X361500Y155050D01*
X356750Y153050D02*
Y157050D01*
X363250Y153050D02*
Y157050D01*
X454000Y229000D02*
Y233000D01*
X447500Y229000D02*
Y233000D01*
X442750Y231000D02*
X445750Y231000D01*
X447500Y229000D02*
Y233000D01*
X441000Y229000D02*
Y233000D01*
X428700Y232550D02*
X431700D01*
X426950Y230550D02*
Y234550D01*
X433450Y230550D02*
Y234550D01*
X395985Y117600D02*
X395985Y120600D01*
X393985Y115850D02*
X397985Y115850D01*
X393985Y122350D02*
X397985Y122350D01*
X407250Y117000D02*
Y120000D01*
X405250Y121750D02*
X409250D01*
X405250Y115250D02*
X409250D01*
X407750Y275250D02*
Y279250D01*
X401250Y275250D02*
Y279250D01*
X359250Y130750D02*
X363250D01*
X359250Y124250D02*
X363250D01*
X252500Y222500D02*
Y226500D01*
X259000Y222500D02*
Y226500D01*
X252750Y217750D02*
X256750D01*
X252750Y211250D02*
X256750D01*
X254750Y213000D02*
Y216000D01*
X219700Y195750D02*
X223700D01*
X219700Y189250D02*
X223700D01*
X221700Y194000D02*
X221700Y191000D01*
X219700Y203250D02*
X223700D01*
X219700Y196750D02*
X223700D01*
X221700Y201500D02*
X221700Y198500D01*
X287865Y87250D02*
X291865D01*
X287865Y80750D02*
X291865D01*
X289865Y82500D02*
Y85500D01*
X293250Y72500D02*
Y76500D01*
X286750Y72500D02*
Y76500D01*
X284750Y72500D02*
Y76500D01*
X278250Y72500D02*
Y76500D01*
X276750Y87250D02*
X280750D01*
X276750Y80750D02*
X280750D01*
X278750Y82500D02*
Y85500D01*
X265950Y87250D02*
X269950D01*
X265950Y80750D02*
X269950D01*
X267950Y82500D02*
Y85500D01*
X274000Y72500D02*
Y76500D01*
X267500Y72500D02*
Y76500D01*
X298750Y80750D02*
X302750D01*
X298750Y87250D02*
X302750D01*
X300750Y82500D02*
Y85500D01*
X301250Y72500D02*
Y76500D01*
X294750Y72500D02*
Y76500D01*
X254950Y87250D02*
X258950D01*
X254950Y80750D02*
X258950D01*
X256950Y82500D02*
Y85500D01*
X262950Y72500D02*
Y76500D01*
X256450Y72500D02*
Y76500D01*
X243950Y87250D02*
X247950D01*
X243950Y80750D02*
X247950Y80750D01*
X245950Y85500D02*
X245950Y82500D01*
X252000Y72500D02*
Y76500D01*
X245500Y72500D02*
Y76500D01*
X356750Y163650D02*
Y167650D01*
X363250D02*
X363250Y163650D01*
X358500Y165650D02*
X361500Y165650D01*
X367050Y169200D02*
X371050D01*
X367050Y162700D02*
X371050D01*
X368250Y148800D02*
X372250D01*
X368250Y155300D02*
X372250D01*
D11*
X9250Y181750D02*
G03*
X9250Y181750I-500J0D01*
G01*
X178250Y221750D02*
G03*
X178250Y221750I-500J0D01*
G01*
X73250Y258750D02*
Y294750D01*
X64500Y258750D02*
X73250D01*
X13250D02*
X22000D01*
X13250D02*
Y294750D01*
X9250Y169000D02*
Y179000D01*
X25250Y169000D02*
Y179000D01*
X245000Y261000D02*
Y264250D01*
X238500Y261000D02*
X245000D01*
X241750D02*
X245000Y264250D01*
X214500Y261000D02*
X221000D01*
X214500D02*
Y264250D01*
Y285000D02*
X221000D01*
X214500Y281750D02*
Y285000D01*
X238500D02*
X245000D01*
Y281750D02*
Y285000D01*
X204500Y261000D02*
Y264250D01*
X198000Y261000D02*
X204500D01*
X201250D02*
X204500Y264250D01*
X174000Y261000D02*
X180500D01*
X174000D02*
Y264250D01*
Y285000D02*
X180500D01*
X174000Y281750D02*
Y285000D01*
X198000D02*
X204500D01*
Y281750D02*
Y285000D01*
X281000Y261000D02*
Y264250D01*
X274500Y261000D02*
X281000D01*
X277750D02*
X281000Y264250D01*
X250500Y261000D02*
X257000D01*
X250500D02*
Y264250D01*
Y285000D02*
X257000D01*
X250500Y281750D02*
Y285000D01*
X274500D02*
X281000D01*
Y281750D02*
Y285000D01*
X168750Y261000D02*
Y264250D01*
X162250Y261000D02*
X168750D01*
X165500D02*
X168750Y264250D01*
X138250Y261000D02*
X144750D01*
X138250D02*
Y264250D01*
Y285000D02*
X144750D01*
X138250Y281750D02*
Y285000D01*
X162250D02*
X168750D01*
Y281750D02*
Y285000D01*
X145750Y244250D02*
X157750D01*
X180500Y238250D02*
X190500D01*
X180500Y222250D02*
X190500D01*
X109250Y4500D02*
X129250D01*
X109250D02*
Y28500D01*
X129250D01*
Y4500D02*
Y28500D01*
X408000Y149000D02*
X413375Y146250D01*
Y149000D01*
X408000D02*
X413375D01*
X388625D02*
X394000Y149000D01*
X388625Y146250D02*
X388625Y149000D01*
X388625Y124000D02*
Y126750D01*
Y124000D02*
X394000D01*
X408000Y124000D02*
X413375Y124000D01*
Y126750D01*
X395577Y83295D02*
X396827D01*
X395577Y72795D02*
Y83295D01*
Y72795D02*
X396827D01*
X412827Y83295D02*
X414077D01*
X412827Y72795D02*
X414077D01*
Y80545D02*
Y83295D01*
Y72795D02*
Y75545D01*
X383500Y7500D02*
Y33500D01*
X403500D01*
Y7500D02*
Y33500D01*
X383500Y7500D02*
X403500D01*
X423760Y195250D02*
Y198000D01*
Y203000D02*
Y205750D01*
X422510Y195250D02*
X423760D01*
X422510Y205750D02*
X423760D01*
X405260Y195250D02*
X406510D01*
X405260D02*
Y205750D01*
X406510D01*
X401750Y232750D02*
Y236750D01*
X405750D01*
X421750D02*
X425750D01*
Y232750D02*
Y236750D01*
Y212750D02*
Y216750D01*
X421750Y212750D02*
X425750D01*
X401750D02*
X405750D01*
X401750D02*
Y216750D01*
X405750Y212750D01*
X142250Y57500D02*
X162250Y57500D01*
Y33500D02*
Y57500D01*
X142250Y33500D02*
X162250D01*
X142250D02*
Y57500D01*
X109250D02*
X129250Y57500D01*
Y33500D02*
Y57500D01*
X109250Y33500D02*
X129250D01*
X109250D02*
Y57500D01*
X142250Y4500D02*
X162250Y4500D01*
X142250Y4500D02*
Y28500D01*
X162250D01*
Y4500D02*
Y28500D01*
X266250Y33500D02*
Y57500D01*
Y33500D02*
X286250D01*
Y57500D01*
X266250D02*
X286250D01*
X232750Y4500D02*
X252750D01*
X232750D02*
Y28500D01*
X252750D01*
Y4500D02*
Y28500D01*
X266250Y4500D02*
X286250D01*
X266250D02*
Y28500D01*
X286250D01*
Y4500D02*
Y28500D01*
X232750Y57500D02*
X252750D01*
Y33500D02*
Y57500D01*
X232750Y33500D02*
X252750D01*
X232750D02*
Y57500D01*
X0Y203500D02*
X-1833D01*
X-916D01*
Y208998D01*
X0Y208082D01*
X-8247Y208998D02*
X-6414Y208082D01*
X-4582Y206249D01*
Y204416D01*
X-5498Y203500D01*
X-7331D01*
X-8247Y204416D01*
Y205333D01*
X-7331Y206249D01*
X-4582D01*
X-3415Y33498D02*
X250D01*
Y30749D01*
X-1583Y31665D01*
X-2499D01*
X-3415Y30749D01*
Y28916D01*
X-2499Y28000D01*
X-666D01*
X250Y28916D01*
X-8913Y28000D02*
X-5248D01*
X-8913Y31665D01*
Y32582D01*
X-7997Y33498D01*
X-6164D01*
X-5248Y32582D01*
X111998Y262417D02*
Y265749D01*
Y264083D01*
X107000D01*
X111165Y270747D02*
X111998Y269914D01*
Y268248D01*
X111165Y267415D01*
X107833D01*
X107000Y268248D01*
Y269914D01*
X107833Y270747D01*
X111998Y272413D02*
X107000D01*
X108666D01*
X111998Y275746D01*
X109499Y273246D01*
X107000Y275746D01*
X205001Y209248D02*
X206834D01*
X207750Y208332D01*
Y204666D01*
X206834Y203750D01*
X205001D01*
X204085Y204666D01*
Y208332D01*
X205001Y209248D01*
X202252D02*
Y204666D01*
X201335Y203750D01*
X199503D01*
X198586Y204666D01*
Y209248D01*
X196754D02*
X193088D01*
X194921D01*
Y203750D01*
X107250Y279667D02*
X112248D01*
Y282166D01*
X111415Y282999D01*
X109749D01*
X108916Y282166D01*
Y279667D01*
Y281333D02*
X107250Y282999D01*
X111415Y287997D02*
X112248Y287164D01*
Y285498D01*
X111415Y284665D01*
X110582D01*
X109749Y285498D01*
Y287164D01*
X108916Y287997D01*
X108083D01*
X107250Y287164D01*
Y285498D01*
X108083Y284665D01*
X112248Y289663D02*
Y292995D01*
Y291329D01*
X107250D01*
X463500Y156498D02*
Y149500D01*
X458835D01*
X456502D02*
Y154165D01*
X454170Y156498D01*
X451837Y154165D01*
Y149500D01*
Y152999D01*
X456502D01*
X102498Y279667D02*
Y282999D01*
Y281333D01*
X97500D01*
X102498Y284665D02*
X97500D01*
Y287164D01*
X98333Y287997D01*
X101665D01*
X102498Y287164D01*
Y284665D01*
Y292162D02*
Y290496D01*
X101665Y289663D01*
X98333D01*
X97500Y290496D01*
Y292162D01*
X98333Y292996D01*
X101665D01*
X102498Y292162D01*
X443835Y156498D02*
X448500D01*
Y149500D01*
X443835D01*
X448500Y152999D02*
X446167D01*
X441502Y156498D02*
X436837Y149500D01*
Y156498D02*
X441502Y149500D01*
X434505Y156498D02*
X429840D01*
X432172D01*
Y149500D01*
X0Y167750D02*
X-1833D01*
X-916D01*
Y173248D01*
X0Y172332D01*
X-4582D02*
X-5498Y173248D01*
X-7331D01*
X-8247Y172332D01*
Y171416D01*
X-7331Y170499D01*
X-8247Y169583D01*
Y168666D01*
X-7331Y167750D01*
X-5498D01*
X-4582Y168666D01*
Y169583D01*
X-5498Y170499D01*
X-4582Y171416D01*
Y172332D01*
X-5498Y170499D02*
X-7331D01*
X463417Y147248D02*
X458752D01*
X461085D01*
Y140250D01*
X456419Y147248D02*
X451754Y140250D01*
Y147248D02*
X456419Y140250D01*
X444757D02*
X449422D01*
X444757Y144915D01*
Y146081D01*
X445923Y147248D01*
X448255D01*
X449422Y146081D01*
X106750Y246833D02*
Y248499D01*
Y247666D01*
X111748D01*
X110915Y246833D01*
X106750Y250998D02*
X111748D01*
Y253498D01*
X110915Y254331D01*
X109249D01*
X108416Y253498D01*
Y250998D01*
X110915Y255997D02*
X111748Y256830D01*
Y258496D01*
X110915Y259329D01*
X110082D01*
X109249Y258496D01*
X108416Y259329D01*
X107583D01*
X106750Y258496D01*
Y256830D01*
X107583Y255997D01*
X108416D01*
X109249Y256830D01*
X110082Y255997D01*
X110915D01*
X109249Y256830D02*
Y258496D01*
X440000Y147248D02*
Y140250D01*
X436501D01*
X435335Y141416D01*
Y142582D01*
X436501Y143749D01*
X440000D01*
X436501D01*
X435335Y144915D01*
Y146081D01*
X436501Y147248D01*
X440000D01*
X433002D02*
Y140250D01*
X429504D01*
X428337Y141416D01*
Y142582D01*
X429504Y143749D01*
X433002D01*
X429504D01*
X428337Y144915D01*
Y146081D01*
X429504Y147248D01*
X433002D01*
X204085Y216832D02*
X205001Y217748D01*
X206834D01*
X207750Y216832D01*
Y213166D01*
X206834Y212250D01*
X205001D01*
X204085Y213166D01*
X202252Y217748D02*
Y212250D01*
X198586D01*
X196754Y217748D02*
Y212250D01*
Y214083D01*
X193088Y217748D01*
X195837Y214999D01*
X193088Y212250D01*
X102498Y263750D02*
Y267082D01*
Y265416D01*
X97500D01*
X102498Y268748D02*
X97500D01*
Y271247D01*
X98333Y272080D01*
X101665D01*
X102498Y271247D01*
Y268748D01*
Y273746D02*
Y275413D01*
Y274580D01*
X97500D01*
Y273746D01*
Y275413D01*
X102498Y245917D02*
Y249249D01*
Y247583D01*
X97500D01*
Y250915D02*
X102498D01*
X100832Y252581D01*
X102498Y254247D01*
X97500D01*
X101665Y259245D02*
X102498Y258412D01*
Y256746D01*
X101665Y255913D01*
X100832D01*
X99999Y256746D01*
Y258412D01*
X99166Y259245D01*
X98333D01*
X97500Y258412D01*
Y256746D01*
X98333Y255913D01*
X100500Y172000D02*
Y176998D01*
X98001D01*
X97168Y176165D01*
Y174499D01*
X98001Y173666D01*
X100500D01*
X98834D02*
X97168Y172000D01*
X103000Y113250D02*
Y116582D01*
X101334Y118248D01*
X99668Y116582D01*
Y113250D01*
Y115749D01*
X103000D01*
X109750Y101250D02*
Y102916D01*
Y102083D01*
X114748D01*
X113915Y101250D01*
X188990Y194750D02*
X187324D01*
X188158D01*
Y199748D01*
X188990Y198915D01*
X181493Y199748D02*
X184825D01*
Y197249D01*
X183159Y198082D01*
X182326D01*
X181493Y197249D01*
Y195583D01*
X182326Y194750D01*
X183992D01*
X184825Y195583D01*
X393250Y247998D02*
X391417D01*
X392334D01*
Y242500D01*
X393250D01*
X391417D01*
X385003Y247082D02*
X385919Y247998D01*
X387752D01*
X388668Y247082D01*
Y243416D01*
X387752Y242500D01*
X385919D01*
X385003Y243416D01*
X383170Y242500D02*
X381337D01*
X382253D01*
Y247998D01*
X383170Y247082D01*
X374923Y247998D02*
X376755Y247082D01*
X378588Y245249D01*
Y243416D01*
X377672Y242500D01*
X375839D01*
X374923Y243416D01*
Y244333D01*
X375839Y245249D01*
X378588D01*
X58998Y165750D02*
Y167583D01*
Y166666D01*
X53500D01*
Y165750D01*
Y167583D01*
X58082Y173997D02*
X58998Y173081D01*
Y171248D01*
X58082Y170332D01*
X54416D01*
X53500Y171248D01*
Y173081D01*
X54416Y173997D01*
X53500Y175830D02*
Y177663D01*
Y176747D01*
X58998D01*
X58082Y175830D01*
X58998Y180412D02*
Y184077D01*
X58082D01*
X54416Y180412D01*
X53500D01*
X9498Y279750D02*
X4000Y283416D01*
X9498D02*
X4000Y279750D01*
X9498Y285248D02*
Y288914D01*
X8582D01*
X4916Y285248D01*
X4000D01*
X3498Y215250D02*
Y217083D01*
Y216166D01*
X-2000D01*
Y215250D01*
Y217083D01*
X2582Y223497D02*
X3498Y222581D01*
Y220748D01*
X2582Y219832D01*
X-1084D01*
X-2000Y220748D01*
Y222581D01*
X-1084Y223497D01*
X3498Y225330D02*
Y228995D01*
X2582D01*
X-1084Y225330D01*
X-2000D01*
X350250Y219248D02*
X348417D01*
X349334D01*
Y213750D01*
X350250D01*
X348417D01*
X342003Y218332D02*
X342919Y219248D01*
X344752D01*
X345668Y218332D01*
Y214666D01*
X344752Y213750D01*
X342919D01*
X342003Y214666D01*
X340170Y218332D02*
X339254Y219248D01*
X337421D01*
X336505Y218332D01*
Y217416D01*
X337421Y216499D01*
X338337D01*
X337421D01*
X336505Y215583D01*
Y214666D01*
X337421Y213750D01*
X339254D01*
X340170Y214666D01*
X334672Y218332D02*
X333755Y219248D01*
X331923D01*
X331006Y218332D01*
Y214666D01*
X331923Y213750D01*
X333755D01*
X334672Y214666D01*
Y218332D01*
X29500Y188498D02*
X27667D01*
X28584D01*
Y183000D01*
X29500D01*
X27667D01*
X21253Y187582D02*
X22169Y188498D01*
X24002D01*
X24918Y187582D01*
Y183916D01*
X24002Y183000D01*
X22169D01*
X21253Y183916D01*
X15754Y183000D02*
X19420D01*
X15754Y186665D01*
Y187582D01*
X16671Y188498D01*
X18504D01*
X19420Y187582D01*
X13922D02*
X13005Y188498D01*
X11173D01*
X10256Y187582D01*
Y183916D01*
X11173Y183000D01*
X13005D01*
X13922Y183916D01*
Y187582D01*
X175750Y211248D02*
Y207583D01*
X173917Y205750D01*
X172085Y207583D01*
Y211248D01*
X170252D02*
X166586D01*
X168419D01*
Y205750D01*
X161088D02*
X164754D01*
X161088Y209415D01*
Y210332D01*
X162005Y211248D01*
X163837D01*
X164754Y210332D01*
X175250Y201998D02*
Y198333D01*
X173417Y196500D01*
X171584Y198333D01*
Y201998D01*
X169752D02*
X166086D01*
X167919D01*
Y196500D01*
X164254D02*
X162421D01*
X163337D01*
Y201998D01*
X164254Y201082D01*
X100998Y142250D02*
Y144083D01*
Y143166D01*
X95500D01*
Y142250D01*
Y144083D01*
X100082Y150497D02*
X100998Y149581D01*
Y147748D01*
X100082Y146832D01*
X96416D01*
X95500Y147748D01*
Y149581D01*
X96416Y150497D01*
X100998Y155996D02*
X100082Y154163D01*
X98249Y152330D01*
X96416D01*
X95500Y153246D01*
Y155079D01*
X96416Y155996D01*
X97333D01*
X98249Y155079D01*
Y152330D01*
X426248Y159750D02*
X420750Y163416D01*
X426248D02*
X420750Y159750D01*
X426248Y168914D02*
X425332Y167081D01*
X423499Y165248D01*
X421666D01*
X420750Y166165D01*
Y167997D01*
X421666Y168914D01*
X422583D01*
X423499Y167997D01*
Y165248D01*
X275000Y292498D02*
X273167D01*
X274084D01*
Y287000D01*
X275000D01*
X273167D01*
X266753Y291582D02*
X267669Y292498D01*
X269502D01*
X270418Y291582D01*
Y287916D01*
X269502Y287000D01*
X267669D01*
X266753Y287916D01*
X264920Y287000D02*
X263087D01*
X264004D01*
Y292498D01*
X264920Y291582D01*
X260338D02*
X259422Y292498D01*
X257589D01*
X256673Y291582D01*
Y287916D01*
X257589Y287000D01*
X259422D01*
X260338Y287916D01*
Y291582D01*
X240750Y292498D02*
X238917D01*
X239834D01*
Y287000D01*
X240750D01*
X238917D01*
X232503Y291582D02*
X233419Y292498D01*
X235252D01*
X236168Y291582D01*
Y287916D01*
X235252Y287000D01*
X233419D01*
X232503Y287916D01*
X230670Y287000D02*
X228837D01*
X229753D01*
Y292498D01*
X230670Y291582D01*
X226088D02*
X225172Y292498D01*
X223339D01*
X222423Y291582D01*
Y290665D01*
X223339Y289749D01*
X224255D01*
X223339D01*
X222423Y288833D01*
Y287916D01*
X223339Y287000D01*
X225172D01*
X226088Y287916D01*
X202500Y292498D02*
X200667D01*
X201584D01*
Y287000D01*
X202500D01*
X200667D01*
X194253Y291582D02*
X195169Y292498D01*
X197002D01*
X197918Y291582D01*
Y287916D01*
X197002Y287000D01*
X195169D01*
X194253Y287916D01*
X192420Y287000D02*
X190587D01*
X191504D01*
Y292498D01*
X192420Y291582D01*
X184173Y287000D02*
X187838D01*
X184173Y290665D01*
Y291582D01*
X185089Y292498D01*
X186922D01*
X187838Y291582D01*
X158953Y246054D02*
Y247887D01*
Y246971D01*
X153455D01*
Y246054D01*
Y247887D01*
X158037Y254302D02*
X158953Y253386D01*
Y251553D01*
X158037Y250636D01*
X154371D01*
X153455Y251553D01*
Y253386D01*
X154371Y254302D01*
X158037Y256135D02*
X158953Y257051D01*
Y258884D01*
X158037Y259800D01*
X157120D01*
X156204Y258884D01*
X155288Y259800D01*
X154371D01*
X153455Y258884D01*
Y257051D01*
X154371Y256135D01*
X155288D01*
X156204Y257051D01*
X157120Y256135D01*
X158037D01*
X156204Y257051D02*
Y258884D01*
X9998Y87250D02*
Y89083D01*
Y88166D01*
X4500D01*
Y87250D01*
Y89083D01*
X9082Y95497D02*
X9998Y94581D01*
Y92748D01*
X9082Y91832D01*
X5416D01*
X4500Y92748D01*
Y94581D01*
X5416Y95497D01*
X4500Y97330D02*
Y99163D01*
Y98246D01*
X9998D01*
X9082Y97330D01*
X9998Y105577D02*
Y101912D01*
X7249D01*
X8166Y103745D01*
Y104661D01*
X7249Y105577D01*
X5416D01*
X4500Y104661D01*
Y102828D01*
X5416Y101912D01*
X199498Y220750D02*
Y222583D01*
Y221666D01*
X194000D01*
Y220750D01*
Y222583D01*
X198582Y228997D02*
X199498Y228081D01*
Y226248D01*
X198582Y225332D01*
X194916D01*
X194000Y226248D01*
Y228081D01*
X194916Y228997D01*
X194000Y230830D02*
Y232663D01*
Y231747D01*
X199498D01*
X198582Y230830D01*
Y235412D02*
X199498Y236328D01*
Y238161D01*
X198582Y239077D01*
X197666D01*
X196749Y238161D01*
X195833Y239077D01*
X194916D01*
X194000Y238161D01*
Y236328D01*
X194916Y235412D01*
X195833D01*
X196749Y236328D01*
X197666Y235412D01*
X198582D01*
X196749Y236328D02*
Y238161D01*
X214748Y188000D02*
Y191665D01*
Y189833D01*
X209250D01*
Y193498D02*
X214748D01*
Y196247D01*
X213832Y197164D01*
X211999D01*
X211083Y196247D01*
Y193498D01*
X209250Y198996D02*
Y200829D01*
Y199913D01*
X214748D01*
X213832Y198996D01*
X400250Y41998D02*
X398417D01*
X399334D01*
Y36500D01*
X400250D01*
X398417D01*
X392003Y41082D02*
X392919Y41998D01*
X394752D01*
X395668Y41082D01*
Y37416D01*
X394752Y36500D01*
X392919D01*
X392003Y37416D01*
X390170D02*
X389254Y36500D01*
X387421D01*
X386505Y37416D01*
Y41082D01*
X387421Y41998D01*
X389254D01*
X390170Y41082D01*
Y40166D01*
X389254Y39249D01*
X386505D01*
X139334Y243998D02*
X141167D01*
X140251D01*
Y239416D01*
X141167Y238500D01*
X142084D01*
X143000Y239416D01*
X137502Y238500D02*
X135669D01*
X136585D01*
Y243998D01*
X137502Y243082D01*
X422248Y73250D02*
Y76915D01*
Y75083D01*
X416750D01*
X422248Y82414D02*
X421332Y80581D01*
X419499Y78748D01*
X417666D01*
X416750Y79665D01*
Y81497D01*
X417666Y82414D01*
X418583D01*
X419499Y81497D01*
Y78748D01*
X412500Y112998D02*
X408834D01*
X410667D01*
Y107500D01*
X404253D02*
Y112998D01*
X407002Y110249D01*
X403336D01*
X407748Y51500D02*
Y55166D01*
Y53333D01*
X402250D01*
X406832Y56998D02*
X407748Y57915D01*
Y59747D01*
X406832Y60664D01*
X405915D01*
X404999Y59747D01*
Y58831D01*
Y59747D01*
X404083Y60664D01*
X403166D01*
X402250Y59747D01*
Y57915D01*
X403166Y56998D01*
X424750Y181498D02*
X421085D01*
X422917D01*
Y176000D01*
X419252D02*
X417419D01*
X418335D01*
Y181498D01*
X419252Y180582D01*
X385748Y130000D02*
Y131833D01*
Y130916D01*
X380250D01*
Y130000D01*
Y131833D01*
X384832Y138247D02*
X385748Y137331D01*
Y135498D01*
X384832Y134582D01*
X381166D01*
X380250Y135498D01*
Y137331D01*
X381166Y138247D01*
X380250Y142829D02*
X385748D01*
X382999Y140080D01*
Y143745D01*
X399000Y239748D02*
X397167D01*
X398084D01*
Y234250D01*
X399000D01*
X397167D01*
X390753Y238832D02*
X391669Y239748D01*
X393502D01*
X394418Y238832D01*
Y235166D01*
X393502Y234250D01*
X391669D01*
X390753Y235166D01*
X385254Y239748D02*
X388920D01*
Y236999D01*
X387087Y237915D01*
X386171D01*
X385254Y236999D01*
Y235166D01*
X386171Y234250D01*
X388004D01*
X388920Y235166D01*
X425748Y129000D02*
X420250Y132666D01*
X425748D02*
X420250Y129000D01*
X424832Y134498D02*
X425748Y135415D01*
Y137247D01*
X424832Y138164D01*
X423915D01*
X422999Y137247D01*
Y136331D01*
Y137247D01*
X422083Y138164D01*
X421166D01*
X420250Y137247D01*
Y135415D01*
X421166Y134498D01*
X350250Y293498D02*
X348417D01*
X349334D01*
Y288000D01*
X350250D01*
X348417D01*
X342003Y292582D02*
X342919Y293498D01*
X344752D01*
X345668Y292582D01*
Y288916D01*
X344752Y288000D01*
X342919D01*
X342003Y288916D01*
X340170Y288000D02*
X338337D01*
X339254D01*
Y293498D01*
X340170Y292582D01*
X332839Y288000D02*
Y293498D01*
X335588Y290749D01*
X331923D01*
X12748Y21500D02*
Y23333D01*
Y22416D01*
X7250D01*
Y21500D01*
Y23333D01*
X11832Y29747D02*
X12748Y28831D01*
Y26998D01*
X11832Y26082D01*
X8166D01*
X7250Y26998D01*
Y28831D01*
X8166Y29747D01*
X7250Y35245D02*
Y31580D01*
X10915Y35245D01*
X11832D01*
X12748Y34329D01*
Y32497D01*
X11832Y31580D01*
X7250Y40744D02*
Y37078D01*
X10915Y40744D01*
X11832D01*
X12748Y39827D01*
Y37995D01*
X11832Y37078D01*
X340250Y13498D02*
X338417D01*
X339334D01*
Y8000D01*
X340250D01*
X338417D01*
X332003Y12582D02*
X332919Y13498D01*
X334752D01*
X335668Y12582D01*
Y8916D01*
X334752Y8000D01*
X332919D01*
X332003Y8916D01*
X326505Y8000D02*
X330170D01*
X326505Y11666D01*
Y12582D01*
X327421Y13498D01*
X329254D01*
X330170Y12582D01*
X230748Y145000D02*
Y146833D01*
Y145916D01*
X225250D01*
Y145000D01*
Y146833D01*
X229832Y153247D02*
X230748Y152331D01*
Y150498D01*
X229832Y149582D01*
X226166D01*
X225250Y150498D01*
Y152331D01*
X226166Y153247D01*
X225250Y155080D02*
Y156913D01*
Y155996D01*
X230748D01*
X229832Y155080D01*
X244834Y241498D02*
X248500D01*
Y238749D01*
X246667D01*
X248500D01*
Y236000D01*
X243002Y241498D02*
Y236000D01*
X239336D01*
X233838D02*
X237504D01*
X233838Y239666D01*
Y240582D01*
X234755Y241498D01*
X236587D01*
X237504Y240582D01*
D12*
X38002Y245300D02*
G03*
X38002Y245300I-552J0D01*
G01*
X132516Y244750D02*
G03*
X132516Y244750I-1016J0D01*
G01*
X132516Y216000D02*
G03*
X132516Y216000I-1016J0D01*
G01*
D14*
X300250Y26500D02*
Y34500D01*
Y39500D02*
Y47500D01*
X311250D01*
Y39500D02*
Y47500D01*
Y26500D02*
Y34500D01*
X300250Y26500D02*
X311250D01*
X338920Y250780D02*
X349080D01*
X338920Y223780D02*
X338920Y250780D01*
X338920Y223780D02*
X349080D01*
X349080Y250780D02*
X349080Y223780D01*
X112500Y240750D02*
X136500D01*
X112500Y220750D02*
Y240750D01*
Y220750D02*
X136500D01*
Y240750D01*
X112500Y212000D02*
X136500D01*
X112500Y192000D02*
Y212000D01*
Y192000D02*
X136500D01*
Y212000D01*
X126750Y76500D02*
Y84500D01*
Y63500D02*
Y71500D01*
X116750Y63500D02*
X126750D01*
X116750D02*
Y71500D01*
Y76500D02*
Y84500D01*
X126750D01*
X206250Y148750D02*
Y156750D01*
Y135750D02*
Y143750D01*
X195250Y135750D02*
X206250D01*
X195250D02*
Y143750D01*
Y148750D02*
Y156750D01*
X206250D01*
X221238Y13722D02*
X230762D01*
X221238Y17278D02*
X230762D01*
X385025Y109545D02*
X396025D01*
X385025Y101545D02*
Y109545D01*
Y88545D02*
Y96545D01*
Y88545D02*
X396025D01*
Y96545D01*
Y101545D02*
Y109545D01*
X366975Y68035D02*
X377975D01*
X366975Y60035D02*
Y68035D01*
Y47035D02*
Y55035D01*
Y47035D02*
X377975D01*
Y55035D01*
Y60035D02*
Y68035D01*
X312500Y48000D02*
X320500D01*
X325500D02*
X333500D01*
Y38000D02*
Y48000D01*
X325500Y38000D02*
X333500D01*
X312500D02*
X320500D01*
X312500D02*
Y48000D01*
X312000Y11250D02*
Y19250D01*
Y24250D02*
Y32250D01*
X323000D01*
Y24250D02*
Y32250D01*
Y11250D02*
Y19250D01*
X312000Y11250D02*
X323000D01*
X367271Y37000D02*
Y47000D01*
X359271D02*
X367271D01*
X346271D02*
X354271D01*
X346271Y37000D02*
Y47000D01*
Y37000D02*
X354271D01*
X359271D02*
X367271D01*
X97440Y86350D02*
X105060D01*
X97440Y73650D02*
X105060D01*
X97972Y61488D02*
Y71012D01*
X101528Y61488D02*
Y71012D01*
X68245Y32250D02*
Y40250D01*
Y19250D02*
Y27250D01*
X58245Y19250D02*
X68245D01*
X58245D02*
Y27250D01*
Y32250D02*
Y40250D01*
X68245D01*
X25104Y32250D02*
Y40250D01*
Y19250D02*
Y27250D01*
X15104Y19250D02*
X25104D01*
X15104D02*
Y27250D01*
Y32250D02*
Y40250D01*
X25104D01*
X79245Y27250D02*
Y35250D01*
Y14250D02*
Y22250D01*
X68245Y14250D02*
X79245D01*
X68245D02*
Y22250D01*
Y27250D02*
Y35250D01*
X79245D01*
X346475Y57535D02*
X354475D01*
X359475D02*
X367475D01*
Y47535D02*
Y57535D01*
X359475Y47535D02*
X367475D01*
X346475D02*
X354475D01*
X346475D02*
Y57535D01*
X346475Y60035D02*
Y68035D01*
Y47035D02*
Y55035D01*
X336475Y47035D02*
X346475D01*
X336475D02*
Y55035D01*
Y60035D02*
Y68035D01*
X346475D01*
X346475Y67535D02*
X354475D01*
X359475D02*
X367475D01*
Y57535D02*
Y67535D01*
X359475Y57535D02*
X367475D01*
X346475D02*
X354475D01*
X346475D02*
Y67535D01*
X364525Y80545D02*
Y88545D01*
Y67545D02*
Y75545D01*
X354525Y67545D02*
X364525D01*
X354525D02*
Y75545D01*
Y80545D02*
Y88545D01*
X364525D01*
X364525Y88045D02*
X372525Y88045D01*
X377525D02*
X385525D01*
Y78045D02*
Y88045D01*
X377525Y78045D02*
X385525D01*
X364525D02*
X372525D01*
X364525Y88045D02*
X364525Y78045D01*
X395525Y80545D02*
Y88545D01*
Y67545D02*
Y75545D01*
X385525Y67545D02*
X395525D01*
X385525D02*
Y75545D01*
Y80545D02*
Y88545D01*
X395525D01*
X364525Y78045D02*
X372525D01*
X377525D02*
X385525D01*
X385525Y68045D01*
X377525Y68045D02*
X385525Y68045D01*
X364525Y68045D02*
X372525D01*
X364525D02*
Y78045D01*
X364500Y213000D02*
X364500Y221000D01*
X364500Y200000D02*
X364500Y208000D01*
X353500Y200000D02*
X364500D01*
X353500D02*
Y208000D01*
Y213000D02*
Y221000D01*
X364500D01*
X353500Y180000D02*
Y188000D01*
Y193000D02*
Y201000D01*
X364500D01*
Y193000D02*
Y201000D01*
X364500Y180000D02*
X364500Y188000D01*
X353500Y180000D02*
X364500Y180000D01*
X395500Y190000D02*
Y198000D01*
Y203000D02*
Y211000D01*
X405500D01*
Y203000D02*
Y211000D01*
X405500Y190000D02*
X405500Y198000D01*
X395500Y190000D02*
X405500D01*
X387500Y200500D02*
X395500D01*
X374500D02*
X382500D01*
X374500D02*
Y210500D01*
X382500D01*
X387500D02*
X395500D01*
Y200500D02*
Y210500D01*
X374500Y200500D02*
X382500D01*
X387500D02*
X395500D01*
Y190500D02*
Y200500D01*
X387500Y190500D02*
X395500D01*
X374500D02*
X382500D01*
X374500D02*
Y200500D01*
X374500Y203000D02*
Y211000D01*
Y190000D02*
Y198000D01*
X364500Y190000D02*
X374500D01*
X364500D02*
Y198000D01*
Y203000D02*
Y211000D01*
X374500D01*
X164488Y44722D02*
X174012D01*
X164488Y48278D02*
X174012Y48278D01*
X97488Y44722D02*
X107012D01*
X97488Y48278D02*
X107012D01*
X164488Y17278D02*
X174012D01*
X164488Y13722D02*
X174012D01*
X97488Y13722D02*
X107012D01*
X97488Y17278D02*
X107012D01*
X364525Y89045D02*
Y99045D01*
Y89045D02*
X372525D01*
X377525D02*
X385525D01*
Y99045D01*
X377525D02*
X385525D01*
X364525D02*
X372525D01*
X354525Y109545D02*
X364525D01*
X354525Y101545D02*
Y109545D01*
Y88545D02*
Y96545D01*
Y88545D02*
X364525D01*
Y96545D01*
Y101545D02*
Y109545D01*
X364525Y99045D02*
Y109045D01*
Y99045D02*
X372525D01*
X377525D02*
X385525D01*
Y109045D01*
X377525D02*
X385525D01*
X364525D02*
X372525D01*
X288238Y47028D02*
X297762Y47028D01*
X288238Y43472D02*
X297762Y43472D01*
X221238Y44722D02*
X230762D01*
X221238Y48278D02*
X230762D01*
X300250Y5000D02*
Y13000D01*
Y18000D02*
Y26000D01*
X311250Y26000D01*
X311250Y18000D01*
Y5000D02*
Y13000D01*
X300250Y5000D02*
X311250D01*
X288238Y17278D02*
X297762D01*
X288238Y13722D02*
X297762D01*
D15*
X400603Y273000D02*
G03*
X400603Y273000I-353J0D01*
G01*
X26077Y256750D02*
G03*
X26077Y256750I-327J0D01*
G01*
X356662Y253500D02*
G03*
X356662Y253500I-750J0D01*
G01*
X400809Y291000D02*
G03*
X400809Y291000I-559J0D01*
G01*
X381059Y24250D02*
G03*
X381059Y24250I-559J0D01*
G01*
X49000Y188500D02*
Y194649D01*
Y188500D02*
X55149D01*
X98851D02*
X105000D01*
Y194649D01*
X98851Y244500D02*
X105000D01*
Y238351D02*
Y244500D01*
X49000D02*
X55149D01*
X49000Y238351D02*
Y244500D01*
Y194649D02*
X55149Y188500D01*
X429000Y215250D02*
Y224750D01*
X450460D01*
X429000Y158750D02*
X450460D01*
X429000D02*
Y168250D01*
X104509Y191500D02*
X190509D01*
X104509Y105500D02*
X190509D01*
Y191500D01*
X104509Y105500D02*
Y191500D01*
X71250Y61750D02*
X82250D01*
Y72750D01*
X71250Y131750D02*
X82250D01*
Y120750D02*
Y131750D01*
X12250Y61750D02*
X23250D01*
X12250D02*
Y72750D01*
Y120750D02*
Y131750D01*
X23250D01*
X353645Y201500D02*
Y210500D01*
X344645D02*
X353645D01*
Y85500D02*
Y94500D01*
X344645Y85500D02*
X353645D01*
X228645D02*
X237645D01*
X228645D02*
Y94500D01*
Y210500D02*
X237645D01*
X228645Y201500D02*
Y210500D01*
X429000Y72250D02*
Y81750D01*
Y72250D02*
X450460D01*
X429000Y138250D02*
X450460D01*
X429000Y128750D02*
Y138250D01*
X73500Y244500D02*
X135500D01*
Y294500D01*
X73500Y244500D02*
Y290500D01*
X77500Y294500D01*
X135500D01*
X317750Y218498D02*
Y211500D01*
X313085D01*
X310752D02*
Y218498D01*
X308420Y216165D01*
X306087Y218498D01*
Y211500D01*
X299089Y217331D02*
X300256Y218498D01*
X302588D01*
X303755Y217331D01*
Y216165D01*
X302588Y214999D01*
X300256D01*
X299089Y213832D01*
Y212666D01*
X300256Y211500D01*
X302588D01*
X303755Y212666D01*
X296757Y218498D02*
X292092D01*
Y217331D01*
X296757Y212666D01*
Y211500D01*
X289759Y217331D02*
X288593Y218498D01*
X286260D01*
X285094Y217331D01*
Y212666D01*
X286260Y211500D01*
X288593D01*
X289759Y212666D01*
Y217331D01*
X282761D02*
X281595Y218498D01*
X279262D01*
X278096Y217331D01*
Y212666D01*
X279262Y211500D01*
X281595D01*
X282761Y212666D01*
Y217331D01*
X271098Y211500D02*
X275763D01*
X271098Y216165D01*
Y217331D01*
X272265Y218498D01*
X274597D01*
X275763Y217331D01*
X268766Y211500D02*
Y218498D01*
X266433Y216165D01*
X264101Y218498D01*
Y211500D01*
X167997Y219082D02*
Y216416D01*
Y217749D01*
X161333D01*
X160000Y216416D01*
Y215083D01*
X161333Y213750D01*
X167997Y221747D02*
Y227079D01*
Y224413D01*
X160000D01*
Y229745D02*
X165332D01*
X167997Y232411D01*
X165332Y235076D01*
X160000D01*
X163999D01*
Y229745D01*
X166665Y243074D02*
X167997Y241741D01*
Y239075D01*
X166665Y237742D01*
X161333D01*
X160000Y239075D01*
Y241741D01*
X161333Y243074D01*
X163999D01*
Y240408D01*
X-9374Y99012D02*
X-4042D01*
Y100345D01*
X-5375Y101677D01*
X-9374D01*
X-5375D01*
X-4042Y103010D01*
X-5375Y104343D01*
X-9374D01*
Y107009D02*
X-1376D01*
Y111008D01*
X-2709Y112341D01*
X-5375D01*
X-6708Y111008D01*
Y107009D01*
X-2709Y120338D02*
X-1376Y119005D01*
Y116339D01*
X-2709Y115007D01*
X-8041D01*
X-9374Y116339D01*
Y119005D01*
X-8041Y120338D01*
X-1376Y123004D02*
Y125670D01*
Y124337D01*
X-9374D01*
Y123004D01*
Y125670D01*
Y133667D02*
Y131001D01*
X-8041Y129668D01*
X-5375D01*
X-4042Y131001D01*
Y133667D01*
X-5375Y135000D01*
X-6708D01*
Y129668D01*
X-3086Y251582D02*
X-1753Y250249D01*
Y247583D01*
X-3086Y246250D01*
X-8417D01*
X-9750Y247583D01*
Y250249D01*
X-8417Y251582D01*
X-5751D01*
Y248916D01*
X-9750Y254247D02*
X-1753D01*
Y258246D01*
X-3086Y259579D01*
X-5751D01*
X-7084Y258246D01*
Y254247D01*
X-1753Y262245D02*
Y264911D01*
Y263578D01*
X-9750D01*
Y262245D01*
Y264911D01*
X-1753Y272908D02*
Y270242D01*
X-3086Y268909D01*
X-8417D01*
X-9750Y270242D01*
Y272908D01*
X-8417Y274241D01*
X-3086D01*
X-1753Y272908D01*
D16*
X465750Y217000D02*
G03*
X465750Y217000I-250J0D01*
G01*
X465750Y130500D02*
G03*
X465750Y130500I-250J0D01*
G01*
D233*
X180661Y5440D02*
X185233Y5440D01*
X190055D02*
X192341D01*
X194115D02*
X198687D01*
X201223D02*
X203509D01*
X204521D02*
X206807Y5440D01*
X209093Y5440D02*
X210617Y5440D01*
X212903Y5440D02*
X215189D01*
X188713Y19606D02*
X192523D01*
X195059Y19606D02*
X197345Y19606D01*
X198869Y19606D02*
X201155Y19606D01*
X202679Y19606D02*
X205727Y19606D01*
X206739D02*
X215121D01*
X180661Y6202D02*
X185995Y6202D01*
X190055D02*
X192341D01*
X193353D02*
X199449Y6202D01*
X201223Y6202D02*
X203509Y6202D01*
X204521Y6202D02*
X206807D01*
X208331D02*
X210617Y6202D01*
X212141Y6202D02*
X215189Y6202D01*
X187951Y20368D02*
X193285D01*
X195059Y20368D02*
X197345Y20368D01*
X198869Y20368D02*
X201155Y20368D01*
X202679Y20368D02*
X204965Y20368D01*
X206739Y20368D02*
X214359D01*
X179899Y6964D02*
X182185Y6964D01*
X183709Y6964D02*
X185995Y6964D01*
X190055D02*
X192341D01*
X193353D02*
X195639Y6964D01*
X197163Y6964D02*
X199449Y6964D01*
X200461Y6964D02*
X203509Y6964D01*
X204521Y6964D02*
X206807D01*
X208331D02*
X210617D01*
X212141D02*
X214427D01*
X187189Y21130D02*
X190237Y21130D01*
X190999Y21130D02*
X193285Y21130D01*
X195059Y21130D02*
X197345Y21130D01*
X198869Y21130D02*
X201155Y21130D01*
X202679Y21130D02*
X204965Y21130D01*
X206739Y21130D02*
X209025Y21130D01*
X212073Y21130D02*
X214359Y21130D01*
X179899Y7726D02*
X182185D01*
X183709D02*
X185995D01*
X189293D02*
X192341D01*
X193353D02*
X195639D01*
X197163D02*
X199449D01*
X200461D02*
X202747D01*
X204521D02*
X206807D01*
X208331D02*
X210617D01*
X212141D02*
X214427D01*
X190999Y21892D02*
X193285Y21892D01*
X194297Y21892D02*
X197345Y21892D01*
X198869Y21892D02*
X201155Y21892D01*
X202679Y21892D02*
X204965Y21892D01*
X205977Y21892D02*
X208263Y21892D01*
X212073D02*
X214359Y21892D01*
X179899Y8488D02*
X182185D01*
X183709D02*
X185995D01*
X189293D02*
X191579D01*
X197163D02*
X199449D01*
X200461D02*
X202747D01*
X203759D02*
X206807D01*
X208331D02*
X210617D01*
X212141D02*
X214427D01*
X190999Y22654D02*
X193285D01*
X194297D02*
X196583D01*
X198869D02*
X200393D01*
X202679D02*
X204965D01*
X205977D02*
X208263D01*
X212073D02*
X214359D01*
X179137Y9250D02*
X181423D01*
X183709D02*
X185995D01*
X189293D02*
X191579Y9250D01*
X197163Y9250D02*
X199449Y9250D01*
X200461Y9250D02*
X202747Y9250D01*
X203759Y9250D02*
X206045D01*
X207569D02*
X209855D01*
X212141D02*
X214427Y9250D01*
X186427Y23416D02*
X193285D01*
X194297D02*
X196583D01*
X198107D02*
X200393D01*
X201917D02*
X204965D01*
X205977D02*
X208263D01*
X211311D02*
X214359D01*
X179137Y10012D02*
X181423D01*
X183709Y10012D02*
X185995Y10012D01*
X189293D02*
X191579Y10012D01*
X196401Y10012D02*
X198687D01*
X200461D02*
X202747D01*
X203759Y10012D02*
X206045Y10012D01*
X207569Y10012D02*
X209855Y10012D01*
X211379Y10012D02*
X213665Y10012D01*
X186427Y24178D02*
X188713D01*
X190237D02*
X193285D01*
X194297D02*
X196583D01*
X198107D02*
X200393D01*
X201917D02*
X204203D01*
X205977D02*
X208263D01*
X211311D02*
X213597D01*
X179137Y10774D02*
X181423D01*
X182947D02*
X185233D01*
X189293D02*
X191579Y10774D01*
X192591Y10774D02*
X194877D01*
X196401D02*
X198687D01*
X199699Y10774D02*
X201985Y10774D01*
X203759Y10774D02*
X206045Y10774D01*
X207569Y10774D02*
X209855Y10774D01*
X211379Y10774D02*
X213665Y10774D01*
X186427Y24940D02*
X188713D01*
X190237D02*
X193285Y24940D01*
X194297Y24940D02*
X196583D01*
X198107D02*
X200393D01*
X201917D02*
X204203D01*
X205215D02*
X208263Y24940D01*
X211311Y24940D02*
X213597D01*
X179137Y11536D02*
X181423D01*
X182947D02*
X185233D01*
X186245D02*
X187769D01*
X188531D02*
X191579D01*
X192591D02*
X194877D01*
X196401D02*
X198687D01*
X199699D02*
X201985D01*
X203759D02*
X206045D01*
X207569D02*
X209855D01*
X211379D02*
X213665D01*
X186427Y25702D02*
X188713D01*
X190237D02*
X192523D01*
X193535D02*
X196583D01*
X198107D02*
X200393D01*
X201917D02*
X204203D01*
X205215D02*
X207501D01*
X211311D02*
X213597D01*
X179387Y12298D02*
X190817D01*
X192591D02*
X198687D01*
X199699D02*
X201985D01*
X203759D02*
X213665D01*
X186427Y26464D02*
X192523D01*
X194297D02*
X204203D01*
X205215D02*
X207501D01*
X211311D02*
X213597D01*
X179899Y13060D02*
X184471D01*
X185483D02*
X189293D01*
X192591D02*
X197925D01*
X199699D02*
X201985D01*
X203759D02*
X212141D01*
X186427Y27226D02*
X191761D01*
X194297D02*
X202679Y27226D01*
X205215Y27226D02*
X207501D01*
X210549D02*
X213597D01*
X181423Y13822D02*
X182185D01*
X187007D02*
X187769Y13822D01*
X187951Y27988D02*
X190237D01*
X195059Y27988D02*
X197345Y27988D01*
X199631D02*
X201155D01*
X210549Y27988D02*
X212835Y27988D01*
X198937Y14584D02*
X201223D01*
X205215Y28750D02*
X206739Y28750D01*
X210549D02*
X212835Y28750D01*
X198937Y15346D02*
X201223Y15346D01*
X204453Y29512D02*
X206739D01*
X210549D02*
X212835D01*
X199699Y16108D02*
X200461D01*
X204453Y30274D02*
X205977Y30274D01*
X193225Y32334D02*
X193987D01*
X193225Y33096D02*
X193987Y33096D01*
X201607D02*
X203131D01*
X193987Y33858D02*
X194749Y33858D01*
X201607Y33858D02*
X203131Y33858D01*
X184843Y34620D02*
X185605D01*
X194749Y34620D02*
X195511Y34620D01*
X201607Y34620D02*
X203131Y34620D01*
X186367Y35382D02*
X187129D01*
X194749Y35382D02*
X196273Y35382D01*
X201607D02*
X203131D01*
X187129Y36144D02*
X188653D01*
X195511D02*
X197035D01*
X200845D02*
X203131D01*
X188653Y36906D02*
X190177D01*
X200845D02*
X203131D01*
X189415Y37668D02*
X190939D01*
X200845D02*
X203131D01*
X190939Y38430D02*
X192463Y38430D01*
X201607Y38430D02*
X203131Y38430D01*
X192463Y39192D02*
X193225D01*
X202369Y39192D02*
X203131Y39192D01*
X202369Y39954D02*
X203893D01*
X203893Y41478D02*
X204655D01*
Y42240D02*
X205417Y42240D01*
Y43002D02*
X207703D01*
X193225Y44526D02*
X195511D01*
X206179D02*
X211513D01*
X190939Y45288D02*
X196273D01*
X206941D02*
X209989D01*
X187891Y46050D02*
X197035D01*
X206941D02*
X208465D01*
X197035Y46812D02*
X198559Y46812D01*
X206941Y46812D02*
X208465Y46812D01*
X198559Y47574D02*
X199321D01*
X206941D02*
X209227D01*
X199321Y48336D02*
X200083D01*
X206941D02*
X209989D01*
X200083Y49098D02*
X200845D01*
X206941D02*
X210751D01*
X200083Y49860D02*
X203131D01*
X206179Y49860D02*
X211513Y49860D01*
X200083Y50622D02*
X208465Y50622D01*
X210751Y50622D02*
X212275Y50622D01*
X200845Y51384D02*
X203131D01*
X206179D02*
X208465D01*
X212275D02*
X213799D01*
X200845Y52146D02*
X203131D01*
X206941D02*
X208465D01*
X213799D02*
X214561D01*
X200845Y52908D02*
X202369D01*
X207703D02*
X209227D01*
X215323D02*
X216085D01*
X200845Y53670D02*
X202369Y53670D01*
X207703Y53670D02*
X209989Y53670D01*
X216085Y53670D02*
X216847D01*
X200845Y54432D02*
X202369Y54432D01*
X208465Y54432D02*
X209989Y54432D01*
X217609D02*
X218371Y54432D01*
X200845Y55194D02*
X202369D01*
X209227D02*
X210751Y55194D01*
X219133Y55194D02*
X219895D01*
X200845Y55956D02*
X201607D01*
X209989D02*
X211513D01*
X200845Y56718D02*
X201607D01*
X210751D02*
X211513D01*
X200845Y57480D02*
X201607D01*
X211513D02*
X212275D01*
X211513Y58242D02*
X213037D01*
X212275Y59004D02*
X213037Y59004D01*
Y59766D02*
X213799D01*
Y60528D02*
X214561D01*
M02*
