G04*
G04 #@! TF.GenerationSoftware,Altium Limited,Altium Designer,19.1.6 (110)*
G04*
G04 Layer_Color=65535*
%FSLAX44Y44*%
%MOMM*%
G71*
G01*
G75*
%ADD10C,0.1000*%
%ADD11C,0.1500*%
%ADD12C,0.2540*%
%ADD13C,0.3000*%
%ADD14C,0.1270*%
%ADD15C,0.2000*%
%ADD16C,0.2500*%
G36*
X134000Y104000D02*
Y102000D01*
X132000D01*
Y104000D01*
X134000D01*
D02*
G37*
G36*
X62500Y186750D02*
X67500D01*
Y181750D01*
X62500Y186750D01*
D02*
G37*
G36*
X51500Y195500D02*
X64500Y195500D01*
X51500Y208500D01*
X51500Y195500D01*
D02*
G37*
G36*
X224500Y58750D02*
Y60750D01*
X226500D01*
Y58750D01*
X224500D01*
D02*
G37*
G36*
X178000Y197000D02*
X180000D01*
Y195000D01*
X178000D01*
Y197000D01*
D02*
G37*
G36*
X439875Y79000D02*
Y76250D01*
X434500D01*
X439875Y79000D01*
D02*
G37*
G36*
X275426Y159082D02*
X275538Y159072D01*
X275688Y159054D01*
X275857Y159035D01*
X276054Y158997D01*
X276260Y158960D01*
X276485Y158894D01*
X276719Y158829D01*
X276963Y158735D01*
X277207Y158632D01*
X277460Y158510D01*
X277703Y158360D01*
X277947Y158191D01*
X278181Y158004D01*
X278191Y157994D01*
X278238Y157957D01*
X278294Y157891D01*
X278369Y157807D01*
X278463Y157695D01*
X278566Y157563D01*
X278678Y157413D01*
X278791Y157235D01*
X278913Y157038D01*
X279025Y156823D01*
X279128Y156589D01*
X279212Y156326D01*
X279297Y156054D01*
X279353Y155754D01*
X279391Y155436D01*
X279409Y155108D01*
Y155014D01*
X279400Y154939D01*
Y154855D01*
X279391Y154761D01*
X279381Y154648D01*
X279362Y154517D01*
X279315Y154245D01*
X279250Y153955D01*
X279156Y153655D01*
X279025Y153364D01*
X279016Y153355D01*
X279006Y153327D01*
X278988Y153289D01*
X278950Y153243D01*
X278913Y153177D01*
X278866Y153102D01*
X278734Y152943D01*
X278575Y152755D01*
X278388Y152568D01*
X278163Y152390D01*
X277910Y152230D01*
X277900D01*
X277872Y152212D01*
X277835Y152193D01*
X277788Y152174D01*
X277713Y152146D01*
X277638Y152118D01*
X277544Y152080D01*
X277441Y152052D01*
X277338Y152015D01*
X277216Y151977D01*
X276954Y151921D01*
X276663Y151883D01*
X276363Y151865D01*
X276354D01*
X276344D01*
X276316D01*
X276279D01*
X276176Y151874D01*
X276045Y151883D01*
X275876Y151902D01*
X275688Y151921D01*
X275482Y151959D01*
X275257Y152005D01*
X275014Y152062D01*
X274760Y152127D01*
X274507Y152221D01*
X274245Y152324D01*
X273992Y152446D01*
X273739Y152596D01*
X273505Y152765D01*
X273280Y152952D01*
X273270Y152961D01*
X273233Y152999D01*
X273176Y153064D01*
X273102Y153149D01*
X273008Y153261D01*
X272914Y153392D01*
X272811Y153542D01*
X272698Y153721D01*
X272595Y153917D01*
X272492Y154133D01*
X272389Y154367D01*
X272305Y154620D01*
X272230Y154892D01*
X272174Y155183D01*
X272136Y155492D01*
X272127Y155820D01*
Y155886D01*
X272136Y155970D01*
Y156073D01*
X272155Y156204D01*
X272174Y156354D01*
X272202Y156514D01*
X272230Y156701D01*
X272277Y156889D01*
X272333Y157085D01*
X272408Y157282D01*
X272483Y157479D01*
X272586Y157676D01*
X272698Y157873D01*
X272830Y158051D01*
X272980Y158219D01*
X272989Y158229D01*
X273017Y158257D01*
X273064Y158304D01*
X273130Y158360D01*
X273223Y158426D01*
X273326Y158491D01*
X273439Y158576D01*
X273580Y158660D01*
X273739Y158735D01*
X273908Y158819D01*
X274095Y158885D01*
X274292Y158960D01*
X274517Y159007D01*
X274751Y159054D01*
X274995Y159082D01*
X275257Y159091D01*
X275276D01*
X275332D01*
X275426Y159082D01*
D02*
G37*
G36*
X273870Y151471D02*
Y151462D01*
X273851Y151424D01*
X273842Y151377D01*
X273823Y151302D01*
X273804Y151218D01*
X273795Y151124D01*
X273776Y150918D01*
Y150871D01*
X273786Y150834D01*
X273795Y150740D01*
X273823Y150609D01*
X273870Y150459D01*
X273936Y150290D01*
X274029Y150112D01*
X274151Y149925D01*
Y149915D01*
X274170Y149906D01*
X274189Y149878D01*
X274217Y149840D01*
X274301Y149756D01*
X274414Y149643D01*
X274554Y149512D01*
X274723Y149390D01*
X274920Y149259D01*
X275135Y149147D01*
X275145D01*
X275163Y149137D01*
X275201Y149119D01*
X275248Y149100D01*
X275313Y149072D01*
X275398Y149044D01*
X275492Y149006D01*
X275604Y148969D01*
X275735Y148931D01*
X275876Y148884D01*
X276035Y148847D01*
X276213Y148791D01*
X276401Y148744D01*
X276607Y148697D01*
X276832Y148641D01*
X277076Y148594D01*
X279250Y148134D01*
Y146260D01*
X272286Y147713D01*
Y149465D01*
X273636Y149194D01*
X273617Y149203D01*
X273570Y149240D01*
X273495Y149297D01*
X273401Y149362D01*
X273289Y149456D01*
X273158Y149569D01*
X273017Y149690D01*
X272876Y149831D01*
X272736Y149981D01*
X272605Y150150D01*
X272474Y150318D01*
X272361Y150506D01*
X272267Y150703D01*
X272192Y150899D01*
X272146Y151106D01*
X272127Y151321D01*
Y151396D01*
X272136Y151471D01*
X272155Y151584D01*
X272174Y151715D01*
X272211Y151855D01*
X272267Y152024D01*
X272333Y152193D01*
X273870Y151471D01*
D02*
G37*
G36*
X274648Y144151D02*
X274639D01*
X274620D01*
X274592Y144142D01*
X274554Y144132D01*
X274451Y144114D01*
X274320Y144086D01*
X274189Y144029D01*
X274039Y143973D01*
X273908Y143889D01*
X273795Y143786D01*
X273786Y143776D01*
X273748Y143729D01*
X273701Y143673D01*
X273654Y143579D01*
X273598Y143476D01*
X273561Y143345D01*
X273523Y143195D01*
X273514Y143026D01*
Y142970D01*
X273523Y142933D01*
X273533Y142830D01*
X273561Y142698D01*
X273617Y142539D01*
X273692Y142370D01*
X273786Y142183D01*
X273851Y142099D01*
X273926Y142005D01*
Y141995D01*
X273945Y141986D01*
X273973Y141958D01*
X274001Y141930D01*
X274048Y141892D01*
X274095Y141846D01*
X274161Y141789D01*
X274226Y141742D01*
X274311Y141686D01*
X274404Y141621D01*
X274498Y141564D01*
X274611Y141499D01*
X274732Y141442D01*
X274854Y141386D01*
X274995Y141330D01*
X275145Y141283D01*
X275154D01*
X275182Y141274D01*
X275220Y141264D01*
X275285Y141246D01*
X275351Y141227D01*
X275435Y141208D01*
X275529Y141180D01*
X275632Y141161D01*
X275866Y141114D01*
X276119Y141077D01*
X276391Y141049D01*
X276654Y141039D01*
X276663D01*
X276682D01*
X276710D01*
X276757Y141049D01*
X276869Y141058D01*
X277001Y141077D01*
X277160Y141114D01*
X277319Y141171D01*
X277469Y141236D01*
X277610Y141339D01*
X277619Y141358D01*
X277657Y141396D01*
X277713Y141461D01*
X277769Y141545D01*
X277835Y141658D01*
X277882Y141780D01*
X277919Y141930D01*
X277938Y142089D01*
Y142108D01*
X277928Y142164D01*
X277919Y142258D01*
X277900Y142370D01*
X277853Y142501D01*
X277797Y142652D01*
X277722Y142802D01*
X277610Y142961D01*
Y142970D01*
X277591Y142979D01*
X277544Y143026D01*
X277469Y143111D01*
X277366Y143204D01*
X277225Y143308D01*
X277057Y143420D01*
X276860Y143532D01*
X276626Y143626D01*
X276926Y145454D01*
X276935Y145444D01*
X276982Y145435D01*
X277038Y145407D01*
X277122Y145370D01*
X277225Y145323D01*
X277347Y145267D01*
X277479Y145191D01*
X277610Y145117D01*
X277760Y145023D01*
X277910Y144920D01*
X278069Y144817D01*
X278219Y144695D01*
X278369Y144564D01*
X278519Y144414D01*
X278659Y144264D01*
X278781Y144104D01*
X278791Y144095D01*
X278809Y144067D01*
X278838Y144020D01*
X278875Y143945D01*
X278931Y143861D01*
X278978Y143767D01*
X279034Y143645D01*
X279091Y143523D01*
X279156Y143373D01*
X279212Y143223D01*
X279259Y143055D01*
X279306Y142867D01*
X279353Y142680D01*
X279381Y142483D01*
X279400Y142277D01*
X279409Y142061D01*
Y142005D01*
X279400Y141930D01*
Y141846D01*
X279381Y141733D01*
X279372Y141602D01*
X279344Y141452D01*
X279306Y141302D01*
X279269Y141133D01*
X279212Y140964D01*
X279156Y140786D01*
X279081Y140608D01*
X278988Y140440D01*
X278884Y140271D01*
X278762Y140102D01*
X278622Y139952D01*
X278613Y139943D01*
X278584Y139915D01*
X278538Y139877D01*
X278472Y139830D01*
X278397Y139774D01*
X278294Y139708D01*
X278181Y139634D01*
X278050Y139568D01*
X277900Y139493D01*
X277741Y139418D01*
X277563Y139352D01*
X277366Y139296D01*
X277150Y139249D01*
X276926Y139212D01*
X276691Y139184D01*
X276438Y139174D01*
X276429D01*
X276391D01*
X276326D01*
X276241Y139184D01*
X276148Y139193D01*
X276026Y139202D01*
X275895Y139212D01*
X275745Y139230D01*
X275585Y139259D01*
X275417Y139287D01*
X275060Y139371D01*
X274873Y139427D01*
X274676Y139493D01*
X274489Y139558D01*
X274301Y139643D01*
X274292Y139652D01*
X274254Y139662D01*
X274207Y139690D01*
X274132Y139727D01*
X274048Y139783D01*
X273954Y139840D01*
X273842Y139915D01*
X273720Y139999D01*
X273598Y140093D01*
X273467Y140196D01*
X273336Y140308D01*
X273205Y140440D01*
X273073Y140580D01*
X272942Y140730D01*
X272820Y140890D01*
X272708Y141058D01*
X272698Y141067D01*
X272680Y141105D01*
X272652Y141152D01*
X272614Y141227D01*
X272577Y141311D01*
X272520Y141424D01*
X272474Y141545D01*
X272417Y141677D01*
X272361Y141827D01*
X272314Y141986D01*
X272258Y142164D01*
X272220Y142342D01*
X272183Y142539D01*
X272155Y142736D01*
X272136Y142942D01*
X272127Y143148D01*
Y143270D01*
X272136Y143355D01*
X272146Y143457D01*
X272164Y143579D01*
X272183Y143711D01*
X272211Y143851D01*
X272239Y144010D01*
X272286Y144170D01*
X272333Y144329D01*
X272398Y144488D01*
X272474Y144657D01*
X272558Y144817D01*
X272661Y144966D01*
X272773Y145107D01*
X272783Y145117D01*
X272802Y145135D01*
X272839Y145173D01*
X272886Y145229D01*
X272952Y145285D01*
X273027Y145351D01*
X273120Y145416D01*
X273223Y145491D01*
X273336Y145566D01*
X273467Y145632D01*
X273608Y145707D01*
X273758Y145773D01*
X273917Y145829D01*
X274086Y145876D01*
X274264Y145913D01*
X274461Y145941D01*
X274648Y144151D01*
D02*
G37*
G36*
X271339Y138696D02*
Y136822D01*
X269643Y137169D01*
Y139052D01*
X271339Y138696D01*
D02*
G37*
G36*
X279250Y137047D02*
Y135172D01*
X272286Y136625D01*
Y138499D01*
X279250Y137047D01*
D02*
G37*
G36*
Y133223D02*
Y131433D01*
X271283Y133091D01*
X279250Y129530D01*
Y127655D01*
X271227Y127299D01*
X279250Y125781D01*
Y123991D01*
X269643Y125996D01*
Y128818D01*
X276251Y129117D01*
X269643Y132135D01*
Y134966D01*
X279250Y133223D01*
D02*
G37*
G36*
X283833Y149297D02*
X283889D01*
X284039Y149278D01*
X284208Y149250D01*
X284405Y149203D01*
X284611Y149146D01*
X284827Y149062D01*
X284836D01*
X284855Y149053D01*
X284883Y149034D01*
X284930Y149015D01*
X284977Y148987D01*
X285042Y148959D01*
X285192Y148875D01*
X285370Y148772D01*
X285576Y148640D01*
X285792Y148481D01*
X286026Y148294D01*
X286036D01*
X286045Y148275D01*
X286073Y148256D01*
X286111Y148219D01*
X286157Y148181D01*
X286214Y148125D01*
X286279Y148059D01*
X286354Y147994D01*
X286439Y147909D01*
X286532Y147816D01*
X286635Y147712D01*
X286748Y147600D01*
X286870Y147469D01*
X287001Y147338D01*
X287141Y147188D01*
X287292Y147028D01*
X287301Y147019D01*
X287329Y146991D01*
X287367Y146944D01*
X287423Y146888D01*
X287488Y146822D01*
X287563Y146738D01*
X287732Y146560D01*
X287920Y146363D01*
X288107Y146166D01*
X288276Y145997D01*
X288341Y145932D01*
X288407Y145866D01*
X288416Y145857D01*
X288463Y145819D01*
X288519Y145763D01*
X288594Y145697D01*
X288688Y145613D01*
X288801Y145519D01*
X289035Y145332D01*
Y148650D01*
X290750Y148294D01*
Y142464D01*
X290741D01*
X290722D01*
X290684Y142473D01*
X290628Y142483D01*
X290562Y142492D01*
X290497Y142511D01*
X290413Y142529D01*
X290319Y142548D01*
X290113Y142595D01*
X289888Y142670D01*
X289653Y142754D01*
X289410Y142867D01*
X289400D01*
X289382Y142886D01*
X289344Y142904D01*
X289297Y142923D01*
X289241Y142961D01*
X289175Y142998D01*
X289016Y143092D01*
X288838Y143214D01*
X288632Y143354D01*
X288426Y143504D01*
X288219Y143682D01*
X288210Y143692D01*
X288191Y143710D01*
X288163Y143738D01*
X288116Y143776D01*
X288051Y143832D01*
X287976Y143907D01*
X287891Y143992D01*
X287788Y144085D01*
X287676Y144198D01*
X287545Y144329D01*
X287395Y144479D01*
X287235Y144638D01*
X287057Y144816D01*
X286870Y145013D01*
X286663Y145229D01*
X286439Y145463D01*
X286429Y145472D01*
X286401Y145510D01*
X286354Y145557D01*
X286289Y145622D01*
X286214Y145697D01*
X286129Y145782D01*
X285933Y145979D01*
X285726Y146185D01*
X285529Y146382D01*
X285436Y146475D01*
X285351Y146560D01*
X285276Y146625D01*
X285220Y146681D01*
X285211Y146691D01*
X285201Y146700D01*
X285173Y146728D01*
X285136Y146756D01*
X285042Y146832D01*
X284920Y146935D01*
X284780Y147038D01*
X284639Y147141D01*
X284480Y147234D01*
X284339Y147310D01*
X284320Y147319D01*
X284273Y147338D01*
X284208Y147366D01*
X284114Y147403D01*
X284011Y147431D01*
X283899Y147459D01*
X283777Y147478D01*
X283664Y147488D01*
X283655D01*
X283646D01*
X283617D01*
X283580D01*
X283496Y147469D01*
X283383Y147450D01*
X283261Y147413D01*
X283130Y147366D01*
X282999Y147291D01*
X282877Y147197D01*
X282868Y147188D01*
X282830Y147150D01*
X282783Y147085D01*
X282718Y147000D01*
X282661Y146897D01*
X282615Y146775D01*
X282577Y146635D01*
X282568Y146475D01*
Y146457D01*
X282577Y146400D01*
X282586Y146316D01*
X282605Y146213D01*
X282652Y146082D01*
X282708Y145950D01*
X282793Y145819D01*
X282905Y145688D01*
X282924Y145669D01*
X282971Y145632D01*
X283008Y145604D01*
X283055Y145576D01*
X283111Y145538D01*
X283186Y145501D01*
X283261Y145463D01*
X283355Y145426D01*
X283449Y145379D01*
X283561Y145341D01*
X283683Y145304D01*
X283814Y145257D01*
X283964Y145229D01*
X284124Y145191D01*
X283852Y143354D01*
X283833D01*
X283796Y143364D01*
X283720Y143382D01*
X283636Y143401D01*
X283524Y143429D01*
X283393Y143467D01*
X283252Y143514D01*
X283093Y143560D01*
X282933Y143626D01*
X282764Y143701D01*
X282596Y143785D01*
X282427Y143879D01*
X282258Y143992D01*
X282099Y144104D01*
X281949Y144235D01*
X281808Y144385D01*
X281799Y144395D01*
X281780Y144423D01*
X281743Y144470D01*
X281696Y144535D01*
X281640Y144610D01*
X281584Y144704D01*
X281518Y144816D01*
X281452Y144948D01*
X281387Y145088D01*
X281321Y145238D01*
X281265Y145407D01*
X281209Y145594D01*
X281162Y145782D01*
X281124Y145988D01*
X281106Y146203D01*
X281096Y146428D01*
Y146560D01*
X281106Y146653D01*
X281115Y146766D01*
X281134Y146897D01*
X281162Y147038D01*
X281190Y147197D01*
X281227Y147356D01*
X281274Y147534D01*
X281331Y147712D01*
X281406Y147881D01*
X281490Y148059D01*
X281584Y148228D01*
X281696Y148387D01*
X281827Y148537D01*
X281837Y148547D01*
X281865Y148575D01*
X281902Y148612D01*
X281959Y148659D01*
X282034Y148715D01*
X282118Y148781D01*
X282221Y148847D01*
X282333Y148922D01*
X282465Y148997D01*
X282605Y149062D01*
X282755Y149128D01*
X282915Y149184D01*
X283093Y149231D01*
X283280Y149278D01*
X283477Y149297D01*
X283683Y149306D01*
X283692D01*
X283711D01*
X283739D01*
X283777D01*
X283833Y149297D01*
D02*
G37*
G36*
X290750Y140364D02*
Y138499D01*
X288932Y138883D01*
Y140749D01*
X290750Y140364D01*
D02*
G37*
G36*
Y135284D02*
Y133391D01*
X284105Y134778D01*
Y134769D01*
X284124Y134750D01*
X284142Y134722D01*
X284170Y134675D01*
X284198Y134619D01*
X284236Y134553D01*
X284283Y134478D01*
X284330Y134385D01*
X284442Y134188D01*
X284555Y133954D01*
X284676Y133701D01*
X284798Y133419D01*
Y133410D01*
X284808Y133382D01*
X284827Y133344D01*
X284845Y133288D01*
X284873Y133223D01*
X284902Y133147D01*
X284939Y133054D01*
X284977Y132960D01*
X285042Y132745D01*
X285117Y132520D01*
X285183Y132285D01*
X285239Y132051D01*
X283561Y132407D01*
Y132416D01*
X283552Y132435D01*
X283533Y132473D01*
X283514Y132510D01*
X283486Y132576D01*
X283458Y132641D01*
X283421Y132716D01*
X283374Y132810D01*
X283271Y133007D01*
X283149Y133241D01*
X283008Y133504D01*
X282858Y133785D01*
X282680Y134085D01*
X282493Y134394D01*
X282286Y134703D01*
X282071Y135013D01*
X281837Y135322D01*
X281602Y135622D01*
X281349Y135903D01*
X281087Y136166D01*
Y137299D01*
X290750Y135284D01*
D02*
G37*
G36*
Y127008D02*
Y125387D01*
X283786Y124000D01*
Y125846D01*
X286832Y126334D01*
X286842D01*
X286889Y126343D01*
X286945Y126352D01*
X287029Y126362D01*
X287132Y126381D01*
X287245Y126399D01*
X287367Y126418D01*
X287498Y126437D01*
X287770Y126484D01*
X288041Y126521D01*
X288163Y126540D01*
X288276Y126549D01*
X288379Y126568D01*
X288463Y126577D01*
X288454D01*
X288435Y126596D01*
X288388Y126615D01*
X288323Y126662D01*
X288276Y126690D01*
X288210Y126718D01*
X288144Y126755D01*
X288069Y126802D01*
X287976Y126849D01*
X287873Y126905D01*
X287760Y126971D01*
X287629Y127037D01*
X287619Y127046D01*
X287601Y127055D01*
X287563Y127074D01*
X287507Y127102D01*
X287451Y127130D01*
X287385Y127168D01*
X287235Y127252D01*
X287085Y127337D01*
X286935Y127411D01*
X286870Y127449D01*
X286814Y127477D01*
X286767Y127505D01*
X286729Y127524D01*
X283786Y129258D01*
Y131292D01*
X290750Y127008D01*
D02*
G37*
G36*
X248629Y154695D02*
X248789Y154686D01*
X248976Y154677D01*
X249182Y154648D01*
X249398Y154620D01*
X249604Y154573D01*
Y149859D01*
X249623D01*
X249669D01*
X249726Y149850D01*
X249782D01*
X249791D01*
X249810D01*
X249848D01*
X249894Y149859D01*
X249960D01*
X250026Y149868D01*
X250185Y149896D01*
X250363Y149943D01*
X250541Y150018D01*
X250729Y150112D01*
X250897Y150243D01*
Y150253D01*
X250916Y150262D01*
X250963Y150318D01*
X251028Y150403D01*
X251103Y150515D01*
X251188Y150656D01*
X251253Y150824D01*
X251300Y151002D01*
X251310Y151105D01*
X251319Y151209D01*
Y151246D01*
X251310Y151302D01*
X251300Y151368D01*
X251291Y151443D01*
X251272Y151537D01*
X251235Y151640D01*
X251197Y151752D01*
X251150Y151865D01*
X251085Y151987D01*
X251000Y152108D01*
X250916Y152230D01*
X250804Y152352D01*
X250672Y152465D01*
X250522Y152577D01*
X250354Y152680D01*
X250635Y154367D01*
X250644Y154358D01*
X250682Y154348D01*
X250729Y154320D01*
X250804Y154274D01*
X250888Y154227D01*
X250982Y154170D01*
X251085Y154095D01*
X251207Y154020D01*
X251328Y153927D01*
X251450Y153824D01*
X251703Y153599D01*
X251947Y153336D01*
X252050Y153196D01*
X252153Y153046D01*
X252163Y153036D01*
X252172Y153008D01*
X252200Y152961D01*
X252228Y152905D01*
X252266Y152821D01*
X252313Y152727D01*
X252359Y152624D01*
X252406Y152502D01*
X252453Y152371D01*
X252500Y152230D01*
X252537Y152080D01*
X252584Y151921D01*
X252641Y151574D01*
X252650Y151387D01*
X252659Y151199D01*
Y151134D01*
X252650Y151068D01*
X252641Y150965D01*
X252631Y150843D01*
X252612Y150712D01*
X252584Y150553D01*
X252547Y150384D01*
X252500Y150206D01*
X252444Y150028D01*
X252369Y149831D01*
X252284Y149643D01*
X252191Y149447D01*
X252069Y149269D01*
X251938Y149081D01*
X251778Y148912D01*
X251769Y148903D01*
X251741Y148875D01*
X251685Y148828D01*
X251619Y148781D01*
X251525Y148706D01*
X251422Y148640D01*
X251291Y148556D01*
X251150Y148481D01*
X250991Y148397D01*
X250813Y148313D01*
X250616Y148247D01*
X250410Y148181D01*
X250185Y148125D01*
X249951Y148078D01*
X249688Y148050D01*
X249426Y148041D01*
X249407D01*
X249360D01*
X249285Y148050D01*
X249182D01*
X249060Y148069D01*
X248920Y148078D01*
X248751Y148106D01*
X248573Y148144D01*
X248385Y148181D01*
X248179Y148237D01*
X247973Y148294D01*
X247757Y148369D01*
X247533Y148462D01*
X247317Y148566D01*
X247101Y148687D01*
X246886Y148828D01*
X246867Y148837D01*
X246820Y148875D01*
X246745Y148940D01*
X246651Y149025D01*
X246539Y149137D01*
X246408Y149278D01*
X246267Y149437D01*
X246127Y149615D01*
X245986Y149822D01*
X245855Y150056D01*
X245724Y150309D01*
X245611Y150581D01*
X245517Y150881D01*
X245442Y151199D01*
X245396Y151546D01*
X245377Y151912D01*
Y151968D01*
X245386Y152033D01*
Y152127D01*
X245405Y152230D01*
X245414Y152361D01*
X245442Y152493D01*
X245480Y152652D01*
X245517Y152811D01*
X245574Y152971D01*
X245639Y153139D01*
X245714Y153308D01*
X245808Y153477D01*
X245911Y153645D01*
X246033Y153795D01*
X246173Y153945D01*
X246183Y153955D01*
X246211Y153983D01*
X246258Y154020D01*
X246314Y154067D01*
X246398Y154123D01*
X246502Y154189D01*
X246614Y154255D01*
X246745Y154330D01*
X246895Y154395D01*
X247055Y154461D01*
X247242Y154527D01*
X247439Y154583D01*
X247654Y154639D01*
X247879Y154677D01*
X248123Y154695D01*
X248385Y154705D01*
X248395D01*
X248414D01*
X248451D01*
X248498D01*
X248554D01*
X248629Y154695D01*
D02*
G37*
G36*
X247129Y147019D02*
X247176D01*
X247233Y147010D01*
X247308Y147000D01*
X247383Y146991D01*
X247476Y146972D01*
X247579Y146963D01*
X247692Y146944D01*
X247814Y146916D01*
X247945Y146897D01*
X248095Y146869D01*
X248254Y146832D01*
X252500Y145922D01*
Y144048D01*
X248254Y144948D01*
X248245D01*
X248217Y144957D01*
X248179Y144966D01*
X248132Y144976D01*
X248067Y144985D01*
X247992Y145004D01*
X247842Y145032D01*
X247682Y145060D01*
X247542Y145088D01*
X247476Y145098D01*
X247420Y145107D01*
X247383Y145116D01*
X247354D01*
X247345D01*
X247308D01*
X247251Y145107D01*
X247186Y145098D01*
X247111Y145070D01*
X247036Y145042D01*
X246961Y144995D01*
X246895Y144938D01*
X246886Y144929D01*
X246867Y144910D01*
X246839Y144863D01*
X246801Y144807D01*
X246773Y144732D01*
X246745Y144648D01*
X246726Y144535D01*
X246717Y144413D01*
Y144348D01*
X246726Y144292D01*
X246736Y144235D01*
X246755Y144160D01*
X246811Y143992D01*
X246848Y143898D01*
X246895Y143795D01*
X246961Y143692D01*
X247036Y143589D01*
X247120Y143476D01*
X247223Y143373D01*
X247336Y143261D01*
X247467Y143158D01*
X247476D01*
X247495Y143139D01*
X247523Y143120D01*
X247570Y143092D01*
X247626Y143055D01*
X247701Y143017D01*
X247795Y142970D01*
X247898Y142914D01*
X248020Y142867D01*
X248160Y142811D01*
X248311Y142745D01*
X248479Y142689D01*
X248676Y142633D01*
X248882Y142577D01*
X249107Y142520D01*
X249351Y142464D01*
X252500Y141808D01*
Y139933D01*
X248292Y140805D01*
X248282D01*
X248264Y140814D01*
X248226Y140824D01*
X248179Y140833D01*
X248114Y140843D01*
X248048Y140852D01*
X247907Y140880D01*
X247748Y140908D01*
X247589Y140936D01*
X247458Y140946D01*
X247401Y140955D01*
X247354D01*
X247345D01*
X247308D01*
X247251Y140946D01*
X247195Y140936D01*
X247120Y140908D01*
X247045Y140880D01*
X246970Y140833D01*
X246895Y140768D01*
X246886Y140758D01*
X246867Y140730D01*
X246839Y140693D01*
X246801Y140636D01*
X246773Y140561D01*
X246745Y140468D01*
X246726Y140365D01*
X246717Y140252D01*
Y140196D01*
X246726Y140140D01*
X246736Y140055D01*
X246764Y139962D01*
X246792Y139849D01*
X246839Y139737D01*
X246905Y139615D01*
X246914Y139596D01*
X246942Y139558D01*
X246980Y139502D01*
X247036Y139418D01*
X247111Y139334D01*
X247195Y139240D01*
X247298Y139137D01*
X247411Y139043D01*
X247429Y139034D01*
X247467Y139005D01*
X247542Y138959D01*
X247636Y138902D01*
X247748Y138837D01*
X247889Y138762D01*
X248057Y138687D01*
X248235Y138621D01*
X248245D01*
X248282Y138603D01*
X248357Y138584D01*
X248404Y138574D01*
X248460Y138556D01*
X248526Y138537D01*
X248601Y138518D01*
X248685Y138499D01*
X248789Y138471D01*
X248892Y138453D01*
X249023Y138424D01*
X249154Y138387D01*
X249304Y138359D01*
X252500Y137693D01*
Y135819D01*
X245536Y137272D01*
Y139034D01*
X246389Y138865D01*
X246380Y138874D01*
X246342Y138912D01*
X246295Y138968D01*
X246230Y139043D01*
X246155Y139137D01*
X246070Y139259D01*
X245977Y139380D01*
X245883Y139530D01*
X245789Y139690D01*
X245695Y139858D01*
X245611Y140036D01*
X245536Y140224D01*
X245471Y140421D01*
X245424Y140627D01*
X245386Y140833D01*
X245377Y141049D01*
Y141124D01*
X245386Y141180D01*
Y141246D01*
X245396Y141320D01*
X245414Y141499D01*
X245461Y141686D01*
X245517Y141892D01*
X245592Y142089D01*
X245705Y142258D01*
Y142267D01*
X245724Y142277D01*
X245761Y142323D01*
X245836Y142398D01*
X245939Y142492D01*
X246070Y142586D01*
X246230Y142670D01*
X246408Y142755D01*
X246614Y142811D01*
X246605D01*
X246586Y142830D01*
X246567Y142848D01*
X246530Y142876D01*
X246427Y142961D01*
X246305Y143083D01*
X246164Y143223D01*
X246024Y143401D01*
X245874Y143617D01*
X245733Y143851D01*
Y143861D01*
X245714Y143879D01*
X245695Y143917D01*
X245677Y143973D01*
X245649Y144029D01*
X245620Y144104D01*
X245592Y144189D01*
X245555Y144282D01*
X245489Y144488D01*
X245433Y144732D01*
X245396Y144985D01*
X245377Y145257D01*
Y145341D01*
X245386Y145398D01*
Y145463D01*
X245396Y145548D01*
X245433Y145735D01*
X245489Y145941D01*
X245564Y146157D01*
X245677Y146372D01*
X245752Y146466D01*
X245827Y146560D01*
X245836Y146569D01*
X245846Y146579D01*
X245874Y146607D01*
X245911Y146635D01*
X245958Y146672D01*
X246005Y146710D01*
X246145Y146794D01*
X246314Y146878D01*
X246520Y146953D01*
X246755Y147010D01*
X246886Y147019D01*
X247017Y147029D01*
X247036D01*
X247083D01*
X247129Y147019D01*
D02*
G37*
G36*
X244590Y135660D02*
Y133785D01*
X242893Y134132D01*
Y136016D01*
X244590Y135660D01*
D02*
G37*
G36*
X252500Y134010D02*
Y132135D01*
X245536Y133588D01*
Y135463D01*
X252500Y134010D01*
D02*
G37*
G36*
Y130870D02*
Y124000D01*
X242893Y126006D01*
Y127974D01*
X250897Y126306D01*
Y131208D01*
X252500Y130870D01*
D02*
G37*
G36*
X260799Y175252D02*
X260902Y175243D01*
X261024Y175224D01*
X261155Y175196D01*
X261305Y175168D01*
X261465Y175130D01*
X261624Y175084D01*
X261793Y175018D01*
X261961Y174952D01*
X262130Y174868D01*
X262299Y174765D01*
X262468Y174652D01*
X262618Y174521D01*
X262627Y174512D01*
X262655Y174484D01*
X262693Y174446D01*
X262749Y174381D01*
X262805Y174306D01*
X262880Y174212D01*
X262955Y174099D01*
X263039Y173968D01*
X263124Y173818D01*
X263208Y173659D01*
X263292Y173471D01*
X263367Y173275D01*
X263442Y173059D01*
X263508Y172825D01*
X263555Y172572D01*
X263602Y172300D01*
X263620Y172319D01*
X263667Y172365D01*
X263742Y172440D01*
X263836Y172534D01*
X263967Y172647D01*
X264127Y172759D01*
X264305Y172890D01*
X264501Y173012D01*
X264511Y173022D01*
X264558Y173040D01*
X264614Y173078D01*
X264708Y173125D01*
X264820Y173190D01*
X264961Y173265D01*
X265129Y173350D01*
X265317Y173443D01*
X265532Y173556D01*
X265767Y173668D01*
X266029Y173790D01*
X266320Y173921D01*
X266620Y174053D01*
X266957Y174193D01*
X267304Y174343D01*
X267679Y174493D01*
Y172365D01*
X267669D01*
X267641Y172356D01*
X267594Y172337D01*
X267529Y172309D01*
X267435Y172281D01*
X267332Y172244D01*
X267210Y172197D01*
X267060Y172141D01*
X266891Y172075D01*
X266704Y172009D01*
X266498Y171925D01*
X266273Y171831D01*
X266020Y171728D01*
X265748Y171616D01*
X265457Y171494D01*
X265148Y171363D01*
X265139D01*
X265111Y171344D01*
X265064Y171325D01*
X264998Y171288D01*
X264923Y171250D01*
X264839Y171213D01*
X264642Y171100D01*
X264426Y170969D01*
X264220Y170819D01*
X264127Y170744D01*
X264033Y170660D01*
X263958Y170575D01*
X263892Y170491D01*
X263883Y170482D01*
X263864Y170435D01*
X263827Y170369D01*
X263789Y170266D01*
X263761Y170125D01*
X263724Y169966D01*
X263705Y169760D01*
X263695Y169638D01*
Y168710D01*
X267679Y167876D01*
Y165908D01*
X258072Y167913D01*
Y172356D01*
X258081Y172450D01*
Y172553D01*
X258091Y172675D01*
X258100Y172806D01*
X258128Y173078D01*
X258175Y173359D01*
X258231Y173640D01*
X258269Y173762D01*
X258306Y173884D01*
Y173893D01*
X258316Y173912D01*
X258334Y173940D01*
X258353Y173987D01*
X258372Y174043D01*
X258409Y174099D01*
X258494Y174240D01*
X258606Y174399D01*
X258747Y174568D01*
X258925Y174727D01*
X259131Y174877D01*
X259140D01*
X259159Y174896D01*
X259187Y174915D01*
X259234Y174934D01*
X259300Y174971D01*
X259365Y174999D01*
X259450Y175037D01*
X259534Y175074D01*
X259637Y175102D01*
X259750Y175140D01*
X260003Y175205D01*
X260284Y175243D01*
X260593Y175262D01*
X260602D01*
X260649D01*
X260715D01*
X260799Y175252D01*
D02*
G37*
G36*
X262327Y165345D02*
X262458Y165336D01*
X262618Y165327D01*
X262796Y165308D01*
X262992Y165280D01*
X263199Y165252D01*
X263414Y165205D01*
X263649Y165158D01*
X263883Y165102D01*
X264117Y165036D01*
X264352Y164952D01*
X264586Y164858D01*
X264820Y164755D01*
X264830Y164746D01*
X264876Y164727D01*
X264933Y164699D01*
X265017Y164652D01*
X265120Y164586D01*
X265233Y164521D01*
X265364Y164436D01*
X265504Y164352D01*
X265654Y164249D01*
X265814Y164136D01*
X265973Y164005D01*
X266132Y163874D01*
X266442Y163583D01*
X266582Y163433D01*
X266723Y163265D01*
X266732Y163255D01*
X266751Y163237D01*
X266779Y163199D01*
X266817Y163143D01*
X266863Y163077D01*
X266910Y162993D01*
X266966Y162899D01*
X267032Y162787D01*
X267098Y162665D01*
X267163Y162534D01*
X267229Y162384D01*
X267304Y162224D01*
X267369Y162056D01*
X267426Y161877D01*
X267482Y161681D01*
X267538Y161484D01*
Y161474D01*
X267548Y161456D01*
Y161418D01*
X267557Y161371D01*
X267566Y161306D01*
X267585Y161221D01*
X267594Y161128D01*
X267604Y161015D01*
X267623Y160893D01*
X267632Y160753D01*
X267641Y160603D01*
X267660Y160425D01*
X267669Y160247D01*
Y160040D01*
X267679Y159825D01*
Y156207D01*
X258072Y158213D01*
Y161381D01*
X258081Y161615D01*
X258091Y161840D01*
Y161943D01*
X258100Y162037D01*
Y162121D01*
X258109Y162187D01*
Y162215D01*
X258119Y162243D01*
Y162290D01*
X258128Y162337D01*
X258137Y162402D01*
X258156Y162543D01*
X258194Y162712D01*
X258231Y162890D01*
X258287Y163077D01*
X258353Y163255D01*
Y163265D01*
X258362Y163274D01*
X258381Y163330D01*
X258428Y163424D01*
X258484Y163536D01*
X258559Y163668D01*
X258644Y163818D01*
X258747Y163958D01*
X258869Y164108D01*
X258887Y164127D01*
X258925Y164174D01*
X259000Y164249D01*
X259093Y164333D01*
X259206Y164436D01*
X259347Y164549D01*
X259496Y164661D01*
X259665Y164764D01*
X259675D01*
X259684Y164774D01*
X259712Y164792D01*
X259750Y164811D01*
X259843Y164858D01*
X259974Y164924D01*
X260124Y164989D01*
X260312Y165064D01*
X260509Y165130D01*
X260734Y165195D01*
X260743D01*
X260762Y165205D01*
X260790Y165214D01*
X260837Y165224D01*
X260893Y165233D01*
X260968Y165242D01*
X261043Y165261D01*
X261127Y165280D01*
X261324Y165308D01*
X261549Y165327D01*
X261802Y165345D01*
X262065Y165355D01*
X262083D01*
X262130D01*
X262215D01*
X262327Y165345D01*
D02*
G37*
G36*
X260893Y153855D02*
X260884D01*
X260865D01*
X260827Y153845D01*
X260781Y153836D01*
X260724Y153827D01*
X260659Y153808D01*
X260509Y153761D01*
X260340Y153695D01*
X260162Y153611D01*
X259993Y153498D01*
X259843Y153349D01*
X259825Y153330D01*
X259806Y153302D01*
X259787Y153273D01*
X259759Y153227D01*
X259722Y153170D01*
X259693Y153105D01*
X259656Y153030D01*
X259618Y152945D01*
X259590Y152861D01*
X259553Y152758D01*
X259525Y152646D01*
X259506Y152514D01*
X259487Y152383D01*
X259468Y152242D01*
Y151961D01*
X259478Y151886D01*
X259487Y151811D01*
X259506Y151633D01*
X259543Y151446D01*
X259590Y151249D01*
X259665Y151071D01*
X259712Y150996D01*
X259759Y150921D01*
X259768Y150902D01*
X259815Y150865D01*
X259871Y150808D01*
X259956Y150752D01*
X260068Y150687D01*
X260190Y150630D01*
X260331Y150593D01*
X260490Y150574D01*
X260509D01*
X260556Y150583D01*
X260631Y150593D01*
X260734Y150612D01*
X260837Y150649D01*
X260949Y150705D01*
X261071Y150790D01*
X261174Y150893D01*
X261184Y150912D01*
X261202Y150930D01*
X261221Y150958D01*
X261249Y150996D01*
X261287Y151052D01*
X261324Y151118D01*
X261371Y151193D01*
X261418Y151277D01*
X261474Y151380D01*
X261540Y151493D01*
X261605Y151624D01*
X261680Y151774D01*
X261755Y151933D01*
X261840Y152111D01*
X261924Y152308D01*
Y152317D01*
X261933Y152327D01*
X261952Y152383D01*
X261990Y152467D01*
X262046Y152570D01*
X262102Y152711D01*
X262177Y152861D01*
X262252Y153020D01*
X262336Y153198D01*
X262524Y153555D01*
X262618Y153733D01*
X262711Y153901D01*
X262814Y154061D01*
X262908Y154201D01*
X263002Y154323D01*
X263086Y154426D01*
X263096Y154436D01*
X263114Y154454D01*
X263152Y154492D01*
X263208Y154529D01*
X263274Y154586D01*
X263349Y154642D01*
X263442Y154698D01*
X263545Y154764D01*
X263658Y154829D01*
X263789Y154886D01*
X263920Y154942D01*
X264070Y154998D01*
X264239Y155035D01*
X264408Y155073D01*
X264586Y155092D01*
X264773Y155101D01*
X264792D01*
X264830D01*
X264895Y155092D01*
X264989Y155082D01*
X265092Y155073D01*
X265223Y155045D01*
X265364Y155017D01*
X265514Y154979D01*
X265682Y154923D01*
X265861Y154857D01*
X266039Y154773D01*
X266217Y154670D01*
X266404Y154558D01*
X266582Y154426D01*
X266770Y154267D01*
X266938Y154089D01*
X266948Y154080D01*
X266976Y154042D01*
X267023Y153986D01*
X267079Y153901D01*
X267145Y153798D01*
X267220Y153677D01*
X267304Y153536D01*
X267388Y153367D01*
X267473Y153180D01*
X267557Y152964D01*
X267632Y152739D01*
X267698Y152486D01*
X267754Y152214D01*
X267801Y151933D01*
X267829Y151624D01*
X267838Y151296D01*
Y151174D01*
X267829Y151090D01*
Y150977D01*
X267819Y150855D01*
X267801Y150715D01*
X267782Y150565D01*
X267763Y150396D01*
X267735Y150227D01*
X267660Y149871D01*
X267557Y149506D01*
X267501Y149328D01*
X267426Y149150D01*
X267416Y149140D01*
X267407Y149112D01*
X267379Y149065D01*
X267351Y149000D01*
X267304Y148925D01*
X267257Y148840D01*
X267126Y148653D01*
X266966Y148437D01*
X266770Y148222D01*
X266535Y148025D01*
X266404Y147941D01*
X266273Y147865D01*
X266264D01*
X266235Y147847D01*
X266198Y147828D01*
X266142Y147809D01*
X266076Y147781D01*
X265992Y147753D01*
X265889Y147716D01*
X265786Y147687D01*
X265664Y147650D01*
X265532Y147622D01*
X265392Y147594D01*
X265242Y147566D01*
X264914Y147537D01*
X264567Y147528D01*
X264464Y149412D01*
X264473D01*
X264501D01*
X264548Y149421D01*
X264605D01*
X264680Y149431D01*
X264764Y149440D01*
X264951Y149468D01*
X265158Y149506D01*
X265354Y149553D01*
X265542Y149628D01*
X265617Y149665D01*
X265682Y149712D01*
X265692Y149721D01*
X265701Y149731D01*
X265729Y149759D01*
X265757Y149796D01*
X265795Y149853D01*
X265842Y149909D01*
X265889Y149984D01*
X265935Y150077D01*
X265982Y150181D01*
X266029Y150293D01*
X266067Y150424D01*
X266114Y150574D01*
X266142Y150733D01*
X266170Y150912D01*
X266179Y151108D01*
X266189Y151315D01*
Y151408D01*
X266179Y151474D01*
Y151549D01*
X266170Y151643D01*
X266160Y151746D01*
X266142Y151849D01*
X266104Y152083D01*
X266039Y152308D01*
X265954Y152524D01*
X265898Y152627D01*
X265842Y152711D01*
Y152720D01*
X265823Y152730D01*
X265776Y152777D01*
X265711Y152852D01*
X265607Y152936D01*
X265486Y153011D01*
X265345Y153086D01*
X265186Y153133D01*
X265101Y153152D01*
X265008D01*
X264998D01*
X264989D01*
X264933Y153142D01*
X264858Y153133D01*
X264755Y153105D01*
X264642Y153067D01*
X264520Y153002D01*
X264398Y152917D01*
X264286Y152795D01*
X264277Y152786D01*
X264267Y152767D01*
X264248Y152739D01*
X264220Y152702D01*
X264192Y152655D01*
X264155Y152599D01*
X264117Y152533D01*
X264070Y152449D01*
X264023Y152346D01*
X263958Y152233D01*
X263902Y152111D01*
X263827Y151961D01*
X263752Y151802D01*
X263667Y151615D01*
X263583Y151418D01*
X263574Y151408D01*
X263564Y151371D01*
X263536Y151315D01*
X263499Y151240D01*
X263461Y151146D01*
X263414Y151033D01*
X263358Y150921D01*
X263302Y150799D01*
X263171Y150527D01*
X263039Y150255D01*
X262899Y150002D01*
X262843Y149890D01*
X262777Y149787D01*
Y149777D01*
X262758Y149768D01*
X262739Y149740D01*
X262721Y149703D01*
X262646Y149609D01*
X262552Y149496D01*
X262430Y149365D01*
X262280Y149234D01*
X262121Y149103D01*
X261933Y148981D01*
X261924D01*
X261905Y148972D01*
X261877Y148953D01*
X261840Y148934D01*
X261793Y148915D01*
X261737Y148887D01*
X261587Y148840D01*
X261409Y148784D01*
X261202Y148737D01*
X260977Y148700D01*
X260724Y148690D01*
X260706D01*
X260668D01*
X260602Y148700D01*
X260518D01*
X260415Y148718D01*
X260293Y148737D01*
X260162Y148765D01*
X260012Y148803D01*
X259862Y148850D01*
X259693Y148906D01*
X259525Y148972D01*
X259356Y149056D01*
X259187Y149159D01*
X259028Y149271D01*
X258859Y149412D01*
X258709Y149562D01*
X258700Y149571D01*
X258672Y149599D01*
X258634Y149656D01*
X258587Y149721D01*
X258522Y149815D01*
X258456Y149928D01*
X258381Y150059D01*
X258306Y150209D01*
X258231Y150377D01*
X258156Y150574D01*
X258091Y150780D01*
X258025Y151005D01*
X257978Y151249D01*
X257941Y151521D01*
X257913Y151802D01*
X257903Y152102D01*
Y152177D01*
X257913Y152261D01*
Y152383D01*
X257931Y152524D01*
X257941Y152692D01*
X257969Y152871D01*
X258006Y153067D01*
X258044Y153273D01*
X258100Y153489D01*
X258166Y153705D01*
X258241Y153930D01*
X258334Y154136D01*
X258437Y154351D01*
X258559Y154548D01*
X258700Y154726D01*
X258709Y154736D01*
X258737Y154764D01*
X258784Y154811D01*
X258840Y154876D01*
X258925Y154942D01*
X259018Y155026D01*
X259131Y155111D01*
X259262Y155204D01*
X259403Y155298D01*
X259562Y155382D01*
X259740Y155467D01*
X259928Y155551D01*
X260124Y155617D01*
X260340Y155673D01*
X260565Y155720D01*
X260809Y155748D01*
X260893Y153855D01*
D02*
G37*
%LPC*%
G36*
X275023Y157226D02*
X275014D01*
X274995D01*
X274957D01*
X274910Y157217D01*
X274854D01*
X274789Y157207D01*
X274639Y157179D01*
X274461Y157132D01*
X274282Y157057D01*
X274104Y156964D01*
X273945Y156832D01*
X273936D01*
X273926Y156813D01*
X273879Y156757D01*
X273814Y156673D01*
X273739Y156560D01*
X273673Y156411D01*
X273608Y156242D01*
X273561Y156045D01*
X273542Y155933D01*
Y155764D01*
X273551Y155717D01*
Y155661D01*
X273561Y155604D01*
X273589Y155455D01*
X273636Y155286D01*
X273701Y155108D01*
X273795Y154920D01*
X273926Y154742D01*
Y154733D01*
X273945Y154723D01*
X273992Y154667D01*
X274086Y154583D01*
X274207Y154480D01*
X274357Y154358D01*
X274545Y154236D01*
X274770Y154114D01*
X275023Y154011D01*
X275032D01*
X275051Y154002D01*
X275089Y153983D01*
X275145Y153974D01*
X275210Y153955D01*
X275276Y153927D01*
X275360Y153908D01*
X275454Y153880D01*
X275660Y153833D01*
X275876Y153786D01*
X276110Y153758D01*
X276335Y153749D01*
X276344D01*
X276363D01*
X276410D01*
X276457Y153758D01*
X276523D01*
X276597Y153767D01*
X276766Y153795D01*
X276954Y153852D01*
X277150Y153917D01*
X277347Y154021D01*
X277441Y154077D01*
X277525Y154152D01*
Y154161D01*
X277544Y154170D01*
X277591Y154227D01*
X277666Y154311D01*
X277741Y154433D01*
X277816Y154583D01*
X277891Y154752D01*
X277938Y154948D01*
X277947Y155061D01*
X277957Y155173D01*
Y155248D01*
X277947Y155304D01*
X277938Y155370D01*
X277919Y155445D01*
X277872Y155633D01*
X277844Y155726D01*
X277797Y155829D01*
X277741Y155942D01*
X277675Y156054D01*
X277600Y156157D01*
X277516Y156270D01*
X277413Y156373D01*
X277300Y156476D01*
X277291Y156486D01*
X277253Y156504D01*
X277207Y156542D01*
X277132Y156598D01*
X277038Y156654D01*
X276935Y156710D01*
X276804Y156785D01*
X276663Y156851D01*
X276504Y156917D01*
X276335Y156992D01*
X276148Y157048D01*
X275941Y157113D01*
X275726Y157160D01*
X275501Y157198D01*
X275267Y157217D01*
X275023Y157226D01*
D02*
G37*
G36*
X248460Y152989D02*
X248451D01*
X248442D01*
X248395D01*
X248329D01*
X248273D01*
X248264D01*
X248235D01*
X248198D01*
X248142Y152980D01*
X248076D01*
X248011Y152971D01*
X247832Y152943D01*
X247645Y152905D01*
X247458Y152839D01*
X247270Y152755D01*
X247111Y152643D01*
X247092Y152624D01*
X247045Y152577D01*
X246989Y152502D01*
X246914Y152399D01*
X246839Y152268D01*
X246783Y152108D01*
X246736Y151921D01*
X246717Y151715D01*
Y151658D01*
X246726Y151621D01*
Y151565D01*
X246736Y151509D01*
X246773Y151368D01*
X246830Y151199D01*
X246905Y151031D01*
X247017Y150843D01*
X247092Y150759D01*
X247167Y150665D01*
X247176Y150656D01*
X247186Y150646D01*
X247214Y150618D01*
X247251Y150590D01*
X247298Y150553D01*
X247354Y150515D01*
X247420Y150468D01*
X247495Y150412D01*
X247579Y150365D01*
X247673Y150309D01*
X247786Y150262D01*
X247898Y150215D01*
X248020Y150159D01*
X248160Y150121D01*
X248301Y150084D01*
X248460Y150046D01*
Y152989D01*
D02*
G37*
G36*
X260621Y173293D02*
X260612D01*
X260602D01*
X260574D01*
X260537Y173284D01*
X260443Y173275D01*
X260321Y173237D01*
X260200Y173190D01*
X260068Y173115D01*
X259946Y173003D01*
X259890Y172937D01*
X259834Y172862D01*
X259825Y172853D01*
X259806Y172806D01*
X259787Y172731D01*
X259768Y172684D01*
X259750Y172619D01*
X259740Y172553D01*
X259722Y172469D01*
X259712Y172375D01*
X259703Y172272D01*
X259693Y172159D01*
X259684Y172028D01*
X259675Y171887D01*
Y169544D01*
X262252Y169010D01*
Y170313D01*
X262243Y170444D01*
Y170594D01*
X262233Y170753D01*
X262224Y170922D01*
X262205Y171278D01*
X262186Y171447D01*
X262177Y171625D01*
X262149Y171784D01*
X262130Y171934D01*
X262093Y172056D01*
X262065Y172169D01*
Y172178D01*
X262055Y172197D01*
X262046Y172215D01*
X262027Y172253D01*
X261980Y172347D01*
X261924Y172469D01*
X261840Y172600D01*
X261737Y172740D01*
X261615Y172872D01*
X261474Y172993D01*
X261465D01*
X261455Y173003D01*
X261399Y173040D01*
X261324Y173087D01*
X261212Y173143D01*
X261080Y173200D01*
X260940Y173246D01*
X260781Y173284D01*
X260621Y173293D01*
D02*
G37*
G36*
X262224Y163368D02*
X261999D01*
X261990D01*
X261952D01*
X261905D01*
X261830Y163358D01*
X261746D01*
X261652Y163349D01*
X261540Y163340D01*
X261427Y163330D01*
X261174Y163283D01*
X260921Y163227D01*
X260678Y163143D01*
X260565Y163087D01*
X260462Y163030D01*
X260452D01*
X260443Y163012D01*
X260415Y162993D01*
X260378Y162974D01*
X260293Y162899D01*
X260181Y162805D01*
X260068Y162684D01*
X259956Y162552D01*
X259853Y162393D01*
X259778Y162215D01*
X259768Y162196D01*
X259759Y162149D01*
X259750Y162112D01*
X259740Y162056D01*
X259731Y161999D01*
X259712Y161934D01*
X259703Y161859D01*
X259693Y161765D01*
X259684Y161662D01*
X259675Y161559D01*
X259665Y161437D01*
Y161296D01*
X259656Y161156D01*
Y159853D01*
X266132Y158494D01*
Y159778D01*
X266123Y159872D01*
Y159994D01*
X266114Y160116D01*
X266104Y160368D01*
X266076Y160631D01*
X266048Y160875D01*
X266020Y160987D01*
X266001Y161081D01*
Y161090D01*
X265992Y161100D01*
X265982Y161128D01*
X265973Y161165D01*
X265935Y161259D01*
X265889Y161381D01*
X265823Y161512D01*
X265739Y161662D01*
X265626Y161821D01*
X265504Y161981D01*
X265495Y161990D01*
X265476Y162009D01*
X265448Y162037D01*
X265411Y162074D01*
X265354Y162131D01*
X265289Y162187D01*
X265214Y162252D01*
X265129Y162318D01*
X265026Y162393D01*
X264923Y162477D01*
X264811Y162562D01*
X264680Y162637D01*
X264398Y162805D01*
X264089Y162965D01*
X264080Y162974D01*
X264052Y162983D01*
X263995Y163002D01*
X263930Y163030D01*
X263845Y163058D01*
X263742Y163096D01*
X263630Y163134D01*
X263489Y163171D01*
X263349Y163208D01*
X263189Y163237D01*
X263011Y163274D01*
X262833Y163302D01*
X262636Y163330D01*
X262430Y163349D01*
X262224Y163368D01*
D02*
G37*
%LPD*%
D10*
X268000Y228750D02*
G03*
X268000Y228750I-6500J0D01*
G01*
X232000Y243750D02*
G03*
X232000Y243750I-6500J0D01*
G01*
X214000Y195750D02*
Y199750D01*
X220500Y199750D02*
X220500Y195750D01*
X222854Y181389D02*
Y184389D01*
X220854Y179639D02*
X224853D01*
X220854Y186139D02*
X224854D01*
X220854Y186139D02*
X224853D01*
X220854Y192639D02*
X224853D01*
X222854Y187889D02*
Y190889D01*
X53000Y225750D02*
X56000D01*
X57750Y223750D02*
Y227750D01*
X51250Y223750D02*
Y227750D01*
X51250Y223750D02*
Y227750D01*
X44750Y223750D02*
Y227750D01*
X46500Y225750D02*
X49500D01*
X48750Y234750D02*
Y238750D01*
X55250Y234750D02*
Y238750D01*
X72750Y195250D02*
X76750D01*
X72750Y188750D02*
X76750D01*
X74750Y190500D02*
Y193500D01*
X2250Y41250D02*
X6250D01*
X2250Y47750D02*
X6250D01*
X104500Y186250D02*
Y190250D01*
X95500Y186250D02*
Y190250D01*
X144500Y190750D02*
Y194750D01*
X153500Y190750D02*
Y194750D01*
X169510Y166500D02*
Y170500D01*
X178510Y166500D02*
Y170500D01*
X94500Y194500D02*
X98500D01*
X94500Y201000D02*
X98500D01*
X96500Y196250D02*
Y199250D01*
X84750Y69750D02*
X87750D01*
X83000Y67750D02*
Y71750D01*
X89500Y67750D02*
Y71750D01*
X175750Y183000D02*
X179750D01*
X175750Y189500D02*
X179750D01*
X152000Y164000D02*
Y168000D01*
X158500Y164000D02*
Y168000D01*
X163500Y170000D02*
X166500D01*
X161750Y168000D02*
Y172000D01*
X168250Y168000D02*
Y172000D01*
X196000Y24750D02*
Y27750D01*
X194000Y29500D02*
X198000D01*
X194000Y23000D02*
X198000D01*
X158250Y192000D02*
Y196000D01*
X164750Y192000D02*
Y196000D01*
X176250Y151300D02*
X179250D01*
X181000Y149300D02*
Y153300D01*
X174500Y149300D02*
Y153300D01*
X164950Y132000D02*
Y135000D01*
X162950Y130250D02*
X166950D01*
X162950Y136750D02*
X166950D01*
X152250Y141750D02*
Y144750D01*
X150250Y140000D02*
X154250D01*
X150250Y146500D02*
X154250D01*
X165750Y123000D02*
X168750D01*
X170500Y121000D02*
Y125000D01*
X164000Y121000D02*
Y125000D01*
X138000Y125250D02*
X142000D01*
X138000Y131750D02*
X142000D01*
X4250Y224500D02*
Y227500D01*
X2250Y222750D02*
X6250D01*
X2250Y229250D02*
X6250D01*
X4250Y231750D02*
Y234750D01*
X2250Y230000D02*
X6250D01*
X2250Y236500D02*
X6250D01*
X4250Y105968D02*
Y108968D01*
X2250Y104218D02*
X6250D01*
X2250Y110718D02*
X6250D01*
X4250Y97526D02*
Y100526D01*
X2250Y95776D02*
X6250D01*
X2250Y102276D02*
X6250D01*
X157750Y252000D02*
X161750Y252000D01*
X157750Y245500D02*
X161750D01*
X75750Y72250D02*
X79750Y72250D01*
X75750Y65750D02*
X79750D01*
X142500Y143750D02*
X145500D01*
X140750Y141750D02*
Y145750D01*
X147250Y141750D02*
Y145750D01*
X114500Y135000D02*
X117500D01*
X112750Y133000D02*
Y137000D01*
X119250Y133000D02*
Y137000D01*
X108000Y135000D02*
X111000D01*
X106250Y133000D02*
Y137000D01*
X112750Y133000D02*
Y137000D01*
X108000Y123500D02*
X111000D01*
X112750Y121500D02*
Y125500D01*
X106250Y121500D02*
Y125500D01*
X114500Y123500D02*
X117500D01*
X119250Y121500D02*
Y125500D01*
X112750Y121500D02*
Y125500D01*
X123500Y140750D02*
X126500D01*
X128250Y138750D02*
Y142750D01*
X121750Y138750D02*
Y142750D01*
X168750Y141250D02*
X171750D01*
X173500Y139250D02*
Y143250D01*
X167000Y139250D02*
Y143250D01*
X154125Y181300D02*
X157125D01*
X152375Y179300D02*
Y183300D01*
X158875Y179300D02*
Y183300D01*
X161875Y181300D02*
X164875D01*
X160125Y179300D02*
Y183300D01*
X166625Y179300D02*
Y183300D01*
X168375Y181300D02*
X171375D01*
X166625Y179300D02*
Y183300D01*
X173125Y179300D02*
Y183300D01*
X162005Y145700D02*
X165005D01*
X160255Y143700D02*
Y147700D01*
X166755Y143700D02*
Y147700D01*
X131500Y150500D02*
Y153500D01*
X129500Y148750D02*
X133500D01*
X129500Y155250D02*
X133500D01*
X143000Y150500D02*
Y153500D01*
X141000Y155250D02*
X145000D01*
X141000Y148750D02*
X145000D01*
X142000Y120500D02*
Y123500D01*
X140000Y118750D02*
X144000D01*
X140000Y125250D02*
X144000D01*
X134400Y133200D02*
Y136200D01*
X132400Y137950D02*
X136400D01*
X132400Y131450D02*
X136400D01*
X146000Y160500D02*
X149000D01*
X150750Y158500D02*
Y162500D01*
X144250Y158500D02*
Y162500D01*
X164500Y160500D02*
Y163500D01*
X162500Y165250D02*
X166500D01*
X162500Y158750D02*
X166500D01*
X120000Y174250D02*
X123000D01*
X124750Y172250D02*
Y176250D01*
X118250Y172250D02*
Y176250D01*
X135750Y176750D02*
X138750D01*
X134000Y174750D02*
Y178750D01*
X140500Y174750D02*
Y178750D01*
X139250Y186000D02*
Y189000D01*
X137250Y190750D02*
X141250D01*
X137250Y184250D02*
X141250D01*
X111000Y156000D02*
X114000D01*
X115750Y154000D02*
Y158000D01*
X109250Y154000D02*
Y158000D01*
X96750Y100500D02*
X104000D01*
X96750Y113500D02*
X104000D01*
X112500D02*
X119750D01*
X112500Y100500D02*
X119750D01*
Y102500D01*
Y111500D02*
Y113500D01*
X96750Y111500D02*
Y113500D01*
Y100500D02*
Y102500D01*
X206000Y148000D02*
Y155250D01*
X193000Y148000D02*
Y155250D01*
Y163750D02*
Y171000D01*
X206000Y163750D02*
Y171000D01*
X204000D02*
X206000D01*
X193000D02*
X195000D01*
X193000Y148000D02*
X195000D01*
X204000D02*
X206000D01*
X178500Y175500D02*
Y182750D01*
X191500Y175500D02*
Y182750D01*
Y159750D02*
Y167000D01*
X178500Y159750D02*
Y167000D01*
Y159750D02*
X180500D01*
X189500D02*
X191500D01*
X189500Y182750D02*
X191500D01*
X178500D02*
X180500D01*
X106000Y96750D02*
X113250D01*
X106000Y83750D02*
X113250D01*
X90250D02*
X97500D01*
X90250Y96750D02*
X97500D01*
X90250Y94750D02*
Y96750D01*
Y83750D02*
Y85750D01*
X113250Y83750D02*
Y85750D01*
Y94750D02*
Y96750D01*
X125500Y194000D02*
X132750D01*
X125500Y181000D02*
X132750Y181000D01*
X109750Y181000D02*
X117000Y181000D01*
X109750Y194000D02*
X117000D01*
X109750Y192000D02*
X109750Y194000D01*
X109750Y183000D02*
X109750Y181000D01*
X132750Y181000D02*
X132750Y183000D01*
X132750Y192000D02*
Y194000D01*
X76750Y11750D02*
X80750Y11750D01*
X76750Y5250D02*
X80750D01*
X2250Y252500D02*
X6250D01*
X2250Y246000D02*
X6250D01*
X290250Y254250D02*
Y258250D01*
X296750Y254250D02*
Y258250D01*
X9000Y181750D02*
X13000Y181750D01*
X9000Y175250D02*
X13000Y175250D01*
X96250Y163900D02*
Y167900D01*
X89750Y163900D02*
Y167900D01*
X12750Y144250D02*
X16750Y144250D01*
X12750Y137750D02*
X16750D01*
X76000Y180500D02*
Y184500D01*
X69500Y180500D02*
Y184500D01*
X2250Y149250D02*
X6250D01*
X2250Y142750D02*
X6250D01*
X69750Y169500D02*
Y173500D01*
X76250Y169500D02*
Y173500D01*
X84000Y188750D02*
X88000D01*
X84000Y195250D02*
X88000D01*
X74000Y151000D02*
X78000D01*
X74000Y144500D02*
X78000D01*
X26200Y137750D02*
X30200D01*
X26200Y131250D02*
X30200D01*
X74000Y136000D02*
X78000D01*
X74000Y129500D02*
X78000D01*
X74000Y143500D02*
X78000D01*
X74000Y137000D02*
X78000D01*
X275450Y236050D02*
X279450D01*
X275450Y242550D02*
X279450D01*
X275450Y242500D02*
X279450D01*
X275450Y249000D02*
X279450D01*
X157750Y252000D02*
X161750Y252000D01*
X157750Y258500D02*
X161750D01*
X92130Y145250D02*
X96130D01*
X92130Y151750D02*
X96130D01*
X109750Y172250D02*
Y176250D01*
X116250Y172250D02*
Y176250D01*
X130510Y171750D02*
X134509D01*
X130510Y165250D02*
X134509D01*
X132250Y161750D02*
X136250D01*
X132250Y155250D02*
X136250D01*
X90000Y156250D02*
Y160250D01*
X83500Y156250D02*
Y160250D01*
X121250Y157000D02*
X124250D01*
X119500Y155000D02*
Y159000D01*
X126000Y155000D02*
Y159000D01*
X109500Y145500D02*
X112500D01*
X107750Y143500D02*
Y147500D01*
X114250Y143500D02*
Y147500D01*
X116000Y145500D02*
X119000D01*
X114250Y143500D02*
Y147500D01*
X120750Y143500D02*
Y147500D01*
X152000Y130500D02*
X155000D01*
X150250Y128500D02*
Y132500D01*
X156750Y128500D02*
Y132500D01*
X79250Y113250D02*
X79250Y116250D01*
X77250Y111500D02*
X81250D01*
X77250Y118000D02*
X81250D01*
X12250Y164000D02*
Y167000D01*
X10250Y162250D02*
X14250D01*
X10250Y168750D02*
X14250D01*
X14450Y170500D02*
Y173500D01*
X12450Y168750D02*
X16450D01*
X12450Y175250D02*
X16450D01*
X12250Y157500D02*
Y160500D01*
X10250Y155750D02*
X14250D01*
X10250Y162250D02*
X14250D01*
X78500Y158250D02*
X81500D01*
X76750Y156250D02*
Y160250D01*
X83250Y156250D02*
Y160250D01*
X15750Y183500D02*
X15750Y186500D01*
X13750Y181750D02*
X17750Y181750D01*
X13750Y188250D02*
X17750D01*
X3500Y170500D02*
Y173500D01*
X1500Y168750D02*
X5500D01*
X1500Y175250D02*
X5500D01*
X4250Y129500D02*
Y132500D01*
X2250Y127750D02*
X6250D01*
X2250Y134250D02*
X6250D01*
X71750Y158250D02*
X74750D01*
X76500Y156250D02*
Y160250D01*
X70000Y156250D02*
Y160250D01*
X78250Y171500D02*
X81250D01*
X83000Y169500D02*
Y173500D01*
X76500Y169500D02*
Y173500D01*
X85000Y171500D02*
X88000D01*
X83250Y169500D02*
Y173500D01*
X89750Y169500D02*
Y173500D01*
X15500Y151250D02*
X18500D01*
X13750Y149250D02*
Y153250D01*
X20250Y149250D02*
Y153250D01*
X4250Y137000D02*
Y140000D01*
X2250Y141750D02*
X6250D01*
X2250Y135250D02*
X6250D01*
X53000Y191000D02*
Y194000D01*
X51000Y195750D02*
X55000D01*
X51000Y189250D02*
X55000D01*
X64250Y191000D02*
Y194000D01*
X62250Y189250D02*
X66250D01*
X62250Y195750D02*
X66250D01*
X84750Y182500D02*
X87750D01*
X83000Y180500D02*
Y184500D01*
X89500Y180500D02*
Y184500D01*
X78000Y182500D02*
X81000D01*
X76250Y180500D02*
Y184500D01*
X82750Y180500D02*
Y184500D01*
X17450Y133000D02*
X17450Y136000D01*
X15450Y137750D02*
X19450D01*
X15450Y131250D02*
X19450D01*
X15250Y195500D02*
X15250Y191500D01*
X8750Y191500D02*
Y195500D01*
X4950Y205125D02*
X8950Y205125D01*
X4950Y198625D02*
X8950D01*
X134000Y102000D02*
Y104000D01*
X132000Y102000D02*
X134000D01*
X132000D02*
Y104000D01*
Y72000D02*
X164000D01*
X132000Y104000D02*
X164000D01*
X29250Y242500D02*
Y246500D01*
X35750Y242500D02*
Y246500D01*
X202250Y13250D02*
X202250Y17250D01*
X195750D02*
X195750Y13250D01*
X236350Y159581D02*
X239350D01*
X241100Y161581D02*
X241100Y157581D01*
X234600D02*
X234600Y161581D01*
X38500Y223500D02*
Y227500D01*
X32000Y223500D02*
Y227500D01*
X2224Y156718D02*
X6224D01*
X2224Y150218D02*
X6224D01*
X188000Y256000D02*
X192000Y256000D01*
X188000Y249500D02*
X192000Y249500D01*
X65500Y15250D02*
X69500Y15250D01*
X65500Y8750D02*
X69500Y8750D01*
X178250Y67000D02*
Y71000D01*
X184750Y67000D02*
Y71000D01*
X347000Y20500D02*
Y24500D01*
X340500Y20500D02*
Y24500D01*
X342250Y22500D02*
X345250D01*
X-0Y210575D02*
Y214575D01*
X6500Y210575D02*
Y214575D01*
X191250Y73846D02*
X191250Y69846D01*
X184750D02*
X184750Y73846D01*
X357000Y53500D02*
X360000D01*
X361750Y51500D02*
Y55500D01*
X355250Y51500D02*
Y55500D01*
X350250Y53500D02*
X353250D01*
X355000Y51500D02*
Y55500D01*
X348500Y51500D02*
Y55500D01*
X8250Y212575D02*
X11250Y212575D01*
X6500Y210575D02*
Y214575D01*
X13000Y210575D02*
Y214575D01*
X170500Y91904D02*
X170500Y95904D01*
X177000D02*
X177000Y91904D01*
X170500Y77554D02*
X170500Y81554D01*
X177000Y77554D02*
Y81554D01*
X184346Y231500D02*
X188346Y231500D01*
X184346Y238000D02*
X188346Y238000D01*
X199446Y231750D02*
X203446Y231750D01*
X199446Y238250D02*
X203446Y238250D01*
X191250Y80946D02*
X191250Y84946D01*
X184750D02*
X184750Y80946D01*
X190750Y17250D02*
X190750Y13250D01*
X184250D02*
X184250Y17250D01*
X232000Y189004D02*
X236000D01*
X232000Y195504D02*
X236000D01*
X232000Y196317D02*
X236000D01*
X232000Y202817D02*
X236000D01*
X116500Y29050D02*
X119500Y29050D01*
X121250Y27050D02*
X121250Y31050D01*
X114750Y27050D02*
Y31050D01*
X275750Y32200D02*
X278750Y32200D01*
X274000Y30200D02*
X274000Y34200D01*
X280500Y30200D02*
Y34200D01*
X79300Y119750D02*
X79300Y122750D01*
X77300Y118000D02*
X81300D01*
X77300Y124500D02*
X81300D01*
X54250Y16500D02*
X57250Y16500D01*
X52500Y14500D02*
Y18500D01*
X59000Y14500D02*
Y18500D01*
X40000Y51350D02*
X43000D01*
X44750Y49350D02*
Y53350D01*
X38250Y49350D02*
X38250Y53350D01*
X178000Y195000D02*
Y227000D01*
X210000Y195000D02*
Y227000D01*
X178000Y195000D02*
X180000D01*
Y197000D01*
X178000D02*
X180000D01*
X230000Y141500D02*
X234000D01*
X230000Y148000D02*
X234000D01*
X66000Y2000D02*
X70000D01*
X66000Y8500D02*
X70000D01*
X51300Y50850D02*
X51300Y46850D01*
X57800D02*
X57800Y50850D01*
X27700Y57950D02*
X31700D01*
X27700Y51450D02*
X31700Y51450D01*
X44800Y49350D02*
X44800Y53350D01*
X51300Y53350D02*
X51300Y49350D01*
X191750Y249750D02*
X195750D01*
X191750Y243250D02*
X195750D01*
X170750Y106000D02*
X174750D01*
X170750Y99500D02*
X174750D01*
X47950Y43200D02*
X51950D01*
X47950Y36700D02*
X51950Y36700D01*
X40000Y226750D02*
X43000D01*
X38250Y224750D02*
Y228750D01*
X44750Y224750D02*
Y228750D01*
X40100Y215903D02*
X43100Y215903D01*
X44850Y213903D02*
Y217903D01*
X38350Y213903D02*
X38350Y217903D01*
X309750Y164000D02*
Y168000D01*
X303250Y164000D02*
Y168000D01*
X218000Y167250D02*
X222000D01*
X218000Y173750D02*
X222000D01*
X230000Y148000D02*
X234000D01*
X230000Y154500D02*
X234000D01*
X259000Y177500D02*
Y181500D01*
X252500Y177500D02*
Y181500D01*
X194500Y58750D02*
X226500D01*
X194500Y90750D02*
X226500D01*
Y58750D02*
Y60750D01*
X224500D02*
X226500D01*
X224500Y58750D02*
Y60750D01*
X389000Y52500D02*
Y56500D01*
X382500Y52500D02*
Y56500D01*
X312250Y54000D02*
X316250D01*
X312250Y47500D02*
X316250D01*
X422000Y109000D02*
X426000Y109000D01*
X422000Y115500D02*
X426000Y115500D01*
X397750Y245750D02*
X401750D01*
X397750Y252250D02*
X401750D01*
X312250Y248500D02*
X316250D01*
X312250Y242000D02*
X316250D01*
X2250Y58026D02*
X6250D01*
X2250Y64526D02*
X6250D01*
X2250Y65468D02*
X6250D01*
X2250Y71968D02*
X6250D01*
X2243Y87247D02*
X6243D01*
X2243Y93747D02*
X6243D01*
X221700Y92955D02*
X221700Y95955D01*
X219700Y91205D02*
X223700Y91205D01*
X219700Y97705D02*
X223700D01*
X136800Y66545D02*
X136800Y69545D01*
X134800Y71295D02*
X138800Y71295D01*
X134800Y64795D02*
X138800D01*
X200700Y186045D02*
X200700Y189045D01*
X198700Y184295D02*
X202700Y184295D01*
X198700Y190795D02*
X202700D01*
X444000Y105350D02*
Y109350D01*
X450500Y109350D02*
X450500Y105350D01*
X444000Y96000D02*
X447000D01*
X442250Y94000D02*
Y98000D01*
X448750Y94000D02*
Y98000D01*
X435000Y103750D02*
X435000Y106750D01*
X433000Y102000D02*
X437000Y102000D01*
X433000Y108500D02*
X437000Y108500D01*
X424000Y103750D02*
X424000Y106750D01*
X422000Y108500D02*
X426000Y108500D01*
X422000Y102000D02*
X426000Y102000D01*
X155300Y34250D02*
X159300Y34250D01*
X155300Y27750D02*
X159300D01*
X161879Y22321D02*
X161879Y18321D01*
X155379D02*
X155379Y22321D01*
X155300Y41000D02*
X159300D01*
X155300Y34500D02*
X159300Y34500D01*
X284750Y214550D02*
Y218550D01*
X291250Y214550D02*
Y218550D01*
X286500Y216550D02*
X289500Y216550D01*
X281065Y110000D02*
X285065D01*
X281065Y103500D02*
X285065D01*
X283065Y105250D02*
Y108250D01*
X283500Y113000D02*
Y117000D01*
X277000Y113000D02*
Y117000D01*
X233250Y18200D02*
X233250Y22200D01*
X239750Y18200D02*
Y22200D01*
X235950Y41000D02*
X239950D01*
X235950Y34500D02*
X239950Y34500D01*
X235950Y33750D02*
X239950D01*
X235950Y27250D02*
X239950D01*
X207000Y260000D02*
X211000D01*
X207000Y253500D02*
X211000D01*
X2250Y243237D02*
X6250D01*
X2250Y236737D02*
X6250D01*
X390500Y118750D02*
Y122750D01*
X397000Y118750D02*
Y122750D01*
X265000Y78500D02*
X269000D01*
X265000Y85000D02*
X269000D01*
X308250Y192000D02*
Y196000D01*
X314750Y192000D02*
Y196000D01*
X254884Y88288D02*
X257712Y91116D01*
X250288Y92884D02*
X253116Y95712D01*
X314250Y181000D02*
Y185000D01*
X307750Y181000D02*
Y185000D01*
X269250Y202750D02*
Y206750D01*
X275750Y202750D02*
Y206750D01*
X303968Y203364D02*
X306796Y206192D01*
X308564Y198768D02*
X311392Y201596D01*
X275750Y214500D02*
Y218500D01*
X269250Y214500D02*
Y218500D01*
X279265Y87700D02*
Y91700D01*
X272765Y87700D02*
Y91700D01*
X341450Y140000D02*
Y144000D01*
X334950Y140000D02*
Y144000D01*
X347134Y193712D02*
X349962Y190884D01*
X342538Y189116D02*
X345366Y186288D01*
X275845Y214550D02*
Y218550D01*
X282345Y214550D02*
Y218550D01*
X327262Y196034D02*
X330090Y198862D01*
X331858Y191438D02*
X334686Y194266D01*
X311000Y216750D02*
Y220750D01*
X317500Y216750D02*
Y220750D01*
X288750Y164750D02*
Y168750D01*
X282250Y164750D02*
Y168750D01*
X275000Y175000D02*
X279000D01*
X275000Y181500D02*
X279000D01*
X269500Y113000D02*
Y117000D01*
X276000Y113000D02*
Y117000D01*
X320000Y112000D02*
X324000D01*
X320000Y118500D02*
X324000D01*
X314000Y125500D02*
X318000D01*
X314000Y132000D02*
X318000D01*
X327843Y143700D02*
Y147700D01*
X321343Y143700D02*
Y147700D01*
X351025Y172450D02*
Y176450D01*
X357525Y172450D02*
Y176450D01*
X320974Y167900D02*
Y171900D01*
X314474Y167900D02*
Y171900D01*
X252724Y192700D02*
X256724D01*
X252724Y199200D02*
X256724D01*
X319474Y157400D02*
X323474D01*
X319474Y163900D02*
X323474D01*
X304000Y176750D02*
X307000D01*
X302250Y174750D02*
Y178750D01*
X308750Y174750D02*
Y178750D01*
X258314Y87686D02*
X260436Y85564D01*
X260259Y82913D02*
X263087Y85741D01*
X255663Y87509D02*
X258491Y90337D01*
X316000Y183000D02*
X319000D01*
X320750Y181000D02*
Y185000D01*
X314250Y181000D02*
Y185000D01*
X260939Y94939D02*
X263061Y97061D01*
X258288Y95116D02*
X261116Y92288D01*
X262884Y99712D02*
X265712Y96884D01*
X343750Y130500D02*
Y133500D01*
X341750Y128750D02*
X345750D01*
X341750Y135250D02*
X345750D01*
X278815Y97250D02*
X278815Y100250D01*
X276815Y95500D02*
X280815D01*
X276815Y102000D02*
X280815D01*
X289000Y194750D02*
X292000D01*
X293750Y192750D02*
Y196750D01*
X287250Y192750D02*
Y196750D01*
X303450Y191611D02*
X306450D01*
X301700Y189611D02*
Y193611D01*
X308200Y189611D02*
Y193611D01*
X272750Y193000D02*
X275750D01*
X277500Y191000D02*
Y195000D01*
X271000Y191000D02*
Y195000D01*
X341939Y182939D02*
X344061Y185061D01*
X339288Y183116D02*
X342116Y180288D01*
X343884Y187712D02*
X346712Y184884D01*
X240750Y115370D02*
X243750D01*
X245500Y113370D02*
Y117370D01*
X239000Y113370D02*
Y117370D01*
X234250Y115370D02*
X237250D01*
X239000Y113370D02*
Y117370D01*
X232500Y113370D02*
Y117370D01*
X213250Y136200D02*
X216250D01*
X211500Y134200D02*
Y138200D01*
X218000Y134200D02*
Y138200D01*
X219801Y136200D02*
X222801D01*
X218051Y134200D02*
Y138200D01*
X224551Y134200D02*
Y138200D01*
X214655Y143911D02*
Y146911D01*
X212655Y148661D02*
X216655Y148661D01*
X212655Y142161D02*
X216655D01*
X214655Y151081D02*
Y154081D01*
X212655Y155831D02*
X216655D01*
X212655Y149331D02*
X216655D01*
X229750Y128106D02*
X232750D01*
X228000Y126106D02*
Y130106D01*
X234500Y126106D02*
Y130106D01*
X236750Y128106D02*
X239750D01*
X235000Y126106D02*
Y130106D01*
X241500Y126106D02*
Y130106D01*
X327700Y133750D02*
Y136750D01*
X325700Y138500D02*
X329700Y138500D01*
X325700Y132000D02*
X329700D01*
X321974Y120900D02*
Y123900D01*
X319974Y125650D02*
X323974D01*
X319974Y119150D02*
X323974D01*
X281895Y204750D02*
Y207750D01*
X279895Y203000D02*
X283895D01*
X279895Y209500D02*
X283895D01*
X281895Y198250D02*
Y201250D01*
X279895Y196500D02*
X283895D01*
X279895Y203000D02*
X283895D01*
X322724Y173150D02*
X325724D01*
X320974Y171150D02*
Y175150D01*
X327474Y171150D02*
Y175150D01*
X345750Y173000D02*
X348750D01*
X344000Y171000D02*
Y175000D01*
X350500Y171000D02*
Y175000D01*
X316000Y136750D02*
X316000Y133750D01*
X314000Y132000D02*
X318000D01*
X314000Y138500D02*
X318000D01*
X338000Y113500D02*
Y116500D01*
X336000Y111750D02*
X340000D01*
X336000Y118250D02*
X340000D01*
X268163Y105839D02*
X270285Y107961D01*
X265512Y106016D02*
X268340Y103188D01*
X270108Y110612D02*
X272936Y107784D01*
X277000Y183250D02*
Y186250D01*
X275000Y181500D02*
X279000D01*
X275000Y188000D02*
X279000D01*
X288555Y173780D02*
X288555Y176780D01*
X286555Y172030D02*
X290555D01*
X286555Y178530D02*
X290555D01*
X288555Y180305D02*
Y183305D01*
X286555Y178555D02*
X290555D01*
X286555Y185055D02*
X290555D01*
X305500Y218750D02*
X308500D01*
X310250Y216750D02*
Y220750D01*
X303750Y216750D02*
Y220750D01*
X321500Y192250D02*
X324500D01*
X326250Y190250D02*
Y194250D01*
X319750Y190250D02*
Y194250D01*
X339163Y160461D02*
X341285Y158339D01*
X341108Y155688D02*
X343936Y158516D01*
X336512Y160284D02*
X339340Y163112D01*
X333250Y181750D02*
X336250D01*
X331500Y179750D02*
Y183750D01*
X338000Y179750D02*
Y183750D01*
X260274Y136900D02*
X260274Y133900D01*
X258274Y132150D02*
X262274Y132150D01*
X258274Y138650D02*
X262274D01*
X260274Y141600D02*
X260274Y144600D01*
X258274Y139850D02*
X262274D01*
X258274Y146350D02*
X262274D01*
X260274Y121650D02*
X260274Y118650D01*
X258274Y116900D02*
X262274Y116900D01*
X258274Y123400D02*
X262274D01*
X260274Y126350D02*
X260274Y129350D01*
X258274Y124600D02*
X262274D01*
X258274Y131100D02*
X262274D01*
X234144Y173495D02*
X237143D01*
X238894Y171495D02*
Y175495D01*
X232393Y171495D02*
Y175495D01*
X226805Y173495D02*
X229805D01*
X231555Y171495D02*
Y175495D01*
X225055Y171495D02*
Y175495D01*
X328724Y162650D02*
X331724D01*
X333474Y160650D02*
Y164650D01*
X326974Y160650D02*
Y164650D01*
X262474Y193150D02*
X265474D01*
X260724Y191150D02*
Y195150D01*
X267224Y191150D02*
Y195150D01*
X263745Y182205D02*
X266745Y182205D01*
X261995Y180205D02*
Y184205D01*
X268495Y180205D02*
Y184205D01*
X244500Y162500D02*
X247500Y162500D01*
X249250Y160500D02*
Y164500D01*
X242750Y160500D02*
Y164500D01*
D11*
X212720Y10009D02*
G03*
X212720Y10009I-500J0D01*
G01*
X120750Y46250D02*
G03*
X120750Y46250I-250J0D01*
G01*
X275000Y15750D02*
G03*
X275000Y15750I-250J0D01*
G01*
X214871Y30692D02*
X221942Y23621D01*
X203558Y19379D02*
X210629Y12308D01*
X58000Y21250D02*
X80000D01*
X58000D02*
Y51250D01*
X80000D01*
Y21250D02*
Y51250D01*
X51500Y195500D02*
X72750D01*
X51500D02*
Y216750D01*
Y274250D02*
Y295500D01*
X72750D01*
X130250D02*
X151500D01*
Y274250D02*
Y295500D01*
Y195500D02*
Y216750D01*
X130250Y195500D02*
X151500D01*
X123500Y47000D02*
X148000D01*
X123500D02*
X123500Y15000D01*
X148000D01*
X148000Y47000D02*
X148000Y15000D01*
X51500Y244250D02*
Y274250D01*
X72750Y195500D02*
X88250D01*
X114750D02*
X130250D01*
X151500Y216750D02*
Y274250D01*
X148250Y44000D02*
X161500D01*
X247250Y15000D02*
X271750D01*
Y47000D01*
X247250D02*
X271750D01*
X247250Y15000D02*
Y47000D01*
X439875Y98500D02*
Y101250D01*
X434500D02*
X439875D01*
X415125D02*
X420500D01*
X415125Y98500D02*
Y101250D01*
Y76250D02*
Y79000D01*
Y76250D02*
X420500D01*
X434500D02*
X439875D01*
Y79000D01*
X434500Y76250D02*
X439875Y79000D01*
X402250Y158750D02*
X403500D01*
X402250D02*
Y169250D01*
X403500D01*
X419500Y158750D02*
X420750D01*
X419500Y169250D02*
X420750D01*
Y158750D02*
Y161500D01*
Y166500D02*
Y169250D01*
X57916Y287582D02*
X56999Y288498D01*
X55166D01*
X54250Y287582D01*
Y283916D01*
X55166Y283000D01*
X56999D01*
X57916Y283916D01*
Y285749D01*
X56083D01*
X-6585Y29748D02*
X-10250D01*
Y26999D01*
X-8417Y27915D01*
X-7501D01*
X-6585Y26999D01*
Y25166D01*
X-7501Y24250D01*
X-9334D01*
X-10250Y25166D01*
X-4752Y28832D02*
X-3835Y29748D01*
X-2003D01*
X-1086Y28832D01*
Y25166D01*
X-2003Y24250D01*
X-3835D01*
X-4752Y25166D01*
Y28832D01*
X54250Y262998D02*
X57915D01*
Y262082D01*
X54250Y258416D01*
Y257500D01*
X274165Y234832D02*
X273249Y235748D01*
X271416D01*
X270500Y234832D01*
Y231166D01*
X271416Y230250D01*
X273249D01*
X274165Y231166D01*
Y232999D01*
X272333D01*
X275998Y230250D02*
Y235748D01*
X278747D01*
X279664Y234832D01*
Y232999D01*
X278747Y232083D01*
X275998D01*
X281496Y235748D02*
X283329D01*
X282413D01*
Y230250D01*
X281496D01*
X283329D01*
X288827Y235748D02*
X286995D01*
X286078Y234832D01*
Y231166D01*
X286995Y230250D01*
X288827D01*
X289744Y231166D01*
Y234832D01*
X288827Y235748D01*
X216165Y233832D02*
X215249Y234748D01*
X213416D01*
X212500Y233832D01*
Y230166D01*
X213416Y229250D01*
X215249D01*
X216165Y230166D01*
Y231999D01*
X214333D01*
X217998Y229250D02*
Y234748D01*
X220747D01*
X221664Y233832D01*
Y231999D01*
X220747Y231083D01*
X217998D01*
X223496Y234748D02*
X225329D01*
X224413D01*
Y229250D01*
X223496D01*
X225329D01*
X230827Y234748D02*
X228995D01*
X228078Y233832D01*
Y230166D01*
X228995Y229250D01*
X230827D01*
X231744Y230166D01*
Y233832D01*
X230827Y234748D01*
X54250Y271498D02*
Y266000D01*
X56999D01*
X57916Y266916D01*
Y267833D01*
X56999Y268749D01*
X54250D01*
X56999D01*
X57916Y269665D01*
Y270582D01*
X56999Y271498D01*
X54250D01*
X-10500Y167750D02*
X-8667D01*
X-9584D01*
Y173248D01*
X-10500Y172332D01*
X-5918Y173248D02*
X-2253D01*
Y172332D01*
X-5918Y168666D01*
Y167750D01*
X275250Y226832D02*
X276166Y227748D01*
X277999D01*
X278916Y226832D01*
Y223166D01*
X277999Y222250D01*
X276166D01*
X275250Y223166D01*
Y226832D01*
X284414Y227748D02*
X280748D01*
Y224999D01*
X282581Y225915D01*
X283497D01*
X284414Y224999D01*
Y223166D01*
X283497Y222250D01*
X281665D01*
X280748Y223166D01*
X-10500Y264000D02*
X-8667D01*
X-9584D01*
Y269498D01*
X-10500Y268582D01*
X217250Y225832D02*
X218166Y226748D01*
X219999D01*
X220915Y225832D01*
Y222166D01*
X219999Y221250D01*
X218166D01*
X217250Y222166D01*
Y225832D01*
X226414Y226748D02*
X224581Y225832D01*
X222748Y223999D01*
Y222166D01*
X223664Y221250D01*
X225497D01*
X226414Y222166D01*
Y223083D01*
X225497Y223999D01*
X222748D01*
X54250Y274500D02*
Y279998D01*
X56999D01*
X57915Y279082D01*
Y277249D01*
X56999Y276333D01*
X54250D01*
X218252Y30500D02*
Y32333D01*
Y31416D01*
X223750D01*
Y30500D01*
Y32333D01*
X219168Y38747D02*
X218252Y37831D01*
Y35998D01*
X219168Y35082D01*
X222834D01*
X223750Y35998D01*
Y37831D01*
X222834Y38747D01*
X223750Y44246D02*
Y40580D01*
X220084Y44246D01*
X219168D01*
X218252Y43329D01*
Y41496D01*
X219168Y40580D01*
X223750Y49744D02*
Y46078D01*
X220084Y49744D01*
X219168D01*
X218252Y48827D01*
Y46995D01*
X219168Y46078D01*
X3752Y112250D02*
X9250Y115915D01*
X3752D02*
X9250Y112250D01*
X3752Y120497D02*
Y118665D01*
X4668Y117748D01*
X8334D01*
X9250Y118665D01*
Y120497D01*
X8334Y121414D01*
X4668D01*
X3752Y120497D01*
X9250Y126912D02*
Y123246D01*
X5584Y126912D01*
X4668D01*
X3752Y125996D01*
Y124163D01*
X4668Y123246D01*
X-5498Y112250D02*
X0Y115915D01*
X-5498D02*
X0Y112250D01*
X-5498Y120497D02*
Y118665D01*
X-4582Y117748D01*
X-916D01*
X0Y118665D01*
Y120497D01*
X-916Y121414D01*
X-4582D01*
X-5498Y120497D01*
X0Y123246D02*
Y125079D01*
Y124163D01*
X-5498D01*
X-4582Y123246D01*
X206416Y292248D02*
X204583D01*
X205499D01*
Y287666D01*
X204583Y286750D01*
X203666D01*
X202750Y287666D01*
X208248Y291332D02*
X209165Y292248D01*
X210997D01*
X211914Y291332D01*
Y290415D01*
X210997Y289499D01*
X210081D01*
X210997D01*
X211914Y288583D01*
Y287666D01*
X210997Y286750D01*
X209165D01*
X208248Y287666D01*
X10666Y9998D02*
X8833D01*
X9749D01*
Y5416D01*
X8833Y4500D01*
X7916D01*
X7000Y5416D01*
X15247Y4500D02*
Y9998D01*
X12498Y7249D01*
X16164D01*
X47750Y137748D02*
X49583D01*
X48666D01*
Y132250D01*
X47750D01*
X49583D01*
X55997Y136832D02*
X55081Y137748D01*
X53248D01*
X52332Y136832D01*
Y133166D01*
X53248Y132250D01*
X55081D01*
X55997Y133166D01*
X61495Y132250D02*
X57830D01*
X61495Y135915D01*
Y136832D01*
X60579Y137748D01*
X58746D01*
X57830Y136832D01*
X63328D02*
X64245Y137748D01*
X66077D01*
X66994Y136832D01*
Y133166D01*
X66077Y132250D01*
X64245D01*
X63328Y133166D01*
Y136832D01*
X159165Y292248D02*
X157333D01*
X158249D01*
Y287666D01*
X157333Y286750D01*
X156416D01*
X155500Y287666D01*
X164664Y286750D02*
X160998D01*
X164664Y290415D01*
Y291332D01*
X163747Y292248D01*
X161915D01*
X160998Y291332D01*
X283916Y291998D02*
X282083D01*
X282999D01*
Y287416D01*
X282083Y286500D01*
X281166D01*
X280250Y287416D01*
X289414Y291998D02*
X285748D01*
Y289249D01*
X287581Y290166D01*
X288497D01*
X289414Y289249D01*
Y287416D01*
X288497Y286500D01*
X286665D01*
X285748Y287416D01*
X296500Y9998D02*
X300166Y4500D01*
Y9998D02*
X296500Y4500D01*
X304747D02*
Y9998D01*
X301998Y7249D01*
X305664D01*
X127002Y106250D02*
Y108083D01*
Y107166D01*
X132500D01*
Y106250D01*
Y108083D01*
X127918Y114497D02*
X127002Y113581D01*
Y111748D01*
X127918Y110832D01*
X131584D01*
X132500Y111748D01*
Y113581D01*
X131584Y114497D01*
X132500Y119995D02*
Y116330D01*
X128834Y119995D01*
X127918D01*
X127002Y119079D01*
Y117247D01*
X127918Y116330D01*
X127002Y121828D02*
Y125494D01*
X127918D01*
X131584Y121828D01*
X132500D01*
X156250Y206248D02*
X158083D01*
X157166D01*
Y200750D01*
X156250D01*
X158083D01*
X164497Y205332D02*
X163581Y206248D01*
X161748D01*
X160832Y205332D01*
Y201666D01*
X161748Y200750D01*
X163581D01*
X164497Y201666D01*
X169995Y200750D02*
X166330D01*
X169995Y204415D01*
Y205332D01*
X169079Y206248D01*
X167246D01*
X166330Y205332D01*
X175494Y206248D02*
X173661Y205332D01*
X171828Y203499D01*
Y201666D01*
X172745Y200750D01*
X174577D01*
X175494Y201666D01*
Y202583D01*
X174577Y203499D01*
X171828D01*
X422750Y173248D02*
X426415D01*
X424583D01*
Y167750D01*
X431914Y173248D02*
X428248D01*
Y170499D01*
X430081Y171416D01*
X430997D01*
X431914Y170499D01*
Y168666D01*
X430997Y167750D01*
X429165D01*
X428248Y168666D01*
X410002Y103500D02*
Y105333D01*
Y104416D01*
X415500D01*
Y103500D01*
Y105333D01*
X410918Y111747D02*
X410002Y110831D01*
Y108998D01*
X410918Y108082D01*
X414584D01*
X415500Y108998D01*
Y110831D01*
X414584Y111747D01*
X410918Y113580D02*
X410002Y114496D01*
Y116329D01*
X410918Y117246D01*
X411834D01*
X412751Y116329D01*
Y115413D01*
Y116329D01*
X413667Y117246D01*
X414584D01*
X415500Y116329D01*
Y114496D01*
X414584Y113580D01*
X238416Y211401D02*
X234750D01*
Y208652D01*
X236583D01*
X234750D01*
Y205903D01*
X240248Y211401D02*
Y205903D01*
X243914D01*
X245746D02*
X247579D01*
X246663D01*
Y211401D01*
X245746Y210485D01*
X438500Y162248D02*
X442165D01*
X440333D01*
Y156750D01*
X443998Y162248D02*
X447664D01*
Y161332D01*
X443998Y157666D01*
Y156750D01*
X7500Y292498D02*
X11165Y287000D01*
Y292498D02*
X7500Y287000D01*
X16664Y292498D02*
X12998D01*
Y289749D01*
X14831Y290665D01*
X15747D01*
X16664Y289749D01*
Y287916D01*
X15747Y287000D01*
X13915D01*
X12998Y287916D01*
X395500Y291998D02*
X399165Y286500D01*
Y291998D02*
X395500Y286500D01*
X400998Y291082D02*
X401915Y291998D01*
X403747D01*
X404664Y291082D01*
Y290166D01*
X403747Y289249D01*
X402831D01*
X403747D01*
X404664Y288333D01*
Y287416D01*
X403747Y286500D01*
X401915D01*
X400998Y287416D01*
X297500Y291998D02*
X301166Y286500D01*
Y291998D02*
X297500Y286500D01*
X302998D02*
X304831D01*
X303915D01*
Y291998D01*
X302998Y291082D01*
X396000Y9998D02*
X399665Y4500D01*
Y9998D02*
X396000Y4500D01*
X405164D02*
X401498D01*
X405164Y8166D01*
Y9082D01*
X404247Y9998D01*
X402415D01*
X401498Y9082D01*
X111002Y36750D02*
Y38583D01*
Y37666D01*
X116500D01*
Y36750D01*
Y38583D01*
X111918Y44997D02*
X111002Y44081D01*
Y42248D01*
X111918Y41332D01*
X115584D01*
X116500Y42248D01*
Y44081D01*
X115584Y44997D01*
X116500Y50496D02*
Y46830D01*
X112835Y50496D01*
X111918D01*
X111002Y49579D01*
Y47746D01*
X111918Y46830D01*
Y52328D02*
X111002Y53245D01*
Y55077D01*
X111918Y55994D01*
X112835D01*
X113751Y55077D01*
X114667Y55994D01*
X115584D01*
X116500Y55077D01*
Y53245D01*
X115584Y52328D01*
X114667D01*
X113751Y53245D01*
X112835Y52328D01*
X111918D01*
X113751Y53245D02*
Y55077D01*
X283252Y15250D02*
Y17083D01*
Y16166D01*
X288750D01*
Y15250D01*
Y17083D01*
X284168Y23497D02*
X283252Y22581D01*
Y20748D01*
X284168Y19832D01*
X287834D01*
X288750Y20748D01*
Y22581D01*
X287834Y23497D01*
X288750Y28995D02*
Y25330D01*
X285084Y28995D01*
X284168D01*
X283252Y28079D01*
Y26247D01*
X284168Y25330D01*
X288750Y33577D02*
X283252D01*
X286001Y30828D01*
Y34494D01*
X360500Y119998D02*
X364165D01*
X362333D01*
Y114500D01*
X365998Y119082D02*
X366915Y119998D01*
X368747D01*
X369664Y119082D01*
Y118166D01*
X368747Y117249D01*
X369664Y116333D01*
Y115416D01*
X368747Y114500D01*
X366915D01*
X365998Y115416D01*
Y116333D01*
X366915Y117249D01*
X365998Y118166D01*
Y119082D01*
X366915Y117249D02*
X368747D01*
X440000Y179248D02*
X443666D01*
X441833D01*
Y173750D01*
X449164D02*
X445498D01*
X449164Y177416D01*
Y178332D01*
X448247Y179248D01*
X446415D01*
X445498Y178332D01*
X70250Y202748D02*
X72083D01*
X71166D01*
Y197250D01*
X70250D01*
X72083D01*
X78497Y201832D02*
X77581Y202748D01*
X75748D01*
X74832Y201832D01*
Y198166D01*
X75748Y197250D01*
X77581D01*
X78497Y198166D01*
X80330Y197250D02*
X82163D01*
X81246D01*
Y202748D01*
X80330Y201832D01*
X84912Y197250D02*
X86745D01*
X85828D01*
Y202748D01*
X84912Y201832D01*
X82502Y36250D02*
Y38083D01*
Y37166D01*
X88000D01*
Y36250D01*
Y38083D01*
X83418Y44497D02*
X82502Y43581D01*
Y41748D01*
X83418Y40832D01*
X87084D01*
X88000Y41748D01*
Y43581D01*
X87084Y44497D01*
X88000Y46330D02*
Y48163D01*
Y47246D01*
X82502D01*
X83418Y46330D01*
X87084Y50912D02*
X88000Y51828D01*
Y53661D01*
X87084Y54577D01*
X83418D01*
X82502Y53661D01*
Y51828D01*
X83418Y50912D01*
X84334D01*
X85251Y51828D01*
Y54577D01*
X231002Y65000D02*
Y66833D01*
Y65916D01*
X236500D01*
Y65000D01*
Y66833D01*
X231918Y73247D02*
X231002Y72331D01*
Y70498D01*
X231918Y69582D01*
X235584D01*
X236500Y70498D01*
Y72331D01*
X235584Y73247D01*
X236500Y78745D02*
Y75080D01*
X232834Y78745D01*
X231918D01*
X231002Y77829D01*
Y75996D01*
X231918Y75080D01*
X231002Y84244D02*
Y80578D01*
X233751D01*
X232834Y82411D01*
Y83327D01*
X233751Y84244D01*
X235584D01*
X236500Y83327D01*
Y81495D01*
X235584Y80578D01*
D12*
X18527Y207500D02*
G03*
X18527Y207500I-277J0D01*
G01*
D13*
X54354Y26250D02*
G03*
X54354Y26250I-354J0D01*
G01*
X360000Y247875D02*
X363417Y258125D01*
X356583D02*
X360000Y247875D01*
X356583Y258125D02*
X363417D01*
X360000Y247875D02*
Y264750D01*
X341000Y247750D02*
Y264625D01*
X337583Y254375D02*
X344417D01*
X341000Y264625D02*
X344417Y254375D01*
X337583D02*
X341000Y264625D01*
X348875Y20625D02*
X352292Y30875D01*
X355708Y20625D01*
X348875D02*
X355708D01*
X352292Y16000D02*
Y30875D01*
X292000Y247996D02*
X298664D01*
X295332D01*
Y238000D01*
X301997Y247996D02*
X308661Y238000D01*
Y247996D02*
X301997Y238000D01*
X339250Y42746D02*
Y32750D01*
X344248D01*
X345914Y34416D01*
Y36082D01*
X344248Y37748D01*
X339250D01*
X344248D01*
X345914Y39414D01*
Y41080D01*
X344248Y42746D01*
X339250D01*
X357750Y32750D02*
Y39414D01*
X361082Y42746D01*
X364414Y39414D01*
Y32750D01*
Y37748D01*
X357750D01*
X322000Y238000D02*
Y244664D01*
X325332Y247996D01*
X328665Y244664D01*
Y238000D01*
Y242998D01*
X322000D01*
X342750Y2250D02*
Y12246D01*
X347748D01*
X349414Y10580D01*
Y7248D01*
X347748Y5582D01*
X342750D01*
X346082D02*
X349414Y2250D01*
X352747Y12246D02*
X359411Y2250D01*
Y12246D02*
X352747Y2250D01*
X366250Y237750D02*
Y244414D01*
X369582Y247746D01*
X372915Y244414D01*
Y237750D01*
Y242748D01*
X366250D01*
X376247Y247746D02*
Y239416D01*
X377913Y237750D01*
X381245D01*
X382911Y239416D01*
Y247746D01*
X386244D02*
X392908Y237750D01*
Y247746D02*
X386244Y237750D01*
D14*
X98000Y38500D02*
X109000D01*
Y30500D02*
Y38500D01*
Y17500D02*
Y25500D01*
X98000Y17500D02*
X109000D01*
X98000D02*
Y25500D01*
Y30500D02*
Y38500D01*
X301750Y37000D02*
Y48000D01*
X293750Y37000D02*
X301750D01*
X280750D02*
X288750D01*
X280750D02*
Y48000D01*
X288750D01*
X293750D02*
X301750D01*
X87000Y33500D02*
X98000D01*
Y25500D02*
Y33500D01*
Y12500D02*
Y20500D01*
X87000Y12500D02*
X98000D01*
X87000D02*
Y20500D01*
Y25500D02*
Y33500D01*
X106250Y115250D02*
Y125250D01*
X98250Y115250D02*
X106250D01*
X85250D02*
X93250D01*
X85250D02*
Y125250D01*
X93250D01*
X98250D02*
X106250D01*
Y125250D02*
Y135250D01*
X98250Y125250D02*
X106250D01*
X85250D02*
X93250D01*
X85250D02*
Y135250D01*
X93250D01*
X98250D02*
X106250D01*
X182750Y138000D02*
X192750D01*
X182750D02*
Y146000D01*
Y151000D02*
Y159000D01*
X192750D01*
Y151000D02*
Y159000D01*
Y138000D02*
Y146000D01*
X115000Y100000D02*
X125000D01*
Y92000D02*
Y100000D01*
Y79000D02*
Y87000D01*
X115000Y79000D02*
X125000D01*
X115000D02*
Y87000D01*
Y92000D02*
Y100000D01*
X106250Y135250D02*
Y145250D01*
X98250Y135250D02*
X106250D01*
X85250D02*
X93250D01*
X85250D02*
Y145250D01*
X93250D01*
X98250D02*
X106250D01*
X72547Y93049D02*
Y101049D01*
Y80049D02*
Y88049D01*
Y80049D02*
X83547D01*
Y88049D01*
Y93049D02*
Y101049D01*
X72547D02*
X83547D01*
X93750Y101000D02*
Y112000D01*
X85750Y101000D02*
X93750Y101000D01*
X72750Y101000D02*
X80750Y101000D01*
X72750Y101000D02*
X72750Y112000D01*
X80750D01*
X85750D02*
X93750D01*
X97238Y167028D02*
X106762D01*
X97238Y163472D02*
X106762D01*
X29190Y218500D02*
X29190Y189500D01*
X36810D01*
Y218500D01*
X29190Y218500D02*
X36810Y218500D01*
X46750Y231250D02*
Y239250D01*
Y244250D02*
Y252250D01*
X35750D02*
X46750D01*
X35750Y244250D02*
Y252250D01*
Y231250D02*
Y239250D01*
Y231250D02*
X46750D01*
X373690Y211150D02*
X381310D01*
X373690Y223850D02*
X381310D01*
X373690Y175650D02*
X381310D01*
X373690Y188350D02*
X381310D01*
X362000Y47250D02*
X370000D01*
X375000D02*
X383000D01*
Y58250D01*
X375000D02*
X383000D01*
X362000D02*
X370000D01*
X362000Y47250D02*
Y58250D01*
X340250Y56250D02*
X348250D01*
X327250D02*
X335250D01*
X327250Y45250D02*
Y56250D01*
Y45250D02*
X335250D01*
X340250D02*
X348250D01*
Y56250D01*
X24000Y229250D02*
X32000D01*
X11000D02*
X19000D01*
X11000Y218250D02*
Y229250D01*
Y218250D02*
X19000D01*
X24000D02*
X32000D01*
Y229250D01*
X359750Y234500D02*
Y244500D01*
X351750Y234500D02*
X359750D01*
X338750D02*
X346750D01*
X338750D02*
Y244500D01*
X346750D01*
X351750D02*
X359750D01*
X409500Y47250D02*
Y57250D01*
X401500Y47250D02*
X409500D01*
X388500D02*
X396500D01*
X388500D02*
Y57250D01*
X396500D01*
X401500D02*
X409500D01*
X32000Y229250D02*
Y239250D01*
X24000Y229250D02*
X32000D01*
X11000D02*
X19000D01*
X11000D02*
Y239250D01*
X19000D01*
X24000D02*
X32000D01*
X148500Y116495D02*
X156500D01*
X135500D02*
X143500D01*
X135500Y105495D02*
Y116495D01*
Y105495D02*
X143500D01*
X148500D02*
X156500D01*
Y116495D01*
X156505Y222500D02*
Y230500D01*
Y209500D02*
Y217500D01*
Y209500D02*
X167505D01*
Y217500D01*
Y222500D02*
Y230500D01*
X156505D02*
X167505D01*
X167500Y61354D02*
Y71354D01*
X159500Y61354D02*
X167500D01*
X146500D02*
X154500D01*
X146500D02*
Y71354D01*
X154500D01*
X159500D02*
X167500D01*
X156500Y106245D02*
Y116245D01*
X164500D01*
X169500D02*
X177500D01*
Y106245D02*
Y116245D01*
X169500Y106245D02*
X177500D01*
X156500D02*
X164500D01*
X211250Y209000D02*
Y219000D01*
X219250D01*
X224250D02*
X232250D01*
Y209000D02*
Y219000D01*
X224250Y209000D02*
X232250D01*
X211250D02*
X219250D01*
X167505Y230500D02*
X177505D01*
Y222500D02*
Y230500D01*
Y209500D02*
Y217500D01*
X167505Y209500D02*
X177505D01*
X167505D02*
Y217500D01*
Y222500D02*
Y230500D01*
X372500Y199750D02*
X380500D01*
X385500D02*
X393500D01*
Y209750D01*
X385500D02*
X393500D01*
X372500D02*
X380500D01*
X372500Y199750D02*
Y209750D01*
X362250Y179250D02*
Y187250D01*
Y192250D02*
Y200250D01*
X351250D02*
X362250D01*
X351250Y192250D02*
Y200250D01*
Y179250D02*
Y187250D01*
Y179250D02*
X362250Y179250D01*
X351250Y212250D02*
Y220250D01*
Y199250D02*
Y207250D01*
Y199250D02*
X362250D01*
Y207250D01*
Y212250D02*
Y220250D01*
X351250Y220250D02*
X362250Y220250D01*
X369380Y125500D02*
Y133500D01*
Y138500D02*
Y146500D01*
X359380D02*
X369380D01*
X359380Y138500D02*
Y146500D01*
Y125500D02*
Y133500D01*
Y125500D02*
X369380D01*
X401379Y125500D02*
Y133500D01*
Y138500D02*
Y146500D01*
X390379D02*
X401379D01*
X390379Y138500D02*
X390379Y146500D01*
X390379Y125500D02*
X390379Y133500D01*
X390379Y125500D02*
X401379Y125500D01*
X369379Y136000D02*
X377379D01*
X382379D02*
X390379Y136000D01*
Y146000D01*
X382379D02*
X390379D01*
X369379D02*
X377379D01*
X369379Y136000D02*
Y146000D01*
Y126000D02*
X377379D01*
X382379D02*
X390379D01*
Y136000D01*
X382379D02*
X390379D01*
X369379D02*
X377379D01*
X369379Y126000D02*
Y136000D01*
X118528Y2988D02*
X118528Y12512D01*
X114972Y2988D02*
X114972Y12512D01*
X152972Y49488D02*
X152972Y59012D01*
X156528Y49488D02*
X156528Y59012D01*
X119238Y60472D02*
X128762Y60472D01*
X119238Y64028D02*
X128762D01*
X156528Y2988D02*
Y12512D01*
X152972Y2988D02*
Y12512D01*
X317000Y87250D02*
Y95250D01*
Y74250D02*
Y82250D01*
Y74250D02*
X327000D01*
Y82250D01*
Y87250D02*
Y95250D01*
X317000D02*
X327000D01*
Y84750D02*
X335000D01*
X340000D02*
X348000D01*
Y94750D01*
X340000D02*
X348000D01*
X327000D02*
X335000D01*
X327000Y84750D02*
Y94750D01*
X327000Y74750D02*
X335000D01*
X340000D02*
X348000D01*
Y84750D01*
X340000D02*
X348000D01*
X327000D02*
X335000D01*
X327000Y74750D02*
Y84750D01*
X348000Y87250D02*
Y95250D01*
Y82250D02*
X348000Y74250D01*
X359000Y74250D01*
X359000Y82250D02*
X359000Y74250D01*
Y87250D02*
Y95250D01*
X348000D02*
X359000D01*
X369979Y150250D02*
Y158250D01*
Y163250D02*
Y171250D01*
X359979D02*
X369979D01*
X359979Y163250D02*
Y171250D01*
Y150250D02*
Y158250D01*
Y150250D02*
X369979D01*
X369979Y150750D02*
X377979D01*
X382979D02*
X390979D01*
X390979Y160750D01*
X382979Y160750D02*
X390979Y160750D01*
X369979Y160750D02*
X377979Y160750D01*
X369979Y150750D02*
Y160750D01*
X369979Y160750D02*
X377979D01*
X382979D02*
X390979D01*
Y170750D01*
X382979D02*
X390979D01*
X369979D02*
X377979D01*
X369979D02*
X369979Y160750D01*
X400979Y150250D02*
Y158250D01*
Y163250D02*
Y171250D01*
X390979Y171250D02*
X400979Y171250D01*
X390979Y163250D02*
Y171250D01*
Y150250D02*
Y158250D01*
Y150250D02*
X400979D01*
X238722Y49488D02*
X238722Y59012D01*
X242278Y49488D02*
X242278Y59012D01*
X280278Y2988D02*
Y12512D01*
X276722Y2988D02*
Y12512D01*
X280278Y49488D02*
Y59012D01*
X276722Y49488D02*
Y59012D01*
X238722Y12512D02*
X238722Y2988D01*
X242278Y12512D02*
X242278Y2988D01*
X213750Y123750D02*
Y134750D01*
X205750Y123750D02*
X213750D01*
X192750D02*
X200750D01*
X192750D02*
Y134750D01*
X200750D01*
X205750D02*
X213750D01*
X251000Y114528D02*
X258778Y106750D01*
X253121Y101093D02*
X258778Y106750D01*
X243929Y91901D02*
X249586Y97558D01*
X236151Y99679D02*
X243929Y91901D01*
X236151Y99679D02*
X241808Y105336D01*
X245343Y108871D02*
X251000Y114528D01*
X190250Y37005D02*
Y48005D01*
X198250D01*
X203250D02*
X211250D01*
Y37005D02*
Y48005D01*
X203250Y37005D02*
X211250D01*
X190250D02*
X198250D01*
X204222Y106488D02*
Y116012D01*
X207778Y106488D02*
Y116012D01*
X393250Y189750D02*
Y199750D01*
X385250Y189750D02*
X393250D01*
X372250D02*
X380250D01*
X372250D02*
Y199750D01*
X380250D01*
X385250D02*
X393250D01*
X393500Y210500D02*
X403500Y210500D01*
X403500Y202500D01*
X403500Y197500D02*
X403500Y189500D01*
X393500D02*
X403500D01*
X393500D02*
Y197500D01*
Y202500D02*
Y210500D01*
X362250Y189250D02*
X372250D01*
X362250D02*
Y197250D01*
Y202250D02*
Y210250D01*
X372250Y210250D01*
X372250Y202250D01*
Y189250D02*
Y197250D01*
X190964Y92360D02*
Y102360D01*
X198964D01*
X203964D02*
X211964D01*
Y92360D02*
Y102360D01*
X203964Y92360D02*
X211964D01*
X190964D02*
X198964D01*
X190500Y48255D02*
Y58255D01*
X198500D01*
X203500D02*
X211500D01*
Y48255D02*
Y58255D01*
X203500Y48255D02*
X211500D01*
X190500D02*
X198500D01*
D15*
X156000Y243500D02*
X156000Y232500D01*
X156000Y243500D02*
X158250Y236750D01*
X153750Y236750D02*
X156000Y243500D01*
X153750Y236750D02*
X158250Y236750D01*
X160500Y239250D02*
X165000D01*
X162750Y232500D02*
X165000Y239250D01*
X160500D02*
X162750Y232500D01*
X162750Y243500D02*
X162750Y232500D01*
X62250Y186750D02*
X67500D01*
Y181500D02*
Y186750D01*
X62250Y140750D02*
X67500D01*
Y146000D01*
X23000Y140750D02*
X28250D01*
X23000D02*
Y146000D01*
Y186750D02*
X28250D01*
X23000Y181500D02*
Y186750D01*
X62375Y186625D02*
X67500Y181500D01*
X4250Y1750D02*
X16250D01*
X4250D02*
Y12750D01*
X50250Y1750D02*
Y12750D01*
X38250Y1750D02*
X50250D01*
X200000Y295250D02*
X212000Y295250D01*
X200000Y284250D02*
Y295250D01*
X246000Y284250D02*
Y295250D01*
X234000Y295250D02*
X246000Y295250D01*
X186750Y295250D02*
X198750D01*
Y284250D02*
Y295250D01*
X152750Y284250D02*
Y295250D01*
X164750D01*
X247500Y295250D02*
X259500D01*
X247500Y284250D02*
Y295250D01*
X293500Y284250D02*
Y295250D01*
X281500D02*
X293500D01*
X4250Y295250D02*
X16250D01*
X4250Y284250D02*
Y295250D01*
X50250Y284250D02*
Y295250D01*
X38250D02*
X50250D01*
X327500Y1500D02*
X339500D01*
Y12500D01*
X293500Y1500D02*
Y12500D01*
Y1500D02*
X305500D01*
X362500Y295250D02*
X374500D01*
X362500Y284250D02*
Y295250D01*
X408500Y284250D02*
Y295250D01*
X396500D02*
X408500D01*
X396500Y1500D02*
X408500D01*
Y12500D01*
X362500Y1500D02*
Y12500D01*
Y1500D02*
X374500D01*
X293500Y295250D02*
X305500D01*
X293500Y284250D02*
Y295250D01*
X339500Y284250D02*
Y295250D01*
X327500D02*
X339500D01*
X378500Y73250D02*
X391500D01*
X378500Y113250D02*
X391500D01*
X422250Y180000D02*
X435250D01*
X422250Y220000D02*
X435250D01*
X420379Y156000D02*
X433379D01*
X420379Y116000D02*
X433379D01*
X256499Y292498D02*
X254166D01*
X253000Y291331D01*
Y286666D01*
X254166Y285500D01*
X256499D01*
X257665Y286666D01*
Y291331D01*
X256499Y292498D01*
X236250Y234750D02*
Y242747D01*
X240249D01*
X241582Y241415D01*
Y238749D01*
X240249Y237416D01*
X236250D01*
X244247Y234750D02*
Y242747D01*
X248246D01*
X249579Y241415D01*
Y238749D01*
X248246Y237416D01*
X244247D01*
X257576Y241415D02*
X256243Y242747D01*
X253578D01*
X252245Y241415D01*
Y240082D01*
X253578Y238749D01*
X256243D01*
X257576Y237416D01*
Y236083D01*
X256243Y234750D01*
X253578D01*
X252245Y236083D01*
X331000Y10998D02*
X333333D01*
X332166D01*
Y4000D01*
X331000D01*
X333333D01*
X89750Y288250D02*
Y295248D01*
X93249D01*
X94415Y294081D01*
Y291749D01*
X93249Y290583D01*
X89750D01*
X92083D02*
X94415Y288250D01*
X-2000Y238194D02*
X-7332D01*
X-9997Y240860D01*
X-7332Y243526D01*
X-2000D01*
X-5999D01*
Y238194D01*
X-2000Y246192D02*
X-9997D01*
X-2000Y251523D01*
X-9997D01*
Y254189D02*
Y259521D01*
Y256855D01*
X-2000D01*
X238000Y292498D02*
X240333D01*
X239166D01*
Y285500D01*
X238000D01*
X240333D01*
X-2376Y70250D02*
X-7708D01*
Y71583D01*
X-6375Y72916D01*
X-2376D01*
X-6375D01*
X-7708Y74249D01*
X-6375Y75582D01*
X-2376D01*
Y78247D02*
X-10374D01*
Y82246D01*
X-9041Y83579D01*
X-6375D01*
X-5042Y82246D01*
Y78247D01*
X-9041Y91576D02*
X-10374Y90244D01*
Y87578D01*
X-9041Y86245D01*
X-3709D01*
X-2376Y87578D01*
Y90244D01*
X-3709Y91576D01*
X-10374Y94242D02*
Y96908D01*
Y95575D01*
X-2376D01*
Y94242D01*
Y96908D01*
Y104906D02*
Y102240D01*
X-3709Y100907D01*
X-6375D01*
X-7708Y102240D01*
Y104906D01*
X-6375Y106238D01*
X-5042D01*
Y100907D01*
X-8665Y205446D02*
X-9997Y204113D01*
Y201447D01*
X-8665Y200114D01*
X-3333D01*
X-2000Y201447D01*
Y204113D01*
X-3333Y205446D01*
X-5999D01*
Y202780D01*
X-2000Y208112D02*
X-9997D01*
X-2000Y213443D01*
X-9997D01*
X-8665Y221441D02*
X-9997Y220108D01*
Y217442D01*
X-8665Y216109D01*
X-7332D01*
X-5999Y217442D01*
Y220108D01*
X-4666Y221441D01*
X-3333D01*
X-2000Y220108D01*
Y217442D01*
X-3333Y216109D01*
X-8665Y229438D02*
X-9997Y228105D01*
Y225439D01*
X-8665Y224107D01*
X-7332D01*
X-5999Y225439D01*
Y228105D01*
X-4666Y229438D01*
X-3333D01*
X-2000Y228105D01*
Y225439D01*
X-3333Y224107D01*
X42000Y11248D02*
X44333D01*
X43166D01*
Y4250D01*
X42000D01*
X44333D01*
X333249Y292498D02*
X330916D01*
X329750Y291331D01*
Y286666D01*
X330916Y285500D01*
X333249D01*
X334415Y286666D01*
Y291331D01*
X333249Y292498D01*
X42000Y292748D02*
X44333D01*
X43166D01*
Y285750D01*
X42000D01*
X44333D01*
X185500Y292498D02*
X187833D01*
X186666D01*
Y285500D01*
X185500D01*
X187833D01*
X194830Y292498D02*
X192498D01*
X191331Y291331D01*
Y286666D01*
X192498Y285500D01*
X194830D01*
X195997Y286666D01*
Y291331D01*
X194830Y292498D01*
X208500Y9915D02*
Y5250D01*
X203835Y9915D01*
X202669D01*
X201502Y8749D01*
Y6416D01*
X202669Y5250D01*
X75415Y294081D02*
X74249Y295248D01*
X71916D01*
X70750Y294081D01*
Y289416D01*
X71916Y288250D01*
X74249D01*
X75415Y289416D01*
Y291749D01*
X73083D01*
X367750Y11248D02*
X370083D01*
X368916D01*
Y4250D01*
X367750D01*
X370083D01*
X369000Y292498D02*
X371333D01*
X370166D01*
Y285500D01*
X369000D01*
X371333D01*
X108500Y295248D02*
X113165D01*
X110833D01*
Y288250D01*
X185000Y6500D02*
Y8833D01*
Y7666D01*
X178002D01*
X179169Y6500D01*
X-1750Y34250D02*
X-7082D01*
X-9747Y36916D01*
X-7082Y39582D01*
X-1750D01*
X-5749D01*
Y34250D01*
X-9747Y42247D02*
X-1750D01*
Y46246D01*
X-3083Y47579D01*
X-8414D01*
X-9747Y46246D01*
Y42247D01*
Y55576D02*
Y50245D01*
X-5749D01*
Y52911D01*
Y50245D01*
X-1750D01*
X172002Y15500D02*
X179000D01*
Y20165D01*
X172002Y27163D02*
Y22498D01*
X179000D01*
Y27163D01*
X175501Y22498D02*
Y24830D01*
X172002Y29495D02*
X179000D01*
Y32994D01*
X177834Y34161D01*
X173169D01*
X172002Y32994D01*
Y29495D01*
X171082Y248165D02*
X169749Y249497D01*
X167083D01*
X165750Y248165D01*
Y242833D01*
X167083Y241500D01*
X169749D01*
X171082Y242833D01*
X173747Y249497D02*
Y241500D01*
X179079D01*
X181745Y249497D02*
Y241500D01*
Y244166D01*
X187076Y249497D01*
X183078Y245499D01*
X187076Y241500D01*
D16*
X255500Y245750D02*
Y261000D01*
X252667Y252500D02*
X255500Y261000D01*
X258333Y252500D01*
X252667D02*
X258333D01*
X14417Y54000D02*
X14417Y38750D01*
X14417Y54000D02*
X17250Y45500D01*
X11583Y45500D02*
X14417Y54000D01*
X11583Y45500D02*
X17250Y45500D01*
X13833Y258750D02*
X13833Y243500D01*
X16667Y252000D01*
X11000D02*
X13833Y243500D01*
X11000Y252000D02*
X16667D01*
X235917Y254250D02*
X241583D01*
X235917D02*
X238750Y245750D01*
X241583Y254250D01*
X238750Y245750D02*
Y261000D01*
M02*
