M48
;Layer_Color=9474304
;FILE_FORMAT=4:4
METRIC,LZ
;TYPE=PLATED
T1F00S00C0.2000
T2F00S00C2.6000
;TYPE=NON_PLATED
T3F00S00C0.8000
%
T01
X0000375Y0000375
X0001Y00009
X0Y0002026
X-00004Y000225
X-0000825Y00024
X-0000875Y0003975
Y00045
X0Y00041689
Y00037204
X0001075Y0003875
X00022104Y0003075
X00026604
X0003075Y0002725
X000255Y000225
X0004175Y0002075
X00052Y0002725
X0005775Y000405
X000665Y00051
X0006725Y0005575
X0007475Y00053
X00079Y00053
X00077Y0005675
X00075861Y00072889
X00071136Y00072886
X0008075Y0007275
X0010325Y000745
X0011575Y00073
X0011575Y0007725
X0011625Y000625
X001145Y0005825
X00104Y0004975
X001Y00051
X000925Y0003375
X0008825
X00082
Y000295
X0008275Y00018
X0008675
X0008475Y000145
X0008625Y00008
X0009025
X0008825Y000045
X000735Y00004
X0006075Y000055
X0005675Y0000325
X000415Y00003
X00064Y00017
X001Y0001225
X0010475
X0013175Y000165
Y000225
Y00027
X0013575Y0002475
X0013575Y00019
X0013975Y000165
X0013975Y000225
X0013975Y00027
X0013575Y00031
X0013575Y0003725
Y00043
X0013975Y000455
X0013975Y000395
X0013975Y00035
X0013175Y00035
Y000395
Y000455
X00133Y0005725
X001385
X001485Y0007775
X0014825Y00096
X001555Y000895
X0014Y000905
X00125885Y0008625
X001245Y0010575
X0012125Y00103
X0011625Y001005
X00112509Y0011875
X00122509Y001185
X00132509
X00137509Y001235
X00147509
Y001335
X00142509
Y001385
X00137509Y001435
Y001535
X00142509Y001585
X00137509Y001635
Y001685
X00147509
Y001735
X00152Y0018875
X00132509Y001785
X00127509Y001685
X00123Y0016325
X00127509Y001585
X00127509Y001435
X00122509Y001485
Y001385
Y001285
X00117509Y001535
Y001735
X00108Y00176
X00108Y0016525
X0009925Y00166
X0008775Y0015675
X0008775Y0015095
X0007175Y0015225
X0005925Y00145
X0005375Y0013425
X000495Y001205
X0005275Y0010225
X0004175
Y0009125
X0005275
X0008575Y0009225
X0009
X00089Y0010125
X00085Y0012125
X00084Y00127
X0008425Y0013175
X000835Y00137
X000803Y0014025
X0007125Y00114
Y00108
X0002325Y00105
X0002325Y000985
X0001325Y0009025
X0000605Y00096776
Y00104218
X-00004Y000985
X-00008654Y00098497
X-0000925Y00078497
X-0000225Y0007225
X0000575Y0007725
X0000575Y00082
X0000225Y000855
X0001Y0006875
X0000875Y0006375
X00014Y0006125
X0Y00051863
X0004725Y00059
X0008375Y000415
X0012525Y00031
X00133Y0000425
X001385
X0015575Y0000375
X001685Y0001225
X0017325
X001805Y00011868
X00177Y00005
X0018725Y0000675
X0018475Y0002825
X001805Y0002825
X0018475Y0003325
X001825Y0004925
X0017825Y0004925
X0017325Y0004975
X001685
X0017375Y0004525
X00177025Y00054025
X001765Y0006525
X0016925Y0006475
X00165
X0017Y000955
X00162509Y001185
Y001285
X00157509
Y001335
Y001435
X00152645Y001485
X00147509
X00152509Y001535
X00157509Y001585
X00162509
X00167509
X00172509
Y001485
X00182509
X00167509Y001385
X00162509
X00177509Y001285
Y001235
X0013775Y0010725
X00135Y001045
X0008485Y001752
X0009075Y001855
X00094Y0018925
X00055Y0018835
X000595Y00183
X0005075Y0016925
X0003975
Y0015825
X0005075
X00031Y001495
X0002775Y00139
X0001195Y001435
X0001Y001535
X0000175Y00159
X-00002928Y00158497
X-00005Y001625
X-0000925Y001625
X-0000975Y0015425
X-00009698Y001485
X-0000525Y001455
X-0000525Y001395
X-0000425Y001345
X-000095Y00134494
X-000095Y00128747
X-000095Y00124
X0000855Y001265
Y00121058
X000235Y0012175
X000145Y0013175
X-0000175Y001425
X-000005Y00163299
X00004Y001635
X0001875Y0016475
X00031Y001815
Y00186
X00191Y001725
X002003Y001763
X002172Y0017625
X0021775Y0018175
X0023325Y00183369
X00246045Y00183421
X00249375Y00186751
X00256035
X00259365Y00190081
X00266025
X00269355Y00186751
X00279345Y00190081
X00282675Y00186751
X00286005Y00190081
X00289335Y00186751
X00292665Y00190081
X002995Y0018175
X00300645Y001734
X00310645
Y001634
X00300645
Y001534
X00310645
Y001434
X00300645
Y001334
X00310645
Y001234
X00300645
X00290645Y001235
Y001335
Y001435
Y001535
Y001635
Y001735
X00280645Y001734
X00270645
Y001634
Y001534
X00280645
Y001634
Y001434
X00270645
Y001334
X00280645
Y001234
X00270645
X00266025Y0011016
X00262695Y0010017
X00269355
X00272685Y001035
X00279345Y001035
X00276015Y0010683
X00286005Y0011016
X00299325
X00302655Y0010683
X00309315
X00305985Y001035
X00315975Y0009351
X00319305Y0009684
X003125Y0008975
X003045Y00079
X00303Y0005875
X003075
X0031675Y000555
X00327Y0005475
X0032975Y0005075
X00331Y0004375
X0033275Y000375
X0034Y0003725
X0034225Y0002775
X003535Y00021
X003555Y000335
X00361Y00033578
X003735Y00037
X00375Y0004575
X0035675Y0004725
X0035225Y0004725
X00347Y0007025
X0033025Y0007275
X003375Y0008475
X00339285Y0009684
X00335955Y0010017
X00332625Y0011682
X00329295Y0012015
X00329295Y0012681
X00335955
Y0013347
X00329295Y0014013
X00332625Y0014346
X00335955Y0016011
Y0016677
X00339285Y0016344
Y001701
Y0017676
X00342615Y0018009
Y0017343
X00349371Y00167579
X0034725Y00159
X00357Y00148
X0036825Y001475
X0037305Y001485
X003875Y0014625
X004045Y0014
X00401Y001365
X004045Y00133
X0041475Y0013425
X0041675Y0013
X00417Y0011425
X0041Y00115
X0040445Y00115
X00398785Y001156
X00391Y0012375
X003785Y0012475
X0037175Y001225
X00383923Y001145
X0038575Y0011025
X00373673Y000885
X0040475Y000855
X0040475Y0007
X0041Y0006725
X0040075Y0006575
X0039525Y0005775
X003895
X0040025Y0003875
X0040475Y00037
X0040275Y0002175
X00403Y000095
X0037575Y0001175
X0037325Y0000375
X0038125Y0002875
X0034025Y00008
X00336Y00008
X0033175
X0032925Y000185
X00306Y0000975
X003015Y0000975
X00297Y0001175
X002925
X002865Y000245
Y0002875
X0027Y00031
X002635Y00035
Y000395
Y000455
X002595Y00043
Y0003725
X002555Y000395
Y00035
X002595Y00031
Y0002475
Y00019
X002635Y000165
Y000225
Y00027
X002555
Y000225
Y000165
X0025675Y0000475
X0026225
X002285Y000125
X0022375
X0021825Y000085
X002045Y000075
X0020025
X00196
X001915Y0000875
X001915Y00025
X00206401Y00022028
X002055Y0003225
X0021Y000325
X00206Y0003975
X00202Y0003975
X0021175Y0005525
X00211Y000595
X0021525
X00214Y000695
X0021025Y0007475
X00203Y0006675
X00196Y00088
X0019825Y0009125
X001935
X001985Y00106
X00204Y00119
X0020525Y0014125
X00191Y0013725
Y0013275
X0021875Y0012925
X0022225Y0012625
X00231Y00121
X00242715Y0012015
X00249375Y0011349
X00252705Y0012348
Y001368
Y0014346
Y0015012
X00249375Y0014679
X00246045Y0014346
X00239385
X00242715Y00146791
X00246045Y0015012
Y00156781
X00252705Y00156781
X0025475Y0016559
X00252705Y001701
Y00176761
X00231974Y0017065
X00228Y00158
X002175Y0015525
X0021625Y001615
X00232Y0010375
X0023875Y000965
X002375Y0008025
X0024325Y0007975
X00254
X0026625Y0007725
X0027675Y0007575
X00276Y0008025
X0026825Y0006525
X002642
X0026225Y0005475
X0025675
X002555Y000455
X00232Y0004925
X00228
X0029Y0004975
X0029475
X0029Y00069
X00266025Y0009684
X0034575Y0011675
X00342615Y0012015
X00339285Y0012348
X00332625Y001701
X00329295Y0017343
Y0018009
X00332625Y0018342
Y00190081
X00329295Y00186751
X00322635
X00339285Y00183421
X0035025Y0018125
X00351601Y00189891
X0035925Y0017575
X0037475Y00174
X003945Y001735
X003945Y0018225
Y0018675
X004035Y0017775
X004073Y00175
X0041625Y00178
X0041825Y0017375
X004225Y00177
X0042475Y0018425
X004115Y00165
X0043325Y0015075
X00444Y0015575
X0045925Y0017075
X004485Y0011465
X0044275Y00111
X0044275Y0010525
X0044075Y00101
X0044575Y00101
X004455Y000915
X0044075Y00091
X00431Y000915
X0043375Y0007475
X0043825
X004635Y000635
X00415Y0009925
X004105Y0009975
X00430925Y00119
X0042725Y0019175
X0043325Y0020525
X004265Y0021325
X004145Y002005
X004005Y0021175
X003915Y00218
X003915Y0022225
X0037925Y0022175
X0038175Y002395
Y00244
X003745Y0024825
X003585Y002525
X0034875Y0025225
X003435
X003405Y00269
X003475
X0035275
X00358Y00276
Y00281
X0035275Y0028525
X0034775Y00289
X0033925Y002835
X0032375Y0028425
X00324Y00269
X0033225
X0031575
X003075
X0029925
X0028625Y00274
X0028875Y0028725
X002825Y0029175
X00265Y0029325
X0025075Y002895
X0024375Y0028925
X0023975Y00287
X002345Y00287
X002285Y0027525
X00224Y0027525
X0021075Y00275
X002125Y002875
X0019875Y002855
X002015Y0025275
X002062Y0025305
X0021125Y002345
X0021575Y002345
X002135Y0023075
X0022275Y0022875
X00226Y002253
X002215Y00222
X00222Y0023525
X0022675
X00232Y0023525
X00229448Y00230352
X002515Y0023025
X002635Y0022075
X002678Y002137
X0026505Y0020825
X0026825Y0020475
X00266025Y00196741
X0025825Y0020225
X002455Y0020625
X00235Y0020775
Y002125
X002245Y0020725
X002175Y00206387
X0020725Y0021475
X0019275Y002405
X002335Y00254
X002385Y0025625
X0024575Y0025425
X0025975Y0025625
X002615Y0027475
X0028725Y002545
X002935Y00245
X002985Y00245
X00308Y00245
X00303Y002395
X00307Y00223
X0031725Y0022155
X00319305Y00203401
X00315975Y00200071
X00325965Y00196741
X0033725Y00204426
X0034725Y002135
Y00219
X003485Y00226
X00343Y0022375
X003385
X0029475Y0022275
X00289Y0022375
X0028275Y002255
X00292665Y00203401
X00295995Y00200071
X00289335
X00279345Y00196741
X00282675Y00193411
X00295995Y00193411
X0030625Y0028775
X0039Y002825
X0040025Y002875
X00405
X00406Y0025975
X00402Y0025175
X003975
X00409Y0023425
X0041375Y002315
X0041175Y002235
X0046425Y002115
X0045875Y00192
X0045Y0019175
X0017575Y0019075
Y0019525
X0016901Y0019475
X001565Y00195975
X00156Y001915
X0015625Y0020925
X0016075
X0015925Y00213
X00142Y00219
X001375
X0013725Y0023475
X001475Y002437
X0015225Y0024375
X0015675Y0024375
X001535Y00256
X001455Y0025675
X00148Y002745
X0015725Y0027475
X0017125Y002795
X0017475Y0026725
X0016425Y0026175
X00188Y0025825
X00188Y0023925
X0018275Y0023925
X0018375Y0023125
X00178146Y0023125
X0018725Y002175
X00181Y0021075
X0017825Y002065
X0012775Y0021225
X001165Y0021625
X0011Y0022825
X00101Y0022975
X000945Y00233
Y002375
X0010325Y0023925
Y00255
X001115Y0025425
Y0024975
X001165Y0023625
X0009375Y0024825
X0009425Y0026275
X000975Y0027475
X0010175Y0027325
X0010625Y00272
X00109Y0027575
X0010925Y0028225
X0010675Y0028625
X001115Y0028675
X0012775Y00281
X00136Y0027325
X001355Y0029025
X00148625Y00292125
X001475Y0028525
X0019Y00287
X0018375Y002745
X000725Y00274875
X000725Y0026825
Y0026075
X00066Y0025575
X00056Y0025675
X00046Y0025475
X00041294Y00254793
X000245Y0024475
X0002725Y00241
X0002Y002475
X000055Y0025225
X0000075Y002575
X-0000525Y00253997
X-0000975Y00253995
X-0000525Y00262247
X00001343Y00271417
X0000125Y00276
X000175Y00278
X000425Y002875
X0005575Y0028125
X0005625Y00273
X000565Y0026825
X00064Y002725
X000735Y0028375
X0007325Y0024025
X000735Y0023275
X00079Y0023475
X000765Y002155
X000655
Y002045
X000765
X000775Y0019425
X0009275Y0019625
X0010675Y00192
X0011125
X001155
X0009625Y002165
X0005425Y002175
X00042Y002105
X0002875Y002045
X00031Y0019775
Y00193
X000185Y0020725
X0000575Y0019725
X0000175Y0022075
X-00009Y0021725
X-0000875Y00213
X-0000925Y0023125
Y0023675
X0000705Y0023075
X0001175Y0023275
X000125Y002265
X000575Y0023825
T02
X004405Y000275
Y002695
T03
X00188625Y-0
X00200375
X004685Y00142625
Y00154375
X00200375Y00297
X00188625
M30
