M48
;Layer_Color=9474304
;FILE_FORMAT=4:4
METRIC,LZ
;TYPE=PLATED
T1F00S00C0.2000
T2F00S00C0.6500
T3F00S00C3.5001
;TYPE=NON_PLATED
T4F00S00C0.8000
%
T01
X00609158Y0000725
X00623658Y0001925
X00629408
X00634908Y0002725
X00638908Y000315
X00644158Y0002875
X006495Y00026
X00638908Y00047
X00644658Y0006125
X00649158Y0006075
X00651158Y0007575
X00644158Y000765
X00638608Y000765
X00632943Y000771
X00625158Y0008525
X00612658Y0008625
X00605908Y00084
X00618Y0007275
X0060783Y0005
X00665Y00047
X00665158Y00053
X00674908Y000525
X00679658Y00053
X00679908Y000625
X00674908Y000625
X00676908Y0006675
X00676908Y000725
X00681408Y00074592
X00665083Y000805
X00665Y000975
X00667408Y0011225
X00678158Y0011725
X0070925Y0011625
X0069625Y0013175
X0069625Y0013725
X00692908Y001535
X00684158Y0015325
X00667408Y0016675
X00660658Y0017475
X00648658Y00162
X00650408Y001395
X00652408Y0013525
X00656658Y001385
X00658908Y0014575
X00641458Y001365
X0063575Y0013625
X00628658Y00135
X00628658Y0014375
Y0014825
X00634658Y0017325
X00625658Y001795
X00625658Y0018375
X00613408Y0018325
X0062825Y0020025
X00632908
X00637565
X00643158Y0019575
X00647908Y00193
X00645908Y00185
X0065725Y002005
X0066825Y0019675
X00674Y002005
X0072275Y0018925
X007205Y00184
X00738Y001745
X0073225Y001605
X00754825Y00163
X00754825Y00181
X00754825Y00187
Y00205
X0074475Y0021175
X0073Y00207
X007445Y0014675
X007395Y0008
X00722587Y00072738
X007211Y00054
X00724175Y00048
Y00036
X007145Y00041
X00714Y000515
X0071Y0002425
Y000195
Y0001475
X00694775Y000095
X00702Y000285
X0069075Y0004275
X0068325
X00676
X0069875Y0006775
X0070625Y0008775
X00650908Y000915
X00648908Y0009575
X00638658Y000945
Y001015
X00635158Y00098
X00621658Y0010775
X00607208Y0011
X00602408Y00109
X00591158Y001095
X00593408Y0013725
X00608908Y001355
X00645658Y001265
X0074975Y0006225
X00754825Y00057
X0075175Y00051
X00754825Y00039
X00754825Y00033
X00754825Y00015
X00581158Y0003175
X00564408Y0003425
X00571658Y0004625
X00573443Y0005834
X00570113Y0006167
X00553463Y0005834
X00550133Y0005501
X00546658Y0005125
X00538658Y000405
X00524158Y000305
X00510908Y0003725
X00510158Y0004175
X00500408Y0003875
X0050025Y0003075
X00498358Y0002675
X00502408
X0050925Y0000725
X00476Y0001775
X0046955Y000178
X0046025Y0001975
X0044975
X00439Y000195
X0043175
X0041925Y0001675
X0041475
X0041025
X0040325Y000265
X00412Y0003375
X0041875Y0004675
X00423408Y0004875
X004235Y000445
X0042775Y0005225
X0043225
X00432658Y000675
X00437658Y000825
X00439408Y0010275
X00425158Y0009875
X00416667Y0011
X00406667
Y0012
X00401667
X00396667
X00391667
X00386667Y00115
X00386802Y0011
X00381667
X00376667Y001
Y00095
X00381667
Y00085
X00371667
X00366667Y0008
X00356667
Y0009
Y001
Y0011
X00361667Y00105
X00371667Y00105
Y00115
X00376667Y0012
X00371667Y00125
Y0013
X00381667
Y00135
X00366667Y0014
X00351667Y00135
X00342158Y001375
X00337408Y0012675
X00357158Y0012475
X0036175Y0012475
X00361667Y0012
X00351667Y00115
X003255Y0011625
X00317125Y00111375
X0032Y001085
X0030975Y0010475
X002987Y0010405
X002922
X002885Y0010085
X00282Y00094
X00267865Y00094
X0026875Y00083
X0026355Y0006505
X002585Y00065
X00247Y0006175
X00235465Y0006335
X00232Y00048
X0022755Y0003325
X0022Y000365
X002095Y0005275
X00205Y0005775
X002049Y0006385
X0020305Y00078
X002095Y00078
X0020675Y00085
X001988Y000835
X001915Y0008475
X0019095Y00078
X0022575Y0007725
X002334Y0008285
X0023275Y0009275
X002291Y0009565
X0023875Y0009775
X0023675Y0010535
X00234Y0010975
X0023975Y0011075
X002545Y001105
X0025975Y00107
X0025425Y000935
X002455Y0009
X0024475Y00085
X002543Y000527
X0025425Y0004325
X00255375Y00034
X0025825Y00022
X00264375Y0002125
X00259Y0000625
X002545Y0000625
X0025
X0024075Y000255
X0023075Y000195
X00197Y00023
X0019875Y00011
X00289296Y00012
X0028525Y0002825
X0028355Y0004425
X0027775Y0005025
X00272Y0004
X00294Y000395
X0029425Y0005725
Y0006175
X003005Y000655
X0031825Y000645
X00322658Y000645
X00319Y00075
X0031925Y0009225
X002955Y0010775
X0029875Y00118
X00296635Y0014625
X00307938Y00146049
X0031Y0014125
X002877Y001387
X002875Y0017375
X002892Y00183
Y0019125
X002892Y001995
X002815Y0019925
X0027575Y00199
X0027075Y00207
X0026225Y0019925
X0026572Y0019425
X0026825Y0018625
X0026275Y001865
X0025789
X0024725Y00197
X00235Y00191
X00234Y0018525
X0022825Y001943
X00231Y0020595
X0023525Y002095
X00225Y00208
X0022225Y0021175
X00221875Y00204375
X0023Y00216
X002115Y001945
X00202563Y00189119
X0019725Y00189
X0019825Y0015025
X0021225Y001535
X002085Y0015775
X002195Y0016375
X002235
X002275
X0024275Y0016125
X00253Y001615
X00258
X002691Y00161287
X002747Y00167987
X0028Y001665
X003045Y0018175
X00307Y001905
X0030775Y00207
X002892Y0020775
X003175Y00159
X00327Y00156
Y0016325
X003315Y00171
X00336
X00353208Y00167208
X00361Y001635
X003715Y0017025
X00371408Y001875
X003575Y00186
X00350158Y001545
X00345908
X00341408
X003895Y0015275
X00390658Y00157475
X00403167Y0015625
X00409908Y0015675
X004095Y0017
X0040525Y00169
X0040625Y0017325
Y001825
X0041Y0017875
X0042Y00175
X0042275Y0018675
X00427Y0018525
X0043175Y00195
X004385Y00198
X0045125Y001925
X004555Y001945
Y0018925
X00451119Y001848
X00445Y00185
X0044225Y001775
X0043875Y0017425
X00451658Y00167887
X00458908Y0016875
X00474658Y001695
X00478908Y0016775
Y001725
X00492408Y0016375
X00502408Y0016625
X00499208Y0016975
X00501958Y001752
X00497658Y0018225
X00485658Y0019175
X00472297Y00199
X00463Y0019825
X0049175Y002085
X0050475Y002105
X0051575Y00213
X0052225Y0021325
X0053675Y00201
X00541158Y001845
X00551408Y0018305
X00553463Y00164901
X00550133Y00161571
X00560123Y00158241
X00556793Y00148251
X00563453
X00566783Y0015158
Y0014492
X00563453Y0014159
Y0013493
X00566783Y001316
X00570113Y0012827
X00573443Y0012494
Y001316
Y0013826
X00576773Y0014159
Y0013493
X00583529Y00129079
X00581408Y001205
X00570113Y0012161
X00566783Y0010496
X00563453Y0010163
Y0008831
X00570113
Y0009497
X00573443Y0008498
X00576773Y0008165
X00579908Y0007825
X00566783Y0007832
X00563453Y0008165
X00544803Y000849
X00534803
Y000949
X00544803
Y001049
X00534803
Y001149
Y001249
X00544803
Y001149
Y001349
X00534803
X00533658Y0014325
X00530153Y00154911
X00526823Y00151581
X00523493Y00148251
X00520163Y00151581
X00516833Y00148251
X00513503Y00151581
Y00158241
X00516833Y00154911
X00523493Y00161571
X00526823Y00164901
X00530153Y00161571
X0052725Y0018325
X00516908Y00187
X00500182Y00158241
Y00151581
X00503512Y00148251
X00490192
X00493522Y00151581
X00483532Y00148251
X00480202Y00144921
X00467408Y00144869
X00466132Y0013215
X00462158Y001195
X00451658Y0011675
X00450408Y00123
X00451908Y0013775
X00435958Y001383
X00425158Y00134
X0042575Y0014425
X004235Y0016375
X004025Y001865
X004075Y00209
X0039725Y00215
X00396667Y001
X00401667
X00396667Y0009
X00391667
Y00095
Y00105
X00396667Y0008
X00411667Y00085
Y0009
X00404158Y00057
X00389658Y00051
X00382408Y000575
X00374158Y0005125
X003715Y0006675
X00358658Y0006725
X00355408Y000645
X00350408Y00062
X003585Y000485
X00382658Y0003925
X0036925Y0000625
X003645
X0035Y0000325
X0032225Y000115
Y00016
X0032236Y00020464
X0031375Y0002825
X003125Y000385
X00346667Y0008025
X00458408Y00084
X00465158Y000825
X00476872Y0008165
X00483532Y0007499
X00486862Y0008498
Y000983
Y0010496
Y0011162
X00483532Y0010829
X00480202Y0010496
X00473542
X00476872Y0010829
X00480202Y00111621
Y0011828
X00486862Y0011828
X00486862Y00138261
X00504803Y001349
X00514803
Y001249
X00504803
Y001149
X00514803
Y001049
X00504803
Y000949
X00514803
Y000849
X00504803
X00500182Y0007166
X00496852Y0006167
X00503512
X00506842Y00065
X00513503Y00065
X00510173Y0006833
X00520163Y0007166
X00533483
X00536813Y0006833
X00543473
X00540143Y00065
X00524803Y00085
Y00095
Y00105
Y00115
Y00125
Y00135
X00573443Y0014492
X00584408Y0014275
X00585759Y00151391
X00581408Y00175
Y001805
X0058275Y00186
X00577158Y0018525
X00572658
X00571408Y00165926
X00561158Y0001625
X00550908Y00017
X00565158Y0000525
X00488408Y0004125
X0047575
X00470454Y00040546
X004545Y00039
X0045425Y0004425
X00458Y00069
X0046375Y000695
X00452908Y0009075
X00500182Y0005834
X003985Y0000575
X002095Y0010675
X001965Y001245
X0017525Y001246
X0018025Y0011175
X0018475
X0017075Y0010175
X0015975
Y0009075
X0017075
X00163Y0006375
X0016375Y00047
X0017975Y00047
X0017825Y00026
X00183Y0001775
Y000125
X0019025Y00023
X001875Y0006375
X0015225Y0005525
X0014425Y000585
X00136Y000535
X0013525Y0006875
X00128875Y000735
X0012Y000755
X001205Y0007
X0012625Y00063
X0012075Y000525
X0009325Y000515
X000885
X000855Y000425
Y0003775
X00098Y0003775
Y000425
X001005Y0006825
X0009725Y00073
X0009725Y0007775
Y0008275
X000835Y0008375
X000835Y000785
X0007475Y0007775
X0006825Y0008625
X00063Y001045
X00052
Y001155
X00063
X00082Y0012075
X000955Y001225
X00095Y001165
X000935Y0011
Y00103
X0010925Y001035
X00110125Y0009875
X0010625Y0010725
X001135Y001245
X0013475Y00126
X00139375Y00125875
X0014375Y001425
X001345Y0014275
X00131Y00153
X0012825Y00162
X001325Y001785
X0013675
X00141
X001415Y00192
X00136
X00148Y0018875
X00158Y00185
X00163Y0018825
X0017175Y00192
X001825Y001915
X0018975Y001925
X0017625Y001765
X0015925Y001725
X0015925Y0016775
X0014975Y0016825
X001548Y001575
X0016105Y001553
X001616Y0014
X00166Y001425
X001545Y0013875
X001755Y001535
X0019025Y0015375
X0011175Y0015275
Y001575
X00101Y0017225
X00097Y001745
X000925
X0008825Y001745
X0009025Y0016875
X00095
X0009975Y001945
X0009975Y00199
X0010325Y00202
X0010625Y00208
X0011Y0020425
X00110697Y0019925
X00114999Y00191749
X00107Y0019025
X0012275Y001885
X001205Y00184
X0009075Y002055
X0008675
X0006325Y0020175
Y0019575
Y0019125
X0005925Y001935
Y0019925
X0005525Y0020175
Y0019575
Y0019125
Y0018325
Y0017875
Y0017275
X0005925Y0017525
Y00181
X0006325Y0017875
Y0018325
Y0017275
X00062Y00161
X000565
X0004875Y0018725
X000565Y0021075
X00062
X0002875Y00206
X00024
X0002625Y002005
X0003075
X0002175
X0001275Y001975
X000085
X000035Y0019325
X-000015
X00001Y0018925
X-000015Y00182499
Y00202499
X0000275
X0000025Y00160501
X-00004
Y00142499
X0000025
Y00127501
X-00004
Y00112499
X0000025
X000176Y00117163
X00017767Y00121864
X000195Y0012925
X0002175Y00133497
Y00138
X0002825Y0013575
X00029199Y00140449
X00033701
X0004225Y001385
X0003375Y001275
Y00121
X0003075Y0010675
X0001925Y001025
X0002075Y0009775
X00012Y000795
Y0007525
Y00071
X00005Y0007275
Y00077
X-000005Y000825
X-0000275Y00072
X0000025Y0006525
X-00004Y0006325
X-0000475Y00044
X-00004Y000225
X0Y0002
Y00025
X00006Y000185
X0001675Y0001875
X00015Y00014
X0001875Y0000825
X0003525Y00005
X000555Y00009
X00061
X0006225Y0001825
Y0002425
Y0002875
X0005825Y000265
X0005825Y0002075
X0005425Y0001825
X0005425Y0002425
X0005425Y0002875
X0005825Y0003275
X0005825Y00039
Y0004475
X0005425Y0004725
X0005425Y0004125
X0005425Y0003675
X0006225
X0006225Y0004125
Y0004725
X000605Y000565
Y00061
X00056
Y000565
X00036Y00062
X0003125
X0003175Y0007
X000365Y0007225
X00041
X000455
X000825Y000675
X00087Y0006725
X0009275Y0007075
X00094Y00014
X0008925
X0006875Y0003275
X00035Y000375
X0003125Y000355
Y0003975
X000165Y0003025
X0001625Y000255
X000125Y0002825
X-00004Y00093
X0001825Y00171
X0002175Y00174
X0002625
X0003075
X0002625Y00168
X0002175
X0012945Y0009475
X0013875Y0009725
X001505Y000735
T02
X002013Y002064
X00214
X001886
X001759
X001632
X001505
X001378
X001251
X001284Y000262
X001411
X001538
X001665
Y000135
X001538
X001411
X001284
X001157
Y000262
T03
X007675Y0011
T04
X00191625Y0
X00203375
X00203375Y0022
X00191625
X00531625
X00543375
Y0
X00531625
M30
