M48
;Layer_Color=9474304
;FILE_FORMAT=4:4
METRIC,LZ
;TYPE=PLATED
T1F00S00C0.2000
;TYPE=NON_PLATED
%
T01
X00665408Y0010325
X00665533Y0010775
X00638058Y001485
X00642908Y001725
X0074475Y00175
X007495Y00175
Y0016425
X0074475Y0016425
Y00193
X007495Y00193
Y0020625
X0074475Y0020625
X00576773Y0012161
X00573443Y0011828
X00570113Y0011495
X00563453
X00563533Y0012153
X00576773Y0010829
Y0009497
Y0008831
X00573443Y0009164
X00566783
X00563453Y0009497
X00522408Y0005075
X00450908Y000575
X00445908Y000576
X00442408Y00054
X00449158Y0004425
Y0003895
X00406908Y0003555
Y0003025
X00393933Y00043325
X00386883
X00377683Y00043325
X00370633
X00360658Y0005275
Y000575
X00326508Y000725
Y00077
X00327002Y00092
X00326952Y0009655
X00386667Y00135
X00391667
X00396667
X00401667
X00421658Y0011
X00444658Y00094
X00449158
X00450408Y0008575
X00446408Y0008275
X00496852Y00154911
X00493522Y00158241
X00506842
X0041925Y0019825
X0042225Y002065
X0027575Y0020825
X0022375Y001685
X0019175Y000965
X0018875Y001005
X001025Y0010425
X0009825Y00106
X00093Y000985
X00078125Y00065375
X00078Y0006075
X000455Y0003675
X00028875Y0011125
X0000935Y001065
X0000675Y001205
X0000975Y0013425
X-0000225Y001325
X0005925Y0018725
X000715Y0018325
X001212Y001543
X001685Y0018025
M30
