M48
;Layer_Color=9474304
;FILE_FORMAT=4:4
METRIC,LZ
;TYPE=PLATED
T1F00S00C0.2000
;TYPE=NON_PLATED
%
T01
X000035Y000665
X0001225Y0010875
X00012Y0014825
X0002275Y0015825
X00033375Y0015005
X000375Y0013925
X00042875Y00136875
X000495Y001405
X0005Y0014975
X000715Y0013
X00092794Y001308
X00092844Y0012625
X0009235Y001155
Y00111
X001265Y00096
Y0009125
X00136475Y00081825
X00143525
X00152725Y00081825
X00159775
X0017275Y0007405
Y0006875
X0018925Y0008775
X001875Y001485
X00167509Y001735
X00162509
X00157509
X00152509
X0008125Y001655
X0007675
X0002625Y001765
X0001575Y00178
X00017Y0018425
Y00189
X002105Y001325
X00215
X0021625Y0012425
X0021225Y0012125
X0021175Y000961
X0021675Y00096
X0020825Y000925
X00215Y0008275
Y0007745
X00192Y000805
X0028825Y0008925
X00332625Y0013014
X00339285
X00342615Y0013347
Y0012681
Y0014679
X00339285Y0015678
X00342615Y0016011
X00335955Y0015345
X00329295
X00329375Y0016003
X00329295Y0013347
X0043125Y0012975
Y0014175
Y0014625
X0043975Y001495
X00444Y00148
X00443761Y0012225
X004405Y0011825
X004315Y001035
X004545Y000985
X0045025Y0006575
X00445Y0007
X00439Y0017075
X00439Y0017675
Y0018275
X00439Y0018875
X004039Y00187
X0040875Y00211
X00439Y002115
X00439Y0020675
X00439Y0020075
X00439Y0019475
X0045075Y002252
X004355Y0023575
X002748Y00252146
X00276Y0026225
X0025075Y0026275
X0022825Y00254
X00255Y0023325
X0026225Y002135
X00259365Y00196741
X00262695Y00193411
X00272685Y00196741
X0020525Y0028325
X0018925Y002745
X001755Y0028275
X001635Y002835
X00157Y0028725
X0014025Y002885
X0011375Y0026625
X00171Y002567
X0017725Y0026175
X00182375Y00238625
X001546Y0023525
X0015Y0022075
X001011Y0019935
X0006675Y002037
X00068Y002133
X0002695Y0021175
X0002205
X0002175Y001975
X0002625Y0022775
X0000225Y0024225
M30
