G04*
G04 #@! TF.GenerationSoftware,Altium Limited,Altium Designer,19.1.6 (110)*
G04*
G04 Layer_Physical_Order=3*
G04 Layer_Color=16440176*
%FSLAX44Y44*%
%MOMM*%
G71*
G01*
G75*
%ADD10C,0.1000*%
%ADD14C,0.3000*%
%ADD18C,0.2500*%
%ADD150C,1.0000*%
%ADD153C,0.3500*%
%ADD154C,0.5000*%
%ADD157C,0.4000*%
%ADD161C,1.0000*%
%ADD163C,0.1100*%
%ADD166C,0.3500*%
%ADD167C,0.5000*%
%ADD168C,0.4000*%
G36*
X120392Y214637D02*
X120536Y214514D01*
X120681Y214405D01*
X120827Y214311D01*
X120974Y214231D01*
X121123Y214166D01*
X121272Y214115D01*
X121423Y214079D01*
X121574Y214057D01*
X121727Y214050D01*
Y213050D01*
X121574Y213043D01*
X121423Y213021D01*
X121272Y212985D01*
X121123Y212934D01*
X120974Y212869D01*
X120827Y212789D01*
X120681Y212695D01*
X120536Y212586D01*
X120392Y212463D01*
X120250Y212325D01*
Y214775D01*
X120392Y214637D01*
D02*
G37*
G36*
X219253Y213534D02*
X219268Y213345D01*
X219293Y213166D01*
X219330Y212996D01*
X219378Y212836D01*
X219436Y212685D01*
X219506Y212543D01*
X219587Y212411D01*
X219679Y212288D01*
X219782Y212175D01*
X219075Y211468D01*
X218962Y211571D01*
X218839Y211663D01*
X218707Y211744D01*
X218565Y211813D01*
X218414Y211872D01*
X218254Y211920D01*
X218084Y211957D01*
X217905Y211982D01*
X217716Y211997D01*
X217518Y212000D01*
X219250Y213732D01*
X219253Y213534D01*
D02*
G37*
G36*
X491982Y208250D02*
X491784Y208247D01*
X491595Y208232D01*
X491416Y208207D01*
X491246Y208170D01*
X491086Y208122D01*
X490935Y208064D01*
X490793Y207994D01*
X490661Y207913D01*
X490538Y207821D01*
X490425Y207718D01*
X489718Y208425D01*
X489821Y208538D01*
X489913Y208661D01*
X489994Y208793D01*
X490064Y208935D01*
X490122Y209086D01*
X490170Y209246D01*
X490206Y209416D01*
X490232Y209595D01*
X490247Y209784D01*
X490250Y209982D01*
X491982Y208250D01*
D02*
G37*
G36*
X262907Y210203D02*
X256577Y203874D01*
X235197D01*
X234880Y204245D01*
X234394Y205144D01*
X234554Y205950D01*
X234340Y207023D01*
X233733Y207933D01*
X233308Y208216D01*
X232998Y209702D01*
X234673Y211376D01*
X262421D01*
X262907Y210203D01*
D02*
G37*
G36*
X308578Y203797D02*
X308092Y202624D01*
X294673D01*
X292648Y204648D01*
X291500Y205124D01*
X274215D01*
X273433Y206394D01*
X273554Y207000D01*
X273340Y208073D01*
X273318Y208106D01*
X273997Y209376D01*
X302999D01*
X308578Y203797D01*
D02*
G37*
G36*
X529375Y200400D02*
X529233Y200538D01*
X529089Y200661D01*
X528944Y200770D01*
X528798Y200864D01*
X528651Y200944D01*
X528502Y201009D01*
X528353Y201060D01*
X528202Y201096D01*
X528051Y201118D01*
X527898Y201125D01*
Y202125D01*
X528051Y202132D01*
X528202Y202154D01*
X528353Y202190D01*
X528502Y202241D01*
X528651Y202306D01*
X528798Y202386D01*
X528944Y202480D01*
X529089Y202589D01*
X529233Y202712D01*
X529375Y202850D01*
Y200400D01*
D02*
G37*
G36*
X186974Y217962D02*
X188020Y216395D01*
X189674Y215290D01*
X191625Y214902D01*
X193576Y215290D01*
X195230Y216395D01*
X196276Y217962D01*
X198724D01*
X199770Y216395D01*
X201424Y215290D01*
X203375Y214902D01*
X205326Y215290D01*
X206980Y216395D01*
X208027Y217962D01*
X394508Y217961D01*
X394842Y217381D01*
X395031Y216691D01*
X394535Y215948D01*
X394321Y214875D01*
X394535Y213802D01*
X395142Y212892D01*
X396052Y212285D01*
X397125Y212071D01*
X398198Y212285D01*
X399108Y212892D01*
X399715Y213802D01*
X399929Y214875D01*
X399715Y215948D01*
X399219Y216691D01*
X399408Y217381D01*
X399742Y217961D01*
X526974Y217961D01*
X528020Y216395D01*
X529674Y215290D01*
X531625Y214902D01*
X533576Y215290D01*
X535230Y216395D01*
X536276Y217961D01*
X538724D01*
X539770Y216395D01*
X541424Y215290D01*
X543375Y214902D01*
X545326Y215290D01*
X546980Y216395D01*
X548026Y217961D01*
X765461Y217961D01*
Y2039D01*
X548026Y2039D01*
X546980Y3605D01*
X545326Y4710D01*
X543375Y5098D01*
X541424Y4710D01*
X539770Y3605D01*
X538724Y2039D01*
X536276D01*
X535230Y3605D01*
X533576Y4710D01*
X531625Y5098D01*
X529674Y4710D01*
X528020Y3605D01*
X526974Y2039D01*
X208026Y2039D01*
X206980Y3605D01*
X205326Y4710D01*
X203375Y5098D01*
X201424Y4710D01*
X199770Y3605D01*
X198724Y2039D01*
X196276D01*
X195230Y3605D01*
X193576Y4710D01*
X191625Y5098D01*
X189674Y4710D01*
X188020Y3605D01*
X186974Y2039D01*
X9539Y2039D01*
Y5750D01*
X9519Y5849D01*
X9529Y5950D01*
X9433Y6926D01*
X9346Y7212D01*
X9288Y7506D01*
X8541Y9308D01*
X8099Y9970D01*
X6720Y11349D01*
X6720Y11349D01*
X6058Y11791D01*
X4256Y12538D01*
X3962Y12596D01*
X3675Y12683D01*
X2700Y12779D01*
X2599Y12769D01*
X2500Y12789D01*
X-30461D01*
Y45711D01*
X-3500D01*
X-3401Y45731D01*
X-3300Y45721D01*
X-2130Y45836D01*
X-1843Y45923D01*
X-1549Y45981D01*
X614Y46877D01*
X1275Y47319D01*
X2931Y48975D01*
X3373Y49636D01*
X4269Y51799D01*
X4424Y52579D01*
Y54921D01*
X4269Y55701D01*
X3373Y57864D01*
X2931Y58525D01*
X1275Y60181D01*
X614Y60623D01*
X-588Y61121D01*
X-1410Y62177D01*
X-1196Y63250D01*
X-1410Y64323D01*
X-2017Y65233D01*
X-2927Y65840D01*
X-4000Y66054D01*
X-5073Y65840D01*
X-5983Y65233D01*
X-6590Y64323D01*
X-6804Y63250D01*
X-6766Y63059D01*
X-7742Y61789D01*
X-30461D01*
Y163211D01*
X-3500D01*
X-3401Y163231D01*
X-3300Y163221D01*
X-2130Y163336D01*
X-1843Y163423D01*
X-1549Y163481D01*
X614Y164377D01*
X1275Y164819D01*
X1494Y165038D01*
X2668Y164552D01*
Y157500D01*
X2668Y157500D01*
X2985Y156735D01*
X2985Y156735D01*
X16235Y143485D01*
X17000Y143168D01*
X26559D01*
X26696Y143000D01*
X26910Y141927D01*
X27517Y141017D01*
X28427Y140410D01*
X29500Y140196D01*
X29742Y140244D01*
X30582Y140393D01*
X31111Y139376D01*
X31719Y138466D01*
X32628Y137858D01*
X33701Y137645D01*
X34602Y136906D01*
X34601Y131816D01*
X34601Y131816D01*
X34787Y131368D01*
X34202Y130449D01*
X33976Y130259D01*
X33750Y130304D01*
X32677Y130090D01*
X31767Y129483D01*
X31160Y128573D01*
X30946Y127500D01*
X31160Y126427D01*
X31540Y125858D01*
X31682Y125000D01*
X31540Y124142D01*
X31160Y123573D01*
X30946Y122500D01*
X31160Y121427D01*
X31767Y120517D01*
X32677Y119910D01*
X33750Y119696D01*
X34823Y119910D01*
X35733Y120517D01*
X36340Y121427D01*
X36554Y122500D01*
X36340Y123573D01*
X35960Y124142D01*
X35818Y125000D01*
X35960Y125858D01*
X36340Y126427D01*
X36554Y127500D01*
X36524Y127649D01*
X37695Y128274D01*
X48406Y117564D01*
X48406Y117564D01*
X49072Y116897D01*
X49363Y116777D01*
X49626Y116601D01*
X49735Y116623D01*
X49837Y116580D01*
X50129Y116701D01*
X50438Y116763D01*
X51252Y117306D01*
X52000Y117455D01*
X52748Y117306D01*
X53383Y116882D01*
X53806Y116248D01*
X53955Y115500D01*
X53806Y114752D01*
X53263Y113938D01*
X53201Y113629D01*
X53081Y113337D01*
X53123Y113235D01*
X53101Y113126D01*
X53277Y112863D01*
X53397Y112572D01*
X60072Y105898D01*
X60363Y105777D01*
X60626Y105601D01*
X60735Y105623D01*
X60837Y105581D01*
X61129Y105701D01*
X61438Y105763D01*
X62252Y106306D01*
X63000Y106455D01*
X63748Y106306D01*
X64383Y105883D01*
X64806Y105248D01*
X64955Y104500D01*
X64806Y103752D01*
X64263Y102938D01*
X64201Y102629D01*
X64081Y102337D01*
X64123Y102235D01*
X64101Y102126D01*
X64277Y101863D01*
X64398Y101572D01*
X72152Y93817D01*
X72444Y93697D01*
X72706Y93521D01*
X72815Y93543D01*
X72917Y93500D01*
X73209Y93621D01*
X73519Y93683D01*
X74099Y94071D01*
X74750Y94200D01*
X75401Y94071D01*
X75952Y93702D01*
X76321Y93151D01*
X76450Y92500D01*
X76321Y91849D01*
X75933Y91269D01*
X75871Y90959D01*
X75750Y90667D01*
X75793Y90565D01*
X75771Y90456D01*
X75947Y90194D01*
X76068Y89902D01*
X76735Y89235D01*
X77500Y88918D01*
X89302D01*
X94391Y83828D01*
X94637Y83726D01*
X94842Y83558D01*
X95005Y83574D01*
X95157Y83511D01*
X95402Y83613D01*
X95667Y83639D01*
X95739Y83677D01*
X96677Y82739D01*
X96639Y82667D01*
X96613Y82402D01*
X96511Y82157D01*
X96574Y82005D01*
X96558Y81842D01*
X96726Y81637D01*
X96828Y81391D01*
X98418Y79802D01*
X98418Y75704D01*
X98538Y75413D01*
X98600Y75103D01*
X98692Y75041D01*
X98735Y74939D01*
X99026Y74818D01*
X99289Y74643D01*
X99651Y74571D01*
X100202Y74202D01*
X100571Y73651D01*
X100700Y73000D01*
X100529Y72138D01*
X100547Y72047D01*
X100467Y71839D01*
X100485Y71051D01*
X99427Y70840D01*
X98517Y70233D01*
X97910Y69323D01*
X97696Y68250D01*
X97910Y67177D01*
X98198Y66745D01*
X98735Y65622D01*
X98595Y65285D01*
X98423Y64963D01*
X98439Y64909D01*
X98418Y64857D01*
X98418Y56250D01*
X98735Y55485D01*
X116735Y37485D01*
X117500Y37168D01*
X251895Y37168D01*
X252187Y37288D01*
X252496Y37350D01*
X252558Y37442D01*
X252660Y37485D01*
X252739Y37675D01*
X252810Y37722D01*
X253298Y38452D01*
X253849Y38821D01*
X254500Y38950D01*
X255151Y38821D01*
X255702Y38452D01*
X256190Y37722D01*
X256261Y37675D01*
X256340Y37485D01*
X256442Y37442D01*
X256504Y37350D01*
X256813Y37288D01*
X257105Y37168D01*
X269698D01*
X270376Y35898D01*
X270160Y35573D01*
X269946Y34500D01*
X270160Y33427D01*
X270767Y32517D01*
X271677Y31910D01*
X272750Y31696D01*
X273823Y31910D01*
X274733Y32517D01*
X274902Y32771D01*
X276455Y33015D01*
X278735Y30735D01*
X278735Y30735D01*
X279500Y30418D01*
X408993Y30418D01*
X409145Y30480D01*
X409308Y30464D01*
X409513Y30633D01*
X409759Y30735D01*
X409821Y30886D01*
X409948Y30990D01*
X410482Y31990D01*
X410499Y32153D01*
X410589Y32289D01*
X410538Y32550D01*
X410564Y32814D01*
X410461Y32939D01*
X410300Y33750D01*
X410429Y34401D01*
X410798Y34952D01*
X411349Y35321D01*
X412000Y35450D01*
X412651Y35321D01*
X413202Y34952D01*
X413571Y34401D01*
X413700Y33750D01*
X413539Y32939D01*
X413436Y32814D01*
X413462Y32550D01*
X413410Y32289D01*
X413502Y32153D01*
X413518Y31990D01*
X414052Y30990D01*
X414179Y30886D01*
X414241Y30735D01*
X414487Y30633D01*
X414692Y30464D01*
X414855Y30480D01*
X415007Y30418D01*
X426250D01*
X426250Y30417D01*
X427015Y30735D01*
X427015Y30735D01*
X436015Y39735D01*
X436332Y40500D01*
Y57250D01*
X436332Y57250D01*
X436015Y58015D01*
X425765Y68265D01*
X425000Y68582D01*
X375416D01*
X375329Y68546D01*
X375237Y68567D01*
X374957Y68392D01*
X374651Y68265D01*
X373441Y68344D01*
X373073Y68590D01*
X372000Y68804D01*
X370927Y68590D01*
X370559Y68344D01*
X369349Y68265D01*
X369044Y68392D01*
X368764Y68567D01*
X368671Y68546D01*
X368584Y68582D01*
X361982D01*
X361930Y68561D01*
X361876Y68577D01*
X361554Y68405D01*
X361217Y68265D01*
X360022Y68479D01*
X359481Y68840D01*
X358408Y69054D01*
X357335Y68840D01*
X356425Y68233D01*
X355266Y67073D01*
X354012Y67140D01*
X353808Y67814D01*
X353639Y68020D01*
X353537Y68265D01*
X353386Y68328D01*
X353282Y68455D01*
X353018Y68481D01*
X352772Y68582D01*
X324918D01*
X324672Y68481D01*
X324408Y68455D01*
X324304Y68328D01*
X324152Y68265D01*
X324051Y68020D01*
X323882Y67814D01*
X323666Y67103D01*
X322658Y67304D01*
X321585Y67091D01*
X321425Y66984D01*
X320454Y66576D01*
X319482Y66984D01*
X319323Y67090D01*
X318250Y67304D01*
X317241Y67103D01*
X317026Y67814D01*
X316857Y68020D01*
X316755Y68265D01*
X316604Y68328D01*
X316500Y68455D01*
X316236Y68481D01*
X315990Y68582D01*
X281416D01*
X281329Y68546D01*
X281236Y68567D01*
X280956Y68392D01*
X280651Y68265D01*
X280615Y68178D01*
X280534Y68128D01*
X279823Y67128D01*
X279819Y67111D01*
X279804Y67101D01*
X279726Y66709D01*
X279637Y66320D01*
X279646Y66306D01*
X279643Y66289D01*
X279700Y66000D01*
X279571Y65349D01*
X279202Y64798D01*
X278651Y64429D01*
X278000Y64300D01*
X277349Y64429D01*
X276798Y64798D01*
X276429Y65349D01*
X276300Y66000D01*
X276357Y66289D01*
X276354Y66306D01*
X276363Y66320D01*
X276273Y66709D01*
X276196Y67101D01*
X276181Y67111D01*
X276177Y67128D01*
X275466Y68128D01*
X275385Y68178D01*
X275349Y68265D01*
X275044Y68392D01*
X274763Y68567D01*
X274671Y68546D01*
X274584Y68582D01*
X269832D01*
X269541Y68462D01*
X269231Y68400D01*
X268901Y68179D01*
X268250Y68050D01*
X267599Y68179D01*
X267269Y68400D01*
X266959Y68462D01*
X266668Y68582D01*
X244623D01*
X244521Y68540D01*
X244412Y68562D01*
X244149Y68386D01*
X243858Y68265D01*
X243815Y68163D01*
X243723Y68101D01*
X243493Y67757D01*
X242693Y67223D01*
X241750Y67035D01*
X240807Y67223D01*
X240007Y67757D01*
X239777Y68101D01*
X239685Y68163D01*
X239642Y68265D01*
X239351Y68386D01*
X239088Y68562D01*
X238979Y68540D01*
X238877Y68582D01*
X233623D01*
X233521Y68540D01*
X233412Y68562D01*
X233149Y68386D01*
X232858Y68265D01*
X232815Y68163D01*
X232723Y68101D01*
X232493Y67757D01*
X231693Y67223D01*
X230750Y67035D01*
X229807Y67223D01*
X229007Y67757D01*
X228777Y68101D01*
X228685Y68163D01*
X228642Y68265D01*
X228351Y68386D01*
X228088Y68562D01*
X227979Y68540D01*
X227877Y68582D01*
X205625D01*
X205391Y68486D01*
X205139Y68467D01*
X205023Y68333D01*
X204911Y68287D01*
X204711Y68265D01*
X203789D01*
X203589Y68287D01*
X203477Y68333D01*
X203361Y68467D01*
X203109Y68486D01*
X202875Y68582D01*
X186136D01*
X185548Y69391D01*
X185375Y69852D01*
X185554Y70750D01*
X185340Y71823D01*
X184733Y72733D01*
X183823Y73340D01*
X182750Y73554D01*
X181677Y73340D01*
X180767Y72733D01*
X180160Y71823D01*
X179946Y70750D01*
X180125Y69852D01*
X179952Y69391D01*
X179363Y68582D01*
X163369D01*
X163032Y68443D01*
X163000Y68433D01*
X162968Y68443D01*
X162631Y68582D01*
X138191D01*
X138054Y68750D01*
X137840Y69823D01*
X137233Y70733D01*
X136323Y71340D01*
X135250Y71554D01*
X135124Y71529D01*
X134140Y72299D01*
X134079Y73657D01*
X147273Y86852D01*
X148047Y88009D01*
X148319Y89375D01*
Y105500D01*
X148047Y106866D01*
X147273Y108023D01*
X115319Y139978D01*
Y151500D01*
Y156250D01*
X115047Y157616D01*
X114273Y158773D01*
X113713Y159148D01*
X114098Y160418D01*
X116302D01*
X132351Y144368D01*
X132643Y144247D01*
X132906Y144072D01*
X133014Y144093D01*
X133117Y144051D01*
X133408Y144171D01*
X133718Y144233D01*
X133849Y144321D01*
X134500Y144450D01*
X135151Y144321D01*
X135702Y143952D01*
X136071Y143401D01*
X136242Y142539D01*
X136418Y142276D01*
X136538Y141985D01*
X136538Y141985D01*
X136641Y141942D01*
X136702Y141850D01*
X137012Y141789D01*
X137304Y141668D01*
X140996D01*
X141288Y141788D01*
X141597Y141850D01*
X141659Y141942D01*
X141761Y141985D01*
X141882Y142276D01*
X142058Y142539D01*
X142179Y143151D01*
X142548Y143702D01*
X143099Y144071D01*
X143750Y144200D01*
X144401Y144071D01*
X144952Y143702D01*
X145321Y143151D01*
X145442Y142539D01*
X145618Y142276D01*
X145739Y141985D01*
X145841Y141942D01*
X145903Y141850D01*
X146213Y141788D01*
X146504Y141668D01*
X151731D01*
X151867Y141506D01*
X152294Y140398D01*
X151910Y139823D01*
X151696Y138750D01*
X151910Y137677D01*
X152517Y136767D01*
X153427Y136160D01*
X154500Y135946D01*
X155573Y136160D01*
X156483Y136767D01*
X157090Y137677D01*
X157304Y138750D01*
X157090Y139823D01*
X156706Y140398D01*
X157133Y141506D01*
X157269Y141668D01*
X161329D01*
X161431Y141710D01*
X161540Y141688D01*
X161600Y141700D01*
X161660Y141688D01*
X161769Y141710D01*
X161871Y141668D01*
X163246D01*
X163375Y141598D01*
X163410Y141427D01*
X164017Y140517D01*
X164927Y139909D01*
X166000Y139696D01*
X167073Y139909D01*
X167983Y140517D01*
X168590Y141427D01*
X168624Y141598D01*
X168754Y141668D01*
X221000D01*
X221000Y141667D01*
X221765Y141985D01*
X221765Y141985D01*
X238983Y159202D01*
X240587Y159087D01*
X269465Y130209D01*
X263550Y124294D01*
X246250D01*
X246250Y124294D01*
X245372Y124119D01*
X244628Y123622D01*
X244628Y123622D01*
X233450Y112444D01*
X232927Y112340D01*
X232017Y111733D01*
X231410Y110823D01*
X231196Y109750D01*
X231410Y108677D01*
X232017Y107767D01*
X232927Y107160D01*
X234000Y106946D01*
X235073Y107160D01*
X235983Y107767D01*
X236590Y108677D01*
X236695Y109200D01*
X247200Y119706D01*
X264500D01*
X265378Y119881D01*
X266122Y120378D01*
X273685Y127941D01*
X296233D01*
X314962Y109212D01*
X314962Y109212D01*
X317837Y106337D01*
X318829Y105674D01*
X320000Y105441D01*
X321171Y105674D01*
X322163Y106337D01*
X322826Y107330D01*
X323059Y108500D01*
X322826Y109671D01*
X322163Y110663D01*
X319288Y113538D01*
X319288Y113538D01*
X299663Y133163D01*
X298671Y133826D01*
X297500Y134059D01*
X297500Y134059D01*
X277917D01*
X277867Y134082D01*
X277119Y134108D01*
X276437Y134184D01*
X275780Y134310D01*
X275146Y134484D01*
X274536Y134708D01*
X273946Y134982D01*
X273375Y135306D01*
X272822Y135682D01*
X272285Y136111D01*
X271737Y136621D01*
X271686Y136640D01*
X246581Y161744D01*
X247068Y162918D01*
X249229D01*
X250226Y161648D01*
X250196Y161500D01*
X250410Y160427D01*
X251017Y159517D01*
X251927Y158910D01*
X253000Y158696D01*
X254073Y158910D01*
X254983Y159517D01*
X255590Y160427D01*
X255804Y161500D01*
X255774Y161648D01*
X256771Y162918D01*
X256792D01*
X257083Y163038D01*
X257087Y163039D01*
X257138Y163029D01*
X258000Y163200D01*
X258862Y163029D01*
X258913Y163039D01*
X258917Y163038D01*
X259208Y162918D01*
X267306D01*
X267422Y162789D01*
X267979Y161814D01*
X267510Y161110D01*
X267296Y160037D01*
X267510Y158964D01*
X268117Y158055D01*
X269027Y157447D01*
X270100Y157233D01*
X271173Y157447D01*
X272083Y158055D01*
X272791Y158140D01*
X273269Y157702D01*
X273637Y157568D01*
X274000Y157418D01*
X301750D01*
X302515Y157735D01*
X302515Y157735D01*
X307698Y162918D01*
X322425D01*
X322477Y162939D01*
X322531Y162923D01*
X322853Y163095D01*
X323191Y163235D01*
X323212Y163287D01*
X323262Y163313D01*
X324083Y164313D01*
X324099Y164367D01*
X324146Y164399D01*
X324217Y164757D01*
X324323Y165106D01*
X324296Y165156D01*
X324308Y165211D01*
X324300Y165250D01*
X324429Y165901D01*
X324798Y166452D01*
X325349Y166821D01*
X326000Y166950D01*
X326651Y166821D01*
X327202Y166452D01*
X327571Y165901D01*
X327700Y165250D01*
X327693Y165211D01*
X327704Y165156D01*
X327677Y165106D01*
X327783Y164757D01*
X327854Y164399D01*
X327901Y164367D01*
X327918Y164313D01*
X328738Y163313D01*
X328788Y163287D01*
X328810Y163235D01*
X329147Y163095D01*
X329469Y162923D01*
X329523Y162939D01*
X329575Y162918D01*
X351259D01*
X351504Y163019D01*
X351769Y163045D01*
X351873Y163172D01*
X352024Y163235D01*
X352126Y163480D01*
X352295Y163686D01*
X352552Y164534D01*
X353208Y164404D01*
X353864Y164534D01*
X354121Y163686D01*
X354290Y163480D01*
X354391Y163235D01*
X354543Y163172D01*
X354646Y163045D01*
X354911Y163019D01*
X355157Y162918D01*
X358296D01*
X358587Y163038D01*
X358897Y163100D01*
X358959Y163192D01*
X359061Y163235D01*
X359182Y163526D01*
X359357Y163789D01*
X359429Y164151D01*
X359798Y164702D01*
X360349Y165071D01*
X361000Y165200D01*
X361862Y165029D01*
X361966Y165050D01*
X362083Y165001D01*
X362186Y165044D01*
X362296Y165022D01*
X362493Y165154D01*
X362674Y165190D01*
X362725Y165267D01*
X362849Y165318D01*
X373198Y175668D01*
X380470D01*
X380996Y174398D01*
X366716Y160117D01*
X341408D01*
X339067Y159652D01*
X337082Y158326D01*
X335756Y156341D01*
X335290Y154000D01*
X335756Y151659D01*
X337082Y149674D01*
X339067Y148348D01*
X341408Y147882D01*
X369250D01*
X371591Y148348D01*
X372088Y148680D01*
X372897Y147694D01*
X370327Y145124D01*
X365571D01*
X364423Y144648D01*
X321148Y101374D01*
X309250D01*
X308102Y100898D01*
X306327Y99124D01*
X290750D01*
X289602Y98648D01*
X281577Y90624D01*
X240933D01*
X240547Y91894D01*
X240733Y92017D01*
X241340Y92927D01*
X241554Y94000D01*
X241340Y95073D01*
X240733Y95983D01*
X239823Y96590D01*
X238750Y96804D01*
X237677Y96590D01*
X236767Y95983D01*
X236160Y95073D01*
X235946Y94000D01*
X236160Y92927D01*
X236767Y92017D01*
X236953Y91894D01*
X236567Y90624D01*
X220750D01*
X219602Y90148D01*
X211077Y81624D01*
X202500D01*
X201352Y81148D01*
X198747Y78543D01*
X198720Y78527D01*
X198629Y78483D01*
X198524Y78438D01*
X198415Y78399D01*
X198108Y78313D01*
X197936Y78275D01*
X197765Y78158D01*
X197427Y78090D01*
X196517Y77483D01*
X195910Y76573D01*
X195696Y75500D01*
X195910Y74427D01*
X196517Y73517D01*
X197427Y72910D01*
X198500Y72696D01*
X199573Y72910D01*
X200483Y73517D01*
X201588Y72886D01*
X201927Y72660D01*
X203000Y72446D01*
X204073Y72660D01*
X204983Y73267D01*
X205590Y74177D01*
X205804Y75250D01*
X205590Y76323D01*
X205067Y77106D01*
X205212Y77689D01*
X205557Y78376D01*
X211750D01*
X212898Y78852D01*
X221423Y87376D01*
X282250D01*
X283398Y87852D01*
X291423Y95876D01*
X307000D01*
X308148Y96352D01*
X309923Y98126D01*
X321821D01*
X322969Y98602D01*
X366244Y141876D01*
X371000D01*
X372148Y142352D01*
X391423Y161626D01*
X400371D01*
X400443Y161547D01*
X400933Y160356D01*
X400577Y159823D01*
X400363Y158750D01*
X400577Y157677D01*
X401185Y156767D01*
X402094Y156160D01*
X403167Y155946D01*
X404240Y156160D01*
X405150Y156767D01*
X405758Y157677D01*
X405971Y158750D01*
X405758Y159823D01*
X405401Y160356D01*
X405892Y161547D01*
X405964Y161626D01*
X411250D01*
X412398Y162102D01*
X415898Y165602D01*
X416374Y166750D01*
Y173192D01*
X417644Y173577D01*
X418017Y173017D01*
X418927Y172410D01*
X420000Y172196D01*
X421073Y172410D01*
X421983Y173017D01*
X422590Y173927D01*
X422804Y175000D01*
X422590Y176073D01*
X421983Y176983D01*
X421073Y177590D01*
X420000Y177804D01*
X418927Y177590D01*
X418017Y176983D01*
X417644Y176423D01*
X416374Y176808D01*
Y194000D01*
X415898Y195148D01*
X414843Y196203D01*
X415329Y197376D01*
X430228D01*
X430234Y197374D01*
X430299Y197346D01*
X430371Y197307D01*
X430450Y197256D01*
X430536Y197191D01*
X430629Y197112D01*
X430748Y196996D01*
X430871Y196948D01*
X431677Y196410D01*
X432750Y196196D01*
X433823Y196410D01*
X434733Y197017D01*
X435340Y197927D01*
X435554Y199000D01*
X435340Y200073D01*
X434733Y200983D01*
X433823Y201590D01*
X432750Y201804D01*
X431677Y201590D01*
X430871Y201052D01*
X430748Y201004D01*
X430629Y200888D01*
X430536Y200809D01*
X430450Y200744D01*
X430371Y200693D01*
X430299Y200654D01*
X430235Y200626D01*
X430228Y200624D01*
X413423D01*
X411593Y202453D01*
X412079Y203626D01*
X476328D01*
X476852Y203102D01*
X478000Y202626D01*
X491577D01*
X493727Y200477D01*
X494875Y200001D01*
X528103D01*
X528110Y199999D01*
X528174Y199971D01*
X528246Y199932D01*
X528325Y199881D01*
X528411Y199816D01*
X528504Y199737D01*
X528623Y199621D01*
X528746Y199573D01*
X529552Y199035D01*
X530625Y198821D01*
X531698Y199035D01*
X532608Y199642D01*
X533215Y200552D01*
X533429Y201625D01*
X533215Y202698D01*
X532608Y203608D01*
X531698Y204215D01*
X530625Y204429D01*
X529552Y204215D01*
X528746Y203677D01*
X528624Y203629D01*
X528504Y203513D01*
X528411Y203434D01*
X528325Y203369D01*
X528246Y203318D01*
X528174Y203279D01*
X528110Y203251D01*
X528103Y203249D01*
X495547D01*
X493398Y205398D01*
X492932Y205591D01*
X492422Y207022D01*
X492429Y207070D01*
X492606Y207317D01*
X493073Y207410D01*
X493983Y208017D01*
X494590Y208927D01*
X494804Y210000D01*
X494590Y211073D01*
X493983Y211983D01*
X493073Y212590D01*
X492000Y212804D01*
X490927Y212590D01*
X490017Y211983D01*
X489410Y211073D01*
X489221Y210123D01*
X489168Y210002D01*
X489165Y209835D01*
X489156Y209713D01*
X489156Y209713D01*
X488203Y208798D01*
X488017Y208826D01*
X487052Y210239D01*
X487054Y210250D01*
X486840Y211323D01*
X486233Y212233D01*
X485323Y212840D01*
X484250Y213054D01*
X483177Y212840D01*
X482267Y212233D01*
X481660Y211323D01*
X481446Y210250D01*
X481660Y209177D01*
X481682Y209144D01*
X481003Y207874D01*
X479501D01*
X478977Y208398D01*
X477828Y208874D01*
X414922D01*
X410398Y213398D01*
X409250Y213874D01*
X405500D01*
X404352Y213398D01*
X399827Y208874D01*
X314172D01*
X306898Y216148D01*
X305750Y216624D01*
X232750D01*
X231602Y216148D01*
X228827Y213374D01*
X220357D01*
X220344Y213463D01*
X220335Y213585D01*
X220332Y213752D01*
X220279Y213873D01*
X220090Y214823D01*
X219483Y215733D01*
X218573Y216340D01*
X217500Y216554D01*
X216427Y216340D01*
X215517Y215733D01*
X214910Y214823D01*
X214696Y213750D01*
X214910Y212677D01*
X215517Y211767D01*
X216427Y211160D01*
X217377Y210970D01*
X217498Y210918D01*
X217665Y210915D01*
X217787Y210905D01*
X217893Y210890D01*
X217985Y210870D01*
X218064Y210847D01*
X218129Y210822D01*
X218135Y210819D01*
X218352Y210602D01*
X219500Y210126D01*
X227171D01*
X227657Y208953D01*
X224578Y205874D01*
X215422D01*
X214273Y205398D01*
X207249Y198374D01*
X171904D01*
X170756Y197898D01*
X169061Y196203D01*
X168780Y196174D01*
X168450Y196509D01*
X168090Y197427D01*
X168304Y198500D01*
X168090Y199573D01*
X167483Y200483D01*
X166573Y201090D01*
X165500Y201304D01*
X164427Y201090D01*
X163517Y200483D01*
X162910Y199573D01*
X162696Y198500D01*
X162910Y197427D01*
X163433Y196644D01*
X163288Y196061D01*
X162943Y195374D01*
X155922D01*
X153681Y197615D01*
X153678Y197621D01*
X153652Y197687D01*
X153629Y197765D01*
X153610Y197857D01*
X153594Y197964D01*
X153585Y198085D01*
X153582Y198252D01*
X153529Y198373D01*
X153340Y199323D01*
X152732Y200233D01*
X151823Y200840D01*
X150750Y201054D01*
X149677Y200840D01*
X148767Y200233D01*
X148159Y199323D01*
X147946Y198250D01*
X148159Y197177D01*
X148767Y196267D01*
X149677Y195660D01*
X150627Y195471D01*
X150748Y195418D01*
X150915Y195415D01*
X151036Y195406D01*
X151143Y195390D01*
X151235Y195371D01*
X151301Y195351D01*
X151344Y195308D01*
X151940Y194532D01*
X151428Y193374D01*
X147715D01*
X146933Y194644D01*
X147054Y195250D01*
X146840Y196323D01*
X146302Y197129D01*
X146254Y197251D01*
X146138Y197371D01*
X146059Y197464D01*
X145994Y197550D01*
X145943Y197629D01*
X145904Y197701D01*
X145876Y197765D01*
X145873Y197772D01*
Y200500D01*
X145398Y201648D01*
X132348Y214698D01*
X131200Y215174D01*
X121522D01*
X121516Y215176D01*
X121451Y215204D01*
X121379Y215243D01*
X121300Y215294D01*
X121214Y215359D01*
X121121Y215438D01*
X121002Y215554D01*
X120879Y215602D01*
X120073Y216140D01*
X119000Y216354D01*
X117927Y216140D01*
X117017Y215533D01*
X116410Y214623D01*
X116196Y213550D01*
X116410Y212477D01*
X117017Y211567D01*
X117927Y210960D01*
X119000Y210746D01*
X120073Y210960D01*
X120879Y211498D01*
X121002Y211546D01*
X121121Y211662D01*
X121214Y211741D01*
X121300Y211806D01*
X121379Y211857D01*
X121451Y211896D01*
X121515Y211924D01*
X121522Y211926D01*
X130527D01*
X135004Y207450D01*
X134684Y206120D01*
X134611Y206047D01*
X133767Y205483D01*
X133160Y204573D01*
X132946Y203500D01*
X133160Y202427D01*
X133309Y202204D01*
X133767Y200983D01*
X133160Y200073D01*
X132946Y199000D01*
X133160Y197927D01*
X133767Y197017D01*
X134677Y196410D01*
X135750Y196196D01*
X136823Y196410D01*
X137733Y197017D01*
X138340Y197927D01*
X138554Y199000D01*
X138340Y200073D01*
X138191Y200296D01*
X137801Y201336D01*
X138461Y202456D01*
X139700Y202754D01*
X142626Y199828D01*
Y197772D01*
X142624Y197765D01*
X142596Y197701D01*
X142557Y197629D01*
X142506Y197550D01*
X142441Y197464D01*
X142362Y197371D01*
X142246Y197251D01*
X142198Y197129D01*
X141659Y196323D01*
X141446Y195250D01*
X141567Y194644D01*
X140785Y193374D01*
X129618D01*
X129493Y194644D01*
X129573Y194660D01*
X130483Y195267D01*
X131090Y196177D01*
X131304Y197250D01*
X131090Y198323D01*
X130483Y199233D01*
X129573Y199840D01*
X128500Y200054D01*
X127427Y199840D01*
X126517Y199233D01*
X125910Y198323D01*
X125696Y197250D01*
X125910Y196177D01*
X126517Y195267D01*
X127427Y194660D01*
X127507Y194644D01*
X127382Y193374D01*
X117521D01*
X117514Y193376D01*
X117450Y193404D01*
X117378Y193443D01*
X117299Y193494D01*
X117212Y193559D01*
X117120Y193638D01*
X117000Y193754D01*
X116876Y193803D01*
X116072Y194340D01*
X114999Y194553D01*
X113926Y194340D01*
X113017Y193732D01*
X112409Y192822D01*
X112195Y191749D01*
X112409Y190676D01*
X113017Y189767D01*
X113926Y189159D01*
X114210Y189102D01*
X114085Y187832D01*
X83000Y187832D01*
X83000Y187833D01*
X82235Y187515D01*
X82234Y187515D01*
X67287Y172567D01*
X66891Y172626D01*
X65991Y173067D01*
X65840Y173823D01*
X65233Y174733D01*
X64766Y175044D01*
X64758Y175065D01*
Y176435D01*
X64766Y176456D01*
X65233Y176767D01*
X65840Y177677D01*
X66054Y178750D01*
X65840Y179823D01*
X65233Y180733D01*
Y181267D01*
X65840Y182177D01*
X66054Y183250D01*
X65840Y184323D01*
X65233Y185233D01*
X64323Y185840D01*
X63250Y186054D01*
X62177Y185840D01*
X61267Y185233D01*
X60659Y184323D01*
X60446Y183250D01*
X60659Y182177D01*
X61267Y181267D01*
Y180733D01*
X60659Y179823D01*
X60446Y178750D01*
X60659Y177677D01*
X61267Y176767D01*
X61734Y176456D01*
X61742Y176435D01*
Y175065D01*
X61734Y175044D01*
X61267Y174733D01*
X60659Y173823D01*
X60446Y172750D01*
X60086Y172354D01*
X58414D01*
X58054Y172750D01*
X57840Y173823D01*
X57233Y174733D01*
X56766Y175044D01*
X56758Y175065D01*
Y176435D01*
X56766Y176456D01*
X57233Y176767D01*
X57840Y177677D01*
X58054Y178750D01*
X57840Y179823D01*
X57233Y180733D01*
Y181267D01*
X57840Y182177D01*
X58054Y183250D01*
X57840Y184323D01*
X57233Y185233D01*
X56323Y185840D01*
X55250Y186054D01*
X54177Y185840D01*
X53267Y185233D01*
X52660Y184323D01*
X52446Y183250D01*
X52660Y182177D01*
X53267Y181267D01*
Y180733D01*
X52660Y179823D01*
X52446Y178750D01*
X52660Y177677D01*
X53267Y176767D01*
X53734Y176456D01*
X53742Y176435D01*
Y175065D01*
X53734Y175044D01*
X53267Y174733D01*
X53198Y174629D01*
X51587Y174444D01*
X41515Y184515D01*
X40750Y184832D01*
X25640Y184832D01*
X24858Y186102D01*
X25171Y186724D01*
X25677Y186910D01*
X26750Y186696D01*
X27823Y186910D01*
X28733Y187517D01*
X29017D01*
X29927Y186910D01*
X31000Y186696D01*
X32073Y186910D01*
X32983Y187517D01*
X33267D01*
X34177Y186910D01*
X35250Y186696D01*
X36323Y186910D01*
X37233Y187517D01*
X37840Y188427D01*
X38054Y189500D01*
X37840Y190573D01*
X37233Y191483D01*
X36323Y192090D01*
X35250Y192304D01*
X34177Y192090D01*
X33267Y191483D01*
X32983D01*
X32073Y192090D01*
X31000Y192304D01*
X29927Y192090D01*
X29017Y191483D01*
X28733D01*
X27823Y192090D01*
X26750Y192304D01*
X26102Y192175D01*
X24832Y192937D01*
X24832Y198001D01*
X24516Y198766D01*
X24515Y198766D01*
X22016Y201265D01*
X22016Y201265D01*
X21251Y201582D01*
X10674Y201582D01*
X10558Y201534D01*
X10434Y201556D01*
X10188Y201381D01*
X9909Y201265D01*
X9861Y201149D01*
X9758Y201077D01*
X9196Y200184D01*
X9151Y199918D01*
X9032Y199676D01*
X9025Y199568D01*
X9069Y199440D01*
X9056Y199368D01*
X9059Y199365D01*
X9044Y199289D01*
X9200Y198500D01*
X9071Y197850D01*
X8702Y197298D01*
X8151Y196930D01*
X7500Y196800D01*
X6674Y196965D01*
X6589Y197028D01*
X6588Y197027D01*
X6351Y196992D01*
X6115Y197039D01*
X5957Y196934D01*
X5770Y196906D01*
X5614Y196813D01*
X5614Y196813D01*
X5594Y196786D01*
X5559Y196777D01*
X5528Y196730D01*
X4866Y196113D01*
X4159Y196019D01*
X3798Y195995D01*
X3500Y196054D01*
X2427Y195840D01*
X1858Y195460D01*
X1000Y195318D01*
X142Y195460D01*
X-427Y195840D01*
X-1500Y196054D01*
X-2573Y195840D01*
X-3483Y195233D01*
X-4090Y194323D01*
X-4304Y193250D01*
X-4090Y192177D01*
X-3483Y191267D01*
X-2573Y190660D01*
X-1804Y189250D01*
X-1590Y188177D01*
X-983Y187267D01*
X-73Y186660D01*
X1000Y186446D01*
X1398Y186525D01*
X2668Y185646D01*
X2668Y177948D01*
X1494Y177462D01*
X1275Y177681D01*
X614Y178123D01*
X-1549Y179018D01*
X-1843Y179077D01*
X-2130Y179164D01*
X-3300Y179279D01*
X-3401Y179269D01*
X-3500Y179289D01*
X-30461Y179289D01*
Y207211D01*
X2500Y207211D01*
X2599Y207231D01*
X2700Y207221D01*
X3675Y207317D01*
X3962Y207404D01*
X4256Y207462D01*
X6058Y208209D01*
X6720Y208651D01*
X8099Y210030D01*
X8099Y210030D01*
X8541Y210692D01*
X9288Y212494D01*
X9346Y212788D01*
X9433Y213075D01*
X9529Y214050D01*
X9519Y214151D01*
X9539Y214250D01*
Y217962D01*
X186974Y217962D01*
D02*
G37*
G36*
X431500Y197775D02*
X431358Y197913D01*
X431214Y198036D01*
X431069Y198145D01*
X430923Y198239D01*
X430776Y198319D01*
X430627Y198384D01*
X430478Y198435D01*
X430327Y198471D01*
X430176Y198493D01*
X430023Y198500D01*
Y199500D01*
X430176Y199507D01*
X430327Y199529D01*
X430478Y199565D01*
X430627Y199616D01*
X430776Y199681D01*
X430923Y199761D01*
X431069Y199855D01*
X431214Y199964D01*
X431358Y200087D01*
X431500Y200225D01*
Y197775D01*
D02*
G37*
G36*
X144757Y197824D02*
X144779Y197673D01*
X144815Y197522D01*
X144866Y197373D01*
X144931Y197224D01*
X145011Y197077D01*
X145105Y196931D01*
X145214Y196786D01*
X145337Y196642D01*
X145475Y196500D01*
X143025D01*
X143163Y196642D01*
X143286Y196786D01*
X143395Y196931D01*
X143489Y197077D01*
X143569Y197224D01*
X143634Y197373D01*
X143685Y197522D01*
X143721Y197673D01*
X143743Y197824D01*
X143750Y197977D01*
X144750D01*
X144757Y197824D01*
D02*
G37*
G36*
X412750Y192500D02*
Y178250D01*
X411250Y176750D01*
X407591D01*
X407000Y176868D01*
X386000D01*
X385409Y176750D01*
X372750D01*
X362083Y166083D01*
X362073Y166090D01*
X361000Y166304D01*
X359927Y166090D01*
X359017Y165483D01*
X358410Y164573D01*
X358296Y164000D01*
X355157D01*
X354853Y165000D01*
X355190Y165225D01*
X355798Y166135D01*
X356012Y167208D01*
X355798Y168281D01*
X355190Y169190D01*
X354281Y169798D01*
X353208Y170012D01*
X352135Y169798D01*
X351225Y169190D01*
X350617Y168281D01*
X350404Y167208D01*
X350617Y166135D01*
X351225Y165225D01*
X351562Y165000D01*
X351259Y164000D01*
X329575D01*
X328754Y165000D01*
X328804Y165250D01*
X328591Y166323D01*
X327983Y167233D01*
X327073Y167840D01*
X326000Y168054D01*
X324927Y167840D01*
X324017Y167233D01*
X323410Y166323D01*
X323196Y165250D01*
X323246Y165000D01*
X322425Y164000D01*
X307250D01*
X301750Y158500D01*
X274000D01*
X272814Y159587D01*
X272904Y160037D01*
X272691Y161110D01*
X272083Y162020D01*
X271173Y162628D01*
X270100Y162841D01*
X269413Y162705D01*
X268000Y164000D01*
X259208D01*
X259073Y164090D01*
X258000Y164304D01*
X256927Y164090D01*
X256792Y164000D01*
X254208D01*
X254073Y164090D01*
X253000Y164304D01*
X251927Y164090D01*
X251792Y164000D01*
X244034D01*
X243920Y164076D01*
X242750Y164309D01*
X241579Y164076D01*
X240587Y163413D01*
X239924Y162421D01*
X239739Y161489D01*
X221000Y142750D01*
X168754D01*
X168590Y143573D01*
X167983Y144483D01*
X167073Y145090D01*
X166000Y145304D01*
X164927Y145090D01*
X164017Y144483D01*
X163410Y143573D01*
X163246Y142750D01*
X161871D01*
X161600Y142804D01*
X161329Y142750D01*
X146504D01*
X146340Y143573D01*
X145733Y144483D01*
X144823Y145090D01*
X143750Y145304D01*
X142677Y145090D01*
X141767Y144483D01*
X141160Y143573D01*
X140996Y142750D01*
X137304D01*
X137304Y142750D01*
X137090Y143823D01*
X136483Y144733D01*
X135573Y145340D01*
X134500Y145554D01*
X133427Y145340D01*
X133117Y145133D01*
X116750Y161500D01*
X108000D01*
X89250Y142750D01*
X58250Y142750D01*
X33000Y168000D01*
X29054D01*
X28840Y169073D01*
X28233Y169983D01*
X27323Y170590D01*
X26250Y170804D01*
X25177Y170590D01*
X24267Y169983D01*
X23733D01*
X22823Y170590D01*
X22024Y170749D01*
X21054Y171000D01*
X20840Y172073D01*
X20233Y172983D01*
X19323Y173590D01*
X19250Y173605D01*
X19250Y180000D01*
X23000Y183750D01*
X40750Y183750D01*
X52619Y171881D01*
X52660Y171677D01*
X53267Y170767D01*
X54177Y170160D01*
X55250Y169946D01*
X56323Y170160D01*
X56832Y170500D01*
X61668Y170500D01*
X62177Y170160D01*
X63250Y169946D01*
X64323Y170160D01*
X64832Y170500D01*
X66750D01*
X83000Y186750D01*
X145000Y186750D01*
X150000Y181750D01*
X217750D01*
X227663Y191663D01*
X228500Y191496D01*
X229573Y191710D01*
X230483Y192317D01*
X231090Y193227D01*
X231304Y194300D01*
X231137Y195137D01*
X234250Y198250D01*
X243675D01*
X244496Y197250D01*
X244446Y197000D01*
X244660Y195927D01*
X245267Y195017D01*
X246177Y194410D01*
X247250Y194196D01*
X248323Y194410D01*
X249233Y195017D01*
X249840Y195927D01*
X250054Y197000D01*
X250004Y197250D01*
X250825Y198250D01*
X259645D01*
X259660Y198177D01*
X260267Y197267D01*
X261177Y196660D01*
X262250Y196446D01*
X262550Y196506D01*
X263151Y195606D01*
X263130Y195573D01*
X262916Y194500D01*
X263130Y193427D01*
X263737Y192517D01*
X264647Y191910D01*
X265720Y191696D01*
X266793Y191910D01*
X267703Y192517D01*
X268310Y193427D01*
X268524Y194500D01*
X268310Y195573D01*
X267703Y196483D01*
X266793Y197090D01*
X265991Y197250D01*
X266090Y198250D01*
X273095D01*
X273160Y197927D01*
X273767Y197017D01*
X274677Y196409D01*
X275750Y196196D01*
X276823Y196409D01*
X277733Y197017D01*
X278107Y197578D01*
X279150Y197681D01*
X279264Y197646D01*
X279517Y197267D01*
X280427Y196660D01*
X281500Y196446D01*
X282573Y196660D01*
X283483Y197267D01*
X284090Y198177D01*
X284105Y198250D01*
X286845D01*
X286860Y198177D01*
X287467Y197267D01*
X288377Y196660D01*
X289450Y196446D01*
X290523Y196660D01*
X291433Y197267D01*
X292041Y198177D01*
X292055Y198250D01*
X407000Y198250D01*
X412750Y192500D01*
D02*
G37*
G36*
X231922Y197453D02*
X230728Y196259D01*
X230483Y196283D01*
X229573Y196890D01*
X228500Y197104D01*
X227427Y196890D01*
X226517Y196283D01*
X225910Y195373D01*
X225696Y194300D01*
X225910Y193227D01*
X226517Y192317D01*
X226542Y192072D01*
X217302Y182832D01*
X150448D01*
X145765Y187515D01*
X145000Y187832D01*
X115913D01*
X115788Y189102D01*
X116072Y189159D01*
X116880Y189698D01*
X117002Y189746D01*
X117121Y189862D01*
X117214Y189941D01*
X117300Y190006D01*
X117379Y190057D01*
X117451Y190096D01*
X117515Y190124D01*
X117521Y190126D01*
X164827D01*
X167352Y187602D01*
X168500Y187126D01*
X173250D01*
X174398Y187602D01*
X178801Y192005D01*
X179972Y191380D01*
X179946Y191250D01*
X180159Y190177D01*
X180767Y189267D01*
X181677Y188659D01*
X182750Y188446D01*
X183823Y188659D01*
X184732Y189267D01*
X184819Y189396D01*
X186305Y189335D01*
X186517Y189017D01*
X187427Y188410D01*
X188500Y188196D01*
X189573Y188410D01*
X190483Y189017D01*
X191090Y189927D01*
X191304Y191000D01*
X191408Y191126D01*
X193836D01*
X194187Y190677D01*
X194617Y189856D01*
X194446Y189000D01*
X194660Y187927D01*
X195267Y187017D01*
X196177Y186410D01*
X197250Y186196D01*
X198323Y186410D01*
X199233Y187017D01*
X199840Y187927D01*
X200054Y189000D01*
X199883Y189856D01*
X200313Y190677D01*
X200664Y191126D01*
X209578D01*
X210727Y191602D01*
X217751Y198626D01*
X231436D01*
X231922Y197453D01*
D02*
G37*
G36*
X152503Y198034D02*
X152518Y197845D01*
X152543Y197666D01*
X152580Y197496D01*
X152628Y197336D01*
X152686Y197185D01*
X152756Y197043D01*
X152837Y196911D01*
X152929Y196788D01*
X153032Y196675D01*
X152325Y195968D01*
X152212Y196071D01*
X152089Y196163D01*
X151957Y196244D01*
X151815Y196313D01*
X151664Y196372D01*
X151504Y196420D01*
X151334Y196457D01*
X151154Y196482D01*
X150966Y196497D01*
X150767Y196500D01*
X152500Y198232D01*
X152503Y198034D01*
D02*
G37*
G36*
X21251Y200500D02*
X23750Y198001D01*
X23750Y187250D01*
X17500Y181000D01*
Y173655D01*
X17177Y173590D01*
X16267Y172983D01*
X15660Y172073D01*
X15446Y171000D01*
X15660Y169927D01*
X16267Y169017D01*
X17177Y168410D01*
X17500Y168345D01*
Y167250D01*
X20000Y164750D01*
X34719Y164750D01*
X57485Y141985D01*
X57537Y141963D01*
X60750Y138750D01*
X95500D01*
X111084Y123166D01*
X111517Y122517D01*
X112166Y122084D01*
X124941Y109309D01*
X124937Y109029D01*
X124871Y108303D01*
X124017Y107733D01*
X123410Y106823D01*
X123196Y105750D01*
X123410Y104677D01*
X124017Y103767D01*
X124927Y103160D01*
X125000Y103145D01*
Y72250D01*
X126726Y70524D01*
X126953Y69384D01*
X127727Y68227D01*
X128884Y67453D01*
X130250Y67181D01*
X130599Y67251D01*
X130875Y67196D01*
X131948Y67409D01*
X132986Y67188D01*
X133267Y66767D01*
X134177Y66160D01*
X135250Y65946D01*
X136323Y66160D01*
X137233Y66767D01*
X137722Y67500D01*
X162631D01*
X162729Y66500D01*
X161927Y66340D01*
X161017Y65733D01*
X160410Y64823D01*
X160196Y63750D01*
X160410Y62677D01*
X161017Y61767D01*
X161927Y61160D01*
X163000Y60946D01*
X164073Y61160D01*
X164983Y61767D01*
X165590Y62677D01*
X165804Y63750D01*
X165590Y64823D01*
X164983Y65733D01*
X164073Y66340D01*
X163271Y66500D01*
X163369Y67500D01*
X202875D01*
X203027Y67044D01*
X203042Y66500D01*
X202267Y65983D01*
X201660Y65073D01*
X201446Y64000D01*
X201660Y62927D01*
X202267Y62017D01*
X203177Y61410D01*
X204250Y61196D01*
X205323Y61410D01*
X206233Y62017D01*
X206840Y62927D01*
X207054Y64000D01*
X206840Y65073D01*
X206233Y65983D01*
X205458Y66500D01*
X205473Y67044D01*
X205625Y67500D01*
X227877D01*
X228227Y66977D01*
X229384Y66203D01*
X230750Y65931D01*
X232116Y66203D01*
X233273Y66977D01*
X233623Y67500D01*
X238877D01*
X239227Y66977D01*
X240384Y66203D01*
X241750Y65931D01*
X243116Y66203D01*
X244273Y66977D01*
X244623Y67500D01*
X266668D01*
X267177Y67160D01*
X268250Y66946D01*
X269323Y67160D01*
X269832Y67500D01*
X274584D01*
X275296Y66500D01*
X275196Y66000D01*
X275410Y64927D01*
X276017Y64017D01*
X276927Y63410D01*
X278000Y63196D01*
X279073Y63410D01*
X279982Y64017D01*
X280590Y64927D01*
X280804Y66000D01*
X280704Y66500D01*
X281416Y67500D01*
X315990D01*
X316293Y66500D01*
X316267Y66483D01*
X315660Y65573D01*
X315446Y64500D01*
X315660Y63427D01*
X316267Y62517D01*
X317177Y61910D01*
X318250Y61696D01*
X319323Y61910D01*
X319707Y62166D01*
X320454Y62437D01*
X321201Y62166D01*
X321585Y61910D01*
X322658Y61696D01*
X323731Y61910D01*
X324640Y62517D01*
X325248Y63427D01*
X325462Y64500D01*
X325248Y65573D01*
X324640Y66483D01*
X324614Y66500D01*
X324918Y67500D01*
X352772D01*
X353075Y66500D01*
X352675Y66233D01*
X352103Y65377D01*
X351481Y64590D01*
X350408Y64804D01*
X349335Y64590D01*
X348425Y63983D01*
X347817Y63073D01*
X347604Y62000D01*
X347817Y60927D01*
X348425Y60017D01*
X349335Y59409D01*
X350408Y59196D01*
X351481Y59409D01*
X352390Y60017D01*
X352962Y60873D01*
X353585Y61659D01*
X354658Y61446D01*
X356408D01*
X357481Y61659D01*
X358390Y62267D01*
X360390Y64267D01*
X360998Y65177D01*
X361212Y66250D01*
X361162Y66500D01*
X361982Y67500D01*
X368584D01*
X369296Y66500D01*
X369196Y66000D01*
X369410Y64927D01*
X370017Y64017D01*
X370927Y63410D01*
X372000Y63196D01*
X373073Y63410D01*
X373983Y64017D01*
X374590Y64927D01*
X374804Y66000D01*
X374705Y66500D01*
X375416Y67500D01*
X425000D01*
X435250Y57250D01*
Y40500D01*
X426250Y31500D01*
X415007D01*
X414472Y32500D01*
X414590Y32677D01*
X414804Y33750D01*
X414590Y34823D01*
X413983Y35733D01*
X413073Y36340D01*
X412000Y36554D01*
X410927Y36340D01*
X410017Y35733D01*
X409410Y34823D01*
X409196Y33750D01*
X409410Y32677D01*
X409528Y32500D01*
X408993Y31500D01*
X279500Y31500D01*
X275166Y35834D01*
X274733Y36483D01*
X274084Y36916D01*
X272750Y38250D01*
X257105D01*
X257090Y38323D01*
X256483Y39233D01*
X255573Y39840D01*
X254500Y40054D01*
X253427Y39840D01*
X252517Y39233D01*
X251910Y38323D01*
X251895Y38250D01*
X117500Y38250D01*
X99500Y56250D01*
X99500Y64857D01*
X100273Y65491D01*
X100500Y65446D01*
X101573Y65660D01*
X102483Y66267D01*
X103090Y67177D01*
X103304Y68250D01*
X103090Y69323D01*
X102483Y70233D01*
X101851Y70654D01*
X101573Y70840D01*
X101549Y71865D01*
X101590Y71927D01*
X101804Y73000D01*
X101590Y74073D01*
X100983Y74983D01*
X100073Y75590D01*
X99500Y75704D01*
X99500Y80250D01*
X97593Y82157D01*
X98086Y83078D01*
X98750Y82946D01*
X99823Y83160D01*
X100733Y83767D01*
X101340Y84677D01*
X101554Y85750D01*
X101340Y86823D01*
X100733Y87733D01*
X99823Y88340D01*
X98750Y88554D01*
X97677Y88340D01*
X96767Y87733D01*
X96160Y86823D01*
X95946Y85750D01*
X96078Y85086D01*
X95157Y84593D01*
X89750Y90000D01*
X77500D01*
X76833Y90667D01*
X77340Y91427D01*
X77554Y92500D01*
X77340Y93573D01*
X76733Y94483D01*
X75823Y95090D01*
X74750Y95304D01*
X73677Y95090D01*
X72917Y94583D01*
X65163Y102337D01*
X65826Y103329D01*
X66059Y104500D01*
X65826Y105670D01*
X65163Y106663D01*
X64171Y107326D01*
X63000Y107559D01*
X61830Y107326D01*
X60837Y106663D01*
X54163Y113337D01*
X54826Y114330D01*
X55059Y115500D01*
X54826Y116671D01*
X54163Y117663D01*
X53171Y118326D01*
X52000Y118559D01*
X50830Y118326D01*
X49837Y117663D01*
X49171Y118329D01*
X35684Y131816D01*
X35684Y138466D01*
X35684Y138466D01*
X36292Y139376D01*
X36505Y140449D01*
X36292Y141522D01*
X35684Y142431D01*
X34774Y143039D01*
X33701Y143252D01*
X33323Y143177D01*
X32250Y144250D01*
X31972D01*
X31483Y144983D01*
X30573Y145590D01*
X29500Y145804D01*
X28427Y145590D01*
X27517Y144983D01*
X27028Y144250D01*
X17000D01*
X3750Y157500D01*
Y168047D01*
X4269Y169299D01*
X4424Y170079D01*
Y172421D01*
X4269Y173201D01*
X3750Y174453D01*
X3750Y188979D01*
X3804Y189250D01*
X3750Y189521D01*
Y190496D01*
X4573Y190660D01*
X5483Y191267D01*
X6090Y192177D01*
X6304Y193250D01*
X6090Y194323D01*
X5925Y194571D01*
X6170Y195884D01*
X6326Y195978D01*
X6427Y195910D01*
X7500Y195697D01*
X8573Y195910D01*
X9483Y196518D01*
X10091Y197428D01*
X10304Y198500D01*
X10105Y199500D01*
X10112Y199607D01*
X10674Y200500D01*
X21251Y200500D01*
D02*
G37*
G36*
X190354Y192397D02*
X190278Y192318D01*
X190155Y192178D01*
X190108Y192115D01*
X190071Y192058D01*
X190044Y192006D01*
X190026Y191959D01*
X190018Y191917D01*
X190019Y191880D01*
X190031Y191848D01*
X189023Y192670D01*
X189056Y192666D01*
X189094Y192673D01*
X189140Y192690D01*
X189192Y192718D01*
X189251Y192756D01*
X189317Y192804D01*
X189468Y192933D01*
X189646Y193104D01*
X190354Y192397D01*
D02*
G37*
G36*
X116391Y192837D02*
X116535Y192714D01*
X116680Y192605D01*
X116826Y192511D01*
X116973Y192431D01*
X117122Y192366D01*
X117271Y192315D01*
X117422Y192279D01*
X117573Y192257D01*
X117726Y192250D01*
X117726Y191250D01*
X117574Y191243D01*
X117422Y191221D01*
X117271Y191185D01*
X117122Y191134D01*
X116974Y191069D01*
X116827Y190989D01*
X116681Y190895D01*
X116536Y190786D01*
X116392Y190663D01*
X116250Y190525D01*
X116248Y192975D01*
X116391Y192837D01*
D02*
G37*
G36*
X108881Y160070D02*
X109227Y158773D01*
X108453Y157616D01*
X108181Y156250D01*
Y151500D01*
Y138500D01*
X108453Y137134D01*
X109227Y135977D01*
X141181Y104022D01*
Y100460D01*
X139911Y99781D01*
X139823Y99840D01*
X138750Y100054D01*
X137677Y99840D01*
X136767Y99233D01*
X136160Y98323D01*
X135946Y97250D01*
X136160Y96177D01*
X136767Y95267D01*
X137677Y94660D01*
X138750Y94446D01*
X139823Y94660D01*
X139911Y94719D01*
X141181Y94040D01*
Y90853D01*
X127727Y77398D01*
X127352Y76838D01*
X126082Y77223D01*
Y102963D01*
X127073Y103160D01*
X127983Y103767D01*
X128590Y104677D01*
X128804Y105750D01*
X128590Y106823D01*
X127983Y107733D01*
X127073Y108341D01*
X127042Y108347D01*
X126563Y108659D01*
X126024Y109309D01*
X125868Y109685D01*
X125718Y110062D01*
X125718Y110063D01*
X125710Y110066D01*
X125707Y110074D01*
X112931Y122849D01*
X112829Y122892D01*
X112767Y122984D01*
X112298Y123298D01*
X111984Y123767D01*
X111892Y123829D01*
X111849Y123932D01*
X96265Y139515D01*
X95500Y139832D01*
X61534D01*
X61093Y140398D01*
X61713Y141668D01*
X89250Y141668D01*
X90015Y141985D01*
X90015Y141985D01*
X108198Y160167D01*
X108881Y160070D01*
D02*
G37*
G36*
X271577Y135291D02*
X272178Y134810D01*
X272803Y134386D01*
X273450Y134018D01*
X274121Y133707D01*
X274816Y133453D01*
X275534Y133254D01*
X276275Y133113D01*
X277040Y133028D01*
X277828Y133000D01*
X273000Y131000D01*
X271000Y135828D01*
X271577Y135291D01*
D02*
G37*
G36*
X200579Y77372D02*
X200473Y77254D01*
X200382Y77129D01*
X200306Y76997D01*
X200246Y76858D01*
X200202Y76711D01*
X200173Y76558D01*
X200159Y76397D01*
X200161Y76229D01*
X200178Y76053D01*
X200210Y75871D01*
X198164Y77217D01*
X198369Y77262D01*
X198746Y77368D01*
X198918Y77430D01*
X199079Y77498D01*
X199229Y77572D01*
X199368Y77651D01*
X199496Y77737D01*
X199613Y77829D01*
X199719Y77926D01*
X200579Y77372D01*
D02*
G37*
%LPC*%
G36*
X62000Y213554D02*
X60927Y213340D01*
X60017Y212733D01*
X60014Y212727D01*
X58486D01*
X58483Y212733D01*
X57573Y213340D01*
X56500Y213554D01*
X55427Y213340D01*
X54517Y212733D01*
X53910Y211823D01*
X53696Y210750D01*
X53910Y209677D01*
X54517Y208768D01*
X55427Y208160D01*
X56500Y207946D01*
X57573Y208160D01*
X58483Y208768D01*
X58486Y208773D01*
X60014D01*
X60017Y208768D01*
X60927Y208160D01*
X62000Y207946D01*
X63073Y208160D01*
X63983Y208768D01*
X64590Y209677D01*
X64804Y210750D01*
X64590Y211823D01*
X63983Y212733D01*
X63073Y213340D01*
X62000Y213554D01*
D02*
G37*
G36*
X515750Y215804D02*
X514677Y215590D01*
X513767Y214983D01*
X513160Y214073D01*
X512946Y213000D01*
X513160Y211927D01*
X513767Y211017D01*
X514677Y210410D01*
X515750Y210196D01*
X516823Y210410D01*
X517733Y211017D01*
X518340Y211927D01*
X518554Y213000D01*
X518340Y214073D01*
X517733Y214983D01*
X516823Y215590D01*
X515750Y215804D01*
D02*
G37*
G36*
X504750Y213304D02*
X503677Y213090D01*
X502767Y212483D01*
X502160Y211573D01*
X501946Y210500D01*
X502160Y209427D01*
X502767Y208517D01*
X503677Y207910D01*
X504750Y207696D01*
X505823Y207910D01*
X506733Y208517D01*
X507340Y209427D01*
X507554Y210500D01*
X507340Y211573D01*
X506733Y212483D01*
X505823Y213090D01*
X504750Y213304D01*
D02*
G37*
G36*
X106250Y210804D02*
X105177Y210590D01*
X104267Y209983D01*
X103660Y209073D01*
X103446Y208000D01*
X103660Y206927D01*
X104267Y206017D01*
X105177Y205410D01*
X106250Y205196D01*
X107323Y205410D01*
X108233Y206017D01*
X108840Y206927D01*
X109054Y208000D01*
X108840Y209073D01*
X108233Y209983D01*
X107323Y210590D01*
X106250Y210804D01*
D02*
G37*
G36*
X463000Y201554D02*
X461927Y201340D01*
X461358Y200960D01*
X460500Y200818D01*
X459642Y200960D01*
X459073Y201340D01*
X458000Y201554D01*
X456927Y201340D01*
X456017Y200733D01*
X455410Y199823D01*
X455196Y198750D01*
X455198Y198739D01*
X454677Y197340D01*
X453767Y196733D01*
X453160Y195823D01*
X452946Y194750D01*
X453160Y193677D01*
X453436Y193263D01*
X452901Y191935D01*
X452427Y191840D01*
X451517Y191233D01*
X450910Y190323D01*
X450696Y189250D01*
X450751Y188973D01*
X449883Y187871D01*
X449732Y187827D01*
X448796Y187640D01*
X447887Y187033D01*
X446528Y187286D01*
X446073Y187590D01*
X445000Y187804D01*
X443927Y187590D01*
X443017Y186983D01*
X442410Y186073D01*
X442196Y185000D01*
X442410Y183927D01*
X443017Y183017D01*
X443927Y182410D01*
X445000Y182196D01*
X446073Y182410D01*
X446983Y183017D01*
X447016Y183067D01*
X447887D01*
X448796Y182460D01*
X449869Y182246D01*
X450942Y182460D01*
X451852Y183067D01*
X452459Y183977D01*
X452673Y185050D01*
X452618Y185327D01*
X453486Y186429D01*
X453637Y186473D01*
X454573Y186660D01*
X455482Y187267D01*
X456090Y188177D01*
X456304Y189250D01*
X456090Y190323D01*
X455814Y190737D01*
X456348Y192065D01*
X456823Y192160D01*
X457733Y192767D01*
X458340Y193677D01*
X458554Y194750D01*
X458552Y194761D01*
X458921Y195751D01*
X460238Y196409D01*
X460513Y196305D01*
X460948Y195837D01*
X460910Y195323D01*
X460696Y194250D01*
X460910Y193177D01*
X461517Y192267D01*
X462427Y191660D01*
X463500Y191446D01*
X464573Y191660D01*
X465483Y192267D01*
X466090Y193177D01*
X466304Y194250D01*
X466090Y195323D01*
X465483Y196233D01*
X465590Y197677D01*
X465804Y198750D01*
X465590Y199823D01*
X464983Y200733D01*
X464073Y201340D01*
X463000Y201554D01*
D02*
G37*
G36*
X444750Y201804D02*
X443677Y201590D01*
X443050Y201171D01*
X441983Y200483D01*
X441073Y201090D01*
X440000Y201304D01*
X438927Y201090D01*
X438017Y200483D01*
X437410Y199573D01*
X437196Y198500D01*
X437410Y197427D01*
X438017Y196517D01*
X438927Y195910D01*
X440000Y195696D01*
X441073Y195910D01*
X441700Y196329D01*
X442767Y197017D01*
X443677Y196410D01*
X444750Y196196D01*
X445823Y196410D01*
X446733Y197017D01*
X447340Y197927D01*
X447554Y199000D01*
X447340Y200073D01*
X446733Y200983D01*
X445823Y201590D01*
X444750Y201804D01*
D02*
G37*
G36*
X157500Y205054D02*
X156427Y204840D01*
X155517Y204233D01*
X154910Y203323D01*
X154696Y202250D01*
X154910Y201177D01*
X155517Y200267D01*
X156427Y199660D01*
X157500Y199446D01*
X158573Y199660D01*
X159483Y200267D01*
X160090Y201177D01*
X160304Y202250D01*
X160090Y203323D01*
X159483Y204233D01*
X158573Y204840D01*
X157500Y205054D01*
D02*
G37*
G36*
X632908Y203054D02*
X631835Y202840D01*
X630925Y202233D01*
X630317Y201323D01*
X630104Y200250D01*
X630317Y199177D01*
X630925Y198267D01*
X631835Y197660D01*
X632908Y197446D01*
X633981Y197660D01*
X634890Y198267D01*
X635498Y199177D01*
X635712Y200250D01*
X635498Y201323D01*
X634890Y202233D01*
X633981Y202840D01*
X632908Y203054D01*
D02*
G37*
G36*
X110697Y202054D02*
X109624Y201840D01*
X108714Y201233D01*
X108106Y200323D01*
X107893Y199250D01*
X108106Y198177D01*
X108714Y197267D01*
X109624Y196660D01*
X110697Y196446D01*
X111770Y196660D01*
X112679Y197267D01*
X113287Y198177D01*
X113500Y199250D01*
X113287Y200323D01*
X112679Y201233D01*
X111770Y201840D01*
X110697Y202054D01*
D02*
G37*
G36*
X472000Y201554D02*
X470927Y201340D01*
X470017Y200733D01*
X469409Y199823D01*
X469196Y198750D01*
X469409Y197677D01*
X470017Y196767D01*
X470927Y196160D01*
X472000Y195946D01*
X473073Y196160D01*
X473983Y196767D01*
X474590Y197677D01*
X474804Y198750D01*
X474590Y199823D01*
X473983Y200733D01*
X473073Y201340D01*
X472000Y201554D01*
D02*
G37*
G36*
X101000Y205304D02*
X99927Y205090D01*
X99017Y204483D01*
X98410Y203573D01*
X98196Y202500D01*
X98370Y201628D01*
X97552Y201465D01*
X96642Y200858D01*
X96034Y199948D01*
X95821Y198875D01*
X96034Y197802D01*
X96642Y196892D01*
X97552Y196285D01*
X98625Y196071D01*
X99698Y196285D01*
X99950Y196453D01*
X101267Y196767D01*
X102177Y196160D01*
X103250Y195946D01*
X104323Y196160D01*
X105233Y196767D01*
X105840Y197677D01*
X106054Y198750D01*
X105840Y199823D01*
X105233Y200733D01*
X104323Y201340D01*
X103602Y201484D01*
X103804Y202500D01*
X103590Y203573D01*
X102983Y204483D01*
X102073Y205090D01*
X101000Y205304D01*
D02*
G37*
G36*
X647908Y195804D02*
X646835Y195590D01*
X645925Y194983D01*
X645318Y194073D01*
X645104Y193000D01*
X645318Y191927D01*
X645925Y191017D01*
X646835Y190410D01*
X647908Y190196D01*
X648981Y190410D01*
X649891Y191017D01*
X650498Y191927D01*
X650712Y193000D01*
X650498Y194073D01*
X649891Y194983D01*
X648981Y195590D01*
X647908Y195804D01*
D02*
G37*
G36*
X108000Y194804D02*
X106927Y194590D01*
X106017Y193983D01*
X105409Y193073D01*
X105196Y192000D01*
X105409Y190927D01*
X106017Y190018D01*
X106927Y189410D01*
X108000Y189196D01*
X109073Y189410D01*
X109983Y190018D01*
X110590Y190927D01*
X110804Y192000D01*
X110590Y193073D01*
X109983Y193983D01*
X109073Y194590D01*
X108000Y194804D01*
D02*
G37*
G36*
X63250Y204554D02*
X62177Y204340D01*
X61267Y203733D01*
X60659Y202823D01*
X60446Y201750D01*
X60659Y200677D01*
X61267Y199767D01*
X61734Y199456D01*
X61742Y199435D01*
Y198065D01*
X61734Y198044D01*
X61267Y197733D01*
X60659Y196823D01*
X60446Y195750D01*
X60659Y194677D01*
X60809Y194454D01*
X61167Y193500D01*
X60809Y192546D01*
X60659Y192323D01*
X60446Y191250D01*
X60659Y190177D01*
X61267Y189267D01*
X62177Y188660D01*
X63250Y188446D01*
X64323Y188660D01*
X65233Y189267D01*
X65840Y190177D01*
X66054Y191250D01*
X65840Y192323D01*
X65691Y192546D01*
X65333Y193500D01*
X65691Y194454D01*
X65840Y194677D01*
X66054Y195750D01*
X65840Y196823D01*
X65233Y197733D01*
X64766Y198044D01*
X64758Y198065D01*
Y199435D01*
X64766Y199456D01*
X65233Y199767D01*
X65840Y200677D01*
X66054Y201750D01*
X65840Y202823D01*
X65233Y203733D01*
X64323Y204340D01*
X63250Y204554D01*
D02*
G37*
G36*
X55250D02*
X54177Y204340D01*
X53267Y203733D01*
X52660Y202823D01*
X52446Y201750D01*
X52660Y200677D01*
X53267Y199767D01*
X53734Y199456D01*
X53742Y199435D01*
Y198065D01*
X53734Y198044D01*
X53267Y197733D01*
X52660Y196823D01*
X52446Y195750D01*
X52660Y194677D01*
X52809Y194454D01*
X53167Y193500D01*
X52809Y192546D01*
X52660Y192323D01*
X52446Y191250D01*
X52660Y190177D01*
X53267Y189267D01*
X54177Y188660D01*
X55250Y188446D01*
X56323Y188660D01*
X57233Y189267D01*
X57840Y190177D01*
X58054Y191250D01*
X57840Y192323D01*
X57691Y192546D01*
X57333Y193500D01*
X57691Y194454D01*
X57840Y194677D01*
X58054Y195750D01*
X57840Y196823D01*
X57233Y197733D01*
X56766Y198044D01*
X56758Y198065D01*
Y199435D01*
X56766Y199456D01*
X57233Y199767D01*
X57840Y200677D01*
X58054Y201750D01*
X57840Y202823D01*
X57233Y203733D01*
X56323Y204340D01*
X55250Y204554D01*
D02*
G37*
G36*
X485908Y194054D02*
X484835Y193840D01*
X483925Y193233D01*
X483317Y192323D01*
X483104Y191250D01*
X483317Y190177D01*
X483925Y189267D01*
X484835Y188659D01*
X485908Y188446D01*
X486981Y188659D01*
X487890Y189267D01*
X488498Y190177D01*
X488712Y191250D01*
X488498Y192323D01*
X487890Y193233D01*
X486981Y193840D01*
X485908Y194054D01*
D02*
G37*
G36*
X577158Y188054D02*
X576085Y187840D01*
X575175Y187233D01*
X574640D01*
X573731Y187840D01*
X572658Y188054D01*
X571585Y187840D01*
X570675Y187233D01*
X570067Y186323D01*
X569854Y185250D01*
X570067Y184177D01*
X570675Y183267D01*
X571585Y182660D01*
X572658Y182446D01*
X573731Y182660D01*
X573954Y182809D01*
X574908Y183167D01*
X575861Y182809D01*
X576085Y182660D01*
X577158Y182446D01*
X577983Y182610D01*
X578592Y182002D01*
X578823Y181581D01*
X578817Y181573D01*
X578604Y180500D01*
X578817Y179427D01*
X579425Y178517D01*
X580335Y177910D01*
X581408Y177696D01*
X582481Y177910D01*
X583390Y178517D01*
X583998Y179427D01*
X584212Y180500D01*
X583998Y181573D01*
X583390Y182483D01*
X582481Y183090D01*
X581408Y183304D01*
X580582Y183140D01*
X579974Y183748D01*
X579743Y184169D01*
X579748Y184177D01*
X579962Y185250D01*
X579748Y186323D01*
X579140Y187233D01*
X578231Y187840D01*
X577158Y188054D01*
D02*
G37*
G36*
X516908Y189804D02*
X515835Y189590D01*
X514925Y188983D01*
X514317Y188073D01*
X514104Y187000D01*
X514317Y185927D01*
X514925Y185017D01*
X515835Y184410D01*
X516908Y184196D01*
X517981Y184410D01*
X518890Y185017D01*
X519498Y185927D01*
X519711Y187000D01*
X519498Y188073D01*
X518890Y188983D01*
X517981Y189590D01*
X516908Y189804D01*
D02*
G37*
G36*
X427000Y188054D02*
X425927Y187840D01*
X425017Y187233D01*
X424409Y186323D01*
X424196Y185250D01*
X424409Y184177D01*
X425017Y183267D01*
X425927Y182660D01*
X427000Y182446D01*
X428073Y182660D01*
X428983Y183267D01*
X429590Y184177D01*
X429804Y185250D01*
X429590Y186323D01*
X428983Y187233D01*
X428073Y187840D01*
X427000Y188054D01*
D02*
G37*
G36*
X720500Y186804D02*
X719427Y186590D01*
X718517Y185983D01*
X717910Y185073D01*
X717696Y184000D01*
X717910Y182927D01*
X718517Y182017D01*
X719427Y181410D01*
X720500Y181196D01*
X721573Y181410D01*
X722483Y182017D01*
X723090Y182927D01*
X723304Y184000D01*
X723090Y185073D01*
X722483Y185983D01*
X721573Y186590D01*
X720500Y186804D01*
D02*
G37*
G36*
X551408Y185854D02*
X550335Y185640D01*
X549425Y185033D01*
X548817Y184123D01*
X548604Y183050D01*
X548817Y181977D01*
X549425Y181067D01*
X550335Y180460D01*
X551408Y180246D01*
X552481Y180460D01*
X553391Y181067D01*
X553998Y181977D01*
X554212Y183050D01*
X553998Y184123D01*
X553391Y185033D01*
X552481Y185640D01*
X551408Y185854D01*
D02*
G37*
G36*
X497658Y185054D02*
X496585Y184840D01*
X495675Y184233D01*
X495067Y183323D01*
X494854Y182250D01*
X495067Y181177D01*
X495675Y180267D01*
X496585Y179660D01*
X497658Y179446D01*
X498731Y179660D01*
X499640Y180267D01*
X500248Y181177D01*
X500462Y182250D01*
X500248Y183323D01*
X499640Y184233D01*
X498731Y184840D01*
X497658Y185054D01*
D02*
G37*
G36*
X625658Y186554D02*
X624585Y186340D01*
X623675Y185733D01*
X623067Y184823D01*
X622854Y183750D01*
X623067Y182677D01*
X623101Y182626D01*
X623604Y181625D01*
X623101Y180623D01*
X623067Y180573D01*
X622854Y179500D01*
X623067Y178427D01*
X623675Y177517D01*
X624585Y176910D01*
X625658Y176696D01*
X626731Y176910D01*
X627640Y177517D01*
X628248Y178427D01*
X628462Y179500D01*
X628248Y180573D01*
X628214Y180623D01*
X627712Y181625D01*
X628214Y182626D01*
X628248Y182677D01*
X628462Y183750D01*
X628248Y184823D01*
X627640Y185733D01*
X626731Y186340D01*
X625658Y186554D01*
D02*
G37*
G36*
X501958Y178004D02*
X500885Y177790D01*
X499975Y177183D01*
X499367Y176273D01*
X499154Y175200D01*
X499367Y174127D01*
X499606Y173769D01*
X499452Y173298D01*
X498937Y172500D01*
X498135Y172340D01*
X497329Y171802D01*
X497206Y171754D01*
X497086Y171638D01*
X496994Y171559D01*
X496907Y171494D01*
X496828Y171443D01*
X496757Y171404D01*
X496692Y171376D01*
X496686Y171374D01*
X492139D01*
X492023Y171325D01*
X490113Y171577D01*
X488225Y172359D01*
X486696Y173532D01*
X486648Y173648D01*
X486491Y173713D01*
X484699Y175088D01*
X482465Y176014D01*
X480225Y176308D01*
X480068Y176374D01*
X476235D01*
Y176374D01*
X473766Y175883D01*
X471673Y174485D01*
X470275Y172392D01*
X469789Y169950D01*
X469784Y169923D01*
X469680Y169849D01*
X469046Y169955D01*
X468166Y170335D01*
X467733Y170983D01*
X466823Y171590D01*
X465750Y171804D01*
X464677Y171590D01*
X463767Y170983D01*
X463160Y170073D01*
X462946Y169000D01*
X463160Y167927D01*
X463767Y167017D01*
X464677Y166410D01*
X465750Y166196D01*
X466823Y166410D01*
X467733Y167017D01*
X468340Y167927D01*
X468377Y168109D01*
X468634Y168788D01*
X469784Y168675D01*
Y166846D01*
X469882Y166610D01*
X470077Y165124D01*
X470742Y163519D01*
X471799Y162142D01*
X473177Y161084D01*
X474781Y160420D01*
X476267Y160224D01*
X476503Y160126D01*
X476634Y160180D01*
X478762Y159900D01*
X480867Y159029D01*
X482674Y157642D01*
X484061Y155834D01*
X484933Y153730D01*
X485170Y151925D01*
X485099Y151788D01*
X484583Y151250D01*
X483889Y150984D01*
X483532Y151054D01*
X482459Y150841D01*
X481550Y150233D01*
X480942Y149324D01*
X480728Y148251D01*
X480942Y147178D01*
X481550Y146268D01*
X482459Y145660D01*
X483532Y145447D01*
X484319Y145603D01*
X484613Y145656D01*
X485891Y144992D01*
X486579Y143330D01*
X487407Y142251D01*
X487075Y141527D01*
X486736Y141039D01*
X485789Y140851D01*
X484880Y140243D01*
X484272Y139334D01*
X484058Y138261D01*
X484272Y137188D01*
X484880Y136278D01*
X485789Y135670D01*
X486862Y135457D01*
X487935Y135670D01*
X488845Y136278D01*
X489453Y137188D01*
X489606Y137959D01*
X490466Y138389D01*
X490902Y138460D01*
X492260Y137102D01*
X492402Y137043D01*
X494281Y134754D01*
X495744Y132016D01*
X496645Y129045D01*
X496935Y126098D01*
X496876Y125956D01*
Y103093D01*
X496939Y102942D01*
X496617Y100491D01*
X495612Y98067D01*
X494015Y95985D01*
X491933Y94388D01*
X489509Y93384D01*
X487058Y93061D01*
X486907Y93124D01*
X486723Y93047D01*
X483766Y93437D01*
X480840Y94649D01*
X478474Y96464D01*
X478398Y96648D01*
X478345Y96670D01*
X475756Y98657D01*
X472692Y99926D01*
X469457Y100352D01*
X469404Y100374D01*
X447271D01*
X447151Y100324D01*
X443050Y100001D01*
X438933Y99012D01*
X435021Y97392D01*
X431411Y95180D01*
X428283Y92508D01*
X428162Y92459D01*
X427541Y91838D01*
X427451Y91620D01*
X424000Y88788D01*
X419870Y86580D01*
X415389Y85221D01*
X410947Y84783D01*
X410729Y84874D01*
X393407D01*
X393193Y84785D01*
X391498Y84562D01*
X389720Y83825D01*
X388364Y82785D01*
X388150Y82696D01*
X388070Y82503D01*
X386177Y81238D01*
X383943Y80794D01*
X383750Y80873D01*
X376639D01*
X376523Y80825D01*
X374613Y81077D01*
X372725Y81859D01*
X371196Y83032D01*
X371148Y83148D01*
X370939Y83235D01*
X369545Y84304D01*
X367726Y85058D01*
X365984Y85287D01*
X365775Y85374D01*
X310352D01*
X310264Y85337D01*
X306460Y84963D01*
X302718Y83828D01*
X299269Y81984D01*
X298611Y81444D01*
X298492Y81419D01*
X298401Y81358D01*
X298344Y81325D01*
X298279Y81295D01*
X298206Y81268D01*
X298124Y81245D01*
X298031Y81225D01*
X297926Y81210D01*
X297809Y81201D01*
X297679Y81198D01*
X297511Y81204D01*
X297421Y81170D01*
X297375Y81179D01*
X296302Y80965D01*
X295392Y80358D01*
X294785Y79448D01*
X294571Y78375D01*
X294785Y77302D01*
X295392Y76392D01*
X296302Y75785D01*
X297375Y75571D01*
X298448Y75785D01*
X299358Y76392D01*
X299965Y77302D01*
X300116Y78059D01*
X300204Y78236D01*
X300215Y78399D01*
X300230Y78512D01*
X300250Y78607D01*
X300273Y78685D01*
X300297Y78747D01*
X300321Y78794D01*
X300331Y78810D01*
X301015Y79372D01*
X303920Y80925D01*
X307073Y81881D01*
X310200Y82189D01*
X310352Y82126D01*
X365775D01*
X365909Y82182D01*
X367472Y81871D01*
X368797Y80985D01*
X368852Y80852D01*
X368957Y80808D01*
X371148Y79127D01*
X373797Y78030D01*
X376534Y77670D01*
X376639Y77626D01*
X383750D01*
X383902Y77689D01*
X386190Y77990D01*
X388463Y78932D01*
X390294Y80337D01*
X390446Y80400D01*
X390499Y80528D01*
X391774Y81380D01*
X393279Y81679D01*
X393407Y81626D01*
X410729D01*
X410849Y81676D01*
X414950Y81999D01*
X419067Y82987D01*
X422979Y84608D01*
X426589Y86820D01*
X429717Y89492D01*
X429837Y89541D01*
X430459Y90162D01*
X430549Y90380D01*
X434000Y93212D01*
X438130Y95420D01*
X442611Y96779D01*
X447053Y97217D01*
X447271Y97126D01*
X469404D01*
X469547Y97186D01*
X471876Y96879D01*
X474179Y95925D01*
X476043Y94495D01*
X476102Y94352D01*
X476261Y94286D01*
X478445Y92493D01*
X481078Y91086D01*
X483936Y90219D01*
X486748Y89942D01*
X486907Y89876D01*
X486944Y89892D01*
X490325Y90337D01*
X493510Y91656D01*
X496245Y93755D01*
X498344Y96490D01*
X499663Y99675D01*
X500108Y103055D01*
X500124Y103093D01*
Y125956D01*
X500081Y126058D01*
X499727Y129658D01*
X498647Y133218D01*
X496893Y136499D01*
X494598Y139296D01*
X494556Y139398D01*
X490491Y143462D01*
X490386Y143506D01*
X489836Y144223D01*
X489981Y144723D01*
X490457Y145499D01*
X491265Y145660D01*
X492175Y146268D01*
X492783Y147178D01*
X492996Y148251D01*
X494161Y148904D01*
X494595Y148990D01*
X495505Y149598D01*
X496113Y150508D01*
X496326Y151581D01*
X496113Y152654D01*
X495505Y153563D01*
X494595Y154171D01*
X493522Y154384D01*
X492449Y154171D01*
X491540Y153563D01*
X490932Y152654D01*
X490718Y151581D01*
X489630Y150970D01*
X488993Y151231D01*
X488529Y151596D01*
X488335Y151844D01*
X487979Y154546D01*
X486792Y157411D01*
X484904Y159872D01*
X482444Y161760D01*
X479578Y162947D01*
X476581Y163341D01*
X476503Y163374D01*
X476398Y163330D01*
X475150Y163578D01*
X474002Y164345D01*
X473236Y165492D01*
X472988Y166740D01*
X473031Y166846D01*
Y169923D01*
X472991Y170019D01*
X473220Y171171D01*
X473928Y172230D01*
X474986Y172937D01*
X476138Y173167D01*
X476235Y173126D01*
X480068D01*
X480256Y173204D01*
X482431Y172772D01*
X484274Y171540D01*
X484352Y171352D01*
X484457Y171308D01*
X486648Y169627D01*
X489297Y168530D01*
X489523Y168500D01*
X489540Y168493D01*
X489549Y168497D01*
X492034Y168170D01*
X492139Y168126D01*
X496686D01*
X496692Y168124D01*
X496757Y168096D01*
X496828Y168057D01*
X496907Y168006D01*
X496994Y167941D01*
X497086Y167862D01*
X497206Y167746D01*
X497329Y167698D01*
X498135Y167160D01*
X499208Y166946D01*
X500281Y167160D01*
X501190Y167767D01*
X501798Y168677D01*
X502011Y169750D01*
X501798Y170823D01*
X501559Y171180D01*
X501714Y171652D01*
X502229Y172450D01*
X503031Y172610D01*
X503940Y173217D01*
X504548Y174127D01*
X504762Y175200D01*
X504548Y176273D01*
X503940Y177183D01*
X503031Y177790D01*
X501958Y178004D01*
D02*
G37*
G36*
X439500Y179804D02*
X438427Y179590D01*
X437517Y178983D01*
X436910Y178073D01*
X436740Y177221D01*
X436000Y176304D01*
X434927Y176090D01*
X434017Y175483D01*
X433410Y174573D01*
X433196Y173500D01*
X433410Y172427D01*
X434017Y171517D01*
X434927Y170910D01*
X436000Y170696D01*
X437073Y170910D01*
X437983Y171517D01*
X438590Y172427D01*
X438760Y173279D01*
X439500Y174196D01*
X440573Y174410D01*
X441483Y175017D01*
X442090Y175927D01*
X442304Y177000D01*
X442090Y178073D01*
X441483Y178983D01*
X440573Y179590D01*
X439500Y179804D01*
D02*
G37*
G36*
X478908Y170554D02*
X477835Y170340D01*
X476925Y169733D01*
X476317Y168823D01*
X476104Y167750D01*
X476317Y166677D01*
X476925Y165767D01*
X477835Y165160D01*
X478908Y164946D01*
X479981Y165160D01*
X480890Y165767D01*
X481498Y166677D01*
X481712Y167750D01*
X481498Y168823D01*
X480890Y169733D01*
X479981Y170340D01*
X478908Y170554D01*
D02*
G37*
G36*
X452658Y170191D02*
X451585Y169977D01*
X450675Y169369D01*
X450067Y168460D01*
X449854Y167387D01*
X450067Y166314D01*
X450675Y165404D01*
X451585Y164796D01*
X452658Y164583D01*
X453731Y164796D01*
X454640Y165404D01*
X455248Y166314D01*
X455462Y167387D01*
X455248Y168460D01*
X454640Y169369D01*
X453731Y169977D01*
X452658Y170191D01*
D02*
G37*
G36*
X710000Y170054D02*
X708927Y169840D01*
X708017Y169233D01*
X707410Y168323D01*
X707196Y167250D01*
X707410Y166177D01*
X708017Y165267D01*
X708927Y164660D01*
X710000Y164446D01*
X711073Y164660D01*
X711983Y165267D01*
X712590Y166177D01*
X712804Y167250D01*
X712590Y168323D01*
X711983Y169233D01*
X711073Y169840D01*
X710000Y170054D01*
D02*
G37*
G36*
X571408Y168730D02*
X570335Y168517D01*
X569425Y167909D01*
X568817Y166999D01*
X568604Y165926D01*
X568817Y164853D01*
X569425Y163943D01*
X570335Y163336D01*
X571408Y163122D01*
X572481Y163336D01*
X573390Y163943D01*
X573998Y164853D01*
X574212Y165926D01*
X573998Y166999D01*
X573390Y167909D01*
X572481Y168517D01*
X571408Y168730D01*
D02*
G37*
G36*
X423500Y164804D02*
X422427Y164590D01*
X421517Y163983D01*
X420910Y163073D01*
X420696Y162000D01*
X420910Y160927D01*
X421517Y160017D01*
X422427Y159410D01*
X423500Y159196D01*
X424573Y159410D01*
X425483Y160017D01*
X426090Y160927D01*
X426304Y162000D01*
X426090Y163073D01*
X425483Y163983D01*
X424573Y164590D01*
X423500Y164804D01*
D02*
G37*
G36*
X553463Y167705D02*
X552390Y167491D01*
X551480Y166883D01*
X550872Y165974D01*
X550659Y164901D01*
X550133Y164375D01*
X549060Y164161D01*
X548150Y163553D01*
X547542Y162644D01*
X547329Y161571D01*
X547542Y160498D01*
X548150Y159588D01*
X549060Y158980D01*
X550133Y158767D01*
X551206Y158980D01*
X552115Y159588D01*
X552723Y160498D01*
X552937Y161571D01*
X553463Y162097D01*
X554536Y162310D01*
X555445Y162918D01*
X556053Y163828D01*
X556267Y164901D01*
X556053Y165974D01*
X555445Y166883D01*
X554536Y167491D01*
X553463Y167705D01*
D02*
G37*
G36*
X500182Y161045D02*
X499109Y160831D01*
X498200Y160223D01*
X497592Y159314D01*
X497379Y158241D01*
X497592Y157168D01*
X498200Y156258D01*
X499109Y155650D01*
X500182Y155437D01*
X501255Y155650D01*
X502165Y156258D01*
X502773Y157168D01*
X502986Y158241D01*
X502773Y159314D01*
X502165Y160223D01*
X501255Y160831D01*
X500182Y161045D01*
D02*
G37*
G36*
X324750Y158804D02*
X323677Y158590D01*
X322767Y157983D01*
X322160Y157073D01*
X321946Y156000D01*
X322160Y154927D01*
X322767Y154017D01*
X323677Y153410D01*
X324750Y153196D01*
X325823Y153410D01*
X326733Y154017D01*
X327340Y154927D01*
X327554Y156000D01*
X327340Y157073D01*
X326733Y157983D01*
X325823Y158590D01*
X324750Y158804D01*
D02*
G37*
G36*
X526823Y167705D02*
X525750Y167491D01*
X524840Y166883D01*
X524232Y165974D01*
X524019Y164901D01*
X524232Y163828D01*
X524840Y162918D01*
X525750Y162310D01*
X526823Y162097D01*
X527349Y161571D01*
X527562Y160498D01*
X528170Y159588D01*
X529080Y158980D01*
X529496Y158897D01*
X529543Y158888D01*
Y157593D01*
X529496Y157584D01*
X529080Y157501D01*
X528170Y156893D01*
X527562Y155984D01*
X527476Y155549D01*
X527012Y154722D01*
X526184Y154257D01*
X525750Y154171D01*
X524840Y153563D01*
X524232Y152654D01*
X524146Y152219D01*
X524129Y152190D01*
X522845D01*
X522753Y152654D01*
X522145Y153563D01*
X521236Y154171D01*
X520163Y154384D01*
X519090Y154171D01*
X518180Y153563D01*
X517572Y152654D01*
X517480Y152190D01*
X516185D01*
X516093Y152654D01*
X515485Y153563D01*
X514576Y154171D01*
X514159Y154254D01*
X514112Y154263D01*
Y155558D01*
X514159Y155567D01*
X514576Y155650D01*
X515485Y156258D01*
X516093Y157168D01*
X516306Y158241D01*
X516093Y159314D01*
X515485Y160223D01*
X514576Y160831D01*
X513503Y161045D01*
X512430Y160831D01*
X511520Y160223D01*
X510912Y159314D01*
X510699Y158241D01*
X510912Y157168D01*
X511520Y156258D01*
X512430Y155650D01*
X512846Y155567D01*
X512893Y155558D01*
Y154263D01*
X512846Y154254D01*
X512430Y154171D01*
X511520Y153563D01*
X510912Y152654D01*
X510699Y151581D01*
X510912Y150508D01*
X511520Y149598D01*
X512430Y148990D01*
X512864Y148904D01*
X514029Y148251D01*
X514242Y147178D01*
X514850Y146268D01*
X515760Y145660D01*
X516833Y145447D01*
X517906Y145660D01*
X518815Y146268D01*
X519423Y147178D01*
X519515Y147641D01*
X520810D01*
X520902Y147178D01*
X521510Y146268D01*
X522420Y145660D01*
X523493Y145447D01*
X524566Y145660D01*
X525475Y146268D01*
X526083Y147178D01*
X526169Y147612D01*
X526634Y148440D01*
X527461Y148904D01*
X527896Y148990D01*
X528805Y149598D01*
X529413Y150508D01*
X529499Y150942D01*
X529964Y151770D01*
X530791Y152234D01*
X531226Y152320D01*
X532135Y152928D01*
X532743Y153838D01*
X532956Y154911D01*
X532743Y155984D01*
X532135Y156893D01*
X531226Y157501D01*
X530809Y157584D01*
X530762Y157593D01*
Y158888D01*
X530809Y158897D01*
X531226Y158980D01*
X532135Y159588D01*
X532743Y160498D01*
X532956Y161571D01*
X532743Y162644D01*
X532135Y163553D01*
X531226Y164161D01*
X530153Y164375D01*
X529626Y164901D01*
X529413Y165974D01*
X528805Y166883D01*
X527896Y167491D01*
X526823Y167705D01*
D02*
G37*
G36*
X307250Y155804D02*
X306177Y155590D01*
X305267Y154983D01*
X304660Y154073D01*
X304446Y153000D01*
X304660Y151927D01*
X305267Y151017D01*
X306177Y150410D01*
X307250Y150196D01*
X308323Y150410D01*
X309233Y151017D01*
X309840Y151927D01*
X310054Y153000D01*
X309840Y154073D01*
X309233Y154983D01*
X308323Y155590D01*
X307250Y155804D01*
D02*
G37*
G36*
X585759Y154195D02*
X584686Y153982D01*
X583777Y153374D01*
X583169Y152465D01*
X582955Y151391D01*
X583169Y150318D01*
X583777Y149409D01*
X584686Y148801D01*
X585759Y148588D01*
X586832Y148801D01*
X587742Y149409D01*
X588349Y150318D01*
X588563Y151391D01*
X588349Y152465D01*
X587742Y153374D01*
X586832Y153982D01*
X585759Y154195D01*
D02*
G37*
G36*
X566783Y154384D02*
X565710Y154171D01*
X564800Y153563D01*
X564192Y152653D01*
X563979Y151580D01*
X564192Y150507D01*
X564800Y149598D01*
X565710Y148990D01*
X566126Y148907D01*
X566173Y148898D01*
Y147603D01*
X566126Y147594D01*
X565710Y147511D01*
X564908Y146975D01*
X564784Y146927D01*
X564676Y146823D01*
X564595Y146755D01*
X564520Y146701D01*
X564449Y146657D01*
X564383Y146623D01*
X564320Y146597D01*
X564260Y146578D01*
X564199Y146565D01*
X564137Y146557D01*
X564026Y146552D01*
X563916Y146501D01*
X562662D01*
X562460Y146802D01*
X561633Y147355D01*
X560748Y147531D01*
X560595Y147590D01*
X559597Y148251D01*
X559383Y149324D01*
X558775Y150233D01*
X557866Y150841D01*
X556793Y151054D01*
X555720Y150841D01*
X554810Y150233D01*
X554202Y149324D01*
X553989Y148251D01*
X554202Y147178D01*
X554810Y146268D01*
X555720Y145660D01*
X555924Y145620D01*
X555969Y145580D01*
X556464Y144217D01*
X556303Y143975D01*
X556109Y143000D01*
Y110963D01*
X547444Y102299D01*
X533289D01*
X532313Y102105D01*
X531487Y101552D01*
X528448Y98513D01*
X527895Y97687D01*
X527701Y96711D01*
Y83806D01*
X525694Y81799D01*
X519250D01*
X518275Y81605D01*
X517448Y81052D01*
X513948Y77552D01*
X513395Y76726D01*
X513201Y75750D01*
Y71025D01*
X512752Y70719D01*
X511931Y70462D01*
X511245Y70921D01*
X510173Y71134D01*
X509100Y70921D01*
X508190Y70313D01*
X507582Y69403D01*
X507369Y68330D01*
X507582Y67257D01*
X508190Y66347D01*
X509100Y65740D01*
X510173Y65526D01*
X510699Y65000D01*
X510912Y63927D01*
X511520Y63017D01*
X512430Y62410D01*
X513503Y62196D01*
X514438Y61207D01*
X514509Y60364D01*
X508944Y54799D01*
X494000D01*
X493024Y54605D01*
X492198Y54052D01*
X486694Y48549D01*
X473500D01*
X472525Y48355D01*
X471698Y47802D01*
X468652Y44756D01*
X468099Y43929D01*
X467905Y42954D01*
Y41681D01*
X467863Y41619D01*
X467650Y40546D01*
X467863Y39473D01*
X468471Y38563D01*
X469381Y37956D01*
X470454Y37742D01*
X471527Y37956D01*
X472436Y38563D01*
X473044Y39473D01*
X473258Y40546D01*
X473044Y41619D01*
X473003Y41681D01*
Y41898D01*
X474556Y43451D01*
X487750D01*
X488725Y43645D01*
X489552Y44198D01*
X495056Y49701D01*
X510000D01*
X510975Y49895D01*
X511802Y50448D01*
X519555Y58200D01*
X520107Y59027D01*
X520302Y60002D01*
Y67747D01*
X520107Y68723D01*
X519555Y69550D01*
X518299Y70806D01*
Y74694D01*
X520306Y76701D01*
X526750D01*
X527725Y76895D01*
X528552Y77448D01*
X532052Y80948D01*
X532605Y81775D01*
X532799Y82750D01*
Y95655D01*
X534345Y97201D01*
X548500D01*
X549476Y97395D01*
X550302Y97948D01*
X560460Y108105D01*
X561013Y108932D01*
X561207Y109908D01*
Y131596D01*
X562255Y132261D01*
X563535Y131980D01*
X564106Y130962D01*
X564192Y130527D01*
X564800Y129618D01*
X565710Y129010D01*
X566783Y128797D01*
X567309Y128270D01*
X567522Y127197D01*
X568130Y126288D01*
X569040Y125680D01*
X569456Y125597D01*
X569503Y125588D01*
Y124293D01*
X569456Y124284D01*
X569040Y124201D01*
X568130Y123593D01*
X567522Y122683D01*
X567309Y121610D01*
X567522Y120537D01*
X568130Y119628D01*
X569040Y119020D01*
X570113Y118806D01*
X571186Y119020D01*
X572095Y119628D01*
X572703Y120537D01*
X572917Y121610D01*
X572703Y122683D01*
X572095Y123593D01*
X571186Y124201D01*
X570769Y124284D01*
X570723Y124293D01*
Y125588D01*
X570769Y125597D01*
X571186Y125680D01*
X572095Y126288D01*
X572703Y127197D01*
X572917Y128270D01*
X572703Y129343D01*
X572095Y130253D01*
X571186Y130861D01*
X570113Y131074D01*
X569587Y131600D01*
X569373Y132673D01*
X568765Y133583D01*
X567856Y134191D01*
X566783Y134404D01*
X566130Y135569D01*
X566043Y136003D01*
X565435Y136913D01*
X564526Y137521D01*
X564063Y137613D01*
Y138908D01*
X564526Y139000D01*
X565435Y139608D01*
X566043Y140517D01*
X566257Y141590D01*
X566783Y142117D01*
X567856Y142330D01*
X568765Y142938D01*
X569373Y143847D01*
X569456Y144264D01*
X569465Y144311D01*
X570760D01*
X570770Y144264D01*
X570852Y143847D01*
X571460Y142938D01*
X572370Y142330D01*
X572786Y142247D01*
X572833Y142238D01*
Y140943D01*
X572786Y140934D01*
X572370Y140851D01*
X571460Y140243D01*
X570852Y139333D01*
X570639Y138260D01*
X570852Y137187D01*
X571460Y136278D01*
X572370Y135670D01*
X573443Y135456D01*
X573969Y134930D01*
X574182Y133857D01*
X574790Y132948D01*
X575700Y132340D01*
X576773Y132127D01*
X577846Y132340D01*
X578755Y132948D01*
X579363Y133857D01*
X579577Y134930D01*
X579363Y136003D01*
X578755Y136913D01*
X577846Y137521D01*
X576773Y137734D01*
X576247Y138260D01*
X576033Y139333D01*
X575425Y140243D01*
X574516Y140851D01*
X574099Y140934D01*
X574053Y140943D01*
Y142238D01*
X574099Y142247D01*
X574516Y142330D01*
X575425Y142938D01*
X576033Y143847D01*
X576247Y144920D01*
X576033Y145993D01*
X575425Y146903D01*
X574516Y147511D01*
X573443Y147724D01*
X572370Y147511D01*
X571460Y146903D01*
X570852Y145993D01*
X570770Y145577D01*
X570760Y145530D01*
X569465D01*
X569456Y145577D01*
X569373Y145993D01*
X568765Y146903D01*
X567856Y147511D01*
X567439Y147594D01*
X567393Y147603D01*
Y148898D01*
X567439Y148907D01*
X567856Y148990D01*
X568765Y149598D01*
X569373Y150507D01*
X569587Y151580D01*
X569373Y152653D01*
X568765Y153563D01*
X567856Y154171D01*
X566783Y154384D01*
D02*
G37*
G36*
X503512Y151054D02*
X502439Y150841D01*
X501530Y150233D01*
X500922Y149324D01*
X500709Y148251D01*
X500922Y147178D01*
X501530Y146268D01*
X502439Y145660D01*
X503512Y145447D01*
X504585Y145660D01*
X505495Y146268D01*
X506103Y147178D01*
X506316Y148251D01*
X506103Y149324D01*
X505495Y150233D01*
X504585Y150841D01*
X503512Y151054D01*
D02*
G37*
G36*
X425750Y147054D02*
X424677Y146840D01*
X423767Y146233D01*
X423160Y145323D01*
X422946Y144250D01*
X423160Y143177D01*
X423767Y142267D01*
X424677Y141660D01*
X425750Y141446D01*
X426823Y141660D01*
X427733Y142267D01*
X428340Y143177D01*
X428554Y144250D01*
X428340Y145323D01*
X427733Y146233D01*
X426823Y146840D01*
X425750Y147054D01*
D02*
G37*
G36*
X628658Y151054D02*
X627585Y150840D01*
X626675Y150233D01*
X626067Y149323D01*
X625854Y148250D01*
X626067Y147177D01*
X626217Y146954D01*
X626575Y146000D01*
X626217Y145046D01*
X626067Y144823D01*
X625854Y143750D01*
X626067Y142677D01*
X626675Y141767D01*
X627585Y141159D01*
X628658Y140946D01*
X629731Y141159D01*
X630640Y141767D01*
X631248Y142677D01*
X631462Y143750D01*
X631248Y144823D01*
X631099Y145046D01*
X630741Y146000D01*
X631099Y146954D01*
X631248Y147177D01*
X631462Y148250D01*
X631248Y149323D01*
X630640Y150233D01*
X629731Y150840D01*
X628658Y151054D01*
D02*
G37*
G36*
X584408Y145554D02*
X583335Y145340D01*
X582425Y144733D01*
X581817Y143823D01*
X581604Y142750D01*
X581817Y141677D01*
X582425Y140767D01*
X583335Y140160D01*
X584408Y139946D01*
X585481Y140160D01*
X586390Y140767D01*
X586998Y141677D01*
X587212Y142750D01*
X586998Y143823D01*
X586390Y144733D01*
X585481Y145340D01*
X584408Y145554D01*
D02*
G37*
G36*
X307938Y148853D02*
X306865Y148640D01*
X305956Y148032D01*
X305348Y147122D01*
X305134Y146049D01*
X305348Y144976D01*
X305956Y144066D01*
X306865Y143459D01*
X307410Y142323D01*
X307196Y141250D01*
X307410Y140177D01*
X308017Y139267D01*
X308927Y138660D01*
X310000Y138446D01*
X311073Y138660D01*
X311983Y139267D01*
X312590Y140177D01*
X312804Y141250D01*
X312590Y142323D01*
X311983Y143233D01*
X311073Y143840D01*
X310529Y144976D01*
X310742Y146049D01*
X310529Y147122D01*
X309921Y148032D01*
X309011Y148640D01*
X307938Y148853D01*
D02*
G37*
G36*
X641458Y139304D02*
X640385Y139090D01*
X639475Y138483D01*
X639284Y138196D01*
X637786Y138152D01*
X637733Y138233D01*
X636823Y138840D01*
X635750Y139054D01*
X634677Y138840D01*
X633767Y138233D01*
X633160Y137323D01*
X632946Y136250D01*
X633160Y135177D01*
X633767Y134267D01*
X634677Y133660D01*
X635750Y133446D01*
X636823Y133660D01*
X637733Y134267D01*
X637924Y134553D01*
X639422Y134598D01*
X639475Y134517D01*
X640385Y133910D01*
X641458Y133696D01*
X642531Y133910D01*
X643441Y134517D01*
X644048Y135427D01*
X644262Y136500D01*
X644048Y137573D01*
X643441Y138483D01*
X642531Y139090D01*
X641458Y139304D01*
D02*
G37*
G36*
X656658Y141304D02*
X655585Y141090D01*
X654675Y140483D01*
X654067Y139573D01*
X653942Y138945D01*
X653736Y138451D01*
X652657Y138004D01*
X652408Y138054D01*
X651335Y137840D01*
X650425Y137233D01*
X649817Y136323D01*
X649604Y135250D01*
X649817Y134177D01*
X650425Y133267D01*
X651335Y132660D01*
X652408Y132446D01*
X653481Y132660D01*
X654390Y133267D01*
X654998Y134177D01*
X655123Y134805D01*
X655329Y135299D01*
X656408Y135746D01*
X656658Y135696D01*
X657731Y135910D01*
X658640Y136517D01*
X659248Y137427D01*
X659462Y138500D01*
X659248Y139573D01*
X658640Y140483D01*
X657731Y141090D01*
X656658Y141304D01*
D02*
G37*
G36*
X287700Y141504D02*
X286627Y141290D01*
X285717Y140683D01*
X285110Y139773D01*
X284896Y138700D01*
X285110Y137627D01*
X285717Y136717D01*
X286627Y136110D01*
X287700Y135896D01*
X288773Y136110D01*
X289683Y136717D01*
X290290Y137627D01*
X290504Y138700D01*
X290290Y139773D01*
X289683Y140683D01*
X288773Y141290D01*
X287700Y141504D01*
D02*
G37*
G36*
X435958Y141104D02*
X434885Y140890D01*
X433975Y140283D01*
X433367Y139373D01*
X433154Y138300D01*
X433367Y137227D01*
X433975Y136317D01*
X434885Y135709D01*
X435958Y135496D01*
X437031Y135709D01*
X437940Y136317D01*
X438548Y137227D01*
X438762Y138300D01*
X438548Y139373D01*
X437940Y140283D01*
X437031Y140890D01*
X435958Y141104D01*
D02*
G37*
G36*
X454658Y143146D02*
X453585Y142933D01*
X452675Y142325D01*
X452067Y141415D01*
X451854Y140342D01*
X450685Y139710D01*
X450085Y139590D01*
X449175Y138983D01*
X448567Y138073D01*
X448354Y137000D01*
X448567Y135927D01*
X449175Y135017D01*
X450085Y134410D01*
X451158Y134196D01*
X452231Y134410D01*
X453140Y135017D01*
X453748Y135927D01*
X453961Y137000D01*
X455131Y137633D01*
X455731Y137752D01*
X456640Y138360D01*
X457248Y139269D01*
X457462Y140342D01*
X457248Y141415D01*
X456640Y142325D01*
X455731Y142933D01*
X454658Y143146D01*
D02*
G37*
G36*
X21750Y141054D02*
X20677Y140841D01*
X19767Y140233D01*
X19160Y139323D01*
X18946Y138250D01*
X18177Y136838D01*
X17267Y136230D01*
X16659Y135320D01*
X16446Y134247D01*
X16659Y133174D01*
X17267Y132265D01*
X18177Y131657D01*
X19250Y131444D01*
X20323Y131657D01*
X21233Y132265D01*
X21840Y133174D01*
X22054Y134247D01*
X22823Y135660D01*
X23733Y136267D01*
X24341Y137177D01*
X24554Y138250D01*
X24341Y139323D01*
X23733Y140233D01*
X22823Y140841D01*
X21750Y141054D01*
D02*
G37*
G36*
X466132Y134954D02*
X465059Y134740D01*
X464149Y134133D01*
X463541Y133223D01*
X463328Y132150D01*
X463541Y131077D01*
X464149Y130167D01*
X465059Y129559D01*
X466132Y129346D01*
X467205Y129559D01*
X468114Y130167D01*
X468722Y131077D01*
X468936Y132150D01*
X468722Y133223D01*
X468114Y134133D01*
X467205Y134740D01*
X466132Y134954D01*
D02*
G37*
G36*
X696250Y134554D02*
X695177Y134340D01*
X694267Y133733D01*
X693660Y132823D01*
X693446Y131750D01*
X693660Y130677D01*
X694267Y129768D01*
X695177Y129160D01*
X696250Y128946D01*
X697323Y129160D01*
X698233Y129768D01*
X698840Y130677D01*
X699054Y131750D01*
X698840Y132823D01*
X698233Y133733D01*
X697323Y134340D01*
X696250Y134554D01*
D02*
G37*
G36*
X381667Y137804D02*
X380594Y137590D01*
X379685Y136983D01*
X379077Y136073D01*
X378863Y135000D01*
X379077Y133927D01*
X379457Y133358D01*
X379599Y132500D01*
X379457Y131642D01*
X379077Y131073D01*
X378863Y130000D01*
X379077Y128927D01*
X379685Y128017D01*
X380594Y127410D01*
X381667Y127196D01*
X382740Y127410D01*
X383650Y128017D01*
X384258Y128927D01*
X384471Y130000D01*
X384258Y131073D01*
X383877Y131642D01*
X383736Y132500D01*
X383877Y133358D01*
X384258Y133927D01*
X384471Y135000D01*
X384258Y136073D01*
X383650Y136983D01*
X382740Y137590D01*
X381667Y137804D01*
D02*
G37*
G36*
X371667Y132804D02*
X370594Y132590D01*
X369685Y131983D01*
X369077Y131073D01*
X368863Y130000D01*
X369077Y128927D01*
X369685Y128017D01*
X370594Y127410D01*
X371667Y127196D01*
X372740Y127410D01*
X373650Y128017D01*
X374258Y128927D01*
X374471Y130000D01*
X374258Y131073D01*
X373650Y131983D01*
X372740Y132590D01*
X371667Y132804D01*
D02*
G37*
G36*
X361750Y127554D02*
X360677Y127340D01*
X359767Y126733D01*
X359140D01*
X358231Y127340D01*
X357158Y127554D01*
X356085Y127340D01*
X355175Y126733D01*
X354567Y125823D01*
X354354Y124750D01*
X354567Y123677D01*
X355175Y122767D01*
X356085Y122160D01*
X357158Y121946D01*
X358231Y122160D01*
X358311Y122213D01*
X359227Y121298D01*
X359077Y121073D01*
X358863Y120000D01*
X359077Y118927D01*
X359685Y118017D01*
X360594Y117410D01*
X361667Y117196D01*
X362740Y117410D01*
X363650Y118017D01*
X364258Y118927D01*
X364471Y120000D01*
X364258Y121073D01*
X363925Y121571D01*
X363733Y122767D01*
X364340Y123677D01*
X364554Y124750D01*
X364340Y125823D01*
X363733Y126733D01*
X362823Y127340D01*
X361750Y127554D01*
D02*
G37*
G36*
X139375Y128679D02*
X138302Y128465D01*
X137392Y127858D01*
X136785Y126948D01*
X136571Y125875D01*
X136785Y124802D01*
X137392Y123892D01*
X138302Y123285D01*
X139375Y123071D01*
X140448Y123285D01*
X141358Y123892D01*
X141966Y124802D01*
X142179Y125875D01*
X141966Y126948D01*
X141358Y127858D01*
X140448Y128465D01*
X139375Y128679D01*
D02*
G37*
G36*
X396667Y122804D02*
X395594Y122590D01*
X394685Y121983D01*
X393650D01*
X392740Y122590D01*
X391667Y122804D01*
X390594Y122590D01*
X389685Y121983D01*
X389077Y121073D01*
X388863Y120000D01*
X389077Y118927D01*
X389685Y118017D01*
X390594Y117410D01*
X391667Y117196D01*
X392740Y117410D01*
X393650Y118017D01*
X394685D01*
X395594Y117410D01*
X396667Y117196D01*
X397740Y117410D01*
X398650Y118017D01*
X399258Y118927D01*
X399471Y120000D01*
X399258Y121073D01*
X398650Y121983D01*
X397740Y122590D01*
X396667Y122804D01*
D02*
G37*
G36*
X581408Y123304D02*
X580335Y123090D01*
X579425Y122483D01*
X578817Y121573D01*
X578604Y120500D01*
X578817Y119427D01*
X579425Y118517D01*
X580335Y117909D01*
X581408Y117696D01*
X582481Y117909D01*
X583390Y118517D01*
X583998Y119427D01*
X584212Y120500D01*
X583998Y121573D01*
X583390Y122483D01*
X582481Y123090D01*
X581408Y123304D01*
D02*
G37*
G36*
X388000Y154304D02*
X386927Y154090D01*
X386017Y153483D01*
X385410Y152573D01*
X385196Y151500D01*
X385410Y150427D01*
X385948Y149621D01*
X385996Y149499D01*
X386112Y149379D01*
X386191Y149286D01*
X386256Y149200D01*
X386307Y149121D01*
X386346Y149049D01*
X386374Y148985D01*
X386376Y148978D01*
Y148408D01*
X386852Y147260D01*
X405044Y129068D01*
Y122522D01*
X405042Y122515D01*
X405013Y122451D01*
X404974Y122379D01*
X404923Y122300D01*
X404858Y122214D01*
X404779Y122121D01*
X404664Y122002D01*
X404615Y121879D01*
X404077Y121073D01*
X403863Y120000D01*
X404077Y118927D01*
X404685Y118017D01*
X405594Y117410D01*
X406667Y117196D01*
X407740Y117410D01*
X408650Y118017D01*
X409258Y118927D01*
X409471Y120000D01*
X409258Y121073D01*
X408719Y121879D01*
X408671Y122001D01*
X408555Y122121D01*
X408476Y122214D01*
X408411Y122300D01*
X408360Y122379D01*
X408321Y122451D01*
X408293Y122515D01*
X408291Y122522D01*
Y129740D01*
X407815Y130889D01*
X389654Y149049D01*
X389693Y149121D01*
X389744Y149200D01*
X389809Y149286D01*
X389888Y149379D01*
X390004Y149498D01*
X390052Y149621D01*
X390590Y150427D01*
X390804Y151500D01*
X390590Y152573D01*
X389983Y153483D01*
X389073Y154090D01*
X388000Y154304D01*
D02*
G37*
G36*
X376667Y122804D02*
X375594Y122590D01*
X374685Y121983D01*
X374077Y121073D01*
X373863Y120000D01*
X374077Y118927D01*
X374685Y118017D01*
X375594Y117410D01*
X376667Y117196D01*
X377740Y117410D01*
X378650Y118017D01*
X379258Y118927D01*
X379471Y120000D01*
X379258Y121073D01*
X378650Y121983D01*
X377740Y122590D01*
X376667Y122804D01*
D02*
G37*
G36*
X462158Y122304D02*
X461085Y122090D01*
X460175Y121483D01*
X459567Y120573D01*
X459354Y119500D01*
X459567Y118427D01*
X460175Y117517D01*
X461085Y116910D01*
X462158Y116696D01*
X463231Y116910D01*
X464140Y117517D01*
X464748Y118427D01*
X464962Y119500D01*
X464748Y120573D01*
X464140Y121483D01*
X463231Y122090D01*
X462158Y122304D01*
D02*
G37*
G36*
X17767Y125668D02*
X16694Y125455D01*
X15784Y124847D01*
X15177Y123937D01*
X14963Y122864D01*
X15016Y122596D01*
X14777Y121254D01*
X13867Y120646D01*
X13260Y119736D01*
X13046Y118663D01*
X13260Y117590D01*
X13867Y116681D01*
X14777Y116073D01*
X15850Y115859D01*
X16923Y116073D01*
X17833Y116681D01*
X18440Y117590D01*
X18654Y118663D01*
X18600Y118931D01*
X18807Y120087D01*
X19372Y120629D01*
X19750Y120881D01*
X20357Y121791D01*
X20571Y122864D01*
X20357Y123937D01*
X19750Y124847D01*
X18840Y125455D01*
X17767Y125668D01*
D02*
G37*
G36*
X450408Y125804D02*
X449335Y125590D01*
X448425Y124983D01*
X447817Y124073D01*
X447604Y123000D01*
X447817Y121927D01*
X448425Y121017D01*
X449335Y120410D01*
X449769Y120323D01*
X450038Y118975D01*
X449675Y118733D01*
X449067Y117823D01*
X448854Y116750D01*
X449067Y115677D01*
X449675Y114767D01*
X450585Y114160D01*
X451658Y113946D01*
X452731Y114160D01*
X453640Y114767D01*
X454248Y115677D01*
X454462Y116750D01*
X454248Y117823D01*
X453640Y118733D01*
X452731Y119340D01*
X452296Y119427D01*
X452028Y120775D01*
X452390Y121017D01*
X452998Y121927D01*
X453212Y123000D01*
X452998Y124073D01*
X452390Y124983D01*
X451481Y125590D01*
X450408Y125804D01*
D02*
G37*
G36*
X325500Y119054D02*
X324427Y118841D01*
X323517Y118233D01*
X322910Y117323D01*
X322696Y116250D01*
X322910Y115177D01*
X323517Y114267D01*
X324427Y113660D01*
X325500Y113446D01*
X326573Y113660D01*
X327483Y114267D01*
X328090Y115177D01*
X328304Y116250D01*
X328090Y117323D01*
X327483Y118233D01*
X326573Y118841D01*
X325500Y119054D01*
D02*
G37*
G36*
X709250Y119054D02*
X708177Y118840D01*
X707267Y118233D01*
X706660Y117323D01*
X706446Y116250D01*
X706660Y115177D01*
X707267Y114267D01*
X708177Y113660D01*
X709250Y113446D01*
X710323Y113660D01*
X711233Y114267D01*
X711840Y115177D01*
X712054Y116250D01*
X711840Y117323D01*
X711233Y118233D01*
X710323Y118840D01*
X709250Y119054D01*
D02*
G37*
G36*
X371667Y117804D02*
X370594Y117590D01*
X369685Y116983D01*
X369077Y116073D01*
X368863Y115000D01*
X369077Y113927D01*
X369685Y113017D01*
X370594Y112410D01*
X371667Y112196D01*
X372740Y112410D01*
X373650Y113017D01*
X374258Y113927D01*
X374471Y115000D01*
X374258Y116073D01*
X373650Y116983D01*
X372740Y117590D01*
X371667Y117804D01*
D02*
G37*
G36*
X221818Y114772D02*
X220745Y114558D01*
X219835Y113950D01*
X219227Y113041D01*
X219014Y111968D01*
X219227Y110895D01*
X219835Y109985D01*
X220745Y109377D01*
X221818Y109164D01*
X222891Y109377D01*
X223800Y109985D01*
X224408Y110895D01*
X224622Y111968D01*
X224408Y113041D01*
X223800Y113950D01*
X222891Y114558D01*
X221818Y114772D01*
D02*
G37*
G36*
X184750Y114554D02*
X183677Y114340D01*
X182767Y113733D01*
X182160Y112823D01*
X181946Y111750D01*
X182160Y110677D01*
X182767Y109767D01*
X183677Y109160D01*
X184750Y108946D01*
X185823Y109160D01*
X186733Y109767D01*
X187340Y110677D01*
X187554Y111750D01*
X187340Y112823D01*
X186733Y113733D01*
X185823Y114340D01*
X184750Y114554D01*
D02*
G37*
G36*
X607208Y112804D02*
X606135Y112590D01*
X605225Y111983D01*
X604617Y111073D01*
X604404Y110000D01*
X604617Y108927D01*
X605225Y108017D01*
X606135Y107410D01*
X607208Y107196D01*
X608281Y107410D01*
X609190Y108017D01*
X609798Y108927D01*
X610012Y110000D01*
X609798Y111073D01*
X609190Y111983D01*
X608281Y112590D01*
X607208Y112804D01*
D02*
G37*
G36*
X386802D02*
X385729Y112590D01*
X384820Y111983D01*
X384212Y111073D01*
X383999Y110000D01*
X384212Y108927D01*
X384820Y108017D01*
X385729Y107410D01*
X386802Y107196D01*
X387876Y107410D01*
X388785Y108017D01*
X389393Y108927D01*
X389606Y110000D01*
X389393Y111073D01*
X388785Y111983D01*
X387876Y112590D01*
X386802Y112804D01*
D02*
G37*
G36*
X356667D02*
X355594Y112590D01*
X354685Y111983D01*
X354077Y111073D01*
X353863Y110000D01*
X354077Y108927D01*
X354685Y108017D01*
X355594Y107410D01*
X356667Y107196D01*
X357740Y107410D01*
X358650Y108017D01*
X359258Y108927D01*
X359471Y110000D01*
X359258Y111073D01*
X358650Y111983D01*
X357740Y112590D01*
X356667Y112804D01*
D02*
G37*
G36*
X591158Y112304D02*
X590085Y112090D01*
X589175Y111483D01*
X588567Y110573D01*
X588354Y109500D01*
X588567Y108427D01*
X589175Y107517D01*
X590085Y106910D01*
X591158Y106696D01*
X592231Y106910D01*
X593140Y107517D01*
X593748Y108427D01*
X593961Y109500D01*
X593748Y110573D01*
X593140Y111483D01*
X592231Y112090D01*
X591158Y112304D01*
D02*
G37*
G36*
X300000Y111304D02*
X298927Y111090D01*
X298017Y110483D01*
X297410Y109573D01*
X297196Y108500D01*
X297410Y107427D01*
X297430Y107396D01*
X297618Y106200D01*
X297095Y105785D01*
X296717Y105533D01*
X296110Y104623D01*
X296097Y104562D01*
X294802D01*
X294790Y104623D01*
X294182Y105533D01*
X293273Y106140D01*
X292200Y106354D01*
X291127Y106140D01*
X290217Y105533D01*
X289610Y104623D01*
X289396Y103550D01*
X289610Y102477D01*
X290217Y101567D01*
X291127Y100960D01*
X292200Y100746D01*
X293273Y100960D01*
X294182Y101567D01*
X294790Y102477D01*
X294802Y102538D01*
X296097D01*
X296110Y102477D01*
X296717Y101567D01*
X297627Y100960D01*
X298700Y100746D01*
X299773Y100960D01*
X300683Y101567D01*
X301290Y102477D01*
X301504Y103550D01*
X301290Y104623D01*
X301270Y104654D01*
X301082Y105850D01*
X301604Y106265D01*
X301983Y106517D01*
X302590Y107427D01*
X302804Y108500D01*
X302590Y109573D01*
X301983Y110483D01*
X301073Y111090D01*
X300000Y111304D01*
D02*
G37*
G36*
X260250Y108554D02*
X259177Y108340D01*
X258267Y107733D01*
X257660Y106823D01*
X257446Y105750D01*
X257660Y104677D01*
X258267Y103767D01*
X259177Y103160D01*
X260250Y102946D01*
X261323Y103160D01*
X262233Y103767D01*
X262840Y104677D01*
X263054Y105750D01*
X262840Y106823D01*
X262233Y107733D01*
X261323Y108340D01*
X260250Y108554D01*
D02*
G37*
G36*
X361667Y107804D02*
X360594Y107590D01*
X359685Y106983D01*
X359077Y106073D01*
X358863Y105000D01*
X359077Y103927D01*
X359685Y103017D01*
X360594Y102410D01*
X361667Y102196D01*
X362740Y102410D01*
X363650Y103017D01*
X364258Y103927D01*
X364471Y105000D01*
X364258Y106073D01*
X363650Y106983D01*
X362740Y107590D01*
X361667Y107804D01*
D02*
G37*
G36*
X391667Y107804D02*
X390594Y107590D01*
X389685Y106983D01*
X389077Y106073D01*
X388863Y105000D01*
X389077Y103927D01*
X389685Y103017D01*
X390594Y102410D01*
X391667Y102196D01*
X392740Y102410D01*
X393650Y103017D01*
X394258Y103927D01*
X394471Y105000D01*
X394258Y106073D01*
X393650Y106983D01*
X392740Y107590D01*
X391667Y107804D01*
D02*
G37*
G36*
X371667D02*
X370594Y107590D01*
X369685Y106983D01*
X369077Y106073D01*
X368863Y105000D01*
X369077Y103927D01*
X369685Y103017D01*
X370594Y102410D01*
X371667Y102196D01*
X372740Y102410D01*
X373650Y103017D01*
X374258Y103927D01*
X374471Y105000D01*
X374258Y106073D01*
X373650Y106983D01*
X372740Y107590D01*
X371667Y107804D01*
D02*
G37*
G36*
X19250Y105304D02*
X18177Y105090D01*
X17267Y104482D01*
X16660Y103573D01*
X16446Y102500D01*
X16660Y101427D01*
X17267Y100517D01*
X18177Y99909D01*
X19250Y99696D01*
X20323Y99909D01*
X21233Y100517D01*
X21841Y101427D01*
X22054Y102500D01*
X21841Y103573D01*
X21233Y104482D01*
X20323Y105090D01*
X19250Y105304D01*
D02*
G37*
G36*
X566783Y107764D02*
X565710Y107551D01*
X564800Y106943D01*
X564192Y106033D01*
X563979Y104960D01*
X563453Y104434D01*
X562380Y104221D01*
X561470Y103613D01*
X560862Y102703D01*
X560649Y101630D01*
X560862Y100557D01*
X561470Y99648D01*
X562380Y99040D01*
X563453Y98826D01*
X564526Y99040D01*
X565435Y99648D01*
X566043Y100557D01*
X566257Y101630D01*
X566783Y102156D01*
X567856Y102370D01*
X568765Y102978D01*
X569373Y103887D01*
X569587Y104960D01*
X569373Y106033D01*
X568765Y106943D01*
X567856Y107551D01*
X566783Y107764D01*
D02*
G37*
G36*
X278250Y103554D02*
X277177Y103340D01*
X276267Y102733D01*
X275660Y101823D01*
X275446Y100750D01*
X275660Y99677D01*
X276267Y98767D01*
X277177Y98160D01*
X278250Y97946D01*
X279323Y98160D01*
X280233Y98767D01*
X280840Y99677D01*
X281054Y100750D01*
X280840Y101823D01*
X280233Y102733D01*
X279323Y103340D01*
X278250Y103554D01*
D02*
G37*
G36*
X396667Y102804D02*
X395594Y102590D01*
X394685Y101983D01*
X394077Y101073D01*
X393863Y100000D01*
X394077Y98927D01*
X394685Y98017D01*
X395594Y97410D01*
X396667Y97196D01*
X397740Y97410D01*
X398650Y98017D01*
X399258Y98927D01*
X399471Y100000D01*
X399258Y101073D01*
X398650Y101983D01*
X397740Y102590D01*
X396667Y102804D01*
D02*
G37*
G36*
X376667D02*
X375594Y102590D01*
X374685Y101983D01*
X374077Y101073D01*
X373863Y100000D01*
X374077Y98927D01*
X374685Y98017D01*
X375594Y97410D01*
X376667Y97196D01*
X377740Y97410D01*
X378650Y98017D01*
X379258Y98927D01*
X379471Y100000D01*
X379258Y101073D01*
X378650Y101983D01*
X377740Y102590D01*
X376667Y102804D01*
D02*
G37*
G36*
X488623Y125079D02*
X484452D01*
X483477Y124885D01*
X482650Y124333D01*
X479202Y120885D01*
X479129Y120871D01*
X478220Y120263D01*
X477612Y119354D01*
X477398Y118280D01*
X477612Y117207D01*
X478220Y116298D01*
X479129Y115690D01*
X479546Y115607D01*
X479593Y115598D01*
Y114303D01*
X479546Y114294D01*
X479129Y114211D01*
X478220Y113603D01*
X477612Y112693D01*
X477398Y111621D01*
X476872Y111094D01*
X475799Y110881D01*
X474890Y110273D01*
X474282Y109363D01*
X474196Y108929D01*
X473542Y107764D01*
X472469Y107551D01*
X471560Y106943D01*
X470952Y106033D01*
X470738Y104960D01*
X470952Y103887D01*
X471560Y102978D01*
X472469Y102370D01*
X473542Y102156D01*
X474615Y102370D01*
X475525Y102978D01*
X476133Y103887D01*
X476219Y104322D01*
X476235Y104351D01*
X477509D01*
X477525Y104322D01*
X477612Y103887D01*
X478220Y102978D01*
X479129Y102370D01*
X480202Y102156D01*
X481275Y102370D01*
X482185Y102978D01*
X482793Y103887D01*
X483006Y104960D01*
X482793Y106033D01*
X482185Y106943D01*
X481275Y107551D01*
X480812Y107643D01*
Y108938D01*
X481275Y109030D01*
X482185Y109638D01*
X482793Y110548D01*
X482876Y110964D01*
X482885Y111011D01*
X484180D01*
X484189Y110964D01*
X484272Y110547D01*
X484880Y109638D01*
X485789Y109030D01*
X486862Y108816D01*
X487935Y109030D01*
X488845Y109638D01*
X488931Y109767D01*
X490201Y109381D01*
Y105244D01*
X485863Y100905D01*
X485789Y100891D01*
X484880Y100283D01*
X484272Y99373D01*
X484058Y98300D01*
X484272Y97227D01*
X484880Y96318D01*
X485789Y95710D01*
X486862Y95496D01*
X487935Y95710D01*
X488845Y96318D01*
X489453Y97227D01*
X489467Y97301D01*
X494552Y102386D01*
X495105Y103212D01*
X495299Y104188D01*
Y118403D01*
X495105Y119379D01*
X494552Y120206D01*
X490425Y124333D01*
X489598Y124885D01*
X488623Y125079D01*
D02*
G37*
G36*
X648908Y98554D02*
X647835Y98340D01*
X646925Y97733D01*
X646317Y96823D01*
X646104Y95750D01*
X646317Y94677D01*
X646925Y93767D01*
X647835Y93160D01*
X648908Y92946D01*
X649981Y93160D01*
X650890Y93767D01*
X651498Y94677D01*
X651712Y95750D01*
X651498Y96823D01*
X650890Y97733D01*
X649981Y98340D01*
X648908Y98554D01*
D02*
G37*
G36*
X391667Y97804D02*
X390594Y97590D01*
X389685Y96983D01*
X389077Y96073D01*
X388863Y95000D01*
X389077Y93927D01*
X389685Y93017D01*
X390594Y92410D01*
X391667Y92196D01*
X392740Y92410D01*
X393650Y93017D01*
X394258Y93927D01*
X394471Y95000D01*
X394258Y96073D01*
X393650Y96983D01*
X392740Y97590D01*
X391667Y97804D01*
D02*
G37*
G36*
X381667Y97804D02*
X380594Y97590D01*
X379685Y96983D01*
X379077Y96073D01*
X378863Y95000D01*
X379077Y93927D01*
X379685Y93017D01*
X380594Y92409D01*
X381667Y92196D01*
X382740Y92409D01*
X383650Y93017D01*
X384258Y93927D01*
X384471Y95000D01*
X384258Y96073D01*
X383650Y96983D01*
X382740Y97590D01*
X381667Y97804D01*
D02*
G37*
G36*
X314500Y95554D02*
X313427Y95340D01*
X312517Y94733D01*
X311910Y93823D01*
X311696Y92750D01*
X311910Y91677D01*
X312517Y90767D01*
X313427Y90160D01*
X314500Y89946D01*
X315573Y90160D01*
X316483Y90767D01*
X317090Y91677D01*
X317304Y92750D01*
X317090Y93823D01*
X316483Y94733D01*
X315573Y95340D01*
X314500Y95554D01*
D02*
G37*
G36*
X570113Y97774D02*
X569040Y97561D01*
X568130Y96953D01*
X567522Y96043D01*
X567309Y94970D01*
X567522Y93897D01*
X568130Y92987D01*
X569040Y92380D01*
X569456Y92297D01*
X569503Y92288D01*
Y90993D01*
X569456Y90983D01*
X569040Y90901D01*
X568130Y90293D01*
X567522Y89383D01*
X567440Y88967D01*
X567430Y88920D01*
X566135D01*
X566126Y88967D01*
X566043Y89383D01*
X565435Y90293D01*
X564526Y90901D01*
X563453Y91114D01*
X562380Y90901D01*
X561470Y90293D01*
X560862Y89383D01*
X560649Y88310D01*
X560862Y87237D01*
X561470Y86327D01*
X562380Y85720D01*
X562796Y85637D01*
X562843Y85627D01*
Y84333D01*
X562796Y84323D01*
X562380Y84241D01*
X561470Y83633D01*
X560862Y82723D01*
X560649Y81650D01*
X560862Y80577D01*
X561470Y79668D01*
X562380Y79060D01*
X562814Y78973D01*
X563642Y78509D01*
X564106Y77681D01*
X564192Y77247D01*
X564800Y76337D01*
X565710Y75730D01*
X566783Y75516D01*
X567856Y75730D01*
X568765Y76337D01*
X569373Y77247D01*
X569587Y78320D01*
X569373Y79393D01*
X568765Y80303D01*
X567856Y80911D01*
X567422Y80997D01*
X566594Y81461D01*
X566130Y82289D01*
X566043Y82723D01*
X565435Y83633D01*
X564526Y84241D01*
X564109Y84323D01*
X564063Y84333D01*
Y85627D01*
X564109Y85637D01*
X564526Y85720D01*
X565435Y86327D01*
X566043Y87237D01*
X566126Y87654D01*
X566135Y87700D01*
X567430D01*
X567440Y87654D01*
X567522Y87237D01*
X568130Y86327D01*
X569040Y85720D01*
X570113Y85506D01*
X570639Y84980D01*
X570852Y83907D01*
X571460Y82998D01*
X572370Y82390D01*
X573443Y82176D01*
X573969Y81650D01*
X574182Y80577D01*
X574790Y79668D01*
X575700Y79060D01*
X576773Y78846D01*
X577846Y79060D01*
X578755Y79668D01*
X579363Y80577D01*
X579577Y81650D01*
X579363Y82723D01*
X578755Y83633D01*
X577846Y84241D01*
X576773Y84454D01*
X576247Y84980D01*
X576033Y86053D01*
X575425Y86963D01*
X574516Y87570D01*
X573443Y87784D01*
X572917Y88310D01*
X572703Y89383D01*
X572095Y90293D01*
X571186Y90901D01*
X570769Y90983D01*
X570723Y90993D01*
Y92288D01*
X570769Y92297D01*
X571186Y92380D01*
X572095Y92987D01*
X572703Y93897D01*
X572917Y94970D01*
X572703Y96043D01*
X572095Y96953D01*
X571186Y97561D01*
X570113Y97774D01*
D02*
G37*
G36*
X68250Y89054D02*
X67177Y88840D01*
X66267Y88233D01*
X65660Y87323D01*
X65390Y87211D01*
X64823Y87590D01*
X63750Y87804D01*
X62677Y87590D01*
X61767Y86983D01*
X61160Y86073D01*
X60946Y85000D01*
X61160Y83927D01*
X61767Y83017D01*
X62677Y82410D01*
X63750Y82196D01*
X64823Y82410D01*
X65733Y83017D01*
X66340Y83927D01*
X66610Y84039D01*
X67177Y83660D01*
X68250Y83446D01*
X69323Y83660D01*
X70233Y84267D01*
X70840Y85177D01*
X71054Y86250D01*
X70840Y87323D01*
X70233Y88233D01*
X69323Y88840D01*
X68250Y89054D01*
D02*
G37*
G36*
X204500Y92804D02*
X203427Y92591D01*
X202517Y91983D01*
X201910Y91073D01*
X201696Y90000D01*
X201910Y88927D01*
X202517Y88018D01*
X203427Y87410D01*
X204500Y87196D01*
X205573Y87410D01*
X206483Y88018D01*
X207090Y88927D01*
X207304Y90000D01*
X207090Y91073D01*
X206483Y91983D01*
X205573Y92591D01*
X204500Y92804D01*
D02*
G37*
G36*
X396667Y92804D02*
X395594Y92590D01*
X394685Y91983D01*
X394077Y91073D01*
X393863Y90000D01*
X394077Y88927D01*
X394685Y88017D01*
X395594Y87410D01*
X396667Y87196D01*
X397740Y87410D01*
X398650Y88017D01*
X399258Y88927D01*
X399471Y90000D01*
X399258Y91073D01*
X398650Y91983D01*
X397740Y92590D01*
X396667Y92804D01*
D02*
G37*
G36*
X356667D02*
X355594Y92590D01*
X354685Y91983D01*
X354077Y91073D01*
X353863Y90000D01*
X354077Y88927D01*
X354685Y88017D01*
X355594Y87410D01*
X356667Y87196D01*
X357740Y87410D01*
X358650Y88017D01*
X359258Y88927D01*
X359471Y90000D01*
X359258Y91073D01*
X358650Y91983D01*
X357740Y92590D01*
X356667Y92804D01*
D02*
G37*
G36*
X180000Y91419D02*
X178927Y91205D01*
X178017Y90597D01*
X177409Y89688D01*
X177196Y88615D01*
X177409Y87542D01*
X178017Y86632D01*
X178927Y86024D01*
X180000Y85811D01*
X181073Y86024D01*
X181982Y86632D01*
X182590Y87542D01*
X182804Y88615D01*
X182590Y89688D01*
X181982Y90597D01*
X181073Y91205D01*
X180000Y91419D01*
D02*
G37*
G36*
X706250Y90554D02*
X705177Y90340D01*
X704268Y89733D01*
X703660Y88823D01*
X703446Y87750D01*
X703660Y86677D01*
X704268Y85767D01*
X705177Y85160D01*
X706250Y84946D01*
X707323Y85160D01*
X708233Y85767D01*
X708840Y86677D01*
X709054Y87750D01*
X708840Y88823D01*
X708233Y89733D01*
X707323Y90340D01*
X706250Y90554D01*
D02*
G37*
G36*
X612658Y89054D02*
X611585Y88840D01*
X610675Y88233D01*
X610067Y87323D01*
X609854Y86250D01*
X610067Y85177D01*
X610675Y84267D01*
X611585Y83659D01*
X612658Y83446D01*
X613731Y83659D01*
X614640Y84267D01*
X615248Y85177D01*
X615462Y86250D01*
X615248Y87323D01*
X614640Y88233D01*
X613731Y88840D01*
X612658Y89054D01*
D02*
G37*
G36*
X381667Y87804D02*
X380594Y87590D01*
X379685Y86983D01*
X379077Y86073D01*
X378863Y85000D01*
X379077Y83927D01*
X379685Y83017D01*
X380594Y82410D01*
X381667Y82196D01*
X382740Y82410D01*
X383650Y83017D01*
X384258Y83927D01*
X384471Y85000D01*
X384258Y86073D01*
X383650Y86983D01*
X382740Y87590D01*
X381667Y87804D01*
D02*
G37*
G36*
X458408Y86804D02*
X457335Y86590D01*
X456425Y85983D01*
X455817Y85073D01*
X455604Y84000D01*
X455817Y82927D01*
X456425Y82017D01*
X457335Y81410D01*
X458408Y81196D01*
X459481Y81410D01*
X460390Y82017D01*
X460998Y82927D01*
X461212Y84000D01*
X460998Y85073D01*
X460390Y85983D01*
X459481Y86590D01*
X458408Y86804D01*
D02*
G37*
G36*
X465158Y85304D02*
X464085Y85090D01*
X463175Y84483D01*
X462567Y83573D01*
X462354Y82500D01*
X462567Y81427D01*
X463175Y80517D01*
X464085Y79910D01*
X465158Y79696D01*
X466231Y79910D01*
X467140Y80517D01*
X467748Y81427D01*
X467962Y82500D01*
X467748Y83573D01*
X467140Y84483D01*
X466231Y85090D01*
X465158Y85304D01*
D02*
G37*
G36*
X150250Y84804D02*
X149177Y84590D01*
X148267Y83983D01*
X147660Y83073D01*
X147446Y82000D01*
X147660Y80927D01*
X148267Y80017D01*
X149177Y79410D01*
X150250Y79196D01*
X151323Y79410D01*
X152233Y80017D01*
X152840Y80927D01*
X153054Y82000D01*
X152840Y83073D01*
X152233Y83983D01*
X151323Y84590D01*
X150250Y84804D01*
D02*
G37*
G36*
X190450Y80804D02*
X189377Y80590D01*
X188467Y79983D01*
X187860Y79073D01*
X187646Y78000D01*
X187860Y76927D01*
X188467Y76017D01*
X189377Y75410D01*
X190450Y75196D01*
X191523Y75410D01*
X192433Y76017D01*
X193040Y76927D01*
X193254Y78000D01*
X193040Y79073D01*
X192433Y79983D01*
X191523Y80590D01*
X190450Y80804D01*
D02*
G37*
G36*
X681408Y77396D02*
X680335Y77183D01*
X679425Y76575D01*
X678999Y75937D01*
X677981Y75090D01*
X676908Y75304D01*
X675835Y75090D01*
X674925Y74482D01*
X674317Y73573D01*
X674104Y72500D01*
X674317Y71427D01*
X674925Y70517D01*
X675118Y70388D01*
Y68861D01*
X674925Y68732D01*
X674317Y67823D01*
X674104Y66750D01*
X674317Y65677D01*
X674925Y64767D01*
X675835Y64159D01*
X676222Y64082D01*
X676946Y63746D01*
X677144Y62702D01*
X677104Y62500D01*
X677317Y61427D01*
X677925Y60517D01*
X678835Y59910D01*
X679908Y59696D01*
X680981Y59910D01*
X681890Y60517D01*
X682498Y61427D01*
X682711Y62500D01*
X682498Y63573D01*
X681890Y64483D01*
X680981Y65090D01*
X680593Y65167D01*
X679870Y65504D01*
X679671Y66547D01*
X679712Y66750D01*
X679498Y67823D01*
X678890Y68732D01*
X678698Y68861D01*
Y70388D01*
X678891Y70517D01*
X679316Y71155D01*
X680335Y72002D01*
X681408Y71788D01*
X682481Y72002D01*
X683390Y72610D01*
X683998Y73519D01*
X684212Y74592D01*
X683998Y75665D01*
X683390Y76575D01*
X682481Y77183D01*
X681408Y77396D01*
D02*
G37*
G36*
X74750Y80554D02*
X73677Y80340D01*
X72767Y79733D01*
X72160Y78823D01*
X71946Y77750D01*
X72160Y76677D01*
X72767Y75767D01*
X73677Y75160D01*
X74750Y74946D01*
X75823Y75160D01*
X76733Y75767D01*
X77340Y76677D01*
X77554Y77750D01*
X77340Y78823D01*
X76733Y79733D01*
X75823Y80340D01*
X74750Y80554D01*
D02*
G37*
G36*
X255250Y80304D02*
X254177Y80090D01*
X253267Y79483D01*
X252660Y78573D01*
X252446Y77500D01*
X252660Y76427D01*
X253267Y75517D01*
X254177Y74910D01*
X255250Y74696D01*
X256323Y74910D01*
X257233Y75517D01*
X257840Y76427D01*
X258054Y77500D01*
X257840Y78573D01*
X257233Y79483D01*
X256323Y80090D01*
X255250Y80304D01*
D02*
G37*
G36*
X45500Y75054D02*
X44427Y74840D01*
X43517Y74233D01*
X42983D01*
X42073Y74840D01*
X41000Y75054D01*
X39927Y74840D01*
X39017Y74233D01*
X38483D01*
X37573Y74840D01*
X36500Y75054D01*
X35427Y74840D01*
X34517Y74233D01*
X33910Y73323D01*
X32823Y72590D01*
X31750Y72804D01*
X30677Y72590D01*
X29767Y71983D01*
X29160Y71073D01*
X28946Y70000D01*
X29160Y68927D01*
X29767Y68017D01*
X30677Y67410D01*
X31750Y67196D01*
X32823Y67410D01*
X33733Y68017D01*
X34340Y68927D01*
X35427Y69660D01*
X36500Y69446D01*
X37573Y69660D01*
X38483Y70267D01*
X39017D01*
X39927Y69660D01*
X41000Y69446D01*
X42073Y69660D01*
X42983Y70267D01*
X43517D01*
X44427Y69660D01*
X45500Y69446D01*
X46573Y69660D01*
X47483Y70267D01*
X48090Y71177D01*
X48304Y72250D01*
X48090Y73323D01*
X47483Y74233D01*
X46573Y74840D01*
X45500Y75054D01*
D02*
G37*
G36*
X632943Y79904D02*
X631870Y79690D01*
X630960Y79083D01*
X630352Y78173D01*
X630139Y77100D01*
X630352Y76027D01*
X630960Y75118D01*
X631870Y74510D01*
X632943Y74296D01*
X634016Y74510D01*
X634848Y75065D01*
X634990Y75110D01*
X636339Y74946D01*
X636625Y74517D01*
X637535Y73910D01*
X638608Y73696D01*
X639681Y73910D01*
X640590Y74517D01*
X641198Y75427D01*
X641412Y76500D01*
X641198Y77573D01*
X640590Y78483D01*
X639681Y79090D01*
X638608Y79304D01*
X637535Y79090D01*
X636703Y78534D01*
X636560Y78490D01*
X635212Y78654D01*
X634925Y79083D01*
X634016Y79690D01*
X632943Y79904D01*
D02*
G37*
G36*
X651158Y78554D02*
X650085Y78340D01*
X649175Y77733D01*
X648567Y76823D01*
X648354Y75750D01*
X648567Y74677D01*
X649175Y73767D01*
X650085Y73159D01*
X651158Y72946D01*
X652231Y73159D01*
X653140Y73767D01*
X653748Y74677D01*
X653962Y75750D01*
X653748Y76823D01*
X653140Y77733D01*
X652231Y78340D01*
X651158Y78554D01*
D02*
G37*
G36*
X5000Y79804D02*
X3927Y79590D01*
X3017Y78983D01*
X2410Y78073D01*
X2196Y77000D01*
X2410Y75927D01*
X3017Y75017D01*
Y74733D01*
X2410Y73823D01*
X2196Y72750D01*
X2410Y71677D01*
X3017Y70767D01*
X3927Y70160D01*
X5000Y69946D01*
X6073Y70160D01*
X6983Y70767D01*
X7590Y71677D01*
X7804Y72750D01*
X7590Y73823D01*
X6983Y74733D01*
Y75017D01*
X7590Y75927D01*
X7804Y77000D01*
X7590Y78073D01*
X6983Y78983D01*
X6073Y79590D01*
X5000Y79804D01*
D02*
G37*
G36*
X-2750Y74804D02*
X-3823Y74590D01*
X-4733Y73983D01*
X-5340Y73073D01*
X-5554Y72000D01*
X-5340Y70927D01*
X-4733Y70017D01*
X-3823Y69410D01*
X-2750Y69196D01*
X-1677Y69410D01*
X-767Y70017D01*
X-160Y70927D01*
X54Y72000D01*
X-160Y73073D01*
X-767Y73983D01*
X-1677Y74590D01*
X-2750Y74804D01*
D02*
G37*
G36*
X92250Y74054D02*
X91177Y73840D01*
X90268Y73232D01*
X89660Y72323D01*
X89446Y71250D01*
X89660Y70177D01*
X90268Y69267D01*
X91177Y68659D01*
X92250Y68446D01*
X93323Y68659D01*
X94233Y69267D01*
X94841Y70177D01*
X95054Y71250D01*
X94841Y72323D01*
X94233Y73232D01*
X93323Y73840D01*
X92250Y74054D01*
D02*
G37*
G36*
X12000Y82304D02*
X10927Y82090D01*
X10017Y81483D01*
X9410Y80573D01*
X9196Y79500D01*
X9410Y78427D01*
X10017Y77517D01*
Y77233D01*
X9410Y76323D01*
X9196Y75250D01*
X9410Y74177D01*
X10017Y73267D01*
Y72983D01*
X9410Y72073D01*
X9196Y71000D01*
X9410Y69927D01*
X10017Y69017D01*
X10927Y68410D01*
X12000Y68196D01*
X13073Y68410D01*
X13983Y69017D01*
X14590Y69927D01*
X14804Y71000D01*
X14590Y72073D01*
X13983Y72983D01*
Y73267D01*
X14590Y74177D01*
X14804Y75250D01*
X14590Y76323D01*
X13983Y77233D01*
Y77517D01*
X14590Y78427D01*
X14804Y79500D01*
X14590Y80573D01*
X13983Y81483D01*
X13073Y82090D01*
X12000Y82304D01*
D02*
G37*
G36*
X458000Y71804D02*
X456927Y71590D01*
X456017Y70983D01*
X455410Y70073D01*
X455196Y69000D01*
X455410Y67927D01*
X456017Y67017D01*
X456927Y66410D01*
X458000Y66196D01*
X459073Y66410D01*
X459983Y67017D01*
X460590Y67927D01*
X460804Y69000D01*
X460590Y70073D01*
X459983Y70983D01*
X459073Y71590D01*
X458000Y71804D01*
D02*
G37*
G36*
X533483Y74464D02*
X532410Y74250D01*
X531500Y73643D01*
X530892Y72733D01*
X530679Y71660D01*
X530892Y70587D01*
X531500Y69677D01*
X532410Y69070D01*
X533483Y68856D01*
X534009Y68330D01*
X534222Y67257D01*
X534830Y66347D01*
X535740Y65740D01*
X536813Y65526D01*
X537886Y65740D01*
X538795Y66347D01*
X539403Y67257D01*
X539617Y68330D01*
X539403Y69403D01*
X538795Y70313D01*
X537886Y70921D01*
X536813Y71134D01*
X536287Y71660D01*
X536073Y72733D01*
X535465Y73643D01*
X534556Y74250D01*
X533483Y74464D01*
D02*
G37*
G36*
X60500Y63804D02*
X59427Y63590D01*
X58517Y62983D01*
X57983D01*
X57073Y63590D01*
X56000Y63804D01*
X54927Y63590D01*
X54017Y62983D01*
X53410Y62073D01*
X53196Y61000D01*
X53410Y59927D01*
X53559Y59704D01*
X53917Y58750D01*
X53559Y57796D01*
X53410Y57573D01*
X53196Y56500D01*
X53410Y55427D01*
X54017Y54517D01*
X54927Y53910D01*
X56000Y53696D01*
X57073Y53910D01*
X57983Y54517D01*
X58517D01*
X59427Y53910D01*
X60500Y53696D01*
X61573Y53910D01*
X62483Y54517D01*
X63090Y55427D01*
X63304Y56500D01*
X63090Y57573D01*
X62941Y57796D01*
X62583Y58750D01*
X62941Y59704D01*
X63090Y59927D01*
X63304Y61000D01*
X63090Y62073D01*
X62483Y62983D01*
X61573Y63590D01*
X60500Y63804D01*
D02*
G37*
G36*
X78500Y66054D02*
X77427Y65840D01*
X76517Y65233D01*
X75910Y64323D01*
X75696Y63250D01*
X75910Y62177D01*
X76517Y61267D01*
X77427Y60660D01*
X78500Y60446D01*
X79573Y60660D01*
X80483Y61267D01*
X81090Y62177D01*
X81304Y63250D01*
X81090Y64323D01*
X80483Y65233D01*
X79573Y65840D01*
X78500Y66054D01*
D02*
G37*
G36*
X460479Y95624D02*
X449271D01*
X449151Y95574D01*
X445050Y95251D01*
X440933Y94263D01*
X437021Y92642D01*
X433411Y90430D01*
X430283Y87758D01*
X430162Y87709D01*
X428032Y85578D01*
X427935Y85344D01*
X424242Y82313D01*
X419821Y79950D01*
X415024Y78495D01*
X410269Y78027D01*
X410036Y78124D01*
X409905Y78069D01*
X407416Y77742D01*
X404975Y76730D01*
X402983Y75202D01*
X402852Y75148D01*
X402797Y75015D01*
X401472Y74129D01*
X399908Y73818D01*
X399775Y73874D01*
X292690D01*
X292018Y74268D01*
X291624Y74940D01*
Y76478D01*
X291626Y76484D01*
X291654Y76549D01*
X291693Y76621D01*
X291744Y76700D01*
X291809Y76786D01*
X291888Y76879D01*
X292004Y76998D01*
X292052Y77121D01*
X292590Y77927D01*
X292804Y79000D01*
X292590Y80073D01*
X291983Y80983D01*
X291073Y81590D01*
X290000Y81804D01*
X288927Y81590D01*
X288017Y80983D01*
X287410Y80073D01*
X287196Y79000D01*
X287410Y77927D01*
X287948Y77121D01*
X287996Y76998D01*
X288112Y76879D01*
X288191Y76786D01*
X288256Y76700D01*
X288307Y76621D01*
X288346Y76549D01*
X288374Y76484D01*
X288376Y76478D01*
Y74500D01*
X288473Y74267D01*
X288718Y73037D01*
X289546Y71796D01*
X290787Y70968D01*
X292017Y70723D01*
X292250Y70626D01*
X399775D01*
X399984Y70713D01*
X401726Y70942D01*
X403545Y71696D01*
X404939Y72765D01*
X405148Y72852D01*
X405191Y72955D01*
X406552Y73999D01*
X408232Y74695D01*
X409933Y74919D01*
X410036Y74876D01*
X410140Y74920D01*
X414519Y75265D01*
X418893Y76315D01*
X423048Y78036D01*
X426883Y80386D01*
X430223Y83238D01*
X430328Y83282D01*
X430328Y83282D01*
X430328Y83282D01*
X431226Y84180D01*
X432458Y85412D01*
X432549Y85630D01*
X435999Y88462D01*
X440129Y90670D01*
X444611Y92029D01*
X449053Y92466D01*
X449271Y92376D01*
X460479D01*
X460697Y92466D01*
X465139Y92029D01*
X469621Y90670D01*
X473750Y88462D01*
X477201Y85630D01*
X477291Y85412D01*
X482852Y79852D01*
X482852Y79852D01*
X483684Y79020D01*
X483644Y78703D01*
X483183Y77725D01*
X482459Y77580D01*
X481550Y76973D01*
X480942Y76063D01*
X480728Y74990D01*
X480942Y73917D01*
X481550Y73007D01*
X482459Y72400D01*
X483532Y72186D01*
X484605Y72400D01*
X485515Y73007D01*
X486123Y73917D01*
X486267Y74641D01*
X487245Y75102D01*
X487563Y75141D01*
X497004Y65700D01*
X496964Y65383D01*
X496503Y64404D01*
X495779Y64260D01*
X494870Y63653D01*
X494262Y62743D01*
X494049Y61670D01*
X494262Y60597D01*
X494870Y59687D01*
X495779Y59080D01*
X496852Y58866D01*
X497925Y59080D01*
X498835Y59687D01*
X499443Y60597D01*
X499542Y61097D01*
X500788Y61271D01*
X500922Y60597D01*
X501530Y59687D01*
X502439Y59080D01*
X503512Y58866D01*
X504585Y59080D01*
X505495Y59687D01*
X506103Y60597D01*
X506316Y61670D01*
X506103Y62743D01*
X505495Y63653D01*
X504585Y64260D01*
X503512Y64474D01*
X503420Y64455D01*
X503309Y64495D01*
X503151Y64486D01*
X503041Y64488D01*
X502948Y64496D01*
X502868Y64509D01*
X502802Y64526D01*
X502752Y64544D01*
X499624Y67673D01*
X500094Y68670D01*
X500227Y68865D01*
X501255Y69070D01*
X502165Y69678D01*
X502773Y70587D01*
X502986Y71660D01*
X502773Y72733D01*
X502165Y73643D01*
X501255Y74250D01*
X500182Y74464D01*
X499109Y74250D01*
X498200Y73643D01*
X497592Y72733D01*
X497387Y71705D01*
X497192Y71572D01*
X496195Y71101D01*
X486303Y80993D01*
X486774Y81990D01*
X486907Y82185D01*
X487935Y82390D01*
X488845Y82998D01*
X489453Y83907D01*
X489666Y84980D01*
X489453Y86053D01*
X488845Y86963D01*
X487935Y87571D01*
X486862Y87784D01*
X485789Y87571D01*
X484880Y86963D01*
X484272Y86053D01*
X484067Y85025D01*
X483872Y84892D01*
X482875Y84421D01*
X479588Y87709D01*
X479467Y87758D01*
X476339Y90430D01*
X472729Y92642D01*
X468817Y94263D01*
X464700Y95251D01*
X460600Y95574D01*
X460479Y95624D01*
D02*
G37*
G36*
X644658Y64054D02*
X643585Y63840D01*
X642675Y63233D01*
X642067Y62323D01*
X641854Y61250D01*
X642067Y60177D01*
X642675Y59267D01*
X643585Y58660D01*
X644658Y58446D01*
X645731Y58660D01*
X646640Y59267D01*
X647248Y60177D01*
X647462Y61250D01*
X647248Y62323D01*
X646640Y63233D01*
X645731Y63840D01*
X644658Y64054D01*
D02*
G37*
G36*
X570113Y64474D02*
X569040Y64260D01*
X568130Y63653D01*
X567522Y62743D01*
X567309Y61670D01*
X567522Y60597D01*
X568130Y59687D01*
X569040Y59080D01*
X570113Y58866D01*
X570639Y58340D01*
X570852Y57267D01*
X571460Y56357D01*
X572370Y55750D01*
X573443Y55536D01*
X574516Y55750D01*
X575425Y56357D01*
X576033Y57267D01*
X576247Y58340D01*
X576033Y59413D01*
X575425Y60323D01*
X574516Y60930D01*
X573443Y61144D01*
X572917Y61670D01*
X572703Y62743D01*
X572095Y63653D01*
X571186Y64260D01*
X570113Y64474D01*
D02*
G37*
G36*
X553463Y61144D02*
X552390Y60930D01*
X551480Y60323D01*
X550872Y59413D01*
X550659Y58340D01*
X550133Y57814D01*
X549060Y57600D01*
X548150Y56993D01*
X547542Y56083D01*
X547329Y55010D01*
X547542Y53937D01*
X548150Y53027D01*
X549060Y52420D01*
X550133Y52206D01*
X551206Y52420D01*
X552115Y53027D01*
X552723Y53937D01*
X552937Y55010D01*
X553463Y55536D01*
X554536Y55750D01*
X555445Y56357D01*
X556053Y57267D01*
X556267Y58340D01*
X556053Y59413D01*
X555445Y60323D01*
X554536Y60930D01*
X553463Y61144D01*
D02*
G37*
G36*
X721100Y56804D02*
X720027Y56590D01*
X719117Y55983D01*
X718510Y55073D01*
X718296Y54000D01*
X718510Y52927D01*
X719117Y52017D01*
X720027Y51410D01*
X721100Y51196D01*
X722173Y51410D01*
X723083Y52017D01*
X723690Y52927D01*
X723904Y54000D01*
X723690Y55073D01*
X723083Y55983D01*
X722173Y56590D01*
X721100Y56804D01*
D02*
G37*
G36*
X674908Y55304D02*
X673835Y55090D01*
X672925Y54483D01*
X672317Y53573D01*
X672104Y52500D01*
X672317Y51427D01*
X672925Y50517D01*
X673835Y49910D01*
X674908Y49696D01*
X675981Y49910D01*
X676890Y50517D01*
X677498Y51427D01*
X677711Y52500D01*
X677498Y53573D01*
X676890Y54483D01*
X675981Y55090D01*
X674908Y55304D01*
D02*
G37*
G36*
X751750Y53804D02*
X750677Y53590D01*
X749767Y52983D01*
X749160Y52073D01*
X748946Y51000D01*
X749160Y49927D01*
X749767Y49017D01*
X750677Y48410D01*
X751750Y48196D01*
X752823Y48410D01*
X753733Y49017D01*
X754341Y49927D01*
X754554Y51000D01*
X754341Y52073D01*
X753733Y52983D01*
X752823Y53590D01*
X751750Y53804D01*
D02*
G37*
G36*
X62250Y50054D02*
X61177Y49840D01*
X60267Y49233D01*
X59660Y48323D01*
X59446Y47250D01*
X59660Y46177D01*
X60267Y45267D01*
X60734Y44956D01*
X60742Y44935D01*
Y43565D01*
X60734Y43544D01*
X60267Y43233D01*
X59660Y42323D01*
X59446Y41250D01*
X59660Y40177D01*
X59809Y39954D01*
X60167Y39000D01*
X59809Y38046D01*
X59660Y37823D01*
X59446Y36750D01*
X59475Y36605D01*
X58395Y35525D01*
X58250Y35554D01*
X58105Y35525D01*
X57025Y36605D01*
X57054Y36750D01*
X56840Y37823D01*
X56691Y38046D01*
X56333Y39000D01*
X56691Y39954D01*
X56840Y40177D01*
X57054Y41250D01*
X56840Y42323D01*
X56233Y43233D01*
X55766Y43544D01*
X55758Y43565D01*
Y44935D01*
X55766Y44956D01*
X56233Y45267D01*
X56840Y46177D01*
X57054Y47250D01*
X56840Y48323D01*
X56233Y49233D01*
X55323Y49840D01*
X54250Y50054D01*
X53177Y49840D01*
X52267Y49233D01*
X51660Y48323D01*
X51446Y47250D01*
X51660Y46177D01*
X52267Y45267D01*
X52734Y44956D01*
X52742Y44935D01*
Y43565D01*
X52734Y43544D01*
X52267Y43233D01*
X51660Y42323D01*
X51446Y41250D01*
X51660Y40177D01*
X52267Y39267D01*
Y38733D01*
X51660Y37823D01*
X51446Y36750D01*
X51660Y35677D01*
X52267Y34767D01*
X53177Y34160D01*
X54250Y33946D01*
X54395Y33975D01*
X55475Y32895D01*
X55446Y32750D01*
X55475Y32605D01*
X54395Y31525D01*
X54250Y31554D01*
X53177Y31340D01*
X52267Y30733D01*
X51660Y29823D01*
X51446Y28750D01*
X51660Y27677D01*
X51809Y27454D01*
X52167Y26500D01*
X51809Y25546D01*
X51660Y25323D01*
X51446Y24250D01*
X51660Y23177D01*
X52267Y22267D01*
X52734Y21956D01*
X52742Y21935D01*
Y20565D01*
X52734Y20544D01*
X52267Y20233D01*
X51660Y19323D01*
X51446Y18250D01*
X51660Y17177D01*
X52267Y16267D01*
X53177Y15660D01*
X54250Y15446D01*
X55323Y15660D01*
X56233Y16267D01*
X56840Y17177D01*
X57054Y18250D01*
X56840Y19323D01*
X56233Y20233D01*
X55766Y20544D01*
X55758Y20565D01*
Y21935D01*
X55766Y21956D01*
X56233Y22267D01*
X56840Y23177D01*
X57054Y24250D01*
X56840Y25323D01*
X56691Y25546D01*
X56333Y26500D01*
X56691Y27454D01*
X56840Y27677D01*
X57054Y28750D01*
X58178Y29282D01*
X58322D01*
X59446Y28750D01*
X59660Y27677D01*
X60267Y26767D01*
Y26233D01*
X59660Y25323D01*
X59446Y24250D01*
X59660Y23177D01*
X60267Y22267D01*
X60734Y21956D01*
X60742Y21935D01*
Y20565D01*
X60734Y20544D01*
X60267Y20233D01*
X59660Y19323D01*
X59446Y18250D01*
X59660Y17177D01*
X60267Y16267D01*
X61177Y15660D01*
X62250Y15446D01*
X63323Y15660D01*
X64233Y16267D01*
X64840Y17177D01*
X65054Y18250D01*
X64840Y19323D01*
X64233Y20233D01*
X63766Y20544D01*
X63758Y20565D01*
Y21935D01*
X63766Y21956D01*
X64233Y22267D01*
X64840Y23177D01*
X65054Y24250D01*
X64840Y25323D01*
X64233Y26233D01*
Y26767D01*
X64840Y27677D01*
X65054Y28750D01*
X64840Y29823D01*
X64233Y30733D01*
X63323Y31340D01*
X62250Y31554D01*
X62105Y31525D01*
X61025Y32605D01*
X61054Y32750D01*
X61025Y32895D01*
X62105Y33975D01*
X62250Y33946D01*
X63323Y34160D01*
X64233Y34767D01*
X64840Y35677D01*
X65054Y36750D01*
X64840Y37823D01*
X64691Y38046D01*
X64333Y39000D01*
X64691Y39954D01*
X64840Y40177D01*
X65054Y41250D01*
X64840Y42323D01*
X64233Y43233D01*
X63766Y43544D01*
X63758Y43565D01*
Y44935D01*
X63766Y44956D01*
X64233Y45267D01*
X64840Y46177D01*
X65054Y47250D01*
X64840Y48323D01*
X64233Y49233D01*
X63323Y49840D01*
X62250Y50054D01*
D02*
G37*
G36*
X85500Y45304D02*
X84427Y45090D01*
X83517Y44483D01*
X82910Y43573D01*
X82696Y42500D01*
X82910Y41427D01*
X83174Y41031D01*
X83414Y40125D01*
X83174Y39219D01*
X82910Y38823D01*
X82696Y37750D01*
X82910Y36677D01*
X83517Y35767D01*
X84427Y35160D01*
X85500Y34946D01*
X86573Y35160D01*
X87483Y35767D01*
X88090Y36677D01*
X88304Y37750D01*
X88090Y38823D01*
X87826Y39219D01*
X87586Y40125D01*
X87826Y41031D01*
X88090Y41427D01*
X88304Y42500D01*
X88090Y43573D01*
X87483Y44483D01*
X86573Y45090D01*
X85500Y45304D01*
D02*
G37*
G36*
X97000Y45304D02*
X95927Y45090D01*
X95017Y44483D01*
X94410Y43573D01*
X94196Y42500D01*
X94410Y41427D01*
X94674Y41031D01*
X95017Y39733D01*
X94410Y38823D01*
X94196Y37750D01*
X94410Y36677D01*
X95017Y35767D01*
X95927Y35160D01*
X97000Y34946D01*
X98073Y35160D01*
X98983Y35767D01*
X99590Y36677D01*
X99804Y37750D01*
X99590Y38823D01*
X98983Y39733D01*
X99326Y41031D01*
X99590Y41427D01*
X99804Y42500D01*
X99590Y43573D01*
X98983Y44483D01*
X98073Y45090D01*
X97000Y45304D01*
D02*
G37*
G36*
X31250Y42554D02*
X30177Y42340D01*
X29267Y41733D01*
X28660Y40823D01*
X28446Y39750D01*
X28660Y38677D01*
X28693Y38626D01*
X29196Y37625D01*
X28693Y36623D01*
X28660Y36573D01*
X28446Y35500D01*
X28660Y34427D01*
X29267Y33517D01*
X30177Y32910D01*
X31250Y32696D01*
X32323Y32910D01*
X33233Y33517D01*
X33840Y34427D01*
X33936Y34908D01*
X35000Y34696D01*
X36073Y34910D01*
X36983Y35517D01*
X37590Y36427D01*
X37804Y37500D01*
X37590Y38573D01*
X36983Y39483D01*
X36073Y40090D01*
X35000Y40304D01*
X33984Y40102D01*
X33840Y40823D01*
X33233Y41733D01*
X32323Y42340D01*
X31250Y42554D01*
D02*
G37*
G36*
X510908Y40054D02*
X509835Y39840D01*
X508925Y39233D01*
X508317Y38323D01*
X508104Y37250D01*
X508317Y36177D01*
X508925Y35267D01*
X509835Y34660D01*
X510908Y34446D01*
X511981Y34660D01*
X512890Y35267D01*
X513498Y36177D01*
X513712Y37250D01*
X513498Y38323D01*
X512890Y39233D01*
X511981Y39840D01*
X510908Y40054D01*
D02*
G37*
G36*
X724175Y38804D02*
X723102Y38591D01*
X722192Y37983D01*
X721585Y37073D01*
X721371Y36000D01*
X721585Y34927D01*
X722192Y34017D01*
X723102Y33410D01*
X724175Y33196D01*
X725248Y33410D01*
X726158Y34017D01*
X726765Y34927D01*
X726979Y36000D01*
X726765Y37073D01*
X726158Y37983D01*
X725248Y38591D01*
X724175Y38804D01*
D02*
G37*
G36*
X106000Y32054D02*
X104927Y31840D01*
X104017Y31233D01*
X103483D01*
X102573Y31840D01*
X101500Y32054D01*
X100427Y31840D01*
X99517Y31233D01*
X98910Y30323D01*
X98696Y29250D01*
X98910Y28177D01*
X99517Y27267D01*
X100427Y26660D01*
X101500Y26446D01*
X102573Y26660D01*
X102796Y26809D01*
X103750Y27167D01*
X104704Y26809D01*
X104927Y26660D01*
X106000Y26446D01*
X107073Y26660D01*
X107983Y27267D01*
X108590Y28177D01*
X108804Y29250D01*
X108590Y30323D01*
X107983Y31233D01*
X107073Y31840D01*
X106000Y32054D01*
D02*
G37*
G36*
X16500Y33054D02*
X15427Y32840D01*
X14517Y32233D01*
X13909Y31323D01*
X12559Y31042D01*
X12500Y31054D01*
X11427Y30840D01*
X10517Y30233D01*
X9909Y29323D01*
X9696Y28250D01*
X9909Y27177D01*
X10517Y26267D01*
X11427Y25660D01*
X12500Y25446D01*
X13614Y24658D01*
X13659Y24427D01*
X14267Y23517D01*
X15177Y22910D01*
X16250Y22696D01*
X17323Y22910D01*
X18233Y23517D01*
X18840Y24427D01*
X19054Y25500D01*
X18840Y26573D01*
X18653Y26854D01*
X18503Y28101D01*
X18749Y28665D01*
X19090Y29177D01*
X19304Y30250D01*
X19090Y31323D01*
X18483Y32233D01*
X17573Y32840D01*
X16500Y33054D01*
D02*
G37*
G36*
X223250Y35304D02*
X222177Y35090D01*
X221267Y34483D01*
X220660Y33573D01*
X220446Y32500D01*
X220660Y31427D01*
X221267Y30517D01*
X222177Y29910D01*
X223250Y29696D01*
X224323Y29910D01*
X225233Y30517D01*
X225840Y31427D01*
X226054Y32500D01*
X225840Y33573D01*
X225233Y34483D01*
X224323Y35090D01*
X223250Y35304D01*
D02*
G37*
G36*
X166500Y32318D02*
X164159Y31852D01*
X162174Y30526D01*
X160848Y28541D01*
X160797Y28286D01*
X159502D01*
X159452Y28541D01*
X158125Y30526D01*
X156141Y31852D01*
X153800Y32318D01*
X151459Y31852D01*
X149474Y30526D01*
X148148Y28541D01*
X148097Y28286D01*
X146802D01*
X146752Y28541D01*
X145426Y30526D01*
X143441Y31852D01*
X141100Y32318D01*
X138759Y31852D01*
X136774Y30526D01*
X135448Y28541D01*
X135397Y28286D01*
X134102D01*
X134052Y28541D01*
X132726Y30526D01*
X130741Y31852D01*
X128400Y32318D01*
X126059Y31852D01*
X124074Y30526D01*
X122748Y28541D01*
X122697Y28286D01*
X121402D01*
X121352Y28541D01*
X120026Y30526D01*
X118041Y31852D01*
X115700Y32318D01*
X113359Y31852D01*
X111374Y30526D01*
X110048Y28541D01*
X109582Y26200D01*
X110048Y23859D01*
X111374Y21874D01*
X113359Y20548D01*
X113614Y20497D01*
Y19203D01*
X113359Y19152D01*
X111374Y17826D01*
X110048Y15841D01*
X109582Y13500D01*
X110048Y11159D01*
X111374Y9174D01*
X113359Y7848D01*
X115700Y7383D01*
X118041Y7848D01*
X120026Y9174D01*
X121352Y11159D01*
X121817Y13500D01*
X121352Y15841D01*
X120026Y17826D01*
X118041Y19152D01*
X117786Y19203D01*
Y20497D01*
X118041Y20548D01*
X120026Y21874D01*
X121352Y23859D01*
X121402Y24114D01*
X122697D01*
X122748Y23859D01*
X124074Y21874D01*
X126059Y20548D01*
X128400Y20082D01*
X130741Y20548D01*
X132726Y21874D01*
X134052Y23859D01*
X134102Y24114D01*
X135397D01*
X135448Y23859D01*
X136774Y21874D01*
X138759Y20548D01*
X141100Y20082D01*
X143441Y20548D01*
X145426Y21874D01*
X146752Y23859D01*
X146802Y24114D01*
X148097D01*
X148148Y23859D01*
X149474Y21874D01*
X151459Y20548D01*
X151713Y20497D01*
Y19203D01*
X151459Y19152D01*
X149474Y17826D01*
X148148Y15841D01*
X147682Y13500D01*
X148148Y11159D01*
X149474Y9174D01*
X151459Y7848D01*
X153800Y7383D01*
X156141Y7848D01*
X158125Y9174D01*
X159452Y11159D01*
X159917Y13500D01*
X159452Y15841D01*
X158125Y17826D01*
X156141Y19152D01*
X155886Y19203D01*
Y20497D01*
X156141Y20548D01*
X158125Y21874D01*
X159452Y23859D01*
X159502Y24114D01*
X160797D01*
X160848Y23859D01*
X162174Y21874D01*
X164159Y20548D01*
X166500Y20082D01*
X168841Y20548D01*
X170826Y21874D01*
X172152Y23859D01*
X172617Y26200D01*
X172152Y28541D01*
X170826Y30526D01*
X168841Y31852D01*
X166500Y32318D01*
D02*
G37*
G36*
X524158Y33304D02*
X523085Y33090D01*
X522175Y32483D01*
X521567Y31573D01*
X521354Y30500D01*
X521567Y29427D01*
X522175Y28517D01*
X523085Y27910D01*
X524158Y27696D01*
X525231Y27910D01*
X526140Y28517D01*
X526748Y29427D01*
X526962Y30500D01*
X526748Y31573D01*
X526140Y32483D01*
X525231Y33090D01*
X524158Y33304D01*
D02*
G37*
G36*
X644158Y31554D02*
X643085Y31340D01*
X642175Y30733D01*
X641567Y29823D01*
X641354Y28750D01*
X641567Y27677D01*
X642175Y26767D01*
X643085Y26160D01*
X644158Y25946D01*
X645231Y26160D01*
X646140Y26767D01*
X646748Y27677D01*
X646962Y28750D01*
X646748Y29823D01*
X646140Y30733D01*
X645231Y31340D01*
X644158Y31554D01*
D02*
G37*
G36*
X178750Y29554D02*
X177677Y29341D01*
X176767Y28733D01*
X176160Y27823D01*
X175946Y26750D01*
X176160Y25677D01*
X176767Y24767D01*
X177677Y24160D01*
X178750Y23946D01*
X179823Y24160D01*
X180733Y24767D01*
X181341Y25677D01*
X181554Y26750D01*
X181341Y27823D01*
X180733Y28733D01*
X179823Y29341D01*
X178750Y29554D01*
D02*
G37*
G36*
X252000Y29554D02*
X250927Y29340D01*
X250017Y28733D01*
X249410Y27823D01*
X249196Y26750D01*
X249410Y25677D01*
X250017Y24767D01*
X250927Y24160D01*
X252000Y23946D01*
X253073Y24160D01*
X253983Y24767D01*
X254590Y25677D01*
X254804Y26750D01*
X254590Y27823D01*
X253983Y28733D01*
X253073Y29340D01*
X252000Y29554D01*
D02*
G37*
G36*
X500250Y33554D02*
X499177Y33340D01*
X498267Y32733D01*
X497660Y31823D01*
X497446Y30750D01*
X497660Y29677D01*
X496643Y28912D01*
X496375Y28733D01*
X495767Y27823D01*
X495554Y26750D01*
X495767Y25677D01*
X496375Y24767D01*
X497285Y24160D01*
X498358Y23946D01*
X499431Y24160D01*
X500383Y24741D01*
X501335Y24160D01*
X502408Y23946D01*
X503481Y24160D01*
X504390Y24767D01*
X504998Y25677D01*
X505212Y26750D01*
X504998Y27823D01*
X504390Y28733D01*
X503481Y29340D01*
X503048Y30721D01*
X503054Y30750D01*
X502840Y31823D01*
X502233Y32733D01*
X501323Y33340D01*
X500250Y33554D01*
D02*
G37*
G36*
X419250Y19554D02*
X418177Y19340D01*
X417954Y19191D01*
X417000Y18833D01*
X416046Y19191D01*
X415823Y19340D01*
X414750Y19554D01*
X413677Y19340D01*
X413454Y19191D01*
X412500Y18833D01*
X411546Y19191D01*
X411323Y19340D01*
X410250Y19554D01*
X409177Y19340D01*
X408267Y18733D01*
X407659Y17823D01*
X407446Y16750D01*
X407659Y15677D01*
X408267Y14767D01*
X409177Y14160D01*
X410250Y13946D01*
X411323Y14160D01*
X411546Y14309D01*
X412500Y14667D01*
X413454Y14309D01*
X413677Y14160D01*
X414750Y13946D01*
X415823Y14160D01*
X416046Y14309D01*
X417000Y14667D01*
X417954Y14309D01*
X418177Y14160D01*
X419250Y13946D01*
X420323Y14160D01*
X421233Y14767D01*
X421840Y15677D01*
X422054Y16750D01*
X421840Y17823D01*
X421233Y18733D01*
X420323Y19340D01*
X419250Y19554D01*
D02*
G37*
G36*
X244250Y23554D02*
X243177Y23340D01*
X242267Y22733D01*
X241660Y21823D01*
X241446Y20750D01*
X241660Y19677D01*
X242267Y18767D01*
X243177Y18160D01*
X244250Y17946D01*
X245323Y18160D01*
X246233Y18767D01*
X246840Y19677D01*
X247054Y20750D01*
X246840Y21823D01*
X246233Y22733D01*
X245323Y23340D01*
X244250Y23554D01*
D02*
G37*
G36*
X710000Y22304D02*
X708927Y22091D01*
X708017Y21483D01*
X707410Y20573D01*
X707196Y19500D01*
X707410Y18427D01*
X708017Y17518D01*
X708927Y16910D01*
X710000Y16696D01*
X711073Y16910D01*
X711983Y17518D01*
X712590Y18427D01*
X712804Y19500D01*
X712590Y20573D01*
X711983Y21483D01*
X711073Y22091D01*
X710000Y22304D01*
D02*
G37*
G36*
X0Y27804D02*
X-1073Y27590D01*
X-1983Y26983D01*
X-2590Y26073D01*
X-4000Y25304D01*
X-5073Y25090D01*
X-5983Y24483D01*
X-6590Y23573D01*
X-6804Y22500D01*
X-6590Y21427D01*
X-5983Y20517D01*
X-5073Y19910D01*
X-4000Y19696D01*
X-2590Y18927D01*
X-1983Y18017D01*
X-1073Y17410D01*
X0Y17196D01*
X1073Y17410D01*
X1983Y18017D01*
X1994Y18034D01*
X3342Y17766D01*
X3410Y17427D01*
X4017Y16517D01*
X4927Y15910D01*
X6000Y15696D01*
X7073Y15910D01*
X7983Y16517D01*
X8590Y17427D01*
X8804Y18500D01*
X8590Y19573D01*
X7983Y20483D01*
X7073Y21091D01*
X6000Y21304D01*
X4927Y21091D01*
X4017Y20483D01*
X4006Y20466D01*
X2658Y20734D01*
X2590Y21073D01*
X2210Y21642D01*
X2068Y22500D01*
X2210Y23358D01*
X2590Y23927D01*
X2804Y25000D01*
X2590Y26073D01*
X1983Y26983D01*
X1073Y27590D01*
X0Y27804D01*
D02*
G37*
G36*
X469550Y20604D02*
X468477Y20390D01*
X467567Y19783D01*
X466960Y18873D01*
X466746Y17800D01*
X466960Y16727D01*
X467567Y15817D01*
X468477Y15209D01*
X469550Y14996D01*
X470623Y15209D01*
X471533Y15817D01*
X472113Y16686D01*
X472326Y16720D01*
X473297Y16681D01*
X473422Y16659D01*
X474017Y15767D01*
X474927Y15160D01*
X476000Y14946D01*
X477073Y15160D01*
X477983Y15767D01*
X478590Y16677D01*
X478804Y17750D01*
X478590Y18823D01*
X477983Y19733D01*
X477073Y20340D01*
X476000Y20554D01*
X474927Y20340D01*
X474017Y19733D01*
X473437Y18864D01*
X473224Y18830D01*
X472253Y18868D01*
X472128Y18891D01*
X471533Y19783D01*
X470623Y20390D01*
X469550Y20604D01*
D02*
G37*
G36*
X208154Y20399D02*
X207081Y20186D01*
X206172Y19578D01*
X205564Y18669D01*
X205350Y17596D01*
X205564Y16523D01*
X206172Y15613D01*
X207081Y15005D01*
X208154Y14792D01*
X209227Y15005D01*
X210137Y15613D01*
X210745Y16523D01*
X210958Y17596D01*
X210745Y18669D01*
X210137Y19578D01*
X209227Y20186D01*
X208154Y20399D01*
D02*
G37*
G36*
X15000Y16804D02*
X13927Y16590D01*
X13017Y15983D01*
X12410Y15073D01*
X12196Y14000D01*
X12410Y12927D01*
X13017Y12017D01*
X13927Y11410D01*
X15000Y11196D01*
X16073Y11410D01*
X16983Y12017D01*
X17590Y12927D01*
X17804Y14000D01*
X17590Y15073D01*
X16983Y15983D01*
X16073Y16590D01*
X15000Y16804D01*
D02*
G37*
G36*
X61000Y11804D02*
X59927Y11590D01*
X59017Y10983D01*
X59014Y10977D01*
X57486D01*
X57483Y10983D01*
X56573Y11590D01*
X55500Y11804D01*
X54427Y11590D01*
X53517Y10983D01*
X52910Y10073D01*
X52696Y9000D01*
X52910Y7927D01*
X53517Y7017D01*
X54427Y6410D01*
X55500Y6196D01*
X56573Y6410D01*
X57483Y7017D01*
X57486Y7023D01*
X59014D01*
X59017Y7017D01*
X59927Y6410D01*
X61000Y6196D01*
X62073Y6410D01*
X62983Y7017D01*
X63590Y7927D01*
X63804Y9000D01*
X63590Y10073D01*
X62983Y10983D01*
X62073Y11590D01*
X61000Y11804D01*
D02*
G37*
G36*
X198750Y16304D02*
X197677Y16090D01*
X196767Y15483D01*
X196160Y14573D01*
X195946Y13500D01*
X196160Y12427D01*
X196767Y11517D01*
X197677Y10910D01*
X198750Y10696D01*
X199823Y10910D01*
X200733Y11517D01*
X201340Y12427D01*
X201554Y13500D01*
X201340Y14573D01*
X200733Y15483D01*
X199823Y16090D01*
X198750Y16304D01*
D02*
G37*
G36*
X183000Y20554D02*
X181927Y20340D01*
X181017Y19733D01*
X180410Y18823D01*
X180196Y17750D01*
X180410Y16677D01*
X181017Y15767D01*
Y14483D01*
X180410Y13573D01*
X180196Y12500D01*
X180410Y11427D01*
X181017Y10517D01*
X181927Y9910D01*
X183000Y9696D01*
X184073Y9910D01*
X184983Y10517D01*
X185590Y11427D01*
X185804Y12500D01*
X185590Y13573D01*
X184983Y14483D01*
Y15767D01*
X185590Y16677D01*
X185804Y17750D01*
X185590Y18823D01*
X184983Y19733D01*
X184073Y20340D01*
X183000Y20554D01*
D02*
G37*
G36*
X322360Y23268D02*
X321287Y23055D01*
X320378Y22447D01*
X319770Y21537D01*
X319557Y20464D01*
X319770Y19391D01*
X319869Y19244D01*
X320267Y17983D01*
X319660Y17073D01*
X319446Y16000D01*
X319660Y14927D01*
X320267Y14017D01*
Y13483D01*
X319660Y12573D01*
X319446Y11500D01*
X319660Y10427D01*
X320267Y9517D01*
X321177Y8910D01*
X322250Y8696D01*
X323323Y8910D01*
X324233Y9517D01*
X324840Y10427D01*
X325054Y11500D01*
X324840Y12573D01*
X324233Y13483D01*
Y14017D01*
X324840Y14927D01*
X325054Y16000D01*
X324840Y17073D01*
X324742Y17221D01*
X324343Y18482D01*
X324951Y19391D01*
X325164Y20464D01*
X324951Y21537D01*
X324343Y22447D01*
X323433Y23055D01*
X322360Y23268D01*
D02*
G37*
G36*
X259000Y9054D02*
X257927Y8840D01*
X257704Y8691D01*
X256750Y8333D01*
X255796Y8691D01*
X255573Y8840D01*
X254500Y9054D01*
X253427Y8840D01*
X253204Y8691D01*
X252250Y8333D01*
X251296Y8691D01*
X251073Y8840D01*
X250000Y9054D01*
X248927Y8840D01*
X248017Y8233D01*
X247410Y7323D01*
X247196Y6250D01*
X247410Y5177D01*
X248017Y4267D01*
X248927Y3660D01*
X250000Y3446D01*
X251073Y3660D01*
X251296Y3809D01*
X252250Y4167D01*
X253204Y3809D01*
X253427Y3660D01*
X254500Y3446D01*
X255573Y3660D01*
X255796Y3809D01*
X256750Y4167D01*
X257704Y3809D01*
X257927Y3660D01*
X259000Y3446D01*
X260073Y3660D01*
X260983Y4267D01*
X261590Y5177D01*
X261804Y6250D01*
X261590Y7323D01*
X260983Y8233D01*
X260073Y8840D01*
X259000Y9054D01*
D02*
G37*
G36*
X694775Y12304D02*
X693702Y12091D01*
X692792Y11483D01*
X692185Y10573D01*
X691971Y9500D01*
X692185Y8427D01*
X692792Y7518D01*
X693702Y6910D01*
X694775Y6696D01*
X695848Y6910D01*
X696758Y7518D01*
X697365Y8427D01*
X697579Y9500D01*
X697365Y10573D01*
X696758Y11483D01*
X695848Y12091D01*
X694775Y12304D01*
D02*
G37*
G36*
X364500Y9054D02*
X363427Y8840D01*
X362517Y8233D01*
X361910Y7323D01*
X361696Y6250D01*
X361910Y5177D01*
X362517Y4267D01*
X363427Y3660D01*
X364500Y3446D01*
X365573Y3660D01*
X366483Y4267D01*
X367090Y5177D01*
X367304Y6250D01*
X367090Y7323D01*
X366483Y8233D01*
X365573Y8840D01*
X364500Y9054D01*
D02*
G37*
%LPD*%
G36*
X497958Y168525D02*
X497815Y168663D01*
X497671Y168786D01*
X497527Y168895D01*
X497380Y168989D01*
X497233Y169069D01*
X497085Y169134D01*
X496936Y169185D01*
X496785Y169221D01*
X496633Y169243D01*
X496481Y169250D01*
Y170250D01*
X496633Y170257D01*
X496785Y170279D01*
X496936Y170315D01*
X497085Y170366D01*
X497233Y170431D01*
X497380Y170511D01*
X497527Y170605D01*
X497671Y170714D01*
X497815Y170837D01*
X497958Y170975D01*
Y168525D01*
D02*
G37*
G36*
X299778Y79782D02*
X299661Y79686D01*
X299555Y79578D01*
X299461Y79459D01*
X299378Y79329D01*
X299307Y79187D01*
X299247Y79034D01*
X299199Y78870D01*
X299162Y78694D01*
X299137Y78507D01*
X299124Y78309D01*
X297476Y80122D01*
X297673Y80116D01*
X297863Y80120D01*
X298044Y80134D01*
X298219Y80159D01*
X298385Y80194D01*
X298544Y80239D01*
X298694Y80295D01*
X298838Y80361D01*
X298973Y80438D01*
X299101Y80525D01*
X299778Y79782D01*
D02*
G37*
G36*
X565533Y143695D02*
X565399Y143824D01*
X565263Y143938D01*
X565124Y144040D01*
X564982Y144127D01*
X564837Y144202D01*
X564689Y144262D01*
X564539Y144310D01*
X564386Y144343D01*
X564230Y144364D01*
X564072Y144370D01*
Y145470D01*
X564230Y145477D01*
X564386Y145497D01*
X564539Y145531D01*
X564689Y145578D01*
X564837Y145639D01*
X564982Y145713D01*
X565124Y145801D01*
X565263Y145902D01*
X565399Y146017D01*
X565533Y146145D01*
Y143695D01*
D02*
G37*
G36*
X389087Y150108D02*
X388964Y149964D01*
X388855Y149819D01*
X388761Y149673D01*
X388681Y149526D01*
X388616Y149377D01*
X388565Y149228D01*
X388529Y149077D01*
X388507Y148926D01*
X388500Y148773D01*
X387500D01*
X387493Y148926D01*
X387471Y149077D01*
X387435Y149228D01*
X387384Y149377D01*
X387319Y149526D01*
X387239Y149673D01*
X387145Y149819D01*
X387036Y149964D01*
X386913Y150108D01*
X386775Y150250D01*
X389225D01*
X389087Y150108D01*
D02*
G37*
G36*
X407174Y122574D02*
X407196Y122423D01*
X407233Y122272D01*
X407283Y122123D01*
X407349Y121974D01*
X407428Y121827D01*
X407523Y121681D01*
X407631Y121536D01*
X407755Y121392D01*
X407892Y121250D01*
X405442D01*
X405580Y121392D01*
X405703Y121536D01*
X405812Y121681D01*
X405906Y121827D01*
X405986Y121974D01*
X406051Y122123D01*
X406102Y122272D01*
X406138Y122423D01*
X406160Y122574D01*
X406167Y122727D01*
X407167D01*
X407174Y122574D01*
D02*
G37*
G36*
X291087Y77607D02*
X290964Y77464D01*
X290855Y77319D01*
X290761Y77173D01*
X290681Y77026D01*
X290616Y76877D01*
X290565Y76728D01*
X290529Y76577D01*
X290507Y76426D01*
X290500Y76273D01*
X289500D01*
X289493Y76426D01*
X289471Y76577D01*
X289435Y76728D01*
X289384Y76877D01*
X289319Y77026D01*
X289239Y77173D01*
X289145Y77319D01*
X289036Y77464D01*
X288913Y77607D01*
X288775Y77750D01*
X291225D01*
X291087Y77607D01*
D02*
G37*
G36*
X501938Y63780D02*
X502062Y63688D01*
X502194Y63609D01*
X502336Y63543D01*
X502485Y63490D01*
X502644Y63449D01*
X502812Y63421D01*
X502988Y63406D01*
X503172Y63404D01*
X503366Y63414D01*
X501766Y61558D01*
X501748Y61760D01*
X501685Y62134D01*
X501639Y62305D01*
X501584Y62467D01*
X501520Y62618D01*
X501446Y62759D01*
X501364Y62890D01*
X501272Y63011D01*
X501171Y63122D01*
X501823Y63884D01*
X501938Y63780D01*
D02*
G37*
%LPC*%
G36*
X235250Y194054D02*
X234177Y193840D01*
X233267Y193233D01*
X232660Y192323D01*
X232446Y191250D01*
X232660Y190177D01*
X233267Y189267D01*
X234177Y188660D01*
X235250Y188446D01*
X236323Y188660D01*
X237233Y189267D01*
X237840Y190177D01*
X238054Y191250D01*
X237840Y192323D01*
X237233Y193233D01*
X236323Y193840D01*
X235250Y194054D01*
D02*
G37*
G36*
X289200Y194054D02*
X288127Y193840D01*
X287218Y193233D01*
X286610Y192323D01*
X286396Y191250D01*
X286610Y190177D01*
X287218Y189267D01*
X288127Y188659D01*
X289200Y188446D01*
X290273Y188659D01*
X291183Y189267D01*
X291791Y190177D01*
X292004Y191250D01*
X291791Y192323D01*
X291183Y193233D01*
X290273Y193840D01*
X289200Y194054D01*
D02*
G37*
G36*
X268250Y188804D02*
X267177Y188590D01*
X266267Y187983D01*
X266101Y187734D01*
X264899D01*
X264733Y187983D01*
X263823Y188590D01*
X262750Y188804D01*
X261677Y188590D01*
X260980Y188125D01*
X260320Y188040D01*
X259660Y188125D01*
X258963Y188590D01*
X257890Y188804D01*
X256817Y188590D01*
X255907Y187983D01*
X255299Y187073D01*
X255086Y186000D01*
X255299Y184927D01*
X255907Y184017D01*
X256817Y183410D01*
X257890Y183196D01*
X258963Y183410D01*
X259660Y183875D01*
X260320Y183960D01*
X260980Y183875D01*
X261677Y183410D01*
X262750Y183196D01*
X263823Y183410D01*
X264733Y184017D01*
X264899Y184266D01*
X266101D01*
X266267Y184017D01*
X267177Y183410D01*
X268250Y183196D01*
X269323Y183410D01*
X270233Y184017D01*
X270840Y184927D01*
X271054Y186000D01*
X270840Y187073D01*
X270233Y187983D01*
X269323Y188590D01*
X268250Y188804D01*
D02*
G37*
G36*
X306750Y193304D02*
X305677Y193090D01*
X304767Y192483D01*
X304160Y191573D01*
X303946Y190500D01*
X304160Y189427D01*
X304767Y188517D01*
X305677Y187910D01*
X306750Y187696D01*
X307823Y187910D01*
X308733Y188517D01*
X309340Y189427D01*
X309554Y190500D01*
X309340Y191573D01*
X308733Y192483D01*
X307823Y193090D01*
X306750Y193304D01*
D02*
G37*
G36*
X371408Y190304D02*
X370335Y190090D01*
X369425Y189483D01*
X368817Y188573D01*
X368604Y187500D01*
X368817Y186427D01*
X369425Y185517D01*
X370335Y184910D01*
X371408Y184696D01*
X372481Y184910D01*
X373390Y185517D01*
X373998Y186427D01*
X374212Y187500D01*
X373998Y188573D01*
X373390Y189483D01*
X372481Y190090D01*
X371408Y190304D01*
D02*
G37*
G36*
X141000Y181304D02*
X139927Y181090D01*
X139652Y180907D01*
X138875Y180548D01*
X138098Y180907D01*
X137823Y181090D01*
X136750Y181304D01*
X135677Y181090D01*
X135402Y180907D01*
X134625Y180548D01*
X133848Y180907D01*
X133573Y181090D01*
X132500Y181304D01*
X131427Y181090D01*
X130517Y180483D01*
X129909Y179573D01*
X129696Y178500D01*
X129909Y177427D01*
X130517Y176517D01*
X131427Y175910D01*
X132500Y175696D01*
X133573Y175910D01*
X133848Y176093D01*
X134625Y176452D01*
X135402Y176093D01*
X135677Y175910D01*
X136750Y175696D01*
X137823Y175910D01*
X138098Y176093D01*
X138875Y176452D01*
X139652Y176093D01*
X139927Y175910D01*
X141000Y175696D01*
X142073Y175910D01*
X142983Y176517D01*
X143590Y177427D01*
X143804Y178500D01*
X143590Y179573D01*
X142983Y180483D01*
X142073Y181090D01*
X141000Y181304D01*
D02*
G37*
G36*
X289200Y185804D02*
X288127Y185590D01*
X287218Y184983D01*
X286610Y184073D01*
X286396Y183000D01*
X286610Y181927D01*
X287218Y181017D01*
X288127Y180410D01*
X289200Y180196D01*
X290273Y180410D01*
X291183Y181017D01*
X291791Y181927D01*
X292004Y183000D01*
X291791Y184073D01*
X291183Y184983D01*
X290273Y185590D01*
X289200Y185804D01*
D02*
G37*
G36*
X235250Y185554D02*
X234177Y185340D01*
X233267Y184732D01*
X232660Y183823D01*
X232446Y182750D01*
X232660Y181677D01*
X233267Y180767D01*
X234177Y180159D01*
X235250Y179946D01*
X236323Y180159D01*
X237233Y180767D01*
X237840Y181677D01*
X238054Y182750D01*
X237840Y183823D01*
X237233Y184732D01*
X236323Y185340D01*
X235250Y185554D01*
D02*
G37*
G36*
X304500Y184554D02*
X303427Y184340D01*
X302517Y183733D01*
X301910Y182823D01*
X301696Y181750D01*
X301910Y180677D01*
X302517Y179767D01*
X303427Y179160D01*
X304500Y178946D01*
X305573Y179160D01*
X306483Y179767D01*
X307090Y180677D01*
X307304Y181750D01*
X307090Y182823D01*
X306483Y183733D01*
X305573Y184340D01*
X304500Y184554D01*
D02*
G37*
G36*
X357500Y188804D02*
X356427Y188590D01*
X355517Y187983D01*
X354910Y187073D01*
X354696Y186000D01*
X354910Y184927D01*
X355517Y184017D01*
X355884Y183773D01*
X355818Y183295D01*
X355583Y182771D01*
X354677Y182590D01*
X353767Y181983D01*
X353160Y181073D01*
X352946Y180000D01*
X353160Y178927D01*
X353767Y178017D01*
X354677Y177410D01*
X355750Y177196D01*
X356823Y177410D01*
X357733Y178017D01*
X358340Y178927D01*
X358554Y180000D01*
X358340Y181073D01*
X357733Y181983D01*
X357366Y182227D01*
X357432Y182705D01*
X357667Y183229D01*
X358573Y183410D01*
X359483Y184017D01*
X360090Y184927D01*
X360304Y186000D01*
X360090Y187073D01*
X359483Y187983D01*
X358573Y188590D01*
X357500Y188804D01*
D02*
G37*
G36*
X95500Y177304D02*
X94427Y177090D01*
X93517Y176483D01*
X92983D01*
X92073Y177090D01*
X91000Y177304D01*
X89927Y177090D01*
X89017Y176483D01*
X88583Y175833D01*
X87823Y176340D01*
X86750Y176554D01*
X85677Y176340D01*
X84767Y175732D01*
X84159Y174823D01*
X83946Y173750D01*
X84159Y172677D01*
X84767Y171767D01*
X85677Y171159D01*
X86750Y170946D01*
X87277Y171051D01*
X87879Y170151D01*
X87659Y169823D01*
X87446Y168750D01*
X87659Y167677D01*
X88267Y166767D01*
X89177Y166160D01*
X90250Y165946D01*
X91323Y166160D01*
X91944Y166574D01*
X92625Y166697D01*
X93306Y166574D01*
X93927Y166160D01*
X95000Y165946D01*
X96073Y166160D01*
X96982Y166767D01*
X97590Y167677D01*
X97804Y168750D01*
X97590Y169823D01*
X96982Y170733D01*
X96875Y170805D01*
X96955Y171809D01*
X97749Y172045D01*
X97767Y172017D01*
X98677Y171410D01*
X99750Y171196D01*
X100823Y171410D01*
X101733Y172017D01*
X102340Y172927D01*
X102554Y174000D01*
X102340Y175073D01*
X101733Y175983D01*
X100823Y176590D01*
X99750Y176804D01*
X98677Y176590D01*
X97801Y176005D01*
X97483Y176483D01*
X96573Y177090D01*
X95500Y177304D01*
D02*
G37*
G36*
X176250Y179304D02*
X175177Y179090D01*
X174267Y178483D01*
X173660Y177573D01*
X173446Y176500D01*
X173660Y175427D01*
X174267Y174517D01*
X175177Y173910D01*
X176250Y173696D01*
X177323Y173910D01*
X178233Y174517D01*
X178840Y175427D01*
X179054Y176500D01*
X178840Y177573D01*
X178233Y178483D01*
X177323Y179090D01*
X176250Y179304D01*
D02*
G37*
G36*
X337000Y173804D02*
X335927Y173590D01*
X335017Y172983D01*
X334410Y172073D01*
X333388Y171727D01*
X333000Y171804D01*
X331927Y171590D01*
X331017Y170982D01*
X330410Y170073D01*
X330196Y169000D01*
X330410Y167927D01*
X331017Y167017D01*
X331927Y166409D01*
X333000Y166196D01*
X334073Y166409D01*
X334983Y167017D01*
X335591Y167927D01*
X336612Y168273D01*
X337000Y168196D01*
X338073Y168410D01*
X338983Y169017D01*
X339590Y169927D01*
X339804Y171000D01*
X339590Y172073D01*
X338983Y172983D01*
X338073Y173590D01*
X337000Y173804D01*
D02*
G37*
G36*
X287500Y176554D02*
X286427Y176340D01*
X285517Y175733D01*
X284910Y174823D01*
X284696Y173750D01*
X284910Y172677D01*
X285517Y171767D01*
X286427Y171160D01*
X287500Y170946D01*
X288573Y171160D01*
X289483Y171767D01*
X290090Y172677D01*
X290304Y173750D01*
X290090Y174823D01*
X289483Y175733D01*
X288573Y176340D01*
X287500Y176554D01*
D02*
G37*
G36*
X149750Y171054D02*
X148677Y170840D01*
X147767Y170233D01*
X147160Y169323D01*
X146946Y168250D01*
X147160Y167177D01*
X147767Y166267D01*
X148677Y165660D01*
X149750Y165446D01*
X150823Y165660D01*
X151733Y166267D01*
X152340Y167177D01*
X152554Y168250D01*
X152340Y169323D01*
X151733Y170233D01*
X150823Y170840D01*
X149750Y171054D01*
D02*
G37*
G36*
X274700Y170791D02*
X273627Y170578D01*
X272717Y169970D01*
X272110Y169060D01*
X271896Y167987D01*
X272110Y166915D01*
X272717Y166005D01*
X273627Y165397D01*
X274700Y165184D01*
X275773Y165397D01*
X276683Y166005D01*
X277000Y166480D01*
X278008Y166189D01*
X278160Y165427D01*
X278768Y164517D01*
X279677Y163910D01*
X280750Y163696D01*
X281823Y163910D01*
X282733Y164517D01*
X283340Y165427D01*
X283554Y166500D01*
X283340Y167573D01*
X282733Y168483D01*
X281823Y169090D01*
X280750Y169304D01*
X279677Y169090D01*
X278768Y168483D01*
X278450Y168007D01*
X277442Y168299D01*
X277290Y169060D01*
X276683Y169970D01*
X275773Y170578D01*
X274700Y170791D01*
D02*
G37*
G36*
X159250Y174054D02*
X158177Y173840D01*
X157267Y173233D01*
X156660Y172323D01*
X156446Y171250D01*
X156660Y170177D01*
X157074Y169556D01*
X157197Y168875D01*
X157074Y168194D01*
X156660Y167573D01*
X156446Y166500D01*
X156660Y165427D01*
X157267Y164517D01*
X158177Y163909D01*
X159250Y163696D01*
X160323Y163909D01*
X161233Y164517D01*
X161840Y165427D01*
X162054Y166500D01*
X161840Y167573D01*
X161426Y168194D01*
X161303Y168875D01*
X161426Y169556D01*
X161840Y170177D01*
X162054Y171250D01*
X161840Y172323D01*
X161233Y173233D01*
X160323Y173840D01*
X159250Y174054D01*
D02*
G37*
G36*
X62000Y163804D02*
X60927Y163590D01*
X60017Y162983D01*
X59851Y162734D01*
X58649D01*
X58483Y162983D01*
X57573Y163590D01*
X56500Y163804D01*
X55427Y163590D01*
X54517Y162983D01*
X53910Y162073D01*
X53696Y161000D01*
X53910Y159927D01*
X54517Y159017D01*
X55427Y158410D01*
X56500Y158196D01*
X57573Y158410D01*
X58483Y159017D01*
X58649Y159266D01*
X59851D01*
X60017Y159017D01*
X60927Y158410D01*
X62000Y158196D01*
X63073Y158410D01*
X63983Y159017D01*
X64590Y159927D01*
X64804Y161000D01*
X64590Y162073D01*
X63983Y162983D01*
X63073Y163590D01*
X62000Y163804D01*
D02*
G37*
G36*
X224750Y168804D02*
X223677Y168590D01*
X222767Y167983D01*
X222160Y167073D01*
X221946Y166000D01*
X222160Y164927D01*
X222282Y164744D01*
X221517Y164233D01*
X220910Y163323D01*
X220696Y162250D01*
X220910Y161177D01*
X221517Y160267D01*
X222427Y159660D01*
X223500Y159446D01*
X224573Y159660D01*
X224675Y159728D01*
X225500Y160256D01*
X226325Y159728D01*
X226427Y159660D01*
X227500Y159446D01*
X228573Y159660D01*
X229482Y160267D01*
X230090Y161177D01*
X230304Y162250D01*
X230090Y163323D01*
X229482Y164233D01*
X228573Y164840D01*
X228316Y164891D01*
X227554Y166000D01*
X227341Y167073D01*
X226733Y167983D01*
X225823Y168590D01*
X224750Y168804D01*
D02*
G37*
G36*
X128250Y164804D02*
X127177Y164590D01*
X126267Y163983D01*
X125660Y163073D01*
X125446Y162000D01*
X125660Y160927D01*
X126267Y160017D01*
X127177Y159410D01*
X128250Y159196D01*
X129323Y159410D01*
X130232Y160017D01*
X130840Y160927D01*
X131054Y162000D01*
X130840Y163073D01*
X130232Y163983D01*
X129323Y164590D01*
X128250Y164804D01*
D02*
G37*
G36*
X154800Y160304D02*
X153727Y160090D01*
X152817Y159483D01*
X152210Y158573D01*
X151996Y157500D01*
X152210Y156427D01*
X152817Y155517D01*
X153727Y154910D01*
X154800Y154696D01*
X155873Y154910D01*
X156783Y155517D01*
X157390Y156427D01*
X157604Y157500D01*
X157390Y158573D01*
X156783Y159483D01*
X155873Y160090D01*
X154800Y160304D01*
D02*
G37*
G36*
X161050Y158104D02*
X159977Y157890D01*
X159067Y157283D01*
X158460Y156373D01*
X158246Y155300D01*
X158460Y154227D01*
X159067Y153317D01*
X159977Y152710D01*
X161050Y152496D01*
X162123Y152710D01*
X163033Y153317D01*
X163640Y154227D01*
X163854Y155300D01*
X163640Y156373D01*
X163033Y157283D01*
X162123Y157890D01*
X161050Y158104D01*
D02*
G37*
G36*
X190250Y156554D02*
X189177Y156340D01*
X188267Y155733D01*
X187660Y154823D01*
X187446Y153750D01*
X187660Y152677D01*
X188267Y151767D01*
X189177Y151160D01*
X190250Y150946D01*
X191323Y151160D01*
X192233Y151767D01*
X192840Y152677D01*
X193054Y153750D01*
X192840Y154823D01*
X192233Y155733D01*
X191323Y156340D01*
X190250Y156554D01*
D02*
G37*
G36*
X208500Y160554D02*
X207427Y160340D01*
X206517Y159733D01*
X205910Y158823D01*
X205696Y157750D01*
X205910Y156677D01*
X206517Y155767D01*
X207427Y155160D01*
X208500Y154946D01*
X208804Y155007D01*
X208884Y154966D01*
X209573Y154140D01*
X209446Y153500D01*
X209660Y152427D01*
X210267Y151517D01*
X211177Y150910D01*
X212250Y150696D01*
X213323Y150910D01*
X214233Y151517D01*
X214840Y152427D01*
X215054Y153500D01*
X214840Y154573D01*
X214233Y155483D01*
X213323Y156090D01*
X212250Y156304D01*
X211946Y156243D01*
X211866Y156284D01*
X211176Y157110D01*
X211304Y157750D01*
X211090Y158823D01*
X210483Y159733D01*
X209573Y160340D01*
X208500Y160554D01*
D02*
G37*
G36*
X175500Y156304D02*
X174427Y156090D01*
X173517Y155483D01*
X172910Y154573D01*
X172696Y153500D01*
X172910Y152427D01*
X173517Y151517D01*
X174427Y150910D01*
X175500Y150696D01*
X176573Y150910D01*
X177483Y151517D01*
X178090Y152427D01*
X178304Y153500D01*
X178090Y154573D01*
X177483Y155483D01*
X176573Y156090D01*
X175500Y156304D01*
D02*
G37*
G36*
X132250Y155804D02*
X131177Y155590D01*
X130267Y154983D01*
X129660Y154073D01*
X129446Y153000D01*
X129660Y151927D01*
X130267Y151017D01*
X131177Y150410D01*
X132250Y150196D01*
X133323Y150410D01*
X134233Y151017D01*
X134840Y151927D01*
X135054Y153000D01*
X134840Y154073D01*
X134233Y154983D01*
X133323Y155590D01*
X132250Y155804D01*
D02*
G37*
G36*
X198250Y153054D02*
X197177Y152840D01*
X196267Y152233D01*
X195660Y151323D01*
X195446Y150250D01*
X195660Y149177D01*
X196267Y148267D01*
X197177Y147660D01*
X198250Y147446D01*
X199323Y147660D01*
X200233Y148267D01*
X200840Y149177D01*
X201054Y150250D01*
X200840Y151323D01*
X200233Y152233D01*
X199323Y152840D01*
X198250Y153054D01*
D02*
G37*
G36*
X42250Y141804D02*
X41177Y141590D01*
X40267Y140983D01*
X39660Y140073D01*
X39446Y139000D01*
X39660Y137927D01*
X40267Y137017D01*
X41177Y136410D01*
X42250Y136196D01*
X43323Y136410D01*
X44233Y137017D01*
X44840Y137927D01*
X45054Y139000D01*
X44840Y140073D01*
X44233Y140983D01*
X43323Y141590D01*
X42250Y141804D01*
D02*
G37*
G36*
X87250Y130054D02*
X86177Y129840D01*
X85267Y129233D01*
X84660Y128323D01*
X84446Y127250D01*
X84660Y126177D01*
X85267Y125267D01*
X86177Y124660D01*
X87250Y124446D01*
X88323Y124660D01*
X89233Y125267D01*
X89840Y126177D01*
X90054Y127250D01*
X89840Y128323D01*
X89233Y129233D01*
X88323Y129840D01*
X87250Y130054D01*
D02*
G37*
G36*
X95500Y125304D02*
X94427Y125090D01*
X93517Y124483D01*
X92909Y123573D01*
X92696Y122500D01*
X92909Y121427D01*
X93517Y120517D01*
X94427Y119910D01*
X95500Y119696D01*
X96573Y119910D01*
X97483Y120517D01*
X98090Y121427D01*
X98304Y122500D01*
X98090Y123573D01*
X97483Y124483D01*
X96573Y125090D01*
X95500Y125304D01*
D02*
G37*
G36*
X86250Y123554D02*
X85177Y123340D01*
X84267Y122733D01*
X83660Y121823D01*
X83446Y120750D01*
X83660Y119677D01*
X84267Y118767D01*
X85177Y118160D01*
X86250Y117946D01*
X87323Y118160D01*
X88233Y118767D01*
X88841Y119677D01*
X89054Y120750D01*
X88841Y121823D01*
X88233Y122733D01*
X87323Y123340D01*
X86250Y123554D01*
D02*
G37*
G36*
X97250Y116804D02*
X96177Y116590D01*
X95267Y115983D01*
X94660Y115073D01*
X94446Y114000D01*
X94522Y113620D01*
X93671Y112770D01*
X93500Y112804D01*
X92427Y112590D01*
X91517Y111983D01*
X90910Y111073D01*
X90696Y110000D01*
X90910Y108927D01*
X91517Y108017D01*
X92427Y107410D01*
X93500Y107196D01*
X94573Y107410D01*
X95483Y108017D01*
X96090Y108927D01*
X96304Y110000D01*
X96228Y110380D01*
X97079Y111230D01*
X97250Y111196D01*
X98323Y111410D01*
X99233Y112017D01*
X99840Y112927D01*
X100054Y114000D01*
X99840Y115073D01*
X99233Y115983D01*
X98323Y116590D01*
X97250Y116804D01*
D02*
G37*
G36*
X63000Y118559D02*
X61830Y118326D01*
X60837Y117663D01*
X60174Y116671D01*
X59941Y115500D01*
X60174Y114330D01*
X60837Y113337D01*
X61830Y112674D01*
X63000Y112441D01*
X64171Y112674D01*
X65163Y113337D01*
X65826Y114330D01*
X66059Y115500D01*
X65826Y116671D01*
X65163Y117663D01*
X64171Y118326D01*
X63000Y118559D01*
D02*
G37*
G36*
X106250Y110054D02*
X105177Y109840D01*
X104267Y109233D01*
X103660Y108323D01*
X103446Y107250D01*
X103660Y106177D01*
X104267Y105267D01*
X105177Y104660D01*
X106250Y104446D01*
X107323Y104660D01*
X108233Y105267D01*
X108840Y106177D01*
X109054Y107250D01*
X108840Y108323D01*
X108233Y109233D01*
X107323Y109840D01*
X106250Y110054D01*
D02*
G37*
G36*
X93500Y105804D02*
X92427Y105590D01*
X91517Y104983D01*
X90910Y104073D01*
X90696Y103000D01*
X90910Y101927D01*
X91517Y101017D01*
X92427Y100410D01*
X93500Y100196D01*
X94573Y100410D01*
X95483Y101017D01*
X96090Y101927D01*
X96304Y103000D01*
X96090Y104073D01*
X95483Y104983D01*
X94573Y105590D01*
X93500Y105804D01*
D02*
G37*
G36*
X120000Y78554D02*
X118927Y78340D01*
X118017Y77733D01*
X117410Y76823D01*
X117196Y75750D01*
X117410Y74677D01*
X118017Y73767D01*
X118927Y73160D01*
X120000Y72946D01*
X121073Y73160D01*
X121983Y73767D01*
X122590Y74677D01*
X122804Y75750D01*
X122590Y76823D01*
X121983Y77733D01*
X121073Y78340D01*
X120000Y78554D01*
D02*
G37*
G36*
X120500Y70304D02*
X119427Y70090D01*
X118517Y69482D01*
X117910Y68573D01*
X117696Y67500D01*
X117910Y66427D01*
X118517Y65517D01*
X119427Y64910D01*
X120500Y64696D01*
X121573Y64910D01*
X122483Y65517D01*
X123090Y66427D01*
X123304Y67500D01*
X123090Y68573D01*
X122483Y69482D01*
X121573Y70090D01*
X120500Y70304D01*
D02*
G37*
G36*
X301750Y66304D02*
X300677Y66090D01*
X299767Y65483D01*
X299160Y64573D01*
X298946Y63500D01*
X299160Y62427D01*
X299767Y61517D01*
X300677Y60910D01*
X301750Y60696D01*
X302823Y60910D01*
X303733Y61517D01*
X304340Y62427D01*
X304554Y63500D01*
X304340Y64573D01*
X303733Y65483D01*
X302823Y66090D01*
X301750Y66304D01*
D02*
G37*
G36*
X268250Y64804D02*
X267177Y64590D01*
X266267Y63983D01*
X265660Y63073D01*
X265446Y62000D01*
X265660Y60927D01*
X266267Y60017D01*
X267177Y59410D01*
X268250Y59196D01*
X269323Y59410D01*
X270233Y60017D01*
X270840Y60927D01*
X271054Y62000D01*
X270840Y63073D01*
X270233Y63983D01*
X269323Y64590D01*
X268250Y64804D01*
D02*
G37*
G36*
X187500Y64054D02*
X186427Y63840D01*
X185517Y63232D01*
X184910Y62323D01*
X184696Y61250D01*
X184910Y60177D01*
X185517Y59267D01*
X186427Y58660D01*
X187500Y58446D01*
X188573Y58660D01*
X189483Y59267D01*
X190091Y60177D01*
X190304Y61250D01*
X190091Y62323D01*
X189483Y63232D01*
X188573Y63840D01*
X187500Y64054D01*
D02*
G37*
G36*
X126250Y63304D02*
X125177Y63090D01*
X124267Y62483D01*
X123660Y61573D01*
X123446Y60500D01*
X123660Y59427D01*
X124267Y58517D01*
X125177Y57909D01*
X126250Y57696D01*
X127323Y57909D01*
X128233Y58517D01*
X128840Y59427D01*
X129054Y60500D01*
X128840Y61573D01*
X128233Y62483D01*
X127323Y63090D01*
X126250Y63304D01*
D02*
G37*
G36*
X312000Y62554D02*
X310927Y62340D01*
X310017Y61733D01*
X309410Y60823D01*
X309196Y59750D01*
X309410Y58677D01*
X310017Y57767D01*
X310927Y57160D01*
X312000Y56946D01*
X313073Y57160D01*
X313983Y57767D01*
X314590Y58677D01*
X314804Y59750D01*
X314590Y60823D01*
X313983Y61733D01*
X313073Y62340D01*
X312000Y62554D01*
D02*
G37*
G36*
X216250Y61304D02*
X215177Y61090D01*
X214267Y60483D01*
X213660Y59573D01*
X213446Y58500D01*
X213660Y57427D01*
X214267Y56517D01*
X215177Y55910D01*
X216250Y55696D01*
X217323Y55910D01*
X218233Y56517D01*
X218840Y57427D01*
X219054Y58500D01*
X218840Y59573D01*
X218233Y60483D01*
X217323Y61090D01*
X216250Y61304D01*
D02*
G37*
G36*
X144500D02*
X143427Y61090D01*
X142517Y60483D01*
X141910Y59573D01*
X141696Y58500D01*
X141910Y57427D01*
X142517Y56517D01*
X143427Y55910D01*
X144500Y55696D01*
X145573Y55910D01*
X146483Y56517D01*
X147091Y57427D01*
X147304Y58500D01*
X147091Y59573D01*
X146483Y60483D01*
X145573Y61090D01*
X144500Y61304D01*
D02*
G37*
G36*
X382408Y60304D02*
X381335Y60090D01*
X380425Y59483D01*
X379817Y58573D01*
X379604Y57500D01*
X379817Y56427D01*
X380425Y55517D01*
X381335Y54910D01*
X382408Y54696D01*
X383481Y54910D01*
X384390Y55517D01*
X384998Y56427D01*
X385211Y57500D01*
X384998Y58573D01*
X384390Y59483D01*
X383481Y60090D01*
X382408Y60304D01*
D02*
G37*
G36*
X294250Y64554D02*
X293177Y64340D01*
X292267Y63733D01*
X291660Y62823D01*
X291446Y61750D01*
X291660Y60677D01*
X291959Y60229D01*
X292185Y59500D01*
X291959Y58771D01*
X291660Y58323D01*
X291446Y57250D01*
X291660Y56177D01*
X292267Y55267D01*
X293177Y54660D01*
X294250Y54446D01*
X295323Y54660D01*
X296233Y55267D01*
X296840Y56177D01*
X297054Y57250D01*
X296840Y58323D01*
X296233Y59233D01*
Y59767D01*
X296840Y60677D01*
X297054Y61750D01*
X296840Y62823D01*
X296233Y63733D01*
X295323Y64340D01*
X294250Y64554D01*
D02*
G37*
G36*
X134500Y56304D02*
X133427Y56090D01*
X132517Y55483D01*
X131910Y54573D01*
X131696Y53500D01*
X131910Y52427D01*
X132517Y51517D01*
X133427Y50910D01*
X134500Y50696D01*
X135573Y50910D01*
X136483Y51517D01*
X137090Y52427D01*
X137304Y53500D01*
X137090Y54573D01*
X136483Y55483D01*
X135573Y56090D01*
X134500Y56304D01*
D02*
G37*
G36*
X209500Y55554D02*
X208427Y55340D01*
X207517Y54733D01*
X206910Y53823D01*
X206696Y52750D01*
X206910Y51677D01*
X207517Y50767D01*
X208427Y50160D01*
X209500Y49946D01*
X210573Y50160D01*
X211483Y50767D01*
X212090Y51677D01*
X212304Y52750D01*
X212090Y53823D01*
X211483Y54733D01*
X210573Y55340D01*
X209500Y55554D01*
D02*
G37*
G36*
X120750Y55304D02*
X119677Y55090D01*
X118767Y54483D01*
X118160Y53573D01*
X117946Y52500D01*
X118160Y51427D01*
X118767Y50517D01*
X119677Y49910D01*
X120750Y49696D01*
X121823Y49910D01*
X122733Y50517D01*
X123340Y51427D01*
X123554Y52500D01*
X123340Y53573D01*
X122733Y54483D01*
X121823Y55090D01*
X120750Y55304D01*
D02*
G37*
G36*
X423408Y51554D02*
X422335Y51340D01*
X421425Y50732D01*
X420843Y49861D01*
X420653Y49636D01*
X420069Y49394D01*
X419706Y49364D01*
X418750Y49554D01*
X417677Y49340D01*
X416767Y48733D01*
X416160Y47823D01*
X415946Y46750D01*
X416160Y45677D01*
X416767Y44767D01*
X417677Y44160D01*
X418750Y43946D01*
X419823Y44160D01*
X420865Y43653D01*
X420910Y43427D01*
X421517Y42517D01*
X422427Y41910D01*
X423500Y41696D01*
X424573Y41910D01*
X425483Y42517D01*
X426090Y43427D01*
X426304Y44500D01*
X426090Y45573D01*
X425878Y45891D01*
X425390Y46767D01*
X425998Y47677D01*
X426212Y48750D01*
X425998Y49823D01*
X425390Y50732D01*
X424481Y51340D01*
X423408Y51554D01*
D02*
G37*
G36*
X390408Y54804D02*
X389335Y54591D01*
X388425Y53983D01*
X387817Y53073D01*
X387604Y52000D01*
X387817Y50927D01*
X388425Y50017D01*
X389335Y49410D01*
X390408Y49196D01*
X391481Y49410D01*
X392390Y50017D01*
X392998Y50927D01*
X393212Y52000D01*
X392998Y53073D01*
X392390Y53983D01*
X391481Y54591D01*
X390408Y54804D01*
D02*
G37*
G36*
X374408Y54054D02*
X373335Y53840D01*
X372425Y53233D01*
X371817Y52323D01*
X371604Y51250D01*
X371817Y50177D01*
X372425Y49267D01*
X373335Y48660D01*
X374408Y48446D01*
X375481Y48660D01*
X376390Y49267D01*
X376998Y50177D01*
X377212Y51250D01*
X376998Y52323D01*
X376390Y53233D01*
X375481Y53840D01*
X374408Y54054D01*
D02*
G37*
G36*
X179500Y53054D02*
X178427Y52840D01*
X177517Y52233D01*
X176910Y51323D01*
X176696Y50250D01*
X176910Y49177D01*
X177517Y48267D01*
X178427Y47660D01*
X179500Y47446D01*
X180573Y47660D01*
X181483Y48267D01*
X182090Y49177D01*
X182304Y50250D01*
X182090Y51323D01*
X181483Y52233D01*
X180573Y52840D01*
X179500Y53054D01*
D02*
G37*
G36*
X288250Y52804D02*
X287177Y52590D01*
X286267Y51983D01*
X285660Y51073D01*
X285446Y50000D01*
X285660Y48927D01*
X286267Y48017D01*
X287177Y47410D01*
X288250Y47196D01*
X289323Y47410D01*
X290233Y48017D01*
X290840Y48927D01*
X291054Y50000D01*
X290840Y51073D01*
X290233Y51983D01*
X289323Y52590D01*
X288250Y52804D01*
D02*
G37*
G36*
X357750Y52054D02*
X356677Y51840D01*
X355767Y51233D01*
X355160Y50323D01*
X354946Y49250D01*
X355160Y48177D01*
X355767Y47267D01*
X356677Y46660D01*
X357750Y46446D01*
X358823Y46660D01*
X359733Y47267D01*
X360340Y48177D01*
X360554Y49250D01*
X360340Y50323D01*
X359733Y51233D01*
X358823Y51840D01*
X357750Y52054D01*
D02*
G37*
G36*
X261750Y51804D02*
X260677Y51590D01*
X259767Y50983D01*
X259160Y50073D01*
X258946Y49000D01*
X259160Y47927D01*
X259767Y47017D01*
X260677Y46410D01*
X261750Y46196D01*
X262823Y46410D01*
X263733Y47017D01*
X264340Y47927D01*
X264554Y49000D01*
X264340Y50073D01*
X263733Y50983D01*
X262823Y51590D01*
X261750Y51804D01*
D02*
G37*
G36*
X141250Y51804D02*
X140177Y51590D01*
X139267Y50983D01*
X138660Y50073D01*
X138446Y49000D01*
X138660Y47927D01*
X139267Y47017D01*
X140177Y46410D01*
X141250Y46196D01*
X142323Y46410D01*
X143233Y47017D01*
X143840Y47927D01*
X144054Y49000D01*
X143840Y50073D01*
X143233Y50983D01*
X142323Y51590D01*
X141250Y51804D01*
D02*
G37*
G36*
X163750Y49804D02*
X162677Y49590D01*
X161767Y48983D01*
X161159Y48073D01*
X160946Y47000D01*
X161159Y45927D01*
X161767Y45017D01*
X162677Y44410D01*
X163750Y44196D01*
X164823Y44410D01*
X165733Y45017D01*
X166340Y45927D01*
X166554Y47000D01*
X166340Y48073D01*
X165733Y48983D01*
X164823Y49590D01*
X163750Y49804D01*
D02*
G37*
G36*
X348000Y48304D02*
X346927Y48090D01*
X346017Y47483D01*
X345410Y46573D01*
X345196Y45500D01*
X345410Y44427D01*
X346017Y43517D01*
X346927Y42910D01*
X348000Y42696D01*
X349073Y42910D01*
X349983Y43517D01*
X350590Y44427D01*
X350804Y45500D01*
X350590Y46573D01*
X349983Y47483D01*
X349073Y48090D01*
X348000Y48304D01*
D02*
G37*
G36*
X230750Y45304D02*
X229677Y45090D01*
X228767Y44483D01*
X228160Y43573D01*
X227946Y42500D01*
X228160Y41427D01*
X228767Y40517D01*
X229677Y39910D01*
X230750Y39696D01*
X231823Y39910D01*
X232733Y40517D01*
X233340Y41427D01*
X233554Y42500D01*
X233340Y43573D01*
X232733Y44483D01*
X231823Y45090D01*
X230750Y45304D01*
D02*
G37*
G36*
X294000Y42304D02*
X292927Y42090D01*
X292017Y41483D01*
X291410Y40573D01*
X291196Y39500D01*
X291410Y38427D01*
X292017Y37517D01*
X292927Y36910D01*
X294000Y36696D01*
X295073Y36910D01*
X295983Y37517D01*
X296590Y38427D01*
X296804Y39500D01*
X296590Y40573D01*
X295983Y41483D01*
X295073Y42090D01*
X294000Y42304D01*
D02*
G37*
G36*
X382658Y42054D02*
X381585Y41840D01*
X380675Y41233D01*
X380067Y40323D01*
X379854Y39250D01*
X380067Y38177D01*
X380675Y37267D01*
X381585Y36660D01*
X382658Y36446D01*
X383731Y36660D01*
X384640Y37267D01*
X385248Y38177D01*
X385462Y39250D01*
X385248Y40323D01*
X384640Y41233D01*
X383731Y41840D01*
X382658Y42054D01*
D02*
G37*
G36*
X312500Y41304D02*
X311427Y41090D01*
X310517Y40483D01*
X309910Y39573D01*
X309696Y38500D01*
X309910Y37427D01*
X310517Y36517D01*
X311427Y35910D01*
X312500Y35696D01*
X313573Y35910D01*
X314483Y36517D01*
X315090Y37427D01*
X315304Y38500D01*
X315090Y39573D01*
X314483Y40483D01*
X313573Y41090D01*
X312500Y41304D01*
D02*
G37*
G36*
X345000Y40804D02*
X343927Y40590D01*
X343017Y39983D01*
X342410Y39073D01*
X342196Y38000D01*
X342410Y36927D01*
X343017Y36017D01*
X343927Y35410D01*
X345000Y35196D01*
X346073Y35410D01*
X346983Y36017D01*
X347590Y36927D01*
X347804Y38000D01*
X347590Y39073D01*
X346983Y39983D01*
X346073Y40590D01*
X345000Y40804D01*
D02*
G37*
G36*
X330125Y41179D02*
X329052Y40965D01*
X328142Y40358D01*
X327535Y39448D01*
X327321Y38375D01*
X327535Y37302D01*
X328142Y36392D01*
X329052Y35785D01*
X330125Y35571D01*
X331198Y35785D01*
X332108Y36392D01*
X333164Y36173D01*
X333267Y36017D01*
X334177Y35410D01*
X335250Y35196D01*
X336323Y35410D01*
X337233Y36017D01*
X337840Y36927D01*
X338054Y38000D01*
X337840Y39073D01*
X337233Y39983D01*
X336323Y40590D01*
X335250Y40804D01*
X334177Y40590D01*
X333267Y39983D01*
X332211Y40202D01*
X332108Y40358D01*
X331198Y40965D01*
X330125Y41179D01*
D02*
G37*
%LPD*%
D10*
X447271Y98750D02*
G03*
X429310Y91311I0J-25400D01*
G01*
X410729Y83250D02*
G03*
X428689Y90689I0J25400D01*
G01*
X478439Y86560D02*
G03*
X460479Y94000I-17960J-17960D01*
G01*
X449271D02*
G03*
X431311Y86560I0J-25400D01*
G01*
X410036Y76500D02*
G03*
X429180Y84430I0J27074D01*
G01*
X503202Y61798D02*
G03*
X503512Y61670I310J313D01*
G01*
X503201Y61799D02*
G03*
X503202Y61798I312J312D01*
G01*
X410036Y76500D02*
G03*
X404000Y74000I0J-8536D01*
G01*
X399775Y72250D02*
G03*
X404000Y74000I0J5975D01*
G01*
X290000Y74500D02*
G03*
X292250Y72250I2250J0D01*
G01*
X383750Y79250D02*
G03*
X389298Y81548I0J7846D01*
G01*
X393407Y83250D02*
G03*
X389298Y81548I0J-5811D01*
G01*
X485500Y172500D02*
G03*
X480068Y174750I-5432J-5432D01*
G01*
X476235D02*
G03*
X471408Y169923I0J-4827D01*
G01*
X489540Y170117D02*
G03*
X492139Y169750I2600J9022D01*
G01*
X471408Y166846D02*
G03*
X476503Y161750I5096J0D01*
G01*
X498500Y125956D02*
G03*
X493408Y138250I-17386J0D01*
G01*
X486907Y91500D02*
G03*
X498500Y103093I0J11593D01*
G01*
X486782Y148500D02*
G03*
X489343Y142314I8751J0D01*
G01*
X486782Y151471D02*
G03*
X476503Y161750I-10279J0D01*
G01*
X489343Y142314D02*
G03*
X489345Y142312I6190J6186D01*
G01*
X477250Y95500D02*
G03*
X486907Y91500I9657J9657D01*
G01*
X477250Y95500D02*
G03*
X469404Y98750I-7846J-7846D01*
G01*
X370000Y82000D02*
G03*
X365775Y83750I-4225J-4225D01*
G01*
X370000Y82000D02*
G03*
X376639Y79250I6639J6639D01*
G01*
X310352Y83750D02*
G03*
X297375Y78375I0J-18352D01*
G01*
X485500Y172500D02*
G03*
X489540Y170117I6639J6639D01*
G01*
X232750Y215000D02*
X305750D01*
X229500Y211750D02*
X232750Y215000D01*
X219500Y211750D02*
X229500D01*
X234000Y213000D02*
X304500D01*
X225250Y204250D02*
X234000Y213000D01*
X215422Y204250D02*
X225250D01*
X290750Y97500D02*
X307000D01*
X282250Y89000D02*
X290750Y97500D01*
X220750Y89000D02*
X282250D01*
X198250Y75750D02*
X202500Y80000D01*
X321821Y99750D02*
X365571Y143500D01*
X309250Y99750D02*
X321821D01*
X307000Y97500D02*
X309250Y99750D01*
X414250Y207250D02*
X477828D01*
X478828Y206250D02*
X488250D01*
X477828Y207250D02*
X478828Y206250D01*
X478000Y204250D02*
X492250D01*
X477000Y205250D02*
X478000Y204250D01*
X312250Y205250D02*
X477000D01*
X488250Y206250D02*
X492000Y210000D01*
X400500Y207250D02*
X405500Y212250D01*
X313500Y207250D02*
X400500D01*
X305750Y215000D02*
X313500Y207250D01*
X311672Y203000D02*
X408750D01*
X294000Y201000D02*
X407750D01*
X304500Y213000D02*
X312250Y205250D01*
X303672Y211000D02*
X311672Y203000D01*
X291500Y203500D02*
X294000Y201000D01*
X207922Y196750D02*
X215422Y204250D01*
X217500Y213750D02*
X219500Y211750D01*
X209578Y192750D02*
X217078Y200250D01*
X208750Y194750D02*
X216250Y202250D01*
X266000Y211000D02*
X303672D01*
X257250Y202250D02*
X266000Y211000D01*
X409250Y212250D02*
X414250Y207250D01*
X405500Y212250D02*
X409250D01*
X492250Y204250D02*
X494875Y201625D01*
X131200Y213550D02*
X144250Y200500D01*
Y195250D02*
Y200500D01*
X119000Y213550D02*
X131200D01*
X217078Y200250D02*
X258078D01*
X190000Y192750D02*
X209578D01*
X216250Y202250D02*
X257250D01*
X171904Y196750D02*
X207922D01*
X179250Y194750D02*
X208750D01*
X428689Y90689D02*
X429310Y91311D01*
X393407Y83250D02*
X410729D01*
X449271Y94000D02*
X460479D01*
X429180Y84430D02*
X431311Y86560D01*
X484000Y81000D02*
X503201Y61799D01*
X503202Y61798D01*
X292250Y72250D02*
X399775D01*
X290000Y74500D02*
Y79000D01*
X261328Y203500D02*
X291500D01*
X258078Y200250D02*
X261328Y203500D01*
X173250Y188750D02*
X179250Y194750D01*
X168500Y188750D02*
X173250D01*
X494875Y201625D02*
X530625D01*
X168904Y193750D02*
X171904Y196750D01*
X155250Y193750D02*
X168904D01*
X150750Y198250D02*
X155250Y193750D01*
X476235Y174750D02*
X480068D01*
X492139Y169750D02*
X499208D01*
X498500Y103093D02*
Y125956D01*
X486782Y148500D02*
Y151471D01*
X489345Y142312D02*
X493408Y138250D01*
X489343Y142314D02*
X489345Y142312D01*
X471408Y166846D02*
Y169923D01*
X447271Y98750D02*
X469404D01*
X310352Y83750D02*
X365775D01*
X376639Y79250D02*
X383750D01*
X211750Y80000D02*
X220750Y89000D01*
X202500Y80000D02*
X211750D01*
X365571Y143500D02*
X371000D01*
X411250Y163250D02*
X414750Y166750D01*
X390750Y163250D02*
X411250D01*
X371000Y143500D02*
X390750Y163250D01*
X407750Y201000D02*
X414750Y194000D01*
Y166750D02*
Y194000D01*
X408750Y203000D02*
X412750Y199000D01*
X432750D01*
X165500Y191750D02*
X168500Y188750D01*
X115000Y191750D02*
X165500D01*
X388000Y148408D02*
Y151500D01*
X188500Y191250D02*
X190000Y192750D01*
X114999Y191749D02*
X115000Y191750D01*
X484000Y81000D02*
Y81000D01*
X478439Y86560D02*
X484000Y81000D01*
X499208Y169750D02*
X499458D01*
X406667Y120000D02*
Y129740D01*
X388000Y148408D02*
X406667Y129740D01*
D14*
X473500Y46000D02*
X487750D01*
X470454Y42954D02*
X473500Y46000D01*
X470454Y40546D02*
Y42954D01*
X510000Y52250D02*
X517753Y60002D01*
X494000Y52250D02*
X510000D01*
X487750Y46000D02*
X494000Y52250D01*
X492750Y104188D02*
Y118403D01*
X486862Y98300D02*
X492750Y104188D01*
X533289Y99750D02*
X548500D01*
X530250Y82750D02*
Y96711D01*
X533289Y99750D01*
X515750Y69750D02*
X517753Y67747D01*
Y60002D02*
Y67747D01*
X548500Y99750D02*
X558658Y109908D01*
X526750Y79250D02*
X530250Y82750D01*
X519250Y79250D02*
X526750D01*
X515750Y75750D02*
X519250Y79250D01*
X515750Y69750D02*
Y75750D01*
X558658Y109908D02*
Y143000D01*
X488623Y122530D02*
X492750Y118403D01*
X558658Y143000D02*
X560658Y145000D01*
X480202Y118280D02*
X484452Y122530D01*
X488623D01*
D18*
X246250Y122000D02*
X264500D01*
X234000Y109750D02*
X246250Y122000D01*
X273000Y130500D02*
Y131000D01*
X264500Y122000D02*
X273000Y130500D01*
D150*
X128400Y13500D02*
D03*
X141100D02*
D03*
X166500D02*
D03*
D153*
X356408Y64250D02*
X358408Y66250D01*
X354658Y64250D02*
X356408D01*
D154*
X111750Y138500D02*
Y151500D01*
X144750Y89375D02*
Y105500D01*
X130250Y74875D02*
X144750Y89375D01*
X111750Y138500D02*
X144750Y105500D01*
X130250Y70750D02*
Y74875D01*
X111750Y151500D02*
Y156250D01*
D157*
X317125Y111375D02*
X320000Y108500D01*
X297500Y131000D02*
X317125Y111375D01*
X242750Y161250D02*
X273000Y131000D01*
X297500D01*
D161*
X369250Y154000D02*
X386000Y170750D01*
X341408Y154000D02*
X369250D01*
X386000Y170750D02*
X407000D01*
D163*
X560737Y144920D02*
X565975D01*
D166*
X217500Y213750D02*
D03*
X492000Y210000D02*
D03*
X119000Y213550D02*
D03*
X144250Y195250D02*
D03*
X411667Y92500D02*
D03*
X197000Y23000D02*
D03*
X530625Y201625D02*
D03*
X666750Y196250D02*
D03*
X268250Y69750D02*
D03*
X229250Y112000D02*
D03*
X278000Y66000D02*
D03*
X255250Y72500D02*
D03*
X274250Y85250D02*
D03*
X158250Y215500D02*
D03*
X177500Y215250D02*
D03*
X150750Y198250D02*
D03*
X124250Y195750D02*
D03*
X17250Y197000D02*
D03*
X17250Y192750D02*
D03*
X17250Y188500D02*
D03*
X432750Y199000D02*
D03*
X188500Y191000D02*
D03*
X290000Y79000D02*
D03*
X293250Y75500D02*
D03*
X297375Y78375D02*
D03*
X74750Y92500D02*
D03*
X503512Y61670D02*
D03*
X499208Y169750D02*
D03*
X652908Y200500D02*
D03*
X714000Y51500D02*
D03*
X714500Y41000D02*
D03*
X698750Y67750D02*
D03*
X258000Y161500D02*
D03*
X242750Y161250D02*
D03*
X235250Y209500D02*
D03*
X-1500Y182499D02*
D03*
X690750Y42750D02*
D03*
X676000D02*
D03*
X649500Y26000D02*
D03*
X702000Y28500D02*
D03*
X-4750Y44000D02*
D03*
X-4000Y160501D02*
D03*
X223750Y216000D02*
D03*
X110125Y98750D02*
D03*
X110000Y204250D02*
D03*
X111750Y156250D02*
D03*
X21750Y174000D02*
D03*
X26250D02*
D03*
X30750D02*
D03*
X114999Y191749D02*
D03*
X111750Y151500D02*
D03*
X326000Y165250D02*
D03*
X317500Y159000D02*
D03*
X402500Y186500D02*
D03*
X410000Y178750D02*
D03*
X406250Y182500D02*
D03*
X20750Y97750D02*
D03*
X161600Y140000D02*
D03*
X83750Y79250D02*
D03*
X163250Y188000D02*
D03*
X369250Y6250D02*
D03*
X134750Y126000D02*
D03*
X234000Y109750D02*
D03*
X255500Y104250D02*
D03*
X190250Y23000D02*
D03*
X317125Y111375D02*
D03*
X320000Y108500D02*
D03*
X463750Y69500D02*
D03*
X198500Y75500D02*
D03*
X30750Y106750D02*
D03*
X7500Y198500D02*
D03*
X-1500Y202499D02*
D03*
X2750D02*
D03*
X250Y160501D02*
D03*
X-4000Y142499D02*
D03*
X250D02*
D03*
X-4000Y127501D02*
D03*
X250D02*
D03*
X-4000Y112499D02*
D03*
X250D02*
D03*
X-4000Y93000D02*
D03*
X-500Y82500D02*
D03*
X250Y65250D02*
D03*
X83000Y70500D02*
D03*
X99000Y73000D02*
D03*
X19250Y129500D02*
D03*
X25500Y140750D02*
D03*
X724175Y48000D02*
D03*
X754825Y15000D02*
D03*
X754825Y33000D02*
D03*
X754825Y39000D02*
D03*
Y57000D02*
D03*
X749750Y62250D02*
D03*
X739500Y80000D02*
D03*
X285250Y28250D02*
D03*
X522250Y213250D02*
D03*
X722587Y72738D02*
D03*
X754825Y163000D02*
D03*
X754825Y181000D02*
D03*
X754825Y187000D02*
D03*
Y205000D02*
D03*
X744750Y211750D02*
D03*
X730000Y207000D02*
D03*
X722750Y189250D02*
D03*
X738000Y174500D02*
D03*
X744500Y146750D02*
D03*
X230750Y19500D02*
D03*
X509250Y7250D02*
D03*
X289200Y207750D02*
D03*
X304500Y205500D02*
D03*
X309750Y104750D02*
D03*
X427750Y52250D02*
D03*
X432250D02*
D03*
X350000Y3250D02*
D03*
X398500Y5750D02*
D03*
X258250Y22000D02*
D03*
X254500Y37250D02*
D03*
X180250Y111750D02*
D03*
X143750Y142500D02*
D03*
X113500Y124500D02*
D03*
X134500Y142750D02*
D03*
X665000Y97500D02*
D03*
X405250Y169000D02*
D03*
X409500Y170000D02*
D03*
X406250Y173250D02*
D03*
X422750Y187250D02*
D03*
X432000Y194500D02*
D03*
X295500Y107000D02*
D03*
X283250Y100750D02*
D03*
X281000Y92750D02*
D03*
X197050Y83500D02*
D03*
X130875Y70000D02*
D03*
X313750Y28250D02*
D03*
X683250Y42750D02*
D03*
X665000Y47000D02*
D03*
X625158Y85250D02*
D03*
X644158Y76500D02*
D03*
X650908Y91500D02*
D03*
X638658Y94500D02*
D03*
Y101500D02*
D03*
X635158Y98000D02*
D03*
X710000Y24250D02*
D03*
Y14750D02*
D03*
X289296Y12000D02*
D03*
X637565Y200250D02*
D03*
X296635Y146250D02*
D03*
X527250Y183250D02*
D03*
X535250Y201250D02*
D03*
X431750Y19500D02*
D03*
X460250Y19750D02*
D03*
X439000Y19500D02*
D03*
X449750Y19750D02*
D03*
X403250Y26500D02*
D03*
X623658Y19250D02*
D03*
X550908Y17000D02*
D03*
X319000Y75500D02*
D03*
X319250Y92250D02*
D03*
X202563Y189119D02*
D03*
X540658Y184500D02*
D03*
X667908Y167250D02*
D03*
X701250Y121500D02*
D03*
X388000Y151500D02*
D03*
X406667Y120000D02*
D03*
Y110000D02*
D03*
X356667Y80000D02*
D03*
X564408Y34250D02*
D03*
X470454Y40546D02*
D03*
X430000Y69250D02*
D03*
X411667Y87000D02*
D03*
X581158Y31750D02*
D03*
X593408Y137250D02*
D03*
X451250Y193250D02*
D03*
X160000Y185000D02*
D03*
X350158Y154500D02*
D03*
X361000Y163500D02*
D03*
X345908Y154500D02*
D03*
X341408D02*
D03*
X371500Y170250D02*
D03*
X643158Y195750D02*
D03*
X565158Y5250D02*
D03*
X628250Y200250D02*
D03*
X613408Y183250D02*
D03*
X410250Y156250D02*
D03*
X172750Y124600D02*
D03*
X437658Y82500D02*
D03*
X129450Y92750D02*
D03*
X358408Y66250D02*
D03*
X354658Y64250D02*
D03*
X425158Y134000D02*
D03*
X390658Y158225D02*
D03*
X440658Y103250D02*
D03*
X396667Y80000D02*
D03*
X391667Y90000D02*
D03*
X87250Y51500D02*
D03*
X209500Y106750D02*
D03*
X193000Y86000D02*
D03*
X401667Y100000D02*
D03*
Y120000D02*
D03*
X376667Y95000D02*
D03*
X342158Y137500D02*
D03*
X381667Y110000D02*
D03*
X366667Y80000D02*
D03*
X386667Y115000D02*
D03*
X366667Y140000D02*
D03*
X337408Y126750D02*
D03*
X351667Y135000D02*
D03*
X346667Y80250D02*
D03*
X371667Y85000D02*
D03*
X351667Y115000D02*
D03*
X371667Y125000D02*
D03*
X356667Y100000D02*
D03*
X196500Y124500D02*
D03*
X452908Y90750D02*
D03*
X605908Y84000D02*
D03*
X582750Y186000D02*
D03*
X474658Y169500D02*
D03*
X618000Y72750D02*
D03*
X607830Y50000D02*
D03*
X684158Y153250D02*
D03*
X602408Y109000D02*
D03*
X679658Y53000D02*
D03*
X638908Y31500D02*
D03*
X645908Y185000D02*
D03*
X634658Y173250D02*
D03*
X581408Y175000D02*
D03*
X609158Y7250D02*
D03*
X678158Y117250D02*
D03*
X667408Y112250D02*
D03*
X621658Y107750D02*
D03*
X665158Y53000D02*
D03*
X571658Y46250D02*
D03*
X546658Y51250D02*
D03*
X543473Y68330D02*
D03*
X628658Y135000D02*
D03*
X648658Y162000D02*
D03*
X454500Y39000D02*
D03*
X454250Y44250D02*
D03*
X412000Y33750D02*
D03*
X480202Y118280D02*
D03*
X492408Y163750D02*
D03*
X502408Y166250D02*
D03*
X608908Y135500D02*
D03*
X538658Y40500D02*
D03*
X510158Y41750D02*
D03*
X500408Y38750D02*
D03*
X488408Y41250D02*
D03*
X475750D02*
D03*
X579908Y78250D02*
D03*
X533658Y143250D02*
D03*
X583529Y129079D02*
D03*
X561158Y16250D02*
D03*
X696908Y151500D02*
D03*
X658908Y145750D02*
D03*
X674908Y62500D02*
D03*
X665083Y80500D02*
D03*
X645658Y126500D02*
D03*
X650408Y139500D02*
D03*
X629408Y19250D02*
D03*
X660658Y174750D02*
D03*
X634908Y27250D02*
D03*
X649158Y60750D02*
D03*
X638908Y47000D02*
D03*
X576773Y141590D02*
D03*
X523493Y161571D02*
D03*
X480202Y144921D02*
D03*
X467408Y144869D02*
D03*
X560123Y158241D02*
D03*
X500182Y151581D02*
D03*
X516833Y154911D02*
D03*
X563453Y148251D02*
D03*
X566783Y144920D02*
D03*
X540143Y65000D02*
D03*
X486862Y104960D02*
D03*
X483532Y108290D02*
D03*
X486862Y98300D02*
D03*
X476872Y81650D02*
D03*
X520163Y71660D02*
D03*
X506842Y65000D02*
D03*
X500182Y58340D02*
D03*
X573443Y131600D02*
D03*
Y124940D02*
D03*
X48750Y187250D02*
D03*
X59250Y199250D02*
D03*
Y175250D02*
D03*
Y193500D02*
D03*
Y181000D02*
D03*
X24000Y206000D02*
D03*
X28750D02*
D03*
X90750Y205500D02*
D03*
X86750D02*
D03*
X36000Y62000D02*
D03*
X31250D02*
D03*
X35250Y5000D02*
D03*
X18750Y8250D02*
D03*
X89250Y14000D02*
D03*
X94000D02*
D03*
X92000Y51500D02*
D03*
X58250Y39000D02*
D03*
X58250Y26500D02*
D03*
X58250Y44750D02*
D03*
Y20750D02*
D03*
X68750Y32750D02*
D03*
D167*
X230750Y69500D02*
D03*
X241750D02*
D03*
X230750Y80500D02*
D03*
X241750D02*
D03*
X159750Y90750D02*
D03*
Y101750D02*
D03*
X170750Y90750D02*
D03*
Y101750D02*
D03*
X544803Y134900D02*
D03*
Y84900D02*
D03*
X504803D02*
D03*
Y134900D02*
D03*
D168*
X52000Y104500D02*
D03*
Y115500D02*
D03*
X63000Y104500D02*
D03*
X524803Y95000D02*
D03*
Y85000D02*
D03*
Y115000D02*
D03*
Y105000D02*
D03*
Y125000D02*
D03*
Y135000D02*
D03*
X534803Y134900D02*
D03*
Y124900D02*
D03*
Y104900D02*
D03*
Y114900D02*
D03*
Y84900D02*
D03*
Y94900D02*
D03*
X544803Y124900D02*
D03*
Y104900D02*
D03*
Y114900D02*
D03*
Y94900D02*
D03*
X504803D02*
D03*
Y114900D02*
D03*
Y104900D02*
D03*
Y124900D02*
D03*
X514803Y94900D02*
D03*
Y84900D02*
D03*
Y114900D02*
D03*
Y104900D02*
D03*
Y124900D02*
D03*
Y134900D02*
D03*
M02*
