M48
;Layer_Color=9474304
;FILE_FORMAT=4:4
METRIC,LZ
;TYPE=PLATED
T1F00S00C0.2000
;TYPE=NON_PLATED
%
T01
X00665408Y0010325
X00665533Y0010775
X00638058Y001485
X00642908Y001725
X0074475Y00175
X007495Y00175
Y0016425
X0074475Y0016425
Y00193
X007495Y00193
Y0020625
X0074475Y0020625
X00576773Y0012161
X00573443Y0011828
X00570113Y0011495
X00563453
X00563533Y0012153
X00576773Y0010829
Y0009497
Y0008831
X00573443Y0009164
X00566783
X00563453Y0009497
X00522408Y0005075
X00450908Y000575
X00445908Y000576
X00442408Y00054
X00449158Y0004425
Y0003895
X00406908Y0003555
Y0003025
X00393933Y00043325
X00386883
X00377683Y00043325
X00370633
X00360658Y0005275
Y000575
X00326508Y000725
Y00077
X00327002Y00092
X00326952Y0009655
X00309Y001115
X0031075Y0011575
X003055
X002825Y001155
X00201Y00102
X00198239Y000915
X0019625Y0006775
X0021175Y0007375
X0022025Y00159
X002165Y0016325
X0021625Y001935
X0022075Y001945
X00224125Y00204375
X00228Y002085
X002245Y00215
X0027575Y0020825
X00315125Y00196375
X0031175Y001895
X00403Y002045
X0041925Y0019825
X00424925Y0020925
X00437575
X00493522Y00158241
X00496852Y00154911
X00506842Y00158241
X00449158Y00094
X00444658
X00446408Y0008275
X00450408Y0008575
X00421658Y0011
X00401667Y00135
X00396667
X00391667
X00386667
X0018875Y001005
X0018375Y0007675
X0014825Y00048
X0011025Y0006125
X0010275Y0004175
X0010375Y000355
X0009725Y0007775
X0009325Y000815
X0008825Y000815
X00093Y000985
X0009825Y00106
X0005775Y0011525
X00033625Y0011125
X00020642Y00118858
X00009366Y00121584
X00007Y0013175
X-0000225Y001325
X0001125Y0010275
X00047Y0003675
X0004375Y0003225
X000805Y0006125
X00080375Y00066
X0006975Y0018325
X0005925Y0018725
X001085Y00176
X001155Y0017875
X00121Y0019525
X001212Y001543
X0013625Y0016025
X001685Y0018025
M30
