G04*
G04 #@! TF.GenerationSoftware,Altium Limited,Altium Designer,19.1.6 (110)*
G04*
G04 Layer_Physical_Order=3*
G04 Layer_Color=16440176*
%FSLAX44Y44*%
%MOMM*%
G71*
G01*
G75*
%ADD13C,0.3000*%
%ADD14C,0.1000*%
%ADD143C,1.0000*%
%ADD146C,0.5000*%
%ADD149C,1.0000*%
%ADD150C,0.4000*%
%ADD153C,0.1100*%
%ADD156C,0.3500*%
%ADD157C,0.4000*%
%ADD158C,0.5000*%
G36*
X63737Y217962D02*
X63862Y216692D01*
X63134Y216547D01*
X61977Y215773D01*
X60522Y214319D01*
X56500D01*
X55134Y214047D01*
X53977Y213273D01*
X53203Y212116D01*
X52931Y210750D01*
X53203Y209384D01*
X53977Y208227D01*
X55134Y207453D01*
X56500Y207181D01*
X62000D01*
X63366Y207453D01*
X64523Y208227D01*
X65978Y209681D01*
X102655D01*
X103528Y208411D01*
X103446Y208000D01*
X103660Y206927D01*
X104267Y206017D01*
X104525Y205845D01*
X104030Y204649D01*
X103822Y204690D01*
X103250Y204804D01*
X102177Y204590D01*
X101267Y203983D01*
X100660Y203073D01*
X100446Y202000D01*
X99212Y201697D01*
X98677Y201590D01*
X97767Y200983D01*
X97160Y200073D01*
X96946Y199000D01*
X97160Y197927D01*
X97309Y197704D01*
X97667Y196750D01*
X97309Y195796D01*
X97160Y195573D01*
X96946Y194500D01*
X97160Y193427D01*
X97767Y192517D01*
X98677Y191910D01*
X99750Y191696D01*
X100823Y191910D01*
X101733Y192517D01*
X102340Y193427D01*
X102554Y194500D01*
X102340Y195573D01*
X101733Y196483D01*
Y197017D01*
X102340Y197927D01*
X102554Y199000D01*
X103788Y199303D01*
X104323Y199410D01*
X105233Y200017D01*
X105840Y200927D01*
X106054Y202000D01*
X105840Y203073D01*
X105233Y203983D01*
X104975Y204155D01*
X105470Y205351D01*
X105678Y205310D01*
X106250Y205196D01*
X107323Y205410D01*
X108233Y206017D01*
X108840Y206927D01*
X108947Y207461D01*
X110262Y207941D01*
X113031Y205172D01*
Y202879D01*
X113113Y202470D01*
X111970Y201707D01*
X111770Y201840D01*
X110697Y202054D01*
X109624Y201840D01*
X108714Y201233D01*
X108106Y200323D01*
X107893Y199250D01*
X108106Y198177D01*
X108714Y197267D01*
X109624Y196660D01*
X110697Y196446D01*
X111770Y196660D01*
X112679Y197267D01*
X113287Y198177D01*
X113482Y199155D01*
X113850Y199391D01*
X114699Y199733D01*
X119056Y195377D01*
X120214Y194603D01*
X121579Y194331D01*
X132723D01*
X133410Y193073D01*
X133196Y192000D01*
X133410Y190927D01*
X134017Y190017D01*
X134927Y189410D01*
X136000Y189196D01*
X137073Y189410D01*
X137983Y190017D01*
X137986Y190023D01*
X139514D01*
X139517Y190017D01*
X140427Y189410D01*
X141500Y189196D01*
X142573Y189410D01*
X143483Y190017D01*
X144090Y190927D01*
X144304Y192000D01*
X144090Y193073D01*
X144777Y194331D01*
X168473D01*
X169160Y193073D01*
X168946Y192000D01*
X169160Y190927D01*
X169767Y190017D01*
X170677Y189410D01*
X171750Y189196D01*
X172823Y189410D01*
X173733Y190017D01*
X174340Y190927D01*
X174554Y192000D01*
X174340Y193073D01*
X175027Y194331D01*
X179673D01*
X179678Y194327D01*
X180236Y193061D01*
X179909Y192573D01*
X179696Y191500D01*
X179909Y190427D01*
X180517Y189517D01*
X181427Y188909D01*
X182500Y188696D01*
X183573Y188909D01*
X184482Y189517D01*
X185090Y190427D01*
X185304Y191500D01*
X185090Y192573D01*
X184999Y192710D01*
X185581Y193927D01*
X186243Y193954D01*
X187030Y192922D01*
X186946Y192500D01*
X187160Y191427D01*
X187767Y190517D01*
X188677Y189910D01*
X189750Y189696D01*
X190823Y189910D01*
X191391Y190289D01*
X191598Y190354D01*
X191732Y190466D01*
X191840Y190547D01*
X191940Y190613D01*
X192033Y190667D01*
X192118Y190709D01*
X192194Y190740D01*
X192211Y190745D01*
X193697D01*
X194541Y189475D01*
X194446Y189000D01*
X194660Y187927D01*
X195267Y187017D01*
X196177Y186410D01*
X197250Y186196D01*
X198323Y186410D01*
X199233Y187017D01*
X199840Y187927D01*
X200054Y189000D01*
X199959Y189475D01*
X200802Y190745D01*
X206959D01*
X208352Y189352D01*
X209500Y188876D01*
X213250D01*
X214398Y189352D01*
X224422Y199376D01*
X230646D01*
X231794Y199852D01*
X233069Y201126D01*
X271559D01*
X272275Y199856D01*
X271957Y199332D01*
X265565D01*
X265414Y199270D01*
X265251Y199286D01*
X265045Y199117D01*
X264800Y199015D01*
X264737Y198864D01*
X264611Y198760D01*
X264487Y198528D01*
X264447Y198123D01*
X264443Y198086D01*
X263773Y197695D01*
X263351Y197506D01*
X263194Y197474D01*
X263133Y197486D01*
X262954Y197606D01*
X262743Y197564D01*
X262532Y197606D01*
X262250Y197550D01*
X261599Y197679D01*
X261048Y198048D01*
X260560Y198778D01*
X260489Y198825D01*
X260410Y199015D01*
X260308Y199058D01*
X260246Y199150D01*
X259937Y199212D01*
X259645Y199332D01*
X250825D01*
X250773Y199311D01*
X250719Y199327D01*
X250397Y199155D01*
X250059Y199015D01*
X248864Y199229D01*
X248323Y199590D01*
X247250Y199804D01*
X246177Y199590D01*
X245636Y199229D01*
X244440Y199015D01*
X244103Y199155D01*
X243781Y199327D01*
X243727Y199311D01*
X243675Y199332D01*
X234250D01*
X234250Y199332D01*
X233485Y199015D01*
X230705Y196236D01*
X230233Y196283D01*
X229323Y196890D01*
X228250Y197104D01*
X227177Y196890D01*
X226267Y196283D01*
X225660Y195373D01*
X225446Y194300D01*
X225660Y193227D01*
X226267Y192317D01*
X226314Y191845D01*
X215552Y181082D01*
X177625D01*
X177391Y180986D01*
X177139Y180967D01*
X177023Y180833D01*
X176911Y180787D01*
X176710Y180765D01*
X175790D01*
X175589Y180787D01*
X175477Y180833D01*
X175361Y180967D01*
X175109Y180986D01*
X174875Y181082D01*
X152198D01*
X148525Y184756D01*
X148943Y186134D01*
X149073Y186160D01*
X149983Y186767D01*
X150590Y187677D01*
X150804Y188750D01*
X150590Y189823D01*
X149983Y190733D01*
X149073Y191340D01*
X148000Y191554D01*
X146927Y191340D01*
X146017Y190733D01*
X145409Y189823D01*
X145247Y189006D01*
X145192Y188747D01*
X144084Y187832D01*
X126102D01*
X125554Y188500D01*
X125340Y189573D01*
X124733Y190483D01*
X123823Y191090D01*
X122750Y191304D01*
X121677Y191090D01*
X120767Y190483D01*
X120160Y189573D01*
X119946Y188500D01*
X120128Y187585D01*
X118928Y187216D01*
X118772Y187416D01*
X118711Y187450D01*
X118684Y187515D01*
X118358Y187650D01*
X118052Y187824D01*
X117984Y187805D01*
X117919Y187832D01*
X115913D01*
X115788Y189102D01*
X116072Y189159D01*
X116982Y189767D01*
X117590Y190676D01*
X117803Y191749D01*
X117590Y192822D01*
X116982Y193732D01*
X116072Y194340D01*
X114999Y194553D01*
X113926Y194340D01*
X113017Y193732D01*
X112409Y192822D01*
X112195Y191749D01*
X112409Y190676D01*
X113017Y189767D01*
X113926Y189159D01*
X114210Y189102D01*
X114085Y187832D01*
X110219D01*
X109541Y189102D01*
X109590Y189177D01*
X109804Y190250D01*
X109590Y191323D01*
X108982Y192233D01*
X108073Y192840D01*
X107000Y193054D01*
X105927Y192840D01*
X105017Y192233D01*
X104410Y191323D01*
X104196Y190250D01*
X104410Y189177D01*
X104459Y189102D01*
X103780Y187832D01*
X83000Y187832D01*
X83000Y187833D01*
X82235Y187515D01*
X82234Y187515D01*
X67287Y172567D01*
X66891Y172626D01*
X65991Y173067D01*
X65840Y173823D01*
X65233Y174733D01*
X64766Y175044D01*
X64758Y175065D01*
Y176435D01*
X64766Y176456D01*
X65233Y176767D01*
X65840Y177677D01*
X66054Y178750D01*
X65840Y179823D01*
X65691Y180046D01*
X65333Y181000D01*
X65691Y181954D01*
X65840Y182177D01*
X66054Y183250D01*
X65840Y184323D01*
X65233Y185233D01*
X64323Y185840D01*
X63250Y186054D01*
X62177Y185840D01*
X61267Y185233D01*
X60659Y184323D01*
X60446Y183250D01*
X60659Y182177D01*
X60809Y181954D01*
X61167Y181000D01*
X60809Y180046D01*
X60659Y179823D01*
X60446Y178750D01*
X60659Y177677D01*
X61267Y176767D01*
X61734Y176456D01*
X61742Y176435D01*
Y175065D01*
X61734Y175044D01*
X61267Y174733D01*
X60659Y173823D01*
X60446Y172750D01*
X60086Y172354D01*
X58414D01*
X58054Y172750D01*
X57840Y173823D01*
X57233Y174733D01*
X56766Y175044D01*
X56758Y175065D01*
Y176435D01*
X56766Y176456D01*
X57233Y176767D01*
X57840Y177677D01*
X58054Y178750D01*
X57840Y179823D01*
X57233Y180733D01*
Y181267D01*
X57840Y182177D01*
X58054Y183250D01*
X57840Y184323D01*
X57233Y185233D01*
X56323Y185840D01*
X55250Y186054D01*
X54177Y185840D01*
X53267Y185233D01*
X52660Y184323D01*
X52446Y183250D01*
X52660Y182177D01*
X53267Y181267D01*
Y180733D01*
X52660Y179823D01*
X52446Y178750D01*
X52660Y177677D01*
X53267Y176767D01*
X53734Y176456D01*
X53742Y176435D01*
Y175065D01*
X53734Y175044D01*
X53267Y174733D01*
X53198Y174629D01*
X51587Y174444D01*
X41515Y184515D01*
X40750Y184832D01*
X37159D01*
X36633Y186102D01*
X37765Y187235D01*
X38082Y188000D01*
Y201250D01*
X38082Y201250D01*
X37765Y202015D01*
X34515Y205265D01*
X33750Y205582D01*
X31055D01*
X30953Y205540D01*
X30844Y205562D01*
X30582Y205386D01*
X30290Y205265D01*
X30247Y205163D01*
X30155Y205101D01*
X29952Y204798D01*
X29401Y204429D01*
X28750Y204300D01*
X28100Y204429D01*
X27369Y204917D01*
X27059Y204979D01*
X26767Y205100D01*
X25983D01*
X25691Y204979D01*
X25381Y204917D01*
X24651Y204429D01*
X24000Y204300D01*
X23349Y204429D01*
X22798Y204798D01*
X22595Y205101D01*
X22503Y205163D01*
X22460Y205265D01*
X22169Y205386D01*
X21906Y205562D01*
X21797Y205540D01*
X21695Y205582D01*
X6750D01*
X5985Y205265D01*
X4655Y203936D01*
X4613Y203833D01*
X4520Y203772D01*
X4459Y203462D01*
X4338Y203170D01*
X4380Y203068D01*
X4359Y202959D01*
X4450Y202499D01*
X4321Y201849D01*
X3952Y201297D01*
X3222Y200809D01*
X3175Y200738D01*
X2985Y200660D01*
X2942Y200557D01*
X2850Y200495D01*
X2788Y200186D01*
X2668Y199894D01*
Y196004D01*
X2598Y195875D01*
X2427Y195840D01*
X1858Y195460D01*
X1000Y195318D01*
X142Y195460D01*
X-427Y195840D01*
X-1500Y196054D01*
X-2573Y195840D01*
X-3483Y195233D01*
X-4090Y194323D01*
X-4304Y193250D01*
X-4090Y192177D01*
X-3483Y191267D01*
X-2573Y190660D01*
X-1804Y189250D01*
X-1590Y188177D01*
X-983Y187267D01*
X-73Y186660D01*
X1000Y186446D01*
X1398Y186525D01*
X2668Y185646D01*
Y177948D01*
X1494Y177462D01*
X1275Y177681D01*
X614Y178123D01*
X-1549Y179018D01*
X-1843Y179077D01*
X-2130Y179164D01*
X-3300Y179279D01*
X-3401Y179269D01*
X-3500Y179289D01*
X-30461Y179289D01*
Y207211D01*
X2500Y207211D01*
X2599Y207231D01*
X2700Y207221D01*
X3675Y207317D01*
X3962Y207404D01*
X4256Y207462D01*
X6058Y208209D01*
X6720Y208651D01*
X8099Y210030D01*
X8099Y210030D01*
X8541Y210692D01*
X9288Y212494D01*
X9346Y212788D01*
X9433Y213075D01*
X9529Y214050D01*
X9519Y214151D01*
X9539Y214250D01*
Y217962D01*
X63737Y217962D01*
D02*
G37*
G36*
X37000Y201250D02*
Y188000D01*
X35000Y186000D01*
X22500D01*
X17500Y181000D01*
Y173655D01*
X17177Y173590D01*
X16267Y172983D01*
X15660Y172073D01*
X15446Y171000D01*
X15660Y169927D01*
X16267Y169017D01*
X17177Y168410D01*
X17500Y168345D01*
Y167250D01*
X20000Y164750D01*
X34719Y164750D01*
X57485Y141985D01*
X57537Y141963D01*
X60750Y138750D01*
X95500D01*
X111084Y123166D01*
X111517Y122517D01*
X112166Y122084D01*
X125000Y109250D01*
Y72250D01*
X127500Y69750D01*
X131857D01*
X132491Y68977D01*
X132446Y68750D01*
X132660Y67677D01*
X133267Y66767D01*
X134177Y66160D01*
X135250Y65946D01*
X136323Y66160D01*
X137233Y66767D01*
X137840Y67677D01*
X138054Y68750D01*
X138009Y68977D01*
X138643Y69750D01*
X355818D01*
X356353Y68750D01*
X356067Y68323D01*
X356042Y68197D01*
X355408Y67304D01*
X354335Y67090D01*
X353425Y66483D01*
X352817Y65573D01*
X352699Y64979D01*
X351687Y64474D01*
X351656Y64473D01*
X351481Y64590D01*
X350408Y64804D01*
X349335Y64590D01*
X348425Y63983D01*
X347817Y63073D01*
X347604Y62000D01*
X347817Y60927D01*
X348425Y60017D01*
X349335Y59409D01*
X350408Y59196D01*
X351481Y59409D01*
X352390Y60017D01*
X352998Y60927D01*
X353116Y61521D01*
X354128Y62026D01*
X354159Y62027D01*
X354335Y61910D01*
X355408Y61696D01*
X356481Y61910D01*
X357390Y62517D01*
X357998Y63427D01*
X358034Y63608D01*
X358658Y64446D01*
X359731Y64660D01*
X360640Y65267D01*
X361248Y66177D01*
X361462Y67250D01*
X361248Y68323D01*
X360963Y68750D01*
X361497Y69750D01*
X369240D01*
X369543Y68750D01*
X369517Y68733D01*
X368910Y67823D01*
X368696Y66750D01*
X368910Y65677D01*
X369517Y64767D01*
X370427Y64160D01*
X371500Y63946D01*
X372573Y64160D01*
X373483Y64767D01*
X374090Y65677D01*
X374304Y66750D01*
X374090Y67823D01*
X373483Y68733D01*
X373457Y68750D01*
X373760Y69750D01*
X422750D01*
X435250Y57250D01*
Y40500D01*
X426250Y31500D01*
X415007D01*
X414472Y32500D01*
X414590Y32677D01*
X414804Y33750D01*
X414590Y34823D01*
X413983Y35733D01*
X413073Y36340D01*
X412000Y36554D01*
X410927Y36340D01*
X410017Y35733D01*
X409410Y34823D01*
X409196Y33750D01*
X409410Y32677D01*
X409528Y32500D01*
X408993Y31500D01*
X258215D01*
X257680Y32500D01*
X257965Y32927D01*
X258179Y34000D01*
X257965Y35073D01*
X257358Y35983D01*
X256448Y36590D01*
X255375Y36804D01*
X254302Y36590D01*
X253392Y35983D01*
X252785Y35073D01*
X252571Y34000D01*
X252785Y32927D01*
X253070Y32500D01*
X252535Y31500D01*
X232000D01*
X230337Y33163D01*
X230354Y33250D01*
X230140Y34323D01*
X229533Y35233D01*
X228623Y35840D01*
X227550Y36054D01*
X227463Y36037D01*
X224750Y38750D01*
X221582D01*
X221073Y39090D01*
X220000Y39304D01*
X218927Y39090D01*
X218417Y38750D01*
X123000D01*
X99500Y62250D01*
Y64857D01*
X100273Y65491D01*
X100500Y65446D01*
X101573Y65660D01*
X102483Y66267D01*
X103090Y67177D01*
X103304Y68250D01*
X103090Y69323D01*
X102483Y70233D01*
X101573Y70840D01*
X100500Y71054D01*
X100454Y71045D01*
X99840Y71927D01*
X100054Y73000D01*
X99840Y74073D01*
X99500Y74583D01*
Y76167D01*
X99840Y76677D01*
X100054Y77750D01*
X99840Y78823D01*
X99500Y79332D01*
Y81167D01*
X99840Y81677D01*
X100054Y82750D01*
X99840Y83823D01*
X99500Y84332D01*
Y86750D01*
X96250Y90000D01*
X77500D01*
X65163Y102337D01*
X65826Y103329D01*
X66059Y104500D01*
X65826Y105670D01*
X65163Y106663D01*
X64171Y107326D01*
X63000Y107559D01*
X61830Y107326D01*
X60837Y106663D01*
X54163Y113337D01*
X54826Y114330D01*
X55059Y115500D01*
X54826Y116671D01*
X54163Y117663D01*
X53171Y118326D01*
X52000Y118559D01*
X50830Y118326D01*
X49837Y117663D01*
X49171Y118329D01*
X35684Y131816D01*
X35684Y138466D01*
X35684Y138466D01*
X36292Y139376D01*
X36505Y140449D01*
X36292Y141522D01*
X35684Y142431D01*
X34774Y143039D01*
X33701Y143252D01*
X33323Y143177D01*
X32250Y144250D01*
X17000D01*
X3750Y157500D01*
Y168047D01*
X4269Y169299D01*
X4424Y170079D01*
Y172421D01*
X4269Y173201D01*
X3750Y174453D01*
Y188979D01*
X3804Y189250D01*
X3750Y189521D01*
Y190496D01*
X4573Y190660D01*
X5483Y191267D01*
X6090Y192177D01*
X6304Y193250D01*
X6090Y194323D01*
X5483Y195233D01*
X4573Y195840D01*
X3750Y196004D01*
Y199894D01*
X3823Y199909D01*
X4733Y200516D01*
X5340Y201426D01*
X5554Y202499D01*
X5420Y203170D01*
X6750Y204500D01*
X21695D01*
X22018Y204017D01*
X22927Y203410D01*
X24000Y203196D01*
X25073Y203410D01*
X25983Y204017D01*
X26767D01*
X27677Y203410D01*
X28750Y203196D01*
X29823Y203410D01*
X30733Y204017D01*
X31055Y204500D01*
X33750D01*
X37000Y201250D01*
D02*
G37*
G36*
X213950Y201400D02*
X213664Y201383D01*
X213367Y201327D01*
X213059Y201231D01*
X212739Y201095D01*
X212408Y200919D01*
X212066Y200704D01*
X211713Y200450D01*
X211348Y200156D01*
X210585Y199449D01*
X207049Y202985D01*
X207422Y203372D01*
X208050Y204113D01*
X208304Y204466D01*
X208519Y204809D01*
X208695Y205139D01*
X208830Y205459D01*
X208927Y205767D01*
X208983Y206064D01*
X209000Y206350D01*
X213950Y201400D01*
D02*
G37*
G36*
X412750Y192500D02*
Y178250D01*
X411250Y176750D01*
X407591D01*
X407000Y176868D01*
X386000D01*
X385409Y176750D01*
X372750D01*
X362083Y166083D01*
X362073Y166090D01*
X361000Y166304D01*
X359927Y166090D01*
X359017Y165483D01*
X358410Y164573D01*
X358296Y164000D01*
X355157D01*
X354853Y165000D01*
X355190Y165225D01*
X355798Y166135D01*
X356012Y167208D01*
X355798Y168281D01*
X355190Y169190D01*
X354281Y169798D01*
X353208Y170012D01*
X352135Y169798D01*
X351225Y169190D01*
X350617Y168281D01*
X350404Y167208D01*
X350617Y166135D01*
X351225Y165225D01*
X351562Y165000D01*
X351259Y164000D01*
X329655D01*
X329590Y164323D01*
X328983Y165233D01*
X328073Y165840D01*
X327000Y166054D01*
X325927Y165840D01*
X325018Y165233D01*
X324410Y164323D01*
X324345Y164000D01*
X282840D01*
X282305Y165000D01*
X282591Y165427D01*
X282804Y166500D01*
X282591Y167573D01*
X281983Y168483D01*
X281073Y169090D01*
X280000Y169304D01*
X278927Y169090D01*
X278377Y168723D01*
X277295Y169057D01*
X277290Y169060D01*
X276683Y169970D01*
X275773Y170578D01*
X274700Y170791D01*
X273627Y170578D01*
X272717Y169970D01*
X272110Y169060D01*
X271896Y167987D01*
X272110Y166915D01*
X272717Y166005D01*
X273627Y165397D01*
X274700Y165184D01*
X275773Y165397D01*
X276015Y165558D01*
X277089Y165248D01*
X277213Y164978D01*
X276616Y164000D01*
X269559D01*
X269100Y164091D01*
X268641Y164000D01*
X259208D01*
X259073Y164090D01*
X258000Y164304D01*
X256927Y164090D01*
X256792Y164000D01*
X254208D01*
X254073Y164090D01*
X253000Y164304D01*
X251927Y164090D01*
X251792Y164000D01*
X244034D01*
X243920Y164076D01*
X242750Y164309D01*
X241579Y164076D01*
X240587Y163413D01*
X239924Y162421D01*
X239739Y161489D01*
X221000Y142750D01*
X168754D01*
X168590Y143573D01*
X167983Y144483D01*
X167073Y145090D01*
X166000Y145304D01*
X164927Y145090D01*
X164017Y144483D01*
X163410Y143573D01*
X163246Y142750D01*
X161871D01*
X161600Y142804D01*
X161329Y142750D01*
X146504D01*
X146340Y143573D01*
X145733Y144483D01*
X144823Y145090D01*
X143750Y145304D01*
X142677Y145090D01*
X141767Y144483D01*
X141160Y143573D01*
X140996Y142750D01*
X137304D01*
X137304Y142750D01*
X137090Y143823D01*
X136483Y144733D01*
X135573Y145340D01*
X134500Y145554D01*
X133427Y145340D01*
X133117Y145133D01*
X116750Y161500D01*
X108000D01*
X89250Y142750D01*
X58250Y142750D01*
X33000Y168000D01*
X29054D01*
X28840Y169073D01*
X28233Y169983D01*
X27323Y170590D01*
X26250Y170804D01*
X25177Y170590D01*
X24267Y169983D01*
X23733D01*
X22823Y170590D01*
X22024Y170749D01*
X21054Y171000D01*
X20840Y172073D01*
X20233Y172983D01*
X19323Y173590D01*
X19250Y173605D01*
X19250Y180000D01*
X23000Y183750D01*
X40750Y183750D01*
X52619Y171881D01*
X52660Y171677D01*
X53267Y170767D01*
X54177Y170160D01*
X55250Y169946D01*
X56323Y170160D01*
X56832Y170500D01*
X61668Y170500D01*
X62177Y170160D01*
X63250Y169946D01*
X64323Y170160D01*
X64832Y170500D01*
X66750D01*
X83000Y186750D01*
X117919Y186750D01*
X118074Y186551D01*
X118362Y185750D01*
X117910Y185073D01*
X117696Y184000D01*
X117910Y182927D01*
X118517Y182017D01*
X119427Y181410D01*
X120500Y181196D01*
X121573Y181410D01*
X122483Y182017D01*
X123090Y182927D01*
X123304Y184000D01*
X123139Y184831D01*
X123090Y185073D01*
X123745Y185894D01*
X123823Y185910D01*
X124733Y186517D01*
X124888Y186750D01*
X145000D01*
X151750Y180000D01*
X174875D01*
X175027Y179543D01*
X175042Y179000D01*
X174267Y178483D01*
X173660Y177573D01*
X173446Y176500D01*
X173660Y175427D01*
X174267Y174517D01*
X175177Y173910D01*
X176250Y173696D01*
X177323Y173910D01*
X178233Y174517D01*
X178840Y175427D01*
X179054Y176500D01*
X178840Y177573D01*
X178233Y178483D01*
X177458Y179000D01*
X177473Y179543D01*
X177625Y180000D01*
X216000D01*
X227621Y191621D01*
X228250Y191496D01*
X229323Y191710D01*
X230233Y192317D01*
X230840Y193227D01*
X231054Y194300D01*
X230929Y194929D01*
X234250Y198250D01*
X243675D01*
X244496Y197250D01*
X244446Y197000D01*
X244660Y195927D01*
X245267Y195017D01*
X246177Y194410D01*
X247250Y194196D01*
X248323Y194410D01*
X249233Y195017D01*
X249840Y195927D01*
X250054Y197000D01*
X250004Y197250D01*
X250825Y198250D01*
X259645D01*
X259660Y198177D01*
X260267Y197267D01*
X261177Y196660D01*
X262250Y196446D01*
X262743Y196544D01*
X263344Y195644D01*
X263130Y195323D01*
X262916Y194250D01*
X263130Y193177D01*
X263737Y192267D01*
X264647Y191660D01*
X265720Y191446D01*
X266793Y191660D01*
X267703Y192267D01*
X268310Y193177D01*
X268524Y194250D01*
X268310Y195323D01*
X267703Y196233D01*
X266793Y196840D01*
X266027Y196993D01*
X265520Y197745D01*
X265441Y198018D01*
X265565Y198250D01*
X273095D01*
X273160Y197927D01*
X273767Y197017D01*
X274677Y196409D01*
X275750Y196196D01*
X276823Y196409D01*
X277733Y197017D01*
X278107Y197578D01*
X279150Y197681D01*
X279264Y197646D01*
X279517Y197267D01*
X280427Y196660D01*
X281500Y196446D01*
X282573Y196660D01*
X283483Y197267D01*
X284090Y198177D01*
X284105Y198250D01*
X286728D01*
X287217Y197517D01*
X288127Y196910D01*
X289200Y196696D01*
X290273Y196910D01*
X291183Y197517D01*
X291672Y198250D01*
X407000Y198250D01*
X412750Y192500D01*
D02*
G37*
G36*
X191217Y193484D02*
X191350Y193354D01*
X191485Y193241D01*
X191623Y193142D01*
X191764Y193058D01*
X191907Y192990D01*
X192054Y192937D01*
X192203Y192899D01*
X192356Y192876D01*
X192511Y192869D01*
X192432Y191869D01*
X192282Y191862D01*
X192132Y191841D01*
X191980Y191807D01*
X191828Y191759D01*
X191676Y191698D01*
X191523Y191622D01*
X191369Y191534D01*
X191215Y191431D01*
X191060Y191315D01*
X190904Y191185D01*
X191088Y193628D01*
X191217Y193484D01*
D02*
G37*
G36*
X186974Y217962D02*
X188020Y216395D01*
X189674Y215290D01*
X191625Y214902D01*
X193576Y215290D01*
X195230Y216395D01*
X196276Y217962D01*
X198724D01*
X199770Y216395D01*
X201424Y215290D01*
X203375Y214902D01*
X205326Y215290D01*
X206980Y216395D01*
X208027Y217962D01*
X394510Y217961D01*
X394714Y217698D01*
X395073Y216691D01*
X394660Y216073D01*
X394446Y215000D01*
X394660Y213927D01*
X395267Y213017D01*
X396177Y212410D01*
X397250Y212196D01*
X398323Y212410D01*
X399233Y213017D01*
X399840Y213927D01*
X400054Y215000D01*
X399840Y216073D01*
X399427Y216691D01*
X399786Y217698D01*
X399990Y217961D01*
X526974Y217961D01*
X528020Y216395D01*
X529674Y215290D01*
X531625Y214902D01*
X533576Y215290D01*
X535230Y216395D01*
X536276Y217961D01*
X538724D01*
X539770Y216395D01*
X541424Y215290D01*
X543375Y214902D01*
X545326Y215290D01*
X546980Y216395D01*
X548026Y217961D01*
X765461Y217961D01*
Y2039D01*
X548026Y2039D01*
X546980Y3605D01*
X545326Y4710D01*
X543375Y5098D01*
X541424Y4710D01*
X539770Y3605D01*
X538724Y2039D01*
X536276D01*
X535230Y3605D01*
X533576Y4710D01*
X531625Y5098D01*
X529674Y4710D01*
X528020Y3605D01*
X526974Y2039D01*
X208026Y2039D01*
X206980Y3605D01*
X205326Y4710D01*
X203375Y5098D01*
X201424Y4710D01*
X199770Y3605D01*
X198724Y2039D01*
X196276D01*
X195230Y3605D01*
X193576Y4710D01*
X191625Y5098D01*
X189674Y4710D01*
X188020Y3605D01*
X186974Y2039D01*
X9539Y2039D01*
Y5750D01*
X9519Y5849D01*
X9529Y5950D01*
X9433Y6926D01*
X9346Y7212D01*
X9288Y7506D01*
X8541Y9308D01*
X8099Y9970D01*
X6720Y11349D01*
X6720Y11349D01*
X6058Y11791D01*
X4256Y12538D01*
X3962Y12596D01*
X3675Y12683D01*
X2700Y12779D01*
X2599Y12769D01*
X2500Y12789D01*
X-30461D01*
Y45711D01*
X-3500D01*
X-3401Y45731D01*
X-3300Y45721D01*
X-2130Y45836D01*
X-1843Y45923D01*
X-1549Y45981D01*
X614Y46877D01*
X1275Y47319D01*
X2931Y48975D01*
X3373Y49636D01*
X4269Y51799D01*
X4424Y52579D01*
Y54921D01*
X4269Y55701D01*
X3373Y57864D01*
X2931Y58525D01*
X1275Y60181D01*
X614Y60623D01*
X-588Y61121D01*
X-1410Y62177D01*
X-1196Y63250D01*
X-1410Y64323D01*
X-2017Y65233D01*
X-2927Y65840D01*
X-4000Y66054D01*
X-5073Y65840D01*
X-5983Y65233D01*
X-6590Y64323D01*
X-6804Y63250D01*
X-6766Y63059D01*
X-7742Y61789D01*
X-30461D01*
Y163211D01*
X-3500D01*
X-3401Y163231D01*
X-3300Y163221D01*
X-2130Y163336D01*
X-1843Y163423D01*
X-1549Y163481D01*
X614Y164377D01*
X1275Y164819D01*
X1494Y165038D01*
X2668Y164552D01*
Y157500D01*
X2668Y157500D01*
X2985Y156735D01*
X2985Y156735D01*
X16235Y143485D01*
X17000Y143168D01*
X26206D01*
X26859Y141898D01*
X26608Y141522D01*
X26395Y140449D01*
X26608Y139376D01*
X27216Y138466D01*
X28126Y137858D01*
X29199Y137645D01*
X30272Y137858D01*
X31181Y138466D01*
X31719D01*
X32628Y137858D01*
X33701Y137645D01*
X34602Y136906D01*
X34601Y131816D01*
X34601Y131816D01*
X34787Y131368D01*
X34202Y130449D01*
X33976Y130259D01*
X33750Y130304D01*
X32677Y130090D01*
X31767Y129483D01*
X31160Y128573D01*
X30946Y127500D01*
X31160Y126427D01*
X31767Y125517D01*
X32677Y124910D01*
X32738Y124897D01*
Y123603D01*
X32677Y123590D01*
X31767Y122983D01*
X31160Y122073D01*
X30946Y121000D01*
X31160Y119927D01*
X31767Y119017D01*
X32677Y118410D01*
X33750Y118196D01*
X34823Y118410D01*
X35733Y119017D01*
X36340Y119927D01*
X36554Y121000D01*
X36340Y122073D01*
X35733Y122983D01*
X34823Y123590D01*
X34762Y123603D01*
Y124897D01*
X34823Y124910D01*
X35733Y125517D01*
X36340Y126427D01*
X36554Y127500D01*
X36524Y127649D01*
X37695Y128274D01*
X48406Y117564D01*
X48406Y117564D01*
X49072Y116897D01*
X49363Y116777D01*
X49626Y116601D01*
X49735Y116623D01*
X49837Y116580D01*
X50129Y116701D01*
X50438Y116763D01*
X51252Y117306D01*
X52000Y117455D01*
X52748Y117306D01*
X53383Y116882D01*
X53806Y116248D01*
X53955Y115500D01*
X53806Y114752D01*
X53263Y113938D01*
X53201Y113629D01*
X53081Y113337D01*
X53123Y113235D01*
X53101Y113126D01*
X53277Y112863D01*
X53397Y112572D01*
X60072Y105898D01*
X60363Y105777D01*
X60626Y105601D01*
X60735Y105623D01*
X60837Y105581D01*
X61129Y105701D01*
X61438Y105763D01*
X62252Y106306D01*
X63000Y106455D01*
X63748Y106306D01*
X64383Y105883D01*
X64806Y105248D01*
X64955Y104500D01*
X64806Y103752D01*
X64263Y102938D01*
X64201Y102629D01*
X64081Y102337D01*
X64123Y102235D01*
X64101Y102126D01*
X64277Y101863D01*
X64398Y101572D01*
X76735Y89235D01*
X77500Y88918D01*
X95802D01*
X97766Y86954D01*
X97432Y85670D01*
X97250Y85554D01*
X96177Y85340D01*
X95267Y84733D01*
X94660Y83823D01*
X94446Y82750D01*
X94660Y81677D01*
X95040Y81108D01*
X95182Y80250D01*
X95040Y79392D01*
X94660Y78823D01*
X94446Y77750D01*
X94660Y76677D01*
X95267Y75767D01*
X96177Y75160D01*
X97250Y74946D01*
X97681Y74812D01*
X98600Y73981D01*
X98821Y73651D01*
X98950Y73000D01*
X98779Y72138D01*
X98781Y72128D01*
X98775Y72119D01*
X98861Y71723D01*
X98940Y71326D01*
X98504Y70212D01*
X97910Y69323D01*
X97696Y68250D01*
X97910Y67177D01*
X98198Y66745D01*
X98735Y65622D01*
X98595Y65285D01*
X98423Y64963D01*
X98439Y64909D01*
X98418Y64857D01*
Y62250D01*
X98735Y61485D01*
X122235Y37985D01*
X123000Y37668D01*
X216133D01*
X217196Y36500D01*
X217410Y35427D01*
X218017Y34517D01*
X218927Y33910D01*
X220000Y33696D01*
X221073Y33910D01*
X221983Y34517D01*
X222590Y35427D01*
X222804Y36500D01*
X223293Y37037D01*
X224899Y37071D01*
X226698Y35271D01*
X226800Y35229D01*
X226862Y35137D01*
X227172Y35075D01*
X227286Y35028D01*
X227339Y34992D01*
X227402Y34980D01*
X227463Y34954D01*
X227485Y34963D01*
X228201Y34821D01*
X228752Y34452D01*
X229121Y33901D01*
X229263Y33185D01*
X229254Y33163D01*
X229280Y33102D01*
X229292Y33039D01*
X229328Y32986D01*
X229375Y32872D01*
X229437Y32562D01*
X229529Y32500D01*
X229571Y32398D01*
X231235Y30735D01*
X232000Y30418D01*
X252535D01*
X252687Y30480D01*
X252850Y30464D01*
X253055Y30633D01*
X253301Y30735D01*
X254302Y31410D01*
X255375Y31196D01*
X256448Y31410D01*
X257449Y30735D01*
X257695Y30633D01*
X257900Y30464D01*
X258063Y30480D01*
X258215Y30418D01*
X408993D01*
X409145Y30480D01*
X409308Y30464D01*
X409513Y30633D01*
X409759Y30735D01*
X409821Y30886D01*
X409948Y30990D01*
X410482Y31990D01*
X410499Y32153D01*
X410589Y32289D01*
X410538Y32550D01*
X410564Y32814D01*
X410461Y32939D01*
X410300Y33750D01*
X410429Y34401D01*
X410798Y34952D01*
X411349Y35321D01*
X412000Y35450D01*
X412651Y35321D01*
X413202Y34952D01*
X413571Y34401D01*
X413700Y33750D01*
X413539Y32939D01*
X413436Y32814D01*
X413462Y32550D01*
X413410Y32289D01*
X413502Y32153D01*
X413518Y31990D01*
X414052Y30990D01*
X414179Y30886D01*
X414241Y30735D01*
X414487Y30633D01*
X414692Y30464D01*
X414855Y30480D01*
X415007Y30418D01*
X426250D01*
X426250Y30417D01*
X427015Y30735D01*
X427015Y30735D01*
X436015Y39735D01*
X436332Y40500D01*
Y57250D01*
X436015Y58015D01*
X436015Y58015D01*
X423515Y70515D01*
X422750Y70832D01*
X373760D01*
X373514Y70731D01*
X373250Y70705D01*
X373146Y70578D01*
X372995Y70515D01*
X372893Y70270D01*
X372724Y70064D01*
X372509Y69353D01*
X371500Y69554D01*
X370491Y69353D01*
X370276Y70064D01*
X370107Y70270D01*
X370005Y70515D01*
X369854Y70578D01*
X369750Y70705D01*
X369486Y70731D01*
X369240Y70832D01*
X361497D01*
X361346Y70770D01*
X361183Y70786D01*
X360978Y70617D01*
X360732Y70515D01*
X359731Y69840D01*
X358658Y70054D01*
X357585Y69840D01*
X356584Y70515D01*
X356338Y70617D01*
X356132Y70786D01*
X355969Y70770D01*
X355818Y70832D01*
X153552D01*
X152873Y72102D01*
X153090Y72427D01*
X153304Y73500D01*
X153090Y74573D01*
X152483Y75483D01*
X151573Y76090D01*
X150500Y76304D01*
X149427Y76090D01*
X148517Y75483D01*
X147910Y74573D01*
X147696Y73500D01*
X147910Y72427D01*
X148126Y72102D01*
X147448Y70832D01*
X138643D01*
X138591Y70811D01*
X138537Y70827D01*
X138215Y70655D01*
X137878Y70515D01*
X136755Y71052D01*
X136323Y71340D01*
X135250Y71554D01*
X134177Y71340D01*
X133745Y71052D01*
X133511Y70940D01*
X133247Y71059D01*
X133084Y71474D01*
X133173Y72751D01*
X147273Y86852D01*
X148047Y88009D01*
X148319Y89375D01*
Y105500D01*
X148047Y106866D01*
X147273Y108023D01*
X115319Y139978D01*
Y152750D01*
Y157500D01*
X115077Y158713D01*
X115466Y159480D01*
X115781Y159942D01*
X116679Y160040D01*
X132351Y144368D01*
X132643Y144247D01*
X132906Y144072D01*
X133014Y144093D01*
X133117Y144051D01*
X133408Y144171D01*
X133718Y144233D01*
X133849Y144321D01*
X134500Y144450D01*
X135151Y144321D01*
X135702Y143952D01*
X136071Y143401D01*
X136242Y142539D01*
X136418Y142276D01*
X136538Y141985D01*
X136538Y141985D01*
X136641Y141942D01*
X136702Y141850D01*
X137012Y141789D01*
X137304Y141668D01*
X140996D01*
X141288Y141788D01*
X141597Y141850D01*
X141659Y141942D01*
X141761Y141985D01*
X141882Y142276D01*
X142058Y142539D01*
X142179Y143151D01*
X142548Y143702D01*
X143099Y144071D01*
X143750Y144200D01*
X144401Y144071D01*
X144952Y143702D01*
X145321Y143151D01*
X145442Y142539D01*
X145618Y142276D01*
X145739Y141985D01*
X145841Y141942D01*
X145903Y141850D01*
X146213Y141788D01*
X146504Y141668D01*
X151731D01*
X151867Y141506D01*
X152294Y140398D01*
X151910Y139823D01*
X151696Y138750D01*
X151910Y137677D01*
X152517Y136767D01*
X153427Y136160D01*
X154500Y135946D01*
X155573Y136160D01*
X156483Y136767D01*
X157090Y137677D01*
X157304Y138750D01*
X157090Y139823D01*
X156706Y140398D01*
X157133Y141506D01*
X157269Y141668D01*
X161329D01*
X161431Y141710D01*
X161540Y141688D01*
X161600Y141700D01*
X161660Y141688D01*
X161769Y141710D01*
X161871Y141668D01*
X163246D01*
X163375Y141598D01*
X163410Y141427D01*
X164017Y140517D01*
X164927Y139909D01*
X166000Y139696D01*
X167073Y139909D01*
X167983Y140517D01*
X168590Y141427D01*
X168624Y141598D01*
X168754Y141668D01*
X221000D01*
X221000Y141667D01*
X221765Y141985D01*
X221765Y141985D01*
X238983Y159202D01*
X240587Y159087D01*
X270837Y128837D01*
X270837Y128837D01*
X271829Y128174D01*
X273000Y127941D01*
X273000Y127941D01*
X296233D01*
X314962Y109212D01*
X314962Y109212D01*
X317837Y106337D01*
X318829Y105674D01*
X320000Y105441D01*
X321171Y105674D01*
X322163Y106337D01*
X322826Y107330D01*
X323059Y108500D01*
X322826Y109671D01*
X322163Y110663D01*
X319288Y113538D01*
X319288Y113538D01*
X299663Y133163D01*
X298671Y133826D01*
X297500Y134059D01*
X297500Y134059D01*
X274267D01*
X246581Y161744D01*
X247068Y162918D01*
X249229D01*
X250226Y161648D01*
X250196Y161500D01*
X250410Y160427D01*
X251017Y159517D01*
X251927Y158910D01*
X253000Y158696D01*
X254073Y158910D01*
X254983Y159517D01*
X255590Y160427D01*
X255804Y161500D01*
X255774Y161648D01*
X256771Y162918D01*
X256792D01*
X257083Y163038D01*
X257087Y163039D01*
X257138Y163029D01*
X258000Y163200D01*
X258862Y163029D01*
X258913Y163039D01*
X258917Y163038D01*
X259208Y162918D01*
X265471D01*
X266368Y161648D01*
X266296Y161287D01*
X266510Y160214D01*
X267117Y159305D01*
X268027Y158697D01*
X269100Y158484D01*
X270173Y158697D01*
X271083Y159305D01*
X271690Y160214D01*
X271904Y161287D01*
X271832Y161648D01*
X272729Y162918D01*
X276616D01*
X276739Y162969D01*
X276871Y162948D01*
X277109Y163122D01*
X277381Y163235D01*
X277432Y163358D01*
X277540Y163436D01*
X278927Y163909D01*
X279173Y163861D01*
X280000Y163696D01*
X281073Y163910D01*
X282074Y163235D01*
X282320Y163133D01*
X282526Y162964D01*
X282689Y162980D01*
X282840Y162918D01*
X324345D01*
X324637Y163038D01*
X324947Y163100D01*
X325008Y163192D01*
X325111Y163235D01*
X325232Y163526D01*
X325407Y163789D01*
X325429Y163901D01*
X325798Y164452D01*
X326349Y164821D01*
X327000Y164950D01*
X327651Y164821D01*
X328202Y164452D01*
X328571Y163901D01*
X328593Y163789D01*
X328769Y163526D01*
X328889Y163235D01*
X328992Y163192D01*
X329053Y163100D01*
X329363Y163038D01*
X329655Y162918D01*
X351259D01*
X351504Y163019D01*
X351769Y163045D01*
X351873Y163172D01*
X352024Y163235D01*
X352126Y163480D01*
X352295Y163686D01*
X352552Y164534D01*
X353208Y164404D01*
X353864Y164534D01*
X354121Y163686D01*
X354290Y163480D01*
X354391Y163235D01*
X354543Y163172D01*
X354646Y163045D01*
X354911Y163019D01*
X355157Y162918D01*
X358296D01*
X358587Y163038D01*
X358897Y163100D01*
X358959Y163192D01*
X359061Y163235D01*
X359182Y163526D01*
X359357Y163789D01*
X359429Y164151D01*
X359798Y164702D01*
X360349Y165071D01*
X361000Y165200D01*
X361862Y165029D01*
X361966Y165050D01*
X362083Y165001D01*
X362186Y165044D01*
X362296Y165022D01*
X362493Y165154D01*
X362674Y165190D01*
X362725Y165267D01*
X362849Y165318D01*
X373198Y175668D01*
X380470D01*
X380996Y174398D01*
X366716Y160117D01*
X341408D01*
X339067Y159652D01*
X337082Y158326D01*
X335756Y156341D01*
X335290Y154000D01*
X335756Y151659D01*
X337082Y149674D01*
X339067Y148348D01*
X341408Y147882D01*
X369250D01*
X371591Y148348D01*
X372088Y148680D01*
X372897Y147694D01*
X370327Y145124D01*
X363000D01*
X361852Y144648D01*
X354664Y137460D01*
X354188Y136312D01*
Y132984D01*
X320327Y99124D01*
X247250D01*
X246102Y98648D01*
X236828Y89374D01*
X219500D01*
X218352Y88898D01*
X212328Y82874D01*
X210164D01*
X209813Y83323D01*
X209384Y84144D01*
X209554Y85000D01*
X209340Y86073D01*
X208733Y86983D01*
X207823Y87591D01*
X206750Y87804D01*
X205677Y87591D01*
X204767Y86983D01*
X204160Y86073D01*
X203946Y85000D01*
X204160Y83927D01*
X204505Y83410D01*
X204764Y83005D01*
X204454Y81700D01*
X203685Y80931D01*
X203679Y80928D01*
X203613Y80903D01*
X203535Y80880D01*
X203443Y80860D01*
X203337Y80844D01*
X203215Y80835D01*
X203048Y80832D01*
X202927Y80779D01*
X201977Y80590D01*
X201067Y79983D01*
X200460Y79073D01*
X200246Y78000D01*
X200460Y76927D01*
X201067Y76017D01*
X201977Y75410D01*
X203050Y75196D01*
X204123Y75410D01*
X205033Y76017D01*
X205621Y76897D01*
X205796Y76927D01*
X206754Y76927D01*
X206929Y76897D01*
X207517Y76017D01*
X208427Y75410D01*
X209500Y75196D01*
X210573Y75410D01*
X211483Y76017D01*
X212090Y76927D01*
X212304Y78000D01*
X212233Y78356D01*
X212975Y79585D01*
X213163Y79694D01*
X214148Y80102D01*
X220173Y86126D01*
X237500D01*
X238648Y86602D01*
X247922Y95876D01*
X321000D01*
X322148Y96352D01*
X356960Y131164D01*
X357435Y132311D01*
Y135639D01*
X363672Y141876D01*
X371000D01*
X372148Y142352D01*
X390423Y160626D01*
X410250D01*
X411398Y161102D01*
X415898Y165602D01*
X416374Y166750D01*
Y173192D01*
X417644Y173577D01*
X418017Y173017D01*
X418927Y172410D01*
X420000Y172196D01*
X421073Y172410D01*
X421983Y173017D01*
X422590Y173927D01*
X422804Y175000D01*
X422590Y176073D01*
X421983Y176983D01*
X421073Y177590D01*
X420000Y177804D01*
X418927Y177590D01*
X418017Y176983D01*
X417644Y176423D01*
X416374Y176808D01*
Y193750D01*
X415898Y194898D01*
X408898Y201898D01*
X407750Y202374D01*
X294673D01*
X293148Y203898D01*
X292000Y204374D01*
X273830D01*
X273151Y205644D01*
X273340Y205927D01*
X273554Y207000D01*
X273340Y208073D01*
X272733Y208983D01*
X271823Y209590D01*
X270750Y209804D01*
X269677Y209590D01*
X268768Y208983D01*
X268160Y208073D01*
X267946Y207000D01*
X268160Y205927D01*
X268349Y205644D01*
X267670Y204374D01*
X234665D01*
X233743Y205644D01*
X233804Y205950D01*
X233590Y207023D01*
X232983Y207933D01*
X232073Y208540D01*
X231000Y208754D01*
X229927Y208540D01*
X229017Y207933D01*
X229014Y207928D01*
X228763Y207943D01*
X227742Y208310D01*
X227590Y209073D01*
X226983Y209983D01*
X226073Y210590D01*
X225054Y211750D01*
X224840Y212823D01*
X224233Y213733D01*
X223323Y214340D01*
X222250Y214554D01*
X221177Y214340D01*
X220267Y213733D01*
X219660Y212823D01*
X219446Y211750D01*
X219564Y211159D01*
X218367Y210663D01*
X218326Y210726D01*
X216341Y212052D01*
X214000Y212518D01*
X211659Y212052D01*
X209674Y210726D01*
X208348Y208741D01*
X208297Y208486D01*
X207003D01*
X206952Y208741D01*
X205626Y210726D01*
X203641Y212052D01*
X201300Y212518D01*
X198959Y212052D01*
X196974Y210726D01*
X195648Y208741D01*
X195597Y208486D01*
X194303D01*
X194252Y208741D01*
X192926Y210726D01*
X190941Y212052D01*
X188600Y212518D01*
X186259Y212052D01*
X184274Y210726D01*
X182948Y208741D01*
X182897Y208486D01*
X181602D01*
X181552Y208741D01*
X180226Y210726D01*
X178241Y212052D01*
X175900Y212518D01*
X173559Y212052D01*
X171574Y210726D01*
X170248Y208741D01*
X170197Y208486D01*
X168902D01*
X168852Y208741D01*
X167526Y210726D01*
X165541Y212052D01*
X163200Y212518D01*
X160859Y212052D01*
X158874Y210726D01*
X157548Y208741D01*
X157497Y208486D01*
X156203D01*
X156152Y208741D01*
X154826Y210726D01*
X152841Y212052D01*
X150500Y212518D01*
X148159Y212052D01*
X146174Y210726D01*
X144848Y208741D01*
X144797Y208486D01*
X143503D01*
X143452Y208741D01*
X142126Y210726D01*
X140141Y212052D01*
X137800Y212518D01*
X135459Y212052D01*
X133474Y210726D01*
X132148Y208741D01*
X131683Y206400D01*
X132148Y204059D01*
X133030Y202739D01*
X132352Y201469D01*
X123057D01*
X120169Y204357D01*
Y206650D01*
X119897Y208016D01*
X119123Y209173D01*
X112523Y215773D01*
X111366Y216547D01*
X110638Y216692D01*
X110764Y217962D01*
X186974Y217962D01*
D02*
G37*
G36*
X108394Y158567D02*
X108181Y157500D01*
Y152750D01*
Y138500D01*
X108453Y137134D01*
X109227Y135977D01*
X141181Y104022D01*
Y100460D01*
X139911Y99781D01*
X139823Y99840D01*
X138750Y100054D01*
X137677Y99840D01*
X136767Y99233D01*
X136160Y98323D01*
X135946Y97250D01*
X136160Y96177D01*
X136767Y95267D01*
X137677Y94660D01*
X138750Y94446D01*
X139823Y94660D01*
X139911Y94719D01*
X141181Y94040D01*
Y90853D01*
X127352Y77024D01*
X126082Y77550D01*
Y109250D01*
X125765Y110015D01*
X112931Y122849D01*
X112829Y122892D01*
X112767Y122984D01*
X112298Y123298D01*
X111984Y123767D01*
X111892Y123829D01*
X111849Y123932D01*
X96265Y139515D01*
X95500Y139832D01*
X61534D01*
X61093Y140398D01*
X61713Y141668D01*
X89250Y141668D01*
X90015Y141985D01*
X90015Y141985D01*
X107335Y159304D01*
X108394Y158567D01*
D02*
G37*
G36*
X205332Y79575D02*
X205229Y79462D01*
X205137Y79339D01*
X205056Y79207D01*
X204987Y79065D01*
X204928Y78914D01*
X204880Y78754D01*
X204844Y78584D01*
X204818Y78405D01*
X204804Y78216D01*
X204800Y78018D01*
X203067Y79750D01*
X203266Y79753D01*
X203455Y79768D01*
X203634Y79794D01*
X203804Y79830D01*
X203964Y79878D01*
X204115Y79937D01*
X204257Y80006D01*
X204389Y80087D01*
X204512Y80179D01*
X204625Y80282D01*
X205332Y79575D01*
D02*
G37*
%LPC*%
G36*
X63250Y204554D02*
X62177Y204340D01*
X61267Y203733D01*
X60659Y202823D01*
X60446Y201750D01*
X60659Y200677D01*
X61267Y199767D01*
X61734Y199456D01*
X61742Y199435D01*
Y198065D01*
X61734Y198044D01*
X61267Y197733D01*
X60659Y196823D01*
X60446Y195750D01*
X60659Y194677D01*
X61267Y193767D01*
Y193233D01*
X60659Y192323D01*
X60446Y191250D01*
X60659Y190177D01*
X61267Y189267D01*
X62177Y188660D01*
X63250Y188446D01*
X64323Y188660D01*
X65233Y189267D01*
X65840Y190177D01*
X66054Y191250D01*
X65840Y192323D01*
X65233Y193233D01*
Y193767D01*
X65840Y194677D01*
X66054Y195750D01*
X65840Y196823D01*
X65233Y197733D01*
X64766Y198044D01*
X64758Y198065D01*
Y199435D01*
X64766Y199456D01*
X65233Y199767D01*
X65840Y200677D01*
X66054Y201750D01*
X65840Y202823D01*
X65233Y203733D01*
X64323Y204340D01*
X63250Y204554D01*
D02*
G37*
G36*
X55250D02*
X54177Y204340D01*
X53267Y203733D01*
X52660Y202823D01*
X52446Y201750D01*
X52660Y200677D01*
X53267Y199767D01*
X53734Y199456D01*
X53742Y199435D01*
Y198065D01*
X53734Y198044D01*
X53267Y197733D01*
X52660Y196823D01*
X52446Y195750D01*
X52660Y194677D01*
X52809Y194454D01*
X53167Y193500D01*
X52809Y192546D01*
X52660Y192323D01*
X52446Y191250D01*
X52660Y190177D01*
X53267Y189267D01*
X54177Y188660D01*
X55250Y188446D01*
X56323Y188660D01*
X57233Y189267D01*
X57840Y190177D01*
X58054Y191250D01*
X57840Y192323D01*
X57691Y192546D01*
X57333Y193500D01*
X57691Y194454D01*
X57840Y194677D01*
X58054Y195750D01*
X57840Y196823D01*
X57233Y197733D01*
X56766Y198044D01*
X56758Y198065D01*
Y199435D01*
X56766Y199456D01*
X57233Y199767D01*
X57840Y200677D01*
X58054Y201750D01*
X57840Y202823D01*
X57233Y203733D01*
X56323Y204340D01*
X55250Y204554D01*
D02*
G37*
G36*
X12750Y200304D02*
X11677Y200091D01*
X10767Y199483D01*
X10483D01*
X9573Y200091D01*
X8500Y200304D01*
X7427Y200091D01*
X6517Y199483D01*
X5910Y198573D01*
X5696Y197500D01*
X5910Y196427D01*
X6517Y195518D01*
X7427Y194910D01*
X8500Y194697D01*
X9573Y194910D01*
X10483Y195518D01*
X10767D01*
X11677Y194910D01*
X12750Y194697D01*
X13823Y194910D01*
X14733Y195518D01*
X15340Y196427D01*
X15554Y197500D01*
X15340Y198573D01*
X14733Y199483D01*
X13823Y200091D01*
X12750Y200304D01*
D02*
G37*
G36*
X42250Y141304D02*
X41177Y141090D01*
X40267Y140483D01*
X39660Y139573D01*
X39446Y138500D01*
X39660Y137427D01*
X40267Y136517D01*
X41177Y135910D01*
X42250Y135696D01*
X43323Y135910D01*
X44233Y136517D01*
X44840Y137427D01*
X45054Y138500D01*
X44840Y139573D01*
X44233Y140483D01*
X43323Y141090D01*
X42250Y141304D01*
D02*
G37*
G36*
X82000Y123554D02*
X80927Y123340D01*
X80017Y122733D01*
X79410Y121823D01*
X79196Y120750D01*
X79410Y119677D01*
X80017Y118767D01*
X80927Y118160D01*
X82000Y117946D01*
X83073Y118160D01*
X83983Y118767D01*
X84590Y119677D01*
X84804Y120750D01*
X84590Y121823D01*
X83983Y122733D01*
X83073Y123340D01*
X82000Y123554D01*
D02*
G37*
G36*
X95500Y125304D02*
X94427Y125090D01*
X93517Y124483D01*
X92909Y123573D01*
X92696Y122500D01*
X92909Y121427D01*
X93517Y120517D01*
X94081Y120141D01*
X93927Y119090D01*
X93017Y118483D01*
X92410Y117573D01*
X92196Y116500D01*
X92410Y115427D01*
X93017Y114517D01*
X93927Y113910D01*
X95000Y113696D01*
X96073Y113910D01*
X96983Y114517D01*
X97590Y115427D01*
X97804Y116500D01*
X97590Y117573D01*
X96983Y118483D01*
X96419Y118859D01*
X96573Y119910D01*
X97483Y120517D01*
X98090Y121427D01*
X98304Y122500D01*
X98090Y123573D01*
X97483Y124483D01*
X96573Y125090D01*
X95500Y125304D01*
D02*
G37*
G36*
X63000Y118559D02*
X61830Y118326D01*
X60837Y117663D01*
X60174Y116671D01*
X59941Y115500D01*
X60174Y114330D01*
X60837Y113337D01*
X61830Y112674D01*
X63000Y112441D01*
X64171Y112674D01*
X65163Y113337D01*
X65826Y114330D01*
X66059Y115500D01*
X65826Y116671D01*
X65163Y117663D01*
X64171Y118326D01*
X63000Y118559D01*
D02*
G37*
G36*
X93500Y112804D02*
X92427Y112590D01*
X91517Y111983D01*
X90910Y111073D01*
X90696Y110000D01*
X90910Y108927D01*
X91517Y108017D01*
X92427Y107410D01*
X93500Y107196D01*
X94573Y107410D01*
X95483Y108017D01*
X96090Y108927D01*
X96304Y110000D01*
X96090Y111073D01*
X95483Y111983D01*
X94573Y112590D01*
X93500Y112804D01*
D02*
G37*
G36*
X106250Y110054D02*
X105177Y109840D01*
X104267Y109233D01*
X103660Y108323D01*
X103446Y107250D01*
X103660Y106177D01*
X104267Y105267D01*
X105177Y104660D01*
X106250Y104446D01*
X106453Y103467D01*
X106660Y102427D01*
X107267Y101517D01*
X108177Y100910D01*
X109250Y100696D01*
X110323Y100910D01*
X111233Y101517D01*
X111840Y102427D01*
X112054Y103500D01*
X111840Y104573D01*
X111233Y105483D01*
X110323Y106090D01*
X109250Y106304D01*
X109047Y107283D01*
X108840Y108323D01*
X108233Y109233D01*
X107323Y109840D01*
X106250Y110054D01*
D02*
G37*
G36*
X93500Y105804D02*
X92427Y105590D01*
X91517Y104983D01*
X90910Y104073D01*
X90696Y103000D01*
X90910Y101927D01*
X91517Y101017D01*
X92427Y100410D01*
X93500Y100196D01*
X94573Y100410D01*
X95483Y101017D01*
X96090Y101927D01*
X96304Y103000D01*
X96090Y104073D01*
X95483Y104983D01*
X94573Y105590D01*
X93500Y105804D01*
D02*
G37*
G36*
X120000Y78304D02*
X118927Y78090D01*
X118017Y77483D01*
X117410Y76573D01*
X117196Y75500D01*
X117410Y74427D01*
X118017Y73517D01*
X118516Y73184D01*
X118593Y72049D01*
X118584Y72027D01*
X118517Y71983D01*
X117910Y71073D01*
X117696Y70000D01*
X117910Y68927D01*
X118517Y68017D01*
X119427Y67410D01*
X120500Y67196D01*
X121573Y67410D01*
X122483Y68017D01*
X123090Y68927D01*
X123304Y70000D01*
X123090Y71073D01*
X122483Y71983D01*
X121984Y72316D01*
X121907Y73450D01*
X121916Y73473D01*
X121983Y73517D01*
X122590Y74427D01*
X122804Y75500D01*
X122590Y76573D01*
X121983Y77483D01*
X121073Y78090D01*
X120000Y78304D01*
D02*
G37*
G36*
X263550Y67854D02*
X262477Y67641D01*
X261567Y67033D01*
X261508Y66944D01*
X260736D01*
X260378Y67052D01*
X259573Y67590D01*
X258500Y67804D01*
X257427Y67590D01*
X256517Y66983D01*
X255910Y66073D01*
X255696Y65000D01*
X255910Y63927D01*
X256517Y63017D01*
X257427Y62410D01*
X258500Y62196D01*
X259573Y62410D01*
X260424Y62978D01*
X260709Y63106D01*
X261542D01*
X261567Y63067D01*
X262477Y62460D01*
X263550Y62246D01*
X264623Y62460D01*
X265533Y63067D01*
X266140Y63977D01*
X266354Y65050D01*
X266140Y66123D01*
X265533Y67033D01*
X264623Y67641D01*
X263550Y67854D01*
D02*
G37*
G36*
X322658Y67304D02*
X321585Y67091D01*
X321201Y66834D01*
X320454Y66563D01*
X319707Y66834D01*
X319323Y67090D01*
X318250Y67304D01*
X317177Y67090D01*
X316267Y66483D01*
X315660Y65573D01*
X315446Y64500D01*
X315660Y63427D01*
X316267Y62517D01*
X317177Y61910D01*
X318250Y61696D01*
X319323Y61910D01*
X320233Y62517D01*
X320233Y62517D01*
X320675D01*
X321585Y61910D01*
X322658Y61696D01*
X323731Y61910D01*
X324640Y62517D01*
X325248Y63427D01*
X325462Y64500D01*
X325248Y65573D01*
X324640Y66483D01*
X323731Y67091D01*
X322658Y67304D01*
D02*
G37*
G36*
X300500Y68304D02*
X299427Y68090D01*
X298517Y67483D01*
X297910Y66573D01*
X297696Y65500D01*
X297910Y64427D01*
X298517Y63517D01*
X299427Y62910D01*
X300500Y62696D01*
X301573Y62910D01*
X302483Y63517D01*
X303090Y64427D01*
X303304Y65500D01*
X303090Y66573D01*
X302483Y67483D01*
X301573Y68090D01*
X300500Y68304D01*
D02*
G37*
G36*
X187500Y66554D02*
X186427Y66340D01*
X185517Y65733D01*
X184910Y64823D01*
X184696Y63750D01*
X184910Y62677D01*
X185517Y61767D01*
X186427Y61160D01*
X187500Y60946D01*
X188573Y61160D01*
X189483Y61767D01*
X190091Y62677D01*
X190304Y63750D01*
X190091Y64823D01*
X189483Y65733D01*
X188573Y66340D01*
X187500Y66554D01*
D02*
G37*
G36*
X163000D02*
X161927Y66340D01*
X161017Y65733D01*
X160410Y64823D01*
X160196Y63750D01*
X160410Y62677D01*
X161017Y61767D01*
X161927Y61160D01*
X163000Y60946D01*
X164073Y61160D01*
X164983Y61767D01*
X165590Y62677D01*
X165804Y63750D01*
X165590Y64823D01*
X164983Y65733D01*
X164073Y66340D01*
X163000Y66554D01*
D02*
G37*
G36*
X235465Y66154D02*
X234392Y65940D01*
X233482Y65333D01*
X232874Y64423D01*
X232661Y63350D01*
X232874Y62277D01*
X233482Y61367D01*
X234392Y60760D01*
X235465Y60546D01*
X236538Y60760D01*
X237447Y61367D01*
X238055Y62277D01*
X238269Y63350D01*
X238055Y64423D01*
X237447Y65333D01*
X236538Y65940D01*
X235465Y66154D01*
D02*
G37*
G36*
X126250Y65804D02*
X125177Y65590D01*
X124267Y64983D01*
X123660Y64073D01*
X123446Y63000D01*
X123660Y61927D01*
X124267Y61017D01*
X125177Y60409D01*
X126250Y60196D01*
X127323Y60409D01*
X128233Y61017D01*
X128840Y61927D01*
X129054Y63000D01*
X128840Y64073D01*
X128233Y64983D01*
X127323Y65590D01*
X126250Y65804D01*
D02*
G37*
G36*
X247000Y64554D02*
X245927Y64340D01*
X245017Y63733D01*
X244410Y62823D01*
X244196Y61750D01*
X244410Y60677D01*
X245017Y59767D01*
X245927Y59160D01*
X247000Y58946D01*
X248073Y59160D01*
X248983Y59767D01*
X249590Y60677D01*
X249804Y61750D01*
X249590Y62823D01*
X248983Y63733D01*
X248073Y64340D01*
X247000Y64554D01*
D02*
G37*
G36*
X144250Y61304D02*
X143177Y61090D01*
X142267Y60483D01*
X141660Y59573D01*
X141446Y58500D01*
X141660Y57427D01*
X142267Y56517D01*
X143177Y55910D01*
X144250Y55696D01*
X145323Y55910D01*
X146233Y56517D01*
X146840Y57427D01*
X147054Y58500D01*
X146840Y59573D01*
X146233Y60483D01*
X145323Y61090D01*
X144250Y61304D01*
D02*
G37*
G36*
X204900Y66654D02*
X203827Y66441D01*
X202917Y65833D01*
X202310Y64923D01*
X202096Y63850D01*
X202310Y62777D01*
X202917Y61867D01*
X203734Y61322D01*
X203814Y60916D01*
X203788Y60248D01*
X203017Y59733D01*
X202410Y58823D01*
X202196Y57750D01*
X202410Y56677D01*
X203017Y55767D01*
X203927Y55160D01*
X205000Y54946D01*
X206073Y55160D01*
X206983Y55767D01*
X207590Y56677D01*
X207804Y57750D01*
X207590Y58823D01*
X206983Y59733D01*
X206166Y60278D01*
X206086Y60684D01*
X206112Y61352D01*
X206883Y61867D01*
X207491Y62777D01*
X207704Y63850D01*
X207491Y64923D01*
X206883Y65833D01*
X205973Y66441D01*
X204900Y66654D01*
D02*
G37*
G36*
X382408Y60304D02*
X381335Y60090D01*
X380425Y59483D01*
X379817Y58573D01*
X379604Y57500D01*
X379817Y56427D01*
X380425Y55517D01*
X381335Y54910D01*
X382408Y54696D01*
X383481Y54910D01*
X384390Y55517D01*
X384998Y56427D01*
X385211Y57500D01*
X384998Y58573D01*
X384390Y59483D01*
X383481Y60090D01*
X382408Y60304D01*
D02*
G37*
G36*
X294250Y64554D02*
X293177Y64340D01*
X292267Y63733D01*
X291660Y62823D01*
X291446Y61750D01*
X291660Y60677D01*
X292267Y59767D01*
Y59233D01*
X291660Y58323D01*
X291446Y57250D01*
X291660Y56177D01*
X292267Y55267D01*
X293177Y54660D01*
X294250Y54446D01*
X295323Y54660D01*
X296233Y55267D01*
X296840Y56177D01*
X297054Y57250D01*
X296840Y58323D01*
X296233Y59233D01*
Y59767D01*
X296840Y60677D01*
X297054Y61750D01*
X296840Y62823D01*
X296233Y63733D01*
X295323Y64340D01*
X294250Y64554D01*
D02*
G37*
G36*
X404158Y59804D02*
X403085Y59590D01*
X402175Y58983D01*
X401567Y58073D01*
X401354Y57000D01*
X401567Y55927D01*
X402175Y55017D01*
X403085Y54410D01*
X404158Y54196D01*
X405231Y54410D01*
X406140Y55017D01*
X406748Y55927D01*
X406962Y57000D01*
X406748Y58073D01*
X406140Y58983D01*
X405231Y59590D01*
X404158Y59804D01*
D02*
G37*
G36*
X152250Y58054D02*
X151177Y57840D01*
X150267Y57233D01*
X149660Y56323D01*
X149446Y55250D01*
X149660Y54177D01*
X150267Y53267D01*
X151177Y52660D01*
X152250Y52446D01*
X153323Y52660D01*
X154233Y53267D01*
X154840Y54177D01*
X155054Y55250D01*
X154840Y56323D01*
X154233Y57233D01*
X153323Y57840D01*
X152250Y58054D01*
D02*
G37*
G36*
X136000Y56304D02*
X134927Y56090D01*
X134017Y55483D01*
X133410Y54573D01*
X133196Y53500D01*
X133410Y52427D01*
X134017Y51517D01*
X134927Y50910D01*
X136000Y50696D01*
X137073Y50910D01*
X137983Y51517D01*
X138590Y52427D01*
X138804Y53500D01*
X138590Y54573D01*
X137983Y55483D01*
X137073Y56090D01*
X136000Y56304D01*
D02*
G37*
G36*
X209500Y55554D02*
X208427Y55340D01*
X207517Y54733D01*
X206910Y53823D01*
X206696Y52750D01*
X206910Y51677D01*
X207517Y50767D01*
X208427Y50160D01*
X209500Y49946D01*
X210573Y50160D01*
X211483Y50767D01*
X212090Y51677D01*
X212304Y52750D01*
X212090Y53823D01*
X211483Y54733D01*
X210573Y55340D01*
X209500Y55554D01*
D02*
G37*
G36*
X254300Y55504D02*
X253227Y55290D01*
X252317Y54682D01*
X251710Y53773D01*
X251496Y52700D01*
X251710Y51627D01*
X252317Y50717D01*
X253227Y50110D01*
X254300Y49896D01*
X255373Y50110D01*
X256283Y50717D01*
X256891Y51627D01*
X257104Y52700D01*
X256891Y53773D01*
X256283Y54682D01*
X255373Y55290D01*
X254300Y55504D01*
D02*
G37*
G36*
X120750Y55304D02*
X119677Y55090D01*
X118767Y54483D01*
X118160Y53573D01*
X117946Y52500D01*
X118160Y51427D01*
X118767Y50517D01*
X119677Y49910D01*
X120750Y49696D01*
X121823Y49910D01*
X122733Y50517D01*
X123340Y51427D01*
X123554Y52500D01*
X123340Y53573D01*
X122733Y54483D01*
X121823Y55090D01*
X120750Y55304D01*
D02*
G37*
G36*
X423408Y51554D02*
X422335Y51340D01*
X421425Y50732D01*
X420843Y49861D01*
X420653Y49636D01*
X420069Y49394D01*
X419706Y49364D01*
X418750Y49554D01*
X417677Y49340D01*
X416767Y48733D01*
X416160Y47823D01*
X415946Y46750D01*
X416160Y45677D01*
X416767Y44767D01*
X417677Y44160D01*
X418750Y43946D01*
X419823Y44160D01*
X420865Y43653D01*
X420910Y43427D01*
X421517Y42517D01*
X422427Y41910D01*
X423500Y41696D01*
X424573Y41910D01*
X425483Y42517D01*
X426090Y43427D01*
X426304Y44500D01*
X426090Y45573D01*
X425878Y45891D01*
X425390Y46767D01*
X425998Y47677D01*
X426212Y48750D01*
X425998Y49823D01*
X425390Y50732D01*
X424481Y51340D01*
X423408Y51554D01*
D02*
G37*
G36*
X374158Y54054D02*
X373085Y53840D01*
X372175Y53233D01*
X371567Y52323D01*
X371354Y51250D01*
X371567Y50177D01*
X372175Y49267D01*
X373085Y48660D01*
X374158Y48446D01*
X375231Y48660D01*
X376140Y49267D01*
X376748Y50177D01*
X376962Y51250D01*
X376748Y52323D01*
X376140Y53233D01*
X375231Y53840D01*
X374158Y54054D01*
D02*
G37*
G36*
X389658Y53804D02*
X388585Y53590D01*
X387675Y52983D01*
X387067Y52073D01*
X386854Y51000D01*
X387067Y49927D01*
X387675Y49017D01*
X388585Y48410D01*
X389658Y48196D01*
X390731Y48410D01*
X391640Y49017D01*
X392248Y49927D01*
X392462Y51000D01*
X392248Y52073D01*
X391640Y52983D01*
X390731Y53590D01*
X389658Y53804D01*
D02*
G37*
G36*
X277750Y53054D02*
X276677Y52840D01*
X275767Y52233D01*
X275159Y51323D01*
X274946Y50250D01*
X275159Y49177D01*
X275767Y48267D01*
X276677Y47660D01*
X277750Y47446D01*
X278823Y47660D01*
X279732Y48267D01*
X280340Y49177D01*
X280554Y50250D01*
X280340Y51323D01*
X279732Y52233D01*
X278823Y52840D01*
X277750Y53054D01*
D02*
G37*
G36*
X358500Y51304D02*
X357427Y51090D01*
X356517Y50483D01*
X355910Y49573D01*
X355696Y48500D01*
X355910Y47427D01*
X356517Y46517D01*
X357427Y45910D01*
X358500Y45696D01*
X359573Y45910D01*
X360483Y46517D01*
X361090Y47427D01*
X361304Y48500D01*
X361090Y49573D01*
X360483Y50483D01*
X359573Y51090D01*
X358500Y51304D01*
D02*
G37*
G36*
X232000Y50804D02*
X230927Y50590D01*
X230017Y49983D01*
X229410Y49073D01*
X229196Y48000D01*
X229410Y46927D01*
X230017Y46017D01*
X230927Y45410D01*
X232000Y45196D01*
X233073Y45410D01*
X233983Y46017D01*
X234590Y46927D01*
X234804Y48000D01*
X234590Y49073D01*
X233983Y49983D01*
X233073Y50590D01*
X232000Y50804D01*
D02*
G37*
G36*
X163750Y49804D02*
X162677Y49590D01*
X161767Y48983D01*
X161159Y48073D01*
X160946Y47000D01*
X161159Y45927D01*
X161767Y45017D01*
X162677Y44410D01*
X163750Y44196D01*
X164823Y44410D01*
X165733Y45017D01*
X166340Y45927D01*
X166554Y47000D01*
X166340Y48073D01*
X165733Y48983D01*
X164823Y49590D01*
X163750Y49804D01*
D02*
G37*
G36*
X179750Y49804D02*
X178677Y49590D01*
X177767Y48983D01*
X177160Y48073D01*
X176946Y47000D01*
X177160Y45927D01*
X177767Y45017D01*
X178677Y44409D01*
X179750Y44196D01*
X180823Y44409D01*
X181733Y45017D01*
X182340Y45927D01*
X182554Y47000D01*
X182340Y48073D01*
X181733Y48983D01*
X180823Y49590D01*
X179750Y49804D01*
D02*
G37*
G36*
X283550Y47054D02*
X282477Y46841D01*
X281567Y46233D01*
X280960Y45323D01*
X280746Y44250D01*
X280960Y43177D01*
X281567Y42267D01*
X282477Y41660D01*
X283550Y41446D01*
X284623Y41660D01*
X285533Y42267D01*
X286141Y43177D01*
X286354Y44250D01*
X286141Y45323D01*
X285533Y46233D01*
X284623Y46841D01*
X283550Y47054D01*
D02*
G37*
G36*
X254250Y46054D02*
X253177Y45840D01*
X252267Y45233D01*
X251660Y44323D01*
X251446Y43250D01*
X251660Y42177D01*
X252267Y41267D01*
X253177Y40660D01*
X254250Y40446D01*
X255323Y40660D01*
X256233Y41267D01*
X256840Y42177D01*
X257054Y43250D01*
X256840Y44323D01*
X256233Y45233D01*
X255323Y45840D01*
X254250Y46054D01*
D02*
G37*
G36*
X272000Y42804D02*
X270927Y42590D01*
X270017Y41983D01*
X269410Y41073D01*
X269196Y40000D01*
X269410Y38927D01*
X270017Y38017D01*
X270927Y37410D01*
X272000Y37196D01*
X273073Y37410D01*
X273983Y38017D01*
X274590Y38927D01*
X274804Y40000D01*
X274590Y41073D01*
X273983Y41983D01*
X273073Y42590D01*
X272000Y42804D01*
D02*
G37*
G36*
X294000Y42304D02*
X292927Y42090D01*
X292017Y41483D01*
X291410Y40573D01*
X291196Y39500D01*
X291410Y38427D01*
X292017Y37517D01*
X292927Y36910D01*
X294000Y36696D01*
X295073Y36910D01*
X295983Y37517D01*
X296590Y38427D01*
X296804Y39500D01*
X296590Y40573D01*
X295983Y41483D01*
X295073Y42090D01*
X294000Y42304D01*
D02*
G37*
G36*
X382658Y42054D02*
X381585Y41840D01*
X380675Y41233D01*
X380067Y40323D01*
X379854Y39250D01*
X380067Y38177D01*
X380675Y37267D01*
X381585Y36660D01*
X382658Y36446D01*
X383731Y36660D01*
X384640Y37267D01*
X385248Y38177D01*
X385462Y39250D01*
X385248Y40323D01*
X384640Y41233D01*
X383731Y41840D01*
X382658Y42054D01*
D02*
G37*
G36*
X312500Y41304D02*
X311427Y41090D01*
X310517Y40483D01*
X309910Y39573D01*
X309696Y38500D01*
X309910Y37427D01*
X310517Y36517D01*
X311427Y35910D01*
X312500Y35696D01*
X313573Y35910D01*
X314483Y36517D01*
X315090Y37427D01*
X315304Y38500D01*
X315090Y39573D01*
X314483Y40483D01*
X313573Y41090D01*
X312500Y41304D01*
D02*
G37*
G36*
X262750Y189304D02*
X261677Y189090D01*
X260980Y188625D01*
X260320Y188540D01*
X259660Y188625D01*
X258963Y189090D01*
X257890Y189304D01*
X256817Y189090D01*
X255907Y188483D01*
X255299Y187573D01*
X255086Y186500D01*
X255299Y185427D01*
X255907Y184517D01*
X256817Y183910D01*
X257890Y183696D01*
X258963Y183910D01*
X259660Y184375D01*
X260320Y184460D01*
X260980Y184375D01*
X261677Y183910D01*
X262750Y183696D01*
X263823Y183910D01*
X264733Y184517D01*
X264822Y184651D01*
X266018Y184641D01*
X266267Y184267D01*
X267177Y183660D01*
X268250Y183446D01*
X269323Y183660D01*
X270233Y184267D01*
X270840Y185177D01*
X271054Y186250D01*
X270840Y187323D01*
X270233Y188233D01*
X269323Y188840D01*
X268250Y189054D01*
X267177Y188840D01*
X266267Y188233D01*
X266178Y188099D01*
X264982Y188109D01*
X264733Y188483D01*
X263823Y189090D01*
X262750Y189304D01*
D02*
G37*
G36*
X289200Y194054D02*
X288127Y193840D01*
X287218Y193233D01*
X286610Y192323D01*
X286396Y191250D01*
X286610Y190177D01*
X287218Y189267D01*
X288127Y188659D01*
X289200Y188446D01*
X290273Y188659D01*
X291183Y189267D01*
X291791Y190177D01*
X292004Y191250D01*
X291791Y192323D01*
X291183Y193233D01*
X290273Y193840D01*
X289200Y194054D01*
D02*
G37*
G36*
X307000Y193304D02*
X305927Y193090D01*
X305017Y192483D01*
X304410Y191573D01*
X304196Y190500D01*
X304410Y189427D01*
X305017Y188517D01*
X305927Y187910D01*
X307000Y187696D01*
X308073Y187910D01*
X308983Y188517D01*
X309590Y189427D01*
X309804Y190500D01*
X309590Y191573D01*
X308983Y192483D01*
X308073Y193090D01*
X307000Y193304D01*
D02*
G37*
G36*
X371408Y190304D02*
X370335Y190090D01*
X369425Y189483D01*
X368817Y188573D01*
X368604Y187500D01*
X368817Y186427D01*
X369425Y185517D01*
X370335Y184910D01*
X371408Y184696D01*
X372481Y184910D01*
X373390Y185517D01*
X373998Y186427D01*
X374212Y187500D01*
X373998Y188573D01*
X373390Y189483D01*
X372481Y190090D01*
X371408Y190304D01*
D02*
G37*
G36*
X357500Y188804D02*
X356427Y188590D01*
X355517Y187983D01*
X354910Y187073D01*
X354696Y186000D01*
X354910Y184927D01*
X355517Y184017D01*
X356427Y183410D01*
X357500Y183196D01*
X358573Y183410D01*
X359483Y184017D01*
X360090Y184927D01*
X360304Y186000D01*
X360090Y187073D01*
X359483Y187983D01*
X358573Y188590D01*
X357500Y188804D01*
D02*
G37*
G36*
X235000Y193804D02*
X233927Y193590D01*
X233017Y192983D01*
X232410Y192073D01*
X232196Y191000D01*
X232410Y189927D01*
X233017Y189017D01*
X233178Y188910D01*
X232967Y187848D01*
X232927Y187840D01*
X232017Y187233D01*
X231410Y186323D01*
X231196Y185250D01*
X231410Y184177D01*
X232017Y183267D01*
X232927Y182660D01*
X234000Y182446D01*
X235073Y182660D01*
X235983Y183267D01*
X236590Y184177D01*
X236804Y185250D01*
X236590Y186323D01*
X235983Y187233D01*
X235822Y187340D01*
X236033Y188402D01*
X236073Y188410D01*
X236983Y189017D01*
X237590Y189927D01*
X237804Y191000D01*
X237590Y192073D01*
X236983Y192983D01*
X236073Y193590D01*
X235000Y193804D01*
D02*
G37*
G36*
X141000Y181304D02*
X139927Y181090D01*
X139652Y180907D01*
X138875Y180548D01*
X138098Y180907D01*
X137823Y181090D01*
X136750Y181304D01*
X135677Y181090D01*
X135402Y180907D01*
X134625Y180548D01*
X133848Y180907D01*
X133573Y181090D01*
X132500Y181304D01*
X131427Y181090D01*
X130517Y180483D01*
X129909Y179573D01*
X129696Y178500D01*
X129909Y177427D01*
X130517Y176517D01*
X131427Y175910D01*
X132500Y175696D01*
X133573Y175910D01*
X133848Y176093D01*
X134625Y176452D01*
X135402Y176093D01*
X135677Y175910D01*
X136750Y175696D01*
X137823Y175910D01*
X138098Y176093D01*
X138875Y176452D01*
X139652Y176093D01*
X139927Y175910D01*
X141000Y175696D01*
X142073Y175910D01*
X142983Y176517D01*
X143590Y177427D01*
X143804Y178500D01*
X143590Y179573D01*
X142983Y180483D01*
X142073Y181090D01*
X141000Y181304D01*
D02*
G37*
G36*
X289200Y185804D02*
X288127Y185590D01*
X287218Y184983D01*
X286610Y184073D01*
X286396Y183000D01*
X286610Y181927D01*
X287218Y181017D01*
X288127Y180410D01*
X289200Y180196D01*
X290273Y180410D01*
X291183Y181017D01*
X291791Y181927D01*
X292004Y183000D01*
X291791Y184073D01*
X291183Y184983D01*
X290273Y185590D01*
X289200Y185804D01*
D02*
G37*
G36*
X304500Y184554D02*
X303427Y184340D01*
X302517Y183733D01*
X301910Y182823D01*
X301696Y181750D01*
X301910Y180677D01*
X302517Y179767D01*
X303427Y179160D01*
X304500Y178946D01*
X305573Y179160D01*
X306483Y179767D01*
X307090Y180677D01*
X307304Y181750D01*
X307090Y182823D01*
X306483Y183733D01*
X305573Y184340D01*
X304500Y184554D01*
D02*
G37*
G36*
X97000Y177304D02*
X95927Y177090D01*
X95017Y176483D01*
X94483D01*
X93573Y177090D01*
X92500Y177304D01*
X91427Y177090D01*
X90517Y176483D01*
X89598Y176907D01*
X89323Y177090D01*
X88250Y177304D01*
X87177Y177090D01*
X86267Y176483D01*
X85660Y175573D01*
X85446Y174500D01*
X85660Y173427D01*
X86267Y172517D01*
X87177Y171910D01*
X87987Y171748D01*
X88283Y170879D01*
X88288Y170746D01*
X88267Y170733D01*
X87659Y169823D01*
X87446Y168750D01*
X87659Y167677D01*
X88267Y166767D01*
X89177Y166160D01*
X90250Y165946D01*
X91323Y166160D01*
X91944Y166574D01*
X92625Y166697D01*
X93306Y166574D01*
X93927Y166160D01*
X95000Y165946D01*
X96073Y166160D01*
X96982Y166767D01*
X97590Y167677D01*
X97804Y168750D01*
X97590Y169823D01*
X97474Y169998D01*
X97874Y171198D01*
X98166Y171300D01*
X98410Y171177D01*
X99017Y170267D01*
X99927Y169660D01*
X101000Y169446D01*
X102073Y169660D01*
X102983Y170267D01*
X103590Y171177D01*
X103804Y172250D01*
X103590Y173323D01*
X102983Y174233D01*
X102073Y174840D01*
X101000Y175054D01*
X99927Y174840D01*
X99606Y175496D01*
X99590Y175573D01*
X98983Y176483D01*
X98073Y177090D01*
X97000Y177304D01*
D02*
G37*
G36*
X336000Y173804D02*
X334927Y173590D01*
X334479Y173291D01*
X333750Y173065D01*
X333021Y173291D01*
X332573Y173590D01*
X331500Y173804D01*
X330427Y173590D01*
X329517Y172983D01*
X328910Y172073D01*
X328696Y171000D01*
X328910Y169927D01*
X329517Y169017D01*
X330427Y168410D01*
X331500Y168196D01*
X332573Y168410D01*
X333021Y168709D01*
X333750Y168935D01*
X334479Y168709D01*
X334927Y168410D01*
X336000Y168196D01*
X337073Y168410D01*
X337983Y169017D01*
X338590Y169927D01*
X338804Y171000D01*
X338590Y172073D01*
X337983Y172983D01*
X337073Y173590D01*
X336000Y173804D01*
D02*
G37*
G36*
X287500Y176554D02*
X286427Y176340D01*
X285517Y175733D01*
X284910Y174823D01*
X284696Y173750D01*
X284910Y172677D01*
X285517Y171767D01*
X286427Y171160D01*
X287500Y170946D01*
X288573Y171160D01*
X289483Y171767D01*
X290090Y172677D01*
X290304Y173750D01*
X290090Y174823D01*
X289483Y175733D01*
X288573Y176340D01*
X287500Y176554D01*
D02*
G37*
G36*
X227500Y166554D02*
X226427Y166340D01*
X226325Y166272D01*
X225500Y165744D01*
X224675Y166272D01*
X224573Y166340D01*
X223500Y166554D01*
X222427Y166340D01*
X222325Y166272D01*
X221500Y165744D01*
X220675Y166272D01*
X220573Y166340D01*
X219500Y166554D01*
X218427Y166340D01*
X217517Y165733D01*
X216910Y164823D01*
X216696Y163750D01*
X216910Y162677D01*
X217517Y161767D01*
X218427Y161160D01*
X219500Y160946D01*
X220573Y161160D01*
X220675Y161228D01*
X221500Y161756D01*
X222325Y161228D01*
X222427Y161160D01*
X223500Y160946D01*
X224573Y161160D01*
X224675Y161228D01*
X225500Y161756D01*
X226325Y161228D01*
X226427Y161160D01*
X227500Y160946D01*
X228573Y161160D01*
X229482Y161767D01*
X230090Y162677D01*
X230304Y163750D01*
X230090Y164823D01*
X229482Y165733D01*
X228573Y166340D01*
X227500Y166554D01*
D02*
G37*
G36*
X149750Y171054D02*
X148677Y170840D01*
X147767Y170233D01*
X147160Y169323D01*
X146946Y168250D01*
X147160Y167177D01*
X147767Y166267D01*
X148677Y165660D01*
X149750Y165446D01*
X150823Y165660D01*
X151733Y166267D01*
X152340Y167177D01*
X152554Y168250D01*
X152340Y169323D01*
X151733Y170233D01*
X150823Y170840D01*
X149750Y171054D01*
D02*
G37*
G36*
X159250Y175304D02*
X158177Y175091D01*
X157267Y174483D01*
X156660Y173573D01*
X156446Y172500D01*
X156660Y171427D01*
X157074Y170806D01*
X157197Y170125D01*
X157074Y169444D01*
X156660Y168823D01*
X156446Y167750D01*
X156660Y166677D01*
X157267Y165767D01*
X158177Y165160D01*
X159250Y164946D01*
X160323Y165160D01*
X161233Y165767D01*
X161840Y166677D01*
X162054Y167750D01*
X161840Y168823D01*
X161426Y169444D01*
X161303Y170125D01*
X161426Y170806D01*
X161840Y171427D01*
X162054Y172500D01*
X161840Y173573D01*
X161233Y174483D01*
X160323Y175091D01*
X159250Y175304D01*
D02*
G37*
G36*
X62000Y163804D02*
X60927Y163590D01*
X60017Y162983D01*
X59851Y162734D01*
X58649D01*
X58483Y162983D01*
X57573Y163590D01*
X56500Y163804D01*
X55427Y163590D01*
X54517Y162983D01*
X53910Y162073D01*
X53696Y161000D01*
X53910Y159927D01*
X54517Y159017D01*
X55427Y158410D01*
X56500Y158196D01*
X57573Y158410D01*
X58483Y159017D01*
X58649Y159266D01*
X59851D01*
X60017Y159017D01*
X60927Y158410D01*
X62000Y158196D01*
X63073Y158410D01*
X63983Y159017D01*
X64590Y159927D01*
X64804Y161000D01*
X64590Y162073D01*
X63983Y162983D01*
X63073Y163590D01*
X62000Y163804D01*
D02*
G37*
G36*
X128250Y164804D02*
X127177Y164590D01*
X126267Y163983D01*
X125660Y163073D01*
X125446Y162000D01*
X125660Y160927D01*
X126267Y160017D01*
X127177Y159410D01*
X128250Y159196D01*
X129323Y159410D01*
X130232Y160017D01*
X130840Y160927D01*
X131054Y162000D01*
X130840Y163073D01*
X130232Y163983D01*
X129323Y164590D01*
X128250Y164804D01*
D02*
G37*
G36*
X154800Y160304D02*
X153727Y160090D01*
X152817Y159483D01*
X152210Y158573D01*
X151996Y157500D01*
X152210Y156427D01*
X152817Y155517D01*
X153727Y154910D01*
X154800Y154696D01*
X155873Y154910D01*
X156783Y155517D01*
X157390Y156427D01*
X157604Y157500D01*
X157390Y158573D01*
X156783Y159483D01*
X155873Y160090D01*
X154800Y160304D01*
D02*
G37*
G36*
X161050Y158104D02*
X159977Y157890D01*
X159067Y157283D01*
X158460Y156373D01*
X158246Y155300D01*
X158460Y154227D01*
X159067Y153317D01*
X159977Y152710D01*
X161050Y152496D01*
X162123Y152710D01*
X163033Y153317D01*
X163640Y154227D01*
X163854Y155300D01*
X163640Y156373D01*
X163033Y157283D01*
X162123Y157890D01*
X161050Y158104D01*
D02*
G37*
G36*
X190250Y156554D02*
X189177Y156340D01*
X188267Y155733D01*
X187660Y154823D01*
X187446Y153750D01*
X187660Y152677D01*
X188267Y151767D01*
X189177Y151160D01*
X190250Y150946D01*
X191323Y151160D01*
X192233Y151767D01*
X192840Y152677D01*
X193054Y153750D01*
X192840Y154823D01*
X192233Y155733D01*
X191323Y156340D01*
X190250Y156554D01*
D02*
G37*
G36*
X208500Y160554D02*
X207427Y160340D01*
X206517Y159733D01*
X205910Y158823D01*
X205696Y157750D01*
X205910Y156677D01*
X206517Y155767D01*
X207427Y155160D01*
X208500Y154946D01*
X208804Y155007D01*
X208884Y154966D01*
X209573Y154140D01*
X209446Y153500D01*
X209660Y152427D01*
X210267Y151517D01*
X211177Y150910D01*
X212250Y150696D01*
X213323Y150910D01*
X214233Y151517D01*
X214840Y152427D01*
X215054Y153500D01*
X214840Y154573D01*
X214233Y155483D01*
X213323Y156090D01*
X212250Y156304D01*
X211946Y156243D01*
X211866Y156284D01*
X211176Y157110D01*
X211304Y157750D01*
X211090Y158823D01*
X210483Y159733D01*
X209573Y160340D01*
X208500Y160554D01*
D02*
G37*
G36*
X175500Y156304D02*
X174427Y156090D01*
X173517Y155483D01*
X172910Y154573D01*
X172696Y153500D01*
X172910Y152427D01*
X173517Y151517D01*
X174427Y150910D01*
X175500Y150696D01*
X176573Y150910D01*
X177483Y151517D01*
X178090Y152427D01*
X178304Y153500D01*
X178090Y154573D01*
X177483Y155483D01*
X176573Y156090D01*
X175500Y156304D01*
D02*
G37*
G36*
X131000Y155804D02*
X129927Y155590D01*
X129017Y154983D01*
X128410Y154073D01*
X128196Y153000D01*
X128410Y151927D01*
X129017Y151017D01*
X129927Y150410D01*
X131000Y150196D01*
X132073Y150410D01*
X132983Y151017D01*
X133590Y151927D01*
X133804Y153000D01*
X133590Y154073D01*
X132983Y154983D01*
X132073Y155590D01*
X131000Y155804D01*
D02*
G37*
G36*
X198250Y153054D02*
X197177Y152840D01*
X196267Y152233D01*
X195660Y151323D01*
X195446Y150250D01*
X195660Y149177D01*
X196267Y148267D01*
X197177Y147660D01*
X198250Y147446D01*
X199323Y147660D01*
X200233Y148267D01*
X200840Y149177D01*
X201054Y150250D01*
X200840Y151323D01*
X200233Y152233D01*
X199323Y152840D01*
X198250Y153054D01*
D02*
G37*
G36*
X515750Y215804D02*
X514677Y215590D01*
X513767Y214983D01*
X513160Y214073D01*
X512946Y213000D01*
X513160Y211927D01*
X513767Y211017D01*
X514677Y210410D01*
X515750Y210196D01*
X516823Y210410D01*
X517733Y211017D01*
X518340Y211927D01*
X518554Y213000D01*
X518340Y214073D01*
X517733Y214983D01*
X516823Y215590D01*
X515750Y215804D01*
D02*
G37*
G36*
X504750Y213304D02*
X503677Y213090D01*
X502767Y212483D01*
X502160Y211573D01*
X501946Y210500D01*
X502160Y209427D01*
X502767Y208517D01*
X503677Y207910D01*
X504750Y207696D01*
X505823Y207910D01*
X506733Y208517D01*
X507340Y209427D01*
X507554Y210500D01*
X507340Y211573D01*
X506733Y212483D01*
X505823Y213090D01*
X504750Y213304D01*
D02*
G37*
G36*
X491750Y211304D02*
X490677Y211090D01*
X489767Y210483D01*
X489160Y209573D01*
X488946Y208500D01*
X489160Y207427D01*
X489767Y206517D01*
X490677Y205910D01*
X491750Y205696D01*
X492823Y205910D01*
X493733Y206517D01*
X494340Y207427D01*
X494554Y208500D01*
X494340Y209573D01*
X493733Y210483D01*
X492823Y211090D01*
X491750Y211304D01*
D02*
G37*
G36*
X632908Y203054D02*
X631835Y202840D01*
X630925Y202233D01*
X630317Y201323D01*
X630104Y200250D01*
X630317Y199177D01*
X630925Y198267D01*
X631835Y197660D01*
X632908Y197446D01*
X633981Y197660D01*
X634890Y198267D01*
X635498Y199177D01*
X635712Y200250D01*
X635498Y201323D01*
X634890Y202233D01*
X633981Y202840D01*
X632908Y203054D01*
D02*
G37*
G36*
X472297Y201804D02*
X471224Y201590D01*
X470314Y200983D01*
X469707Y200073D01*
X469493Y199000D01*
X469707Y197927D01*
X470314Y197017D01*
X471224Y196410D01*
X472297Y196196D01*
X473370Y196410D01*
X474280Y197017D01*
X474888Y197927D01*
X475101Y199000D01*
X474888Y200073D01*
X474280Y200983D01*
X473370Y201590D01*
X472297Y201804D01*
D02*
G37*
G36*
X438500Y200804D02*
X437427Y200590D01*
X436517Y199983D01*
X435910Y199073D01*
X435696Y198000D01*
X435910Y196927D01*
X436517Y196017D01*
X437427Y195410D01*
X438500Y195196D01*
X439573Y195410D01*
X440483Y196017D01*
X441090Y196927D01*
X441304Y198000D01*
X441090Y199073D01*
X440483Y199983D01*
X439573Y200590D01*
X438500Y200804D01*
D02*
G37*
G36*
X647908Y195804D02*
X646835Y195590D01*
X645925Y194983D01*
X645318Y194073D01*
X645104Y193000D01*
X645318Y191927D01*
X645925Y191017D01*
X646835Y190410D01*
X647908Y190196D01*
X648981Y190410D01*
X649891Y191017D01*
X650498Y191927D01*
X650712Y193000D01*
X650498Y194073D01*
X649891Y194983D01*
X648981Y195590D01*
X647908Y195804D01*
D02*
G37*
G36*
X485658Y194554D02*
X484585Y194340D01*
X483675Y193733D01*
X483067Y192823D01*
X482854Y191750D01*
X483067Y190677D01*
X483675Y189767D01*
X484585Y189160D01*
X485658Y188946D01*
X486731Y189160D01*
X487640Y189767D01*
X488248Y190677D01*
X488462Y191750D01*
X488248Y192823D01*
X487640Y193733D01*
X486731Y194340D01*
X485658Y194554D01*
D02*
G37*
G36*
X455500Y197304D02*
X454427Y197090D01*
X453517Y196483D01*
X452910Y195573D01*
X452696Y194500D01*
X452910Y193427D01*
X453517Y192517D01*
Y191233D01*
X452910Y190323D01*
X452696Y189250D01*
X452854Y188455D01*
X452618Y188075D01*
X452336Y187781D01*
X451864Y187456D01*
X451119Y187604D01*
X450046Y187390D01*
X449137Y186783D01*
X448832Y186327D01*
X448424Y186243D01*
X447427Y186324D01*
X447421Y186327D01*
X446983Y186983D01*
X446073Y187590D01*
X445000Y187804D01*
X443927Y187590D01*
X443017Y186983D01*
X442410Y186073D01*
X442196Y185000D01*
X442410Y183927D01*
X443017Y183017D01*
X443927Y182410D01*
X445000Y182196D01*
X446073Y182410D01*
X446983Y183017D01*
X447287Y183473D01*
X447695Y183557D01*
X448692Y183476D01*
X448698Y183473D01*
X449137Y182817D01*
X450046Y182210D01*
X451119Y181996D01*
X452192Y182210D01*
X453102Y182817D01*
X453710Y183727D01*
X453923Y184800D01*
X453765Y185595D01*
X454001Y185975D01*
X454283Y186269D01*
X454755Y186594D01*
X455500Y186446D01*
X456573Y186660D01*
X457483Y187267D01*
X458090Y188177D01*
X458304Y189250D01*
X458090Y190323D01*
X457483Y191233D01*
Y192517D01*
X458090Y193427D01*
X458304Y194500D01*
X458090Y195573D01*
X457483Y196483D01*
X456573Y197090D01*
X455500Y197304D01*
D02*
G37*
G36*
X577158Y188054D02*
X576085Y187840D01*
X575175Y187233D01*
X574640D01*
X573731Y187840D01*
X572658Y188054D01*
X571585Y187840D01*
X570675Y187233D01*
X570067Y186323D01*
X569854Y185250D01*
X570067Y184177D01*
X570675Y183267D01*
X571585Y182660D01*
X572658Y182446D01*
X573731Y182660D01*
X574640Y183267D01*
X575175D01*
X576085Y182660D01*
X577158Y182446D01*
X577983Y182610D01*
X578592Y182002D01*
X578823Y181581D01*
X578817Y181573D01*
X578604Y180500D01*
X578817Y179427D01*
X579425Y178517D01*
X580335Y177910D01*
X581408Y177696D01*
X582481Y177910D01*
X583390Y178517D01*
X583998Y179427D01*
X584212Y180500D01*
X583998Y181573D01*
X583390Y182483D01*
X582481Y183090D01*
X581408Y183304D01*
X580582Y183140D01*
X579974Y183748D01*
X579743Y184169D01*
X579748Y184177D01*
X579962Y185250D01*
X579748Y186323D01*
X579140Y187233D01*
X578231Y187840D01*
X577158Y188054D01*
D02*
G37*
G36*
X516908Y189804D02*
X515835Y189590D01*
X514925Y188983D01*
X514317Y188073D01*
X514104Y187000D01*
X514317Y185927D01*
X514925Y185017D01*
X515835Y184410D01*
X516908Y184196D01*
X517981Y184410D01*
X518890Y185017D01*
X519498Y185927D01*
X519711Y187000D01*
X519498Y188073D01*
X518890Y188983D01*
X517981Y189590D01*
X516908Y189804D01*
D02*
G37*
G36*
X427000Y188054D02*
X425927Y187840D01*
X425017Y187233D01*
X424409Y186323D01*
X424196Y185250D01*
X424409Y184177D01*
X425017Y183267D01*
X425927Y182660D01*
X427000Y182446D01*
X428073Y182660D01*
X428983Y183267D01*
X429590Y184177D01*
X429804Y185250D01*
X429590Y186323D01*
X428983Y187233D01*
X428073Y187840D01*
X427000Y188054D01*
D02*
G37*
G36*
X720500Y186804D02*
X719427Y186590D01*
X718517Y185983D01*
X717910Y185073D01*
X717696Y184000D01*
X717910Y182927D01*
X718517Y182017D01*
X719427Y181410D01*
X720500Y181196D01*
X721573Y181410D01*
X722483Y182017D01*
X723090Y182927D01*
X723304Y184000D01*
X723090Y185073D01*
X722483Y185983D01*
X721573Y186590D01*
X720500Y186804D01*
D02*
G37*
G36*
X551408Y185854D02*
X550335Y185640D01*
X549425Y185033D01*
X548817Y184123D01*
X548604Y183050D01*
X548817Y181977D01*
X549425Y181067D01*
X550335Y180460D01*
X551408Y180246D01*
X552481Y180460D01*
X553391Y181067D01*
X553998Y181977D01*
X554212Y183050D01*
X553998Y184123D01*
X553391Y185033D01*
X552481Y185640D01*
X551408Y185854D01*
D02*
G37*
G36*
X497658Y185054D02*
X496585Y184840D01*
X495675Y184233D01*
X495067Y183323D01*
X494854Y182250D01*
X495067Y181177D01*
X495675Y180267D01*
X496585Y179660D01*
X497658Y179446D01*
X498731Y179660D01*
X499640Y180267D01*
X500248Y181177D01*
X500462Y182250D01*
X500248Y183323D01*
X499640Y184233D01*
X498731Y184840D01*
X497658Y185054D01*
D02*
G37*
G36*
X625658Y186554D02*
X624585Y186340D01*
X623675Y185733D01*
X623067Y184823D01*
X622854Y183750D01*
X623067Y182677D01*
X623101Y182626D01*
X623604Y181625D01*
X623101Y180623D01*
X623067Y180573D01*
X622854Y179500D01*
X623067Y178427D01*
X623675Y177517D01*
X624585Y176910D01*
X625658Y176696D01*
X626731Y176910D01*
X627640Y177517D01*
X628248Y178427D01*
X628462Y179500D01*
X628248Y180573D01*
X628214Y180623D01*
X627712Y181625D01*
X628214Y182626D01*
X628248Y182677D01*
X628462Y183750D01*
X628248Y184823D01*
X627640Y185733D01*
X626731Y186340D01*
X625658Y186554D01*
D02*
G37*
G36*
X442250Y180304D02*
X441177Y180090D01*
X440267Y179482D01*
X439660Y178573D01*
X439551Y178028D01*
X438750Y177054D01*
X437677Y176840D01*
X436767Y176233D01*
X436160Y175323D01*
X435946Y174250D01*
X436160Y173177D01*
X436767Y172267D01*
X437677Y171660D01*
X438750Y171446D01*
X439823Y171660D01*
X440733Y172267D01*
X441340Y173177D01*
X441449Y173722D01*
X442250Y174696D01*
X443323Y174909D01*
X444233Y175517D01*
X444840Y176427D01*
X445054Y177500D01*
X444840Y178573D01*
X444233Y179482D01*
X443323Y180090D01*
X442250Y180304D01*
D02*
G37*
G36*
X483158Y179874D02*
X476658D01*
X476426Y179778D01*
X474896Y179576D01*
X473254Y178896D01*
X471843Y177814D01*
X470761Y176404D01*
X470081Y174762D01*
X469880Y173231D01*
X469784Y173000D01*
Y166846D01*
X469882Y166610D01*
X470077Y165124D01*
X470742Y163519D01*
X471799Y162142D01*
X473177Y161084D01*
X474781Y160420D01*
X476267Y160224D01*
X476503Y160126D01*
X476634Y160180D01*
X478762Y159900D01*
X480867Y159029D01*
X482674Y157642D01*
X484061Y155834D01*
X484933Y153730D01*
X485170Y151925D01*
X485099Y151788D01*
X484583Y151250D01*
X483889Y150984D01*
X483532Y151054D01*
X482459Y150841D01*
X481550Y150233D01*
X480942Y149324D01*
X480728Y148251D01*
X480942Y147178D01*
X481550Y146268D01*
X482459Y145660D01*
X483532Y145447D01*
X484319Y145603D01*
X484613Y145656D01*
X485891Y144992D01*
X486579Y143330D01*
X487407Y142251D01*
X487075Y141527D01*
X486736Y141039D01*
X485789Y140851D01*
X484880Y140243D01*
X484272Y139334D01*
X484058Y138261D01*
X484272Y137188D01*
X484880Y136278D01*
X485789Y135670D01*
X486862Y135457D01*
X487935Y135670D01*
X488845Y136278D01*
X489453Y137188D01*
X489606Y137959D01*
X490466Y138389D01*
X490902Y138460D01*
X492260Y137102D01*
X492402Y137043D01*
X494281Y134754D01*
X495744Y132016D01*
X496645Y129045D01*
X496935Y126098D01*
X496876Y125956D01*
Y87000D01*
X496901Y86940D01*
X497318Y83772D01*
X498564Y80765D01*
X500509Y78230D01*
X500534Y78170D01*
X500602Y78102D01*
X500737Y78046D01*
X501631Y76708D01*
X501907Y75317D01*
X501656Y74906D01*
X501618Y74863D01*
X500619Y74377D01*
X500182Y74464D01*
X499109Y74250D01*
X498200Y73643D01*
X497592Y72733D01*
X497379Y71660D01*
X497592Y70587D01*
X498200Y69678D01*
X499109Y69070D01*
X500182Y68856D01*
X500619Y68943D01*
X501889Y68082D01*
Y64192D01*
X501887Y64186D01*
X501858Y64121D01*
X501819Y64049D01*
X501769Y63970D01*
X501704Y63884D01*
X501624Y63791D01*
X501509Y63672D01*
X501460Y63549D01*
X500922Y62743D01*
X500839Y62326D01*
X500830Y62280D01*
X499535D01*
X499526Y62326D01*
X499443Y62743D01*
X498835Y63653D01*
X497925Y64260D01*
X496852Y64474D01*
X495779Y64260D01*
X494870Y63653D01*
X494262Y62743D01*
X494049Y61670D01*
X494262Y60597D01*
X494870Y59687D01*
X495779Y59080D01*
X496852Y58866D01*
X497925Y59080D01*
X498835Y59687D01*
X499443Y60597D01*
X499526Y61013D01*
X499535Y61060D01*
X500830D01*
X500839Y61014D01*
X500922Y60597D01*
X501530Y59687D01*
X502439Y59080D01*
X503512Y58866D01*
X504585Y59080D01*
X505495Y59687D01*
X506103Y60597D01*
X506316Y61670D01*
X506103Y62743D01*
X505565Y63549D01*
X505516Y63672D01*
X505401Y63791D01*
X505321Y63884D01*
X505256Y63970D01*
X505205Y64049D01*
X505167Y64121D01*
X505138Y64185D01*
X505136Y64192D01*
Y74995D01*
X505050Y75203D01*
X504819Y76957D01*
X504062Y78786D01*
X503526Y79484D01*
X502926Y80331D01*
X502898Y80398D01*
X502830Y80466D01*
X502018Y81400D01*
X501296Y82342D01*
X500365Y84589D01*
X500066Y86860D01*
X500124Y87000D01*
Y125956D01*
X500081Y126058D01*
X499727Y129658D01*
X498647Y133218D01*
X496893Y136499D01*
X494598Y139296D01*
X494556Y139398D01*
X490491Y143462D01*
X490386Y143506D01*
X489836Y144223D01*
X489981Y144723D01*
X490457Y145499D01*
X491265Y145660D01*
X492175Y146268D01*
X492783Y147178D01*
X492996Y148251D01*
X494161Y148904D01*
X494595Y148990D01*
X495505Y149598D01*
X496113Y150508D01*
X496326Y151581D01*
X496113Y152654D01*
X495505Y153563D01*
X494595Y154171D01*
X493522Y154384D01*
X492449Y154171D01*
X491540Y153563D01*
X490932Y152654D01*
X490718Y151581D01*
X489630Y150970D01*
X488993Y151231D01*
X488529Y151596D01*
X488335Y151844D01*
X487979Y154546D01*
X486792Y157411D01*
X484904Y159872D01*
X482444Y161760D01*
X479578Y162947D01*
X476581Y163341D01*
X476503Y163374D01*
X476398Y163330D01*
X475150Y163578D01*
X474002Y164345D01*
X473236Y165492D01*
X472988Y166740D01*
X473031Y166846D01*
Y173000D01*
X472985Y173110D01*
X473245Y174414D01*
X474046Y175612D01*
X475244Y176413D01*
X476548Y176672D01*
X476658Y176626D01*
X483158D01*
X483236Y176659D01*
X484181Y176471D01*
X485049Y175891D01*
X485629Y175023D01*
X485817Y174078D01*
X485784Y174000D01*
Y173500D01*
X485824Y173404D01*
X486212Y171451D01*
X487373Y169715D01*
X489109Y168554D01*
X491062Y168166D01*
X491158Y168126D01*
X496686D01*
X496692Y168124D01*
X496757Y168096D01*
X496828Y168057D01*
X496907Y168006D01*
X496994Y167941D01*
X497086Y167862D01*
X497206Y167746D01*
X497329Y167698D01*
X498135Y167160D01*
X499208Y166946D01*
X500281Y167160D01*
X501190Y167767D01*
X501798Y168677D01*
X502011Y169750D01*
X501798Y170823D01*
X501559Y171180D01*
X501714Y171652D01*
X502229Y172450D01*
X503031Y172610D01*
X503940Y173217D01*
X504548Y174127D01*
X504762Y175200D01*
X504548Y176273D01*
X503940Y177183D01*
X503031Y177790D01*
X501958Y178004D01*
X500885Y177790D01*
X499975Y177183D01*
X499367Y176273D01*
X499154Y175200D01*
X499367Y174127D01*
X499606Y173769D01*
X499452Y173298D01*
X498937Y172500D01*
X498135Y172340D01*
X497329Y171802D01*
X497206Y171754D01*
X497086Y171638D01*
X496994Y171559D01*
X496907Y171494D01*
X496828Y171443D01*
X496757Y171404D01*
X496692Y171376D01*
X496686Y171374D01*
X491158D01*
X491096Y171348D01*
X490329Y171500D01*
X489627Y171969D01*
X489158Y172672D01*
X489006Y173438D01*
X489031Y173500D01*
Y174000D01*
X489010Y174051D01*
X488574Y176243D01*
X487303Y178146D01*
X485401Y179416D01*
X483209Y179853D01*
X483158Y179874D01*
D02*
G37*
G36*
X463000Y201054D02*
X461927Y200840D01*
X461017Y200233D01*
X460410Y199323D01*
X460196Y198250D01*
X460410Y197177D01*
X460948Y196371D01*
X460996Y196248D01*
X461112Y196129D01*
X461191Y196036D01*
X461256Y195950D01*
X461307Y195871D01*
X461346Y195799D01*
X461374Y195735D01*
X461376Y195728D01*
Y183265D01*
X457760Y179648D01*
X457284Y178500D01*
Y171272D01*
X457282Y171266D01*
X457253Y171201D01*
X457215Y171129D01*
X457164Y171050D01*
X457099Y170964D01*
X457019Y170871D01*
X456904Y170752D01*
X456856Y170629D01*
X456317Y169823D01*
X456104Y168750D01*
X456317Y167677D01*
X456925Y166767D01*
X457835Y166160D01*
X458908Y165946D01*
X459981Y166160D01*
X460890Y166767D01*
X461498Y167677D01*
X461711Y168750D01*
X461498Y169823D01*
X460960Y170629D01*
X460911Y170752D01*
X460796Y170871D01*
X460716Y170964D01*
X460652Y171050D01*
X460601Y171129D01*
X460562Y171201D01*
X460533Y171266D01*
X460531Y171272D01*
Y177827D01*
X464148Y181444D01*
X464624Y182592D01*
Y195728D01*
X464626Y195735D01*
X464654Y195799D01*
X464693Y195871D01*
X464744Y195950D01*
X464809Y196036D01*
X464888Y196129D01*
X465004Y196248D01*
X465052Y196371D01*
X465590Y197177D01*
X465804Y198250D01*
X465590Y199323D01*
X464983Y200233D01*
X464073Y200840D01*
X463000Y201054D01*
D02*
G37*
G36*
X451658Y170691D02*
X450585Y170477D01*
X449675Y169869D01*
X449067Y168960D01*
X448854Y167887D01*
X449067Y166814D01*
X449675Y165904D01*
X450585Y165296D01*
X451658Y165083D01*
X452731Y165296D01*
X453640Y165904D01*
X454248Y166814D01*
X454462Y167887D01*
X454248Y168960D01*
X453640Y169869D01*
X452731Y170477D01*
X451658Y170691D01*
D02*
G37*
G36*
X478908Y175304D02*
X477835Y175090D01*
X476925Y174483D01*
X476317Y173573D01*
X476104Y172500D01*
X476317Y171427D01*
X476925Y170517D01*
Y169733D01*
X476317Y168823D01*
X476104Y167750D01*
X476317Y166677D01*
X476925Y165767D01*
X477835Y165160D01*
X478908Y164946D01*
X479981Y165160D01*
X480890Y165767D01*
X481498Y166677D01*
X481712Y167750D01*
X481498Y168823D01*
X480890Y169733D01*
Y170517D01*
X481498Y171427D01*
X481712Y172500D01*
X481498Y173573D01*
X480890Y174483D01*
X479981Y175090D01*
X478908Y175304D01*
D02*
G37*
G36*
X571408Y168730D02*
X570335Y168517D01*
X569425Y167909D01*
X568817Y166999D01*
X568604Y165926D01*
X568817Y164853D01*
X569425Y163943D01*
X570335Y163336D01*
X571408Y163122D01*
X572481Y163336D01*
X573390Y163943D01*
X573998Y164853D01*
X574212Y165926D01*
X573998Y166999D01*
X573390Y167909D01*
X572481Y168517D01*
X571408Y168730D01*
D02*
G37*
G36*
X423500Y166554D02*
X422427Y166340D01*
X421517Y165733D01*
X420910Y164823D01*
X420696Y163750D01*
X420910Y162677D01*
X421517Y161767D01*
X422427Y161160D01*
X423500Y160946D01*
X424573Y161160D01*
X425483Y161767D01*
X426090Y162677D01*
X426304Y163750D01*
X426090Y164823D01*
X425483Y165733D01*
X424573Y166340D01*
X423500Y166554D01*
D02*
G37*
G36*
X553463Y167705D02*
X552390Y167491D01*
X551480Y166883D01*
X550872Y165974D01*
X550659Y164901D01*
X550133Y164375D01*
X549060Y164161D01*
X548150Y163553D01*
X547542Y162644D01*
X547329Y161571D01*
X547542Y160498D01*
X548150Y159588D01*
X549060Y158980D01*
X550133Y158767D01*
X551206Y158980D01*
X552115Y159588D01*
X552723Y160498D01*
X552937Y161571D01*
X553463Y162097D01*
X554536Y162310D01*
X555445Y162918D01*
X556053Y163828D01*
X556267Y164901D01*
X556053Y165974D01*
X555445Y166883D01*
X554536Y167491D01*
X553463Y167705D01*
D02*
G37*
G36*
X500182Y161045D02*
X499109Y160831D01*
X498200Y160223D01*
X497592Y159314D01*
X497379Y158241D01*
X497592Y157168D01*
X498200Y156258D01*
X499109Y155650D01*
X500182Y155437D01*
X501255Y155650D01*
X502165Y156258D01*
X502773Y157168D01*
X502986Y158241D01*
X502773Y159314D01*
X502165Y160223D01*
X501255Y160831D01*
X500182Y161045D01*
D02*
G37*
G36*
X403167Y159054D02*
X402094Y158840D01*
X401185Y158233D01*
X400577Y157323D01*
X400363Y156250D01*
X400577Y155177D01*
X401185Y154267D01*
X402094Y153660D01*
X403167Y153446D01*
X404240Y153660D01*
X405150Y154267D01*
X405758Y155177D01*
X405971Y156250D01*
X405758Y157323D01*
X405150Y158233D01*
X404240Y158840D01*
X403167Y159054D01*
D02*
G37*
G36*
X327000Y158804D02*
X325927Y158590D01*
X325018Y157983D01*
X324410Y157073D01*
X324196Y156000D01*
X324410Y154927D01*
X325018Y154017D01*
X325927Y153410D01*
X327000Y153196D01*
X328073Y153410D01*
X328983Y154017D01*
X329590Y154927D01*
X329804Y156000D01*
X329590Y157073D01*
X328983Y157983D01*
X328073Y158590D01*
X327000Y158804D01*
D02*
G37*
G36*
X526823Y167705D02*
X525750Y167491D01*
X524840Y166883D01*
X524232Y165974D01*
X524019Y164901D01*
X524232Y163828D01*
X524840Y162918D01*
X525750Y162310D01*
X526823Y162097D01*
X527349Y161571D01*
X527562Y160498D01*
X528170Y159588D01*
X529080Y158980D01*
X529496Y158897D01*
X529543Y158888D01*
Y157593D01*
X529496Y157584D01*
X529080Y157501D01*
X528170Y156893D01*
X527562Y155984D01*
X527476Y155549D01*
X527012Y154722D01*
X526184Y154257D01*
X525750Y154171D01*
X524840Y153563D01*
X524232Y152654D01*
X524146Y152219D01*
X524129Y152190D01*
X522845D01*
X522753Y152654D01*
X522145Y153563D01*
X521236Y154171D01*
X520163Y154384D01*
X519090Y154171D01*
X518180Y153563D01*
X517572Y152654D01*
X517480Y152190D01*
X516185D01*
X516093Y152654D01*
X515485Y153563D01*
X514576Y154171D01*
X514159Y154254D01*
X514112Y154263D01*
Y155558D01*
X514159Y155567D01*
X514576Y155650D01*
X515485Y156258D01*
X516093Y157168D01*
X516306Y158241D01*
X516093Y159314D01*
X515485Y160223D01*
X514576Y160831D01*
X513503Y161045D01*
X512430Y160831D01*
X511520Y160223D01*
X510912Y159314D01*
X510699Y158241D01*
X510912Y157168D01*
X511520Y156258D01*
X512430Y155650D01*
X512846Y155567D01*
X512893Y155558D01*
Y154263D01*
X512846Y154254D01*
X512430Y154171D01*
X511520Y153563D01*
X510912Y152654D01*
X510699Y151581D01*
X510912Y150508D01*
X511520Y149598D01*
X512430Y148990D01*
X512864Y148904D01*
X514029Y148251D01*
X514242Y147178D01*
X514850Y146268D01*
X515760Y145660D01*
X516833Y145447D01*
X517906Y145660D01*
X518815Y146268D01*
X519423Y147178D01*
X519515Y147641D01*
X520810D01*
X520902Y147178D01*
X521510Y146268D01*
X522420Y145660D01*
X523493Y145447D01*
X524566Y145660D01*
X525475Y146268D01*
X526083Y147178D01*
X526169Y147612D01*
X526634Y148440D01*
X527461Y148904D01*
X527896Y148990D01*
X528805Y149598D01*
X529413Y150508D01*
X529499Y150942D01*
X529964Y151770D01*
X530791Y152234D01*
X531226Y152320D01*
X532135Y152928D01*
X532743Y153838D01*
X532956Y154911D01*
X532743Y155984D01*
X532135Y156893D01*
X531226Y157501D01*
X530809Y157584D01*
X530762Y157593D01*
Y158888D01*
X530809Y158897D01*
X531226Y158980D01*
X532135Y159588D01*
X532743Y160498D01*
X532956Y161571D01*
X532743Y162644D01*
X532135Y163553D01*
X531226Y164161D01*
X530153Y164375D01*
X529626Y164901D01*
X529413Y165974D01*
X528805Y166883D01*
X527896Y167491D01*
X526823Y167705D01*
D02*
G37*
G36*
X585759Y154195D02*
X584686Y153982D01*
X583777Y153374D01*
X583169Y152465D01*
X582955Y151391D01*
X583169Y150318D01*
X583777Y149409D01*
X584686Y148801D01*
X585759Y148588D01*
X586832Y148801D01*
X587742Y149409D01*
X588349Y150318D01*
X588563Y151391D01*
X588349Y152465D01*
X587742Y153374D01*
X586832Y153982D01*
X585759Y154195D01*
D02*
G37*
G36*
X566783Y154384D02*
X565710Y154171D01*
X564800Y153563D01*
X564192Y152653D01*
X563979Y151580D01*
X564192Y150507D01*
X564800Y149598D01*
X565710Y148990D01*
X566126Y148907D01*
X566173Y148898D01*
Y147603D01*
X566126Y147594D01*
X565710Y147511D01*
X564908Y146975D01*
X564784Y146927D01*
X564676Y146823D01*
X564595Y146755D01*
X564520Y146701D01*
X564449Y146657D01*
X564383Y146623D01*
X564320Y146597D01*
X564260Y146578D01*
X564199Y146565D01*
X564137Y146557D01*
X564026Y146552D01*
X563916Y146501D01*
X562662D01*
X562460Y146802D01*
X561633Y147355D01*
X560748Y147531D01*
X560595Y147590D01*
X559597Y148251D01*
X559383Y149324D01*
X558775Y150233D01*
X557866Y150841D01*
X556793Y151054D01*
X555720Y150841D01*
X554810Y150233D01*
X554202Y149324D01*
X553989Y148251D01*
X554202Y147178D01*
X554810Y146268D01*
X555720Y145660D01*
X555924Y145620D01*
X555969Y145580D01*
X556464Y144217D01*
X556303Y143975D01*
X556109Y143000D01*
Y110963D01*
X547444Y102299D01*
X532250D01*
X531274Y102105D01*
X530448Y101552D01*
X528448Y99552D01*
X527895Y98726D01*
X527701Y97750D01*
Y83806D01*
X525694Y81799D01*
X519250D01*
X518275Y81605D01*
X517448Y81052D01*
X513948Y77552D01*
X513395Y76726D01*
X513201Y75750D01*
Y71025D01*
X512752Y70719D01*
X511931Y70462D01*
X511245Y70921D01*
X510173Y71134D01*
X509100Y70921D01*
X508190Y70313D01*
X507582Y69403D01*
X507369Y68330D01*
X507582Y67257D01*
X508190Y66347D01*
X509100Y65740D01*
X510173Y65526D01*
X510699Y65000D01*
X510912Y63927D01*
X511520Y63017D01*
X512430Y62410D01*
X513503Y62196D01*
X514438Y61207D01*
X514509Y60364D01*
X508444Y54299D01*
X493500D01*
X492524Y54105D01*
X491698Y53552D01*
X486694Y48549D01*
X473000D01*
X472025Y48355D01*
X471198Y47802D01*
X468652Y45256D01*
X468099Y44429D01*
X467905Y43454D01*
Y41681D01*
X467863Y41619D01*
X467650Y40546D01*
X467863Y39473D01*
X468471Y38563D01*
X469381Y37956D01*
X470454Y37742D01*
X471527Y37956D01*
X472436Y38563D01*
X473044Y39473D01*
X473258Y40546D01*
X473044Y41619D01*
X473003Y41681D01*
Y42398D01*
X474056Y43451D01*
X487750D01*
X488725Y43645D01*
X489552Y44198D01*
X494556Y49201D01*
X509500D01*
X510476Y49395D01*
X511302Y49948D01*
X519555Y58200D01*
X520107Y59027D01*
X520302Y60002D01*
Y67747D01*
X520107Y68723D01*
X519555Y69550D01*
X518299Y70806D01*
Y74694D01*
X520306Y76701D01*
X526750D01*
X527725Y76895D01*
X528552Y77448D01*
X532052Y80948D01*
X532605Y81775D01*
X532799Y82750D01*
Y96694D01*
X533306Y97201D01*
X548500D01*
X549476Y97395D01*
X550302Y97948D01*
X560460Y108105D01*
X561013Y108932D01*
X561207Y109908D01*
Y131596D01*
X562255Y132261D01*
X563535Y131980D01*
X564106Y130962D01*
X564192Y130527D01*
X564800Y129618D01*
X565710Y129010D01*
X566783Y128797D01*
X567309Y128270D01*
X567522Y127197D01*
X568130Y126288D01*
X569040Y125680D01*
X569456Y125597D01*
X569503Y125588D01*
Y124293D01*
X569456Y124284D01*
X569040Y124201D01*
X568130Y123593D01*
X567522Y122683D01*
X567309Y121610D01*
X567522Y120537D01*
X568130Y119628D01*
X569040Y119020D01*
X570113Y118806D01*
X571186Y119020D01*
X572095Y119628D01*
X572703Y120537D01*
X572917Y121610D01*
X572703Y122683D01*
X572095Y123593D01*
X571186Y124201D01*
X570769Y124284D01*
X570723Y124293D01*
Y125588D01*
X570769Y125597D01*
X571186Y125680D01*
X572095Y126288D01*
X572703Y127197D01*
X572917Y128270D01*
X572703Y129343D01*
X572095Y130253D01*
X571186Y130861D01*
X570113Y131074D01*
X569587Y131600D01*
X569373Y132673D01*
X568765Y133583D01*
X567856Y134191D01*
X566783Y134404D01*
X566130Y135569D01*
X566043Y136003D01*
X565435Y136913D01*
X564526Y137521D01*
X564063Y137613D01*
Y138908D01*
X564526Y139000D01*
X565435Y139608D01*
X566043Y140517D01*
X566257Y141590D01*
X566783Y142117D01*
X567856Y142330D01*
X568765Y142938D01*
X569373Y143847D01*
X569456Y144264D01*
X569465Y144311D01*
X570760D01*
X570770Y144264D01*
X570852Y143847D01*
X571460Y142938D01*
X572370Y142330D01*
X572786Y142247D01*
X572833Y142238D01*
Y140943D01*
X572786Y140934D01*
X572370Y140851D01*
X571460Y140243D01*
X570852Y139333D01*
X570639Y138260D01*
X570852Y137187D01*
X571460Y136278D01*
X572370Y135670D01*
X573443Y135456D01*
X573969Y134930D01*
X574182Y133857D01*
X574790Y132948D01*
X575700Y132340D01*
X576773Y132127D01*
X577846Y132340D01*
X578755Y132948D01*
X579363Y133857D01*
X579577Y134930D01*
X579363Y136003D01*
X578755Y136913D01*
X577846Y137521D01*
X576773Y137734D01*
X576247Y138260D01*
X576033Y139333D01*
X575425Y140243D01*
X574516Y140851D01*
X574099Y140934D01*
X574053Y140943D01*
Y142238D01*
X574099Y142247D01*
X574516Y142330D01*
X575425Y142938D01*
X576033Y143847D01*
X576247Y144920D01*
X576033Y145993D01*
X575425Y146903D01*
X574516Y147511D01*
X573443Y147724D01*
X572370Y147511D01*
X571460Y146903D01*
X570852Y145993D01*
X570770Y145577D01*
X570760Y145530D01*
X569465D01*
X569456Y145577D01*
X569373Y145993D01*
X568765Y146903D01*
X567856Y147511D01*
X567439Y147594D01*
X567393Y147603D01*
Y148898D01*
X567439Y148907D01*
X567856Y148990D01*
X568765Y149598D01*
X569373Y150507D01*
X569587Y151580D01*
X569373Y152653D01*
X568765Y153563D01*
X567856Y154171D01*
X566783Y154384D01*
D02*
G37*
G36*
X503512Y151054D02*
X502439Y150841D01*
X501530Y150233D01*
X500922Y149324D01*
X500709Y148251D01*
X500922Y147178D01*
X501530Y146268D01*
X502439Y145660D01*
X503512Y145447D01*
X504585Y145660D01*
X505495Y146268D01*
X506103Y147178D01*
X506316Y148251D01*
X506103Y149324D01*
X505495Y150233D01*
X504585Y150841D01*
X503512Y151054D01*
D02*
G37*
G36*
X425750Y147054D02*
X424677Y146840D01*
X423767Y146233D01*
X423160Y145323D01*
X422946Y144250D01*
X423160Y143177D01*
X423767Y142267D01*
X424677Y141660D01*
X425750Y141446D01*
X426823Y141660D01*
X427733Y142267D01*
X428340Y143177D01*
X428554Y144250D01*
X428340Y145323D01*
X427733Y146233D01*
X426823Y146840D01*
X425750Y147054D01*
D02*
G37*
G36*
X628658Y151054D02*
X627585Y150840D01*
X626675Y150233D01*
X626067Y149323D01*
X625854Y148250D01*
X626067Y147177D01*
X626217Y146954D01*
X626575Y146000D01*
X626217Y145046D01*
X626067Y144823D01*
X625854Y143750D01*
X626067Y142677D01*
X626675Y141767D01*
X627585Y141159D01*
X628658Y140946D01*
X629731Y141159D01*
X630640Y141767D01*
X631248Y142677D01*
X631462Y143750D01*
X631248Y144823D01*
X631099Y145046D01*
X630741Y146000D01*
X631099Y146954D01*
X631248Y147177D01*
X631462Y148250D01*
X631248Y149323D01*
X630640Y150233D01*
X629731Y150840D01*
X628658Y151054D01*
D02*
G37*
G36*
X584408Y145554D02*
X583335Y145340D01*
X582425Y144733D01*
X581817Y143823D01*
X581604Y142750D01*
X581817Y141677D01*
X582425Y140767D01*
X583335Y140160D01*
X584408Y139946D01*
X585481Y140160D01*
X586390Y140767D01*
X586998Y141677D01*
X587212Y142750D01*
X586998Y143823D01*
X586390Y144733D01*
X585481Y145340D01*
X584408Y145554D01*
D02*
G37*
G36*
X307938Y148853D02*
X306865Y148640D01*
X305956Y148032D01*
X305348Y147122D01*
X305134Y146049D01*
X305348Y144976D01*
X305956Y144066D01*
X306865Y143459D01*
X307410Y142323D01*
X307196Y141250D01*
X307410Y140177D01*
X308017Y139267D01*
X308927Y138660D01*
X310000Y138446D01*
X311073Y138660D01*
X311983Y139267D01*
X312590Y140177D01*
X312804Y141250D01*
X312590Y142323D01*
X311983Y143233D01*
X311073Y143840D01*
X310529Y144976D01*
X310742Y146049D01*
X310529Y147122D01*
X309921Y148032D01*
X309011Y148640D01*
X307938Y148853D01*
D02*
G37*
G36*
X641458Y139304D02*
X640385Y139090D01*
X639475Y138483D01*
X639284Y138196D01*
X637786Y138152D01*
X637733Y138233D01*
X636823Y138840D01*
X635750Y139054D01*
X634677Y138840D01*
X633767Y138233D01*
X633160Y137323D01*
X632946Y136250D01*
X633160Y135177D01*
X633767Y134267D01*
X634677Y133660D01*
X635750Y133446D01*
X636823Y133660D01*
X637733Y134267D01*
X637924Y134553D01*
X639422Y134598D01*
X639475Y134517D01*
X640385Y133910D01*
X641458Y133696D01*
X642531Y133910D01*
X643441Y134517D01*
X644048Y135427D01*
X644262Y136500D01*
X644048Y137573D01*
X643441Y138483D01*
X642531Y139090D01*
X641458Y139304D01*
D02*
G37*
G36*
X656658Y141304D02*
X655585Y141090D01*
X654675Y140483D01*
X654067Y139573D01*
X653942Y138945D01*
X653736Y138451D01*
X652657Y138004D01*
X652408Y138054D01*
X651335Y137840D01*
X650425Y137233D01*
X649817Y136323D01*
X649604Y135250D01*
X649817Y134177D01*
X650425Y133267D01*
X651335Y132660D01*
X652408Y132446D01*
X653481Y132660D01*
X654390Y133267D01*
X654998Y134177D01*
X655123Y134805D01*
X655329Y135299D01*
X656408Y135746D01*
X656658Y135696D01*
X657731Y135910D01*
X658640Y136517D01*
X659248Y137427D01*
X659462Y138500D01*
X659248Y139573D01*
X658640Y140483D01*
X657731Y141090D01*
X656658Y141304D01*
D02*
G37*
G36*
X287700Y141504D02*
X286627Y141290D01*
X285717Y140683D01*
X285110Y139773D01*
X284896Y138700D01*
X285110Y137627D01*
X285717Y136717D01*
X286627Y136110D01*
X287700Y135896D01*
X288773Y136110D01*
X289683Y136717D01*
X290290Y137627D01*
X290504Y138700D01*
X290290Y139773D01*
X289683Y140683D01*
X288773Y141290D01*
X287700Y141504D01*
D02*
G37*
G36*
X435958Y141104D02*
X434885Y140890D01*
X433975Y140283D01*
X433367Y139373D01*
X433154Y138300D01*
X433367Y137227D01*
X433975Y136317D01*
X434885Y135709D01*
X435958Y135496D01*
X437031Y135709D01*
X437940Y136317D01*
X438548Y137227D01*
X438762Y138300D01*
X438548Y139373D01*
X437940Y140283D01*
X437031Y140890D01*
X435958Y141104D01*
D02*
G37*
G36*
X451908Y140554D02*
X450835Y140340D01*
X449925Y139733D01*
X449317Y138823D01*
X449104Y137750D01*
X449317Y136677D01*
X449925Y135767D01*
X450835Y135160D01*
X451908Y134946D01*
X452981Y135160D01*
X453890Y135767D01*
X454498Y136677D01*
X454712Y137750D01*
X454498Y138823D01*
X453890Y139733D01*
X452981Y140340D01*
X451908Y140554D01*
D02*
G37*
G36*
X21750Y140804D02*
X20677Y140590D01*
X19767Y139983D01*
X19160Y139073D01*
X18946Y138000D01*
X19160Y136927D01*
X19310Y136702D01*
X19667Y135749D01*
X19310Y134796D01*
X19160Y134570D01*
X18946Y133497D01*
X19160Y132424D01*
X19767Y131515D01*
X20677Y130907D01*
X21750Y130694D01*
X22823Y130907D01*
X23733Y131515D01*
X24341Y132424D01*
X24554Y133497D01*
X24341Y134570D01*
X24190Y134796D01*
X23833Y135749D01*
X24190Y136702D01*
X24341Y136927D01*
X24554Y138000D01*
X24341Y139073D01*
X23733Y139983D01*
X22823Y140590D01*
X21750Y140804D01*
D02*
G37*
G36*
X466132Y134954D02*
X465059Y134740D01*
X464149Y134133D01*
X463541Y133223D01*
X463328Y132150D01*
X463541Y131077D01*
X464149Y130167D01*
X465059Y129559D01*
X466132Y129346D01*
X467205Y129559D01*
X468114Y130167D01*
X468722Y131077D01*
X468936Y132150D01*
X468722Y133223D01*
X468114Y134133D01*
X467205Y134740D01*
X466132Y134954D01*
D02*
G37*
G36*
X696250Y134554D02*
X695177Y134340D01*
X694267Y133733D01*
X693660Y132823D01*
X693446Y131750D01*
X693660Y130677D01*
X694267Y129768D01*
X695177Y129160D01*
X696250Y128946D01*
X697323Y129160D01*
X698233Y129768D01*
X698840Y130677D01*
X699054Y131750D01*
X698840Y132823D01*
X698233Y133733D01*
X697323Y134340D01*
X696250Y134554D01*
D02*
G37*
G36*
X381667Y137804D02*
X380594Y137590D01*
X379685Y136983D01*
X379077Y136073D01*
X378863Y135000D01*
X379077Y133927D01*
X379457Y133358D01*
X379599Y132500D01*
X379457Y131642D01*
X379077Y131073D01*
X378863Y130000D01*
X379077Y128927D01*
X379685Y128017D01*
X380594Y127410D01*
X381667Y127196D01*
X382740Y127410D01*
X383650Y128017D01*
X384258Y128927D01*
X384471Y130000D01*
X384258Y131073D01*
X383877Y131642D01*
X383736Y132500D01*
X383877Y133358D01*
X384258Y133927D01*
X384471Y135000D01*
X384258Y136073D01*
X383650Y136983D01*
X382740Y137590D01*
X381667Y137804D01*
D02*
G37*
G36*
X371667Y132804D02*
X370594Y132590D01*
X369685Y131983D01*
X369077Y131073D01*
X368863Y130000D01*
X369077Y128927D01*
X369685Y128017D01*
X370594Y127410D01*
X371667Y127196D01*
X372740Y127410D01*
X373650Y128017D01*
X374258Y128927D01*
X374471Y130000D01*
X374258Y131073D01*
X373650Y131983D01*
X372740Y132590D01*
X371667Y132804D01*
D02*
G37*
G36*
X361750Y127554D02*
X360677Y127340D01*
X359767Y126733D01*
X359140D01*
X358231Y127340D01*
X357158Y127554D01*
X356085Y127340D01*
X355175Y126733D01*
X354567Y125823D01*
X354354Y124750D01*
X354567Y123677D01*
X355175Y122767D01*
X356085Y122160D01*
X357158Y121946D01*
X358231Y122160D01*
X358311Y122213D01*
X359227Y121298D01*
X359077Y121073D01*
X358863Y120000D01*
X359077Y118927D01*
X359685Y118017D01*
X360594Y117410D01*
X361667Y117196D01*
X362740Y117410D01*
X363650Y118017D01*
X364258Y118927D01*
X364471Y120000D01*
X364258Y121073D01*
X363925Y121571D01*
X363733Y122767D01*
X364340Y123677D01*
X364554Y124750D01*
X364340Y125823D01*
X363733Y126733D01*
X362823Y127340D01*
X361750Y127554D01*
D02*
G37*
G36*
X139375Y128679D02*
X138302Y128465D01*
X137392Y127858D01*
X136785Y126948D01*
X136571Y125875D01*
X136785Y124802D01*
X137392Y123892D01*
X138302Y123285D01*
X139375Y123071D01*
X140448Y123285D01*
X141358Y123892D01*
X141966Y124802D01*
X142179Y125875D01*
X141966Y126948D01*
X141358Y127858D01*
X140448Y128465D01*
X139375Y128679D01*
D02*
G37*
G36*
X396667Y122804D02*
X395594Y122590D01*
X394685Y121983D01*
X393650D01*
X392740Y122590D01*
X391667Y122804D01*
X390594Y122590D01*
X389685Y121983D01*
X389077Y121073D01*
X388863Y120000D01*
X389077Y118927D01*
X389685Y118017D01*
X390594Y117410D01*
X391667Y117196D01*
X392740Y117410D01*
X393650Y118017D01*
X394685D01*
X395594Y117410D01*
X396667Y117196D01*
X397740Y117410D01*
X398650Y118017D01*
X399258Y118927D01*
X399471Y120000D01*
X399258Y121073D01*
X398650Y121983D01*
X397740Y122590D01*
X396667Y122804D01*
D02*
G37*
G36*
X581408Y123304D02*
X580335Y123090D01*
X579425Y122483D01*
X578817Y121573D01*
X578604Y120500D01*
X578817Y119427D01*
X579425Y118517D01*
X580335Y117909D01*
X581408Y117696D01*
X582481Y117909D01*
X583390Y118517D01*
X583998Y119427D01*
X584212Y120500D01*
X583998Y121573D01*
X583390Y122483D01*
X582481Y123090D01*
X581408Y123304D01*
D02*
G37*
G36*
X389500Y155554D02*
X388427Y155340D01*
X387517Y154733D01*
X386910Y153823D01*
X386696Y152750D01*
X386910Y151677D01*
X387448Y150871D01*
X387496Y150749D01*
X387612Y150629D01*
X387691Y150536D01*
X387756Y150450D01*
X387807Y150371D01*
X387846Y150299D01*
X387874Y150235D01*
X387876Y150228D01*
Y146908D01*
X388352Y145760D01*
X405044Y129068D01*
Y122522D01*
X405042Y122515D01*
X405013Y122451D01*
X404974Y122379D01*
X404923Y122300D01*
X404858Y122214D01*
X404779Y122121D01*
X404664Y122002D01*
X404615Y121879D01*
X404077Y121073D01*
X403863Y120000D01*
X404077Y118927D01*
X404685Y118017D01*
X405594Y117410D01*
X406667Y117196D01*
X407740Y117410D01*
X408650Y118017D01*
X409258Y118927D01*
X409471Y120000D01*
X409258Y121073D01*
X408719Y121879D01*
X408671Y122001D01*
X408555Y122121D01*
X408476Y122214D01*
X408411Y122300D01*
X408360Y122379D01*
X408321Y122451D01*
X408293Y122515D01*
X408291Y122522D01*
Y129740D01*
X407815Y130889D01*
X391124Y147580D01*
Y150228D01*
X391126Y150234D01*
X391154Y150299D01*
X391193Y150371D01*
X391244Y150450D01*
X391309Y150536D01*
X391388Y150629D01*
X391504Y150748D01*
X391552Y150871D01*
X392090Y151677D01*
X392304Y152750D01*
X392090Y153823D01*
X391483Y154733D01*
X390573Y155340D01*
X389500Y155554D01*
D02*
G37*
G36*
X376667Y122804D02*
X375594Y122590D01*
X374685Y121983D01*
X374077Y121073D01*
X373863Y120000D01*
X374077Y118927D01*
X374685Y118017D01*
X375594Y117410D01*
X376667Y117196D01*
X377740Y117410D01*
X378650Y118017D01*
X379258Y118927D01*
X379471Y120000D01*
X379258Y121073D01*
X378650Y121983D01*
X377740Y122590D01*
X376667Y122804D01*
D02*
G37*
G36*
X462158Y122304D02*
X461085Y122090D01*
X460175Y121483D01*
X459567Y120573D01*
X459354Y119500D01*
X459567Y118427D01*
X460175Y117517D01*
X461085Y116910D01*
X462158Y116696D01*
X463231Y116910D01*
X464140Y117517D01*
X464748Y118427D01*
X464962Y119500D01*
X464748Y120573D01*
X464140Y121483D01*
X463231Y122090D01*
X462158Y122304D01*
D02*
G37*
G36*
X298750Y120804D02*
X297677Y120590D01*
X296767Y119983D01*
X296160Y119073D01*
X295946Y118000D01*
X296160Y116927D01*
X296767Y116017D01*
X297677Y115410D01*
X298750Y115196D01*
X299823Y115410D01*
X300733Y116017D01*
X301340Y116927D01*
X301554Y118000D01*
X301340Y119073D01*
X300733Y119983D01*
X299823Y120590D01*
X298750Y120804D01*
D02*
G37*
G36*
X17767Y124668D02*
X16694Y124454D01*
X15784Y123847D01*
X15177Y122937D01*
X14963Y121864D01*
X15177Y120791D01*
X15367Y120506D01*
X15577Y119363D01*
X15303Y118675D01*
X15010Y118236D01*
X14796Y117163D01*
X15010Y116090D01*
X15617Y115181D01*
X16527Y114573D01*
X17600Y114359D01*
X18673Y114573D01*
X19583Y115181D01*
X20190Y116090D01*
X20404Y117163D01*
X20190Y118236D01*
X20000Y118521D01*
X19790Y119664D01*
X20064Y120352D01*
X20357Y120791D01*
X20571Y121864D01*
X20357Y122937D01*
X19750Y123847D01*
X18840Y124454D01*
X17767Y124668D01*
D02*
G37*
G36*
X450408Y125804D02*
X449335Y125590D01*
X448425Y124983D01*
X447817Y124073D01*
X447604Y123000D01*
X447817Y121927D01*
X448425Y121017D01*
X449335Y120410D01*
X449769Y120323D01*
X450038Y118975D01*
X449675Y118733D01*
X449067Y117823D01*
X448854Y116750D01*
X449067Y115677D01*
X449675Y114767D01*
X450585Y114160D01*
X451658Y113946D01*
X452731Y114160D01*
X453640Y114767D01*
X454248Y115677D01*
X454462Y116750D01*
X454248Y117823D01*
X453640Y118733D01*
X452731Y119340D01*
X452296Y119427D01*
X452028Y120775D01*
X452390Y121017D01*
X452998Y121927D01*
X453212Y123000D01*
X452998Y124073D01*
X452390Y124983D01*
X451481Y125590D01*
X450408Y125804D01*
D02*
G37*
G36*
X325500Y119054D02*
X324427Y118841D01*
X323517Y118233D01*
X322910Y117323D01*
X322696Y116250D01*
X322910Y115177D01*
X323517Y114267D01*
X324427Y113660D01*
X325500Y113446D01*
X326573Y113660D01*
X327483Y114267D01*
X328090Y115177D01*
X328304Y116250D01*
X328090Y117323D01*
X327483Y118233D01*
X326573Y118841D01*
X325500Y119054D01*
D02*
G37*
G36*
X709250Y119054D02*
X708177Y118840D01*
X707267Y118233D01*
X706660Y117323D01*
X706446Y116250D01*
X706660Y115177D01*
X707267Y114267D01*
X708177Y113660D01*
X709250Y113446D01*
X710323Y113660D01*
X711233Y114267D01*
X711840Y115177D01*
X712054Y116250D01*
X711840Y117323D01*
X711233Y118233D01*
X710323Y118840D01*
X709250Y119054D01*
D02*
G37*
G36*
X371667Y117804D02*
X370594Y117590D01*
X369685Y116983D01*
X369077Y116073D01*
X368863Y115000D01*
X369077Y113927D01*
X369685Y113017D01*
X370594Y112410D01*
X371667Y112196D01*
X372740Y112410D01*
X373650Y113017D01*
X374258Y113927D01*
X374471Y115000D01*
X374258Y116073D01*
X373650Y116983D01*
X372740Y117590D01*
X371667Y117804D01*
D02*
G37*
G36*
X184750Y114554D02*
X183677Y114340D01*
X182767Y113733D01*
X182160Y112823D01*
X181946Y111750D01*
X182160Y110677D01*
X182767Y109767D01*
X183677Y109160D01*
X184750Y108946D01*
X185823Y109160D01*
X186733Y109767D01*
X187340Y110677D01*
X187554Y111750D01*
X187340Y112823D01*
X186733Y113733D01*
X185823Y114340D01*
X184750Y114554D01*
D02*
G37*
G36*
X607208Y112804D02*
X606135Y112590D01*
X605225Y111983D01*
X604617Y111073D01*
X604404Y110000D01*
X604617Y108927D01*
X605225Y108017D01*
X606135Y107410D01*
X607208Y107196D01*
X608281Y107410D01*
X609190Y108017D01*
X609798Y108927D01*
X610012Y110000D01*
X609798Y111073D01*
X609190Y111983D01*
X608281Y112590D01*
X607208Y112804D01*
D02*
G37*
G36*
X386802D02*
X385729Y112590D01*
X384820Y111983D01*
X384212Y111073D01*
X383999Y110000D01*
X384212Y108927D01*
X384820Y108017D01*
X385729Y107410D01*
X386802Y107196D01*
X387876Y107410D01*
X388785Y108017D01*
X389393Y108927D01*
X389606Y110000D01*
X389393Y111073D01*
X388785Y111983D01*
X387876Y112590D01*
X386802Y112804D01*
D02*
G37*
G36*
X356667D02*
X355594Y112590D01*
X354685Y111983D01*
X354077Y111073D01*
X353863Y110000D01*
X354077Y108927D01*
X354685Y108017D01*
X355594Y107410D01*
X356667Y107196D01*
X357740Y107410D01*
X358650Y108017D01*
X359258Y108927D01*
X359471Y110000D01*
X359258Y111073D01*
X358650Y111983D01*
X357740Y112590D01*
X356667Y112804D01*
D02*
G37*
G36*
X591158Y112304D02*
X590085Y112090D01*
X589175Y111483D01*
X588567Y110573D01*
X588354Y109500D01*
X588567Y108427D01*
X589175Y107517D01*
X590085Y106910D01*
X591158Y106696D01*
X592231Y106910D01*
X593140Y107517D01*
X593748Y108427D01*
X593961Y109500D01*
X593748Y110573D01*
X593140Y111483D01*
X592231Y112090D01*
X591158Y112304D01*
D02*
G37*
G36*
X298700Y106854D02*
X297627Y106641D01*
X296717Y106033D01*
X296110Y105123D01*
X296097Y105062D01*
X294802D01*
X294790Y105123D01*
X294182Y106033D01*
X293273Y106641D01*
X292200Y106854D01*
X291127Y106641D01*
X290217Y106033D01*
X289610Y105123D01*
X289396Y104050D01*
X289610Y102977D01*
X290217Y102067D01*
X291127Y101460D01*
X292200Y101246D01*
X293273Y101460D01*
X294182Y102067D01*
X294790Y102977D01*
X294802Y103038D01*
X296097D01*
X296110Y102977D01*
X296717Y102067D01*
X297627Y101460D01*
X298700Y101246D01*
X299773Y101460D01*
X300683Y102067D01*
X301290Y102977D01*
X301504Y104050D01*
X301290Y105123D01*
X300683Y106033D01*
X299773Y106641D01*
X298700Y106854D01*
D02*
G37*
G36*
X259750Y109804D02*
X258677Y109590D01*
X257767Y108983D01*
X257160Y108073D01*
X256946Y107000D01*
X257160Y105927D01*
X257767Y105017D01*
X258677Y104410D01*
X259750Y104196D01*
X260823Y104410D01*
X261733Y105017D01*
X262340Y105927D01*
X262554Y107000D01*
X262340Y108073D01*
X261733Y108983D01*
X260823Y109590D01*
X259750Y109804D01*
D02*
G37*
G36*
X234000Y112554D02*
X232927Y112340D01*
X232017Y111733D01*
X231410Y110823D01*
X231196Y109750D01*
X231410Y108677D01*
X232017Y107767D01*
X232927Y107160D01*
X233103Y107125D01*
X234009Y106523D01*
X234025Y105745D01*
X233946Y105350D01*
X234160Y104277D01*
X234767Y103367D01*
X235677Y102760D01*
X236750Y102546D01*
X237823Y102760D01*
X238733Y103367D01*
X239340Y104277D01*
X239554Y105350D01*
X239340Y106423D01*
X238733Y107333D01*
X237823Y107940D01*
X237647Y107975D01*
X236741Y108577D01*
X236725Y109355D01*
X236804Y109750D01*
X236590Y110823D01*
X235983Y111733D01*
X235073Y112340D01*
X234000Y112554D01*
D02*
G37*
G36*
X361667Y107804D02*
X360594Y107590D01*
X359685Y106983D01*
X359077Y106073D01*
X358863Y105000D01*
X359077Y103927D01*
X359685Y103017D01*
X360594Y102410D01*
X361667Y102196D01*
X362740Y102410D01*
X363650Y103017D01*
X364258Y103927D01*
X364471Y105000D01*
X364258Y106073D01*
X363650Y106983D01*
X362740Y107590D01*
X361667Y107804D01*
D02*
G37*
G36*
X391667Y107804D02*
X390594Y107590D01*
X389685Y106983D01*
X389077Y106073D01*
X388863Y105000D01*
X389077Y103927D01*
X389685Y103017D01*
X390594Y102410D01*
X391667Y102196D01*
X392740Y102410D01*
X393650Y103017D01*
X394258Y103927D01*
X394471Y105000D01*
X394258Y106073D01*
X393650Y106983D01*
X392740Y107590D01*
X391667Y107804D01*
D02*
G37*
G36*
X371667D02*
X370594Y107590D01*
X369685Y106983D01*
X369077Y106073D01*
X368863Y105000D01*
X369077Y103927D01*
X369685Y103017D01*
X370594Y102410D01*
X371667Y102196D01*
X372740Y102410D01*
X373650Y103017D01*
X374258Y103927D01*
X374471Y105000D01*
X374258Y106073D01*
X373650Y106983D01*
X372740Y107590D01*
X371667Y107804D01*
D02*
G37*
G36*
X488623Y125079D02*
X484452D01*
X483477Y124885D01*
X482650Y124333D01*
X479202Y120885D01*
X479129Y120871D01*
X478220Y120263D01*
X477612Y119354D01*
X477398Y118280D01*
X477612Y117207D01*
X478220Y116298D01*
X479129Y115690D01*
X479546Y115607D01*
X479593Y115598D01*
Y114303D01*
X479546Y114294D01*
X479129Y114211D01*
X478220Y113603D01*
X477612Y112693D01*
X477398Y111621D01*
X476872Y111094D01*
X475799Y110881D01*
X474890Y110273D01*
X474282Y109363D01*
X474196Y108929D01*
X473542Y107764D01*
X472469Y107551D01*
X471560Y106943D01*
X470952Y106033D01*
X470738Y104960D01*
X470952Y103887D01*
X471560Y102978D01*
X472469Y102370D01*
X473542Y102156D01*
X474615Y102370D01*
X475525Y102978D01*
X476133Y103887D01*
X476219Y104322D01*
X476235Y104351D01*
X477509D01*
X477525Y104322D01*
X477612Y103887D01*
X478220Y102978D01*
X479129Y102370D01*
X480202Y102156D01*
X481275Y102370D01*
X482185Y102978D01*
X482793Y103887D01*
X483006Y104960D01*
X482793Y106033D01*
X482185Y106943D01*
X481275Y107551D01*
X480812Y107643D01*
Y108938D01*
X481275Y109030D01*
X482185Y109638D01*
X482793Y110548D01*
X482876Y110964D01*
X482885Y111011D01*
X484180D01*
X484189Y110964D01*
X484272Y110547D01*
X484880Y109638D01*
X485789Y109030D01*
X486862Y108816D01*
X487935Y109030D01*
X488845Y109638D01*
X488931Y109767D01*
X490201Y109381D01*
Y101648D01*
X489402Y100849D01*
X487997D01*
X487935Y100891D01*
X486862Y101104D01*
X485789Y100891D01*
X484880Y100283D01*
X484272Y99373D01*
X484058Y98300D01*
X484272Y97227D01*
X484880Y96318D01*
X485789Y95710D01*
X486862Y95496D01*
X487935Y95710D01*
X487997Y95751D01*
X490458D01*
X491433Y95945D01*
X492260Y96498D01*
X494552Y98790D01*
X495105Y99617D01*
X495299Y100592D01*
Y118403D01*
X495105Y119379D01*
X494552Y120206D01*
X490425Y124333D01*
X489598Y124885D01*
X488623Y125079D01*
D02*
G37*
G36*
X19250Y105304D02*
X18177Y105090D01*
X17267Y104482D01*
X16660Y103573D01*
X16446Y102500D01*
X16660Y101427D01*
X17267Y100517D01*
X18177Y99909D01*
X19250Y99696D01*
X20323Y99909D01*
X21233Y100517D01*
X21841Y101427D01*
X22054Y102500D01*
X21841Y103573D01*
X21233Y104482D01*
X20323Y105090D01*
X19250Y105304D01*
D02*
G37*
G36*
X566783Y107764D02*
X565710Y107551D01*
X564800Y106943D01*
X564192Y106033D01*
X563979Y104960D01*
X563453Y104434D01*
X562380Y104221D01*
X561470Y103613D01*
X560862Y102703D01*
X560649Y101630D01*
X560862Y100557D01*
X561470Y99648D01*
X562380Y99040D01*
X563453Y98826D01*
X564526Y99040D01*
X565435Y99648D01*
X566043Y100557D01*
X566257Y101630D01*
X566783Y102156D01*
X567856Y102370D01*
X568765Y102978D01*
X569373Y103887D01*
X569587Y104960D01*
X569373Y106033D01*
X568765Y106943D01*
X567856Y107551D01*
X566783Y107764D01*
D02*
G37*
G36*
X396667Y102804D02*
X395594Y102590D01*
X394685Y101983D01*
X394077Y101073D01*
X393863Y100000D01*
X394077Y98927D01*
X394685Y98017D01*
X395594Y97410D01*
X396667Y97196D01*
X397740Y97410D01*
X398650Y98017D01*
X399258Y98927D01*
X399471Y100000D01*
X399258Y101073D01*
X398650Y101983D01*
X397740Y102590D01*
X396667Y102804D01*
D02*
G37*
G36*
X376667D02*
X375594Y102590D01*
X374685Y101983D01*
X374077Y101073D01*
X373863Y100000D01*
X374077Y98927D01*
X374685Y98017D01*
X375594Y97410D01*
X376667Y97196D01*
X377740Y97410D01*
X378650Y98017D01*
X379258Y98927D01*
X379471Y100000D01*
X379258Y101073D01*
X378650Y101983D01*
X377740Y102590D01*
X376667Y102804D01*
D02*
G37*
G36*
X425158Y101554D02*
X424085Y101340D01*
X423175Y100733D01*
X422567Y99823D01*
X422354Y98750D01*
X422567Y97677D01*
X423175Y96767D01*
X424085Y96159D01*
X425158Y95946D01*
X426231Y96159D01*
X427140Y96767D01*
X427748Y97677D01*
X427962Y98750D01*
X427748Y99823D01*
X427140Y100733D01*
X426231Y101340D01*
X425158Y101554D01*
D02*
G37*
G36*
X238750Y100554D02*
X237677Y100340D01*
X236767Y99733D01*
X236160Y98823D01*
X235946Y97750D01*
X236160Y96677D01*
X236767Y95767D01*
X237677Y95160D01*
X238750Y94946D01*
X239823Y95160D01*
X240733Y95767D01*
X241340Y96677D01*
X241554Y97750D01*
X241340Y98823D01*
X240733Y99733D01*
X239823Y100340D01*
X238750Y100554D01*
D02*
G37*
G36*
X648908Y98554D02*
X647835Y98340D01*
X646925Y97733D01*
X646317Y96823D01*
X646104Y95750D01*
X646317Y94677D01*
X646925Y93767D01*
X647835Y93160D01*
X648908Y92946D01*
X649981Y93160D01*
X650890Y93767D01*
X651498Y94677D01*
X651712Y95750D01*
X651498Y96823D01*
X650890Y97733D01*
X649981Y98340D01*
X648908Y98554D01*
D02*
G37*
G36*
X391667Y97804D02*
X390594Y97590D01*
X389685Y96983D01*
X389077Y96073D01*
X388863Y95000D01*
X389077Y93927D01*
X389685Y93017D01*
X390594Y92410D01*
X391667Y92196D01*
X392740Y92410D01*
X393650Y93017D01*
X394258Y93927D01*
X394471Y95000D01*
X394258Y96073D01*
X393650Y96983D01*
X392740Y97590D01*
X391667Y97804D01*
D02*
G37*
G36*
X381667Y97804D02*
X380594Y97590D01*
X379685Y96983D01*
X379077Y96073D01*
X378863Y95000D01*
X379077Y93927D01*
X379685Y93017D01*
X380594Y92409D01*
X381667Y92196D01*
X382740Y92409D01*
X383650Y93017D01*
X384258Y93927D01*
X384471Y95000D01*
X384258Y96073D01*
X383650Y96983D01*
X382740Y97590D01*
X381667Y97804D01*
D02*
G37*
G36*
X570113Y97774D02*
X569040Y97561D01*
X568130Y96953D01*
X567522Y96043D01*
X567309Y94970D01*
X567522Y93897D01*
X568130Y92987D01*
X569040Y92380D01*
X569456Y92297D01*
X569503Y92288D01*
Y90993D01*
X569456Y90983D01*
X569040Y90901D01*
X568130Y90293D01*
X567522Y89383D01*
X567440Y88967D01*
X567430Y88920D01*
X566135D01*
X566126Y88967D01*
X566043Y89383D01*
X565435Y90293D01*
X564526Y90901D01*
X563453Y91114D01*
X562380Y90901D01*
X561470Y90293D01*
X560862Y89383D01*
X560649Y88310D01*
X560862Y87237D01*
X561470Y86327D01*
X562380Y85720D01*
X562796Y85637D01*
X562843Y85627D01*
Y84333D01*
X562796Y84323D01*
X562380Y84241D01*
X561470Y83633D01*
X560862Y82723D01*
X560649Y81650D01*
X560862Y80577D01*
X561470Y79668D01*
X562380Y79060D01*
X562814Y78973D01*
X563642Y78509D01*
X564106Y77681D01*
X564192Y77247D01*
X564800Y76337D01*
X565710Y75730D01*
X566783Y75516D01*
X567856Y75730D01*
X568765Y76337D01*
X569373Y77247D01*
X569587Y78320D01*
X569373Y79393D01*
X568765Y80303D01*
X567856Y80911D01*
X567422Y80997D01*
X566594Y81461D01*
X566130Y82289D01*
X566043Y82723D01*
X565435Y83633D01*
X564526Y84241D01*
X564109Y84323D01*
X564063Y84333D01*
Y85627D01*
X564109Y85637D01*
X564526Y85720D01*
X565435Y86327D01*
X566043Y87237D01*
X566126Y87654D01*
X566135Y87700D01*
X567430D01*
X567440Y87654D01*
X567522Y87237D01*
X568130Y86327D01*
X569040Y85720D01*
X570113Y85506D01*
X570639Y84980D01*
X570852Y83907D01*
X571460Y82998D01*
X572370Y82390D01*
X573443Y82176D01*
X573969Y81650D01*
X574182Y80577D01*
X574790Y79668D01*
X575700Y79060D01*
X576773Y78846D01*
X577846Y79060D01*
X578755Y79668D01*
X579363Y80577D01*
X579577Y81650D01*
X579363Y82723D01*
X578755Y83633D01*
X577846Y84241D01*
X576773Y84454D01*
X576247Y84980D01*
X576033Y86053D01*
X575425Y86963D01*
X574516Y87570D01*
X573443Y87784D01*
X572917Y88310D01*
X572703Y89383D01*
X572095Y90293D01*
X571186Y90901D01*
X570769Y90983D01*
X570723Y90993D01*
Y92288D01*
X570769Y92297D01*
X571186Y92380D01*
X572095Y92987D01*
X572703Y93897D01*
X572917Y94970D01*
X572703Y96043D01*
X572095Y96953D01*
X571186Y97561D01*
X570113Y97774D01*
D02*
G37*
G36*
X396667Y92804D02*
X395594Y92590D01*
X394685Y91983D01*
X394077Y91073D01*
X393863Y90000D01*
X394077Y88927D01*
X394685Y88017D01*
X395594Y87410D01*
X396667Y87196D01*
X397740Y87410D01*
X398650Y88017D01*
X399258Y88927D01*
X399471Y90000D01*
X399258Y91073D01*
X398650Y91983D01*
X397740Y92590D01*
X396667Y92804D01*
D02*
G37*
G36*
X356667D02*
X355594Y92590D01*
X354685Y91983D01*
X354077Y91073D01*
X353863Y90000D01*
X354077Y88927D01*
X354685Y88017D01*
X355594Y87410D01*
X356667Y87196D01*
X357740Y87410D01*
X358650Y88017D01*
X359258Y88927D01*
X359471Y90000D01*
X359258Y91073D01*
X358650Y91983D01*
X357740Y92590D01*
X356667Y92804D01*
D02*
G37*
G36*
X706250Y90554D02*
X705177Y90340D01*
X704268Y89733D01*
X703660Y88823D01*
X703446Y87750D01*
X703660Y86677D01*
X704268Y85767D01*
X705177Y85160D01*
X706250Y84946D01*
X707323Y85160D01*
X708233Y85767D01*
X708840Y86677D01*
X709054Y87750D01*
X708840Y88823D01*
X708233Y89733D01*
X707323Y90340D01*
X706250Y90554D01*
D02*
G37*
G36*
X68250Y89054D02*
X67177Y88840D01*
X66267Y88233D01*
X65660Y87323D01*
X65446Y86250D01*
X65660Y85177D01*
X66267Y84267D01*
X67177Y83660D01*
X68250Y83446D01*
X69323Y83660D01*
X70233Y84267D01*
X70840Y85177D01*
X71054Y86250D01*
X70840Y87323D01*
X70233Y88233D01*
X69323Y88840D01*
X68250Y89054D01*
D02*
G37*
G36*
X612658Y89054D02*
X611585Y88840D01*
X610675Y88233D01*
X610067Y87323D01*
X609854Y86250D01*
X610067Y85177D01*
X610675Y84267D01*
X611585Y83659D01*
X612658Y83446D01*
X613731Y83659D01*
X614640Y84267D01*
X615248Y85177D01*
X615462Y86250D01*
X615248Y87323D01*
X614640Y88233D01*
X613731Y88840D01*
X612658Y89054D01*
D02*
G37*
G36*
X244750Y87804D02*
X243677Y87590D01*
X242767Y86983D01*
X242160Y86073D01*
X241946Y85000D01*
X242160Y83927D01*
X242767Y83017D01*
X243677Y82410D01*
X244750Y82196D01*
X245823Y82410D01*
X246733Y83017D01*
X247340Y83927D01*
X247554Y85000D01*
X247340Y86073D01*
X246733Y86983D01*
X245823Y87590D01*
X244750Y87804D01*
D02*
G37*
G36*
X381667Y87804D02*
X380594Y87590D01*
X379685Y86983D01*
X379077Y86073D01*
X378863Y85000D01*
X379077Y83927D01*
X379685Y83017D01*
X380594Y82410D01*
X381667Y82196D01*
X382740Y82410D01*
X383650Y83017D01*
X384258Y83927D01*
X384471Y85000D01*
X384258Y86073D01*
X383650Y86983D01*
X382740Y87590D01*
X381667Y87804D01*
D02*
G37*
G36*
X486862Y87784D02*
X485789Y87571D01*
X484880Y86963D01*
X484272Y86053D01*
X484058Y84980D01*
X484272Y83907D01*
X484880Y82998D01*
X485789Y82390D01*
X486862Y82176D01*
X487935Y82390D01*
X488845Y82998D01*
X489453Y83907D01*
X489666Y84980D01*
X489453Y86053D01*
X488845Y86963D01*
X487935Y87571D01*
X486862Y87784D01*
D02*
G37*
G36*
X458408Y86804D02*
X457335Y86590D01*
X456425Y85983D01*
X455817Y85073D01*
X455604Y84000D01*
X455817Y82927D01*
X456425Y82017D01*
X457335Y81410D01*
X458408Y81196D01*
X459481Y81410D01*
X460390Y82017D01*
X460998Y82927D01*
X461212Y84000D01*
X460998Y85073D01*
X460390Y85983D01*
X459481Y86590D01*
X458408Y86804D01*
D02*
G37*
G36*
X83500Y86554D02*
X82427Y86340D01*
X81517Y85732D01*
X80910Y84823D01*
X80696Y83750D01*
X80910Y82677D01*
X81517Y81767D01*
X82427Y81159D01*
X83500Y80946D01*
X84573Y81159D01*
X85483Y81767D01*
X86090Y82677D01*
X86304Y83750D01*
X86090Y84823D01*
X85483Y85732D01*
X84573Y86340D01*
X83500Y86554D01*
D02*
G37*
G36*
X465158Y85304D02*
X464085Y85090D01*
X463175Y84483D01*
X462567Y83573D01*
X462354Y82500D01*
X462567Y81427D01*
X463175Y80517D01*
X464085Y79910D01*
X465158Y79696D01*
X466231Y79910D01*
X467140Y80517D01*
X467748Y81427D01*
X467962Y82500D01*
X467748Y83573D01*
X467140Y84483D01*
X466231Y85090D01*
X465158Y85304D01*
D02*
G37*
G36*
X190950Y80804D02*
X189877Y80590D01*
X188967Y79983D01*
X188360Y79073D01*
X188146Y78000D01*
X188360Y76927D01*
X188967Y76017D01*
X189877Y75410D01*
X190950Y75196D01*
X192023Y75410D01*
X192933Y76017D01*
X193540Y76927D01*
X193754Y78000D01*
X193540Y79073D01*
X192933Y79983D01*
X192023Y80590D01*
X190950Y80804D01*
D02*
G37*
G36*
X681408Y77396D02*
X680335Y77183D01*
X679425Y76575D01*
X678999Y75937D01*
X677981Y75090D01*
X676908Y75304D01*
X675835Y75090D01*
X674925Y74482D01*
X674317Y73573D01*
X674104Y72500D01*
X674317Y71427D01*
X674925Y70517D01*
X675118Y70388D01*
Y68861D01*
X674925Y68732D01*
X674317Y67823D01*
X674104Y66750D01*
X674317Y65677D01*
X674925Y64767D01*
X675835Y64159D01*
X676222Y64082D01*
X676946Y63746D01*
X677144Y62702D01*
X677104Y62500D01*
X677317Y61427D01*
X677925Y60517D01*
X678835Y59910D01*
X679908Y59696D01*
X680981Y59910D01*
X681890Y60517D01*
X682498Y61427D01*
X682711Y62500D01*
X682498Y63573D01*
X681890Y64483D01*
X680981Y65090D01*
X680593Y65167D01*
X679870Y65504D01*
X679671Y66547D01*
X679712Y66750D01*
X679498Y67823D01*
X678890Y68732D01*
X678698Y68861D01*
Y70388D01*
X678891Y70517D01*
X679316Y71155D01*
X680335Y72002D01*
X681408Y71788D01*
X682481Y72002D01*
X683390Y72610D01*
X683998Y73519D01*
X684212Y74592D01*
X683998Y75665D01*
X683390Y76575D01*
X682481Y77183D01*
X681408Y77396D01*
D02*
G37*
G36*
X74750Y80554D02*
X73677Y80340D01*
X72767Y79733D01*
X72160Y78823D01*
X71946Y77750D01*
X72160Y76677D01*
X72767Y75767D01*
X73677Y75160D01*
X74750Y74946D01*
X75823Y75160D01*
X76733Y75767D01*
X77340Y76677D01*
X77554Y77750D01*
X77340Y78823D01*
X76733Y79733D01*
X75823Y80340D01*
X74750Y80554D01*
D02*
G37*
G36*
X225750Y80054D02*
X224677Y79840D01*
X223767Y79233D01*
X223160Y78323D01*
X222946Y77250D01*
X223160Y76177D01*
X223767Y75267D01*
X224677Y74660D01*
X225750Y74446D01*
X226823Y74660D01*
X227733Y75267D01*
X228340Y76177D01*
X228554Y77250D01*
X228340Y78323D01*
X227733Y79233D01*
X226823Y79840D01*
X225750Y80054D01*
D02*
G37*
G36*
X45500Y75054D02*
X44427Y74840D01*
X44204Y74691D01*
X43250Y74333D01*
X42296Y74691D01*
X42073Y74840D01*
X41000Y75054D01*
X39927Y74840D01*
X39704Y74691D01*
X38750Y74333D01*
X37796Y74691D01*
X37573Y74840D01*
X36500Y75054D01*
X35427Y74840D01*
X34517Y74233D01*
X33910Y73323D01*
X32823Y72590D01*
X31750Y72804D01*
X30677Y72590D01*
X29767Y71983D01*
X29160Y71073D01*
X28946Y70000D01*
X29160Y68927D01*
X29767Y68017D01*
X30677Y67410D01*
X31750Y67196D01*
X32823Y67410D01*
X33733Y68017D01*
X34340Y68927D01*
X35427Y69660D01*
X36500Y69446D01*
X37573Y69660D01*
X37796Y69809D01*
X38750Y70167D01*
X39704Y69809D01*
X39927Y69660D01*
X41000Y69446D01*
X42073Y69660D01*
X42296Y69809D01*
X43250Y70167D01*
X44204Y69809D01*
X44427Y69660D01*
X45500Y69446D01*
X46573Y69660D01*
X47483Y70267D01*
X48090Y71177D01*
X48304Y72250D01*
X48090Y73323D01*
X47483Y74233D01*
X46573Y74840D01*
X45500Y75054D01*
D02*
G37*
G36*
X632943Y79904D02*
X631870Y79690D01*
X630960Y79083D01*
X630352Y78173D01*
X630139Y77100D01*
X630352Y76027D01*
X630960Y75118D01*
X631870Y74510D01*
X632943Y74296D01*
X634016Y74510D01*
X634848Y75065D01*
X634990Y75110D01*
X636339Y74946D01*
X636625Y74517D01*
X637535Y73910D01*
X638608Y73696D01*
X639681Y73910D01*
X640590Y74517D01*
X641198Y75427D01*
X641412Y76500D01*
X641198Y77573D01*
X640590Y78483D01*
X639681Y79090D01*
X638608Y79304D01*
X637535Y79090D01*
X636703Y78534D01*
X636560Y78490D01*
X635212Y78654D01*
X634925Y79083D01*
X634016Y79690D01*
X632943Y79904D01*
D02*
G37*
G36*
X651158Y78554D02*
X650085Y78340D01*
X649175Y77733D01*
X648567Y76823D01*
X648354Y75750D01*
X648567Y74677D01*
X649175Y73767D01*
X650085Y73159D01*
X651158Y72946D01*
X652231Y73159D01*
X653140Y73767D01*
X653748Y74677D01*
X653962Y75750D01*
X653748Y76823D01*
X653140Y77733D01*
X652231Y78340D01*
X651158Y78554D01*
D02*
G37*
G36*
X483532Y77794D02*
X482459Y77580D01*
X481550Y76973D01*
X480942Y76063D01*
X480728Y74990D01*
X480942Y73917D01*
X481550Y73007D01*
X482459Y72400D01*
X483532Y72186D01*
X484605Y72400D01*
X485515Y73007D01*
X486123Y73917D01*
X486336Y74990D01*
X486123Y76063D01*
X485515Y76973D01*
X484605Y77580D01*
X483532Y77794D01*
D02*
G37*
G36*
X5000Y79804D02*
X3927Y79590D01*
X3017Y78983D01*
X2410Y78073D01*
X2196Y77000D01*
X2410Y75927D01*
X3017Y75017D01*
Y74733D01*
X2410Y73823D01*
X2196Y72750D01*
X2410Y71677D01*
X3017Y70767D01*
X3927Y70160D01*
X5000Y69946D01*
X6073Y70160D01*
X6983Y70767D01*
X7590Y71677D01*
X7804Y72750D01*
X7590Y73823D01*
X6983Y74733D01*
Y75017D01*
X7590Y75927D01*
X7804Y77000D01*
X7590Y78073D01*
X6983Y78983D01*
X6073Y79590D01*
X5000Y79804D01*
D02*
G37*
G36*
X-2750Y74804D02*
X-3823Y74590D01*
X-4733Y73983D01*
X-5340Y73073D01*
X-5554Y72000D01*
X-5340Y70927D01*
X-4733Y70017D01*
X-3823Y69410D01*
X-2750Y69196D01*
X-1677Y69410D01*
X-767Y70017D01*
X-160Y70927D01*
X54Y72000D01*
X-160Y73073D01*
X-767Y73983D01*
X-1677Y74590D01*
X-2750Y74804D01*
D02*
G37*
G36*
X12000Y82304D02*
X10927Y82090D01*
X10017Y81483D01*
X9410Y80573D01*
X9196Y79500D01*
X9410Y78427D01*
X10017Y77517D01*
Y77233D01*
X9410Y76323D01*
X9196Y75250D01*
X9410Y74177D01*
X10017Y73267D01*
Y72983D01*
X9410Y72073D01*
X9196Y71000D01*
X9410Y69927D01*
X10017Y69017D01*
X10927Y68410D01*
X12000Y68196D01*
X13073Y68410D01*
X13983Y69017D01*
X14590Y69927D01*
X14804Y71000D01*
X14590Y72073D01*
X13983Y72983D01*
Y73267D01*
X14590Y74177D01*
X14804Y75250D01*
X14590Y76323D01*
X13983Y77233D01*
Y77517D01*
X14590Y78427D01*
X14804Y79500D01*
X14590Y80573D01*
X13983Y81483D01*
X13073Y82090D01*
X12000Y82304D01*
D02*
G37*
G36*
X92750Y73554D02*
X91677Y73340D01*
X90768Y72732D01*
X90160Y71823D01*
X89946Y70750D01*
X90160Y69677D01*
X90768Y68767D01*
X91677Y68159D01*
X92750Y67946D01*
X93823Y68159D01*
X94733Y68767D01*
X95341Y69677D01*
X95554Y70750D01*
X95341Y71823D01*
X94733Y72732D01*
X93823Y73340D01*
X92750Y73554D01*
D02*
G37*
G36*
X458000Y71804D02*
X456927Y71590D01*
X456017Y70983D01*
X455410Y70073D01*
X455196Y69000D01*
X455410Y67927D01*
X456017Y67017D01*
X456927Y66410D01*
X458000Y66196D01*
X459073Y66410D01*
X459983Y67017D01*
X460590Y67927D01*
X460804Y69000D01*
X460590Y70073D01*
X459983Y70983D01*
X459073Y71590D01*
X458000Y71804D01*
D02*
G37*
G36*
X533483Y74464D02*
X532410Y74250D01*
X531500Y73643D01*
X530892Y72733D01*
X530679Y71660D01*
X530892Y70587D01*
X531500Y69677D01*
X532410Y69070D01*
X533483Y68856D01*
X534009Y68330D01*
X534222Y67257D01*
X534830Y66347D01*
X535740Y65740D01*
X536813Y65526D01*
X537886Y65740D01*
X538795Y66347D01*
X539403Y67257D01*
X539617Y68330D01*
X539403Y69403D01*
X538795Y70313D01*
X537886Y70921D01*
X536813Y71134D01*
X536287Y71660D01*
X536073Y72733D01*
X535465Y73643D01*
X534556Y74250D01*
X533483Y74464D01*
D02*
G37*
G36*
X82500Y70304D02*
X81427Y70090D01*
X80517Y69483D01*
X79910Y68573D01*
X79696Y67500D01*
X79910Y66427D01*
X80517Y65517D01*
X81427Y64910D01*
X82500Y64696D01*
X83573Y64910D01*
X84483Y65517D01*
X85090Y66427D01*
X85304Y67500D01*
X85090Y68573D01*
X84483Y69483D01*
X83573Y70090D01*
X82500Y70304D01*
D02*
G37*
G36*
X60500Y63804D02*
X59427Y63590D01*
X58517Y62983D01*
X57983D01*
X57073Y63590D01*
X56000Y63804D01*
X54927Y63590D01*
X54017Y62983D01*
X53410Y62073D01*
X53196Y61000D01*
X53410Y59927D01*
X53559Y59704D01*
X53917Y58750D01*
X53559Y57796D01*
X53410Y57573D01*
X53196Y56500D01*
X53410Y55427D01*
X54017Y54517D01*
X54927Y53910D01*
X56000Y53696D01*
X57073Y53910D01*
X57983Y54517D01*
X58517D01*
X59427Y53910D01*
X60500Y53696D01*
X61573Y53910D01*
X62483Y54517D01*
X63090Y55427D01*
X63304Y56500D01*
X63090Y57573D01*
X62941Y57796D01*
X62583Y58750D01*
X62941Y59704D01*
X63090Y59927D01*
X63304Y61000D01*
X63090Y62073D01*
X62483Y62983D01*
X61573Y63590D01*
X60500Y63804D01*
D02*
G37*
G36*
X644658Y64054D02*
X643585Y63840D01*
X642675Y63233D01*
X642067Y62323D01*
X641854Y61250D01*
X642067Y60177D01*
X642675Y59267D01*
X643585Y58660D01*
X644658Y58446D01*
X645731Y58660D01*
X646640Y59267D01*
X647248Y60177D01*
X647462Y61250D01*
X647248Y62323D01*
X646640Y63233D01*
X645731Y63840D01*
X644658Y64054D01*
D02*
G37*
G36*
X570113Y64474D02*
X569040Y64260D01*
X568130Y63653D01*
X567522Y62743D01*
X567309Y61670D01*
X567522Y60597D01*
X568130Y59687D01*
X569040Y59080D01*
X570113Y58866D01*
X570639Y58340D01*
X570852Y57267D01*
X571460Y56357D01*
X572370Y55750D01*
X573443Y55536D01*
X574516Y55750D01*
X575425Y56357D01*
X576033Y57267D01*
X576247Y58340D01*
X576033Y59413D01*
X575425Y60323D01*
X574516Y60930D01*
X573443Y61144D01*
X572917Y61670D01*
X572703Y62743D01*
X572095Y63653D01*
X571186Y64260D01*
X570113Y64474D01*
D02*
G37*
G36*
X553463Y61144D02*
X552390Y60930D01*
X551480Y60323D01*
X550872Y59413D01*
X550659Y58340D01*
X550133Y57814D01*
X549060Y57600D01*
X548150Y56993D01*
X547542Y56083D01*
X547329Y55010D01*
X547542Y53937D01*
X548150Y53027D01*
X549060Y52420D01*
X550133Y52206D01*
X551206Y52420D01*
X552115Y53027D01*
X552723Y53937D01*
X552937Y55010D01*
X553463Y55536D01*
X554536Y55750D01*
X555445Y56357D01*
X556053Y57267D01*
X556267Y58340D01*
X556053Y59413D01*
X555445Y60323D01*
X554536Y60930D01*
X553463Y61144D01*
D02*
G37*
G36*
X721100Y56804D02*
X720027Y56590D01*
X719117Y55983D01*
X718510Y55073D01*
X718296Y54000D01*
X718510Y52927D01*
X719117Y52017D01*
X720027Y51410D01*
X721100Y51196D01*
X722173Y51410D01*
X723083Y52017D01*
X723690Y52927D01*
X723904Y54000D01*
X723690Y55073D01*
X723083Y55983D01*
X722173Y56590D01*
X721100Y56804D01*
D02*
G37*
G36*
X674908Y55304D02*
X673835Y55090D01*
X672925Y54483D01*
X672317Y53573D01*
X672104Y52500D01*
X672317Y51427D01*
X672925Y50517D01*
X673835Y49910D01*
X674908Y49696D01*
X675981Y49910D01*
X676890Y50517D01*
X677498Y51427D01*
X677711Y52500D01*
X677498Y53573D01*
X676890Y54483D01*
X675981Y55090D01*
X674908Y55304D01*
D02*
G37*
G36*
X751750Y53804D02*
X750677Y53590D01*
X749767Y52983D01*
X749160Y52073D01*
X748946Y51000D01*
X749160Y49927D01*
X749767Y49017D01*
X750677Y48410D01*
X751750Y48196D01*
X752823Y48410D01*
X753733Y49017D01*
X754341Y49927D01*
X754554Y51000D01*
X754341Y52073D01*
X753733Y52983D01*
X752823Y53590D01*
X751750Y53804D01*
D02*
G37*
G36*
X62250Y50054D02*
X61177Y49840D01*
X60267Y49233D01*
X59660Y48323D01*
X59446Y47250D01*
X59660Y46177D01*
X60267Y45267D01*
X60734Y44956D01*
X60742Y44935D01*
Y43565D01*
X60734Y43544D01*
X60267Y43233D01*
X59660Y42323D01*
X59446Y41250D01*
X59660Y40177D01*
X60267Y39267D01*
Y38733D01*
X59660Y37823D01*
X59446Y36750D01*
X59475Y36605D01*
X58395Y35525D01*
X58250Y35554D01*
X58105Y35525D01*
X57025Y36605D01*
X57054Y36750D01*
X56840Y37823D01*
X56691Y38046D01*
X56333Y39000D01*
X56691Y39954D01*
X56840Y40177D01*
X57054Y41250D01*
X56840Y42323D01*
X56233Y43233D01*
X55766Y43544D01*
X55758Y43565D01*
Y44935D01*
X55766Y44956D01*
X56233Y45267D01*
X56840Y46177D01*
X57054Y47250D01*
X56840Y48323D01*
X56233Y49233D01*
X55323Y49840D01*
X54250Y50054D01*
X53177Y49840D01*
X52267Y49233D01*
X51660Y48323D01*
X51446Y47250D01*
X51660Y46177D01*
X52267Y45267D01*
X52734Y44956D01*
X52742Y44935D01*
Y43565D01*
X52734Y43544D01*
X52267Y43233D01*
X51660Y42323D01*
X51446Y41250D01*
X51660Y40177D01*
X52267Y39267D01*
Y38733D01*
X51660Y37823D01*
X51446Y36750D01*
X51660Y35677D01*
X52267Y34767D01*
X53177Y34160D01*
X54250Y33946D01*
X54395Y33975D01*
X55475Y32895D01*
X55446Y32750D01*
X55475Y32605D01*
X54395Y31525D01*
X54250Y31554D01*
X53177Y31340D01*
X52267Y30733D01*
X51660Y29823D01*
X51446Y28750D01*
X51660Y27677D01*
X51809Y27454D01*
X52167Y26500D01*
X51809Y25546D01*
X51660Y25323D01*
X51446Y24250D01*
X51660Y23177D01*
X52267Y22267D01*
X52734Y21956D01*
X52742Y21935D01*
Y20565D01*
X52734Y20544D01*
X52267Y20233D01*
X51660Y19323D01*
X51446Y18250D01*
X51660Y17177D01*
X52267Y16267D01*
X53177Y15660D01*
X54250Y15446D01*
X55323Y15660D01*
X56233Y16267D01*
X56840Y17177D01*
X57054Y18250D01*
X56840Y19323D01*
X56233Y20233D01*
X55766Y20544D01*
X55758Y20565D01*
Y21935D01*
X55766Y21956D01*
X56233Y22267D01*
X56840Y23177D01*
X57054Y24250D01*
X56840Y25323D01*
X56691Y25546D01*
X56333Y26500D01*
X56691Y27454D01*
X56840Y27677D01*
X57054Y28750D01*
X58178Y29282D01*
X58322D01*
X59446Y28750D01*
X59660Y27677D01*
X60267Y26767D01*
Y26233D01*
X59660Y25323D01*
X59446Y24250D01*
X59660Y23177D01*
X60267Y22267D01*
X60734Y21956D01*
X60742Y21935D01*
Y20565D01*
X60734Y20544D01*
X60267Y20233D01*
X59660Y19323D01*
X59446Y18250D01*
X59660Y17177D01*
X60267Y16267D01*
X61177Y15660D01*
X62250Y15446D01*
X63323Y15660D01*
X64233Y16267D01*
X64840Y17177D01*
X65054Y18250D01*
X64840Y19323D01*
X64233Y20233D01*
X63766Y20544D01*
X63758Y20565D01*
Y21935D01*
X63766Y21956D01*
X64233Y22267D01*
X64840Y23177D01*
X65054Y24250D01*
X64840Y25323D01*
X64233Y26233D01*
Y26767D01*
X64840Y27677D01*
X65054Y28750D01*
X64840Y29823D01*
X64233Y30733D01*
X63323Y31340D01*
X62250Y31554D01*
X62105Y31525D01*
X61025Y32605D01*
X61054Y32750D01*
X61025Y32895D01*
X62105Y33975D01*
X62250Y33946D01*
X63323Y34160D01*
X64233Y34767D01*
X64840Y35677D01*
X65054Y36750D01*
X64840Y37823D01*
X64233Y38733D01*
Y39267D01*
X64840Y40177D01*
X65054Y41250D01*
X64840Y42323D01*
X64233Y43233D01*
X63766Y43544D01*
X63758Y43565D01*
Y44935D01*
X63766Y44956D01*
X64233Y45267D01*
X64840Y46177D01*
X65054Y47250D01*
X64840Y48323D01*
X64233Y49233D01*
X63323Y49840D01*
X62250Y50054D01*
D02*
G37*
G36*
X85500Y45304D02*
X84427Y45090D01*
X83517Y44483D01*
X82910Y43573D01*
X82696Y42500D01*
X82910Y41427D01*
X83174Y41031D01*
X83414Y40125D01*
X83174Y39219D01*
X82910Y38823D01*
X82696Y37750D01*
X82910Y36677D01*
X83517Y35767D01*
X84427Y35160D01*
X85500Y34946D01*
X86573Y35160D01*
X87483Y35767D01*
X88090Y36677D01*
X88304Y37750D01*
X88090Y38823D01*
X87826Y39219D01*
X87586Y40125D01*
X87826Y41031D01*
X88090Y41427D01*
X88304Y42500D01*
X88090Y43573D01*
X87483Y44483D01*
X86573Y45090D01*
X85500Y45304D01*
D02*
G37*
G36*
X98000Y45304D02*
X96927Y45090D01*
X96017Y44483D01*
X95410Y43573D01*
X95196Y42500D01*
X95410Y41427D01*
X95674Y41031D01*
X96017Y39733D01*
X95410Y38823D01*
X95196Y37750D01*
X95410Y36677D01*
X96017Y35767D01*
X96927Y35160D01*
X98000Y34946D01*
X99073Y35160D01*
X99983Y35767D01*
X100590Y36677D01*
X100804Y37750D01*
X100590Y38823D01*
X99983Y39733D01*
X100326Y41031D01*
X100590Y41427D01*
X100804Y42500D01*
X100590Y43573D01*
X99983Y44483D01*
X99073Y45090D01*
X98000Y45304D01*
D02*
G37*
G36*
X31250Y42554D02*
X30177Y42340D01*
X29267Y41733D01*
X28660Y40823D01*
X28446Y39750D01*
X28660Y38677D01*
X28693Y38626D01*
X29196Y37625D01*
X28693Y36623D01*
X28660Y36573D01*
X28446Y35500D01*
X28660Y34427D01*
X29267Y33517D01*
X30177Y32910D01*
X31250Y32696D01*
X32323Y32910D01*
X33233Y33517D01*
X33840Y34427D01*
X33936Y34908D01*
X35000Y34696D01*
X36073Y34910D01*
X36983Y35517D01*
X37590Y36427D01*
X37804Y37500D01*
X37590Y38573D01*
X36983Y39483D01*
X36073Y40090D01*
X35000Y40304D01*
X33984Y40102D01*
X33840Y40823D01*
X33233Y41733D01*
X32323Y42340D01*
X31250Y42554D01*
D02*
G37*
G36*
X510908Y40054D02*
X509835Y39840D01*
X508925Y39233D01*
X508317Y38323D01*
X508104Y37250D01*
X508317Y36177D01*
X508925Y35267D01*
X509835Y34660D01*
X510908Y34446D01*
X511981Y34660D01*
X512890Y35267D01*
X513498Y36177D01*
X513712Y37250D01*
X513498Y38323D01*
X512890Y39233D01*
X511981Y39840D01*
X510908Y40054D01*
D02*
G37*
G36*
X724175Y38804D02*
X723102Y38591D01*
X722192Y37983D01*
X721585Y37073D01*
X721371Y36000D01*
X721585Y34927D01*
X722192Y34017D01*
X723102Y33410D01*
X724175Y33196D01*
X725248Y33410D01*
X726158Y34017D01*
X726765Y34927D01*
X726979Y36000D01*
X726765Y37073D01*
X726158Y37983D01*
X725248Y38591D01*
X724175Y38804D01*
D02*
G37*
G36*
X16500Y33054D02*
X15427Y32840D01*
X14517Y32233D01*
X13909Y31323D01*
X12559Y31042D01*
X12500Y31054D01*
X11427Y30840D01*
X10517Y30233D01*
X9909Y29323D01*
X9696Y28250D01*
X9909Y27177D01*
X10517Y26267D01*
X11427Y25660D01*
X12500Y25446D01*
X13614Y24658D01*
X13659Y24427D01*
X14267Y23517D01*
X15177Y22910D01*
X15559Y22834D01*
X15582Y22825D01*
X15869Y21477D01*
X15677Y21340D01*
X15573Y21271D01*
X14767Y20733D01*
X14160Y19823D01*
X13946Y18750D01*
X14111Y17922D01*
X13927Y16590D01*
X13614Y16381D01*
X13017Y15983D01*
X12410Y15073D01*
X12196Y14000D01*
X12410Y12927D01*
X13017Y12017D01*
X13927Y11410D01*
X15000Y11196D01*
X16073Y11410D01*
X16983Y12017D01*
X17590Y12927D01*
X17804Y14000D01*
X17639Y14828D01*
X17823Y16160D01*
X18136Y16369D01*
X18733Y16767D01*
X19340Y17677D01*
X19554Y18750D01*
X19340Y19823D01*
X18733Y20733D01*
X17823Y21340D01*
X17441Y21416D01*
X17418Y21425D01*
X17130Y22773D01*
X17323Y22910D01*
X17427Y22979D01*
X18233Y23517D01*
X18840Y24427D01*
X19054Y25500D01*
X18840Y26573D01*
X18653Y26854D01*
X18503Y28101D01*
X18749Y28665D01*
X19090Y29177D01*
X19304Y30250D01*
X19090Y31323D01*
X18483Y32233D01*
X17573Y32840D01*
X16500Y33054D01*
D02*
G37*
G36*
X166500Y32318D02*
X164159Y31852D01*
X162174Y30526D01*
X160848Y28541D01*
X160797Y28286D01*
X159502D01*
X159452Y28541D01*
X158125Y30526D01*
X156141Y31852D01*
X153800Y32318D01*
X151459Y31852D01*
X149474Y30526D01*
X148148Y28541D01*
X148097Y28286D01*
X146802D01*
X146752Y28541D01*
X145426Y30526D01*
X143441Y31852D01*
X141100Y32318D01*
X138759Y31852D01*
X136774Y30526D01*
X135448Y28541D01*
X135397Y28286D01*
X134102D01*
X134052Y28541D01*
X132726Y30526D01*
X130741Y31852D01*
X128400Y32318D01*
X126059Y31852D01*
X124074Y30526D01*
X122748Y28541D01*
X122697Y28286D01*
X121402D01*
X121352Y28541D01*
X120026Y30526D01*
X118041Y31852D01*
X115700Y32318D01*
X113359Y31852D01*
X111374Y30526D01*
X110048Y28541D01*
X109582Y26200D01*
X110048Y23859D01*
X111374Y21874D01*
X113359Y20548D01*
X113614Y20497D01*
Y19203D01*
X113359Y19152D01*
X111374Y17826D01*
X110048Y15841D01*
X109582Y13500D01*
X110048Y11159D01*
X111374Y9174D01*
X113359Y7848D01*
X115700Y7383D01*
X118041Y7848D01*
X120026Y9174D01*
X121352Y11159D01*
X121817Y13500D01*
X121352Y15841D01*
X120026Y17826D01*
X118041Y19152D01*
X117786Y19203D01*
Y20497D01*
X118041Y20548D01*
X120026Y21874D01*
X121352Y23859D01*
X121402Y24114D01*
X122697D01*
X122748Y23859D01*
X124074Y21874D01*
X126059Y20548D01*
X128400Y20082D01*
X130741Y20548D01*
X132726Y21874D01*
X134052Y23859D01*
X134102Y24114D01*
X135397D01*
X135448Y23859D01*
X136774Y21874D01*
X138759Y20548D01*
X141100Y20082D01*
X143441Y20548D01*
X145426Y21874D01*
X146752Y23859D01*
X146802Y24114D01*
X148097D01*
X148148Y23859D01*
X149474Y21874D01*
X151459Y20548D01*
X151713Y20497D01*
Y19203D01*
X151459Y19152D01*
X149474Y17826D01*
X148148Y15841D01*
X147682Y13500D01*
X148148Y11159D01*
X149474Y9174D01*
X151459Y7848D01*
X153800Y7383D01*
X156141Y7848D01*
X158125Y9174D01*
X159452Y11159D01*
X159917Y13500D01*
X159452Y15841D01*
X158125Y17826D01*
X156141Y19152D01*
X155886Y19203D01*
Y20497D01*
X156141Y20548D01*
X158125Y21874D01*
X159452Y23859D01*
X159502Y24114D01*
X160797D01*
X160848Y23859D01*
X162174Y21874D01*
X164159Y20548D01*
X166500Y20082D01*
X168841Y20548D01*
X170826Y21874D01*
X172152Y23859D01*
X172617Y26200D01*
X172152Y28541D01*
X170826Y30526D01*
X168841Y31852D01*
X166500Y32318D01*
D02*
G37*
G36*
X524158Y33304D02*
X523085Y33090D01*
X522175Y32483D01*
X521567Y31573D01*
X521354Y30500D01*
X521567Y29427D01*
X522175Y28517D01*
X523085Y27910D01*
X524158Y27696D01*
X525231Y27910D01*
X526140Y28517D01*
X526748Y29427D01*
X526962Y30500D01*
X526748Y31573D01*
X526140Y32483D01*
X525231Y33090D01*
X524158Y33304D01*
D02*
G37*
G36*
X644158Y31554D02*
X643085Y31340D01*
X642175Y30733D01*
X641567Y29823D01*
X641354Y28750D01*
X641567Y27677D01*
X642175Y26767D01*
X643085Y26160D01*
X644158Y25946D01*
X645231Y26160D01*
X646140Y26767D01*
X646748Y27677D01*
X646962Y28750D01*
X646748Y29823D01*
X646140Y30733D01*
X645231Y31340D01*
X644158Y31554D01*
D02*
G37*
G36*
X500250Y33554D02*
X499177Y33340D01*
X498267Y32733D01*
X497660Y31823D01*
X497446Y30750D01*
X497660Y29677D01*
X496643Y28912D01*
X496375Y28733D01*
X495767Y27823D01*
X495554Y26750D01*
X495767Y25677D01*
X496375Y24767D01*
X497285Y24160D01*
X498358Y23946D01*
X499431Y24160D01*
X500383Y24741D01*
X501335Y24160D01*
X502408Y23946D01*
X503481Y24160D01*
X504390Y24767D01*
X504998Y25677D01*
X505212Y26750D01*
X504998Y27823D01*
X504390Y28733D01*
X503481Y29340D01*
X502935Y29449D01*
X502840Y29677D01*
X503054Y30750D01*
X502840Y31823D01*
X502233Y32733D01*
X501323Y33340D01*
X500250Y33554D01*
D02*
G37*
G36*
X178250Y28804D02*
X177177Y28591D01*
X176267Y27983D01*
X175660Y27073D01*
X175446Y26000D01*
X175660Y24927D01*
X176267Y24018D01*
X177177Y23410D01*
X178250Y23196D01*
X179323Y23410D01*
X180233Y24018D01*
X180840Y24927D01*
X181054Y26000D01*
X180840Y27073D01*
X180233Y27983D01*
X179323Y28591D01*
X178250Y28804D01*
D02*
G37*
G36*
X240750Y28304D02*
X239677Y28090D01*
X238767Y27483D01*
X238160Y26573D01*
X237946Y25500D01*
X238160Y24427D01*
X238767Y23517D01*
X239677Y22910D01*
X240750Y22696D01*
X241823Y22910D01*
X242733Y23517D01*
X243340Y24427D01*
X243554Y25500D01*
X243340Y26573D01*
X242733Y27483D01*
X241823Y28090D01*
X240750Y28304D01*
D02*
G37*
G36*
X419250Y19554D02*
X418177Y19340D01*
X417954Y19191D01*
X417000Y18833D01*
X416046Y19191D01*
X415823Y19340D01*
X414750Y19554D01*
X413677Y19340D01*
X413454Y19191D01*
X412500Y18833D01*
X411546Y19191D01*
X411323Y19340D01*
X410250Y19554D01*
X409177Y19340D01*
X408267Y18733D01*
X407659Y17823D01*
X407446Y16750D01*
X407659Y15677D01*
X408267Y14767D01*
X409177Y14160D01*
X410250Y13946D01*
X411323Y14160D01*
X411546Y14309D01*
X412500Y14667D01*
X413454Y14309D01*
X413677Y14160D01*
X414750Y13946D01*
X415823Y14160D01*
X416046Y14309D01*
X417000Y14667D01*
X417954Y14309D01*
X418177Y14160D01*
X419250Y13946D01*
X420323Y14160D01*
X421233Y14767D01*
X421840Y15677D01*
X422054Y16750D01*
X421840Y17823D01*
X421233Y18733D01*
X420323Y19340D01*
X419250Y19554D01*
D02*
G37*
G36*
X264375Y24054D02*
X263302Y23840D01*
X262393Y23233D01*
X261785Y22323D01*
X261571Y21250D01*
X261785Y20177D01*
X262393Y19267D01*
X263302Y18660D01*
X264375Y18446D01*
X265448Y18660D01*
X266358Y19267D01*
X266966Y20177D01*
X267179Y21250D01*
X266966Y22323D01*
X266358Y23233D01*
X265448Y23840D01*
X264375Y24054D01*
D02*
G37*
G36*
X710000Y22304D02*
X708927Y22091D01*
X708017Y21483D01*
X707410Y20573D01*
X707196Y19500D01*
X707410Y18427D01*
X708017Y17518D01*
X708927Y16910D01*
X710000Y16696D01*
X711073Y16910D01*
X711983Y17518D01*
X712590Y18427D01*
X712804Y19500D01*
X712590Y20573D01*
X711983Y21483D01*
X711073Y22091D01*
X710000Y22304D01*
D02*
G37*
G36*
X0Y27804D02*
X-1073Y27590D01*
X-1983Y26983D01*
X-2590Y26073D01*
X-4000Y25304D01*
X-5073Y25090D01*
X-5983Y24483D01*
X-6590Y23573D01*
X-6804Y22500D01*
X-6590Y21427D01*
X-5983Y20517D01*
X-5073Y19910D01*
X-4000Y19696D01*
X-2590Y18927D01*
X-1983Y18017D01*
X-1073Y17410D01*
X0Y17196D01*
X1073Y17410D01*
X1983Y18017D01*
X1994Y18034D01*
X3342Y17766D01*
X3410Y17427D01*
X4017Y16517D01*
X4927Y15910D01*
X6000Y15696D01*
X7073Y15910D01*
X7983Y16517D01*
X8590Y17427D01*
X8804Y18500D01*
X8590Y19573D01*
X7983Y20483D01*
X7073Y21091D01*
X6000Y21304D01*
X4927Y21091D01*
X4017Y20483D01*
X4006Y20466D01*
X2658Y20734D01*
X2590Y21073D01*
X2210Y21642D01*
X2068Y22500D01*
X2210Y23358D01*
X2590Y23927D01*
X2804Y25000D01*
X2590Y26073D01*
X1983Y26983D01*
X1073Y27590D01*
X0Y27804D01*
D02*
G37*
G36*
X469550Y20604D02*
X468477Y20390D01*
X467567Y19783D01*
X466960Y18873D01*
X466746Y17800D01*
X466960Y16727D01*
X467567Y15817D01*
X468477Y15209D01*
X469550Y14996D01*
X470623Y15209D01*
X471533Y15817D01*
X472113Y16686D01*
X472326Y16720D01*
X473297Y16681D01*
X473422Y16659D01*
X474017Y15767D01*
X474927Y15160D01*
X476000Y14946D01*
X477073Y15160D01*
X477983Y15767D01*
X478590Y16677D01*
X478804Y17750D01*
X478590Y18823D01*
X477983Y19733D01*
X477073Y20340D01*
X476000Y20554D01*
X474927Y20340D01*
X474017Y19733D01*
X473437Y18864D01*
X473224Y18830D01*
X472253Y18868D01*
X472128Y18891D01*
X471533Y19783D01*
X470623Y20390D01*
X469550Y20604D01*
D02*
G37*
G36*
X61000Y11804D02*
X59927Y11590D01*
X59017Y10983D01*
X59014Y10977D01*
X57486D01*
X57483Y10983D01*
X56573Y11590D01*
X55500Y11804D01*
X54427Y11590D01*
X53517Y10983D01*
X52910Y10073D01*
X52696Y9000D01*
X52910Y7927D01*
X53517Y7017D01*
X54427Y6410D01*
X55500Y6196D01*
X56573Y6410D01*
X57483Y7017D01*
X57486Y7023D01*
X59014D01*
X59017Y7017D01*
X59927Y6410D01*
X61000Y6196D01*
X62073Y6410D01*
X62983Y7017D01*
X63590Y7927D01*
X63804Y9000D01*
X63590Y10073D01*
X62983Y10983D01*
X62073Y11590D01*
X61000Y11804D01*
D02*
G37*
G36*
X183000Y20554D02*
X181927Y20340D01*
X181017Y19733D01*
X180410Y18823D01*
X180196Y17750D01*
X180410Y16677D01*
X181017Y15767D01*
Y14483D01*
X180410Y13573D01*
X180196Y12500D01*
X180410Y11427D01*
X181017Y10517D01*
X181927Y9910D01*
X183000Y9696D01*
X184073Y9910D01*
X184983Y10517D01*
X185590Y11427D01*
X185804Y12500D01*
X185590Y13573D01*
X184983Y14483D01*
Y15767D01*
X185590Y16677D01*
X185804Y17750D01*
X185590Y18823D01*
X184983Y19733D01*
X184073Y20340D01*
X183000Y20554D01*
D02*
G37*
G36*
X322360Y23268D02*
X321287Y23055D01*
X320378Y22447D01*
X319770Y21537D01*
X319557Y20464D01*
X319770Y19391D01*
X319869Y19244D01*
X320267Y17983D01*
X319660Y17073D01*
X319446Y16000D01*
X319660Y14927D01*
X320267Y14017D01*
Y13483D01*
X319660Y12573D01*
X319446Y11500D01*
X319660Y10427D01*
X320267Y9517D01*
X321177Y8910D01*
X322250Y8696D01*
X323323Y8910D01*
X324233Y9517D01*
X324840Y10427D01*
X325054Y11500D01*
X324840Y12573D01*
X324233Y13483D01*
Y14017D01*
X324840Y14927D01*
X325054Y16000D01*
X324840Y17073D01*
X324742Y17221D01*
X324343Y18482D01*
X324951Y19391D01*
X325164Y20464D01*
X324951Y21537D01*
X324343Y22447D01*
X323433Y23055D01*
X322360Y23268D01*
D02*
G37*
G36*
X259000Y9054D02*
X257927Y8840D01*
X257704Y8691D01*
X256750Y8333D01*
X255796Y8691D01*
X255573Y8840D01*
X254500Y9054D01*
X253427Y8840D01*
X253204Y8691D01*
X252250Y8333D01*
X251296Y8691D01*
X251073Y8840D01*
X250000Y9054D01*
X248927Y8840D01*
X248017Y8233D01*
X247410Y7323D01*
X247196Y6250D01*
X247410Y5177D01*
X248017Y4267D01*
X248927Y3660D01*
X250000Y3446D01*
X251073Y3660D01*
X251296Y3809D01*
X252250Y4167D01*
X253204Y3809D01*
X253427Y3660D01*
X254500Y3446D01*
X255573Y3660D01*
X255796Y3809D01*
X256750Y4167D01*
X257704Y3809D01*
X257927Y3660D01*
X259000Y3446D01*
X260073Y3660D01*
X260983Y4267D01*
X261590Y5177D01*
X261804Y6250D01*
X261590Y7323D01*
X260983Y8233D01*
X260073Y8840D01*
X259000Y9054D01*
D02*
G37*
G36*
X198750Y13804D02*
X197677Y13590D01*
X196767Y12983D01*
X196160Y12073D01*
X195946Y11000D01*
X196160Y9927D01*
X196767Y9017D01*
X197677Y8410D01*
X198750Y8196D01*
X199823Y8410D01*
X200733Y9017D01*
X201340Y9927D01*
X201554Y11000D01*
X201340Y12073D01*
X200733Y12983D01*
X199823Y13590D01*
X198750Y13804D01*
D02*
G37*
G36*
X694775Y12304D02*
X693702Y12091D01*
X692792Y11483D01*
X692185Y10573D01*
X691971Y9500D01*
X692185Y8427D01*
X692792Y7518D01*
X693702Y6910D01*
X694775Y6696D01*
X695848Y6910D01*
X696758Y7518D01*
X697365Y8427D01*
X697579Y9500D01*
X697365Y10573D01*
X696758Y11483D01*
X695848Y12091D01*
X694775Y12304D01*
D02*
G37*
G36*
X364500Y9054D02*
X363427Y8840D01*
X362517Y8233D01*
X361910Y7323D01*
X361696Y6250D01*
X361910Y5177D01*
X362517Y4267D01*
X363427Y3660D01*
X364500Y3446D01*
X365573Y3660D01*
X366483Y4267D01*
X367090Y5177D01*
X367304Y6250D01*
X367090Y7323D01*
X366483Y8233D01*
X365573Y8840D01*
X364500Y9054D01*
D02*
G37*
%LPD*%
G36*
X497958Y168525D02*
X497815Y168663D01*
X497671Y168786D01*
X497527Y168895D01*
X497380Y168989D01*
X497233Y169069D01*
X497085Y169134D01*
X496936Y169185D01*
X496785Y169221D01*
X496633Y169243D01*
X496481Y169250D01*
Y170250D01*
X496633Y170257D01*
X496785Y170279D01*
X496936Y170315D01*
X497085Y170366D01*
X497233Y170431D01*
X497380Y170511D01*
X497527Y170605D01*
X497671Y170714D01*
X497815Y170837D01*
X497958Y170975D01*
Y168525D01*
D02*
G37*
G36*
X504020Y64244D02*
X504041Y64093D01*
X504078Y63942D01*
X504128Y63793D01*
X504194Y63644D01*
X504273Y63497D01*
X504368Y63351D01*
X504477Y63206D01*
X504600Y63062D01*
X504738Y62920D01*
X502287D01*
X502425Y63062D01*
X502548Y63206D01*
X502657Y63351D01*
X502752Y63497D01*
X502831Y63644D01*
X502896Y63793D01*
X502947Y63942D01*
X502984Y64093D01*
X503005Y64244D01*
X503013Y64397D01*
X504012D01*
X504020Y64244D01*
D02*
G37*
G36*
X464087Y196858D02*
X463964Y196714D01*
X463855Y196569D01*
X463761Y196423D01*
X463681Y196276D01*
X463616Y196127D01*
X463565Y195978D01*
X463529Y195827D01*
X463507Y195676D01*
X463500Y195523D01*
X462500D01*
X462493Y195676D01*
X462471Y195827D01*
X462435Y195978D01*
X462384Y196127D01*
X462319Y196276D01*
X462239Y196423D01*
X462145Y196569D01*
X462036Y196714D01*
X461913Y196858D01*
X461775Y197000D01*
X464225D01*
X464087Y196858D01*
D02*
G37*
G36*
X459415Y171324D02*
X459437Y171173D01*
X459473Y171022D01*
X459524Y170873D01*
X459589Y170724D01*
X459669Y170577D01*
X459763Y170431D01*
X459872Y170286D01*
X459995Y170142D01*
X460133Y170000D01*
X457683D01*
X457820Y170142D01*
X457944Y170286D01*
X458052Y170431D01*
X458147Y170577D01*
X458226Y170724D01*
X458292Y170873D01*
X458342Y171022D01*
X458379Y171173D01*
X458400Y171324D01*
X458408Y171477D01*
X459408D01*
X459415Y171324D01*
D02*
G37*
G36*
X565533Y143695D02*
X565399Y143824D01*
X565263Y143938D01*
X565124Y144040D01*
X564982Y144127D01*
X564837Y144202D01*
X564689Y144262D01*
X564539Y144310D01*
X564386Y144343D01*
X564230Y144364D01*
X564072Y144370D01*
Y145470D01*
X564230Y145477D01*
X564386Y145497D01*
X564539Y145531D01*
X564689Y145578D01*
X564837Y145639D01*
X564982Y145713D01*
X565124Y145801D01*
X565263Y145902D01*
X565399Y146017D01*
X565533Y146145D01*
Y143695D01*
D02*
G37*
G36*
X390587Y151358D02*
X390464Y151214D01*
X390355Y151069D01*
X390261Y150923D01*
X390181Y150776D01*
X390116Y150627D01*
X390065Y150478D01*
X390029Y150327D01*
X390007Y150176D01*
X390000Y150023D01*
X389000D01*
X388993Y150176D01*
X388971Y150327D01*
X388935Y150478D01*
X388884Y150627D01*
X388819Y150776D01*
X388739Y150923D01*
X388645Y151069D01*
X388536Y151214D01*
X388413Y151358D01*
X388275Y151500D01*
X390725D01*
X390587Y151358D01*
D02*
G37*
G36*
X407174Y122574D02*
X407196Y122423D01*
X407233Y122272D01*
X407283Y122123D01*
X407349Y121974D01*
X407428Y121827D01*
X407523Y121681D01*
X407631Y121536D01*
X407755Y121392D01*
X407892Y121250D01*
X405442D01*
X405580Y121392D01*
X405703Y121536D01*
X405812Y121681D01*
X405906Y121827D01*
X405986Y121974D01*
X406051Y122123D01*
X406102Y122272D01*
X406138Y122423D01*
X406160Y122574D01*
X406167Y122727D01*
X407167D01*
X407174Y122574D01*
D02*
G37*
D13*
X515750Y69750D02*
X517753Y67747D01*
X509500Y51750D02*
X517753Y60002D01*
Y67747D01*
X493500Y51750D02*
X509500D01*
X487750Y46000D02*
X493500Y51750D01*
X473000Y46000D02*
X487750D01*
X548500Y99750D02*
X558658Y109908D01*
X532250Y99750D02*
X548500D01*
X530250Y97750D02*
X532250Y99750D01*
X530250Y82750D02*
Y97750D01*
X526750Y79250D02*
X530250Y82750D01*
X519250Y79250D02*
X526750D01*
X515750Y75750D02*
X519250Y79250D01*
X515750Y69750D02*
Y75750D01*
X558658Y109908D02*
Y143000D01*
X488623Y122530D02*
X492750Y118403D01*
Y100592D02*
Y118403D01*
X490458Y98300D02*
X492750Y100592D01*
X470454Y43454D02*
X473000Y46000D01*
X470454Y40546D02*
Y43454D01*
X558658Y143000D02*
X560658Y145000D01*
X480202Y118280D02*
X484452Y122530D01*
X488623D01*
X486862Y98300D02*
X490458D01*
D14*
X503512Y74995D02*
G03*
X501750Y79250I-6018J0D01*
G01*
X498500Y87000D02*
G03*
X501682Y79318I10864J0D01*
G01*
X471408Y166846D02*
G03*
X476503Y161750I5096J0D01*
G01*
X486782Y151471D02*
G03*
X476503Y161750I-10279J0D01*
G01*
X476658Y178250D02*
G03*
X471408Y173000I0J-5250D01*
G01*
X489343Y142314D02*
G03*
X489345Y142312I6190J6186D01*
G01*
X486782Y148500D02*
G03*
X489343Y142314I8751J0D01*
G01*
X487408Y174000D02*
G03*
X483158Y178250I-4250J0D01*
G01*
X487408Y173500D02*
G03*
X491158Y169750I3750J0D01*
G01*
X498500Y125956D02*
G03*
X493408Y138250I-17386J0D01*
G01*
X223750Y201000D02*
X230646D01*
X213250Y190500D02*
X223750Y201000D01*
X230646D02*
X232396Y202750D01*
X371000Y143500D02*
X389750Y162250D01*
X363000Y143500D02*
X371000D01*
X355812Y136312D02*
X363000Y143500D01*
X463000Y182592D02*
Y198250D01*
X458908Y178500D02*
X463000Y182592D01*
X232396Y202750D02*
X292000D01*
X355812Y132311D02*
Y136312D01*
X321000Y97500D02*
X355812Y132311D01*
X247250Y97500D02*
X321000D01*
X237500Y87750D02*
X247250Y97500D01*
X219500Y87750D02*
X237500D01*
X213000Y81250D02*
X219500Y87750D01*
X206300Y81250D02*
X213000D01*
X203050Y78000D02*
X206300Y81250D01*
X209500Y190500D02*
X213250D01*
X207631Y192369D02*
X209500Y190500D01*
X189881Y192369D02*
X207631D01*
X407750Y200750D02*
X414750Y193750D01*
Y166750D02*
Y193750D01*
X410250Y162250D02*
X414750Y166750D01*
X389750Y162250D02*
X410250D01*
X294000Y200750D02*
X407750D01*
X292000Y202750D02*
X294000Y200750D01*
X189750Y192500D02*
X189881Y192369D01*
X389500Y146908D02*
Y152750D01*
X503512Y61670D02*
Y74995D01*
X498500Y87000D02*
Y125956D01*
X501682Y79318D02*
X501750Y79250D01*
X486782Y148500D02*
Y151471D01*
X471408Y166846D02*
Y173000D01*
X476658Y178250D02*
X483158D01*
X489343Y142314D02*
X489345Y142312D01*
X493408Y138250D01*
X487408Y173500D02*
Y174000D01*
X491158Y169750D02*
X499208D01*
X406667Y120000D02*
Y129740D01*
X389500Y146908D02*
X406667Y129740D01*
X458908Y168750D02*
Y178500D01*
X499208Y169750D02*
X499458D01*
D143*
X214000Y206400D02*
D03*
X125100D02*
D03*
X128400Y13500D02*
D03*
X141100D02*
D03*
X166500D02*
D03*
D146*
X111750Y138500D02*
X144750Y105500D01*
Y89375D02*
Y105500D01*
X116600Y202879D02*
Y206650D01*
X110000Y213250D02*
X116600Y206650D01*
X64500Y213250D02*
X110000D01*
X116600Y202879D02*
X121579Y197900D01*
X128875Y73500D02*
X144750Y89375D01*
X111750Y152750D02*
Y157500D01*
Y138500D02*
Y152750D01*
X56500Y210750D02*
X62000D01*
X121579Y197900D02*
X205500D01*
X214000Y206400D01*
X62000Y210750D02*
X64500Y213250D01*
D149*
X369250Y154000D02*
X386000Y170750D01*
X341408Y154000D02*
X369250D01*
X386000Y170750D02*
X407000D01*
D150*
X317125Y111375D02*
X320000Y108500D01*
X297500Y131000D02*
X317125Y111375D01*
X242750Y161250D02*
X273000Y131000D01*
X297500D01*
D153*
X560737Y144920D02*
X565975D01*
D156*
X30750Y200500D02*
D03*
X26250D02*
D03*
X657250Y200500D02*
D03*
X674000D02*
D03*
X714000Y51500D02*
D03*
X714500Y41000D02*
D03*
X698750Y67750D02*
D03*
X258000Y161500D02*
D03*
X242750Y161250D02*
D03*
X235250Y209500D02*
D03*
X262250Y199250D02*
D03*
X232750Y92750D02*
D03*
X-1500Y182499D02*
D03*
X690750Y42750D02*
D03*
X676000D02*
D03*
X649500Y26000D02*
D03*
X702000Y28500D02*
D03*
X-4750Y44000D02*
D03*
X-4000Y160501D02*
D03*
X230000Y216000D02*
D03*
X110125Y98750D02*
D03*
X110000Y204250D02*
D03*
X111750Y157500D02*
D03*
X21750Y174000D02*
D03*
X26250D02*
D03*
X30750D02*
D03*
X21750Y200500D02*
D03*
X111750Y152750D02*
D03*
X327000Y163250D02*
D03*
X317500Y159000D02*
D03*
X402500Y186500D02*
D03*
X410000Y178750D02*
D03*
X406250Y182500D02*
D03*
X20750Y97750D02*
D03*
X245500Y90000D02*
D03*
X161600Y140000D02*
D03*
X83500Y78500D02*
D03*
X163000Y188250D02*
D03*
X369250Y6250D02*
D03*
X134750Y126000D02*
D03*
X239750Y110750D02*
D03*
X190250Y23000D02*
D03*
X197000D02*
D03*
X317125Y111375D02*
D03*
X320000Y108500D02*
D03*
X463750Y69500D02*
D03*
X203050Y78000D02*
D03*
X30750Y106750D02*
D03*
X-1500Y202499D02*
D03*
X2750D02*
D03*
X250Y160501D02*
D03*
X-4000Y142499D02*
D03*
X250D02*
D03*
X-4000Y127501D02*
D03*
X250D02*
D03*
X-4000Y112499D02*
D03*
X250D02*
D03*
X-4000Y93000D02*
D03*
X-500Y82500D02*
D03*
X250Y65250D02*
D03*
X87000Y67250D02*
D03*
X97250Y73000D02*
D03*
X19500Y129250D02*
D03*
X28250Y135750D02*
D03*
X724175Y48000D02*
D03*
X754825Y15000D02*
D03*
X754825Y33000D02*
D03*
X754825Y39000D02*
D03*
Y57000D02*
D03*
X749750Y62250D02*
D03*
X739500Y80000D02*
D03*
X285250Y28250D02*
D03*
X522250Y213250D02*
D03*
X722587Y72738D02*
D03*
X754825Y163000D02*
D03*
X754825Y181000D02*
D03*
X754825Y187000D02*
D03*
Y205000D02*
D03*
X744750Y211750D02*
D03*
X730000Y207000D02*
D03*
X722750Y189250D02*
D03*
X738000Y174500D02*
D03*
X732250Y160500D02*
D03*
X744500Y146750D02*
D03*
X230750Y19500D02*
D03*
X189750Y192500D02*
D03*
X509250Y7250D02*
D03*
X289200Y207750D02*
D03*
X307750Y207000D02*
D03*
X309750Y104750D02*
D03*
X427750Y52250D02*
D03*
X432250D02*
D03*
X350000Y3250D02*
D03*
X398500Y5750D02*
D03*
X254500Y110500D02*
D03*
X254250Y93500D02*
D03*
X267865Y94000D02*
D03*
X233400Y82850D02*
D03*
X229100Y95650D02*
D03*
X258250Y22000D02*
D03*
X180250Y111750D02*
D03*
X143750Y142500D02*
D03*
X113500Y124500D02*
D03*
X134500Y142750D02*
D03*
X668250Y196750D02*
D03*
X665000Y97500D02*
D03*
X268750Y83000D02*
D03*
X405250Y169000D02*
D03*
X409500Y170000D02*
D03*
X406250Y173250D02*
D03*
X422750Y186750D02*
D03*
X431750Y195000D02*
D03*
X407500Y209000D02*
D03*
X295500Y107750D02*
D03*
X288500Y100850D02*
D03*
X282000Y94000D02*
D03*
X198800Y83500D02*
D03*
X128875Y73500D02*
D03*
X313750Y28250D02*
D03*
X683250Y42750D02*
D03*
X665000Y47000D02*
D03*
X625158Y85250D02*
D03*
X644158Y76500D02*
D03*
X650908Y91500D02*
D03*
X638658Y94500D02*
D03*
Y101500D02*
D03*
X635158Y98000D02*
D03*
X710000Y24250D02*
D03*
Y14750D02*
D03*
X227550Y33250D02*
D03*
X289296Y12000D02*
D03*
X637565Y200250D02*
D03*
X296635Y146250D02*
D03*
X527250Y183250D02*
D03*
X536750Y201000D02*
D03*
X431750Y19500D02*
D03*
X460250Y19750D02*
D03*
X439000Y19500D02*
D03*
X449750Y19750D02*
D03*
X403250Y26500D02*
D03*
X623658Y19250D02*
D03*
X550908Y17000D02*
D03*
X319000Y75000D02*
D03*
X319250Y92250D02*
D03*
X202563Y189119D02*
D03*
X541158Y184500D02*
D03*
X667408Y166750D02*
D03*
X696250Y137250D02*
D03*
X389500Y152750D02*
D03*
X406667Y120000D02*
D03*
X416667Y110000D02*
D03*
X406667D02*
D03*
X356667Y80000D02*
D03*
X564408Y34250D02*
D03*
X470454Y40546D02*
D03*
X432658Y67500D02*
D03*
X411667Y85000D02*
D03*
X581158Y31750D02*
D03*
X593408Y137250D02*
D03*
X499208Y169750D02*
D03*
X503512Y61670D02*
D03*
X451250Y192500D02*
D03*
X463000Y198250D02*
D03*
X158000Y185000D02*
D03*
X350158Y154500D02*
D03*
X361000Y163500D02*
D03*
X345908Y154500D02*
D03*
X341408D02*
D03*
X458908Y168750D02*
D03*
X371500Y170250D02*
D03*
X643158Y195750D02*
D03*
X565158Y5250D02*
D03*
X628250Y200250D02*
D03*
X613408Y183250D02*
D03*
X409908Y156750D02*
D03*
X175250Y124600D02*
D03*
X437658Y82500D02*
D03*
X129450Y94750D02*
D03*
X425158Y134000D02*
D03*
X390658Y157475D02*
D03*
X439408Y102750D02*
D03*
X396667Y80000D02*
D03*
X391667Y90000D02*
D03*
X88500Y51500D02*
D03*
X209500Y106750D02*
D03*
X191500Y84750D02*
D03*
X401667Y100000D02*
D03*
Y120000D02*
D03*
X411667Y90000D02*
D03*
X376667Y95000D02*
D03*
X342158Y137500D02*
D03*
X381667Y110000D02*
D03*
X366667Y80000D02*
D03*
X386667Y115000D02*
D03*
X366667Y140000D02*
D03*
X337408Y126750D02*
D03*
X351667Y135000D02*
D03*
X346667Y80250D02*
D03*
X371667Y85000D02*
D03*
X351667Y115000D02*
D03*
X371667Y125000D02*
D03*
X356667Y100000D02*
D03*
X196500Y124500D02*
D03*
X452908Y90750D02*
D03*
X605908Y84000D02*
D03*
X582750Y186000D02*
D03*
X474658Y169500D02*
D03*
X618000Y72750D02*
D03*
X607830Y50000D02*
D03*
X684158Y153250D02*
D03*
X602408Y109000D02*
D03*
X679658Y53000D02*
D03*
X638908Y31500D02*
D03*
X645908Y185000D02*
D03*
X634658Y173250D02*
D03*
X581408Y175000D02*
D03*
X609158Y7250D02*
D03*
X678158Y117250D02*
D03*
X667408Y112250D02*
D03*
X621658Y107750D02*
D03*
X665158Y53000D02*
D03*
X571658Y46250D02*
D03*
X546658Y51250D02*
D03*
X543473Y68330D02*
D03*
X628658Y135000D02*
D03*
X648658Y162000D02*
D03*
X454500Y39000D02*
D03*
X454250Y44250D02*
D03*
X412000Y33750D02*
D03*
X480202Y118280D02*
D03*
X492408Y163750D02*
D03*
X502408Y166250D02*
D03*
X608908Y135500D02*
D03*
X538658Y40500D02*
D03*
X510158Y41750D02*
D03*
X500408Y38750D02*
D03*
X488408Y41250D02*
D03*
X475750D02*
D03*
X579908Y78250D02*
D03*
X533658Y143250D02*
D03*
X583529Y129079D02*
D03*
X561158Y16250D02*
D03*
X692908Y153500D02*
D03*
X658908Y145750D02*
D03*
X674908Y62500D02*
D03*
X665083Y80500D02*
D03*
X645658Y126500D02*
D03*
X650408Y139500D02*
D03*
X629408Y19250D02*
D03*
X660658Y174750D02*
D03*
X634908Y27250D02*
D03*
X649158Y60750D02*
D03*
X638908Y47000D02*
D03*
X576773Y141590D02*
D03*
X523493Y161571D02*
D03*
X480202Y144921D02*
D03*
X467408Y144869D02*
D03*
X560123Y158241D02*
D03*
X500182Y151581D02*
D03*
X516833Y154911D02*
D03*
X563453Y148251D02*
D03*
X566783Y144920D02*
D03*
X540143Y65000D02*
D03*
X486862Y104960D02*
D03*
X483532Y108290D02*
D03*
X486862Y98300D02*
D03*
X476872Y81650D02*
D03*
X520163Y71660D02*
D03*
X506842Y65000D02*
D03*
X500182Y58340D02*
D03*
X573443Y131600D02*
D03*
Y124940D02*
D03*
X48750Y187250D02*
D03*
X59250Y199250D02*
D03*
Y175250D02*
D03*
Y193500D02*
D03*
Y181000D02*
D03*
X56500Y210750D02*
D03*
X62000D02*
D03*
X24000Y206000D02*
D03*
X28750D02*
D03*
X90750Y205500D02*
D03*
X86750D02*
D03*
X36000Y62000D02*
D03*
X31250D02*
D03*
X35250Y5000D02*
D03*
X18750Y8250D02*
D03*
X89250Y14000D02*
D03*
X94000D02*
D03*
X93250Y51500D02*
D03*
X58250Y39000D02*
D03*
X58250Y26500D02*
D03*
X58250Y44750D02*
D03*
Y20750D02*
D03*
X68750Y32750D02*
D03*
D157*
X52000Y104500D02*
D03*
Y115500D02*
D03*
X63000Y104500D02*
D03*
X524803Y95000D02*
D03*
Y85000D02*
D03*
Y115000D02*
D03*
Y105000D02*
D03*
Y125000D02*
D03*
Y135000D02*
D03*
X534803Y134900D02*
D03*
Y124900D02*
D03*
Y104900D02*
D03*
Y114900D02*
D03*
Y84900D02*
D03*
Y94900D02*
D03*
X544803Y124900D02*
D03*
Y104900D02*
D03*
Y114900D02*
D03*
Y94900D02*
D03*
X504803D02*
D03*
Y114900D02*
D03*
Y104900D02*
D03*
Y124900D02*
D03*
X514803Y94900D02*
D03*
Y84900D02*
D03*
Y114900D02*
D03*
Y104900D02*
D03*
Y124900D02*
D03*
Y134900D02*
D03*
D158*
X159750Y90750D02*
D03*
Y101750D02*
D03*
X170750Y90750D02*
D03*
Y101750D02*
D03*
X544803Y134900D02*
D03*
Y84900D02*
D03*
X504803D02*
D03*
Y134900D02*
D03*
M02*
